<svg xmlns="http://www.w3.org/2000/svg" width="835.043" height="978.327" viewBox="-311.3 493.29 626.282 733.745">
    <g stroke="#626668">
        <path fill="none" stroke-linecap="round" stroke-linejoin="round" stroke-width="5" d="M-97.429 647.421q5.501-.396 8.612-.745t4.808-.567 2.824-.352 1.788-.196 2.287-.339 2.833-.452q1.208-.174 3.092-.303l2.961-1.081m13.828-70.577.026.711q-.034.462.052 3.453t.427 7.057.368 5.691.202 3.818m.729-.331.743-.045q.828.032 2.121.331.92.134 3.224.317 2.303.182 6.024.145t5.588-.127q1.868-.091 3.842-.19t4.064-.211 4.431-.214q2.342-.102 3.296-.145t1.984-.137 6.797-.355q5.767-.26 7.96-.42t8.379-.381 8.881-.271l5.241-.099q2.546-.048 3.586-.061 1.041-.014 2.49-.058m-51.104 8.475.025.147q.868 3.45 1.265 4.619.396 1.17 1.037 2.406t1.3 2.111 1.049 1.247q.39.374.976.739.585.366 1.618.718t1.896.487 1.586.178 2.025-.126q1.301-.169 2.593-.779 1.292-.611 1.895-1.031.602-.42 1.14-.913t.91-.93.799-1.069.725-1.232.714-2.098.562-2.584.331-2.691"/>
        <path fill="none" stroke-linecap="round" stroke-linejoin="round" stroke-width="5" d="M-22.148 605.985q.818-.155 2.683-.863 1.864-.707 2.957-1.011t2.896-.519l1.496-.079.795.011q2.191.324 3.009.551t3.453.981m-173.481-27.411-.14.555-.082.756q-.082 1.441-.276 7.54-.193 6.099-.197 8.963-.003 2.865.013 5.716t.081 5.93m.127 1.451q.701-.187 5.896-.396t8.776-.277q3.58-.067 5.197-.133 1.616-.065 3.866-.199t3.223-.199q.972-.064 2.841-.102t2.274-.056 1.404.005 2.542.033m5.175 3.844q.027.411-.05.717-.076.306-.181 2.314t-.019 4.613.157 5.227.165 8.411q.093 5.79.153 11.164t.086 9.12.017 5.112-.038 2.811l-.076 3.988q-.049 2.541-.087 3.852m1.458-.127q.857.25 4.178.309t4.465.041q1.143-.018 2.269-.029t2.047-.069 1.992-.085q1.071-.026 1.153-.043.082-.018 1.455.013 1.374.031 2.929.039t3.225-.04l2.551-.075q.881-.026 3.141-.185t2.651-.173q.393-.015 2.906-.237m-9.857-86.791-.096.613q-.073 2.056-.068 3.58t-.003 4.241q-.009 2.715.068 5.735.077 3.019.248 6.351t.545 10.424q.375 7.091.621 11.237t.357 7.48q.111 3.333.155 4.788.045 1.455.146 4.891t.134 5.711q.034 2.276-.029 6.989-.062 4.713-.234 10.954l-.058.755m.255 18.135-.942-.327q-4.592-.462-5.892-.534-1.301-.071-2.328-.014-1.028.058-1.635.147-.607.09-3.026.551-2.42.462-2.777.564-.358.103-.859.312-.502.209-1.041.52t-.644.349-1.135.902-1.475 1.382-.939 1.31-.545.852q-.051.062-.678 1.76-.627 1.699-.748 3.039-.121 1.339-.052 2.312t.082 1.207q.014.234.301 1.235t.893 2.166q.605 1.166.958 1.641.352.475.675.826.324.35 1.005.895.681.544 1.134.805.453.26.534.326.08.067 1.376.524t2.559.583 1.933.102 1.624-.183 2.199-.5q1.246-.343 1.768-.553.521-.209.792-.31.271-.1 1.534-.956 1.264-.856 2.35-1.851t2.089-2.44 1.467-2.396.87-2.157.605-2.369.23-2.746-.252-2.665q-.282-1.081-.953-3.19m3.388 97.048q-.235.018-2.485-.339-2.249-.356-5.872-.659-3.623-.302-5.14-.347t-8.301.471q-6.784.517-7.715.826-.932.309-1.07.341t-.952.441-1.224.691-1.052.975q-.062.06-.707 1.134-.646 1.074-1.035 2.07t-1.186 5.998q-.798 5.003-.908 6.473-.111 1.471-.323 4.129t-.381 5.989-.205 4.683-.11 4.433-.141 5.553-.076 3.666-.018 1.227.012 2.7.105 5.276.367 7.017q.283 4.41.458 5.489.176 1.08.934 3.497.759 2.418 1.028 2.925.269.508.795 1.18.527.673 1.233 1.286t1.449 1.034q.742.421 1.654.79t4.903.952q3.992.582 5.469.569 1.478-.012 1.624-.002t1.594-.074 2.512-.186l1.618-.155q.555-.054 1.595-.133t3.804-.268 2.887-.189q.122-.002 1.574-.112t2.558-.244 2.714-.258"/>
        <path fill="none" stroke-linecap="round" stroke-linejoin="round" stroke-width="5" d="m-115.175 782.798.138 1.849q.201 1.873.532 6.301.332 4.428.454 7.62t.145 4.394.067 4.551q.044 3.348.006 8.49t-.051 5.891q-.012.749-.201 5.693-.189 4.943-.275 7.741l-.161 5.216q-.075 2.418-.082 4.308t-.008 3.667q.001 1.777.042 3.741t.116 4.187.208 4.602m-103.302-229.587q-.157 1.318-.278 5.419-.12 4.1-.131 6.584t.014 4.084l.087 5.687q.063 4.086.139 6.657.076 2.572.21 9.443.135 6.872.199 8.33.063 1.458.215 3.847m1.33-50.84.211.068q1.052.143 4.853.495t5.97.584q2.17.231 3.235.34t1.467.158 1.43.078 1.696.028q.669-.003 2.129-.093l2.217-.055q1.99-.139 3.611-.279m.528 2.38.151.598q-.038.198-.009 3.094t.079 7.222.07 9.281.018 5.875q-.003.922-.002 3.325 0 2.403.005 2.864t-.528 11.492l-.239 1.4m-26.965 1.858q1.121.062 1.267.087t2.705.207 5.338.138 4.338-.148q1.558-.104 2.197-.117.638-.014 1.549-.068.912-.053 2.123-.171t1.476-.125.916-.127 3.124-.478m-87.141-68.185q.009.551-.064 10.772t-.183 17.254-.168 11.18q-.057 4.148-.103 6.336t-.064 6.082q-.02 3.893-.014 5.961t.106 17.772l.034 1.1m-18.601.865q.727-.089 4.603-.602t6.304-.943 3.847-.879q1.421-.449 2.918-.885m-18.219-76.393q.593-.041 1.775.041 1.182.081 1.351.098t3.168.109 4.621.11 3.084.102 2.27.083l3.335-.008m80.4-95.533-.222.752q-.199 4.213-.184 8.26.014 4.048.029 6.586t.064 5.059.073 5.439.011 7.698-.061 8.252-.183 7.012m-35.491-38.47.123.558q.123 3.389.199 6.585t.092 19.592l-.086 2.662m73.113-32.044q-.085 1.344-.231 6.795-.145 5.451-.259 10.858t-.197 7.643-.133 2.928-.237 2.763"/>
        <path fill="none" stroke-linecap="round" stroke-linejoin="round" stroke-width="5" d="M-231.776 526.538q1.63.046 2.258.119t3.152.123 4.411.059 2.673-.012 2.183-.042q1.396-.021 3.489-.09t5.077-.142 4.517-.164 7.977-.172 8.927-.047q2.484.033 3.029.026t2.875-.012 3.614-.002 2.746.029 2.683 0 1.987-.079q.768-.052 2.7-.103 1.931-.051 4.752-.217m-69.651 30.326 1.336-.115q1.637.222 4.418.232t4.333-.008q1.551-.018 1.893-.009.342.01 2.009-.053t2.789-.137q1.121-.074 5.843-.226t6.217-.198 3.44-.138 7.279-.392q5.333-.299 9.896-.347 4.562-.047 7.639.017 3.076.065 4.146.11t2.487.167q1.416.123 2.372.199.957.077 3.9.244t3.498.183"/>
        <path fill="none" stroke-linecap="round" stroke-linejoin="round" stroke-width="2.5" d="M-221.646 528.459q.03.291-.068 1.812t-.068 6.406q.031 4.884.182 7.213t.276 3.93.461 3.813m9.929-21.85q-.055.288-.198 23.703l-.184 2.245m24.286-25.617.26.734q.069.588.616 18.409.02.039-.075 1.651m13.118-23.963q.045 7.763.072 10.795t.089 8.479q.063 5.446.039 7.603m64.731 51.153q.513.02 5.029 0m-4.5 29.715q.528-.037 2.331-.211 1.802-.173 3.153-.311m22.518-35.556.996-.347 2.192-.479q.417-.13 4.624-.948 4.207-.819 5.033-.937m-13.501 19.331 1.106.096q1.45-.22 2.262-.287t1.859-.141 4.324-.334l2.164.004"/>
        <path fill="none" stroke-linecap="round" stroke-linejoin="round" stroke-width="5" d="M-68.316 570.742q-.061.256-.127.663t-.131 1.539-.063 5.414.112 7.522l.177 5.277q.068 2.037.106 3.636.038 1.598.105 4.089.066 2.491.19 10.532.123 8.041.214 11.323.09 3.281.238 7.554t.217 7.274.044 4.344q-.026 1.342-.299 5.381m-229.184 118.084q.337.005 5.156-.144 4.819-.148 6.012-.197t1.91-.104 1.934-.178 1.554-.139 1.852-.141 2.728-.23q1.213-.104 4.861-.215 3.649-.11 6.149-.082 2.5.029 3.718.063t1.337.031 2.722.17 8.602.899m-.2 1.4.144.385q.082.505.366 4.136t.433 8.034.19 6.509q.039 2.107.065 3.894t.174 6.827q.147 5.04.204 7.243t.135 6.748q.079 4.544.105 5.64.025 1.095.072 4.357t.066 7.893q.02 4.632-.021 8.336-.042 3.704-.136 6.582-.094 2.879-.137 4.511-.042 1.632-.253 5.447t-.346 6.606-.384 6.24l-.349 2.291m-48.062 4.76q2.706-.241 7.673-.556t5.004-.306 1.166-.115 1.991-.237q.861-.114 2.532-.241 1.67-.128 4.6-.235t3.464-.124q.533-.016 3.084-.055 2.55-.038 4.525-.144t3.075-.206 2.925-.405 2.152-.352.942-.55 2.342-1.437m-46.104-149.425q.673-.055 2.927.174t3.738.342q1.483.112 2.054.117t3.085.019q2.513.014 3.05.013t1.39-.085 1.792-.151 1.967-.107 2.828-.154q1.799-.116 3.561-.215 1.763-.1 4.661-.32l3.435-.295m1.604 2.38-.232.84-.036 1.276q.028.166.015 4.703-.013 4.536-.102 32.985l-.046.779m47.005 170.068.09.681q.176.501.86 8.124t.846 15.24q.163 7.616.139 10.45l-.029 3.625q-.005.792-.103 3.315m.583-42.695q1.225-.237 2.673-.322t2.372-.113q.925-.027 3.751-.087t5.232.034q2.406.095 3.623.188 1.216.093 2.645.158 1.429.066 2.97.097t4.071.008q2.529-.023 2.915-.055l2.315-.188q1.93-.155 4.051-.302 2.122-.146 4.107-.316 1.986-.169 7.612-.419 5.625-.251 6.622-.281t2.601-.119q1.604-.087 2.893-.144 1.29-.058 2.491-.074t3.436-.049l3.925-.058q1.692-.026 3.545-.02t4.33.104 4.305.141l4.533.109q2.705.067 4.412.085t3.331-.045 9.798-.19"/>
        <path fill="none" stroke-linecap="round" stroke-linejoin="round" stroke-width="2.5" d="M-186.429 929.321q.311 1.428.729 5.386.419 3.957.655 6.004m27.019-11.988q.002.643.187 5.144.185 4.5.287 6.64m26.417-12.115q-.206 1.366-.216 3.441t.271 6.829"/>
        <path fill="none" stroke-linecap="round" stroke-linejoin="round" stroke-width="5" d="M34.026 609.323q1.26-.123 1.999.075.278.044 2.242-.132t3.519-.293q1.557-.118 5.944-.183 4.386-.064 5.505-.049t2.89.082q1.773.068 2.461.08.689.012 4.057.26 3.368.249 6.102.39t5.325.226 5.355.115 5.657.002 3.883-.043 3.335-.082 4.435-.2q2.091-.131 6.227-.288 4.135-.156 7.196-.168 3.06-.011 4.082.018 1.021.03 2.891.07t2.883.072 2.506.049 4.556.039q3.064.023 5.879-.103m-1.658-36.88-.08 4.816q.023.39-.158 6.821-.181 6.432-.174 18.514l.084 1.167M-25.04 633.82l.189.615.196 3.62q-.009.233.232 8.525.24 8.293.355 13.156.115 4.862.159 9.562.044 4.701.11 10.54t.345 11.421q.28 5.581.458 8.106.179 2.524.516 6.733.338 4.209.535 5.957.196 1.747.282 2.533t.448 3.172m-1.311-81.954q1.151-.408 2.319-.715t2.362-.52q1.195-.214 1.28-.222t2.798-.377 4.564-.561 3.987-.199 5.131.081q2.994.089 6.103.23l4.858.219q1.751.08 3.958.031 2.207-.048 3.414-.121t2.47-.147q1.264-.075 1.717-.124t3.775-.49m79.052 19.191.341 1.036q.053.504.085 1.61.031 1.105.238 4.376.206 3.272.734 10.226.528 6.953.57 7.946t.125 2.833.227 4.58.512 28.333l.083 1.887m-2.187-69.445q.677-.159 1.145-.392.467-.234 4.007-1.019t5.474-1.076q1.933-.29 2.21-.314.278-.023 3.649-.341t4.619-.417q1.247-.098 2.308-.205 1.062-.107 2.287-.268t3.634-.428q2.409-.268 3.188-.375M31.693 616.997q.275-.07 1.695-.125 1.421-.055 3.068-.14t2.429-.135 4.192-.06 4.549-.048 1.905-.092 1.534-.12 3.147.134m1.658.255.071.742q.144 3.564.244 7.064.099 3.5.279 8.144.179 4.644.241 7.185t.124 12.481.071 12.593q.01 2.652.008 4.42-.001 1.768.019 7.819m-20.861 2.837q2.826-.365 3.895-.517 1.069-.151 3.028-.406t2.751-.336 3.383-.503 7.676-1.673m7.488-43.497.603.161.411.215 2.203.575q.265.158 1.843.67 1.578.511 2.689 1.073 1.111.563 2.017 1.39.905.826 1.365 1.47t.846 1.403.659 1.703.309 2.181-.173 2.193q-.211.957-.427 1.384l-.366.728q-.15.3-.68.928t-1.007 1.048-1.269 1.044-1.538 1.05-1.557.851-2.207.852-4.522 1.198"/>
        <path fill="none" stroke-linecap="round" stroke-linejoin="round" stroke-width="5" d="m67.986 637.396-.03.533q.058.285-.199 3.239-.256 2.954-.131 5.013.124 2.059.289 3.065t.388 1.757 1.067 3.001"/>
        <path fill="none" stroke-linecap="round" stroke-linejoin="round" stroke-width="2.5" d="M108.578 670.954q.466-.086.775.005l.304.009q.362.139 5.02-.463 4.658-.601 6.29-.874m-11.387 26.215q1.246-.68 1.836-.907t2.693-.847 3.297-1.086 3.032-1.194M33.297 577.941l.534-.079q.609-.132 14.74-1.091l.613-.013m2.186 2.647-.034.899q-.022 3.173.127 11.824.038.1.162 1.504m-20.843 2.38.634.103q.978.104 9.27.238 8.292.135 9.099.13M-8.552 701.598q.107.283.169.793-.029.997.423 11.909.031.132-.064 1.666m.783-14.292q.309-.06 1.498-.564t1.964-.746q.773-.243 4.969-.646t5.997-.381 3.014.179q1.215.158 1.74.235t.659.124 1.595.266l2.14.604m-.128 1.057.304.852q.579 13.477.498 14.368"/>
        <path fill="none" stroke-linecap="round" stroke-linejoin="round" stroke-width="5" d="M-90.965 834.621q1.727-.118 2.817-.165 1.09-.046 5.15-.065 4.059-.018 5.295.025 1.235.044 2.709.199t3.784.351 2.462.211 3.172.13 4.811.13l2.339.017q.549.003 1.95-.03t2.385-.091 2.133-.116q1.15-.06 4.43-.326t7.845-.799 8.415-.947 7.196-.729 4.558-.401 2.968-.269q1.755-.185 2.684-.267t1.152-.086 2.482-.15 4.619-.275m-85.629-30.974.704.078q3.069-.585 4.751-.777 1.682-.191 5.185-.529t5.441-.527q1.937-.189 3.877-.311 1.94-.123 5.676-.39m.328-26.674.052.272-.068 1.277q-.035.429-.037 3.64t.055 5.582.126 4.202.128 2.952.048 2.073-.04 1.593q-.029.639-.064 2.767m-29.205 15.754q.543-.242 1.059-.425.516-.182.685-.262.169-.079 3.735-.429 3.567-.349 5.708-.271m1.002-.191.097 3.356q.021 1.185.486 8.95m-10.986 1.527 1.799-.013.839-.019q.303.058 4.394-.269l5.284-.424m.601-10.066q1.459-.872 1.574-.889.114-.016 1.02-.33.907-.314 2.878-.702 1.971-.389 2.319-.429.349-.04 1.35-.029 1 .01 1.833.163.832.153 1.785.589t1.155.592.732.796q.531.64.789 1.278t.225 1.568q-.034.93-.411 1.693t-1.214 1.543-.948.815q-.112.036-1.18.448-1.069.413-2.791.652t-2.57.189-2.398-.328q-1.551-.276-1.973-.365t-3.177-.904m83.042-19.929.533-.169q3.237-.286 7.577-.722t5.465-.536q1.126-.099 2.244-.247 1.119-.149 3.273-.357t4.483-.476m1.913-27.869-.152.754-.037 2.323.016.98q.031.309.099 5.361.068 5.053.072 9.183l.005 4.8q0 .669-.057 3.412M2.335 809.525q.599.064 9.803-.842l1.183.053m-.201 1.12.209.672q.354 11.098.265 12.232M2.59 824.415l.162-.02q.497.11 8.706.469l1.735.149m2.642-14.889q.345.009 1.084.232l3.125-.266q2.352-.201 3.15-.185t2.264.12 2.042.195.989.214.935.363q.523.239 1.28.893.758.653 1.041 1.198t.369 1.076q.087.53.012.973-.075.444-.495 1.112t-.856 1.075-2.888 1.34-4.446 1.2q-1.996.268-2.769.313t-1.563.054-1.162-.005q-.373-.016-2.841.087M1.405 834.214q.602-.001 1.189.047.587.049 2.266.044 1.678-.004 3.731-.029t3.568-.089 2.751-.157 2.834-.216q1.6-.122 4.249-.32 2.648-.197 2.995-.215.346-.018 3.908-.365 3.562-.346 6.084-.671 2.523-.325 4.754-.597t4.255-.551q2.025-.278 3.055-.435t6.654-.717 10.752-.925l7.303-.52q2.177-.154 3.487-.221t3.05-.134 3.336-.136 3.023-.137 4.055-.131 4.131-.108l2.125.029"/>
        <path fill="none" stroke-linecap="round" stroke-linejoin="round" stroke-width="2.5" d="M-90.181 851.432q.377.377 1.508 2.708 1.13 2.33 1.536 2.811t.64.696q.234.217.822.565.588.349.634.393t1.384.441 2.163.479 4.053.035 4.407-.101 3.404-.266q2.226-.214 2.672-.231t2.17-.145 4.355-.249 5.123-.189l5.635-.154q3.144-.086 4.346-.113t3.741-.161 4.426-.254 4.143-.243 5.378-.485 5.93-1.035 3.618-1.085.896-.439 1.164-1.039 1.452-1.58q.375-.568.559-1.147t.228-.656-.114-1.327q-.158-1.249-1.622-3.11-1.877-1.063-2.232-1.196-.355-.132-1.508-.397-1.153-.264-1.978-.335t-1.974-.142q-1.15-.07-2.93-.138-1.779-.067-5.946-.087t-8.848.068-7.229.113-5.983-.033-5.579-.158-4.084-.141-3.874-.042q-1.935 0-3.546.047-1.612.046-2.819.108t-3.112.268-3.213.425q-1.307.218-2.83.674-1.524.455-4.193 1.698-1.258 1.267-1.64 1.842t-.981 2.064q-.6 1.488-1.264 3.826m101.899-.929.051-.413q-.015-.153-.001-.405t.143-.926q.13-.674.49-1.574.36-.901.566-1.214.207-.313.538-.67t.613-.602.729-.504q.448-.26 2.048-.816 1.601-.557 2.752-.877 1.152-.32 2.019-.49t1.591-.266 2.979-.32q2.256-.226 3.652-.315 1.395-.089 3.917-.271 2.523-.181 3.098-.203t1.98-.144q1.405-.121 1.985-.16.58-.038.715-.023.135.016 6.689-.358t10.943-.578q4.388-.203 5.891-.217 1.502-.013 3.356.132t3.746.457 3.603.73q1.709.417 2.951.946t1.708.843.82.767q.353.452.784 1.442.43.99.511 1.9t-.022 1.513q-.104.604-.22.919t-.607 1.004q-.492.687-.799.964t-1.25.773q-.942.496-3.145 1.07-2.203.573-3.899.711-1.695.138-2.632.168-.936.03-2.171.111-1.236.08-2.837.232t-3.066.256l-3.597.257q-2.131.153-5.655.444-3.524.29-4.058.365-.533.074-5.944.335t-8.517.264q-3.107.003-5.929-.105-2.821-.107-4.306-.289-1.486-.181-1.914-.266t-2.254-.564q-1.825-.478-3.047-1.045t-1.547-.765-.923-1-1.285-2.348-1.316-2.986m2.988-77.449q-.329.436-.829.857t-1.109 1.118-1.05 1.578q-.44.882-.743 1.67-.304.788-.385 2.207t.181 2.382q.261.964.344 1.089t.91.926 1.354 1.069q.525.269 1.242.323.716.053 1.284-.139.568-.193.943-.432.376-.239.669-.507.292-.268.69-.829t.584-.969.333-.925.197-.946-.013-1.186q-.064-.759-.466-1.695t-.744-1.413q-.343-.477-.676-.82t-1.731-1.043-3.426-1.322m-92.771 3.448q-.114.141-.231.346-.116.204-.182.2-.067-.005-.804.119t-1.328.416-.936.548-.967 1.054-.93 1.373-.596 1.785q-.288 1.211-.184 2.534t.317 1.899q.212.578.459.984t.666.808q.419.4.83.655.411.254 1.143.47.731.216 1.545.157.815-.058 1.388-.362.574-.304 1.477-1.253.904-.95 1.073-1.311t.255-.523.284-1.304.032-2.304-.336-1.681-.283-.743q-.114-.226-.631-.858t-2.462-2.881"/>
        <path fill="none" stroke-linecap="round" stroke-linejoin="round" stroke-width="5" d="M127.688 937.019q-.076.635-.116 4.393-.039 3.758.004 7.487t.062 9.582.022 5.888q.003.033-.042 5.832t-.139 10.19-.136 5.906q-.043 1.514-.087 4.02t-.169 7.544m2.988-61.237q.427-.123 1.927-.342.698.032 1.801 0 1.104-.031 1.195-.021t1.374-.06 1.684-.124 2.289-.119 3.135-.074 2.307.027 2.43.054q1.371.017 3.544.013t4.946-.014l3.52-.014q.747-.002 4.08-.114t12.777-.234 10.593-.134 3.818-.092 4.084-.152q1.417-.074 3.781-.162t4.12-.181 3.116-.153 5.519-.293m-111.974-99.299q.632-.034 2.828-.244 2.196-.211 3.585-.354m.274 1.4q.08.932.194 5.18.115 4.249.164 6.469t.243 7.477m-7.288.535q1.859.539 1.937.583t2.376.136q2.299.092 3.43.274m11.26 10.524q-.535-.148-3.011-.419-2.476-.272-3.568-.296t-2.891.119q-2.598.103-4.304.329m.2 1.781q.02.173-.235.851-.073.234-.154 2.512t-.046 3.832.005 4.337-.027 2.903q.005.119-.058 1.666t-.144 2.531q-.08.984-.283 3.919l-.26 1.552m.929-.458q2.808-.144 3.241-.17t1.726-.145q1.294-.118 3.789-.418t6.155-.544l1.905-.123"/>
        <path fill="none" stroke-linecap="round" stroke-linejoin="round" stroke-width="5" d="M113.514 869.496q-.018.272.503 5.662.521 5.391.71 7.891t.22 4.148q.031 1.646-.048 4.938m75.915-53.122.167.725.052 2.179q-.007.858.093 5.762t.187 8.673.133 4.954.17 4.589.205 6.894l.138 5.891q.055 2.4.08 2.989.025.588.163 12.742.137 12.155.202 14.444.064 2.29.196 5.345l.145 1.537m.856.598 1.524.096 1.916-.116q.901-.001 4.248-.323t5.181-.599 2.376-.437q.543-.159 3.958-1.268M179.882 873.5q-1.307-.108-1.442-.057l-1.483.195q-.178.067-2.051.497t-2.82.891-1.784 1.085-1.127.92q-.289.298-.869 1.31-.579 1.011-.899 1.981t-.458 2.571.068 2.95q.205 1.35.382 1.766.176.416.248.628t.755 1.25 1.321 1.637 1.033.829q.394.232.915.463.52.231 2.722.714t2.233.477q.032-.005 1.383.075 1.351.079 2.964-.044t3.755-.54"/>
        <path fill="none" stroke-linecap="round" stroke-linejoin="round" stroke-width="5" d="M175.127 875.09q.205 2.622.305 3.378.101.756.256 1.71.155.955.331 2.219t.369 2.724l.561 4.254q.369 2.794.565 4.117m-27.821-123.453q.071.531.067 6.618t.004 9.935-.008 9.24-.053 9.386q-.038 3.992-.084 9.396-.047 5.403-.172 11.09-.126 5.686-.161 10.292t.055 8.862.18 5.497l.129 1.781q.04.539.444 3.624m.601 1.323 1.206-.081q1.408-.19 2.936-.302t3.215-.196q1.685-.086 3.93-.121t2.367-.051q.123-.014 1.657.029t1.761.09 1.697.179 3.161.047 3.632-.052m-.073-19.458q-.02.202.194 6.17t.62 11.693l.315 2.257"/>
        <path fill="none" stroke-linecap="round" stroke-linejoin="round" stroke-width="2.5" d="M150.95 794.396q1.531-.282 2.067-.339t1.877-.181q1.339-.123 3.745-.333m-6.632 29.384q1.13-.117 4.591-.558 3.46-.442 4.81-.625m41.594 119.941.07.376.102 3.33q-.029.576.483 11.238l.074 1.472m.2-15.016 1.37-.228.287-.132q1.191-.174 6.943-1.168m-8.272 14.826 2.717.103q.404-.075 2.973.212t4.713.55m-11.332 18.669q-.06 1.012.535 14.88l-.134 1.473"/>
        <path fill="none" stroke-linecap="round" stroke-linejoin="round" stroke-width="2.5" d="m203.002 976.184 1.48-.379q.445-.146 4.372-.762t4.606-.716m-8.199 18.134q2.415-.52 3.107-.567.229.06 2.138.082 2.02-.142 3.931-.335t3.14-.3"/>
        <path fill="none" stroke-linecap="round" stroke-linejoin="round" stroke-width="5" d="M202.9 592.984q-.08.808.135 6.722t.481 9.835q.265 3.921.353 5.161t.281 9.268q.194 8.028.268 14.508t.138 8.207q.063 1.726.349 12.195l.109 1.691m.455 2.38.228-.05 2.945-.209q3.614-.382 4.399-.432t3.407-.13 6.89.08 7.244.406 4.518.372 4.823.339q3.28.214 4.538.275 1.257.062 6.132.45 4.875.389 8.303.625 3.427.235 6.109.389t6.622.17q3.939.015 5.802-.057t4.593-.29q2.732-.218 2.873-.222t4.847-.49 6.458-.692m-89.328-69.648q1.102.418 5.659.74 4.558.322 7.979.231 3.42-.091 8.163-.199 4.744-.107 15.175.048t15.741.24 6.994.049q1.686-.036 6.914-.067 5.229-.032 8.474-.013t5.738-.006q2.494-.025 5.007-.072 2.513-.048 3.708-.1t1.68-.115 3.325-.265M168.922 572.19q.294 1.336.332 1.666.037.331.386 6.942.349 6.612.473 13.073t.416 11.893.451 7.872.26 4.936q.102 2.496.189 5.032t.11 2.948.068 1.89.125 6.235.105 6.767m-23.83 2.507.8-.068q3.974.326 8.141.242 4.168-.084 6.614-.25 2.446-.167 6.544-.318m-.455 1.387q.285 3.734.526 6.721l.403 4.977q.162 1.989.389 5.983t.36 10.694q.134 6.699.164 9.031.03 2.331.079 4.616.05 2.285.172 5.87.123 3.585.196 6.508t.08 3.936.036 2.109q.028 1.098.042 1.328.014.231.016 1.021.002.791-.076 2.807m-24.961 1.591.238.032q1.461.143 10.779-.957t11.028-1.391m91.569-9.252q1.52-.197 4.233-.36t3.75-.208l3.156-.138q2.118-.092 3.821-.193t3.293-.132q1.591-.031 1.961-.05t1.298.006 2.519.228 3.301.545q1.709.34 4.099 1.115l.709.376.305.219q.287.127 1.318 2.007 1.03 1.88 1.64 5.653.609 3.774.655 5.52t.019 3.163-.076 3.587q-.048 2.171-.149 15.703-.102 13.531-2.906 33.557l-.34.534-1.242 1.278q-1.107.848-2.043 1.353-.935.505-1.85.854-.914.349-2.686.748-1.771.398-3.946.581t-3.368.178-2.997-.117q-1.803-.113-4.605-.435-2.801-.322-8.258-1.893l-1.203-.635q-.728-1.191-.904-2.509-.176-1.319.369-3.183.384-.382.904-.744.52-.363.998-.602.479-.24.767-.398t1.433-.592 3.291-.942q2.148-.508 4.112-.951 1.965-.444 4.09-1.245t2.717-1.13q.591-.33 1.817-2.883t1.733-8.533q.506-5.979.465-8.099-.042-2.119-.077-2.865-.036-.745-.151-2.074-.116-1.328-.211-2.507-.096-1.179-.377-4.501t-.613-5.351q-.33-2.03-.558-2.992-.228-.961-.874-2.577-.645-1.616-.804-1.887t-.307-.543q-.146-.272-.783-.884t-1.372-1.07q-.735-.457-.865-.592t-2.446-.901q-2.315-.765-3.488-1.031-1.173-.267-3.977-.854l-2.894-.9-1.304-.584-.765-.456-.454-.367q-1.088-1.481-1.217-1.82-.129-.34-.221-.594-.093-.254-.156-.893-.064-.639.057-1.276.121-.636.406-.999.284-.364.36-.435t.921-.459 1.725-.529 1.33-.154 2.29-.209"/>
        <path fill="none" stroke-linecap="round" stroke-linejoin="round" stroke-width="5" d="M266.266 711.296q-.418.423-.65.742-.232.32-.507.652-.274.333-.709.967t-.868 1.41q-.434.776-.771 1.511-.338.736-.718 1.944t-.674 2.603-.366 2.729.024 2.556.265 1.965.446 1.434 1.923 2.853l1.02 1.668m.729 1.399-.245.484q-.734 1.641-1.054 2.467-.321.825-.754 2.369-.432 1.543-.666 3.075-.233 1.532-.271 2.395t-.008 2.297q.031 1.433.192 2.635t.37 2.065.232.987.391 1.228.543 1.526.477 1.03 2.633 4.383m-1.385-24.955 1.315-.553q1.311-.09 1.996-.115t2.146-.159 2.438-.25 1.396-.179 4.811-.87m5.757-58.496-.671-.325q-1.151-.338-2.229-.43-1.079-.093-1.906.026-.828.119-1.457.362-.629.244-.951.603t-.632.813q-.311.453-.5.958-.19.506-.252.836-.063.329 0 1.287.064.958.194 1.295t.352.728.918 1.004q.695.612 1.308.873.613.262.639.283t.595.102 1.122.018 1.211-.472 1.09-.989.598-1.038q.165-.456.208-.753.043-.296-.087-1.21-.131-.914-.331-1.558-.201-.643-1.005-1.815m-102.436-3.955.626-.101 2.613.193q.188.011 2.299.412 2.111.402 3.183.781t1.636.691 1.16.832q.596.521.845.801.25.28.909 1.492t1.015 2.865.34 2.552q-.015.899-.241 1.939-.225 1.039-.777 2.111-.553 1.073-1.78 2.297-1.227 1.223-1.858 1.613-.63.389-1.333.71-.702.32-.738.353t-1.985.55q-1.948.519-4.778.558-.104-.03-.808-.059"/>
        <path fill="none" stroke-linecap="round" stroke-linejoin="round" stroke-width="5" d="M187.988 677.121q-.287.452-.681.991-.481 1.221-.754 1.968-.272.747-.624 2.934-.351 2.188-.341 3.941.011 1.753 1.343 7.435"/>
        <path fill="none" stroke-linecap="round" stroke-linejoin="round" stroke-width="2.5" d="m285.132 606.149.298.658q-.01.408.287 10.624l-.065.291-.32 1.344m1.057-14.762q3.147.254 5.509.501 2.361.247 3.964.531t3.171.546m-12.644 13.846q.534-.011 1.715-.01 1.18.001 2.787.052 1.607.052 2.134.048t3.253.087 3.811.153m-16.014 16.938.239.652q.045 1.209.641 9.228.025.071.032.174.007.104.017.738m.255-11.784q.83-.306 3.784-.933 2.955-.627 8.034-1.503l1.172-.275m-11.988 14.1q1.042-.2 4.174-.425t4.877-.494 3.52-.531m-141.907-55.549 1.69-.2q.846-.24 6.067-.501t6.217-.291m-13.3 28.073.942-.059q.451.048 12.157-1.863"/>
        <path fill="none" stroke-linecap="round" stroke-linejoin="round" stroke-width="5" d="M221.564 962.743q1.097-.264 4.707-.817t4.601-.648 3.148-.285q2.158-.189 4.05-.25t4.031-.076 2.484-.022 3.286-.036q2.942-.029 5.089-.074t3.291-.114 6.48-.299 7.829-.383q2.494-.152 3.732-.213t2.133-.139 2.532-.206 4.3-.309 5.164-.337q2.501-.157 4.02-.318t3.272-.294 3.092-.211 3.086-.203q1.748-.127 2.788-.187m-35.363-89.501q-.143.614-.218 6.27t-.074 9.34.08 19.524q.079 15.838.212 19.142m1.712 1.056q.243.079 7.2.732t10.584.932 5.049.448q1.422.167 1.609.172t3.915.601 4.62.767m-15.286 8.463q.04.506-.028 3.664-.067 3.157.082 8.718m.529-12.904.655-.365q.417-.115 2.508-.636 2.092-.522 3.372-.702t2.058-.231 3.522.14m-11.915 13.706q.684-.11 5.55-.615 4.867-.505 6.037-.645m-16.615-6.949-.511-.182q-1.876-.364-2.918-.542-1.042-.177-2.404-.212-1.363-.034-2.597.156-1.233.191-1.917.44t-1.084.503-.451.271-.56.468-.775.902q-.267.45-.407 1.02t-.123 1.09.225 1.04q.207.518.514.908t.414.521 1.344.672q1.237.54 2.501.697t1.949.128 2.702-.463 2.783-.692 4.303-1.698"/>
        <path fill="none" stroke-linecap="round" stroke-linejoin="round" stroke-width="2.5" d="M230.91 972.084q-.214.672-.492 2.704-.277 2.031-.317 3.965t.226 3.351q.266 1.418.589 2.219.324.801.715 1.355t.865.982q.473.428 1.2.869.726.44 4.385 1.319 3.659.878 4.539.922t2.944.088 5.003-.054 4.522-.23 3.393-.395 3.096-.459 4.322-.676 3.563-.587 2.362-.46q1.836-.352 3.896-.849 2.059-.498 3.89-1.141 1.832-.643 3.095-1.262 1.263-.62 2.075-1.098.811-.478 1.2-.763t.752-.65 1.1-1.542.942-1.763.306-2.227-.289-2.692q-.389-1.049-.884-1.683-.494-.634-1.564-1.311-1.069-.676-1.719-1.023t-1.311-.517-1.222-.25-1.331-.174-.98-.095q-.208-.001-1.744-.041t-4.164-.068-7.159.051-7.901.177-4.886.19-2.346.084-2.222.031-5.226.494q-3.835.454-4.468.595t-1.529.432q-.895.292-1.511.54t-1.52.628q-.905.379-1.265.56t-2.402 1.574m52.635-97.836q-.006.208-.288.984-.283.775-.761 2.51t-.629 2.826-.161 1.903.184 2.097q.193 1.285 1.046 2.577.853 1.291 1.094 1.46t.583.26q.341.09.417.147.077.057 1.791-.513 1.715-.57 2.046-.838t.486-.418q.156-.151.698-1.094.543-.943.788-2.537t.094-2.604q-.15-1.01-.823-2.146t-1.35-1.718-1.086-.829q-.41-.246-.862-.423-.453-.177-.986-.303-.532-.127-1.048-.156-.515-.028-1.035.012-.52.041-1.583.19m6.76 21.048q-.195.277-.759.787-.283-.073-.792-.08t-.8.042-.51.11q-.221.061-.564.229t-.488.262-.394.403-.559.869q-.308.559-.505 1.125-.196.566-.296 1.091-.1.526-.033 1.687.066 1.161.513 2.203.447 1.043.778 1.462.33.419 1.102 1.051 1.858.506 2.11.471t.487-.128q.234-.092.786-.487.553-.395.916-.847.363-.453.645-1.083.282-.631.4-1.101.117-.47.147-1.801t.047-1.482-.215-.978-.507-1.484-.482-.949-.595-.743q-.389-.452-.706-.96"/>
        <path fill="none" stroke-linecap="round" stroke-linejoin="round" stroke-width="5" d="m-100.3 930.379 1.873-.772 4.194-.74q2.395-.401 6.127-.819t13.616-.654 13.176-.309q3.291-.074 4.834-.164t15.522-.142q13.98-.052 19.136.017t9.147.071 8.15-.009q4.157-.012 7.303-.032 3.146-.021 9.029-.067 5.883-.045 7.841-.105t6.428-.111 8.827-.007m2.915.929q-.042.439-.057 1.325-.015.887-.001 2.023t.06 2.929.131 6.869.084 5.175.124 3.647.227 5.58.282 5.234q.183 3.203.274 4.891t.253 4.327.277 5.389.197 5.476.173 5.253.087 2.555.08 2.307q.083 2.276.226 6.616t.276 10.097l.185 7.987q.052 2.228.129 3.964l.182 4.016m-1.13 4.695q-1.161 2.52-1.184 2.555t-1.297 3.56-1.89 5.292-1.742 5.294-2.086 6.68-1.703 5.448-1.281 3.854-2.062 5.915m44.236-139.882q.042 8.147.103 14.597t.135 9.896.121 6.595q.048 3.148.079 4.653t.046 2.955.066 5.249.003 26.882-.107 25.147q-.058 2.061-.115 3.394l-.204 4.703m-.255 1.922q.237.935.026 5.731t-.516 8.459-.468 5.24-.518 5.401q-.354 3.824-.462 4.747-.107.924-.207 1.941-.101 1.016-.314 2.434m-.93-200.445q.236 1.719.662 7.135.426 5.417.661 11.145.235 5.729.296 8.471t.124 4.241.191 7.735.166 11.324q.038 5.086.032 7.075m.128-22.843.542.036 1.396-.088q.498-.081 4.573-.415t7.704-.382 6.502.087 6.591.574q.297.189 2.024 1.117m-27.274 31.115q1.245-.022 3.188-.018t4.76-.112 4.173-.197q1.357-.081 2.9-.35 1.544-.269 2.709-.478 1.164-.208 4.115-.703"/>
        <path fill="none" stroke-linecap="round" stroke-linejoin="round" stroke-width="2.5" d="m78.01 951.096.017 1.655q.081 4.593.142 9.879.061 5.287.147 8.859.087 3.573.244 6.531.158 2.958.23 4.066t.301 6.81l.048 2.249m.674-38.191.927-.378.666-.034q9.082-.614 12.308-.644m-1.257 1.451q.143.897.204 2.407.062 1.51.097 2.496t.016 4.61-.291 12.921q-.271 9.297-.627 11.264"/>
        <path fill="none" stroke-linecap="round" stroke-linejoin="round" stroke-width="2.5" d="m81.653 988.498.64.007q.325-.027 1.078-.19.754-.164 2.072-.404t1.899-.324 1.736-.367q1.154-.284 2.905-.708m-12.17-14.1.618-.233q.273.028 4.343-.734t5.624-1.082m-71.983 27.743q-1.305-.432-2.056-.549t-1.33-.134-1.089.037-.931.321-.843.696-.543.63-.281.69-.133 1.224.128.977q.101.241.477.758.377.516 1.022.884t1.465.454 1.6-.188q.779-.273.821-.279.043-.006.364-.294t.557-.665.407-.875.198-.796.034-.45-.094-1.406l.027-.31m11.132-.064-.215.21q-1.112.039-1.369.083-.258.044-.279.051l-.614.242q-.592.233-.824.419t-.359.381q-.129.196-.195.333-.067.138-.184.815t-.052 1.101.223.805q.159.382.359.572.201.19.654.344.454.155.937.12t.852-.216q.368-.182.477-.278t.319-.392.301-.724.073-.851-.394-1.439l-.524-.591-.972-.985m-11.059-17.485q-.39.034-.63-.01-.24-.043-.563-.051t-.54.011q-.218.018-.862.238t-1.095.618-.638.697-.253.768.001.886.156.569q.09.154.358.538.268.383 1.011.562t1.166.152.856-.16.728-.327q.295-.195.553-.459.257-.264.39-.559.133-.294.191-.38t.158-.694q.1-.609.1-.977 0-.367.017-.582.016-.216-.074-.651l.027-.583"/>
        <path fill="none" stroke-linecap="round" stroke-linejoin="round" stroke-width="2.5" d="M11.802 979.17q.239.587 1.184 1.887.945 1.299 2.274 2.941 1.329 1.643 2.383 2.53l1.701 1.308"/>
        <path fill="none" stroke-linecap="round" stroke-linejoin="round" stroke-width="2.5" d="m9.014 989.032.359-.203.483-.276q.703-.57 1.863-1.573t1.976-1.663 2.052-1.782 1.623-1.464 3.104-2.634m10.603 3.309q-.699-.225-1.093-.303t-1.006-.081-1.174.208q-.563.21-.853.445t-.549.568-.456.864-.168 1.075.163.685.401.234.501.093.423-.046.425-.22.46-.398q.222-.225.418-.547t.362-.869q.168-.547.223-.945.055-.399-.063-2.087"/>
        <path fill="none" stroke-linecap="round" stroke-linejoin="round" stroke-width="2.5" d="M23.844 989.821q.342-.458 1.051-1.658.71-1.199 4.98-8.803"/>
        <path fill="none" stroke-linecap="round" stroke-linejoin="round" stroke-width="2.5" d="m24.045 980.824.542.774 7.019 7.625m-6.304 25.884q-.22-.163-.609-.395-.39-.232-.926-.472-.535-.24-1.219-.458-.684-.217-1.276-.285-.593-.068-1.207.035-.615.102-.962.281-.347.178-.892.75t-.771 1.025-.319.94-.07 1.123.36 1.393.836 1.364.768.81.638.357q.37.155.964.244.595.089 1.056.05t.763-.157.77-.62q.466-.502.695-1.112.228-.609.279-.885.052-.277.058-.484.006-.208-.073-.856-.078-.648-.177-1-.099-.353-.173-.515t-.153-.471"/>
        <path fill="none" stroke-linecap="round" stroke-linejoin="round" stroke-width="2.5" d="m16.958 1023.188.218-.597q.334-.902 1.051-1.939t1.741-2.392 2.747-3.376 2.517-3.047 1.4-1.82"/>
        <path fill="none" stroke-linecap="round" stroke-linejoin="round" stroke-width="2.5" d="M16.502 1013.593q.385.745 1.564 2.152 1.179 1.406 8.839 9.225M4.988 974.537q.552-.039 2.172-.181 1.62-.143 3.685-.368 2.065-.226 2.109-.237.043-.01 1.862-.167 1.818-.156 3.716-.341t3.054-.312 3.055-.293 2.215-.207 1.629-.141 2.35-.149 2.646-.182l1.769-.005m-31.72 55.141q1.455-.053 6.138-.156 4.684-.102 6.654-.196t5.124-.25 5.308-.35 4.765-.448q2.611-.256 5.453-.48l2.304-.105m-120.901-71.558q-.588-.259-1.199-.417t-1.539-.224-1.191-.035-.59.125q-.326.095-.523.215-.197.121-.496.383t-.678.873-.459.917-.056 1.165q.025.859.173 1.26.148.4.149.432t.471.571.932.859.787.461q.324.142.878.215.553.073 1.19-.019.636-.093.96-.217t.642-.329.65-.569q.331-.365.832-1.721.078-.303.033-1.264-.045-.96-.438-3.151m116 56.401.068-.553.606-.707"/>
        <circle cx="36.233" cy="1001.007" r="1.25" fill="#626668" stroke-width=".1"/>
        <circle cx="36.16" cy="994.861" r="1.25" fill="#626668" stroke-width=".1"/>
        <circle cx="33.646" cy="987.174" r="1.25" fill="#626668" stroke-width=".1"/>
        <path fill="none" stroke-linecap="round" stroke-linejoin="round" stroke-width="5" d="M5.059 1181.414q1.058-.068 1.243-.073t.686.029 1.137.117 4.127.329 5.177.399M5.642 1200.35q5.139-.542 5.419-.567t9.684-1.088m-2.97-15.36-.063.635q.142 1.248.998 6.687.856 5.438 1.234 7.44m.929-12.98.778-.312q1.181-.144 2.825-.376 1.644-.231 3.36-.441 1.715-.211 3.097-.336t2.651-.118 2.419.146q1.151.139 2.135.425.984.287 1.379.491t1.052.562.747.398.51.356q.42.318.642.544t.536.707.479.917q.167.436.216.887.05.45-.008.935t-.292.991-.57.885q-.336.38-.612.652-.277.272-.97.765t-1.461.786-1.229.449-2.236.424-3.155.305-2.107-.038-1.903-.222-5.04-1.039m44.235 22.117.512-1.033q.258-.292.736-1.181.478-.888.835-1.491t.383-.678q.026-.073.965-1.497.939-1.423 1.721-2.402t2.377-2.485 2.836-2.422q1.241-.918 2.124-1.513t1.565-.983q.681-.387 2.793-1.562t2.797-1.489 3.191-1.329 4.184-1.722"/>
        <path fill="none" stroke-linecap="round" stroke-linejoin="round" stroke-width="2.5" d="M79.01 1214.908q.235-.25 2.2-2.071t3.438-2.919q1.473-1.097 2.201-1.552.729-.456 1.101-.626.372-.171.765-.379.394-.209 1.798-.836 1.404-.626 3.8-1.747m-64.367-130.732q.119.484.664 5.505.545 5.022 1.237 13.562l.285 2.376m-23.575 5.167q.213-.043.787.042t1.533.026 4.225-.531 5.151-.733 5.093-.521 5.476-.136 3.697.198m-2.259-.992q1.49.062 2.418.003.928-.06 3.134-.244 2.207-.185 2.459-.213.253-.029 4.851-.412m-.801 2.253-.131.478q-.086 1.445-.356 9.152-.271 7.706-.37 9.637m-35.636 1.259.452.028 1.211-.143q.545-.023 2.042-.286t4.592-.797 5.853-.828q2.759-.292 4.502-.378 1.744-.086 3.69-.136 1.945-.049 3.775-.157 1.831-.108 2.311-.133.481-.025 1.449-.149.968-.123 4.703-.673m-19.932 4.569-.201.562q-.089.468-.236 5.458-.146 4.989-.003 8.532.144 3.543.274 5.82t.174 4.312q.044 2.036.025 3.943l-.033.463-.146 2.559m-14.83 2.38.949-.167q.637-.329 7.559-1.15 6.921-.821 8.181-.936m-.401 1.985q.481-.16 4.544-.853 4.063-.692 8.001-1.251 3.937-.56 4.193-.607.255-.048.616-.143.362-.096 2.723-.785m.656 2.519-.11.639q-.032 1.233-.016 9.772l.053.979m-15.085-39.717q-.027.212.263 6.551.29 6.338.461 12.008.026.033-.089.245t-.253.921m-.656-19.725q.548-.131 2.113-.392t3.724-.435 3.663-.173 2.487.106 2.238.207q1.253.102 1.436.147.184.044 1.429.4m-2.059 2.049q-.105.718-.137 2.142t.597 14.09l-.059.782"/>
        <path fill="none" stroke-linecap="round" stroke-linejoin="round" stroke-width="2.5" d="m31.403 1144.547 1.597-.124q1.831.049 7.233-1.257 5.403-1.306 7.258-1.864M-232.54 622.079q5.93.263 8.425.283 2.494.02 5.04 0t4.785-.086q2.24-.065 6.057-.376 3.818-.31 5.946-.531t3.918-.344 3.823-.244q2.034-.121 3.995-.257 1.961-.137 2.109-.134t5.674-.241 6.652-.261 5.575.26q.145.047 1.694 1.078m.729 1.514.168 3.075q.071.516.401 8.077t.366 13.323q.035 5.762.004 8.8-.03 3.038-.072 4.836t-.07 2.794q-.027.995-.046 1.134-.018.14-.146 5.881t-.141 11.22-.06 9.496-.076 4.449m-64.696-72.092q-.185.777-.102 4.57t.285 9.423q.201 5.629.386 10.501l.292 7.717q.107 2.845.176 6.938t.137 8.346q.069 4.252.154 7.757t.151 9.227.089 8.183-.027 6.2-.046 4.389-.189 3.745-.304 4.63m2.114 2.049 1.171-.506q6.326-.874 9.992-1.24 3.665-.365 5.474-.538 1.81-.172 1.87-.182.06-.009 3.868-.268 3.807-.26 7.476-.109 3.668.15 4.742.248 1.074.099 3.016.339t3.676.416q1.736.177 3.276.362t4.245.45 3.758.4 5.284.611l1.017.348m1.658-18.071.257.891.05 13.957-.307 1.174m319.941-49.661.412-.081.217-.246q.081-.045.144-.007l1.21-.23 3.118-.823m.128.127.049.649q-.18 14.285-.213 15.159-.034.874-.31 3.191l-.382 1.528m-4.573.725.803.064q1.074.507 3.569 1.451m54.493 175.96q.022 2.927.088 7.537.067 4.61.111 6.826.045 2.215.107 3.725t.247 6.471l.121 1.122m.255-25.554.758.283.544.51q.025.123 1.27 1.082 1.244.959 1.801 1.37m-3.717 20.985q1.107-1.203 4.519-5.027m-485.547-74.611q-.358-.152-2.323-.555-1.965-.402-2.977-.487-1.013-.085-1.826-.042-.813.042-1.275.077-.463.034-1.449.515-.986.48-1.582.955-.596.474-1.07.923t-.822.809-.798 1.056-.663 1.153-.361 1.018q-.149.562-.191.682-.041.119-.059 1.654t.432 2.869l.474 1.411q.024.077.922 1.115t2.285 1.815q1.387.775 2.18.946l1.002.215q.209.046.951.015.743-.031 1.262-.137.52-.106 1.04-.33.52-.223 1.055-.505.536-.282 1.327-.901t1.161-1.047.723-1.008.646-1.317.492-2.246.074-2.48-.211-1.476-.234-1.04q-.149-.534-.398-1.032-.249-.499-.916-1.9m-23.23 24.688q-.376-.154-.622-.152-.247.002-.405.052-.157.05-.336.138-.179.087-.264.174t-.231.316-.205.487-.04.385.111.215.35.173.551.048q.291-.036.487-.109.197-.074.295-.19.098-.117 1.093-1.066m-2.114-18.808-.354.468-.423.469q-.603 1.013-.848 2.364t-.1 2.365.499 1.525.424.605q.068.093.48.408t.718.43q.305.116.984.105.678-.011.879-.04t.563-.248q.363-.219 1.255-1.292l.462-1.537.006-2.172-.19-.705-.555-1.082-1.038-1.142q-.35-.253-.388-.344t-.572-.356-.895-.364-1.963-.374"/>
    </g>
    <path fill="none" stroke="#ffb424" stroke-linecap="round" stroke-linejoin="round" stroke-width="2.5" d="M-299.858 568.053q-.009.227-.253 3.989t-.611 7.498q-.366 3.735-.548 5.698-.183 1.962-.394 4.801t-.388 7.771-.196 5.681-.066 24.14-.041 27.449.032 8.307.023 4.652q-.004.405.068 6.895t.239 11.578l.24 7.385q.074 2.297.144 3.605t.169 6.203q.1 4.896.112 7.49t.008 4.596.009 6.491.08 8.792q.067 4.301.149 15.36t.103 19.55.062 13.687.017 10.795q-.024 5.601-.072 8.201t-.157 6.401-.139 7.096-.042 4.995.015 7.496.072 9.448q.047 3.652.072 5.791t.065 4.492q.04 2.354.105 8.753.065 6.4.106 9.397t0 7.743-.104 7.245-.173 7.889q-.112 5.391-.165 7.636t-.145 3.791-.125 2.288-.117 5.981-.055 9.789.084 8.243.119 7.05q.063 3.355.066 3.361t.102 5.001.517 27.934l.029.216m3.37-397.784q1.052-.141 2.056-.176 1.004-.034 2.305-.005t2.797.099 3.822.274 3.402.282 2.349.16 3.846.189 4.565.131 6.122.155 6.27.212 3.767.204q1.629.124 1.77.148.14.024 2.419.208t6.264.382 7.119.322 4.581.176 2.878.153q1.433.1 2.388.148.956.048 6.336.109 5.379.061 9.17.06 3.792 0 5.589-.005 1.798-.004 5.286-.094t5.789-.211 3.349-.159 2.791-.087 5.338-.23q3.596-.182 7.284-.279 3.689-.096 8.627-.075 4.937.021 8.397.058t7.587.009 6.17-.052 4.328-.145 3.683-.137q1.398-.014 3.224.008t5.17.025q3.343.004 8.349.001 5.006-.004 7.442-.014 2.435-.009 3.315-.025.881-.015 2.564-.014 1.683.002 2.198-.011t3.308.064m2.715 0 .194.612.051 1.352.012 1.449q-.002.31.094 3.437.096 3.128.146 4.829t.113 3.014q.062 1.314.091 3.5t.046 5.511q.017 3.326-.022 6.817-.038 3.492-.099 6.239-.061 2.748-.111 5.541t-.12 5.388q-.069 2.595-.126 4.2-.058 1.604-.149 3.751t-.151 4.401-.088 4.694.013 7.537q.042 5.097.557 12.007.516 6.909.852 10.15t.486 4.772.398 3.772.972 10.346.948 12.706.326 7.237q.101 2.638.227 7.885.127 5.248.362 10.95t.323 10.198q.088 4.498.122 11.486.034 6.987.071 21.691t.016 22.054-.072 10.858-.268 10.797-.292 14.938-.455 17.933-.868 16.044-1.182 10.541-1.216 10.088-.681 13.436l-.236 12.177q-.078 4.049-.362 10.642t-.466 12.738q-.181 6.146-.193 12.287t.084 10.382.248 7.156q.153 2.915.23 6.502t-.08 5.928"/>
    <circle cx="-299.028" cy="968.47" r="1.25" fill="#ffb424" stroke="#ffb424" stroke-width=".1"/>
    <path fill="none" stroke="#ffb424" stroke-linecap="round" stroke-linejoin="round" stroke-width="2.5" d="M-300.285 969.921q.868-.003 6.643.019t11.184.052q5.409.032 10.549-.02t7.833-.123 5.082-.129 7.221-.002 8.598.277 6.835.3q3.068.08 5.146-.019 2.079-.099 5.803-.156 3.725-.056 9.4 0t7.084.058l4.948.007q3.539.006 7.693-.034 4.155-.04 6.15-.109 1.996-.068 8.28-.32 6.284-.251 9.234-.415 2.951-.165 7.625-.318t10.154-.492 8.861-.468 6.361-.068 8.014.124 8.226.15 4.52.145 3.533.178 3.264.154 3.76.16 6.481.242l.688-.046m2.815-100.746q1.064.033 1.126.04.063.007 3.183-.328 3.12-.336 6.663-.537t6.309-.295 8.435-.344q5.67-.251 11.45-.637 5.78-.387 8.472-.544t5.999-.302l5.947-.258q2.64-.114 3.835-.133t8.883-.008 12.04-.029q4.354-.04 12.648.03 8.293.071 12.791.207 4.497.137 6.546.214t10.237.113q8.188.037 13.138-.059 4.951-.095 8.991-.304 4.041-.208 6.084-.355 2.044-.146 3.731-.289 1.687-.142 8.07-.51l9.214-.529q2.832-.162 4.857-.243t8.344-.228 10.035-.191l2.489-.106m-203.689 105.714.773-.085q1.434.334 1.7.379t3.712.421 8.408.796 7.64.545q2.679.127 4.013.181 1.333.055 2.434.11 1.101.054 3.005.124t5.24.105 5.191.021 2.996-.017 4.279-.122q3.136-.119 4.438-.185t6.389-.212q5.086-.146 9.018-.331 3.931-.186 5.329-.271t4.376-.199q2.98-.115 4.899-.223 1.919-.109 3.234-.231t2.127-.187 3.099-.231 2.997-.238q.712-.072 3.198-.399t4.919-.749l1.673-.186"/>
    <path fill="none" stroke="#ffb424" stroke-linecap="round" stroke-linejoin="round" stroke-width="2.5" d="M1.686 967.024q-.259 1.13-.315 1.611t-.317 4.716-.128 13.361.391 13.965.387 7.037q.13 2.198.204 4.2.075 2.001.178 6.493.102 4.492.145 6.132.043 1.641.11 6.951t.147 37.544"/>
    <path fill="none" stroke="#ffb424" stroke-linecap="round" stroke-linejoin="round" stroke-width="2.5" d="m1.632 1068.105.879-.315q.399.031 2.109-.085 1.711-.117 3.837-.292 2.126-.174 2.666-.203.54-.028 1.597-.038 1.056-.011 2.049-.012t1.794.022q.802.024 1.086.011.283-.012 1.532.091t3.38.331 4.695.383q2.565.155 5.002.294t7.224.271 6.078.154 7.733.152 8.28.136 3.88-.062 3.474-.168 3.31-.224q1.877-.124 3.817-.244 1.939-.12 2.943-.189 1.003-.07 2.426-.157 1.423-.086 11.028-.554l2.006-.218m-92.898 2.647-.036 2.036q-.107 1.574-.078 10.304t.116 14.777q.086 6.046.139 9.599.052 3.552.105 5.143.052 1.591.109 3.693t.116 5.852.131 6.994.138 10.905.081 10.225.016 6.144.004 5.768-.04 5.009m-.546 1.196.526-.304q1.674-.418 3.041-.891t3.36-.977q1.995-.503 3.126-.635 1.131-.133 2.485-.19t2.871-.039 2.343.042q.828.024 1.893.061 1.066.038 2.581.159t3.223.344 4.629.515 5.163.48 4.776.393 10.273.376 10.381.167 5.285-.017 6.511-.137 6.361-.315q2.494-.19 4.461-.383 1.967-.192 3.154-.379 1.187-.186 1.832-.312.646-.126 2.251-.477t2.197-.463q.593-.112 2.963-.53m-.656-94.337q.058.241.166.83.109.59.426 5.895t.634 9.977.454 6.966.29 9.132.151 9.738l-.001 4.439q.001 1.54-.111 6.339-.111 4.798-.209 7.539-.097 2.742-.147 4.4-.051 1.658-.11 3.408t-.137 9.446-.074 7.889q.003.193-.027 5.5t-.048 6.351M-93.271 766.579l1.418.136q11.608.332 11.678.325t13.403.178 15.823.134 4.274-.141 2.879-.194 6.074-.404 8.864-.488q3.884-.186 6.077-.278l3.994-.171q1.803-.079 3.707-.144 1.905-.066 3.487-.154 1.583-.089 4.578-.206 2.995-.118 3.653-.137t4.845-.174q4.189-.153 9.596-.363t9.143-.399q3.735-.19 6.569-.349 2.834-.16 4.935-.23 2.102-.071 9.345-.046t11.498.021 5.793-.033 16.622-.201 16.34-.232q1.257-.061 3.213-.165t2.469-.124q.511-.02 1.614-.203t1.54-.259m.401 2.507q.009.253-.428 5.907-.436 5.654-.666 8.588t-.349 4.228q-.118 1.294-.175 1.738t-.385 6.11-.451 9.761-.39 9.13-.452 9.521-.336 8.678-.268 7.119-.19 5.86-.075 6.004.06 5.29.075 3.357q.015 1.139.04 3.834M.903 767.368q-.05.585-.125 6.845t-.129 10.206-.121 7.126q-.068 3.179-.157 5.822t-.158 7.191-.086 7.047-.043 8.49q-.026 5.989-.003 11.223.022 5.234.082 8.901.059 3.666.059 3.849t.214 5.542q.213 5.358.321 6.89t.414 4.662q-.022.218.515 1.663m-96.542-145.368.8.752.931 1.565m-1.531.534 1.654-.014 1.086.057 10.059.1 3.904.073q3.069-.016 8.176-.173 5.106-.156 8.63-.361 3.525-.204 5.821-.282 2.297-.079 3.591-.107 1.294-.029 4.849-.081t8.097-.047q4.54.006 7.435-.015t4.133-.07q1.239-.048 4.641-.046t6.743.066l5.535.104q2.195.04 5.34.144t3.248.102q.102-.001 3.443.074 3.342.074 7.091.21t8.496.188 6.944.047q2.198-.006 8.291.014 6.094.02 8.694.063t4.898.067 5.442.07q3.142.047 4.891.068t3.896-.008q2.146-.029 6.68-.276t8.599-.499q4.066-.253 6.799-.414t3.825-.208 2.83-.143 3.846-.176 3.111-.125q1.001-.045 2.096-.055t2.986.062m.473.458 2.414.295q1.853.236 4.349.537 2.497.3 6.163.372t5.745-.021 3.994-.173 3.804-.118q1.887-.039 4.927-.082t8.697-.132l3.997-.016m.274 1.133-.118 3.622q.015.194-.195 3.773t-.45 6.251-.581 8.053q-.342 5.382-.44 10.727-.099 5.345-.077 6.62.021 1.276.032 4.507l-.03 2.056"/>
    <path fill="none" stroke="#ffb424" stroke-linecap="round" stroke-linejoin="round" stroke-width="2.5" d="m98.028 765.256 2.013.03q.257.055 2.421.101t4.14.013 4.156-.059 5.375-.129 4.206-.174 2.874-.214 4.241-.252q2.381-.107 9.763-.152l1.931.098m-239.261-191.484q1.062-.37 2.189-.849 1.127-.48 2.764-.908t4.56-1.169 6.146-1.198 5.384-.595q2.163-.138 3.81-.207t6.978-.191 8.578-.194 4.698-.081q1.449-.01 6.045-.159 4.596-.15 10.471-.584 5.874-.434 11.004-.89 5.13-.457 7.959-.751t4.867-.509 6.112-.673 8.499-.889q4.425-.43 9.016-.568 4.59-.138 8.675-.154t6.834.017 5.951.105 8.801.165 8.25.113q2.649.02 6.691.031t9.699.047 10.205.164 7.392.195 6.285.082 6.288.017 5.397-.009q2.551-.01 5.048-.009 2.498.001 9.034.013t10.608.01 5.597-.01q1.526-.006 3.19.007t2.922.054 4.944.109m.729 3.308.128.595q.043.389-.155 3.663-.197 3.273-.281 5.148-.083 1.875-.084 6.948 0 5.073.418 11.929.419 6.856.689 12.044t.564 11.786.332 8.745q.036 2.149.059 3.642.023 1.494.139 7.494.117 6.001.338 12.44.221 6.44.423 16.09.201 9.651.199 14.5t.067 12.257q.069 7.409.18 10.958.112 3.549.2 5.108.087 1.56.131 1.906.043.347.37 9.188"/>
    <path fill="none" stroke="#ffb424" stroke-linecap="round" stroke-linejoin="round" stroke-width="2.5" d="M30.134 565.22q.192.691.262 3.682t.095 6.775-.313 10.132-.587 11.68q-.248 5.332-.334 8.395-.085 3.063-.107 5.348t-.027 4.089q-.006 1.806.032 4.702.037 2.895.181 7.794t.298 10.654.239 9.84q.087 4.085.149 6.49t.182 7.345.215 8.694.347 9.044.478 12.361.307 11.52l.113 6.223q.032 1.774.183 9.813m112.726-153.415 1.013-.283q.772.046 3.147-.006t5.112-.183 4.32-.233q1.582-.103 2.254-.178t4.84-.505q4.169-.429 5.69-.597t5.255-.439q3.733-.272 6.908-.572 3.174-.3 9.059-.624 5.886-.323 7.773-.425 1.887-.103 3.288-.159 1.401-.055 2.587-.082 1.187-.026 5.43-.141t7.945-.052 5.282.124 2.827.161 2.379.21 3.271.295 3.885.301 5.863.402 6.464.411q2.346.127 4.387.243t2.126.127 5.827.095q5.743.083 8.691.072 2.948-.01 4.834-.045t27.118-.025l1.805.046m1.912.14.07.527q.033 1.304.022 7.008-.012 5.705-.107 9.109-.094 3.405-.176 7.073t-.075 3.762-.047 1.994q-.053 1.899-.162 5.036-.108 3.138-.133 6.789-.025 3.652-.05 6.393-.025 2.742-.029 4.396-.004 1.655-.095 7.4-.09 5.744-.347 11.783-.256 6.038-.422 8.779t-.345 7.434-.371 11.346q-.194 6.653-.238 12.541-.045 5.887-.058 13.493-.013 7.605-.017 11.905t.024 7.955l.033 4.5q.005.844.081 3.743t.119 4.852l.102 4.5q.058 2.547.091 5.339t.03 4.795q-.002 2.002-.056 5.649t-.145 7.247-.229 6.741-.25 6.042-.273 8.85-.184 9.249.003 11.599.08 11.349.099 5.001q.044 1.953.13 6.519t.26 10.948l.263 9.611.118 4.29q.03 1.061.187 4.931.156 3.869.231 5.967.074 2.098.132 4.358t.217 7.444.236 11.058q.077 5.872.089 13.168.013 7.297-.036 18.829t-.105 21.464q-.057 9.93-.129 21.349-.071 11.418-.085 20.08-.013 8.662-.034 11.537t-.053 4.673q-.033 1.798-.275 13.407l-.204 1.704m-584.469-491.357q-.064.352.106 5.304m.349 10.015q.376 9.256.396 10.029m.29 10.096q.037 1.554.047 2.244.011.689.177 6.106m.617 10.014.205 2.854.127.668m-1.312-60.372 1.309-.553.503-.029 3.372-.463m9.952-.985q2.101-.091 3.619-.108t5.531-.09m10.002-.232q1.088-.029 3.508-.218t7.271-.357m9.999-.223q2.303-.038 9.341-.077m10.043-.012q5.027.029 13.143.067m10.183.091q7.093.064 9.991.123m10.302.296q4.333.266 4.788.305t5.407.2m10.068.059q1.171-.022 2.336-.053l2.61-.069q1.444-.037 2.34-.077m10.052-.495q.245-.012 3.509-.281m.274.992.256.84q.138 2.392.229 4.317.092 1.924.093 2.091m-.164 10.056q-.248 4.58-.291 5.828t-.187 6.808m.224 10.01q.315 6.983.497 9.621m.796 9.984q.015.302-.012.632-.028.33-.057.592m218.234 524.894 4.112-.019m9.94-.09q2.738-.003 5.726.01t4.716.025m10.207-.111q.785-.079 3.322-.223m1.713 1.4q.044 1.152.045 2.166m.019 10.038q.012 7.004.085 10.797m.301 10.032q.155 3.327.215 5.086.059 1.758.118 4.178m.23 9.958q-.032 3.175-.212 5.266m-39.608.458 1.164.325.367.139m10.846 1.094q3.95.306 8.048.415m10.171-.034 4.015-.184 2.738-.291M2.195 1169.433l.094.413q.118 1.004.404 9.919.285 8.914.337 14.013.052 5.098.186 14.531l.109 2.826m-1.33 5.969q.603.132 1.933.161 1.329.029 2.766.012 1.436-.017 3.612-.019l15.832-.012q13.655-.011 16.856-.012 3.2-.001 8.753.014t9.582.063 7.01.047 4.79.076q1.808.076 3.159.205 1.35.128 2.261.142t5.5.027 5.938-.021q1.35-.035 1.777-.064.428-.029.693-.019t.999-.137 3.169-.463"/>
    <path fill="none" stroke="#ffb424" stroke-linecap="round" stroke-linejoin="round" stroke-width="2.5" d="m97.208 1170.234.051.308q.212 4.469.157 9.41-.056 4.942-.413 10.306-.358 5.364-.559 7.948t-.298 4.699q-.096 2.116-.119 6.005t-.036 4.038.09 1.447q.102 1.298.27 3.701"/>
    <path fill="none" stroke="#f0f3ed" stroke-linecap="round" stroke-linejoin="round" stroke-width="5" d="m-96.241 729.876.143.522q.455 11.402.508 13.449t.114 4.093.11 4.367q.05 2.321.054 3.58m-169.983-184.549q1.193-.054 1.396-.097t1.188-.094 2.813-.024q1.602.138 2.796.211 1.193.074 4.611.199t4.892.233 2.913.185q1.44.077 3.073.178t4.493.249q2.861.149 8.699.248 5.839.099 11.06.099m-60.523 397.058.691-.015.746.287.633.199 2.453.521q3.949.392 5.26.442t2.387.022 3.195-.1 3.103-.143 3.742-.175q2.758-.103 5.338-.15t7.709.07q5.128.117 6.57.189t1.714.117q.271.044 1.478.114t5.451.121 4.701.045q.456-.005 3.567-.22m120.774-87.974q.04.846.054 2.738.015 1.892-.017 6.747-.031 4.855-.089 8.098t-.188 6.496q-.13 3.252-.202 5.366t-.141 3.579m53.691-150.203.378.095q2.994.149 7.041.263t9.547.174q11.727.444 13.926.668l2.43.658m-64.513-47.595 1.056-.232 1.6-.042q.268.031 2.256-.004 1.989-.036 5.216-.099 3.227-.062 5.42-.087 2.194-.026 3.222-.02t1.752.022 1.868.026q1.145.009 5.979-.081 4.833-.089 5.175-.087.343.002 3.55-.261m90.111 1.196q1.116-.324 2.168-.433 1.509-.05 2.549-.031t3.104.024 3.232-.013 1.84-.016q.669.001 2.669.045t3.35.042 3.564-.001 2.282.014q.069.012 1.823-.01t2.972-.09 3.225-.077 5.628.075m8.945 65.933.032.201-.024 4.851q.022.295-.095 4.88-.117 4.586-.228 6.984-.111 2.399-.144 4.08t-.078 3.806-.119 5.918m10.13-50.242.507-.019.316-.102.533-.088 2.101-.046q.215.038 2.124.068t3.344.009 2.789-.021 2.609-.032 1.82-.078 2.286-.143 1.907-.075 2.077-.216q1.889-.239 4.46-.58m8.344-33.635.339.952q.291 8.32.273 11.135t-.184 10.429l-.081.849M34.335 1066.958q.338.023 1.015.183t1.204.226 5.159.318q4.633.252 7.002.239t3.319-.027q.95-.013 2.355-.101 1.404-.088 2.509-.162t4.041-.26 5.643-.544M52.08 1166.983q.838-.097 1.434-.023.595.075 1.041.102.447.028.669.079.223.05 2.396-.037 2.173-.088 4.196-.333 2.024-.245 3.739-.56t3.52-.612 2.544-.405q.738-.108 2.021-.447 1.283-.34 3.673-1.137m21.262-60.04q.196.626.551 6.559.355 5.934.329 10.499-.026 4.564-.046 5.513-.019.949-.045 1.228t-.261 2.149"/>
    <path fill="none" stroke="#3697bd" stroke-linecap="round" stroke-linejoin="round" stroke-width="5" d="M161.667 564.975q1.512.005 1.819.054.308.05 1.65.136l4.68.012q.665-.063 3.567-.168t5.121-.18q2.217-.075 3.713-.132t4.224-.241 5.265-.408q2.538-.224 4.237-.366 1.698-.143 5.374-.401t5.971-.353 6.099-.129 5.342-.02q1.54.015 3.189.069t4.14.145 2.985.13 6.291.367q5.796.326 9.971.655t6.318.477 2.729.213 6.641.373 10.498.279 6.166-.155 8.974-.752m-343.883 2.774q.954-.25 2.323-.248t6.885-.167 8.412-.263q2.898-.094 4.785-.197t4.224-.277 5.763-.435 7.417-.588 8.022-.494 15.403-.463 12.305-.349q.931-.053 2.019-.222m18.201-.929 3.231.212q2.872.305 4.306.43t3.476.313q2.041.188 4.878.402 2.837.213 4.384.287t3.293.163q1.745.091 18.361.302t17.835.263 3.729.148q2.51.098 9.119.36l.829.098m-325.865 7.025.827-.218q.381-.102 2.318-.219 1.937-.116 3.757-.207t5.46-.116 6.147-.011 5.78.063q3.275.049 7.227.087t13.552.01q9.599-.029 12.593-.094 2.995-.065 3.646-.069.652-.003 1.906-.035 1.254-.031 2.84-.09t7.171-.178q5.585-.12 6.574-.124t2.319-.091 7.72-.189 9.45-.162q3.059-.059 4.313-.072l1.687.06"/>
    <path fill="none" stroke="#ffb424" stroke-linecap="round" stroke-linejoin="round" stroke-width="2.5" d="M143.903 767.816q1.046-.332 1.419-.498.373-.167 1.033-.386.659-.218 1.092-.317.432-.1 1.772-.278l.866-.084.977-.113q.18.009 2.868-.263t3.677-.293 1.585.004.952.062 1.253.066 3.932.101 4.37.153q1.336.082 2.598.229 1.263.147 2.302.26t3.337.492m1.015 68.961q.399-.095 5.276-.292 4.877-.198 7.455-.321 2.577-.123 5.358-.111 2.782.012 4.669.039 1.888.027 2.496.074.607.046 1.559.199.951.154 1.1.181.148.027 2.816.431t4.853.863 3.329.744 2.555.649M99.012 1002.697q2.234.133 3.631.169t3.128.051 6.763-.079 11.685-.138 9.149-.04q2.497.006 9.506-.054 7.01-.059 14.599-.242 7.589-.184 12.08-.362 4.49-.179 10.898-.564 6.407-.386 11.76-.596 5.354-.21 8.768-.192 3.414.019 6.064.183 2.65.165 10.511.808l2.339.435m3.809-.83q1.091-.169 1.387-.19t7.212-.255 10.88-.352q3.965-.117 5.851-.23t3.515-.292q1.628-.179 3.508-.331 1.879-.152 3.072-.214t5.014-.318 9.296-.414 7.151-.25q1.678-.091 2.171-.138.494-.047 4.299-.166 3.806-.118 7.491-.131t7.623-.104m-80.055-130.083q.394-.081 1.385.219l5.036.17q.52-.01 2.741 0t4.636-.016q2.414-.026 5.008-.08t2.976-.041q.383.013 8.336-.552 7.953-.564 13.972-1.104 6.018-.539 9.097-.769t5.262-.314q2.184-.083 9.555-.601 7.371-.517 10.001-.758 2.63-.24 2.863-.276.232-.036 3.086-.587"/>
    <path fill="none" stroke="#f0f3ed" stroke-linecap="round" stroke-linejoin="round" stroke-width="5" d="M234.433 869.496q1.774-.54 2.343-.62t1.093-.092q.524-.013 1.309-.012.786 0 1.59-.055.805-.055 3.181-.225 2.376-.169 4.094-.319.237-.04 1.895-.162 1.657-.121 3.473-.283 1.816-.163 2.97-.264t1.633-.135 4.222-.48"/>
    <path fill="none" stroke="#3697bd" stroke-linecap="round" stroke-linejoin="round" stroke-width="5" d="m237.877 1000.979 3.662-.162q.581-.065 3.131-.212 2.549-.148 6.017-.497 3.467-.35 5.089-.508t1.925-.178q.301-.021 2.749-.317t3.516-.442m-146.28 4.696.971-.106.937-.051q.461.039 2.215.064 1.755.025 2.562.031t2.041.042 1.352.044q.117.007 6.526-.027 6.408-.033 9.322-.139t4.342-.169q1.429-.062 1.87-.102t3.073-.141 5.313-.169 4.377-.145 8.803-.175q7.106-.101 7.2-.11.094-.01 4.967-.094 4.873-.083 7.184-.135 2.311-.051 5-.176 2.737-.018 4.042.108"/>
    <path fill="none" stroke="#ffb424" stroke-linecap="round" stroke-linejoin="round" stroke-width="2.5" d="m220.059 869.292-.327.887q-.356 3.82-.405 4.114t-.199 3.496q-.149 3.201-.167 4.906-.017 1.704-.007 2.94.009 1.236.013 6.081t.001 7.438q-.002 2.593-.028 5.334t-.041 4.698-.132 5.242-.243 8.878q-.127 5.592-.112 8.043t.039 4.347.063 3.338.106 2.791.22 4.542q.153 3.191.43 6.831.277 3.639.426 5.32t.467 7.18q.319 5.497.38 9.96.06 4.464-.218 24.548l-.139 1.295M98.884 863.005q.169 1.918.195 2.71.026.791.061 2.827t.077 5.875.049 6.283q.008 2.442.031 8.386.022 5.944.036 8.791.015 2.847.052 5.448t-.095 12.147q-.131 9.545-.2 14.892t-.059 9.152q.01 3.806.025 4.649t.03 6.442q.016 5.598.015 7.795t-.035 6.353q-.035 4.156-.065 7.4t-.095 8.895q-.066 5.652-.102 12.251t-.074 9.996-.051 6.14-.116 8.651-.159 8.405q-.055 2.498-.093 5.898-.039 3.4-.071 5.843t-.09 4.825-.146 7.008q-.09 4.625-.153 6.23t-.152 3.198-.253 3.526q-.165 1.932-.548 4.208"/>
    <path fill="none" stroke="#3697bd" stroke-linecap="round" stroke-linejoin="round" stroke-width="5" d="M97.955 1022.549q.091.518.104 1.236.012.719.017 2.904t.038 5.615.059 7.82.046 6.261q.02 1.872.018 3.378-.001 1.507-.027 3.099"/>
    <path fill="none" stroke="#ffb424" stroke-linecap="round" stroke-linejoin="round" stroke-width="2.5" d="M219.858 840.239q-.139 2.608-.162 4.481t-.036 3.381q-.014 1.508.027 4.636.042 3.128.102 6.207t.052 3.228.345 8.049m-40.063-99.758q-.092 2.646-.273 8.383-.18 5.737-.529 11.979t-.461 8.938q-.111 2.696-.194 5.283t-.237 6.824-.172 6.833-.006 5.201.159 6.867"/>
</svg>
