<svg xmlns="http://www.w3.org/2000/svg" width="849.511" height="719.549" viewBox="72.113 558.754 637.133 539.662">
    <g stroke-linecap="round" stroke-linejoin="round">
        <path fill="none" stroke="#626668" stroke-width="5" d="m100 1068 78.585.224m104.13-.694 107.246.759 10.417.143M100 1068v-20.666m0-58.169V568h0m0 0h140m0 0v100h0m0 0h160m-39 19.5v-20m0 80v320m139.393.232L680 1068h20m0 0V768m0 0H499.328m-59.828-.25h-76.855M700 768v-20m0-60v-20m-300 0h20m60 0h220m-200 0V568h0m-260 0h260m-389.063 480.143h-9.474m9.24-59.745h-7.852m8.393 57.784v-57.251m-12.823 59.441H81.476m-.116-.422v-58.974m.116-.696h16.638m82.399 81.186.691.717.114.118.132.137.155.161.153.159.165.171.176.183.195.202.195.202.248.258.246.255.266.275.28.291.287.298.32.331.35.363.311.322.297.308.301.312.298.308.277.288.32.331.23.237.225.234.209.216.205.212.197.204.226.233.177.183.174.181.178.184.187.193.214.222.178.183.189.196.173.178.179.186.185.19.207.215.165.17.156.161.158.163.145.15.134.139.166.171.114.117.103.107.093.096.085.088.143.148.095.097.092.095.105.108.127.131.07.073.085.087.093.096.095.098.07.073.148.153.134.137.082.085.073.076.071.073.085.088.082.085.084.086.103.106.095.098.084.086.092.095.105.108.083.087.102.105.074.076.073.075.074.076.073.076.074.076.092.095.116.12.092.095.095.098.082.084.072.074.085.088.052.053.074.076.07.073.065.067.094.096.073.076.072.074.072.074.072.075.083.086.075.076.095.098.071.074.116.119.135.139.082.085.085.087.092.095.104.107.125.129.103.107.125.129.137.14.134.139.168.173.167.172.165.171.176.181.188.194.167.172.177.182.177.183.133.138.115.118.104.107.145.149.064.067.085.088.07.072.085.088.084.086.07.072m.871.543.111.001.074.001.099.002.095.001.111.001.119.002.129.001.144.002.141.002.154.002.163.002.167.002.177.002.2.003.181.002.19.002.194.002.207.002.207.003.243.003.213.002.212.002.218.002.229.003.269.002.221.002.214.002.215.002.203.002.205.002.233.002.184.001.186.002.202.002.185.001.221.002.246.002.221.001.213.002.225.001.256.002.247.002.305.002.252.001.238.001.245.002.255.001.232.001.294.002.219.001.222.001.235.001.225.001.226.001.277.002.212.001h.213l.214.001.202.001.217.001.255.001.201.001h.226l.242.001.238.001.263.001.314.001.247.001.269.001.285.001h.267l.293.001.346.001.272.001h.258l.239.001h.245l.221.001.262.001h.378l.187.001h.188l.23.001h.268l.248.001h.269l.292.001h.325l.332.001.414.001h.389l.434.001.474.001h.52l.577.001.685.001.606.001h.646l.632.001.612.001h.59l.66.001.508.001h.949l.453.001h.453l.532.001h.413l.407.001h.826l.412.001h.84l.343.001h.719l.426.001h.346l.324.001h.646l.283.001h.801l.204.001h.736l.24.001h.572l.336.001h.335l.431.001h.775l.462.001.48.001h.514l.609.001.541.001h.537l.537.001.548.001.507.001h.571l.444.001.454.001h.454l.465.001.477.001.588.001h.479l.528.001.516.001.508.001h.506l.554.001.458.001h.484l.474.001.482.001h.449l.481.001h.352l.291.001h.635l.175.001h.764l.081.001h1.074l.118.001h1.038l.102.001h.993m1.09-.39.986-.986.156-.156.165-.165.2-.201.186-.185.211-.211.242-.242.243-.243.278-.278.319-.319.323-.323.321-.321.342-.342.341-.342.364-.363.413-.413.338-.339.357-.356.342-.342.343-.344.321-.321.387-.386.308-.309.312-.311.309-.309.318-.319.312-.311.364-.364.321-.321.299-.299.321-.321.31-.31.308-.309.367-.366.264-.264.264-.264.266-.267.245-.244.228-.229.27-.269.209-.209.211-.211.211-.211.198-.198.211-.211.23-.23.2-.2.186-.186.177-.177.178-.178.154-.154.177-.177.134-.134.119-.119.1-.1.102-.102.074-.075.091-.09.133-.133.131-.132.078-.077.077-.077.078-.078.077-.077.087-.088.103-.102.099-.099.142-.142.112-.112.111-.112.122-.122.111-.11.097-.097.135-.135.085-.085.09-.09.078-.078.087-.088.154-.154.079-.078.078-.078.154-.155.078-.078.112-.111.086-.086.101-.101.097-.098.101-.1.089-.089.098-.098.089-.089.111-.111.089-.089.078-.078.064-.064.078-.079.089-.088.101-.101.076-.077.079-.078.097-.098.076-.076.101-.1.078-.079.088-.087.069-.069.075-.075.044-.044m139.125 19.479-.492-.485-.263-.26-.261-.257-.305-.301-.308-.303-.317-.313-.327-.322-.347-.341-.307-.303-.305-.299-.282-.277-.274-.269-.249-.246-.294-.288-.218-.214-.207-.203-.229-.225-.217-.212-.24-.235-.27-.265-.23-.225-.226-.221-.217-.213-.239-.233-.226-.221-.261-.255-.207-.201-.206-.202-.195-.189-.206-.201-.214-.208-.162-.159-.153-.148-.15-.146-.15-.146-.13-.126-.163-.159-.128-.124-.119-.116-.13-.126-.118-.114-.128-.124-.152-.148-.118-.114-.098-.095-.117-.114-.12-.115-.117-.114-.152-.146-.119-.116-.107-.103-.117-.114-.11-.106-.116-.112-.119-.114-.106-.103-.1-.096-.094-.091-.107-.103-.096-.094-.129-.124-.107-.102-.107-.103-.119-.115-.109-.105-.136-.131-.139-.134-.141-.135-.139-.134-.149-.144-.141-.134-.171-.165-.17-.163-.149-.143-.149-.143-.14-.134-.137-.131-.14-.134-.151-.145-.117-.113-.094-.089-.096-.092-.074-.071-.087-.083-.094-.09-.066-.063-.125-.12-.064-.061-.139-.133-.075-.071-.117-.112-.074-.071-.075-.071-.096-.092-.15-.143-.073-.07-.085-.081-.084-.08-.109-.103-.137-.131-.108-.103-.125-.119-.108-.104-.125-.118-.118-.112-.139-.133-.083-.079-.077-.073-.082-.078-.095-.091-.076-.073-.087-.082-.084-.08-.083-.079-.087-.082-.073-.07-.074-.071-.074-.07-.117-.111-.074-.071-.096-.09-.083-.08-.099-.093-.095-.091-.117-.111-.136-.13-.136-.129-.117-.111-.128-.121-.086-.082-.084-.08-.075-.071-.137-.131m20.247 19.099.087-.002.061-.001.06-.001.06-.002.088-.001.084-.002.097-.002.111-.002.111-.003.121-.002.121-.002.162-.004.145-.003.159-.003.163-.003.159-.003.174-.003.185-.004.151-.003.161-.003.152-.003.149-.003.153-.003.178-.003.14-.002.127-.003.141-.002.142-.003.128-.002.157-.003.118-.002.129-.002.13-.002.16-.003.16-.002.187-.003.147-.003.148-.002.148-.002.149-.002.12-.002.151-.002.109-.002.099-.001.095-.002.084-.001.068-.001.112-.001.1-.002.081-.001.1-.001.086-.001.07-.001.097-.002.074-.001.071-.001h.071l.086-.002.099-.001.131-.002.131-.001.116-.001.129-.002.149-.002.146-.001.163-.002.147-.002.135-.001.149-.002.137-.002.137-.001.15-.001.122-.002.109-.001.089-.001.093-.001.094-.001.11-.001h.077l.077-.001.108-.001.094-.001.126-.001.095-.001.108-.001.131-.001.14-.001.128-.001.145-.002.159-.001.165-.001.161-.001.179-.002.149-.001.144-.001.15-.001.132-.001.133-.001.169-.001.115-.001h.102l.116-.001.12-.001.116-.001.173-.001.117-.001.155-.001h.137l.156-.001.171-.001.191-.001.172-.001.177-.001.174-.001.174-.001.18-.001.209-.001.142-.001.162-.001h.123l.128-.001h.123l.129-.001.159-.001h.13l.124-.001h.11l.146-.001h.09l.131-.001h.126l.111-.001h.132l.126-.001h.127l.169-.001h.132l.128-.001h.128l.113-.001h.227l.093-.001h.093l.17-.001h.244l.115-.001h.151l.136-.001h.152l.167-.001h.195l.19-.001h.19l.211-.001h.213l.196-.001.251-.001h.347l.177-.001h.156l.177-.001h.216l.156-.001h.314l.135-.001h.38l.098-.001h.278l.197-.001h.295l.142-.001h.296l.203-.001h.281l.137-.001h.32l.182-.001h.442l.138-.001h.383l.16-.001h.345l.122-.001h.283l.161-.001h.362l.167-.001h.362l.184-.001h.384l.162-.001h.446l.161-.001h.285l.1-.001h.301l.161-.001h.307l.245-.001h.261l.301-.001.344-.001.366-.001.422-.001.503-.001.442-.001.479-.001.461-.001.455-.002.458-.001.495-.002.374-.001.372-.001.329-.001.332-.001.294-.002.368-.001.249-.001.233-.001.227-.001.232-.001.21-.001.267-.001.187-.001.193-.001.202-.001.228-.001.226-.001.298-.002.219-.001.245-.001.218-.001.242-.002.236-.001.166-.001.144-.001.125-.001.144-.001h.089l.089-.001.094-.001h.104l.127-.001.162-.001.088-.001.107-.001h.103l.107-.001.125-.001.121-.001.106-.001h.087l.105-.001.086-.001.172-.001.138-.001.123-.001.156-.002.151-.001.089-.001.098-.001h.103l.167-.002.153-.001.203-.002.197-.002.219-.002.231-.002.261-.003.241-.003.226-.002.224-.003.223-.002.221-.003.22-.002.171-.002.154-.002.14-.002.135-.002.121-.001.138-.002.075-.001.079-.001.087-.002.091-.001.074-.001.074-.001.106-.001.074-.001.073-.001.089-.002.089-.001.1-.002.105-.001.1-.002.103-.001.083-.001.076-.002.07-.001.087-.001.071-.001.07-.001.086-.002.07-.001.069-.001.058-.001.07-.001.069-.001.069-.002.084-.001.084-.001.068-.002.068-.001.083-.001.083-.002.068-.001.067-.001.067-.002.067-.001.071-.001h.011l.015-.001h.04l.026-.001.067-.001.066-.001.081-.002.12-.002.131-.003.08-.001.079-.002.079-.002.076-.001.092-.002.09-.002.078-.001.077-.002.064-.001.063-.002.064-.001.066-.001.087-.002.091-.002.087-.002.076-.002.076-.002.099-.002.086-.002.089-.002.085-.002.075-.001.084-.002.075-.002.074-.002.074-.002.084-.002.06-.001.073-.002.06-.001.073-.002.073-.002.06-.001.059-.002.073-.002.082-.002.062-.001.059-.002.082-.002.095-.002.062-.001.058-.002.117-.003.107-.003.103-.002.062-.002.093-.002.093-.003.093-.002.093-.003.071-.001.08-.003.057-.001.07-.002.07-.002.071-.002.057-.001.079-.002.071-.002.082-.002.067-.002.07-.002.057-.002.06-.001.058-.002.035-.001m1.601-.255.53-.53.078-.078.101-.101.099-.099.111-.111.111-.111.119-.119.112-.112.133-.133.144-.144.131-.131.167-.167.176-.176.177-.177.199-.199.211-.211.233-.232.253-.254.3-.299.255-.256.274-.274.255-.254.267-.267.275-.275.308-.309.267-.267.263-.263.269-.269.242-.242.255-.255.299-.299.242-.242.244-.244.243-.243.241-.241.243-.243.278-.278.22-.22.222-.222.234-.234.22-.22.232-.232.266-.265.197-.198.212-.212.222-.222.207-.207.21-.21.232-.232.167-.167.157-.157.142-.142.133-.132.122-.123.132-.132.088-.088.098-.098.113-.113.123-.122.132-.133.165-.165.155-.155.165-.164.177-.177.179-.179.196-.197.222-.222.168-.168.165-.165.187-.186.187-.188.167-.167.188-.187.143-.144.133-.133.154-.154.144-.144.158-.158.152-.152.122-.122.123-.122.108-.109.124-.124.142-.142.154-.154.133-.133.156-.156.156-.156.165-.165.165-.165.2-.2.176-.176.175-.175.19-.19.177-.177.211-.211.232-.232.177-.177.144-.144.153-.152.113-.113.14-.141.08-.08.078-.078.108-.108.122-.122.078-.078.079-.078.097-.098.091-.09.087-.088.077-.077.079-.078.078-.078.078-.079.085-.085.076-.076.091-.09.067-.068.066-.065.055-.056m-41.777-359.168-.149-.148-.152-.152-.188-.188-.228-.228-.275-.275-.329-.329-.363-.363-.439-.439-.492-.492-.541-.541-.593-.593-.629-.63-.652-.652-.72-.72-.563-.563-.553-.552-.517-.517-.453-.454-.453-.452-.504-.504-.388-.388-.405-.406-.391-.391-.414-.413-.402-.403-.466-.465-.375-.376-.379-.379-.392-.392-.402-.401-.403-.403-.438-.438-.355-.355-.324-.325-.341-.341-.302-.301-.29-.29-.325-.325-.253-.254-.237-.236-.226-.226-.228-.228-.252-.252-.267-.267-.226-.226-.226-.226-.249-.249-.241-.242-.263-.263-.305-.304-.249-.249-.264-.264-.277-.277-.278-.278-.303-.303-.353-.353-.276-.277-.299-.298-.29-.291-.289-.289-.29-.29-.313-.312-.242-.242-.25-.251-.251-.25-.241-.242-.237-.236-.276-.277-.214-.214-.214-.214-.218-.217-.212-.213-.212-.211-.277-.277-.252-.252-.262-.263-.291-.291-.316-.316-.353-.353-.424-.424-.355-.355-.353-.353-.341-.341-.327-.326-.3-.301-.352-.351-.254-.254-.238-.238-.225-.226-.213-.212-.202-.202-.229-.23-.16-.159-.141-.141-.162-.162-.163-.164-.192-.191-.148-.148-.14-.141-.176-.176-.151-.151-.164-.163-.189-.19-.174-.173-.177-.178-.162-.162-.177-.177-.19-.19-.228-.228-.174-.173-.202-.202-.177-.177-.188-.188-.174-.174-.205-.205-.148-.148-.139-.139-.125-.125-.125-.125-.103-.103-.115-.115-.096-.097-.089-.089-.089-.089-.099-.099-.089-.089-.141-.14-.085-.086-.115-.115-.103-.102-.097-.098-.101-.1-.139-.14-.101-.1-.089-.089-.087-.087-.137-.137-.077-.077-.115-.115-.086-.086-.075-.075-.087-.088-.051-.05-.051-.051-.101-.101-.115-.115-.159-.16-.103-.102-.099-.1-.117-.116-.099-.099-.1-.101-.088-.087-.177-.177m-116.861 78.803h56.017m138.774 75.504v-54.411m145.98-80.819h53.693"/>
        <path fill="none" stroke="#626668" stroke-width="2.5" d="m492.115 823.315-.24.021q-.511.013-1.503.02t-1.883.007-2.061-.038q-1.169-.04-2.009-.106-.839-.065-1.647-.153t-4.606-.738m-4.036-1.007q-.52-.154-1.655-.544t-1.692-.61q-.556-.221-1.677-.733-1.121-.513-2.046-1.004t-1.43-.784-1.319-.814q-.812-.522-1.276-.847-.463-.326-.935-.672t-.989-.742-1.312-1.047q-.797-.652-1.353-1.143t-.953-.867m-2.91-2.963q-.129-.137-.814-.966-.684-.828-1.169-1.474-.485-.645-1.026-1.443-.541-.797-.87-1.336t-.469-.785-.511-.926q-.37-.681-.82-1.592-.451-.911-.716-1.48-.265-.568-.597-1.316t-.837-1.995m-1.381-3.871q-.159-.473-.339-1.03l-.301-.93q-.121-.374-.341-1.092t-.694-2.386-.614-2.241q-.141-.573-.228-.956-.086-.383-.166-.763-.079-.381-.269-1.402-.189-1.021-.602-3.937l-.079-.574m36.884-101.875q.005.294-.036.957-.042.662-.086 1.405t-.074 1.169-.097 1.107-.161 1.46-.176 1.319q-.083.54-.185 1.094t-.295 1.394q-.194.841-.422 1.656t-.495 1.603-.337.975m-1.644 3.754q-.046.092-.281.526t-.545.971-.855 1.394-.815 1.238-.675.912-.955 1.173-.815.923-.446.465q-.181.186-.539.538t-.902.845-1.003.883q-.461.39-.841.706-.381.316-.713.575t-.583.471m228.569 44.045-.151-.006-.405-.036q-.169-.022-1.266-.139t-2.129-.267-2.283-.413q-1.251-.261-1.798-.404-.546-.144-1.806-.549-1.26-.406-2.32-.804-1.061-.398-2.029-.802-.969-.403-1.726-.745-.758-.342-.941-.438m-3.633-1.911q-1.807-1.086-2.399-1.475-.591-.39-1.343-.921-.753-.531-1.16-.833-.407-.303-.984-.756-.577-.454-1.42-1.177-.843-.722-1.698-1.528-.855-.807-1.439-1.418t-1.612-1.864m-2.56-3.194q-1.014-1.457-1.77-2.642-.757-1.185-1.436-2.366t-1.38-2.573-1.034-2.119-.698-1.564-.591-1.393m-1.455-3.837q-.445-1.256-.72-2.151t-.574-2.062-.49-2.043-.344-1.723-.264-1.594l-.25-1.722q-.14-.976-.272-1.918-.131-.943-.343-2.415m-342.255 44.207q.146-1.783.236-2.753.09-.969.169-1.677.079-.707.126-1.089.048-.381.166-1.161.119-.779.442-2.312t.611-2.588.442-1.539.318-.983m1.51-3.802q1.598-3.402 2.239-4.557.642-1.155 1.142-1.95t1.23-1.841 1.233-1.713 1.017-1.316q.513-.648.795-.981m2.782-3.038q1.173-1.182 1.692-1.671.519-.488.77-.717.251-.23 1.164-1.009t1.752-1.433 1.444-1.108 1.421-1.024q.816-.572 1.573-1.049.756-.476 2.289-1.367m3.661-1.899q.359-.171 1.494-.658 1.135-.488 2.291-.905t1.767-.615q.612-.197 1.568-.459.955-.262 1.465-.376.509-.115 1.025-.226.517-.112.853-.18.337-.069.711-.128.375-.06 1.236-.188.862-.128 1.334-.186t.634-.072l.386-.031.9-.075 1.176-.099q.5-.042.728-.056t1.201-.078"/>
        <path fill="none" stroke="#f45e58" stroke-width="5" d="M499.996 1060.596q.054-4.219.097-6.543.042-2.323.082-5.419.039-3.096.05-5.874t.006-5.605q-.005-2.829-.026-4.835-.021-2.007-.05-4.217-.029-2.211-.066-4.508-.036-2.298-.08-4.401t-.129-4.662-.187-7.231q-.103-4.673-.143-6.804t-.107-5.34q-.067-3.207-.094-4.887-.028-1.68-.09-7.983-.063-6.303-.092-9.713l-.043-4.981q-.015-1.571-.033-2.98t.058-14.099q.073-3.703.153-6.393.079-2.69.171-4.838t.225-5.914q.133-3.765.264-7.549m.311 1.108q1.241.027 2.228.031.988.003 1.223.007t3.777.004q3.543.001 6.403-.025t5.917-.021 7.945.069 7.758.096 4.4.036q1.53.006 4.209-.009t8.869-.123 10.527-.273l9.301-.352q4.965-.187 8.696-.274t5.46-.102 6.368.01 6.71.063 3.794.099 3.965.145 6.665.264q4.421.18 5.221.214t1.814.082q1.013.049 7.162.367 6.148.318 9.361.468 3.212.15 4.547.207 1.335.058 3.771.136t4.442.108 4.399.027 5.282-.036q2.891-.033 5.003-.086t3.552-.1 3.485-.096 3.568-.099 4.147-.103 4.018-.066l1.799-.018q.406-.005 2.315.004 1.91.009 2.855.008.945-.002 2.44-.016m-2.374-19.199q.034-.884.05-2.064.017-1.179.056-3.392t.085-3.941q.045-1.728.097-3.417.051-1.688.074-3.587.024-1.898.033-4.664t.001-4.141l-.013-2.431q-.006-1.056-.006-1.544-.001-.487-.034-2.557t-.049-3.481q-.015-1.412-.055-2.953-.039-1.541-.077-3.796-.039-2.256-.052-3.646l-.026-2.795q-.014-1.404-.013-2.121 0-.716.022-1.49.023-.773.039-1.379t.044-1.822.076-2.681.139-3.655.12-2.958.063-2.368q.032-1.599.128-4.536t.22-7.478l-.002-.261m-37.214-1.328q.774.099 1.436.155t2.155.158q1.495.103 2.723.184 1.229.081 1.933.115.705.034 2.255.041 1.551.008 2.792-.002l2.665-.025q1.424-.015 3.387-.06 1.963-.046 2.884-.085l1.91-.082 1.853-.08q.863-.039 1.717-.093.853-.054 1.533-.111t1.67-.122q.992-.064 4.903-.336m-37.408 82.034q.075-.005 3.508-.059t5.296-.081 3.084-.052l2.908-.061q1.687-.037 2.76-.058 1.073-.02 2.526-.065 1.452-.044 2.122-.073t1.577-.078 2.124-.096l2.281-.087q1.065-.041 1.728-.059t1.338-.046 3.206-.16l1.703-.113m-37.626 1.098.066-.711q.018-4.09.092-7.579.073-3.489.119-6.143.045-2.654.056-5.426.01-2.772.021-5.116.011-2.345.008-3.755t-.038-3.238-.053-3.454-.011-2.933.009-2.107-.001-1.748q-.004-.947-.015-2.444t-.012-2.547.006-1.405.022-1.718q.015-1.365.033-2.746.017-1.382.066-3.703.048-2.321.065-3.998.018-1.676.028-2.403t.047-2.349q.036-1.622.054-3.369t.021-2.909.058-5.773l-.004-1.594m-131.853-56.749q.047 1.101.061 1.904.015.803.044 1.759t.073 1.853q.044.898.081 2.056t.118 2.544.262 5.67q.07 1.887.14 3.107.069 1.219.112 1.935l.128 2.146m.425 2.459q2.508-.032 3.643-.056 1.136-.024 4.319-.096 3.183-.071 6.992-.107t6.637-.07 3.873-.065 1.335-.051.844-.022 1.715-.018 1.871-.024 3.881-.069 9.97-.151q.728-.044 4.937.003t6.667.105 4.78.099 3.365.065 1.512.031.759-.002.721-.004 1.943.041l4.212.101q2.702.064 5.229.115 2.526.051 4.718.048.594-.034 4.008-.029t8.677-.036 5.729-.066q.467-.024 6.449-.139 5.981-.114 7.011-.148t2.179-.09q1.149-.055 3.374-.119 2.226-.065 3.318-.092t3.061-.11q1.967-.083 4.217-.158t4.557-.173q2.308-.099 3.261-.146t1.825-.094 2.769-.141 4.502-.206 4.288-.179 3.431-.129q1.748-.061 2.687-.083.938-.021 1.271-.033.332-.011 2.069-.045 1.737-.033 2.629-.039.893-.007 1.763-.02.871-.013 1.881-.015l.99.004m-.419-1.847q.084-.641.329-3.12t.4-4.731.19-3.312q.037-1.059.144-3.641t.11-2.841l.013-3.361"/>
        <path fill="none" stroke="#f45e58" stroke-width="5" d="m607.899 798.917.004-1.085q.028-.345.156-3.388t.206-5.398q.077-2.356.101-3.79t.046-3.278q.021-1.843.008-2.7t-.031-2.513M367.02 987.4q1.464.001 4.298-.024 2.834-.024 7.862-.112t6.93-.114q1.903-.026 3.598-.041 1.696-.015 4.689-.069 2.992-.055 4.588-.081l5.143-.082q3.548-.056 6.514-.112 2.967-.055 4.551-.092l2.938-.065q1.353-.029 2.203-.059m-1.271-.192-.045-.629.007-1.169q-.008-.809-.001-1.227.008-.418.003-2.228-.004-1.81.004-2.894t-.019-2.359-.041-2.39-.016-2.571-.033-3.077-.057-2.816-.004-3.256q.021-2.061-.022-4.274t-.06-3.301-.079-4.167q-.061-3.08-.118-5.702l-.084-3.909q-.028-1.288-.049-2.038t-.028-.849q-.006-.099-.081-2.556-.074-2.457-.148-5.886-.075-3.429-.115-5.334t-.146-7.247-.12-8.471q-.016-3.129-.009-4.785t-.012-3.362-.023-3.829.014-4.418.053-5.912q.037-3.619.1-6.094t.097-3.898.095-2.754.14-2.86q.077-1.53.117-2.69t.07-3.142.046-4.28q.015-2.3.017-3.306t-.045-2.064-.098-1.978-.093-2.367l-.02-.272q.01-.252-.204-2.303m-49.913.348.387-.037q1.318-.051 5.061-.213 3.743-.161 8.105-.308t6.723-.199 3.877-.081q1.518-.03 4.868-.071t5.501-.045 3.985.008q1.832.011 2.893.012 1.061 0 3.093-.014t4.922-.014M291.956 987.964q.543.037 3.759.019t5.632-.025 3.984-.019 4.216-.042 5.564-.077 6.039-.126 9.192-.165 8.087-.1 4.589.01 6.384.015q2.158.003 4.69.017m-64.374-.76.04-.649.014-.68q.034-.838 0-2.713-.035-1.876-.078-4.956-.044-3.08-.081-4.269t-.064-2.392-.075-3.331-.179-6.135q-.132-4.005-.151-5.326-.02-1.321-.015-2.456.005-1.134-.081-5.887-.086-4.752-.102-5.955-.015-1.203-.094-3.008-.079-1.806-.144-3.61t-.11-3.181q-.046-1.376-.148-3.912-.103-2.537-.172-4.434t-.186-4.206-.191-4.229q-.074-1.921-.099-2.755l-.05-1.582-.068-2.06q-.044-1.313-.072-3.422t-.07-5.871q-.043-3.763-.039-5.245.004-1.481.018-3.738t.075-4.977l.095-4.373q.034-1.653.061-2.657t.099-3.046.137-4.823.099-4.076q.034-1.294.063-2.884t.055-3.676.034-3.211.025-2.123.013-2.222-.009-2.856l-.01-2.873-.018-3.513q-.013-2.271-.042-4.097t-.098-4.612-.153-4.597-.087-1.989q-.005-.177.009-.694m.336-.43q2.554.04 6.441.09 3.888.051 7.423.112t5.099.101q1.565.04 3.443.106t7.184.145q5.307.08 6.267.087.961.007 4.771.004t8.851-.101q5.042-.097 5.72-.126l2.167-.092q1.489-.062 2.286-.093t2.259-.1 3.713-.196m-64.146 141.536q.412-.047 3.159-.165 2.748-.117 5.278-.228t3.798-.163q1.269-.051 3.288-.1t3.383-.073l4.719-.078q3.356-.055 6.2-.085t6.101-.08 6.225-.112 3.933-.091 7.209-.174m-.563-.761q-.021-.414-.016-1.189t.005-1.417.012-1.447q.013-.803.039-1.298.025-.494.044-1.687.019-1.192.065-2.824.045-1.632.064-2.223.019-.59.05-1.931t.039-2.669q.009-1.327.014-2.869.006-1.541.043-3.585.036-2.044.056-2.74t.034-4.083.01-5.068q-.003-1.681-.009-2.473t-.021-1.266q-.017-.474-.054-2.12-.038-1.647-.071-4.672l-.055-5.3q-.023-2.275-.019-4.613.005-2.338-.005-3.861t-.032-3.011l-.048-3.517q-.027-2.029-.045-3.115t-.091-3.196q-.074-2.11-.134-3.674t-.22-4.381-.351-5.669-.33-4.505-.179-2.088-.107-1.381-.136-2.062-.226-4.029-.258-6.264-.097-4.577-.003-3.337.018-6.817m-51.206 1.254q4.651-.144 6.218-.203t3.098-.119q1.53-.06 3.748-.132t6.431-.185 6.611-.174q2.398-.063 3.505-.087 1.108-.025 2.368-.072l2.816-.103q1.556-.057 2.751-.112l2.612-.121 2.374-.112q.958-.045 1.561-.084.604-.038 4.618-.257l1.143-.057"/>
        <path fill="none" stroke="#f45e58" stroke-width="5" d="m288.567 908.832 3.958.003q2.368.003 4.699.002 2.332-.002 4.088-.015 1.756-.014 4.561-.053t5.616-.126 4.79-.16 2.943-.105q.965-.031 2.126-.073 1.16-.042 4.468-.153l4.596-.157q1.29-.046 1.694-.067.405-.021 2.043-.079t2.537-.087 3.686-.152m13.241 152.156q-.712.033-3.425.106l-4.837.132q-2.123.057-3.229.101t-2.578.08-2.526.04m-.933-1.081q-.091-1.934-.209-4.987l-.226-5.828q-.107-2.774-.149-4.659t-.05-3.162.05-3.377.079-4.57.05-4.591.032-3.211q.002-1.091.012-2.803t.07-4.836.084-4.754.019-1.779.011-1.926.038-2.768.052-1.626.06-.962.054-1.09.018-2.138.048-2.683m.116-.533q.713.028 4.377-.065 3.665-.093 5.753-.125 2.089-.033 3.057-.036.969-.004 3.404-.005l1.244.076m-232.256 62.373q.656.041 2.291.056 1.636.014 5.615.026t8.344-.058 6.65-.124q2.284-.054 3.743-.091 1.459-.038 2.628-.062t2.29-.041 3.626-.041 4.423-.024 4.201.02 4.059.03 2.233.003 1.405-.002q.949.004 2.877-.003"/>
        <path fill="none" stroke="#f45e58" stroke-width="5" d="m121.866 1059.693-.037-.87q.022-.626.083-1.859t.114-2.131.102-3.678.058-5.031.011-5.434-.023-4.21-.094-5.104-.144-5.792-.131-3.426-.085-2.873-.257-6.958l.011-.467q-.112-3.969-.281-8.453t-.193-5.944-.135-5.397q-.11-3.936-.218-6.747-.109-2.811-.165-3.81l-.124-2.195q-.068-1.198-.214-3.835-.145-2.636-.343-5.322l-.097-1.157m-.498-1.199q.513.007 4.264-.167 3.75-.174 6.258-.309 2.507-.134 3.907-.207 1.401-.073 2.153-.115t2.88-.143 7.693-.266 8.754-.175q3.188-.01 4.152.002t4.389.089 5.204.156 2.655.113q.878.035 1.426.062l1.534.074q.987.046 2.833.141l.712.057"/>
        <path fill="none" stroke="#f45e58" stroke-width="5" d="m177.904 1056.696.157-1.399.057-1.793q.012-.116.08-5.284.067-5.169.086-10.567t.013-8.039-.01-3.537.011-3.031.006-4.446q-.009-2.31-.011-4.893t.032-5.358l.054-4.4q.019-1.625.076-3.996.058-2.37.059-5.405t-.042-4.935q-.042-1.899-.187-5.196-.146-3.296-.243-4.76-.098-1.463-.317-3.803-.218-2.341-.331-3.386-.112-1.045-.148-1.398-.036-.352-.182-1.45t-.181-1.412-.251-1.909m-68.792-18.165q6.736-.135 9.568-.209 2.833-.074 5.804-.168l4.238-.132q1.267-.039 3.49-.098 2.223-.058 3.52-.094 1.296-.035 3.102-.081 1.805-.045 3.479-.106m.424-1.036q-.017-1.849-.019-3.848t-.007-3.022q-.004-1.023-.034-2.578t-.034-3.305-.005-4.75q0-2.999-.004-4.53-.003-1.531.049-3.697.051-2.165.098-4.551t.055-3.161.03-2.311q.021-1.537.035-2.214t.048-1.816q.033-1.14.057-4.066.025-2.926.034-4.925t.006-2.356q-.004-.358 0-1.935.003-1.576-.028-4.187t-.078-4.278q-.046-1.666-.046-1.895t-.069-2.355l-.104-3.212q-.036-1.088-.06-2.035t-.025-1.17q-.001-.221-.089-3.222m-34.664-1.502q1.065.016 2.22.049 1.154.033 5.854.054t7.241-.013 4.171-.065l3.712-.074q2.081-.042 3.429-.082l2.842-.084q1.495-.043 2.488-.069t2.548-.057m-32.91-41.119q1.704-.109 6.096-.434 4.391-.325 7.884-.538t4.934-.277 2.564-.112l2.299-.095q1.174-.048 2.738-.097 1.563-.049 4.207-.122 2.643-.072 7.177-.158t7.568-.116 5.267-.045l2.89-.02q.658-.005 6.272-.007t13.152.052l8.553.06q1.016.007 1.71.019.695.012 3.133.023l4.627.024q2.19.013 4.701-.006 2.512-.019 4.435-.041l4.211-.048q2.288-.027 3.107-.035.818-.008 1.23-.026t1.519-.043m1.378 1.08.015-2.348q.014-.314-.004-2.381l-.027-3.199q-.01-1.131-.003-2.568.006-1.437-.01-2.695-.015-1.257-.019-2.464t0-1.354-.046-2.085q-.049-1.94-.106-4.365t-.07-3.667q-.013-1.241-.049-2.967-.035-1.726-.062-2.509t-.018-1.432q.007-.648.012-1.609.006-.961-.01-2.45-.015-1.489-.023-1.725-.008-.235-.001-2.593.008-2.358.058-4.492t.098-4.52q.049-2.384.071-3.02.022-.635.069-2.538.047-1.904.087-4.051t.068-4.172q.03-2.025.031-4.208t-.008-3.118q-.01-.934-.038-1.859-.029-.924-.047-3.997m-71.637-.614q.267-.022 5.981-.153 5.714-.132 10.221-.199 4.506-.068 9.766-.115t12.581-.03q7.322.018 10.685.068t8.02.234q4.655.183 5.564.243.908.059 3.822.207l1.489.13"/>
        <path fill="none" stroke="#f45e58" stroke-width="5" d="m148.761 748.333.142-1.025.026-.809q.111-1.598.24-4.113.128-2.514.199-3.874t.087-1.828.069-1.341l.081-1.317q.028-.444.087-2.533t.064-3.125q.006-1.036.009-2.753t-.056-3.646-.115-4.05q-.057-2.12-.088-3.842t-.078-3.148q-.046-1.426-.078-3.56-.031-2.134-.04-4.036t.018-4.12.14-8.316q.113-6.099.173-7.681t.078-2.487.077-3.118q.058-2.213.078-3.635t.076-4.441.052-5.6q-.005-2.582-.024-4.259-.019-1.676-.021-4.057-.003-2.38-.014-3.814-.011-1.433-.036-3t-.028-2.506.019-2.182.034-3.096q.012-1.851.05-4.831t.061-3.668.048-1.722q.024-1.034.089-4.446.006-2.909.038-4.111.033-1.201.07-3.242l.052-1.524m-.35-.192q.593.007 3.19.025t5.849.036q3.253.018 10.044-.005 6.792-.022 10.492-.036t11.529-.032q7.83-.019 9.217-.016 1.387.004 3.332.017t4.736.027l5.855.028 5.246.023q2.184.009 3.503.019 1.318.009 4.948.01t5.417-.015M106.81 748.791q8.025-.205 10.329-.288t3.465-.128 2.988-.102l3.131-.097m.466-.466q.151-.922.337-3.051t.544-8.937q.359-6.808.312-10.378t-.1-5.157q-.054-1.586-.172-4.538t-.216-4.876-.299-4.962-.358-5.899-.347-8.26-.253-11.69q-.061-6.291-.016-11.994t.097-9.885.056-10.695-.012-7.876-.069-4.664-.1-5.631-.137-4.764l-.041-1.353m-.614-.769q.526-.707.858-1.116t2.173-2.569 2.808-3.299 2.207-2.651 2.211-2.681 1.959-2.393 1.31-1.605.862-1.032q.541-.65 1.41-1.79t1.621-2.056 2.039-2.597l.524-.697.661-.809m1.547-1.384q.582.026 2.851-.014 2.269-.039 4.915-.106t4.423-.094 3.834-.025q2.056.001 3.467.023t3.789.077 3.703.08 3.888.026 5.277-.053q2.713-.052 5.338-.156t4.509-.206 6.209-.269q4.325-.169 5.95-.224 1.624-.056 4.012-.107 2.388-.052 3.138-.065t2.64-.016 3.119.018q1.228.02 4.569.101 3.341.08 5.876.172l2.572.068M369.9 760.473q.489-.002 4.974-.068l7.356-.105q2.87-.039 4.202-.059t2.003-.037q.672-.017 2.635-.041 1.963-.023 3.24-.048 1.278-.024 6.213-.058t5.926-.036 2.528.004 8.997.079 13.746.186l.799.028m-51.609 15.977q.357-.029 9.264-.19 8.906-.16 10.667-.183 1.76-.024 3.361-.051t9.092-.126q7.492-.098 8.901-.119 1.41-.022 2.888-.054t4.787-.083M260.205 675.274q.622-.055 1.654-.079t3.846-.063q2.813-.04 5.184-.058t4.066-.02q1.696-.003 4.094.02t3.769.058 2.95.066 3.549.082 3.058.08q1.089.03 2.244.077 1.156.046 5.109.181 3.953.134 6.099.211l5.164.186q3.017.108 4.867.161t2.887.077 4.092.082q3.054.059 6.474.106 3.421.046 5.185.064t2.452.03q.689.011 1.763.017t1.378.014 1.884.062m-22.551-15.846-.013-.637q.002-.233-.489-6.686m.571-27.054-.013-.621q.003-.312.061-1.875.059-1.563.1-3.829t.087-5.706.038-5.111-.023-2.864-.017-1.575-.067-4.182-.144-6.496-.135-4.031l-.145-3.431q-.088-2.094-.313-8.237m21.81 81.62q1.725-.013 4.728-.051 3.003-.037 7.07-.057t7.912-.015 5.812.016q1.966.012 4.11.016 2.143.004 3.176.01t4.444.001 6.404-.035l4.643-.046q1.649-.016 4.983-.04 3.335-.024 5.801-.05l1.16.004m61.704-85.596-.85-.025q-1.322-.048-4.655.065t-5.002.391-2.479.493-1.039.291-1.132.419-1.26.509-1.011.564-1.113.766-.784.71-.386.435-.269.38-.416.679-.344.78-.24 1.116-.09 1.179.217 1.293.413 1.312.365.718.382.527q.228.282.523.624.295.343.462.506.168.164.585.486.418.322.832.588.415.267 1.484.778 1.07.512 3.022 1.054 1.952.543 3.112.732t1.901.259 3.001.194 3.301.11l1.275-.015q.233-.003 2.237-.142 2.003-.14 3.648-.363t2.94-.508 3.151-.903 2.69-1.055 1.198-.678q.364-.24.905-.715.541-.476.776-.746.236-.27.485-.663.248-.394.352-.588.103-.195.216-.52.114-.324.188-.935.074-.612.078-.684t-.115-.798-.316-1.199-.456-.948q-.258-.475-.635-.957-.376-.484-.769-.857t-.91-.754-1.613-.964-2.449-1.054q-1.354-.473-2.311-.701t-1.763-.36-2.937-.358q-3.051-.165-6.011-.288"/>
        <path fill="none" stroke="#f45e58" stroke-width="5" d="M450.999 591.76q.017.3-.176 1.844-.192 1.545-.455 2.711-.262 1.167-.463 2.013t-.428 1.837-.528 2.221-.409 1.755-.217 1.069-.26 1.794q-.152 1.251-.181 2.031-.028.779.015 1.648.044.868.154 1.839.109.971.172 1.36t.213.974l.22.848q.068.264.263.851.195.588.713 1.642.517 1.053.855 1.599.339.546.598.929t1.716 1.847 2.579 2.139q1.122.676 1.877 1.013t1.99.661 2.02.433 1.285.133 1.586-.021 2.321-.303 2.109-.584 1.737-.796q.862-.47 1.437-.859.574-.39 1.442-1.184.867-.795 1.133-1.099t.816-1.033.845-1.244.503-.957.581-1.581q.372-1.139.452-1.463t.187-.949q.105-.624.143-.942t.104-1.269-.018-2.875-.224-2.933q-.138-1.009-.421-2.583-.284-1.574-.562-2.79t-.304-1.35-.354-1.359q-.326-1.224-.693-2.469t-.704-2.41-.5-1.735-.458-1.511"/>
        <path fill="none" stroke="#626668" stroke-width="5" d="M416.186 589.678q.544.011 3.716-.068t4.93-.11q1.759-.032 2.898-.041 1.138-.009 2.929.006l2.032-.002m-17.08-1.26-.092-.754q-.218-4.425-.25-5.527-.033-1.102-.033-2.053-.001-.952-.059-2.849l.052-1.049q.108-.977.132-1.627t.028-.897.055-1.597l.061-.968m16.968 18.041.012-.408q.106-.635.159-3.387.053-2.753.04-4.322t-.021-2.206l-.015-1.114q-.006-.475.013-.908.019-.432-.011-.75-.03-.317-.048-.732t0-.733q.02-.319 0-1.151-.134-.847-.154-.99-.021-.143-.098-2.033"/>
        <path fill="none" stroke="#f45e58" stroke-width="5" d="m406.996 599.979.032-.918q.011-.291-.003-.992t-.042-1.905q-.029-1.204-.086-3.317t-.068-2.825-.116-2.41q-.104-1.699-.184-2.692t-.105-1.359q-.026-.366-.042-1.028t-.079-1.666q-.062-1.004-.109-1.563-.046-.559-.279-3.493m-1.011 25.248q-.094.007-1.888.09l-6.172.283q-4.379.2-6.741.316t-4.167.219l-2.998.172q-1.192.068-3.413.178t-3.158.151-2.365.044-2.891-.02-2.218-.073-1.593-.097-2.077-.096-2.026-.093q-.789-.044-1.542-.11-1.251-.059-2.976-.133m-.357-1.807-.08-.666q-.049-.284-.248-3.523-.198-3.238-.323-5.704-.124-2.465-.196-4.376-.072-1.91-.086-2.89t-.028-1.808-.01-2.62q.003-1.792-.001-2.179m1.002 8.93.626-.052q1.259-.057 5.229-.199t7.815-.29q3.844-.148 5.825-.227t4.612-.139 3.842-.085 2.87-.065 2.451-.045 3.76-.012 4.213.01q1.246.016 2.301.014 1.055-.001 3.375.045m-68.373-8.355-.109.796m-5.264 3.634q.759-.11 9.844-1.689m144.424 95.81q-.005.398-.007 1.157-.002.758.005 1.875.006 1.116.019 2.007t.038 1.891.086 2.222.057 1.379.044 1.044q.047.885.109 1.784l.078 1.114q.015.214.102 1.331m.377 1.242.806.005q.712.022 2.04.074 1.327.051 2.479.093 1.151.042 2.563.082 1.412.039 2.67.061t2.369.034q1.109.013 2.07.018.961.006 2.183.008 1.223.002 2.857-.002 1.634-.005 3.27-.02 1.636-.016 2.957-.032l2.331-.029q1.01-.013 2.084-.03 1.075-.016 2.214-.037t2.194-.052 2.026-.072 2.342-.08 3.141-.078 3.391-.066q1.621-.026 3.094-.04l3.188-.027q1.714-.014 3.675-.025t3.516-.017q1.556-.004 2.701-.004t2.061.003q.916.002 1.943.008 1.027.005 2.01.003.984-.003 2.167 0l2.896.005 3.041.004q1.328.001 2.747.006 1.419.004 2.232-.001.812-.005 1.608-.016.795-.011 1.577-.012.783-.001 1.814.001l2.211.006 2.509.007 2.39.073m.23-.422q-.041-.294-.103-.974-.063-.68-.113-1.751t-.064-1.927q-.014-.858-.014-1.82.001-.962-.037-1.972t-.032-1.871.014-1.191.023-1.249q.013-.919.027-2.075.013-1.156.07-2.013m9.339 17.341q-.024-.339-.057-1.065-.033-.727-.072-1.839t-.059-1.974-.027-1.775-.012-2.096q-.005-1.181.017-1.948t.044-1.08-.001-1.236q-.024-.922-.056-1.787-.033-.865-.055-1.818m.273 17.642q.557.016 1.692.026t2.761.031 3.216.053 2.756.042 2.44.007 2.348-.016 2.407-.041 2.44-.062 2.11-.067l2.364-.077q1.36-.044 3.11-.124m.287.035q-.003-1.231-.05-3.138-.048-1.907-.07-3.133t-.024-1.953l-.002-1.638q0-.91-.012-1.095-.012-.186-.05-.984-.037-.798-.047-1.169-.009-.371-.038-1.12l-.04-1.06-.069-2.098"/>
        <path fill="none" stroke="#1c7aa2" stroke-width="2.5" d="m623.367 692.48.508.004q.228.024 1.211.003t2.711-.084q1.729-.064 3.76-.135 2.031-.07 4.367-.147.065-.018 2.432.002m-15.225.398q-.049-.527-.07-1.367-.021-.839.016-1.991.037-1.151.078-2.084.04-.932.073-2.003.034-1.071.043-1.962.01-.892.004-1.178-.007-.286-.065-1.154l-.067-1.036q-.01-.168-.061-3.129m.959-.127.861.019q.048.007.755.016t2.076.018 3.411.012 4.772-.005l2.409.048m.163 15.541q.041-.828.059-.969t-.005-.865l-.056-1.769q-.034-1.044-.055-2.672-.021-1.627-.017-2.519.005-.892-.003-1.088-.008-.195-.019-.996t-.02-1.223.042-1.407l.094-1.827"/>
        <path fill="none" stroke="#ffe15c" stroke-width="2.5" d="M233.644 959.115q-.305-.066-.966-.29-.662-.223-1.342-.433t-1.892-.455-2.322-.259-2.119.285q-1.011.298-2.161 1.052-1.15.753-1.95 1.693-.801.94-1.382 2.016-.582 1.076-1.129 3.266-.546 2.189-.641 3.716-.095 1.526-.03 2.272.064.745.229 1.291t1.376 2.222 2.5 2.87 2.103 1.783 2.33 1.162q1.517.572 3.266.777 1.75.204 3.289-.056t3.124-1.039q1.584-.779 2.089-1.196t1.414-1.537q.908-1.121 1.291-1.75.384-.629.904-2.134t.639-2.76.068-2.167-.15-1.538-.386-1.44q-.288-.813-.414-1.051t-.883-1.445-1.4-1.85q-.644-.643-1.865-1.376t-4.127-1.69"/>
        <path fill="none" stroke="#ffe15c" stroke-width="2.5" d="m230.414 969.441.115.214.007.072q-.122-.029-.122.07m68.694 68.216q-.597-.07-.682-.086-.085-.017-.676-.033t-1.636.061-1.985.365q-.94.29-1.789.813-.849.524-1.443 1.058-.594.533-.987 1.034-.394.501-.558.768-.164.266-.404.825-.24.56-.654 2.136-.414 1.575-.363 2.019.051.443.195.906.145.464.861 1.938t.968 1.765.722.674.787.603.464.331.796.429 1.015.441.692.184q.326.06.93.136.604.075.658.072t.443-.006 1.167-.11q.78-.107 1.508-.412.727-.305 1.298-.676t1.339-1.098 1.35-1.724.806-1.685.337-1.134q.113-.448.158-1.16.044-.713-.005-1.11t-.121-.732-.178-.729q-.104-.395-.231-.745-.127-.349-.535-1.036-.408-.686-.57-.887-.162-.202-.295-.333l-.497-.491q-.363-.359-1.574-1.252"/>
        <path fill="none" stroke="#ffe15c" stroke-width="2.5" d="M296.098 1046.009q-.121-.071-.449-.196m61.238-31.505q-.151-.087-.655-.266t-.949-.392q-.445-.212-1.008-.614-.564-.403-1.18-1.011t-1.005-1.226q-.389-.617-.584-1.04t-.264-.614-.373-1.156-.409-2.427.045-2.387.333-1.47.224-.65.464-.81 1.009-1.342q.588-.637.761-.791t1.38-1.035q.44-.301 1.824-1.121"/>
        <path fill="none" stroke="#ffe15c" stroke-width="2.5" d="m355.637 1005.489-.149-.101-.033-.069q.06.053-.065-.017l-.325-.33m.764-184.422q-.079-.063-.67-.4-.592-.338-1.643-1.2-1.051-.863-1.351-1.163-.299-.301-.873-1.05t-.872-1.389-.393-.961-.199-.876q-.102-.553-.158-1.85-.056-1.296.098-2.328.155-1.033.229-1.292t.312-.951.589-1.382.76-1.247.66-.833.754-.735.882-.726q.378-.267 2.13-1.18"/>
        <path fill="none" stroke="#ffe15c" stroke-width="2.5" d="m354.993 810.802-.356-.049q-.02-.048-.217-.308m145.103 105.889-.032-.008-.108.035q.004.02-.473.302-.072.394-.012.518.06.123.125.169t.171.036.231-.111.196-.208q.069-.108.095-.22.027-.112.012-.145t-.051-.145.004-.383"/>
        <path fill="none" stroke="#ffe15c" stroke-width="2.5" d="M504.064 901.467q-.384-.228-1.149-.483-.765-.254-1.474-.386t-1.333-.19-2.014.052q-1.388.109-2.222.343t-2.116.83-2.235 1.201-1.813 1.209q-.859.603-1.443.986t-.978.708-1.095 1.049q-.703.725-1.26 1.516-.557.792-.791 1.216-.233.425-.685 1.557t-.592 1.595-.271 1.286q-.13.822-.198 1.361t-.086.607 0 1.904.186 3.03q.167 1.195.248 1.564t.348 1.283.444 1.437q.176.523.462 1.173.286.651.448.944t.193.362q.029.069.806 1.182.776 1.113 1.679 1.991.903.877 1.582 1.381.68.505 1.537 1.002t2.466 1.131 3.602.95q1.994.315 3.34.272t1.98-.124.971-.168.525-.167q.187-.081.513-.201t1.146-.435q.819-.314 1.205-.503.385-.189.938-.519t1.065-.658 1.185-.788q.673-.459 1.202-.906.529-.448.597-.517t.513-.627.848-1.176.784-1.34q.382-.723.6-1.223.219-.5.543-1.66t.535-2.922q.212-1.761.282-2.942.07-1.18.109-2.056.039-.875.021-1.253t-.047-.81-.159-1.286-.276-1.42q-.148-.566-.256-.875t-.653-1.379q-.543-1.069-.876-1.544t-.528-.717-.489-.547-.361-.377-1.66-1.335-4.725-3.3"/>
        <circle cx="560.063" cy="717.972" r="1.25" fill="#ffe15c" stroke="#ffe15c" stroke-width=".1"/>
        <path fill="none" stroke="#ffe15c" stroke-width="2.5" d="m563.267 704.512-.187-.064-.309-.089-.343-.057q-.077-.03-1.014-.086-.937-.057-1.562-.028-.624.029-2.209.466t-2.555.876q-.97.44-1.371.648-.4.209-.885.504t-.517.318l-1.259.927q-1.227.903-2.252 1.995t-1.471 1.714-.874 1.285-.703 1.227q-.274.562-.432 1.047t-.223.617q-.066.132-.249 1.571-.184 1.438-.146 2.218.037.779.051.986t.305 1.392.415 1.574q.124.387.427 1.02.304.632.519 1.005t.728 1.212 1.012 1.467q.499.627.921 1.061t.687.667.876.676 1.105.751.774.47.571.262 2.264.601 2.802.491q.828-.011 1.421-.088.592-.078 1.356-.207t1.213-.248.63-.184q.182-.066.83-.373t1.194-.61 1.3-.788 1.195-.841 1.135-1.122 1.415-1.815q.722-1.047.889-1.309.166-.261.686-1.562.521-1.301.785-2.42t.324-1.548.093-.847.068-1.56-.013-1.73-.371-1.851-.626-1.995-.427-.949-.566-.913q-.44-.697-1.1-1.398-.659-.701-1.535-1.393t-1.624-1.145-2.913-1.349m-283.645-84.835.003-.069q.048.002.061.05l-.016.004-.018-.072q.084-.015.168-.013"/>
        <path fill="none" stroke="#ffe15c" stroke-width="2.5" d="M286.004 618.917q-.018.075.001.443.018.368-.026 1.209-.043.841-.125 1.282-.083.441-.172.732t-.331.761-.92 1.079-1.777 1.035-1.895.515-1.691 0q-.897-.09-1.38-.241-.484-.152-1.016-.473-.533-.321-1.126-1.215-.594-.894-.867-1.984t-.251-2.023q.021-.933.151-1.416t.254-.742q.123-.259.42-.743.296-.485.513-.779t.745-.759 1.321-.813 1.522-.466q.728-.117 1.819.146t1.692.609.989.694.822.991 1.274 2.258m152.15.458-.465.065-.301.095"/>
        <path fill="none" stroke="#ffe15c" stroke-width="2.5" d="M439.809 614.406q-.808-.042-.835-.047-.028-.006-1.093.026-1.066.032-1.528.103-.463.071-1.002.308-.539.236-1.039.594-.501.357-.958.836-.458.478-.66.773-.203.295-.278.447-.074.153-.204.564-.13.412-.253.945t-.105 1.033.044.742q.026.243.455 1.061.429.817.684 1.134t.519.544.675.478 1.185.549 1.888.399 1.811-.03.852-.17.706-.392.835-.646q.286-.295.552-.734.265-.439.394-.757.128-.318.247-1.1.12-.782.11-1.319t-.076-.78-.283-.74q-.216-.498-.548-1.013-.331-.515-1.523-1.782m-73.047 4.758-.255.216q.007.118-.001.393"/>
        <path fill="none" stroke="#ffe15c" stroke-width="2.5" d="M373.135 619.052q-.008.129.018.289-.013.876-.115 1.652t-.281 1.407-.449 1.183-.553.98-.59.787q-.309.358-.823.767-.515.409-1.12.689t-1.566.438-2.128-.117q-1.166-.276-1.969-.809t-1.444-1.416-.962-1.895q-.322-1.014-.355-1.547t.324-1.888.651-1.998q.294-.641.562-1.048t.417-.589.918-.897 1.359-1.052.967-.452.677-.161q.299-.048.986-.036t1.078.093q.39.082.858.312.467.231.924.589.458.359.959 1.021.501.663 1.214 2.027M180.661 784.248l-.198.026q-.762.128-1.018.203t-.656.231-.664.425-.662.901q-.399.63-.499.949-.101.319-.143.64-.043.321.114.857.156.536.575 1.147t.712.836q.292.224.705.365t.805.158.624-.044.924-.433 1.033-.819.418-.703.136-.709.017-.906-.133-.757-.186-.633-.555-1.356m-22.128-.145q-.048.046-.461.344-.413.299-.803.611t-.772.685-.546.645-.243.473q-.078.201-.125.544t-.046.583q0 .24.09.558t.188.524.151.3.562.573 1.053.731.683.285.342.051.654-.018q.452-.036.853-.193.401-.158.649-.327.249-.168.391-.304t.292-.342q.151-.206.317-.609.165-.403.185-.525.019-.123.044-.32.024-.198.01-.447t-.282-.941-.577-1.201q-.311-.508-1.284-1.683m-20.75-.397q-.255.161-.526.174t-.593.073q-.323.061-.727.189-.405.127-.814.468-.41.341-.66.756t-.374.878q-.123.463-.08.908.043.444.425 1.192.382.747.785 1.141t.694.561q.292.166.525.252.232.085.517.148.286.064.936.055t1.125-.185.836-.448.569-.53.369-.623q.16-.366.21-.708.05-.343.051-.628.001-.286-.157-.721t-.245-.565l-.21-.31q-.121-.179-.538-.624-.417-.446-.742-.671-.326-.226-.421-.271t-.355-.118q-.261-.071-1.402-.403m34.407-130.933q-.011.074-.027.122t-.022.167.078.425.281.49q.199.184.281.221.083.036.157.036.074-.001.188-.033.114-.033.3-.137t.322-.261q.135-.155.207-.373.072-.217.101-.373.028-.156.026-.24-.002-.085-.07-.252-.067-.167-.258-.448-.017-.003-.285-.213m15.513.465q-.062.004-.103.175-.429.092-.588.16-.159.069-.246.144-.087.076-.187.235-.099.159-.117.323-.017.163-.002.371.015.209.096.361.082.153.242.311.16.159.44.261t.457.024q.176-.077.477-.459.3-.381.3-.527-.001-.146.012-.164t-.077-.189q-.091-.171-.505-.812m16.876.231q-.051.049-.264.013t-.423-.005q-.211.031-.545.312t-.418.401q-.082.119-.134.263t-.011.341.042.209q0 .012.287.244t.332.258q.046.025.281.046t.473-.03.368-.111q.131-.059.297-.243t.196-.255.048-.224q.019-.153-.141-.454-.161-.3-.388-.636m-101.89 12.317q.047-1.909.026-3.292t-.036-3.433q-.015-2.051-.077-3.615-.063-1.564-.17-2.638-.107-1.075-.138-2.49m0-4.645q.012-1.197.066-2.631.055-1.435.177-2.458.121-1.023.334-2.174t.369-3.026.168-3.713m-.194-5.102q-.139-3.076-.136-3.762t.05-2.136.093-2.788.107-3.043.134-3.934m.12-4.873q.012-2.158-.042-3.172t-.178-3.367-.124-3.712q.001-1.36.125-4.894m.046-4.693q-.002-.214-.023-1.047-.021-.834-.066-2.41t-.086-2.448-.123-1.708-.167-1.572-.114-1.058q-.03-.32-.104-.852m2.495-1.521q4.523.024 9.684-.034m3.802-.043 2.675-.039q2.482-.037 3.598-.029t2.07.039q.954.032 3.701.105t4.138.108m4.208.221q3.997.333 7.107.478 3.11.146 5.69.198l2.681.055m3.852.078q1.421.029 3.499.029h3.62q1.543 0 2.4-.005.858-.004 6.794-.061m4.115-.091q3.931-.202 6.142-.253t4.648.028 5.237.12m3.93.039q3.991-.055 5.058-.087 1.068-.032 2.189-.141t2.371-.149 2.805-.045q1.555-.003 2.872-.001m4.309.169q2.588.139 3.222.16t1.426.051q.793.03 2.023.026t1.767-.016 1.642-.089l1.165-.13M126.617 826.236q-.001-.006-.035.015t-.125.057l-.316-.918q-.314-.913-.573-1.704-.259-.792-.468-1.41-.208-.619-.372-1.083t-.411-1.143q-.246-.679-.595-1.602-.348-.922-.489-1.467t-.151-.773 0-.482l.035-.169q.07-.289.573-1.231t.817-1.44q.314-.497.506-.832t.413-.73q.222-.396.393-.676.172-.279.334-.522.163-.242.387-.562.225-.32.389-.629.165-.308.588-1.212l.095-.174m2.416-4.442q-.052-.031-.343-.534-.211-.109-.428-.165-.216-.056-.458-.039-.242.016-.409.08-.167.063-.241.112t-.171.132q-.098.084-.152.145-.055.061-.078.081-.023.019-.194.315t-.308.976q-.137.681-.139 1.151-.001.47.021.599t.193.558.328.68.243.334q.084.085.288.223t.455.226.357.099.231.005.18-.018.261-.074q.207-.06.448-.2.242-.139.43-.344t.278-.354q.09-.151.241-.738t.134-.883-.076-.474-.124-.296q-.066-.116-.099-.17-.034-.054-.189-.243-.156-.188-.258-.289t-.516-.38m-12.026 23.537q-.044.151-.203.386t-.353.538-.362.635q-.168.33-.432.865-.263.535-.64 1.141-.377.607-.604.915t-.528.742-.459.694q-.157.261-.321.551-.164.289-.246.47-.083.182-.108.297-.026.115-.069.788l.214.839q.204.797.598 1.531.395.735.673 1.173.279.439.487.757t.92 1.508 1.459 2.257l.176.208m2.849-.24-.101-.019q-.028.005-.407.004t-.618.035l-.294.044q-.054.008-.611.303t-.834.545-.395.395-.281.6-.195.762-.019.451.037.252.135.377.298.571.45.552.541.42.76.26.874.055.659-.137.568-.299.435-.338.365-.545.325-.892.076-.779-.059-.469-.082-.274q-.043-.096-1.316-1.657"/>
        <path fill="none" stroke="#1c7aa2" stroke-width="2.5" d="M246.251 968.358q.082.013 3.146-.138t4.798-.279 2.719-.177m4.587-.007q2.122.024 3.827.046 1.704.021 1.968.019.265-.002 1.152.006l1.28.011q.393.003.952-.005.56-.007 1.109-.025.55-.017 2.124-.125 1.573-.108 2.369-.154m4.703-.113q.094.001.521.016t.835.035.788.032m-69.374.601q-.411.012-1.375.031-.965.018-2.265.017t-1.974-.022l-1.267-.039q-.593-.019-1.397-.011t-1.715.022m1.22-120.809q3.512-.203 5.023-.287 1.51-.085 3.656-.13t4.077-.118m4.324-.181q.363-.018 2.06-.041 1.696-.023 2.721-.035t2.897-.046q1.872-.033 2.533-.014.662.019 1.698.074t3.115.224m4.656.093q.19-.012.785-.015.594-.004 1.239.008t1.192.032 1.082.037 1.49.093 1.999.163 1.615.127q.571.038 2.091.039t3.553.047m4.577.141q.351.007 1.562-.006 1.21-.013 2.171-.033.962-.02 2.258-.101t2.19-.145q.893-.063 1.39-.109.496-.047 1.569-.181t1.753-.183 1.445-.081m4.405-.094q.37-.023.902-.033.533-.011 1.085.032m-82.072 119.225q.136-1.292.19-3.345.055-2.053-.018-4.084t-.034-3.938q.039-1.906.083-2.92m-.063-4.047q-.075-2.365.018-3.84.092-1.475.184-2.654.091-1.18.118-2.563.026-1.382.079-2.361t.164-2.041q.112-1.062.164-1.793t.058-1.451m.062-3.9q.221-2.625.294-4.332t.131-3.566.114-2.756l.123-2.002q.066-1.105-.002-3.907m-.086-4.078q-.003-.171.018-1.095.022-.924.017-2.049t-.035-2.759q-.031-1.634-.032-2.472 0-.837.024-1.685t.051-2.083-.005-2.998m-.068-4.302q.009-1.58.023-2.166t.05-3.999q.035-3.413.11-6.537.076-3.124.074-3.781m-.104-4.261q-.105-2.092-.226-3.724t-.366-3.348l-.362-2.553q-.117-.837-.166-1.38-.048-.543-.086-1.544t-.05-1.92-.039-1.425m147.199-30.685-.224.055q-.145.044-6.124.175-5.98.13-9.187.149t-4.974.016-2.611-.016q-.844-.014-2.176-.029t-3.101-.02q-1.768-.004-3.548-.005l-3.772-.002q-1.993-.001-4.42.009-2.428.01-3.909.019t-5.685-.128m-.671-.266.022-.548q-.014-.106.102-1.563l.181-2.285q.065-.828.04-1.843-.025-1.014-.105-1.983t-.171-2.62-.075-2.938q.017-1.286.034-2.255t-.084-2.393-.164-2.52.014-3.12.101-3.046.032-1.972-.043-1.794q-.052-.843-.16-3.026l.014-.102q.045-.241.04-.278-.006-.037.027-.321t.071-.486l.148-.802.058-.096.142-.312m.324-.972.116.007q.231.03 4.259-.057t7.201-.281 4.887-.263 2.857-.109 3.136-.051q1.993-.009 3.008.001 1.016.01 1.57.028t2.794.072 4.784.017q2.545-.039 3.994-.041t2.781.052q1.332.053 2.517.112 1.185.058 2.764.147t2.976.153 2.582.065 1.601-.008.68-.006 1.177.025 1.122.037.631.08m-242.07 15.11q.201.029 2.829.026t4.346-.088 2.491-.152 1.794-.183q1.022-.115 2.251-.167 1.23-.052 1.724-.047l.642.007q.146.001.339-.011t.576-.015l.549.032m-.281-.209.109-.211q.026-.133.204-1.237.177-1.104.182-2.684.004-1.581-.031-2.389t-.073-1.353q-.037-.545-.132-1.191l-.115-.793q-.021-.148-.027-.356-.006-.207-.003-.328.003-.12-.001-.211-.005-.09-.03-.26l-.094-.612q-.067-.443-.08-.491t-.037-1.151l.022-.597m.773-.615-.25.059q-.119.028-.976-.078-.858-.107-2.162-.178t-2.05-.05q-.746.02-2.059.127-1.313.108-3.494.213-2.181.106-4.359-.022-.759-.046-1.076-.07t-.549-.039-1.457-.06l-.429-.006m-.788 15.336.008-.047q.057-.205.099-.56.042-.354.083-.821.042-.467.055-2.121.013-1.655-.033-2.608t-.11-1.9q-.063-.945-.076-1.555t-.016-.903.043-.811.053-.675-.004-.678q-.009-.521.038-1.34m9.561 13.597q-.006-.087-.011-.799-.005-.711-.039-2.011t-.082-1.986-.098-1.13-.12-.955l-.118-.855q-.048-.344-.071-1.217t-.011-1.391q.011-.516.013-.978t.064-2.187m.72 10.101q.2-.04.489-.06.288-.02.685-.065.396-.045.455-.058l.427-.08m.193.088q-.036-.092-.082-.411t-.115-.748l-.132-.82q-.063-.391-.098-.799t-.061-.919-.055-.994-.04-1.162-.015-.828.018-.733m-.015.159q-.297.081-.372.1t-1.249.199l-.299.103m.759.493-.044.167-.029.419q-.001.089-.035 1.163t-.018 1.702.247 1.838m-14.208 69.276q-.018-.084-.033-2.573t-.083-4.184-.159-2.546-.257-2.191q-.164-1.34-.384-5.803l.036-.569"/>
        <path fill="none" stroke="#1c7aa2" stroke-width="2.5" d="M107.402 842.409q-.044.037-.121.032-.076-.005-.168.003t-.177.042-.185.107-.164.173q-.064.098-.083.217t.01.246.146.258.356.231.543.077 1.096-.383m-.247 18.184q-.057.013-.251.008-.194-.006-.349.017t-.282.065-.207.144q-.081.102-.096.214-.016.112.029.221t.146.179q.102.07.259.116t.751-.106m4.797-1.351q-.063-.604-.068-1.085-.004-.48-.003-.748.001-.267-.035-1.227t-.086-1.65q-.051-.689-.242-2.668-.192-1.979-.28-2.796t-.141-1.517-.052-1.326.027-.898m.668-1.898-.014-.191q-.102-.11-.127-.129t-.048-.047-.063-.083q-.041-.056-.063-.139-.023-.082-.04-.186-.017-.103.008-.174t.055-.099q.029-.028.053-.033t.042.009q.019.013.076.153.015.272-.213.869m1.107 15.387q-.003.043-.142.29-.139.246-.27.558-.131.311-.17.477t-.023.373q.015.207.206.337t.351.191.508.06m8.753-1.442.053.01q.394.164 4.697.367 4.304.203 7.165.109l4.172-.138q1.309-.044 2.087-.058.777-.013 1.991-.023t2.129-.028 1.35-.032.553-.042.516-.094m-22.623-.105q.096-.656.174-1.93.079-1.274.029-2.511t-.099-2.718q-.049-1.479-.056-2.483-.008-1.004.002-2.336.01-1.333.069-2.537.058-1.204.094-1.833.035-.63.049-1.303t.021-1.11.016-2.374m18.702 20.939q.01-.125.101-1.866t.273-3.347q.183-1.605.285-2.433.103-.828.126-1.684t-.033-1.707q-.057-.852-.11-1.411-.052-.56-.039-1.907.013-1.348.015-2.059t-.062-1.59-.417-2.302l-.139-.336m-18.121-1.212q.547.121.881.169t.744.086 1.298.078 2.34.035 2.33-.048 2.244-.292 2.108-.403 1.499-.218 1.368-.048 1.007.058 1.698.134l.551.064m13.817 22.415.074-.024q.1-.016.961-.054.86-.038 2.148-.078t2.415-.133q1.126-.093 2.223-.213 1.098-.121 2.736-.186t2.536-.059 2.438.031 2.748.021q1.207-.005 2.329.015 1.123.019 1.968.007t1.196-.028.88-.031q.528-.016.851-.034t.445-.022.142-.009.857.007m-24.612.547q-.024-.138-.055-1.668-.03-1.529.007-3.886.038-2.356.028-3.587t-.04-1.892q-.03-.66-.062-1.262-.033-.602-.048-1.681t.03-2.069l.073-1.622q.027-.632.012-1.368t.02-1.921q.04-.15.108-1.182m.421-.544.17.072q.273.11 2.176.336 1.903.225 3.348.226t2.142-.019q.698-.021 1.366-.09.669-.07 1.525-.099.857-.029 1.565.009.707.037 1.52.071t1.373.046 1.342.045q.78.033 1.346.044t1.02.004q.453-.007.697-.014.244-.006.431.017m.334 20.943q.072-.134.122-.295.051-.162.085-.296.035-.135.059-.212t.185-1.064.136-2.295q-.024-1.307-.144-2.527-.121-1.22-.166-2.047t-.065-2.106q-.019-1.277-.008-2.382.012-1.105.038-1.743t.085-1.348.067-.916.016-.268-.021-.826-.015-1.871l.028-.183m-32.949 212.877-.052-.164q-.109-.234-.895-1.511-.786-1.278-1.724-3.057-.939-1.78-1.363-2.718t-.627-1.411q-.202-.473-.577-1.387t-.909-2.263l-.859-2.17q-.324-.821-.982-2.504t-1.465-4.217-1.161-3.805-1.046-4.047-1.131-4.917-.766-3.995q-.326-1.854-.447-2.63t-.16-1.132-.059-.503"/>
        <path fill="none" stroke="#1c7aa2" stroke-width="2.5" d="m137.901 1044.197.154-.124q1.71-.782 2.99-1.689 1.28-.906 2.353-1.877 1.073-.97 1.893-1.764.82-.793 1.263-1.298t.751-1.044.454-1.196q-.002-.106-.448-2.284t-.868-3.217-.661-1.458-.884-1.249q-.581-.223-3.328-.16-2.747.062-4.34.207-1.593.144-2.514.277t-1.548.267l-.749.438q-.417 3.129-.248 4.672.17 1.543.318 2.406.147.863.341 1.527t.45 1.401.356 1.004q.102.268.465 1.025.363.758.739 1.411.377.653.683 1.105t.549.772.457.579q.215.259.482.518m-5.08-45.391q.05-.11.114-.234.063-.125.391-1.263.327-1.138.495-1.998.169-.859.279-1.577t.327-2.085q.215-1.367.509-2.872.293-1.506.602-2.836.309-1.331.443-1.858t.263-.917q.13-.39.25-.579l.146-.231q.028-.04.392-.955l.137-.235m-3.087 9.586q-.163-.07-.283-.086-.121-.016-.787-.201-.667-.186-1.255-.311t-1.275-.213-1.031-.093-.871.025-.725.071-.535.203q-.564.645-.76 1.048t-.487 1.603-.317 1.378-.115.702-.2 1.063l-.128.614q-.015.076-.289 1.114t-.416 1.585-.307 1.125-.251.856q-.085.277-.173.578-.089.301-.182.68-.094.38-.185.782-.092.403-.147.617-.055.215-.16.607-.104.392-.171.727t-.123.71-.126 1.094-.234 2.261q-.021.126-.02.252"/>
        <path fill="none" stroke="#1c7aa2" stroke-width="2.5" d="M121.854 1012.39q.19.041.535.069.344.028.849-.013.504-.041.701-.101l.238-.071q.041-.013.32-.223t.423-.684q.143-.475.12-.672t-.082-.423-.346-.575-.789-.605-.76-.296-.405-.035-.321.053q-.172.048-.372.182-.199.134-.313.284t-.241.727q-.129.577-.09.886t.118.51.153.334.215.254.32.17.334.047q.154-.001.32-.068.166-.068.391-.234.225-.167.276-.224t.076-.198.006-.791m49.408 29.619q.14-.019.24.021.101.04.302.029l.468-.029q.266-.017 1.003-.078.738-.06 3.608-.395m-4.735-51.078h.204q.084-.027 4.529-.393l.341-.02m1.437 48.411q1.107-.112 1.606-.225t1.838-.85l.052-.105q.057-.047.215-.428.158-.38.305-.863t.247-1.03.115-1.55-.073-2.318-.094-4.273q-.007-2.959.034-5.146.042-2.187.175-4.198.134-2.011.187-3.024t.061-2.108.005-1.579-.066-2.592-.082-3.26q-.018-1.151-.007-1.725.011-.573.046-1.049.034-.476.042-.927.007-.45-.034-1.069-.04-.62-.06-.793t-.029-.305-.088-.543q-.078-.412-.203-.846-.125-.433-.236-.684t-.177-.358q-.068-.108-.426-.598l-.328-.192q-.048-.024-.547-.233t-1.02-.358-.783-.189-.562-.127m-15.352 45.823q-.147-.001-.882-.132-.735-.132-1.293-.257t-.805-.195q-.249-.069-.635-.218-.386-.15-.637-.302-.252-.152-.406-.305l-.165-.162q-.01-.008-.087-.121t-.125-.241-.058-.21-.022-.105.048-.293q.058-.269.119-.415t.164-.365.165-.324.207-.303.401-.62q.257-.423.366-.637.11-.214.292-.65.181-.435.215-.616.035-.18.036-.451l-.06-.253-.181-.254q-.655-.425-.706-.444-.051-.018-.331-.039-.28-.02-.673.06t-.713.207q-.319.128-.718.331-.398.202-.806.47t-.884.626-.554.423-.256.249-.295.353q-.115.168-.266.472t-.299.723q-.148.42-.215.749-.067.33-.098.625-.031.296-.027.705.004.408.044.781t.094.661.123.548l.087.334q.018.074.104.294.086.221.468.894.382.672.59.944l.253.331q.046.058.388.389t.465.428.417.274.526.288.482.193.464.123q.213.04.765.032.553-.008.849-.062.296-.055.949-.297.653-.243 1.022-.442.369-.2.445-.25t.247-.2.273-.255.365-.403.563-.699q.082-.11.159-.197.076-.088.118-.167t.094-.206.273-.598"/>
        <circle cx="156.627" cy="1044.37" r="1.25" fill="#1c7aa2" stroke="#1c7aa2" stroke-width=".1"/>
        <circle cx="153.296" cy="1036.066" r="1.25" fill="#1c7aa2" stroke="#1c7aa2" stroke-width=".1"/>
        <circle cx="159.613" cy="1041.106" r="1.25" fill="#1c7aa2" stroke="#1c7aa2" stroke-width=".1"/>
        <circle cx="157.458" cy="1036.521" r="1.25" fill="#1c7aa2" stroke="#1c7aa2" stroke-width=".1"/>
        <path fill="none" stroke="#1c7aa2" stroke-width="2.5" d="M160.354 1005.909q.017-.038.332-1.738.314-1.7.497-2.965t.248-1.951.066-2.475q.016 0 .102.216m-8.543-.676.105.041q.128.021 1.299.263 1.17.241 2.299.384 1.128.143 1.573.185t1.2.097q.756.054 1.298.063.006.006.079.15m.868-1.338-.026-.21.034-.117q.042-.183.079-.384.036-.201.113-.769.076-.567.292-2.261.217-1.695.354-3.056.003-.003-.329.154m-9.51-1.181.138.017q.257.044.933.168.675.123 2.118.375 1.443.251 2.883.512 1.44.26 2.334.511l.166.139m-10.114 7.008.006-.394q.009-.25.279-2.708t.69-4.722l.061-.466m-1.958 16.238q.078.049.119.081t.813.314q.773.283 1.725.505.952.221 3.154.63t3.08.491q.015 0-.182.145m-8.892-2.038-.052-.176q-.029-.14.095-1.757.123-1.618.409-2.75.287-1.132.499-1.713t.53-1.256"/>
        <circle cx="153.829" cy="1003.75" r="1.25" fill="#1c7aa2" stroke="#1c7aa2" stroke-width=".1"/>
        <path fill="none" stroke="#1c7aa2" stroke-width="2.5" d="m154.188 1001.178-.071-.49"/>
        <circle cx="157.104" cy="1003.432" r="1.25" fill="#1c7aa2" stroke="#1c7aa2" stroke-width=".1"/>
        <circle cx="158.296" cy="994.943" r="1.25" fill="#1c7aa2" stroke="#1c7aa2" stroke-width=".1"/>
        <circle cx="155.65" cy="992.528" r="1.25" fill="#1c7aa2" stroke="#1c7aa2" stroke-width=".1"/>
        <path fill="none" stroke="#1c7aa2" stroke-width="2.5" d="M162.495 984.084q-3.947-1.086-4.908-1.311t-1.533-.352-.832-.214-.674-.155m9.139 2.26-.145-.085-.195-.165m52.969 40.113.036-.114q.292-.487.383-.743.091-.257.207-.685.117-.428.276-1.198t.253-1.534.108-.958.024-.295.039-.643q.027-.542-.024-2.249t-.143-2.515-.166-1.2-.224-.939q-.152-.547-.263-.887t-.262-.717m1.749 21.097.193-.5q.008-.053.608-1.652.599-1.599.711-2.06t.315-1.431.311-1.77q.108-.801.23-1.607.123-.807.189-1.365t.086-.809l.07-.866q.051-.613.071-1.932t-.071-2.85q-.09-1.532-.137-2.008t-.12-.969q-.073-.492-.147-.842-.075-.351-.197-.826t-.169-.63l-.196-.645q-.149-.492-.418-1.281-.268-.79-.735-1.976-.459-1.105-.81-1.812m-3.112 24.632q-.193.036-1.771.209t-2.733.272-2.837.236q-1.682.136-2.336.257-.655.12-1.6.269-.944.149-2.142.323-1.197.173-2.104.186t-1.38-.054l-.536-.075q-.063-.01-.401-.154t-.634-.354-.424-.346-.151-.153q-.024-.017-.187-.283-.164-.267-.472-1.05t-.386-1.151q-.08-.368-.215-1.391-.136-1.023-.147-2.412t.001-2.126q.013-.737.039-1.073t.04-.862q.014-.527.016-1.145.002-.619-.011-1.527t-.014-1.366.008-.697q.008-.238.009-.447t.047-1.18.114-1.695.249-1.415.287-.901q.107-.21.232-.373.125-.162.204-.256t.172-.189.538-.379.828-.42.745-.22 1.327-.106q.965-.02 1.363.012t1.129.117 1.991.268 1.824.249 1.925.196 2.239.242q.879.111 1.438.162.56.051 1.091.091t1.029.087l.642.061q.144.014.7.047l.394.05m4.746 73.65q-.321.12-.482.172t-.384.103-.239.06q-.016.007-.933.174-.917.168-1.989.222t-1.766.043-1.09-.052-.705-.136q-.31-.094-.693-.26t-.784-.434-.677-.553-.592-.747q-.315-.462-.334-.493t-.258-.689-.327-1.068q-.089-.409-.166-.862-.077-.454-.129-1.31t-.051-1.391-.07-1.618-.105-1.692q-.033-.609-.04-.856t.015-.64.032-.751-.002-.846-.026-.725-.013-.725l.004-1.052q.002-.564.01-1.163.007-.599.085-1.036t.235-1.136.31-1.051q.154-.352.484-.842.329-.489.44-.606l.192-.199q.081-.084.347-.307.267-.223.814-.495t.647-.305.351-.093q.252-.06.772-.101.521-.041.776-.032.256.009.619.042l.79.072q.425.039.87.074.444.034.863.076.418.042 1.152.122t1.557.251 1.022.231.666.289.559.297.191.171q.098.102.133.135.034.033.126.162.092.128.246.712t.16.69-.006.219-.072.325-.209.57q-.148.357-.251.547-.102.191-.184.35-.081.16-.287.642t-.334.813-.287.793-.217.675q-.057.211-.114.558-.057.346-.057.359.001.013-.066.516t-.091.842-.02.389q.002.051.006.352t.004.418q.001.118.029.506.029.389.074.699.046.31.078.463.032.152.122.635.089.484.153.759.064.276.099.397l.211.729q.175.609.283.993.109.383.179.609.071.225.164.497t.11.342.152.619.28 1.137.198 1.37-.015 1.131q-.07.35-.187.569t-.189.288-.081.087q-.009.016-.163.104t-.773.22-1.111.103q-.491-.03-1.456-.235"/>
        <path fill="none" stroke="#1c7aa2" stroke-width="2.5" d="M221.711 1070.246q.173.045 1.655.188 1.483.143 3.535.124t3.063-.048 1.497-.04.986-.003 2.721.084l.363.053m-14.225-3.434q.186.013 1.513.011t2.686-.009 3.191-.022 3.483-.015q1.651-.002 3.124.008l.445.04m8.769 12.645-.359.117-.179.047q-.437.079-1.301.151t-1.381.038q-.516-.035-1.525-.38-1.009-.346-1.171-.448-.161-.102-.185-.125t-.168-.171-.203-.227q-.058-.08-.207-.332-.149-.253-.366-.759-.217-.505-.29-.773-.072-.267-.168-1.093-.096-.825-.045-1.606t.11-1.75q.043-1.499.046-1.842.003-.344-.01-.724-.012-.381-.023-.581t-.074-1.028l-.08-1.076q-.019-.248-.047-.827-.029-.578-.045-1.127-.016-.548.009-.973t.056-.765q.029-.341.071-.561.042-.219.118-.544.077-.323.222-.763t.259-.687.217-.399.233-.297.33-.314.691-.431 1.26-.468 1.095-.247 1.434-.082q1.107-.041 1.314-.025.206.017.973.124.766.107 1.421.315t.867.315.394.207.605.364q.199.125.355.286.155.162.294.38.139.219.257.475.119.256.332 1.023t.187 2.555q-.027 1.788-.068 2.057t-.164.779-.134.54-.22 1.148q-.21 1.12-.291 1.859l-.115 1.057q-.034.317-.023.96.01.642.067 1.269t.058 1.062q.002.436-.047.826l-.13.263-.103.182q-.189.374-.305.58t-.172.343-.174.314-.214.273l-.26.265q-.164.166-.266.272t-.325.314l-.563.284-.446.171q-.134.061-1.444.36m4.022-20.532.006-.093q.032-.024.701-1.465m-1.088 21.323.069.096q.221.236 1.908 2.066m-39.44-23.948.024-.036q-.002-.007-.863-1.446m1.386 24.752q-.459.268-.767.484t-.413.317q-.104.102-.531.377m24.946-170.426-.025-.088-.02-.294q.008-.083-.101-1.351-.109-1.267-.17-2.152t-.075-1.519-.005-1.062-.018-1.282-.096-1.531q-.067-.677-.183-1.603t-.162-1.492-.038-1.381q.008-.813.027-1.664.02-.851.052-1.652.033-.801.102-1.404.07-.603.457-2.41.386-1.807.528-2.151t.609-1.117.912-1.291q.443-.517 1.245-1.146.801-.629 1.37-.979.569-.349.834-.484t.608-.279 1.028-.333q.686-.188 1.218-.277.533-.089 1.007-.114.475-.026 1.318-.006.842.019 1.701.072t2.053.257q1.193.204 2.061.523t1.711.897 1.249.984.584.614.802 1.154 1 1.873.547 1.768.229 1.518q.06.677.073 1.08t.025 1.552-.003 2.233q-.017 1.085-.032 1.75t-.021 1.279.102 2.087.192 2.313.17 1.917q.084 1.077.141 1.7t.093 1.508.026 1.539-.031 1.144-.007 1.622.017 2.399-.016 1.843l-.035.943q-.013.366-.05.992t-.05 1.287.012 1.266.104 2.171.075 2.649q-.003 1.082-.162 2.485-.158 1.402-.349 2.234-.191.831-.404 1.503t-.284.85q-.069.178-.395.903-.327.726-.702 1.317-.375.592-.679.932t-.848.723-1.094.665-1.392.576-1.623.466-1.428.248-1.077.095-1.555-.066q-1.124-.084-2.1-.311-.977-.227-2.119-.734t-2.265-1.24-1.88-1.442-1.24-1.393-.776-1.307-.497-1.303-.405-1.957-.272-2.752.039-2.744.227-2.105q.118-.834.162-2.196t.004-1.87q-.039-.509-.087-1.203t-.091-1.427q-.044-.733-.057-1.239t-.008-1.026.029-1.049.065-1.089m19.472-219.301q.036-.056.162-.381.126-.324.342-.919.216-.594.401-1.149.184-.555.414-1.328t.372-1.514.161-1.465q.018-.723-.123-1.471t-.52-1.631q-.189-.441-.508-.999-.318-.558-.766-1.233t-.76-1.103-.576-.699-1.239-.921-1.789-.962-1.412-.423q-.598-.11-1.099-.118-.5-.008-1.1.049-.6.058-1.043.13-.443.071-.873.199t-.988.373q-.557.245-1.047.51t-1.095.632-1.064.677q-.458.31-.931.688t-.797.752-.604.815q-.279.441-.624 1.073-.344.633-.601 1.2-.256.567-.513 1.318t-.343 1.442-.056 1.067.199.817.478 1.069q.31.628.654 1.228t.73 1.173q.384.574.686.998.303.423.636.835t.599.685.943.772q.676.498 1.221.807t1.13.609 1.078.511q.492.21.992.339t.912.119q.411-.01.883-.122t1.146-.326 1.256-.456 1.321-.641q.738-.401 1.334-.845.597-.445 1.073-.896.477-.451.776-.819t.616-1.045.578-1.927"/>
        <path fill="none" stroke="#1c7aa2" stroke-width="2.5" d="M236.433 691.008q-.061.036-.272.249-.211.214-.295.29t-.83.331q-.745.255-1.353.27-.607.014-1.334-.237-.14-.255-.147-.274l-.16-.501q-.152-.483-.27-1.016-.118-.534-.238-1.28-.121-.747-.186-1.451-.066-.703-.076-1.353-.01-.649.043-1.201t.222-1.24.407-1.066q.239-.377.511-.614.273-.237.477-.359t.347-.172.215-.045.689.192 1.803.568m17.605 8.379q.024-.176-.063-1.123-.004-.064.048-.454.051-.39.09-1.141.04-.75.05-1.413t-.011-1.535-.197-2.617M547.015 910.1q5.576.025 8.125-.024t3.186-.092m6.465-.401q3.049-.078 6.157-.045 3.107.034 7.366.041m6.943-.219q4.35-.152 7.81-.229t4.839-.072m6.798.13q2.785.099 5.103.14t3.42.039 1.886-.009q.785-.009 2.945-.075m6.527-.2q1.92-.059 4.628-.212 2.709-.154 3.96-.217 1.251-.064 2.524-.147t5.95-.243q.154.034.616.036.015-.009-1.14.434m-99.289-1.959q.003-.476-.023-1.208-.026-.733-.115-2.173t-.094-2.522.125-2.471.256-3.12q.128-1.731.233-4.554m.376-5.888q.088-1.241.04-3.032t-.115-2.741q-.067-.951-.005-2.173.061-1.222.143-2.118.083-.896.132-2.827m-.217-6.117q-.043-1.143-.147-3.06-.104-1.916-.297-3.844-.194-1.927-.299-3.784t-.061-3.223m.109-5.745q.001-.575-.129-2.055-.131-1.48-.304-2.714-.173-1.235-.405-3.686-.231-2.451-.214-3.874m3.775-3.741q2.756-.485 5.657-.341 2.902.145 5.515.249m7.254.406q4.536.16 6.793.121 2.258-.038 7.727-.003m6.714.026q1.331-.022 3.042-.054t7.921-.044m7.19.001q.985.001 3.854.059 2.868.057 5.708.244 2.84.186 4.695.265m7.053.045q3.66-.022 6.191-.092 2.531-.069 3.654-.128t1.635-.098.865-.094.791-.11 1.056-.111 1.233-.097.907-.056q.294-.015.642-.047.349-.033.814-.041t.922.06m-217.21 198.358q5.09-.035 8.757-.009t4.867.011m5.655-.267q3.578-.21 6.726-.244 3.148-.033 6.591-.057m5.573-.096q2.602-.084 3.785-.111 1.182-.027 2.145-.03t3.282.024 3.181.037m5.503.047q1.491.011 3.146.057 1.654.045 3.527.045 1.874.001 4.436-.188.011.005-.016-.318m-71.207-3.455q-.028-1.316-.013-3.451.014-2.135.03-3.329t-.01-3.129.009-3.091m.513-5.201q.062-.471.182-1.574.119-1.102.174-3.125t.014-3.279q-.039-1.257-.064-1.556-.024-.298-.072-1.933l.054-.904m2.966-104.103q.102.031 3.544.215 3.441.184 5.495.123t4.148-.182m5.566-.101q4.655.207 7.731.386t6.214.213m5.832-.052q4.624-.159 6.56-.263t3.741-.314 2.89-.329m5.805-.46q.636-.043 1.77-.129t4.098-.185 4.459-.116 3.03-.037m2.899 7.463-.223-.612q-.038-.295-.022-.665.017-.369.064-1.268t.092-1.714q.044-.814.096-1.56m15.08-114.291-.336.087q-.136.01-1.857-.012t-2.844-.015-1.973.128q-.852.121-1.571.433l-.053.1-.138.146-.181.339q-.063.079-.23.977-.166.898-.22 1.631-.055.733-.123 1.52-.068.786-.085 1.234t.015 1.048q.033.6.179 1.157.147.556.451 1.219l.123.281.085.099q.258.19.969.458.71.268 1.67.319t1.557-.003 1.149-.163 2.092-.55 2.765-1.023q.112-.096.197-.16.085-.065.043-2.086t-.609-5.755l-.117-.544m-145.084 37.071q-.029-.278-.209-4.183-.179-3.906-.201-5.988t.013-3.316q.036-1.235.087-2.063.052-.828.168-2.474t.113-4.771-.056-4.63q-.053-1.504-.044-2.57t.025-1.54q.017-.474.102-1.077t.128-1.044.105-.748m7.143 33.949q-.043-2.289-.136-4.649t-.164-3.804-.122-2.964-.053-2.761.086-3.968.115-4.052.076-2.234.233-2.868q.04-.104.171-.625m.614 24.494.252.069q.04.013 1.693.02 1.652.006 3.728-.105 2.075-.112 3.255-.166t3.75-.071q2.571-.018 3.929.007t2.061.011 1.025-.042.381-.045l.557-.049.684-.154m-21.703-19.83q1.077.002 3.499-.018 2.421-.021 4.363-.133 1.943-.113 3.019-.196t2.651-.156 2.421-.091l1.987-.039q1.142-.021 1.699-.048.159-.008.674 0m6.805 22.308.163.008q.084-.012 1.601.018 1.517.031 3.542-.11 2.025-.139 3.013-.276t2.583-.334q1.594-.196 2.756-.299t11.495-.386q.121-.032.356-.077m-24.802-.249-.038-.243q.013-.354.09-2.681t.06-3.977-.091-4.053q-.073-2.404-.104-4.454-.032-2.049-.121-3.505-.09-1.456-.438-4.756-.01-.102.03-.273-.032-.08-.063-1.11-.02-.094.199-.579m24.339 24.992q-.005-.015.321-.107.046-.182.084-.836t.215-2.435.329-3.444.179-2.602.003-2.076q-.025-1.138-.132-2.125-.106-.987-.29-1.961-.183-.975-.271-1.542-.087-.567-.114-1.093t-.029-.792q-.001-.267-.011-.422t-.015-.37-.031-.545-.047-1.143.001-1.322-.073-1.198m-23.731-.476.264.148q.12.05 1.907.032 1.788-.018 3.703-.101 1.916-.084 2.889-.111.972-.028 1.993-.052 1.02-.024 1.844-.057t3.047-.13 3.508-.125q1.287-.028 2.197-.041t1.233-.03q.322-.018.655-.113.332-.096.753-.146.044.001.17-.183m-57.429 57.464q.353.044.829.056.477.011 1.265.012.788 0 3.391-.092t6.559-.417 6.494-.446 3.835-.159 3.505-.187 3.422-.237 1.589-.135 2.188-.12q1.812-.071 2.949-.049 1.138.023 1.778.089.018.064-1.878.321m-35.331-4.118q.061-.011 2.654.036 2.593.046 4.438.057 1.845.01 2.804.006t4.456-.09 5.522-.238 4.989-.217 4.465-.092 2.201-.048 1.504-.073 2.023-.124q.024-.015.162.036m-38.636-10.169-.194.223q-.046.069-.27.34-.224.272-.371.484-.146.212-.365.746t-.262.993q-.042.459.107.962.15.504.843.84.693.337 1.162.299.468-.037.736-.132.269-.095.497-.362.228-.268.42-.886.192-.619.19-.931t-.06-.559-1.169-1.641l-.193-.148m2.641 2.002.092-.015q.535-.014 2.058-.018 1.522-.005 3.055.03 1.532.036 5.042.006 3.511-.029 5.352-.07t3.655.007q1.813.049 3.169.051t2.251-.035 1.7-.102 8.435-.274l.228-.035m3.775-2.229-.084.072q-.693.356-1.11.617-.417.262-.752.644-.336.383-.405.73t-.004.584.273.396.681.278 1.001.081.874-.204.46-.267q.113-.102.18-.213t.122-.368.036-.412-.074-.251-.22-.267-2.274-1.123m-40.766 235.613q.238-.013 1.206.027t1.623.061 1.162.034 2.307-.04 2.794-.143q.995-.089 1.756-.177t2.036-.239 3.921-.307 4.94-.31 4.362-.3q.04-.006-.072.067t-.595.282m-25.027-.433q-.111-.215-.143-.282t-.128-1.249-.144-2.365-.094-2.767l-.086-2.959q-.041-1.375-.062-2.54-.022-1.166-.037-2.322t-.032-2.303-.029-2.301-.022-2.309q.048-.254.021-.459-.028-.204-.075-.9t-.051-1.142m.037-.526q0 .143.014.205t.036.12.122.209q.015.026.68.078.665.051 1.327.096t1.544.1q.881.055 1.762.088.88.033 2.205.048 1.324.016 3.108-.053 1.784-.068 3.12-.128t2.623-.14q1.288-.08 2.239-.128.951-.049 3.017-.087 2.067-.039 3.465-.038.056-.026-.186.333m1.234 23.515q-.005-.153.182-.4l-.029-2.785q-.014-1.321-.022-2.487-.009-1.166-.013-2.18-.005-1.015-.007-2.318t-.007-2.549-.028-2.44q-.022-1.194-.055-2.343t-.093-2.24q-.059-1.092-.215-2.803-.025-.073.006-.694m-26.436-8.118q.481.019 1.182.034.702.015 1.625.026.924.011 2.035-.041 1.11-.051 2.415-.163t2.45-.208q1.147-.096 2.135-.176.988-.081 1.881-.131.892-.051 2.088-.082t2.236-.047 2.543-.046q1.502-.031 5.258-.299.045-.034.193-.048m-26.247.543q-.006-.052-.021-.859t-.039-2.37-.035-3.212-.005-3.388.035-3.282.082-2.893q.052-1.349.17-3.077t.313-3.837q.039-.607.057-.976.017-.369.037-.641.02-.273.013-1.223m.896.198q.035-.002.486.006.452.008 1.321.029.87.022 1.844-.01.975-.031 1.736-.063.762-.032 1.638-.075l1.665-.078 1.84-.084q1.051-.048 2.079-.106 1.027-.058 1.809-.092t1.582-.049 1.626-.025q.828-.009 2.512.064l2.417.106q.732.033 1.186-.071.051-.089.046-.12m1.275 25.267q.026-.104-.055-.655.054-.189.114-1.024.061-.836.105-1.611t.092-1.768q.048-.992.078-1.889.031-.896.05-2.093t-.017-2.445q-.036-1.246-.114-2.645-.077-1.398-.171-2.544-.093-1.145-.145-1.988-.053-.844-.097-1.759-.044-.916-.082-1.893t-.068-2.027q.153-.223.387-.771m27.834 56.569-.06.009q-.097.042-.649.2-.551.158-1.044.371-.492.212-1.193.751t-1.268 1.29q-.566.751-1.008 1.948-.442 1.196-.463 1.951-.02.755.118 1.339.139.585 1.058 2.048t1.65 2.315q.732.852 1.519 1.698t1.6 1.599 1.803 1.424 2.156 1.202 2.131.78 2.049.291 2.639-.302 2.615-.86q1.062-.515 1.522-.899.459-.383.895-.959t.643-1.741.061-2.166-.578-2.082-1.073-2.09q-.641-1.01-1.821-2.143t-2.315-1.904q-1.136-.773-1.991-1.262t-1.326-.735-2.244-.977-2.327-.854-1.662-.151"/>
        <path fill="none" stroke="#1c7aa2" stroke-width="2.5" d="m425.694 1064.523-.128.288q-.313.493-.359.597t-.462.827-.731 1.299-.527 1.08-.328.932-.186.763q-.069.333-.264 1.104l.038.217q.129 1.56.158 1.668t.12.416l.129.262.133.205q.029.038.901-.333.871-.37 1.521-.862t1.246-1.074q.597-.582.933-.942l.472-.506q.136-.145.15-.168.015-.023.529-.622t.759-.93.297-.451q.052-.119.094-.393.087-.226.131-.386-.072-.171-2.77-2.625-.011-.02-.427-.298m-6.167-6.671q.002-.012.401-.36.131-.209-.449-8.201l-.027-.495m19.556 20.039q.412.074 1.24-.009t1.362-.189.912-.194q.38-.087 1.341-.46l.414-.246m-22.877 6.329-.007.122q-.081.373-.72 2.073t-1.174 2.685q-.039.008.286-.612m31.607 1.228q.36.166.621.252.26.085.435.126t.498.094 1.672.1q1.348.047 3.812.113t4.488.084 4.423-.031 3.991-.16 2.517-.253q.922-.144 1.721-.345.798-.202 1.062-.298.263-.096.405-.166t.575-.302.816-.558.519-.481.172-.223.388-1.087q.353-1.018.432-1.98t.053-1.395q-.028-.434-.154-1.603-.126-1.168-.196-2.399-.07-1.23-.087-1.946t-.059-1.105-.118-.721q-.074-.332-.123-.751-.048-.419-.06-.547t-.714-1.992q-.008-.016-.522-.398-.514-.383-1.614-.716-1.101-.334-2.869-.541t-4.277-.237-4.31-.023q-1.802.006-2.619-.01t-1.536-.026-3.7.207-3.121.31-.333.197-.427.263q-.235.16-.388.291-.153.132-.238.232t-.311.391q-.227.29-.462.732-.234.442-.445 1.246t-.326 1.766-.12 1.802.066 1.925.1 1.677.066 1.231.043.817.032.499.063.595.069.485l.134.886q.102.675.214 1.311.112.637.193 1.164.081.528.091.556t.117 1.033m165.433-131.429.037.215q.049.076.772 1.664.723 1.589 1.462 2.893t1.12 1.856.897 1.347q.517.793.971 1.494l1.016 1.574q.563.873 1.056 1.651t1.128 1.803q.636 1.024 1.206 2.009.569.986 1.187 2.068t1.286 2.261 1.194 2.091.911 1.557l.888 1.492 1.128 1.899q.623 1.051 1.134 1.928t1.11 1.932q.598 1.054 1.353 2.368t1.601 2.811q.845 1.498 1.347 2.394t.972 1.674 1.079 1.739 1.094 1.703 1.022 1.531l1.465 2.148q.929 1.36 1.909 2.715l1.695 2.338 1.488 2.048 1.335 1.838q.56.775 1.047 1.487t.722 1.18q.007.094.017.524m-.181-.172q.058.325.066.532t.002.255-.018.767-.024 2.117-.02 2.818-.004 2.858.003 2.607-.012 2.08-.01 2.285.022 3.203.066 3.212.116 2.446.135 1.934.146 1.908.137 1.872.103 1.788.04 1.938.024 2.228q.032 1.241.101 3.11.068 1.868.132 3.43.065 1.562.156 3.413.09 1.85.066 3.819t-.337 4.149m-37.232-114.934q.207-.218.872-.879.666-.66 1.087-1.056.422-.395.845-.778l.771-.699q.347-.316.719-.687.372-.37.513-.513t.403-.363.843-.776.844-.868q.263-.314.489-.546t.508-.511q.284-.279.469-.477.186-.199.247-.268.061-.07.448-.488.387-.419.731-.753t.686-.694.486-.514q.146-.155.682-.684.537-.528 1.15-1.201.613-.672.947-1.06.335-.388.841-.946t1.193-1.311"/>
        <path fill="none" stroke="#1c7aa2" stroke-width="2.5" d="m634.741 931.995.201.319.124.246q.097.269.361 1.11l.503 1.602.543 1.723q.303.962.577 1.843.275.881.644 2.082t.749 2.506.677 2.309l.514 1.735q.216.73.535 1.751t.74 2.315.856 2.801q.435 1.505.883 3.225.448 1.719.769 2.998.32 1.279.613 2.549t.541 2.172.572 2.093.79 2.977q.465 1.785.836 3.266.371 1.48.661 2.651.289 1.171.559 2.375t.527 2.441.506 2.684.519 3.107q.268 1.661.529 2.998.26 1.338.526 2.478t.501 2.019.528 1.874l.56 1.904.633 2.145q.364 1.235.864 2.781.499 1.546 1.385 3.992m32.124 21.225.104.165q.037.059.102 1.576t.074 2.696-.009 2.524q-.017 1.347-.012 2.354t.029 2.01.079 3.005q.054 2.003.011 2.838-.043.836-.133 1.384t-.52 1.508-.748 1.448-.677.88-.545.553-1.162.627-1.68.665-2.025.352-2.647.152-2.711.04l-2.361.073q-.975.031-1.543-.001t-3.917-1.163q-.251-.357-.595-.925t-.704-1.56q-.361-.992-.6-2.09t-.326-1.688-.195-1.963q-.109-1.371-.188-3.015-.08-1.643-.146-2.898-.067-1.255-.077-2.355-.01-1.099.016-2.461.025-1.361.05-2.445t.064-2.292q.039-1.21-.013-3.722-.051-2.511.014-4.496t.203-3.093.382-2.861.433-2.557q.187-.804.437-1.382.249-.578.923-1.389.675-.81 1.01-1.024.335-.215.521-.295t.473-.195.753-.279q.467-.165 1.659-.49t2.154-.45 2.387-.112 3.106.177 2.679.378 2.396.819 1.987 1.246.964 1.655.721 2.607.514 2.849.214 2.615q.046 1.361.03 3.717-.016 2.357-.476 7.203m-1.036-61.74q-.018.081-.043.842-.024.76-.172 2.223-.148 1.464-.272 2.491t-.181 1.582-.122 1.46-.105 2.191q-.04 1.285-.011 2.532.03 1.246.149 3.043t.135 2.88q.015 1.081-.134 1.81-.15.728-.414 1.259-.263.531-.591.813-.327.283-.531.402-.205.118-.421.224t-.978.333-1.737.278-2.414.01q-1.44-.042-2.607-.121t-2.518-.263-2.678-.369-2.344-.406-1.98-.705q-.428-.644-.96-2.276t-.651-2.492-.257-2.216q-.136-1.355-.325-3.508l-.345-3.939q-.157-1.787-.289-3.196-.133-1.409-.227-2.454-.095-1.044-.169-2.047t-.003-3.22q.072-2.216.174-3.608.103-1.392.124-3.27t.073-3.277.222-2.607q.172-1.207.582-2.552t.68-1.939.803-1.492 1.069-1.519q.06-.065.758-.273.698-.207 2.054-.545 1.356-.337 2.743-.508t2.788-.181 2.522.085 2.367.383 2.146.708q.901.421 1.285.709.385.287.952 1.123.568.836 1.004 2.042t.688 3.476.207 3.63-.16 2.986l-.2 2.815q-.084 1.186-.141 3.112t.117 4.306m-600.719 66.683.102-.067q.045-.022.706-.028.662-.007 1.305-.009l1.484-.004q.842-.002 1.585-.006l1.712-.013 1.906-.016q.937-.007 1.605-.023.667-.015 1.28-.048.614-.032.806-.078t.614-.092m.2-.561.04-.18q.018-.053.047-.147t.015-.622q-.015-.529-.062-1.521-.047-.993-.09-2.198t-.084-2.628l-.074-2.496q-.032-1.075-.05-1.802-.018-.726-.056-1.499t-.1-1.596-.122-1.848l-.109-1.855q-.05-.828-.104-1.802l-.102-1.834q-.049-.86-.088-1.978-.04-1.118-.053-2.119-.013-1-.015-1.725l-.002-1.39q0-.664-.005-.919-.005-.256-.055-.782-.049-.526-.051-.577-.001-.052-.045-.414-.043-.363-.195-.88"/>
        <path fill="none" stroke="#1c7aa2" stroke-width="2.5" d="m97.895 1001.438-.266.058q-.094.018-1.367-.038-1.272-.057-2.285-.036-1.012.021-1.656.055-.644.033-1.428.097-.785.064-1.35.087-.566.024-1.043.001t-.852-.051-2.042-.272m158.718-400.318.894-.116q.773-.099 2.122-.141t2.493-.017 2.137.025q.992.001 1.925-.008t1.812-.042 2.13-.037 2.951.017 3 .035 2.205.026 1.831.015q.923.002 2.168-.009t1.972-.023 1.035-.019q.308-.008.808-.038t1.653-.121"/>
        <path fill="none" stroke="#1c7aa2" stroke-width="2.5" d="M279.311 610.624q-.05.043-.431.427-.017.01-.328.145-.311.136-.571.237t-.78.267-1.04.247-.988.06-.844-.081-1.238-.33-1.495-.526q-.635-.256-.914-.374-.28-.117-.942-.426-.662-.308-1.123-.6t-.94-.735-1.024-1.248-.887-1.531q-.34-.727-.621-1.532t-.57-1.955q-.29-1.149-.399-1.892-.11-.744-.137-1.313t-.026-.823.011-.458.075-.924q.066-.72.191-1.287t.238-.896q.113-.33.362-.742.249-.411 1.026-1.204t1.289-1.211 1.368-.948 1.572-.865 1.222-.503 1.175-.335 1.213-.283q.544-.118 1.9-.187 1.356-.07 2.139-.011.784.06 1.586.289.802.23 1.418.55t1.049.62.911.794.841 1.024.692 1.071q.327.542.501.848.173.306.482 1.005.308.699.561 1.298t.537 1.26.458 1.109.306 1.574.094 1.802-.126 1.153-.468 1.42q-.379.942-.675 1.43-.297.487-.488.744-.192.257-.79.861t-1.069.97q-.469.366-.874.635-.405.27-1.339.757-.934.488-1.847.88-.913.391-2.403.978m30.758-29.7.001-.238q.002-.028-.034-.256-.037-.229-.074-.352-.037-.124-.076-.203t-.24-.304q-.202-.225-.57-.405-.367-.179-.8-.225-.434-.045-.636-.02t-.729.22-.889.454q-.362.26-.632.584-.269.325-.422 1.137t-.085 1.207q.066.395.127.6.06.205.393.62t.711.655.58.303q.2.063.689.092t.823-.025q.336-.055.831-.323.496-.267.81-.545.315-.277.523-.63.209-.352.319-.782.109-.431.111-.629t-.037-.422-.638-1.424m97.245 462.641.006.268q-.023.061-.049.162t-.039.229.014.333.074.309.064.113q.017.008.101.106.085.097.311.133.227.035.367-.003.141-.038.22-.297.079-.258.069-.443-.01-.184-.034-.295-.025-.111-.061-.198t-.103-.207-.489-.728m-4.062-19.821q.008.039.023.146t.006.155q-.007.049-.032.084-.024.035-.102.207-.079.172-.121.338t-.033.329.055.333.147.281.17.155.228.068q.16.024.241.014t.177-.052.194-.134.164-.232q.065-.141.047-.294t-.38-.928"/>
        <path fill="none" stroke="#1c7aa2" stroke-width="2.5" d="M405.414 1044.044q-.164-.185-.384-.445t-.468-.58-.324-.422-.551-.796q-.475-.692-.885-1.532t-.676-1.728q-.266-.887-.327-1.151t-.158-.742-.184-1.077q-.086-.598-.108-1.894-.023-1.297.022-1.869t.082-.918.075-.57q.038-.226.126-.606l.161-.699q.073-.317.103-.534.031-.216.489-2.107m3.383 16.101q.205.011.45.017t.524-.013.45-.027 1.384-.19q1.215-.182 3.023-.482t3.696-.631 4.204-.904q.077-.035.899-.279m-17.834-13.144q.111-.02.694-.202.582-.181 2.635-.695t2.837-.704 1.261-.294 1.357-.335q.879-.233 1.692-.477.814-.245 1.322-.393t.979-.292q.469-.144.558-.168t1.146-.354l.211-.078m3.142 16.351-.025-.226q.116-.578.144-.87.027-.291.05-.749.022-.457.017-.825t-.033-.653q-.027-.285-.05-.649t-.056-.827-.033-.519-.069-.68q-.068-.623-.188-1.302-.119-.679-.275-1.527-.155-.849-.21-1.14l-.099-.523q-.043-.231-.255-1.095-.281-.969-.422-1.385t-.228-.68q-.087-.263-.123-.399t-.25-.829l-.136-.641M245.756 647.481q-.02-.095.019-1.146.04-1.05.056-1.674t.051-1.318q.034-.695.104-1.38t.137-1.409.086-1.34.045-1.179.084-1.208q.057-.645.101-1.214t.051-1.178.004-.968-.001-.65.021-.742.054-1.028l.052-.878q.018-.303.022-.475.005-.172.031-.795t.04-1.573"/>
    </g>
</svg>
