<svg xmlns="http://www.w3.org/2000/svg" width="48" height="48" viewBox="0 0 48 48">
    <circle cx="24" cy="24" r="22" style="display:inline;opacity:1;fill:#000;stroke:#000;stroke-width:4;stroke-linecap:round;stroke-linejoin:round;stroke-dasharray:none"/>
    <path d="M6.672 14.014A20 20 0 0 0 4 24a20 20 0 0 0 20 20 20 20 0 0 0 9.986-2.672L13.5 34.5z" style="display:inline;opacity:1;fill:#da8282;fill-opacity:1;stroke:none;stroke-width:2;stroke-linecap:round;stroke-linejoin:round;stroke-dasharray:none"/>
    <path d="M14.613 6.34a20 20 0 0 0-7.941 7.674L13.5 34.5l20.486 6.828a20 20 0 0 0 7.674-7.941l-20.285-6.762z" style="display:inline;opacity:1;fill:#d082ac;fill-opacity:1;stroke:none;stroke-width:2;stroke-linecap:round;stroke-linejoin:round;stroke-dasharray:none"/>
    <path d="M24 4a20 20 0 0 0-9.387 2.34l6.762 20.285 20.285 6.762A20 20 0 0 0 44 24l-.002-.334L29.25 18.75 24.334 4.002z" style="display:inline;opacity:1;fill:#b78acf;fill-opacity:1;stroke:none;stroke-width:2;stroke-linecap:round;stroke-linejoin:round;stroke-dasharray:none"/>
    <path d="M24.334 4.002 29.25 18.75l14.748 4.916a20 20 0 0 0-4.168-11.889l-2.705-.902-.902-2.705a20 20 0 0 0-11.889-4.168" style="display:inline;opacity:1;fill:#9196e2;fill-opacity:1;stroke:none;stroke-width:2;stroke-linecap:round;stroke-linejoin:round;stroke-dasharray:none"/>
    <path d="M24 4a20 20 0 0 0-.717.014l4.822 14.466-6.292 6.293L15.518 5.89a20 20 0 0 0-1.791.953l6.503 19.513-6.292 6.293-6.58-19.74a20 20 0 0 0-1.335 2.326l6.332 18.996-3.187 3.188a20 20 0 0 0 1.414 1.414l3.188-3.187 18.996 6.332a20 20 0 0 0 2.326-1.334l-19.74-6.58 6.293-6.293 19.513 6.503a20 20 0 0 0 .953-1.79l-18.884-6.295 6.293-6.293 14.466 4.822A20 20 0 0 0 44 24a20 20 0 0 0-.049-1.404l-12.85-4.283 6.294-6.293 3.41 1.136a20 20 0 0 0-5.961-5.96l1.136 3.41-6.292 6.292-4.284-12.85A20 20 0 0 0 24 4" style="display:inline;opacity:1;fill:#000;stroke:#000;stroke-width:.01;stroke-linecap:round;stroke-linejoin:round;stroke-dasharray:none;stroke-opacity:1"/>
</svg>
