<svg xmlns="http://www.w3.org/2000/svg" viewBox="-10 -30 220 60">
    <path d="m-.448 2.358 11.093 2.106 10.78 1.822 10.482 1.543 10.237 1.143 10.007.887 9.814.641 9.658.408 9.538.185 9.456-.026 9.412-.226 9.404-.413 9.435-.59 9.503-.755 9.61-.908 9.755-1.05 9.937-1.182 10.159-1.302 10.418-1.41 10.733-1.374 11.07-1.46-.105-.794-11.068 1.461-10.73 1.374-10.444 1.144-10.179 1.035-9.95.915-9.758.783-9.603.64-9.484.487-9.403.321-9.358.146-9.351-.042-9.381-.24-9.45-.449-9.554-.668-9.699-.9-9.88-1.142-10.1-1.395-10.38-1.529L11.492-.26.448-2.358z"/>
    <path fill="none" stroke="#000" d="M42.4 6.72c3.476-6.951 4.17-10.427 6.951-13.902M42.4 6.72c4.476 8.951 5.37 13.427 8.951 17.902M47.398 7.258c3.597-7.195 4.317-10.792 7.195-14.39m-7.195 14.39c4.597 9.195 5.517 13.793 9.195 18.39M52.344 7.734c3.72-7.439 4.463-11.158 7.439-14.877M52.344 7.734c4.72 9.44 5.663 14.159 9.439 18.878M57.243 8.15c3.841-7.683 4.61-11.525 7.683-15.366M57.243 8.15c4.841 9.682 5.81 14.524 9.683 19.365M62.1 8.505c3.963-7.926 4.756-11.89 7.926-15.853M62.1 8.505c4.963 9.927 5.956 14.89 9.927 19.854M66.92 8.802c4.084-8.17 4.901-12.254 8.17-16.34m-8.17 16.34c5.085 10.171 6.102 15.256 10.17 20.342M71.706 9.043C75.913.63 76.754-3.577 80.12-7.783M71.706 9.043c5.207 10.415 6.249 15.622 10.415 20.829M76.465 9.229C80.793.573 81.658-3.755 85.12-8.083M76.465 9.229c5.329 10.658 6.395 15.987 10.658 21.316M81.2 9.36C85.649.462 86.539-3.986 90.098-8.435M81.2 9.36c5.45 10.902 6.54 16.352 10.902 21.803M85.916 9.439C90.486.301 91.4-4.269 95.055-8.838M85.916 9.439c5.573 11.145 6.687 16.717 11.145 22.29M90.619 9.467C95.307.09 96.245-4.6 99.996-9.288M90.619 9.467c5.693 11.387 6.832 17.08 11.387 22.774M95.312 9.445c4.807-9.614 5.768-14.42 9.613-19.227M95.312 9.445c5.814 11.629 6.977 17.443 11.629 23.258M100 9.375c4.923-9.846 5.908-14.77 9.846-19.693M100 9.375c5.934 11.869 7.121 17.803 11.869 23.738m-7.181-23.855c4.916-9.831 5.899-14.747 9.832-19.662m-9.832 19.662c5.932 11.863 7.118 17.795 11.864 23.727m-7.171-23.889c4.784-9.568 5.741-14.352 9.568-19.136m-9.568 19.136c5.806 11.61 6.967 17.416 11.611 23.222M114.084 8.89c4.649-9.299 5.578-13.948 9.298-18.597M114.084 8.89c5.677 11.354 6.813 17.032 11.355 22.71M118.8 8.64c4.51-9.02 5.412-13.53 9.02-18.04M118.8 8.64c5.547 11.094 6.656 16.64 11.094 22.187M123.535 8.35c4.366-8.733 5.24-13.099 8.732-17.465M123.535 8.35c5.413 10.825 6.495 16.237 10.825 21.65m-6.066-21.98c4.216-8.433 5.059-12.649 8.432-16.865M128.294 8.02c5.273 10.546 6.328 15.819 10.546 21.092M133.08 7.65c4.059-8.116 4.87-12.175 8.117-16.233M133.08 7.65c5.128 10.256 6.153 15.383 10.255 20.51M137.9 7.245c3.892-7.784 4.67-11.676 7.784-15.568M137.9 7.245c4.973 9.946 5.968 14.92 9.946 19.893m-5.089-20.334c3.715-7.43 4.458-11.146 7.43-14.86m-7.43 14.86c4.808 9.615 5.77 14.423 9.616 19.231m-4.717-19.707c3.526-7.052 4.231-10.577 7.052-14.103m-7.052 14.103c4.629 9.257 5.554 13.886 9.257 18.514M152.602 5.82c3.323-6.645 3.987-9.967 6.645-13.29m-6.645 13.29c4.432 8.862 5.318 13.294 8.863 17.725M157.6 5.28c3.102-6.204 3.723-9.307 6.204-12.409M157.6 5.28c4.212 8.424 5.054 12.636 8.424 16.848m-3.37-17.418c2.863-5.727 3.436-8.59 5.727-11.454M162.654 4.71c3.965 7.93 4.758 11.895 7.93 15.86m-2.815-16.458c2.603-5.207 3.124-7.811 5.207-10.415m-5.207 10.415c3.684 7.368 4.42 11.052 7.368 14.736M172.95 3.486c2.32-4.64 2.784-6.96 4.64-9.28m-4.64 9.28c3.361 6.724 4.034 10.086 6.723 13.448M178.2 2.835c2.011-4.022 2.413-6.033 4.022-8.044M178.2 2.835c2.99 5.98 3.588 8.97 5.98 11.961m-.654-12.636c1.673-3.348 2.008-5.021 3.347-6.695m-3.347 6.695c2.559 5.118 3.07 7.677 5.118 10.236m.287-10.936c1.306-2.61 1.567-3.916 2.611-5.221m-2.611 5.221c2.058 4.116 2.47 6.174 4.116 8.231M194.421.74c.905-1.81 1.086-2.714 1.81-3.619M194.421.74c1.473 2.947 1.768 4.42 2.947 5.894M200 0c.47-.94.564-1.41.94-1.88M200 0c.792 1.585.951 2.377 1.585 3.17"/>
</svg>
