<svg xmlns="http://www.w3.org/2000/svg" xml:space="preserve" viewBox="0 0 960 480">
    <g fill="none" stroke-linecap="round" stroke-linejoin="round">
        <path stroke="#e66465" stroke-width="1.915" d="m194.329 236.047-.428-.093q-.109-.032-1.239-.51-1.13-.48-1.794-.57t-1.398.055-1.231.582q-.498.438-.72 1.132-.224.696-.103 1.595.122.9.302 1.337t.466.88.846.948 1.194.848q.637.34.92.417.281.076.548.086.266.01.864-.119.598-.13.944-.346.346-.217.5-.373.152-.157.346-.44.194-.285.384-1.12t.243-3.27m194.133 30.672-.381.105q-.256.061-1.24-.096-.985-.157-1.637-.186-.653-.03-1.38.16-.729.191-1.501.806-.773.615-1.154 1.313-.382.698-.382 1.496 0 .8.125 1.143.125.345.514.81.388.466.778.743.39.278 1.304.51.915.232 1.57.127.654-.105 1.083-.317.43-.21.85-.623.422-.411.786-1 .364-.587.436-.822t.141-.427.077-1.416-.714-3.1l-.7-1.299M194.75 449.822q-.1.005-1.273-.415-1.172-.417-2.164-.571-.991-.154-1.484-.13-.493.025-.835.088-.342.064-.533.147-.19.083-.253.087t-1.24 1.83q-1.177 1.825-1.127 2.256t.307.968 1.021 1.312q.765.774 1.396 1.045.632.27 1.088.339.457.067 1.53-.541 1.074-.609 1.6-1.242.527-.634.755-.987.229-.354.573-1.085.344-.732.486-1.277.14-.545.352-2.475m7.879-29.679-.365.866-.098.546q-.184.457.24 19.59l.323-.268"/>
        <path stroke="#e66465" stroke-width="1.915" d="M202.425 419.743q.03-.049.279-.595.83-1.042 1.159-1.237.328-.196.807-.318.478-.122 1.14.039t1.113.467.958.768 1.102 1.297 1.004 2.013.412 2.138q0 .961-.332 2.014-.334 1.052-1.286 2.242-.952 1.191-1.809 1.78-.858.59-1.525.84t-1.065.321q-.398.07-.81.02l-.165.086-.255.158m17.443 10.804q-.06-.249-.194-.652-.135-.403-.426-1.086-.29-.683-.664-1.261-.373-.578-.54-.785t-.622-.627-1.278-.7-1.474-.227-1.189.47-.88 1.216q-.34.799-.267 1.488.073.69.543 1.257.47.568 1.017.843t.915.343.852.047.748-.108q.263-.086 3.602-2.066M202.53 208.039l.079.593q-.03.095-.01 5.795.022 5.699.577 12.587.1.25.233 1.043m-.619-20.596q.26-.277.691-.662.432-.384 1.248-.659.815-.274 1.509-.293.693-.02 1.412.134.719.153 1.794 1.205t1.525 2.014.606 2.583-.272 3.105-1.266 2.54q-.836 1.056-1.887 1.804t-3.532 1.265q-.148-.028-.964.046m11.793 8.753q.655-.471.67-.502t1.07-1.174 1.942-2.146q0 .03.143 1.3.144 1.27.972 5.662l.432 1.569m175.15 2.341-.061.426q-.36 1.231-.563 6.18t-.117 9.848.143 9.217q.045.139.084.963m.51-21.849.33-.452q.521-.775 1.033-1.375.51-.6.913-.908.402-.307 1.18-.663.78-.358 2.203-.437t2.17.124q.749.206 1.326.58.578.375 1.322 1.294t1.123 2.41.354 2.311-.254 1.886-1.069 2.467-1.918 2.319q-1.08.916-2.225 1.253t-1.731.33-.967-.098-.687-.32-1.217-1.238m12.139 10.963q.068-.46.079-.565l.354-.567q.23-.268 1.336-.85 1.107-.58 2.007-.604.899-.023 1.358.158.46.182.63.33.17.147.256.337t.193.984-.566 2.475-1.404 2.84l-1.134 1.8q-.403.642-.542.906-.138.264-.238.422.118.04.33.107.212.066.237.066t1.974.277 5.994.39l1.541.285"/>
        <path stroke="#9198e5" stroke-width="1.915" d="M193.592 450.409q-.054-.016-.383.1-.854-.138-1.503-.123-.65.015-1.263.228-.614.213-1.033.554-.42.342-.646.673-.227.332-.287.597t-.005.564q.056.298.47.755.413.457.752.614.34.157.784.175.445.018.853-.134.409-.153.946-.725.538-.572.74-1.078.203-.506.13-1.187-.076-.68-.289-.961t-.522-.48q-.31-.2-.81-.069-.5.132-.9.532-.397.401-.517.651t-.09.479q.029.228.105.295.076.068.074.086 0 .017.349.171.352.155.77-.013.42-.168.65-.43.23-.261.311-.396.081-.134.073-.35-.009-.217-.12-.382-.11-.166-.156-.186-.045-.02-.196-.045t-.245.08q.33.093.568-.034.239-.126.927-.467m49.169-151.578-.08.005q-.121-.061-.467-.137-.345-.077-.69-.033-.347.043-.782.257t-.714.555q-.28.342-.367.545-.089.203-.113.427t-.01.316.074.27.153.307.38.336q.289.203.525.25.235.045.448.022t.57-.195.645-.476.427-.575.167-.423.029-.294-.035-.25-.131-.23-.652-.07l-.005.04-.078.108m-32.074 54.02q-.021-.011-.106-.079t-.342-.185-.352-.145-.192-.053-.349.021q-.25.048-.427.142-.176.094-.243.158-.068.064-.192.288t-.08.503.223.528.339.334.434.079.447-.098q.171-.09.294-.285.124-.196.011-.452-.113-.255-.438-.463-.324-.208-.552-.215-.229-.006-.455.126t-.334.29-.13.28.033.248.198.23.322.132.336-.024.232-.115.133-.148.244-.453m90.67-83.403-.184-.162q-.168-.085-.327-.148-.158-.062-.388-.085-.23-.022-.542.105t-.437.278q-.125.15-.168.278t.077.278.288.237.356.087.328-.056.282-.18q.143-.123.173-.252.03-.128-.021-.235t-.075-.13q-.024-.024-.034-.044t-.179-.061-.403.1q-.006.049.096.243m39.533-3.283-.055-.076q-.337-.356-.522-.515-.186-.16-.418-.262t-.56-.11-.588.151q-.26.158-.354.3-.095.141-.121.314t.006.347.224.373q.191.199.689.298t.763.036q.267-.063.385-.134.118-.07.253-.256.136-.184.156-.406t-.006-.325-.151-.277-.309-.275q-.182-.102-.368-.115-.185-.014-.3.041-.116.056-.144.08-.03.025-.088.117-.06.091-.067.19-.007.097.008.145t.071.14q.057.093.137.172.08.08.429.49m-65.792 12.754q-.027 0-.181-.165l-.2-.117q-.101-.036-.352-.078-.25-.042-.528.038t-.463.253-.233.347-.033.287.08.225.198.168.258.068.495-.107.516-.231.245-.251.107-.29q.008-.148-.032-.263t-.302-.292-.647-.222-.6.013-.381.16-.192.288q-.024.184.032.33.055.145.168.244.113.098.318.14t.37.016q.163-.028.265-.08.101-.052.17-.114.068-.062.08-.139.012-.076.006-.148-.007-.07-.09-.169-.084-.098-.42-.353m-46.493 40.976-.041.032q-.051.02-.263.045-.21.023-.336.044-.125.021-.309.111t-.366.302-.233.409.018.361.163.234q.097.07.256.098.16.029.354-.05t.402-.306.273-.39.052-.323-.087-.26-.143-.136q-.067-.037-.17-.047t-.176.005q-.073.013-.235.087t-.25.138q-.089.063-.346.277m-27.302 81.031v-.007q0-.006-.005-.011-.006-.006-.067.005-.06.01-.156.071t-.197.25q-.102.191-.14.426-.04.236-.02.415.019.179.045.243.025.065.083.157.058.09.155.155.097.063.27.085t.332-.045.328-.223q.168-.155.282-.386.113-.232.141-.467t-.035-.43-.156-.279-.187-.115q-.093-.032-.203.02t-.504.617"/>
        <path stroke="#9198e5" stroke-width=".957" d="m190.627 443.171 1.641-34.008m2.967-12.355 9.78-37.097m5.065-12.658 8.62-20.115m6.375-10.98 10.292-12.32m11.053-9.515 17.83-11.544m10.836-5.659 17.196-5.798m11.931-2.274 26.164-2.358m12.395-.212 33.296 3.474"/>
        <path stroke="#9198e5" stroke-width="1.915" d="M388.496 269.318q-.206-.215-.747-.603-.54-.387-.726-.48t-.536-.2-1.11.067q-.758.172-1.141.474t-.595.676q-.212.373-.142.83t.365.843.69.598.572.243q.176.032.761-.134t1.184-.757.756-1.057.118-.63q-.037-.162-.286-.413t-.358-.284-.545-.016-.766.274-.431.445-.159.34q-.056.15.076.459.132.307.37.471t.414.214.344.005q.17-.047.375-.252.206-.206.263-.395t.024-.413q-.033-.223-.137-.38-.104-.155-.301-.252l-.043-.13"/>
        <path stroke="#f6f7ef" stroke-width=".957" d="m189.351 21.38.284 429.836m-9.586-403.153 8.997-26.745m-.044-1.143 10.1 26.534m41.208 253.115L431.03 119.93m-16.48 7.297 15.626-6.679m-7.456 15.392 8.287-14.565M772.68 342.289 387.8 271.143m366.167 71.249 19.166.038m-18.121-8.019 18.298 7.726"/>
    </g>
</svg>
