<svg xmlns="http://www.w3.org/2000/svg" xml:space="preserve" viewBox="0 0 960 480">
    <g fill="none" stroke-linecap="round" stroke-linejoin="round">
        <path stroke="#f6f7ef" stroke-width="1.508" d="m650.315 270.847 179.417-109.372m-156.808 96.316 166.975-72.477m-143.823 59.421 153.33-34.853m-127.977 19.665 136.092 1.278m-116.61-13.561 125.5 35.35m-102.04-48.176 112.09 70.115m-89.746-83.639 97.828 105.897M806.08 176.93l86.503 140.356m-61.692-156.62 72.008 182.464M47.483 263.951 226.9 154.58m-88.82 55.788 125.5 35.35m-35.52-91.949 72.007 182.466m68.524-63.007L548.01 163.856m-133.658 83.26 153.331-34.854m-108.495 7.383 125.5 35.351m-79.696-61.701 97.828 105.897m-53.652-136.146 72.007 182.466" opacity=".5"/>
        <path stroke="#e66465" stroke-width="3.016" d="m834.162 162.967-.142-.411q-.028-.108-.202-1.312t-.44-1.813-.764-1.155-1.125-.745-1.329-.029-1.404.733-.978.942-.505.846-.37 1.204q-.143.732-.105 1.447t.118.992q.08.279.209.51.128.23.544.67t.779.623q.36.182.572.23.21.05.55.069.34.018 1.146-.25.806-.267 2.896-1.473M907.3 344.271l-.284-.268q-.184-.186-.556-1.1-.372-.916-.682-1.483t-.846-1.087q-.535-.518-1.452-.858-.918-.339-1.705-.304t-1.464.446-.904.693-.422.85-.23 1.042q-.036.472.237 1.366t.699 1.395.824.755q.4.256.965.401t1.25.152q.685 0 .92-.052.236-.06.435-.1.198-.04 1.238-.662 1.04-.62 2.262-2.196l.74-1.26m-255.066-68.919q-.054-.083-.302-1.291t-.628-2.126q-.378-.92-.652-1.325t-.503-.662-.398-.375q-.168-.12-.203-.17-.036-.052-2.187-.112-2.152-.06-2.491.203-.34.263-.663.758-.322.494-.586 1.539t-.168 1.719.272 1.096q.178.421 1.243 1.019 1.067.597 1.874.717.807.121 1.224.133t1.213-.072 1.331-.244 2.278-.973m-37.951-38.036-.316.875-.068.546q-.158.462 1.268 19.367l.305-.282"/>
        <path stroke="#e66465" stroke-width="3.016" d="M615.576 235.15q.028-.05.245-.604.767-1.074 1.081-1.285t.781-.356q.468-.147 1.131-.022.664.125 1.126.404t.988.71q.526.43 1.157 1.224.632.794 1.1 1.938t.52 2.095-.223 2.008-1.154 2.287-1.696 1.856q-.817.628-1.464.911-.648.283-1.038.373t-.8.063l-.158.094-.244.17m17.823 9.771q-.072-.243-.226-.635t-.478-1.052-.723-1.213q-.4-.552-.576-.748t-.647-.587-1.302-.626-1.47-.147-1.151.528-.807 1.248q-.295.81-.186 1.488t.604 1.214q.494.536 1.05.78.556.243.922.292.367.048.845 0 .48-.047.735-.146.256-.099 3.455-2.233m203.149-130.468.128.58q-.022.097.476 5.721.497 5.624 1.62 12.377.12.238.317 1.01m-2.333-20.279q.234-.295.628-.71.394-.417 1.176-.756t1.465-.416 1.406.014q.722.092 1.872 1.04t1.673 1.86.815 2.5q.29 1.588-.02 3.088-.302 1.5-1.038 2.614-.735 1.112-1.711 1.938t-3.38 1.543q-.149-.016-.95.126m12.383 7.656q.607-.52.62-.552.02-.032.958-1.248.945-1.216 1.737-2.28.001.03.25 1.271.248 1.242 1.433 5.508l.558 1.512m61.269 203.586v.426q-.172 1.259.355 6.137t1.33 9.666 1.491 9.01q.064.13.223.932m-2.701-21.482.257-.492q.398-.836.81-1.499t.763-1.022 1.059-.824 2.094-.751q1.382-.287 2.145-.196.763.092 1.384.374t1.484 1.073q.864.792 1.453 2.196t.686 2.213q.096.81.028 1.885-.068 1.076-.685 2.574-.616 1.498-1.54 2.553-.922 1.057-1.995 1.554-1.072.499-1.648.579t-.961.046-.72-.212-1.375-1.037m13.502 8.962v-.565l.264-.609q.186-.295 1.184-1.027 1-.732 1.877-.887.879-.154 1.354-.044.477.11.665.23t.301.293.334.935-.192 2.51-.96 2.987-.847 1.93q-.3.688-.397.967t-.172.449q.12.022.338.056t.242.03l1.975-.02q1.95-.02 5.93-.496l1.552.052M231.33 156.07l-.141-.41q-.028-.109-.203-1.312t-.439-1.812q-.265-.61-.765-1.156-.5-.548-1.125-.744-.625-.197-1.329-.03-.703.168-1.404.733-.7.565-.977.942-.278.376-.506.846t-.37 1.204-.105 1.447.118.993.209.508.544.671q.417.44.778.623.362.182.573.231t.55.067 1.146-.249 2.896-1.473m73.689 180.226-.285-.268q-.184-.185-.555-1.1-.373-.915-.683-1.483t-.846-1.086q-.535-.52-1.452-.858-.917-.34-1.704-.304-.788.035-1.465.445t-.904.692-.422.852q-.196.568-.23 1.04-.035.473.238 1.367t.698 1.395.825.755q.398.256.964.401.565.146 1.25.153.685.006.92-.053.237-.06.436-.1.198-.041 1.238-.662 1.04-.622 2.26-2.197l.742-1.26M50.427 266.187q-.054-.084-.302-1.292t-.627-2.127-.653-1.324-.503-.662-.397-.376-.204-.17q-.036-.05-2.187-.111-2.15-.06-2.49.203-.34.264-.663.757-.323.495-.587 1.54t-.168 1.719.272 1.095q.178.422 1.244 1.02 1.066.597 1.874.718.807.12 1.224.132t1.213-.072 1.33-.244 2.279-.972M13.13 227.984l-.316.876-.068.545q-.158.462 1.269 19.367l.304-.282"/>
        <path stroke="#e66465" stroke-width="3.016" d="M12.744 228.253q.028-.05.245-.603.767-1.075 1.081-1.285t.782-.356 1.13-.022q.664.125 1.126.404.462.28.988.709.526.43 1.157 1.225.632.795 1.1 1.939.468 1.143.52 2.094t-.223 2.009-1.153 2.286q-.88 1.228-1.697 1.857-.817.628-1.464.91-.648.282-1.037.374-.39.09-.8.062l-.158.094-.244.17m17.823 9.77q-.072-.243-.226-.634-.154-.392-.478-1.052-.324-.661-.724-1.213t-.576-.748-.647-.587-1.302-.626-1.47-.147q-.64.089-1.151.528-.512.44-.807 1.248-.295.81-.186 1.487.108.678.604 1.215.495.536 1.05.78.556.243.923.292t.845.001.735-.145q.255-.1 3.454-2.234m203.15-130.468.126.579q-.022.096.476 5.72.497 5.625 1.62 12.378.12.238.317 1.01m-2.331-20.279q.233-.295.627-.711.395-.417 1.177-.755.782-.34 1.465-.416.683-.077 1.405.016.722.091 1.872 1.04 1.15.948 1.673 1.86t.815 2.5-.02 3.088q-.302 1.5-1.038 2.612-.735 1.113-1.711 1.939t-3.38 1.543q-.149-.016-.948.127m12.381 7.654q.608-.52.62-.552.02-.032.958-1.248.945-1.217 1.738-2.28 0 .03.25 1.271.247 1.242 1.433 5.508l.557 1.512m61.27 203.587v.424q-.172 1.26.355 6.138t1.329 9.667q.802 4.787 1.491 9.009.064.13.223.932m-2.7-21.482.256-.492q.398-.836.81-1.499.414-.662.763-1.023t1.06-.823q.71-.464 2.093-.752 1.382-.287 2.145-.195t1.384.374q.62.283 1.485 1.074.864.79 1.453 2.195.588 1.404.686 2.213.096.81.028 1.886-.07 1.076-.687 2.573-.616 1.498-1.54 2.554-.922 1.055-1.994 1.554-1.073.498-1.648.577-.576.08-.962.045-.386-.034-.72-.211-.335-.178-1.374-1.036m13.501 8.962v-.566l.264-.607q.186-.297 1.185-1.028t1.877-.887q.878-.154 1.354-.044t.665.23.3.293q.113.174.334.936.222.761-.192 2.508-.413 1.747-.96 2.989t-.847 1.93-.397.967-.172.448q.122.022.339.056t.242.031q.024-.004 1.974-.018 1.951-.016 5.93-.496l1.552.053m205.088-209.402-.142-.41q-.028-.109-.203-1.312t-.439-1.812-.764-1.156q-.5-.548-1.126-.744-.625-.197-1.328-.03-.704.168-1.404.733t-.978.942-.506.846-.37 1.204q-.142.732-.104 1.447.038.714.118.993.08.278.208.509t.544.67.778.623.573.231q.21.049.55.067t1.147-.249 2.895-1.473m73.689 180.227-.284-.269q-.184-.185-.556-1.1t-.682-1.483q-.311-.568-.846-1.086-.536-.52-1.452-.858-.918-.34-1.705-.304-.787.035-1.464.445t-.904.693q-.228.282-.422.85-.196.57-.231 1.041-.034.473.238 1.367.273.894.698 1.395.425.5.825.755.399.256.964.402.566.145 1.25.152.686.006.921-.053.236-.06.435-.1.198-.041 1.238-.662 1.04-.622 2.261-2.197l.741-1.26m-255.066-68.917q-.054-.084-.303-1.292-.248-1.207-.626-2.127-.38-.919-.653-1.324-.274-.405-.503-.662-.23-.257-.397-.376-.168-.118-.205-.17-.036-.05-2.186-.111-2.151-.06-2.491.203-.34.264-.662.757-.324.495-.588 1.54t-.168 1.719.273 1.096 1.244 1.019q1.066.597 1.873.718.807.12 1.224.132t1.213-.072 1.33-.244q.535-.16 2.28-.972m-37.952-38.038-.316.877-.068.545q-.158.462 1.268 19.367l.305-.281"/>
        <path stroke="#e66465" stroke-width="3.016" d="M333.853 237.53q.028-.05.245-.603.766-1.074 1.08-1.284.315-.212.782-.357.467-.146 1.131-.022.663.125 1.126.404.461.28.987.709.527.43 1.158 1.225t1.1 1.939q.468 1.143.52 2.094t-.223 2.009-1.154 2.286-1.696 1.857q-.818.628-1.464.91-.648.282-1.038.374-.39.09-.8.062l-.158.094-.244.17m17.823 9.771q-.072-.244-.226-.635-.154-.392-.478-1.052-.324-.661-.723-1.213-.4-.552-.576-.748t-.648-.587-1.301-.626-1.47-.147q-.64.089-1.152.528t-.806 1.248-.186 1.487.604 1.215q.494.536 1.05.78.555.244.923.292.366.048.844.001.479-.047.735-.145.256-.1 3.455-2.234m203.149-130.468.126.579q-.022.097.476 5.72.497 5.625 1.62 12.378.12.238.318 1.01m-2.332-20.279q.234-.295.628-.711t1.176-.755q.783-.34 1.465-.416.683-.077 1.405.016.723.091 1.872 1.04 1.15.948 1.673 1.86t.815 2.5-.02 3.088q-.301 1.5-1.037 2.612t-1.712 1.939-3.38 1.543q-.148-.016-.948.127m12.382 7.654q.607-.52.619-.552.02-.032.958-1.248.946-1.217 1.738-2.28.001.03.25 1.271.248 1.242 1.433 5.508l.557 1.512m61.27 203.586v.426q-.172 1.26.355 6.137.527 4.878 1.33 9.667.801 4.787 1.49 9.009.065.13.224.932m-2.701-21.482.256-.492q.399-.836.811-1.498.413-.663.762-1.024.35-.36 1.06-.823.71-.464 2.093-.752 1.382-.287 2.145-.195t1.385.374q.62.283 1.484 1.074.864.79 1.453 2.195t.686 2.214q.096.809.028 1.885-.07 1.076-.686 2.573-.616 1.498-1.54 2.554-.923 1.055-1.995 1.554-1.073.498-1.648.577-.575.08-.961.045-.386-.034-.721-.211-.335-.178-1.374-1.036m13.501 8.961v-.565l.264-.607q.186-.297 1.185-1.028t1.877-.887q.878-.154 1.354-.044t.665.23.301.293.333.936q.222.761-.192 2.508-.412 1.747-.959 2.99-.547 1.24-.847 1.928-.3.689-.398.968t-.172.448q.122.022.339.056t.242.031l1.975-.018q1.95-.016 5.93-.496l1.551.053"/>
        <path stroke="#9198e5" stroke-width="3.016" d="m51.285 264.589-.042-.57q-.258-1.017-.494-1.463-.236-.445-.53-.793-.293-.347-1.242-.943t-1.91-.74q-.958-.146-1.623-.031t-1.154.441-.887 1.101-.413 1.439q-.02.663.054 1.102.068.438.719 1.404.65.965 2.104 1.691t2.68.684q1.227-.044 1.773-.352.545-.31 1.009-1.173t.389-1.573q-.076-.711-.272-1.052t-.39-.583q-.193-.241-.996-.719-.803-.477-1.806-.58-1.005-.102-1.428.027-.422.127-.632.277-.208.15-.405.437-.196.285-.219.58-.022.296.042.56t.8.806q.734.542 1.155.653.42.112.984.122.563.012.886-.256t.469-.48.201-.358.134-.419.054-.53q-.026-.26-.194-.418l-.058-.224m155.649-33.077-.02-.368q0-.084-.213-.558-.21-.473-.688-.795-.477-.32-1.069-.383-.592-.062-.963.16-.37.223-.7.899t-.296 1.095q.032.42.194.716.16.295 1.197.694 1.037.4 1.78.307t.985-.23q.241-.139.478-.425.238-.287.331-.762.094-.474.024-.841-.068-.366-.55-.913t-1.224-.759q-.74-.211-1.175-.124-.434.087-.645.256-.212.168-.274.275t-.09.23l-.052.236q-.026.112.114.424t.345.44.377.135q.17.008.28-.016.108-.024.318-.219t.293-.396.106-.382q.024-.18-.082-.4t-.158-.266q-.054-.045-.398-.282-.344-.239-1.254-.213-.082.11-.092.536-.02.425.05.664.062.239.345.716t1.985 1.977m98.022 109.019q.236-.585.313-.833.078-.247.12-.944.04-.697-.328-1.905-.37-1.209-1.268-2.011-.898-.803-1.74-.958-.844-.155-1.073-.114-.231.041-.584.236-.354.196-.823.892-.47.697-.527 1.519-.058.82 0 1.154.056.332.59 1.053.536.72 1.747 1.07t1.864.256q.651-.096 1.165-.405.515-.307.882-1.018.367-.71.363-1.313 0-.604-.168-.991-.164-.388-.665-.807-.5-.418-.985-.514-.483-.096-.912-.028-.428.068-.767.535-.338.467-.387.954-.048.488 0 .885.05.397.397.919t.778.717q.43.196.895.235.465.04.771-.204.307-.245.446-.577.138-.333.104-.548t-.154-.31q-.118-.094-.207-.13-.09-.035-.25.146-.16.18-.216.347t-.088.389l.056.571m69.307-64.646-.12-.533-.328-.665q-.194-.402-1.167-1.212t-1.66-1.029q-.685-.217-1.356-.184-.672.034-1.046.147-.374.114-.9.56-.526.445-.683.675t-.331.964q-.174.732 0 1.368.166.637 1.16 1.467.995.83 2.257.883 1.261.052 1.962-.219.702-.27 1.181-.714t.692-.932.178-.887-.198-.619q-.164-.221-.244-.282t-.7-.29-1.298-.192-1.33.368q-.649.33-.757.658-.108.327-.072.696.034.369.482.857.446.488.887.68t.848.181.617-.127q.211-.115.384-.333.174-.216.262-.42t.09-.467q0-.265-.134-.444-.138-.18-.338-.246-.054.066-.04.145.02.08.138.372m155.311-35.521-.042-.067q-.044-.213-.068-.243-.022-.031-.192-.404-.17-.372-.313-.593-.144-.221-.745-.568-.6-.348-1.248-.361t-1.003.136-.729.6-.435.957.066.855.423.602q.298.253 1.093.436t1.323.123.95-.266q.42-.205.647-.478.226-.272.285-.533t0-.64q-.068-.377-.733-.832-.666-.455-1.368-.532-.701-.078-1.037.016-.334.092-.463.426-.13.333-.02.644.114.312.297.505.182.194.403.346.22.152.799.215.578.062.754-.008.174-.071.28-.154t.211-.235.11-.356q0-.204-.245-.365-.02.01-.314.375m-62.763-.094-.247-.103-.512-.456q-.2-.155-.801-.374-.6-.22-.979-.23-.377-.01-.82.2-.441.212-.604.47-.162.255-.205.445-.042.189-.02.457.03.268.291.5.26.23.66.35.4.121.812.084.412-.039.649-.163.236-.124.345-.3.11-.177.156-.399t.044-.377q0-.155-.08-.358-.078-.203-.539-.631-.46-.428-1.938-.49-.231.568-.144.944.086.376.272.583t.427.313.453.088.275-.042.152-.161.108-.23q.02-.094-.02-.205-.038-.11-.186-.185t-.312-.084-.36.122-.506.903m119.856 33.479q.102-.205.261-.618.158-.413.176-.446.02-.034.054-.393.038-.359.02-.586-.026-.226-.074-.475t-.209-.553q-.162-.305-.506-.567-.345-.262-.649-.239t-.656.307-.483.507q-.128.225-.166.458t-.02.485q.022.253.45.663.427.41 1.309.47.044.014.152-.274.106-.288.044-.629-.062-.34-.196-.528-.134-.187-.383-.222t-.424.267q-.176.303-.192.542-.02.24.02.434.028.195.204.411.178.218.516.371.339.154.598-.023l.287-.064m45.021 75.638q.075-.285.125-.942.052-.657.034-.862-.02-.205-.106-.556-.09-.351-.625-.906t-.987-.724q-.453-.17-.879-.158-.425.012-.776.306t-.527.742-.152.893.088.61q.064.164.504.574.44.411 1.249.615t1.284.097.593-.222q.12-.116.204-.455.086-.34.056-.449-.028-.11-.266-.47-.237-.361-.625-.509-.388-.147-.6-.136-.21.01-.368.04-.156.03-.35.299-.192.27-.21.556-.02.286.032.46.048.175.174.294t.406.187.469.02q.19-.047.363-.19.172-.143.25-.311.079-.169.06-.386l.089-.103m29.978-72.858q-.02-.053-.282-.273-.321-.793-.667-1.336-.346-.542-.841-.953-.496-.411-1.001-.591t-.902-.202-.653.064-.48.286q-.223.2-.398.785t-.134.952.254.755q.213.386.551.654.34.268 1.1.43.762.16 1.294.072.533-.087 1.071-.5.539-.413.667-.737t.138-.689q.02-.366-.358-.721-.369-.357-.913-.489-.543-.132-.817-.105t-.452.169-.196.241q-.02.1-.034.106-.02.008.034.385.05.377.408.645.356.27.697.33.34.062.495.061.156 0 .334-.118.178-.119.263-.297.082-.18.076-.229 0-.049-.064-.19-.058-.14-.192-.166.09.327.32.465.229.137.872.544m153.669-36.167-.044-.066q0-.133-.122-.465-.114-.332-.327-.603t-.619-.529-.837-.32q-.433-.061-.65-.032-.218.03-.419.125-.201.094-.274.153-.072.06-.19.202-.118.14-.182.287t-.088.495.058.571.211.392.457.382.735.303.707.066.444-.075.264-.126.194-.159.128-.229q.052-.144-.277-.588l-.036.016-.132-.01m-62.238.561q0-.023.02-.13t-.02-.386q-.034-.278-.058-.372t-.054-.19q-.028-.096-.196-.284t-.34-.289-.259-.125-.342-.014-.469.19q-.214.182-.331.46-.118.279-.11.458 0 .18.156.408.148.228.312.329.164.1.393.104.229 0 .388-.223.158-.227.168-.609 0-.381-.102-.579-.112-.197-.34-.32-.228-.125-.418-.135t-.304.034-.194.156q-.078.111-.094.286-.02.173.054.34.068.167.194.273.126.105.217.136.092.032.194.038.102.008.508-.027m117.211 33.998.042-.238q-.02-.186-.042-.354-.028-.166-.128-.372-.098-.207-.366-.406t-.46-.227q-.192-.03-.322 0t-.196.21-.052.364q.02.186.11.346.096.16.216.25.118.09.297.147.178.056.302.016.124-.041.188-.14.064-.097.072-.13 0-.032.02-.052.02-.018-.04-.182-.052-.164-.291-.29-.044.02-.156.206m23.076 31.81.036-.086q.128-.468.168-.708t0-.488q-.032-.249-.194-.53-.162-.283-.43-.422-.266-.138-.435-.146-.168 0-.328.058-.16.066-.291.184-.132.116-.201.381-.07.265.102.737t.36.665.311.258q.12.064.347.084t.425-.076.272-.172.156-.27q.082-.197.076-.404 0-.206-.092-.37-.084-.165-.19-.234-.106-.07-.142-.08-.036-.02-.144-.02t-.194.04q-.086.044-.118.082-.034.036-.082.132-.05.096-.076.204t-.194.615m-44.58-49.189q-.02-.022.046-.237v-.231q-.022-.103-.114-.337t-.303-.428-.452-.263-.413-.018-.261.119q-.088.07-.15.183-.062.114-.04.254.02.141.074.254.052.113.345.364.292.253.46.32.169.066.34.078.17.012.3-.058t.206-.163.092-.406q.02-.313-.144-.662-.16-.349-.319-.501-.158-.153-.332-.24-.174-.089-.341-.015t-.263.196q-.094.122-.12.268t.044.341q.068.196.176.32.108.126.203.185.096.06.184.086t.16 0q.07-.03.128-.072t.098-.163.084-.537M776.9 230.944l-.047-.018q-.044-.032-.172-.199-.128-.166-.21-.261-.083-.096-.253-.205-.17-.11-.444-.156t-.466.014q-.192.058-.297.2-.104.141-.114.259 0 .117.048.267.058.149.224.273t.465.184.47.031.302-.121q.13-.094.174-.208.046-.114.042-.19 0-.077-.048-.169-.044-.092-.092-.147-.048-.056-.194-.156-.146-.099-.246-.14-.098-.043-.412-.15m-82.673 18.472v-.018q0-.008-.038-.054-.04-.047-.142-.096-.1-.05-.313-.038t-.433.1-.36.196q-.143.107-.185.162t-.09.152-.052.21q0 .115.066.273.07.159.21.258.138.1.357.163t.472.041.468-.12q.213-.097.347-.25.134-.154.156-.276.022-.12 0-.217-.02-.096-.122-.163-.102-.066-.782-.109"/>
        <path stroke="#e66465" stroke-width="3.016" d="m625.577 346.653-.284-.269q-.184-.185-.556-1.1t-.682-1.483q-.311-.568-.846-1.086-.536-.52-1.452-.858-.918-.34-1.705-.304-.787.035-1.464.445t-.904.693q-.228.282-.422.85-.196.57-.231 1.041-.034.473.238 1.367.273.894.698 1.395.425.5.825.755.399.256.964.402.566.145 1.25.152.686.006.921-.053.236-.06.435-.1.198-.041 1.238-.662 1.04-.622 2.261-2.197l.741-1.26"/>
        <path stroke="#9198e5" stroke-width="3.016" d="M622.68 346.946q.075-.285.125-.942.052-.657.034-.862-.02-.205-.106-.556-.09-.351-.625-.906t-.987-.724q-.453-.17-.879-.158-.425.012-.776.306t-.527.742-.152.893.088.61q.064.164.504.574.44.411 1.249.615t1.284.097.593-.222q.12-.116.204-.455.086-.34.056-.449-.028-.11-.266-.47-.237-.361-.625-.509-.388-.147-.6-.136-.21.01-.368.04-.156.03-.35.299-.192.27-.21.556-.02.286.032.46.048.175.174.294t.406.187.469.02q.19-.047.363-.19.172-.143.25-.311.079-.169.06-.386l.089-.103m282.059-.424q.076-.285.126-.942.052-.657.036-.862-.02-.204-.108-.556-.092-.351-.626-.906-.535-.555-.987-.724-.453-.17-.878-.158-.425.02-.777.306-.35.293-.527.742-.176.449-.152.893t.088.609q.064.164.505.575.44.411 1.25.615.807.204 1.282.098t.594-.223q.12-.116.204-.454.086-.34.058-.449-.028-.11-.266-.471-.238-.36-.625-.508-.389-.146-.6-.136-.212 0-.368.04-.158.03-.351.299-.192.27-.209.556-.02.286.03.46.048.174.174.293.126.12.407.188.279.068.469.02t.362-.192q.174-.142.25-.31.079-.168.06-.385l.089-.104"/>
    </g>
</svg>
