<svg xmlns="http://www.w3.org/2000/svg" xml:space="preserve" viewBox="0 0 960 480">
    <g fill="none" stroke-linecap="round" stroke-linejoin="round">
        <path stroke="#e66465" stroke-width="2.921" d="m87.45 107.526-.123-.053q-1-.607-1.285-.704-.287-.097-.738-.256-.45-.16-1.234-.27t-1.615.105-1.144.414q-.313.197-.599.555-.285.357-.417.557-.131.199-.24.842-.108.644-.016 1.1.092.454.401.958.31.503.677.865.366.362.88.643t1.144.424q.631.142 1.373.19.742.045 1.415-.072t1.04-.286.89-.564.795-.797q.271-.402.333-.556.063-.152.222-.259.16-.106.595-3.214M88.512 391.32q-.499-.733-1.208-1.421-.71-.688-1.757-1.417-1.048-.73-1.137-.815-.09-.086-1.413-.38-1.324-.293-2.241-.153t-1.094.218-.602.555-.609.955-.196.913q-.012.433-.012.604t.296.88q.294.711.875 1.344.582.633 1.222.988t1.29.514q.652.16 1.273.255.621.097 2.108-.155 1.487-.25 2.29-.617.803-.365 1.392-.903.59-.538 2.63-3.723m277.798-279.398q-.22-.299-.692-1.376-.473-1.077-.807-1.676t-.498-.8q-.164-.203-.868-.923-.703-.72-1.154-.904-.452-.184-.782-.209t-.63.025-.96.793-.865 1.291q-.206.55-.24.92-.035.371.09 1.204.126.834.254 1.094.128.262.391.58.263.319 1.137.978.873.658 2.064 1.001 1.191.344 1.478.39t.765.05q.478 0 2.443-.167m.917 280.155-.659-.643-.125-.465q-.061-.17-.746-1.402-.683-1.232-1.423-1.973-.74-.74-1.038-.924-.299-.183-.525-.266-.226-.082-1.203-.16-.977-.08-1.6.218-.622.298-.655.354l-.887 1.192q-.07.055-.355 1.763-.287 1.707 0 2.665.288.96.536 1.311t.645.714q.398.362 1.106.75.708.386 1.767.479 1.06.094 1.667-.007t1.483-.67q.875-.568 3.135-3.01m227.266-290.175-.123-.053q-.999-.607-1.285-.704t-.737-.257-1.234-.27q-.785-.11-1.616.106t-1.144.413-.599.556q-.285.357-.417.557-.131.199-.239.842-.109.643-.017 1.1.092.454.402.958.31.503.676.865t.88.643q.515.282 1.145.424t1.372.189 1.416-.07q.672-.118 1.039-.287.366-.17.89-.564.525-.394.796-.797.27-.402.333-.556.062-.152.222-.259.16-.106.595-3.214m-1.293 284.172q-.498-.733-1.207-1.421t-1.758-1.417q-1.048-.73-1.137-.815-.089-.086-1.413-.38-1.324-.293-2.24-.153-.918.14-1.095.218-.176.079-.601.555-.426.477-.61.955-.183.479-.196.913-.012.433-.011.604 0 .17.295.88.295.711.876 1.344.582.633 1.221.988.64.354 1.29.514.652.16 1.273.255.622.096 2.108-.155 1.487-.25 2.29-.617.804-.365 1.393-.904.59-.537 2.628-3.722m277.799-279.398q-.22-.299-.692-1.376t-.807-1.676q-.333-.599-.498-.8-.164-.203-.867-.923t-1.155-.904-.782-.209-.63.025-.96.793-.864 1.291q-.207.55-.241.92-.035.371.09 1.204.126.833.254 1.094.129.262.392.58.262.318 1.137.978.873.658 2.064 1.001 1.19.344 1.478.39.286.046.764.05.478 0 2.443-.167m.917 280.155-.658-.643-.126-.465q-.061-.17-.745-1.402t-1.423-1.973q-.74-.74-1.039-.924-.298-.183-.525-.266-.225-.082-1.203-.161-.977-.079-1.6.219-.622.298-.655.354l-.886 1.192q-.07.055-.356 1.763t0 2.665q.288.959.536 1.311.248.351.645.714.398.362 1.107.75.707.386 1.767.479t1.666-.007q.608-.1 1.483-.67.876-.567 3.135-3.009M30.299 374.575l-.014.348q-.048.46 1.226 5.268 1.272 4.808 2.167 7.81.894 3.003 1.581 5.742.688 2.74 2.006 8.791.062.087.298.748"/>
        <path stroke="#e66465" stroke-width="2.921" d="M27.98 377.42q.753-2.155 1.954-3.852t2.96-3.123 3.084-1.923 2.216-.586 1.625.012 3.854 2.934q3.116 2.835 3.478 4.182t.335 2.219-.663 2.461q-.639 1.59-2.325 3.664t-2.647 3.023-1.668 1.502-1.213.833q-.071.008.174.502m13.702 14.966q-.491-.573-1.217-1.098-.724-.524-1.108-.867-.385-.344-1.021-1.146t-1.005-1.852-.365-1.743q.008-.695.241-1.39.238-.697 1-1.337.765-.64 1.582-.83.816-.192 1.603-.096.787.097 1.444.563.658.466 1.21 1.339.553.872.779 1.596t.29 1.46-.07 1.695q-.135.959-.438 1.569t-.85 1.285q-.545.674-4.177 2.108M27.138 83.87l.029.281q.026.404 1.84 5.422 1.813 5.018 2.902 7.966 1.09 2.947 1.938 5.474.849 2.527 2.19 7.535.066.02-1.214-1.455"/>
        <path stroke="#e66465" stroke-width="2.921" d="M24.6 86.502q.024-.078.154-1.017t.39-1.75q.26-.81 1.227-2.186t2.233-2.308q1.267-.933 2.437-1.347t2.369-.517q1.197-.103 2.167.05t1.96.669q.992.515 2.058 1.91t1.704 4.134.544 4.36-.61 3.249q-.518 1.628-1.755 3.16-1.238 1.533-2.353 2.194t-1.817.83-2.689.103m18.748 13.062q1.934-5.91 2.204-7.242t.346-1.795q.076-.464-.257-.53-.16.408.059 1.841.216 1.433.603 2.62t1.072 2.688 1.808 3.066q.251.165.763.77m330.195-51q.038.076.03.55.009.779 1.02 3.775 1.014 2.997 2.617 7.596 1.604 4.599 2.897 9.898t2.006 9.362q.063.073-.827-2.798"/>
        <path stroke="#e66465" stroke-width="2.921" d="M387.521 64.625q.077-.105.568-1.45t.9-2.081.682-1.113q.272-.377 1.367-1.326t2.498-1.52 2.26-.687 1.88-.061q1.02.053 1.603.176t2.626 1.276q2.044 1.153 3.253 2.456t2.017 2.81 1.114 3.486q.308 1.979.15 3.193-.16 1.215-.853 2.69-.694 1.477-2.292 2.827-1.6 1.35-2.836 1.781-1.237.431-1.87.485-.635.053-1.115-.019-.48-.071-.715-.185t-.442-.286-.333-.349-.4-.62m17.243 16.484q.105-.221-.184-.876.18-1.238.769-2.139.588-.9 1.258-1.34t1.22-.485.764-.034.78.349 1.11 1.306.759 2.49q.21 1.524-.23 4.116-.438 2.593-.729 4.255-.291 1.664-.157 2.688.387.125 2.997.05 2.61-.076 10.608-1.216m-39.377 261.455-.074.53q-.044.232 2.054 10.775 2.1 10.543 5.77 21.74.114.044-.05-.075m-6.743-30.124q.054-.121.131-.857.078-.737.319-1.447.24-.71.402-1.054t.458-.757q.295-.414.72-.823t.81-.663.69-.453 2.165-.543q1.856-.344 3.098-.201t2.478.677 2.193 1.302 1.75 2.092 1.1 3.163.073 3.493q-.237 1.655-1.223 3.495t-2.285 3.067-2.678 1.861q-1.38.634-2.447.763-1.069.127-1.78-.05-.711-.178-1.453-.694l-.62-.311m24.229 6.53q.111-.068.357-.46.245-.392 1.033-1.166t1.835-1.48q1.049-.707 2.103-1.037 1.055-.331 1.909-.259t1.268.238q.414.164.847.565t.814 1.416.345 2.159-.404 2.148-.587 1.427q-.221.418-.404.51.114-.099.324-.19.21-.093.617-.13.407-.036 1.32.04.915.075 2.228.538 1.314.462 2.14 1 .827.537 1.374 1.205.546.668.734 1.103t.212.915-.132 1.031-.522 1.144q-.368.59-1.333 1.37-.965.778-2.538 1.355-1.572.575-3.067.674-1.494.098-2.455-.094-.96-.191-1.593-.496-.632-.305-1.235-.76-.604-.453-1.459-1.65l-.512-.786m117.374-17.819-.036.778q.116.705.739 3.158t1.36 5.185q.735 2.731 1.872 6.628t1.823 5.943q.687 2.044 1.304 3.54t.93 2.139q.315.645.694 1.254.092.014-1.088-1.76"/>
        <path stroke="#e66465" stroke-width="2.921" d="M544.254 379.376q.033-.89.798-3.058t1.6-3.254 1.47-1.486q.632-.4 1.167-.543.535-.142 1.986.144 1.45.286 3.138 1.509 1.688 1.224 2.491 2.246t1.31 2.21q.507 1.19.63 2.55.121 1.359-.429 3.077-.549 1.718-1.808 3.202-1.26 1.483-2.378 2.165t-2.022.894-1.412.177-.884-.122-.777-.34-.643-.465-.54-.481m27.769 13.274q-.053-.608-.508-1.79-.456-1.184-1.24-2.236-.782-1.051-1.786-1.69-1.005-.638-2.654-.617-1.65.02-2.179.468-.528.447-.897 1.782t-.18 2.613q.188 1.277 1.034 2.588.846 1.31 1.82 1.958t2.058.822 2.001-.06 1.907-1.101 3.146-5.896m-30.14-310.549q.116.536.36 1.525.243.988.695 2.214.453 1.227.86 2.085.408.857 1.645 3.323t2.812 6.096q1.574 3.63 2.338 5.78.766 2.152 1.743 5.873.047.01-.492-1.086"/>
        <path stroke="#e66465" stroke-width="2.921" d="M548.421 88.733q.232-.417.796-1.485.564-1.067 1.313-1.832.748-.765 1.79-1.35 1.04-.585 2.487-.799t2.536-.02 1.97.758 1.717 1.54 1.592 3.188q.758 2.212.822 4.09t-.325 3.619-1.335 3.324q-.947 1.58-1.596 2.278-.649.697-1.593 1.292t-2.164.877q-.233-.046-1.267-.048m15.399 8.273q.12-.432.508-1.707.388-1.274.579-2.238t.258-1.468.083-.725-.01-.36q-.025-.138-.062-.13-.038.008.133.722.171.715 1.028 2.517.857 1.804 5.225 8.604M903.7 385.345q.037.37.276 1.23.24.858.699 1.999.46 1.14 1.49 3.627 1.029 2.488 2.907 8.232t2.663 8.814 1.232 5.355q.039 0-1.148-1.34"/>
        <path stroke="#e66465" stroke-width="2.921" d="M904.236 390.084q.242-1.186.569-2.196.325-1.01.946-1.938.62-.929 1.46-1.58.84-.653 1.908-.945 1.067-.293 2.538-.08 1.47.21 2.814 1.143 1.344.932 1.894 1.573t1.14 1.642q.59 1 1.072 2.84.483 1.842.4 3.77-.083 1.93-.59 3.345-.508 1.414-1.124 2.305-.615.891-1.3 1.461t-1.224.822-.868.336q-.331.084-.7 0l-.41.04m14.022 5.841.322-.032q1.112-.205 1.517-.223.405-.02.965.074.56.093.92.351.358.26.493.433t.417.755q.283.583.57 2.08t.296 3.424q.01 1.925.211 3.06.051.03 2.715-.505 2.664-.536 8.278-2.511m-47.11-337.964.231.284q.663.958 3.237 6.452 2.572 5.494 3.682 8.866t1.503 5.231q.393 1.86.58 3.713.189 1.852.21 5.41-.046-.087-.424-.56"/>
        <path stroke="#e66465" stroke-width="2.921" d="M897.058 80.99q.185-1.188.489-1.99.304-.803.57-1.203.268-.399 1.166-1.063.898-.665 2.564-1.024 1.666-.36 3.676-.038t3.769 1.276 2.975 2.236q1.215 1.28 1.848 3.029.63 1.748.56 3.548t-.605 3.123-1.64 2.56-3.232 2.219q-2.127.984-4.759 1.493m19.023 9.063q.233-.64.38-.976.148-.336.388-.708t.497-.635.466-.494q.209-.232 1.647-1.208 1.438-.975 2.785-1.214 1.345-.239 2.062-.07.717.17 1.042.359.324.19.796 1.016.471.825.632 1.583.16.757.153 1.741t-.047 1.642q-.039.656-.094 1.126l1.274.492q1.052.409 1.862.77.812.36 1.244.743.433.382.607.702t.242.743-.067 1.074-1.321 1.578-3.219 1.41-3.717.319-3.081-.66-2.53-1.326l-.84-.737M87.45 107.526l-.123-.053q-1-.607-1.285-.704-.287-.097-.738-.256-.45-.16-1.234-.27t-1.615.105-1.144.414q-.313.197-.599.555-.285.357-.417.557-.131.199-.24.842-.108.644-.016 1.1.092.454.401.958.31.503.677.865.366.362.88.643t1.144.424q.631.142 1.373.19.742.045 1.415-.072t1.04-.286.89-.564.795-.797q.271-.402.333-.556.063-.152.222-.259.16-.106.595-3.214M88.512 391.32q-.499-.733-1.208-1.421-.71-.688-1.757-1.417-1.048-.73-1.137-.815-.09-.086-1.413-.38-1.324-.293-2.241-.153t-1.094.218-.602.555-.609.955-.196.913q-.012.433-.012.604t.296.88q.294.711.875 1.344.582.633 1.222.988t1.29.514q.652.16 1.273.255.621.097 2.108-.155 1.487-.25 2.29-.617.803-.365 1.392-.903.59-.538 2.63-3.723m277.798-279.398q-.22-.299-.692-1.376-.473-1.077-.807-1.676t-.498-.8q-.164-.203-.868-.923-.703-.72-1.154-.904-.452-.184-.782-.209t-.63.025-.96.793-.865 1.291q-.206.55-.24.92-.035.371.09 1.204.126.834.254 1.094.128.262.391.58.263.319 1.137.978.873.658 2.064 1.001 1.191.344 1.478.39t.765.05q.478 0 2.443-.167m.917 280.155-.659-.643-.125-.465q-.061-.17-.746-1.402-.683-1.232-1.423-1.973-.74-.74-1.038-.924-.299-.183-.525-.266-.226-.082-1.203-.16-.977-.08-1.6.218-.622.298-.655.354l-.887 1.192q-.07.055-.355 1.763-.287 1.707 0 2.665.288.96.536 1.311t.645.714q.398.362 1.106.75.708.386 1.767.479 1.06.094 1.667-.007t1.483-.67q.875-.568 3.135-3.01m227.266-290.175-.123-.053q-.999-.607-1.285-.704t-.737-.257-1.234-.27q-.785-.11-1.616.106t-1.144.413-.599.556q-.285.357-.417.557-.131.199-.239.842-.109.643-.017 1.1.092.454.402.958.31.503.676.865t.88.643q.515.282 1.145.424t1.372.189 1.416-.07q.672-.118 1.039-.287.366-.17.89-.564.525-.394.796-.797.27-.402.333-.556.062-.152.222-.259.16-.106.595-3.214m-1.293 284.172q-.498-.733-1.207-1.421t-1.758-1.417q-1.048-.73-1.137-.815-.089-.086-1.413-.38-1.324-.293-2.24-.153-.918.14-1.095.218-.176.079-.601.555-.426.477-.61.955-.183.479-.196.913-.012.433-.011.604 0 .17.295.88.295.711.876 1.344.582.633 1.221.988.64.354 1.29.514.652.16 1.273.255.622.096 2.108-.155 1.487-.25 2.29-.617.804-.365 1.393-.904.59-.537 2.628-3.722m277.799-279.398q-.22-.299-.692-1.376t-.807-1.676q-.333-.599-.498-.8-.164-.203-.867-.923t-1.155-.904-.782-.209-.63.025-.96.793-.864 1.291q-.207.55-.241.92-.035.371.09 1.204.126.833.254 1.094.129.262.392.58.262.318 1.137.978.873.658 2.064 1.001 1.19.344 1.478.39.286.046.764.05.478 0 2.443-.167m.917 280.155-.658-.643-.126-.465q-.061-.17-.745-1.402t-1.423-1.973q-.74-.74-1.039-.924-.298-.183-.525-.266-.225-.082-1.203-.161-.977-.079-1.6.219-.622.298-.655.354l-.886 1.192q-.07.055-.356 1.763t0 2.665q.288.959.536 1.311.248.351.645.714.398.362 1.107.75.707.386 1.767.479t1.666-.007q.608-.1 1.483-.67.876-.567 3.135-3.009M30.299 374.575l-.014.348q-.048.46 1.226 5.268 1.272 4.808 2.167 7.81.894 3.003 1.581 5.742.688 2.74 2.006 8.791.062.087.298.748"/>
        <path stroke="#e66465" stroke-width="2.921" d="M27.98 377.42q.753-2.155 1.954-3.852t2.96-3.123 3.084-1.923 2.216-.586 1.625.012 3.854 2.934q3.116 2.835 3.478 4.182t.335 2.219-.663 2.461q-.639 1.59-2.325 3.664t-2.647 3.023-1.668 1.502-1.213.833q-.071.008.174.502m13.702 14.966q-.491-.573-1.217-1.098-.724-.524-1.108-.867-.385-.344-1.021-1.146t-1.005-1.852-.365-1.743q.008-.695.241-1.39.238-.697 1-1.337.765-.64 1.582-.83.816-.192 1.603-.096.787.097 1.444.563.658.466 1.21 1.339.553.872.779 1.596t.29 1.46-.07 1.695q-.135.959-.438 1.569t-.85 1.285q-.545.674-4.177 2.108M27.138 83.87l.029.281q.026.404 1.84 5.422 1.813 5.018 2.902 7.966 1.09 2.947 1.938 5.474.849 2.527 2.19 7.535.066.02-1.214-1.455"/>
        <path stroke="#e66465" stroke-width="2.921" d="M24.6 86.502q.024-.078.154-1.017t.39-1.75q.26-.81 1.227-2.186t2.233-2.308q1.267-.933 2.437-1.347t2.369-.517q1.197-.103 2.167.05t1.96.669q.992.515 2.058 1.91t1.704 4.134.544 4.36-.61 3.249q-.518 1.628-1.755 3.16-1.238 1.533-2.353 2.194t-1.817.83-2.689.103m18.748 13.062q1.934-5.91 2.204-7.242t.346-1.795q.076-.464-.257-.53-.16.408.059 1.841.216 1.433.603 2.62t1.072 2.688 1.808 3.066q.251.165.763.77m330.195-51q.038.076.03.55.009.779 1.02 3.775 1.014 2.997 2.617 7.596 1.604 4.599 2.897 9.898t2.006 9.362q.063.073-.827-2.798"/>
        <path stroke="#e66465" stroke-width="2.921" d="M387.521 64.625q.077-.105.568-1.45t.9-2.081.682-1.113q.272-.377 1.367-1.326t2.498-1.52 2.26-.687 1.88-.061q1.02.053 1.603.176t2.626 1.276q2.044 1.153 3.253 2.456t2.017 2.81 1.114 3.486q.308 1.979.15 3.193-.16 1.215-.853 2.69-.694 1.477-2.292 2.827-1.6 1.35-2.836 1.781-1.237.431-1.87.485-.635.053-1.115-.019-.48-.071-.715-.185t-.442-.286-.333-.349-.4-.62m17.243 16.484q.105-.221-.184-.876.18-1.238.769-2.139.588-.9 1.258-1.34t1.22-.485.764-.034.78.349 1.11 1.306.759 2.49q.21 1.524-.23 4.116-.438 2.593-.729 4.255-.291 1.664-.157 2.688.387.125 2.997.05 2.61-.076 10.608-1.216m-39.377 261.455-.074.53q-.044.232 2.054 10.775 2.1 10.543 5.77 21.74.114.044-.05-.075m-6.743-30.124q.054-.121.131-.857.078-.737.319-1.447.24-.71.402-1.054t.458-.757q.295-.414.72-.823t.81-.663.69-.453 2.165-.543q1.856-.344 3.098-.201t2.478.677 2.193 1.302 1.75 2.092 1.1 3.163.073 3.493q-.237 1.655-1.223 3.495t-2.285 3.067-2.678 1.861q-1.38.634-2.447.763-1.069.127-1.78-.05-.711-.178-1.453-.694l-.62-.311m24.229 6.53q.111-.068.357-.46.245-.392 1.033-1.166t1.835-1.48q1.049-.707 2.103-1.037 1.055-.331 1.909-.259t1.268.238q.414.164.847.565t.814 1.416.345 2.159-.404 2.148-.587 1.427q-.221.418-.404.51.114-.099.324-.19.21-.093.617-.13.407-.036 1.32.04.915.075 2.228.538 1.314.462 2.14 1 .827.537 1.374 1.205.546.668.734 1.103t.212.915-.132 1.031-.522 1.144q-.368.59-1.333 1.37-.965.778-2.538 1.355-1.572.575-3.067.674-1.494.098-2.455-.094-.96-.191-1.593-.496-.632-.305-1.235-.76-.604-.453-1.459-1.65l-.512-.786m117.374-17.819-.036.778q.116.705.739 3.158t1.36 5.185q.735 2.731 1.872 6.628t1.823 5.943q.687 2.044 1.304 3.54t.93 2.139q.315.645.694 1.254.092.014-1.088-1.76"/>
        <path stroke="#e66465" stroke-width="2.921" d="M544.254 379.376q.033-.89.798-3.058t1.6-3.254 1.47-1.486q.632-.4 1.167-.543.535-.142 1.986.144 1.45.286 3.138 1.509 1.688 1.224 2.491 2.246t1.31 2.21q.507 1.19.63 2.55.121 1.359-.429 3.077-.549 1.718-1.808 3.202-1.26 1.483-2.378 2.165t-2.022.894-1.412.177-.884-.122-.777-.34-.643-.465-.54-.481m27.769 13.274q-.053-.608-.508-1.79-.456-1.184-1.24-2.236-.782-1.051-1.786-1.69-1.005-.638-2.654-.617-1.65.02-2.179.468-.528.447-.897 1.782t-.18 2.613q.188 1.277 1.034 2.588.846 1.31 1.82 1.958t2.058.822 2.001-.06 1.907-1.101 3.146-5.896m-30.14-310.549q.116.536.36 1.525.243.988.695 2.214.453 1.227.86 2.085.408.857 1.645 3.323t2.812 6.096q1.574 3.63 2.338 5.78.766 2.152 1.743 5.873.047.01-.492-1.086"/>
        <path stroke="#e66465" stroke-width="2.921" d="M548.421 88.733q.232-.417.796-1.485.564-1.067 1.313-1.832.748-.765 1.79-1.35 1.04-.585 2.487-.799t2.536-.02 1.97.758 1.717 1.54 1.592 3.188q.758 2.212.822 4.09t-.325 3.619-1.335 3.324q-.947 1.58-1.596 2.278-.649.697-1.593 1.292t-2.164.877q-.233-.046-1.267-.048m15.399 8.273q.12-.432.508-1.707.388-1.274.579-2.238t.258-1.468.083-.725-.01-.36q-.025-.138-.062-.13-.038.008.133.722.171.715 1.028 2.517.857 1.804 5.225 8.604M903.7 385.345q.037.37.276 1.23.24.858.699 1.999.46 1.14 1.49 3.627 1.029 2.488 2.907 8.232t2.663 8.814 1.232 5.355q.039 0-1.148-1.34"/>
        <path stroke="#e66465" stroke-width="2.921" d="M904.236 390.084q.242-1.186.569-2.196.325-1.01.946-1.938.62-.929 1.46-1.58.84-.653 1.908-.945 1.067-.293 2.538-.08 1.47.21 2.814 1.143 1.344.932 1.894 1.573t1.14 1.642q.59 1 1.072 2.84.483 1.842.4 3.77-.083 1.93-.59 3.345-.508 1.414-1.124 2.305-.615.891-1.3 1.461t-1.224.822-.868.336q-.331.084-.7 0l-.41.04m14.022 5.841.322-.032q1.112-.205 1.517-.223.405-.02.965.074.56.093.92.351.358.26.493.433t.417.755q.283.583.57 2.08t.296 3.424q.01 1.925.211 3.06.051.03 2.715-.505 2.664-.536 8.278-2.511m-47.11-337.964.231.284q.663.958 3.237 6.452 2.572 5.494 3.682 8.866t1.503 5.231q.393 1.86.58 3.713.189 1.852.21 5.41-.046-.087-.424-.56"/>
        <path stroke="#e66465" stroke-width="2.921" d="M897.058 80.99q.185-1.188.489-1.99.304-.803.57-1.203.268-.399 1.166-1.063.898-.665 2.564-1.024 1.666-.36 3.676-.038t3.769 1.276 2.975 2.236q1.215 1.28 1.848 3.029.63 1.748.56 3.548t-.605 3.123-1.64 2.56-3.232 2.219q-2.127.984-4.759 1.493m19.023 9.063q.233-.64.38-.976.148-.336.388-.708t.497-.635.466-.494q.209-.232 1.647-1.208 1.438-.975 2.785-1.214 1.345-.239 2.062-.07.717.17 1.042.359.324.19.796 1.016.471.825.632 1.583.16.757.153 1.741t-.047 1.642q-.039.656-.094 1.126l1.274.492q1.052.409 1.862.77.812.36 1.244.743.433.382.607.702t.242.743-.067 1.074-1.321 1.578-3.219 1.41-3.717.319-3.081-.66-2.53-1.326l-.84-.737"/>
        <path stroke="#9198e5" stroke-width="2.921" d="M86.874 390.87q-.096-.096-.136-.123-.04-.029-.228-.231-.19-.202-.619-.54-.43-.339-.946-.588-.517-.249-.952-.322t-.77-.027-.474.2-.15.27 0 .369.245.539q.237.284.568.452.332.168.63.243t.794.075.704-.047.368-.147q.16-.101.41-.387.25-.284.8-1.306m283.228 3.454q-.077-.166-.323-.497-.246-.332-.369-.495-.122-.163-.514-.42-.391-.257-.886-.362t-.815-.063-.439.15q-.118.108-.202.55t.058.77.378.541q.237.214.503.313.266.098.537.11t.519-.036.58-.219.603-.394q.269-.223.793-.713m226.629-7.649-.037-.015-.037-.036-.15-.168q-.048-.055-.173-.105-.123-.05-.442-.077-.319-.028-.65.038-.332.066-.499.24-.168.175-.244.688-.076.514 0 .839.075.324.274.558.198.235.347.267t.46-.035.678-.333.485-.392.197-.282.082-.37-.065-.384q-.068-.169-.092-.193t-.191-.214-.579-.368q-.41-.18-.664-.164t-.338.23q-.084.216-.008.435.079.22.182.354.102.133.255.212.154.08.305.101.152.021.203-.043.05-.064.045-.208-.007-.144-.306-.308-.302-.164-.468-.168-.166-.008-.98.008m285.084-280.789q-.06-.073-.451-1.176-.03-.025-.344-.402-.314-.378-.498-.468-.185-.09-.327-.12t-.256.035-.238.434-.094.623q.03.252.093.457.065.204.179.334t.503.216q.39.088.661.054.272-.033.615-.252.343-.22.542-.661.198-.441.21-.897.012-.455-.142-.755-.155-.298-.301-.418-.145-.12-.25-.141t-.174-.007-.124.077q-.056.062-.096.168t-.059.41.04.558q.061.255.579 1.019M134.64 229.37l-.08-.04q-.128-.09-.239-.14-.109-.05-.358-.106t-.522-.034-.374.06q-.102.036-.266.194-.163.159-.222.38-.06.22-.033.388.027.167.07.236.044.07.098.12.053.048.129.09t.32.075q.244.034.441-.097.198-.132.293-.293.094-.162.112-.275.017-.112-.015-.173-.033-.062-.135-.162-.101-.1-.245-.179-.145-.078-.367-.149-.062.057-.365.008m48.906-39.481q-.164-.206-.236-.28l-.086-.092q-.391-.275-.62-.362-.23-.087-.716-.11-.484-.024-.671.073-.187.095-.319.239t-.2.377q-.066.233-.046.41.02.178.11.302.09.123.403.185.312.062.588.016.276-.045.56-.258.282-.213.386-.407t.134-.325q.03-.133-.084-.414-.116-.281-.318-.403-.203-.122-.325-.14-.121-.018-.221.008t-.692.43m46.087-9.561-.026-.159-.018-.096-.077-.14q-.048-.118-.282-.337-.236-.221-.537-.273-.302-.05-.597-.029-.295.023-.675.38t-.503.6-.164.473-.007.58q.034.347.11.506.077.158.184.257.107.1.56.266t.852.156q.398-.011.595-.06.198-.05.538-.277t.492-.802.032-.834-.858-.494q-.737-.236-1 .097m49.339 10.143-.08-.108-.097-.085q-.566-.313-.729-.342t-.291-.01q-.13.022-.21.156-.08.133-.07.269.012.135.06.244.05.109.15.197t.468.176.521.093q.153.008.199-.011.046-.016.105-.06.06-.042.12-.157.138-.048-.744-.896-.007-.07-.246-.405m48.744 41.961q-.112-.117-.301-.425-.19-.306-.25-.383-.061-.077-.226-.203-.166-.126-.317-.155-.151-.03-.198-.024-.047.007-.125.07-.08.062-.122.294-.043.231-.01.406t.078.252.13.163.086.1.208.113q.206.098.49.115.283.018.398-.038t.181-.105.126-.115q.061-.065.515-.631m33.676 65.507q-.013-.007-.133-.292l-.105-.171-.182-.216q-1.126-.744-1.424-.79t-.434-.025-.227.063-.212.17q-.123.128-.193.257-.07.128-.11.288t0 .564q.038.404.11.514.07.11.266.347.195.238.637.404.443.166.807.131.363-.034.567-.109.205-.074.387-.193.181-.117.34-.362.158-.244.291-.945l.117-.73m-255.292.687-.124-.025q-.117-.083-.261-.22-.146-.138-.418-.309-.27-.17-.47-.236-.197-.067-.521-.089t-.587.103q-.265.125-.458.592-.193.468-.177.827.016.36.095.513t.26.243.34.097l.232.013q.073.007.269-.137t.345-.322q.15-.18 1.01-1.61m515.169 4.13q-.956-.452-1.065-.5-.109-.046-.604-.13-.495-.085-.941.01t-.594.168-.496.397q-.349.323-.533.66t-.24.814.028.827q.083.35.313.63.23.281.751.415t.907.073.735-.335.536-.59.245-.547.084-.293.021-.453q-.007-.39-.065-.621-.06-.231-.164-.461-.103-.23-.272-.484t-.557-.581l-.619-.614m31.724-35.098-.22-.298q-.738-.553-1.038-.692-.298-.138-.595-.185-.298-.047-.597-.021-.3.025-.594.168-.296.141-.51.333t-.345.832-.085 1 .216.575q.172.215.363.313.19.098.442.13.25.033.579-.057.328-.089.623-.342.296-.254.413-.577t.137-.57-.074-.49-.211-.378-.234-.245q-.115-.11-.317-.19-.202-.081-.337-.125-.135-.043-.324-.013t-.252.085q-.062.057-.617.29m49.171-11.598q-.411-.303-.586-.381-.174-.079-.473-.134-.3-.054-.393-.059-.095-.007-.198.049-.103.053-.156.136-.052.082-.087.243-.036.162.008.283.045.12.147.194t.227.115.4.015.372-.141.162-.242q.066-.126.087-.304.02-.177-.015-.27-.037-.092-.264-.344-.226-.253-.791-.45-.12.063-.471.088m48.797-5.574-.152.03q-.007-.037-.106-.23-.101-.193-.174-.299t-.13-.147q-.06-.04-.178-.086-.12-.046-.29-.046-.169.001-.272.178-.104.179-.123.35-.018.172.007.363t.094.286q.071.095.213.183t.3.138q.155.05.383.079.229.029.335-.055t.152-.156.094-.218.047-.232q-.007-.086-.067-.175-.063-.088-.063-.103 0-.016-.114-.068-.114-.051-.258-.05t-.22.103q-.074.102-.346.343m49.728 2.143q-.516-.734-.655-.913t-.248-.275q-.11-.097-.293-.222-.181-.126-.341-.207t-.49-.17-.535-.09-.3.046q-.094.046-.177.308t-.065.366.164.299.578.338.684.105.357-.135.16-.193.087-.188q.032-.094.036-.235.007-.142-.08-.274-.086-.132-.27-.229-.184-.096-.375-.104-.19-.008-.336.052-.145.059-.32.169t-.887.502m53.277-16.239-.1-.088q-.229-.38-.37-.598t-.258-.305q-.12-.087-.243-.153-.125-.067-.232-.096-.107-.03-.267-.029-.162 0-.248.098-.087.096-.09.126 0 .03-.025.121-.023.09.08.19.105.099.2.15t.211.082q.118.03.28.022.164-.01.247-.067t.128-.118.068-.114q.02-.053.03-.126t0-.152q-.012-.078-.1-.166-.087-.088-.202-.118t-.172-.02q-.056.009-.138.06-.081.052-.142.153l-.14.23q-.08.129-.108.806l.276.568m34.142-45.716q-.09-.131-.153-.531-.047-.058-.26-.495-.21-.437-.537-.75-.327-.311-.392-.351-.067-.04-.197-.086t-.445-.05q-.314-.008-.645.382-.332.386-.42.691-.09.305-.062.648t.085.54.21.345q.152.15.604.232t.767.012.61-.273q.295-.201.47-.383.176-.182.39-.665.212-.483.227-.925t-.12-.658-.462-.38-.575-.147-.502.213-.437.713"/>
        <path stroke="#9198e5" stroke-width="1.46" d="m86.03 384.643 10.574-85.103m3.356-9.697 29.717-55.853m5.956-8.958 39.453-32.997m10.854-4.995 32.66-7.648m13.259.381 36.633 6.497m8.422 5.698 40.537 34.214m7.463 8.257 27.285 54.696m3.515 11.715 11.374 81.424m230.164-3.829 12.09-73.191m7.376-13.14 20.913-25.356m11.769-8.304 33.162-8.648m12.431-1.306 34.361-4.524m12.356-.826 36.354.826m13.432-.482 39.576-12.697m9.266-8.027 22.112-33.694m15.374-78.575-8.925 64.194"/>
    </g>
</svg>
