<svg xmlns="http://www.w3.org/2000/svg" xml:space="preserve" viewBox="0 0 960 480">
    <g fill="none" stroke-linecap="round" stroke-linejoin="round" transform="translate(-4603.27 -1226.344)scale(.7119)">
        <path stroke="#f6f7ef" stroke-width="2" d="m6610.728 1874.443-2.395 384.812m8.625-90.925 78.968-285.561m-61.392 208.566 144.922-191.231M6669.52 2017.13l180.135-86.14m-142.239 41.199 191.554.252m-144.913-39.108 181.333 83.724m-110.733-116.409 144.735 189.043m-62.125-205.488 82.217 285.232m2.668-298.145 3.574 391.23m299.327-392.696-1.93 387.732m95.265-306.14-85.219 223.899m15.629-61.637 149.103-100.412m-114.473 65.436 188.576-22.16m-150.258 8.191 192.431-1.185m-142.647 11.472 180.717-17.468m36.091-40.73-145.557 96.618m163.032-159.838-81.68 221.174m88.571-306.274-1.903 387.21" opacity=".5"/>
        <path stroke="#e66465" stroke-width="4" d="m6612.454 1872.83-.168-.072q-1.368-.832-1.76-.965t-1.01-.351q-.617-.22-1.69-.37-1.074-.15-2.212.145-1.14.296-1.567.566-.43.27-.82.76-.391.49-.571.763t-.328 1.154q-.15.88-.023 1.505.126.623.55 1.313.424.689.926 1.185.502.495 1.206.88.704.386 1.567.58.864.196 1.88.26 1.016.063 1.938-.097.92-.16 1.423-.392.502-.232 1.22-.772.719-.54 1.089-1.092.37-.551.456-.761t.304-.355q.219-.145.815-4.402m-1.77 389.178q-.683-1.003-1.654-1.946-.972-.942-2.407-1.94-1.435-1-1.557-1.117t-1.935-.52-3.07-.21q-1.255.192-1.497.299-.241.108-.824.76-.583.653-.834 1.308-.252.656-.27 1.25-.016.594-.015.827 0 .234.405 1.207.403.973 1.199 1.839.797.867 1.673 1.353t1.767.704q.892.219 1.743.35.85.132 2.887-.212t3.136-.845 1.907-1.237 3.6-5.1m380.45-382.64q-.301-.408-.948-1.883t-1.105-2.296-.682-1.096q-.225-.277-1.188-1.263t-1.581-1.238q-.62-.252-1.071-.286-.452-.035-.863.034-.412.07-1.314 1.086t-1.185 1.768-.33 1.26.125 1.649.347 1.498q.176.358.536.794t1.557 1.339q1.196.902 2.827 1.372 1.63.47 2.024.533.392.063 1.047.068.655.01 3.346-.228m1.255 383.677-.901-.881-.172-.636q-.084-.234-1.021-1.921t-1.95-2.702q-1.013-1.014-1.421-1.265-.41-.251-.72-.364-.308-.112-1.647-.22-1.338-.11-2.19.299-.853.408-.898.485l-1.214 1.632q-.095.076-.487 2.415t0 3.65q.395 1.313.734 1.795.34.48.884.978.545.496 1.515 1.026.969.529 2.42.657 1.45.128 2.282-.01t2.03-.917q1.2-.778 4.295-4.122m296.447-392.401-.168-.072q-1.368-.832-1.76-.965t-1.01-.351q-.617-.22-1.69-.37-1.074-.15-2.212.145-1.139.296-1.567.566-.429.27-.82.76t-.57.763q-.18.273-.329 1.154t-.023 1.505.55 1.313.926 1.185 1.206.88q.704.386 1.567.58.864.196 1.88.26 1.016.063 1.938-.097t1.423-.392q.502-.232 1.22-.772.72-.54 1.09-1.092.37-.551.455-.761t.304-.355q.22-.145.815-4.402m-1.77 389.179q-.683-1.005-1.654-1.948-.972-.942-2.407-1.94-1.435-.999-1.557-1.117-.122-.116-1.935-.518t-3.069-.211-1.498.299q-.24.108-.824.76-.583.653-.834 1.308-.252.656-.269 1.25t-.016.827q0 .234.405 1.207.403.973 1.2 1.839.796.867 1.672 1.353t1.767.704 1.743.35 2.887-.212q2.036-.344 3.136-.845t1.907-1.238q.808-.736 3.6-5.098m380.45-382.64q-.3-.41-.948-1.884-.647-1.477-1.105-2.297t-.682-1.096q-.225-.277-1.188-1.263t-1.58-1.237q-.62-.253-1.072-.287-.452-.035-.863.034-.412.07-1.314 1.087t-1.185 1.768-.33 1.26.125 1.649.347 1.497q.176.358.536.794t1.557 1.34q1.196.902 2.827 1.372t2.024.533q.392.062 1.047.067.655.01 3.346-.228m1.255 383.678-.9-.882-.173-.635q-.084-.235-1.02-1.922-.937-1.686-1.95-2.701-1.014-1.015-1.422-1.266-.409-.25-.719-.363-.309-.113-1.648-.222-1.338-.107-2.19.3-.853.409-.898.486l-1.214 1.632q-.095.076-.487 2.415t0 3.65q.395 1.313.734 1.795.34.48.884.978.545.496 1.515 1.026.97.529 2.42.657 1.451.128 2.282-.01.832-.137 2.031-.916 1.2-.778 4.294-4.122m-1155.706-20.826-.018.477q-.066.629 1.678 7.214 1.742 6.585 2.968 10.697 1.225 4.11 2.166 7.862t2.747 12.04q.084.119.408 1.025"/>
        <path stroke="#e66465" stroke-width="4" d="M6531.009 2242.455q1.032-2.952 2.677-5.276t4.053-4.277 4.224-2.634q1.817-.682 3.035-.802t2.226.016q1.008.135 5.277 4.018 4.268 3.883 4.763 5.728t.46 3.038q-.036 1.193-.91 3.37-.873 2.179-3.183 5.019t-3.625 4.14q-1.316 1.299-2.284 2.057-.968.759-1.661 1.14-.098.012.238.688m18.765 20.496q-.673-.785-1.666-1.503t-1.518-1.188q-.527-.471-1.4-1.57-.87-1.098-1.375-2.535t-.5-2.388q.01-.951.33-1.904.326-.954 1.37-1.83 1.047-.876 2.166-1.138t2.196-.13 1.978.77 1.657 1.834q.757 1.194 1.066 2.186.309.99.397 2 .089 1.009-.095 2.32-.185 1.314-.6 2.149-.415.836-1.163 1.76t-5.722 2.887m-32.329-440.464.04.386q.036.553 2.52 7.425t3.975 10.909q1.492 4.037 2.654 7.498 1.162 3.46 2.998 10.319.09.028-1.662-1.993"/>
        <path stroke="#e66465" stroke-width="4" d="M6526.38 1844.037q.033-.107.21-1.393.179-1.285.536-2.396.356-1.11 1.68-2.994 1.324-1.883 3.058-3.161 1.735-1.278 3.338-1.845t3.244-.708 2.968.069q1.328.21 2.685.916t2.817 2.616q1.459 1.91 2.334 5.662.874 3.752.745 5.97-.128 2.22-.836 4.45-.71 2.23-2.403 4.328-1.695 2.099-3.222 3.005-1.528.905-2.49 1.136-.961.23-3.681.14m25.675 17.89q2.649-8.094 3.019-9.918t.474-2.458q.104-.636-.352-.725-.218.557.08 2.52.297 1.963.827 3.588t1.468 3.68 2.476 4.2q.344.226 1.044 1.054m452.206-69.845q.054.104.044.754.01 1.066 1.397 5.17t3.583 10.403 3.967 13.555 2.748 12.82q.086.102-1.133-3.83"/>
        <path stroke="#e66465" stroke-width="4" d="M7023.407 1814.076q.105-.143.777-1.986t1.234-2.85q.56-1.007.933-1.524.372-.516 1.872-1.815 1.5-1.3 3.42-2.083 1.923-.783 3.097-.94t2.573-.084 2.197.24q.798.17 3.596 1.749t4.455 3.363q1.656 1.783 2.762 3.848t1.526 4.775.204 4.373-1.167 3.685q-.95 2.02-3.14 3.87-2.19 1.849-3.883 2.44-1.694.59-2.562.663-.87.073-1.526-.025-.658-.098-.98-.254t-.605-.392q-.283-.235-.455-.477-.171-.242-.547-.85m23.612 22.576q.145-.303-.251-1.2.248-1.696 1.053-2.93.806-1.232 1.724-1.835t1.669-.664 1.048-.047 1.067.478 1.522 1.789q.75 1.324 1.038 3.41.287 2.087-.314 5.637t-1 5.828-.214 3.68q.53.172 4.105.069 3.575-.104 14.527-1.665m-53.927 358.067-.102.726q-.06.317 2.814 14.756t7.9 29.774q.158.06-.067-.103m-9.234-41.256q.073-.166.179-1.174.106-1.01.436-1.981.329-.973.55-1.444.223-.471.628-1.037t.987-1.126 1.108-.91.946-.62q.422-.27 2.965-.742 2.542-.471 4.243-.276 1.7.195 3.393.928t3.004 1.783 2.395 2.864 1.508 4.333q.423 2.518.099 4.783t-1.674 4.787q-1.351 2.52-3.13 4.2t-3.667 2.549q-1.89.868-3.352 1.044-1.463.175-2.437-.07-.974-.242-1.99-.948l-.85-.427m33.183 8.944q.152-.093.489-.63t1.415-1.597 2.513-2.027q1.436-.968 2.88-1.421t2.614-.354 1.737.326q.566.225 1.159.773t1.116 1.94q.523 1.393.472 2.956-.051 1.564-.554 2.943-.502 1.379-.804 1.953-.302.573-.553.7.156-.136.444-.262t.845-.176q.558-.05 1.809.053 1.252.103 3.05.737 1.799.633 2.93 1.37 1.134.736 1.882 1.65.748.915 1.006 1.51.257.597.29 1.254.033.656-.18 1.412t-.716 1.566-1.825 1.876-3.476 1.856q-2.153.788-4.2.923-2.046.135-3.362-.128-1.316-.262-2.182-.68-.865-.417-1.692-1.04-.827-.621-1.997-2.261l-.701-1.076m145.949-19.404-.05 1.065q.158.965 1.011 4.324.854 3.36 1.862 7.101t2.565 9.079q1.557 5.336 2.497 8.137.941 2.8 1.785 4.848.845 2.048 1.275 2.93.431.883.95 1.717.125.02-1.49-2.41"/>
        <path stroke="#e66465" stroke-width="4" d="M7223.258 2250.13q.045-1.218 1.093-4.186 1.048-2.97 2.192-4.457t2.011-2.035 1.6-.743q.732-.195 2.72.197 1.986.39 4.297 2.066t3.412 3.076 1.794 3.028.861 3.49-.586 4.215q-.752 2.353-2.477 4.385-1.725 2.03-3.256 2.965-1.53.933-2.769 1.225-1.238.29-1.934.242-.695-.05-1.21-.167-.517-.12-1.065-.467t-.88-.635q-.332-.286-.739-.66m38.028 18.18q-.07-.834-.695-2.454-.624-1.62-1.697-3.06t-2.447-2.315q-1.376-.873-3.635-.845t-2.983.64q-.724.613-1.229 2.442-.505 1.827-.247 3.577t1.416 3.546q1.16 1.794 2.494 2.68t2.817 1.127 2.741-.081q1.257-.32 2.612-1.51 1.354-1.187 4.308-8.073m-41.277-425.303q.16.734.493 2.088.333 1.353.952 3.032.62 1.68 1.178 2.855t2.252 4.552 3.851 8.348 3.203 7.917q1.048 2.946 2.387 8.042.064.014-.674-1.487"/>
        <path stroke="#e66465" stroke-width="4" d="M7228.965 1852.092q.317-.573 1.09-2.035t1.798-2.509 2.451-1.849 3.407-1.094q1.982-.293 3.473-.027t2.698 1.037 2.351 2.11q1.142 1.336 2.18 4.366 1.04 3.03 1.126 5.6.088 2.571-.445 4.957t-1.829 4.552-2.185 3.12-2.182 1.77q-1.293.814-2.963 1.2-.319-.062-1.736-.065m21.089 11.331q.166-.593.696-2.339.531-1.745.793-3.065t.353-2.01.114-.993q.022-.301-.013-.492-.035-.19-.086-.18t.183.99 1.408 3.447 7.156 11.784m445.632 366.608q.051.506.38 1.683.327 1.177.956 2.739.63 1.561 2.04 4.967 1.41 3.407 3.982 11.273t3.647 12.072q1.074 4.205 1.687 7.333.053 0-1.572-1.835"/>
        <path stroke="#e66465" stroke-width="4" d="M7716.26 2264.796q.331-1.624.778-3.007.446-1.384 1.296-2.655t2-2.164q1.151-.893 2.612-1.294 1.462-.4 3.476-.11 2.014.289 3.854 1.566 1.841 1.276 2.594 2.154.752.879 1.56 2.249t1.47 3.89.547 5.164-.809 4.58q-.695 1.937-1.538 3.157t-1.78 2q-.939.782-1.677 1.127-.737.344-1.189.459t-.959 0l-.56.056m19.203 7.998.44-.044q1.523-.28 2.078-.306t1.322.102 1.26.481q.49.355.675.592.184.237.571 1.035t.781 2.85q.393 2.05.405 4.687t.29 4.19q.07.044 3.717-.69t11.337-3.44m-64.518-462.845.317.388q.908 1.312 4.432 8.836 3.523 7.525 5.043 12.143 1.521 4.617 2.06 7.164.536 2.547.794 5.084.257 2.537.286 7.41-.063-.12-.58-.768"/>
        <path stroke="#e66465" stroke-width="4" d="M7706.43 1841.487q.252-1.628.668-2.727t.782-1.646 1.596-1.457 3.511-1.402q2.282-.493 5.034-.052 2.753.441 5.162 1.748 2.41 1.308 4.074 3.062 1.665 1.754 2.531 4.148.864 2.394.768 4.86-.097 2.465-.829 4.276-.732 1.812-2.246 3.505-1.513 1.694-4.427 3.04t-6.517 2.045m26.053 12.412q.318-.876.521-1.336.202-.46.53-.97t.681-.87.638-.676q.286-.318 2.255-1.654 1.97-1.336 3.814-1.663 1.843-.327 2.825-.096.982.232 1.427.492.444.26 1.09 1.39.645 1.132.865 2.169t.21 2.385-.064 2.248-.129 1.542l1.744.675q1.441.559 2.551 1.053t1.703 1.018.831.962q.24.437.332 1.017t-.092 1.47q-.185.894-1.809 2.163t-4.408 1.93q-2.786.662-5.09.437-2.306-.224-4.22-.904-1.915-.68-3.465-1.816l-1.15-1.01m-1131.726-10.425-.168-.072q-1.368-.832-1.76-.965t-1.01-.351q-.617-.22-1.69-.37-1.074-.15-2.212.145-1.14.296-1.567.566-.43.27-.82.76-.391.49-.571.763t-.328 1.154q-.15.88-.023 1.505.126.623.55 1.313.424.689.926 1.185.502.495 1.206.88.704.386 1.567.58.864.196 1.88.26 1.016.063 1.938-.097.92-.16 1.423-.392.502-.232 1.22-.772.719-.54 1.089-1.092.37-.551.456-.761t.304-.355q.219-.145.815-4.402m-1.77 389.178q-.683-1.003-1.654-1.946-.972-.942-2.407-1.94-1.435-1-1.557-1.117t-1.935-.52-3.07-.21q-1.255.192-1.497.299-.241.108-.824.76-.583.653-.834 1.308-.252.656-.27 1.25-.016.594-.015.827 0 .234.405 1.207.403.973 1.199 1.839.797.867 1.673 1.353t1.767.704q.892.219 1.743.35.85.132 2.887-.212t3.136-.845 1.907-1.237 3.6-5.1m380.45-382.64q-.301-.408-.948-1.883t-1.105-2.296-.682-1.096q-.225-.277-1.188-1.263t-1.581-1.238q-.62-.252-1.071-.286-.452-.035-.863.034-.412.07-1.314 1.086t-1.185 1.768-.33 1.26.125 1.649.347 1.498q.176.358.536.794t1.557 1.339q1.196.902 2.827 1.372 1.63.47 2.024.533.392.063 1.047.068.655.01 3.346-.228m1.255 383.677-.901-.881-.172-.636q-.084-.234-1.021-1.921t-1.95-2.702q-1.013-1.014-1.421-1.265-.41-.251-.72-.364-.308-.112-1.647-.22-1.338-.11-2.19.299-.853.408-.898.485l-1.214 1.632q-.095.076-.487 2.415t0 3.65q.395 1.313.734 1.795.34.48.884.978.545.496 1.515 1.026.969.529 2.42.657 1.45.128 2.282-.01t2.03-.917q1.2-.778 4.295-4.122m296.447-392.401-.168-.072q-1.368-.832-1.76-.965t-1.01-.351q-.617-.22-1.69-.37-1.074-.15-2.212.145-1.139.296-1.567.566-.429.27-.82.76t-.57.763q-.18.273-.329 1.154t-.023 1.505.55 1.313.926 1.185 1.206.88q.704.386 1.567.58.864.196 1.88.26 1.016.063 1.938-.097t1.423-.392q.502-.232 1.22-.772.72-.54 1.09-1.092.37-.551.455-.761t.304-.355q.22-.145.815-4.402m-1.77 389.179q-.683-1.005-1.654-1.948-.972-.942-2.407-1.94-1.435-.999-1.557-1.117-.122-.116-1.935-.518t-3.069-.211-1.498.299q-.24.108-.824.76-.583.653-.834 1.308-.252.656-.269 1.25t-.016.827q0 .234.405 1.207.403.973 1.2 1.839.796.867 1.672 1.353t1.767.704 1.743.35 2.887-.212q2.036-.344 3.136-.845t1.907-1.238q.808-.736 3.6-5.098m380.45-382.64q-.3-.41-.948-1.884-.647-1.477-1.105-2.297t-.682-1.096q-.225-.277-1.188-1.263t-1.58-1.237q-.62-.253-1.072-.287-.452-.035-.863.034-.412.07-1.314 1.087t-1.185 1.768-.33 1.26.125 1.649.347 1.497q.176.358.536.794t1.557 1.34q1.196.902 2.827 1.372t2.024.533q.392.062 1.047.067.655.01 3.346-.228m1.255 383.678-.9-.882-.173-.635q-.084-.235-1.02-1.922-.937-1.686-1.95-2.701-1.014-1.015-1.422-1.266-.409-.25-.719-.363-.309-.113-1.648-.222-1.338-.107-2.19.3-.853.409-.898.486l-1.214 1.632q-.095.076-.487 2.415t0 3.65q.395 1.313.734 1.795.34.48.884.978.545.496 1.515 1.026.97.529 2.42.657 1.451.128 2.282-.01.832-.137 2.031-.916 1.2-.778 4.294-4.122m-1155.706-20.826-.018.477q-.066.629 1.678 7.214 1.742 6.585 2.968 10.697 1.225 4.11 2.166 7.862t2.747 12.04q.084.119.408 1.025"/>
        <path stroke="#e66465" stroke-width="4" d="M6531.009 2242.455q1.032-2.952 2.677-5.276t4.053-4.277 4.224-2.634q1.817-.682 3.035-.802t2.226.016q1.008.135 5.277 4.018 4.268 3.883 4.763 5.728t.46 3.038q-.036 1.193-.91 3.37-.873 2.179-3.183 5.019t-3.625 4.14q-1.316 1.299-2.284 2.057-.968.759-1.661 1.14-.098.012.238.688m18.765 20.496q-.673-.785-1.666-1.503t-1.518-1.188q-.527-.471-1.4-1.57-.87-1.098-1.375-2.535t-.5-2.388q.01-.951.33-1.904.326-.954 1.37-1.83 1.047-.876 2.166-1.138t2.196-.13 1.978.77 1.657 1.834q.757 1.194 1.066 2.186.309.99.397 2 .089 1.009-.095 2.32-.185 1.314-.6 2.149-.415.836-1.163 1.76t-5.722 2.887m-32.329-440.464.04.386q.036.553 2.52 7.425t3.975 10.909q1.492 4.037 2.654 7.498 1.162 3.46 2.998 10.319.09.028-1.662-1.993"/>
        <path stroke="#e66465" stroke-width="4" d="M6526.38 1844.037q.033-.107.21-1.393.179-1.285.536-2.396.356-1.11 1.68-2.994 1.324-1.883 3.058-3.161 1.735-1.278 3.338-1.845t3.244-.708 2.968.069q1.328.21 2.685.916t2.817 2.616q1.459 1.91 2.334 5.662.874 3.752.745 5.97-.128 2.22-.836 4.45-.71 2.23-2.403 4.328-1.695 2.099-3.222 3.005-1.528.905-2.49 1.136-.961.23-3.681.14m25.675 17.89q2.649-8.094 3.019-9.918t.474-2.458q.104-.636-.352-.725-.218.557.08 2.52.297 1.963.827 3.588t1.468 3.68 2.476 4.2q.344.226 1.044 1.054m452.206-69.845q.054.104.044.754.01 1.066 1.397 5.17t3.583 10.403 3.967 13.555 2.748 12.82q.086.102-1.133-3.83"/>
        <path stroke="#e66465" stroke-width="4" d="M7023.407 1814.076q.105-.143.777-1.986t1.234-2.85q.56-1.007.933-1.524.372-.516 1.872-1.815 1.5-1.3 3.42-2.083 1.923-.783 3.097-.94t2.573-.084 2.197.24q.798.17 3.596 1.749t4.455 3.363q1.656 1.783 2.762 3.848t1.526 4.775.204 4.373-1.167 3.685q-.95 2.02-3.14 3.87-2.19 1.849-3.883 2.44-1.694.59-2.562.663-.87.073-1.526-.025-.658-.098-.98-.254t-.605-.392q-.283-.235-.455-.477-.171-.242-.547-.85m23.612 22.576q.145-.303-.251-1.2.248-1.696 1.053-2.93.806-1.232 1.724-1.835t1.669-.664 1.048-.047 1.067.478 1.522 1.789q.75 1.324 1.038 3.41.287 2.087-.314 5.637t-1 5.828-.214 3.68q.53.172 4.105.069 3.575-.104 14.527-1.665m-53.927 358.067-.102.726q-.06.317 2.814 14.756t7.9 29.774q.158.06-.067-.103m-9.234-41.256q.073-.166.179-1.174.106-1.01.436-1.981.329-.973.55-1.444.223-.471.628-1.037t.987-1.126 1.108-.91.946-.62q.422-.27 2.965-.742 2.542-.471 4.243-.276 1.7.195 3.393.928t3.004 1.783 2.395 2.864 1.508 4.333q.423 2.518.099 4.783t-1.674 4.787q-1.351 2.52-3.13 4.2t-3.667 2.549q-1.89.868-3.352 1.044-1.463.175-2.437-.07-.974-.242-1.99-.948l-.85-.427m33.183 8.944q.152-.093.489-.63t1.415-1.597 2.513-2.027q1.436-.968 2.88-1.421t2.614-.354 1.737.326q.566.225 1.159.773t1.116 1.94q.523 1.393.472 2.956-.051 1.564-.554 2.943-.502 1.379-.804 1.953-.302.573-.553.7.156-.136.444-.262t.845-.176q.558-.05 1.809.053 1.252.103 3.05.737 1.799.633 2.93 1.37 1.134.736 1.882 1.65.748.915 1.006 1.51.257.597.29 1.254.033.656-.18 1.412t-.716 1.566-1.825 1.876-3.476 1.856q-2.153.788-4.2.923-2.046.135-3.362-.128-1.316-.262-2.182-.68-.865-.417-1.692-1.04-.827-.621-1.997-2.261l-.701-1.076m145.949-19.404-.05 1.065q.158.965 1.011 4.324.854 3.36 1.862 7.101t2.565 9.079q1.557 5.336 2.497 8.137.941 2.8 1.785 4.848.845 2.048 1.275 2.93.431.883.95 1.717.125.02-1.49-2.41"/>
        <path stroke="#e66465" stroke-width="4" d="M7223.258 2250.13q.045-1.218 1.093-4.186 1.048-2.97 2.192-4.457t2.011-2.035 1.6-.743q.732-.195 2.72.197 1.986.39 4.297 2.066t3.412 3.076 1.794 3.028.861 3.49-.586 4.215q-.752 2.353-2.477 4.385-1.725 2.03-3.256 2.965-1.53.933-2.769 1.225-1.238.29-1.934.242-.695-.05-1.21-.167-.517-.12-1.065-.467t-.88-.635q-.332-.286-.739-.66m38.028 18.18q-.07-.834-.695-2.454-.624-1.62-1.697-3.06t-2.447-2.315q-1.376-.873-3.635-.845t-2.983.64q-.724.613-1.229 2.442-.505 1.827-.247 3.577t1.416 3.546q1.16 1.794 2.494 2.68t2.817 1.127 2.741-.081q1.257-.32 2.612-1.51 1.354-1.187 4.308-8.073m-41.277-425.303q.16.734.493 2.088.333 1.353.952 3.032.62 1.68 1.178 2.855t2.252 4.552 3.851 8.348 3.203 7.917q1.048 2.946 2.387 8.042.064.014-.674-1.487"/>
        <path stroke="#e66465" stroke-width="4" d="M7228.965 1852.092q.317-.573 1.09-2.035t1.798-2.509 2.451-1.849 3.407-1.094q1.982-.293 3.473-.027t2.698 1.037 2.351 2.11q1.142 1.336 2.18 4.366 1.04 3.03 1.126 5.6.088 2.571-.445 4.957t-1.829 4.552-2.185 3.12-2.182 1.77q-1.293.814-2.963 1.2-.319-.062-1.736-.065m21.089 11.331q.166-.593.696-2.339.531-1.745.793-3.065t.353-2.01.114-.993q.022-.301-.013-.492-.035-.19-.086-.18t.183.99 1.408 3.447 7.156 11.784m445.632 366.608q.051.506.38 1.683.327 1.177.956 2.739.63 1.561 2.04 4.967 1.41 3.407 3.982 11.273t3.647 12.072q1.074 4.205 1.687 7.333.053 0-1.572-1.835"/>
        <path stroke="#e66465" stroke-width="4" d="M7716.26 2264.796q.331-1.624.778-3.007.446-1.384 1.296-2.655t2-2.164q1.151-.893 2.612-1.294 1.462-.4 3.476-.11 2.014.289 3.854 1.566 1.841 1.276 2.594 2.154.752.879 1.56 2.249t1.47 3.89.547 5.164-.809 4.58q-.695 1.937-1.538 3.157t-1.78 2q-.939.782-1.677 1.127-.737.344-1.189.459t-.959 0l-.56.056m19.203 7.998.44-.044q1.523-.28 2.078-.306t1.322.102 1.26.481q.49.355.675.592.184.237.571 1.035t.781 2.85q.393 2.05.405 4.687t.29 4.19q.07.044 3.717-.69t11.337-3.44m-64.518-462.845.317.388q.908 1.312 4.432 8.836 3.523 7.525 5.043 12.143 1.521 4.617 2.06 7.164.536 2.547.794 5.084.257 2.537.286 7.41-.063-.12-.58-.768"/>
        <path stroke="#e66465" stroke-width="4" d="M7706.43 1841.487q.252-1.628.668-2.727t.782-1.646 1.596-1.457 3.511-1.402q2.282-.493 5.034-.052 2.753.441 5.162 1.748 2.41 1.308 4.074 3.062 1.665 1.754 2.531 4.148.864 2.394.768 4.86-.097 2.465-.829 4.276-.732 1.812-2.246 3.505-1.513 1.694-4.427 3.04t-6.517 2.045m26.053 12.412q.318-.876.521-1.336.202-.46.53-.97t.681-.87.638-.676q.286-.318 2.255-1.654 1.97-1.336 3.814-1.663 1.843-.327 2.825-.096.982.232 1.427.492.444.26 1.09 1.39.645 1.132.865 2.169t.21 2.385-.064 2.248-.129 1.542l1.744.675q1.441.559 2.551 1.053t1.703 1.018.831.962q.24.437.332 1.017t-.092 1.47q-.185.894-1.809 2.163t-4.408 1.93q-2.786.662-5.09.437-2.306-.224-4.22-.904-1.915-.68-3.465-1.816l-1.15-1.01"/>
        <path stroke="#9198e5" stroke-width="4" d="M6611.666 2260.873q-.132-.13-.186-.168-.054-.04-.313-.316-.26-.277-.847-.74-.59-.463-1.296-.804-.708-.341-1.304-.441t-1.055-.038q-.458.062-.648.274t-.207.37q-.018.157 0 .505.014.348.337.738.324.39.778.62t.862.332q.409.102 1.088.103.68 0 .964-.064.283-.065.504-.202.219-.138.56-.53.343-.39 1.096-1.788"/>
        <path stroke="#f6f7ef" stroke-width="4" d="m6708.5 1972.12-.13-.012q-.017-.02-.111-.23-.095-.21-.27-.504-.173-.294-.308-.4-.135-.105-.254-.133-.12-.028-.286-.07-.167-.04-.46.02-.29.06-.386.154-.097.095-.191.257-.093.163-.088.409.01.246.019.327.013.082.083.152t.235.15q.166.082.398.113.232.03.472.04t.415-.096q.175-.104.564-.428l.168-.206.657-.691m189.96.91q-.192-.1-.365-.218-.172-.118-.374-.24-.201-.122-.394-.166t-.392-.047q-.2 0-.33.023-.13.026-.39.226-.258.2-.29.326-.032.127-.023.215.01.089.12.23.109.144.184.204.076.059.085.093t.752.205q.11-.01 1.417-.704m96.505-97.657-.144-.354q-.091-.167-.672-.502t-.997-.432q-.415-.096-.78-.07-.363.028-.528.052-.165.025-.346.267t-.141.705q.039.463.21.666.172.203.702.395.53.19 1.429.112.899-.08 3.424-2.078m-386.851 4.013-.03-.44-.164-.621q-.08-.31-.518-.842-.44-.532-.91-.847t-1.051-.424-.872-.042-.481.266-.253.638q-.064.44-.047.593t.303.538q.287.384.577.53t.655.24.934.088q.569-.01 1.208-.253.639-.247 2.517-1.628"/>
        <path stroke="#9198e5" stroke-width="4" d="M6999.885 2263.454q-.105-.227-.442-.681t-.505-.677-.704-.576q-.536-.352-1.214-.495t-1.116-.087q-.44.057-.601.206-.162.148-.277.754-.115.605.08 1.054.195.448.518.74.324.293.688.429.365.135.736.15.37.017.71-.05.339-.065.796-.298.457-.234.825-.54t1.085-.976"/>
        <path stroke="#f6f7ef" stroke-width="4" d="M6827.193 1901.888q-.066-.026-.091-.224-.025-.2-.052-.348-.028-.148-.095-.328-.068-.18-.516-.46t-1.432-.355q-.053.162-.031.283.022.122.304.264t.505.182q.223.039.362.035.14-.01.207-.088.067-.084.082-.207.016-.123-.01-.232-.025-.11-.1-.246-.072-.138-.387-.212-.315-.075-.938.114-.624.188-.81.356l-.538.704m-187.748 189.196q-.356-.08-.424-.087-.068-.01-.214.01-.145.017-.316.048-.17.032-.301.183-.132.15-.177.262t-.108.246q-.064.135 0 .232.063.098.154.137.09.039.124.037.033 0 .086.017t.11-.041q.058-.06.086-.143t.032-.193q0-.11-.016-.15-.02-.04-.138-.066-.12-.028-.21-.02-.092.01-.153.043-.062.035-.224.689l.01.175m-16.116 75.006q-.284.342-.436.324t-.311-.01l-.196.013q-.037 0-.275.079-.238.075-.43.315t-.346.677-.135.856q-.051.11 1.11.196.118-.286.138-.677t-.05-.704q-.07-.312-.54-.817-.467-.505-.58-.776m374.988 1.535-.297.372-.422-.06q-.145-.018-.301.01-.156.026-.344.137-.188.11-.294.248t-.116.137-.07.276q-.061.276.07.576.132.3.16.323.03.022.13.02.102 0 .12-.013t.177-.322.132-.947l-.09-.47m-19.595-79.502.069.31-.107-.176q.012-.01-.124-.03-.136-.022-.3.024-.162.045-.214.125-.053.079-.077.17-.026.092-.021.25.01.157.064.294.06.137.26.24.2.105.322.099.12-.01.206-.08.084-.072.1-.252.017-.18-.01-.296-.023-.117-.262-.262t-.397-.181q-.16-.037-.274-.045-.116-.01-.18.042-.063.05-.307.053m-187.366-188.764-.098.06q-.06-.13-.113-.202-.051-.071-.12-.125-.066-.054-.34-.148-.271-.094-.45-.112-.18-.02-.327-.012-.148.01-.277.08-.128.073-.197.155-.067.08-.12.179-.05.098-.065.2t0 .204q.01.102.84.384.092-.294.026-.563-.067-.268-.255-.4-.187-.132-.261-.155t-.271-.044-.598-.171m130.34-15.284-.226-.172-.217-.13q-.387-.193-.76-.286-.374-.094-.498-.114t-.28 0-.26.12q-.103.104-.115.139t.012.093q.024.057.302.047t.523-.083q.244-.074.386-.115.14-.041.312-.211.17-.17.299-.52.128-.348.146-.532t.01-.32q-.01-.133-.112-.293t-.217-.23q-.114-.07-.277-.102-.163-.034-.29.013-.124.046-.178.085t-.08.109q-.028.07.059.232.087.163.328.238l.014-.057q.01-.095-.057-.107-.063-.012-.017.142m-209.271-.618v.043l-.19-.043q-.215 0-.492.063-.276.067-.384.215-.108.149-.16.35-.052.202.01.224.057.022.212.033.155.01.327-.11.17-.121.2-.164t.047-.162q.017-.118-.01-.161-.022-.043-.197-.2-.177-.157-.497-.165-.093.25.046.5m-25.911 134.825q-.203-.067-.435-.097t-.631-.02-.673.087q-.274.079-.477.235t-.254.26-.06.17q-.01.064.052.117.059.053.279.049.219 0 .279-.063.06-.06.065-.168.01-.11-.01-.195-.01-.086-.09-.185-.081-.1-.074-.105.01-.01-.123-.103-.13-.098-.29-.125t-.206-.01-.087.08q-.038.062-.03.092.01.03 0 .04t.187-.021q.192-.031.223-.156.03-.125-.437-.468-.057.039.062-.032m87.24-83.033-.606-.41-.342-.164q-.332-.068-.726-.037-.394.03-.71.234-.316.203-.486.592t-.104.617q.066.229.23.36.166.13.457.235.29.105.562.01.27-.097.363-.182t.175-.245.067-.3q-.015-.138-.11-.217-.093-.078-.308-.183-.215-.104-.423-.113l-.05.064q-.027.094-.145.073m96.416-1.596-.19-.25-.102.01q-.377-.462-1.855-.844-.034.018-.076.139-.042.12-.016.212.027.09.127.17t.363.094q.262.013.449-.083.188-.095.265-.18t.147-.206.017-.282-.201-.295q-.147-.133-.202-.136-.055 0-.04.165.016.167.354.58m86.418 86.899-.017-.156-.03-.298q-.096-.353-.276-.56-.18-.205-.393-.342-.213-.136-.433-.22t-.376-.1q-.155-.015-.197.029-.041.044-.073.18t-.017.237.102.187.339.115q.254.029.392.016t.255-.127l.135-.13q.019-.016-.345-.33-.365-.313-.717-.363-.351-.05-.434.08t-.255.927m461.4 47.382q-.49-.222-1.014-.3-.523-.077-.827-.046l-.44.045q-.138.014-.252.073-.115.06-.218.147-.103.088-.127.164t.025.253q.05.175.117.275t.202.227q.135.128.302.197.168.07.44.1.272.028.352-.019.08-.048.127-.102.05-.052.118-.192.068-.139.055-.21-.012-.073-.07-.13-.057-.06-.284-.144t-.313.061q-.085.145-.109.291t.01.192q.03.046.235.168.206.122 1.061.137-.01.036.02-.186.026-.221-.235-.396-.262-.176-.533-.182-.27-.01-.512.104-.24.11-1.519 2.191"/>
        <path stroke="#9198e5" stroke-width="4" d="m7296.04 2256.93-.05-.021-.052-.05q-.138-.152-.204-.23-.067-.075-.238-.143-.169-.07-.605-.106-.437-.039-.89.051-.455.092-.684.33-.23.24-.334.943-.104.702 0 1.147.103.445.375.766.271.32.475.365t.63-.048.93-.457q.503-.361.663-.535t.27-.388.112-.507q0-.294-.089-.525-.093-.23-.126-.264-.033-.033-.262-.294-.229-.26-.792-.504-.562-.245-.91-.224-.347.021-.463.316-.115.294-.01.595.107.302.248.484.14.182.35.291.211.11.418.138.208.03.277-.059.068-.088.062-.285-.01-.197-.419-.422-.414-.224-.64-.23-.228-.01-1.344.012"/>
        <path stroke="#f6f7ef" stroke-width="4" d="m7683.745 2257.748-.082-.048q-.445-.196-1.004-.472-.56-.277-1.323-.447-.763-.168-1.01-.141-.249.027-.477.117-.228.089-.275.22-.048.133-.106.423t.056.673.465.773q.351.392.6.522.25.13.727.2t.96-.028q.48-.097.79-.317.311-.222.462-.424.15-.202.218-.73.068-.525-.273-.8-.34-.273-.729-.343-.39-.07-.709.018t-.388.28q-.068.19-.086.56t.104.647.291.455q.17.177.64.367t2.202.11m-385.405-386.114q0-.372-.03-.785-.033-.412-.157-.696t-.607-.719q-.484-.435-.797-.55-.312-.117-.722-.173t-.914 0q-.503.06-1.015.351-.51.292-.758.92-.247.629-.219.928.028.298.168.664.14.365 1.238.75 1.096.385 1.791.335.693-.05 1.142-.206.45-.157.776-.376.328-.22.535-.492t.26-.615-.257-.868q-.309-.527-2.989-1.05-.478.673 2.306 1.999"/>
        <path stroke="#9198e5" stroke-width="4" d="M7683.166 1872.532q-.082-.101-.618-1.611-.042-.035-.47-.552-.43-.517-.683-.64t-.447-.164-.35.047q-.157.088-.327.595-.17.508-.129.853.04.346.128.626t.244.458q.156.177.69.296.533.12.905.074t.842-.346.742-.905.288-1.228q.017-.624-.195-1.034t-.412-.573q-.199-.165-.343-.194t-.237-.01q-.092.02-.17.107-.077.085-.132.23t-.08.56q-.027.416.055.765.083.35.792 1.396"/>
        <circle cx="7320.95" cy="2110.358" r="2" fill="#f6f7ef" stroke="#f6f7ef" stroke-width=".1"/>
        <path stroke="#f6f7ef" stroke-width="4" d="M7321.185 2112.122q-.377-.434-.66-.617-.283-.184-.435-.212t-.288-.011-.172.031q-.036.016-.147.207-.112.19-.11.34 0 .15.087.22.087.072.153.092.066.019.204.01.137-.011.181-.033.045-.021.115-.113.071-.091.076-.228.01-.137.025-.198.02-.061-.075-.203t-.202-.247q-.107-.104-.282-.125t-.26.023-.146.097q-.062.05-.457.013m196.549 1.055-.16-.089q-.189-.126-.459-.24t-.573-.211-.612-.144q-.31-.045-.756 0-.447.041-.554.261t-.106.477q0 .26.172.335t.543.096q.372.02.576-.019.204-.038.342-.184.14-.147.208-.31.07-.164.056-.308l-.015-.142-.275-.27q-.275-.267-.82-.46-.106-.01-.526-.082m-43.26-97.337-.232.027-.148.113q-.052.031-.459.011-.407-.019-.662 0-.256.023-.534.134t-.424.24q-.146.13-.209.476-.063.348 0 .544.067.194.215.373t.3.273.166.114.451.065q.436.045.937-.143.177-.252.338-.714t.233-.981.024-2.162m117.592 52.033-.205-.173-.259-.221q-.647-.455-.982-.626-.335-.172-.647-.28-.312-.105-.828-.183-.514-.079-1.082.052t-.874.487q-.306.357-.372.553-.066.195-.07.35v.316q0 .165.191.46.191.293.323.41.132.115.458.301.326.187.571.245t.755.065q.511.01 1.083-.167.571-.175 1.128-.735.558-.559.94-1.366t.782-2.309m71.448-42.99q-.418-.51-.846-.837-.429-.325-.667-.453-.238-.126-.466-.208-.227-.082-.468-.072-.24.012-.449.204-.209.193-.33.45-.123.258-.123.444 0 .187.048.29.05.103.114.164.065.062.346.214.282.151.654.165.372.013.514-.06t.39-.295.775-1.242l.362-.822m-65.224 158.938q-.529-.01-1.076.12-.547.129-.66.19t-.22.254q-.108.194.011.385.12.19.25.238.13.045.248.014.12-.03.257-.128.14-.098.203-.187.065-.089.115-.234.05-.143.065-.324.015-.183.015-.235 0-.05-.099-.468l-.254-1.105m-203.007-221.771q-.17.171-.199.196-.029.026-.2.096-.17.071-.197.104-.028.033-.26 0t-.544-.012-.739.127q-.428.106-.586.161t-.245.127q-.088.072-.113.254t.045.307.257.257.333.172.355.013q.21-.027.305-.139.097-.112.202-.325t.122-.656q-.084-.133-.62-.692l-.059-.23m-83.513 222.159-.184-.04q-.08.097-.35.106-.272.01-.548.063-.276.055-.496.189-.22.132-.379.417-.158.286-.248.49t.028.505q.118.3.286.408t.426.09q.26-.014.341-.12t.104-.292q.022-.185 0-.424-.019-.239-.108-.466-.089-.226-.543-.926m373.701-219.338q-.18-.143-.397-.45-.216-.308-.422-.533-.205-.225-.317-.323-.113-.099-.332-.194t-.342-.076q-.124.019-.233.193t-.01.365q.101.191.228.247t.276.059q.15 0 .228-.025.078-.029.188-.055.112-.027.275-.528.163-.5.125-.642t.06-.813m-131.591 104.581q0-.028-.086-.202l-.076.097q-.049-.087-.318-.125-.269-.037-.52.032-.252.069-.303.225t-.026.255.151.179.163.11.564.17q.53.14.938.136.41 0 .555-.07t.246-.19q.1-.123.147-.223.048-.1-.25-.46-.297-.36-.423-.65m79.685 2.821q-.03 0-.283-.219-.284-.116-.84-.274-.558-.157-.843-.178-.286-.021-.415 0-.129.026-.246.096t-.152.31q-.035.238.25.312.285.072.537.07.252 0 .465-.04.212-.04.362-.153.15-.114.187-.172t.107-.246q.071-.189.047-.356t-.099-.264q-.077-.098-.15-.15-.074-.052-.32-.119-.245-.067-.403-.063-.159.01-.292.048-.134.043-.397.29m-179.78 17.061q-.3-.167-.722-.33-.423-.164-.64-.234-.22-.071-.4-.104-.183-.033-.377-.045-.195-.013-.354.099-.16.113-.218.348t.042.306q.1.072.24.116t.311.035q.171-.01.246-.01t.186-.062q.113-.06.202-.146.09-.087.154-.189.065-.101 0-.365-.063-.265-.235-.516-.17-.25-.484-.4-.05 0-.479-.131m-85.128 3.299q.06.05.215-.01l-.133-.213q-.326-.103-.615-.062-.29.041-.526.154-.235.113-.483.428-.247.316-.287.705-.04.39.095.638.134.248.225.32.09.073.182.116.091.044.478.057.388.013.57-.093t.305-.279q.123-.172.138-.379.015-.206-.028-.35-.042-.146-.523-.48-.48-.336-1.622-.533-.069.017-.2-.022"/>
        <path stroke="#9198e5" stroke-width="4" d="m6677.082 2039.697-.11-.055q-.175-.123-.326-.191-.15-.068-.491-.145t-.715-.047q-.373.03-.512.08-.14.052-.364.268t-.305.519-.045.532.097.324.133.163.177.124.438.103.605-.133.4-.401q.13-.222.154-.376t-.021-.238-.184-.221q-.14-.137-.336-.245-.198-.108-.502-.204-.086.078-.501.01m66.978-54.069q-.225-.282-.323-.384l-.118-.126q-.536-.376-.85-.496-.315-.12-.98-.151-.663-.032-.92.1-.254.13-.435.328-.181.197-.273.516-.091.319-.064.562.028.244.15.413.124.169.552.254t.806.022.766-.354.529-.557q.142-.264.184-.445.042-.182-.116-.567t-.435-.552q-.278-.167-.445-.191-.166-.025-.303.01-.137.034-.948.59m63.118-13.094-.036-.218-.025-.132-.105-.192q-.066-.161-.387-.462-.322-.302-.735-.373-.414-.07-.818-.04t-.924.52q-.521.49-.69.822-.168.333-.223.648t-.01.793.15.694q.106.216.253.352.146.136.767.364.622.228 1.166.214.545-.015.816-.082.27-.068.736-.38t.674-1.098.044-1.142q-.165-.355-1.175-.677t-1.37.134m67.572 13.89-.11-.147-.134-.117q-.775-.43-.998-.47t-.4-.011-.286.212-.095.369.082.334.205.27q.136.12.64.24.505.12.714.129t.272-.016q.063-.022.145-.081.082-.058.165-.216.188-.066-1.02-1.227-.01-.096-.337-.555m66.755 57.466q-.153-.16-.412-.581-.26-.42-.343-.525t-.31-.278-.433-.212q-.207-.041-.271-.033-.064.01-.171.095-.11.086-.167.403-.06.317-.014.556.045.24.107.346t.177.223q.116.117.119.136 0 .02.285.155.282.135.67.158.388.024.546-.052t.248-.144q.089-.07.172-.158.084-.088.705-.864m46.12 89.714q-.018-.01-.182-.4l-.144-.235-.25-.296q-1.541-1.02-1.95-1.082-.407-.064-.594-.034t-.31.087q-.124.056-.291.232-.168.176-.264.352-.095.176-.15.395-.056.219 0 .772.052.553.15.704.097.15.364.476t.873.553q.607.227 1.105.179.497-.047.777-.15.28-.101.529-.263.249-.161.465-.496t.4-1.294l.16-1m-349.627.94-.17-.034q-.16-.113-.357-.302-.2-.188-.572-.422t-.643-.324-.715-.121q-.443-.031-.804.14t-.626.812-.243 1.132.13.703.355.333q.248.123.466.133t.318.017q.1.01.369-.188.269-.196.473-.441.205-.245 1.382-2.205m690.735 10.655q-1.308-.62-1.458-.684t-.827-.18-1.289.015-.813.23-.68.544q-.477.442-.73.904t-.329 1.115.04 1.133q.113.48.428.862.315.385 1.03.568.712.182 1.24.1.528-.083 1.007-.459.48-.375.734-.808.255-.434.336-.749.08-.315.115-.401.034-.087.03-.62-.01-.535-.09-.852-.084-.315-.225-.63-.14-.317-.373-.664-.232-.346-.763-.795l-.847-.84m43.446-48.069-.302-.408q-1.01-.756-1.42-.946t-.816-.255q-.407-.063-.817-.028-.41.034-.814.23-.405.193-.698.456-.293.264-.472 1.14-.18.874-.117 1.368t.296.789q.236.293.497.428t.605.179.793-.079q.45-.121.853-.468.406-.348.566-.79t.188-.78-.1-.673q-.13-.334-.29-.517-.162-.183-.32-.335-.158-.151-.435-.261t-.462-.17-.443-.018q-.259.04-.345.117t-.846.397m67.341-15.885q-.563-.415-.802-.522t-.648-.182-.539-.082q-.129-.01-.27.067-.142.073-.214.186-.07.113-.12.334t.012.386q.061.165.201.267t.31.158.548.02.51-.193.222-.332q.09-.173.12-.417.027-.242-.022-.369-.05-.127-.36-.472-.31-.346-1.085-.617-.165.087-.645.122m66.829-7.633-.208.041q-.01-.051-.146-.315-.138-.264-.238-.41-.099-.144-.179-.2t-.243-.12-.396-.061-.374.243-.168.48q-.025.234.01.496.032.262.128.391.098.13.292.252.196.12.41.188.214.07.526.109.313.04.46-.076.144-.114.206-.213.061-.098.13-.298.07-.2.064-.318-.01-.118-.092-.24-.086-.12-.086-.141 0-.022-.157-.093-.155-.07-.353-.068-.198 0-.3.14-.103.14-.475.47m68.104 2.935q-.707-1.006-.898-1.25-.19-.246-.34-.378t-.4-.303-.468-.284-.67-.232-.734-.123q-.282 0-.41.063-.129.062-.243.42-.113.36-.089.502t.225.41q.201.266.791.462.59.197.937.145t.49-.186q.141-.131.218-.263t.12-.259.05-.321q.01-.195-.11-.376-.118-.18-.37-.313-.253-.132-.514-.143-.26-.01-.46.071-.199.081-.439.232-.239.151-1.214.688m72.963-22.239-.136-.122q-.314-.519-.506-.818-.193-.298-.355-.418-.163-.12-.333-.21t-.317-.132q-.146-.04-.366-.039-.22 0-.34.134-.118.131-.122.173 0 .041-.035.166-.032.124.11.26.143.135.273.204.13.07.29.113.161.042.384.03.224-.013.337-.09.113-.079.176-.163.064-.084.093-.156.028-.073.041-.173t0-.208q-.017-.107-.136-.227t-.278-.162q-.159-.04-.236-.027-.076.012-.188.082t-.195.21q-.084.14-.192.315-.109.176-.147 1.103l.378.78m46.758-62.609q-.123-.18-.21-.728-.065-.08-.355-.679-.289-.598-.736-1.026-.448-.427-.538-.482t-.269-.117-.609-.069q-.43-.01-.884.523-.455.53-.576.947-.122.418-.084.887t.116.74q.08.27.287.473.21.204.828.317.62.112 1.05.016t.835-.373.645-.525.533-.91q.291-.662.312-1.268t-.165-.9-.632-.52-.788-.202q-.343.024-.688.291-.346.268-.598.977"/>
    </g>
</svg>
