<svg xmlns="http://www.w3.org/2000/svg" xml:space="preserve" viewBox="0 0 960 480">
    <g fill="none" stroke-linecap="round" stroke-linejoin="round">
        <path stroke="#e66465" stroke-width="3.842" d="M45.462 427.13q2.175-2.792 6.3-7.37 4.125-4.576 14.043-14.856 9.919-10.279 12.486-12.825 2.566-2.547 8.17-7.906 5.602-5.36 12.61-11.52 7.01-6.162 16.14-13.817 9.132-7.656 13.975-11.602t9.942-7.88 8.176-6.24q3.075-2.31 11.838-8.708 8.764-6.398 13.835-9.963t11.41-7.804q6.34-4.24 11.95-7.898 5.608-3.657 18.34-11.453 12.73-7.797 21.913-13.17 9.184-5.376 13.544-7.887t15.253-8.522q10.894-6.014 16.917-9.29 6.024-3.279 20.798-11.051 14.775-7.774 21.015-10.981t23.115-11.389q16.875-8.181 31.071-14.634t23.518-10.46 18.755-7.79 23.134-8.923 20.985-7.704 19.29-6.65 21.318-7.088q9.311-3.003 20.832-6.563 11.518-3.56 18.924-5.747t27.256-7.875q19.85-5.689 32.607-9.217 12.758-3.529 19.232-5.283t26.545-6.882 51.658-11.89 47.479-9.691q15.889-2.93 22.806-4.124 6.916-1.195 18.713-3.14 11.796-1.942 26.827-4.214 15.03-2.273 23.188-3.435t12.445-1.746 20.418-2.82q16.13-2.238 35.61-4.982"/>
        <path stroke="#f6f7ef" stroke-width="1.921" d="M231.904 282.394q.04-.654-.102-1.625-.141-.971-.372-1.841-.232-.87-.538-1.707-.306-.836-.838-1.72-.53-.882-1.32-1.634-.788-.752-1.993-1.158t-2.272-.372-2.224.602q-1.157.569-1.744 1.099t-1.337 1.67q-.748 1.14-1.175 2.39-.426 1.25-.358 3.423t.467 3.009q.398.834 1.347 1.719.95.884 2.076 1.32 1.124.436 2.097.476.974.04 1.648-.077.675-.117 1.859-.727 1.186-.61 2.51-2.008 1.322-1.399 3.51-7.344m342.281-142.665.01-.477-.074-.46q-.209-.954-.243-1.135-.035-.182-.447-1.538t-.698-1.994-.818-1.42-1.627-1.718-2.236-1.294-1.937-.318q-.797.042-1.49.262t-2.47 2.226q-1.78 2.007-2.406 4.087-.628 2.08-.688 3.044-.06.966.105 1.838.165.87.606 1.718.44.847 1.015 1.54.573.692 1.225 1.185.65.491 1.096.711.447.221 1.659.417 1.213.196 2.124.07.91-.127 2.475-.93 1.566-.803 2.716-1.933 1.148-1.13 1.795-2.038.646-.907 1.625-2.466M224.579 277.106l237.164-131.088m107.219-15.399L830.63 60.182m-401.48 92.305 32.316-7.497m1.311-1.122-19.96 23.085M800.109 59.7 830 59.648m1.311.812L806.54 74.071M184.255 331.946q-.222.382-.505 1.004-.116.374.504 11.234.618 10.861 1.555 17.465t1.384 9.004.772 3.633q.325 1.234.853 2.982"/>
        <path stroke="#f6f7ef" stroke-width="1.921" d="m184.16 332.129 1.238-1.343q1.947-1.124 5.078-1.963 3.13-.84 6.052-.334 2.923.505 4.368 1.148 1.447.642 3.592 2.243t3.55 3.456 1.996 3.763q.59 1.91.514 4.216-.078 2.307-1.091 4.361-1.014 2.056-4.159 4.77-3.145 2.712-13.314 5.785l-2.549.65m25.38 8.463q.09.323-.523 1.368-.159.38 4.794 15.783.152.011 1.011-1.838l1.519-3.266q.658-1.418 1.4-2.284.743-.866 1.587-1.319.845-.452 1.658-.487.815-.037 1.297.074.483.11.998.372.515.261 2.215 2.777 1.7 2.514 3.311 8.163l.6 1.9m377.103-251.218q.023.77.89 8.316.868 7.547 3.424 24.685.048.063-.083.505"/>
        <path stroke="#f6f7ef" stroke-width="1.921" d="M612.119 138.746q.2-.093 1.55-1.19 1.351-1.099 4.337-2.382t4.966-1.577q1.98-.292 3.665-.069 1.686.224 2.48.559.793.335 2.021 1.807t1.76 4.094q.532 2.624-.02 5.198t-1.23 4.006q-.68 1.433-2.328 3.551-1.65 2.118-3.412 3.507-1.763 1.388-3.953 2.27-2.188.884-3.364.99-1.175.107-1.675.112-.5 0-.956-.169-.456-.174-.814-.394-.358-.219-1.459-.797m22.101 7.418q.142.339.122.617-.02.279 0 .307.017.027.106.912.09.885.964 2.982.875 2.096 1.506 3.16.63 1.066 1.056 1.662.425.597.91 1.045.201-.164.939-1.55.735-1.388 1.323-2.403.588-1.014 1.219-1.72.63-.707 1.666-1.138 1.038-.43 1.624-.424.585.01.933 0t1.355.477q1.008.483 1.585.99.577.505 1.079 1.108.5.603.722.948l.463.726q.242.382 1.02 2.747.779 2.367 1.012 3.543m7.605-7.499q.85-.585 9.576-3.121"/>
        <path stroke="#f6f7ef" stroke-width="1.921" d="M665.753 165.863q.46.918 3.28 12.164m18.583-7.152.258-.59.393-.642q.163-.148 1.157-1.666.995-1.518 1.707-2.41.113.483.208.963t.566 3.378q.47 2.9 1.852 8.453l.512 1.823"/>
    </g>
</svg>
