<?xml version="1.0" encoding="UTF-8" standalone="no"?>
<!-- Generator: Adobe Illustrator 26.1.0, SVG Export Plug-In . SVG Version: 6.00 Build 0)  -->

<svg
   version="1.1"
   id="Layer_1"
   x="0px"
   y="0px"
   viewBox="0 0 960 480"
   style="enable-background:new 0 0 960 480;"
   xml:space="preserve"
   sodipodi:docname="afterword.svg"
   inkscape:version="1.2.1 (9c6d41e410, 2022-07-14, custom)"
   xmlns:inkscape="http://www.inkscape.org/namespaces/inkscape"
   xmlns:sodipodi="http://sodipodi.sourceforge.net/DTD/sodipodi-0.dtd"
   xmlns="http://www.w3.org/2000/svg"
   xmlns:svg="http://www.w3.org/2000/svg"><defs
   id="defs2431" /><sodipodi:namedview
   id="namedview2429"
   pagecolor="#505050"
   bordercolor="#eeeeee"
   borderopacity="1"
   inkscape:showpageshadow="0"
   inkscape:pageopacity="0"
   inkscape:pagecheckerboard="0"
   inkscape:deskcolor="#505050"
   showgrid="false"
   inkscape:zoom="0.49976245"
   inkscape:cx="560.26618"
   inkscape:cy="198.09411"
   inkscape:window-width="938"
   inkscape:window-height="1023"
   inkscape:window-x="0"
   inkscape:window-y="0"
   inkscape:window-maximized="1"
   inkscape:current-layer="Layer_1" />
<g
   id="New_Layer_14"
   opacity="1"
   transform="matrix(1.1624394,0,0,1.1624394,-76.65002,-3742.7847)"><path
     id="STROKE_922ed32d-b5d9-46bd-af54-6c13dbed5ff9"
     opacity="1"
     fill="none"
     stroke="#000000"
     stroke-width="5"
     stroke-opacity="1"
     stroke-linecap="round"
     stroke-linejoin="round"
     d="m 188.285,3374.457 q -5.568,-0.859 -8.747,-1.252 -3.179,-0.393 -8.96,-0.611 -5.78,-0.218 -10.481,0.237 -4.701,0.455 -10.449,1.79 -5.748,1.334 -9.453,2.372 -3.706,1.038 -7.817,2.388 -4.111,1.351 -6.488,2.386 -2.377,1.036 -4.738,2.318 -2.362,1.282 -6.083,4.01 -3.72,2.728 -6.232,5.183 -2.512,2.455 -4.992,6.125 -2.48,3.67 -4.605,7.833 -2.125,4.162 -3.508,7.344 -1.383,3.18 -3.29,8.576 -1.907,5.396 -3.146,12.464 -1.239,7.067 -1.549,13.271 -0.31,6.203 -0.266,9.851 0.044,3.649 1.081,11.769 1.038,8.12 2.065,12.579 1.026,4.459 2.923,9.84 1.897,5.381 5.868,12.081 3.97,6.699 6.463,9.973 2.494,3.275 3.699,4.592 1.206,1.316 1.739,1.917 0.533,0.601 5.109,4.771 4.575,4.171 9.506,7.453 4.93,3.282 8.959,5.127 4.028,1.845 7.673,3.15 3.645,1.306 5.72,2.049 2.074,0.744 9.658,3.267 7.585,2.523 13.868,3.129 6.284,0.607 11.271,0.093 4.987,-0.515 14.496,-3.908 9.508,-3.393 14.296,-5.617 4.788,-2.225 8.763,-4.42 3.974,-2.195 7.008,-3.99 3.034,-1.794 6.652,-4.255 3.618,-2.462 7.844,-6.666 4.226,-4.204 6.975,-7.753 2.749,-3.55 4.212,-5.848 1.464,-2.298 4.375,-7.974 2.912,-5.675 4.48,-9.245 1.569,-3.57 2.966,-7.486 1.396,-3.917 2.174,-6.333 0.778,-2.416 1.779,-8.749 1,-6.333 1.066,-9.583 0.065,-3.249 -0.014,-4.63 -0.079,-1.381 -0.264,-2.423 -0.185,-1.042 -0.891,-5.121 -0.707,-4.08 -1.459,-6.966 -0.753,-2.886 -1.393,-4.67 -0.64,-1.784 -1.125,-2.96 -0.486,-1.177 -2.062,-4.506 -1.576,-3.328 -2.972,-5.704 -1.396,-2.377 -1.982,-3.212 -0.586,-0.835 -3.126,-4.033 -2.541,-3.198 -4.899,-5.472 -2.358,-2.274 -3.375,-3.131 -1.018,-0.856 -3.54,-2.982 -2.522,-2.127 -2.834,-2.382 -0.313,-0.256 -3.718,-2.768 -3.405,-2.513 -5.739,-4.02 -2.335,-1.507 -3.399,-2.127 -1.065,-0.619 -4.714,-2.496 -3.649,-1.876 -6.283,-3.059 -2.635,-1.183 -5.908,-2.469 -3.273,-1.287 -6.224,-2.283 -2.95,-0.996 -5.224,-1.471 -2.274,-0.475 -3.662,-0.765 -1.388,-0.291 -3.149,-0.636 l -3.461,-0.174" /><path
     id="STROKE_a4b5766e-8f06-46a8-af4a-8ae522be1f3a"
     opacity="1"
     fill="none"
     stroke="#000000"
     stroke-width="5"
     stroke-opacity="1"
     stroke-linecap="round"
     stroke-linejoin="round"
     d="m 157.912,3457.771 -0.549,-0.48 -0.62,-0.492 q -0.222,-0.128 -2.486,-1.346 -2.264,-1.217 -4.615,-1.616 -2.352,-0.398 -3.644,-0.241 -1.293,0.157 -2.618,0.933 -1.325,0.776 -3,3.741 -1.675,2.965 -2.013,5.577 -0.337,2.613 -0.173,3.607 0.163,0.994 0.305,1.477 0.142,0.483 0.915,1.814 0.774,1.331 2.112,2.644 1.338,1.314 2.595,2.054 1.258,0.741 2.342,1.091 1.084,0.35 2.122,0.423 1.039,0.072 1.656,0.026 0.618,-0.046 1.726,-0.427 1.108,-0.381 2.927,-1.416 1.553,-1.151 2.884,-2.899 1.331,-1.747 1.733,-2.632 0.402,-0.884 0.58,-1.814 0.177,-0.93 0.187,-2.066 0.01,-1.135 -0.099,-1.819 -0.11,-0.683 -0.489,-1.458 -0.379,-0.775 -0.405,-0.903 -0.027,-0.127 -0.763,-1.404 -0.736,-1.278 -1.397,-2.538" /><path
     id="STROKE_d1a34359-e6a1-405c-a27f-f427c0bfa774"
     opacity="1"
     fill="none"
     stroke="#000000"
     stroke-width="5"
     stroke-opacity="1"
     stroke-linecap="round"
     stroke-linejoin="round"
     d="m 214.956,3454.517 q -0.118,-0.039 -0.582,-1.111 -1.238,-1.475 -2.673,-2.168 -1.435,-0.693 -3.937,-0.898 -2.502,-0.205 -3.323,-0.094 -0.82,0.11 -2.014,0.541 -1.193,0.431 -3.267,2.466 -2.073,2.035 -2.385,2.78 -0.313,0.746 -0.58,1.915 -0.267,1.169 -0.303,1.892 -0.036,0.723 -0.026,1.318 0.01,0.595 0.401,1.951 0.391,1.357 1.255,2.65 0.863,1.294 1.308,1.704 0.445,0.411 2.081,1.323 1.635,0.913 2.134,1.097 0.499,0.184 2.212,0.342 1.714,0.159 2.626,0.057 0.913,-0.102 2.535,-0.677 1.621,-0.575 2.491,-1.153 0.87,-0.577 1.584,-1.321 0.715,-0.744 1.011,-1.175 0.296,-0.432 0.581,-1.036 0.284,-0.604 0.384,-0.859 0.099,-0.256 0.302,-1.171 0.202,-0.914 0.24,-1.671 0.038,-0.758 0.087,-0.853 0.05,-0.096 -0.44,-4.452" /><path
     id="STROKE_21b7c822-21d4-456c-8e86-16f1e8d9a751"
     opacity="1"
     fill="none"
     stroke="#000000"
     stroke-width="5"
     stroke-opacity="1"
     stroke-linecap="round"
     stroke-linejoin="round"
     d="m 135.184,3503.05 0.968,0.205 7.062,0.911 q 2.161,0.374 3.128,0.565 0.966,0.191 3.005,0.526 2.039,0.334 3.419,0.524 1.381,0.19 2.184,0.284 0.802,0.095 6.705,0.442 5.902,0.347 10.851,0.31 4.948,-0.038 7.794,-0.196 2.846,-0.159 4.173,-0.259 1.328,-0.1 3.769,-0.268 2.44,-0.168 3.304,-0.268 0.864,-0.1 3.107,-0.33 2.243,-0.23 6.117,-0.896 3.874,-0.667 5.813,-1.152 1.939,-0.486 2.716,-0.685 0.777,-0.199 2.007,-0.619 1.23,-0.42 3.682,-1.407 2.452,-0.986 3.612,-1.487 1.161,-0.5 3.805,-1.823 2.643,-1.322 4.248,-2.211 1.604,-0.89 2.987,-1.586" /><path
     id="STROKE_1054ebf0-135f-4938-bf0e-9739b5ac201d"
     opacity="1"
     fill="none"
     stroke="#000000"
     stroke-width="5"
     stroke-opacity="1"
     stroke-linecap="round"
     stroke-linejoin="round"
     d="m 156.817,3550.93 q -0.538,1.477 -0.522,7.273 0.016,5.795 0.224,8.653" /><path
     id="STROKE_552ff020-fd39-4881-b2f9-69cb6eb9340b"
     opacity="1"
     fill="none"
     stroke="#000000"
     stroke-width="5"
     stroke-opacity="1"
     stroke-linecap="round"
     stroke-linejoin="round"
     d="m 215.031,3545.211 q 0.168,0.836 2.658,8.707 2.489,7.873 2.829,9.001" /><path
     id="STROKE_30c0f5fe-f97a-4906-b40c-388385d89050"
     opacity="1"
     fill="none"
     stroke="#000000"
     stroke-width="5"
     stroke-opacity="1"
     stroke-linecap="round"
     stroke-linejoin="round"
     d="m 274.861,3449.387 0.572,-0.162 q 0.138,0.042 3.39,-1.107 3.253,-1.15 4.694,-1.672" /><path
     id="STROKE_1b87fc65-224a-46e5-b0d5-67d68c8c89f7"
     opacity="1"
     fill="none"
     stroke="#000000"
     stroke-width="5"
     stroke-opacity="1"
     stroke-linecap="round"
     stroke-linejoin="round"
     d="m 88.011,3447.456 -0.592,0.23 q -0.196,0.064 -3.338,0.324 -3.141,0.26 -6.577,0.605" /><path
     id="STROKE_ac52e9a9-6c47-436d-8b10-7c43ac22d549"
     opacity="1"
     fill="none"
     stroke="#000000"
     stroke-width="5"
     stroke-opacity="1"
     stroke-linecap="round"
     stroke-linejoin="round"
     d="m 189.529,3375.269 0.166,-0.571 q -0.059,-0.146 0.664,-4.744 0.722,-4.599 1.084,-6.971" /><path
     id="STROKE_0ce1dc32-80d4-4f7d-94ea-d0d55bf11c22"
     opacity="1"
     fill="none"
     stroke="#000000"
     stroke-width="5"
     stroke-opacity="1"
     stroke-linecap="round"
     stroke-linejoin="round"
     d="m 432.162,3350.177 0.482,1.262 q 0.171,1.675 0.623,8.975 0.452,7.299 1.377,17.529 0.925,10.231 1.355,15.266 0.43,5.035 0.54,11.855 0.11,6.82 -0.18,12.155 -0.291,5.335 -0.635,14.716 -0.344,9.381 -0.301,14.133 0.043,4.751 0.228,11.576 l -0.15,1.177" /><path
     id="STROKE_5bd6a52b-4abb-4ab6-8509-1dd763996a77"
     opacity="1"
     fill="none"
     stroke="#000000"
     stroke-width="5"
     stroke-opacity="1"
     stroke-linecap="round"
     stroke-linejoin="round"
     d="m 432.396,3348.78 2.024,-0.157 3.838,-0.135 q 2.188,-0.028 5.617,-0.203 3.43,-0.176 10.291,-0.299 6.862,-0.122 11.335,-0.095 4.474,0.027 7.547,-0.055 3.074,-0.082 13.282,-1.229 10.208,-1.147 16.697,-1.747 6.488,-0.601 9.531,-0.748 3.042,-0.147 7.658,-0.279" /><path
     id="STROKE_408b995d-f9b3-44be-acb3-95b1d18b3d36"
     opacity="1"
     fill="none"
     stroke="#000000"
     stroke-width="5"
     stroke-opacity="1"
     stroke-linecap="round"
     stroke-linejoin="round"
     d="m 436.969,3460.841 0.668,-0.04 q 2.541,0.015 2.833,0.016 0.293,0 2.798,0.123 2.505,0.122 4.641,0.414 2.135,0.292 3.728,0.513 1.593,0.221 4.305,0.685 2.712,0.464 5.187,0.885 2.475,0.42 7.127,0.71 4.651,0.29 14.358,0.209 9.706,-0.079 15.398,-0.115 5.693,-0.036 13.312,-0.021 7.62,0.014 10.051,0.16 2.432,0.146 5.334,-0.075 0.674,-0.248 1.696,-0.374" /><path
     id="STROKE_518094e9-f65d-49c6-a2fb-efd214bd3c27"
     opacity="1"
     fill="none"
     stroke="#000000"
     stroke-width="5"
     stroke-opacity="1"
     stroke-linecap="round"
     stroke-linejoin="round"
     d="m 523.236,3344.457 q 0.038,2.507 0.014,2.869 -0.024,0.362 0.023,4.381 0.047,4.019 0.256,7.529 0.209,3.511 0.562,11.975 0.353,8.464 0.162,21.059 -0.19,12.595 -0.182,23.565 0.009,10.97 0.053,12.491 0.044,1.52 0.145,3.823 0.102,2.304 0.17,4.321 0.068,2.018 0.434,6.533 0.366,4.515 0.587,6.464 0.221,1.948 0.488,4.05 0.267,2.101 0.678,7.14 l 0.013,1.031" /><path
     id="STROKE_a4e31dff-5c9e-4d3c-8df5-15b537b7e03a"
     opacity="1"
     fill="none"
     stroke="#000000"
     stroke-width="5"
     stroke-opacity="1"
     stroke-linecap="round"
     stroke-linejoin="round"
     d="m 525.321,3353.95 q 0.289,0.549 4.172,3.902 2.555,24.154 2.599,28.026 0.044,3.872 0.066,5.726 0.022,1.854 0.035,1.897 0.014,0.043 0.024,5.207 0.01,5.163 -0.025,7.495 -0.034,2.332 -0.067,5.932 -0.033,3.6 -0.108,6.285 -0.075,2.686 -0.112,7.701 -0.036,5.015 -0.027,9.378 0.01,4.364 0.059,8.581 0.049,4.217 0.171,7.947 0.123,3.731 0.255,6.297 0.132,2.567 0.23,6.084 0.099,3.517 0.082,3.978 -0.017,0.46 -0.165,1.339" /><path
     id="STROKE_66befe9e-dac0-4013-8c64-66a148c6f222"
     opacity="1"
     fill="none"
     stroke="#000000"
     stroke-width="5"
     stroke-opacity="1"
     stroke-linecap="round"
     stroke-linejoin="round"
     d="m 528.787,3358.05 q 1.167,0.98 2.137,1.758 0.969,0.777 1.077,0.885 0.107,0.109 0.868,0.678 0.761,0.569 1.561,1.327 0.8,0.758 1.863,2.114 1.063,1.355 1.246,1.653 0.184,0.297 0.803,1.563 l 0.684,2.022 q 0.103,0.569 0.74,4.725 0.638,4.156 0.844,6.913 0.207,2.758 0.329,4.189 0.122,1.432 0.248,4.029 0.126,2.596 0.222,8.072 0.096,5.476 0.069,11.012 -0.028,5.535 -0.054,8.265 -0.026,2.73 -0.024,3.215 0.002,0.486 -0.062,3.802 -0.063,3.317 -0.117,8.576 -0.055,5.259 -0.051,8.235 0.004,2.975 0.022,6.809 0.017,3.833 0.038,5.921 0.021,2.089 -0.051,7.25 -0.071,5.162 -0.221,7.902 -0.149,2.741 -0.285,4.65 -0.136,1.909 -0.309,3.468 -0.173,1.559 -0.517,3.458" /><path
     id="STROKE_ba8d5c68-fe0f-4929-8fdb-a92a8a9fdb72"
     opacity="1"
     fill="none"
     stroke="#000000"
     stroke-width="5"
     stroke-opacity="1"
     stroke-linecap="round"
     stroke-linejoin="round"
     d="m 436.735,3462 0.663,0.032 q 1.091,0.215 1.878,0.446 0.787,0.231 1.653,0.44 0.866,0.21 1.258,0.27 0.393,0.06 1.918,0.38 1.526,0.32 2.848,0.606 1.323,0.285 2.044,0.407 0.721,0.122 1.1,0.157 0.38,0.035 2.627,0.551 2.247,0.516 4.224,0.811 1.977,0.295 4.24,0.521 2.263,0.226 4.269,0.306 2.005,0.081 5.179,0.271 3.173,0.19 5.714,0.403 2.541,0.213 3.46,0.317 0.919,0.105 5.263,0.52 4.344,0.414 6.841,0.705 2.496,0.29 5.67,0.629 3.175,0.339 4.15,0.421 0.976,0.083 4.367,0.384 3.391,0.3 5.661,0.505 2.27,0.204 3.732,0.365 1.462,0.16 2.118,0.253 0.655,0.092 4.705,0.304 4.05,0.213 4.769,0.188" /><path
     id="STROKE_8c0355d8-db73-4388-9712-49526b0420c1"
     opacity="1"
     fill="none"
     stroke="#000000"
     stroke-width="5"
     stroke-opacity="1"
     stroke-linecap="round"
     stroke-linejoin="round"
     d="m 531.276,3473.276 q -0.117,-0.148 0.217,-0.491 0.081,0.117 -0.834,-0.816" /><path
     id="STROKE_0107e5a5-ea79-4b55-b978-5f46c738aec8"
     opacity="1"
     fill="none"
     stroke="#000000"
     stroke-width="5"
     stroke-opacity="1"
     stroke-linecap="round"
     stroke-linejoin="round"
     d="m 540.549,3480.006 q -0.897,-0.148 -3.887,-0.147 -2.99,0 -5.893,-0.287 -2.902,-0.288 -3.336,-0.364 -0.434,-0.075 -1.89,-0.494 -1.456,-0.419 -4.368,-1.02 -2.912,-0.601 -4.921,-0.965 -2.009,-0.364 -2.117,-0.373 -0.109,-0.01 -3.123,-0.656 -3.015,-0.647 -5.519,-0.99 -2.504,-0.342 -4.387,-0.642 -1.884,-0.301 -2.838,-0.504 -0.954,-0.203 -2.158,-0.4 -1.205,-0.196 -5.327,-0.838 -4.123,-0.641 -7.16,-1.136 -3.037,-0.494 -4.648,-0.744 -1.612,-0.25 -4.389,-0.868 -2.777,-0.617 -5.507,-1.216 -2.73,-0.599 -5.785,-1.299 -3.054,-0.699 -4.232,-0.95 -1.177,-0.252 -5.614,-1.379 -4.437,-1.127 -6.47,-1.667 -2.033,-0.541 -4.553,-1.299 -2.52,-0.758 -3.009,-0.896 -0.49,-0.137 -0.978,-0.245 -0.488,-0.108 -3.795,-1.022 -1.195,-0.623 -3.015,-1.245" /><path
     id="STROKE_d3a879f7-0ddb-4889-8316-c285162a86b6"
     opacity="1"
     fill="none"
     stroke="#000000"
     stroke-width="5"
     stroke-opacity="1"
     stroke-linecap="round"
     stroke-linejoin="round"
     d="m 449.326,3381.078 q 0.009,0.291 -0.102,1.189 -0.11,0.898 -0.341,11.189 -0.231,10.291 -0.215,15.008 0.017,4.717 0.11,7.984 0.093,3.267 0.177,4.347 0.085,1.079 0.275,2.517 0.19,1.438 0.506,3.201 0.316,1.764 0.774,3.261 0.459,1.497 0.886,2.574 0.428,1.077 0.661,1.61 0.232,0.532 0.594,1.114 0.362,0.583 0.705,1.004 0.343,0.421 1.47,1.417 1.128,0.997 1.921,1.501 0.792,0.504 1.653,0.877 0.862,0.373 3.286,0.958 2.424,0.584 3.425,0.749 1.001,0.165 2.798,0.275 1.798,0.111 3.751,0.07 1.954,-0.042 3.292,-0.192 1.338,-0.15 4.01,-0.636 2.673,-0.485 4.141,-0.74 1.468,-0.255 2.768,-0.457 1.299,-0.202 1.975,-0.29 0.677,-0.087 3.998,-0.493 3.321,-0.406 5.49,-0.75 2.169,-0.345 4.876,-0.972 2.707,-0.627 3.897,-1.143 1.189,-0.516 3.769,-1.963 l 1.892,-2.778 q 0.396,-0.407 1.156,-6.156 0.76,-5.749 0.42,-10.957 -0.34,-5.207 -0.883,-9.522 -0.543,-4.315 -4.869,-18.949 -0.579,-0.89 -1.007,-1.261 -0.428,-0.372 -1.324,-0.887 -0.897,-0.514 -2.629,-1.152 -1.733,-0.638 -2.846,-0.919 -1.113,-0.281 -1.149,-0.279 -0.035,10e-4 -2.276,-0.469 -2.24,-0.469 -4.509,-0.735 -2.269,-0.266 -3.85,-0.397 -1.582,-0.131 -4.093,-0.329 -2.512,-0.197 -4.238,-0.355 -1.726,-0.158 -3.328,-0.323 -1.602,-0.166 -2.674,-0.243 -1.072,-0.076 -5.392,-0.129 -4.32,-0.052 -5.269,-0.037 -0.948,0.015 -1.192,0 -0.243,-0.01 -2.513,0.16 -2.269,0.17 -2.854,0.307 -0.584,0.137 -0.7,0.19 -0.115,0.054 -1.17,0.276 -1.054,0.222 -1.588,0.318 -0.534,0.095 -1.048,0.257 -0.515,0.161 -0.746,0.241 -0.231,0.079 -3.339,1.301" /><path
     id="STROKE_ce3a782b-eeca-4b7b-85a6-01ae324499c7"
     opacity="1"
     fill="none"
     stroke="#000000"
     stroke-width="5"
     stroke-opacity="1"
     stroke-linecap="round"
     stroke-linejoin="round"
     d="m 458.131,3402.798 0.269,-0.617 q 0.875,-1.389 2.431,-3.479 1.557,-2.09 2.587,-2.905 1.03,-0.814 1.669,-1.02 0.639,-0.206 1.168,-0.114 0.529,0.092 0.783,0.226 0.254,0.133 0.903,0.76 0.649,0.628 1.309,2.531 0.661,1.903 0.69,3.252 0.03,1.35 0.006,1.616 -0.023,0.266 -0.194,1.248 -0.172,0.982 -0.42,1.719 -0.248,0.737 -0.373,1.584 0.047,0.115 0.744,0.171 0.698,0.056 1.247,0.061 0.549,0 1.269,0.175 0.72,0.169 2.242,1.04 1.522,0.87 1.835,1.11 0.314,0.239 1.137,1.112 0.823,0.872 1.328,2.785 0.505,1.913 0.412,2.884 -0.094,0.971 -0.269,1.518 -0.175,0.547 -0.498,1.071 -0.324,0.524 -2.54,2.229 -2.216,1.706 -4.288,2.283 -2.073,0.577 -3.458,0.618 -1.386,0.042 -3.621,-0.594 -2.234,-0.635 -4.411,-1.383 -1.153,0.042 -2.02,-0.256" /><path
     id="STROKE_cd5bb31d-f219-479d-8eab-d44ae2410b0d"
     opacity="1"
     fill="none"
     stroke="#000000"
     stroke-width="5"
     stroke-opacity="1"
     stroke-linecap="round"
     stroke-linejoin="round"
     d="m 500.882,3402.025 q -0.779,-1.454 -0.971,-1.749 -0.193,-0.294 -0.375,-0.622 -0.182,-0.329 -0.605,-0.915 -0.424,-0.586 -1.865,-1.736 -1.442,-1.15 -2.176,-1.474 -0.734,-0.323 -2.18,-0.557 -1.446,-0.233 -2.095,-0.096 -0.649,0.138 -1.161,0.439 -0.512,0.302 -0.879,0.646 -0.367,0.345 -0.571,0.439 -0.203,0.094 -1.284,2.528 -1.081,2.433 -1.227,4.071 -0.147,1.637 -0.092,2.982 0.055,1.345 0.173,2.111 0.118,0.765 0.586,2.17 0.468,1.404 1.038,2.642 0.57,1.237 1.45,2.562 0.881,1.325 1.073,1.518 0.193,0.192 0.838,0.851 0.645,0.659 1.369,1.216 0.724,0.556 1.249,0.873 0.525,0.316 1.65,0.51 1.125,0.193 1.863,0.173 2.572,-1.045 3.015,-1.395 0.443,-0.349 0.822,-0.78 0.378,-0.432 0.988,-1.533 0.61,-1.101 0.939,-2.329 0.33,-1.227 0.415,-1.923 0.085,-0.695 0.149,-2.388 0.065,-1.694 -0.071,-2.828 -0.136,-1.134 -0.266,-1.613 -0.13,-0.479 -0.277,-0.828 -0.146,-0.349 -1.756,-4.896" /><path
     id="STROKE_9ca70446-2d89-4e68-a891-c29f6bcd7f55"
     opacity="1"
     fill="none"
     stroke="#000000"
     stroke-width="5"
     stroke-opacity="1"
     stroke-linecap="round"
     stroke-linejoin="round"
     d="m 616.445,3515.552 -0.866,-0.32 q -0.562,-0.034 -3.171,-0.294 -2.609,-0.261 -4.34,-0.074 -1.731,0.186 -2.529,0.45 -0.798,0.265 -1.892,0.967 -1.094,0.702 -1.917,1.589 -0.823,0.886 -1.252,1.703 -0.428,0.816 -0.828,2.589 -0.4,1.772 -0.37,2.921 0.031,1.148 0.238,2.112 0.206,0.963 1.305,2.653 1.098,1.69 2.054,2.558 0.957,0.869 1.72,1.25 0.763,0.382 1.972,0.667 1.209,0.284 3.575,0.146 2.367,-0.138 3.009,-0.367 0.642,-0.229 1.353,-0.677 0.711,-0.448 1.984,-1.927 1.272,-1.479 1.698,-2.271 0.427,-0.792 0.745,-1.904 0.318,-1.113 0.372,-1.317 0.053,-0.204 0.073,-1.502 0.02,-1.298 -0.064,-1.869 -0.084,-0.571 -0.226,-1.506 -0.142,-0.934 -0.279,-1.438 -0.138,-0.503 -0.257,-0.722 -0.12,-0.219 -0.204,-0.521 -0.084,-0.302 -1.754,-4.293" /><path
     id="STROKE_398d53bc-7ae3-4eb6-95fc-45ebb766a7f3"
     opacity="1"
     fill="none"
     stroke="#000000"
     stroke-width="5"
     stroke-opacity="1"
     stroke-linecap="round"
     stroke-linejoin="round"
     d="m 617.211,3513.16 q 0.278,-0.467 0.417,-0.598 0.139,-0.132 0.858,-1.349 0.719,-1.217 2.568,-4.627 1.849,-3.411 4.5,-9.159 2.651,-5.748 4.575,-9.683 1.924,-3.935 4.926,-9.152 3.001,-5.217 4.209,-7.23 1.207,-2.013 1.625,-2.762 0.418,-0.748 3.327,-5.468 l 1.219,-2.222" /><path
     id="STROKE_4debf960-3d68-4510-94a8-2c60e641e4ff"
     opacity="1"
     fill="none"
     stroke="#000000"
     stroke-width="5"
     stroke-opacity="1"
     stroke-linecap="round"
     stroke-linejoin="round"
     d="m 660.578,3445.994 -0.622,-0.322 -0.887,-0.436 q -1.461,-0.595 -3.783,-1 -2.322,-0.405 -3.658,-0.327 -1.336,0.078 -2.157,0.3 -0.82,0.222 -1.558,0.657 -0.738,0.435 -1.293,0.918 -0.556,0.482 -1.04,1.334 -0.485,0.852 -0.706,1.538 -0.222,0.686 -0.373,2.109 -0.152,1.423 -0.113,2.182 0.04,0.759 0.071,1.218 0.031,0.458 0.607,2.103 0.577,1.644 1.404,2.71 0.828,1.066 1.516,1.552 0.687,0.486 1.08,0.669 0.394,0.183 2.024,0.46 1.63,0.278 2.762,0.143 1.132,-0.135 2.15,-0.55 1.019,-0.415 1.823,-0.98 0.805,-0.564 1.25,-0.985 0.445,-0.421 0.927,-1.149 0.482,-0.729 0.858,-1.721 0.375,-0.991 0.489,-1.48 0.114,-0.49 0.253,-0.725 0.139,-0.234 -0.068,-4.355 l -0.573,-2.541" /><path
     id="STROKE_4cbfa525-4a4b-40f1-be7b-021a66e8175f"
     opacity="1"
     fill="none"
     stroke="#000000"
     stroke-width="5"
     stroke-opacity="1"
     stroke-linecap="round"
     stroke-linejoin="round"
     d="m 621.55,3525.282 q 1.467,-0.447 2.27,-0.747 0.803,-0.3 3.887,-1.578 3.084,-1.279 3.788,-1.512 0.704,-0.233 4.233,-1.563 3.528,-1.33 4.655,-1.771 1.126,-0.442 3.273,-1.171 2.147,-0.728 3.45,-1.193 1.302,-0.466 2.395,-0.866 1.092,-0.4 6.058,-2.025 4.965,-1.625 6.785,-2.218 1.82,-0.594 2.596,-0.826 0.776,-0.231 2.844,-0.91 2.069,-0.678 4.025,-1.295 1.955,-0.617 5.091,-1.47 l 2.544,-0.718" /><path
     id="STROKE_444e2f7e-30a9-4fc8-b495-d46a0fe85342"
     opacity="1"
     fill="none"
     stroke="#000000"
     stroke-width="5"
     stroke-opacity="1"
     stroke-linecap="round"
     stroke-linejoin="round"
     d="m 704.946,3499.477 -0.484,-0.465 -0.755,-0.545 q -0.995,-0.563 -2.43,-1.342 -1.436,-0.779 -3.163,-1.348 -1.727,-0.569 -2.915,-0.674 -1.187,-0.105 -2.964,0.209 -1.777,0.313 -2.575,0.684 -0.798,0.371 -1.175,0.628 -0.378,0.257 -1.204,1.04 -0.826,0.783 -1.645,2.235 -0.818,1.453 -1.028,2.478 -0.209,1.026 -0.137,1.747 0.072,0.721 1.157,2.309 1.085,1.587 1.693,2.05 0.608,0.464 1.177,0.703 0.57,0.239 1.394,0.407 0.825,0.168 2.345,0.162 1.519,-0.01 2.666,-0.3 1.146,-0.294 2.178,-0.689 1.031,-0.396 2.592,-1.356 l 1.359,-1.112 1.339,-1.524 q 1.071,-1.658 2.043,-3.128" /><path
     id="STROKE_29612c3f-0438-4996-b88b-ef0288efa71a"
     opacity="1"
     fill="none"
     stroke="#000000"
     stroke-width="5"
     stroke-opacity="1"
     stroke-linecap="round"
     stroke-linejoin="round"
     d="m 688.186,3509.594 -0.285,0.137 q -1.289,0.864 -3.005,2.144 -1.715,1.281 -3.653,2.812 -1.937,1.531 -3.965,3.286 -2.028,1.754 -2.912,2.571 -0.885,0.816 -1.099,1.064 -0.214,0.249 -3.334,3.217 -3.12,2.967 -5.242,4.962 -2.122,1.995 -3.739,3.563 -1.618,1.568 -2.972,2.89 -1.354,1.322 -2.275,2.183 -0.92,0.861 -5.102,4.642" /><path
     id="STROKE_1cbf21a3-b0db-41ca-8673-797771eae9a4"
     opacity="1"
     fill="none"
     stroke="#000000"
     stroke-width="5"
     stroke-opacity="1"
     stroke-linecap="round"
     stroke-linejoin="round"
     d="m 650.54,3550.716 -0.299,-0.608 q -0.51,-0.85 -0.941,-1.397 -0.43,-0.548 -0.854,-0.877 -0.425,-0.329 -1.038,-0.649 -0.613,-0.319 -2.12,-0.643 -1.506,-0.325 -2.55,-0.323 -1.044,10e-4 -1.634,0.137 -0.591,0.137 -1.12,0.347 -0.529,0.211 -1.964,0.896 -0.15,0.061 -1.019,0.938 -0.869,0.877 -1.276,1.694 -0.407,0.818 -0.613,1.397 -0.205,0.58 -0.208,1.578 -0.003,0.997 0.009,1.206 0.013,0.209 0.324,1.118 0.312,0.91 1.093,1.89 0.782,0.981 1.091,1.183 0.308,0.202 2.34,0.7 2.032,0.498 2.874,0.485 0.841,-0.012 1.785,-0.226 0.943,-0.214 2.395,-0.853 1.452,-0.638 2.667,-1.476 1.215,-0.839 1.768,-1.701 0.554,-0.862 1.906,-2.498" /><path
     id="STROKE_bad25e5f-8d0d-4bf3-b349-8817889ff762"
     opacity="1"
     fill="none"
     stroke="#000000"
     stroke-width="5"
     stroke-opacity="1"
     stroke-linecap="round"
     stroke-linejoin="round"
     d="m 714.241,3432.698 q -1.013,-0.305 -1.776,-0.45 -0.763,-0.145 -2.646,-0.313 -1.882,-0.168 -3.918,0.041 -2.036,0.208 -3.66,1.034 -1.625,0.826 -2.252,1.391 -0.626,0.566 -1.636,2.534 -1.01,1.969 -1.096,2.25 -0.087,0.281 -0.213,1.589 -0.126,1.308 -0.073,1.987 0.053,0.679 0.33,1.645 0.276,0.967 0.398,1.402 0.123,0.436 0.712,1.295 0.59,0.86 1.014,1.235 0.423,0.376 0.908,0.762 0.486,0.386 1.355,0.986 0.869,0.601 3.259,0.852 2.389,0.251 3.199,0.139 0.81,-0.113 1.406,-0.348 0.596,-0.236 2.945,-2.304 1.601,-2.678 1.886,-3.664 0.284,-0.987 0.448,-2.583 0.165,-1.595 0.172,-2.006 0.006,-0.41 -0.433,-2.435 -0.44,-2.025 -1.18,-4.876" /><path
     id="STROKE_bb137cd9-7b10-45db-8810-1bba9dac550a"
     opacity="1"
     fill="none"
     stroke="#000000"
     stroke-width="5"
     stroke-opacity="1"
     stroke-linecap="round"
     stroke-linejoin="round"
     d="m 641.947,3545.22 q 2.771,-7.113 3.901,-10.107 1.13,-2.995 1.759,-4.494 0.629,-1.499 1.31,-3.114 0.681,-1.615 1.34,-3.179 0.66,-1.564 1.211,-2.772 0.551,-1.208 1.413,-2.994 0.863,-1.787 2.933,-5.762 2.071,-3.975 3.754,-7.111 1.684,-3.136 2.33,-4.376 0.645,-1.241 1.838,-3.441 1.193,-2.2 3.332,-5.942 2.139,-3.741 4.161,-7.161 2.023,-3.419 3.055,-5.106 1.032,-1.686 2.218,-3.56 1.186,-1.875 2.393,-3.718 1.207,-1.844 2.734,-4.213 1.528,-2.369 3.477,-5.395 1.949,-3.026 2.374,-3.635 0.425,-0.609 1.496,-2.213 1.071,-1.604 2.239,-3.348 2.125,-2.867 3.99,-5.653" /><path
     id="STROKE_7f0f9daf-0cb8-49e6-84df-c65a65825639"
     opacity="1"
     fill="none"
     stroke="#000000"
     stroke-width="5"
     stroke-opacity="1"
     stroke-linecap="round"
     stroke-linejoin="round"
     d="m 664.131,3446.157 q 0.236,-0.145 0.605,-0.234 0.37,-0.089 1.814,-0.688 1.444,-0.6 6.156,-2.449 4.712,-1.85 6.959,-2.369 2.246,-0.519 3.79,-0.804 1.543,-0.285 3.144,-0.73 1.602,-0.445 2.705,-0.708 1.104,-0.263 1.73,-0.385 0.626,-0.122 4.107,-0.754" /><path
     id="STROKE_7df5f652-470f-4e0f-9676-288b066a28a0"
     opacity="1"
     fill="none"
     stroke="#000000"
     stroke-width="5"
     stroke-opacity="1"
     stroke-linecap="round"
     stroke-linejoin="round"
     d="m 657.409,3371.341 q -1.855,0.425 -4.091,0.958 -2.235,0.534 -3.4,0.978 -1.165,0.444 -2.281,1.21 -1.115,0.766 -1.703,1.312 -0.587,0.545 -0.903,0.923 -0.317,0.379 -0.855,1.271 -0.538,0.892 -0.817,1.746 -0.28,0.854 -0.363,1.446 -0.082,0.592 -0.155,1.391 -0.072,0.8 0.429,2.853 0.5,2.053 0.992,2.855 0.492,0.801 1.019,1.365 0.527,0.564 1.399,1.102 0.873,0.538 2.135,0.88 1.263,0.342 2.228,0.359 0.965,0.018 1.388,-0.012 0.423,-0.03 2.315,-0.757 1.891,-0.727 2.369,-1.052 0.478,-0.325 1.804,-1.7 1.325,-1.375 2.262,-2.905 0.729,-1.734 1.011,-3.679 0.282,-1.945 0.285,-2.685 0.002,-0.741 -0.208,-1.948 -0.211,-1.207 -0.369,-1.724 -0.159,-0.516 -0.394,-1.017 -0.235,-0.501 -0.442,-0.787 -0.208,-0.286 -0.447,-0.621 -0.24,-0.336 -2.123,-3.693" /><path
     id="STROKE_a38fa3a6-6867-4291-a5f0-ac79bac7d4f6"
     opacity="1"
     fill="none"
     stroke="#000000"
     stroke-width="5"
     stroke-opacity="1"
     stroke-linecap="round"
     stroke-linejoin="round"
     d="m 650.306,3392.601 0.085,0.427 -0.007,2.33 q -0.306,4.227 -0.354,11.69 -0.049,7.462 -0.17,20.087 -0.12,12.626 -0.341,15.383" /><path
     id="STROKE_d745c111-8cd6-4420-a60c-59efbd843118"
     opacity="1"
     fill="none"
     stroke="#000000"
     stroke-width="5"
     stroke-opacity="1"
     stroke-linecap="round"
     stroke-linejoin="round"
     d="m 776.569,3358.007 0.17,0.859 q 0.08,1.256 0.315,7.286 0.234,6.029 0.553,12.544 0.319,6.514 0.52,10.977 0.201,4.463 0.269,6.678 0.068,2.215 0.458,7.326 0.39,5.11 0.778,8.81 0.389,3.7 0.632,6.189 0.243,2.49 1.03,8.734 0.787,6.244 1.372,16.369 0.584,10.126 0.63,15.02 0.045,4.894 0.098,16.038 0.053,11.145 0.107,14.335 0.053,3.19 0.249,7.91 0.197,4.719 0.327,7.219 0.13,2.5 0.267,3.966 0.137,1.465 0.163,1.648 0.027,0.182 0.122,1.714 0.096,1.531 0.128,2.716 0.032,1.184 0.101,2.012 0.07,0.829 -0.335,2.782" /><path
     id="STROKE_878be621-0343-4468-a3e2-006eb7bbc749"
     opacity="1"
     fill="none"
     stroke="#000000"
     stroke-width="5"
     stroke-opacity="1"
     stroke-linecap="round"
     stroke-linejoin="round"
     d="m 775.654,3358.245 1.237,-0.279 q 1.214,-0.322 1.763,-0.402 0.549,-0.079 1.747,-0.141 1.199,-0.061 2.402,-0.18 1.202,-0.119 3.672,-0.516 2.47,-0.397 2.733,-0.462 0.263,-0.066 6.233,-0.371 5.969,-0.306 9.668,-0.43 3.698,-0.124 5.732,-0.217 2.035,-0.093 4.596,-0.189 2.562,-0.097 6.212,-0.373 3.651,-0.276 5.171,-0.414 1.52,-0.137 2.618,-0.222 1.097,-0.085 2.907,-0.204 1.809,-0.118 3.601,-0.262 1.791,-0.143 4.111,-0.346 2.319,-0.203 4.114,-0.316 1.795,-0.113 6.84,-0.4 5.044,-0.286 6.041,-0.32 0.996,-0.035 4.45,-0.365 3.454,-0.33 3.913,-0.377 0.46,-0.046 3.043,-0.157 2.584,-0.112 7.289,-0.084" /><path
     id="STROKE_1fb8e7df-07d3-471b-9d9b-1bcf9b85f24d"
     opacity="1"
     fill="none"
     stroke="#000000"
     stroke-width="5"
     stroke-opacity="1"
     stroke-linecap="round"
     stroke-linejoin="round"
     d="m 875.683,3351.753 q 0.046,0.638 -0.068,5.387 -0.113,4.748 -0.277,8.703 -0.164,3.955 -0.265,8.548 -0.1,4.593 0.095,12.637 0.196,8.045 0.674,15.727 0.478,7.683 0.643,11.529 0.165,3.846 0.264,6.989 0.099,3.144 0.17,4.837 0.072,1.693 0.201,4.244 0.13,2.552 0.17,3.667 0.04,1.115 0.149,6.594 0.11,5.479 0.282,13.825 0.172,8.347 0.66,16.067 0.489,7.721 0.712,12.667 0.223,4.946 0.458,9.517 0.234,4.571 0.444,9.536 0.209,4.964 0.225,6.454 0.016,1.491 -0.044,3.38 -0.06,1.889 -0.324,3.84" /><path
     id="STROKE_18b31896-32da-4d65-b91f-fb5cd7bef536"
     opacity="1"
     fill="none"
     stroke="#000000"
     stroke-width="5"
     stroke-opacity="1"
     stroke-linecap="round"
     stroke-linejoin="round"
     d="m 790.949,3376.72 q 0.095,0.684 -0.022,2.595 -0.116,1.912 -0.047,4.302 0.069,2.389 0.445,4.451 0.376,2.061 1.495,4.306 h 0.258 q 0.919,-0.552 0.986,-0.544 0.067,0.01 0.694,-0.929 0.628,-0.936 0.982,-1.684 0.355,-0.747 0.829,-2 0.474,-1.252 0.711,-2.006 0.237,-0.753 0.504,-1.647 0.267,-0.893 0.54,-1.533 0.272,-0.64 0.282,-0.679 0.009,-0.039 0.613,-0.722 0.604,-0.681 0.914,-0.8 0.31,-0.119 0.849,-0.026 l 0.7,0.52 0.511,0.644 q 0.316,0.188 0.746,2.141 0.429,1.954 0.526,2.962 0.097,1.007 0.335,1.787 0.238,0.779 0.469,1.172 0.231,0.392 0.414,0.554 0.182,0.161 0.416,0.184 0.233,0.023 1.093,-0.673 0.396,-0.538 1.071,-3.057 0.676,-2.52 1.162,-4.536 0.487,-2.016 0.77,-2.889 0.284,-0.872 0.431,-1.141 0.146,-0.27 0.802,-0.671 0.369,0.071 0.834,0.592 0.466,0.521 0.721,1.061 0.255,0.539 0.47,1.327 0.215,0.788 0.389,1.7 0.173,0.913 0.336,2.31 0.162,1.397 0.204,2.138 0.041,0.74 0.319,2.498 0.277,1.757 0.56,2.836 0.282,1.079 0.717,1.608 0.435,0.529 0.57,0.559 0.136,0.03 0.354,-0.036 0.218,-0.066 0.463,-0.313 0.245,-0.247 0.737,-1.626 0.491,-1.38 0.729,-2.615 0.238,-1.235 0.303,-1.566 0.065,-0.329 0.464,-2.8 0.399,-2.471 0.734,-3.836 0.336,-1.366 1.4,-3.09 0.959,-0.012 1.349,0.288 0.391,0.3 0.681,0.599 0.29,0.298 0.445,0.585 0.154,0.286 0.614,2.123 0.459,1.838 0.584,2.524 0.125,0.686 0.239,1.822 0.113,1.137 0.135,1.538 0.021,0.402 0.112,1.211 0.092,0.81 0.263,1.698 0.171,0.887 0.291,1.438 0.121,0.55 0.357,0.988 0.236,0.438 0.229,0.476 -0.006,0.039 1.017,0.598 0.839,-1.455 1.895,-5.233 1.056,-3.779 1.607,-7.757 0.551,-3.978 0.688,-5.051 0.136,-1.074 0.187,-1.517 0.051,-0.442 0.251,-1.199 0.2,-0.757 0.4,-1.027 0.2,-0.27 0.656,-0.361 0.455,-0.092 0.702,0.113 0.248,0.204 0.92,1.484 0.673,1.28 1.203,3.951 0.529,2.673 0.741,4.651 0.212,1.979 0.743,4.566 0.531,2.587 0.903,2.987 0.371,0.4 0.423,0.333 l 0.316,-0.115 q 0.387,-0.422 0.657,-0.702 0.27,-0.28 1.012,-1.877 0.741,-1.597 1.047,-2.343 0.306,-0.745 0.686,-1.475 0.379,-0.729 0.573,-0.98 0.193,-0.252 0.505,-0.461 0.313,-0.209 0.48,-0.265 0.168,-0.055 0.484,-0.056 0.316,0 0.643,0.32 0.326,0.323 0.69,0.752 0.363,0.429 0.688,0.867 0.324,0.437 0.97,1.945 0.645,1.507 1.167,2.742 0.522,1.235 0.626,1.449 0.104,0.213 0.366,0.558 0.263,0.345 0.725,0.665 0.463,0.32 0.758,0.317 0.295,0 0.3,-0.03 0.005,-0.028 0.628,-1.042 0.623,-1.015 1.123,-3.182 0.499,-2.166 0.775,-4.099 0.276,-1.933 0.526,-3.711 0.249,-1.779 0.416,-2.514 0.166,-0.735 0.204,-0.886 0.038,-0.151 0.397,-0.533 0.36,-0.381 0.593,-0.381 0.225,0.226 0.674,1.862 0.45,1.636 0.487,5.197 0.038,3.561 -0.138,5.198 -0.176,1.638 -0.33,2.724" /><path
     id="STROKE_13a12298-84d5-4e2c-aabf-03a31fe9cefb"
     opacity="1"
     fill="none"
     stroke="#000000"
     stroke-width="5"
     stroke-opacity="1"
     stroke-linecap="round"
     stroke-linejoin="round"
     d="m 790.181,3425.01 q 0.329,-0.235 0.797,-0.859 0.469,-0.624 1.262,-1.389 0.794,-0.765 0.966,-0.912 0.173,-0.148 1.083,-0.717 0.91,-0.569 1.372,-0.743 0.461,-0.174 0.984,-0.273 0.523,-0.098 1.171,0.149 0.647,0.248 1.65,0.858 1.003,0.61 2.302,1.624 1.3,1.013 1.952,1.364 0.652,0.351 1.025,0.459 0.373,0.108 0.67,0.073 0.297,-0.035 0.486,-0.114 0.188,-0.08 4.477,-4.012 0.545,0.029 0.875,0.163 0.33,0.134 0.747,0.347 0.417,0.212 0.445,0.244 0.028,0.032 3.012,1.656 0.613,0.072 1.051,0.044 0.438,-0.028 1.21,-0.111 0.773,-0.084 2.301,-0.368 1.528,-0.284 2.109,-0.21 0.32,0.115 1.047,0.729 0.728,0.614 1.825,1.377 1.097,0.763 2.476,0.883 1.163,-1.349 1.714,-2.572 0.552,-1.224 1.182,-2.927 0.631,-1.702 0.874,-2.303 0.243,-0.6 0.829,-1.224 0.585,-0.625 0.79,-0.694 0.204,-0.07 0.435,-0.01 0.231,0.063 0.595,0.466 0.364,0.403 1.179,1.739 0.814,1.336 1.232,1.93 0.418,0.593 0.731,0.935 0.314,0.341 0.472,0.47 0.158,0.13 0.208,0.21 0.05,0.08 1.464,0.624 0.063,0.021 4.047,-1.02 l 0.39,0.014 q 0.717,0.189 0.76,0.2 0.044,0.012 2.667,0.738 0.785,-0.181 1.49,-0.482 0.704,-0.302 1.326,-0.596 0.622,-0.294 1.598,-0.805 0.976,-0.51 1.204,-0.465 0.228,0.045 3.281,0.403 0.209,0.032 1.32,-0.418 1.11,-0.451 2.764,-1.289 1.654,-0.837 2.15,-1.101 0.496,-0.264 1.046,-0.159 0.549,0.106 0.846,0.033" /><path
     id="STROKE_2e1f66b6-4c76-4379-8d93-2089978025f1"
     opacity="1"
     fill="none"
     stroke="#000000"
     stroke-width="5"
     stroke-opacity="1"
     stroke-linecap="round"
     stroke-linejoin="round"
     d="m 792.882,3449.894 0.561,-1.003 q 0.21,-0.58 5.05,-4.72 l 0.376,0.059 q 0.634,0.243 2.952,1.496 0.434,0.019 0.458,0 0.025,-0.016 0.28,-0.097 0.255,-0.08 0.694,-0.225 0.439,-0.145 0.61,-0.169 0.17,-0.025 0.32,-0.019 0.153,0.053 0.183,0.845 0.031,0.792 0.376,3.078 0.344,2.286 0.509,3.237 0.164,0.952 2.011,3.495 0.328,-0.019 0.729,-0.421 0.401,-0.402 0.514,-0.529 0.112,-0.126 0.798,-1.691 0.686,-1.565 1.239,-2.708 0.553,-1.143 2.7,-3.561 0.277,0.207 0.736,0.823 0.46,0.615 0.881,1.265 0.42,0.649 0.729,1.018 0.309,0.37 0.695,0.743 0.385,0.374 0.947,1.007 l 0.413,0.219 q 0.42,0.234 0.499,0.232 0.078,0 0.599,-0.845 0.521,-0.843 1.24,-3.651 0.719,-2.808 0.784,-3.183 0.065,-0.375 0.799,-2.863 0.733,-2.488 1.761,-4.06 h 0.105 q 0.585,0.668 1.197,1.904 0.611,1.235 3.277,6.909 l 0.771,0.41 q 0.156,0.234 0.972,0.663 1.232,-0.221 2.15,-0.595 0.919,-0.374 1.574,-0.673 0.379,-0.079 1.207,0.094 0.827,0.174 1.297,0.212 0.47,0.038 0.745,0.038 0.276,0 1.07,-0.075 0.795,-0.076 1.002,-0.129 0.206,-0.053 1.254,-0.509 0.223,-0.072 1.064,-0.411 0.841,-0.339 1.159,-0.424 0.406,0.057 3.967,2.124 l 0.67,-0.164 q 0.138,0 0.614,-0.554 0.476,-0.556 0.878,-1.222 0.402,-0.667 0.592,-0.949 0.19,-0.281 1.126,-2.593 0.936,-2.313 2.005,-3.851 0.347,0.474 0.51,0.647 0.163,0.172 1.469,4.146 1.306,3.974 3.118,7.007 0.277,-0.02 3.647,-2.879 l 0.383,-0.055 q 0.069,-0.078 2.418,-0.088 0.247,-0.124 0.711,-0.567 0.464,-0.442 0.962,-0.87 0.499,-0.428 2.468,-1.575" /><path
     id="STROKE_645b206f-88d4-4022-bc7e-738727c0a614"
     opacity="1"
     fill="none"
     stroke="#000000"
     stroke-width="5"
     stroke-opacity="1"
     stroke-linecap="round"
     stroke-linejoin="round"
     d="m 793.499,3475.402 0.237,0.381 0.6,0.664 q 0.473,0.438 1.473,1.335 1.001,0.896 2.548,1.179 l 0.996,-0.992 q 1.363,-2.214 1.731,-3.029 0.367,-0.815 0.544,-1.225 0.176,-0.411 0.446,-0.809 0.27,-0.398 0.97,-0.584 0.699,-0.186 0.96,-0.165 0.26,0.021 0.524,0.119 0.264,0.098 0.3,0.093 0.035,-0.01 0.537,0.384 0.501,0.389 0.74,0.731 0.239,0.342 0.358,0.63 0.119,0.288 0.306,0.917 0.187,0.629 0.416,1.567 0.229,0.938 0.349,1.334 0.12,0.395 0.472,1.647 0.351,1.252 1.124,2.783 0.774,1.53 1.191,1.966 0.416,0.436 0.901,0.562 0.484,0.126 0.933,-0.151 0.448,-0.276 1.23,-1.553 0.782,-1.277 1.199,-2.488 0.416,-1.211 0.739,-2.493 0.323,-1.282 1.1,-2.714 0.401,-0.198 0.779,-0.054 0.379,0.143 0.957,0.719 0.577,0.577 1.006,1.183 0.429,0.606 0.906,1.334 0.477,0.727 1.374,1.751 0.875,0.162 1.526,0.134 0.651,-0.027 0.878,-0.051 0.226,-0.023 0.548,-0.028 0.321,0 1.067,-0.406 0.745,-0.401 1.006,-0.581 0.262,-0.18 0.834,-0.533 0.572,-0.352 0.71,-0.445 0.139,-0.093 0.532,-0.269 0.394,-0.177 0.472,-0.155 0.078,0.022 0.825,-0.213 0.747,-0.235 1.006,-0.356 0.26,-0.12 0.501,0 0.241,0.124 1.286,0.913 1.045,0.787 1.977,1.534 0.931,0.747 1.828,1.141 0.589,-0.284 0.75,-0.444 0.162,-0.159 0.243,-0.152 0.082,0.01 4.37,-7.971 0.14,0.16 0.655,0.975 0.516,0.814 0.983,1.882 0.468,1.068 3.748,8.066 0.243,-0.035 0.816,-0.534 0.573,-0.5 0.666,-0.517 0.093,-0.018 0.995,-2.219 0.903,-2.201 3.514,-7.532 l 0.423,0.17 q 0.155,-0.279 3.5,3.788 0.294,-0.074 1.571,-0.739 1.276,-0.665 1.947,-0.576 0.671,0.089 1.091,0.065 0.42,-0.025 0.782,-0.114 0.362,-0.088 0.682,-0.263 0.319,-0.175 0.905,-0.567 0.585,-0.392 0.878,-0.571 0.293,-0.179 1.296,-0.771 1.003,-0.591 2.536,-1.713" /><circle
     id="STROKE_adaf7a03-831e-4ee5-9a49-4acc43a2d2a4"
     opacity="1"
     fill="#000000"
     stroke="#000000"
     stroke-width="0.1"
     stroke-opacity="1"
     fill-opacity="1"
     cx="814.19397"
     cy="3510.3181"
     r="2.5" /><path
     id="STROKE_7b9ab8b2-141a-4aa1-8eaa-b1a6b204a138"
     opacity="1"
     fill="none"
     stroke="#000000"
     stroke-width="5"
     stroke-opacity="1"
     stroke-linecap="round"
     stroke-linejoin="round"
     d="m 831.616,3509.596 -0.418,-0.306" /><circle
     id="STROKE_a7393ef9-c76d-48f7-9af2-b4eacdc73077"
     opacity="1"
     fill="#000000"
     stroke="#000000"
     stroke-width="0.1"
     stroke-opacity="1"
     fill-opacity="1"
     cx="848.53198"
     cy="3509.7649"
     r="2.5" /><path
     id="STROKE_b224cd52-50f9-4339-b561-b57b2cf12cca"
     opacity="1"
     fill="none"
     stroke="#000000"
     stroke-width="5"
     stroke-opacity="1"
     stroke-linecap="round"
     stroke-linejoin="round"
     d="m 261.075,3379.835 q 1.498,-1.32 2.247,-2.181 0.749,-0.862 0.802,-0.887 0.052,-0.025 1.793,-1.822 1.742,-1.797 6.251,-5.519 4.509,-3.722 6.675,-5.185 2.165,-1.464 4.615,-3.024 2.449,-1.56 7.833,-3.804 5.383,-2.243 11.024,-3.613 5.64,-1.371 19.337,-2.439 13.697,-1.068 21.483,-0.898 7.786,0.169 10.786,0.401 3,0.232 5.292,0.636 2.293,0.404 7.61,1.493 5.317,1.088 11.006,2.62 5.69,1.532 11.129,4.203 l 3.251,1.915" /><path
     id="STROKE_b6e98c9d-616d-40aa-b399-7627384267cc"
     opacity="1"
     fill="none"
     stroke="#000000"
     stroke-width="5"
     stroke-opacity="1"
     stroke-linecap="round"
     stroke-linejoin="round"
     d="m 382.637,3344.644 q 0.175,0.497 0.462,1.199 0.287,0.702 1.601,2.29 1.314,1.587 2.377,2.859 1.063,1.273 2.264,3.048 1.201,1.775 2.138,3.707 0.936,1.931 0.83,2.214 -0.106,0.283 -0.185,0.425 -0.079,0.143 -0.041,0.643 0.038,0.501 0.024,1.156 -0.013,0.655 -0.215,1.341 l -1.049,0.603 q -0.085,0.205 -1.06,0.465 -0.975,0.259 -2.958,0.735 -1.983,0.475 -4.223,0.9 -2.24,0.425 -4.737,0.707 -2.498,0.282 -3.626,0.521 -1.128,0.24 -3.89,0.667" /><path
     id="STROKE_f641e2f5-0294-4457-85ea-8b79db9edec6"
     opacity="1"
     fill="none"
     stroke="#000000"
     stroke-width="5"
     stroke-opacity="1"
     stroke-linecap="round"
     stroke-linejoin="round"
     d="m 282.655,3506.037 q 0.862,0.532 2.966,1.948 2.104,1.417 4.057,2.583 1.953,1.165 4.955,2.689 3.002,1.523 7.272,3.538 4.27,2.015 7.998,3.397 3.727,1.382 8.474,2.658 4.747,1.277 15.374,3.65 10.626,2.373 19.981,4.381 9.354,2.009 14.016,2.87 4.661,0.862 12.746,1.64 8.085,0.779 14.28,1.166 6.195,0.388 15.311,0.807 9.117,0.418 19.655,-0.02 10.538,-0.439 16.856,-1.147 6.318,-0.707 9.429,-1.047 3.111,-0.338 7.198,-0.784 4.086,-0.446 8.361,-1.137 4.275,-0.691 9.274,-2 4.998,-1.31 7.705,-2.132 2.707,-0.823 4.761,-1.434 2.054,-0.611 6.153,-1.868 4.098,-1.257 9.154,-3.019 5.056,-1.762 9.988,-3.689 4.931,-1.928 13.799,-6.273 8.869,-4.345 16.043,-8.342 7.173,-3.996 15.081,-8.579 7.907,-4.582 10.82,-6.285 2.913,-1.703 8.627,-5.126 5.714,-3.423 8.985,-5.478 3.271,-2.054 5.946,-3.735 2.675,-1.68 7.134,-4.514 l 3.324,-2.237" /><path
     id="STROKE_d7dbf60d-60c3-43df-a032-4319da63d945"
     opacity="1"
     fill="none"
     stroke="#000000"
     stroke-width="5"
     stroke-opacity="1"
     stroke-linecap="round"
     stroke-linejoin="round"
     d="m 584.979,3467.189 q 0.331,0.104 1.602,0.44 l 2.22,-0.014 q 0.438,0.07 16.815,0.766 0.108,0.317 0.165,0.971 0.056,0.654 0.064,1.172 0.007,0.518 -0.045,0.806 -0.052,0.289 -4.192,13.484 l -1.263,2.317" /><path
     id="STROKE_dc3b0c9d-b4ac-4568-a70e-03eaa9ed96fd"
     opacity="1"
     fill="none"
     stroke="#000000"
     stroke-width="5"
     stroke-opacity="1"
     stroke-linecap="round"
     stroke-linejoin="round"
     d="m 307.455,3445.429 q 9.24,-1.19 15.481,-2.789 6.241,-1.598 11.083,-2.897 4.841,-1.299 11.071,-2.628 6.23,-1.33 12.29,-2.93 6.059,-1.6 10.875,-3.258 4.815,-1.658 6.725,-2.405 1.911,-0.747 5.168,-2.095 3.257,-1.348 17.125,-8.322 0.392,-0.327 1.953,-1.108 1.56,-0.782 3.883,-2.223 2.322,-1.441 3.122,-1.932 0.8,-0.491 3.668,-2.41" /><path
     id="STROKE_1d9b4bcf-574a-40f7-9322-f12793eaaec5"
     opacity="1"
     fill="none"
     stroke="#000000"
     stroke-width="5"
     stroke-opacity="1"
     stroke-linecap="round"
     stroke-linejoin="round"
     d="m 510.412,3329.589 1.435,-1.237 q 2.284,-1.266 2.403,-1.357 0.119,-0.092 2.564,-1.612 2.446,-1.521 5.619,-3.47 3.174,-1.95 7.278,-4.294 4.103,-2.343 6.204,-3.416 2.101,-1.073 3.485,-1.634 1.384,-0.562 5.179,-2.112 3.795,-1.55 9.52,-3.684 5.724,-2.135 9.609,-3.262 3.886,-1.128 12.213,-3.198 8.327,-2.071 19.181,-4.547 10.855,-2.477 18.853,-3.984 7.999,-1.508 12.302,-2.2 4.304,-0.693 10.869,-1.379 6.565,-0.685 18.44,-1.273 11.875,-0.587 19.93,-0.872 8.055,-0.284 14.431,-0.369 6.375,-0.085 8.91,-0.085 2.535,0 9.802,0.335 7.267,0.335 17.409,1.819 10.142,1.484 15.431,2.402 5.288,0.918 11.549,2.297 6.261,1.379 12.373,3.245 6.111,1.865 9.169,2.952 3.057,1.086 4.567,1.759 1.511,0.672 4.732,2.485 3.222,1.813 7.793,4.899 4.571,3.087 7.423,5.278 2.853,2.192 4.987,4.018 2.135,1.826 3.437,2.902 1.301,1.075 2.701,2.31 1.4,1.235 2.348,2.203 0.947,0.968 1.04,1.075 0.092,0.107 1.48,1.39 1.388,1.282 2.584,2.368 1.197,1.086 4.255,4.217" /><path
     id="STROKE_7a058643-fdf7-41fe-8db5-d3857fa5d12e"
     opacity="1"
     fill="none"
     stroke="#000000"
     stroke-width="5"
     stroke-opacity="1"
     stroke-linecap="round"
     stroke-linejoin="round"
     d="m 816.318,3308.22 q 0.728,1.4 2.37,8.977 1.643,7.577 1.748,11.212 0.104,3.635 -0.093,5.674 l -10e-4,0.168 -0.711,0.063 q -1.258,0.074 -2.029,0.027 -0.771,-0.046 -0.944,-0.01 -0.173,0.038 -4.298,-0.684 -4.124,-0.722 -12.75,-2.875 -0.727,0.293 -3.025,0.848" /></g></svg>
