<?xml version="1.0" encoding="UTF-8" standalone="no"?>
<!-- Generator: Adobe Illustrator 26.1.0, SVG Export Plug-In . SVG Version: 6.00 Build 0)  -->

<svg
   version="1.1"
   id="Layer_1"
   x="0px"
   y="0px"
   viewBox="0 0 960 480"
   style="enable-background:new 0 0 960 480;"
   xml:space="preserve"
   sodipodi:docname="against-the-wall.svg"
   inkscape:version="1.2.1 (9c6d41e410, 2022-07-14, custom)"
   xmlns:inkscape="http://www.inkscape.org/namespaces/inkscape"
   xmlns:sodipodi="http://sodipodi.sourceforge.net/DTD/sodipodi-0.dtd"
   xmlns="http://www.w3.org/2000/svg"
   xmlns:svg="http://www.w3.org/2000/svg"><defs
   id="defs2891" /><sodipodi:namedview
   id="namedview2889"
   pagecolor="#505050"
   bordercolor="#eeeeee"
   borderopacity="1"
   inkscape:showpageshadow="0"
   inkscape:pageopacity="0"
   inkscape:pagecheckerboard="0"
   inkscape:deskcolor="#505050"
   showgrid="false"
   inkscape:zoom="0.49976245"
   inkscape:cx="542.25763"
   inkscape:cy="182.08651"
   inkscape:window-width="938"
   inkscape:window-height="1023"
   inkscape:window-x="0"
   inkscape:window-y="0"
   inkscape:window-maximized="1"
   inkscape:current-layer="Layer_1" />
<g
   id="New_Layer_2"
   opacity="1"
   transform="matrix(1.1487462,0,0,1.1487462,-102.47717,-634.8943)"><path
     id="STROKE_fd8852cf-0652-4175-b1bc-30f8362acfbb"
     opacity="1"
     fill="none"
     stroke="#000000"
     stroke-width="5"
     stroke-opacity="1"
     stroke-linecap="round"
     stroke-linejoin="round"
     d="m 173.902,648.986 q -0.029,0.8 0.27,4.62 0.3,3.82 0.505,6.269 0.205,2.449 0.414,4.668 0.21,2.22 0.428,5.603 0.219,3.383 0.058,8.73 -0.161,5.348 -0.261,9.234 -0.1,3.887 -0.116,5.433 -0.016,1.545 -0.103,5.163 -0.088,3.617 -0.141,8.558 -0.052,4.942 -0.014,7.83 0.039,2.889 0.104,6.437 0.064,3.549 0.07,6.368 0.006,2.818 -0.056,8.684 -0.061,5.867 -0.043,10.87 0.018,5.004 0.05,9.758 0.033,4.754 0.053,7.414 0.021,2.66 0.21,8.126 0.189,5.465 0.498,8.405 0.309,2.94 0.643,4.652 0.334,1.713 0.896,3.569 0.562,1.856 1.467,3.601 0.904,1.744 1.814,2.82 0.909,1.075 1.413,1.531 0.503,0.456 1.513,1.161 1.01,0.706 2.38,1.591 1.37,0.886 3.091,1.872 1.72,0.986 2.838,1.588 1.118,0.603 4.145,2.077 3.028,1.474 5.745,2.64 2.718,1.165 5.268,2.218 2.551,1.054 5.042,2.088 2.491,1.034 5.73,2.374 3.238,1.341 5.203,2.218 1.964,0.876 2.98,1.349 1.015,0.473 2.816,1.282 1.801,0.809 2.978,1.341 1.176,0.531 1.794,0.81 0.618,0.278 0.886,0.421 0.269,0.144 4.424,2.107 4.154,1.963 6.529,3.013 2.375,1.05 9.066,4.165 6.691,3.116 15.371,7.257 8.68,4.14 17.888,8.362 9.207,4.223 13.209,6.04 4.002,1.818 6.606,3.002 2.604,1.183 5.317,2.376 2.713,1.193 4.734,2.053 2.021,0.86 5.019,2.131 2.997,1.272 6.776,3.252 3.779,1.981 5.71,3.011 1.93,1.031 3.604,1.809 1.674,0.778 5.192,1.948 3.517,1.171 5.547,1.523 2.03,0.351 3.384,0.307 1.354,-0.043 2.01,-0.186 0.657,-0.143 0.897,-0.231 0.24,-0.089 0.583,-0.196 0.344,-0.107 1.343,-0.688 0.998,-0.582 1.98,-1.556 0.981,-0.974 1.498,-1.829 0.516,-0.856 0.678,-1.225 0.161,-0.369 0.455,-1.491 0.294,-1.122 0.333,-1.916 0.039,-0.795 -0.109,-2.531 -0.148,-1.736 -0.365,-3.679 -0.217,-1.944 -0.314,-2.998 -0.097,-1.053 -0.231,-2.955 -0.134,-1.902 -0.143,-2.134 -0.009,-0.232 -0.114,-1.801 -0.105,-1.568 -0.102,-7.539 0.002,-5.97 0.172,-9.742 0.17,-3.771 0.215,-5.891 0.045,-2.119 0.054,-3.475 0.009,-1.355 0.047,-9.062 0.038,-7.708 0.069,-16.983 0.031,-9.276 -0.109,-10.372 -0.141,-1.096 -0.954,-6.592 -0.812,-5.497 -1.493,-8.763 -0.68,-3.266 -1.68,-6.941 -1.001,-3.675 -1.471,-5.64 -0.47,-1.965 -0.825,-3.551 -0.355,-1.587 -0.822,-4.006 -0.468,-2.419 -0.695,-4.597 -0.227,-2.177 -0.398,-3.825 -0.17,-1.649 -0.568,-4.963 -0.398,-3.315 -1.31,-6.808 -0.911,-3.493 -1.135,-4.085 -0.223,-0.593 -1.019,-2.007 -0.797,-1.414 -1.614,-2.49 -0.818,-1.075 -2.528,-2.868 -1.709,-1.793 -3.758,-3.527 -2.05,-1.734 -4.745,-3.665 -2.694,-1.931 -4.415,-3.031 -1.721,-1.101 -2.092,-1.339 -0.37,-0.237 -3.56,-2.005 -3.19,-1.768 -6.253,-3.459 -3.063,-1.69 -5.388,-3.029 -2.325,-1.338 -5.693,-3.207 -3.368,-1.869 -8.423,-4.687 -5.055,-2.818 -8.854,-4.857 -3.799,-2.038 -5.86,-3.21 -2.062,-1.172 -3.066,-1.774 -1.005,-0.601 -1.054,-0.644 -0.049,-0.043 -2.932,-1.755 -2.884,-1.713 -6.141,-3.514 -3.256,-1.802 -5.661,-2.964 -2.406,-1.161 -3.423,-1.6 -1.017,-0.44 -3.608,-1.693 -2.59,-1.254 -4.731,-2.167 -2.14,-0.914 -2.919,-1.266 -0.78,-0.351 -2.86,-1.274 -2.08,-0.923 -4.245,-1.876 -2.165,-0.954 -4.032,-1.887 -1.868,-0.933 -5.02,-2.466 -3.153,-1.534 -4.702,-2.231 -1.549,-0.696 -2.759,-1.278 -1.21,-0.583 -2.863,-1.362 -1.654,-0.779 -3.342,-1.641 -1.687,-0.862 -1.77,-0.898 -0.083,-0.036 -5.397,-2.731 -5.315,-2.696 -7.806,-3.898 -2.49,-1.203 -5.459,-2.494 -2.97,-1.292 -4.243,-1.831 -1.273,-0.54 -3.484,-1.41 -2.212,-0.87 -4.783,-1.779 -2.571,-0.909 -4.995,-1.491 -2.425,-0.582 -3.377,-0.677 -0.952,-0.095 -1.829,-0.009 -0.876,0.085 -1.491,0.245 -0.616,0.159 -0.965,0.372 -0.349,0.213 -0.743,0.592 -0.393,0.378 -1.086,1.34 -0.693,0.961 -1.014,1.748 -0.322,0.786 -0.693,4.049 -0.372,3.263 -0.339,4.321 0.033,1.059 0.146,1.998 0.114,0.939 0.702,3.677" /><path
     id="STROKE_032ceab1-ca0a-4d3d-bf83-a7fc93a45a33"
     opacity="1"
     fill="none"
     stroke="#000000"
     stroke-width="5"
     stroke-opacity="1"
     stroke-linecap="round"
     stroke-linejoin="round"
     d="m 176.99,658.903 q 1.397,0.953 1.727,1.212 0.331,0.259 2.415,1.762 2.084,1.502 5.584,3.632 3.501,2.129 5.415,3.213 1.914,1.083 3.162,1.745 1.247,0.662 2.083,1.065 0.837,0.404 1.195,0.569 0.358,0.166 2.051,1.023 1.694,0.856 3.072,1.548 1.379,0.691 2.18,1.065 0.801,0.374 1.205,0.574 0.404,0.199 4.518,1.864 4.115,1.665 6.398,2.789 2.283,1.125 5.323,2.551 3.041,1.426 5.429,2.568 2.389,1.143 3.003,1.486 0.614,0.342 3.502,1.584 2.889,1.241 6.468,2.988 3.58,1.746 5.014,2.442 1.434,0.696 3.676,1.919 2.242,1.223 3.898,2.15 1.656,0.928 3.901,2.078 2.246,1.15 6.716,3.495 4.47,2.346 8.048,4.152 3.578,1.807 6.011,3.072 2.434,1.265 3.456,1.802 1.021,0.538 2.671,1.327 1.649,0.789 4.359,2.046 2.71,1.257 5.47,2.667 2.759,1.41 6.432,3.43 3.672,2.021 5.768,3.214 2.096,1.194 3.348,1.978 1.252,0.784 2.119,1.35 0.867,0.566 1.337,0.879 0.471,0.313 2.615,1.626 2.144,1.313 4.412,2.544 2.267,1.231 3.749,1.991 1.481,0.759 4.484,2.59 3.003,1.831 6.093,3.717 3.09,1.886 4.509,2.762 1.419,0.876 2.579,1.565 1.16,0.69 2.953,1.758 1.794,1.068 2.932,1.722 1.138,0.653 2.788,1.748" /><path
     id="STROKE_8cb81a24-4782-4099-9e8e-b70d16fb4c67"
     opacity="1"
     fill="none"
     stroke="#000000"
     stroke-width="5"
     stroke-opacity="1"
     stroke-linecap="round"
     stroke-linejoin="round"
     d="m 176.617,697.669 q 1.266,0.923 2.163,1.626 0.896,0.703 2.156,1.746 1.26,1.042 2.308,1.834 1.047,0.793 2.098,1.512 1.051,0.718 1.751,1.155 0.701,0.436 4.767,2.57 4.067,2.133 7.246,3.859 3.18,1.726 6.836,3.745 3.657,2.019 7.587,3.996 3.929,1.978 7.946,4.057 4.016,2.079 6.271,3.17 2.254,1.091 4.569,2.15 2.315,1.059 7.52,3.596 5.205,2.537 8.902,4.601 3.696,2.064 5.499,3.147 1.804,1.083 2.79,1.669 0.986,0.586 4.013,2.597 3.028,2.012 5.115,3.316 2.086,1.304 5.272,3.156 3.185,1.851 5.036,2.95 1.851,1.098 6.465,3.714 4.615,2.616 9.343,5.138 4.728,2.523 7.122,3.784 2.395,1.261 4.208,2.205 1.813,0.943 3.412,1.737 1.599,0.794 4.387,2.105 2.788,1.311 6.577,3.13 3.79,1.819 8.691,4.276 4.901,2.456 8.787,4.417 3.886,1.962 5.738,2.884 1.851,0.923 3.684,1.878 1.833,0.956 4.242,2.356 2.409,1.399 4.391,2.541 1.982,1.142 3.604,1.939 0.284,0.372 1.022,1.147" /><path
     id="STROKE_97455303-68b3-4a82-b607-b1ebb060187d"
     opacity="1"
     fill="none"
     stroke="#000000"
     stroke-width="5"
     stroke-opacity="1"
     stroke-linecap="round"
     stroke-linejoin="round"
     d="m 177.109,739.037 q 0.494,0.258 1.283,0.562 0.789,0.304 2.957,1.214 2.168,0.91 3.919,1.589 1.751,0.68 4.614,1.719 2.864,1.039 5.958,2.307 3.094,1.268 7.936,2.892 4.843,1.625 7.824,2.557 2.982,0.932 5.136,1.715 2.154,0.783 4.844,1.791 2.689,1.008 4.128,1.569 1.439,0.562 3.276,1.439 1.838,0.877 3.679,1.699 1.842,0.822 2.289,0.962 0.446,0.139 2.404,0.91 1.957,0.77 5.915,2.77 3.958,2 8.732,4.581 4.775,2.582 8.293,4.377 3.518,1.795 6.243,3.017 2.725,1.221 4.743,2.061 2.017,0.84 6.065,2.858 4.049,2.017 5.8,2.953 1.751,0.937 3.714,1.968 1.963,1.031 3.224,1.754 1.262,0.723 2.729,1.519 1.467,0.796 3.734,2.017 2.267,1.221 4.046,2.25 1.779,1.029 3.156,1.825 1.376,0.795 3.808,2.14 2.431,1.346 5.477,3.056 3.045,1.71 7.676,4.152 4.631,2.441 7.452,3.868 2.822,1.426 5.107,2.587 2.284,1.161 3.115,1.556 0.831,0.395 2.11,1.051 1.279,0.657 2.671,1.415 1.393,0.759 1.796,0.971 0.403,0.211 0.785,0.392 0.381,0.18 1.407,0.64 1.027,0.46 1.538,0.701 0.511,0.24 2.05,1.042 0.711,0.329 1.477,0.75 0.767,0.42 1.134,0.658 0.367,0.239 3.523,2.118" /><path
     id="STROKE_e7190da0-77e8-428b-8276-4b2b93cc2ccf"
     opacity="1"
     fill="none"
     stroke="#000000"
     stroke-width="5"
     stroke-opacity="1"
     stroke-linecap="round"
     stroke-linejoin="round"
     d="m 174.088,769.23 q 0.423,0.233 0.967,0.384 0.544,0.152 0.848,0.269 0.304,0.118 0.658,0.284 0.354,0.167 1.211,0.646 0.858,0.48 1.397,0.801 0.539,0.322 1.677,0.979 1.138,0.657 2.722,1.584 1.584,0.926 3.714,2.224 2.13,1.297 2.721,1.655 0.591,0.357 3.06,1.706 2.47,1.35 6.921,3.412 4.451,2.063 8.559,3.688 4.107,1.625 6.337,2.387 2.229,0.762 4.873,1.601 2.644,0.839 4.955,1.636 2.311,0.797 11.317,4.415 9.007,3.617 10.967,4.48 1.959,0.863 6.564,2.815 4.605,1.952 10.55,4.117 5.944,2.166 10.185,3.764 4.242,1.598 6.885,2.661 2.643,1.063 4.142,1.652 1.5,0.589 5.315,2.198 3.815,1.61 6.029,2.59 2.214,0.98 4,1.711 1.787,0.73 5.226,2.266 3.439,1.536 4.782,2.157 1.343,0.621 3.778,1.829 2.436,1.207 4.199,2.071 1.762,0.863 3.652,1.834 1.891,0.97 3.265,1.684 1.374,0.714 3.046,1.547 1.672,0.833 4.42,2.105 2.749,1.271 5.177,2.403 2.429,1.132 3.335,1.552 0.906,0.42 1.422,0.646 0.516,0.226 2.057,0.757 1.542,0.532 2.531,0.896 0.988,0.365 2.064,0.816 1.076,0.451 2.293,1.003 1.218,0.552 2.793,1.213 1.575,0.661 2.45,0.893 0.875,0.231 2.9,0.862" /><path
     id="STROKE_1da92620-23bb-4cd9-b6fd-d043c812e626"
     opacity="1"
     fill="none"
     stroke="#000000"
     stroke-width="5"
     stroke-opacity="1"
     stroke-linecap="round"
     stroke-linejoin="round"
     d="m 209.251,646.688 q -0.094,1.203 -0.1,1.398 -0.006,0.195 -0.035,1.06 -0.028,0.866 -0.013,1.907 0.016,1.041 0.063,1.915 0.047,0.874 0.195,2.151 0.148,1.276 0.589,4.371 0.441,3.096 0.834,5.914 0.393,2.818 0.618,4.265 0.226,1.447 0.466,2.44 0.239,0.993 0.375,1.459 0.135,0.467 0.403,1.576" /><path
     id="STROKE_22b33c1e-a219-415f-9476-473ff717a1ca"
     opacity="1"
     fill="none"
     stroke="#000000"
     stroke-width="5"
     stroke-opacity="1"
     stroke-linecap="round"
     stroke-linejoin="round"
     d="m 303.795,692.818 0.041,0.714 -0.005,1.454 q -0.001,0.748 -0.233,5.33 -0.233,4.582 -0.128,10.496 0.105,5.915 0.155,7.742" /><path
     id="STROKE_d34bb273-91e5-4b62-93b0-6c1d3ec71a7e"
     opacity="1"
     fill="none"
     stroke="#000000"
     stroke-width="5"
     stroke-opacity="1"
     stroke-linecap="round"
     stroke-linejoin="round"
     d="m 260.57,702.058 0.014,2.123 q -0.046,2.62 -0.103,6.134 -0.057,3.514 -0.087,9.765 -0.029,6.25 -0.055,9.298 -0.026,3.049 -0.004,4.182 0.023,1.134 -0.056,2.115 -0.079,0.982 -0.168,2.487 -0.089,1.505 -0.287,3.329" /><path
     id="STROKE_68417c86-8dfd-470f-bda6-a2d8cc667fa0"
     opacity="1"
     fill="none"
     stroke="#000000"
     stroke-width="5"
     stroke-opacity="1"
     stroke-linecap="round"
     stroke-linejoin="round"
     d="m 216.277,721.519 q -0.048,0.171 -0.28,5.496 -0.232,5.324 -0.139,8.669 0.093,3.345 0.176,5.662 0.084,2.317 0.319,10.755 l 0.111,1.085" /><path
     id="STROKE_0d6b65d0-986c-4a49-9ca5-eb3e267b9ca4"
     opacity="1"
     fill="none"
     stroke="#000000"
     stroke-width="5"
     stroke-opacity="1"
     stroke-linecap="round"
     stroke-linejoin="round"
     d="m 305.644,769.427 q 0.052,0.26 0.105,1.505 0.053,1.244 0.042,2.92 -0.011,1.676 -0.008,4.755 0.003,3.079 -0.016,7.938 -0.018,4.859 -0.055,5.416" /><path
     id="STROKE_6c3aad4c-737a-4dfe-a68d-d011a6609656"
     opacity="1"
     fill="none"
     stroke="#000000"
     stroke-width="5"
     stroke-opacity="1"
     stroke-linecap="round"
     stroke-linejoin="round"
     d="m 256.311,771.93 0.089,0.387 q 0.007,1.124 -0.022,8.048 -0.029,6.925 -0.072,10.546 -0.043,3.622 -0.021,4.773 0.023,1.15 0.323,7.608 l 0.076,1.13" /><path
     id="STROKE_6a392506-ad22-49e6-b8ee-9af6da37252a"
     opacity="1"
     fill="none"
     stroke="#000000"
     stroke-width="5"
     stroke-opacity="1"
     stroke-linecap="round"
     stroke-linejoin="round"
     d="m 305.899,827.762 0.058,0.728 q 0.044,1.532 0.108,7.036 0.064,5.505 0.076,8.304 0.013,2.8 0.032,3.816 0.019,1.016 -0.027,1.854 -0.046,0.839 -0.247,2.937" /><path
     id="STROKE_a80e22e8-d54a-436a-b323-9b0232a3ec18"
     opacity="1"
     fill="none"
     stroke="#000000"
     stroke-width="5"
     stroke-opacity="1"
     stroke-linecap="round"
     stroke-linejoin="round"
     d="m 210.422,788.633 q -0.151,0.523 -0.343,1.3 -0.193,0.778 -0.321,1.948 -0.129,1.17 -0.195,2.248 -0.067,1.079 -0.036,2.995 0.031,1.916 0.211,3.408 0.18,1.491 0.377,2.304 0.197,0.813 0.362,1.218 0.165,0.406 0.425,1.286 0.26,0.88 0.691,2.096" /><path
     id="STROKE_ba97370b-f2a2-4ec3-926a-6833588e08e7"
     opacity="1"
     fill="none"
     stroke="#000000"
     stroke-width="5"
     stroke-opacity="1"
     stroke-linecap="round"
     stroke-linejoin="round"
     d="m 147.563,847.734 q 0.116,-0.334 1.076,-2.481 0.96,-2.148 1.743,-3.637 0.782,-1.488 1.353,-2.559 0.571,-1.07 1.862,-3.311 1.292,-2.241 4.772,-6.7 3.481,-4.459 8.188,-9.174 4.708,-4.715 7.255,-7.056 2.548,-2.341 7.81,-6.548 5.261,-4.208 8.849,-6.893 3.589,-2.685 5.084,-3.777 1.495,-1.092 3.53,-2.506 2.036,-1.415 3.16,-2.157 1.125,-0.742 3.131,-1.993 2.007,-1.251 6.519,-4.042 4.511,-2.791 8.725,-5.191 4.213,-2.399 8.656,-4.553 4.443,-2.154 7.439,-3.391 2.995,-1.238 3.883,-1.536 0.887,-0.299 3.781,-1.312 2.894,-1.013 5.51,-1.887 2.617,-0.875 3.975,-1.295 1.357,-0.42 3.606,-0.984 2.248,-0.563 3.018,-0.76 0.77,-0.198 1.921,-0.448 1.151,-0.251 2.846,-0.523 l 1.73,-0.28" /><path
     id="STROKE_dc121c65-ba6b-4189-ab70-e908a5e80110"
     opacity="1"
     fill="none"
     stroke="#000000"
     stroke-width="5"
     stroke-opacity="1"
     stroke-linecap="round"
     stroke-linejoin="round"
     d="m 267.291,761.817 q -3.107,-2.06 -4.984,-3.162 -1.877,-1.102 -2.784,-1.565 -0.906,-0.463 -5.01,-2.212 -4.105,-1.75 -7.101,-2.762 -2.996,-1.012 -9.798,-2.86 -6.803,-1.847 -11.952,-2.905 -5.149,-1.058 -8.841,-1.629 -3.692,-0.57 -8.036,-1.218 -4.345,-0.647 -9.003,-1.042 -4.658,-0.395 -15.07,-0.434 -10.411,-0.039 -12.821,0.062 -2.41,0.101 -10.839,1.161 -8.429,1.06 -12.604,1.963 -4.175,0.903 -8.186,2.361 -4.011,1.459 -8.363,3.549 l -1.357,0.893" /><path
     id="STROKE_3a22b9e7-9d18-4705-aaad-e2e9069b8d0d"
     opacity="1"
     fill="none"
     stroke="#000000"
     stroke-width="5"
     stroke-opacity="1"
     stroke-linecap="round"
     stroke-linejoin="round"
     d="m 120.122,757.526 q 0.054,-0.341 -0.153,-0.6 -0.208,-0.26 -0.529,-0.38 -0.32,-0.119 -0.421,-0.155 -0.102,-0.035 -0.613,0.03 -0.51,0.065 -0.777,0.251 -0.268,0.186 -0.363,0.311 -0.095,0.126 -0.17,0.303 -0.075,0.178 -0.066,0.182 0.009,0.004 -0.044,0.35 -0.054,0.347 0.16,0.795 0.214,0.448 0.54,0.669 0.327,0.222 0.714,0.269 0.388,0.047 0.6,-0.085 0.212,-0.131 0.308,-0.255 0.097,-0.125 0.201,-0.415 0.105,-0.291 0.101,-0.398 -0.003,-0.106 0.016,-0.186 0.02,-0.08 -0.045,-0.341 -0.064,-0.26 -0.169,-0.378 -0.104,-0.117 -0.268,-0.212 -0.163,-0.096 -0.342,-0.161 -0.178,-0.065 -0.623,-0.123 -0.445,-0.058 -0.777,0.145 -0.331,0.204 -0.453,0.345 -0.121,0.141 -0.187,0.438 -0.066,0.298 -0.029,0.504 0.037,0.206 0.358,0.478 0.32,0.272 0.657,0.318 0.337,0.046 0.512,0.012 0.176,-0.034 0.617,-0.39 0.442,-0.357 0.605,-0.794 0.163,-0.437 0.014,-0.649 -0.15,-0.213 -0.274,-0.275 -0.124,-0.062 -0.405,-0.128 -0.28,-0.067 -0.472,-0.016 -0.191,0.051 -0.329,0.265 -0.137,0.214 -0.145,0.285 -0.007,0.072 0.052,0.194 0.059,0.122 -0.092,0.818" /><path
     id="STROKE_c28c6c23-c36f-4312-b70e-cea31855d87a"
     opacity="1"
     fill="none"
     stroke="#000000"
     stroke-width="5"
     stroke-opacity="1"
     stroke-linecap="round"
     stroke-linejoin="round"
     d="m 481.429,807.18 -1.328,-0.41 -4.46,-0.23 q -1.666,-0.091 -9.884,0.306 -8.217,0.398 -12.273,1.166 -4.055,0.768 -6.039,1.417 -1.985,0.649 -4.562,2.036 -2.578,1.388 -4.264,2.676 -1.685,1.289 -4.687,4.693 -3.002,3.403 -4.786,7.709 -1.785,4.306 -2.084,7.603 -0.299,3.297 0.148,5.5 0.447,2.202 1.445,3.681 0.997,1.479 2.732,3.334 1.735,1.855 3.7,3.3 1.965,1.446 2.998,2.004 1.033,0.559 2.377,1.213 1.343,0.654 3.927,1.59 2.584,0.937 4.022,1.305 1.437,0.369 2.162,0.506 0.724,0.138 5.198,0.552 4.473,0.414 5.443,0.414 0.971,0 5.998,-0.251 5.027,-0.25 8.491,-0.766 3.465,-0.516 8.807,-1.861 5.343,-1.346 7.669,-2.088 2.326,-0.742 6.26,-2.417 3.935,-1.675 7.181,-3.671 3.246,-1.995 5.458,-3.83 2.212,-1.836 3.088,-2.748 0.876,-0.913 2.143,-2.694 1.267,-1.782 1.885,-3.083 0.618,-1.301 1.029,-2.909 0.411,-1.608 0.446,-2.599 0.036,-0.991 -0.042,-1.598 -0.079,-0.606 -0.669,-2.16 -0.868,-1.957 -5.709,-5.473 -4.84,-3.516 -9.247,-4.936 -4.406,-1.42 -7.11,-1.888 -2.704,-0.468 -4.56,-0.709 -1.856,-0.241 -5.824,-0.442 -3.967,-0.2 -5.78,-0.284 -1.813,-0.085 -3.445,-0.006 -1.633,0.078 -2.427,0.147" /><path
     id="STROKE_08b198f7-51b2-4270-b271-6644016d53df"
     opacity="1"
     fill="none"
     stroke="#000000"
     stroke-width="5"
     stroke-opacity="1"
     stroke-linecap="round"
     stroke-linejoin="round"
     d="m 547.086,611.68 1.867,0.72 2.012,0.969 q 3.087,1.691 11.181,4.639 8.093,2.949 14.631,5.348 6.537,2.399 11.208,4.573 4.671,2.174 16.237,7.858 11.566,5.684 20.439,9.559 8.873,3.875 14.965,6.377 6.092,2.502 11.919,4.789 5.827,2.287 8.939,3.467 3.112,1.181 22.001,8.898 18.89,7.718 33.172,12.756 l 2.245,0.059" /><path
     id="STROKE_5de38714-1d60-46c0-82c7-cf660cfc37a1"
     opacity="1"
     fill="none"
     stroke="#000000"
     stroke-width="5"
     stroke-opacity="1"
     stroke-linecap="round"
     stroke-linejoin="round"
     d="m 589.501,629.943 q 5.177,9.189 6.899,12.643 1.723,3.453 2.57,5.091 0.848,1.638 4.635,8.888 3.788,7.25 7.042,13.665 3.253,6.414 5.455,10.705 2.202,4.291 5.22,9.849 3.018,5.557 5.312,9.676 2.293,4.119 4.575,8.339 2.282,4.22 5.551,10.475 3.269,6.254 11.633,22.181 l 0.858,1.87" /><path
     id="STROKE_f7a01a34-a3f6-4b62-b5b3-cd36aa482d36"
     opacity="1"
     fill="none"
     stroke="#000000"
     stroke-width="5"
     stroke-opacity="1"
     stroke-linecap="round"
     stroke-linejoin="round"
     d="m 615.85,752.744 3.988,0.154 q 0.235,0.052 3.258,0.463 3.024,0.411 8.066,-0.024 5.042,-0.435 8.341,-1.289 3.299,-0.855 6.381,-2.164 3.083,-1.309 5.265,-2.653 2.182,-1.343 4.75,-3.394 2.568,-2.052 2.9,-2.325 0.332,-0.273 1.366,-1.376 1.033,-1.102 2.215,-2.551 1.182,-1.449 1.758,-2.159 0.577,-0.71 1.035,-1.33 0.459,-0.62 1.381,-2.089 0.922,-1.469 2.145,-3.62 1.223,-2.152 1.568,-2.905 0.345,-0.754 0.717,-1.817 0.372,-1.063 0.78,-2.134 0.409,-1.071 2.003,-5.694" /><path
     id="STROKE_08dcda0c-b9ba-4f9d-9201-972c107a8a0d"
     opacity="1"
     fill="none"
     stroke="#000000"
     stroke-width="5"
     stroke-opacity="1"
     stroke-linecap="round"
     stroke-linejoin="round"
     d="m 677.349,716.053 q 0.199,0.238 0.899,0.917 0.7,0.679 1.637,1.35 0.937,0.671 2.291,1.6 1.353,0.929 3.431,2.602 2.078,1.673 2.411,1.935 0.333,0.261 2.751,2.667 2.419,2.406 3.851,4.255 1.432,1.85 1.981,2.701 0.549,0.851 1.029,1.509 0.481,0.657 2.374,4.842 1.892,4.184 2.655,6.806 0.762,2.621 1.435,6.266 0.672,3.646 0.86,6.956 0.187,3.31 0.183,3.675" /><path
     id="STROKE_8c2edf33-ede5-4cb5-bad5-fbe520eb763a"
     opacity="1"
     fill="none"
     stroke="#000000"
     stroke-width="5"
     stroke-opacity="1"
     stroke-linecap="round"
     stroke-linejoin="round"
     d="m 638.08,801.238 q 2.138,-1.801 2.894,-2.778 0.755,-0.976 0.893,-1.175 0.138,-0.2 2.56,-3.106 2.423,-2.907 3.978,-4.573 1.555,-1.667 4.368,-4.07 2.814,-2.403 4.897,-3.849 2.083,-1.446 7.316,-3.71 5.233,-2.264 11.421,-4.362 6.189,-2.097 8.473,-2.578 2.284,-0.481 4.06,-0.841 1.776,-0.361 5.755,-0.94 l 3.897,-0.728" /><path
     id="STROKE_160b0c63-3edf-4721-9d4c-94f6a7d63390"
     opacity="1"
     fill="none"
     stroke="#000000"
     stroke-width="5"
     stroke-opacity="1"
     stroke-linecap="round"
     stroke-linejoin="round"
     d="m 613.367,755.621 0.253,0.66 0.643,4.144 q 0.125,0.322 1.366,6.782 1.241,6.46 2.084,9.587 0.842,3.127 1.598,4.926 0.756,1.799 2.826,4.623 2.07,2.824 3.743,4.553 1.673,1.729 3.411,3.145 1.738,1.415 3.119,2.272 1.381,0.858 1.814,1.088 0.433,0.23 4.166,2.083" /><path
     id="STROKE_5a7c34b9-3b01-4acf-b451-34bcfedd0223"
     opacity="1"
     fill="none"
     stroke="#000000"
     stroke-width="5"
     stroke-opacity="1"
     stroke-linecap="round"
     stroke-linejoin="round"
     d="m 591.448,759.404 -0.981,-0.606 -3.824,-1.059 q -0.498,-0.071 -4.694,-1.676 -4.196,-1.605 -6.493,-2.541 -2.297,-0.936 -3.871,-1.831 -1.575,-0.896 -6.391,-3.707 -4.815,-2.812 -7.817,-4.51 -3.003,-1.698 -7.888,-4.574 -4.886,-2.876 -8.046,-5.113 -3.159,-2.237 -7.114,-7.056 -0.355,-0.758 -0.957,-1.892 -0.603,-1.133 -1.56,-2.702 -0.958,-1.568 -2.202,-3.719" /><path
     id="STROKE_8f2b7e89-0e56-4564-9ae8-57e478d4bbb7"
     opacity="1"
     fill="none"
     stroke="#000000"
     stroke-width="5"
     stroke-opacity="1"
     stroke-linecap="round"
     stroke-linejoin="round"
     d="m 585.495,746.793 q 0.193,0.322 0.729,1.707 l 0.422,0.746 q 0.172,0.45 2.597,3.183 2.426,2.734 3.246,3.766 0.82,1.032 1.25,2.089 0.429,1.057 0.325,2.301 -3.07,2.139 -9.81,4.869" /><path
     id="STROKE_4563081b-5e5f-4875-983f-8e14edd0b213"
     opacity="1"
     fill="none"
     stroke="#000000"
     stroke-width="5"
     stroke-opacity="1"
     stroke-linecap="round"
     stroke-linejoin="round"
     d="m 528.792,719.541 q 2.294,0.257 2.49,0.282 0.196,0.026 13.222,3.094 0.079,0.078 0.154,0.263 0.075,0.185 0.75,0.558" /><path
     id="STROKE_88036e2e-4dc8-4bc9-9e20-67b617534625"
     opacity="1"
     fill="none"
     stroke="#000000"
     stroke-width="5"
     stroke-opacity="1"
     stroke-linecap="round"
     stroke-linejoin="round"
     d="m 528.481,721.492 -0.089,0.603 -0.144,0.647 q -0.1,1.482 -0.114,1.749 -0.014,0.267 0.254,4.939 0.269,4.671 0.811,6.39 0.542,1.718 0.968,2.116 0.426,0.398 1.192,1.901" /><path
     id="STROKE_bd7c6538-3be3-4f56-805f-1ea94a84527a"
     opacity="1"
     fill="none"
     stroke="#000000"
     stroke-width="5"
     stroke-opacity="1"
     stroke-linecap="round"
     stroke-linejoin="round"
     d="m 431.69,837.83 q 1.798,-0.683 3.575,-1.621 1.777,-0.939 1.934,-1.053 0.158,-0.115 6.546,-3.339 6.387,-3.224 19.672,-9.912 13.285,-6.688 16.655,-8.371" /><path
     id="STROKE_fe6b170d-7c31-43c9-b9d1-d36aa9800ab0"
     opacity="1"
     fill="none"
     stroke="#000000"
     stroke-width="5"
     stroke-opacity="1"
     stroke-linecap="round"
     stroke-linejoin="round"
     d="m 456.516,856.176 q 0.704,-0.25 4.944,-2.85 4.239,-2.601 8.142,-5.203 3.903,-2.601 15.197,-10.109 11.295,-7.508 14.208,-9.211 2.914,-1.703 7.548,-4.476 l 2.743,-1.473" /><path
     id="STROKE_7cb11ac7-c0b5-4486-badb-ca91a0a700ef"
     opacity="1"
     fill="none"
     stroke="#000000"
     stroke-width="5"
     stroke-opacity="1"
     stroke-linecap="round"
     stroke-linejoin="round"
     d="m 443.99,813.948 1.263,0.437 2.318,1.39 q 0.703,0.364 6.676,4.89 5.974,4.527 8.688,6.612 2.714,2.086 5.409,4.14 2.695,2.053 4.633,3.469 1.938,1.415 4.92,3.689 2.982,2.274 4.421,3.191 1.44,0.917 2.502,1.638 1.063,0.721 2.065,1.434 1.001,0.712 3.937,2.529 l 1.991,1.128 3.057,1.631" /><path
     id="STROKE_84cee8fb-be1c-4db7-8756-70cd529ddf29"
     opacity="1"
     fill="none"
     stroke="#000000"
     stroke-width="5"
     stroke-opacity="1"
     stroke-linecap="round"
     stroke-linejoin="round"
     d="m 368.329,788.627 q 0.574,-0.138 1.474,-0.421 9.889,-0.613 12.682,-0.729 2.794,-0.117 6.479,-0.043 3.686,0.074 8.836,0.304 5.15,0.23 10.942,0.358 5.792,0.129 11.266,0.275 5.475,0.146 11.451,0.262 5.977,0.116 10.919,0.165 4.943,0.049 15.548,-0.077 10.604,-0.126 15.769,-0.397 5.164,-0.271 17.977,-1.309 12.814,-1.038 19.884,-1.599 7.07,-0.562 13.416,-0.742 6.347,-0.18 14.844,-0.44 8.497,-0.261 18.633,-0.617 10.137,-0.355 15.689,-0.613 5.552,-0.257 11.473,-0.74 5.922,-0.484 14.189,-0.837 8.266,-0.353 15.93,-0.16 0.337,-0.045 2.377,0.483" /><path
     id="STROKE_58767e14-fcad-42d6-a7e9-36c02afec8e4"
     opacity="1"
     fill="none"
     stroke="#000000"
     stroke-width="5"
     stroke-opacity="1"
     stroke-linecap="round"
     stroke-linejoin="round"
     d="m 368.949,874.62 1.098,0.126 2.801,-0.263 q 0.642,0.03 6.47,-0.823 5.828,-0.852 9.94,-1.632 4.111,-0.78 10.679,-1.302 6.567,-0.521 16.285,-0.299 9.718,0.222 13.931,0.575 4.212,0.353 11.054,0.517 6.843,0.163 12.485,0.337 5.642,0.174 8.305,0.351 2.663,0.176 8.689,0.272 6.026,0.097 12.526,0.094 6.499,-0.002 15.538,-0.28 9.039,-0.279 13.451,-0.399 4.411,-0.121 7.819,-0.179 3.408,-0.059 8.658,-0.125 5.251,-0.066 8.426,-0.067 3.176,-10e-4 15.237,-0.33 12.061,-0.33 26.313,-1.611 14.253,-1.281 22.562,-2.106 8.309,-0.824 11.605,-1.276 3.295,-0.453 21.154,-2.232 17.86,-1.779 27.269,-2.387 9.41,-0.608 16.213,-1.006 6.802,-0.398 11.057,-0.634 4.255,-0.236 9.729,-0.419 5.473,-0.184 13.218,-0.29 7.745,-0.105 11.756,-0.079 4.011,0.027 35.649,-1.031 31.637,-1.057 48.044,-1.817 16.406,-0.759 23.98,-0.978 7.575,-0.219 11.431,-0.39 3.855,-0.172 16.574,-0.019 12.718,0.152 18.675,0.427 5.956,0.274 9.086,0.36 3.13,0.086 8.236,0.295 l 2.501,0.373" /><path
     id="STROKE_8e9f1849-5cef-430c-a0d8-78c8616b2fb4"
     opacity="1"
     fill="none"
     stroke="#000000"
     stroke-width="5"
     stroke-opacity="1"
     stroke-linecap="round"
     stroke-linejoin="round"
     d="m 751.487,784.824 q 0.368,0.186 1.016,0.91 0.648,0.725 1.587,1.49 0.939,0.766 2.737,2.016 1.798,1.25 4.1,2.742 2.302,1.492 9.034,5.783 6.732,4.291 10.567,7.01 3.835,2.719 5.224,3.669 1.388,0.95 4.749,3.091 3.361,2.141 5.111,3.227 1.75,1.085 3.445,2.337 1.696,1.253 3.548,2.577 1.852,1.325 4.038,2.679 2.186,1.355 3.064,1.963 0.878,0.607 3.397,2.019 2.519,1.411 3.381,1.759" /><path
     id="STROKE_313ad1be-5933-4ab2-8673-eb8e4b83148c"
     opacity="1"
     fill="none"
     stroke="#000000"
     stroke-width="5"
     stroke-opacity="1"
     stroke-linecap="round"
     stroke-linejoin="round"
     d="m 814.453,780.213 0.331,1.411 q 0.27,4.745 0.34,5.875 0.07,1.13 0.35,9.621 0.28,8.49 0.449,14.502 0.169,6.012 0.765,11.201 l -0.711,3.007" /><path
     id="STROKE_f97ca9c6-49cc-4549-9877-de15d122f357"
     opacity="1"
     fill="none"
     stroke="#000000"
     stroke-width="5"
     stroke-opacity="1"
     stroke-linecap="round"
     stroke-linejoin="round"
     d="m 753.039,746.084 q 0.277,1.03 0.499,12.18 0.223,11.15 -0.311,24.519 l -0.499,1.529" /><path
     id="STROKE_ba9e7bcf-192b-424f-848c-f6e2b7834580"
     opacity="1"
     fill="none"
     stroke="#000000"
     stroke-width="5"
     stroke-opacity="1"
     stroke-linecap="round"
     stroke-linejoin="round"
     d="m 752.305,741.059 2.149,-0.677 2.043,-0.418 3.274,-0.516 q 1.735,-0.172 10.945,-1.591 9.211,-1.419 17.137,-1.974 7.926,-0.554 11.192,-0.644 3.266,-0.089 5.483,-0.291 2.216,-0.202 4.113,-0.339 1.897,-0.137 3.111,-0.164 1.215,-0.026 1.326,-0.012 0.112,0.013 1.798,0.043 1.687,0.029 5.156,-0.183 l 0.509,0.165 1.191,0.138" /><path
     id="STROKE_4e770c1d-c5fb-49cd-9dca-58798ee65fd3"
     opacity="1"
     fill="none"
     stroke="#000000"
     stroke-width="5"
     stroke-opacity="1"
     stroke-linecap="round"
     stroke-linejoin="round"
     d="m 753.547,742.813 q 0.337,0.118 2.052,1.015 1.715,0.898 4.302,2.536 2.588,1.639 4.075,2.515 1.486,0.877 3.099,1.737 1.613,0.861 8.382,4.184 6.769,3.324 10.512,5.174 3.742,1.851 8.211,4.368 4.469,2.517 7.048,4.046 2.579,1.529 4.681,2.495 2.103,0.966 3.637,1.776 1.534,0.81 2.291,1.232 0.756,0.422 1.582,0.921 0.825,0.499 3.686,2.228" /><path
     id="STROKE_6edd64a8-9d1d-4fb1-a7e2-87e31508183b"
     opacity="1"
     fill="none"
     stroke="#000000"
     stroke-width="5"
     stroke-opacity="1"
     stroke-linecap="round"
     stroke-linejoin="round"
     d="m 820.914,733.788 1.59,0.936 q 1.046,1.061 2.059,2.015 1.014,0.954 2.158,1.936 1.144,0.982 2.141,1.701 0.996,0.72 3.989,2.662 2.992,1.942 5.293,3.477 2.3,1.535 4.214,2.859 1.913,1.324 4.083,2.835 2.17,1.511 4.196,3.075 2.026,1.565 3.52,2.753 1.494,1.188 1.956,1.573 0.461,0.385 2.839,2.206 2.378,1.821 4.643,3.406 2.264,1.586 2.903,2.025 0.638,0.438 2.506,1.593 1.867,1.155 2.789,1.688 0.922,0.532 4.47,2.926" /><path
     id="STROKE_b613e94c-a29c-48f0-83b5-dc9ffc778530"
     opacity="1"
     fill="none"
     stroke="#000000"
     stroke-width="5"
     stroke-opacity="1"
     stroke-linecap="round"
     stroke-linejoin="round"
     d="m 821.111,778.262 q 1.016,0.733 2.588,2.319 l 2.052,0.431 q 19.668,-1.079 26.367,-2.029 6.699,-0.951 20.478,-2.794 l 1.015,0.753" /><path
     id="STROKE_b093abd1-2241-4839-9378-7c0c1e3f8de8"
     opacity="1"
     fill="none"
     stroke="#000000"
     stroke-width="5"
     stroke-opacity="1"
     stroke-linecap="round"
     stroke-linejoin="round"
     d="m 876.066,778.164 -0.162,1.661 q 0.003,1.144 0.06,2.145 0.057,1 0.094,1.42 0.037,0.42 0.337,2.547 0.3,2.128 0.864,7.02 0.564,4.892 1.162,20.062 l -0.296,3.175" /><path
     id="STROKE_ebbf66f2-d6d3-42fe-b314-df299bdac2c4"
     opacity="1"
     fill="none"
     stroke="#000000"
     stroke-width="5"
     stroke-opacity="1"
     stroke-linecap="round"
     stroke-linejoin="round"
     d="m 818.854,825.416 2.176,-0.165 q 0.946,0.067 11.061,-1.257 10.115,-1.324 15.675,-2.06 5.56,-0.736 9.178,-1.084 3.618,-0.349 7.495,-0.627 3.878,-0.278 6.274,-0.272 2.396,0.005 2.708,-0.051 l 2.25,-0.415" /><path
     id="STROKE_69afdd5d-5f0f-4ce3-a522-4e2c31fdbc9f"
     opacity="1"
     fill="none"
     stroke="#000000"
     stroke-width="5"
     stroke-opacity="1"
     stroke-linecap="round"
     stroke-linejoin="round"
     d="m 766.467,766.479 0.266,0.515 q 0.733,1.187 1.337,1.973 0.603,0.785 1.965,2.425 1.362,1.641 2.668,3.129 1.306,1.488 2.886,3.106 1.579,1.617 2.571,2.499 0.993,0.881 3.032,2.37 2.039,1.489 3.004,2.022 0.964,0.532 2.929,1.365 1.965,0.834 4.839,1.584 2.874,0.751 5.269,1.115 2.394,0.364 8.391,0.656" /><path
     id="STROKE_7e9dfca8-32c2-4b2f-a3b6-a994d9fb025c"
     opacity="1"
     fill="none"
     stroke="#000000"
     stroke-width="5"
     stroke-opacity="1"
     stroke-linecap="round"
     stroke-linejoin="round"
     d="m 807.26,785.849 q -0.192,0.046 -0.806,0.278 -0.614,0.231 -1.031,0.449 -0.417,0.218 -0.586,0.404 -0.169,0.187 -0.326,0.494 -0.157,0.307 -0.217,0.727 -0.061,0.419 0.163,0.616 0.224,0.197 0.542,0.327 0.319,0.13 0.552,0.099 0.233,-0.031 0.387,-0.185 0.153,-0.153 0.231,-0.385 0.079,-0.232 0.132,-0.224 0.054,0.007 -0.062,-0.183 -0.115,-0.191 -0.249,-0.304 -0.133,-0.113 -0.629,-0.324 0.138,0.472 0.257,0.607 0.118,0.134 0.471,0.218 0.353,0.085 0.792,0.114 0.44,0.029 0.67,-0.132 0.231,-0.162 0.382,-0.453 0.152,-0.291 0.455,-0.705" /><path
     id="STROKE_631f4830-e71e-4669-a7e5-47d30f6d1e6e"
     opacity="1"
     fill="none"
     stroke="#000000"
     stroke-width="5"
     stroke-opacity="1"
     stroke-linecap="round"
     stroke-linejoin="round"
     d="m 429.999,872.579 q -0.053,0.353 0.12,8.068 0.173,7.715 0.583,13.839 0.409,6.125 0.581,8.364 0.172,2.239 0.378,3.887 0.206,1.648 0.398,4.799" /><circle
     id="STROKE_d4da6ccc-2dd3-4c21-8cc8-8471c6845bb8"
     opacity="1"
     fill="#000000"
     stroke="#000000"
     stroke-width="0.1"
     stroke-opacity="1"
     fill-opacity="1"
     cx="520.72498"
     cy="873.19"
     r="2.5" /><path
     id="STROKE_11a4ca63-d790-48e5-8ff8-4c05214faf69"
     opacity="1"
     fill="none"
     stroke="#000000"
     stroke-width="5"
     stroke-opacity="1"
     stroke-linecap="round"
     stroke-linejoin="round"
     d="m 519.314,874.628 q 0.153,0.487 0.227,0.703 0.073,0.217 -0.184,1.174 l 0.114,3.442 q 0.124,0.342 0.909,21.016 l 0.093,0.177 0.019,0.388 -0.077,1.397" /></g></svg>
