<svg xmlns="http://www.w3.org/2000/svg" xml:space="preserve" viewBox="0 0 960 480">
    <g fill="none" stroke="#FFF" stroke-linecap="round" stroke-linejoin="round" stroke-width="5" transform="translate(-102.477 -634.894)scale(1.14875)">
        <path d="M173.902 648.986q-.029.8.27 4.62t.505 6.269.414 4.668q.21 2.22.428 5.603.219 3.383.058 8.73t-.261 9.234-.116 5.433-.103 5.163q-.088 3.617-.141 8.558-.052 4.942-.014 7.83.039 2.889.104 6.437.064 3.549.07 6.368.006 2.818-.056 8.684-.061 5.867-.043 10.87.018 5.004.05 9.758l.053 7.414q.021 2.66.21 8.126t.498 8.405q.309 2.94.643 4.652t.896 3.569 1.467 3.601q.904 1.744 1.814 2.82.909 1.075 1.413 1.531.503.456 1.513 1.161t2.38 1.591 3.091 1.872q1.72.986 2.838 1.588t4.145 2.077 5.745 2.64 5.268 2.218 5.042 2.088 5.73 2.374q3.238 1.341 5.203 2.218 1.964.876 2.98 1.349 1.015.473 2.816 1.282t2.978 1.341l1.794.81q.618.278.886.421.269.144 4.424 2.107 4.154 1.963 6.529 3.013t9.066 4.165q6.691 3.116 15.371 7.257 8.68 4.14 17.888 8.362 9.207 4.223 13.209 6.04l6.606 3.002q2.604 1.183 5.317 2.376t4.734 2.053 5.019 2.131q2.997 1.272 6.776 3.252 3.779 1.981 5.71 3.011 1.93 1.031 3.604 1.809t5.192 1.948q3.517 1.171 5.547 1.523t3.384.307q1.354-.043 2.01-.186.657-.143.897-.231t.583-.196q.344-.107 1.343-.688.998-.582 1.98-1.556.981-.974 1.498-1.829.516-.856.678-1.225.161-.369.455-1.491t.333-1.916-.109-2.531-.365-3.679q-.217-1.944-.314-2.998-.097-1.053-.231-2.955t-.143-2.134-.114-1.801q-.105-1.568-.102-7.539.002-5.97.172-9.742.17-3.771.215-5.891t.054-3.475.047-9.062.069-16.983-.109-10.372q-.141-1.096-.954-6.592-.812-5.497-1.493-8.763-.68-3.266-1.68-6.941-1.001-3.675-1.471-5.64t-.825-3.551-.822-4.006-.695-4.597l-.398-3.825q-.17-1.649-.568-4.963t-1.31-6.808q-.911-3.493-1.135-4.085t-1.019-2.007q-.797-1.414-1.614-2.49-.818-1.075-2.528-2.868t-3.758-3.527q-2.05-1.734-4.745-3.665-2.694-1.931-4.415-3.031l-2.092-1.339q-.37-.237-3.56-2.005t-6.253-3.459-5.388-3.029-5.693-3.207-8.423-4.687-8.854-4.857-5.86-3.21-3.066-1.774q-1.005-.601-1.054-.644t-2.932-1.755-6.141-3.514q-3.256-1.802-5.661-2.964-2.406-1.161-3.423-1.6t-3.608-1.693q-2.59-1.254-4.731-2.167-2.14-.914-2.919-1.266-.78-.351-2.86-1.274t-4.245-1.876-4.032-1.887-5.02-2.466q-3.153-1.534-4.702-2.231t-2.759-1.278q-1.21-.583-2.863-1.362t-3.342-1.641q-1.687-.862-1.77-.898t-5.397-2.731q-5.315-2.696-7.806-3.898-2.49-1.203-5.459-2.494-2.97-1.292-4.243-1.831-1.273-.54-3.484-1.41t-4.783-1.779-4.995-1.491q-2.425-.582-3.377-.677t-1.829-.009q-.876.085-1.491.245t-.965.372q-.349.213-.743.592-.393.378-1.086 1.34-.693.961-1.014 1.748-.322.786-.693 4.049-.372 3.263-.339 4.321.033 1.059.146 1.998.114.939.702 3.677"/>
        <path d="M176.99 658.903q1.397.953 1.727 1.212t2.415 1.762 5.584 3.632q3.501 2.129 5.415 3.213 1.914 1.083 3.162 1.745t2.083 1.065q.837.404 1.195.569.358.166 2.051 1.023t3.072 1.548 2.18 1.065 1.205.574 4.518 1.864q4.115 1.665 6.398 2.789t5.323 2.551 5.429 2.568q2.389 1.143 3.003 1.486t3.502 1.584 6.468 2.988q3.58 1.746 5.014 2.442t3.676 1.919 3.898 2.15 3.901 2.078 6.716 3.495q4.47 2.346 8.048 4.152t6.011 3.072 3.456 1.802q1.021.538 2.671 1.327t4.359 2.046 5.47 2.667q2.759 1.41 6.432 3.43 3.672 2.021 5.768 3.214t3.348 1.978 2.119 1.35 1.337.879 2.615 1.626 4.412 2.544 3.749 1.991q1.481.759 4.484 2.59l6.093 3.717q3.09 1.886 4.509 2.762t2.579 1.565l2.953 1.758q1.794 1.068 2.932 1.722t2.788 1.748m-174.441-54.496q1.266.923 2.163 1.626t2.156 1.746q1.26 1.042 2.308 1.834 1.047.793 2.098 1.512 1.051.718 1.751 1.155.701.436 4.767 2.57t7.246 3.859 6.836 3.745q3.657 2.019 7.587 3.996 3.929 1.978 7.946 4.057t6.271 3.17 4.569 2.15 7.52 3.596 8.902 4.601 5.499 3.147q1.804 1.083 2.79 1.669t4.013 2.597q3.028 2.012 5.115 3.316 2.086 1.304 5.272 3.156 3.185 1.851 5.036 2.95 1.851 1.098 6.465 3.714 4.615 2.616 9.343 5.138 4.728 2.523 7.122 3.784t4.208 2.205q1.813.943 3.412 1.737t4.387 2.105 6.577 3.13q3.79 1.819 8.691 4.276t8.787 4.417q3.886 1.962 5.738 2.884 1.851.923 3.684 1.878 1.833.956 4.242 2.356t4.391 2.541 3.604 1.939q.284.372 1.022 1.147m-181.026-58.335q.494.258 1.283.562t2.957 1.214 3.919 1.589 4.614 1.719q2.864 1.039 5.958 2.307t7.936 2.892 7.824 2.557 5.136 1.715 4.844 1.791q2.689 1.008 4.128 1.569 1.439.562 3.276 1.439 1.838.877 3.679 1.699 1.842.822 2.289.962.446.139 2.404.91 1.957.77 5.915 2.77t8.732 4.581 8.293 4.377 6.243 3.017 4.743 2.061q2.017.84 6.065 2.858 4.049 2.017 5.8 2.953 1.751.937 3.714 1.968t3.224 1.754q1.262.723 2.729 1.519t3.734 2.017 4.046 2.25l3.156 1.825q1.376.795 3.808 2.14t5.477 3.056 7.676 4.152 7.452 3.868q2.822 1.426 5.107 2.587 2.284 1.161 3.115 1.556t2.11 1.051q1.279.657 2.671 1.415 1.393.759 1.796.971t.785.392q.381.18 1.407.64t1.538.701 2.05 1.042q.711.329 1.477.75.767.42 1.134.658t3.523 2.118M174.088 769.23q.423.233.967.384.544.152.848.269t.658.284 1.211.646q.858.48 1.397.801t1.677.979 2.722 1.584 3.714 2.224q2.13 1.297 2.721 1.655.591.357 3.06 1.706 2.47 1.35 6.921 3.412 4.451 2.063 8.559 3.688t6.337 2.387 4.873 1.601 4.955 1.636 11.317 4.415q9.007 3.617 10.967 4.48 1.959.863 6.564 2.815t10.55 4.117q5.944 2.166 10.185 3.764t6.885 2.661q2.643 1.063 4.142 1.652t5.315 2.198q3.815 1.61 6.029 2.59t4 1.711 5.226 2.266 4.782 2.157q1.343.621 3.778 1.829t4.199 2.071q1.762.863 3.652 1.834 1.891.97 3.265 1.684t3.046 1.547 4.42 2.105q2.749 1.271 5.177 2.403 2.429 1.132 3.335 1.552t1.422.646 2.057.757 2.531.896q.988.365 2.064.816t2.293 1.003q1.218.552 2.793 1.213t2.45.893q.875.231 2.9.862M209.251 646.688q-.094 1.203-.1 1.398l-.035 1.06q-.028.866-.013 1.907t.063 1.915q.047.874.195 2.151t.589 4.371q.441 3.096.834 5.914t.618 4.265q.226 1.447.466 2.44.239.993.375 1.459.135.467.403 1.576m91.149 17.674.041.714-.005 1.454q-.001.748-.233 5.33-.233 4.582-.128 10.496t.155 7.742"/>
        <path d="m260.57 702.058.014 2.123q-.046 2.62-.103 6.134t-.087 9.765-.055 9.298q-.026 3.049-.004 4.182.023 1.134-.056 2.115t-.168 2.487-.287 3.329m-43.547-19.972q-.048.171-.28 5.496-.232 5.324-.139 8.669t.176 5.662q.084 2.317.319 10.755l.111 1.085m89.18 16.241q.052.26.105 1.505t.042 2.92q-.011 1.676-.008 4.755t-.016 7.938q-.018 4.859-.055 5.416m-49.401-20.031.089.387q.007 1.124-.022 8.048-.029 6.925-.072 10.546-.043 3.622-.021 4.773.023 1.15.323 7.608l.076 1.13m49.215 23.34.058.728q.044 1.532.108 7.036.064 5.505.076 8.304.013 2.8.032 3.816t-.027 1.854q-.046.839-.247 2.937m-95.477-63.804q-.151.523-.343 1.3-.193.778-.321 1.948-.129 1.17-.195 2.248-.067 1.079-.036 2.995t.211 3.408.377 2.304.362 1.218.425 1.286.691 2.096"/>
        <path d="M147.563 847.734q.116-.334 1.076-2.481.96-2.148 1.743-3.637.782-1.488 1.353-2.559.571-1.07 1.862-3.311t4.772-6.7 8.188-9.174q4.708-4.715 7.255-7.056 2.548-2.341 7.81-6.548 5.261-4.208 8.849-6.893t5.084-3.777q1.495-1.092 3.53-2.506 2.036-1.415 3.16-2.157t3.131-1.993 6.519-4.042q4.511-2.791 8.725-5.191t8.656-4.553q4.443-2.154 7.439-3.391 2.995-1.238 3.883-1.536t3.781-1.312q2.894-1.013 5.51-1.887 2.617-.875 3.975-1.295 1.357-.42 3.606-.984 2.248-.563 3.018-.76t1.921-.448 2.846-.523l1.73-.28m.306-.923q-3.107-2.06-4.984-3.162t-2.784-1.565q-.906-.463-5.01-2.212-4.105-1.75-7.101-2.762t-9.798-2.86q-6.803-1.847-11.952-2.905t-8.841-1.629-8.036-1.218q-4.345-.647-9.003-1.042t-15.07-.434q-10.411-.039-12.821.062t-10.839 1.161-12.604 1.963-8.186 2.361-8.363 3.549l-1.357.893m-10.42 5.509q.054-.341-.153-.6-.208-.26-.529-.38-.32-.119-.421-.155-.102-.035-.613.03-.51.065-.777.251-.268.186-.363.311-.095.126-.17.303-.075.178-.066.182t-.044.35q-.054.347.16.795t.54.669.714.269.6-.085q.212-.131.308-.255.097-.125.201-.415.105-.291.101-.398-.003-.106.016-.186.02-.08-.045-.341-.064-.26-.169-.378-.104-.117-.268-.212-.163-.096-.342-.161-.178-.065-.623-.123t-.777.145-.453.345q-.121.141-.187.438t-.029.504.358.478q.32.272.657.318t.512.012q.176-.034.617-.39.442-.357.605-.794t.014-.649-.274-.275-.405-.128q-.28-.067-.472-.016t-.329.265-.145.285.052.194q.059.122-.092.818m363.598 48.633-1.328-.41-4.46-.23q-1.666-.091-9.884.306-8.217.398-12.273 1.166t-6.039 1.417q-1.985.649-4.562 2.036t-4.264 2.676q-1.685 1.289-4.687 4.693t-4.786 7.709q-1.785 4.306-2.084 7.603t.148 5.5q.447 2.202 1.445 3.681.997 1.479 2.732 3.334t3.7 3.3 2.998 2.004 2.377 1.213 3.927 1.59 4.022 1.305q1.437.369 2.162.506.724.138 5.198.552 4.473.414 5.443.414.971 0 5.998-.251 5.027-.25 8.491-.766 3.465-.516 8.807-1.861 5.343-1.346 7.669-2.088t6.26-2.417 7.181-3.671 5.458-3.83q2.212-1.836 3.088-2.748t2.143-2.694 1.885-3.083 1.029-2.909.446-2.599-.042-1.598q-.079-.606-.669-2.16-.868-1.957-5.709-5.473t-9.247-4.936-7.11-1.888-4.56-.709-5.824-.442-5.78-.284q-1.813-.085-3.445-.006-1.633.078-2.427.147m72.23-199.599 1.867.72 2.012.969q3.087 1.691 11.181 4.639t14.631 5.348 11.208 4.573 16.237 7.858 20.439 9.559 14.965 6.377 11.919 4.789 8.939 3.467 22.001 8.898 33.172 12.756l2.245.059"/>
        <path d="M589.501 629.943q5.177 9.189 6.899 12.643 1.723 3.453 2.57 5.091.848 1.638 4.635 8.888t7.042 13.665q3.253 6.414 5.455 10.705t5.22 9.849 5.312 9.676 4.575 8.339 5.551 10.475 11.633 22.181l.858 1.87"/>
        <path d="m615.85 752.744 3.988.154q.235.052 3.258.463t8.066-.024 8.341-1.289 6.381-2.164 5.265-2.653 4.75-3.394q2.568-2.052 2.9-2.325t1.366-1.376 2.215-2.551 1.758-2.159 1.035-1.33 1.381-2.089 2.145-3.62q1.223-2.152 1.568-2.905.345-.754.717-1.817t.78-2.134 2.003-5.694m3.582.216q.199.238.899.917t1.637 1.35 2.291 1.6q1.353.929 3.431 2.602t2.411 1.935 2.751 2.667 3.851 4.255 1.981 2.701 1.029 1.509 2.374 4.842q1.892 4.184 2.655 6.806t1.435 6.266q.672 3.646.86 6.956t.183 3.675m-67.057 37.104q2.138-1.801 2.894-2.778.755-.976.893-1.175t2.56-3.106q2.423-2.907 3.978-4.573t4.368-4.07q2.814-2.403 4.897-3.849t7.316-3.71 11.421-4.362 8.473-2.578 4.06-.841 5.755-.94l3.897-.728m-85.225-12.907.253.66.643 4.144q.125.322 1.366 6.782t2.084 9.587 1.598 4.926 2.826 4.623 3.743 4.553 3.411 3.145 3.119 2.272q1.381.858 1.814 1.088t4.166 2.083m-46.942-40.08-.981-.606-3.824-1.059q-.498-.071-4.694-1.676t-6.493-2.541-3.871-1.831q-1.575-.896-6.391-3.707t-7.817-4.51q-3.003-1.698-7.888-4.574-4.886-2.876-8.046-5.113t-7.114-7.056q-.355-.758-.957-1.892-.603-1.133-1.56-2.702t-2.202-3.719"/>
        <path d="M585.495 746.793q.193.322.729 1.707l.422.746q.172.45 2.597 3.183 2.426 2.734 3.246 3.766t1.25 2.089q.429 1.057.325 2.301-3.07 2.139-9.81 4.869m-55.462-45.913q2.294.257 2.49.282.196.026 13.222 3.094.079.078.154.263t.75.558m-16.927-2.246-.089.603-.144.647q-.1 1.482-.114 1.749t.254 4.939.811 6.39.968 2.116q.426.398 1.192 1.901M431.69 837.83q1.798-.683 3.575-1.621 1.777-.939 1.934-1.053.158-.115 6.546-3.339 6.387-3.224 19.672-9.912t16.655-8.371m-23.556 42.642q.704-.25 4.944-2.85 4.239-2.601 8.142-5.203 3.903-2.601 15.197-10.109 11.295-7.508 14.208-9.211t7.548-4.476l2.743-1.473"/>
        <path d="m443.99 813.948 1.263.437 2.318 1.39q.703.364 6.676 4.89 5.974 4.527 8.688 6.612t5.409 4.14q2.695 2.053 4.633 3.469t4.92 3.689q2.982 2.274 4.421 3.191t2.502 1.638 2.065 1.434 3.937 2.529l1.991 1.128 3.057 1.631m-127.541-61.499q.574-.138 1.474-.421 9.889-.613 12.682-.729 2.794-.117 6.479-.043t8.836.304q5.15.23 10.942.358 5.792.129 11.266.275t11.451.262 10.919.165 15.548-.077q10.604-.126 15.769-.397 5.164-.271 17.977-1.309t19.884-1.599 13.416-.742q6.347-.18 14.844-.44 8.497-.261 18.633-.617 10.137-.355 15.689-.613 5.552-.257 11.473-.74 5.922-.484 14.189-.837t15.93-.16q.337-.045 2.377.483m-249.158 92.87 1.098.126 2.801-.263q.642.03 6.47-.823 5.828-.852 9.94-1.632t10.679-1.302q6.567-.521 16.285-.299t13.931.575 11.054.517q6.843.163 12.485.337t8.305.351 8.689.272q6.026.097 12.526.094 6.499-.002 15.538-.28 9.039-.279 13.451-.399 4.411-.121 7.819-.179 3.408-.059 8.658-.125 5.251-.066 8.426-.067 3.176-.001 15.237-.33 12.061-.33 26.313-1.611 14.253-1.281 22.562-2.106 8.309-.824 11.605-1.276 3.295-.453 21.154-2.232t27.269-2.387 16.213-1.006 11.057-.634 9.729-.419q5.473-.184 13.218-.29t11.756-.079 35.649-1.031 48.044-1.817 23.98-.978 11.431-.39q3.855-.172 16.574-.019 12.718.152 18.675.427 5.956.274 9.086.36t8.236.295l2.501.373m-145.906-71.549q.368.186 1.016.91.648.725 1.587 1.49.939.766 2.737 2.016t4.1 2.742 9.034 5.783 10.567 7.01 5.224 3.669 4.749 3.091 5.111 3.227 3.445 2.337q1.696 1.253 3.548 2.577t4.038 2.679 3.064 1.963 3.397 2.019 3.381 1.759m-2.032-47.883.331 1.411q.27 4.745.34 5.875t.35 9.621.449 14.502.765 11.201l-.711 3.007m-62.938-79.746q.277 1.03.499 12.18.223 11.15-.311 24.519l-.499 1.529m-.423-43.253 2.149-.677 2.043-.418 3.274-.516q1.735-.172 10.945-1.591t17.137-1.974q7.926-.554 11.192-.644t5.483-.291 4.113-.339q1.897-.137 3.111-.164t1.326-.012q.112.013 1.798.043 1.687.029 5.156-.183l.509.165 1.191.138m-68.185 8.217q.337.118 2.052 1.015 1.715.898 4.302 2.536 2.588 1.639 4.075 2.515 1.486.877 3.099 1.737t8.382 4.184 10.512 5.174q3.742 1.851 8.211 4.368t7.048 4.046 4.681 2.495 3.637 1.776 2.291 1.232 1.582.921l3.686 2.228m3.809-43.252 1.59.936q1.046 1.061 2.059 2.015t2.158 1.936q1.144.982 2.141 1.701.996.72 3.989 2.662t5.293 3.477 4.214 2.859q1.913 1.324 4.083 2.835t4.196 3.075q2.026 1.565 3.52 2.753t1.956 1.573 2.839 2.206 4.643 3.406q2.264 1.586 2.903 2.025.638.438 2.506 1.593t2.789 1.688 4.47 2.926m-55.152 4.808q1.016.733 2.588 2.319l2.052.431q19.668-1.079 26.367-2.029 6.699-.951 20.478-2.794l1.015.753m2.455 1.222-.162 1.661q.003 1.144.06 2.145.057 1 .094 1.42t.337 2.547.864 7.02 1.162 20.062l-.296 3.175m-59.271 9.222 2.176-.165q.946.067 11.061-1.257t15.675-2.06 9.178-1.084q3.618-.349 7.495-.627t6.274-.272q2.396.005 2.708-.051l2.25-.415m-109.204-53.006.266.515q.733 1.187 1.337 1.973.603.785 1.965 2.425 1.362 1.641 2.668 3.129t2.886 3.106 2.571 2.499q.993.881 3.032 2.37t3.004 2.022 2.929 1.365q1.965.834 4.839 1.584t5.269 1.115 8.391.656"/>
        <path d="M807.26 785.849q-.192.046-.806.278-.614.231-1.031.449t-.586.404-.326.494-.217.727.163.616.542.327.552.099.387-.185.231-.385q.079-.232.132-.224.054.007-.062-.183-.115-.191-.249-.304-.133-.113-.629-.324.138.472.257.607.118.134.471.218.353.085.792.114t.67-.132q.231-.162.382-.453.152-.291.455-.705m-378.389 85.292q-.053.353.12 8.068t.583 13.839q.409 6.125.581 8.364t.378 3.887.398 4.799"/>
        <circle cx="520.725" cy="873.19" r="2.5" fill="#FFF" stroke-width=".1"/>
        <path d="M519.314 874.628q.153.487.227.703.073.217-.184 1.174l.114 3.442q.124.342.909 21.016l.093.177.019.388-.077 1.397"/>
    </g>
</svg>
