<?xml version="1.0" encoding="UTF-8" standalone="no"?>
<!-- Generator: Adobe Illustrator 26.1.0, SVG Export Plug-In . SVG Version: 6.00 Build 0)  -->

<svg
   version="1.1"
   id="Layer_1"
   x="0px"
   y="0px"
   viewBox="0 0 960 480"
   style="enable-background:new 0 0 960 480;"
   xml:space="preserve"
   sodipodi:docname="boundaries.svg"
   inkscape:version="1.2.1 (9c6d41e410, 2022-07-14, custom)"
   xmlns:inkscape="http://www.inkscape.org/namespaces/inkscape"
   xmlns:sodipodi="http://sodipodi.sourceforge.net/DTD/sodipodi-0.dtd"
   xmlns="http://www.w3.org/2000/svg"
   xmlns:svg="http://www.w3.org/2000/svg"><defs
   id="defs7358" /><sodipodi:namedview
   id="namedview7356"
   pagecolor="#505050"
   bordercolor="#eeeeee"
   borderopacity="1"
   inkscape:showpageshadow="0"
   inkscape:pageopacity="0"
   inkscape:pagecheckerboard="0"
   inkscape:deskcolor="#505050"
   showgrid="false"
   inkscape:zoom="0.9995249"
   inkscape:cx="491.23339"
   inkscape:cy="242.11503"
   inkscape:window-width="938"
   inkscape:window-height="1023"
   inkscape:window-x="0"
   inkscape:window-y="0"
   inkscape:window-maximized="1"
   inkscape:current-layer="Layer_1" />
<g
   id="New_Layer_13"
   opacity="1"
   transform="matrix(1.3333333,0,0,1.3333333,902.10866,-4260.7619)"><path
     id="STROKE_f4b218be-5ee1-4739-b22d-d41de9502208"
     opacity="1"
     fill="none"
     stroke="#FFFFFF"
     stroke-width="5"
     stroke-opacity="1"
     stroke-linecap="round"
     stroke-linejoin="round"
     d="m -488.426,3273.368 q 0.329,-0.042 4.57,0.179 4.24,0.221 6.675,0.438 2.435,0.217 4.634,0.586 2.199,0.368 7.596,1.496 5.396,1.129 13.444,2.01 8.048,0.881 13.568,1.102 5.521,0.221 13.179,0.864 7.659,0.643 16.844,1.166 9.186,0.523 20.134,1.333 10.947,0.81 17.46,1.168 6.513,0.359 10.775,0.395 4.263,0.036 16.627,0.216 12.363,0.181 22.387,0.406 10.023,0.224 14.632,0.157 4.609,-0.067 15.472,-0.1 10.862,-0.032 21.701,0.089 10.839,0.121 18.514,0.057 7.674,-0.065 11.268,-0.117 3.594,-0.053 5.835,-0.108 2.241,-0.056 11.88,0.26 l 1.52,0.302" /><path
     id="STROKE_0a7c0ab4-f96d-440a-83dc-df067a5d58a3"
     opacity="1"
     fill="none"
     stroke="#FFFFFF"
     stroke-width="5"
     stroke-opacity="1"
     stroke-linecap="round"
     stroke-linejoin="round"
     d="m -217.393,3286.59 0.491,1.267 0.17,2.158 q -0.035,0.192 0.123,7.595 0.158,7.402 0.22,12.742 0.061,5.34 0.057,9.708 -0.004,4.367 -0.009,6.805 -0.004,2.437 -0.078,6.185 -0.074,3.749 -0.138,10.796 -0.064,7.046 0.126,16.439 0.191,9.392 0.376,15.113 0.185,5.721 0.557,12.141 0.372,6.419 0.968,14.731 0.595,8.311 0.853,12.397 0.258,4.087 1.585,22.767 1.327,18.68 2.339,34.469 1.012,15.789 1.417,23.182 0.404,7.393 0.611,10.186 0.206,2.794 0.386,5.756 0.181,2.962 0.252,3.883 0.072,0.922 0.226,4.763 0.153,3.842 0.174,6.034 0.021,2.192 0.001,3.621 -0.02,1.429 -0.027,4.163 -0.008,2.733 -0.014,4.493 -0.007,1.759 0.001,2.48 0.009,0.721 -0.018,3.537 l -0.057,0.628" /><path
     id="STROKE_23b25688-e5c2-4b69-9283-d65110362793"
     opacity="1"
     fill="none"
     stroke="#FFFFFF"
     stroke-width="5"
     stroke-opacity="1"
     stroke-linecap="round"
     stroke-linejoin="round"
     d="m -423.555,3206.514 q -0.09,0.387 -0.216,7.364 -0.126,6.978 0.091,11.287 0.218,4.308 0.823,10.418 0.605,6.11 0.742,29.078 0.137,22.967 0.331,31.596 0.195,8.629 0.225,14.64 0.03,6.011 -0.059,13.011 -0.09,7 -0.193,19.655 -0.103,12.655 -0.187,19.201 -0.084,6.547 -0.319,11.197 -0.234,4.65 -0.635,14.392 -0.402,9.741 -1.023,24.84 -0.621,15.099 -0.97,26.192 -0.35,11.094 -0.571,18.071 -0.221,6.978 -0.521,11.475 l -0.24,1.432" /><path
     id="STROKE_3a920c3a-eb94-4a06-a55c-0754abbe8404"
     opacity="1"
     fill="none"
     stroke="#FFFFFF"
     stroke-width="5"
     stroke-opacity="1"
     stroke-linecap="round"
     stroke-linejoin="round"
     d="m -425.341,3477.627 4.001,0.098 q 0.34,-0.05 10.443,0.354 10.103,0.404 18.263,0.614 8.159,0.21 14.339,0.373 6.18,0.163 15.866,0.231 9.685,0.067 15.34,-0.059 5.655,-0.127 18.017,-0.345 12.362,-0.218 20.419,0.043 8.057,0.261 19.644,0.945 11.586,0.684 22.79,0.921 11.203,0.237 19.25,0.529 8.046,0.291 18.483,0.704 10.437,0.413 15.573,0.515 5.137,0.102 13.189,0.159 8.053,0.058 18.535,0.176 10.482,0.118 18.915,0.452 8.433,0.333 15.456,0.443 l 2.081,0.176" /><path
     id="STROKE_025c7311-0d97-48a1-8c77-93ca9b8d50c6"
     opacity="1"
     fill="none"
     stroke="#FFFFFF"
     stroke-width="10"
     stroke-opacity="1"
     stroke-linecap="round"
     stroke-linejoin="round"
     d="m -474.032,3518.571 q 0.26,-0.211 3.264,-3.403 3.003,-3.191 7.249,-7.607 4.245,-4.416 5.092,-5.183 0.847,-0.766 1.462,-1.284 0.615,-0.518 1.838,-1.49 1.223,-0.973 3.758,-3.149 2.535,-2.176 4.371,-3.843 1.837,-1.667 8.01,-6.779 6.173,-5.112 12.451,-10.375 6.277,-5.263 9.128,-7.83 2.851,-2.567 7.35,-6.492 4.5,-3.924 13.353,-11.933 8.853,-8.01 14.697,-13.666 5.843,-5.656 11.478,-10.894 5.635,-5.239 11.644,-11.206 6.009,-5.968 10.515,-10.177 4.506,-4.208 8.253,-7.731 3.747,-3.524 8.091,-7.741 4.345,-4.218 6.496,-6.141 2.151,-1.922 4.738,-4.085 2.587,-2.162 7.818,-6.328 5.231,-4.165 10.433,-8.358 5.202,-4.192 8.607,-6.882 3.406,-2.69 8.501,-6.942 5.096,-4.252 8.581,-7.624 3.486,-3.372 5.671,-5.605 2.186,-2.233 3.419,-3.516 1.234,-1.283 5.921,-5.997 4.688,-4.714 8.39,-8.358 3.703,-3.644 5.837,-5.73 2.135,-2.087 4.675,-4.523 2.541,-2.436 12.019,-11.039 9.478,-8.603 15.844,-14.332 6.366,-5.729 11.214,-10.343 4.848,-4.614 10.586,-9.81 5.739,-5.196 8.574,-7.756 2.835,-2.561 4.226,-3.807 1.392,-1.246 4.617,-4.083 3.225,-2.838 6.489,-5.833 l 1.12,-0.833" /></g></svg>
