<?xml version="1.0" encoding="UTF-8" standalone="no"?>
<!-- Generator: Adobe Illustrator 26.1.0, SVG Export Plug-In . SVG Version: 6.00 Build 0)  -->

<svg
   version="1.1"
   id="Layer_1"
   x="0px"
   y="0px"
   viewBox="0 0 960 480"
   style="enable-background:new 0 0 960 480;"
   xml:space="preserve"
   sodipodi:docname="consistent-progress.svg"
   inkscape:version="1.2.1 (9c6d41e410, 2022-07-14, custom)"
   xmlns:inkscape="http://www.inkscape.org/namespaces/inkscape"
   xmlns:sodipodi="http://sodipodi.sourceforge.net/DTD/sodipodi-0.dtd"
   xmlns="http://www.w3.org/2000/svg"
   xmlns:svg="http://www.w3.org/2000/svg"><defs
   id="defs6504" /><sodipodi:namedview
   id="namedview6502"
   pagecolor="#505050"
   bordercolor="#eeeeee"
   borderopacity="1"
   inkscape:showpageshadow="0"
   inkscape:pageopacity="0"
   inkscape:pagecheckerboard="0"
   inkscape:deskcolor="#505050"
   showgrid="false"
   inkscape:zoom="0.70677083"
   inkscape:cx="529.16728"
   inkscape:cy="220.72218"
   inkscape:window-width="938"
   inkscape:window-height="1023"
   inkscape:window-x="0"
   inkscape:window-y="0"
   inkscape:window-maximized="1"
   inkscape:current-layer="Layer_1" />
<g
   id="New_Layer_11"
   opacity="1"
   transform="matrix(1.3333333,0,0,1.3333333,876.36982,-3690.2259)"><path
     id="STROKE_41be5203-7cfd-47ed-9cd6-b6aa04280a12"
     opacity="1"
     fill="none"
     stroke="#000000"
     stroke-width="5"
     stroke-opacity="1"
     stroke-linecap="round"
     stroke-linejoin="round"
     d="m -351.485,3039.095 q -0.154,0.042 -1.556,0.458 -1.402,0.416 -2.3,0.603 -0.898,0.188 -2.126,0.378 -1.229,0.19 -2.294,0.277 -1.065,0.087 -2.372,0.033 -1.306,-0.054 -2.278,-0.184 -0.971,-0.129 -2.322,-0.44 -1.351,-0.31 -2.683,-0.621 -1.333,-0.311 -3.897,-1.067 -2.564,-0.756 -5.38,-1.674 -2.816,-0.918 -5.226,-1.881 -2.41,-0.964 -4.421,-2.107 -2.011,-1.143 -2.498,-1.469 -0.487,-0.327 -0.739,-0.466 -0.253,-0.14 -3.33,-2.905 -3.077,-2.764 -4.72,-4.678 -1.643,-1.915 -3.565,-5.029 -1.922,-3.115 -3.519,-6.648 -1.597,-3.533 -2.607,-6.636 -1.01,-3.102 -1.343,-4.314 -0.333,-1.212 -1.01,-4.2 -0.677,-2.987 -1.061,-7.266 -0.384,-4.279 -0.192,-8.148 0.193,-3.869 0.712,-6.508 0.519,-2.64 1.631,-6.111 1.111,-3.471 2.647,-6.062 1.537,-2.591 2.064,-3.297 0.527,-0.707 2.353,-2.861 1.826,-2.154 3.191,-3.43 1.364,-1.276 2.346,-2.03 0.983,-0.755 6.431,-3.815 5.448,-3.061 8.686,-4.412 3.238,-1.351 5.86,-2.06 2.623,-0.71 9.157,-1.453 6.534,-0.744 9.587,-0.95 3.054,-0.205 5.161,-0.278 2.107,-0.073 2.817,-0.151 0.71,-0.079 1.595,-0.553 l -0.057,-0.261 q -0.222,-0.757 -1.005,-2.305 -0.784,-1.547 -1.663,-3.05 -0.879,-1.503 -1.714,-3.11 -0.834,-1.607 -1.604,-3.486 -0.77,-1.879 -1.206,-3.285 -0.436,-1.406 -1.39,-5.715 -0.954,-4.309 -1.277,-9.933 -0.324,-5.624 0.196,-10.756 0.52,-5.131 1.316,-8.732 0.795,-3.6 2.335,-7.656 1.54,-4.056 4.569,-8.838 3.028,-4.782 8.444,-10.829 5.415,-6.048 9.031,-8.84 3.616,-2.793 6.777,-4.691 3.161,-1.897 10.026,-4.644 6.864,-2.747 11.465,-3.866 4.601,-1.119 6.23,-1.355 1.629,-0.236 5.418,-0.532 3.79,-0.297 7.555,-0.19 3.765,0.106 6.582,0.434 2.817,0.328 7.442,2.001 4.625,1.673 7.218,3.282 2.593,1.61 5.325,4.31 2.732,2.701 6.231,8.262 3.499,5.562 4.808,7.988 1.309,2.427 3.083,6.04 1.773,3.613 3.13,6.677 1.357,3.065 3.435,7.337 2.079,4.272 3.105,5.797 1.027,1.524 1.632,0.953 0.605,-0.571 1.464,-1.704 0.859,-1.132 2.163,-2.806 1.304,-1.675 2.253,-2.641 0.95,-0.966 1.751,-1.555 0.802,-0.589 6.274,-3.615 5.471,-3.027 10.185,-4.704 4.713,-1.677 7.514,-2.442 2.8,-0.764 8.008,-1.555 5.208,-0.792 9.725,-0.797 4.518,-0.01 8.732,0.628 4.215,0.632 9.57,2.003 5.356,1.371 8.024,2.293 2.668,0.922 5.356,2.298 2.688,1.376 6.077,3.866 3.389,2.489 5.047,3.913 1.659,1.423 3.03,2.87 1.37,1.447 3.567,4.367 2.197,2.922 3.657,5.287 1.461,2.366 3.832,7.626 2.372,5.261 4.141,10.41 1.768,5.15 2.325,7.503 0.556,2.352 1.057,6.72 0.501,4.368 0.258,9.329 -0.244,4.961 -1.215,9.161 -0.971,4.199 -1.721,7.382 -0.75,3.183 -0.634,4.392 0.115,1.209 0.329,1.374 0.934,0.459 1.864,0.697 0.929,0.238 2.633,0.692 1.703,0.455 2.663,0.811 0.96,0.356 2.218,0.902 1.258,0.546 3.645,1.998 2.386,1.451 3.562,2.387 1.176,0.937 2.718,2.429 1.543,1.493 1.924,1.909 0.381,0.417 1.223,1.355 0.841,0.937 2.977,3.794 2.136,2.857 3.428,4.905 1.292,2.049 2.037,3.393 0.745,1.344 1.525,2.96 0.78,1.617 2.277,5.387 1.497,3.77 2.467,6.968 0.97,3.198 1.477,6.846 0.506,3.647 0.438,6.12 -0.068,2.472 -0.333,4.299 -0.266,1.827 -0.303,2.042 -0.037,0.214 -0.97,3.389 -0.934,3.175 -1.654,4.731 -0.72,1.557 -1.302,2.556 -0.582,0.999 -1.763,2.515 -1.18,1.517 -3.272,3.391 -2.091,1.873 -3.012,2.473 -0.92,0.599 -1.074,0.703 -0.154,0.104 -1.554,0.707 -1.4,0.603 -3.785,1.182 -2.385,0.578 -2.564,0.621 -0.179,0.043 -3.852,0.534 -3.674,0.491 -6.648,0.835 -2.975,0.344 -4.636,0.543 -1.66,0.2 -4.125,0.476 -2.464,0.276 -9.525,0.831 -7.06,0.556 -10.511,0.77 -3.452,0.214 -8.24,0.501 -4.788,0.286 -13.632,0.78 -8.844,0.493 -13.512,0.734 -4.669,0.241 -7.064,0.317 -2.396,0.076 -5.689,0.215 -3.293,0.14 -15.128,0.437 -11.836,0.297 -19.346,0.309 -7.51,0.012 -11.13,-0.045 -3.62,-0.056 -5.642,-0.052 -2.022,0 -12.575,0.046 -10.554,0.042 -16.722,0.044 -6.168,0 -14.323,-0.034 -8.156,-0.037 -10.76,-0.104 -2.605,-0.067 -8.145,-0.146 -5.539,-0.079 -13.235,-0.144 -7.696,-0.066 -9.994,-0.123 -2.298,-0.056 -6.21,-0.189 -3.913,-0.133 -5.491,-0.25 -1.578,-0.118 -1.739,-0.136 -0.161,-0.018 -9.24,-0.746 -9.079,-0.729 -10.875,-0.849" /><path
     id="STROKE_19d5b4e8-c991-49bb-a71d-89f42ba3ea2b"
     opacity="1"
     fill="none"
     stroke="#000000"
     stroke-width="5"
     stroke-opacity="1"
     stroke-linecap="round"
     stroke-linejoin="round"
     d="m -406.373,2958.322 q -2.179,0.084 -2.973,0.168 -0.795,0.083 -1.695,0.191 -0.9,0.108 -2.042,0.175 -1.141,0.067 -2.499,0.018 -1.358,-0.049 -2.85,-0.233 -1.492,-0.185 -3.698,-0.846 -2.207,-0.66 -3.618,-1.233 -1.411,-0.571 -4.118,-1.901 -2.708,-1.329 -5.4,-3.109 -2.692,-1.781 -4.051,-3.026 -1.359,-1.246 -2.578,-2.697 -1.22,-1.452 -1.698,-2.055 -0.478,-0.603 -1.816,-2.309 -1.338,-1.706 -2.995,-4.531 -1.657,-2.825 -3.034,-6.036 -1.377,-3.21 -2.435,-7.33 -1.058,-4.119 -1.495,-6.82 -0.436,-2.702 -0.774,-6.372 -0.337,-3.67 -0.097,-8.504 0.24,-4.834 0.641,-7.26 0.401,-2.426 0.734,-3.811 0.334,-1.385 0.841,-3.026 0.507,-1.641 1.201,-3.454 0.694,-1.813 1.23,-2.951 0.536,-1.139 1.369,-2.642 0.833,-1.504 3.22,-5.079 2.387,-3.575 3.947,-5.455 1.56,-1.88 2.764,-3.096 1.203,-1.216 1.857,-1.789 0.654,-0.574 2.063,-1.626 1.41,-1.052 2.36,-1.65 0.95,-0.598 4.391,-2.179 3.442,-1.582 5.138,-2.2 1.696,-0.619 2.707,-0.968 1.011,-0.349 3.679,-0.794 2.669,-0.446 5.061,-0.614 2.392,-0.169 4.527,-0.292 2.134,-0.123 2.241,-0.136 0.107,-0.012 2.316,0.022 2.209,0.033 4.369,0.106 2.159,0.072 2.222,0.082 0.063,0.01 2.473,0.234 2.41,0.225 4.006,0.401 1.596,0.176 3.171,0.438 1.575,0.261 2.194,0.374 0.619,0.112 1.612,0.372 0.992,0.26 2.516,0.753 1.523,0.493 2.807,0.987 1.283,0.494 3.142,1.469 1.86,0.975 2.855,1.597 0.995,0.623 1.649,1.116 0.654,0.492 1.552,1.148 0.897,0.655 2.991,2.827 2.094,2.172 2.736,2.93 0.642,0.757 1.285,1.673 0.642,0.916 1.583,2.324 0.941,1.409 1.426,2.269 0.485,0.861 1.306,2.566 0.821,1.704 2.204,5.459" /><circle
     id="STROKE_ef3501a8-61d0-43eb-b753-bb9831fff7eb"
     opacity="1"
     fill="#000000"
     stroke="#000000"
     stroke-width="0.1"
     stroke-opacity="1"
     fill-opacity="1"
     cx="-352.61099"
     cy="2931.022"
     r="2.5" /><path
     id="STROKE_f562c6a8-4b09-4182-8cff-9720c0b70321"
     opacity="1"
     fill="none"
     stroke="#000000"
     stroke-width="5"
     stroke-opacity="1"
     stroke-linecap="round"
     stroke-linejoin="round"
     d="m -352.669,2931.375 q -0.55,0.499 -0.852,1.019 -0.301,0.52 -0.915,1.313" /><path
     id="STROKE_abc0f6a9-1668-491f-8668-3017f7c1bf23"
     opacity="1"
     fill="none"
     stroke="#000000"
     stroke-width="5"
     stroke-opacity="1"
     stroke-linecap="round"
     stroke-linejoin="round"
     d="m -437.282,2994.45 q -0.333,0.734 -2.293,5.331 -1.961,4.598 -5.948,15.525 -3.987,10.927 -4.535,12.438" /><path
     id="STROKE_a528a492-7786-44cd-8703-57f7b5c74432"
     opacity="1"
     fill="none"
     stroke="#000000"
     stroke-width="5"
     stroke-opacity="1"
     stroke-linecap="round"
     stroke-linejoin="round"
     d="m -475.609,2964.533 q -0.939,0.172 -14.839,6.534 -13.9,6.361 -16.207,7.502" /><path
     id="STROKE_a2a48222-c8b2-4789-838a-8b7da60304df"
     opacity="1"
     fill="none"
     stroke="#000000"
     stroke-width="5"
     stroke-opacity="1"
     stroke-linecap="round"
     stroke-linejoin="round"
     d="m -486.404,2916.348 -1.031,-0.036 q -0.691,-0.073 -7.181,-0.192 -6.491,-0.119 -10.448,-0.416 -3.957,-0.298 -6.095,-0.481" /><path
     id="STROKE_fd3139c9-82f5-4e1c-86c1-9c1050344de6"
     opacity="1"
     fill="none"
     stroke="#000000"
     stroke-width="5"
     stroke-opacity="1"
     stroke-linecap="round"
     stroke-linejoin="round"
     d="m -469.105,2858.358 q -0.896,-0.228 -3.829,-0.888 -2.932,-0.659 -5.255,-1.393 -2.324,-0.734 -7.779,-3.047 -5.456,-2.314 -7.134,-3.066" /><path
     id="STROKE_412b385d-f312-4e46-847f-f191843fcfd2"
     opacity="1"
     fill="none"
     stroke="#000000"
     stroke-width="5"
     stroke-opacity="1"
     stroke-linecap="round"
     stroke-linejoin="round"
     d="m -431.283,2830.353 q -0.366,-0.477 -0.716,-1.025 -0.35,-0.548 -0.624,-1.122 -0.273,-0.573 -0.851,-1.978 -0.578,-1.406 -2.35,-6.143 -1.773,-4.737 -3.958,-10.636 -2.185,-5.9 -2.723,-7.317" /><path
     id="STROKE_0da6cfe1-2ad1-4441-a308-9dce6ee8cec2"
     opacity="1"
     fill="none"
     stroke="#000000"
     stroke-width="5"
     stroke-opacity="1"
     stroke-linecap="round"
     stroke-linejoin="round"
     d="m -387.889,2821.104 q 0.006,-0.826 0.894,-4.553 0.889,-3.728 2.234,-7.82 1.346,-4.091 3.939,-11.047" /><path
     id="STROKE_fa7fa176-1528-45f1-9e21-fc161c890d74"
     opacity="1"
     fill="none"
     stroke="#000000"
     stroke-width="5"
     stroke-opacity="1"
     stroke-linecap="round"
     stroke-linejoin="round"
     d="m -348.863,2837.473 q 4.936,-4.253 7.095,-6.227 2.159,-1.975 5.981,-5.986 3.821,-4.011 5.407,-5.769" /><path
     id="STROKE_4a6a72ae-8bd0-4ed1-9f85-4acc81dfcc57"
     opacity="1"
     fill="none"
     stroke="#000000"
     stroke-width="5"
     stroke-opacity="1"
     stroke-linecap="round"
     stroke-linejoin="round"
     d="m -235.398,2986.761 -0.33,-0.047 q -0.298,-0.11 -0.726,-0.217 -0.428,-0.107 -0.76,-0.134 -0.332,-0.026 -0.854,0.013 -0.522,0.039 -1.33,0.332 -0.808,0.292 -0.927,0.377 -0.118,0.084 -0.32,0.326 -0.202,0.241 -0.322,0.48 -0.12,0.239 -0.253,0.954 -0.132,0.715 -0.025,1.584 0.106,0.869 0.135,1.008 0.028,0.138 0.275,0.532 0.246,0.394 0.708,0.842 0.461,0.449 1.436,0.548 0.975,0.099 1.474,-0.084 0.498,-0.183 0.96,-0.5 0.463,-0.317 0.83,-0.867 0.368,-0.55 0.459,-0.784 0.092,-0.234 0.087,-0.885 -0.005,-0.652 -0.073,-0.798 -0.067,-0.147 -0.269,-0.637 -0.201,-0.49 -1.787,-2.898" /><path
     id="STROKE_e54e19bf-4d65-42fe-b86d-1faa62acf7c0"
     opacity="1"
     fill="none"
     stroke="#000000"
     stroke-width="5"
     stroke-opacity="1"
     stroke-linecap="round"
     stroke-linejoin="round"
     d="m -232.505,2989.717 1.724,0.285 q 1.683,-0.02 2.676,-0.13 0.993,-0.11 2.152,-0.248 1.16,-0.139 1.936,-0.208 0.775,-0.069 3.524,-0.115 2.749,-0.047 4.273,-0.01 1.524,0.041 2.306,0.092 0.783,0.051 1.395,0.072 0.612,0.021 1.238,0.023 0.625,0 4.461,0.119 3.837,0.116 7.294,0.191 3.457,0.076 4.514,0.072 1.057,0 3.499,0.038 2.443,0.041 5.183,0.091 2.741,0.05 3.736,0.049 0.995,0 1.875,0.081 0.88,0.082 3.671,0.163 2.791,0.081 4.404,0.056 1.614,-0.025 3.457,-0.04 1.843,-0.016 9.779,-0.356 l 1.498,-0.229" /><path
     id="STROKE_9b952b15-434c-4edc-806c-f09f1393898d"
     opacity="1"
     fill="none"
     stroke="#000000"
     stroke-width="5"
     stroke-opacity="1"
     stroke-linecap="round"
     stroke-linejoin="round"
     d="m -170.259,2981.892 0.684,0.264 q 0.918,0.503 2.389,1.181 1.471,0.678 3.316,1.521 1.845,0.844 2.57,1.274 0.724,0.431 1.553,1.141 0.828,0.711 1.2,1.228 0.372,0.517 1.252,1.508 -0.339,2.043 -0.594,2.595 -0.255,0.551 -0.693,1.18 -0.439,0.629 -3.23,3.842 l -1.748,1.408" /><path
     id="STROKE_a0cb329c-4bfd-43a2-a66b-c5f2bcc15abb"
     opacity="1"
     fill="none"
     stroke="#000000"
     stroke-width="5"
     stroke-opacity="1"
     stroke-linecap="round"
     stroke-linejoin="round"
     d="m -322.322,3066.476 0.029,0.212 0.193,0.671 q 0.601,1.637 1.797,4.7 1.195,3.063 3.51,8.014 2.316,4.951 4.261,8.572 l 0.714,1.673" /><path
     id="STROKE_5c63d76f-ad00-4e5e-ada5-3d0e216a5a8c"
     opacity="1"
     fill="none"
     stroke="#000000"
     stroke-width="5"
     stroke-opacity="1"
     stroke-linecap="round"
     stroke-linejoin="round"
     d="m -304.906,3064.211 0.029,0.528 -0.035,0.423 q -0.296,1.669 -1.084,5.332 -0.788,3.663 -1.587,7.165 -0.8,3.501 -1.064,4.831 -0.265,1.331 -0.85,3.723 -0.586,2.392 -0.89,3.661 -0.303,1.269 -0.519,2.071" /><path
     id="STROKE_3fea72f4-84be-4b74-84c5-0a3f84391bb0"
     opacity="1"
     fill="none"
     stroke="#000000"
     stroke-width="5"
     stroke-opacity="1"
     stroke-linecap="round"
     stroke-linejoin="round"
     d="m -294.674,3077.054 q 0.739,0.01 2.76,-0.106 2.021,-0.111 3.184,-0.227 1.163,-0.116 2.019,-0.251 0.857,-0.134 3.686,-0.894" /><path
     id="STROKE_1dc4fda6-b269-403d-b333-6e83ff47765e"
     opacity="1"
     fill="none"
     stroke="#000000"
     stroke-width="5"
     stroke-opacity="1"
     stroke-linecap="round"
     stroke-linejoin="round"
     d="m -291.626,3083.469 q 1.112,-0.249 2.023,-0.156 0.912,0.094 1.928,0.171 1.017,0.078 5.643,0.073 l 1.337,-0.156" /><path
     id="STROKE_1ca345e2-c687-4edb-8657-233ad8e1d6a2"
     opacity="1"
     fill="none"
     stroke="#000000"
     stroke-width="5"
     stroke-opacity="1"
     stroke-linecap="round"
     stroke-linejoin="round"
     d="m -232.156,3077.895 q 0.345,2.251 0.933,4.483 0.588,2.232 0.956,2.861 0.367,0.628 0.842,-0.017 0.195,-0.479 0.519,-1.302 0.325,-0.823 0.996,-1.849 0.672,-1.025 1.355,-1.754 0.683,-0.729 1.319,-1.196 0.636,-0.468 0.875,-0.588 0.239,-0.12 0.987,-0.239 0.748,-0.118 1.786,1.277 1.037,1.395 1.553,2.261 0.515,0.866 0.95,-0.176 0.436,-1.042 0.927,-2.026 0.492,-0.984 0.954,-1.468 0.462,-0.485 0.779,-0.651 0.317,-0.167 0.607,-0.233 0.291,-0.066 0.696,-0.041 0.405,0.025 0.873,0.305 0.468,0.28 1.159,1.309 0.692,1.028 1.021,2.914 0.33,1.886 0.455,4.037" /><path
     id="STROKE_b5b065c1-6f70-4a85-9d08-1b574413d242"
     opacity="1"
     fill="none"
     stroke="#000000"
     stroke-width="5"
     stroke-opacity="1"
     stroke-linecap="round"
     stroke-linejoin="round"
     d="m -193.538,3058.285 q 0.033,0.746 -0.089,1.682 -0.122,0.935 -0.182,1.18 -0.06,0.245 -0.73,3.563 -0.669,3.319 -1.711,7.72 -1.041,4.401 -3.152,11.477 -2.111,7.076 -4.349,13.072 l -0.31,0.676" /><path
     id="STROKE_a3660cb5-e602-4656-8e2a-01d4496ee63c"
     opacity="1"
     fill="none"
     stroke="#000000"
     stroke-width="5"
     stroke-opacity="1"
     stroke-linecap="round"
     stroke-linejoin="round"
     d="m -179.636,3072.606 q -1.051,0.067 -1.907,0.223 -0.856,0.156 -1.591,0.348 -0.734,0.192 -1.668,0.806 -0.934,0.614 -1.376,1.25 -0.441,0.637 -0.487,1.24 -0.046,0.604 0.174,1.092 0.219,0.488 1.833,1.283 1.614,0.796 2.479,1.091 0.865,0.296 1.584,0.676 0.719,0.38 1.137,0.88 0.418,0.5 0.556,0.932 0.138,0.433 0.133,0.629 -0.004,0.195 -0.067,0.403 -0.062,0.208 -0.368,0.432 -0.306,0.223 -0.884,0.467 -0.578,0.244 -7.322,1.232 l -0.769,-0.073" /><path
     id="STROKE_0286aac6-ad75-4507-a228-86a11557ad19"
     opacity="1"
     fill="none"
     stroke="#000000"
     stroke-width="5"
     stroke-opacity="1"
     stroke-linecap="round"
     stroke-linejoin="round"
     d="m -271.433,3084.139 q 1.113,-1.518 6.721,-14.623 0.115,-0.144 -0.015,2.412 -0.13,2.557 1.347,19.363 0.249,0.273 0.781,1.026" /><path
     id="STROKE_9646d4af-25d4-4522-b5a7-100c3b40234d"
     opacity="1"
     fill="none"
     stroke="#000000"
     stroke-width="5"
     stroke-opacity="1"
     stroke-linecap="round"
     stroke-linejoin="round"
     d="m -243.766,3076.585 q -0.097,-0.043 -0.948,-0.625 -0.85,-0.582 -1.766,-0.982 -0.916,-0.399 -2.328,-0.645 -1.411,-0.246 -2.441,0 -1.03,0.243 -1.379,0.456 -0.35,0.212 -0.449,0.256 -0.098,0.043 -1.048,1.01 -0.949,0.968 -1.447,1.954 -0.498,0.987 -0.821,2.479 -0.322,1.493 -0.353,2.78 -0.03,1.288 0.123,2.349 0.153,1.06 0.456,1.979 0.302,0.92 0.924,2.079 0.621,1.16 1.272,1.87 0.65,0.711 1.453,1.132 0.803,0.421 1.356,0.527 0.554,0.105 1.605,-0.215 1.051,-0.321 1.443,-0.622 0.393,-0.301 0.716,-0.559 0.323,-0.258 0.95,-0.988 0.626,-0.729 1.122,-1.768 0.497,-1.039 0.68,-1.64 0.183,-0.6 0.401,-1.444 0.218,-0.844 0.401,-2.243 0.182,-1.399 0.199,-2.822 0.016,-1.422 -0.1,-3.289 -0.115,-1.867 -0.157,-2.505" /></g></svg>
