<?xml version="1.0" encoding="UTF-8" standalone="no"?>
<!-- Generator: Adobe Illustrator 26.1.0, SVG Export Plug-In . SVG Version: 6.00 Build 0)  -->

<svg
   version="1.1"
   id="Layer_1"
   x="0px"
   y="0px"
   viewBox="0 0 960 480"
   style="enable-background:new 0 0 960 480;"
   xml:space="preserve"
   sodipodi:docname="distractions.svg"
   inkscape:version="1.2.1 (9c6d41e410, 2022-07-14, custom)"
   xmlns:inkscape="http://www.inkscape.org/namespaces/inkscape"
   xmlns:sodipodi="http://sodipodi.sourceforge.net/DTD/sodipodi-0.dtd"
   xmlns="http://www.w3.org/2000/svg"
   xmlns:svg="http://www.w3.org/2000/svg"><defs
   id="defs4205" /><sodipodi:namedview
   id="namedview4203"
   pagecolor="#505050"
   bordercolor="#eeeeee"
   borderopacity="1"
   inkscape:showpageshadow="0"
   inkscape:pageopacity="0"
   inkscape:pagecheckerboard="0"
   inkscape:deskcolor="#505050"
   showgrid="false"
   inkscape:zoom="0.70677083"
   inkscape:cx="370.70007"
   inkscape:cy="237.70081"
   inkscape:window-width="938"
   inkscape:window-height="1023"
   inkscape:window-x="0"
   inkscape:window-y="0"
   inkscape:window-maximized="1"
   inkscape:current-layer="Layer_1" />
<g
   id="New_Layer_5"
   opacity="1"
   transform="matrix(1.3333333,0,0,1.3333333,880.49594,-1966.8373)"><path
     id="STROKE_a0af8f36-2ee8-4450-b30d-95019c8e59d2"
     opacity="1"
     fill="none"
     stroke="#FFFFFF"
     stroke-width="5"
     stroke-opacity="1"
     stroke-linecap="round"
     stroke-linejoin="round"
     d="m -398.008,1674.122 -0.918,-0.731 q -1.155,-0.567 -2.099,-0.886 -0.945,-0.319 -1.951,-0.417 -1.007,-0.098 -2.598,0.382 -1.591,0.481 -2.327,0.968 -0.735,0.488 -1.047,0.848 -0.313,0.36 -0.719,1.066 -0.406,0.705 -0.688,1.399 -0.283,0.694 -0.423,1.424 -0.14,0.73 -0.136,1.355 0.004,0.624 0.071,1.015 0.067,0.391 0.474,1.248 0.407,0.858 0.878,1.474 0.47,0.617 1.106,1.113 0.636,0.497 1.23,0.734 0.594,0.236 1.044,0.366 0.451,0.129 1.586,0.265 1.136,0.136 2.094,0.06 0.959,-0.075 2.298,-0.482 1.34,-0.407 1.869,-0.709 0.529,-0.302 0.718,-0.452 0.188,-0.15 0.578,-0.628 0.391,-0.478 0.818,-1.254 0.427,-0.777 0.586,-1.422 0.158,-0.645 0.177,-1.627 0.018,-0.981 -0.113,-1.625 -0.13,-0.645 -0.27,-0.979 -0.139,-0.335 -0.359,-0.718 -0.284,-0.336 -0.52,-0.611 -0.237,-0.275 -1.032,-1.28" /><path
     id="STROKE_a700062d-801c-4106-94df-95d81872bec6"
     opacity="1"
     fill="none"
     stroke="#FFFFFF"
     stroke-width="5"
     stroke-opacity="1"
     stroke-linecap="round"
     stroke-linejoin="round"
     d="m -403.584,1686.249 q 0.091,0.539 0.228,3.595 0.137,3.055 0.148,3.455 0.01,0.4 0.085,2.018 0.074,1.619 0.146,5.015 0.072,3.397 0.181,6.652 0.11,3.255 0.228,6.435 0.117,3.18 0.133,4.836 0.015,1.655 0.04,4.668 0.024,3.013 0.026,6.82 0.002,3.806 -0.005,7.122 -0.007,3.315 -0.045,6.793 -0.038,3.478 -0.039,3.668 0,0.19 -0.042,1.467 -0.043,1.276 -0.058,1.682 -0.015,0.405 -0.069,2.011 -0.054,1.605 -0.118,2.738 -0.065,1.134 -0.253,3.164 -0.188,2.031 -0.433,4.245 -0.244,2.213 -0.517,4.785 -0.273,2.572 -0.496,4.829 -0.223,2.258 -0.376,3.801 -0.153,1.543 -0.385,3.531 l -0.142,0.918" /><path
     id="STROKE_c0afc0b9-fd11-47d7-8fc9-1fc03d7a8d2d"
     opacity="1"
     fill="none"
     stroke="#FFFFFF"
     stroke-width="5"
     stroke-opacity="1"
     stroke-linecap="round"
     stroke-linejoin="round"
     d="m -401.682,1733.498 q -0.002,1.373 0.031,2.856 0.033,1.482 0.048,1.584 0.015,0.101 0.101,1.884 0.086,1.783 0.122,2.725 0.036,0.941 0.191,2.58 0.156,1.638 0.312,3.204 0.156,1.565 0.216,2.314 0.059,0.748 0.117,1.116 0.058,0.369 0.295,2.279 0.237,1.911 0.316,2.717 0.078,0.807 0.232,2.069 0.153,1.263 0.417,3.284 0.264,2.021 0.446,3.171 0.182,1.15 0.347,2.022 0.166,0.872 0.386,1.892 0.22,1.021 0.421,1.951 0.201,0.929 0.37,1.702 0.169,0.773 0.435,1.848 l 0.151,0.864 q 0.195,0.81 0.829,3.86 0.025,0.069 0.044,0.181 0.018,0.111 0.046,0.322" /><path
     id="STROKE_bdf37c02-a17a-4b09-85a9-6f4a93f81b3b"
     opacity="1"
     fill="none"
     stroke="#FFFFFF"
     stroke-width="5"
     stroke-opacity="1"
     stroke-linecap="round"
     stroke-linejoin="round"
     d="m -403.227,1695.353 -0.106,0.434 -0.052,0.478 -0.078,1.024 q 0.012,0.19 -0.354,5.384 -0.366,5.194 -0.522,8.828 -0.155,3.635 -0.197,5.372 -0.042,1.736 -0.128,4.89 -0.087,3.155 -0.152,5.21 -0.066,2.056 -0.154,3.804 -0.088,1.748 -0.19,3.519 -0.101,1.772 -0.132,2.729 -0.031,0.956 -0.047,1.388 -0.015,0.432 -0.117,2.39" /><path
     id="STROKE_fb2cb135-8a50-45a9-b08e-0f9c2a7f5cc4"
     opacity="1"
     fill="none"
     stroke="#FFFFFF"
     stroke-width="5"
     stroke-opacity="1"
     stroke-linecap="round"
     stroke-linejoin="round"
     d="m -403.188,1696.688 -0.028,0.257 q 0.117,1.874 0.337,3.686 0.219,1.813 0.694,6.207 0.476,4.394 0.719,6.661 0.243,2.267 0.373,3.254 0.131,0.987 0.343,3.096 0.212,2.109 0.416,5.294 0.204,3.184 0.531,6.07 0.327,2.886 0.579,4.516 0.253,1.631 0.93,5.3 l 0.217,1.109" /><path
     id="STROKE_f862ca42-37a4-4d33-8077-c17169aaac8d"
     opacity="1"
     fill="none"
     stroke="#FFFFFF"
     stroke-width="5"
     stroke-opacity="1"
     stroke-linecap="round"
     stroke-linejoin="round"
     d="m -400.316,1677.221 -0.247,0.104" /><path
     id="STROKE_88f72d84-c9b1-4398-a16a-505394bb79b4"
     opacity="1"
     fill="none"
     stroke="#FFFFFF"
     stroke-width="5"
     stroke-opacity="1"
     stroke-linecap="round"
     stroke-linejoin="round"
     d="m -289.715,1770.812 -1.089,0.099 -0.875,-0.059 q -0.196,-0.048 -2.136,0.016 -1.94,0.064 -3.485,0.532 -1.544,0.468 -2.264,1.257 -0.721,0.789 -1.221,2.373 -0.499,1.584 -0.406,2.77 0.094,1.186 0.302,1.751 0.208,0.566 0.766,1.157 0.559,0.59 1.036,0.88 0.477,0.29 1.065,0.523 0.589,0.232 2.077,0.373 1.489,0.14 2.361,-0.033 0.872,-0.173 1.472,-0.547 0.6,-0.375 1.536,-1.394 0.936,-1.02 1.248,-1.738 0.312,-0.719 0.371,-0.877 0.058,-0.157 0.177,-1.313 0.118,-1.156 0.084,-1.413 -0.034,-0.257 -0.033,-1.29 -0.19,-0.635 -0.33,-2.201" /><path
     id="STROKE_f0cd94a4-7448-4190-8fad-16eb4b04f2f2"
     opacity="1"
     fill="none"
     stroke="#FFFFFF"
     stroke-width="5"
     stroke-opacity="1"
     stroke-linecap="round"
     stroke-linejoin="round"
     d="m -239.777,1772.874 q -0.449,-0.022 -1.103,-0.233 -0.655,-0.21 -2.18,-0.483 -1.526,-0.272 -2.406,-0.228 -0.881,0.043 -1.359,0.16 -0.478,0.116 -0.817,0.29 -0.339,0.174 -0.858,0.655 -0.519,0.48 -0.872,1.043 -0.354,0.562 -0.575,1.534 -0.222,0.972 -0.207,1.299 0.015,0.327 0.25,1.354 0.18,0.186 1.275,1.202 1.095,1.016 1.746,1.366 0.65,0.349 1.324,0.398 0.673,0.05 0.713,0.067 0.039,0.017 0.981,-0.207 0.942,-0.223 1.86,-0.804 0.918,-0.58 1.392,-1.004 0.473,-0.424 0.631,-0.701 0.157,-0.277 0.3,-0.368 0.142,-0.092 0.591,-1.534 0.449,-1.443 0.772,-2.355" /><path
     id="STROKE_8a81ffdc-4be8-40f5-aa83-fa078d7c66b5"
     opacity="1"
     fill="none"
     stroke="#FFFFFF"
     stroke-width="5"
     stroke-opacity="1"
     stroke-linecap="round"
     stroke-linejoin="round"
     d="m -317.663,1774.261 q 1.51,0.133 2.358,0.39 0.848,0.256 6.26,0.505 l 1.858,-0.042" /><path
     id="STROKE_8a29f400-eb76-4981-90ea-b83d8f5b1d8a"
     opacity="1"
     fill="none"
     stroke="#FFFFFF"
     stroke-width="5"
     stroke-opacity="1"
     stroke-linecap="round"
     stroke-linejoin="round"
     d="m -306.804,1774.452 q 0.665,-0.43 1.185,-1.189 0.521,-0.759 1.19,-1.482 0.67,-0.724 1.258,-1.21 0.588,-0.486 0.776,-0.609 0.187,-0.123 1.022,-0.565 0.835,-0.441 2.455,-1.122 1.62,-0.681 2.41,-0.847 0.79,-0.165 1.231,-0.273 0.441,-0.108 1.585,-0.394 l 0.792,-0.108 q 1.112,-0.054 2.161,0.017 1.049,0.07 2.026,0.344 0.976,0.274 1.492,0.45 0.515,0.175 0.826,0.331 0.311,0.156 1.207,0.835 0.896,0.678 1.186,0.997 0.289,0.319 0.556,0.673 0.267,0.354 0.661,1.049 0.394,0.696 1.341,2.25" /><path
     id="STROKE_8f41c1c0-13ca-4a2b-af97-b7a9750af985"
     opacity="1"
     fill="none"
     stroke="#FFFFFF"
     stroke-width="5"
     stroke-opacity="1"
     stroke-linecap="round"
     stroke-linejoin="round"
     d="m -280.97,1772.543 1.004,-0.094 q 0.461,0.024 0.861,0.12 0.401,0.096 2.1,0.289 2.116,0.043 5.41,0.079 3.294,0.036 6.177,0.176 2.882,0.139 3.792,0.269 0.91,0.13 1.738,0.161 0.827,0.032 4.607,0.387" /><path
     id="STROKE_9757a1e0-d2ac-4da6-9a52-55a49ef421fe"
     opacity="1"
     fill="none"
     stroke="#FFFFFF"
     stroke-width="5"
     stroke-opacity="1"
     stroke-linecap="round"
     stroke-linejoin="round"
     d="m -255.809,1773.396 q 1.229,-0.688 1.641,-0.96 0.412,-0.271 0.579,-0.411 0.167,-0.14 1.784,-1.134 1.618,-0.994 2.607,-1.446 0.989,-0.452 2.067,-0.752 1.078,-0.301 1.754,-0.388 0.675,-0.087 1.628,-0.063 0.953,0.025 1.7,0.052 0.748,0.027 1.609,0.175 0.862,0.148 3.481,0.738 l 1.416,0.609 q 0.849,0.437 2.27,1.406 l 0.449,0.294 q 2.056,1.764 2.977,2.35" /><path
     id="STROKE_1a78f849-67d9-4392-b6b3-9c81a31d4b6c"
     opacity="1"
     fill="none"
     stroke="#FFFFFF"
     stroke-width="5"
     stroke-opacity="1"
     stroke-linecap="round"
     stroke-linejoin="round"
     d="m -230.522,1772.136 1.369,0.446 q 0.439,0 1.067,0.033 0.627,0.035 2.084,0.023 1.456,-0.011 2.384,-0.081 0.928,-0.069 1.66,-0.064 0.733,0.01 3.5,-0.037 l 2.056,0.214" /><path
     id="STROKE_8e5d272a-09cf-4da3-84a5-c161ae54644f"
     opacity="1"
     fill="none"
     stroke="#FFFFFF"
     stroke-width="5"
     stroke-opacity="1"
     stroke-linecap="round"
     stroke-linejoin="round"
     d="m -319.303,1771.805 q 0.068,-0.263 0.148,-0.834 -0.129,-0.394 0.822,-10.361 0.337,-0.671 0.848,-1.637 0.511,-0.965 1.146,-1.79 1.193,-1.066 3.295,-2.257 0.168,-0.155 1.403,-0.577 1.235,-0.422 2.168,-0.614 0.933,-0.192 1.82,-0.404 0.887,-0.212 2.118,-0.55 1.232,-0.338 2.347,-0.624 1.116,-0.286 2.2,-0.598 1.665,-0.612 3.38,-1.322 1.715,-0.71 2.1,-0.887 0.385,-0.178 1.536,-0.783 3.52,-1.54 4.947,-2.11 1.427,-0.57 3.105,-1.052 1.678,-0.482 3.663,-0.828 1.986,-0.346 5.361,-0.581 3.375,-0.236 5.4,-0.259 2.026,-0.023 3.25,0.018 1.223,0.041 2.219,0.076 0.996,0.034 2.175,0.121 1.18,0.086 2.558,0.174 1.379,0.089 2.003,0.094 0.624,0 2.513,0.197 1.889,0.193 4.812,0.725 1.881,0.404 3.158,0.718 1.277,0.315 2.091,0.58 0.814,0.265 3.369,1.432 2.07,1.117 3.532,1.991 1.462,0.874 1.877,1.111 0.415,0.237 1.673,0.792 l 3.343,1.705 q 1.919,0.784 2.692,1.035 0.772,0.25 1.365,0.404 0.594,0.154 1.813,0.365 2.35,0.644 2.742,0.77 0.391,0.126 0.878,0.254 0.487,0.128 0.948,0.247 0.461,0.12 1.127,0.414 0.667,0.295 1.486,0.895 0.819,0.601 1.04,0.803 0.221,0.202 0.584,0.716 0.362,0.514 1.134,2.444 0.771,1.929 0.889,2.471 0.119,0.541 0.326,1.867 0.207,1.325 0.321,2.272 -0.029,1.619 -0.07,1.897 -0.041,0.279 -0.171,2.142" /><path
     id="STROKE_e0f2f470-063d-43ee-8764-21bba6f7f083"
     opacity="1"
     fill="none"
     stroke="#FFFFFF"
     stroke-width="5"
     stroke-opacity="1"
     stroke-linecap="round"
     stroke-linejoin="round"
     d="m -255.581,1628.284 1.437,-0.122 q 0.562,0.122 1.595,0.282 1.032,0.161 5.048,0.093 4.015,-0.068 6.476,-0.101 2.461,-0.033 5.832,0.044 3.371,0.076 5.768,0.293 2.397,0.217 4.306,0.51 1.909,0.293 6.535,0.498 4.625,0.204 6.307,0.205 1.682,10e-4 4.904,0.085 3.221,0.083 5.617,0.09 2.396,0.01 9.22,-0.037 6.825,-0.044 11.61,-0.547 4.786,-0.504 7.833,-0.961 3.048,-0.457 5.897,-0.817 2.85,-0.359 4.143,-0.502 1.294,-0.143 1.962,-0.266 0.668,-0.124 1.165,-0.166 0.496,-0.042 1.025,-0.144 0.53,-0.102 1.077,-0.19 0.548,-0.088 1.429,-0.173 0.881,-0.085 1.206,-0.055 0.324,0.03 2.837,-0.258" /><path
     id="STROKE_85557565-2045-4d65-a04f-7d28c1efd9fb"
     opacity="1"
     fill="none"
     stroke="#FFFFFF"
     stroke-width="5"
     stroke-opacity="1"
     stroke-linecap="round"
     stroke-linejoin="round"
     d="m -152.225,1628.755 q 0.141,0.79 0.399,9.571 0.257,8.782 0.315,11.222 0.058,2.441 0.098,4.239 0.04,1.797 0.029,4.243 -0.011,2.446 -0.175,8.385 -0.164,5.938 -0.2,21.031 -0.036,15.093 0.322,29.84 0.359,14.746 0.685,24.339 0.326,9.591 0.598,13.428 0.272,3.837 0.458,6.871 0.186,3.035 0.287,4.662 0.101,1.627 0.098,1.742 -0.003,0.115 0.257,2.684 0.26,2.569 0.38,4.028" /><path
     id="STROKE_c4368bf7-192b-4b63-abd6-77edfde1c84f"
     opacity="1"
     fill="none"
     stroke="#FFFFFF"
     stroke-width="5"
     stroke-opacity="1"
     stroke-linecap="round"
     stroke-linejoin="round"
     d="m -243.138,1641.863 -0.04,0.55 q 0.077,2.461 0.077,3.254 0,0.793 0.121,2.823 0.122,2.031 0.259,4.434 0.138,2.403 0.179,3.684 0.041,1.281 0.09,2.232 0.05,0.951 0.113,1.179 0.063,0.227 0.077,1.236 0.014,1.008 0.053,2.522" /><path
     id="STROKE_c7b1e2ca-e2ef-414d-8dc1-3b14486ab6e8"
     opacity="1"
     fill="none"
     stroke="#FFFFFF"
     stroke-width="5"
     stroke-opacity="1"
     stroke-linecap="round"
     stroke-linejoin="round"
     d="m -241.753,1676.617 q -0.127,0.908 -0.112,6.136 0.015,5.228 -0.004,6.335 -0.019,1.107 -0.065,4.29 -0.047,3.184 -0.038,3.367 0.008,0.184 -0.068,2.059 -0.076,1.875 -0.114,2.234" /><path
     id="STROKE_9bd17551-395a-4610-93a3-7ac6a86e3ea3"
     opacity="1"
     fill="none"
     stroke="#FFFFFF"
     stroke-width="5"
     stroke-opacity="1"
     stroke-linecap="round"
     stroke-linejoin="round"
     d="m -241.753,1712.491 q 0.057,3.98 0.138,7.571 0.08,3.59 0.213,5.912 0.133,2.323 0.451,10.149" /><path
     id="STROKE_545ce9c5-69c0-430b-b7af-54a3aace7d0c"
     opacity="1"
     fill="none"
     stroke="#FFFFFF"
     stroke-width="5"
     stroke-opacity="1"
     stroke-linecap="round"
     stroke-linejoin="round"
     d="m -161.225,1638.223 q -0.148,0.601 -0.316,7.792 -0.168,7.192 0.099,13.555 l 0.217,0.758" /><path
     id="STROKE_3fae1316-cef0-4b9f-af56-00a37c0125d5"
     opacity="1"
     fill="none"
     stroke="#FFFFFF"
     stroke-width="5"
     stroke-opacity="1"
     stroke-linecap="round"
     stroke-linejoin="round"
     d="m -161.826,1674.365 -0.04,0.57 q -10e-4,0.864 0.121,4.301 0.121,3.438 0.225,6.011 0.104,2.574 0.209,4.174 0.105,1.6 0.183,2.453 0.079,0.852 0.17,1.635 0.091,0.783 0.389,5.62" /><path
     id="STROKE_f5692360-d4ee-4631-b208-7b76b952530b"
     opacity="1"
     fill="none"
     stroke="#FFFFFF"
     stroke-width="5"
     stroke-opacity="1"
     stroke-linecap="round"
     stroke-linejoin="round"
     d="m -159.768,1710.57 -0.057,0.693 q -0.13,0.479 -0.139,5.6 -0.009,5.12 0.16,8.093 0.17,2.973 0.221,3.725 0.051,0.751 0.112,2.737 0.061,1.986 0.08,3.487 0.018,1.501 -0.049,4.539" /><path
     id="STROKE_1a569779-afb6-4701-a176-6811feb940ef"
     opacity="1"
     fill="none"
     stroke="#FFFFFF"
     stroke-width="5"
     stroke-opacity="1"
     stroke-linecap="round"
     stroke-linejoin="round"
     d="m -196.515,1709.717 0.107,0.38 0.209,2.67 q -0.006,0.481 0.777,9.737 0.784,9.255 0.893,11.379" /><path
     id="STROKE_6dcd2e24-fcab-457b-b2cd-43330e851c21"
     opacity="1"
     fill="none"
     stroke="#FFFFFF"
     stroke-width="5"
     stroke-opacity="1"
     stroke-linecap="round"
     stroke-linejoin="round"
     d="m -209.505,1713.293 0.142,0.758 q -0.02,1.039 0.106,6.731 0.126,5.692 0.307,8.426 0.182,2.735 0.45,4.532 0.134,0.097 0.397,0.334" /><path
     id="STROKE_46f02fbf-2454-4034-a8b1-b35125d82fa2"
     opacity="1"
     fill="none"
     stroke="#FFFFFF"
     stroke-width="5"
     stroke-opacity="1"
     stroke-linecap="round"
     stroke-linejoin="round"
     d="m -209.833,1674.097 0.092,0.395 q 0.016,0.658 0.309,5.539 0.293,4.881 0.536,9.24 0.242,4.36 0.302,6.732 l -0.055,0.606" /><path
     id="STROKE_2ea1dff5-b319-4955-992b-b1e978cc6653"
     opacity="1"
     fill="none"
     stroke="#FFFFFF"
     stroke-width="5"
     stroke-opacity="1"
     stroke-linecap="round"
     stroke-linejoin="round"
     d="m -197.244,1674.097 0.099,0.415 q 0.067,0.442 0.132,2.711 0.064,2.269 0.159,4.024 0.095,1.755 0.252,3.852 0.156,2.097 0.236,8.197 l -0.295,1.85" /><path
     id="STROKE_fc2b8a9c-5a29-4ca9-a036-ed5b566d3b5f"
     opacity="1"
     fill="none"
     stroke="#FFFFFF"
     stroke-width="5"
     stroke-opacity="1"
     stroke-linecap="round"
     stroke-linejoin="round"
     d="m -208.904,1640.145 q 0.092,1.154 0.186,1.466 0.094,0.312 0.298,3.443 0.204,3.131 0.51,8.04 0.305,4.91 0.337,4.967 0.033,0.057 0.254,2.14" /><path
     id="STROKE_da1f125a-265c-42dc-9803-1235a11b5c4d"
     opacity="1"
     fill="none"
     stroke="#FFFFFF"
     stroke-width="5"
     stroke-opacity="1"
     stroke-linecap="round"
     stroke-linejoin="round"
     d="m -195.859,1639.941 q 0.161,1.191 0.327,6.118 0.165,4.927 0.246,8.867 0.081,3.94 0.155,6.866" /><path
     id="STROKE_ba8a1108-40dd-4e30-90fb-5bbce8c35f10"
     opacity="1"
     fill="none"
     stroke="#FFFFFF"
     stroke-width="5"
     stroke-opacity="1"
     stroke-linecap="round"
     stroke-linejoin="round"
     d="m -199.303,1639.738 q 0.526,-0.103 8.614,-0.714 8.088,-0.61 11.66,-0.818 3.571,-0.208 5.278,-0.332 1.707,-0.125 3.65,-0.207 1.943,-0.083 3.249,-0.156 1.306,-0.072 3.641,-0.217" /><path
     id="STROKE_54673288-060b-42ec-8677-4d9c8d220a3e"
     opacity="1"
     fill="none"
     stroke="#FFFFFF"
     stroke-width="5"
     stroke-opacity="1"
     stroke-linecap="round"
     stroke-linejoin="round"
     d="m -244.267,1641.468 q 0.231,-0.046 1.017,0.161 l 0.919,0.016 q 0.214,0.045 6.139,-0.202 5.924,-0.247 9.701,-0.597 3.777,-0.349 5.313,-0.522 1.535,-0.173 2.541,-0.362 1.006,-0.19 2.13,-0.415 1.123,-0.225 3.558,-0.802" /><path
     id="STROKE_ad63e32a-60ed-49d6-a895-f700ab92e158"
     opacity="1"
     fill="none"
     stroke="#FFFFFF"
     stroke-width="5"
     stroke-opacity="1"
     stroke-linecap="round"
     stroke-linejoin="round"
     d="m -241.881,1664.897 q 1.956,-0.311 8.483,-0.678 6.527,-0.366 10.394,-0.632 3.868,-0.266 12.572,-1.226 l 1.455,-0.111" /><path
     id="STROKE_be27ee76-896d-4d4e-9724-ceb7946231c2"
     opacity="1"
     fill="none"
     stroke="#FFFFFF"
     stroke-width="5"
     stroke-opacity="1"
     stroke-linecap="round"
     stroke-linejoin="round"
     d="m -194.803,1662.848 q 0.394,-0.068 0.777,-0.027 0.382,0.041 3.881,0.014 3.498,-0.027 7.718,-0.159 4.22,-0.132 5.289,-0.185 1.07,-0.052 3.922,-0.321 2.852,-0.268 4.79,-0.538 1.938,-0.269 5.676,-0.61 l 1.58,-0.223" /><path
     id="STROKE_740a711b-0023-4d3a-92c7-21ee1a3c2809"
     opacity="1"
     fill="none"
     stroke="#FFFFFF"
     stroke-width="5"
     stroke-opacity="1"
     stroke-linecap="round"
     stroke-linejoin="round"
     d="m -243.466,1673.766 q 0.966,-0.149 1.635,-0.122 0.669,0.028 3.873,-0.022 3.204,-0.049 6.827,-0.135 3.623,-0.087 7.151,-0.238 3.527,-0.152 5.772,-0.312 2.246,-0.159 4.607,-0.254 l 1.508,-0.036" /><path
     id="STROKE_f5d140b9-11a7-4322-8db6-ec632af5ff3e"
     opacity="1"
     fill="none"
     stroke="#FFFFFF"
     stroke-width="5"
     stroke-opacity="1"
     stroke-linecap="round"
     stroke-linejoin="round"
     d="m -243.065,1701.038 q 0.248,-0.048 6.509,-0.926 6.26,-0.878 10.446,-1.255 4.185,-0.377 7.139,-0.572 2.953,-0.195 6.05,-0.449 3.097,-0.254 3.889,-0.298" /><path
     id="STROKE_ab934897-6af9-4255-9f4c-50866c1a224d"
     opacity="1"
     fill="none"
     stroke="#FFFFFF"
     stroke-width="5"
     stroke-opacity="1"
     stroke-linecap="round"
     stroke-linejoin="round"
     d="m -197.772,1673.436 0.493,-0.088 q 1.981,0.085 9.66,0.382 7.679,0.297 13.631,0.591 5.953,0.293 7.15,0.354 1.197,0.06 2.698,0.288" /><path
     id="STROKE_d29b522e-95d3-45bb-89df-5e2258eab015"
     opacity="1"
     fill="none"
     stroke="#FFFFFF"
     stroke-width="5"
     stroke-opacity="1"
     stroke-linecap="round"
     stroke-linejoin="round"
     d="m -198.374,1695.617 q 3.34,-0.01 4.848,-0.028 1.509,-0.019 6.191,0.043 4.681,0.063 11.079,0.382 6.397,0.319 7.108,0.353 0.711,0.034 1.627,0.108 0.915,0.073 2.583,0.293 1.667,0.22 4.842,0.503" /><path
     id="STROKE_a306efd5-85b9-4f7c-9627-71a500c87563"
     opacity="1"
     fill="none"
     stroke="#FFFFFF"
     stroke-width="5"
     stroke-opacity="1"
     stroke-linecap="round"
     stroke-linejoin="round"
     d="m -243.866,1712.033 q 3.008,-0.558 5.208,-0.761 2.2,-0.204 5.687,-0.494 3.487,-0.29 8.393,-0.612 4.905,-0.322 10.435,-0.642 l 1.522,0.053" /><path
     id="STROKE_4b7671b4-997a-4ce1-bf7c-7692e12109ee"
     opacity="1"
     fill="none"
     stroke="#FFFFFF"
     stroke-width="5"
     stroke-opacity="1"
     stroke-linecap="round"
     stroke-linejoin="round"
     d="m -241.881,1736.721 q 1.456,0 5.682,-0.091 4.226,-0.094 8.895,-0.395 4.67,-0.301 7.868,-0.645 3.199,-0.345 10.14,-1.275 l 0.92,-0.177" /><path
     id="STROKE_3aa2235b-5dca-465d-bba6-151e75f6fccf"
     opacity="1"
     fill="none"
     stroke="#FFFFFF"
     stroke-width="5"
     stroke-opacity="1"
     stroke-linecap="round"
     stroke-linejoin="round"
     d="m -197.645,1711.168 1.814,-0.164 q 0.931,-0.176 7.455,-0.455 6.523,-0.279 11.13,-0.388 4.607,-0.109 8.425,-0.379 l 2.495,0.062" /><path
     id="STROKE_e50ad7c9-11c8-4e3d-9423-f185445f8e79"
     opacity="1"
     fill="none"
     stroke="#FFFFFF"
     stroke-width="5"
     stroke-opacity="1"
     stroke-linecap="round"
     stroke-linejoin="round"
     d="m -195.987,1734.545 q 0.121,0.012 6.087,-0.121 5.965,-0.132 11.253,-0.215 5.288,-0.083 7.906,-0.147 2.617,-0.063 4.371,-0.174 1.753,-0.111 5.4,-0.272" /><path
     id="STROKE_cd797246-fb74-4499-9123-5809ab8dbaad"
     opacity="1"
     fill="none"
     stroke="#FFFFFF"
     stroke-width="5"
     stroke-opacity="1"
     stroke-linecap="round"
     stroke-linejoin="round"
     d="m -234.739,1624.454 0.222,-0.508 q 0.158,-1.023 1.408,-6.992 1.249,-5.969 2.049,-9.387 0.799,-3.419 1.425,-5.814 0.625,-2.395 1.515,-5.481 0.89,-3.087 1.999,-6.312 l 0.656,-1.787" /><path
     id="STROKE_a9fb4d74-7696-4106-bed9-a669aa8059a8"
     opacity="1"
     fill="none"
     stroke="#FFFFFF"
     stroke-width="5"
     stroke-opacity="1"
     stroke-linecap="round"
     stroke-linejoin="round"
     d="m -213.277,1586.646 0.3,0.483 q 0.683,1.766 0.693,1.841 0.009,0.075 0.937,2.44 0.927,2.365 2.27,5.721 1.343,3.356 2.101,5.324 0.758,1.969 1.543,4.086 0.785,2.118 1.43,3.947 0.644,1.829 1.3,3.659 0.656,1.83 1.062,2.853 0.407,1.022 0.947,2.272 0.54,1.25 0.679,1.669 0.14,0.418 1.463,4.047 l 0.379,1.057" /><path
     id="STROKE_c8a258cf-9ac9-4dcd-9d47-f7218d578e56"
     opacity="1"
     fill="none"
     stroke="#FFFFFF"
     stroke-width="5"
     stroke-opacity="1"
     stroke-linecap="round"
     stroke-linejoin="round"
     d="m -226.977,1598.9 q 0.232,0.193 13.407,7.679 0.27,0.823 0.494,1.128" /><path
     id="STROKE_9f8ce04c-6472-436f-a8c1-13e1f3fd7217"
     opacity="1"
     fill="none"
     stroke="#FFFFFF"
     stroke-width="5"
     stroke-opacity="1"
     stroke-linecap="round"
     stroke-linejoin="round"
     d="m -223.807,1623.856 q 0.107,-0.148 0.516,-0.464 0.665,-0.68 4.609,-4.786 3.944,-4.106 7.624,-7.272 0.222,-0.079 0.696,-0.649" /><path
     id="STROKE_33249da2-61e9-4681-8478-dee8b941a17b"
     opacity="1"
     fill="none"
     stroke="#FFFFFF"
     stroke-width="5"
     stroke-opacity="1"
     stroke-linecap="round"
     stroke-linejoin="round"
     d="m -290.173,1672.813 0.211,0.437 q 0.288,0.762 0.525,1.668 0.237,0.907 0.527,2.24 0.291,1.332 0.898,4.418 0.607,3.086 1.095,8.014 0.488,4.927 0.665,10.8 0.176,5.873 0.311,10.607 0.135,4.734 0.237,7.904 0.102,3.17 0.158,4.622 0.056,1.453 0.137,2.503 0.081,1.051 0.095,1.749 0.013,0.699 0.066,4.421 0.053,3.722 -0.152,5.57 -0.206,1.849 -0.473,4.225" /><path
     id="STROKE_2cb54ace-0c47-40d7-b592-49c38d84a297"
     opacity="1"
     fill="none"
     stroke="#FFFFFF"
     stroke-width="5"
     stroke-opacity="1"
     stroke-linecap="round"
     stroke-linejoin="round"
     d="m -290.173,1704.386 q -0.599,0.137 -1.035,0.272 -0.435,0.135 -1.35,0.331 -0.914,0.195 -1.849,0.336 -0.934,0.142 -2.075,0.269 -1.141,0.126 -3.529,0.169 -2.389,0.042 -3.677,-0.084 -1.288,-0.126 -2.55,-0.485 -1.262,-0.358 -2.439,-0.998 -1.177,-0.64 -1.636,-1.05 -0.043,-0.248 -0.077,-0.488 -0.035,-0.24 -0.024,-0.388 0.011,-0.148 -0.135,-0.312 -0.145,-0.164 0.015,-1.156 -0.013,-0.398 -3.557,-3.892 -3.544,-3.493 -4.43,-4.604 -0.885,-1.11 -1.319,-1.828 -0.433,-0.717 -0.869,-1.425 -0.436,-0.708 -0.617,-1.137 -0.181,-0.428 -0.226,-1.603 -0.044,-1.174 0.145,-1.699 0.189,-0.525 0.274,-0.684 0.085,-0.159 0.524,-0.706 0.44,-0.546 0.892,-1.092 0.452,-0.545 0.737,-0.95 0.286,-0.405 0.583,-1.082 0.032,-0.319 -0.145,-1.027 -0.177,-0.707 -0.544,-2.03 -0.368,-1.322 -0.72,-2.413 -0.352,-1.091 -0.901,-3.296 -0.549,-2.206 -0.835,-6.503 0.317,-0.421 0.438,-0.57 0.121,-0.148 1.597,-1.184 1.477,-1.036 3.504,-2.885 l 0.078,-0.697 q 0.046,-0.177 -1.19,-4.413 -1.237,-4.236 -2.015,-6.661 -0.779,-2.425 -0.77,-3.689 l 0.695,-0.384 q 0.017,-0.084 1.581,-0.123 1.564,-0.039 3.486,0.097 1.921,0.135 2.571,0.161 0.65,0.025 1.038,-0.047 0.387,-0.073 0.77,-0.215 0.382,-0.141 0.576,-0.278 0.193,-0.136 0.363,-0.408 0.17,-0.271 0.245,-0.313 0.076,-0.042 0.238,-0.652 0.162,-0.611 0.128,-1.14 -0.034,-0.528 -0.078,-1.075 -0.045,-0.546 -0.094,-0.704 -0.049,-0.158 -0.524,-2.911 -0.475,-2.753 -0.453,-4.313 0.022,-1.56 0.005,-1.646 -0.016,-0.085 0.005,-0.175 0.022,-0.089 1.133,-0.061 1.111,0.027 2.089,0.052 0.977,0.024 1.331,-0.051 0.354,-0.076 0.725,-0.248 0.371,-0.171 0.608,-0.453 0.237,-0.281 0.519,-0.862 0.283,-0.581 0.482,-1.552 0.199,-0.971 0.211,-2.388 0.012,-1.417 -0.247,-5.406 -0.259,-3.988 -0.243,-5.06 0.016,-1.072 -0.003,-1.681 -0.018,-0.229 0.864,0.062 0.882,0.29 1.982,0.759 1.099,0.469 1.395,0.524 0.295,0.056 0.64,0.08 0.345,0.024 0.575,0 0.231,-0.02 0.948,-0.291 0.717,-0.271 1.464,-4.027 0.747,-3.756 1.763,-12.135 -0.002,0.011 0.22,0.051 0.221,0.041 0.464,0.203 0.243,0.161 0.942,1.214 0.699,1.052 1.126,1.786 0.427,0.734 1.807,3.063 1.381,2.329 2.31,3.596 0.929,1.268 2.312,1.652 0.21,0.094 0.912,-1.332 0.701,-1.425 1.258,-2.875 0.556,-1.45 0.944,-2.114 0.389,-0.663 1.168,-1.059 0.667,0.47 0.979,0.849 0.311,0.378 1.277,2.205 0.967,1.828 1.409,2.597 0.441,0.769 0.844,1.249 0.403,0.479 0.995,0.541 0.209,0.074 1.101,-2.25 0.892,-2.323 1.434,-3.7 0.542,-1.376 0.792,-1.78 0.251,-0.403 0.378,-0.56 0.127,-0.157 0.417,-0.288 0.291,-0.131 0.436,-0.131 0.146,0 0.347,0.183 0.2,0.183 0.516,0.735 0.316,0.552 0.788,2.179 0.472,1.628 0.756,2.894 0.283,1.266 1.197,3.106 l 0.159,0.031 0.196,-0.101 q 0.387,-0.397 0.873,-1.582 0.486,-1.186 1.944,-3.049 0.494,0.516 1.144,1.723 0.65,1.207 1.609,3.155 0.618,0.262 1.276,1.057" /><path
     id="STROKE_04b4835b-b0db-4798-bb53-4bd4f2e57dd6"
     opacity="1"
     fill="none"
     stroke="#FFFFFF"
     stroke-width="5"
     stroke-opacity="1"
     stroke-linecap="round"
     stroke-linejoin="round"
     d="m -216.72,1571.87 -0.165,-0.028 -0.223,-0.11 q -0.304,-0.157 -1.411,-0.294 -1.107,-0.136 -1.81,-0.06 -0.702,0.077 -1.262,0.271 -0.561,0.195 -1.103,0.665 -0.541,0.471 -0.825,0.86 -0.283,0.388 -0.582,1.149 -0.299,0.761 -0.343,0.898 -0.044,0.138 -0.058,1.14 -0.013,1.003 0.097,1.456 0.11,0.452 0.259,0.794 0.149,0.342 0.475,0.794 0.326,0.453 0.538,0.65 0.212,0.197 1.12,0.684 0.908,0.486 1.416,0.598 0.509,0.112 1.444,0.051 0.936,-0.061 1.309,-0.18 0.374,-0.119 0.872,-0.454 0.498,-0.334 1.053,-0.994 0.556,-0.66 0.743,-1.13 0.188,-0.469 0.294,-0.918 0.106,-0.448 0.17,-1.565 0.065,-1.118 -0.103,-2.216 -0.1,-0.51 -0.448,-1.794" /><path
     id="STROKE_471c8a85-ff15-462e-8353-2aa02c1323de"
     opacity="1"
     fill="none"
     stroke="#FFFFFF"
     stroke-width="5"
     stroke-opacity="1"
     stroke-linecap="round"
     stroke-linejoin="round"
     d="m -219.404,1571.972 -0.014,-1.505 q 0.024,-0.144 -0.137,-3.106 -0.16,-2.963 -0.193,-4.52 -0.033,-1.558 -0.002,-3.656 0.03,-2.099 0.092,-3.449 0.061,-1.35 0.061,-2.019 0,-0.67 0.041,-2.863 0.042,-2.194 0.003,-4.107 -0.039,-1.914 -0.172,-3.837 -0.134,-1.923 -0.353,-4.027" /><path
     id="STROKE_3b260d08-0c0d-49e0-8b3b-6f25e5960c75"
     opacity="1"
     fill="none"
     stroke="#FFFFFF"
     stroke-width="5"
     stroke-opacity="1"
     stroke-linecap="round"
     stroke-linejoin="round"
     d="m -242.617,1536.888 q 0.399,0.068 8.768,0.732 8.368,0.663 13.446,0.906 5.078,0.243 7.515,0.293 2.437,0.049 3.917,-10e-4 1.481,-0.05 2.39,-0.049 0.909,0 2.303,-0.071 1.394,-0.073 3.77,-0.156" /><path
     id="STROKE_07fce574-5440-44ed-aad9-600dbfff005f"
     opacity="1"
     fill="none"
     stroke="#FFFFFF"
     stroke-width="5"
     stroke-opacity="1"
     stroke-linecap="round"
     stroke-linejoin="round"
     d="m -243.444,1549.493 q -0.078,-0.945 -0.086,-2.466 -0.009,-1.522 -0.16,-5.404 -0.151,-3.883 -0.48,-6.701 -0.328,-2.817 -0.674,-4.282 -0.345,-1.465 -0.681,-3.122" /><path
     id="STROKE_ea9186d3-9ffa-4e85-a804-c1ac5f789190"
     opacity="1"
     fill="none"
     stroke="#FFFFFF"
     stroke-width="5"
     stroke-opacity="1"
     stroke-linecap="round"
     stroke-linejoin="round"
     d="m -232.206,1545.345 -0.194,-1.391 q -0.113,-0.356 -0.166,-1.503 -0.054,-1.148 -0.123,-2.149 -0.07,-1.002 -0.241,-1.991 -0.171,-0.99 -0.55,-3.266 -0.379,-2.276 -0.705,-6.063 l -0.188,-1.058" /><path
     id="STROKE_335d3cd7-04dc-4ce1-a6f4-a6e761b52337"
     opacity="1"
     fill="none"
     stroke="#FFFFFF"
     stroke-width="5"
     stroke-opacity="1"
     stroke-linecap="round"
     stroke-linejoin="round"
     d="m -209.762,1544.392 -0.169,-0.329 -0.088,-0.322 q -0.029,-0.634 -2.379,-10.838 -0.088,-0.146 -0.427,-1.444" /><path
     id="STROKE_4c409071-d601-4b19-aab5-a6d59f93644d"
     opacity="1"
     fill="none"
     stroke="#FFFFFF"
     stroke-width="5"
     stroke-opacity="1"
     stroke-linecap="round"
     stroke-linejoin="round"
     d="m -197.132,1547.332 0.076,-0.709 -0.045,-0.497 q 0.014,-0.298 -0.809,-4.241 -0.823,-3.942 -2.531,-14.943 -0.109,-0.219 -0.362,-2.046" /><circle
     id="STROKE_11e717ef-223f-4088-aafe-3dc939730d2b"
     opacity="1"
     fill="#FFFFFF"
     stroke="#FFFFFF"
     stroke-width="0.1"
     stroke-opacity="1"
     fill-opacity="1"
     cx="-251.61099"
     cy="1753.098"
     r="2.5" /><circle
     id="STROKE_68e6028b-c8fa-4eb2-b233-543ba5953780"
     opacity="1"
     fill="#FFFFFF"
     stroke="#FFFFFF"
     stroke-width="0.1"
     stroke-opacity="1"
     fill-opacity="1"
     cx="-184.90199"
     cy="1684.979"
     r="2.5" /><circle
     id="STROKE_0eae78c0-161f-43b3-9df9-e9aa60ff6e3d"
     opacity="1"
     fill="#FFFFFF"
     stroke="#FFFFFF"
     stroke-width="0.1"
     stroke-opacity="1"
     fill-opacity="1"
     cx="-177.086"
     cy="1684.6479"
     r="2.5" /><path
     id="STROKE_b4c6f171-1d24-40b6-9c76-8dcf593e3ebc"
     opacity="1"
     fill="none"
     stroke="#FFFFFF"
     stroke-width="5"
     stroke-opacity="1"
     stroke-linecap="round"
     stroke-linejoin="round"
     d="m -256.733,1612.719 0.195,0.112 q 0.248,0.228 0.374,0.337 0.479,0.113 2.377,0.602 1.898,0.489 2.688,0.795 0.79,0.307 1.208,0.586 0.417,0.28 0.534,0.54 0.117,0.26 0.14,0.444 0.024,0.184 -0.136,0.901 -0.161,0.717 -0.402,1.729 -0.242,1.012 -0.194,1.889 l 1.004,1.195 q 0.037,0.026 0.566,0.521 0.53,0.495 0.819,0.988 0.288,0.493 0.948,2.338 0.066,0.099 0.482,0.907" /><path
     id="STROKE_0ffbc311-b48c-4c41-b61d-c0fdaec8ad38"
     opacity="1"
     fill="none"
     stroke="#FFFFFF"
     stroke-width="5"
     stroke-opacity="1"
     stroke-linecap="round"
     stroke-linejoin="round"
     d="m -256.487,1627.743 -0.085,0.293 q -0.078,0.733 -0.16,4.007 -0.083,3.274 0.17,6.273 0.252,2.999 0.399,4.364 0.147,1.365 0.374,3.492 0.228,2.128 0.394,6.904 0.167,4.776 0.156,7.374 -0.011,2.599 -0.025,3.768 -0.014,1.168 -0.034,1.997 -0.019,0.829 -0.023,3.397 -0.003,2.569 0.087,6.341 0.09,3.773 0.104,5.79 0.013,2.016 0.019,3.212 0.007,1.195 -0.138,7.175 -0.146,5.979 -0.184,9.288 -0.039,3.309 -0.027,5.205 0.011,1.896 0.025,2.757 0.014,0.86 0.021,2.639 0.008,1.779 0.231,9.453 0.224,7.674 0.395,12.192 0.172,4.518 0.307,7.629 l -0.051,0.572" /><path
     id="STROKE_4f8378e3-33d6-4a9e-bfaa-f15ecf203a4d"
     opacity="1"
     fill="none"
     stroke="#FFFFFF"
     stroke-width="5"
     stroke-opacity="1"
     stroke-linecap="round"
     stroke-linejoin="round"
     d="m -267.415,1669.316 0.045,0.51 0.009,1.331 q -0.013,0.911 -0.026,7.672 -0.013,6.76 0.059,10.739 0.071,3.979 0.131,5.673 0.06,1.693 0.099,2.359 0.039,0.665 0.131,2.501 0.091,1.836 0.142,4.285 0.052,2.449 0.181,7.836 0.13,5.386 0.288,7.436 0.158,2.049 0.439,4.576 0.28,2.528 0.491,3.726 0.211,1.199 0.411,2.409 0.201,1.211 0.316,1.962 0.116,0.751 0.201,1.131 0.085,0.38 0.197,0.776 0.113,0.395 0.193,0.743 0.081,0.348 0.483,2.495 l 0.199,1.385" /><path
     id="STROKE_85fb10d2-00ce-4c9b-88df-5f36d50e98fb"
     opacity="1"
     fill="none"
     stroke="#FFFFFF"
     stroke-width="5"
     stroke-opacity="1"
     stroke-linecap="round"
     stroke-linejoin="round"
     d="m -266.186,1700.534 q 0.477,0.151 0.951,0.275 0.475,0.124 0.6,0.132 0.126,0.01 0.615,0.047 0.49,0.04 0.83,0.093 0.339,0.053 1.576,-0.02 1.238,-0.073 1.706,-0.137 0.469,-0.064 0.692,-0.152 0.223,-0.087 0.79,-0.473 0.568,-0.386 0.942,-0.65 0.375,-0.263 0.503,-0.384 0.129,-0.121 0.94,-0.839" /><path
     id="STROKE_ef3cc34a-9cd1-4ea2-8ce4-365ffe20bfd6"
     opacity="1"
     fill="none"
     stroke="#FFFFFF"
     stroke-width="5"
     stroke-opacity="1"
     stroke-linecap="round"
     stroke-linejoin="round"
     d="m -450.119,1785.36 q 0.097,-1.579 0.059,-3.101 -0.038,-1.523 -0.39,-5.382 -0.352,-3.859 -0.779,-10.591 -0.427,-6.732 -0.625,-10.961 -0.198,-4.23 -0.213,-5.84 -0.015,-1.61 0.049,-5.796 0.064,-4.186 0.114,-8.029 0.049,-3.843 0.073,-6.429 0.024,-2.586 0.078,-5.792 0.054,-3.207 0.136,-6.425 0.081,-3.219 0.108,-4.724 0.026,-1.506 0.042,-4.002 0.015,-2.495 0.104,-6.499 0.089,-4.005 0.168,-6.001 0.079,-1.996 0.385,-4.67 0.306,-2.675 0.687,-5.342 0.382,-2.667 0.445,-3.48 0.064,-0.814 0.571,-3.264 0.507,-2.449 0.985,-4.371 0.477,-1.921 0.796,-3.288 0.32,-1.366 1.294,-4.139 0.975,-2.773 1.42,-3.769 0.446,-0.996 1.147,-2.421 0.701,-1.424 1.642,-3.012 0.941,-1.588 2.036,-3.129 1.094,-1.541 1.706,-2.273 0.611,-0.732 1.178,-1.409 0.566,-0.677 1.646,-1.819 1.079,-1.143 2.785,-2.658 1.707,-1.515 2.789,-2.307 1.082,-0.793 1.589,-1.122 0.508,-0.329 1.27,-0.762 0.762,-0.434 1.758,-0.957 0.995,-0.523 2.709,-1.271 1.714,-0.749 3.808,-1.321 2.094,-0.572 4.271,-0.997 2.177,-0.424 4.486,-0.75 2.31,-0.325 4.121,-0.323 1.811,0 3.315,0.11 1.503,0.109 3.189,0.461 1.685,0.352 2.188,0.473 0.503,0.12 1.672,0.531 1.169,0.41 3.124,1.139 1.955,0.728 3.643,1.407 1.689,0.678 2.634,1.135 0.945,0.457 1.754,0.958 0.809,0.502 1.554,0.966 0.744,0.464 1.28,0.835 0.537,0.372 1.741,1.309 1.205,0.937 3.996,3.461 2.791,2.524 4.543,4.613 1.753,2.088 2.497,3.105 0.743,1.017 1.583,2.387 0.839,1.37 1.957,3.864 1.118,2.495 2.338,8.023 1.219,5.528 1.586,8.344 0.366,2.816 0.467,4.109 0.101,1.293 0.502,6.842 0.401,5.55 0.55,7.95 0.148,2.4 0.268,9.133 0.12,6.733 0.191,11.06 0.072,4.328 0.166,7 0.093,2.672 0.253,6.063 0.16,3.392 0.231,6.507 0.072,3.116 0.252,8.061 0.18,4.944 0.395,7.97 0.215,3.025 0.355,4.711 0.14,1.685 0.314,4.82 0.174,3.135 0.405,6.7 0.231,3.566 0.312,5.009 0.082,1.442 0.165,2.962 0.082,1.521 0.129,3.454" /></g></svg>
