<?xml version="1.0" encoding="UTF-8" standalone="no"?>
<!-- Generator: Adobe Illustrator 26.1.0, SVG Export Plug-In . SVG Version: 6.00 Build 0)  -->

<svg
   version="1.1"
   id="Layer_1"
   x="0px"
   y="0px"
   viewBox="0 0 960 480"
   style="enable-background:new 0 0 960 480;"
   xml:space="preserve"
   sodipodi:docname="fix-all-problems.svg"
   inkscape:version="1.2.1 (9c6d41e410, 2022-07-14, custom)"
   xmlns:inkscape="http://www.inkscape.org/namespaces/inkscape"
   xmlns:sodipodi="http://sodipodi.sourceforge.net/DTD/sodipodi-0.dtd"
   xmlns="http://www.w3.org/2000/svg"
   xmlns:svg="http://www.w3.org/2000/svg"><defs
   id="defs3547" /><sodipodi:namedview
   id="namedview3545"
   pagecolor="#505050"
   bordercolor="#eeeeee"
   borderopacity="1"
   inkscape:showpageshadow="0"
   inkscape:pageopacity="0"
   inkscape:pagecheckerboard="0"
   inkscape:deskcolor="#505050"
   showgrid="false"
   inkscape:zoom="0.49976245"
   inkscape:cx="650.30896"
   inkscape:cy="138.0656"
   inkscape:window-width="938"
   inkscape:window-height="1023"
   inkscape:window-x="0"
   inkscape:window-y="0"
   inkscape:window-maximized="1"
   inkscape:current-layer="Layer_1" />
<g
   id="New_Layer_1"
   opacity="1"
   transform="matrix(1.3333333,0,0,1.3333333,964.76267,-756.48931)"><path
     id="STROKE_8e606410-2163-4227-9629-58f81aa10d8f"
     opacity="1"
     fill="none"
     stroke="#FFFFFF"
     stroke-width="5"
     stroke-opacity="1"
     stroke-linecap="round"
     stroke-linejoin="round"
     d="m -656.768,683.363 0.167,0.583 q 0.178,3.123 0.55,9.112 0.372,5.99 1.296,13.511 0.925,7.522 1.338,11.602 0.412,4.08 1.147,12.985 0.735,8.906 1.517,16.701 0.783,7.796 1.133,19.677 0.35,11.882 0.399,18.483 0.049,6.601 -0.012,17.041 l -0.321,1.188" /><path
     id="STROKE_9b7bfa9b-f5bf-4268-abf6-78cfb850d516"
     opacity="1"
     fill="none"
     stroke="#FFFFFF"
     stroke-width="5"
     stroke-opacity="1"
     stroke-linecap="round"
     stroke-linejoin="round"
     d="m -656.368,682.969 q 0.863,0.192 1.631,0.257 0.769,0.066 4.672,0.289 3.903,0.222 8.611,0.144 4.708,-0.079 7.051,-0.099 2.343,-0.02 3.674,0.039 1.332,0.059 5.287,0.561 3.954,0.502 7.708,0.875 3.754,0.373 6.28,0.533 2.526,0.16 9.261,0.459 6.735,0.298 18.52,-0.062 11.785,-0.359 18.167,-0.711 6.381,-0.352 10.411,-0.606 4.031,-0.254 5.985,-0.382 1.954,-0.128 4.376,-0.199 2.422,-0.071 13.227,-0.64 l 1.543,-0.318" /><path
     id="STROKE_093ad3a0-a438-40e7-bd29-1f2c336db478"
     opacity="1"
     fill="none"
     stroke="#FFFFFF"
     stroke-width="5"
     stroke-opacity="1"
     stroke-linecap="round"
     stroke-linejoin="round"
     d="m -529.363,683.694 0.165,0.606 q 0.029,0.765 0.391,7.095 0.361,6.329 0.611,11.084 0.25,4.754 0.545,10.55 0.296,5.796 0.466,9.279 0.17,3.482 0.226,5.486 0.057,2.005 0.114,9.051 0.056,7.047 0.144,13.781 0.087,6.735 0.354,11.573 0.267,4.838 0.445,9.086 0.177,4.248 0.323,13.992 0.146,9.744 0.138,23.083 l -0.278,1.714" /><path
     id="STROKE_e6f188f9-d3d7-45e8-8ba3-8744bce4a44a"
     opacity="1"
     fill="none"
     stroke="#FFFFFF"
     stroke-width="5"
     stroke-opacity="1"
     stroke-linecap="round"
     stroke-linejoin="round"
     d="m -651.922,805.175 q 0.414,0.03 2.536,0.364 1.441,0.174 1.715,0.221 0.274,0.047 1.809,0.111 1.536,0.064 2.846,0.014 1.31,-0.05 1.768,-0.061 0.457,-0.011 0.72,-0.031 0.264,-0.02 5.282,-0.12 5.019,-0.1 8.792,-0.129 3.772,-0.029 7.957,-0.119 4.184,-0.089 10.322,-0.229 6.138,-0.139 12.029,-0.353 5.89,-0.214 10.037,-0.284 4.147,-0.069 12.976,0.339 8.83,0.408 13.797,0.858 4.968,0.45 7.968,0.625 3,0.174 5.699,0.282 2.7,0.108 4.449,0.2 1.75,0.092 3.778,0.235 2.028,0.143 6.382,0.188 l 2.426,-0.062" /><path
     id="STROKE_72999c63-7605-46cb-921b-f3143a0c6a3e"
     opacity="1"
     fill="none"
     stroke="#FFFFFF"
     stroke-width="5"
     stroke-opacity="1"
     stroke-linecap="round"
     stroke-linejoin="round"
     d="m -481.908,696.52 0.11,0.813 q 0.054,1.066 0.181,5.805 0.127,4.738 0.659,12.686 0.532,7.947 0.864,11.912 0.332,3.964 0.58,19.55 0.248,15.585 0.568,20.007 0.32,4.421 0.81,10.044 0.49,5.624 0.729,10.111 0.239,4.486 0.832,10.608 0.024,0.046 -0.288,-0.667 -0.313,-0.713 -0.745,-1.964" /><path
     id="STROKE_80d01fb7-1cb7-41ed-83ba-497608693f67"
     opacity="1"
     fill="none"
     stroke="#FFFFFF"
     stroke-width="5"
     stroke-opacity="1"
     stroke-linecap="round"
     stroke-linejoin="round"
     d="m -479.667,695.324 1.543,0.428 q 1.567,-0.018 5.328,-0.309 3.762,-0.291 6.278,-0.46 2.517,-0.169 5.694,-0.296 3.178,-0.128 5.936,-0.238 2.759,-0.11 4.246,-0.24 1.487,-0.13 4.182,-0.255 2.695,-0.124 4.226,-0.043 1.53,0.082 3.146,0.35 1.616,0.267 3.201,0.605" /><path
     id="STROKE_e3fcd7ee-5123-43bf-9fbf-91bb13d053d6"
     opacity="1"
     fill="none"
     stroke="#FFFFFF"
     stroke-width="5"
     stroke-opacity="1"
     stroke-linecap="round"
     stroke-linejoin="round"
     d="m -477.28,749.345 0.993,-0.367 q 0.917,-0.247 1.854,-0.444 0.938,-0.196 3.884,-0.743 2.947,-0.548 4.096,-0.698 1.148,-0.15 3.46,-0.249 2.312,-0.098 4.859,-0.191 2.547,-0.092 4.557,-0.23 2.011,-0.139 3.808,-0.253 1.798,-0.115 2.955,-0.154 1.158,-0.039 1.608,-0.037 0.449,0.002 1.248,0.128 0.798,0.127 0.972,0.172 0.173,0.046 0.872,0.147 0.698,0.101 2.622,0.257 l 1.874,0.282" /><path
     id="STROKE_4de1db9a-64d4-4d16-bbcd-896619719d72"
     opacity="1"
     fill="none"
     stroke="#FFFFFF"
     stroke-width="5"
     stroke-opacity="1"
     stroke-linecap="round"
     stroke-linejoin="round"
     d="m -417.686,750.007 q 0.136,-0.143 0.012,-0.286 -0.124,-0.143 0.258,-0.207 0.382,-0.063 0.732,-0.296" /><path
     id="STROKE_61f2911f-b931-4d3f-a9a2-889294ab882d"
     opacity="1"
     fill="none"
     stroke="#FFFFFF"
     stroke-width="5"
     stroke-opacity="1"
     stroke-linecap="round"
     stroke-linejoin="round"
     d="m -416.301,763.241 q -0.028,0.431 1.3,9.771 1.328,9.34 2.217,15.031 0.89,5.69 1.129,7.573" /><path
     id="STROKE_bb9343ad-dcc4-48e6-9eb1-a4de3b040a7b"
     opacity="1"
     fill="none"
     stroke="#FFFFFF"
     stroke-width="5"
     stroke-opacity="1"
     stroke-linecap="round"
     stroke-linejoin="round"
     d="m -400.542,754.308 q 0.157,0.46 1.771,3.533 1.614,3.073 4.748,8.282 3.134,5.209 4.854,7.862 1.72,2.653 2.484,3.777 0.764,1.125 2.724,4.14 1.96,3.015 2.796,4.328 0.836,1.313 1.713,2.074 l 0.183,-0.025 q 0.085,-0.046 0.39,-0.006" /><path
     id="STROKE_831a2e26-4b6a-48bd-8f6b-d5cf21124b36"
     opacity="1"
     fill="none"
     stroke="#FFFFFF"
     stroke-width="5"
     stroke-opacity="1"
     stroke-linecap="round"
     stroke-linejoin="round"
     d="m -384.054,752.055 -0.02,0.831 q -0.158,1.37 -2.09,9.624 -1.933,8.253 -3.611,14.909 -1.678,6.656 -2.661,10.446 -0.983,3.79 -1.3,4.871 -0.317,1.081 -0.935,2.931 -0.618,1.849 -1.425,4.581" /><path
     id="STROKE_977b9efc-3f51-4317-a146-c43dbe65e430"
     opacity="1"
     fill="none"
     stroke="#FFFFFF"
     stroke-width="5"
     stroke-opacity="1"
     stroke-linecap="round"
     stroke-linejoin="round"
     d="m -325.771,760.531 -0.074,-0.126 q 0.049,-0.146 0.15,-0.341 -0.311,-1.553 -1.013,-2.651 -0.702,-1.098 -1.827,-2.029 -1.126,-0.93 -1.998,-1.305 -0.873,-0.376 -2.292,-0.452 -1.419,-0.076 -2.586,0.47 -1.167,0.546 -2.618,2.001 -1.452,1.455 -2.35,3.043 -0.898,1.587 -1.412,3.202 -0.515,1.615 -0.731,3.406 -0.217,1.791 0.773,5.829 0.991,4.039 1.997,5.733 1.006,1.694 1.617,2.326 0.611,0.631 1.322,1.026 0.711,0.395 2.364,0.2 1.653,-0.195 3.063,-1.094 1.41,-0.898 2.504,-2.172 1.095,-1.273 2.016,-3.154 0.921,-1.881 1.545,-5.456 0.624,-3.575 0.527,-5.563 l -0.177,0.071 q -0.163,10e-4 -0.372,1.751 -0.209,1.749 0.26,5.774 0.469,4.025 1.029,6.893 0.559,2.868 2.048,7.607 0.126,0.108 0.279,0.768" /><path
     id="STROKE_d2029d1d-2b96-4095-a6e0-ec922e09a899"
     opacity="1"
     fill="none"
     stroke="#FFFFFF"
     stroke-width="5"
     stroke-opacity="1"
     stroke-linecap="round"
     stroke-linejoin="round"
     d="m -317.901,734.048 0.185,0.502 q 0.243,1.609 1.53,11.691 1.287,10.081 2.491,17.307 1.204,7.227 1.841,10.311 0.637,3.085 0.992,4.768 0.354,1.684 0.723,3.639 l 0.054,1.502" /><path
     id="STROKE_26964c18-5409-4858-9992-7625687d2e34"
     opacity="1"
     fill="none"
     stroke="#FFFFFF"
     stroke-width="5"
     stroke-opacity="1"
     stroke-linecap="round"
     stroke-linejoin="round"
     d="m -304.91,731.147 q 0.05,0.452 0.866,9.258 0.815,8.806 1.123,13.887 0.309,5.081 0.89,12.265 0.581,7.184 1.841,17.035 -0.238,0.198 -0.348,0.507" /><path
     id="STROKE_4a141443-040c-4c4d-a5e9-41da42d64c82"
     opacity="1"
     fill="none"
     stroke="#FFFFFF"
     stroke-width="5"
     stroke-opacity="1"
     stroke-linecap="round"
     stroke-linejoin="round"
     d="m -266.578,753.583 -0.476,0.802 q -0.394,0.647 0.276,12.489 0.671,11.841 1.564,19.695 0.894,7.855 1.135,11.434 0.241,3.579 0.301,5.632 0.061,2.052 -0.633,7.685 -0.46,0.306 -0.472,0.346 l -0.893,0.099" /><path
     id="STROKE_aa5000e5-96cb-4e86-95d4-bdd7a1a374b6"
     opacity="1"
     fill="none"
     stroke="#FFFFFF"
     stroke-width="5"
     stroke-opacity="1"
     stroke-linecap="round"
     stroke-linejoin="round"
     d="m -267.908,759.271 0.729,-0.826 q 0.23,-0.298 0.457,-0.364 0.226,-0.066 1.364,-0.739 1.137,-0.673 1.793,-0.939 0.657,-0.266 2.378,-0.416 1.721,-0.15 2.871,0.09 1.15,0.24 2.48,1.051 1.33,0.811 2.749,2.893 1.418,2.081 2.016,5.43 0.597,3.349 0.143,6.047 -0.454,2.697 -1.501,4.187 -1.047,1.491 -1.96,2.253 -0.912,0.762 -7.028,3.337 l -1.59,0.381" /><path
     id="STROKE_2b06f975-7aae-4c6b-86b4-9933b658ff39"
     opacity="1"
     fill="none"
     stroke="#FFFFFF"
     stroke-width="5"
     stroke-opacity="1"
     stroke-linecap="round"
     stroke-linejoin="round"
     d="m -244.587,755.237 0.062,0.605 0.112,0.731 q -0.063,0.525 1.407,5.53 1.47,5.004 2.523,8.437 -0.108,0.169 -0.047,-2.128 0.062,-2.297 0.46,-4.87 0.398,-2.573 0.955,-4.2 0.557,-1.627 2.155,-3.914 1.598,-2.286 3.059,-3.325 1.462,-1.038 2.629,-1.434 1.167,-0.396 2.204,-0.461 1.036,-0.065 1.541,0.304 0.505,0.369 1.14,0.754" /><path
     id="STROKE_d171905d-46fc-4986-ab99-3fc7c963336f"
     opacity="1"
     fill="none"
     stroke="#FFFFFF"
     stroke-width="5"
     stroke-opacity="1"
     stroke-linecap="round"
     stroke-linejoin="round"
     d="m -206.856,768.879 0.211,-1.792 q 0.056,-0.201 0.046,-2.592 -0.01,-2.392 -0.289,-3.926 -0.278,-1.534 -1.004,-3.057 -0.726,-1.524 -1.857,-2.673 -1.131,-1.15 -2.306,-1.423 -1.174,-0.273 -2.485,0.307 -1.31,0.579 -2.342,1.808 -1.033,1.228 -1.616,3.476 -0.584,2.249 -0.488,3.834 0.095,1.585 0.72,3.375 0.625,1.79 1.999,3.434 1.373,1.644 2.508,2.072 1.134,0.427 1.602,0.39 0.468,-0.036 0.805,-0.127 0.337,-0.091 0.687,-0.284 0.349,-0.194 0.484,-0.258 0.135,-0.065 0.903,-0.832 0.768,-0.767 1.306,-1.791 0.537,-1.025 0.887,-2.357 0.351,-1.332 0.218,-2.467 -0.133,-1.136 -0.371,-3.592" /><path
     id="STROKE_2406d1b2-aa7a-4f1d-b1e2-c60bafb2a8e4"
     opacity="1"
     fill="none"
     stroke="#FFFFFF"
     stroke-width="5"
     stroke-opacity="1"
     stroke-linecap="round"
     stroke-linejoin="round"
     d="m -197.983,728.233 -0.291,0.753 q -0.374,0.803 -0.358,11.829 0.016,11.026 4.678,31.55 0.154,0.07 -0.157,-0.502 -0.31,-0.572 -0.684,-1.33" /><path
     id="STROKE_5ef7cae4-cc5e-4194-8d8f-b1d088d92224"
     opacity="1"
     fill="none"
     stroke="#FFFFFF"
     stroke-width="5"
     stroke-opacity="1"
     stroke-linecap="round"
     stroke-linejoin="round"
     d="m -196.981,761.129 1.033,-0.924 q 1.233,-0.963 3.732,-2.065 2.5,-1.101 4.539,-1.2 2.038,-0.099 2.882,0.069 0.843,0.167 2.706,1.52 1.864,1.353 2.857,3.245 0.993,1.893 1.159,3.121 0.167,1.228 -0.212,2.915 -0.38,1.687 -1.794,3.174 -1.415,1.486 -2.45,2.103 -1.035,0.616 -3.12,1.207 -2.085,0.59 -3.923,0.628 -1.837,0.039 -2.19,-0.068 -0.352,-0.106 -0.754,-0.316 -0.402,-0.21 -2.024,-0.696" /><path
     id="STROKE_ca6f180d-1520-42ba-8932-9170bdda6bce"
     opacity="1"
     fill="none"
     stroke="#FFFFFF"
     stroke-width="5"
     stroke-opacity="1"
     stroke-linecap="round"
     stroke-linejoin="round"
     d="m -170.564,724.784 q -0.005,0.939 0.632,10.599 0.636,9.659 1.203,15.043 0.566,5.383 1.072,9.239 0.507,3.856 1.645,12.478 0.027,0.005 0.025,-0.921 -0.002,-0.926 -0.076,-1.758" /><path
     id="STROKE_19626456-fb3f-445c-bef4-b5a4c9070371"
     opacity="1"
     fill="none"
     stroke="#FFFFFF"
     stroke-width="5"
     stroke-opacity="1"
     stroke-linecap="round"
     stroke-linejoin="round"
     d="m -153.474,768.141 q 0.114,-0.083 1.613,-1.397 1.498,-1.314 2.341,-2.228 0.843,-0.914 2.002,-2.53 1.159,-1.615 1.677,-3.195 0.517,-1.58 0.509,-3.015 -0.009,-1.435 -0.585,-2.356 -0.577,-0.921 -1.861,-1.169 -1.284,-0.248 -2.919,1.244 -1.636,1.492 -2.694,3.789 -1.059,2.297 -1.272,4.477 -0.212,2.18 0.013,3.683 0.225,1.502 0.878,2.987 0.652,1.485 1.719,2.702 1.067,1.218 1.938,1.752 0.871,0.535 2.118,0.836 1.248,0.3 4.381,-0.561 3.133,-0.862 8.616,-4.943" /><path
     id="STROKE_4153ee83-236e-4428-a6a1-de5e73013b52"
     opacity="1"
     fill="none"
     stroke="#FFFFFF"
     stroke-width="5"
     stroke-opacity="1"
     stroke-linecap="round"
     stroke-linejoin="round"
     d="m -133.087,750.465 -0.133,0.523 q -0.166,1.31 -0.107,1.559 -0.113,1.681 1.13,7.908 1.244,6.226 2.489,8.226 1.245,1.999 1.471,0.18 0.226,-1.82 0.972,-6.735 0.746,-4.916 1.211,-5.638 0.465,-0.722 0.546,-0.799 0.081,-0.077 0.879,-0.39 0.798,-0.313 1.911,0.032 1.113,0.345 2.18,1.487 1.066,1.142 2.227,3.588 1.161,2.446 2.342,10.09 -0.025,-0.027 0.212,-3.081 0.238,-3.053 0.873,-5.762 0.635,-2.709 0.975,-3.462 0.341,-0.753 0.843,-1.452 0.503,-0.698 0.725,-0.907 0.223,-0.209 1.109,-0.667 0.886,-0.459 2.084,-0.56 1.198,-0.102 1.902,0.119 0.704,0.221 1.163,0.598 0.46,0.377 0.546,0.41 0.085,0.034 1.384,3.051 1.298,3.017 1.162,11.408 l -0.763,1.793" /><path
     id="STROKE_b780a0c4-73bb-4e45-b1a3-ba8904817077"
     opacity="1"
     fill="none"
     stroke="#FFFFFF"
     stroke-width="5"
     stroke-opacity="1"
     stroke-linecap="round"
     stroke-linejoin="round"
     d="m -79.505,750.134 -0.491,-0.631 q -0.24,-0.219 -0.714,-0.48 -0.474,-0.262 -1.303,-0.483 -0.828,-0.222 -2.247,-0.284 -1.42,-0.062 -3.015,0.331 -1.596,0.392 -2.912,1.352 -1.316,0.959 -1.828,1.901 -0.511,0.942 -0.505,2.386 0.005,1.444 1.974,2.578 1.968,1.133 4.37,1.546 2.401,0.413 3.717,0.515 1.317,0.101 3.12,0.319 1.803,0.218 4.547,1.091 2.744,0.873 4.416,7.022 -0.794,0.79 -4.367,2.667 -3.573,1.877 -5.976,2.297 -2.402,0.421 -3.336,0.359 -0.934,-0.062 -1.208,-0.073 -0.274,-0.012 -0.904,-0.259 -0.629,-0.248 -1.019,-0.617 -0.39,-0.369 -1.665,-1.405" /><path
     id="STROKE_6fa7e737-135f-4439-a367-aa9a1c556e8f"
     opacity="1"
     fill="none"
     stroke="#FFFFFF"
     stroke-width="5"
     stroke-opacity="1"
     stroke-linecap="round"
     stroke-linejoin="round"
     d="m -638.176,766.926 q 1.357,2.07 2.746,3.939 1.388,1.868 4.614,6.267" /><path
     id="STROKE_0e9ac91f-3149-4fad-a058-842a0f5fed58"
     opacity="1"
     fill="none"
     stroke="#FFFFFF"
     stroke-width="5"
     stroke-opacity="1"
     stroke-linecap="round"
     stroke-linejoin="round"
     d="m -624.202,785.404 q 0.527,0.946 0.724,1.22 0.198,0.274 0.757,0.925 0.558,0.651 0.892,1.029 0.334,0.378 1.163,1.411 0.83,1.033 3.351,4.615" /><path
     id="STROKE_5ba6de31-6596-431e-8151-fbe5982537f7"
     opacity="1"
     fill="none"
     stroke="#FFFFFF"
     stroke-width="5"
     stroke-opacity="1"
     stroke-linecap="round"
     stroke-linejoin="round"
     d="m -605.528,798.117 q 0.664,-1.03 2.516,-3.096 1.851,-2.065 3.916,-4.451" /><path
     id="STROKE_885a1974-481b-430e-a7fa-e993010434cf"
     opacity="1"
     fill="none"
     stroke="#FFFFFF"
     stroke-width="5"
     stroke-opacity="1"
     stroke-linecap="round"
     stroke-linejoin="round"
     d="m -590.151,781.433 0.609,-0.384 q 0.599,-0.223 7.918,-7.493" /><path
     id="STROKE_b50f33b5-b08d-40cf-8577-495addb7f29a"
     opacity="1"
     fill="none"
     stroke="#FFFFFF"
     stroke-width="5"
     stroke-opacity="1"
     stroke-linecap="round"
     stroke-linejoin="round"
     d="m -571.95,764.75 q 0.479,-0.389 4.534,-4.379 4.055,-3.991 5.067,-4.962" /><path
     id="STROKE_46406a05-4ab6-47b8-84a2-28506c1915d0"
     opacity="1"
     fill="none"
     stroke="#FFFFFF"
     stroke-width="5"
     stroke-opacity="1"
     stroke-linecap="round"
     stroke-linejoin="round"
     d="m -554.806,745.814 q 1.014,-0.544 1.44,-0.852 0.426,-0.308 3.098,-3.128 2.672,-2.821 3.679,-3.834" /><path
     id="STROKE_84e2fcbf-ccbb-4171-bbc0-45a168d2f67c"
     opacity="1"
     fill="none"
     stroke="#FFFFFF"
     stroke-width="5"
     stroke-opacity="1"
     stroke-linecap="round"
     stroke-linejoin="round"
     d="m -539.047,730.988 q 0.297,-1.275 3.061,-5.765" /><path
     id="STROKE_7aa2215d-cdf3-4292-b5f4-314917b7f8e2"
     opacity="1"
     fill="none"
     stroke="#FFFFFF"
     stroke-width="5"
     stroke-opacity="1"
     stroke-linecap="round"
     stroke-linejoin="round"
     d="m -643.059,756.274 0.616,-0.75 0.383,-0.42 q 1.291,-1.078 1.474,-1.238 0.183,-0.16 1.236,-1.18 1.053,-1.019 4.69,-4.76" /><path
     id="STROKE_4824d8ae-8865-490b-af78-eeb1c07f1f1e"
     opacity="1"
     fill="none"
     stroke="#FFFFFF"
     stroke-width="5"
     stroke-opacity="1"
     stroke-linecap="round"
     stroke-linejoin="round"
     d="m -626.571,746.87 q 0.821,1.188 2.547,3.155 1.726,1.967 2.737,3.208" /><path
     id="STROKE_3bab2bc5-6b41-4a22-88e3-168f016913aa"
     opacity="1"
     fill="none"
     stroke="#FFFFFF"
     stroke-width="5"
     stroke-opacity="1"
     stroke-linecap="round"
     stroke-linejoin="round"
     d="m -615.184,760.703 1.007,1.017 q 0.043,-0.007 3.621,3.691" /><path
     id="STROKE_20676102-cc7b-496c-a3ae-b62665a645d4"
     opacity="1"
     fill="none"
     stroke="#FFFFFF"
     stroke-width="5"
     stroke-opacity="1"
     stroke-linecap="round"
     stroke-linejoin="round"
     d="m -603.542,759.048 0.219,-0.351 q 1.477,-1.698 4.924,-5.338 3.447,-3.64 5.133,-5.357" /><path
     id="STROKE_a9397ca7-de81-4063-86f8-4f8330c62750"
     opacity="1"
     fill="none"
     stroke="#FFFFFF"
     stroke-width="5"
     stroke-opacity="1"
     stroke-linecap="round"
     stroke-linejoin="round"
     d="m -585.851,740.787 q 0.375,-0.36 7.816,-8.285" /><path
     id="STROKE_531bcca0-bf42-4896-87db-58bd75720206"
     opacity="1"
     fill="none"
     stroke="#FFFFFF"
     stroke-width="5"
     stroke-opacity="1"
     stroke-linecap="round"
     stroke-linejoin="round"
     d="m -569.436,722.843 q 0.672,-0.345 0.86,-0.442 0.188,-0.097 0.493,-0.334 0.304,-0.237 2.53,-2.347 2.225,-2.111 3.733,-3.494" /><path
     id="STROKE_58bc1465-7468-4c75-9fb1-e6019703e425"
     opacity="1"
     fill="none"
     stroke="#FFFFFF"
     stroke-width="5"
     stroke-opacity="1"
     stroke-linecap="round"
     stroke-linejoin="round"
     d="m -556.191,710.003 q 1.01,-1.031 7.889,-7.814" /><path
     id="STROKE_2a6c628d-3716-4041-869d-15a605c27c5b"
     opacity="1"
     fill="none"
     stroke="#FFFFFF"
     stroke-width="5"
     stroke-opacity="1"
     stroke-linecap="round"
     stroke-linejoin="round"
     d="m -540.686,703.78 q 0.93,1.369 3.707,4.351 2.776,2.982 4.036,4.379" /></g></svg>
