<?xml version="1.0" encoding="UTF-8" standalone="no"?>
<!-- Generator: Adobe Illustrator 26.1.0, SVG Export Plug-In . SVG Version: 6.00 Build 0)  -->

<svg
   version="1.1"
   id="Layer_1"
   x="0px"
   y="0px"
   viewBox="0 0 960 480"
   style="enable-background:new 0 0 960 480;"
   xml:space="preserve"
   sodipodi:docname="ghost-of-ephemeral-knowledge.svg"
   inkscape:version="1.2.1 (9c6d41e410, 2022-07-14, custom)"
   xmlns:inkscape="http://www.inkscape.org/namespaces/inkscape"
   xmlns:sodipodi="http://sodipodi.sourceforge.net/DTD/sodipodi-0.dtd"
   xmlns="http://www.w3.org/2000/svg"
   xmlns:svg="http://www.w3.org/2000/svg"><defs
   id="defs6812" /><sodipodi:namedview
   id="namedview6810"
   pagecolor="#505050"
   bordercolor="#eeeeee"
   borderopacity="1"
   inkscape:showpageshadow="0"
   inkscape:pageopacity="0"
   inkscape:pagecheckerboard="0"
   inkscape:deskcolor="#505050"
   showgrid="false"
   inkscape:zoom="0.70677083"
   inkscape:cx="522.09285"
   inkscape:cy="217.89241"
   inkscape:window-width="938"
   inkscape:window-height="1023"
   inkscape:window-x="0"
   inkscape:window-y="0"
   inkscape:window-maximized="1"
   inkscape:current-layer="Layer_1" />
<g
   id="New_Layer_12"
   opacity="1"
   transform="matrix(1.0045993,0,0,1.0045993,158.96694,-2729.0047)"><path
     id="STROKE_efc9096e-04c2-485f-8bc2-fb6578063f1a"
     opacity="1"
     fill="none"
     stroke="#FFFFFF"
     stroke-width="5"
     stroke-opacity="1"
     stroke-linecap="round"
     stroke-linejoin="round"
     d="m 194.614,3098.847 q 1.666,-2.422 1.814,-2.643 0.148,-0.221 0.851,-1.292 0.702,-1.071 2.295,-3.782 1.593,-2.711 4.788,-7.615 3.194,-4.903 5.421,-8.141 2.228,-3.238 5.517,-7.917 3.289,-4.679 5.469,-7.686 2.18,-3.006 5.238,-7.094 3.058,-4.087 5.765,-7.688 2.708,-3.601 3.896,-5.191 1.189,-1.59 7.749,-9.855 6.561,-8.264 12.049,-14.957 5.489,-6.694 8.627,-10.507 3.137,-3.813 5.839,-6.997 2.703,-3.183 5.537,-6.316 2.835,-3.134 4.387,-4.817 1.552,-1.683 2.46,-2.72 0.908,-1.037 3.209,-3.391 l 1.672,-1.584" /><path
     id="STROKE_f81cc0eb-b085-4e21-ab2d-d390e628b365"
     opacity="1"
     fill="none"
     stroke="#FFFFFF"
     stroke-width="5"
     stroke-opacity="1"
     stroke-linecap="round"
     stroke-linejoin="round"
     d="m 289.18,2978.583 0.022,-0.375 q -0.025,-0.7 -0.908,-4.812 -0.883,-4.113 -1.961,-8.37 -1.078,-4.256 -1.678,-6.568 -0.599,-2.313 -1.71,-5.873 -1.111,-3.561 -2.117,-5.982 -1.006,-2.421 -1.906,-3.987 -0.9,-1.567 -1.737,-2.439 -0.154,-0.071 -1.095,-1.291" /><path
     id="STROKE_2b5688e3-ce9a-4c99-a65d-3b9d9421f7f0"
     opacity="1"
     fill="none"
     stroke="#FFFFFF"
     stroke-width="5"
     stroke-opacity="1"
     stroke-linecap="round"
     stroke-linejoin="round"
     d="m 290.495,2977.551 0.459,-0.276 q 1.947,-1.625 6.904,-6.15 4.957,-4.526 12.035,-11.662 7.077,-7.135 12.958,-13.015 l 1.25,-1.683" /><path
     id="STROKE_f7d9f4ed-c352-4afd-b2fd-5d8ee078b666"
     opacity="1"
     fill="none"
     stroke="#FFFFFF"
     stroke-width="5"
     stroke-opacity="1"
     stroke-linecap="round"
     stroke-linejoin="round"
     d="m 287.703,2980.491 2.467,0.039 q 0.278,0.014 4.247,-0.042 3.969,-0.055 9.565,-0.692 5.595,-0.637 7.969,-1.095 2.374,-0.458 3.504,-0.693 1.129,-0.235 1.62,-0.405 0.49,-0.17 0.844,-0.403 0.354,-0.232 0.786,-0.615 0.431,-0.383 2.301,-1.606" /><path
     id="STROKE_f7c67777-b320-4375-bc03-83df03bdc7b6"
     opacity="1"
     fill="none"
     stroke="#FFFFFF"
     stroke-width="5"
     stroke-opacity="1"
     stroke-linecap="round"
     stroke-linejoin="round"
     d="m 325.578,2946.235 q -0.04,0.174 0.147,1.113 0.083,0.967 -0.738,10.675 -0.821,9.707 -2.368,17.149 -0.071,0.12 -0.865,1.206" /><path
     id="STROKE_dedd0122-66cd-4aad-9c43-7c5325814943"
     opacity="1"
     fill="none"
     stroke="#FFFFFF"
     stroke-width="5"
     stroke-opacity="1"
     stroke-linecap="round"
     stroke-linejoin="round"
     d="m 279.55,2938.222 -0.061,-1.161 q -0.117,-6.434 -0.176,-9.643 -0.06,-3.208 -0.128,-6.135 -0.067,-2.928 -0.093,-7.564 -0.026,-4.636 0.015,-6.94 0.04,-2.303 -0.04,-3.44 -0.08,-1.136 -0.098,-3.246 -0.018,-2.109 0.052,-3.83 0.07,-1.721 0.13,-2.805 0.059,-1.083 0.621,-3.682" /><path
     id="STROKE_0a5c15e7-f121-4398-81dc-4134c5e38b56"
     opacity="1"
     fill="none"
     stroke="#FFFFFF"
     stroke-width="5"
     stroke-opacity="1"
     stroke-linecap="round"
     stroke-linejoin="round"
     d="m 280.581,2888.01 0.924,0.248 q 0.732,0.026 1.911,0.015 1.178,-0.011 1.636,-0.035 0.458,-0.025 3.29,0.118 2.833,0.143 9.645,1.139 6.812,0.996 12.305,1.773 5.493,0.777 10.274,1.059 l 1.33,0.177" /><path
     id="STROKE_bb977d38-ec0b-4e20-b77e-3836e3e91e07"
     opacity="1"
     fill="none"
     stroke="#FFFFFF"
     stroke-width="5"
     stroke-opacity="1"
     stroke-linecap="round"
     stroke-linejoin="round"
     d="m 324.627,2895.006 0.134,0.77 -0.046,0.832 q -0.221,1.116 -0.432,9.545 -0.211,8.43 -1.205,30.189 l -0.454,2.473" /><path
     id="STROKE_4f235ba1-6249-41dd-9d1f-d1c29a545f8b"
     opacity="1"
     fill="none"
     stroke="#FFFFFF"
     stroke-width="5"
     stroke-opacity="1"
     stroke-linecap="round"
     stroke-linejoin="round"
     d="m 320.419,2982.257 q 0.059,1.514 0.081,1.688 0.022,0.174 0.026,3.251 0.005,3.078 -0.314,9.12 -0.319,6.042 -0.471,7.953 -0.152,1.911 -0.677,7.452 l -0.547,2.221" /><path
     id="STROKE_72b12ff8-2c83-405f-a691-fa7b0aad0881"
     opacity="1"
     fill="none"
     stroke="#FFFFFF"
     stroke-width="5"
     stroke-opacity="1"
     stroke-linecap="round"
     stroke-linejoin="round"
     d="m 278.578,2949.838 -0.253,0.852 -0.047,1.304 q 0.022,0.798 -0.383,10.526 -0.404,9.727 -0.458,11.593 -0.055,1.866 -0.174,4.173" /><path
     id="STROKE_1a9493ae-864d-4b5d-a7a4-c0521bdc3f3f"
     opacity="1"
     fill="none"
     stroke="#FFFFFF"
     stroke-width="5"
     stroke-opacity="1"
     stroke-linecap="round"
     stroke-linejoin="round"
     d="m 276.231,3000.417 -0.036,2.833 q 0.086,0.781 -1.142,13.932 l -0.137,1.324" /><path
     id="STROKE_f0cee10f-de1c-4c53-85c9-374881d2c6aa"
     opacity="1"
     fill="none"
     stroke="#FFFFFF"
     stroke-width="5"
     stroke-opacity="1"
     stroke-linecap="round"
     stroke-linejoin="round"
     d="m 276.677,3021.446 q 2.182,-0.094 2.892,-0.062 0.711,0.032 0.848,0.069 0.137,0.038 3.887,0.367 3.75,0.329 5.979,0.518 2.228,0.19 4.021,0.488 1.793,0.299 3.644,0.673 1.85,0.375 4.155,0.766 2.304,0.392 3.274,0.566 0.97,0.174 1.463,0.27 0.494,0.096 2.656,0.324 2.162,0.228 3.465,0.237 1.302,0.01 2.345,-0.079 1.042,-0.088 1.721,-0.203 0.68,-0.114 1.908,-0.612 0.843,-1.326 1.433,-3.554 0.591,-2.229 0.8,-3.443" /><path
     id="STROKE_e7e4f8ca-979c-4800-a818-07e46cd57a2e"
     opacity="1"
     fill="none"
     stroke="#FFFFFF"
     stroke-width="5"
     stroke-opacity="1"
     stroke-linecap="round"
     stroke-linejoin="round"
     d="m 276.818,2891.981 0.844,-0.573 q 1.334,-1.12 2.229,-1.825 0.895,-0.706 5.554,-4.986 4.659,-4.279 8.271,-8.01 3.611,-3.731 8.833,-8.758 5.221,-5.028 8.472,-8.218 3.25,-3.189 4.938,-4.866 1.687,-1.677 3.358,-3.294 1.671,-1.618 3.801,-3.537 2.13,-1.919 5.37,-4.882 3.24,-2.962 4.892,-4.6 1.652,-1.637 8.768,-9.133 l 1.376,-2.001" /><path
     id="STROKE_71507708-e373-428c-bf1b-8f956722fefa"
     opacity="1"
     fill="none"
     stroke="#FFFFFF"
     stroke-width="5"
     stroke-opacity="1"
     stroke-linecap="round"
     stroke-linejoin="round"
     d="m 324.243,2894.044 q 0.484,-0.38 1.191,-1.122 0.707,-0.741 1.033,-1.109 0.326,-0.368 4.789,-5.238 4.464,-4.869 8.342,-9.188 3.878,-4.318 7.874,-8.451 3.996,-4.133 5.838,-6.055 1.842,-1.922 3.131,-3.299 1.29,-1.377 2.621,-2.693 1.33,-1.315 2.239,-2.22 0.908,-0.904 2.068,-2.079 1.16,-1.176 3.453,-3.493 2.294,-2.317 2.881,-2.885 0.587,-0.568 3.928,-3.67 3.342,-3.103 5.689,-5.388 2.346,-2.286 5.537,-5.629 l 1.094,-1.146" /><path
     id="STROKE_2602df9e-211a-47a6-bd16-a7dc62a354e8"
     opacity="1"
     fill="none"
     stroke="#FFFFFF"
     stroke-width="5"
     stroke-opacity="1"
     stroke-linecap="round"
     stroke-linejoin="round"
     d="m 339.984,2837.064 1.14,0.304 q 0.472,0.367 1.03,0.752 0.559,0.385 1.134,0.607 0.575,0.222 1.854,0.42 1.28,0.199 2.439,0.163 1.16,-0.036 2.445,-0.172 1.286,-0.137 3.137,-0.221 0.239,0.072 0.81,0.261 0.571,0.188 0.972,0.291 0.401,0.102 1.302,0.192 0.902,0.09 1.898,0.138 0.995,0.047 1.391,0.051 0.396,0 1.272,0.142 0.877,0.137 1.436,0.261 0.559,0.123 0.675,0.172 0.117,0.048 4.5,1.345" /><path
     id="STROKE_922f8958-be69-4993-8cc0-6ddcf5ae173d"
     opacity="1"
     fill="none"
     stroke="#FFFFFF"
     stroke-width="5"
     stroke-opacity="1"
     stroke-linecap="round"
     stroke-linejoin="round"
     d="m 345.568,2829.574 q -0.03,0.673 0.191,1.125 0.033,0.847 0.372,4.53 0.339,3.684 0.408,4.492" /><path
     id="STROKE_70fa0b4c-3b7d-4f04-b00e-eb0158920481"
     opacity="1"
     fill="none"
     stroke="#FFFFFF"
     stroke-width="5"
     stroke-opacity="1"
     stroke-linecap="round"
     stroke-linejoin="round"
     d="m 384.475,2833.022 0.096,0.49 q -0.178,2.921 -0.185,4.997 -0.006,2.076 0.049,3.953 0.055,1.877 0.108,2.9 0.053,1.022 0.153,3.195 0.1,2.172 0.183,4.32 0.083,2.149 0.103,5.897 0.021,3.748 -0.021,5.302 -0.043,1.553 -0.162,5.811 -0.12,4.258 -0.176,5.593 -0.056,1.336 -0.209,5.38 -0.154,4.043 -0.27,6.433 -0.115,2.391 -0.146,2.882 -0.031,0.491 -0.27,5.488 -0.24,4.997 -0.276,5.544 -0.037,0.547 -0.187,4.481 -0.151,3.935 -0.233,6.428 -0.083,2.494 -0.194,5.32 -0.111,2.825 -0.215,6.558 -0.103,3.733 -0.176,5.717 -0.072,1.984 -0.221,8.485 -0.148,6.502 -0.204,8.208 -0.056,1.705 -0.192,5.512 -0.137,3.807 -0.207,7.271 -0.069,3.465 -0.163,5.801" /><path
     id="STROKE_4ba825b5-b46f-496e-be52-8df9c308490a"
     opacity="1"
     fill="none"
     stroke="#FFFFFF"
     stroke-width="5"
     stroke-opacity="1"
     stroke-linecap="round"
     stroke-linejoin="round"
     d="m 319.832,3021.955 q 0.198,-0.11 1.127,-0.926 0.929,-0.816 1.938,-1.617 1.01,-0.801 2.176,-1.789 1.165,-0.988 2.941,-2.597 1.776,-1.608 6.057,-5.811 4.281,-4.203 6.066,-6.023 1.786,-1.82 4.699,-4.869 2.914,-3.049 4.28,-4.474 1.367,-1.425 2.723,-2.811 1.356,-1.386 2.014,-2.028 0.658,-0.641 1.426,-1.348 0.769,-0.708 1.545,-1.449 0.777,-0.742 1.419,-1.394 0.642,-0.653 2.255,-2.385 1.612,-1.733 3.337,-3.411 1.726,-1.678 4.119,-4.189 2.393,-2.51 4.098,-4.335" /><path
     id="STROKE_5e6d2fdb-709a-48c5-973c-c4106cc7f795"
     opacity="1"
     fill="none"
     stroke="#FFFFFF"
     stroke-width="5"
     stroke-opacity="1"
     stroke-linecap="round"
     stroke-linejoin="round"
     d="m 293.146,2886.625 q 0.128,-0.087 2.957,-3.127 2.828,-3.04 4.264,-4.638 1.435,-1.599 3.26,-3.508 1.826,-1.91 2.798,-2.963 0.971,-1.053 1.879,-2.102 0.907,-1.05 6.636,-7.388 5.728,-6.337 7.303,-8.017 1.574,-1.679 2.1,-2.189 0.526,-0.51 1.526,-1.545 1,-1.035 1.969,-2.08 0.968,-1.045 1.854,-1.971 0.886,-0.926 1.46,-1.503 0.574,-0.577 1.057,-1.023 0.483,-0.447 1.018,-1.019 0.536,-0.571 2.204,-2.432" /><path
     id="STROKE_f6cd34cd-f051-461c-b302-8b93f00e36e4"
     opacity="1"
     fill="none"
     stroke="#FFFFFF"
     stroke-width="5"
     stroke-opacity="1"
     stroke-linecap="round"
     stroke-linejoin="round"
     d="m 302.109,2889.776 q 0.795,-0.857 7.027,-8.266 6.233,-7.409 9.377,-11.342 3.145,-3.932 4.228,-5.119 1.082,-1.186 5.849,-6.446 4.767,-5.259 13.988,-14.786 l 1.229,-1.312" /><path
     id="STROKE_0563f5b0-b999-4717-9065-85637a88ec26"
     opacity="1"
     fill="none"
     stroke="#FFFFFF"
     stroke-width="5"
     stroke-opacity="1"
     stroke-linecap="round"
     stroke-linejoin="round"
     d="m 313.742,2890.511 q 0.116,-0.16 8.31,-9.231 8.194,-9.07 14.287,-15.407 6.092,-6.337 8.707,-8.936 2.615,-2.6 4.253,-4.35 1.638,-1.75 1.775,-1.915 0.137,-0.166 1.17,-1.288 1.033,-1.123 2.774,-2.977 1.741,-1.855 2.547,-2.8" /><path
     id="STROKE_60f067a9-79ee-472c-900c-f3dc6a647fc7"
     opacity="1"
     fill="none"
     stroke="#FFFFFF"
     stroke-width="5"
     stroke-opacity="1"
     stroke-linecap="round"
     stroke-linejoin="round"
     d="m 324.101,2943.521 q 0.164,-0.145 0.519,-0.605 0.355,-0.46 0.654,-0.988 0.3,-0.528 2.855,-3.786 2.556,-3.259 4.93,-6.181 2.374,-2.922 3.928,-4.77 1.554,-1.847 6.655,-7.66 0.596,-0.573 1.339,-1.518" /><path
     id="STROKE_e79fc4a0-2393-4085-9bbf-a489643724ac"
     opacity="1"
     fill="none"
     stroke="#FFFFFF"
     stroke-width="5"
     stroke-opacity="1"
     stroke-linecap="round"
     stroke-linejoin="round"
     d="m 328.229,2952.198 0.309,-0.452 0.224,-0.437 q 8.819,-9.416 24.649,-24.626 0.336,-0.085 1.423,-0.728" /><path
     id="STROKE_586abf10-ea3a-4517-bbd0-f1d7e85f6a70"
     opacity="1"
     fill="none"
     stroke="#FFFFFF"
     stroke-width="5"
     stroke-opacity="1"
     stroke-linecap="round"
     stroke-linejoin="round"
     d="m 324.627,2964.253 q 0.869,-0.678 1.53,-1.378 0.388,-0.392 18.933,-17.467 l 0.571,-0.261 q 0.401,-0.216 2.274,-1.697" /><path
     id="STROKE_83735bb1-b76a-437d-869a-4bf73d765be7"
     opacity="1"
     fill="none"
     stroke="#FFFFFF"
     stroke-width="5"
     stroke-opacity="1"
     stroke-linecap="round"
     stroke-linejoin="round"
     d="m 321.815,2978.442 0.392,-0.273 q 0.577,-0.911 4.818,-4.865 4.24,-3.955 6.833,-6.058 2.592,-2.103 3.558,-2.797 0.966,-0.693 2.871,-2.259" /><path
     id="STROKE_d8cd9589-3a4e-44d7-9bf1-be6f01d827ff"
     opacity="1"
     fill="none"
     stroke="#FFFFFF"
     stroke-width="5"
     stroke-opacity="1"
     stroke-linecap="round"
     stroke-linejoin="round"
     d="m 299.539,2972.195 q -0.051,0.599 -0.527,2.593 -0.477,1.994 -0.869,3.654" /><path
     id="STROKE_6e85157f-fc38-4f61-86d2-9df88ada19f5"
     opacity="1"
     fill="none"
     stroke="#FFFFFF"
     stroke-width="5"
     stroke-opacity="1"
     stroke-linecap="round"
     stroke-linejoin="round"
     d="m 307.268,2964.182 -0.339,0.895 q -0.025,0.096 -1.421,14.905" /><path
     id="STROKE_a9426557-962c-407d-9d0b-cbd150c4283e"
     opacity="1"
     fill="none"
     stroke="#FFFFFF"
     stroke-width="5"
     stroke-opacity="1"
     stroke-linecap="round"
     stroke-linejoin="round"
     d="m 314.835,2958.29 0.134,1.062 q -2.784,16.557 -3.432,19.302" /><path
     id="STROKE_cbe2c584-9607-47e9-8f5c-8f22d7c4571f"
     opacity="1"
     fill="none"
     stroke="#FFFFFF"
     stroke-width="5"
     stroke-opacity="1"
     stroke-linecap="round"
     stroke-linejoin="round"
     d="m 324.769,2948.962 -0.068,0.282 -0.19,0.505 q -0.223,0.853 -1.08,6.229 -0.857,5.376 -1.793,9.774 -0.937,4.398 -2.132,8.031 l -0.706,1.352" /><path
     id="STROKE_8b40fd9c-13cb-4a6d-b228-44fb8d5a1ae1"
     opacity="1"
     fill="none"
     stroke="#FFFFFF"
     stroke-width="5"
     stroke-opacity="1"
     stroke-linecap="round"
     stroke-linejoin="round"
     d="m 277.263,2978.512 -0.162,0.517 0.063,0.297 q 0.054,1.058 0.18,4.034" /><path
     id="STROKE_f5287156-8527-4cf9-b831-66768b35dad3"
     opacity="1"
     fill="none"
     stroke="#FFFFFF"
     stroke-width="5"
     stroke-opacity="1"
     stroke-linecap="round"
     stroke-linejoin="round"
     d="m 344.111,2828.033 -0.047,0.694 q 0.05,0 -0.18,0.51 -0.229,0.509 -0.522,1.368" /><path
     id="STROKE_dd5faf9b-3ff9-47c4-afa9-fef7e32a0f1d"
     opacity="1"
     fill="none"
     stroke="#FFFFFF"
     stroke-width="5"
     stroke-opacity="1"
     stroke-linecap="round"
     stroke-linejoin="round"
     d="m 344.839,2827.51 0.698,-0.501 q -0.574,1.303 -0.981,2.339" /><path
     id="STROKE_f3a149ad-2234-478e-9aec-3f8dc5b40284"
     opacity="1"
     fill="none"
     stroke="#FFFFFF"
     stroke-width="5"
     stroke-opacity="1"
     stroke-linecap="round"
     stroke-linejoin="round"
     d="m 346.903,2825.306 -0.411,0.575 q -0.211,0.179 -1.208,1.926" /><path
     id="STROKE_8926a078-7e23-420f-8071-92d61a4d6425"
     opacity="1"
     fill="none"
     stroke="#FFFFFF"
     stroke-width="5"
     stroke-opacity="1"
     stroke-linecap="round"
     stroke-linejoin="round"
     d="m 179.57,3062.583 q -0.072,-1.088 -0.952,-2.474 -0.88,-1.385 -1.911,-5.878 -1.031,-4.492 -1.174,-8.887 -0.142,-4.395 0.231,-7.541 0.374,-3.146 2.073,-6.948 1.698,-3.802 3.524,-6.282 1.826,-2.481 4.891,-5.323 3.064,-2.842 5.001,-4.208 1.937,-1.367 4.912,-3.021 2.975,-1.654 6.238,-3.022 3.263,-1.368 5.25,-2.289 1.988,-0.92 3.176,-1.731 1.187,-0.811 1.673,-1.242 0.485,-0.431 0.921,-0.961 0.437,-0.53 1.635,-5.49 1.199,-4.96 1.847,-7.384 0.649,-2.424 1.296,-3.892 0.648,-1.468 3.18,-4.65 2.532,-3.182 5.702,-5.287 3.17,-2.104 6.541,-3.477 3.371,-1.374 8.076,-3.525 0.516,-0.253 2.641,-4.705 2.125,-4.452 2.981,-5.977 0.855,-1.525 2.516,-2.891 1.662,-1.366 2.905,-1.521 1.244,-0.155 1.908,-0.029 0.665,0.125 1.138,0.297 0.474,0.172 1.005,0.44 0.532,0.269 0.913,0.522 0.381,0.252 1.504,1.25 1.122,0.997 2.635,2.456 1.514,1.459 3.356,3.478 1.843,2.018 2.527,2.692 0.685,0.673 1.108,1.048 0.422,0.376 1.542,1.241 1.12,0.864 3.393,2.8" /><path
     id="STROKE_679668bc-111c-439c-a2fb-71aed8b4e9ab"
     opacity="1"
     fill="none"
     stroke="#FFFFFF"
     stroke-width="5"
     stroke-opacity="1"
     stroke-linecap="round"
     stroke-linejoin="round"
     d="m 350.979,2998.776 0.504,0.502 1.026,0.889 q 2.542,1.624 6.3,3.171 3.758,1.548 6.504,2.487 2.746,0.94 4.185,1.444 1.438,0.504 3.705,1.239 2.267,0.736 2.995,0.95 0.728,0.215 1.575,0.452 0.846,0.237 1.915,0.252 1.068,0.015 3.002,-0.262 1.935,-0.277 2.969,-0.555 1.035,-0.278 4.624,-1.46 3.59,-1.181 8.446,-3.08 4.856,-1.899 8.478,-3.978 3.622,-2.079 5.343,-2.985 1.721,-0.906 3.31,-1.445 1.588,-0.539 2.276,-0.69 0.688,-0.151 0.977,-0.188 0.289,-0.037 0.725,0 0.436,0.033 0.86,0.102 0.424,0.069 0.944,0.162 0.519,0.092 1.166,0.184 0.647,0.093 1.243,0.101 0.597,0.01 1.556,-0.109 0.959,-0.118 3.923,-2.09 2.965,-1.972 4.958,-4.205 1.994,-2.233 2.952,-3.494 0.958,-1.261 2.656,-4.56 1.698,-3.298 2.259,-5.173 0.561,-1.874 0.838,-4.521 0.277,-2.647 0.149,-4.491 -0.128,-1.844 -0.812,-4.27 -0.684,-2.426 -2.704,-6.028 -2.021,-3.602 -3.25,-5.737 -1.23,-2.135 -1.811,-4.027 -0.58,-1.893 -0.699,-2.862 -0.118,-0.97 -0.12,-2.278 -0.003,-1.307 0.76,-3.879 0.763,-2.572 1.745,-5.226 0.983,-2.653 1.239,-3.591 0.257,-0.939 0.356,-1.489 0.099,-0.55 0.152,-1.092 0.052,-0.543 0.043,-1.099 -0.009,-0.556 0.007,-0.909 0.015,-0.353 -0.622,-2.476 -0.638,-2.123 -1.329,-3.33 -0.692,-1.207 -1.833,-2.491 -1.14,-1.284 -2.214,-2.162 -1.074,-0.878 -4.478,-2.732 -3.405,-1.854 -5.265,-2.608 -1.86,-0.754 -4.809,-1.991 -2.949,-1.238 -4.43,-2.014 -1.481,-0.777 -3.691,-1.671 -2.21,-0.895 -2.811,-1.415 -0.601,-0.519 -2.152,-1.577 -1.551,-1.058 -2.7,-1.784 -1.148,-0.725 -2.288,-1.529 -1.14,-0.803 -3.489,-2.406" /><path
     id="STROKE_1c537327-2df1-4967-91d0-ee2d176f117f"
     opacity="1"
     fill="none"
     stroke="#FFFFFF"
     stroke-width="5"
     stroke-opacity="1"
     stroke-linecap="round"
     stroke-linejoin="round"
     d="m 335.987,2824.541 q 0.081,-0.864 -0.701,-2.823 -0.052,-0.11 -0.187,-3.875 -0.136,-3.765 0.126,-6.23 0.262,-2.465 1.534,-6.472 1.273,-4.007 2.86,-6.876 1.586,-2.869 2.84,-4.451 1.253,-1.582 8.279,-7.385 7.026,-5.802 10.728,-9.271 3.703,-3.468 5.329,-5.943 0.031,-0.34 0.043,-1.116 0.012,-0.775 0.007,-1.581 -0.005,-0.806 0.026,-1.331 0.031,-0.525 0.137,-0.939 0.106,-0.414 0.142,-0.656 0.036,-0.241 0.524,-1.312 0.489,-1.07 2.846,-3.949 2.357,-2.88 5.479,-5.138 3.122,-2.257 5.978,-3.462 2.857,-1.205 6.08,-1.7 3.222,-0.494 5.174,-0.428 1.952,0.067 3.295,0.298 1.342,0.231 7.565,1.929 6.222,1.698 10.043,3.194 3.821,1.496 6.845,3.363 3.023,1.866 5.871,4.54 2.848,2.673 6.748,8.266 3.9,5.593 6.783,11.953 2.883,6.36 4.992,12.291 2.109,5.93 4.403,10.994 2.294,5.064 4.57,8.333 2.276,3.269 5.036,5.702 2.76,2.434 10.275,5.083 7.515,2.649 11.88,3.584 4.364,0.935 9.094,2.123 4.731,1.188 8.388,2.194 3.657,1.006 7.607,2.188 3.949,1.183 6.136,2.02 2.186,0.837 4.892,2.506 2.707,1.669 6.135,4.889 3.428,3.221 5.888,5.784 2.461,2.563 4.931,5.351 2.471,2.789 4.257,5.362 1.786,2.574 3.315,6.733 1.528,4.16 1.886,9.026 0.359,4.866 0.011,7.845 -0.348,2.978 -0.748,4.646 -0.401,1.667 -2.978,7.213 -2.578,5.546 -8.63,14.527 -6.052,8.982 -8.349,13.308 -2.297,4.326 -3.015,6.38 -0.718,2.053 -0.896,3.501 -0.178,1.447 0.006,3.661 0.185,2.213 0.398,3.929 0.213,1.716 0.516,3.385 0.302,1.669 1.212,6.5 0.91,4.831 2.176,10.248 1.266,5.417 2.759,9.926 1.493,4.509 2.548,7.34 1.054,2.83 2.093,6.19 1.04,3.361 1.556,5.551 0.517,2.19 1.087,7.171 0.571,4.981 0.553,7.562 -0.019,2.581 -0.279,4.978 -0.259,2.397 -0.948,4.859 -0.688,2.462 -2.705,5.554 -2.018,3.093 -5.665,5.879 -3.648,2.785 -7.87,5.014 -4.223,2.228 -7.46,3.823 -3.237,1.595 -7.705,4.496 -4.469,2.901 -6.639,4.667 -2.171,1.767 -7.091,6.53 -4.921,4.764 -7.738,8.054 -2.816,3.291 -4.5,5.621 -1.684,2.331 -4.074,7.252 -2.39,4.921 -3.849,9.777 -1.46,4.856 -1.842,6.13" /><path
     id="STROKE_cbe29fc4-8357-4e0b-a22d-5101820c251b"
     opacity="1"
     fill="none"
     stroke="#FFFFFF"
     stroke-width="5"
     stroke-opacity="1"
     stroke-linecap="round"
     stroke-linejoin="round"
     d="m 485.403,2863.432 q -0.161,-0.194 -0.529,-0.485 l -0.415,-0.429 q -0.492,-0.414 -2.041,-1.127 -1.549,-0.714 -3.275,-0.882 -1.726,-0.167 -3.363,0.396 -1.636,0.563 -2.653,1.212 -1.016,0.648 -2.446,2.242 -1.429,1.594 -1.993,2.618 -0.565,1.024 -0.77,1.64 -0.205,0.616 -0.254,0.694 -0.049,0.077 -0.169,2.552 -0.12,2.475 0.128,3.507 0.247,1.031 0.927,2.18 0.68,1.149 1.264,1.643 0.585,0.495 1.752,0.958 1.167,0.464 4.354,0.29 3.187,-0.174 4.97,-0.842 1.783,-0.668 3.578,-1.781 1.795,-1.112 3.569,-3.05 1.775,-1.939 2.721,-3.99 0.946,-2.051 1.233,-3.288 0.286,-1.238 0.634,-2.588" /><path
     id="STROKE_bab33fc8-bca8-4aee-b570-bca61f516843"
     opacity="1"
     fill="none"
     stroke="#FFFFFF"
     stroke-width="5"
     stroke-opacity="1"
     stroke-linecap="round"
     stroke-linejoin="round"
     d="m 520.263,2882.115 q -0.544,-1.606 -0.966,-2.525 -0.422,-0.92 -0.69,-1.336 -0.268,-0.416 -0.7,-0.986 -0.433,-0.57 -1.841,-1.545 -1.407,-0.976 -3.129,-1.359 -1.722,-0.383 -2.854,-0.086 -1.131,0.297 -1.791,0.703 -0.66,0.405 -1.973,2.015 -1.313,1.61 -1.746,2.739 -0.432,1.129 -0.496,2.515 -0.064,1.386 0.387,2.665 0.45,1.279 1.337,2.063 0.886,0.783 1.962,1.184 1.077,0.4 1.963,0.505 0.887,0.105 1.892,-0.044 1.005,-0.149 5.033,-2.533 4.028,-2.384 5.129,-3.797 l 1.639,-2.17" /><path
     id="STROKE_23cb2d80-47c4-4fe3-a331-bef883dea352"
     opacity="1"
     fill="none"
     stroke="#FFFFFF"
     stroke-width="5"
     stroke-opacity="1"
     stroke-linecap="round"
     stroke-linejoin="round"
     d="m 448.499,2909.531 q 0.684,-0.625 1.503,-1.232 0.818,-0.607 0.999,-0.684 0.181,-0.076 2.465,-1.436 2.285,-1.359 5.355,-2.698 3.071,-1.339 7.612,-2.243 4.541,-0.904 7.254,-0.823 2.713,0.08 3.927,0.21 1.215,0.129 4.879,1.727 3.663,1.598 6.724,3.403 3.06,1.805 4.002,2.386 0.942,0.58 2.524,1.791 1.582,1.21 2.609,2.247 1.027,1.037 3.294,4.079 2.266,3.042 2.662,3.87 0.395,0.829 1.012,3.309 0.617,2.48 0.892,5.996 0.275,3.516 0.173,5.42 -0.102,1.903 -0.44,3.793 -0.337,1.891 -1.412,5.46 -1.075,3.57 -1.847,5.124 -0.773,1.554 -1.809,3.076 -1.036,1.523 -1.558,2.11 -0.523,0.587 -0.881,0.904 -0.359,0.317 -1.214,0.887 -0.855,0.57 -2.64,1.485 -1.785,0.915 -4.254,1.406 -2.47,0.49 -5.366,0.441 -2.896,-0.049 -5.749,-0.761 -2.853,-0.711 -5.361,-1.902 -2.508,-1.19 -5.393,-3.51 -2.884,-2.32 -7.825,-8.243 -4.941,-5.923 -5.288,-6.481 -0.348,-0.559 -1.813,-3.79 -1.466,-3.231 -2.226,-5.525 -0.76,-2.293 -1.141,-3.61 -0.38,-1.317 -0.699,-2.597 -0.319,-1.281 -0.64,-2.938 -0.321,-1.657 -0.342,-3.758 -0.022,-2.101 0.15,-3.523 0.171,-1.422 0.56,-2.786 0.389,-1.365 1.26,-3.779 0.87,-2.414 1.117,-3.136" /><path
     id="STROKE_8cdfdef0-5633-4298-ae6e-8cda780be537"
     opacity="1"
     fill="none"
     stroke="#FFFFFF"
     stroke-width="5"
     stroke-opacity="1"
     stroke-linecap="round"
     stroke-linejoin="round"
     d="m 459.829,2793.309 -0.478,-1.389 -0.661,-1.821 q -2.378,-8.82 -2.558,-9.655 -0.181,-0.835 -0.482,-3.118 -0.302,-2.283 -0.267,-2.917 0.035,-0.634 0.159,-1.032 0.125,-0.398 0.325,-0.792 0.201,-0.393 0.926,-1.196 0.725,-0.804 1.251,-1.134 0.527,-0.33 0.613,-0.394 0.086,-0.064 1.853,-0.427 1.767,-0.364 3.541,-0.234 1.774,0.131 4.289,0.92 2.515,0.789 4.072,1.464 1.558,0.675 3.31,1.559 1.753,0.883 3.773,2.148 2.019,1.264 2.968,1.928 0.948,0.664 2.277,1.715 1.329,1.052 1.624,1.37 0.296,0.318 0.67,0.944 0.374,0.627 0.65,1.407 0.275,0.78 0.531,3.11 0.256,2.33 0.025,3.639 -0.232,1.309 -0.569,1.988 -0.337,0.679 -1.742,1.999 -1.405,1.32 -2.271,1.993 -0.866,0.672 -2.119,1.54 -1.252,0.867 -1.871,1.242 -0.618,0.376 -1.594,1.02 -0.975,0.644 -1.689,1.011 -0.713,0.368 -0.966,0.483 -0.254,0.114 -1.591,0.521 -1.338,0.407 -2.963,0.528 -1.625,0.12 -3.055,-0.016 -1.43,-0.136 -2.481,-0.484 -1.052,-0.349 -1.48,-0.59 -0.428,-0.24 -1.002,-0.719 -0.574,-0.479 -0.677,-0.548 -0.102,-0.07 -1.329,-2.167 -1.226,-2.098 -2.248,-3.906 -1.021,-1.808 -1.577,-2.718" /><path
     id="STROKE_087e8a3e-a15a-4286-a708-55e290aef970"
     opacity="1"
     fill="none"
     stroke="#FFFFFF"
     stroke-width="5"
     stroke-opacity="1"
     stroke-linecap="round"
     stroke-linejoin="round"
     d="m 466.222,3089.928 -0.27,0.476 -0.343,0.917 q -0.747,2.21 -2.375,6.387 -1.628,4.178 -3.356,7.51 -1.728,3.332 -3.49,6.807 -1.762,3.475 -2.481,5.061 -0.718,1.586 -1.308,3.127 -0.589,1.541 -1.128,3.146 -0.538,1.606 -1.097,3.581 -0.56,1.975 -1.227,4.674 -0.668,2.7 -1.202,6.098 -0.533,3.399 -0.889,5.359 -0.356,1.961 -0.722,3.209 -0.366,1.249 -2.098,3.831 -1.732,2.582 -3.243,4.655" /><path
     id="STROKE_65dd0ed9-d5da-449e-ab8e-61bfd22be47f"
     opacity="1"
     fill="none"
     stroke="#FFFFFF"
     stroke-width="5"
     stroke-opacity="1"
     stroke-linecap="round"
     stroke-linejoin="round"
     d="m 437.695,3152.42 q 0.044,-0.126 0.02,-0.728 0.224,-0.644 0.688,-2.683 0.463,-2.04 0.115,-5.452 -0.349,-3.412 -1.187,-7.581 -0.838,-4.168 -1.861,-7.706 -1.022,-3.537 -3.217,-7.73 -2.195,-4.192 -3.655,-6.277 -1.459,-2.085 -2.845,-3.919 -1.385,-1.835 -4.59,-5.309 -0.268,-0.317 -1.222,-3.604 -0.955,-3.288 -1.596,-8.083 -0.641,-4.794 -1.214,-7.184 -0.573,-2.389 -1.571,-4.425 -0.999,-2.036 -2.495,-3.242 -1.495,-1.206 -3.011,-2.126 -1.516,-0.921 -2.314,-1.404 -0.798,-0.483 -1.765,-0.992 -0.966,-0.509 -4.451,-2.785 -3.484,-2.276 -5.325,-3.552 -1.84,-1.276 -3.585,-2.186 -1.745,-0.91 -3.759,-1.541 -2.014,-0.631 -3.132,-0.904 -1.118,-0.272 -1.618,-0.353 -0.501,-0.081 -1.146,-0.274 -0.645,-0.194 -1.054,-0.273 -0.408,-0.078 -0.445,-0.083 -0.038,0 -0.177,0.207 -0.139,0.21 -0.404,0.577 -0.266,0.366 -0.434,0.684 -0.167,0.318 -0.7,1.275 -0.533,0.957 -0.875,1.589 -0.343,0.631 -0.714,1.344 -0.372,0.713 -1.675,3.953 -1.304,3.241 -2.132,6.614 -0.829,3.374 -1.041,6.115 -0.213,2.74 -0.098,4.813 0.114,2.073 0.412,4.165 0.297,2.091 0.578,6.572 0.282,4.48 0.169,7.075 -0.112,2.595 -0.326,4.214 -0.213,1.62 -2.174,8.054 -1.961,6.433 -5.259,12.349 -3.297,5.916 -5.506,9.074 -2.21,3.157 -3.368,4.651 -1.158,1.493 -1.655,2.221 -0.497,0.729 -0.587,0.921 -0.09,0.191 -1.09,1.747 -0.968,0.915 -1.483,1.492 -0.516,0.578 -3.68,4.424 -0.461,0.114 0.07,-4.66 -0.112,0.075 -1.28,0.454 -1.168,0.379 -2.787,0.589 -1.618,0.21 -1.941,0.172 -0.323,-0.038 -1.679,-0.248 -1.357,-0.211 -2.539,-0.799 -1.183,-0.589 -1.757,-1.06 -0.574,-0.471 -1.075,-1.024 -0.501,-0.553 -1.294,-2.022 -0.793,-1.469 -1.67,-6.863 -0.878,-5.395 -0.525,-12.243 0.352,-6.849 0.476,-10.316 0.124,-3.468 -0.159,-6.454 -0.283,-2.987 -1.596,-7.103 -1.314,-4.117 -2.411,-6.208 -1.097,-2.091 -2.506,-4.198 -1.408,-2.108 -1.787,-2.639 -0.38,-0.531 -2.014,-2.47 -1.633,-1.938 -2.774,-3.06 -1.141,-1.121 -1.937,-1.812 -0.795,-0.69 -3.204,-2.59 -2.41,-1.902 -4.033,-2.998 -1.624,-1.097 -2.934,-1.58 -1.31,-0.482 -2.516,-0.604 -1.206,-0.122 -3.675,0.236 l -0.423,-0.107 q -0.269,0.01 -0.793,0.37 -0.089,0.486 -0.828,3.954 -0.739,3.468 -1.803,8.658 -1.064,5.19 -1.606,8.185 -0.542,2.994 -0.905,5.108 -0.364,2.114 -0.861,6.894 -0.497,4.779 -0.807,7.603 -0.31,2.823 -1.225,6.007 -0.915,3.184 -2.38,6.325 -1.464,3.142 -4.143,6.605 -2.679,3.463 -7.151,7.361 -4.473,3.898 -7.321,6.199 -2.848,2.301 -8.378,6.515 -5.53,4.215 -6.658,4.593 -1.128,0.378 -2.058,0.287 -0.931,-0.09 -1.685,-0.732 -0.755,-0.643 -1.599,-3.208 -0.844,-2.564 -0.93,-5.075 -0.087,-2.511 0.263,-5.887 0.35,-3.376 0.476,-4.845 0.125,-1.469 0.495,-6.574 0.371,-5.106 0.3,-10.558 -0.071,-5.454 -0.43,-8.629 -0.358,-3.176 -1.489,-8.691 -1.132,-5.515 -2.316,-9.028 -1.184,-3.513 -2.329,-5.606 -1.146,-2.092 -2.612,-3.816 -1.467,-1.724 -2.952,-2.949 -1.486,-1.224 -3.402,-2.626 -1.917,-1.402 -3.715,-2.501 -1.799,-1.099 -2.77,-1.601 -0.971,-0.501 -2.002,-0.894 -1.03,-0.392 -2.45,-0.652 l -0.802,-0.486 q -0.34,-0.272 -2.405,-1.11 -2.065,-0.839 -2.491,-1.176" /><path
     id="STROKE_93495c15-c89a-42bd-ab4f-a4b5192b4bab"
     opacity="1"
     fill="none"
     stroke="#FFFFFF"
     stroke-width="5"
     stroke-opacity="1"
     stroke-linecap="round"
     stroke-linejoin="round"
     d="m 202.231,3071.26 -0.503,-0.322 q -2.189,-0.619 -3.546,-1.06 -1.357,-0.441 -3.084,-1.294 -1.727,-0.852 -2.895,-1.579 -1.169,-0.727 -2.042,-1.307 -0.874,-0.579 -1.708,-1.159 -0.835,-0.581 -2.094,-1.521 -1.259,-0.941 -2.624,-2.752 -1.364,-1.812 -2.91,-3.93" /><path
     id="STROKE_c4b37484-1d4e-4fa1-8868-6d45ad2ed76d"
     opacity="1"
     fill="none"
     stroke="#FFFFFF"
     stroke-width="5"
     stroke-opacity="1"
     stroke-linecap="round"
     stroke-linejoin="round"
     d="m 377.071,2806.454 q -0.249,-0.339 -0.952,-1.24 -0.703,-0.902 -2.636,-2.521 -1.933,-1.619 -4.608,-3.667 -2.676,-2.048 -3.311,-2.448 -0.635,-0.399 -2.425,-1.344 -1.791,-0.944 -3.635,-1.695 -1.843,-0.751 -5.753,-2.012 -3.911,-1.26 -13.98,-2.939 -10.069,-1.678 -16.366,-1.88 -6.296,-0.202 -9.513,0.036 -3.216,0.238 -5.766,0.649 -2.55,0.41 -7.888,1.794 -5.337,1.384 -9.269,2.839 -3.931,1.455 -7.692,2.981 -3.761,1.526 -8.453,3.593 -0.517,0.449 -2.191,1.297" /><path
     id="STROKE_49afea08-146f-4bd8-a846-0c99e85220c0"
     opacity="1"
     fill="none"
     stroke="#FFFFFF"
     stroke-width="5"
     stroke-opacity="1"
     stroke-linecap="round"
     stroke-linejoin="round"
     d="m 380.572,2802.181 0.385,0.63 0.347,2.36 0.113,0.756 q -0.033,0.917 0.156,5.424 -0.094,0.017 -3.163,10e-4 -3.069,-0.016 -3.867,-0.126" /><path
     id="STROKE_a624e771-674b-4170-9067-4006aca75dff"
     opacity="1"
     fill="none"
     stroke="#FFFFFF"
     stroke-width="5"
     stroke-opacity="1"
     stroke-linecap="round"
     stroke-linejoin="round"
     d="m 72.17,2819.045 q -0.007,-0.286 0.031,-0.553 0.037,-0.267 0.032,-0.592 -0.052,-0.264 -1.726,-2.131 -1.673,-1.867 -2.927,-2.275 -1.254,-0.409 -2.423,-0.327 -1.169,0.082 -1.982,0.501 -0.813,0.419 -1.475,1.157 -0.662,0.737 -0.95,1.248 -0.287,0.51 -0.476,0.85 -0.189,0.339 -0.562,2.079 -0.372,1.74 0.024,4.044 0.396,2.305 2.134,4.01 1.738,1.705 2.987,2.187 1.25,0.482 2.078,0.557 0.827,0.076 1.396,-0.043 0.568,-0.119 0.824,-0.233 0.256,-0.113 1.272,-0.758 1.017,-0.646 3.704,-2.428 l 0.56,0.737 0.361,0.56 0.431,0.575 q 0.837,1.019 1.965,4.761 1.128,3.742 0.99,7.271 -0.023,0.47 -2.338,1.557 -2.316,1.087 -3.682,1.097 -1.367,0.01 -2.319,-0.096 -0.952,-0.106 -5.27,-3.435" /><path
     id="STROKE_7b6efd42-2c21-4a5a-b4a5-2ccb791ca344"
     opacity="1"
     fill="none"
     stroke="#FFFFFF"
     stroke-width="5"
     stroke-opacity="1"
     stroke-linecap="round"
     stroke-linejoin="round"
     d="m 71.269,2797.124 1.43,1.862 q 0.087,0.243 3.659,6.798 3.572,6.554 7.3,10.504 l 0.797,-0.432 q 0.109,-0.021 0.847,-0.894 0.738,-0.872 1.366,-1.522 0.628,-0.65 1.209,-0.85 0.581,-0.201 1.268,-0.284 0.687,-0.083 1.182,0.053 0.496,0.136 1.16,0.427 0.664,0.292 2.505,2.01 1.841,1.719 3.366,2.953" /><path
     id="STROKE_aa225356-bc74-476e-aea1-cf32ebcdd39d"
     opacity="1"
     fill="none"
     stroke="#FFFFFF"
     stroke-width="5"
     stroke-opacity="1"
     stroke-linecap="round"
     stroke-linejoin="round"
     d="m 113.514,2812.697 0.293,-1.934 q -0.038,-0.541 -0.295,-1.616 -0.256,-1.075 -1.238,-2.891 -0.982,-1.815 -1.897,-2.67 -0.916,-0.854 -1.638,-1.166 -0.722,-0.312 -1.482,-0.326 -0.761,-0.013 -1.533,0.566 -0.771,0.579 -1.335,1.551 -0.563,0.972 -0.8,1.805 -0.236,0.832 -0.252,1.803 -0.015,0.97 0.062,1.463 0.078,0.493 0.413,1.169 0.335,0.675 1.415,1.834 1.08,1.158 1.801,1.525 0.721,0.367 1.587,0.481 0.865,0.113 1.36,0 0.495,-0.11 0.591,-0.188 0.097,-0.079 0.535,-0.37 0.438,-0.291 1.121,-1.6 0.683,-1.309 0.365,-2.678 -0.318,-1.37 -0.847,-4.004" /><path
     id="STROKE_5e68eb30-461c-4652-9137-56b96a3f998f"
     opacity="1"
     fill="none"
     stroke="#FFFFFF"
     stroke-width="5"
     stroke-opacity="1"
     stroke-linecap="round"
     stroke-linejoin="round"
     d="m 130.87,2795.256 -0.227,0.117 q -0.149,-0.047 -0.608,0.432 l -0.691,0.088 q -0.581,0.012 -1.813,0.178 -1.231,0.166 -1.892,0.455 -0.66,0.29 -1.41,0.739 -0.75,0.449 -1.392,1.445 -0.643,0.995 -0.883,1.782 -0.24,0.787 -0.162,1.57 0.077,0.783 0.248,1.402 0.171,0.619 1.197,1.244 1.026,0.624 1.963,0.945 0.937,0.321 2.454,0.539 1.517,0.218 3.421,0.383 1.903,0.166 2.594,0.348 0.69,0.182 1.375,0.446 0.685,0.264 1.237,0.715 0.551,0.452 0.825,0.814 0.273,0.362 0.446,0.82 0.172,0.457 0.183,1.092 0.01,0.635 -0.083,0.953 -0.093,0.318 -1.616,1.286 -1.523,0.968 -3.978,1.503 -2.454,0.535 -4.478,0.286 -0.666,-0.228 -2.441,-0.94" /><path
     id="STROKE_f220e8aa-45e1-4844-a836-74edd9b86742"
     opacity="1"
     fill="none"
     stroke="#FFFFFF"
     stroke-width="5"
     stroke-opacity="1"
     stroke-linecap="round"
     stroke-linejoin="round"
     d="m 143.069,2783.647 0.241,0.509 q 0.051,0.55 2.722,6.448 2.671,5.898 4.486,8.361 1.816,2.462 2.743,3.35 0.927,0.887 1.653,1.216 0.726,0.329 1.351,0.357 0.625,0.028 2.348,-0.656 1.723,-0.684 4.405,-2.83" /><path
     id="STROKE_4aab1e78-2d6b-4a30-a558-7636b81408ae"
     opacity="1"
     fill="none"
     stroke="#FFFFFF"
     stroke-width="5"
     stroke-opacity="1"
     stroke-linecap="round"
     stroke-linejoin="round"
     d="m 137.829,2798.515 q 3.25,-1.713 16.947,-9.912" /><path
     id="STROKE_141e327f-3d66-431e-982a-97cb6086b96e"
     opacity="1"
     fill="none"
     stroke="#FFFFFF"
     stroke-width="5"
     stroke-opacity="1"
     stroke-linecap="round"
     stroke-linejoin="round"
     d="m 196.038,2781.665 q -0.238,-0.444 -0.585,-0.514 -0.347,-0.071 -1.62,-1.983 -0.867,-0.506 -2.29,-1.049 -0.944,-0.223 -1.575,-0.285 -0.632,-0.062 -1.77,0.057 -1.138,0.119 -1.493,0.179 -0.355,0.061 -2.052,1.287 -1.698,1.227 -2.346,2.781 -0.649,1.554 -0.528,2.981 0.121,1.427 1.118,2.517 0.997,1.091 3.402,1.725 2.405,0.635 3.833,0.38 1.428,-0.255 2.823,-1.122 1.396,-0.867 2.511,-2.624 1.114,-1.758 1.404,-3.241 0.29,-1.482 -0.04,-6.255" /><path
     id="STROKE_f9de714b-1083-45db-b9ed-8dd10ab119f6"
     opacity="1"
     fill="none"
     stroke="#FFFFFF"
     stroke-width="5"
     stroke-opacity="1"
     stroke-linecap="round"
     stroke-linejoin="round"
     d="m 219.644,2758.467 q -0.792,-0.27 -3.719,-1.324 -2.927,-1.055 -5.692,-1.472 -2.765,-0.417 -4.037,-0.228 -1.272,0.19 -2.036,0.7 -0.764,0.509 -1.28,1.863 -0.516,1.354 0.035,3.037 0.551,1.684 1.785,3.492 1.233,1.808 4.616,5.727 3.383,3.92 8.288,10.089 0.456,-0.101 0.757,-0.078" /><path
     id="STROKE_d855b558-0259-4340-acbc-7ecf2927902a"
     opacity="1"
     fill="none"
     stroke="#FFFFFF"
     stroke-width="5"
     stroke-opacity="1"
     stroke-linecap="round"
     stroke-linejoin="round"
     d="m 206.272,2777.109 q 0.508,-0.337 2.155,-1.596 1.646,-1.259 4.957,-2.888 3.312,-1.629 5.96,-3.064" /><path
     id="STROKE_4d9c82b3-3f17-43dc-8234-5eadcf369fdb"
     opacity="1"
     fill="none"
     stroke="#FFFFFF"
     stroke-width="5"
     stroke-opacity="1"
     stroke-linecap="round"
     stroke-linejoin="round"
     d="m 68.786,2881.605 q 1.87,-1.48 2.43,-1.92 0.561,-0.441 1.172,-1.25 0.61,-0.81 0.974,-1.389 0.364,-0.579 1.06,-2.258 0.696,-1.678 0.746,-2.589 0.049,-0.911 0.046,-1.264 -0.004,-0.353 -0.564,-0.962 -0.561,-0.609 -1.448,-0.697 -0.887,-0.088 -1.554,0.266 -0.667,0.353 -1.143,0.769 -0.477,0.415 -1.19,1.641 -0.713,1.226 -0.974,2.58 -0.261,1.353 -0.04,3.11 0.22,1.756 0.646,2.544 0.425,0.788 1.843,2.172 1.418,1.383 3.049,2.235 1.63,0.852 3.258,1.153 1.629,0.301 3.419,0.169 1.79,-0.131 10.402,-5.301" /><path
     id="STROKE_6738d93c-a6fb-4db3-ab3f-fcb4e5b9fe78"
     opacity="1"
     fill="none"
     stroke="#FFFFFF"
     stroke-width="5"
     stroke-opacity="1"
     stroke-linecap="round"
     stroke-linejoin="round"
     d="m 84.559,2864.069 q 0.145,0.568 0.508,1.741 0.363,1.173 2.186,4.329 1.822,3.156 4.245,6.815 2.423,3.659 4.165,6.238 1.742,2.58 3.252,5.118 1.511,2.537 2.308,3.882 0.092,-0.066 -0.324,-0.686 -0.416,-0.621 -1.849,-2.562" /><path
     id="STROKE_7260f276-f7fb-49c0-b78c-c3f20e406421"
     opacity="1"
     fill="none"
     stroke="#FFFFFF"
     stroke-width="5"
     stroke-opacity="1"
     stroke-linecap="round"
     stroke-linejoin="round"
     d="m 84.859,2868.129 1.452,-0.718 0.605,-0.268 q 1.868,-0.213 3.517,-0.173 1.65,0.04 2.686,0.363 1.037,0.323 1.566,0.671 0.529,0.348 1.272,1.135 0.744,0.786 0.977,1.229 0.233,0.442 0.45,1.176 0.216,0.733 0.239,1.776 0.022,1.043 -3.43,6.703" /><path
     id="STROKE_5ac83453-1e4e-4b52-89c3-1e3a60e1b7e2"
     opacity="1"
     fill="none"
     stroke="#FFFFFF"
     stroke-width="5"
     stroke-opacity="1"
     stroke-linecap="round"
     stroke-linejoin="round"
     d="m 93.592,2850.077 q 0.077,0.132 4.579,5.519 4.503,5.387 6.396,7.351 1.892,1.963 2.451,2.463 0.558,0.5 0.836,0.861 0.014,0.052 0.153,-0.465 0.138,-0.517 0.356,-1.25 0.218,-0.733 0.559,-1.562 0.342,-0.829 0.818,-1.685 0.477,-0.855 1.415,-1.368 0.938,-0.512 1.373,-0.583 0.435,-0.072 1.256,-0.141 0.82,-0.069 1.869,0.414 1.049,0.483 1.574,0.89 0.524,0.406 1.635,1.923 1.112,1.517 1.779,2.845 0.668,1.328 1.524,2.344" /><path
     id="STROKE_054cda95-5713-426f-8d5f-07ac2a484edc"
     opacity="1"
     fill="none"
     stroke="#FFFFFF"
     stroke-width="5"
     stroke-opacity="1"
     stroke-linecap="round"
     stroke-linejoin="round"
     d="m 128.005,2857.625 q 0.933,-1.042 1.561,-2.468 0.628,-1.426 0.964,-2.789 0.335,-1.362 0.301,-2.259 -0.034,-0.896 -0.105,-1.116 -0.072,-0.221 -0.394,-0.648 -0.322,-0.427 -0.695,-0.558 -0.372,-0.132 -0.939,0 -0.567,0.133 -1.051,1.367 -0.485,1.235 -0.334,2.579 0.151,1.344 0.269,1.696 0.118,0.352 1.363,1.73 1.246,1.378 3.215,2.076 1.969,0.699 3.394,0.765 1.424,0.067 3.356,-0.353 1.932,-0.421 3.633,-1.317 1.702,-0.897 2.818,-1.394" /><path
     id="STROKE_d7b79ec3-3bac-4734-a63b-b27f112e0d0d"
     opacity="1"
     fill="none"
     stroke="#FFFFFF"
     stroke-width="5"
     stroke-opacity="1"
     stroke-linecap="round"
     stroke-linejoin="round"
     d="m 136.437,2837.592 q 0.393,0.25 1.05,0.822 0.657,0.571 0.795,0.811 0.137,0.239 3.128,3.29 2.991,3.05 4.896,4.753 1.905,1.702 2.731,2.482 0.826,0.779 0.731,0.38 -0.094,-0.399 -0.76,-3.201 -0.665,-2.802 -0.848,-4.367 -0.183,-1.564 -0.055,-2.223 0.128,-0.659 0.398,-1.097 0.27,-0.437 1.181,-0.795 0.911,-0.358 1.713,-0.349 0.801,0.01 1.91,0.384 1.109,0.374 2.308,1.055 1.199,0.681 2.18,1.514 0.981,0.832 1.414,1.547 0.034,0.121 -0.218,-1.933 -0.253,-2.055 -0.337,-4.019 -0.084,-1.963 0.202,-3.228 0.286,-1.265 0.631,-1.567 0.346,-0.303 0.568,-0.4 0.223,-0.096 0.763,-0.011 0.539,0.085 1.971,1.663 1.432,1.578 2.279,2.707 0.847,1.129 2.108,2.864 1.26,1.735 2.305,2.945 0.161,0.121 0.428,0.252 0.266,0.131 0.75,0.677" /><path
     id="STROKE_7f08aaa4-e55a-4d27-b7c1-3f51e9e2b4bf"
     opacity="1"
     fill="none"
     stroke="#FFFFFF"
     stroke-width="5"
     stroke-opacity="1"
     stroke-linecap="round"
     stroke-linejoin="round"
     d="m 178.6,2838.774 0.092,-0.267 0.434,-0.923 q 0.25,-0.724 0.893,-3.318 0.644,-2.594 0.71,-4.383 0.066,-1.788 -0.159,-2.772 -0.225,-0.984 -0.761,-1.64 -0.537,-0.656 -0.918,-0.804 -0.381,-0.147 -0.792,-0.11 -0.411,0.037 -0.653,0.235 -0.242,0.197 -0.585,0.906 -0.343,0.709 -0.419,1.386 -0.077,0.677 -0.036,1.091 0.042,0.415 0.208,1.386 0.166,0.971 1.269,2.42 1.103,1.45 3.171,2.661 2.069,1.212 8.349,1.903 l 2.378,-0.345" /><path
     id="STROKE_78b40957-3b2c-447a-8c5d-40e3ead5aa7e"
     opacity="1"
     fill="none"
     stroke="#FFFFFF"
     stroke-width="5"
     stroke-opacity="1"
     stroke-linecap="round"
     stroke-linejoin="round"
     d="m 189.106,2818.053 0.266,0.366 q 0.893,1.324 11.794,9.282 0.176,-0.045 -0.13,-2.905 -0.307,-2.86 -0.519,-4.388 -0.211,-1.528 -0.181,-3.378 0.03,-1.851 0.445,-3.044 0.416,-1.194 1.512,-2.591 1.096,-1.398 1.932,-2.133 0.836,-0.735 1.255,-1.216" /><path
     id="STROKE_720f2bfd-6c77-402e-bd42-97c526ebdc3b"
     opacity="1"
     fill="none"
     stroke="#FFFFFF"
     stroke-width="5"
     stroke-opacity="1"
     stroke-linecap="round"
     stroke-linejoin="round"
     d="m 226.603,2812.602 -0.044,-0.146 0.064,-0.118 q -0.077,-0.435 -0.496,-1.321 -0.419,-0.887 -1.214,-1.475 -0.794,-0.588 -1.092,-0.751 -0.298,-0.164 -1.739,-0.22 -1.441,-0.056 -2.895,1.292 -1.454,1.349 -2.031,3.194 -0.577,1.846 -0.094,3.534 0.483,1.688 1.388,2.79 0.904,1.101 1.592,1.521 0.687,0.419 1.204,0.551 0.518,0.131 1.077,0.084 0.56,-0.048 1.971,-0.898 1.411,-0.851 4.805,-3.448 0.103,0.051 1.412,0.644 1.308,0.594 3.981,1.746 l 1.116,0.36" /><path
     id="STROKE_39ef520d-e4b0-4a40-baf6-10616dbd99f8"
     opacity="1"
     fill="none"
     stroke="#FFFFFF"
     stroke-width="5"
     stroke-opacity="1"
     stroke-linecap="round"
     stroke-linejoin="round"
     d="m 224.31,2787.917 1.025,1.164 q 0.386,0.465 4.498,5.895 4.112,5.43 6.691,9.481 2.579,4.05 4.674,7.801 2.094,3.751 3.889,6.035 0.289,0.076 0.674,-0.033 0.384,-0.11 1.173,0.099" /><path
     id="STROKE_27284bc8-9275-4cd3-a644-e4ee2d124b64"
     opacity="1"
     fill="none"
     stroke="#FFFFFF"
     stroke-width="5"
     stroke-opacity="1"
     stroke-linecap="round"
     stroke-linejoin="round"
     d="m 107.565,2889.44 q 0.458,0.414 5.153,5.508 4.695,5.093 9.312,11.584 0.196,0.055 0.817,0.769" /><path
     id="STROKE_6130f1c5-b582-47e7-b73d-eb57892767ed"
     opacity="1"
     fill="none"
     stroke="#FFFFFF"
     stroke-width="5"
     stroke-opacity="1"
     stroke-linecap="round"
     stroke-linejoin="round"
     d="m 123.338,2889.154 q -0.075,1.082 0.085,2.734 0.159,1.652 0.577,3.324 0.418,1.673 0.889,2.716 0.471,1.043 0.699,1.292 0.227,0.25 0.794,0.605 0.568,0.356 2.193,0.707 1.626,0.352 2.243,0.385 0.617,0.034 5.128,0.322" /><path
     id="STROKE_055c882a-ed6a-4100-aa67-7268c7605ee0"
     opacity="1"
     fill="none"
     stroke="#FFFFFF"
     stroke-width="5"
     stroke-opacity="1"
     stroke-linecap="round"
     stroke-linejoin="round"
     d="m 131.17,2882.406 0.605,0.559 q 0.721,1.423 1.271,2.614 0.55,1.191 1.463,2.563 0.912,1.371 3.332,3.462 2.42,2.091 4.406,2.758 0.194,-0.316 1.035,-1.998 0.84,-1.683 1.565,-2.785 0.725,-1.103 1.24,-1.576 0.516,-0.473 1.135,-0.7 0.619,-0.228 1.113,-0.315 0.494,-0.087 1.93,0.236 1.437,0.322 2.491,1.012 1.053,0.689 2.306,1.8 1.253,1.111 3.589,3.273" /><path
     id="STROKE_54777e93-25c2-40da-a3ad-9159bddfdbf2"
     opacity="1"
     fill="none"
     stroke="#FFFFFF"
     stroke-width="5"
     stroke-opacity="1"
     stroke-linecap="round"
     stroke-linejoin="round"
     d="m 170.359,2884.293 q -0.961,0.036 -1.162,0.044 -0.201,0.01 -0.662,-0.034 -0.461,-0.042 -1.014,-0.236 -0.553,-0.195 -1.043,-0.426 -0.49,-0.232 -1.607,-1.362 -1.116,-1.129 -1.371,-1.765 -0.255,-0.636 -0.319,-1.285 -0.064,-0.647 0.152,-1.316 0.217,-0.668 1.203,-0.759 0.986,-0.092 2.242,0.735 1.257,0.827 2.1,1.912 0.843,1.086 0.978,1.684 0.135,0.599 0.068,1.353 -0.067,0.755 -0.984,1.367 -0.917,0.612 -1.892,0.778 -0.976,0.165 -1.851,0.142 -0.875,-0.023 -6.546,-2.624" /><path
     id="STROKE_3387d457-ba07-48b3-a9a0-fe8cf0747681"
     opacity="1"
     fill="none"
     stroke="#FFFFFF"
     stroke-width="5"
     stroke-opacity="1"
     stroke-linecap="round"
     stroke-linejoin="round"
     d="m 170.549,2872.589 q 1.482,0.321 2.965,1.12 1.484,0.799 1.808,1.009 0.324,0.211 1.028,0.614 0.705,0.402 3.454,1.99 2.75,1.587 5.433,2.573 0.631,-0.229 2.694,-5.832 0.131,-0.329 2.052,-0.148 1.922,0.18 3.443,0.22 1.522,0.039 2.48,-0.213 l 0.168,-0.604 q -0.245,-2.148 -0.277,-2.376 -0.032,-0.227 -1.216,-2.684 -1.184,-2.456 -2.609,-4.99" /><path
     id="STROKE_0eea8a11-bf6b-4d1c-b2bc-9136097a4915"
     opacity="1"
     fill="none"
     stroke="#FFFFFF"
     stroke-width="5"
     stroke-opacity="1"
     stroke-linecap="round"
     stroke-linejoin="round"
     d="m 191.099,2847.504 0.226,0.381 q 1.103,1.372 6.352,7.004 5.248,5.631 11.081,13.256 0.287,0.203 0.512,-0.165 0.226,-0.368 0.468,-0.747" /><path
     id="STROKE_290ec591-8b82-4994-a968-485fefc17ed4"
     opacity="1"
     fill="none"
     stroke="#FFFFFF"
     stroke-width="5"
     stroke-opacity="1"
     stroke-linecap="round"
     stroke-linejoin="round"
     d="m 222.318,2864.354 q -0.097,-2.733 -0.116,-3.301 -0.02,-0.568 -0.504,-3.05 -0.485,-2.482 -1.08,-3.43 -0.595,-0.948 -1.311,-1.365 -0.717,-0.417 -1.363,-0.115 -0.647,0.301 -0.846,0.619 -0.199,0.318 -0.414,1.658 -0.216,1.341 0.034,2.38 0.25,1.039 0.733,1.945 0.482,0.906 2.254,2.293 1.771,1.386 3.455,1.825 1.683,0.44 2.729,0.426 1.046,-0.014 2.181,-0.339 1.135,-0.324 2.269,-1.315 1.133,-0.99 2.595,-1.986" /><path
     id="STROKE_0539e857-f858-457d-a8bd-145d392b96b0"
     opacity="1"
     fill="none"
     stroke="#FFFFFF"
     stroke-width="5"
     stroke-opacity="1"
     stroke-linecap="round"
     stroke-linejoin="round"
     d="m 243.659,2855.834 q -0.175,-0.421 -1.467,-0.975 -1.852,-2.944 -2.752,-3.829 -0.9,-0.884 -1.624,-1.417 -0.723,-0.532 -1.869,-0.948 -1.145,-0.415 -2.501,-0.42 -1.356,-0.01 -2.793,0.887 -1.438,0.891 -1.759,1.528 -0.321,0.637 -0.48,1.939 -0.159,1.302 0.449,2.561 0.607,1.259 2.351,2.578 1.744,1.32 3.841,1.655 2.097,0.335 2.889,0.229 0.791,-0.106 1.374,-0.389 0.582,-0.282 1.201,-0.845 0.62,-0.563 0.977,-0.978 0.358,-0.416 0.95,-1.323 0.593,-0.906 1.213,-1.74" /><path
     id="STROKE_f23bf5ac-4c91-454a-adbf-9e7b1f35be9d"
     opacity="1"
     fill="none"
     stroke="#FFFFFF"
     stroke-width="5"
     stroke-opacity="1"
     stroke-linecap="round"
     stroke-linejoin="round"
     d="m 227.094,2831.244 q 1.567,2.655 6.064,8.722 4.497,6.066 7.459,8.918 2.961,2.853 4.785,3.919 0.126,-0.058 0.16,-0.61 0.033,-0.552 0.089,-1.315" /><path
     id="STROKE_0b95bc45-222a-4a69-ae9a-65c6ec6ade4f"
     opacity="1"
     fill="none"
     stroke="#FFFFFF"
     stroke-width="5"
     stroke-opacity="1"
     stroke-linecap="round"
     stroke-linejoin="round"
     d="m 262.298,2841.747 -0.123,-0.378 q -0.815,-0.121 -2.118,-1.46 -1.304,-1.339 -2.311,-1.868 -1.008,-0.53 -1.542,-0.7 -0.534,-0.17 -1.41,-0.234 -0.875,-0.065 -1.683,0.134 -0.809,0.199 -1.52,0.995 -0.712,0.796 -0.888,1.729 -0.175,0.933 0.295,2.147 0.469,1.214 1.877,2.608 1.408,1.395 2.547,1.899 1.139,0.503 2.097,0.529 0.958,0.025 1.549,-0.151 0.59,-0.177 0.973,-0.42 0.382,-0.244 1.018,-0.957 0.636,-0.714 1.27,-1.943 0.635,-1.229 0.573,-3.338 l 0.173,0.354 0.359,0.616 q -0.014,0.07 1.741,2.72 1.755,2.649 4.043,6.451 2.287,3.802 3.414,6.308 1.128,2.506 1.537,3.81 0.409,1.305 0.711,3.15 0.303,1.845 0.176,3.301 -0.126,1.457 -0.475,2.425 -0.348,0.968 -2.193,2.368 -1.844,1.4 -7.099,1.894 -5.254,0.494 -8.702,-0.848 -0.543,-0.15 -1.395,-1.122 -0.852,-0.972 -1.409,-1.464" /><path
     id="STROKE_6dbb4e52-e569-4173-b91d-bd7693a6a0e2"
     opacity="1"
     fill="none"
     stroke="#FFFFFF"
     stroke-width="5"
     stroke-opacity="1"
     stroke-linecap="round"
     stroke-linejoin="round"
     d="m 268.547,2835.018 0.378,-1.605 q 0.907,-2.413 0.95,-2.495 0.043,-0.081 0.526,-2.524 0.482,-2.444 0.392,-3.473 -0.091,-1.029 -0.163,-1.483 -0.072,-0.454 -0.538,-0.874 -0.467,-0.419 -1.392,-0.293 -0.925,0.126 -1.82,1.227 -0.896,1.101 -1.219,2.407 -0.323,1.306 -0.248,2.254 0.075,0.948 0.528,1.951 0.454,1.003 0.57,1.12 0.115,0.117 1.332,1.379 1.216,1.261 2.997,2.249 1.781,0.989 3.269,1.376 1.488,0.388 2.722,0.377 1.234,-0.011 2.608,-0.674 1.374,-0.663 5.973,-5.284" /><path
     id="STROKE_9f53b475-6025-468f-8d6a-53d533954b3c"
     opacity="1"
     fill="none"
     stroke="#FFFFFF"
     stroke-width="5"
     stroke-opacity="1"
     stroke-linecap="round"
     stroke-linejoin="round"
     d="m 70.369,2817.157 0.847,0.899 q 0.368,1.377 1.281,2.825 0.912,1.449 1.938,3.615" /><path
     id="STROKE_45799b4b-b99e-44fb-8149-da3b45dc6f7d"
     opacity="1"
     fill="none"
     stroke="#FFFFFF"
     stroke-width="5"
     stroke-opacity="1"
     stroke-linecap="round"
     stroke-linejoin="round"
     d="m 85.16,2818.549 0.049,0.707 2.516,5.145" /><path
     id="STROKE_a9b3ca1b-fdcc-423b-98ca-7a38fecb1521"
     opacity="1"
     fill="none"
     stroke="#FFFFFF"
     stroke-width="5"
     stroke-opacity="1"
     stroke-linecap="round"
     stroke-linejoin="round"
     d="m 558.717,2916.477 -0.182,-0.11 -0.381,0.011 q -0.178,-0.14 -1.222,-0.628 -1.044,-0.489 -1.864,-0.663 -0.819,-0.175 -2.195,-0.098 -1.375,0.076 -2.469,0.677 -1.094,0.599 -2.183,1.886 -1.09,1.286 -1.611,3.336 -0.521,2.05 -0.332,3.287 0.19,1.238 0.495,1.882 0.305,0.644 0.992,1.278 0.687,0.635 1.431,0.943 0.743,0.308 1.96,0.426 1.217,0.117 1.865,0.034 0.649,-0.084 1.867,-0.576 1.217,-0.492 1.357,-0.562 0.14,-0.07 1.601,-1.434 1.461,-1.364 3.761,-6.935 l 0.428,-2.457" /><path
     id="STROKE_3896e951-2469-4127-a2f5-31bf1bf5e160"
     opacity="1"
     fill="none"
     stroke="#FFFFFF"
     stroke-width="5"
     stroke-opacity="1"
     stroke-linecap="round"
     stroke-linejoin="round"
     d="m 565.191,2911.036 0.358,0.606 q 0.57,2.638 0.633,2.933 0.062,0.295 0.693,4.297 0.632,4.001 1.154,7.426 -0.016,-0.041 -1.442,-1.002" /><path
     id="STROKE_098f8912-8cbb-4c97-9172-2b24e772f8b5"
     opacity="1"
     fill="none"
     stroke="#FFFFFF"
     stroke-width="5"
     stroke-opacity="1"
     stroke-linecap="round"
     stroke-linejoin="round"
     d="m 565.414,2923.458 1.04,-0.312 q 4.296,-1.783 8.076,-2.806 3.78,-1.023 5.066,-1.432" /><path
     id="STROKE_bbcab661-8e35-42d5-bebb-eacb12faac9c"
     opacity="1"
     fill="none"
     stroke="#FFFFFF"
     stroke-width="5"
     stroke-opacity="1"
     stroke-linecap="round"
     stroke-linejoin="round"
     d="m 576.582,2908.973 q -0.371,1.67 -0.041,6.015 0.33,4.344 1.144,11.153 -0.234,0.727 -0.294,2.165" /><path
     id="STROKE_db33a862-46cb-4eab-a241-c1faa2c94a7c"
     opacity="1"
     fill="none"
     stroke="#FFFFFF"
     stroke-width="5"
     stroke-opacity="1"
     stroke-linecap="round"
     stroke-linejoin="round"
     d="m 538.343,2947.13 0.158,0.343 3.273,14.739 q 0.063,0.032 0.116,-0.095 0.053,-0.127 0.135,-0.205" /><path
     id="STROKE_7039f714-4e14-4f3b-8ba4-9ad03ea6229d"
     opacity="1"
     fill="none"
     stroke="#FFFFFF"
     stroke-width="5"
     stroke-opacity="1"
     stroke-linecap="round"
     stroke-linejoin="round"
     d="m 538.788,2947.653 q 1.06,1.104 3.578,3.418 2.517,2.315 4.795,4.439 2.278,2.124 3.498,2.978 1.22,0.854 1.631,0.859 l 0.164,-0.517 q -0.063,-0.633 -0.684,-1.758 -0.621,-1.125 -3.315,-10.063 l -1.655,-2.748" /><path
     id="STROKE_44103a5b-ddf4-4a31-b2b6-08bde4228adf"
     opacity="1"
     fill="none"
     stroke="#FFFFFF"
     stroke-width="5"
     stroke-opacity="1"
     stroke-linecap="round"
     stroke-linejoin="round"
     d="m 566.729,2946.466 -0.148,-0.024 -0.263,-0.022 q -0.348,-0.44 -1.047,-0.894 -0.7,-0.454 -1.263,-0.599 -0.563,-0.144 -0.835,-0.16 -0.273,-0.017 -0.663,0.014 -0.391,0.031 -1.034,0.223 -0.644,0.192 -1.239,0.632 -0.595,0.441 -1.031,0.854 -0.437,0.414 -1.037,1.435 -0.601,1.021 -0.806,2.017 -0.204,0.997 -0.194,1.761 0.01,0.764 0.139,1.247 0.128,0.482 0.731,1.442 0.603,0.96 1.156,1.333 0.553,0.373 1.331,0.494 0.778,0.122 1.52,-0.157 0.742,-0.278 1.496,-0.914 0.754,-0.636 1.541,-2.193 0.787,-1.558 0.906,-2.489 0.119,-0.932 0.456,-2.375" /><path
     id="STROKE_8686a5b6-1643-466a-a9f0-94339ef92617"
     opacity="1"
     fill="none"
     stroke="#FFFFFF"
     stroke-width="5"
     stroke-opacity="1"
     stroke-linecap="round"
     stroke-linejoin="round"
     d="m 573.345,2939.414 q 0.41,0.984 0.653,1.689 0.242,0.705 1.065,2.481 0.822,1.777 1.741,3.843" /><path
     id="STROKE_ab4e5c6f-732e-487f-b060-e9c42faaabb5"
     opacity="1"
     fill="none"
     stroke="#FFFFFF"
     stroke-width="5"
     stroke-opacity="1"
     stroke-linecap="round"
     stroke-linejoin="round"
     d="m 578.504,2958.083 -0.162,-1.174" /><path
     id="STROKE_0a5c52c8-2a40-4585-9da9-c7e5f017eb4d"
     opacity="1"
     fill="none"
     stroke="#FFFFFF"
     stroke-width="5"
     stroke-opacity="1"
     stroke-linecap="round"
     stroke-linejoin="round"
     d="m 488.126,2863.92 1.049,0.975 0.372,0.074 0.233,0.211 q 0.136,0.379 1.361,1.594" /></g></svg>
