<?xml version="1.0" encoding="UTF-8" standalone="no"?>
<!-- Generator: Adobe Illustrator 26.1.0, SVG Export Plug-In . SVG Version: 6.00 Build 0)  -->

<svg
   version="1.1"
   id="Layer_1"
   x="0px"
   y="0px"
   viewBox="0 0 960 480"
   style="enable-background:new 0 0 960 480;"
   xml:space="preserve"
   sodipodi:docname="inbox.svg"
   inkscape:version="1.2.1 (9c6d41e410, 2022-07-14, custom)"
   xmlns:inkscape="http://www.inkscape.org/namespaces/inkscape"
   xmlns:sodipodi="http://sodipodi.sourceforge.net/DTD/sodipodi-0.dtd"
   xmlns="http://www.w3.org/2000/svg"
   xmlns:svg="http://www.w3.org/2000/svg"><defs
   id="defs4629" /><sodipodi:namedview
   id="namedview4627"
   pagecolor="#505050"
   bordercolor="#eeeeee"
   borderopacity="1"
   inkscape:showpageshadow="0"
   inkscape:pageopacity="0"
   inkscape:pagecheckerboard="0"
   inkscape:deskcolor="#505050"
   showgrid="false"
   inkscape:zoom="0.70677083"
   inkscape:cx="580.10317"
   inkscape:cy="210.81798"
   inkscape:window-width="938"
   inkscape:window-height="1023"
   inkscape:window-x="0"
   inkscape:window-y="0"
   inkscape:window-maximized="1"
   inkscape:current-layer="Layer_1" />
<g
   id="New_Layer_6"
   opacity="1"
   transform="matrix(1.3333333,0,0,1.3333333,233.82693,-1965.2891)"><path
     id="STROKE_4adfaa74-d246-45aa-a6e1-417c1dcd2d86"
     opacity="1"
     fill="none"
     stroke="#FFFFFF"
     stroke-width="5"
     stroke-opacity="1"
     stroke-linecap="round"
     stroke-linejoin="round"
     d="m 77.405,1654.564 q 0.004,0.044 0.299,6.776 0.295,6.732 0.309,10.713 0.013,3.982 -0.015,5.78 -0.028,1.799 -0.33,6.224 -0.302,4.425 -0.574,12.077 -0.272,7.652 -0.252,11.764 0.02,4.113 0.039,6.411 0.02,2.298 0.107,9.877 0.088,7.578 0.369,10.939 0.281,3.36 1.136,6.526 0.856,3.165 1.255,3.884 0.399,0.718 0.731,1.215 0.332,0.497 2.156,2.278 1.825,1.781 3.389,2.814 1.565,1.033 3.635,1.965 2.07,0.932 4.514,1.393 2.444,0.462 5.286,0.593 2.841,0.131 6.059,0.426 3.217,0.294 4.868,0.436 1.651,0.142 2.554,0.19 0.903,0.049 4.199,-0.101 3.296,-0.15 6.131,-0.393 2.836,-0.244 4.857,-0.403 2.02,-0.16 3.123,-0.242 1.102,-0.082 4.135,-0.417 3.032,-0.336 6.964,-1.077 3.931,-0.742 7.845,-1.381 3.913,-0.638 10.557,-0.931 6.643,-0.292 10.207,-0.302 3.563,-0.01 8.38,0.145 4.817,0.155 6.846,0.179 2.029,0.024 4.49,0.041 2.46,0.016 6.598,-0.011 4.138,-0.026 6.392,-0.047 2.255,-0.021 3.328,0.01 1.073,0.028 2.06,0.072 0.988,0.044 9.988,0.091 9,0.047 14.007,-0.061 5.007,-0.108 8.195,-0.366 3.188,-0.257 6.735,-0.713 3.547,-0.456 5.411,-1.019 1.863,-0.563 2.702,-1.039 0.838,-0.475 1.137,-0.656 0.298,-0.181 0.892,-0.969 0.595,-0.788 0.928,-1.518 0.333,-0.73 0.567,-1.401 0.234,-0.672 0.871,-3.062 0.636,-2.39 1.637,-6.387 1,-3.997 1.678,-7.366 0.678,-3.369 1.216,-7.419 0.538,-4.049 0.886,-7.47 0.348,-3.421 0.442,-6.322 0.094,-2.901 -0.091,-5.59 -0.184,-2.688 -0.606,-6.144 -0.422,-3.457 -0.912,-7.246 -0.491,-3.788 -0.671,-6.53 -0.18,-2.742 -0.228,-6.4 -0.048,-3.658 0.012,-6.951 0.06,-3.294 0.093,-4.592 0.034,-1.298 -0.063,-6.557 0.042,-0.417 -1.395,-7.248 l -0.446,-1.13" /><path
     id="STROKE_2641f93b-7147-46c3-926c-819a0acdc2d9"
     opacity="1"
     fill="none"
     stroke="#FFFFFF"
     stroke-width="5"
     stroke-opacity="1"
     stroke-linecap="round"
     stroke-linejoin="round"
     d="m 77.713,1653.246 0.383,-0.381 0.567,-0.749 q 0.334,-0.589 4.319,-5.25 3.985,-4.66 6.876,-7.875 2.89,-3.215 5.589,-5.989 2.699,-2.774 5.206,-5.252 2.507,-2.477 5.15,-5.086 2.644,-2.609 5.828,-5.721 3.184,-3.113 6.113,-6.078 2.928,-2.966 4.349,-4.523 1.421,-1.556 3.475,-3.837 2.053,-2.28 2.62,-2.895 0.567,-0.615 3.143,-3.405 2.576,-2.79 5.644,-5.81 3.069,-3.02 4.454,-4.195 1.384,-1.175 2.029,-1.649 0.644,-0.475 0.742,-0.526 0.097,-0.051 2.996,-1.894 2.898,-1.843 4.663,-2.685 1.764,-0.842 3.939,-1.555 2.175,-0.712 3.009,-0.91 0.834,-0.198 1.647,-0.352 0.814,-0.154 3.668,-0.342 2.854,-0.189 5.178,0.11 2.323,0.3 5.009,1.146 2.687,0.846 4.076,1.491 1.389,0.645 2.035,1.016 0.646,0.37 1.706,1.075 1.06,0.706 1.085,0.731 0.026,0.025 1.878,1.248 1.853,1.224 3.118,2.176 1.265,0.952 1.938,1.488 0.673,0.536 1.219,0.956 0.545,0.419 0.75,0.583 0.206,0.163 2.389,1.635 2.183,1.471 3.842,2.655 1.66,1.184 3.468,2.695 1.809,1.511 2.574,2.237 0.766,0.725 1.631,1.473 0.866,0.748 1.236,1.065 0.371,0.318 1.613,1.452 1.242,1.133 2.464,2.284 1.223,1.152 1.918,1.799 0.694,0.648 3.003,2.881 2.308,2.234 2.96,2.83 0.651,0.597 0.808,0.76 0.156,0.164 1.525,1.374 1.37,1.21 2.463,2.091 1.093,0.88 2.027,1.617 0.933,0.737 4.1,3.261 3.167,2.523 3.497,2.779 0.33,0.255 1.994,1.65 1.663,1.395 2.612,2.156 0.95,0.761 2.495,2.102 1.546,1.341 2.129,1.89 0.582,0.549 1.352,1.207 0.77,0.658 0.954,0.774 0.183,0.117 2.21,1.866 2.026,1.749 3.271,2.845 1.246,1.097 2.46,2.078 1.214,0.981 1.711,1.409 0.497,0.429 1.296,1.145 0.799,0.716 1.2,1.035 0.401,0.318 0.693,0.524 0.292,0.205 0.815,0.697 0.524,0.492 2.291,1.969" /><path
     id="STROKE_e8682de8-5774-45ba-8306-7e336cf27307"
     opacity="1"
     fill="none"
     stroke="#FFFFFF"
     stroke-width="5"
     stroke-opacity="1"
     stroke-linecap="round"
     stroke-linejoin="round"
     d="m 78.863,1740.668 0.383,-0.381 0.567,-0.749 q 0.334,-0.589 4.319,-5.25 3.986,-4.66 6.876,-7.875 2.89,-3.215 5.589,-5.989 2.699,-2.774 5.206,-5.252 2.507,-2.477 5.15,-5.086 2.644,-2.609 5.828,-5.721 3.185,-3.113 6.113,-6.078 2.928,-2.966 4.349,-4.523 1.421,-1.556 3.475,-3.837 2.054,-2.28 2.62,-2.895 0.567,-0.615 3.143,-3.405 2.576,-2.79 5.645,-5.81 3.068,-3.02 4.453,-4.195 1.385,-1.175 2.029,-1.65 0.645,-0.474 0.742,-0.525 0.098,-0.051 2.996,-1.894 2.899,-1.843 4.663,-2.685 1.764,-0.842 3.939,-1.555 2.175,-0.712 3.009,-0.91 0.835,-0.198 1.648,-0.352 0.813,-0.154 3.667,-0.343 2.855,-0.188 5.178,0.111 2.323,0.3 5.01,1.146 2.686,0.846 4.075,1.491 1.389,0.645 2.035,1.015 0.647,0.371 1.706,1.077 1.06,0.705 1.086,0.73 0.025,0.024 1.877,1.248 1.853,1.224 3.118,2.176 1.265,0.952 1.938,1.488 0.674,0.536 1.219,0.956 0.545,0.419 0.751,0.583 0.205,0.163 2.388,1.635 2.183,1.47 3.843,2.655 1.659,1.184 3.468,2.695 1.808,1.511 2.573,2.237 0.766,0.725 1.631,1.473 0.866,0.748 1.237,1.065 0.37,0.318 1.612,1.452 1.242,1.133 2.465,2.284 1.222,1.151 1.917,1.799 0.695,0.648 3.003,2.881 2.309,2.233 2.96,2.83 0.651,0.597 0.808,0.76 0.156,0.164 1.526,1.374 1.369,1.21 2.462,2.091 1.094,0.88 2.027,1.617 0.934,0.737 4.1,3.261 3.167,2.523 3.497,2.779 0.331,0.255 1.994,1.65 1.663,1.395 2.612,2.156 0.95,0.761 2.496,2.102 1.545,1.341 2.128,1.89 0.583,0.549 1.353,1.207 0.77,0.658 0.953,0.774 0.184,0.117 2.21,1.866 2.026,1.749 3.272,2.845 1.245,1.097 2.459,2.078 1.214,0.981 1.711,1.409 0.497,0.429 1.296,1.145 0.799,0.716 1.2,1.034 0.402,0.319 0.693,0.525 0.292,0.205 0.815,0.697 0.524,0.492 2.291,1.969" /><path
     id="STROKE_35d46780-3e01-478a-80e1-818152693143"
     opacity="1"
     fill="none"
     stroke="#FFFFFF"
     stroke-width="5"
     stroke-opacity="1"
     stroke-linecap="round"
     stroke-linejoin="round"
     d="m 78.74,1653.464 q 0.264,0.287 0.887,0.774 0.624,0.487 1.833,1.331 1.209,0.844 2.261,1.445 1.052,0.602 1.724,0.934 0.671,0.332 2.255,1.101 1.585,0.769 3.453,1.637 1.869,0.868 2.556,1.186 0.686,0.317 0.716,0.319 0.03,0 2.276,1.084 2.246,1.082 4.356,2.214 2.11,1.132 3.512,1.903 1.402,0.772 2.174,1.188 0.771,0.417 4.629,2.63 3.858,2.213 6.008,3.514 2.151,1.301 3.083,1.819 0.932,0.517 2.071,1.151 1.14,0.635 4.188,2.414 l 1.072,0.515" /><path
     id="STROKE_40ba6522-7026-4ce2-99d0-8489c8772689"
     opacity="1"
     fill="none"
     stroke="#FFFFFF"
     stroke-width="5"
     stroke-opacity="1"
     stroke-linecap="round"
     stroke-linejoin="round"
     d="m 260.731,1647.931 q -1.868,1.266 -3.55,2.466 -1.681,1.2 -4.376,3.283 -2.695,2.083 -4.509,3.542 -1.815,1.459 -3.269,2.643 -1.454,1.184 -3.736,2.933 -2.282,1.749 -4.362,3.157 -2.079,1.408 -3.736,2.513 -1.657,1.105 -2.441,1.653 -0.784,0.547 -2.168,1.489 -1.383,0.942 -2.827,1.935 -1.445,0.993 -2.61,1.761 -1.165,0.768 -2.92,1.875 -1.756,1.106 -2.031,1.254 -0.275,0.148 -1.17,0.713 -0.894,0.564 -1.744,1.159 -0.849,0.595 -2.213,1.527 -1.365,0.931 -2.984,1.985 l -1.551,0.873" /><path
     id="STROKE_927346e0-de20-4daa-bd43-ab3521a36698"
     opacity="1"
     fill="none"
     stroke="#FFFFFF"
     stroke-width="5"
     stroke-opacity="1"
     stroke-linecap="round"
     stroke-linejoin="round"
     d="m 250.113,1569.703 q -0.273,-0.042 -1.793,-0.032 -1.519,0.01 -2.834,0.11 -1.315,0.1 -3.167,0.52 -1.853,0.42 -2.668,0.811 -0.814,0.391 -1.049,0.54 -0.235,0.148 -0.884,0.552 -0.649,0.404 -2.49,2.026 -1.842,1.623 -2.631,2.644 -0.789,1.022 -1.329,1.954 -0.54,0.932 -1.098,2.305 -0.559,1.373 -0.898,2.704 -0.339,1.332 -0.421,1.902 -0.082,0.569 -0.127,0.886 -0.046,0.318 0.009,2.427 0.055,2.109 0.592,4.471 0.538,2.363 1.169,3.89 0.631,1.527 1.396,2.886 0.766,1.359 1.597,2.462 0.831,1.103 1.642,1.925 0.81,0.821 0.945,0.939 0.136,0.118 2.016,1.323 1.88,1.205 3.464,1.842 1.583,0.637 2.395,0.853 0.811,0.216 1.846,0.39 1.036,0.174 3.209,0.324 2.173,0.15 3.401,0.064 1.228,-0.086 2.261,-0.318 1.033,-0.232 2.489,-0.786 1.456,-0.554 2.028,-0.806 0.571,-0.251 1.142,-0.49 0.572,-0.239 1.03,-0.465 0.459,-0.226 1.512,-0.842 1.054,-0.615 2.073,-1.353 1.019,-0.737 1.91,-1.507 0.89,-0.77 1.949,-1.884 1.059,-1.114 1.269,-1.363 0.211,-0.249 1.052,-1.466 0.842,-1.218 1.405,-2.499 0.563,-1.282 1.072,-2.957 0.509,-1.675 0.609,-2.75 0.099,-1.075 0.089,-2.191 -0.01,-1.116 -0.081,-1.841 -0.071,-0.725 -0.229,-1.881 -0.158,-1.156 -0.25,-1.659 -0.091,-0.502 -1.087,-3.334 -0.995,-2.832 -1.283,-3.284 -0.288,-0.452 -0.968,-1.303 -0.68,-0.85 -1.11,-1.322 -0.431,-0.471 -2.215,-1.793 -1.785,-1.321 -2.632,-1.739 -0.847,-0.417 -1.796,-0.808 -0.95,-0.39 -2.375,-0.719 -1.426,-0.328 -2.686,-0.492 -1.261,-0.164 -2.622,-0.26 -1.362,-0.096 -4.848,-0.128" /><path
     id="STROKE_61d36fa7-8c91-44b2-8749-72f07ddddfaf"
     opacity="1"
     fill="none"
     stroke="#FFFFFF"
     stroke-width="5"
     stroke-opacity="1"
     stroke-linecap="round"
     stroke-linejoin="round"
     d="m 226.348,1567.166 -0.284,-0.067 q -0.793,-0.091 -6.003,-2.266" /><path
     id="STROKE_9abc2787-d1b5-449d-a351-95b81a23fab6"
     opacity="1"
     fill="none"
     stroke="#FFFFFF"
     stroke-width="5"
     stroke-opacity="1"
     stroke-linecap="round"
     stroke-linejoin="round"
     d="m 244.678,1560.315 -0.192,-1.567 -0.101,-0.603 q -0.196,-1.546 -0.388,-3.488 -0.191,-1.942 -0.381,-3.584" /><path
     id="STROKE_b26ab7c5-0697-445c-bb07-0b3f4dcbdc6b"
     opacity="1"
     fill="none"
     stroke="#FFFFFF"
     stroke-width="5"
     stroke-opacity="1"
     stroke-linecap="round"
     stroke-linejoin="round"
     d="m 267.382,1560.871 q 0.716,-0.611 2.233,-2.21 1.516,-1.599 4.878,-5.002" /><path
     id="STROKE_3efa02fd-b4ca-4585-88fa-ce6dab1610dc"
     opacity="1"
     fill="none"
     stroke="#FFFFFF"
     stroke-width="5"
     stroke-opacity="1"
     stroke-linecap="round"
     stroke-linejoin="round"
     d="m 284.748,1578.135 q 2.731,-0.537 4.438,-1.025 1.706,-0.487 2.674,-0.703" /><path
     id="STROKE_0a8ff99d-96af-4f60-bd30-e5b737c9ed34"
     opacity="1"
     fill="none"
     stroke="#FFFFFF"
     stroke-width="5"
     stroke-opacity="1"
     stroke-linecap="round"
     stroke-linejoin="round"
     d="m 284.958,1601.283 q 0.465,0.184 0.681,0.421 0.216,0.238 0.444,0.419 0.228,0.18 0.552,0.369 0.325,0.188 1.276,0.614 0.951,0.426 2.09,0.874 1.14,0.449 2.418,1.011" /><path
     id="STROKE_4a8f6cc7-e29d-40ea-b9a6-896b743bd17a"
     opacity="1"
     fill="none"
     stroke="#FFFFFF"
     stroke-width="5"
     stroke-opacity="1"
     stroke-linecap="round"
     stroke-linejoin="round"
     d="m 268.444,1616.917 q 0.235,0.383 0.577,1.669 0.343,1.287 1.046,2.801 0.703,1.515 1.325,2.946" /><path
     id="STROKE_b797b7df-3b4b-4505-8204-3379a7070583"
     opacity="1"
     fill="none"
     stroke="#FFFFFF"
     stroke-width="5"
     stroke-opacity="1"
     stroke-linecap="round"
     stroke-linejoin="round"
     d="m 257.857,1587.242 q -0.061,-0.361 -0.456,-1.774 -0.396,-1.414 -0.874,-2.309 -0.478,-0.895 -0.751,-1.189 -0.272,-0.293 -1.067,-0.73 -0.795,-0.437 -1.555,-0.598 -0.76,-0.161 -1.569,0 -0.809,0.159 -1.117,0.306 -0.308,0.147 -0.81,0.418 -0.502,0.27 -1.342,1.077 -0.839,0.807 -1.219,1.466 -0.38,0.658 -0.644,1.755 -0.264,1.097 -0.28,1.264 -0.015,0.166 0.042,0.955 0.057,0.789 0.109,0.987 0.052,0.197 0.559,1.102 0.506,0.906 0.823,1.203 0.317,0.297 0.705,0.487 0.389,0.19 0.922,0.322 0.533,0.132 1.02,0.167 0.486,0.034 1.464,-0.112 0.274,-0.091 0.722,-0.226 0.448,-0.136 1.12,-0.468 0.673,-0.332 1.002,-0.555 0.329,-0.224 1.033,-0.803 l 0.279,-0.202 0.534,-0.346 0.242,-0.051 0.273,0.685 0.109,1.047 q -1.135,5.601 -1.271,5.828 -0.137,0.228 -0.274,0.484 -0.137,0.257 -0.575,0.795 -0.438,0.538 -1.537,1.312 -1.1,0.774 -1.815,1.041 -0.716,0.266 -1.669,0.319 -0.954,0.053 -1.782,-0.044 -0.828,-0.098 -1.791,-0.353 -0.962,-0.256 -1.538,-0.546 -0.709,-0.522 -2.013,-1.234" /></g></svg>
