<?xml version="1.0" encoding="UTF-8" standalone="no"?>
<!-- Generator: Adobe Illustrator 26.1.0, SVG Export Plug-In . SVG Version: 6.00 Build 0)  -->

<svg
   version="1.1"
   id="Layer_1"
   x="0px"
   y="0px"
   viewBox="0 0 960 480"
   style="enable-background:new 0 0 960 480;"
   xml:space="preserve"
   sodipodi:docname="journey.svg"
   inkscape:version="1.2.1 (9c6d41e410, 2022-07-14, custom)"
   xmlns:inkscape="http://www.inkscape.org/namespaces/inkscape"
   xmlns:sodipodi="http://sodipodi.sourceforge.net/DTD/sodipodi-0.dtd"
   xmlns="http://www.w3.org/2000/svg"
   xmlns:svg="http://www.w3.org/2000/svg"><defs
   id="defs3302" /><sodipodi:namedview
   id="namedview3300"
   pagecolor="#505050"
   bordercolor="#eeeeee"
   borderopacity="1"
   inkscape:showpageshadow="0"
   inkscape:pageopacity="0"
   inkscape:pagecheckerboard="0"
   inkscape:deskcolor="#505050"
   showgrid="false"
   inkscape:zoom="0.70677083"
   inkscape:cx="524.92263"
   inkscape:cy="236.28593"
   inkscape:window-width="938"
   inkscape:window-height="1023"
   inkscape:window-x="0"
   inkscape:window-y="0"
   inkscape:window-maximized="1"
   inkscape:current-layer="Layer_1" />
<g
   id="New_Layer_3"
   opacity="1"
   transform="matrix(1.5397953,0,0,1.5397953,990.36043,-1640.0419)"><path
     id="STROKE_c805222d-04b4-4d1f-8b30-9fe83fc3d251"
     opacity="1"
     fill="none"
     stroke="#FFFFFF"
     stroke-width="5"
     stroke-opacity="1"
     stroke-linecap="round"
     stroke-linejoin="round"
     d="m -454.361,1111.112 q -0.169,0.348 -0.751,1.721 -0.582,1.373 -1.072,2.965 -0.49,1.593 -0.659,3.438 -0.168,1.845 -0.174,2.592 -0.006,0.747 0.516,2.85 0.523,2.102 1.852,6.369 1.329,4.267 2.184,7.21 0.854,2.943 1.298,6.027 0.443,3.084 0.473,4.774 0.029,1.69 -0.119,4.336 -0.149,2.646 -0.682,5.439 -0.533,2.793 -1.227,5.609 -0.694,2.816 -0.953,4.733 -0.258,1.917 -0.226,3.434 0.032,1.516 0.234,2.554 0.202,1.038 0.405,1.79 0.202,0.753 0.82,2.794 0.618,2.04 1.708,5.262 1.091,3.222 2.697,8.937 1.605,5.715 2.225,9.225 0.62,3.511 0.738,6.277 0.118,2.766 -0.027,4.322 -0.145,1.557 -0.275,2.321 -0.13,0.765 -0.813,4.954 -0.682,4.189 -1.549,9.437 -0.866,5.248 -1.127,7.377 -0.261,2.129 -0.451,6.438 -0.19,4.308 -0.053,7.72 0.137,3.412 0.338,5.181 0.201,1.77 0.402,3.393 0.2,1.623 0.309,2.695 0.109,1.073 0.222,2.753 0.112,1.681 0.143,3.765 0.031,2.083 -0.011,2.962 -0.041,0.878 -0.051,2.008 -0.01,1.13 -0.303,4.845 -0.292,3.714 -1.53,10.819 -1.239,7.106 -1.809,11.081 -0.571,3.974 -0.687,5.419 -0.116,1.444 -0.191,5.052 -0.076,3.608 -0.021,6.129 0.054,2.522 0.404,5.336 0.349,2.814 0.826,5.693 0.476,2.878 0.75,4.283 0.275,1.405 0.441,2.101 0.167,0.696 0.648,1.914 0.482,1.217 1.041,2.041 0.558,0.823 0.95,1.199 0.391,0.375 0.665,0.485 0.273,0.109 0.59,0.159 0.316,0.05 1.258,-0.154 0.941,-0.205 2.806,-1.052 1.866,-0.848 3.793,-1.727 1.927,-0.879 4.808,-1.749 2.88,-0.87 5.159,-1.071 2.278,-0.201 4.077,-0.072 1.799,0.129 4.223,0.78 2.425,0.65 4.03,1.112 1.606,0.462 4.301,0.995 2.694,0.534 2.84,0.548 0.147,0.014 3.538,0.343 3.391,0.329 5.878,0.163 2.487,-0.166 4.132,-0.543 1.646,-0.377 2.989,-0.784 1.342,-0.406 5.193,-1.905 3.851,-1.5 6.859,-2.581 3.008,-1.081 5.588,-1.61 2.58,-0.529 6.126,-0.469 3.546,0.06 7.549,0.753 4.002,0.694 10.061,1.839 6.06,1.145 9.061,1.616 3.002,0.47 6.132,0.856 3.131,0.385 3.999,0.466 0.869,0.081 3.716,0.09 2.847,0.01 5.164,-0.342 2.317,-0.349 4.295,-0.86 1.978,-0.511 3.786,-1.047 1.807,-0.536 3.042,-0.851 1.235,-0.315 1.384,-0.375 0.149,-0.059 3.255,-0.535 3.105,-0.476 8.112,-0.199 5.006,0.277 8.984,0.873 3.978,0.596 5.756,1.011 1.778,0.414 5.349,1.451 3.572,1.038 10.982,2.323 7.411,1.286 10.052,1.638 2.642,0.352 5.037,0.395 2.396,0.044 5.043,-0.343 2.647,-0.387 4.655,-0.854 2.007,-0.466 3.805,-1.059 1.798,-0.593 3.728,-1.046 1.929,-0.453 3.264,-0.633 1.335,-0.18 2.204,-0.303 0.869,-0.123 1.836,-0.259 0.966,-0.136 2.42,-0.285 1.453,-0.149 6.09,-0.569 4.636,-0.42 5.879,-0.667 1.242,-0.247 2.535,-0.615 1.294,-0.367 2.664,-0.93 1.371,-0.563 2.444,-1.328 0.315,-0.408 0.451,-2.948 0.136,-2.539 -0.32,-4.011 -0.456,-1.472 -0.911,-2.38 -0.456,-0.909 -0.983,-1.734 -0.527,-0.825 -1,-1.637 -0.473,-0.813 -1.827,-3.427 -1.354,-2.614 -1.856,-4.041 -0.503,-1.427 -0.667,-2.246 -0.163,-0.819 -0.169,-1.329 -0.007,-0.511 -0.046,-1.345 -0.039,-0.834 0.892,-3.793 0.93,-2.959 1.794,-4.616 0.864,-1.656 1.464,-3 0.601,-1.344 1.047,-2.953 0.447,-1.609 0.613,-3.09 0.166,-1.482 0.156,-2.61 -0.011,-1.128 -0.772,-4.6 -0.76,-3.473 -1.708,-5.645 -0.948,-2.172 -1.71,-3.485 -0.762,-1.314 -0.997,-1.676 -0.235,-0.363 -0.987,-1.448 -0.753,-1.085 -1.4,-1.99 -0.647,-0.906 -1.126,-1.575 -0.48,-0.67 -1.503,-2.545 -1.024,-1.875 -1.558,-3.389 -0.534,-1.513 -0.652,-2.731 -0.117,-1.218 -0.075,-1.85 0.043,-0.633 0.381,-1.993 0.338,-1.36 2.537,-6.833 2.199,-5.473 2.624,-7.233 0.424,-1.759 0.499,-3.437 0.075,-1.678 -0.094,-5.556 -0.169,-3.877 -0.69,-6.563 -0.52,-2.686 -1.388,-5.983 -0.868,-3.298 -1.627,-6.478 -0.76,-3.179 -1.492,-6.552 -0.731,-3.373 -1.132,-6.467 -0.401,-3.094 0.559,-8.073 0.959,-4.98 1.745,-7.238 0.785,-2.258 1.463,-4.046 0.678,-1.789 1.709,-5.182 1.031,-3.393 1.725,-8.213 0.693,-4.82 0.726,-8.778 0.033,-3.957 -0.072,-6.283 -0.106,-2.325 -0.523,-7.054 -0.416,-4.729 -0.55,-7.207 -0.133,-2.477 -0.002,-4.735 0.131,-2.259 0.266,-3.57 0.136,-1.312 0.371,-2.111 0.234,-0.8 0.363,-1.175 0.129,-0.376 0.323,-0.897 0.195,-0.521 0.655,-1.862 0.114,-1.09 -0.257,-4.449 -0.372,-3.359 -1.072,-4.952 -0.701,-1.593 -1.428,-2.553 -0.728,-0.959 -1.866,-1.792 -1.137,-0.833 -2.94,-1.397 -1.802,-0.564 -2.837,-0.633 -1.036,-0.07 -1.848,-0.018 -0.813,0.053 -1.445,0.246 -0.631,0.194 -1.202,0.44 -0.571,0.246 -1.901,0.935 -1.329,0.689 -1.674,0.834 -0.344,0.146 -0.592,0.219 -0.248,0.072 -0.854,0.132 -0.606,0.059 -1.639,0.029 -1.033,-0.029 -3.147,-0.522 -2.115,-0.494 -3.409,-0.975 -1.295,-0.481 -3.883,-1.533 -2.587,-1.051 -4.6,-1.596 -2.013,-0.544 -3.285,-0.671 -1.271,-0.128 -2.274,-0.096 -1.003,0.032 -1.698,0.13 -0.696,0.098 -1.674,0.369 -0.979,0.271 -2.323,0.814 -1.344,0.543 -3.322,1.389 -1.979,0.845 -2.958,1.197 -0.979,0.353 -2.951,0.87 -1.972,0.517 -5.717,0.91 -3.745,0.392 -6.533,0.256 -2.789,-0.136 -4.703,-0.45 -1.914,-0.313 -7.875,-2.588 -5.961,-2.275 -8.796,-3.505 -2.836,-1.229 -5.455,-1.945 -2.619,-0.716 -6.648,-0.675 -4.029,0.042 -5.397,0.473 -1.369,0.432 -2.165,0.813 -0.796,0.381 -1.987,1.07 -1.19,0.689 -2.459,1.482 -1.269,0.793 -3.834,1.829 -2.565,1.036 -4.177,1.487 -1.612,0.45 -3.189,0.497 -1.576,0.048 -2.48,-0.046 -0.904,-0.094 -3.854,-0.781 -2.951,-0.686 -5.889,-1.522 -2.939,-0.836 -6.302,-1.549 -3.362,-0.713 -7.916,-0.96 -4.554,-0.246 -7.514,0.046 -2.961,0.291 -4.614,0.664 -1.654,0.373 -3.493,1.073 -1.839,0.699 -3.503,1.409 -1.664,0.71 -4.312,1.719 -2.648,1.01 -5.088,1.167 -2.44,0.157 -3.538,0.074 -1.098,-0.083 -4.045,-0.677 -2.947,-0.595 -5.328,-1.36 -2.382,-0.765 -5.51,-1.658 -3.129,-0.893 -4.837,-1.227 -1.708,-0.335 -2.712,-0.537 -1.004,-0.203 -2.678,-0.57 -1.674,-0.367 -2.768,-0.497 -1.093,-0.13 -1.664,-0.176 -0.571,-0.045 -0.696,-0.044 -0.125,0 -1.791,-0.12 -1.665,-0.121 -3.134,-0.208 -1.468,-0.086 -4.116,0.01 -2.648,0.091 -3.515,0.201 -0.868,0.111 -3.025,0.495 -2.157,0.385 -3.954,0.987 -1.796,0.602 -2.412,0.887 -0.616,0.284 -1.967,1.387 -1.352,1.103 -2.198,2.029 -0.846,0.927 -2.259,2.144" /><path
     id="STROKE_e7b411aa-caa9-4934-ad79-24d8aaa5542b"
     opacity="1"
     fill="none"
     stroke="#FFFFFF"
     stroke-width="5"
     stroke-opacity="1"
     stroke-linecap="round"
     stroke-linejoin="round"
     d="m -402.309,1297.457 0.045,-0.552 q -0.112,-1.599 -0.984,-7.646 -0.872,-6.046 -1.258,-10.159 -0.387,-4.113 -0.645,-6.866" /><path
     id="STROKE_389f9632-6048-4be1-a851-f69b18a5b26c"
     opacity="1"
     fill="none"
     stroke="#FFFFFF"
     stroke-width="5"
     stroke-opacity="1"
     stroke-linecap="round"
     stroke-linejoin="round"
     d="m -402.965,1253.642 q 0.397,-5.091 0.658,-7.304 0.26,-2.213 0.476,-3.504 0.217,-1.29 1.27,-6.085 1.053,-4.796 1.367,-6.09" /><path
     id="STROKE_853e0c13-0e88-4d78-811f-da6f31074d91"
     opacity="1"
     fill="none"
     stroke="#FFFFFF"
     stroke-width="5"
     stroke-opacity="1"
     stroke-linecap="round"
     stroke-linejoin="round"
     d="m -392.179,1212.664 q 0.1,-0.195 0.545,-0.866 0.445,-0.672 1.559,-2.239 1.114,-1.567 1.945,-2.646 0.83,-1.079 1.806,-2.257 0.976,-1.177 5.462,-6.366 0.112,-0.118 1.072,-1.52" /><path
     id="STROKE_c4c6ea4b-3b2e-421a-9291-48ca800d3568"
     opacity="1"
     fill="none"
     stroke="#FFFFFF"
     stroke-width="5"
     stroke-opacity="1"
     stroke-linecap="round"
     stroke-linejoin="round"
     d="m -365.106,1188.956 0.489,-0.033 1.664,0.246 q 4.866,0.628 6.387,0.932 1.52,0.303 1.893,0.44 0.373,0.136 1.426,0.514 1.052,0.378 1.537,0.518 0.486,0.141 4.75,2.817" /><path
     id="STROKE_1ebcf8a1-1122-44bf-a2e5-a65d08582304"
     opacity="1"
     fill="none"
     stroke="#FFFFFF"
     stroke-width="5"
     stroke-opacity="1"
     stroke-linecap="round"
     stroke-linejoin="round"
     d="m -337.613,1205.245 q 1,0.985 1.36,1.373 0.36,0.388 0.64,0.736 0.281,0.349 0.588,0.835 0.307,0.487 1.02,1.723 0.713,1.237 4.991,10.299" /><path
     id="STROKE_4654ba86-9b3f-4290-8356-a360ba221b55"
     opacity="1"
     fill="none"
     stroke="#FFFFFF"
     stroke-width="5"
     stroke-opacity="1"
     stroke-linecap="round"
     stroke-linejoin="round"
     d="m -322.71,1234.896 q 0.045,0.015 -0.058,0.098 0.01,0.095 -0.076,0.266 0.01,0.242 0.692,1.882 0.682,1.64 1.868,3.84 1.186,2.199 2.274,3.824 1.087,1.624 1.768,2.586 0.682,0.963 2.204,3.463" /><path
     id="STROKE_72273d13-c71b-4d80-bb73-f5f4377ca3ee"
     opacity="1"
     fill="none"
     stroke="#FFFFFF"
     stroke-width="5"
     stroke-opacity="1"
     stroke-linecap="round"
     stroke-linejoin="round"
     d="m -305.311,1257.612 q 1.987,0.762 5.684,1.619 3.698,0.857 5.557,1.207 1.858,0.35 3.112,0.549 1.253,0.199 4.066,0.532" /><path
     id="STROKE_4e74f353-2926-462b-8338-918fd534afc3"
     opacity="1"
     fill="none"
     stroke="#FFFFFF"
     stroke-width="5"
     stroke-opacity="1"
     stroke-linecap="round"
     stroke-linejoin="round"
     d="m -275.632,1254.965 q 3.995,-3.167 5.915,-4.888 1.92,-1.721 3.428,-3.218 1.509,-1.497 3.51,-3.781 l 1.048,-1.22" /><path
     id="STROKE_1db066a6-913a-4b9b-8386-4730ebb11250"
     opacity="1"
     fill="none"
     stroke="#FFFFFF"
     stroke-width="5"
     stroke-opacity="1"
     stroke-linecap="round"
     stroke-linejoin="round"
     d="m -255.3,1227.617 0.126,-0.424 q 0.125,-0.616 0.322,-16.821 0.047,-0.087 -0.205,-0.179 -0.251,-0.092 -0.443,-0.379" /><path
     id="STROKE_a7d11608-1882-4d97-a701-6c4a45403a31"
     opacity="1"
     fill="none"
     stroke="#FFFFFF"
     stroke-width="5"
     stroke-opacity="1"
     stroke-linecap="round"
     stroke-linejoin="round"
     d="m -257.304,1195.052 q -0.427,-1.077 -1.566,-4.99 -1.139,-3.914 -4.747,-10.872 -0.085,-0.06 -0.756,-1.025" /><path
     id="STROKE_465fd2d9-fec8-4a0e-93a1-b3ee8814a7f1"
     opacity="1"
     fill="none"
     stroke="#FFFFFF"
     stroke-width="5"
     stroke-opacity="1"
     stroke-linecap="round"
     stroke-linejoin="round"
     d="m -271.132,1168.569 q -0.202,-0.291 -4.023,-4.725 -3.821,-4.435 -7.436,-7.676 l -1.859,-1.635" /><path
     id="STROKE_04de574e-eec0-4ad7-b1b4-57360b8f5521"
     opacity="1"
     fill="none"
     stroke="#FFFFFF"
     stroke-width="5"
     stroke-opacity="1"
     stroke-linecap="round"
     stroke-linejoin="round"
     d="m -300.222,1144.283 q -0.006,0.753 -0.411,2.218 -0.404,1.466 -1.444,4.785 -1.04,3.319 -2.66,6.162 -1.619,2.842 -2.178,3.32 -0.559,0.478 -0.937,0.706 -0.378,0.228 -0.919,0.305 -0.541,0.077 -0.972,0.032 -0.432,-0.046 -1.759,-0.429 -1.328,-0.382 -2.116,-1.222 -0.788,-0.841 -1.234,-1.754 -0.446,-0.912 -0.483,-0.958 -0.037,-0.047 -0.187,-2.226 -0.151,-2.18 0.12,-3.546 0.271,-1.366 0.961,-2.512 0.69,-1.146 1.131,-1.581 0.44,-0.436 0.756,-0.696 0.316,-0.26 1.401,-0.907 1.084,-0.648 4.884,-1.917 3.8,-1.269 4.381,-1.437 0.581,-0.168 2.197,-0.737 1.616,-0.568 2.621,-0.86 1.005,-0.293 1.119,-0.312 0.114,-0.019 1.056,-0.368 0.943,-0.349 2.541,-1.064 1.598,-0.715 3.703,-2.01 2.104,-1.295 2.685,-1.738 0.581,-0.443 1.202,-0.928 0.621,-0.484 1.519,-1.449 0.898,-0.965 1.319,-1.621 0.421,-0.657 0.72,-1.502 0.299,-0.846 0.341,-1.284 0.041,-0.438 -0.112,-1.073 -0.154,-0.634 -0.445,-1.091 -0.29,-0.457 -0.473,-0.627 -0.184,-0.17 -0.216,-0.231 -0.032,-0.06 -0.769,-0.433 -0.736,-0.373 -2.08,-0.446 -1.344,-0.072 -1.817,-0.01 -0.473,0.066 -2.284,1.017 -1.811,0.951 -2.749,1.873 -0.939,0.922 -1.404,1.517 -0.464,0.596 -0.578,0.73 -0.113,0.135 -0.857,1.424 -0.743,1.289 -1.068,1.962 -0.325,0.673 -1.107,2.387 -0.782,1.713 -1.44,3.267 -0.658,1.554 -1.698,4.242 l -1.061,3.004" /><circle
     id="STROKE_c06e0b79-fccd-48c2-967b-179d6d2a3a0b"
     opacity="1"
     fill="#FFFFFF"
     stroke="#FFFFFF"
     stroke-width="0.1"
     stroke-opacity="1"
     fill-opacity="1"
     cx="-400.70999"
     cy="1309.109"
     r="2.5" /><path
     id="STROKE_df90aa99-223b-4c0a-9892-f0189a5edd32"
     opacity="1"
     fill="none"
     stroke="#FFFFFF"
     stroke-width="5"
     stroke-opacity="1"
     stroke-linecap="round"
     stroke-linejoin="round"
     d="m -392.811,1153.724 q 0.283,1.231 0.771,2.585 0.488,1.353 0.657,1.703 0.169,0.351 1.894,4.543 1.724,4.192 2.973,6.713 1.248,2.522 1.728,3.244 0.479,0.723 0.801,1.091 0.294,0.448 1.271,1.718 1.091,1.247 1.677,2.143 0.587,0.895 0.862,1.355 0.275,0.46 0.418,0.746 0.142,0.287 1.138,2.225 0.996,1.938 2.303,3.98 l 0.724,1.385" /><path
     id="STROKE_27b3e8f5-8f95-4e70-94be-2c24ccccf2e1"
     opacity="1"
     fill="none"
     stroke="#FFFFFF"
     stroke-width="5"
     stroke-opacity="1"
     stroke-linecap="round"
     stroke-linejoin="round"
     d="m -384.467,1173.78 q 0.136,0.295 0.548,1.902 0.412,1.607 1.229,4.074 0.818,2.467 2.367,7.216 l 0.24,0.374 0.59,1.858" /><path
     id="STROKE_5e969b2c-0119-4adf-82f7-49af2cd372a6"
     opacity="1"
     fill="none"
     stroke="#FFFFFF"
     stroke-width="5"
     stroke-opacity="1"
     stroke-linecap="round"
     stroke-linejoin="round"
     d="m -392.538,1153.266 0.063,0.374 0.52,1.445 q 0.119,0.512 1.637,3.075 1.517,2.562 2.48,3.888 0.962,1.326 1.43,1.956 0.469,0.63 0.96,1.328 0.491,0.698 1.099,1.63 0.609,0.931 0.817,1.201 0.208,0.27 1.652,2.118" /><path
     id="STROKE_5a3ce6c8-0475-4066-af19-fb0efe947ecd"
     opacity="1"
     fill="none"
     stroke="#FFFFFF"
     stroke-width="5"
     stroke-opacity="1"
     stroke-linecap="round"
     stroke-linejoin="round"
     d="m -391.955,1153.393 0.507,2.694 q 0.187,1.282 3.753,11.486 0.24,0.379 0.714,1.384" /><path
     id="STROKE_4a590536-8ccd-4f76-b279-3363dd5d2ec8"
     opacity="1"
     fill="none"
     stroke="#FFFFFF"
     stroke-width="5"
     stroke-opacity="1"
     stroke-linecap="round"
     stroke-linejoin="round"
     d="m -392.611,1144.854 q -0.177,0.014 -0.498,0.762 l -0.017,0.059 q -0.323,-0.01 -0.7,0.095 -0.377,0.101 -0.65,0.237 -0.273,0.137 -0.569,0.433 -0.295,0.297 -0.411,1.279 -0.116,0.982 0.008,1.687 0.123,0.706 0.302,0.923 0.179,0.218 0.178,0.256 0,0.037 0.829,0.42 0.829,0.383 1.321,0.411 0.492,0.027 0.738,-0.025 0.247,-0.051 0.402,-0.165 0.156,-0.114 0.315,-0.452 0.159,-0.337 0.192,-0.689 0.034,-0.352 -0.036,-0.587 -0.069,-0.235 -0.199,-0.404 -0.13,-0.169 -0.262,-0.268 -0.131,-0.099 -0.521,-0.244 -0.389,-0.144 -0.771,-0.235 l 0.181,0.129 q 0.047,0.014 0.225,-0.028 0.179,-0.043 0.499,-0.27 0.32,-0.226 0.396,-0.516 0.075,-0.289 -0.005,-0.669 -0.079,-0.38 -0.067,-0.423 0.013,-0.044 -0.307,-0.662 -0.319,-0.618 -0.621,-0.893 -0.301,-0.275 -0.716,-0.544 -0.415,-0.269 -0.918,-0.418 -0.503,-0.148 -0.732,-0.204 -0.23,-0.056 -0.856,0.355 -0.627,0.412 -0.891,0.891 -0.264,0.479 -0.281,0.629 -0.017,0.15 -0.048,0.548 -0.031,0.397 0.658,1.437 0.688,1.04 1.204,1.45 0.516,0.411 1.092,0.656 0.576,0.245 0.97,0.176 0.394,-0.068 0.645,-0.309 0.252,-0.241 0.406,-0.601 0.153,-0.359 0.188,-0.694 0.036,-0.336 -0.01,-0.434 -0.045,-0.098 -0.512,-0.549 -0.467,-0.45 -0.733,-0.702 -0.266,-0.251 -0.399,-0.392 -0.133,-0.141 -1.142,-0.867 -0.591,-0.1 -1.393,-0.589" /><path
     id="STROKE_6f834c84-5e07-4dac-916a-3dea3cff7678"
     opacity="1"
     fill="none"
     stroke="#FFFFFF"
     stroke-width="5"
     stroke-opacity="1"
     stroke-linecap="round"
     stroke-linejoin="round"
     d="m -393.339,1158.56 -0.208,0.061 -0.016,0.186 -0.268,0.644 q -0.056,0.111 -0.601,0.578 -0.545,0.467 -0.817,0.813 -0.272,0.346 -0.436,0.905 -0.164,0.558 -0.069,1.331 0.095,0.774 0.166,0.988 0.072,0.214 0.449,0.715 0.378,0.502 0.579,0.704 0.201,0.203 0.756,0.438 0.556,0.235 0.899,0.278 0.343,0.043 0.473,0.079 0.13,0.036 1.331,-0.19 1.2,-0.225 3.792,-1.18" /></g></svg>
