<?xml version="1.0" encoding="UTF-8" standalone="no"?>
<!-- Generator: Adobe Illustrator 26.1.0, SVG Export Plug-In . SVG Version: 6.00 Build 0)  -->

<svg
   version="1.1"
   id="Layer_1"
   x="0px"
   y="0px"
   viewBox="0 0 960 480"
   style="enable-background:new 0 0 960 480;"
   xml:space="preserve"
   sodipodi:docname="note-taking.svg"
   inkscape:version="1.2.1 (9c6d41e410, 2022-07-14, custom)"
   xmlns:inkscape="http://www.inkscape.org/namespaces/inkscape"
   xmlns:sodipodi="http://sodipodi.sourceforge.net/DTD/sodipodi-0.dtd"
   xmlns="http://www.w3.org/2000/svg"
   xmlns:svg="http://www.w3.org/2000/svg"><defs
   id="defs5954" /><sodipodi:namedview
   id="namedview5952"
   pagecolor="#505050"
   bordercolor="#eeeeee"
   borderopacity="1"
   inkscape:showpageshadow="0"
   inkscape:pageopacity="0"
   inkscape:pagecheckerboard="0"
   inkscape:deskcolor="#505050"
   showgrid="false"
   inkscape:zoom="0.70677083"
   inkscape:cx="342.40236"
   inkscape:cy="215.06264"
   inkscape:window-width="938"
   inkscape:window-height="1023"
   inkscape:window-x="0"
   inkscape:window-y="0"
   inkscape:window-maximized="1"
   inkscape:current-layer="Layer_1" />
<g
   id="New_Layer_9"
   opacity="1"
   transform="matrix(1.3333333,0,0,1.3333333,804.34933,-3055.933)"><path
     id="STROKE_5bc7de45-5597-4404-9d75-24b7ff2b8a2c"
     opacity="1"
     fill="none"
     stroke="#000000"
     stroke-width="5.994"
     stroke-opacity="1"
     stroke-linecap="round"
     stroke-linejoin="round"
     d="m -264.208,2530.294 q 0.249,-0.197 3.878,-4.369 3.63,-4.173 6.919,-8.039 3.29,-3.866 6.11,-7.045 2.82,-3.178 5.184,-5.704 2.364,-2.526 8.219,-8.921 5.856,-6.396 9.167,-9.901 3.311,-3.505 4.663,-4.847 1.352,-1.342 2.974,-2.948 1.621,-1.606 2.427,-2.4" /><path
     id="STROKE_ffb67e3e-5c50-4024-af9c-ef84079fe84a"
     opacity="1"
     fill="none"
     stroke="#000000"
     stroke-width="5.994"
     stroke-opacity="1"
     stroke-linecap="round"
     stroke-linejoin="round"
     d="m -262.789,2528.186 q 0.323,-0.068 0.778,-0.14 l 0.625,-0.213 q 0.619,-0.256 1.2,-0.546 0.582,-0.291 1.626,-0.815 1.044,-0.524 5.94,-3.506 4.895,-2.982 7.68,-4.718 2.784,-1.735 4.363,-2.584 1.578,-0.849 2.775,-1.438 1.197,-0.59 2.58,-1.227 1.382,-0.637 4.461,-2.134 3.08,-1.496 4.688,-2.29 1.608,-0.793 4.179,-1.938 2.57,-1.145 5.884,-2.845 3.313,-1.699 4.741,-2.516 1.429,-0.817 2.674,-1.517 1.245,-0.7 1.949,-1.097 0.705,-0.398 1.08,-0.596 0.375,-0.199 1.511,-1.039 0.189,-0.183 0.765,-0.829" /><circle
     id="STROKE_c137134e-33af-4856-a713-8ed62ba1df54"
     opacity="1"
     fill="#000000"
     stroke="#000000"
     stroke-width="0.1"
     stroke-opacity="1"
     fill-opacity="1"
     cx="-238.728"
     cy="2505.167"
     r="2.997" /><path
     id="STROKE_00c4bd3f-1e1a-4e1d-ad02-46e3c32b32d9"
     opacity="1"
     fill="none"
     stroke="#000000"
     stroke-width="5.994"
     stroke-opacity="1"
     stroke-linecap="round"
     stroke-linejoin="round"
     d="m -239.785,2504.91 0.136,0.579 0.121,0.296 q 0.519,0.836 1.033,1.692 0.514,0.856 1.989,3.062 l 0.351,0.499" /><path
     id="STROKE_df9b132f-d5cb-4057-8efc-b1965ba8338d"
     opacity="1"
     fill="none"
     stroke="#000000"
     stroke-width="5.994"
     stroke-opacity="1"
     stroke-linecap="round"
     stroke-linejoin="round"
     d="m -212.845,2475.447 0.129,0.353 0.128,0.464 0.057,0.476 q -0.08,1.506 -0.081,1.524 -0.002,0.017 0.048,1.122 0.05,1.106 0.52,2.478 0.263,0.28 1.311,0.377 1.048,0.097 2.802,0.553 0.517,0.228 2.37,5.493 0.108,0.158 0.437,0.395 0.33,0.237 0.974,0.771 0.645,0.534 1.493,1.394 0.849,0.86 0.966,1.081 0.116,0.221 0.222,0.673 0.105,0.452 0.157,1.236 0.053,0.785 0.074,2.191 l 0.076,1.457" /><path
     id="STROKE_456a94cb-c264-4f1c-8814-b9550c331e59"
     opacity="1"
     fill="none"
     stroke="#000000"
     stroke-width="5.994"
     stroke-opacity="1"
     stroke-linecap="round"
     stroke-linejoin="round"
     d="m -211.232,2472.516 0.609,-0.164 q 1.195,-0.05 3.544,-1.674 2.349,-1.624 7.674,-5.682 5.326,-4.059 9.311,-6.868 3.986,-2.808 7.543,-5.077 3.557,-2.269 9.66,-6.013 6.103,-3.745 9.204,-5.808 3.101,-2.063 4.701,-3.122 1.599,-1.06 8.198,-5.179 6.599,-4.12 10.625,-6.8 4.025,-2.68 6.202,-4.305 2.177,-1.625 6.586,-4.833 4.409,-3.208 8.099,-5.699 3.69,-2.49 7.134,-4.786 3.445,-2.297 6.486,-4.501 l 1.489,-1.127" /><path
     id="STROKE_f0b0c66b-4f71-451e-9105-2bc31bb4306f"
     opacity="1"
     fill="none"
     stroke="#000000"
     stroke-width="5.994"
     stroke-opacity="1"
     stroke-linecap="round"
     stroke-linejoin="round"
     d="m -199.396,2496.515 q 0.365,-0.333 5.375,-3.952 5.01,-3.618 9.507,-6.762 4.496,-3.143 6.707,-4.574 2.211,-1.43 5.703,-3.416 3.492,-1.987 9.55,-5.601 6.058,-3.613 9.776,-5.895 3.718,-2.281 5.415,-3.402 1.697,-1.121 6.007,-3.845 4.311,-2.724 8.23,-5.339 3.92,-2.614 7.17,-4.932 3.251,-2.317 5.636,-4.009 2.385,-1.692 4.081,-2.89 1.695,-1.197 4.6,-3.131 2.905,-1.935 7.703,-4.81 4.798,-2.875 7.997,-4.698 3.198,-1.823 13.564,-8.597 l 0.711,-0.577" /><path
     id="STROKE_2cc9a808-3a55-4735-ada4-640c2d531f46"
     opacity="1"
     fill="none"
     stroke="#000000"
     stroke-width="5.994"
     stroke-opacity="1"
     stroke-linecap="round"
     stroke-linejoin="round"
     d="m -98.952,2397.582 q 0.016,0.392 0.099,1.065 0.083,0.673 0.362,1.818 0.278,1.146 0.712,2.17 0.434,1.023 1.047,2.094 0.614,1.07 1.351,2.075 0.737,1.005 1.662,2.028 0.924,1.022 1.329,1.505 0.404,0.483 0.933,1.17 0.528,0.686 1.07,1.376 0.541,0.69 1.224,1.506 0.683,0.817 1.091,1.231 0.407,0.413 0.769,0.728 0.362,0.316 1.106,0.719 0.743,0.404 1.435,0.645 0.692,0.241 1.467,0.378 0.775,0.137 3.551,0.401" /><path
     id="STROKE_2b255dce-8e6e-4147-85c2-ce97a4834001"
     opacity="1"
     fill="none"
     stroke="#000000"
     stroke-width="5.994"
     stroke-opacity="1"
     stroke-linecap="round"
     stroke-linejoin="round"
     d="m -96.587,2396.859 q 0.391,0.244 0.772,0.664 1.127,0.717 2.023,1.379 0.897,0.663 1.784,1.394 0.888,0.732 2.038,1.8 1.15,1.069 2.304,2.282 1.155,1.214 1.192,1.267 0.037,0.054 1.129,1.169 1.092,1.115 1.797,1.949 0.705,0.834 1.09,1.391 0.386,0.558 0.596,0.899 0.209,0.342 0.636,1.049 0.427,0.706 0.691,1.15 0.265,0.444 0.307,0.478 0.042,0.035 0.959,2.027 l 0.526,1.239" /><path
     id="STROKE_15b672bb-c92d-432b-b2a5-0d33fcae9e6b"
     opacity="1"
     fill="none"
     stroke="#000000"
     stroke-width="5.994"
     stroke-opacity="1"
     stroke-linecap="round"
     stroke-linejoin="round"
     d="m -88.743,2406.69 q 0.358,0.337 0.249,0.489 0.058,-0.03 1.67,1.471" /><path
     id="STROKE_b67b739e-fff7-4c04-a2c4-29eab82d165b"
     opacity="1"
     fill="none"
     stroke="#000000"
     stroke-width="5.994"
     stroke-opacity="1"
     stroke-linecap="round"
     stroke-linejoin="round"
     d="m -97.241,2400.106 -0.338,-0.149 -0.872,-0.108" /><circle
     id="STROKE_087e3bf1-4489-4bb5-8a75-c87c0be948a6"
     opacity="1"
     fill="#000000"
     stroke="#000000"
     stroke-width="0.1"
     stroke-opacity="1"
     fill-opacity="1"
     cx="-207.24001"
     cy="2480.1299"
     r="2.997" /><path
     id="STROKE_128add02-8711-482b-9830-f9dc5832572e"
     opacity="1"
     fill="none"
     stroke="#000000"
     stroke-width="5.994"
     stroke-opacity="1"
     stroke-linecap="round"
     stroke-linejoin="round"
     d="m -210.064,2481.674 q 0.428,-0.168 1.602,-0.883 1.175,-0.716 2.165,-1.341 0.991,-0.626 1.787,-1.119 0.797,-0.494 3.762,-2.543 2.965,-2.05 6.729,-4.642 3.764,-2.592 6.866,-4.652 3.102,-2.059 5.916,-3.9 2.814,-1.841 6.842,-4.303 4.029,-2.461 6.487,-4.005 2.458,-1.544 4.039,-2.557 1.582,-1.012 3.387,-2.105 1.806,-1.093 2.141,-1.274 0.336,-0.18 2.805,-1.7 2.468,-1.519 4.382,-2.786 1.913,-1.266 4.272,-2.848 2.36,-1.582 4.021,-2.672 1.66,-1.089 4.781,-3.323 3.121,-2.232 4.173,-3.009 1.053,-0.777 3.38,-2.523 2.327,-1.746 4.491,-3.265 2.165,-1.519 3.971,-2.741 1.807,-1.221 3.11,-2.168 1.303,-0.946 6.042,-4.304 4.739,-3.358 7.281,-5.227 2.543,-1.869 4.138,-3.14 1.596,-1.271 1.986,-1.588" /><path
     id="STROKE_69392822-a24e-4205-8b03-08721dce1f15"
     opacity="1"
     fill="none"
     stroke="#000000"
     stroke-width="5.994"
     stroke-opacity="1"
     stroke-linecap="round"
     stroke-linejoin="round"
     d="m -202.734,2488.268 q 1.471,-0.674 2.866,-1.442 1.395,-0.769 7.925,-4.808 6.529,-4.04 8.801,-5.54 2.271,-1.501 6.144,-3.997 3.873,-2.495 6.243,-4.049 2.371,-1.555 3.818,-2.558 1.447,-1.003 5.631,-4.001 4.184,-2.998 7.085,-5.019 2.902,-2.02 5.356,-3.785 2.455,-1.765 6.435,-4.514 3.98,-2.749 6.362,-4.43 2.382,-1.68 4.48,-3.167 2.098,-1.488 3.633,-2.566 1.534,-1.079 3.217,-2.311 1.682,-1.233 6.747,-4.902 5.065,-3.67 7.624,-5.464 2.559,-1.794 3.584,-2.502 1.024,-0.708 3.863,-2.788 2.839,-2.08 6.154,-4.717 l 0.582,-0.514" /><path
     id="STROKE_c0fb34f9-4ff5-4f95-a0e4-5f588b681395"
     opacity="1"
     fill="none"
     stroke="#000000"
     stroke-width="5"
     stroke-opacity="1"
     stroke-linecap="round"
     stroke-linejoin="round"
     d="m -408.278,2527.887 q 0.242,-0.629 0.802,-1.246 0.07,-0.412 1.768,-5.608 1.699,-5.197 3.909,-10.322 2.209,-5.125 4.991,-9.533 2.781,-4.408 5.092,-6.675 2.311,-2.267 4.702,-2.741 0.604,0.184 -0.354,11.2 -0.957,11.017 -2.309,18.133 -1.352,7.116 -1.612,10.835 -0.261,3.72 -0.092,5.928 0.169,2.209 0.817,4.123 0.647,1.915 1.387,2.925 0.741,1.01 1.291,1.534 0.55,0.524 1.303,0.848 0.752,0.323 1.248,0.216 0.496,-0.107 1.093,-0.535 0.596,-0.427 0.899,-0.731 0.303,-0.304 5.861,-7.612 0.181,0.133 0.732,1.048 0.55,0.915 0.985,1.615 0.435,0.7 0.819,1.094 0.385,0.395 1.115,0.501 0.731,0.107 2.958,-2.024 2.227,-2.13 4.892,-4.324 0.566,0.048 1.737,1.12 1.171,1.073 2.264,2.124 1.093,1.052 1.959,1.636 0.865,0.583 2.317,0.844 1.451,0.261 3.354,-0.17 1.902,-0.431 3.988,-1.202 2.086,-0.771 3.556,-1.206 1.47,-0.435 2.522,-0.628 1.053,-0.194 1.563,-0.267 0.511,-0.074 1.692,-0.101 1.181,-0.027 1.716,-0.044 0.535,-0.018 1.959,-0.217 1.424,-0.199 3.494,-0.857 2.071,-0.659 4.21,-1.386 2.139,-0.728 3.206,-0.981 1.068,-0.254 1.699,-0.328 0.631,-0.074 1.131,-0.061 0.5,0.014 2.031,0.521 1.531,0.507 2.717,0.967 1.187,0.46 2.49,0.798 1.303,0.338 2.639,0.439 1.336,0.101 1.816,0.1 0.48,0 1.367,0.06 0.887,0.06 1.651,0.185 0.764,0.125 2.027,0.674 1.264,0.548 2.867,1.268 1.604,0.719 3.383,1.272 1.779,0.553 3.749,0.715 1.969,0.162 5.068,-0.49 3.099,-0.653 5.021,-1.384 1.923,-0.731 3.878,-1.406 1.954,-0.675 2.665,-1.013 0.711,-0.338 1.065,-0.578 0.355,-0.239 1.054,-0.752 0.699,-0.513 2.032,-1.583 l 1.225,-0.446 q 1.767,-0.349 2.197,-0.496 0.43,-0.148 0.652,-0.248 0.221,-0.101 2.114,-1.142 1.893,-1.041 2.769,-1.497 0.875,-0.456 1.951,-0.904" /></g></svg>
