<?xml version="1.0" encoding="UTF-8" standalone="no"?>
<!-- Generator: Adobe Illustrator 26.1.0, SVG Export Plug-In . SVG Version: 6.00 Build 0)  -->

<svg
   version="1.1"
   id="Layer_1"
   x="0px"
   y="0px"
   viewBox="0 0 960 480"
   style="enable-background:new 0 0 960 480;"
   xml:space="preserve"
   sodipodi:docname="timeblocking-apps.svg"
   inkscape:version="1.2.1 (9c6d41e410, 2022-07-14, custom)"
   xmlns:inkscape="http://www.inkscape.org/namespaces/inkscape"
   xmlns:sodipodi="http://sodipodi.sourceforge.net/DTD/sodipodi-0.dtd"
   xmlns="http://www.w3.org/2000/svg"
   xmlns:svg="http://www.w3.org/2000/svg"><defs
   id="defs5328" /><sodipodi:namedview
   id="namedview5326"
   pagecolor="#505050"
   bordercolor="#eeeeee"
   borderopacity="1"
   inkscape:showpageshadow="0"
   inkscape:pageopacity="0"
   inkscape:pagecheckerboard="0"
   inkscape:deskcolor="#505050"
   showgrid="false"
   inkscape:zoom="0.70677083"
   inkscape:cx="509.35888"
   inkscape:cy="234.87104"
   inkscape:window-width="938"
   inkscape:window-height="1023"
   inkscape:window-x="0"
   inkscape:window-y="0"
   inkscape:window-maximized="1"
   inkscape:current-layer="Layer_1" />
<g
   id="New_Layer_8"
   opacity="1"
   transform="matrix(1.3333333,0,0,1.3333333,129.78124,-2534.079)"><path
     id="STROKE_99b7c2e2-a308-4121-a78f-f0f67351ad06"
     opacity="1"
     fill="none"
     stroke="#FFFFFF"
     stroke-width="5"
     stroke-opacity="1"
     stroke-linecap="round"
     stroke-linejoin="round"
     d="m 51.837,2018.865 q -0.047,2.252 -0.066,12.297 -0.019,10.044 0.181,18.337 0.201,8.293 0.307,12.64 0.106,4.347 0.203,6.693 0.097,2.346 0.466,7.173 0.37,4.826 0.654,8.823 0.284,3.997 0.594,10.325 0.309,6.328 0.461,9.722 0.153,3.393 0.262,11.747 0.11,8.355 0.116,16.597 0.006,8.242 0.011,11.994 0.005,3.752 0.101,9.865 0.096,6.113 0.295,8.839 0.199,2.725 0.449,4.376 0.251,1.651 0.405,2.336 0.154,0.684 1.011,2.894 0.857,2.211 1.747,3.851 0.891,1.64 1.169,2.054 0.278,0.414 0.988,1.192 0.709,0.778 1.054,1.078 0.344,0.3 0.632,0.48 0.287,0.18 1.609,0.747 1.323,0.567 3.971,1.168 2.648,0.602 6.757,1.008 4.11,0.407 6.584,0.481 2.474,0.074 6.59,-0.048 4.115,-0.122 6.337,-0.211 2.222,-0.09 3.408,-0.171 1.186,-0.082 3.842,-0.225 2.657,-0.144 4.023,-0.243 1.366,-0.1 3.743,-0.33 2.376,-0.231 2.701,-0.264 0.325,-0.033 3.322,-0.26 2.997,-0.226 5.108,-0.443 2.112,-0.217 3.626,-0.428 1.515,-0.211 6.19,-0.601 4.674,-0.39 7.983,-0.688 3.308,-0.297 5.718,-0.62 2.409,-0.324 3.802,-0.544 1.392,-0.219 2.155,-0.426 0.762,-0.207 1.496,-0.395 0.733,-0.189 2.127,-0.649 1.394,-0.461 2.387,-0.964 0.994,-0.503 1.683,-1.024 0.689,-0.521 1.138,-1.043 0.45,-0.522 0.902,-1.256 0.452,-0.735 1.115,-2.674 0.663,-1.938 0.99,-4.412 0.327,-2.473 0.313,-3.638 -0.014,-1.165 -0.054,-4.529 -0.04,-3.364 -0.083,-7.198 -0.043,-3.834 -0.059,-6.285 -0.017,-2.451 -0.017,-4.697 -0.001,-2.245 -0.117,-9.243 -0.116,-6.998 -0.322,-11.083 -0.205,-4.086 -0.389,-6.678 -0.183,-2.592 -0.474,-6.124 -0.291,-3.532 -0.488,-8.067 -0.197,-4.534 -0.365,-7.068 -0.167,-2.534 -0.45,-8.611 -0.282,-6.077 -0.419,-9.349 -0.137,-3.271 -0.471,-6.946 -0.335,-3.675 -0.49,-6.356 -0.155,-2.682 -0.3,-9.015 -0.145,-6.333 -0.264,-14.335 -0.118,-8.003 -0.316,-12.377 -0.198,-4.374 -0.39,-6.4 -0.193,-2.026 -0.37,-4.057 -0.178,-2.032 -0.339,-4.004 -0.161,-1.973 -0.615,-4.6 -0.455,-2.628 -0.769,-4.482 -0.313,-1.853 -0.603,-3.761 -0.29,-1.909 -0.786,-4.431 -0.495,-2.522 -1.991,-7.004 -1.495,-4.482 -2.344,-5.647 -0.849,-1.164 -1.506,-1.743 -0.658,-0.578 -1.692,-1.061 -1.035,-0.484 -3.001,-0.837 -1.967,-0.353 -3.233,-0.433 -1.265,-0.08 -2.882,-0.189 -1.616,-0.109 -5.814,-0.577 -4.197,-0.469 -8.398,-0.735 -4.2,-0.266 -6.938,-0.354 -2.738,-0.088 -5.927,-0.176 -3.189,-0.088 -5.469,-0.056 -2.28,0.032 -4.124,0.092 -1.845,0.061 -4.178,0.26 -2.334,0.198 -4.844,0.545 -2.51,0.346 -4.041,0.562 -1.53,0.216 -2.66,0.376 -1.13,0.16 -2.755,0.428 -1.625,0.267 -2.7,0.462 -1.074,0.194 -2.013,0.36 -0.939,0.165 -2.992,0.526 -2.053,0.361 -4.25,0.895 -2.197,0.534 -3.135,0.814 -0.939,0.279 -2.148,0.624 -1.209,0.345 -2.164,0.677 -0.954,0.331 -2.315,0.94 -1.362,0.609 -2.181,1.021 -0.819,0.412 -1.582,0.886 -0.762,0.473 -0.869,0.533 -0.108,0.06 -0.904,0.693 -0.796,0.633 -1.623,1.517 -0.827,0.884 -1.394,1.754 -0.568,0.87 -0.979,1.821 -0.412,0.952 -0.647,1.805 -0.235,0.854 -0.322,1.149 -0.086,0.294 -0.318,3.028 -0.231,2.734 -0.155,4.482 0.076,1.748 0.249,3.993 0.173,2.245 0.461,5.185 0.288,2.939 0.506,5.363 0.218,2.424 0.31,3.263 0.092,0.84 0.396,4.652" /><path
     id="STROKE_bf9fe064-5ffb-4c64-bc49-84474e63705b"
     opacity="1"
     fill="none"
     stroke="#FFFFFF"
     stroke-width="5"
     stroke-opacity="1"
     stroke-linecap="round"
     stroke-linejoin="round"
     d="m 107.459,2141.86 q -1.051,0.235 -2.322,0.506 -1.272,0.272 -2.811,0.662 -1.539,0.389 -2.699,0.814 -1.16,0.424 -1.811,0.752 -0.652,0.329 -1.278,0.774 -0.625,0.444 -2.774,3.385 -2.148,2.941 -2.395,4.093 -0.247,1.153 -0.295,1.81 -0.048,0.658 -0.009,1.475 0.039,0.818 0.861,3.083 0.822,2.265 1.243,3.001 0.421,0.736 1.163,1.703 0.741,0.968 1.546,1.682 0.804,0.713 1.988,1.409 1.185,0.696 2.699,1.206 1.515,0.51 5.91,0.361 4.396,-0.149 4.93,-0.341 0.534,-0.191 1.496,-0.677 0.963,-0.487 3.441,-2.472 0.726,-0.717 1.391,-1.567 0.664,-0.851 0.911,-1.252 0.247,-0.402 0.848,-1.823 0.601,-1.422 0.673,-1.668 0.072,-0.247 0.252,-1.339 0.18,-1.092 0.237,-2.689 0.058,-1.599 -0.201,-3.126 -0.259,-1.527 -0.42,-1.976 -0.162,-0.449 -1.948,-3.273 l -1.9,-1.818 q -0.861,-0.508 -1.933,-1.081 -1.541,-0.536 -3.151,-0.881 l -3.496,-0.465" /><path
     id="STROKE_99450b5c-4d75-461b-9856-8a04c3fa943e"
     opacity="1"
     fill="none"
     stroke="#FFFFFF"
     stroke-width="5"
     stroke-opacity="1"
     stroke-linecap="round"
     stroke-linejoin="round"
     d="m 100.846,2151.188 q 0.248,0.106 1.23,0.436 0.185,0.041 2.001,1.356 1.817,1.314 3.456,2.197 1.638,0.882 3.443,1.776" /><path
     id="STROKE_75ae856f-3612-4246-a3c3-134b5c504757"
     opacity="1"
     fill="none"
     stroke="#FFFFFF"
     stroke-width="5"
     stroke-opacity="1"
     stroke-linecap="round"
     stroke-linejoin="round"
     d="m 102.959,2158.213 0.668,-0.63 q 0.181,-0.252 5.29,-8.38" /><path
     id="STROKE_949c922b-c915-40b9-bab8-7310b55d2950"
     opacity="1"
     fill="none"
     stroke="#FFFFFF"
     stroke-width="5"
     stroke-opacity="1"
     stroke-linecap="round"
     stroke-linejoin="round"
     d="m 60.855,2006.483 0.04,-0.149 q 0.189,-0.271 3.963,-5.336 0.387,0.88 0.683,1.754 0.296,0.875 0.659,2.224 0.363,1.348 1.952,6.04 0.128,0.171 0.446,1.754" /><path
     id="STROKE_76ef9c93-d030-481d-bc78-e4ecff66b62e"
     opacity="1"
     fill="none"
     stroke="#FFFFFF"
     stroke-width="5"
     stroke-opacity="1"
     stroke-linecap="round"
     stroke-linejoin="round"
     d="m 81.916,2002.182 q -0.072,-0.045 -0.258,-0.293 -0.186,-0.247 -0.375,-0.422 -0.189,-0.175 -0.353,-0.361 -0.164,-0.185 -0.603,-0.405 -0.439,-0.219 -0.982,-0.398 -0.544,-0.18 -0.695,-0.19 -0.151,-0.011 -0.781,-0.042 -0.631,-0.031 -1.421,0.256 -0.79,0.287 -1.193,0.737 -0.402,0.449 -0.488,0.846 -0.086,0.397 -0.083,0.682 0.004,0.284 0.136,0.682 0.132,0.398 0.582,0.939 0.45,0.542 0.817,0.751 0.366,0.209 1.108,0.38 0.741,0.171 1.214,0.174 0.473,0 0.879,-0.076 0.407,-0.079 1.126,-0.274 0.719,-0.195 1.264,-0.481 0.544,-0.286 0.632,-0.348 0.087,-0.062 0.244,-0.119 0.157,-0.058 0.177,-0.073 0.02,-0.014 0.055,0.077 0.002,0.089 0.151,0.629 0.149,0.539 0.302,1.102 0.153,0.563 0.322,1.535 0.169,0.972 0.141,1.577 -0.027,0.605 -0.128,1.145 -0.101,0.539 -0.272,0.953 -0.171,0.413 -0.431,0.703 -0.26,0.291 -0.735,0.648 -0.474,0.356 -1.126,0.614 -0.652,0.257 -1.503,0.255 -0.852,-10e-4 -1.151,-0.161 -0.3,-0.16 -1.746,-0.785" /><path
     id="STROKE_c22dc5cc-44f5-4e20-9856-90df80128438"
     opacity="1"
     fill="none"
     stroke="#FFFFFF"
     stroke-width="5"
     stroke-opacity="1"
     stroke-linecap="round"
     stroke-linejoin="round"
     d="m 92.374,2002.78 0.23,-0.961 0.353,0.032" /><circle
     id="STROKE_64c9cbb7-e8c7-4133-bb8c-2b5429ea1950"
     opacity="1"
     fill="#FFFFFF"
     stroke="#FFFFFF"
     stroke-width="0.1"
     stroke-opacity="1"
     fill-opacity="1"
     cx="93.959"
     cy="2009.855"
     r="2.5" /><path
     id="STROKE_46e6d46b-d2d5-4e19-9dee-f4712000d424"
     opacity="1"
     fill="none"
     stroke="#FFFFFF"
     stroke-width="5"
     stroke-opacity="1"
     stroke-linecap="round"
     stroke-linejoin="round"
     d="m 102.103,2000.718 q 0.162,0.122 0.059,0.445 0.083,0.053 2.686,5.43 0.261,0.058 0.791,0.129 0.53,0.072 1.062,0.165 0.532,0.094 0.56,0.09 0.028,0 2.125,0.333 l 1.189,0.433" /><path
     id="STROKE_8e7cf695-ddff-46a3-995c-4603196bda23"
     opacity="1"
     fill="none"
     stroke="#FFFFFF"
     stroke-width="5"
     stroke-opacity="1"
     stroke-linecap="round"
     stroke-linejoin="round"
     d="m 110.375,1998.479 0.268,0.549 q 0.064,0.212 0.453,3.265 0.39,3.053 0.739,4.902 0.349,1.849 0.79,3.163 l 0.464,1.419" /><path
     id="STROKE_2279a050-29bb-49b1-a865-70359d50d9ee"
     opacity="1"
     fill="none"
     stroke="#FFFFFF"
     stroke-width="5"
     stroke-opacity="1"
     stroke-linecap="round"
     stroke-linejoin="round"
     d="m 126.334,2006.025 q -0.189,-0.663 -0.616,-1.41 -0.427,-0.747 -0.606,-0.942 -0.179,-0.195 -0.556,-0.513 -0.376,-0.317 -1.161,-0.608 -0.785,-0.29 -1.491,-0.197 -0.705,0.093 -1.026,0.365 -0.32,0.273 -0.512,0.552 -0.192,0.28 -0.353,0.775 -0.161,0.495 -0.052,2.17 0.11,1.675 0.181,1.918 0.072,0.244 0.315,0.514 0.242,0.27 0.617,0.515 0.375,0.246 1.117,0.471 0.742,0.225 1.263,0.149 0.522,-0.076 1.207,-0.527 0.686,-0.452 0.938,-0.733 0.253,-0.282 0.444,-0.64 0.191,-0.358 0.82,-2.457" /><path
     id="STROKE_b802651a-be88-4996-baef-babe51be9a87"
     opacity="1"
     fill="none"
     stroke="#FFFFFF"
     stroke-width="5"
     stroke-opacity="1"
     stroke-linecap="round"
     stroke-linejoin="round"
     d="m 52.839,2043.095 1.008,-0.12 1.789,0.436 q 1.119,0.336 3.622,0.512 2.503,0.175 6.359,0.154 3.856,-0.022 5.115,-0.101 1.258,-0.08 3.509,-0.317 2.251,-0.237 4.321,-0.49 2.07,-0.253 3.294,-0.415 1.224,-0.162 6.883,-0.701 5.66,-0.539 11.267,-1.186 5.607,-0.648 8.358,-1.071 2.751,-0.423 6.246,-1.09 3.495,-0.668 6.045,-1.052 2.55,-0.385 2.684,-0.383 0.134,10e-4 2.394,-0.3 2.26,-0.3 3.837,-0.466 1.576,-0.165 2.689,-0.253 1.114,-0.087 3.133,-0.311 2.019,-0.223 5.764,-0.555 3.745,-0.331 5.76,-0.541 2.014,-0.21 3.709,-0.419 l 2.801,-0.531" /><path
     id="STROKE_8e749ed5-e81b-41df-be2a-7e7870c1a1ce"
     opacity="1"
     fill="none"
     stroke="#FFFFFF"
     stroke-width="5"
     stroke-opacity="1"
     stroke-linecap="round"
     stroke-linejoin="round"
     d="m 56.483,2087.903 1.909,-0.034 q 3.995,-0.439 6.256,-0.594 2.26,-0.154 3.973,-0.31 1.713,-0.156 1.846,-0.187 0.133,-0.031 1.852,-0.224 1.718,-0.192 6.082,-0.462 4.365,-0.27 7.008,-0.353 2.643,-0.083 5.735,-0.091 3.092,-0.01 5.239,0 2.146,0 2.343,0.015 0.197,0.012 7.595,0.086 7.398,0.075 12.94,0.108 5.542,0.033 8.57,0.04 3.028,0.01 6.194,-0.039 3.165,-0.046 3.203,-0.054 0.037,-0.01 2.834,-0.112 2.798,-0.104 4.444,-0.158 1.645,-0.054 2.853,-0.089 1.208,-0.035 2.266,-0.178 1.058,-0.142 1.531,-0.183 0.473,-0.041 1.81,-0.274 1.336,-0.234 4.887,-0.671" /><path
     id="STROKE_2aa2f064-b8a1-4c85-b512-39941672dc64"
     opacity="1"
     fill="none"
     stroke="#FFFFFF"
     stroke-width="5"
     stroke-opacity="1"
     stroke-linecap="round"
     stroke-linejoin="round"
     d="m 135.407,2044.941 0.417,0.134 q 0.079,0.134 1.588,1.472 1.509,1.338 4.039,2.176 0.242,-0.13 1.279,-0.642 1.037,-0.513 4.137,-2.606" /><circle
     id="STROKE_dd6255c4-5ae7-48b0-89a6-4905937ad50d"
     opacity="1"
     fill="#FFFFFF"
     stroke="#FFFFFF"
     stroke-width="0.1"
     stroke-opacity="1"
     fill-opacity="1"
     cx="61.584"
     cy="2059.97"
     r="2.5" /><path
     id="STROKE_ed5c6287-f4d8-42ed-b624-2c15c40e87f8"
     opacity="1"
     fill="none"
     stroke="#FFFFFF"
     stroke-width="5"
     stroke-opacity="1"
     stroke-linecap="round"
     stroke-linejoin="round"
     d="m 66.084,2058.914 -0.328,2.112" /><circle
     id="STROKE_826d1c6e-c6fa-43f6-a6d6-d2d7dcc32bc9"
     opacity="1"
     fill="#FFFFFF"
     stroke="#FFFFFF"
     stroke-width="0.1"
     stroke-opacity="1"
     fill-opacity="1"
     cx="77.015999"
     cy="2057.9209"
     r="2.5" /><path
     id="STROKE_f886945b-7253-44f3-b98b-50cb7c524b92"
     opacity="1"
     fill="none"
     stroke="#FFFFFF"
     stroke-width="5"
     stroke-opacity="1"
     stroke-linecap="round"
     stroke-linejoin="round"
     d="m 82.572,2058.85 0.391,-0.269 q 0.189,-0.193 0.393,-0.533" /><path
     id="STROKE_790beaa4-9a38-430a-b644-32e553cb5098"
     opacity="1"
     fill="none"
     stroke="#FFFFFF"
     stroke-width="5"
     stroke-opacity="1"
     stroke-linecap="round"
     stroke-linejoin="round"
     d="m 98.988,2057.386 q 0.531,0.075 1.449,-0.098 0.918,-0.173 1.266,-0.209 0.348,-0.035 2.943,-0.148 2.595,-0.114 3.765,-0.184 0.675,-0.085 1.564,0 0.888,0.086 1.15,0.105 0.261,0.018 1.587,-0.071 0.416,-0.085 1.201,-0.157 0.785,-0.072 1.937,-0.062 1.151,0.011 5.201,-0.104" /><path
     id="STROKE_ec4411ac-5548-479a-9dd9-8a87bad87f45"
     opacity="1"
     fill="none"
     stroke="#FFFFFF"
     stroke-width="5"
     stroke-opacity="1"
     stroke-linecap="round"
     stroke-linejoin="round"
     d="m 61.11,2075.394 q -0.116,0.405 0.748,0.218 -0.057,-0.059 -0.019,0.647" /><path
     id="STROKE_390079f6-5d77-4245-91db-02bac7168889"
     opacity="1"
     fill="none"
     stroke="#FFFFFF"
     stroke-width="5"
     stroke-opacity="1"
     stroke-linecap="round"
     stroke-linejoin="round"
     d="m 65.082,2075.457 q 0.744,-0.592 1.057,-0.522" /><path
     id="STROKE_766b5aa8-b04e-4e09-b174-a367f3d3e224"
     opacity="1"
     fill="none"
     stroke="#FFFFFF"
     stroke-width="5"
     stroke-opacity="1"
     stroke-linecap="round"
     stroke-linejoin="round"
     d="m 79.256,2073.141 q -0.206,1.545 -0.4,2.647" /><path
     id="STROKE_afa58e28-df0c-47e5-98bf-26d10b336f43"
     opacity="1"
     fill="none"
     stroke="#FFFFFF"
     stroke-width="5"
     stroke-opacity="1"
     stroke-linecap="round"
     stroke-linejoin="round"
     d="m 82.773,2073.739 q 0.37,0.95 0.23,1.335 -0.14,0.384 -0.176,1.248" /><path
     id="STROKE_ae5e6553-5079-43c1-b075-afbef64e6634"
     opacity="1"
     fill="none"
     stroke="#FFFFFF"
     stroke-width="5"
     stroke-opacity="1"
     stroke-linecap="round"
     stroke-linejoin="round"
     d="m 100.318,2074.07 q 0.381,0.01 0.793,0.049 0.411,0.042 1.14,-0.018 0.729,-0.059 2.539,-0.353 1.809,-0.295 2.454,-0.402 0.645,-0.108 1.029,-0.13 0.385,-0.021 1.11,0.051 0.725,0.071 0.88,0.092 0.155,0.022 1.875,-0.041 1.72,-0.063 2.607,-0.055 0.887,0.01 1.051,0.029 0.163,0.02 1.051,0.033 0.889,0.013 1.258,0 0.369,-0.016 1.255,-0.154 0.886,-0.138 1.487,-0.192 0.6,-0.055 1.599,-0.015 1,0.039 5.091,-0.011" /><path
     id="STROKE_c805bd5f-3e96-4d13-9ab1-ca7498a5f218"
     opacity="1"
     fill="none"
     stroke="#FFFFFF"
     stroke-width="5"
     stroke-opacity="1"
     stroke-linecap="round"
     stroke-linejoin="round"
     d="m 380.712,1976.857 q -0.965,-0.221 -1.531,-0.301 -0.565,-0.08 -6.037,-0.354 -5.472,-0.274 -8.579,-0.236 -3.108,0.037 -6.282,0.296 -3.174,0.258 -5.097,0.449 -1.923,0.191 -2.958,0.308 -1.035,0.117 -4.774,0.783 -3.739,0.666 -8.087,1.34 -4.347,0.674 -6.573,1.136 -2.226,0.461 -7.584,2.196 -5.357,1.735 -8.267,2.727 -2.909,0.993 -5.207,1.905 -2.297,0.911 -6.056,2.979 -3.759,2.069 -4.917,2.898 -1.158,0.829 -2.71,2.165 -1.552,1.337 -3.87,3.93 -2.319,2.594 -3.54,4.145 -1.22,1.551 -1.253,1.581 -0.032,0.03 -3.287,4.724 -3.255,4.694 -5.19,7.885 -1.936,3.192 -3.192,5.674 -1.257,2.483 -2.079,4.176 -0.822,1.693 -0.907,1.927 -0.085,0.234 -0.625,1.61 -0.539,1.376 -2.024,5.54 -1.485,4.164 -1.994,5.934 -0.509,1.769 -0.977,3.757 -0.468,1.989 -1.51,8.324 -1.042,6.335 -1.426,9.567 -0.385,3.232 -0.62,5.312 -0.235,2.08 -0.469,6.194 -0.234,4.114 0.178,10.249 0.412,6.135 1.331,10.823 0.918,4.687 1.468,6.857 0.551,2.17 1.276,5.157 0.725,2.988 1.714,6.218 0.988,3.23 1.923,5.632 0.934,2.401 2.116,5.19 1.182,2.789 3.24,6.585 2.058,3.796 3.517,5.991 1.459,2.194 4.882,6.425 3.422,4.232 6.042,6.818 2.62,2.586 5.134,4.363 2.515,1.777 5.923,3.555 3.408,1.777 5.774,2.786 2.366,1.009 4.124,1.683 1.759,0.674 4.653,1.789 2.895,1.115 4.738,1.731 1.843,0.616 4.275,1.363 2.433,0.747 6.925,2.052 4.492,1.305 9.263,2.338 4.771,1.033 6.94,1.381 2.17,0.348 6.831,0.872 4.661,0.524 9.092,0.727 4.432,0.202 7.125,0.173 2.692,-0.029 6.897,-0.414 4.204,-0.384 9.59,-1.526 5.387,-1.142 10.125,-2.796 4.738,-1.655 10.313,-4.092 5.574,-2.438 8.178,-3.698 2.605,-1.26 5.657,-3.026 3.052,-1.767 5.732,-3.635 2.679,-1.868 4.596,-3.423 1.917,-1.555 4.26,-3.83 2.343,-2.276 4.029,-4.329 1.685,-2.054 3.272,-4.439 1.587,-2.386 2.628,-4.029 1.041,-1.643 2.302,-3.728 1.261,-2.085 1.923,-3.2 0.662,-1.117 4.114,-6.787 3.452,-5.671 5.063,-8.644 1.611,-2.974 2.225,-4.228 0.615,-1.254 1.835,-4.091 1.221,-2.837 2.862,-7.381 1.641,-4.544 2.541,-7.399 0.9,-2.855 1.807,-5.65 0.906,-2.796 1.926,-6.597 1.019,-3.8 1.294,-5.099 0.276,-1.299 0.851,-5.716 0.575,-4.417 0.671,-6.241 0.097,-1.825 -0.245,-6.199 -0.342,-4.374 -0.798,-6.702 -0.456,-2.329 -1.088,-4.615 -0.633,-2.287 -1.311,-4.227 -0.678,-1.94 -1.391,-3.685 -0.714,-1.745 -1.439,-3.148 -0.725,-1.402 -2.164,-4.003 -1.439,-2.6 -2.679,-4.739 -1.24,-2.138 -3.408,-5.16 -2.168,-3.021 -3.783,-5.154 -1.615,-2.134 -2.432,-3.124 -0.816,-0.99 -3.545,-3.818 -2.729,-2.828 -3.861,-3.926 -1.133,-1.098 -2.593,-2.369 -1.461,-1.272 -3.43,-2.793 -1.97,-1.521 -4.986,-3.719 -3.016,-2.197 -5.981,-4.003 -2.964,-1.806 -4.017,-2.382 -1.053,-0.576 -2.509,-1.303 -1.455,-0.727 -3.928,-1.765 -2.472,-1.037 -4.182,-1.695 -1.711,-0.658 -2.699,-0.983 -0.989,-0.325 -1.898,-0.577 -0.91,-0.252 -5.403,-1.342 -4.493,-1.09 -7.507,-1.666 -3.013,-0.576 -6.105,-1.088 -3.093,-0.512 -6.244,-0.747 -3.151,-0.235 -5.461,-0.239 -2.311,0 -3.079,-0.026 -0.768,-0.022 -2.543,-0.07" /><path
     id="STROKE_78d8dfce-336b-4e2c-876c-ceb97422ffce"
     opacity="1"
     fill="none"
     stroke="#FFFFFF"
     stroke-width="5"
     stroke-opacity="1"
     stroke-linecap="round"
     stroke-linejoin="round"
     d="m 386.815,2061.458 -0.205,-0.553 -0.661,-1.274 -0.485,-0.796 q -0.202,-0.498 -2.922,-3.361 -2.72,-2.862 -4.662,-4.147 -1.941,-1.285 -3.96,-2.184 -2.019,-0.9 -4.97,-1.607 -2.951,-0.706 -6.4,-0.807 -3.45,-0.101 -5.874,0.357 -2.425,0.458 -3.876,1.062 -1.451,0.604 -3.208,1.723 -1.757,1.119 -2.652,1.918 -0.895,0.799 -1.339,1.272 -0.445,0.474 -1.884,2.271 -1.44,1.796 -2.152,2.979 -0.712,1.182 -0.781,1.313 -0.07,0.13 -1.049,2.677 -0.979,2.546 -1.472,4.328 -0.494,1.782 -0.731,3.017 -0.236,1.234 -0.397,2.442 -0.16,1.207 -0.23,1.637 -0.069,0.43 -0.175,2.733 -0.106,2.304 -0.002,3.853 0.105,1.549 0.288,2.818 0.184,1.269 0.705,3.003 0.522,1.733 0.582,1.895 0.06,0.163 0.713,1.423 0.653,1.259 1.017,1.757 0.364,0.497 1.081,1.226 0.716,0.728 1.204,1.11 0.487,0.382 3.553,2.236 3.066,1.853 5.169,2.7 2.104,0.847 3.348,1.184 1.244,0.336 3.366,0.665 2.122,0.328 3.731,0.344 1.61,0.016 3.809,-0.289 2.2,-0.305 4.192,-0.888 1.992,-0.584 3.374,-1.185 1.382,-0.602 2.372,-1.105 0.991,-0.504 2.273,-1.352 1.283,-0.848 2.553,-2.139 1.27,-1.291 2.555,-3.034 1.284,-1.744 2.935,-5.059 1.651,-3.316 2.401,-5.874 0.751,-2.559 0.841,-3.168 0.089,-0.61 0.098,-2.301 0.008,-1.692 -0.046,-2.229 -0.055,-0.536 -0.077,-0.893 -0.022,-0.357 -0.342,-1.57 -0.321,-1.212 -1.753,-4.157" /><path
     id="STROKE_7e47d70c-49d4-4210-829c-374aa460e712"
     opacity="1"
     fill="none"
     stroke="#FFFFFF"
     stroke-width="5"
     stroke-opacity="1"
     stroke-linecap="round"
     stroke-linejoin="round"
     d="m 349.056,2066.642 -0.297,1.091 -0.114,0.601 q -0.304,2.829 -0.669,11.884 0.016,0.056 -0.031,1.313" /><path
     id="STROKE_cc4f8920-c839-407a-ab37-8823fa43387d"
     opacity="1"
     fill="none"
     stroke="#FFFFFF"
     stroke-width="5"
     stroke-opacity="1"
     stroke-linecap="round"
     stroke-linejoin="round"
     d="m 356.144,2067.367 -0.143,0.65 q -0.088,2.25 -0.724,11.205 -0.036,0.33 -0.117,1.38" /><path
     id="STROKE_1f88b37b-eef3-424b-ac57-cc3f97393437"
     opacity="1"
     fill="none"
     stroke="#FFFFFF"
     stroke-width="5"
     stroke-opacity="1"
     stroke-linecap="round"
     stroke-linejoin="round"
     d="m 362.302,2069.95 q 0.287,0.405 0.273,1.388" /><circle
     id="STROKE_1597d0e4-4455-4cc5-8747-eb266c1175cd"
     opacity="1"
     fill="#FFFFFF"
     stroke="#FFFFFF"
     stroke-width="0.1"
     stroke-opacity="1"
     fill-opacity="1"
     cx="363.103"
     cy="2077.293"
     r="2.5" /><path
     id="STROKE_c897747e-c807-4eab-8c73-2257e288353d"
     opacity="1"
     fill="none"
     stroke="#FFFFFF"
     stroke-width="5"
     stroke-opacity="1"
     stroke-linecap="round"
     stroke-linejoin="round"
     d="m 369.389,2068.627 0.199,0.584 0.126,1.006 q -0.025,0.188 1.445,9.32 l 0.216,0.938" /><path
     id="STROKE_fa91b049-8fef-4429-95e4-bd118a4eed24"
     opacity="1"
     fill="none"
     stroke="#FFFFFF"
     stroke-width="5"
     stroke-opacity="1"
     stroke-linecap="round"
     stroke-linejoin="round"
     d="m 376.676,2066.107 -0.035,1.015 q -0.023,1.954 0.601,12.211 l 0.364,2.134" /><path
     id="STROKE_22802761-9a1d-47d3-99ce-67743826e94b"
     opacity="1"
     fill="none"
     stroke="#FFFFFF"
     stroke-width="5"
     stroke-opacity="1"
     stroke-linecap="round"
     stroke-linejoin="round"
     d="m 351.589,2148.456 0.744,-0.309 q -0.003,0.01 2.526,-0.44 2.529,-0.45 3.768,-0.492 1.239,-0.042 2.652,0.182 1.413,0.225 1.718,0.316 0.305,0.092 1.63,0.793 3.18,3.088 3.528,3.618 0.347,0.529 0.893,1.833 0.546,1.303 0.866,3.251 -0.102,2.489 -0.239,3.135 -0.137,0.645 -0.506,1.471 -0.369,0.827 -0.695,1.355 -0.327,0.528 -1.06,1.314 -0.733,0.787 -2.113,1.702 -1.381,0.915 -2.89,1.502 -1.509,0.586 -2.6,0.777 -1.092,0.191 -1.811,0.295 -0.719,0.103 -1.844,0.127 -1.125,0.025 -1.827,0.035 -0.702,0.01 -1.578,-0.027 l -0.907,-0.178" /><path
     id="STROKE_6f7118f7-5688-4280-9f03-01b347a79dec"
     opacity="1"
     fill="none"
     stroke="#FFFFFF"
     stroke-width="5"
     stroke-opacity="1"
     stroke-linecap="round"
     stroke-linejoin="round"
     d="m 350.386,2149.589 0.233,0.255 0.588,0.517 0.523,0.355 q 1.582,0.988 1.637,1.031 0.055,0.043 0.584,0.39 0.529,0.347 1.507,1.255 0.978,0.908 1.036,0.998 0.058,0.09 0.436,0.581 0.378,0.491 0.769,1.388 0.39,0.898 0.369,2.296 -0.021,1.397 -0.131,1.677 -0.11,0.279 -0.416,0.789 -0.306,0.51 -0.757,1.021 -0.45,0.511 -1.084,1.011 -0.633,0.5 -1.781,1.608 -0.198,0.144 -3.112,2.491" /><path
     id="STROKE_751811de-50bb-4068-b1fd-6d5dbc9f876a"
     opacity="1"
     fill="none"
     stroke="#FFFFFF"
     stroke-width="5"
     stroke-opacity="1"
     stroke-linecap="round"
     stroke-linejoin="round"
     d="m 369.261,1991.699 -0.183,0.035 q -0.498,-0.163 -1.246,-0.26 -0.749,-0.096 -2.026,-0.089 -1.277,0.01 -1.818,0.128 -0.542,0.121 -1.525,0.673 -0.983,0.552 -1.494,0.958 -0.512,0.405 -0.726,0.678 -0.214,0.273 -0.472,0.837 -0.258,0.565 -0.45,2.157 -0.191,1.593 0.053,2.477 0.245,0.885 0.263,0.952 0.018,0.067 0.345,0.605 0.326,0.539 0.685,0.892 0.358,0.352 0.906,0.569 0.548,0.217 1.111,0.279 0.562,0.061 0.939,0.085 0.377,0.023 1.218,-0.187 0.842,-0.21 1.761,-0.781 0.92,-0.571 1.36,-1.014 0.44,-0.444 0.99,-1.285 0.549,-0.842 0.754,-1.325 0.204,-0.482 0.279,-0.682 0.075,-0.199 0.395,-1.588 0.319,-1.389 0.594,-2.396" /><path
     id="STROKE_ed82cc5c-5cc3-46de-972f-b5c462074a2a"
     opacity="1"
     fill="none"
     stroke="#FFFFFF"
     stroke-width="5"
     stroke-opacity="1"
     stroke-linecap="round"
     stroke-linejoin="round"
     d="m 375.419,1987.665 q 0.927,-1.124 2.715,-2.519" /><path
     id="STROKE_16ae2258-0c88-4dd4-9692-f4410ba25e09"
     opacity="1"
     fill="none"
     stroke="#FFFFFF"
     stroke-width="5"
     stroke-opacity="1"
     stroke-linecap="round"
     stroke-linejoin="round"
     d="m 379.063,1994.346 q 1.05,-0.339 3.116,-1.26" /><path
     id="STROKE_ef13ecaf-b3c0-414f-97c1-ee0c4e5e806d"
     opacity="1"
     fill="none"
     stroke="#FFFFFF"
     stroke-width="5"
     stroke-opacity="1"
     stroke-linecap="round"
     stroke-linejoin="round"
     d="m 378.207,2001.498 q 0.569,0.029 3.899,1.846" /><path
     id="STROKE_5c986f88-6a8f-442f-9c20-bbf5c83b04b6"
     opacity="1"
     fill="none"
     stroke="#FFFFFF"
     stroke-width="5"
     stroke-opacity="1"
     stroke-linecap="round"
     stroke-linejoin="round"
     d="m 372.304,2008.574 q 0.556,0.897 2.715,4.238" /><path
     id="STROKE_0a8942b4-35b3-4688-837d-c5fabcdd849c"
     opacity="1"
     fill="none"
     stroke="#FFFFFF"
     stroke-width="5"
     stroke-opacity="1"
     stroke-linecap="round"
     stroke-linejoin="round"
     d="m 361.919,2015.331 0.442,0.721 0.054,0.427 q 0.083,0.099 0.162,1.122 0.08,1.023 0.326,2.235" /><path
     id="STROKE_806dd5ef-09e0-4e3f-89ee-4616b13de550"
     opacity="1"
     fill="none"
     stroke="#FFFFFF"
     stroke-width="5"
     stroke-opacity="1"
     stroke-linecap="round"
     stroke-linejoin="round"
     d="m 352.973,2008.116 q -0.92,0.332 -2.504,1.436 -1.583,1.105 -4.255,2.534" /><path
     id="STROKE_ad5abbe0-519c-4751-a558-faa760532bae"
     opacity="1"
     fill="none"
     stroke="#FFFFFF"
     stroke-width="5"
     stroke-opacity="1"
     stroke-linecap="round"
     stroke-linejoin="round"
     d="m 353.957,1999.78 q -1.042,-0.116 -3.098,0.205 -2.056,0.32 -3.442,0.457" /><path
     id="STROKE_fd6f3372-4e2e-44a0-b3c8-a593eba7d1be"
     opacity="1"
     fill="none"
     stroke="#FFFFFF"
     stroke-width="5"
     stroke-opacity="1"
     stroke-linecap="round"
     stroke-linejoin="round"
     d="m 356.417,1989.447 -1.516,-0.285 -3.385,-1.166" /><path
     id="STROKE_aefae263-71cc-44f9-b94c-78717714b6eb"
     opacity="1"
     fill="none"
     stroke="#FFFFFF"
     stroke-width="5"
     stroke-opacity="1"
     stroke-linecap="round"
     stroke-linejoin="round"
     d="m 362.648,1982.435 -0.146,-1.474 -0.401,-0.919" /><path
     id="STROKE_e69579f0-287a-428a-a619-af435512708e"
     opacity="1"
     fill="none"
     stroke="#FFFFFF"
     stroke-width="5"
     stroke-opacity="1"
     stroke-linecap="round"
     stroke-linejoin="round"
     d="m 335.629,2002.949 q 0.165,1.199 0.716,3.55 0.551,2.35 1.348,5.398 0.796,3.049 1.205,4.575 0.409,1.525 0.981,3.187 0.572,1.662 0.779,2.381 0.207,0.72 0.455,1.7 0.248,0.98 0.85,2.73 0.601,1.749 0.972,2.682 0.371,0.934 0.88,2.265 0.51,1.332 0.988,2.618 0.478,1.286 1.329,3.422 1.497,3.669 1.764,4.394 0.268,0.725 0.545,1.384 0.277,0.659 1.016,2.613" /><path
     id="STROKE_6fbb50e2-207d-4d6c-b563-a89f14e737f9"
     opacity="1"
     fill="none"
     stroke="#FFFFFF"
     stroke-width="5"
     stroke-opacity="1"
     stroke-linecap="round"
     stroke-linejoin="round"
     d="m 336.012,2002.224 0.095,0.215 0.455,0.65 q 0.911,0.682 2.453,1.735 1.102,2.614 1.249,2.839 0.146,0.224 0.852,2.389 0.707,2.165 1.353,4.396 0.646,2.23 0.964,3.306 0.319,1.076 0.828,2.663 0.51,1.586 1.192,3.491 0.683,1.904 1.204,3.456 0.52,1.553 1.15,3.421 0.629,1.868 1.158,3.293 0.528,1.425 0.788,2.138 0.259,0.712 0.554,1.674 0.295,0.963 0.849,2.698 0.554,1.736 0.767,2.321 l 0.577,1.615" /><path
     id="STROKE_ec8e685d-bf80-47b5-8701-48b4e3c415b9"
     opacity="1"
     fill="none"
     stroke="#FFFFFF"
     stroke-width="5"
     stroke-opacity="1"
     stroke-linecap="round"
     stroke-linejoin="round"
     d="m 335.629,2002.885 0.145,0.137 q 0.243,-0.085 0.49,-0.107 0.246,-0.022 0.509,0 0.264,0.027 1.102,0.453 l 2.054,2.364" /><path
     id="STROKE_e1a7df6e-ceea-49a4-9959-0057e52c46f5"
     opacity="1"
     fill="none"
     stroke="#FFFFFF"
     stroke-width="5"
     stroke-opacity="1"
     stroke-linecap="round"
     stroke-linejoin="round"
     d="m 283.978,2026.784 1.888,0.508 2.339,0.752" /><path
     id="STROKE_61bae3d6-9875-42bf-a1f9-74f126d6ea8e"
     opacity="1"
     fill="none"
     stroke="#FFFFFF"
     stroke-width="5"
     stroke-opacity="1"
     stroke-linecap="round"
     stroke-linejoin="round"
     d="m 296.094,2034.725 q 1.265,0.138 2.189,0.264 0.924,0.126 2.311,0.334" /><path
     id="STROKE_bfc3cdbf-07f0-427c-b970-56e292b9f586"
     opacity="1"
     fill="none"
     stroke="#FFFFFF"
     stroke-width="5"
     stroke-opacity="1"
     stroke-linecap="round"
     stroke-linejoin="round"
     d="m 310.469,2041.877 q 0.775,0.233 2.441,1.26" /><path
     id="STROKE_1e1d9506-6998-4643-b48c-027ecfc67466"
     opacity="1"
     fill="none"
     stroke="#FFFFFF"
     stroke-width="5"
     stroke-opacity="1"
     stroke-linecap="round"
     stroke-linejoin="round"
     d="m 321.181,2050.022 q 0.406,0.06 0.511,0.023 0.106,-0.037 0.314,0.168 0.208,0.205 2.765,1.4" /><path
     id="STROKE_40784b6d-18fe-4a95-963d-4d647cb49580"
     opacity="1"
     fill="none"
     stroke="#FFFFFF"
     stroke-width="5"
     stroke-opacity="1"
     stroke-linecap="round"
     stroke-linejoin="round"
     d="m 332.641,2055.112 q 1.69,0.849 4.245,1.985" /><path
     id="STROKE_5f423eec-acd9-4e8d-ba19-05ce7ed1d461"
     opacity="1"
     fill="none"
     stroke="#FFFFFF"
     stroke-width="5"
     stroke-opacity="1"
     stroke-linecap="round"
     stroke-linejoin="round"
     d="m 377.077,2096.955 q 0.04,0.388 0.172,1.111 0.131,0.724 0.616,2.213 0.484,1.49 0.901,2.704 0.416,1.215 0.56,1.559 0.144,0.344 1.718,5.122 1.574,4.778 2.791,8.411 1.217,3.633 2.02,5.829 0.803,2.197 2.066,5.549 1.262,3.352 2.64,7.191 1.379,3.838 2.392,6.244 1.013,2.406 1.849,4.234 0.835,1.827 1.679,3.94 0.843,2.113 1.542,3.722 0.698,1.608 1.082,2.357 0.383,0.749 1.833,3.957 l 0.77,1.542 0.931,2.105" /><path
     id="STROKE_05c704ef-f237-4ff0-a0f2-9be043e8c73e"
     opacity="1"
     fill="none"
     stroke="#FFFFFF"
     stroke-width="5"
     stroke-opacity="1"
     stroke-linecap="round"
     stroke-linejoin="round"
     d="m 390.122,2140.91 -0.408,0.542 -0.055,0.23 q -0.481,1.147 -1.951,3.9 -1.47,2.752 -2.597,4.84 -1.127,2.089 -3.287,6.013 -1.719,3.263 -2.433,4.594" /><path
     id="STROKE_7c2d44c2-e4af-4939-8e81-13bd336b2ce2"
     opacity="1"
     fill="none"
     stroke="#FFFFFF"
     stroke-width="5"
     stroke-opacity="1"
     stroke-linecap="round"
     stroke-linejoin="round"
     d="m 378.334,2161.5 1.624,0.963 q 0.315,0.109 2.131,0.509 1.815,0.4 3.658,0.76 1.843,0.36 2.881,0.587 1.037,0.227 2.896,0.41 1.859,0.184 2.607,0.249 0.749,0.064 7.26,0.154 l 1.976,-0.45" /><path
     id="STROKE_ea91ebbf-25a9-4cc7-9497-b56930775fd0"
     opacity="1"
     fill="none"
     stroke="#FFFFFF"
     stroke-width="5"
     stroke-opacity="1"
     stroke-linecap="round"
     stroke-linejoin="round"
     d="m 386.15,2150.708 0.216,0.76 0.193,2.062 q 0.042,0.283 0.694,8.613 l 0.082,0.744" /><path
     id="STROKE_4d7574dd-122e-4091-86eb-682ccfcc1d18"
     opacity="1"
     fill="none"
     stroke="#FFFFFF"
     stroke-width="5"
     stroke-opacity="1"
     stroke-linecap="round"
     stroke-linejoin="round"
     d="m 393.62,2144.88 q -0.081,0.494 -0.07,2.126 0.011,1.632 0.062,3.228 0.05,1.596 0.102,2.76 0.051,1.164 0.122,3.426 0.072,2.262 0.076,2.476 0.004,0.214 0.21,4.356 l 0.099,1.43" /><path
     id="STROKE_06489e4a-7620-4400-b00c-9cadd45e363d"
     opacity="1"
     fill="none"
     stroke="#FFFFFF"
     stroke-width="5"
     stroke-opacity="1"
     stroke-linecap="round"
     stroke-linejoin="round"
     d="m 379.865,2050.022 q 0.104,-0.415 2.574,-5.576 2.47,-5.161 4.879,-10.112 2.41,-4.951 4.171,-8.36 1.762,-3.409 3.31,-6.486 1.549,-3.077 3.3,-6.561 1.752,-3.483 3.445,-6.897 1.694,-3.414 2.271,-4.495 0.578,-1.081 1.123,-2.202 0.546,-1.121 0.905,-1.902 0.36,-0.781 0.785,-1.593 0.426,-0.811 1.039,-2.103 0.612,-1.291 1.999,-4.302 0.082,-0.276 1.24,-2.547 l 1.662,-2.937" /><path
     id="STROKE_31f84d3b-588e-4823-b873-ddc4f23793dd"
     opacity="1"
     fill="none"
     stroke="#FFFFFF"
     stroke-width="5"
     stroke-opacity="1"
     stroke-linecap="round"
     stroke-linejoin="round"
     d="m 388.464,2082.854 q 0.908,0.117 1.855,0.332 0.948,0.214 1.257,0.318 0.308,0.104 1.22,0.302 0.911,0.199 2.82,0.548 1.91,0.349 3.159,0.585 1.249,0.237 2.012,0.414 0.762,0.176 2.385,0.599 1.622,0.423 3.664,1.019 2.041,0.595 3.56,1.015 1.519,0.419 1.569,0.421 0.05,0 2.398,0.641 2.348,0.639 5.83,1.535 3.482,0.896 6.155,1.525 2.672,0.63 5.538,1.278 2.866,0.648 5.97,1.384 3.104,0.735 6.361,1.434 3.257,0.698 4.889,1.005 1.633,0.308 3.435,0.554 1.802,0.245 3.549,0.466 1.746,0.22 2.089,0.242 0.343,0.023 2.469,0.342" /><path
     id="STROKE_0d47af7a-b753-4ed8-b0af-e15fdb8385bd"
     opacity="1"
     fill="none"
     stroke="#FFFFFF"
     stroke-width="5"
     stroke-opacity="1"
     stroke-linecap="round"
     stroke-linejoin="round"
     d="m 390.45,2067.825 1.057,-0.328 q 0.565,-0.117 1.836,-0.272 1.271,-0.156 5.173,-0.534 3.901,-0.379 5.079,-0.484 1.178,-0.105 7.56,-0.459 6.382,-0.353 10.136,-0.452 3.754,-0.099 5.935,-0.19 2.181,-0.092 3.135,-0.11 0.953,-0.018 6.449,-0.058 5.495,-0.04 8.629,-0.073 3.133,-0.032 4.525,-0.04 1.392,-0.01 4.553,-0.168 3.16,-0.16 6.284,-0.383 3.124,-0.222 5.702,-0.416 2.578,-0.195 4.363,-0.418 l 3.027,-0.578" /><path
     id="STROKE_8c4f21d3-e12a-4949-9ee9-76fadc97dfa1"
     opacity="1"
     fill="none"
     stroke="#FFFFFF"
     stroke-width="5"
     stroke-opacity="1"
     stroke-linecap="round"
     stroke-linejoin="round"
     d="m 385.476,2056.906 q 0.244,-0.19 0.935,-0.596 0.692,-0.406 1.406,-0.89 0.713,-0.483 1.417,-1.013 0.703,-0.53 0.8,-0.63 0.098,-0.099 6.831,-6.102 6.734,-6.002 11.154,-9.855 4.421,-3.853 6.321,-5.397 1.901,-1.545 4.817,-3.813 2.916,-2.268 4.634,-3.679 1.717,-1.411 3.672,-3.166 1.954,-1.755 4.297,-3.868 2.343,-2.113 3.432,-3.117 1.088,-1.005 1.902,-1.724 0.815,-0.719 2.175,-1.997 1.361,-1.277 1.779,-1.699 0.419,-0.422 3.895,-3.56" /><path
     id="STROKE_d1e1a6ff-fbf7-4ed0-af37-3880faaad3ef"
     opacity="1"
     fill="none"
     stroke="#FFFFFF"
     stroke-width="5"
     stroke-opacity="1"
     stroke-linecap="round"
     stroke-linejoin="round"
     d="m 384.747,2042.208 0.554,1.249 q 0.232,0.629 0.577,1.269 0.344,0.64 0.418,0.811 0.075,0.171 2.696,5.21" /><path
     id="STROKE_ae2d9910-5cf4-4a95-b5b3-40188e0688e0"
     opacity="1"
     fill="none"
     stroke="#FFFFFF"
     stroke-width="5"
     stroke-opacity="1"
     stroke-linecap="round"
     stroke-linejoin="round"
     d="m 392.363,2040.948 0.474,-0.267" /><path
     id="STROKE_73ded623-f067-4ccf-92bd-3244b1cf6c18"
     opacity="1"
     fill="none"
     stroke="#FFFFFF"
     stroke-width="5"
     stroke-opacity="1"
     stroke-linecap="round"
     stroke-linejoin="round"
     d="m 395.078,2025.257 0.044,0.356 0.334,1.465 q 0.37,1.353 1.542,4.741 1.172,3.387 1.58,5 0.409,1.613 0.945,3.608" /><circle
     id="STROKE_a112ed8e-99da-4034-bab9-b160ee04ec36"
     opacity="1"
     fill="#FFFFFF"
     stroke="#FFFFFF"
     stroke-width="0.1"
     stroke-opacity="1"
     fill-opacity="1"
     cx="404.29599"
     cy="2025.067"
     r="2.5" /><path
     id="STROKE_41649405-086b-4b6b-a7c5-dd579b954e61"
     opacity="1"
     fill="none"
     stroke="#FFFFFF"
     stroke-width="5"
     stroke-opacity="1"
     stroke-linecap="round"
     stroke-linejoin="round"
     d="m 406.738,2005.011 0.369,0.675 q 0.125,0.292 0.863,3.309 0.739,3.017 1.524,5.586 0.785,2.569 1.703,5.128 0.917,2.56 1.267,3.422 0.35,0.862 0.947,2.191 0.597,1.328 2.527,6.362" /><circle
     id="STROKE_32b9746c-022d-4753-a65b-f4e4c74e9171"
     opacity="1"
     fill="#FFFFFF"
     stroke="#FFFFFF"
     stroke-width="0.1"
     stroke-opacity="1"
     fill-opacity="1"
     cx="416.66699"
     cy="2009.375"
     r="2.5" /><path
     id="STROKE_eeb3cb5f-62ce-48b8-bdd4-1a717979acd6"
     opacity="1"
     fill="none"
     stroke="#FFFFFF"
     stroke-width="5"
     stroke-opacity="1"
     stroke-linecap="round"
     stroke-linejoin="round"
     d="m 418.598,1985.871 0.252,0.486 q 1.51,5.687 2.072,7.412 0.563,1.725 1.113,3.49 0.55,1.765 1.408,4.665 0.859,2.901 1.363,4.527 0.505,1.627 1.456,4.238 0.952,2.61 1.412,3.77 0.46,1.16 1.51,4.117" /><circle
     id="STROKE_9c9d3767-7f5d-4203-bd09-3d5290e8c6c4"
     opacity="1"
     fill="#FFFFFF"
     stroke="#FFFFFF"
     stroke-width="0.1"
     stroke-opacity="1"
     fill-opacity="1"
     cx="430.38599"
     cy="1996.2679"
     r="2.5" /><path
     id="STROKE_d7c21e67-cc4a-48ef-a304-41ee6d9eb64b"
     opacity="1"
     fill="none"
     stroke="#FFFFFF"
     stroke-width="5"
     stroke-opacity="1"
     stroke-linecap="round"
     stroke-linejoin="round"
     d="m 437.929,1996.93 q 0.111,0.664 0.512,3.257 0.4,2.592 1.546,7.598" /><path
     id="STROKE_cea32db7-cbc6-4bf5-bf56-a114cc39065a"
     opacity="1"
     fill="none"
     stroke="#FFFFFF"
     stroke-width="5"
     stroke-opacity="1"
     stroke-linecap="round"
     stroke-linejoin="round"
     d="m 396.808,2069.811 0.092,0.303 q -0.06,0.638 4.291,13.537 l 0.136,0.161 0.51,0.824" /><path
     id="STROKE_de309d5c-24fe-418e-af4f-c6588ccc4ef6"
     opacity="1"
     fill="none"
     stroke="#FFFFFF"
     stroke-width="5"
     stroke-opacity="1"
     stroke-linecap="round"
     stroke-linejoin="round"
     d="m 415.082,2069.353 0.073,-1.986" /><path
     id="STROKE_1de68ceb-9db8-47f2-adef-950d7b690c2e"
     opacity="1"
     fill="none"
     stroke="#FFFFFF"
     stroke-width="5"
     stroke-opacity="1"
     stroke-linecap="round"
     stroke-linejoin="round"
     d="m 414.955,2066.438 q -0.02,0.293 0.006,1.273 0.026,0.979 0.049,1.251 0.022,0.273 1.043,5.613 1.022,5.341 1.998,8.548 0.976,3.207 1.732,5.624" /><path
     id="STROKE_8ac2fb79-818d-4e29-ac71-8c43281773a2"
     opacity="1"
     fill="none"
     stroke="#FFFFFF"
     stroke-width="5"
     stroke-opacity="1"
     stroke-linecap="round"
     stroke-linejoin="round"
     d="m 435.087,2066.896 0.084,0.416 0.342,1.709 q 0.009,0.312 1.954,6.682 1.945,6.37 2.905,9.12 0.96,2.751 1.364,4.031 0.403,1.28 0.525,1.7 0.121,0.421 0.496,1.769" /><path
     id="STROKE_d33ec6c9-eb7a-46b1-8be2-836b8bf6dc45"
     opacity="1"
     fill="none"
     stroke="#FFFFFF"
     stroke-width="5"
     stroke-opacity="1"
     stroke-linecap="round"
     stroke-linejoin="round"
     d="m 451.903,2066.706 0.607,0.812 q 0.039,0.259 0.998,2.908 0.959,2.648 2.005,6.011 1.046,3.363 1.729,6.101 0.683,2.738 0.981,3.936 0.299,1.197 0.778,2.901 0.48,1.703 0.549,1.908 0.07,0.205 0.867,2.927 0.797,2.722 1.488,4.73" /><path
     id="STROKE_74289a89-7191-4877-bdbd-cac06cef8394"
     opacity="1"
     fill="none"
     stroke="#FFFFFF"
     stroke-width="5"
     stroke-opacity="1"
     stroke-linecap="round"
     stroke-linejoin="round"
     d="m 471.561,2065.306 0.132,0.361 q 0.023,0.15 0.728,3.426 0.705,3.276 0.798,3.772" /><path
     id="STROKE_5e5f9b5e-34e7-4c3f-81d4-04bf9d9deb5a"
     opacity="1"
     fill="none"
     stroke="#FFFFFF"
     stroke-width="5"
     stroke-opacity="1"
     stroke-linecap="round"
     stroke-linejoin="round"
     d="m 274.287,2082.173 0.312,-0.241 q 0.416,-0.411 0.449,-0.46 0.032,-0.05 0.48,-0.15 0.449,-0.1 1.343,-0.155 0.13,0.25 0.094,0.29 -0.037,0.039 -0.087,0.171 -0.049,0.132 -0.015,0.061 0.034,-0.07 -0.267,0.718 l -0.342,-0.01 q -0.19,0.108 -0.876,-0.651 l -0.635,-0.429" /><path
     id="STROKE_1a3ac70a-0e93-4721-831b-e274772be1f5"
     opacity="1"
     fill="none"
     stroke="#FFFFFF"
     stroke-width="5"
     stroke-opacity="1"
     stroke-linecap="round"
     stroke-linejoin="round"
     d="m 320.108,2147.584 q -0.011,-0.066 -0.431,-0.133 l 0.041,-0.357 q 0.128,-0.15 0.263,-0.095 0.135,0.055 0.054,-0.077" /><path
     id="STROKE_f8c1eb4f-c70d-4a16-b2fd-f80f12626ff9"
     opacity="1"
     fill="none"
     stroke="#FFFFFF"
     stroke-width="5"
     stroke-opacity="1"
     stroke-linecap="round"
     stroke-linejoin="round"
     d="m 294.474,2012.474 0.665,0.599 q 0.264,-0.348 0.865,0.19" /><path
     id="STROKE_96dc5f6e-8d4c-47e4-a13d-031afd730728"
     opacity="1"
     fill="none"
     stroke="#FFFFFF"
     stroke-width="5"
     stroke-opacity="1"
     stroke-linecap="round"
     stroke-linejoin="round"
     d="m 441.41,2125.734 q 0.147,-0.238 0.401,-0.191" /><circle
     id="STROKE_37e7b16d-bf17-48e2-a7c4-52673fcc1907"
     opacity="1"
     fill="#FFFFFF"
     stroke="#FFFFFF"
     stroke-width="0.1"
     stroke-opacity="1"
     fill-opacity="1"
     cx="283.54199"
     cy="2108.3889"
     r="2.5" /><path
     id="STROKE_26a90a28-6951-4a67-ac53-744bca8bb34c"
     opacity="1"
     fill="none"
     stroke="#FFFFFF"
     stroke-width="5"
     stroke-opacity="1"
     stroke-linecap="round"
     stroke-linejoin="round"
     d="m 297.061,2133.344 q -0.684,-0.357 -0.925,-0.357 l -0.533,-0.636" /><path
     id="STROKE_2a00bea4-4d64-40db-9168-4e5f40bec0b6"
     opacity="1"
     fill="none"
     stroke="#FFFFFF"
     stroke-width="5"
     stroke-opacity="1"
     stroke-linecap="round"
     stroke-linejoin="round"
     d="m 278.915,2056.429 q -0.114,0.383 -0.145,0.404 -0.032,0.022 -0.042,-0.096 -0.009,-0.117 0.26,0.545" /><circle
     id="STROKE_ac1169e0-715f-43ea-ba18-3072bc3e9f56"
     opacity="1"
     fill="#FFFFFF"
     stroke="#FFFFFF"
     stroke-width="0.1"
     stroke-opacity="1"
     fill-opacity="1"
     cx="281.556"
     cy="2038.0909"
     r="2.5" /><path
     id="STROKE_71f80ad5-7915-4a0b-a992-02ad080642b1"
     opacity="1"
     fill="none"
     stroke="#FFFFFF"
     stroke-width="5"
     stroke-opacity="1"
     stroke-linecap="round"
     stroke-linejoin="round"
     d="m 311.563,1999.761 0.394,0.063 0.083,0.233 q -0.065,0 0.247,-0.407 l 0.46,-0.156" /><path
     id="STROKE_d7aef2aa-9883-4519-9fb6-b5c8a628f0d1"
     opacity="1"
     fill="none"
     stroke="#FFFFFF"
     stroke-width="5"
     stroke-opacity="1"
     stroke-linecap="round"
     stroke-linejoin="round"
     d="m 331.95,1990.496 0.565,-0.247 0.543,0.556 q 0.443,-0.247 1.078,-0.716" /><path
     id="STROKE_56022941-4722-4516-8d2e-cefb3ed588fa"
     opacity="1"
     fill="none"
     stroke="#FFFFFF"
     stroke-width="5"
     stroke-opacity="1"
     stroke-linecap="round"
     stroke-linejoin="round"
     d="m 386.516,1984.464 q 0.206,-0.214 0.299,-0.202 0.093,0.012 0.189,0.064 0.096,0.051 0.458,0.351 0.363,0.299 0.967,0.385" /><path
     id="STROKE_bec1050b-d81d-4606-a63d-a33e58d330f3"
     opacity="1"
     fill="none"
     stroke="#FFFFFF"
     stroke-width="5"
     stroke-opacity="1"
     stroke-linecap="round"
     stroke-linejoin="round"
     d="m 411.221,1987.379 0.045,0.056 0.091,0.357 q -0.072,-0.01 -0.11,-0.153 -0.037,-0.145 0.079,-0.206 0.116,-0.061 0.192,-0.102 0.075,-0.042 0.473,0 l 0.106,0.373 -0.182,0.199 -0.239,0.07" /><path
     id="STROKE_e4870635-691a-4cf3-ab6b-2e3619a3733c"
     opacity="1"
     fill="none"
     stroke="#FFFFFF"
     stroke-width="5"
     stroke-opacity="1"
     stroke-linecap="round"
     stroke-linejoin="round"
     d="m 446.056,2008.364 -0.453,-0.159 -0.222,-0.045 -0.177,-0.292 -0.424,-0.764" /><path
     id="STROKE_ca34ea5f-98ac-47b1-8756-bcebb951e84e"
     opacity="1"
     fill="none"
     stroke="#FFFFFF"
     stroke-width="5"
     stroke-opacity="1"
     stroke-linecap="round"
     stroke-linejoin="round"
     d="m 460.813,2043.843 q 0.133,0.397 0.157,0.63 -0.012,0.188 -0.22,0.3 -0.091,0.206 -0.265,0.864" /><path
     id="STROKE_4047f8ae-b74c-41d0-9f83-917b9b860d83"
     opacity="1"
     fill="none"
     stroke="#FFFFFF"
     stroke-width="5"
     stroke-opacity="1"
     stroke-linecap="round"
     stroke-linejoin="round"
     d="m 450.155,2021.535 q -0.816,0.05 -0.939,0.104 -0.122,0.054 -0.289,0.129 -0.166,0.075 -0.885,0.034" /><path
     id="STROKE_da7e464b-50b3-449b-bed3-f0610d06d34f"
     opacity="1"
     fill="none"
     stroke="#FFFFFF"
     stroke-width="5"
     stroke-opacity="1"
     stroke-linecap="round"
     stroke-linejoin="round"
     d="m 467.172,2064.968 -0.164,0.33 -0.093,-0.114 -0.342,-0.05 -0.07,-0.078 q -0.033,0.033 0.022,0.046 0.055,0.012 0.144,0.083 0.088,0.07 0.055,0.242 -0.034,0.173 -0.329,0.495 -0.487,0.204 -0.954,0.102" /><path
     id="STROKE_adef4219-045a-474e-8bf2-f6af945d039c"
     opacity="1"
     fill="none"
     stroke="#FFFFFF"
     stroke-width="5"
     stroke-opacity="1"
     stroke-linecap="round"
     stroke-linejoin="round"
     d="m 463.455,2086.284 0.108,-0.391 q -0.187,0.359 -0.586,0.352 -0.028,-0.218 -0.105,-0.228" /><path
     id="STROKE_5dd1d3dc-412a-413e-9af0-5c890f93341f"
     opacity="1"
     fill="none"
     stroke="#FFFFFF"
     stroke-width="5"
     stroke-opacity="1"
     stroke-linecap="round"
     stroke-linejoin="round"
     d="m 453.471,2109.712 q -1.657,-0.112 -2.587,-0.191" /><path
     id="STROKE_876f75a5-3ed5-4463-81a4-77f4bb82c083"
     opacity="1"
     fill="none"
     stroke="#FFFFFF"
     stroke-width="5"
     stroke-opacity="1"
     stroke-linecap="round"
     stroke-linejoin="round"
     d="m 417.634,2147.584 0.313,-0.214 q -0.063,0.178 -0.118,0.036 -0.055,-0.143 0.044,-0.354 0.098,-0.212 0.49,-0.46" /><path
     id="STROKE_c70ae69b-f211-45d3-890c-ba2d82fb20fd"
     opacity="1"
     fill="none"
     stroke="#FFFFFF"
     stroke-width="5"
     stroke-opacity="1"
     stroke-linecap="round"
     stroke-linejoin="round"
     d="m 431.936,2135.736 -0.531,0.746 q -0.262,0.302 -1.109,1.1" /><path
     id="STROKE_d7efbb7a-ef69-407a-b399-e5682dd8a5c9"
     opacity="1"
     fill="none"
     stroke="#FFFFFF"
     stroke-width="5"
     stroke-opacity="1"
     stroke-linecap="round"
     stroke-linejoin="round"
     d="m 399.834,2155.919 q 0.129,-0.451 0.115,-0.576 0.113,-0.172 0.664,-0.221 0.148,0.04 0.193,0.326 l -0.188,0.204" /><path
     id="STROKE_fbabee51-6d29-40b7-b0d4-5697b4369fb5"
     opacity="1"
     fill="none"
     stroke="#FFFFFF"
     stroke-width="5"
     stroke-opacity="1"
     stroke-linecap="round"
     stroke-linejoin="round"
     d="m 370.155,2162.537 0.35,0.087 10e-4,0.105 -0.136,-0.01 -0.062,-0.099 0.155,-0.164 0.135,-0.327 q 0.133,-0.088 0.327,-0.088 0.194,0 0.397,0.054 0.203,0.055 0.564,0.581" /><path
     id="STROKE_7f2dc965-3e8d-4d16-a7c3-f9f44d1e114e"
     opacity="1"
     fill="none"
     stroke="#FFFFFF"
     stroke-width="5"
     stroke-opacity="1"
     stroke-linecap="round"
     stroke-linejoin="round"
     d="m 342.353,2156.912 -0.051,0.792 q -0.214,0 -0.255,0.06 -0.042,0.058 0.106,1.21" /><path
     id="STROKE_8e40f6d6-6eba-4e38-ba30-0f0f8f949a72"
     opacity="1"
     fill="none"
     stroke="#FFFFFF"
     stroke-width="5"
     stroke-opacity="1"
     stroke-linecap="round"
     stroke-linejoin="round"
     d="m 173.479,2087.151 q 0.295,-0.508 0.895,-2.864 0.6,-2.355 1.628,-4.469 1.029,-2.114 2.04,-3.3 1.011,-1.187 1.806,-1.698 0.796,-0.51 1.215,-0.671 0.418,-0.16 0.703,-0.19 0.285,-0.03 0.749,0.072 0.465,0.102 0.57,0.156 0.104,0.053 1.233,0.704 1.129,0.651 2.159,1.505 1.029,0.854 3.354,4.617 2.325,3.763 2.543,4.079 0.219,0.316 0.897,1.107 0.678,0.792 3.379,2.527 0.096,0.034 1.337,-0.657 1.241,-0.69 2.349,-2.374 1.108,-1.685 1.563,-2.702 0.456,-1.017 0.889,-1.941 0.433,-0.925 1.322,-2.534 0.889,-1.609 1.505,-2.38 0.616,-0.771 1.285,-1.266 0.668,-0.496 1.462,-0.463 0.794,0.033 2.179,0.378 2.032,2.784 2.669,3.791 0.637,1.007 1.188,1.661 0.551,0.654 1.016,1.117 0.464,0.463 1.154,0.997 0.689,0.535 1.022,0.731 0.333,0.197 0.654,0.392 0.321,0.195 4.947,0.945 1.386,-0.872 2.459,-1.684 1.074,-0.812 1.874,-1.421 0.8,-0.609 2.62,-1.677 1.821,-1.068 2.684,-1.361 l 1.542,-0.324 1.76,-0.389 q 0.619,-0.088 5.402,-0.654 4.782,-0.567 6.668,-0.761 1.885,-0.193 2.06,-0.231 0.175,-0.037 1.373,-0.231" /><path
     id="STROKE_980be5fb-86b5-4556-af01-a5f69d2bdcb0"
     opacity="1"
     fill="none"
     stroke="#FFFFFF"
     stroke-width="5"
     stroke-opacity="1"
     stroke-linecap="round"
     stroke-linejoin="round"
     d="m 243.712,2071.245 q 0.38,-0.112 0.515,0.142 0.154,0.269 6.742,5.019 -0.097,0.776 -0.145,1.227 l -0.42,1.077 q -0.12,0.19 -3.457,4.949 l -0.746,0.765" /></g></svg>
