<svg xmlns="http://www.w3.org/2000/svg" xml:space="preserve" viewBox="0 0 960 480">
    <g fill="none" stroke="#FFF" stroke-linecap="round" stroke-linejoin="round" stroke-width="5" transform="translate(129.781 -2534.079)scale(1.33333)">
        <path d="M51.837 2018.865q-.047 2.252-.066 12.297-.019 10.044.181 18.337l.307 12.64q.106 4.347.203 6.693t.466 7.173.654 8.823q.284 3.997.594 10.325.309 6.328.461 9.722t.262 11.747q.11 8.355.116 16.597t.011 11.994.101 9.865.295 8.839q.199 2.725.449 4.376.251 1.651.405 2.336t1.011 2.894q.857 2.211 1.747 3.851t1.169 2.054.988 1.192 1.054 1.078.632.48 1.609.747q1.323.567 3.971 1.168 2.648.602 6.757 1.008 4.11.407 6.584.481t6.59-.048q4.115-.122 6.337-.211 2.222-.09 3.408-.171t3.842-.225q2.657-.144 4.023-.243 1.366-.1 3.743-.33 2.376-.231 2.701-.264t3.322-.26q2.997-.226 5.108-.443 2.112-.217 3.626-.428 1.515-.211 6.19-.601 4.674-.39 7.983-.688t5.718-.62q2.409-.324 3.802-.544 1.392-.219 2.155-.426t1.496-.395 2.127-.649 2.387-.964q.994-.503 1.683-1.024t1.138-1.043.902-1.256q.452-.735 1.115-2.674.663-1.938.99-4.412.327-2.473.313-3.638l-.054-4.529q-.04-3.364-.083-7.198t-.059-6.285q-.017-2.451-.017-4.697-.001-2.245-.117-9.243t-.322-11.083q-.205-4.086-.389-6.678-.183-2.592-.474-6.124t-.488-8.067q-.197-4.534-.365-7.068t-.45-8.611-.419-9.349q-.137-3.271-.471-6.946-.335-3.675-.49-6.356t-.3-9.015-.264-14.335q-.118-8.003-.316-12.377t-.39-6.4q-.193-2.026-.37-4.057-.178-2.032-.339-4.004-.161-1.973-.615-4.6-.455-2.628-.769-4.482-.313-1.853-.603-3.761t-.786-4.431q-.495-2.522-1.991-7.004t-2.344-5.647q-.849-1.164-1.506-1.743-.658-.578-1.692-1.061-1.035-.484-3.001-.837-1.967-.353-3.233-.433-1.265-.08-2.882-.189-1.616-.109-5.814-.577-4.197-.469-8.398-.735t-6.938-.354-5.927-.176q-3.189-.088-5.469-.056t-4.124.092q-1.845.061-4.178.26-2.334.198-4.844.545-2.51.346-4.041.562l-2.66.376q-1.13.16-2.755.428-1.625.267-2.7.462-1.074.194-2.013.36l-2.992.526q-2.053.361-4.25.895t-3.135.814q-.939.279-2.148.624t-2.164.677-2.315.94q-1.362.609-2.181 1.021t-1.582.886q-.762.473-.869.533-.108.06-.904.693t-1.623 1.517-1.394 1.754-.979 1.821-.647 1.805-.322 1.149-.318 3.028-.155 4.482.249 3.993.461 5.185q.288 2.939.506 5.363t.31 3.263.396 4.652"/>
        <path d="M107.459 2141.86q-1.051.235-2.322.506-1.272.272-2.811.662-1.539.389-2.699.814t-1.811.752q-.652.329-1.278.774-.625.444-2.774 3.385t-2.395 4.093q-.247 1.153-.295 1.81-.048.658-.009 1.475t.861 3.083q.822 2.265 1.243 3.001t1.163 1.703q.741.968 1.546 1.682.804.713 1.988 1.409 1.185.696 2.699 1.206 1.515.51 5.91.361t4.93-.341q.534-.191 1.496-.677.963-.487 3.441-2.472.726-.717 1.391-1.567.664-.851.911-1.252.247-.402.848-1.823.601-1.422.673-1.668.072-.247.252-1.339t.237-2.689q.058-1.599-.201-3.126t-.42-1.976q-.162-.449-1.948-3.273l-1.9-1.818q-.861-.508-1.933-1.081-1.541-.536-3.151-.881l-3.496-.465"/>
        <path d="M100.846 2151.188q.248.106 1.23.436.185.041 2.001 1.356 1.817 1.314 3.456 2.197 1.638.882 3.443 1.776"/>
        <path d="m102.959 2158.213.668-.63q.181-.252 5.29-8.38m-48.062-142.72.04-.149q.189-.271 3.963-5.336.387.88.683 1.754.296.875.659 2.224.363 1.348 1.952 6.04.128.171.446 1.754m13.318-10.588q-.072-.045-.258-.293-.186-.247-.375-.422t-.353-.361q-.164-.185-.603-.405-.439-.219-.982-.398-.544-.18-.695-.19t-.781-.042-1.421.256-1.193.737-.488.846-.083.682q.004.284.136.682t.582.939.817.751 1.108.38 1.214.174q.473 0 .879-.076.407-.079 1.126-.274t1.264-.481.632-.348.244-.119.177-.073q.02-.014.055.077.002.089.151.629.149.539.302 1.102t.322 1.535.141 1.577-.128 1.145-.272.953-.431.703q-.26.291-.735.648-.474.356-1.126.614-.652.257-1.503.255-.852-.001-1.151-.161t-1.746-.785m15.632-9.659.23-.961.353.032"/>
        <circle cx="93.959" cy="2009.855" r="2.5" fill="#FFF" stroke-width=".1"/>
        <path d="M102.103 2000.718q.162.122.059.445.083.053 2.686 5.43.261.058.791.129t1.062.165.56.09q.028 0 2.125.333l1.189.433m-.2-9.264.268.549q.064.212.453 3.265.39 3.053.739 4.902t.79 3.163l.464 1.419m13.245-5.752q-.189-.663-.616-1.41t-.606-.942-.556-.513q-.376-.317-1.161-.608-.785-.29-1.491-.197-.705.093-1.026.365-.32.273-.512.552-.192.28-.353.775t-.052 2.17q.11 1.675.181 1.918.072.244.315.514.242.27.617.515.375.246 1.117.471t1.263.149q.522-.076 1.207-.527.686-.452.938-.733.253-.282.444-.64t.82-2.457m-74.024 37.668 1.008-.12 1.789.436q1.119.336 3.622.512 2.503.175 6.359.154 3.856-.022 5.115-.101 1.258-.08 3.509-.317t4.321-.49 3.294-.415 6.883-.701q5.66-.539 11.267-1.186 5.607-.648 8.358-1.071t6.246-1.09 6.045-1.052 2.684-.383 2.394-.3q2.26-.3 3.837-.466 1.576-.165 2.689-.253 1.114-.087 3.133-.311 2.019-.223 5.764-.555 3.745-.331 5.76-.541t3.709-.419l2.801-.531m-96.943 54.008 1.909-.034q3.995-.439 6.256-.594 2.26-.154 3.973-.31t1.846-.187 1.852-.224q1.718-.192 6.082-.462 4.365-.27 7.008-.353t5.735-.091q3.092-.01 5.239 0 2.146 0 2.343.015.197.012 7.595.086 7.398.075 12.94.108t8.57.04q3.028.01 6.194-.039 3.165-.046 3.203-.054.037-.01 2.834-.112 2.798-.104 4.444-.158t2.853-.089 2.266-.178q1.058-.142 1.531-.183t1.81-.274q1.336-.234 4.887-.671m-22.446-39.198.417.134q.079.134 1.588 1.472t4.039 2.176q.242-.13 1.279-.642 1.037-.513 4.137-2.606"/>
        <circle cx="61.584" cy="2059.97" r="2.5" fill="#FFF" stroke-width=".1"/>
        <path d="m66.084 2058.914-.328 2.112"/>
        <circle cx="77.016" cy="2057.921" r="2.5" fill="#FFF" stroke-width=".1"/>
        <path d="m82.572 2058.85.391-.269q.189-.193.393-.533m15.632-.662q.531.075 1.449-.098t1.266-.209q.348-.035 2.943-.148 2.595-.114 3.765-.184.675-.085 1.564 0 .888.086 1.15.105.261.018 1.587-.071.416-.085 1.201-.157t1.937-.062q1.151.011 5.201-.104m-59.941 18.936q-.116.405.748.218-.057-.059-.019.647m3.243-.802q.744-.592 1.057-.522m13.117-1.794q-.206 1.545-.4 2.647m3.917-2.049q.37.95.23 1.335-.14.384-.176 1.248m17.491-2.252q.381.01.793.049.411.042 1.14-.018.729-.059 2.539-.353 1.809-.295 2.454-.402t1.029-.13q.385-.021 1.11.051.725.071.88.092t1.875-.041 2.607-.055q.887.01 1.051.029t1.051.033q.889.013 1.258 0 .369-.016 1.255-.154t1.487-.192q.6-.055 1.599-.015 1 .039 5.091-.011m253.175-96.096q-.965-.221-1.531-.301-.565-.08-6.037-.354t-8.579-.236-6.282.296-5.097.449-2.958.308-4.774.783-8.087 1.34q-4.347.674-6.573 1.136t-7.584 2.196-8.267 2.727-5.207 1.905-6.056 2.979q-3.759 2.069-4.917 2.898t-2.71 2.165-3.87 3.93q-2.319 2.594-3.54 4.145-1.22 1.551-1.253 1.581t-3.287 4.724-5.19 7.885-3.192 5.674-2.079 4.176-.907 1.927-.625 1.61q-.539 1.376-2.024 5.54t-1.994 5.934-.977 3.757q-.468 1.989-1.51 8.324t-1.426 9.567-.62 5.312-.469 6.194.178 10.249 1.331 10.823q.918 4.687 1.468 6.857.551 2.17 1.276 5.157t1.714 6.218 1.923 5.632 2.116 5.19 3.24 6.585 3.517 5.991 4.882 6.425q3.422 4.232 6.042 6.818t5.134 4.363 5.923 3.555q3.408 1.777 5.774 2.786t4.124 1.683 4.653 1.789 4.738 1.731 4.275 1.363q2.433.747 6.925 2.052t9.263 2.338 6.94 1.381 6.831.872 9.092.727q4.432.202 7.125.173t6.897-.414 9.59-1.526q5.387-1.142 10.125-2.796 4.738-1.655 10.313-4.092 5.574-2.438 8.178-3.698t5.657-3.026 5.732-3.635q2.679-1.868 4.596-3.423t4.26-3.83 4.029-4.329q1.685-2.054 3.272-4.439t2.628-4.029q1.041-1.643 2.302-3.728t1.923-3.2q.662-1.117 4.114-6.787 3.452-5.671 5.063-8.644 1.611-2.974 2.225-4.228t1.835-4.091 2.862-7.381 2.541-7.399 1.807-5.65q.906-2.796 1.926-6.597 1.019-3.8 1.294-5.099t.851-5.716q.575-4.417.671-6.241.097-1.825-.245-6.199t-.798-6.702-1.088-4.615-1.311-4.227-1.391-3.685q-.714-1.745-1.439-3.148-.725-1.402-2.164-4.003t-2.679-4.739-3.408-5.16-3.783-5.154q-1.615-2.134-2.432-3.124-.816-.99-3.545-3.818t-3.861-3.926q-1.133-1.098-2.593-2.369-1.461-1.272-3.43-2.793t-4.986-3.719q-3.016-2.197-5.981-4.003t-4.017-2.382-2.509-1.303q-1.455-.727-3.928-1.765t-4.182-1.695q-1.711-.658-2.699-.983-.989-.325-1.898-.577-.91-.252-5.403-1.342t-7.507-1.666q-3.013-.576-6.105-1.088t-6.244-.747-5.461-.239q-2.311 0-3.079-.026l-2.543-.07"/>
        <path d="m386.815 2061.458-.205-.553-.661-1.274-.485-.796q-.202-.498-2.922-3.361-2.72-2.862-4.662-4.147t-3.96-2.184-4.97-1.607q-2.951-.706-6.4-.807t-5.874.357-3.876 1.062-3.208 1.723-2.652 1.918-1.339 1.272q-.445.474-1.884 2.271-1.44 1.796-2.152 2.979-.712 1.182-.781 1.313-.07.13-1.049 2.677-.979 2.546-1.472 4.328-.494 1.782-.731 3.017-.236 1.234-.397 2.442-.16 1.207-.23 1.637-.069.43-.175 2.733t-.002 3.853q.105 1.549.288 2.818.184 1.269.705 3.003.522 1.733.582 1.895.06.163.713 1.423.653 1.259 1.017 1.757.364.497 1.081 1.226.716.728 1.204 1.11.487.382 3.553 2.236 3.066 1.853 5.169 2.7 2.104.847 3.348 1.184t3.366.665 3.731.344 3.809-.289 4.192-.888q1.992-.584 3.374-1.185t2.372-1.105 2.273-1.352 2.553-2.139 2.555-3.034q1.284-1.744 2.935-5.059t2.401-5.874.841-3.168q.089-.61.098-2.301.008-1.692-.046-2.229-.055-.536-.077-.893t-.342-1.57q-.321-1.212-1.753-4.157"/>
        <path d="m349.056 2066.642-.297 1.091-.114.601q-.304 2.829-.669 11.884.016.056-.031 1.313m8.199-14.164-.143.65q-.088 2.25-.724 11.205-.036.33-.117 1.38m7.142-10.652q.287.405.273 1.388"/>
        <circle cx="363.103" cy="2077.293" r="2.5" fill="#FFF" stroke-width=".1"/>
        <path d="m369.389 2068.627.199.584.126 1.006q-.025.188 1.445 9.32l.216.938m5.301-14.368-.035 1.015q-.023 1.954.601 12.211l.364 2.134m-26.017 66.989.744-.309q-.003.01 2.526-.44t3.768-.492 2.652.182q1.413.225 1.718.316.305.092 1.63.793 3.18 3.088 3.528 3.618t.893 1.833q.546 1.303.866 3.251-.102 2.489-.239 3.135t-.506 1.471q-.369.827-.695 1.355-.327.528-1.06 1.314-.733.787-2.113 1.702-1.381.915-2.89 1.502-1.509.586-2.6.777t-1.811.295-1.844.127q-1.125.025-1.827.035t-1.578-.027l-.907-.178"/>
        <path d="m350.386 2149.589.233.255.588.517.523.355q1.582.988 1.637 1.031t.584.39 1.507 1.255 1.036.998.436.581.769 1.388q.39.898.369 2.296t-.131 1.677-.416.789-.757 1.021q-.45.511-1.084 1.011-.633.5-1.781 1.608-.198.144-3.112 2.491m18.474-175.553-.183.035q-.498-.163-1.246-.26-.749-.096-2.026-.089-1.277.01-1.818.128-.542.121-1.525.673t-1.494.958q-.512.405-.726.678t-.472.837q-.258.565-.45 2.157-.191 1.593.053 2.477l.263.952q.018.067.345.605.326.539.685.892.358.352.906.569t1.111.279q.562.061.939.085.377.023 1.218-.187.842-.21 1.761-.781.92-.571 1.36-1.014t.99-1.285q.549-.842.754-1.325.204-.482.279-.682.075-.199.395-1.588.319-1.389.594-2.396m4.445-5.752q.927-1.124 2.715-2.519m.929 9.2q1.05-.339 3.116-1.26m-3.972 8.412q.569.029 3.899 1.846m-9.802 5.23q.556.897 2.715 4.238m-13.1 2.519.442.721.054.427q.083.099.162 1.122.08 1.023.326 2.235m-9.93-11.72q-.92.332-2.504 1.436-1.583 1.105-4.255 2.534m7.743-12.306q-1.042-.116-3.098.205-2.056.32-3.442.457m9-10.995-1.516-.285-3.385-1.166m11.132-5.561-.146-1.474-.401-.919m-26.472 22.907q.165 1.199.716 3.55t1.348 5.398q.796 3.049 1.205 4.575.409 1.525.981 3.187t.779 2.381.455 1.7.85 2.73q.601 1.749.972 2.682.371.934.88 2.265.51 1.332.988 2.618t1.329 3.422q1.497 3.669 1.764 4.394.268.725.545 1.384t1.016 2.613m-13.445-43.624.095.215.455.65q.911.682 2.453 1.735 1.102 2.614 1.249 2.839.146.224.852 2.389.707 2.165 1.353 4.396t.964 3.306q.319 1.076.828 2.663.51 1.586 1.192 3.491.683 1.904 1.204 3.456t1.15 3.421q.629 1.868 1.158 3.293t.788 2.138.554 1.674q.295.963.849 2.698.554 1.736.767 2.321l.577 1.615"/>
        <path d="m335.629 2002.885.145.137q.243-.085.49-.107.246-.022.509 0 .264.027 1.102.453l2.054 2.364m-55.951 21.052 1.888.508 2.339.752m7.889 6.681q1.265.138 2.189.264t2.311.334m9.875 6.554q.775.233 2.441 1.26m8.271 6.885q.406.06.511.023.106-.037.314.168t2.765 1.4m7.87 3.499q1.69.849 4.245 1.985m40.191 39.858q.04.388.172 1.111.131.724.616 2.213.484 1.49.901 2.704.416 1.215.56 1.559t1.718 5.122 2.791 8.411 2.02 5.829q.803 2.197 2.066 5.549t2.64 7.191q1.379 3.838 2.392 6.244t1.849 4.234q.835 1.827 1.679 3.94.843 2.113 1.542 3.722.698 1.608 1.082 2.357.383.749 1.833 3.957l.77 1.542.931 2.105m-12.517-23.835-.408.542-.055.23q-.481 1.147-1.951 3.9-1.47 2.752-2.597 4.84t-3.287 6.013q-1.719 3.263-2.433 4.594"/>
        <path d="m378.334 2161.5 1.624.963q.315.109 2.131.509t3.658.76 2.881.587q1.037.227 2.896.41 1.859.184 2.607.249.749.064 7.26.154l1.976-.45"/>
        <path d="m386.15 2150.708.216.76.193 2.062q.042.283.694 8.613l.082.744m6.285-18.007q-.081.494-.07 2.126t.062 3.228.102 2.76.122 3.426.076 2.476.21 4.356l.099 1.43m-14.356-114.66q.104-.415 2.574-5.576t4.879-10.112q2.41-4.951 4.171-8.36t3.31-6.486 3.3-6.561q1.752-3.483 3.445-6.897 1.694-3.414 2.271-4.495.578-1.081 1.123-2.202.546-1.121.905-1.902.36-.781.785-1.593t1.039-2.103q.612-1.291 1.999-4.302.082-.276 1.24-2.547l1.662-2.937m-24.104 98.905q.908.117 1.855.332.948.214 1.257.318t1.22.302q.911.199 2.82.548 1.91.349 3.159.585 1.249.237 2.012.414.762.176 2.385.599t3.664 1.019 3.56 1.015 1.569.421q.05 0 2.398.641 2.348.639 5.83 1.535t6.155 1.525 5.538 1.278 5.97 1.384q3.104.735 6.361 1.434 3.257.698 4.889 1.005 1.633.308 3.435.554 1.802.245 3.549.466 1.746.22 2.089.242.343.023 2.469.342m-70.198-30.988 1.057-.328q.565-.117 1.836-.272t5.173-.534 5.079-.484 7.56-.459q6.382-.353 10.136-.452t5.935-.19q2.181-.092 3.135-.11t6.449-.058 8.629-.073q3.133-.032 4.525-.04 1.392-.01 4.553-.168 3.16-.16 6.284-.383 3.124-.222 5.702-.416 2.578-.195 4.363-.418l3.027-.578m-88.417-5.956q.244-.19.935-.596t1.406-.89q.713-.483 1.417-1.013.703-.53.8-.63t6.831-6.102 11.154-9.855 6.321-5.397 4.817-3.813 4.634-3.679q1.717-1.411 3.672-3.166 1.954-1.755 4.297-3.868t3.432-3.117 1.902-1.724q.815-.719 2.175-1.997 1.361-1.277 1.779-1.699.419-.422 3.895-3.56m-60.196 36.408.554 1.249q.232.629.577 1.269.344.64.418.811t2.696 5.21m3.371-9.799.474-.267m2.241-15.424.044.356.334 1.465q.37 1.353 1.542 4.741t1.58 5 .945 3.608"/>
        <circle cx="404.296" cy="2025.067" r="2.5" fill="#FFF" stroke-width=".1"/>
        <path d="m406.738 2005.011.369.675q.125.292.863 3.309.739 3.017 1.524 5.586t1.703 5.128 1.267 3.422.947 2.191 2.527 6.362"/>
        <circle cx="416.667" cy="2009.375" r="2.5" fill="#FFF" stroke-width=".1"/>
        <path d="m418.598 1985.871.252.486q1.51 5.687 2.072 7.412t1.113 3.49 1.408 4.665q.859 2.901 1.363 4.527.505 1.627 1.456 4.238.952 2.61 1.412 3.77t1.51 4.117"/>
        <circle cx="430.386" cy="1996.268" r="2.5" fill="#FFF" stroke-width=".1"/>
        <path d="M437.929 1996.93q.111.664.512 3.257.4 2.592 1.546 7.598m-43.179 62.026.092.303q-.06.638 4.291 13.537l.136.161.51.824m13.245-15.283.073-1.986m-.2-.929q-.02.293.006 1.273.026.979.049 1.251.022.273 1.043 5.613 1.022 5.341 1.998 8.548t1.732 5.624m15.304-21.851.084.416.342 1.709q.009.312 1.954 6.682t2.905 9.12q.96 2.751 1.364 4.031.403 1.28.525 1.7.121.421.496 1.769m9.146-25.617.607.812q.039.259.998 2.908t2.005 6.011 1.729 6.101l.981 3.936q.299 1.197.778 2.901t.549 1.908.867 2.927 1.488 4.73m9.656-33.634.132.361q.023.15.728 3.426t.798 3.772m-198.932 9.308.312-.241q.416-.411.449-.46.032-.05.48-.15.449-.1 1.343-.155.13.25.094.29t-.087.171q-.049.132-.015.061.034-.07-.267.718l-.342-.01q-.19.108-.876-.651l-.635-.429m45.365 66.267q-.011-.066-.431-.133l.041-.357q.128-.15.263-.095t.054-.077m-25.561-134.448.665.599q.264-.348.865.19m145.406 112.471q.147-.238.401-.191"/>
        <circle cx="283.542" cy="2108.389" r="2.5" fill="#FFF" stroke-width=".1"/>
        <path d="M297.061 2133.344q-.684-.357-.925-.357l-.533-.636m-16.688-75.922q-.114.383-.145.404-.032.022-.042-.096-.009-.117.26.545"/>
        <circle cx="281.556" cy="2038.091" r="2.5" fill="#FFF" stroke-width=".1"/>
        <path d="m311.563 1999.761.394.063.083.233q-.065 0 .247-.407l.46-.156m19.203-8.998.565-.247.543.556q.443-.247 1.078-.716m52.38-5.625q.206-.214.299-.202t.189.064q.096.051.458.351.363.299.967.385m22.792 2.317.045.056.091.357q-.072-.01-.11-.153-.037-.145.079-.206l.192-.102q.075-.042.473 0l.106.373-.182.199-.239.07m34.38 20.391-.453-.159-.222-.045-.177-.292-.424-.764m16.033 36.739q.133.397.157.63-.012.188-.22.3-.091.206-.265.864m-10.33-24.102q-.816.05-.939.104l-.289.129q-.166.075-.885.034m19.13 43.166-.164.33-.093-.114-.342-.05-.07-.078q-.033.033.022.046t.144.083.055.242-.329.495q-.487.204-.954.102m-1.986 20.26.108-.391q-.187.359-.586.352-.028-.218-.105-.228m-9.401 23.695q-1.657-.112-2.587-.191m-33.25 38.063.313-.214q-.063.178-.118.036-.055-.143.044-.354.098-.212.49-.46m13.573-10.856-.531.746q-.262.302-1.109 1.1m-30.462 18.337q.129-.451.115-.576.113-.172.664-.221.148.04.193.326l-.188.204m-30.463 6.885.35.087.001.105-.136-.01-.062-.099.155-.164.135-.327q.133-.088.327-.088t.397.054.564.581m-29.533-5.764-.051.792q-.214 0-.255.06-.042.058.106 1.21m-168.674-71.823q.295-.508.895-2.864t1.628-4.469q1.029-2.114 2.04-3.3 1.011-1.187 1.806-1.698t1.215-.671q.418-.16.703-.19t.749.072q.465.102.57.156.104.053 1.233.704t2.159 1.505q1.029.854 3.354 4.617t2.543 4.079q.219.316.897 1.107.678.792 3.379 2.527.096.034 1.337-.657 1.241-.69 2.349-2.374t1.563-2.702q.456-1.017.889-1.941t1.322-2.534q.889-1.609 1.505-2.38t1.285-1.266q.668-.496 1.462-.463t2.179.378q2.032 2.784 2.669 3.791t1.188 1.661 1.016 1.117q.464.463 1.154.997.689.535 1.022.731.333.197.654.392t4.947.945q1.386-.872 2.459-1.684t1.874-1.421 2.62-1.677q1.821-1.068 2.684-1.361l1.542-.324 1.76-.389q.619-.088 5.402-.654 4.782-.567 6.668-.761 1.885-.193 2.06-.231.175-.037 1.373-.231"/>
        <path d="M243.712 2071.245q.38-.112.515.142.154.269 6.742 5.019-.097.776-.145 1.227l-.42 1.077q-.12.19-3.457 4.949l-.746.765"/>
    </g>
</svg>
