<?xml version="1.0" encoding="UTF-8" standalone="no"?>
<!-- Generator: Adobe Illustrator 26.1.0, SVG Export Plug-In . SVG Version: 6.00 Build 0)  -->

<svg
   version="1.1"
   id="Layer_1"
   x="0px"
   y="0px"
   viewBox="0 0 960 480"
   style="enable-background:new 0 0 960 480;"
   xml:space="preserve"
   sodipodi:docname="timeblocking.svg"
   inkscape:version="1.2.1 (9c6d41e410, 2022-07-14, custom)"
   xmlns:inkscape="http://www.inkscape.org/namespaces/inkscape"
   xmlns:sodipodi="http://sodipodi.sourceforge.net/DTD/sodipodi-0.dtd"
   xmlns="http://www.w3.org/2000/svg"
   xmlns:svg="http://www.w3.org/2000/svg"><defs
   id="defs4967" /><sodipodi:namedview
   id="namedview4965"
   pagecolor="#505050"
   bordercolor="#eeeeee"
   borderopacity="1"
   inkscape:showpageshadow="0"
   inkscape:pageopacity="0"
   inkscape:pagecheckerboard="0"
   inkscape:deskcolor="#505050"
   showgrid="false"
   inkscape:zoom="0.70677083"
   inkscape:cx="527.75239"
   inkscape:cy="246.19013"
   inkscape:window-width="938"
   inkscape:window-height="1023"
   inkscape:window-x="0"
   inkscape:window-y="0"
   inkscape:window-maximized="1"
   inkscape:current-layer="Layer_1" />
<g
   id="New_Layer_7"
   opacity="1"
   transform="matrix(1.3333333,0,0,1.3333333,864.87245,-2544.1419)"><path
     id="STROKE_5779b92a-e810-46d2-8f01-f58b15f1d015"
     opacity="1"
     fill="none"
     stroke="#000000"
     stroke-width="5"
     stroke-opacity="1"
     stroke-linecap="round"
     stroke-linejoin="round"
     d="m -363.904,1983.78 q 0.096,0.349 0.167,0.861 0.072,0.513 0.501,10.277 0.43,9.764 1.547,23.55 1.117,13.785 1.795,21.86 0.679,8.076 0.82,11.668 0.142,3.591 0.21,5.936 0.068,2.346 0.325,10.686 0.257,8.34 0.799,14.46 0.542,6.12 1.052,9.873 0.511,3.754 1.663,11.609 1.152,7.855 2.274,23.314 1.122,15.458 1.716,23.932 0.594,8.473 1.063,14.095 0.469,5.622 0.685,9.252 0.217,3.629 0.537,23.719 l 0.023,1.311" /><path
     id="STROKE_97002553-572b-4931-b657-29feadfa00f4"
     opacity="1"
     fill="none"
     stroke="#000000"
     stroke-width="5"
     stroke-opacity="1"
     stroke-linecap="round"
     stroke-linejoin="round"
     d="m -205.836,1976.03 q -0.029,1.652 -0.128,9.547 -0.098,7.894 0.161,15.034 0.26,7.14 0.744,14.024 0.485,6.884 0.67,9.972 0.185,3.087 0.836,19.023 0.651,15.936 0.997,24.532 0.346,8.596 0.76,13.667 0.413,5.071 1.251,16.632 0.838,11.561 1.323,17.798 0.486,6.237 1.59,17.179 1.104,10.941 1.834,17.488 0.73,6.547 2.903,27.441 0.014,0.089 -0.026,0.202 -0.04,0.114 -0.271,1.418" /><path
     id="STROKE_8e15c121-d40b-41fb-9e41-a01aaf0e2c62"
     opacity="1"
     fill="none"
     stroke="#000000"
     stroke-width="5"
     stroke-opacity="1"
     stroke-linecap="round"
     stroke-linejoin="round"
     d="m -338.197,2005.16 q -0.548,0.238 -1.044,0.523 -0.496,0.286 -1.003,0.513 -0.506,0.227 -1.02,0.37 -0.514,0.144 -1.84,0.569 -1.325,0.426 -4.811,2.388 -0.738,0.992 -1.223,1.663 -0.486,0.671 -0.767,1.245 -0.281,0.575 -0.571,1.496 -0.291,0.921 -0.432,2.022 -0.141,1.1 0.095,2.98 0.237,1.879 0.508,2.862 0.272,0.983 0.65,1.964 0.377,0.98 0.686,1.612 0.308,0.632 0.492,0.965 0.184,0.333 0.749,1.016 0.564,0.683 1.235,1.156 0.671,0.474 1.592,0.837 0.921,0.364 2.836,0.761 1.916,0.396 2.474,0.419 0.558,0.023 1.258,-0.01 0.701,-0.033 1.257,-0.062 0.556,-0.028 3.934,-0.502 3.378,-0.474 5.022,-0.779 1.643,-0.306 3.238,-0.587 1.596,-0.281 3.868,-0.576 2.273,-0.295 4.152,-0.476 1.88,-0.181 4.997,-0.47 3.117,-0.289 4.611,-0.385 1.494,-0.096 3.584,-0.276 2.091,-0.18 4.267,-0.448 2.176,-0.269 3.555,-0.436 1.378,-0.168 5.8,-0.594 4.421,-0.427 10.196,-0.737 5.774,-0.311 8.881,-0.461 3.106,-0.151 5.243,-0.251 2.136,-0.099 5.736,-0.317 3.599,-0.218 7.083,-0.43 3.485,-0.212 6.832,-0.428 3.347,-0.217 4.628,-0.308 1.28,-0.091 5.684,-0.346 4.405,-0.255 5.349,-0.342 0.943,-0.087 2.614,-0.363 1.671,-0.275 2.014,-0.349 0.344,-0.074 2.139,-0.563 1.795,-0.489 2.793,-0.976 0.998,-0.487 1.241,-0.656 0.243,-0.168 0.611,-0.584 0.369,-0.416 1.202,-2.221 0.833,-1.804 0.925,-2.827 0.092,-1.023 -0.131,-2.225 -0.223,-1.203 -0.357,-1.626 -0.134,-0.424 -0.373,-1.088 -0.239,-0.665 -0.824,-1.635 -0.586,-0.97 -1.059,-1.468 -0.473,-0.498 -1.019,-0.883 -0.545,-0.385 -2.045,-0.961 -1.5,-0.576 -3.296,-0.894 -1.796,-0.319 -3.45,-0.433 -1.655,-0.114 -3.176,-0.182 -1.521,-0.068 -3.629,-0.117 -2.107,-0.05 -6.038,-0.086 -3.93,-0.037 -4.774,-0.061 -0.845,-0.024 -1.804,-0.034 -0.959,-0.01 -6.101,-0.165 -5.142,-0.155 -13.536,-0.296 -8.395,-0.14 -14.182,0.01 -5.787,0.15 -7.988,0.244 -2.201,0.094 -4.995,0.202 -2.794,0.108 -6.395,0.294 -3.602,0.187 -9.987,0.569 -6.386,0.382 -10.714,0.871 -4.329,0.489 -5.59,0.706 -1.261,0.217 -2.245,0.433 -0.984,0.216 -1.061,0.241 -0.078,0.026 -1.892,0.426 -1.814,0.4 -5.26,1.422" /><path
     id="STROKE_1b2e76dc-7659-4bfb-83ea-7c3d30caa66a"
     opacity="1"
     fill="none"
     stroke="#000000"
     stroke-width="5"
     stroke-opacity="1"
     stroke-linecap="round"
     stroke-linejoin="round"
     d="m -376.875,2044.011 h -0.286 l -0.382,-0.159 q -1.344,-0.174 -1.485,-0.198 -0.141,-0.025 -0.885,0.092 -0.744,0.118 -1.115,0.298 -0.371,0.18 -0.655,0.335 -0.284,0.155 -0.805,0.748 -0.521,0.594 -0.705,1.071 -0.183,0.476 -0.261,1.2 -0.078,0.723 0.06,1.367 0.137,0.644 0.59,1.337 0.452,0.693 1.167,1.251 0.714,0.558 0.859,0.63 0.145,0.072 0.617,0.188 0.472,0.117 1.316,0.06 0.845,-0.056 1.602,-0.407 0.757,-0.351 1.025,-0.557 0.268,-0.206 0.463,-0.415 0.195,-0.209 0.474,-0.815 0.279,-0.607 0.376,-0.971 0.096,-0.364 0.21,-0.478 0.114,-0.115 0.076,-2.625 l -0.471,-1.873" /><path
     id="STROKE_de958f53-c88f-4d4a-9645-89c6d558a4b2"
     opacity="1"
     fill="none"
     stroke="#000000"
     stroke-width="5"
     stroke-opacity="1"
     stroke-linecap="round"
     stroke-linejoin="round"
     d="m -375.29,2047.066 q 0.888,-0.282 2.321,-0.596 0.922,-0.043 2.617,-0.266 1.695,-0.222 3.787,-0.419 2.093,-0.196 2.892,-0.195 0.799,0 2.349,-0.102 1.551,-0.105 2.715,-0.22 1.164,-0.115 3.231,-0.249 2.066,-0.135 5.082,-0.3 3.016,-0.166 4.265,-0.25 1.248,-0.085 4.478,-0.354 3.229,-0.268 6.159,-0.419 2.93,-0.151 5.475,-0.266 2.545,-0.115 4.092,-0.223 1.547,-0.108 4.981,-0.3 3.433,-0.192 4.683,-0.308 1.249,-0.116 8.956,-0.866 7.707,-0.749 13.165,-1.357 5.457,-0.608 8.439,-0.918 2.983,-0.311 4.079,-0.42 1.096,-0.11 6.331,-0.365 5.234,-0.254 9.826,-0.296 4.592,-0.041 8.527,-0.11 3.935,-0.069 5.776,-0.17 1.842,-0.101 3.341,-0.167 1.499,-0.066 2.727,-0.17 1.227,-0.104 2.013,-0.197 0.785,-0.092 2.81,-0.266 2.025,-0.174 3.822,-0.402 1.797,-0.228 3.976,-0.485 2.18,-0.256 3.719,-0.491 1.54,-0.235 4.869,-0.613 l 0.989,-0.147 0.634,-0.124 q 1.004,-0.139 2.026,-0.305 1.021,-0.166 3.517,-0.581" /><path
     id="STROKE_79e42da3-3658-4303-8edd-50c12dfd1058"
     opacity="1"
     fill="none"
     stroke="#000000"
     stroke-width="5"
     stroke-opacity="1"
     stroke-linecap="round"
     stroke-linejoin="round"
     d="m -339.654,2076.781 -0.332,0.45 -1.961,1.241 q -0.404,0.316 -1.069,0.857 -0.664,0.542 -1.084,1.052 -0.42,0.51 -0.628,0.858 -0.207,0.348 -0.367,0.778 -0.161,0.43 -0.317,1.13 -0.155,0.701 -0.22,1.258 -0.064,0.558 -0.08,0.691 -0.017,0.133 0.169,3.325 0.185,3.193 0.404,5.016 0.218,1.824 0.415,3.661 0.198,1.837 0.502,4.371 0.304,2.535 0.32,2.628 0.015,0.093 0.467,5.261 0.451,5.167 0.882,11.189 0.43,6.022 0.619,7.854 0.188,1.831 0.346,3.007 0.158,1.175 0.718,3.398 0.56,2.223 2.038,4.992 1.478,2.769 1.92,3.186 0.442,0.417 0.897,0.644 0.454,0.227 0.862,0.361 0.408,0.134 1.821,0.214 1.413,0.079 2.706,0 1.293,-0.076 2.511,-0.159 1.217,-0.083 1.906,-0.132 0.688,-0.05 3.045,-0.187 2.356,-0.138 11.257,-0.156 8.902,-0.019 14.235,-0.028 5.333,-0.01 9.034,-0.228 3.701,-0.218 6.259,-0.365 2.558,-0.147 3.745,-0.172 1.188,-0.025 3.26,0 2.072,0.029 3.448,-0.032 1.375,-0.061 2.408,-0.214 1.033,-0.152 4.32,-0.35 3.287,-0.198 5.047,-0.31 1.761,-0.112 4.011,-0.418 2.249,-0.307 6.79,-0.774 4.541,-0.468 6.916,-0.714 2.375,-0.246 3.264,-0.374 0.888,-0.129 5.516,-0.491 4.628,-0.363 7.323,-0.704 2.695,-0.341 5.567,-1.15 2.873,-0.808 3.33,-0.986 0.458,-0.177 1.409,-0.667 0.951,-0.49 1.868,-1.132 0.916,-0.642 1.911,-1.597 0.995,-0.955 1.657,-2.099 0.661,-1.145 1.153,-2.412 0.492,-1.266 0.878,-3.232 0.386,-1.965 0.501,-3.895 0.115,-1.93 0.132,-3.09 0.017,-1.16 -0.356,-7.343 -0.373,-6.184 -0.761,-9.694 -0.387,-3.51 -0.877,-6.562 -0.49,-3.052 -0.889,-4.838 -0.399,-1.786 -1.199,-4.229 -0.799,-2.443 -1.606,-3.869 -0.806,-1.426 -1.098,-1.824 -0.291,-0.399 -0.993,-1.14 -0.703,-0.741 -1.813,-1.808 -1.109,-1.069 -1.754,-1.535 -0.645,-0.465 -1.062,-0.774 -0.417,-0.308 -3.008,-1.15 -2.59,-0.842 -5.705,-1.158 -3.116,-0.316 -6.474,-0.178 -3.357,0.138 -6.624,0.273 -3.267,0.135 -5.558,0.185 -2.292,0.051 -10.335,0.133 -8.043,0.083 -13.677,0.196 -5.635,0.113 -9.736,0.174 -4.102,0.06 -5.602,0.061 -1.499,0 -3.133,-0.043 -1.634,-0.044 -3.027,-0.065 -1.393,-0.02 -2.845,-0.01 -1.451,0.014 -3.285,0.069 -1.833,0.055 -3.732,0.143 -1.899,0.087 -3.795,0.155 -1.896,0.069 -5.565,0.175 -3.668,0.105 -8.738,0.368 -5.071,0.263 -6.213,0.336 -1.142,0.073 -2.761,0.245 -1.619,0.171 -2.484,0.341 -0.865,0.17 -1.333,0.287 -0.469,0.117 -4.835,0.863" /><path
     id="STROKE_9e2d618b-9d29-4713-a577-7a3c00c8ff91"
     opacity="1"
     fill="none"
     stroke="#000000"
     stroke-width="5"
     stroke-opacity="1"
     stroke-linecap="round"
     stroke-linejoin="round"
     d="m -333.824,2193.565 0.066,-0.438 -0.106,-2.351 q -0.074,-0.344 -0.27,-3.909 -0.196,-3.564 -0.227,-6.537 -0.031,-2.973 0.013,-3.808 0.044,-0.834 0.093,-2.063 0.05,-1.229 0.058,-1.351 0.009,-0.121 0.231,-1.525 0.222,-1.405 0.504,-2.404 0.282,-0.999 0.716,-1.94 0.435,-0.941 0.537,-1.133 0.102,-0.192 1.074,-1.43 0.972,-1.237 1.963,-2.083 0.992,-0.847 1.728,-1.328 0.736,-0.48 2.158,-1.15 1.423,-0.67 2.782,-1.161 1.358,-0.491 3.832,-0.969 2.475,-0.479 6.544,-0.909 4.069,-0.431 5.444,-0.619 1.375,-0.187 2.846,-0.406 1.47,-0.218 2.868,-0.443 1.398,-0.225 2.92,-0.426 1.522,-0.201 2.891,-0.332 1.369,-0.131 2.954,-0.196 1.585,-0.066 3.808,-0.061 2.223,0.01 4.513,0.023 2.291,0.018 6.161,0.063 3.87,0.045 8.702,-0.154 4.832,-0.198 8.685,-0.388 3.852,-0.191 8.285,-0.467 4.433,-0.275 6.011,-0.397 1.578,-0.121 3.52,-0.181 1.942,-0.061 4.118,-0.121 2.176,-0.06 3.301,-0.109 1.126,-0.05 2.243,-0.098 1.116,-0.048 5.751,0.439 4.634,0.486 5.363,0.702 0.729,0.216 1.584,0.585 0.855,0.37 1.834,0.934 0.979,0.564 1.252,0.819 0.274,0.254 0.754,0.825 0.481,0.571 0.858,1.156 0.377,0.585 0.816,1.545 0.44,0.96 1.099,2.953 0.66,1.993 0.822,2.717 0.162,0.725 0.848,4.732 0.686,4.008 1.111,7.845 0.426,3.837 0.684,7.099 0.257,3.261 0.389,5.525 0.131,2.263 0.24,3.428 0.109,1.164 0.374,4.791" /><path
     id="STROKE_770541a9-32d4-4777-b45b-109fe2a3363c"
     opacity="1"
     fill="none"
     stroke="#000000"
     stroke-width="5"
     stroke-opacity="1"
     stroke-linecap="round"
     stroke-linejoin="round"
     d="m -309.994,2170.926 q -0.297,0.074 -1.754,0.374 -1.457,0.3 -2.325,0.661 -0.867,0.362 -1.198,0.579 -0.33,0.217 -0.744,0.736 -0.414,0.52 -0.559,0.836 -0.146,0.316 -0.267,1.275 -0.12,0.959 -0.019,1.431 0.101,0.472 0.41,0.975 0.308,0.504 0.416,0.708 0.107,0.204 0.628,0.671 0.521,0.468 0.939,0.73 0.418,0.262 0.984,0.542 0.567,0.281 1.676,0.684 1.108,0.403 1.614,0.597 0.505,0.193 1.093,0.491 0.587,0.298 0.805,0.45 0.218,0.152 0.485,0.508 0.266,0.356 0.353,0.538 0.087,0.183 0.134,0.418 0.046,0.236 0.042,0.42 -0.004,0.184 -0.122,0.478 -0.118,0.294 -0.117,0.368 0.002,0.074 -0.571,0.587 -0.573,0.514 -1.287,0.88 -0.715,0.366 -2.213,0.887 -1.499,0.522 -1.83,0.575 -0.33,0.053 -0.392,0.079 -0.063,0.026 -1.61,-0.11 l -0.254,-0.225 -0.106,-0.232 -0.769,-0.965" /><path
     id="STROKE_68415f08-6916-462d-8f70-b8902e61e2fe"
     opacity="1"
     fill="none"
     stroke="#000000"
     stroke-width="5"
     stroke-opacity="1"
     stroke-linecap="round"
     stroke-linejoin="round"
     d="m -301.321,2166.752 0.055,0.555 q 0.103,1.859 0.851,7.072 0.749,5.212 1.517,10.916 0.04,0.386 0.091,1.513" /><path
     id="STROKE_dfbbd274-25f5-4213-8801-1c1c0aa7167d"
     opacity="1"
     fill="none"
     stroke="#000000"
     stroke-width="5"
     stroke-opacity="1"
     stroke-linecap="round"
     stroke-linejoin="round"
     d="m -286.892,2183.5 q 0.058,-0.056 0.736,-0.562 0.678,-0.506 1.17,-1.002 0.492,-0.495 0.965,-1.181 0.473,-0.687 0.73,-1.426 0.257,-0.74 0.271,-0.999 0.014,-0.26 -0.101,-0.463 -0.115,-0.204 -0.246,-0.29 -0.13,-0.087 -0.41,-0.224 -0.28,-0.138 -0.574,-0.137 -0.294,0 -0.594,0.115 -0.3,0.114 -0.704,0.627 -0.404,0.513 -0.644,1.055 -0.241,0.543 -0.433,1.208 -0.191,0.666 -0.207,1.531 -0.015,0.866 0.059,1.203 0.073,0.338 0.418,0.98 0.344,0.641 0.99,1.283 0.646,0.641 1.327,1.056 0.681,0.416 1.207,0.58 0.526,0.166 0.924,0.283 0.398,0.118 1.374,0.059 0.976,-0.059 3.89,-0.782" /><path
     id="STROKE_47b7345d-1319-48a2-a983-3d49f71e3b0d"
     opacity="1"
     fill="none"
     stroke="#000000"
     stroke-width="5"
     stroke-opacity="1"
     stroke-linecap="round"
     stroke-linejoin="round"
     d="m -268.8,2182.303 0.271,-0.113 0.486,-0.234 q 0.217,-0.127 1.071,-1.001 0.853,-0.875 1.218,-1.535 0.365,-0.66 0.396,-0.994 0.031,-0.334 -0.022,-0.658 -0.054,-0.323 -0.224,-0.441 -0.169,-0.118 -0.588,-0.207 -0.419,-0.09 -0.746,-0.043 -0.327,0.047 -0.784,0.276 -0.457,0.228 -1.045,0.938 -0.588,0.71 -0.764,1.391 -0.177,0.68 -0.034,1.837 0.144,1.157 0.386,1.539 0.242,0.381 0.363,0.534 0.122,0.152 1.023,0.81 0.901,0.658 2.267,1.037 1.366,0.379 2.23,0.446 0.864,0.067 5.81,-1.266" /><path
     id="STROKE_8b4e4157-094b-4ec7-b29f-71fd1c7fb7f8"
     opacity="1"
     fill="none"
     stroke="#000000"
     stroke-width="5"
     stroke-opacity="1"
     stroke-linecap="round"
     stroke-linejoin="round"
     d="m -254.171,2174.235 0.294,1.943 q 0.087,0.362 0.32,2.104 0.233,1.743 0.611,3.383 0.378,1.641 1.056,3.755 0.678,2.115 1.492,5.278 0.813,3.164 1.176,5.758 -0.024,0.278 -0.175,1.474" /><path
     id="STROKE_942dfd64-6bae-4c6e-a8d5-7ce35560bbdc"
     opacity="1"
     fill="none"
     stroke="#000000"
     stroke-width="5"
     stroke-opacity="1"
     stroke-linecap="round"
     stroke-linejoin="round"
     d="m -255.227,2174.757 q 0.446,-0.076 0.903,-0.205 0.457,-0.13 0.599,-0.109 0.142,0.021 0.791,0.01 0.649,-0.013 2.723,0.321 2.073,0.333 3.259,1.243 1.185,0.909 1.858,2.23 0.673,1.321 0.521,3.07 0.034,0.164 -1.117,0.974 -1.151,0.809 -2.22,1.095 -1.07,0.286 -1.964,0.356 -0.488,-0.164 -1.327,-0.368" /><path
     id="STROKE_3fc6937d-0174-4aea-ba73-f936ef577aa4"
     opacity="1"
     fill="none"
     stroke="#000000"
     stroke-width="5"
     stroke-opacity="1"
     stroke-linecap="round"
     stroke-linejoin="round"
     d="m -329.652,2094.788 q 0.135,0.203 0.475,0.476 0.573,0.42 0.891,0.687 0.318,0.268 2.252,2.968 1.934,2.701 3.342,4.438 1.408,1.738 2.903,2.602 0.274,-0.098 1.252,-0.81 0.977,-0.711 2.562,-1.885 0.725,-0.061 0.86,-0.044 0.136,0.016 1.317,-0.038 1.18,-0.055 3.058,-1.191 0.46,-1.049 0.696,-2.1 0.237,-1.051 0.274,-1.699 0.037,-0.648 -0.038,-1.935 -0.075,-1.287 -0.304,-2.662 -0.228,-1.374 -0.811,-4.496" /><path
     id="STROKE_78017b7b-eb08-430e-87d6-f194f40d51c0"
     opacity="1"
     fill="none"
     stroke="#000000"
     stroke-width="5"
     stroke-opacity="1"
     stroke-linecap="round"
     stroke-linejoin="round"
     d="m -290.991,2097.638 -0.297,-0.289 q -0.975,-0.768 -1.069,-0.807 -0.095,-0.038 -1.151,-0.611 -1.057,-0.574 -1.916,-0.792 -0.86,-0.218 -1.312,-0.205 -0.452,0.014 -0.918,0.233 -0.467,0.218 -1.238,1.343 -0.771,1.126 -0.741,1.806 0.029,0.68 0.029,0.867 0,0.187 0.696,1.084 0.695,0.897 1.888,1.402 1.193,0.505 2.035,0.487 0.841,-0.018 1.352,-0.192 0.512,-0.174 1.031,-0.533 0.518,-0.358 1.068,-0.869 0.55,-0.51 0.875,-0.853 0.326,-0.344 0.87,-1.078" /><path
     id="STROKE_ef3d415a-a45a-4735-aef5-873f55950669"
     opacity="1"
     fill="none"
     stroke="#000000"
     stroke-width="5"
     stroke-opacity="1"
     stroke-linecap="round"
     stroke-linejoin="round"
     d="m -282.647,2093.006 -0.027,0.397 q -0.001,0.38 0.703,4.335 0.704,3.954 1.502,8.036 l 0.136,0.938" /><path
     id="STROKE_1622133a-1861-4ddb-8425-3e44069d6a2b"
     opacity="1"
     fill="none"
     stroke="#000000"
     stroke-width="5"
     stroke-opacity="1"
     stroke-linecap="round"
     stroke-linejoin="round"
     d="m -280.989,2099.42 q 0.259,-0.156 0.83,-0.839 0.571,-0.683 1.236,-1.213 0.665,-0.53 1.043,-0.827 0.378,-0.298 1.419,-0.868 1.042,-0.571 1.396,-0.616 0.354,-0.045 1.564,-0.397" /><path
     id="STROKE_0af13626-e5b6-48d0-878b-782e8a56d3d6"
     opacity="1"
     fill="none"
     stroke="#000000"
     stroke-width="5"
     stroke-opacity="1"
     stroke-linecap="round"
     stroke-linejoin="round"
     d="m -266.96,2085.32 0.126,0.325 q 0.12,0.432 0.61,3.38 0.49,2.947 0.807,4.564 0.318,1.617 0.608,2.824 0.291,1.206 1.764,6.844 0.218,0.065 0.403,0.4" /><path
     id="STROKE_29e9fb68-95a4-4d62-af9c-570524b3d0df"
     opacity="1"
     fill="none"
     stroke="#000000"
     stroke-width="5"
     stroke-opacity="1"
     stroke-linecap="round"
     stroke-linejoin="round"
     d="m -257.086,2091.212 q 0.011,1.267 -0.187,2.433 -0.197,1.166 -0.243,4.488 0.31,0.31 0.645,0.615 0.336,0.306 1.344,1.062 1.008,0.756 1.663,1.148 0.655,0.392 0.761,0.444 0.107,0.052 0.5,0.493 0.393,0.441 1.548,1.241" /><path
     id="STROKE_dd98245e-c528-4112-b769-ea29779a88d2"
     opacity="1"
     fill="none"
     stroke="#000000"
     stroke-width="5"
     stroke-opacity="1"
     stroke-linecap="round"
     stroke-linejoin="round"
     d="m -333.824,2018 0.255,-0.298 q 0.011,0.233 0,0.502" /><path
     id="STROKE_29afca0d-f581-4ac7-828e-c79196e7ca4a"
     opacity="1"
     fill="none"
     stroke="#000000"
     stroke-width="5"
     stroke-opacity="1"
     stroke-linecap="round"
     stroke-linejoin="round"
     d="m -322.31,2015.417 q 0.192,0.85 0.529,1.463" /><circle
     id="STROKE_a9c9c952-14d8-42b7-8371-91c65b9674e4"
     opacity="1"
     fill="#000000"
     stroke="#000000"
     stroke-width="0.1"
     stroke-opacity="1"
     fill-opacity="1"
     cx="-310.194"
     cy="2014.6281"
     r="2.5" /><path
     id="STROKE_20dfce8c-735d-4544-86b8-ab7f3e379dcd"
     opacity="1"
     fill="none"
     stroke="#000000"
     stroke-width="5"
     stroke-opacity="1"
     stroke-linecap="round"
     stroke-linejoin="round"
     d="m -379.317,2065.734 0.186,0.462 q 0.099,0.517 0.435,2.822 0.337,2.305 0.618,5.18 0.28,2.874 0.481,7.397 0.201,4.523 0.249,6.434 0.049,1.91 0.127,4.524 0.078,2.614 0.173,5.792 0.094,3.178 0.078,5.534 -0.017,2.355 -0.018,3.298 -0.002,0.942 -0.143,2.971" /><path
     id="STROKE_05aaa910-a359-48f8-963a-9bb9d4902b67"
     opacity="1"
     fill="none"
     stroke="#000000"
     stroke-width="5"
     stroke-opacity="1"
     stroke-linecap="round"
     stroke-linejoin="round"
     d="m -384.418,2100.489 q 0.448,1.046 2.168,3.89 1.72,2.844 2.389,3.876 0.669,1.032 1.61,2.281 0.237,0.153 0.343,0.217 0.106,0.064 0.504,0.451" /><path
     id="STROKE_155a615d-ec0a-4b03-8c2d-57b218f5ed48"
     opacity="1"
     fill="none"
     stroke="#000000"
     stroke-width="5"
     stroke-opacity="1"
     stroke-linecap="round"
     stroke-linejoin="round"
     d="m -370.116,2096.913 q -0.112,0.264 -0.628,1.503 -0.515,1.238 -0.961,2.138 -0.446,0.9 -0.78,1.602 -0.333,0.701 -0.842,1.652 -0.509,0.951 -2.92,5.671 l -0.428,0.872" /></g></svg>
