<svg xmlns="http://www.w3.org/2000/svg" width="1498.847" height="673.687" viewBox="-410.185 556.363 1124.135 505.265">
    <title>3B3414D0-5C78-4D25-AD71-0C0A5C827B1C</title>
    <desc>
        Drawing exported from Concepts: Smarter Sketching
    </desc>
    <path fill="none" stroke="#9378e3" stroke-linecap="round" stroke-linejoin="round" stroke-width="5" d="M-60 708h40v40h-40zm100-60v80h20v-80zm-60-20h120v-20H-20z"/>
    <path fill="none" stroke="#6ac0c8" stroke-linecap="round" stroke-linejoin="round" d="m-5.674 668.129-114.462-.152m3.635 4.279q.1 1.346.342 4.837t.58 6.855.537 4.878.454 3.241.662 4.214.721 4.137.441 2.23l.261 1.172q.133.594.188.86.055.265.519 2.411m-5.203-6.809.289.371q.052.122.804 1.151.751 1.029 1.73 2.383.978 1.354 1.24 1.568l.491.536q.054.069.299.415m1.812-9.969q-.653 5.557-.885 7.592-.231 2.036-.268 2.092t-.192 1.099"/>
    <path fill="none" stroke="#f3ba38" stroke-linecap="round" stroke-linejoin="round" d="m-5.073 671.626-50.182 33.048m-8.221 5.413-55.222 36.441m115.142-73.269-23.688 31.361m-4.71 6.236-25.052 33.167m-5.223 6.916-11.786 15.603m71.655-92.808-15.68 31.024m-4.73 9.36-15.643 30.95m-3.285 6.5-7.996 15.822m49.099-93.663L-16.52 735.02m-4.252 16.362-4.273 16.448m29.403-93.786 31.888 48.884m5.902 9.049 23.127 35.452M5.451 673.286 36.5 704.373m6.486 6.494 13.684 13.701m6.175 6.183 36.881 36.926M8.764 665.251l27.572-9.295m7.405-2.496 6.838-2.305m12.73-4.291 56.418-19.019M8.562 664.756l27.759-11.19m22.431-9.043 32.109-12.943m12.746-5.138 16.337-6.586M8.1 664.025l28.35-14.244m10.394-5.222 25.824-12.974m12.991-6.527 11.443-5.749m6.58-3.305 15.661-7.869M7.505 663.42l51.877-31.783m10.692-6.551 23.451-14.367m9.122-5.589 16.929-10.371M-1.469 662.494l-10.755-30.968m-2.491-7.174-2.277-6.555m-4.551-13.107L-34.2 568.657m31.645 93.974-15.449-31.024m-5.438-10.92-25.875-52.356"/>
    <path fill="none" stroke="#f3ba38" stroke-linecap="round" stroke-linejoin="round" stroke-width="2.5" d="m-60.028 707.898-.04-.034"/>
    <circle cx="-59.848" cy="748.023" r="1.25" fill="#f3ba38" stroke="#f3ba38" stroke-width=".1"/>
    <circle cx="-19.652" cy="707.945" r="1.25" fill="#f3ba38" stroke="#f3ba38" stroke-width=".1"/>
    <circle cx="-19.645" cy="747.696" r="1.25" fill="#f3ba38" stroke="#f3ba38" stroke-width=".1"/>
    <circle cx="40.594" cy="647.997" r="1.25" fill="#f3ba38" stroke="#f3ba38" stroke-width=".1"/>
    <circle cx="60.061" cy="648.123" r="1.25" fill="#f3ba38" stroke="#f3ba38" stroke-width=".1"/>
    <circle cx="100.135" cy="627.97" r="1.25" fill="#f3ba38" stroke="#f3ba38" stroke-width=".1"/>
    <path fill="none" stroke="#f3ba38" stroke-linecap="round" stroke-linejoin="round" stroke-width="2.5" d="m98.672 607.434.063-.075"/>
    <circle cx="-19.896" cy="627.694" r="1.25" fill="#f3ba38" stroke="#f3ba38" stroke-width=".1"/>
    <circle cx="-20.021" cy="608.021" r="1.25" fill="#f3ba38" stroke="#f3ba38" stroke-width=".1"/>
    <circle cx="39.505" cy="727.812" r="1.25" fill="#f3ba38" stroke="#f3ba38" stroke-width=".1"/>
    <path fill="none" stroke="#f3ba38" stroke-linecap="round" stroke-linejoin="round" stroke-width="2.5" d="m59.388 727.472.097.048"/>
    <circle cx="79.197" cy="628.318" r="1.25" fill="#fa7fb1" stroke="#fa7fb1" stroke-width=".1"/>
    <path fill="none" stroke="#f66640" stroke-linecap="round" stroke-linejoin="round" stroke-width="2.5" d="m-6.854 675.285 7.908-18.492m.088.011 4.764 19.403m-15.795-12.423 15.778 12.39m-15.671-13.072 20.64 1.89m-17.872 10.556 17.903-10.471"/>
    <g fill="none" stroke-linecap="round" stroke-linejoin="round">
        <path stroke="#9378e3" stroke-width="5" d="M241.209 707.445h40v40h-40zm100-60v80h20v-80zm-60-20h120v-20h-120z"/>
        <path stroke="#f3ba38" stroke-width="2.5" d="m241.743 707.203 39.734-79.946m59.826 21.489 38.397-20.859m-98.027-.546 97.912-.099m-38.023 21.971-.52 78.363m-59.746 19.971 59.635-19.291m-59.52 18.791.147-39.731m-39.654-.208 39.41.13"/>
        <path stroke="#f66640" stroke-width="2.5" d="m294.356 674.73 7.907-18.492m.088.012 4.764 19.402M291.32 663.23l15.778 12.389m-15.671-13.072 20.64 1.891m-17.872 10.556 17.903-10.472"/>
    </g>
    <g fill="none" stroke-linecap="round" stroke-linejoin="round">
        <path stroke="#9378e3" stroke-width="5" d="m-359.429 1008.634 20.096-80.953"/>
        <path stroke="#6ac0c8" d="m-302.801 967.755-42.848.178m-7.773.032-44.743.186"/>
        <path stroke="#6ac0c8" stroke-width="2.5" d="m-349.532 967.651-.065.154"/>
        <path stroke="#6ac0c8" d="M-393.805 973.865q.016.225.187 2.184t.357 3.645.45 3.492.666 3.883 2.44 9.723l.174.696m-5.42-7.35.244.396q.15.115.412.437l.406.499q.144.179.892 1.258t1.55 2.25 1.152 1.663q.351.491.647.875m.258-.597q.05-.491.033-3.191-.016-2.701.031-5.509.012-.061.023-.732"/>
        <path stroke="#f66640" stroke-width="2.5" d="m-305.785 975.265 7.907-18.491m.088.011 4.764 19.402m-15.795-12.422 15.778 12.389m-15.671-13.072 20.64 1.891m-17.872 10.556 17.903-10.472"/>
    </g>
    <path fill="none" stroke="#9378e3" stroke-linecap="round" stroke-linejoin="round" stroke-width="5" d="m-158.823 967.351 20.097-80.953"/>
    <path fill="none" stroke="#6ac0c8" stroke-linecap="round" stroke-linejoin="round" d="m-104.006 966.802-51.218.213m-6.997.029-36.571.152"/>
    <circle cx="-159.036" cy="967.101" r="1.25" fill="#6ac0c8" stroke="#6ac0c8" stroke-width=".1"/>
    <path fill="none" stroke="#6ac0c8" stroke-linecap="round" stroke-linejoin="round" d="M-192.308 973.68q.017.225.187 2.184.171 1.959.357 3.645t.451 3.492.666 3.883q.401 2.076 2.439 9.723l.175.696m-5.42-7.35.244.396q.149.115.412.437l.406.499q.144.179.892 1.258.747 1.078 1.549 2.25t1.153 1.663.646.875m.259-.597q.049-.491.033-3.191-.016-2.701.031-5.509.012-.061.022-.732"/>
    <path fill="none" stroke="#f66640" stroke-linecap="round" stroke-linejoin="round" stroke-width="2.5" d="m-106.413 974.31 7.907-18.492m.089.011 4.764 19.403m-15.795-12.423 15.778 12.39m-15.672-13.072 20.64 1.891m-17.871 10.555 17.902-10.471"/>
    <path fill="none" stroke="#9378e3" stroke-linecap="round" stroke-linejoin="round" stroke-width="5" d="m40.981 1047.615 20.096-80.954"/>
    <path fill="none" stroke="#6ac0c8" stroke-linecap="round" stroke-linejoin="round" d="m97.08 967.434-32.748.136m-7.18.03-55.935.233"/>
    <circle cx="60.797" cy="967.39" r="1.25" fill="#6ac0c8" stroke="#6ac0c8" stroke-width=".1"/>
    <path fill="none" stroke="#6ac0c8" stroke-linecap="round" stroke-linejoin="round" d="M6.784 973.865q.017.225.188 2.184t.356 3.645.451 3.492.666 3.883 2.44 9.723l.174.696m-5.42-7.35.244.396q.149.115.412.437l.406.499q.144.179.892 1.258t1.55 2.25q.801 1.172 1.152 1.663t.646.875m.259-.597q.049-.491.033-3.191-.016-2.701.031-5.509.012-.061.022-.732"/>
    <path fill="none" stroke="#f66640" stroke-linecap="round" stroke-linejoin="round" stroke-width="2.5" d="m93.596 974.947 7.908-18.492m.088.011 4.764 19.403m-15.795-12.423 15.778 12.39m-15.671-13.072 20.64 1.89M93.436 975.21l17.903-10.471"/>
    <g fill="none" stroke-linecap="round" stroke-linejoin="round">
        <path stroke="#9378e3" stroke-width="5" d="M-360.506 708.62h40v40h-40zm100-60v80h20v-80zm-60-20h120v-20h-120z"/>
        <path stroke="#f66640" stroke-width="2.5" d="m-307.36 675.904 7.908-18.491m.088.011 4.764 19.402m-15.795-12.422 15.778 12.39m-15.671-13.073 20.64 1.891m-17.872 10.556 17.903-10.471"/>
    </g>
    <path fill="none" stroke="#9378e3" stroke-linecap="round" stroke-linejoin="round" stroke-width="5" d="M539.929 708.674h40v40h-40zm100-60v80h20v-80zm-60-20h120v-19.999h-120z"/>
    <path fill="none" stroke="#f3ba38" stroke-linecap="round" stroke-linejoin="round" d="m594.733 672.84-50.183 33.048m51.699-31.415-23.242 30.772m-5.155 6.825-24.711 32.716m54.305-69.838-15.223 30.119m16.988-30.125-15.925 61.292m20.878-60.976 31.888 48.884M605.257 674.5l31.049 31.088m6.486 6.493 13.684 13.701m-47.906-59.317 27.572-9.295m7.405-2.496 6.838-2.305m-42.017 13.601 27.759-11.19m22.431-9.043 32.109-12.943m-82.762 32.445 28.35-14.244m10.395-5.222 25.824-12.974m-65.163 31.835 51.877-31.783m10.692-6.55 23.451-14.368m-94.994 51.775-10.755-30.968m-2.491-7.174-2.277-6.555m14.436 44.834-15.449-31.024"/>
    <path fill="none" stroke="#f3ba38" stroke-linecap="round" stroke-linejoin="round" stroke-width="2.5" d="m539.778 709.113-.041-.034"/>
    <circle cx="539.958" cy="749.237" r="1.25" fill="#f3ba38" stroke="#f3ba38" stroke-width=".1"/>
    <circle cx="580.154" cy="709.159" r="1.25" fill="#f3ba38" stroke="#f3ba38" stroke-width=".1"/>
    <circle cx="580.161" cy="748.91" r="1.25" fill="#f3ba38" stroke="#f3ba38" stroke-width=".1"/>
    <circle cx="640.4" cy="649.211" r="1.25" fill="#f3ba38" stroke="#f3ba38" stroke-width=".1"/>
    <circle cx="659.867" cy="649.337" r="1.25" fill="#f3ba38" stroke="#f3ba38" stroke-width=".1"/>
    <circle cx="699.941" cy="629.184" r="1.25" fill="#f3ba38" stroke="#f3ba38" stroke-width=".1"/>
    <path fill="none" stroke="#f3ba38" stroke-linecap="round" stroke-linejoin="round" stroke-width="2.5" d="m698.478 608.648.063-.075"/>
    <circle cx="579.91" cy="628.908" r="1.25" fill="#f3ba38" stroke="#f3ba38" stroke-width=".1"/>
    <circle cx="579.784" cy="609.235" r="1.25" fill="#f3ba38" stroke="#f3ba38" stroke-width=".1"/>
    <circle cx="639.311" cy="729.026" r="1.25" fill="#f3ba38" stroke="#f3ba38" stroke-width=".1"/>
    <path fill="none" stroke="#f3ba38" stroke-linecap="round" stroke-linejoin="round" stroke-width="2.5" d="m659.194 728.686.097.048"/>
    <circle cx="679.002" cy="629.532" r="1.25" fill="#fa7fb1" stroke="#fa7fb1" stroke-width=".1"/>
    <path fill="none" stroke="#f66640" stroke-linecap="round" stroke-linejoin="round" stroke-width="2.5" d="m593.075 675.959 7.908-18.491m.088.011 4.764 19.402m-15.795-12.422 15.778 12.39m-15.671-13.073 20.64 1.891m-17.872 10.556 17.903-10.472"/>
</svg>
