<svg xmlns="http://www.w3.org/2000/svg" width="1995.752" height="712.615" viewBox="-459.14 532.888 1496.814 534.461">
    <title>2BD486D3-20FD-47A4-9F1F-F1A3B42CAC51</title>
    <desc>
        Drawing exported from Concepts: Smarter Sketching
    </desc>
    <g style="display:inline">
        <path fill="none" stroke="#9378e3" stroke-linecap="round" stroke-linejoin="round" stroke-width="5" d="m-338.995 927.465-20.856 80.761m219.425-40.437-21.048 80.711M61.191 887.96 39.81 968.583"/>
        <path fill="none" stroke="#6ac0c8" stroke-linecap="round" stroke-linejoin="round" d="m-396.005 967.811 42.848.224m7.773.041 44.742.233m105.396-.615 51.218.389m6.997.053 36.57.278m104.285-1.176 32.746.385m7.179.084 55.932.657"/>
        <path fill="none" stroke="#6ac0c8" stroke-linecap="round" stroke-linejoin="round" stroke-width="2.5" d="m-349.277 968.353.066-.153"/>
        <path fill="none" stroke="#6ac0c8" stroke-linecap="round" stroke-linejoin="round" d="M-304.947 962.555q-.015-.225-.167-2.186t-.323-3.648-.417-3.496q-.248-1.808-.63-3.888-.381-2.081-2.348-9.746l-.168-.698m5.351 7.401-.24-.398q-.149-.117-.408-.441l-.402-.504q-.142-.179-.879-1.265-.738-1.086-1.529-2.265t-1.137-1.674-.638-.881m-.264.595q-.054.49-.063 3.191t-.083 5.508q-.013.061-.029.732m202.452 12.962q-.013-.225-.161-2.186t-.314-3.649-.41-3.497q-.243-1.808-.62-3.89-.376-2.081-2.325-9.751l-.166-.699m5.333 7.414-.239-.399q-.148-.117-.407-.441l-.4-.505q-.142-.18-.877-1.267-.735-1.088-1.523-2.269t-1.133-1.676-.636-.883m-.266.594q-.055.491-.07 3.191t-.096 5.507q-.013.062-.031.733m205.42 14.063q-.012-.225-.152-2.187t-.299-3.65-.395-3.498-.604-3.893-2.285-9.761l-.163-.699m5.302 7.436-.237-.4q-.148-.118-.405-.443l-.398-.506q-.141-.181-.872-1.272-.73-1.09-1.514-2.275-.783-1.184-1.126-1.68-.342-.497-.632-.886m-.268.593q-.057.49-.084 3.191-.026 2.7-.118 5.507-.013.061-.034.731"/>
        <path fill="none" stroke="#f66640" stroke-linecap="round" stroke-linejoin="round" stroke-width="2.5" d="m-392.95 960.329-8.081 18.416m-.088-.012-4.582-19.446m15.678 12.57-15.661-12.537m15.548 13.219-20.622-2.085m17.971-10.387-18.001 10.303m218.038-10.156-8.124 18.397m-.089-.012-4.535-19.457m15.648 12.608-15.631-12.575m15.516 13.256-20.616-2.134m17.994-10.344-18.024 10.259m218.038-10.43-8.201 18.363m-.088-.012-4.455-19.476m15.596 12.672L-5.3 958.69m15.461 13.32-20.607-2.219m18.037-10.27-18.067 10.185"/>
        <circle cx="-360.075" cy="1008.016" r="1.25" fill="#f3ba38" stroke="#f3ba38" stroke-width=".1"/>
        <circle cx="-339.029" cy="928.285" r="1.25" fill="#f3ba38" stroke="#f3ba38" stroke-width=".1"/>
        <circle cx="-161.679" cy="1047.976" r="1.25" fill="#f3ba38" stroke="#f3ba38" stroke-width=".1"/>
        <circle cx="61.103" cy="888.659" r="1.25" fill="#f3ba38" stroke="#f3ba38" stroke-width=".1"/>
        <circle cx="39.864" cy="968.203" r="1.25" fill="#f3ba38" stroke="#f3ba38" stroke-width=".1"/>
        <circle cx="-140.583" cy="968.155" r="1.25" fill="#f3ba38" stroke="#f3ba38" stroke-width=".1"/>
        <path fill="none" stroke="#f3ba38" stroke-linecap="round" stroke-linejoin="round" d="m-353.845 1014.993.099-.417.34-1.455q.316-1.353.556-2.3.239-.946.548-2.083t1.362-4.398 1.448-4.191.74-1.512.531-.78.59-.406q.046.004.345.452.299.449.53 1.521.23 1.073.476 3.013l.389 3.068q.143 1.128.21 1.619.067.49.249 1.665.183 1.175.284 1.769l.163.948q.061.355.223 1.194.028.103.092.704"/>
        <path fill="none" stroke="#f3ba38" stroke-linecap="round" stroke-linejoin="round" d="m-352.389 1008.521.147-.031q.126-.015 1.317-.311t1.759-.458.901-.265 1.2-.383q.174-.076.285-.122.112-.046.318-.138m14.922-88.993q-.05.455-.071.709-.02.255-.071 1.031t-.146 2.758q-.095 1.981-.124 3.013-.03 1.033-.047 1.929t-.016 2.393q.001 1.496.027 2.354t.053 1.33q.028.472.047.727t.049.566.031.319q.002.009.065.702m.48-15.944.321-.182q.195-.11.45-.233t.604-.269.802-.279.755-.176q.302-.042.558-.04t.54.062q.283.059.424.12t.249.133.202.159.211.256.202.381.131.525.007.679-.083.537-.231.642-.47.956q-.282.484-.511.807t-.514.703q-.286.38-.377.53t-.101.194q-.011.042.161.062t.613-.026.845-.082.902-.033.987.07.841.164.817.326q.467.228.932.636t.748.865.384.787.128.656.002.593-.112.588q-.089.32-.3.73-.211.409-.578.841-.367.431-.764.753t-1.505.867q-1.109.546-1.871.749-.763.203-1.14.263-.377.061-.843.098-.467.038-.846.042-.379.003-.813-.034t-1.349-.193l-.408-.05m176.49 117.818q.062-.356.76-2.997.697-2.641 1.362-4.825.664-2.184 1.259-3.686.596-1.501.924-2.079t.5-.796q.171-.219.953-.684.081.02.246.125.166.106.342.32t.334.509.249.505q.09.21.447 1.4.356 1.191.577 2.188t.375 1.769q.153.773.356 1.861.204 1.089.382 1.971t.302 1.472q.125.591.288 1.528.033.243.11.697"/>
        <path fill="none" stroke="#f3ba38" stroke-linecap="round" stroke-linejoin="round" d="M-153.026 1046.407q.134-.033.81-.177l1.75-.378q1.075-.234 3.105-.664l.857-.209m11.545-73.744q-.017.214-.024.331t-.03 1.289q-.024 1.172-.031 1.929-.008.758.013 3.254t.065 4.03.102 2.837m-.047-12.915q.101-.027.215-.075l.217-.089q.104-.041.548-.179.443-.138 1.184-.287t1.371-.142q.63.005.938.082t.493.168.285.164.241.219.267.353.225.656q.098.45.057.855-.042.406-.222.946-.181.54-.403.966-.221.427-.334.619l-.257.443q-.145.251-.211.5.042.019.095.033.054.015.633.048.579.032 1.077.054t.919.084.768.167q.347.103.685.274t.705.479.564.584.272.434q.074.157.129.369.056.211.057.547t-.113.741-.344.78-.523.687q-.293.31-.789.677t-1.45.79q-.953.422-1.582.599t-1.25.31q-.621.134-1.153.217t-.809.11-.477.043-.415.022q-.214.007-.887.075m180.957-19.981q.033-.119.707-2.075.674-1.955 1.116-3.175t.672-1.815q.23-.594.733-1.745.502-1.151 1.103-2.131t.895-1.263.51-.404q.217-.121.321-.144t.174 0 .107.04.244.201.72 1.449q.512 1.263.907 3.405.396 2.142.503 2.96t.207 1.866.128 1.893q.005.028-.092 1.108"/>
        <path fill="none" stroke="#f3ba38" stroke-linecap="round" stroke-linejoin="round" d="M48.369 961.422q.23-.078 1.036-.302t1.892-.54q1.087-.317 1.737-.517.65-.199 1.155-.345.084-.013.15-.036t.177-.073.527-.265m12.086-70.639q-.021.281-.044 1.939t-.032 3.448.032 4.532.235 7.197q.01.077.052.861"/>
        <path fill="none" stroke="#f3ba38" stroke-linecap="round" stroke-linejoin="round" d="M67.11 890.5q.158-.057.398-.185.241-.129.816-.38.576-.252 1.362-.472t1.264-.265q.478-.046.866-.011t.69.124.514.198.47.342.468.636q.211.405.278.789t.063.701-.158.929q-.154.613-.588 1.424-.435.81-.889 1.37-.455.56-.79.882-.334.323-.741.642-.407.318-.531.385-.124.066-.076.023t.16-.107q.113-.064.291-.147.179-.083.581-.228.403-.145 1.98-.476t2.542-.355 1.704.094q.738.117 1.14.258t.737.333.598.423q.262.232.509.593.247.362.373.734.125.373.151.774.026.4-.06.866-.087.466-.336 1.018-.249.551-.47.876-.221.326-.495.625-.274.3-.703.653-.43.353-1.172.79-.743.438-1.841.891t-1.975.712q-.878.259-1.413.386-.534.126-1.037.216t-1.105.159-1.426.175q-.176.038-.676.115m-82.497 51.877q.031-.163.214-1.285.184-1.123.248-2.209.064-1.085.031-1.595-.032-.509-.187-1.279-.154-.77-.434-1.395-.28-.624-.519-.946-.24-.322-.37-.454-.13-.131-.373-.317-.242-.187-1.124-.453-.881-.265-1.458-.241-.576.025-.929.103t-.744.237-.671.321-.653.439-1.086 1.063q-.713.785-1.348 2.006-.634 1.221-.826 1.921t-.241 1.87q-.049 1.171.085 1.862.135.69.361 1.217.226.526.498.917.271.391.571.68t.748.55q.447.262 1.134.424t1.087.163q.4.003 1.387-.265.986-.267 1.579-.593.594-.325.986-.616.392-.29.948-.805.557-.515 1.124-1.141l.385-.465"/>
        <path fill="none" stroke="#f3ba38" stroke-linecap="round" stroke-linejoin="round" d="M-17.175 956.152q.279.314.55.657.27.343.721.885l1.115 1.341q.664.8 1.205 1.47t.92 1.149m-202.95-2.938q.084-.165.133-.235t.137-.19.208-.299.401-.656q.28-.477.696-1.387.415-.909.613-1.55.197-.641.298-1.309.101-.669.092-1.12-.009-.45-.075-.825-.067-.375-.263-.832-.195-.456-.452-.778-.257-.321-.456-.486t-.487-.317q-.288-.151-.657-.244-.37-.094-.708-.109t-1.079.124-1.234.33-1.16.58q-.668.389-1.218.835t-1.13 1.071q-.579.625-1.312 1.842-.732 1.218-.965 1.874t-.345 1.246q-.113.59-.118 1.081-.006.49.025.732.031.243.136.601.105.359.351.789t.677.803.697.481q.267.109.533.165.265.056 1.545-.173t2.017-.549q.738-.319 1.032-.472.294-.154.482-.258.189-.105.422-.243.234-.138.426-.26.192-.123.872-.498"/>
        <path fill="none" stroke="#f3ba38" stroke-linecap="round" stroke-linejoin="round" d="m-217.338 956.27.103.188q.084.164.389.619t.942 1.336.821 1.142.403.601q.097.125.418.637m-202.201-2.986q.69-.763 1.176-1.354.485-.592.847-1.124.362-.531.669-1.098t.571-1.351.34-1.827-.028-1.605q-.103-.564-.352-1.113-.25-.549-.559-.93t-.684-.662-.807-.455q-.431-.174-.996-.256-.566-.082-1.725.16-1.158.241-1.802.553-.643.312-1.243.723t-1.456 1.257-1.38 1.606-.879 1.552-.506 1.395q-.151.604-.2 1.294-.048.69.054 1.402.103.711.515 1.594.411.884.583 1.087t.393.391.501.348.681.282.849.148q.447.025 1.599-.284 1.153-.31 1.643-.569l.566-.299q.076-.042.239-.14t.433-.283l1.023-.695"/>
        <path fill="none" stroke="#f3ba38" stroke-linecap="round" stroke-linejoin="round" d="M-417.969 955.682q.143.206.327.477.183.272.492.692t.677.935.657.896.748.896l.463.611"/>
    </g>
    <g style="display:inline">
        <path fill="none" stroke="#9378e3" stroke-linecap="round" stroke-linejoin="round" stroke-width="7.5" d="M1481.976 788.603h60v60h-60zm150-90v120h30v-120zm-90-30h180v-30h-180z"/>
        <path fill="none" stroke="#9378e3" stroke-linecap="round" stroke-linejoin="round" stroke-width="7.5" d="M1391.985 577.979v300h360v-300z"/>
        <path fill="none" stroke="#f3ba38" stroke-linecap="round" stroke-linejoin="round" stroke-width="1.5" d="m1418.858 583.834-21.387 42.915m51.835-42.986-51.313 102.06m.054 57.483 81.33-159.226m-82.629 222.262 107.768-211.927m-88.142 235.225 102.358-204.346m-57.192 174.324 71.604-143.965m-32.977 126.938 54.03-107.521m-24.728 107.671 26.966-54.445m5.335-10.77 21.26-42.926m-34.515 130.281 30.518-60.333m4.579-9.051 2.678-5.298m4.777-9.442 22.501-44.484m-70.824 196.486 83.17-161.443m9.845-19.11 8.406-16.316m-69.553 197.057 51.647-103.704m45.446-91.268 1.613-3.237m-69.152 198.036 25.286-48.741m6.174 48.407 12.076-23.55m-21.632-33.987-227.464-113.984m260.805 163.658-111.338-59.819m-46.054-21.672-105.177-53.01m222.666 142.572-71.52-38.54m12.633 38.48-19.305-10.005m-99.112-49.678-45.582-22.76m71.773 5.715-70.302-34.975m18.945 69.232-20.064-9.988m228.701-35.54-227.75-113.952m227.282 83.855-41.944-21.126m-29.158-14.686-156.762-78.955m228.99 85.047-229.044-115.38m228.83 86.403-42.183-21.375m-54.026-27.376-124.144-62.907m253.966 98.283-13.996-7.007m-135.863-68.893-44.739-22.391" opacity=".5"/>
        <path fill="none" stroke="#f3ba38" stroke-linecap="round" stroke-linejoin="round" stroke-width="1.5" d="m1474.881 794-76.209 51.579m142.029 9.639-4.09 16.416m100.008-46.574 31.449 47.026m-22.665-179.156 39.409-18.63m-149.208-21.172-33.082-69.215"/>
        <path fill="none" stroke="#f66640" stroke-linecap="round" stroke-linejoin="round" stroke-width="3.75" d="m1561.697 739.529 11.86-27.736m.132.016 7.146 29.105m-23.692-18.635 23.666 18.585m-23.506-19.609 30.96 2.836m-26.808 15.834 26.855-15.706"/>
        <circle cx="1482.775" cy="788.972" r="1.875" fill="#fa7fb1" stroke="#fa7fb1" stroke-width=".15"/>
        <circle cx="1541.751" cy="788.287" r="1.875" fill="#fa7fb1" stroke="#fa7fb1" stroke-width=".15"/>
        <circle cx="1542.437" cy="848.256" r="1.875" fill="#fa7fb1" stroke="#fa7fb1" stroke-width=".15"/>
        <circle cx="1535.872" cy="878.1" r="1.875" fill="#fa7fb1" stroke="#fa7fb1" stroke-width=".15"/>
        <circle cx="1673.034" cy="878.052" r="1.875" fill="#fa7fb1" stroke="#fa7fb1" stroke-width=".15"/>
        <circle cx="1632" cy="817.881" r="1.875" fill="#fa7fb1" stroke="#fa7fb1" stroke-width=".15"/>
        <circle cx="1632.309" cy="699.487" r="1.875" fill="#fa7fb1" stroke="#fa7fb1" stroke-width=".15"/>
        <circle cx="1691.967" cy="669.195" r="1.875" fill="#fa7fb1" stroke="#fa7fb1" stroke-width=".15"/>
        <circle cx="1542.322" cy="668.056" r="1.875" fill="#fa7fb1" stroke="#fa7fb1" stroke-width=".15"/>
        <path fill="none" stroke="#fa7fb1" stroke-linecap="round" stroke-linejoin="round" stroke-width="3.75" d="m1500.3 577.205.025.162"/>
        <circle cx="1391.445" cy="848.372" r="1.875" fill="#fa7fb1" stroke="#fa7fb1" stroke-width=".15"/>
        <circle cx="1392.448" cy="578.378" r="1.875" fill="#fa7fb1" stroke="#fa7fb1" stroke-width=".15"/>
    </g>
    <g fill="none" stroke-linecap="round" stroke-linejoin="round" style="display:inline">
        <path stroke="#9378e3" stroke-width="7.5" d="M881.417 788.498h60v60h-60zm150-90v120h30v-120zm-90-30h180v-30h-180z"/>
        <path stroke="#9378e3" stroke-width="7.5" d="M791.985 577.979v300h360v-300z"/>
        <path stroke="#6ac0c8" stroke-width="1.5" d="m1144.473 727.789-163.644-.22m159.545-5.722q-.113-1.606-.383-5.772-.268-4.166-.654-8.181-.385-4.017-.615-5.823-.228-1.808-.522-3.87t-.768-5.031q-.472-2.968-.837-4.94-.364-1.972-.514-2.662-.149-.691-.305-1.401-.154-.708-.219-1.026-.064-.318-.606-2.88m6.171 8.153-.343-.444q-.061-.147-.953-1.379t-2.052-2.851q-1.16-1.622-1.47-1.878l-.583-.642q-.064-.085-.354-.497m-2.217 11.883q.81-6.625 1.096-9.052.288-2.429.333-2.495.043-.066.236-1.31"/>
        <path stroke="#f66640" stroke-width="3.75" d="m961.137 739.426 11.86-27.738m.133.016 7.146 29.105m-23.693-18.635 23.667 18.585m-23.506-19.608 30.96 2.837m-26.808 15.832 26.854-15.707"/>
    </g>
    <g style="display:inline">
        <path fill="none" stroke="#9378e3" stroke-linecap="round" stroke-linejoin="round" stroke-width="7.5" d="M281.663 788.72h60v60h-60zm150-90v120h30v-120zm-90-30h180v-30h-180z"/>
        <path fill="none" stroke="#9378e3" stroke-linecap="round" stroke-linejoin="round" stroke-width="7.5" d="M191.985 577.979v300h360v-300z"/>
        <path fill="none" stroke="#f3ba38" stroke-linecap="round" stroke-linejoin="round" stroke-width="1.5" d="m364.053 734.159-75.273 49.572m-12.331 8.119-77.63 51.228m167.51-106.468-35.531 47.04m-7.066 9.356-37.579 49.75m-7.834 10.373-15.605 20.659m105.409-136.465-23.52 46.534m-7.095 14.04-23.465 46.426m-4.927 9.749-9.794 19.379m72.123-138.789-24.562 94.588m-6.378 24.543-4.74 18.246M378.2 737.788l47.832 73.326m8.853 13.572 30.655 46.993M379.908 736.72l46.505 46.561m9.729 9.741 20.526 20.55m9.262 9.275 49.551 49.612M384.809 724.597l41.357-13.941m11.108-3.744 10.257-3.46m19.095-6.436 79.248-26.715m-161.368 53.555 41.638-16.787m33.646-13.563 48.164-19.416m19.119-7.707 19.217-7.746m-162.477 64.121 42.525-21.365m15.591-7.833 38.736-19.461m19.486-9.792 17.165-8.623m9.87-4.958 19.308-9.7M382.92 721.85l77.816-47.674m16.038-9.826 35.176-21.552m13.683-8.381 20.462-12.537m-176.636 98.581-16.132-46.452m-3.737-10.759-3.414-9.834m-6.828-19.661-17.742-50.51m46.224 137.422-23.173-46.536m-8.157-16.379-36.827-74.514m64.619 150.899-58.836 48.793m-13.074 10.844-5.064 4.2m-10.94 9.072-79.062 65.566m168.618-150.043L198.801 584.65m179.694 137.469 57.689-47.667m12.804-10.582 24.96-20.623m12.421-10.264 59.159-48.882M378.651 732.926l47.7 39.654m10.069 8.372 20.16 16.76m10.123 8.415 79.075 65.74"/>
        <path fill="none" stroke="#fa7fb1" stroke-linecap="round" stroke-linejoin="round" stroke-width="1.5" d="M502.947 707.13q-1.188-1.081-1.948-1.83-.761-.748-1.723-1.797t-1.785-2.086q-.822-1.038-1.765-2.54t-1.455-2.497-.853-1.756q-.344-.761-.477-1.076-.134-.315-.653-1.944-.519-1.627-.736-2.493-.216-.864-.321-1.327-.105-.465-.17-.731-.063-.267-.26-1.431-.196-1.164-.27-1.662-.074-.497-.32-2.615-.246-2.116-.41-3.71m-2.382 9.267.04-.46q.017-.142.645-3.346.629-3.202 1.4-6.543l.189-.654.177-.6m.267.091q.089.207.389 1.032t.688 1.871q.39 1.044.627 1.662.239.618.912 2.427l.023.137.208.675q.021.076.164.541.14.464.526 1.556"/>
        <path fill="none" stroke="#f66640" stroke-linecap="round" stroke-linejoin="round" stroke-width="3.75" d="m361.383 739.648 11.86-27.737m.133.017 7.146 29.103m-23.693-18.633 23.667 18.583m-23.506-19.608 30.96 2.837m-26.808 15.834 26.854-15.708" style="display:inline"/>
        <path fill="none" stroke="#fa7fb1" stroke-linecap="round" stroke-linejoin="round" stroke-width="1.5" d="M181.148 842.03q-.117-.222-.392-.697-.274-.474-.59-.945-.314-.47-.54-.763-.224-.292-.526-.615-.3-.32-.483-.483t-.502-.39q-.321-.227-.926-.503-.604-.276-1.276-.413-.674-.136-1.037-.148-.364-.012-.784.03-.42.043-.617.087-.198.043-.633.19t-1.012.471q-.58.324-.914.59-.336.267-.652.586-.317.32-.728.88t-.607.903q-.198.343-.444.889-.248.546-.345.816-.098.27-.182.54-.082.27-.231.991-.15.722-.21 1.373-.061.65-.052 1.447t.064 1.307.252 1.387q.197.88.438 1.521.242.64.411.981.171.34.512.884.34.543.597.864.258.32.498.568.241.246.687.59t1.138.699 1.293.522q.602.166 1.008.208t1.071-.022 1.112-.194q.445-.13.826-.307t.776-.428 1.095-.885 2.298-2.581l.073-.108m3.201.19q-.021.149-.057.717-.037.569-.07 1.185-.032.616-.054 1.096-.023.48-.033.762-.012.281-.07 1.379-.056 1.098-.098 1.711-.044.612-.086 1.167-.016.143-.039.327m.708-22.996q-.027.129-.208.773l-.332 1.173-.253.886q-.106.362-.278.936-.171.576-.273.909-.102.335-.132.428l-.096.3-.075.229m2.54-5.595q-.068.125-.143.29-.073.166-.14.311l-.367.8q-.3.654-.553 1.221t-.448 1.02-.418 1l-.036.07-.056.139q-.115.256-.145.327l-.09.21m1.64-5.406h.108l.294-.027q.016.008.342-.021l.12.003" style="display:inline"/>
        <path fill="none" stroke="#fa7fb1" stroke-linecap="round" stroke-linejoin="round" stroke-width="3.75" d="m334.079 878.626-.086-.053-.124.001" style="display:inline"/>
        <circle cx="470.187" cy="878.535" r="1.875" fill="#fa7fb1" stroke="#fa7fb1" stroke-width=".15" style="display:inline"/>
        <path fill="none" stroke="#fa7fb1" stroke-linecap="round" stroke-linejoin="round" stroke-width="1.5" d="M463.07 906.02q.028-.069.183-.477l.118-.367q.1-.315.383-1.163l.385-1.156.375-1.131.646-1.931q.372-1.108.741-2.167.368-1.058.737-2.081.37-1.022.781-2.094.41-1.071 1.076-2.68t2.57-4.802q.017.008.241.475.222.468.364 1.547.144 1.078.195 1.755.053.676.141 1.96.089 1.283.182 2.36.091 1.077.189 1.977.096.9.276 2.382l.276 2.275q.096.795.194 1.652t.232 2.137q.132 1.281.201 2.033l.098 1.075q.028.324.043.474t.035.395q.017.245.044.755l.021.766" style="display:inline"/>
        <path fill="none" stroke="#fa7fb1" stroke-linecap="round" stroke-linejoin="round" stroke-width="1.5" d="M464.709 899.209q.152.008 1.442.063 1.291.053 2.514.107 1.222.053 1.927.089.707.036 1.49.082.214.012.702.032m4.462 4.73q.111-.303.198-.522t.318-.707.463-.849q.231-.362.551-.708.318-.348.609-.567t.6-.375q.31-.157.613-.252.303-.094.702-.13.4-.036.72.01.321.048.572.15.25.1.482.285t.421.457.274.497.132.534q.047.312.042.514-.006.203-.057.474-.05.273-.19.644-.14.369-.489.948-.35.579-.593.886t-.811.942-1.076 1.182q-.505.546-.883 1.004-.377.457-.593.834-.216.378-.259.53-.045.151-.053.226-.007.073-.007.105l.005.085q.003.056.027.147.05.059.393.19.342.131 1.131.146.788.017 1.427-.031.639-.05 1.012-.086.375-.036 3.672-.339l.275-.018m-8.629-27.17q-.082.243-.408 1.509t-.543 2.059q-.217.795-.543 1.831l-.046.125-.111.317-.198.568m2.845-6.391q-.052.11-.096.216l-.127.319q-.086.213-.192.483l-.191.477-.249.615-.315.763q-.149.359-.323.764-.174.406-.364.84l-.326.735q-.132.302-.175.407-.043.103-.174.385-.13.28-.262.584" style="display:inline"/>
        <path fill="none" stroke="#fa7fb1" stroke-linecap="round" stroke-linejoin="round" stroke-width="1.5" d="m478.557 883.42.095-.007.657-.015.106-.003m-140.796 4.612q-.105-.102-.625-.572-.522-.468-.95-.795t-.7-.493-.55-.304q-.278-.135-.775-.286-.496-.15-1.014-.204-.519-.055-1.428.081-.91.137-1.743.502-.832.365-1.266.654-.432.288-.688.497-.255.207-.491.42-.234.215-.604.615-.371.4-.659.79-.288.389-.682 1.073-.396.684-.605 1.165-.208.483-.48 1.466-.27.982-.352 1.93-.083.948-.057 1.455.025.509.072.83.046.323.132.702.084.378.154.612t.117.377.246.601q.2.457.326.688.126.233.468.731.343.5.834 1.023.49.525 1.22 1.056.731.53 1.4.848.67.317 1.392.523t1.278.27 1.073.048 1.021-.11q.506-.096 1.06-.303.556-.208.877-.379.319-.173.694-.44.377-.267.966-.855.59-.586.968-1.047.378-.459.684-.859l.355-.494m.638 3.976q.249-.467.478-.848.23-.381.489-.738.26-.358.533-.642.271-.282.474-.437.202-.153.367-.238t.492-.141.518-.021q.192.034.316.108.125.073.224.181.097.108.165.267.067.16.105.377t.015.484-.111.599q-.089.331-.168.603-.078.273-.116.45-.037.178-.046.327-.011.15-.011.26 0 .109.153.266.152.158.317.281t.285.205.276.21.343.303q.185.177.287.311t.18.272.153.349.103.486q.027.276-.013.528t-.111.437q-.072.186-.224.421-.151.237-.387.467-.235.229-.705.498-.47.268-.849.388-.381.12-.988.174-.61.054-1.125.009-.518-.045-.768-.091-.25-.047-.561-.147-.311-.102-.92-.396-.093-.044-.541-.248m2.647-25.449q-.045.159-.075.288-.03.13-.031.143t-.3 1.31-.51 2.188l-.306 1.28q-.095.389-.182.734m1.963-5.717q-.024.068-.169.513-.146.444-.332 1.034l-.277.879-.156.488q-.065.196-.171.504-.105.307-.208.598l-.17.47-.081.23q-.018.053-.108.296l-.126.333-.162.418m169.005-185.615q-.042.136-.1.34-.057.204-.234.942-.176.738-.36 1.545-.186.806-.402 1.764-.216.957-.66 2.843-.443 1.887-.692 2.91-.25 1.023-.668 2.71-.417 1.688-.678 2.63-.262.943-.49 1.56m4.755-18.002q.033.279.195 1.07l.333 1.651q.174.861.308 1.51.132.648.376 1.767.243 1.121.497 2.168.253 1.049.666 2.604.412 1.557.58 2.157l.267.959q.1.358.321 1.171.222.813.396 1.487.176.672.243.937.066.266.12.465.054.198.066.237.014.039.063.248l.156.645" style="display:inline"/>
        <path fill="none" stroke="#fa7fb1" stroke-linecap="round" stroke-linejoin="round" stroke-width="1.5" d="m507.075 714.713.123-.025q.093-.015 1.452-.197 1.359-.183 3.312-.55.095-.028.588-.146m6.927 4.389-.007.104q-.01.337-.009 1.78 0 1.442.026 2.466t.031 2.047-.034 1.805l-.092.668m-1.358-29.541-.033.085q-.126.383-.373 1.152-.248.77-.635 2.085-.389 1.316-.627 2.229-.24.912-.394 1.529t-.299 1.129" style="display:inline"/>
        <path fill="none" stroke="#fa7fb1" stroke-linecap="round" stroke-linejoin="round" stroke-width="1.5" d="M519.023 697.415q-.048.111-.554 1.316-.505 1.203-.76 1.824-.255.619-.738 1.81-.485 1.19-.582 1.445-.1.253-.173.46-.073.209-.192.524-.118.316-.211.559l-.152.387m2.492-8.101q.08-.036.109-.051t.173-.057.19-.048q.045-.005.473-.168" style="display:inline"/>
        <circle cx="191.529" cy="847.469" r="1.875" fill="#fa7fb1" stroke="#fa7fb1" stroke-width=".15" style="display:inline"/>
        <circle cx="297.282" cy="577.537" r="1.875" fill="#fa7fb1" stroke="#fa7fb1" stroke-width=".15" style="display:inline"/>
        <circle cx="192.045" cy="578.186" r="1.875" fill="#f3ba38" stroke="#f3ba38" stroke-width=".15" style="display:inline"/>
        <circle cx="191.486" cy="877.943" r="1.875" fill="#f3ba38" stroke="#f3ba38" stroke-width=".15" style="display:inline"/>
        <circle cx="552.029" cy="877.868" r="1.875" fill="#f3ba38" stroke="#f3ba38" stroke-width=".15" style="display:inline"/>
        <circle cx="551.988" cy="577.607" r="1.875" fill="#f3ba38" stroke="#f3ba38" stroke-width=".15" style="display:inline"/>
        <path fill="none" stroke="#fa7fb1" stroke-linecap="round" stroke-linejoin="round" stroke-width="1.5" d="M287.709 555.307q-.003.078.003.8.005.724.02 1.246t.068 1.33.108 1.505l.119 1.434.11 1.317q.048.58.21 2.748.162 2.167.184 2.712.023.546.027.802.003.258.01.573.006.315.006.384t-.022.438m-.706-14.241q.127-.115.175-.162.05-.048.207-.175.159-.13.612-.455.452-.324.831-.542.378-.216.768-.372.392-.157.698-.226.307-.07.709-.07.402.001.638.052.234.051.394.118.162.07.303.161.143.09.3.24.156.15.299.381.142.231.199.387.057.157.104.477.044.32.016.652-.028.333-.132.67-.103.335-.196.538-.094.202-.308.547-.215.345-.407.585-.192.239-.802.822-.61.584-1.052.921-.442.34-.732.531-.033.012-.079.033-.045.02-.072.035t-.054.037q.003.002.078-.05.076-.053.297-.176t.67-.32.689-.283q.238-.087.892-.254.653-.168 1.026-.219.374-.05.632-.058.26-.007.614.02.353.028.665.098.314.07.966.387.653.317.945.555.293.239.474.446.183.207.302.381.12.174.264.492.145.32.234.729.088.41.072.85-.017.443-.063.657-.047.216-.224.66-.175.444-.543.968-.367.523-.732.864-.364.34-1.834 1.051t-1.908.801q-.44.09-.896.141t-1.272.044q-.814-.006-1.321-.05l-.776-.067q-.27-.024-.726-.056m12.937-1.781q-.003-.045-.015-.107-.012-.061-.027-.171l-.038-.268q-.021-.158-.027-.27-.007-.114-.007-.299 0-.183.032-.445.031-.261.09-.476.056-.213.203-.513.146-.299.365-.576t.428-.455.601-.388.677-.287.523-.09.402.008.348.074q.183.054.453.193.268.14.498.335.228.193.331.318.104.124.182.255.077.129.117.219.039.088.066.162.027.072.086.444.057.372.034.645-.022.274-.058.43t-.098.332-.162.376q-.1.203-.94 1.223-.842 1.02-1.313 1.488-.471.47-.657.661-.186.194-.337.38-.15.186-.203.27-.052.082-.138.304-.084.224-.075.333l.054.027q.042.018.155.036t.352 0q.242-.019.437-.05.195-.033.43-.081t.797-.177.985-.23l.779-.183q.354-.084.975-.223.62-.141.988-.222.368-.083.756-.186.389-.105.887-.248l.333-.097m-10.688-20.656-.017.114-.02.098q-.084.352-1.228 6.197l-.108.491" style="display:inline"/>
        <path fill="none" stroke="#fa7fb1" stroke-linecap="round" stroke-linejoin="round" stroke-width="1.5" d="M301.242 549.037q-.034.126-.121.391-.087.264-.227.672t-.298.875q-.16.465-.332.98-.172.516-.92 2.787-.016.041-.08.239-.067.198-.146.468-.081.27-.189.591m1.374-6.961.165-.035q.003.003.464-.105.459-.108.672-.147" style="display:inline"/>
        <circle cx="342.195" cy="848.264" r="1.875" fill="#f3ba38" stroke="#f3ba38" stroke-width=".15" style="display:inline"/>
        <circle cx="281.89" cy="848.755" r="1.875" fill="#f3ba38" stroke="#f3ba38" stroke-width=".15" style="display:inline"/>
        <path fill="none" stroke="#f3ba38" stroke-linecap="round" stroke-linejoin="round" stroke-width="3.75" d="m281.62 788.569-.06-.051" style="display:inline"/>
        <circle cx="342.185" cy="788.638" r="1.875" fill="#f3ba38" stroke="#f3ba38" stroke-width=".15" style="display:inline"/>
        <circle cx="430.92" cy="818.44" r="1.875" fill="#f3ba38" stroke="#f3ba38" stroke-width=".15" style="display:inline"/>
        <path fill="none" stroke="#f3ba38" stroke-linecap="round" stroke-linejoin="round" stroke-width="3.75" d="m460.745 817.93.145.072" style="display:inline"/>
        <circle cx="432.553" cy="698.716" r="1.875" fill="#f3ba38" stroke="#f3ba38" stroke-width=".15" style="display:inline"/>
        <circle cx="461.754" cy="698.904" r="1.875" fill="#f3ba38" stroke="#f3ba38" stroke-width=".15" style="display:inline"/>
        <circle cx="521.865" cy="668.677" r="1.875" fill="#f3ba38" stroke="#f3ba38" stroke-width=".15" style="display:inline"/>
        <circle cx="490.458" cy="669.198" r="1.875" fill="#fa7fb1" stroke="#fa7fb1" stroke-width=".15" style="display:inline"/>
        <path fill="none" stroke="#f3ba38" stroke-linecap="round" stroke-linejoin="round" stroke-width="3.75" d="m519.67 637.871.095-.111" style="display:inline"/>
        <circle cx="341.819" cy="668.261" r="1.875" fill="#f3ba38" stroke="#f3ba38" stroke-width=".15" style="display:inline"/>
        <circle cx="341.631" cy="638.753" r="1.875" fill="#f3ba38" stroke="#f3ba38" stroke-width=".15" style="display:inline"/>
    </g>
    <g style="display:inline">
        <path fill="none" stroke="#9378e3" stroke-linecap="round" stroke-linejoin="round" stroke-width="7.5" d="M-318.774 788.909h60v60h-60zm150-90v120h30v-120zm-90-30h180v-30h-180z"/>
        <path fill="none" stroke="#9378e3" stroke-linecap="round" stroke-linejoin="round" stroke-width="7.5" d="M-408.015 577.979v300h360v-300z"/>
        <circle cx="-318.82" cy="848.535" r="1.875" fill="#f3ba38" stroke="#f3ba38" stroke-width=".15"/>
        <circle cx="-318.756" cy="789.264" r="1.875" fill="#f3ba38" stroke="#f3ba38" stroke-width=".15"/>
        <circle cx="-258.791" cy="788.642" r="1.875" fill="#f3ba38" stroke="#f3ba38" stroke-width=".15"/>
        <circle cx="-258.726" cy="848.893" r="1.875" fill="#f3ba38" stroke="#f3ba38" stroke-width=".15"/>
        <circle cx="-168.777" cy="818.937" r="1.875" fill="#f3ba38" stroke="#f3ba38" stroke-width=".15"/>
        <circle cx="-138.869" cy="819.045" r="1.875" fill="#f3ba38" stroke="#f3ba38" stroke-width=".15"/>
        <circle cx="-168.49" cy="698.978" r="1.875" fill="#f3ba38" stroke="#f3ba38" stroke-width=".15"/>
        <circle cx="-138.819" cy="698.589" r="1.875" fill="#f3ba38" stroke="#f3ba38" stroke-width=".15"/>
        <circle cx="-78.661" cy="668.993" r="1.875" fill="#f3ba38" stroke="#f3ba38" stroke-width=".15"/>
        <path fill="none" stroke="#f3ba38" stroke-linecap="round" stroke-linejoin="round" stroke-width="3.75" d="m-78.382 638.432-.25.264"/>
        <circle cx="-258.797" cy="638.826" r="1.875" fill="#f3ba38" stroke="#f3ba38" stroke-width=".15"/>
        <circle cx="-258.654" cy="668.42" r="1.875" fill="#f3ba38" stroke="#f3ba38" stroke-width=".15"/>
        <circle cx="-408.254" cy="877.649" r="1.875" fill="#f3ba38" stroke="#f3ba38" stroke-width=".15"/>
        <circle cx="-407.877" cy="578.319" r="1.875" fill="#f3ba38" stroke="#f3ba38" stroke-width=".15"/>
        <circle cx="-47.956" cy="577.895" r="1.875" fill="#f3ba38" stroke="#f3ba38" stroke-width=".15"/>
        <circle cx="-47.832" cy="878.174" r="1.875" fill="#f3ba38" stroke="#f3ba38" stroke-width=".15"/>
        <path fill="none" stroke="#f3ba38" stroke-linecap="round" stroke-linejoin="round" stroke-width="1.5" d="M-246.934 743.704q.046-.096.286-.476t.511-.814.413-.683.24-.426.212-.414q.113-.237.472-1.11.36-.873.528-1.432.17-.56.247-.919.078-.357.114-2.308.036-1.953-.217-2.979-.254-1.028-.683-1.953-.429-.927-.78-1.449-.352-.523-.729-.942-.376-.418-1.107-.981-.729-.564-1.465-.933-.735-.369-1.929-.616-1.194-.248-2.265-.192t-1.497.157q-.428.102-.783.233-.355.129-.897.4-.542.272-1.247.785-.706.514-1.284 1.112-.577.599-1.08 1.33-.502.728-1.038 1.865-.535 1.137-.74 1.84-.208.702-.278 1.048-.07.345-.132.915-.06.569-.069 1.098-.008.53.132 1.567.141 1.04.333 1.683.192.644.411 1.14t.462.912.764 1.079.835.976 1.188.906 1.328.801q.454.212.631.281.179.069.494.165.315.097.796.183.48.084.983.129.502.043 1.023.033.522-.01.874-.053.353-.042.798-.14.444-.1 1.103-.3.658-.202 1-.326.344-.125.717-.278.374-.153 1.19-.504"/>
        <path fill="none" stroke="#f3ba38" stroke-linecap="round" stroke-linejoin="round" stroke-width="1.5" d="M-250.8 740.455q.099.108.758.781.66.675 1.547 1.619.888.943 1.33 1.423t.862.924 1.3 1.334l.18.211m52.565-38.871.027-.186q.031-.188.448-2.078.419-1.891.785-3.364.364-1.472.552-2.186.186-.715.603-2.275.417-1.562.672-2.492.255-.928.618-2.145t.696-2.134 1.743-2.799q.099.045.544.674.446.628.791 1.525t.514 1.414q.171.518.438 1.358.269.84.663 2.188.395 1.35.594 2.076.201.726.284 1.041.082.317.393 1.55.309 1.234.493 1.99.183.758.3 1.223l.212.837q.095.372.216.871.12.498.596 2.549l.074.321"/>
        <path fill="none" stroke="#f3ba38" stroke-linecap="round" stroke-linejoin="round" stroke-width="1.5" d="m-189.876 700.841.17-.003q.218.012 1.904-.042 1.685-.056 2.95-.123 1.263-.066 1.488-.083.223-.016.663-.064.15-.012.59-.027m-9.526 132.699.05-.247q.032-.14.367-1.331.333-1.192.879-3.022.546-1.832.707-2.34.158-.509.751-2.306.591-1.797 1.124-3.377.53-1.579.788-2.337.257-.757.533-1.552.274-.797.876-2.285.6-1.486.978-2.077.377-.592.975-.969.119.037.344.225.224.187.475.603.25.414.537 1.131t.762 2.443q.473 1.728.792 3.204t.467 2.234q.145.759.198 1.053l.181 1.032q.13.736.218 1.215l.208 1.141q.122.663.308 1.746.186 1.085.306 1.773.118.689.23 1.298.115.609.166.89l.103.59.12.705q.069.392.107.62"/>
        <path fill="none" stroke="#f3ba38" stroke-linecap="round" stroke-linejoin="round" stroke-width="1.5" d="M-188.914 826.345q.12-.01 1.454-.15 1.336-.141 2.372-.273 1.037-.131 1.815-.25.78-.117 1.971-.328l.67-.112m6.722 6.885.057-.303q.02-.098.167-.6t.32-.923q.175-.423.42-.822.246-.398.452-.623t.498-.442q.291-.216.695-.363t.739-.17q.335-.024.528.002t.502.132.528.242q.22.135.389.298.17.165.29.333.118.168.24.434.12.265.172.477.053.21.075.511t-.035.698q-.057.394-.274.952-.218.56-.408.887-.192.327-.43.667-.24.34-.504.666-.264.327-.704.828-.438.503-.664.767t-.689.876q-.462.61-.561.813t-.14.346-.044.26-.003.13.22.179q.218.165.803.295.583.132 1.27.153t1.1.01q.414-.014 1.464-.068t1.57-.093q.263-.029.824-.081m31.927-2.09q.045-.25.249-1.018l.685-2.595q.483-1.827.765-2.82.282-.994.416-1.447.135-.454.825-2.667t1.5-4.768q.811-2.555 1.192-3.716.383-1.162.582-1.735.201-.575.51-1.304.31-.729.552-1.059t.46-.448q.01 0 .242.231.231.232.839 1.977.609 1.744.934 2.974.326 1.232.495 1.893l.467 1.81q.295 1.148.607 2.252t.666 2.268q.356 1.166.938 3.051.58 1.886.841 2.751.26.866.543 1.782.282.918.323 1.062.042.143.1.36.057.218.243.947"/>
        <path fill="none" stroke="#f3ba38" stroke-linecap="round" stroke-linejoin="round" stroke-width="1.5" d="M-130.435 828.889q.223.018.77.033.546.015 1.413.034.868.02 1.579.029.71.009 1.665.03.952.019 1.588.04.636.023 1.935.035m7.491 5.974.159-.312q.21-.324.689-.768.48-.446.99-.735.51-.29.9-.423.39-.134.723-.167.331-.033.622.032.29.064.546.27.258.207.392.426.132.22.19.369.057.147.072.617.017.469-.091.904-.11.435-.237.753-.126.32-.276.621-.149.302-.638 1.514.359.274.555.345.197.072.407.139t.343.107.264.084q.132.044.24.083.11.04.27.114.162.075.479.263.316.186.469.299t.329.274q.177.16.268.271.09.111.197.284.105.171.21.462.105.29.133.48.029.189-.058.622-.086.434-.215.687-.13.254-.306.482-.175.228-.432.463-.258.237-.694.497-.437.26-1.043.471-.606.213-.951.277t-.92.095q-.574.028-1.117-.029t-.807-.124q-.265-.066-.381-.11-.115-.042-.264-.117-.147-.073-.312-.19t-.274-.212-.17-.162l-.142-.157q-.083-.092-.239-.285l-.223-.23m-16.754-131.111q.06-.326.171-.846.112-.521.411-1.872.297-1.352.465-2.085.167-.734.446-1.898.277-1.164.694-2.863t.879-3.559.857-3.39q.394-1.53.8-2.917.407-1.389.692-2.126.285-.738.453-1.044.17-.307.416-.567.247-.259.46-.339l.085.04q.05.035.36.494.312.46.653 1.506.339 1.047.514 1.733l.276 1.096.198.8q.096.391.273 1.098.177.705.422 1.638.243.933.757 3.08.515 2.147.815 3.556t.421 2.025q.12.615.386 2.154.264 1.539.44 2.737.175 1.199.374 2.586l.086.97"/>
        <path fill="none" stroke="#f3ba38" stroke-linecap="round" stroke-linejoin="round" stroke-width="1.5" d="M-128.676 703.952q.105-.001 6.969.057.089-.001.73-.025m13.03.621q-.017.028-.568 1.248-.55 1.218-1.181 2.533-.63 1.314-1.114 2.295-.482.983-.908 1.869-.427.885-.635 1.364-.21.478-.417 1.053-.209.576-.29.954t-.09.53.003.264.033.197q.02.087.071.213.033.033.292.18.26.147.858.215.599.069 1.325.012.724-.058 1.48-.164.756-.108 1.244-.189l.927-.157q.438-.076 1.686-.346l.126-.03q.234-.066 1.163-.256l.574-.136"/>
        <path fill="none" stroke="#f3ba38" stroke-linecap="round" stroke-linejoin="round" stroke-width="1.5" d="M-107.655 704.33q.003.111.045.879l.117 2.181q.075 1.413.158 2.714.08 1.3.169 2.491t.152 2.09.134 1.828.113 1.544l.066 1.035q.026.421.056 1.49.028 1.071.058 2.924l-.009.792m-69.517-21.608q.004.263.06 1.373.055 1.112.12 2.205.063 1.095.202 2.894.138 1.798.29 3.379.007.05.012.197.003.148.015.384l.011.187M-277.464 610.35q-.03.354-.043.959-.014.605.019 3.656.033 3.05.116 4.646.082 1.596.132 2.331.048.735.13 1.935.083 1.2.134 2.091t.076 1.457q.024.566.053 2.031.009.064-.004.877m-.219-19.688.303-.237q.089-.072.237-.171.147-.101.627-.405.482-.305 1.05-.581.569-.274 1.103-.438.536-.163 1.09-.214.557-.05.973.002.417.053.733.16.317.105.66.312.345.205.744.684.398.478.546.82.147.342.213.717.068.377.045.8-.021.422-.124.829-.102.407-.224.698-.121.29-.486.855-.366.565-.87 1.12-.502.557-.756.795-.253.24-.387.377-.133.137-.264.322.056.022.255.015.2-.008.546-.056t.86-.109q.514-.059 1.254-.081.738-.021 1.164.012.427.034.81.112.384.08.622.144.239.065.725.311.487.244.787.462.299.216.548.441t.352.333q.102.11.255.327.153.219.365.657.21.438.355 1.002.146.564.177.945.032.381.003.655-.028.275-.244 1.035-.216.761-.422 1.167-.205.408-.426.734-.22.327-.771.871-.55.543-1.261 1.044-.713.5-1.127.728t-1.114.513-2.141.612-2.166.406-1.066.104q-.344.025-.542.03-.2.006-.508.001-.31-.005-.93.021m19.44-11.311-.002.275q-.001.15.11 1.704.113 1.555.176 2.383t.105 1.443.126 4.238l-.001.152q.009.111-.05.848"/>
        <path fill="none" stroke="#f66640" stroke-linecap="round" stroke-linejoin="round" stroke-width="3.75" d="m-239.055 739.835 11.862-27.736m.132.016 7.146 29.103m-23.692-18.633 23.667 18.585m-23.507-19.61 30.96 2.837m-26.808 15.834 26.855-15.706"/>
        <path fill="none" stroke="#f3ba38" stroke-linecap="round" stroke-linejoin="round" stroke-width="1.5" d="m-277.58 671.324.033 3.231q.032 2.942.067 4.572t.106 3.861.093 3.028q.023.8.05 2.178.009.06.009.863"/>
        <path fill="none" stroke="#f3ba38" stroke-linecap="round" stroke-linejoin="round" stroke-width="1.5" d="M-277.686 671.381q.219-.265.303-.36.083-.096.57-.568.486-.473.843-.758t.675-.48q.32-.195.696-.35.377-.154.74-.229.364-.077.703-.083t.921.161q.584.166.827.321.244.154.388.28.146.128.291.302.147.174.297.429t.269.667q.117.411.139.668.024.256.005.612-.021.354-.15.921-.129.565-.448 1.312-.321.747-.744 1.473-.425.726-1.007 1.532-.583.805-.847 1.116-.264.31-.396.448-.132.137-.278.26-.145.123-.304.174-.021-.003.054-.102.076-.099.262-.236.188-.136.797-.44.607-.305 1.398-.548.792-.242 1.692-.36t1.564-.132 1.425.087q.762.102 1.274.244.511.143.753.24.241.096.693.353.45.256.709.471.261.214.48.465.22.252.384.522t.314.754.174.926q.022.441-.065.956-.088.514-.393 1.201-.304.687-1.008 1.524-.702.837-1.164 1.21-.462.374-.74.557t-.718.423q-.442.242-.867.428-.426.186-1.131.402t-1.35.343-1.464.224q-.82.097-1.492.148-.674.05-1.461.074l-1.355.04-.844.022q-.278.006-.99.063m18.087-.271q.065-.189.1-.301.035-.114.148-.401.113-.286.287-.682.173-.398.346-.704.172-.307.438-.691.265-.386.601-.72.336-.336.78-.608t.771-.369.587-.114q.258-.015.579.045t.903.492q.582.43.847.87.267.44.387.832.12.393.153.911.033.516-.049 1.068-.083.552-.269 1.098-.184.547-.493 1.134-.308.588-.773 1.267t-.774 1.068l-.769.968q-.46.579-.801 1.021-.34.443-.824 1.155-.483.714-.568.975-.038.101-.047.152-.009.052.012.175.023.017.285.038.263.022.915-.122.654-.142 1.374-.37t1.19-.389q.468-.16 1.126-.402.66-.241 1.376-.522l1.177-.46q.462-.18.681-.261.218-.081.506-.183t.464-.159q.175-.059.371-.128.199-.067.65-.243.452-.177.659-.246m162.769-14.497q-.013.224-.018.743t-.001.961q.002.443.014.965.011.52.047 1.43.035.911.222 3.491.188 2.579.36 4.383.171 1.805.252 2.64.081.837.129 1.368.05.531.408 4.103l.023.181"/>
        <path fill="none" stroke="#f3ba38" stroke-linecap="round" stroke-linejoin="round" stroke-width="1.5" d="M-84.213 680.57q.306-.243.49-.38.184-.138.775-.511.589-.373 1.061-.63.475-.256 1.337-.597.863-.34 1.51-.475.647-.137.986-.161.339-.025.978.021.639.045 1.125.179.486.132.939.369.454.237.804.54.348.303.588.654.238.349.345.6.108.25.201.724t.084.935q-.012.459-.08.793-.069.335-.135.546t-.306.717q-.238.506-.601 1.014-.365.509-.899 1.05-.535.542-1.021.912t-.824.576-.492.297-.241.149q-.002.003.097-.038.098-.042.39-.117t.75-.133q.458-.057.905-.056.445.001 1.063.087.617.087 1.082.22.465.136 1.07.443.602.306 1.097.71.495.402.753.699.257.295.558.822.303.526.464 1.114.16.587.183.896t-.007.673q-.032.365-.119.705-.088.34-.21.612-.123.27-.508.78-.387.51-.797.867t-1.453.947q-1.044.588-1.764.843-.722.255-1.623.462-.902.205-1.57.298-.667.093-1.168.134-.5.039-.79.058t-1.266.03m14.07-2.108q.21-.307.232-.342.023-.034.096-.132.074-.097.206-.256.13-.159.748-.726t.959-.753q.34-.184.601-.258.263-.073.438-.087.176-.012.378.015.204.029.426.128.22.097.389.23.168.133.34.355.174.222.336.607.162.384.249 1.133.086.747-.006 1.446-.093.7-.262 1.219-.17.52-.333.864-.165.342-.414.717-.25.375-.467.62-.216.244-.516.504-.3.258-.675.465-.375.205-.541.211-.167.008-.171-.016t.082-.135.198-.195q.11-.084.419-.245.307-.162.715-.285.407-.124.833-.16t.804.006.678.135q.298.091.726.369.427.277.699.58t.447.665.255.762q.078.4.046.91-.033.51-.153.896-.12.385-.25.637t-.447.644q-.318.391-.818.777-.498.385-1.285.733-.788.35-1.45.489-.661.141-1.273.174-.612.032-1.155-.013-.541-.045-1.123-.164-.583-.118-1.022-.256-.438-.14-.692-.243-.252-.104-.406-.18-.155-.077-.317-.168t-.29-.173q-.128-.08-.42-.288l-.124-.063-.495-.301m-13.955-96.779q-.014.245-.059 1.337t-.066 3.022q-.021 1.928.015 3.26.035 1.33.116 2.827.082 1.499.193 3.086l.197 2.815.034.792"/>
        <path fill="none" stroke="#f3ba38" stroke-linecap="round" stroke-linejoin="round" stroke-width="1.5" d="m-84.38 611.332.097-.081q.175-.167.871-.73.698-.562 1.28-.984.582-.423 1.252-.81.669-.388 1.227-.624.557-.237 1.158-.402.602-.165 1.197-.22.596-.056 1.03-.015.434.04.782.13.348.092.782.323.433.231.703.478t.471.534q.201.29.366.774.164.483.194.894.03.41-.04.905t-.31 1.122q-.241.625-.519 1.084-.277.46-.729 1.004t-.94.997-.947.779q-.46.328-.907.558-.448.228-.86.307-.007-.027.078-.186t.368-.41q.282-.253.528-.418.246-.163.652-.376t1.044-.44 1.034-.315.624-.121 1.177-.042 1.551.112q.603.119.882.215.278.094.599.247.322.153.667.386.347.231.816.706.47.476.77.951.3.476.523 1.09.224.611.302 1.277t.057 1.037-.137.884q-.114.511-.454 1.231-.341.72-.876 1.39-.534.671-1.143 1.184-.61.513-.88.69-.271.176-.806.46-.537.285-1.55.65-1.014.363-2 .573-.983.209-2.212.344-1.228.134-2.227.181-1.001.048-1.8.063-.8.017-1.746.021-.065-.003-.815-.008m24.993-11.458q-.435 1.148-.891 2.112t-.862 1.722-.749 1.371l-.73 1.31q-.389.697-1.028 2.06-.639 1.365-.78 1.968-.142.605-.133.858.01.255.143.642.119.09.507.186.39.095.93.06.54-.034 1.383-.168.843-.135 1.571-.274.728-.14 1.63-.356.904-.216.967-.235.061-.02.794-.186.733-.167 1.175-.275t1.008-.264"/>
        <path fill="none" stroke="#f3ba38" stroke-linecap="round" stroke-linejoin="round" stroke-width="1.5" d="M-58.131 617.297q.003.258.029 1.45.025 1.195.04 2.488t.03 3.064l.027 2.834q.012 1.06.035 2.066.022 1.008.046 2.282t.047 2.724q0 .063.013.596.014.53.026 1.23.013.699.015.928M-332.382 777.62l-.358-.604q-.188-.317-.537-.857-.351-.54-.857-1.191-.507-.652-.928-1.066t-.803-.694q-.381-.28-.897-.538-.517-.258-1.245-.429t-1.447-.165-1.278.123-1.251.408q-.693.293-1.107.543-.413.25-1.09.807-.676.557-1.415 1.424-.741.867-1.055 1.342t-.45.707-.457.904q-.323.67-.588 1.455-.267.785-.354 1.155-.089.37-.165.822-.078.452-.12 1.32-.042.87-.012 1.334t.226 1.386q.198.922.474 1.617.278.694.549 1.174.272.482.69 1.019.419.535.792.898.373.362.603.549.23.186.643.474.414.287 1.2.672.785.386 1.544.612.759.228 1.37.323.608.096 1.346.105.74.009 1.21-.042.469-.051 1.399-.297t1.582-.537q.651-.293 1.12-.566.467-.275 1.045-.686.577-.41 1.021-.796.444-.384.815-.759.37-.374.724-.773t.64-.747l.356-.417m3.755-1.201q-.003.078 0 .284t.009.382q.005.177.047 1.05.04.873.094 2.472t.075 2.478.034 1.633q.015.756.021.917.007.16.01.302 0 .14-.007.373m-3.653 50.701q-.122-.228-.416-.685-.294-.456-.484-.734-.19-.276-.57-.753-.382-.477-.974-1.042-.594-.566-1.229-1.01-.634-.445-1.144-.712t-1.329-.549q-.817-.282-1.638-.41-.819-.126-1.476-.12-.655.005-1.411.147-.755.143-1.367.375-.612.233-1.093.512-.483.279-.713.45-.231.17-.523.427-.294.26-.836.906-.54.647-.96 1.406-.42.757-.666 1.41-.246.654-.403 1.338t-.231 1.206q-.075.52-.12 1.107-.044.585-.056 1.063-.012.477.018 1.032t.186 1.425.332 1.445.525 1.344q.347.77.694 1.326.348.556.809 1.117.46.561.838.918.378.359 1.182.915.803.557 1.233.767t.779.337.718.228.957.19 1.325.079 1.512-.158q.772-.145 1.56-.439.789-.294 1.55-.735.764-.441 1.125-.723.363-.282.719-.629.357-.348.83-.853.472-.506.817-.903.345-.398.67-.831.326-.435.611-.83m3.849 4.111.135-.275q.087-.151.223-.381.137-.23.4-.573.262-.342.502-.568.238-.227.45-.354.21-.13.307-.167.096-.037.222-.067.126-.032.501.034.375.068.617.231.243.165.369.326.127.16.211.328.083.17.143.627.06.459-.078 1.097t-.51 1.235q-.374.597-.788 1.065t-.769.804q-.357.338-.561.515-.203.177-.812.672-.607.497-.948.794-.339.298-.532.513-.194.214-.254.306-.06.093-.106.186-.045.093-.054.235.348.159.536.182.187.022.784.019.596-.001 1.122-.046t1.103-.116q.577-.072 1.3-.172.723-.102 1.35-.188.627-.085 1.176-.151t.888-.104 1.458-.195m76.68-21.825q-.228-.154-.268-.189-.042-.033-.698-.508-.654-.476-1.006-.705-.353-.232-.71-.445-.357-.211-.865-.438-.51-.225-.942-.345-.431-.118-.861-.162-.431-.042-.75-.024-.32.02-.78.13-.462.11-.863.285-.4.173-1.105.68t-1.01.821q-.306.312-.549.626-.244.313-.528.732-.283.418-.514.817-.23.398-.495.965-.267.568-.479 1.186-.213.618-.363 1.227-.151.609-.249 1.43-.099.82-.11 1.264-.011.446.014.938.027.492.057.763.03.273.122.69.091.419.253 1.073t.318 1.147q.158.494.308.825.151.333.358.686.206.354.467.73.26.375.47.645.21.272.449.52.239.25.617.557.378.309.846.567t.846.404q.378.147.823.268t.786.192q.342.069.702.098t.782.003 1.042-.167q.62-.14 1.076-.318t.834-.387q.378-.207.927-.616.549-.411.885-.726.336-.317.853-.933.519-.615.831-1.041t.738-1.019q.044-.06.252-.384m4.379-.074q.169-.489.216-.598.046-.11.109-.243.062-.133.138-.268t.233-.354.193-.316q.038-.096.65-.567.611-.472 1.055-.682.444-.212.758-.287t.554-.07.433.054q.195.051.332.121.136.071.229.144.093.074.257.269.165.196.361.8.197.604.21.974.012.372-.039.731-.051.358-.087.52-.037.164-.108.408-.07.245-.219.662-.15.417-.241.651-.09.232-.156.421-.065.191-.11.43.02.011.219.034.201.024.416.024t.397.012q.185.012.398.057.213.043.433.123t.425.193q.204.116.402.263.196.147.388.346.194.2.444.624.252.426.36.831t.119.656q.012.25-.023.508-.033.258-.145.576-.113.318-.266.566t-.802.742q-.651.495-1.1.657-.448.161-.772.22-.323.056-.55.071-.226.014-.811-.027-.585-.042-1.062-.135t-.987-.24-.937-.303q-.426-.156-.64-.246-.214-.091-.313-.14-.1-.05-.297-.163-.195-.112-.862-.586l-.356-.188m-4.462-88.492q-.259-.186-1.099-.783-.841-.595-1.303-.865-.464-.27-.759-.408-.296-.14-.543-.228-.248-.089-.462-.147-.215-.059-.572-.128t-1.069-.093-1.288.066-.91.186q-.331.096-.816.305-.486.208-1.531.948-1.045.739-1.302.996-.255.254-.627.718t-.568.763-.455.782-.447.94q-.189.46-.355 1.016-.167.557-.299 1.281t-.189 1.341.004 2.049q.063 1.431.198 2.193.135.76.318 1.426.182.666.44 1.332.256.665.541 1.199.285.532.64 1.027.358.495 1.028 1.143t1.191.996q.52.347.927.545.405.198 1.193.447.786.249 1.404.33.616.081 1.059.087t1.014-.057q.571-.065 1.347-.27.777-.205 1.203-.375.426-.168.907-.412.483-.244.774-.424.293-.178.73-.516.439-.337.688-.567t.49-.487q.24-.258.53-.618.289-.36.62-.847.332-.488.62-.971.288-.484.353-.583m7.773-3.153q-.069.1-.46.772l-.708 1.214q-.318.544-.846 1.408t-1.641 2.588-1.607 2.47q-.493.749-.768 1.196-.274.448-.388.663-.114.214-.257.547t-.204.653q-.058.318-.015.56.024.032.557.137.53.107 2.28-.238t2.754-.602q1.005-.258 1.846-.46.843-.203 1.553-.362t1.143-.25.988-.213"/>
        <path fill="none" stroke="#f3ba38" stroke-linecap="round" stroke-linejoin="round" stroke-width="1.5" d="m-226.06 785.128-.075.96-.086 1.125-.081 1.104q-.042.594-.075 1.11-.034.516-.06.964-.027.449-.048.839-.02.39-.034.729l-.029.654q-.012.315-.025.75-.014.436-.02.817t-.008.668q-.001.286.002.601t.009.659.015.721l.018.726.017.674q.008.324.013.615l.014.684q.009.394.015.847l.01.806.009.645.01.505q.005.216.011.318t.01.155q.007.054.016.094 0 .077.005.183m-211.199-235.174.001.21.051 1.378q.05 1.304.192 3.138.141 1.835.266 2.874.124 1.038.285 2.138t.45 2.875.442 2.765q.155.987.272 1.852.115.864.336 3.485.01.078-.002.86m-1.795-21.419q.285-.311.345-.37l.145-.14q.086-.083.447-.393.363-.312.8-.62.435-.307 1.026-.57.592-.261 1.132-.35.542-.087.93-.049.389.037.653.126.262.088.489.217.226.128.496.377.269.249.482.567t.372.729.241.92.074.979-.053.79-.186.84-.348 1.035q-.208.516-.553 1.139-.347.622-.731 1.195-.385.572-.787 1.155-.402.582-.657 1.004-.257.42-.623 1.606.279.39.429.518.152.126.28.21.131.084.575.318t.959.466 1.429.64q.917.406 1.427.643.51.239 1.22.587.712.348 1.08.54.371.193.68.364t1.085.626q.777.454 1.137.683.36.231.54.353.18.123.65.472.18.158.63.506m3.787-6.495.02.257q.033.259.186 1.276l.266 1.763.241 1.597q.13.854.239 1.614.11.76.214 1.518.105.759.194 1.337.015.064.1.855m-26.929 279.394.03.428.055.858q.033.537.09 1.192.056.656.135 1.43t.149 1.378.159 1.257.163 1.149l.153.98.182 1.117.203 1.22.185 1.121q.09.536.17 1.031t.19 1.18.173 1.11q.063.423.117.894t.123 1.151l.168 1.651.228 2.246q.005.219-.025 1.01"/>
        <path fill="none" stroke="#f3ba38" stroke-linecap="round" stroke-linejoin="round" stroke-width="1.5" d="M-443.22 869.698q.077-.06.32-.267.05-.046.193-.164t.627-.473 1.102-.74q.62-.389.954-.558.336-.171.515-.25.18-.079.505-.198.326-.118.681-.217t.804-.165 1.053-.045q.602.02.977.099.375.078.86.276t.922.51q.436.312.681.587.246.273.465.657.217.384.357.937.138.554.127 1.085-.012.532-.102.922-.09.389-.331.896-.243.505-.446.789-.204.282-.6.685-.397.404-1.02.831-.622.428-.987.626-.363.196-.87.429-.508.234-1.087.492t-.92.442q-.34.186-.564.378t-.313.348-.117.245q-.026.091.037.255.017.028.263.222.246.193.754.577.51.384 1.065.735.557.35.975.62.42.268.887.58.466.312.855.596.39.285.863.655.472.372.83.665.359.29.801.667.443.375.963.825.521.45.989.861.468.41 1.098.966.63.555 1.038.927l.615.561q.206.189.428.378.222.188.838.771m5.052-2.557q.005-.12.005-.218.002-.097.007-.201.008-.105.035-.312.026-.207.082-.402.054-.196.154-.41.101-.211.327-.505.227-.295.458-.474.231-.177.382-.253.152-.077.407-.146.255-.07.583-.069.329.003.507.047.18.043.31.094.128.053.355.21.228.158.432.411.204.255.334.6.132.347.153.756.021.411-.057.794-.079.382-.175.642-.098.258-.312.642-.216.385-.518.795t-.918 1.108-1.177 1.392-.734 1.055-.172.663q.018.02.136.093.119.07.887.106.766.035.981.018.216-.018.685-.063l.839-.08q.369-.032.781-.061t.78-.045q.366-.018.843-.028.476-.011.728-.015.25-.005.312-.015.06-.011.454-.042m375.605-24.396q.01.055.029.45.005.097.073.562l.188 1.296q.12.831.287 1.84l.363 2.206q.197 1.195.333 2.113.137.918.236 1.554l.215 1.374q.115.738.241 1.589.125.85.231 1.648.108.797.246 1.913.14 1.114.213 1.828.074.716.107 1.217.034.499.01 1.056-.021.1-.048.187-.028.087-.153.366"/>
        <path fill="none" stroke="#f3ba38" stroke-linecap="round" stroke-linejoin="round" stroke-width="1.5" d="M-37.741 868.657q.037-.024.212-.18.176-.156.35-.294t.564-.416.711-.483.833-.46q.512-.257.919-.395.407-.14.818-.214.409-.075.864-.075.452-.001.862.079.408.081.827.272.42.19.676.387.257.195.42.366t.34.438.28.507q.102.237.18.61.079.374.076.825-.001.452-.162 1.094-.16.64-.321 1.005-.159.363-.535.978-.378.614-.855 1.205-.479.59-.84.965-.364.375-.928.924-.562.549-.893.891t-.51.604q-.18.263-.25.453.02.087.062.144.044.056.215.174.172.119.246.158t.841.397 1.599.716q.831.359 1.632.741.801.383 1.878.974 1.077.59 2.15 1.265t1.645 1.079.954.703.743.614q.363.312.75.681.028.045.178.424m2.535-3.104.179-.29q.104-.183.518-.757.416-.574.716-.923.298-.35.466-.519.17-.171.597-.513.428-.342.74-.512t.613-.267.635-.126q.334-.03.67.027.338.057.665.225.327.17.519.342t.385.456.344.774.156 1.02-.047.82-.178.683-.39.884q-.264.49-.617.942-.354.45-.736.78-.383.328-.638.44-.006-.007.077-.09.081-.086.219-.182.14-.096.34-.198t.642-.264.927-.264 1.223-.119 1.273.087.935.267q.396.164.637.317.242.153.476.376.234.225.414.506.18.28.315.778.136.5.123.83-.012.33-.09.648-.078.316-.323.727-.244.411-.541.725-.296.312-.623.564-.325.252-1.111.655-.786.405-1.395.587-.607.181-1.19.26-.58.079-1.018.083-.436.005-1.072-.082-.637-.089-1.019-.197-.384-.108-.69-.225-.304-.117-.609-.25-.304-.134-.54-.24-.04-.021-.774-.473M-36.801 567.19q-.001.128.069 1.591.072 1.463.185 2.901t.185 2.164q.074.728.113 1.08.039.351.092.803.05.453.397 2.95.345 2.5.569 4.05.223 1.551.304 2.202.083.651.162 1.457.08.805.102 1.345.024.539.012.866-.012.325-.029.463-.016.137-.033.201-.015.065-.031.102-.017.04-.03.056t-.227.181"/>
        <path fill="none" stroke="#f3ba38" stroke-linecap="round" stroke-linejoin="round" stroke-width="1.5" d="M-37.398 569.374q.036-.053.164-.28.034-.06.266-.396.232-.337.637-.83.405-.494.82-.894.416-.401.816-.7t.698-.473q.295-.177.858-.42.562-.242 1.005-.363.442-.122 1.095-.197.65-.073 1.162-.043.51.03.935.129.426.097.796.249.37.151.696.349.326.2.557.398t.475.489q.243.289.437.663.193.373.31.874.119.503.126.882.008.38-.051.77-.057.39-.264.972-.205.582-.445 1.02-.24.436-.908 1.252-.667.816-1.6 1.598-.932.781-1.683 1.228-.75.446-1.107.6-.356.155-.59.224-.234.067-.45.093-.216.024-.28.012t-.107-.065q-.04-.052-.018-.1.024-.048.096-.089.074-.042.342-.06.269-.02.557.014.288.031.564.106.277.075.559.19.28.115.681.338.399.222.906.61.507.389 1.088.943.579.553 1.108 1.122.531.568 1.377 1.506t1.862 2.008 1.842 1.889 1.183 1.156l.642.606.699.657.414.362m10.451-8.94-.143.259-.507 1.026q-.492.999-1.002 2.023-.508 1.023-1.135 2.309-.626 1.285-.97 2.044t-.667 1.574q-.322.813-.43 1.176-.109.363-.161.691-.053.33-.05.494.005.164.066.405l.026.053.027.058q.043.06.886.228.845.166 1.647.085.804-.082 1.319-.159.513-.075.904-.135l1.371-.202q.978-.142 1.956-.297.131-.009.645-.096.515-.087.914-.135"/>
        <path fill="none" stroke="#f3ba38" stroke-linecap="round" stroke-linejoin="round" stroke-width="1.5" d="M-8.905 579.338q-.002.458.001.774.005.317.051 1.799.047 1.483.114 2.554.068 1.07.162 2.08.096 1.011.218 2.112.121 1.103.19 1.763t.242 4.032q-.003.042.018 1.469.001.092-.018.503"/>
    </g>
</svg>
