<svg xmlns="http://www.w3.org/2000/svg" width="1840.743" height="1630.753" viewBox="-325.084 451.465 1380.557 1223.065">
    <title>EEC0E2B2-388D-4B8D-AE99-1DE405D57F96</title>
    <desc>
        Drawing exported from Concepts: Smarter Sketching
    </desc>
    <rect width="1380.557" height="1223.065" x="-325.084" y="451.465" ry="0" style="fill:#1a1a1a;fill-opacity:1;stroke:none;stroke-width:2.83465;stroke-linecap:round;stroke-linejoin:round"/>
    <g style="display:inline">
        <path d="m-140 668-59.743 41.096L-200 608h80v-60l-80-80h89.883L-80 548h20v-40h20l8.952-40H8.074l-9.083 19.525L0 568h40l80-30.445V548h20l60-17.995v18.761L120 568v80l80 18.244v45.863L40 648.513 20 648v20l24.314 20H-6.751L-20 668h-20v40l10.918 60h-110.45L-100 688v-20z" style="display:inline;fill:#f3ba38;fill-opacity:1;stroke:none;stroke-width:2.83465;stroke-linecap:round;stroke-linejoin:round"/>
        <path fill="none" stroke="#9378e3" stroke-linecap="round" stroke-linejoin="round" stroke-width="5" d="M-200 468v300m400-300v300m-400 0h400m-400-300h400m-340 80h20m0 0v60h-20v-60m0 120h40v20h-20v20h-40v-20h20zM20 488v60h20v20H0v-80zm20 20h100v40h-20v-20H40zm120 80h20v40h-20zm-40-20h20v80h-20zM-40 668v40h140v20h20v-40H-20v-20zm60-20v20h20v-20zm-80-160v20h20v-20zm-20 40h20v20h-20z"/>
        <path fill="none" stroke="#f66640" stroke-linecap="round" stroke-linejoin="round" stroke-width="2.5" d="m-66.821 615.967 7.907-18.492m.089.011 4.764 19.403m-15.795-12.423 15.778 12.39m-15.672-13.072 20.64 1.89m-17.871 10.556 17.903-10.471" style="display:inline"/>
    </g>
    <g style="display:inline">
        <text xml:space="preserve" x="941.325" y="1353.517" style="font-style:normal;font-variant:normal;font-weight:400;font-stretch:normal;font-size:18px;font-family:&quot;JetBrains Mono&quot;;-inkscape-font-specification:&quot;JetBrains Mono&quot;;text-align:start;writing-mode:lr-tb;direction:ltr;text-anchor:start;display:inline;fill:#fff;fill-opacity:1;stroke:none;stroke-width:2.83465;stroke-linecap:round;stroke-linejoin:round"><tspan x="941.325" y="1353.517" style="font-size:18px;stroke-width:2.83465">A</tspan></text>
        <text xml:space="preserve" x="981.654" y="1392.782" style="font-style:normal;font-variant:normal;font-weight:400;font-stretch:normal;font-size:18px;font-family:&quot;JetBrains Mono&quot;;-inkscape-font-specification:&quot;JetBrains Mono&quot;;text-align:start;writing-mode:lr-tb;direction:ltr;text-anchor:start;display:inline;fill:#fff;fill-opacity:1;stroke:none;stroke-width:2.83465;stroke-linecap:round;stroke-linejoin:round"><tspan x="981.654" y="1392.782" style="font-size:18px;stroke-width:2.83465">B</tspan></text>
        <path fill="none" stroke="#6ac0c8" stroke-linecap="round" stroke-linejoin="round" d="m1039.672 1439.131-100.447-152.325m61.522-17.787-82.846 161.572" style="display:inline"/>
        <path fill="none" stroke="#f3ba38" stroke-linecap="round" stroke-linejoin="round" d="m900.066 1368.047 139.357-.454" style="display:inline"/>
        <path fill="none" stroke="#9378e3" stroke-linecap="round" stroke-linejoin="round" stroke-width="5" d="m929.713 1406.895 50.971-99.832m-.983 40.343 41.133 61.298"/>
        <path fill="none" stroke="#f66640" stroke-linecap="round" stroke-linejoin="round" stroke-width="2.5" d="m892.305 1375.699 7.907-18.492m.088.012 4.764 19.402m-15.795-12.422 15.778 12.389m-15.671-13.072 20.64 1.891m-17.872 10.555 17.903-10.471" style="display:inline"/>
        <text xml:space="preserve" x="620.604" y="1385.075" style="font-style:normal;font-variant:normal;font-weight:400;font-stretch:normal;font-size:18px;font-family:&quot;JetBrains Mono&quot;;-inkscape-font-specification:&quot;JetBrains Mono&quot;;text-align:start;writing-mode:lr-tb;direction:ltr;text-anchor:start;display:inline;fill:#fff;fill-opacity:1;stroke:none;stroke-width:2.83465;stroke-linecap:round;stroke-linejoin:round"><tspan x="620.604" y="1385.075" style="font-size:18px;stroke-width:2.83465">A</tspan></text>
        <text xml:space="preserve" x="678.519" y="1385.81" style="font-style:normal;font-variant:normal;font-weight:400;font-stretch:normal;font-size:18px;font-family:&quot;JetBrains Mono&quot;;-inkscape-font-specification:&quot;JetBrains Mono&quot;;text-align:start;writing-mode:lr-tb;direction:ltr;text-anchor:start;display:inline;fill:#fff;fill-opacity:1;stroke:none;stroke-width:2.83465;stroke-linecap:round;stroke-linejoin:round"><tspan x="678.519" y="1385.81" style="font-size:18px;stroke-width:2.83465">B</tspan></text>
        <path fill="none" stroke="#6ac0c8" stroke-linecap="round" stroke-linejoin="round" d="m600.675 1439.676 99.413-150.072m-59.568-22.583 80.393 161.969" style="display:inline"/>
        <path fill="none" stroke="#f3ba38" stroke-linecap="round" stroke-linejoin="round" d="m600.15 1367.63 140.47.629" style="display:inline"/>
        <path fill="none" stroke="#9378e3" stroke-linecap="round" stroke-linejoin="round" stroke-width="5" d="m621.367 1407.456 41.054-61.092m-1.557-40.433 49.298 101.036"/>
        <path fill="none" stroke="#f66640" stroke-linecap="round" stroke-linejoin="round" stroke-width="2.5" d="m592.457 1375.513 7.88-18.503m.287.096 4.764 19.403m-15.795-12.423 15.778 12.39m-15.671-13.072 20.64 1.89m-17.872 10.556 17.903-10.471" style="display:inline"/>
        <text xml:space="preserve" x="624.589" y="1159.179" style="font-style:normal;font-variant:normal;font-weight:400;font-stretch:normal;font-size:18px;font-family:&quot;JetBrains Mono&quot;;-inkscape-font-specification:&quot;JetBrains Mono&quot;;text-align:start;writing-mode:lr-tb;direction:ltr;text-anchor:start;display:inline;fill:#fff;fill-opacity:1;stroke:none;stroke-width:2.83465;stroke-linecap:round;stroke-linejoin:round"><tspan x="624.589" y="1159.179" style="font-size:18px;stroke-width:2.83465">A</tspan></text>
        <text xml:space="preserve" x="702.908" y="1159.18" style="font-style:normal;font-variant:normal;font-weight:400;font-stretch:normal;font-size:18px;font-family:&quot;JetBrains Mono&quot;;-inkscape-font-specification:&quot;JetBrains Mono&quot;;text-align:start;writing-mode:lr-tb;direction:ltr;text-anchor:start;display:inline;fill:#fff;fill-opacity:1;stroke:none;stroke-width:2.83465;stroke-linecap:round;stroke-linejoin:round"><tspan x="702.908" y="1159.18" style="font-size:18px;stroke-width:2.83465">B</tspan></text>
        <path fill="none" stroke="#6ac0c8" stroke-linecap="round" stroke-linejoin="round" d="m598.476 1246.857 80.376-158.495m-20.308-.245 81.159 159.474" style="display:inline"/>
        <path fill="none" stroke="#f3ba38" stroke-linecap="round" stroke-linejoin="round" d="m599.698 1167.816 140.421.164" style="display:inline"/>
        <path fill="none" stroke="#9378e3" stroke-linecap="round" stroke-linejoin="round" stroke-width="5" d="m657.84 1128.823-39.131 78.323m59.949-79.34 41.748 81.387"/>
        <path fill="none" stroke="#f66640" stroke-linecap="round" stroke-linejoin="round" stroke-width="2.5" d="m592.499 1176.093 7.907-18.491m.088.011 4.764 19.402m-15.795-12.422 15.778 12.389m-15.671-13.072 20.64 1.891m-17.872 10.556 17.903-10.472" style="display:inline"/>
    </g>
    <g style="display:inline">
        <text xml:space="preserve" x="924.015" y="963.631" style="font-style:normal;font-variant:normal;font-weight:400;font-stretch:normal;font-size:18px;font-family:&quot;JetBrains Mono&quot;;-inkscape-font-specification:&quot;JetBrains Mono&quot;;text-align:start;writing-mode:lr-tb;direction:ltr;text-anchor:start;fill:#fff;fill-opacity:1;stroke:none;stroke-width:2.83465;stroke-linecap:round;stroke-linejoin:round"><tspan x="924.015" y="963.631" style="font-size:18px;stroke-width:2.83465">A</tspan></text>
        <text xml:space="preserve" x="974.656" y="991.274" style="font-style:normal;font-variant:normal;font-weight:400;font-stretch:normal;font-size:18px;font-family:&quot;JetBrains Mono&quot;;-inkscape-font-specification:&quot;JetBrains Mono&quot;;text-align:start;writing-mode:lr-tb;direction:ltr;text-anchor:start;fill:#fff;fill-opacity:1;stroke:none;stroke-width:2.83465;stroke-linecap:round;stroke-linejoin:round"><tspan x="974.656" y="991.274" style="font-size:18px;stroke-width:2.83465">B</tspan></text>
        <path fill="none" stroke="#6ac0c8" stroke-linecap="round" stroke-linejoin="round" d="m940.565 889.714-.035 158.624m-20.599-142.426 121.007 122.122" style="display:inline"/>
        <path fill="none" stroke="#f3ba38" stroke-linecap="round" stroke-linejoin="round" d="m899.937 967.242 119.574.916" style="display:inline"/>
        <path fill="none" stroke="#9378e3" stroke-linecap="round" stroke-linejoin="round" stroke-width="5" d="m940.467 925.616-.028 82.818m19.488-61.622 59.772 59.604"/>
        <path fill="none" stroke="#f66640" stroke-linecap="round" stroke-linejoin="round" stroke-width="2.5" d="m892.882 975.852 7.907-18.491m.088.011 4.765 19.402m-15.795-12.422 15.777 12.39m-15.671-13.073 20.64 1.891m-17.872 10.556 17.903-10.472" style="display:inline"/>
        <text xml:space="preserve" x="647.206" y="963.091" style="font-style:normal;font-variant:normal;font-weight:400;font-stretch:normal;font-size:18px;font-family:&quot;JetBrains Mono&quot;;-inkscape-font-specification:&quot;JetBrains Mono&quot;;text-align:start;writing-mode:lr-tb;direction:ltr;text-anchor:start;fill:#fff;fill-opacity:1;stroke:none;stroke-width:2.83465;stroke-linecap:round;stroke-linejoin:round"><tspan x="647.206" y="963.091" style="font-size:18px;stroke-width:2.83465">A</tspan></text>
        <text xml:space="preserve" x="683.709" y="984.977" style="font-style:normal;font-variant:normal;font-weight:400;font-stretch:normal;font-size:18px;font-family:&quot;JetBrains Mono&quot;;-inkscape-font-specification:&quot;JetBrains Mono&quot;;text-align:start;writing-mode:lr-tb;direction:ltr;text-anchor:start;fill:#fff;fill-opacity:1;stroke:none;stroke-width:2.83465;stroke-linecap:round;stroke-linejoin:round"><tspan x="683.709" y="984.977" style="font-size:18px;stroke-width:2.83465">B</tspan></text>
        <path fill="none" stroke="#6ac0c8" stroke-linecap="round" stroke-linejoin="round" d="m600.162 1027.675 120.146-120.03m-21.304-18.168 2.062 138.543" style="display:inline"/>
        <path fill="none" stroke="#f3ba38" stroke-linecap="round" stroke-linejoin="round" d="m599.793 967.674 140.493-.178" style="display:inline"/>
        <path fill="none" stroke="#9378e3" stroke-linecap="round" stroke-linejoin="round" stroke-width="5" d="m620.58 1007.529 59.711-60.201m19.98-19.678.838 79.361"/>
        <path fill="none" stroke="#f66640" stroke-linecap="round" stroke-linejoin="round" stroke-width="2.5" d="m592.479 975.528 7.907-18.492m.088.012 4.764 19.402m-15.795-12.422 15.778 12.389m-15.671-13.072 20.64 1.891m-17.872 10.556 17.903-10.472" style="display:inline"/>
    </g>
    <g style="display:inline">
        <text xml:space="preserve" x="944.531" y="1595.634" style="font-style:normal;font-variant:normal;font-weight:400;font-stretch:normal;font-size:18px;font-family:&quot;JetBrains Mono&quot;;-inkscape-font-specification:&quot;JetBrains Mono&quot;;text-align:start;writing-mode:lr-tb;direction:ltr;text-anchor:start;fill:#fff;fill-opacity:1;stroke:none;stroke-width:2.83465;stroke-linecap:round;stroke-linejoin:round"><tspan x="944.531" y="1595.634" style="font-size:18px;stroke-width:2.83465">A</tspan></text>
        <text xml:space="preserve" x="941.367" y="1546.334" style="font-style:normal;font-variant:normal;font-weight:400;font-stretch:normal;font-size:18px;font-family:&quot;JetBrains Mono&quot;;-inkscape-font-specification:&quot;JetBrains Mono&quot;;text-align:start;writing-mode:lr-tb;direction:ltr;text-anchor:start;fill:#fff;fill-opacity:1;stroke:none;stroke-width:2.83465;stroke-linecap:round;stroke-linejoin:round"><tspan x="941.367" y="1546.334" style="font-size:18px;stroke-width:2.83465">B</tspan></text>
        <path fill="none" stroke="#6ac0c8" stroke-linecap="round" stroke-linejoin="round" d="m918.004 1660.013 103.361-151.526m-101.383-30.793 100.331 141.149" style="display:inline"/>
        <path fill="none" stroke="#f3ba38" stroke-linecap="round" stroke-linejoin="round" d="m898.192 1567.78 140.554-4.283" style="display:inline"/>
        <path fill="none" stroke="#9378e3" stroke-linecap="round" stroke-linejoin="round" stroke-width="5" d="m940.398 1507.005 41.781 58.507m-42.417 62.346 42.025-62.659"/>
        <path fill="none" stroke="#f66640" stroke-linecap="round" stroke-linejoin="round" stroke-width="2.5" d="m892.343 1576.008 7.908-18.491m.088.011 4.764 19.403m-15.795-12.423 15.778 12.39m-15.671-13.073 20.64 1.891m-17.872 10.556 17.903-10.471" style="display:inline"/>
        <text xml:space="preserve" x="926.927" y="1160.547" style="font-style:normal;font-variant:normal;font-weight:400;font-stretch:normal;font-size:18px;font-family:&quot;JetBrains Mono&quot;;-inkscape-font-specification:&quot;JetBrains Mono&quot;;text-align:start;writing-mode:lr-tb;direction:ltr;text-anchor:start;fill:#fff;fill-opacity:1;stroke:none;stroke-width:2.83465;stroke-linecap:round;stroke-linejoin:round"><tspan x="926.927" y="1160.547" style="font-size:18px;stroke-width:2.83465">A</tspan></text>
        <text xml:space="preserve" x="970.742" y="1188.355" style="font-style:normal;font-variant:normal;font-weight:400;font-stretch:normal;font-size:18px;font-family:&quot;JetBrains Mono&quot;;-inkscape-font-specification:&quot;JetBrains Mono&quot;;text-align:start;writing-mode:lr-tb;direction:ltr;text-anchor:start;fill:#fff;fill-opacity:1;stroke:none;stroke-width:2.83465;stroke-linecap:round;stroke-linejoin:round"><tspan x="970.742" y="1188.355" style="font-size:18px;stroke-width:2.83465">B</tspan></text>
        <path fill="none" stroke="#6ac0c8" stroke-linecap="round" stroke-linejoin="round" d="m899.728 1249.694 77.341-161.734m-35.641-1.34 80.024 160.304" style="display:inline"/>
        <path fill="none" stroke="#f3ba38" stroke-linecap="round" stroke-linejoin="round" d="m901.444 1167.942 97.735-.115" style="display:inline"/>
        <path fill="none" stroke="#9378e3" stroke-linecap="round" stroke-linejoin="round" stroke-width="5" d="m919.711 1208.278 40.654-85.262m.595 1 41.108 83.079"/>
        <path fill="none" stroke="#f66640" stroke-linecap="round" stroke-linejoin="round" stroke-width="2.5" d="m892.75 1175.357 7.908-18.491m.088.011 4.764 19.402m-15.795-12.422 15.778 12.39m-15.671-13.073 20.64 1.891m-17.872 10.556 17.903-10.471" style="display:inline"/>
        <text xml:space="preserve" x="645.461" y="1611.223" style="font-style:normal;font-variant:normal;font-weight:400;font-stretch:normal;font-size:18px;font-family:&quot;JetBrains Mono&quot;;-inkscape-font-specification:&quot;JetBrains Mono&quot;;text-align:start;writing-mode:lr-tb;direction:ltr;text-anchor:start;fill:#fff;fill-opacity:1;stroke:none;stroke-width:2.83465;stroke-linecap:round;stroke-linejoin:round"><tspan x="645.461" y="1611.223" style="font-size:18px;stroke-width:2.83465">A</tspan></text>
        <text xml:space="preserve" x="647.699" y="1532.381" style="font-style:normal;font-variant:normal;font-weight:400;font-stretch:normal;font-size:18px;font-family:&quot;JetBrains Mono&quot;;-inkscape-font-specification:&quot;JetBrains Mono&quot;;text-align:start;writing-mode:lr-tb;direction:ltr;text-anchor:start;fill:#fff;fill-opacity:1;stroke:none;stroke-width:2.83465;stroke-linecap:round;stroke-linejoin:round"><tspan x="647.699" y="1532.381" style="font-size:18px;stroke-width:2.83465">B</tspan></text>
        <path fill="none" stroke="#6ac0c8" stroke-linecap="round" stroke-linejoin="round" d="m598.869 1631.115 100.955-153.706m-100.076 29.905 100.92 151.323" style="display:inline"/>
        <path fill="none" stroke="#f3ba38" stroke-linecap="round" stroke-linejoin="round" d="m600.003 1567.789 99.711.548" style="display:inline"/>
        <path fill="none" stroke="#9378e3" stroke-linecap="round" stroke-linejoin="round" stroke-width="5" d="m640.081 1567.292 39.947-59.372m-39.907 60.264 40.576 60.372"/>
        <path fill="none" stroke="#f66640" stroke-linecap="round" stroke-linejoin="round" stroke-width="2.5" d="m592.767 1575.653 7.907-18.492m.089.011 4.764 19.403m-15.795-12.423 15.778 12.39m-15.672-13.072 20.64 1.891m-17.871 10.555 17.903-10.471" style="display:inline"/>
    </g>
    <g style="display:inline">
        <text xml:space="preserve" x="104.669" y="962.796" style="font-style:normal;font-variant:normal;font-weight:400;font-stretch:normal;font-size:18px;font-family:&quot;JetBrains Mono&quot;;-inkscape-font-specification:&quot;JetBrains Mono&quot;;text-align:start;writing-mode:lr-tb;direction:ltr;text-anchor:start;fill:#fff;fill-opacity:1;stroke:none;stroke-width:2.83465;stroke-linecap:round;stroke-linejoin:round"><tspan x="104.669" y="962.796" style="font-size:18px;stroke-width:2.83465">A</tspan></text>
        <text xml:space="preserve" x="54.992" y="961.855" style="font-style:normal;font-variant:normal;font-weight:400;font-stretch:normal;font-size:18px;font-family:&quot;JetBrains Mono&quot;;-inkscape-font-specification:&quot;JetBrains Mono&quot;;text-align:start;writing-mode:lr-tb;direction:ltr;text-anchor:start;fill:#fff;fill-opacity:1;stroke:none;stroke-width:2.83465;stroke-linecap:round;stroke-linejoin:round"><tspan x="54.992" y="961.855" style="font-size:18px;stroke-width:2.83465">B</tspan></text>
        <path fill="none" stroke="#6ac0c8" stroke-linecap="round" stroke-linejoin="round" d="m1.404 968.353 139.416.007m-20.348-59.241 1.04 119.61" style="display:inline"/>
        <path fill="none" stroke="#9378e3" stroke-linecap="round" stroke-linejoin="round" stroke-width="5" d="m40.776 967.974 39.79.503m39.754-40.024 1.298 79.305"/>
        <path fill="none" stroke="#f66640" stroke-linecap="round" stroke-linejoin="round" stroke-width="2.5" d="m-5.741 976.35 7.907-18.492m.088.011 4.765 19.403m-15.795-12.423 15.777 12.39M-8.67 964.167l20.64 1.891m-17.871 10.555 17.902-10.471" style="display:inline"/>
        <text xml:space="preserve" x="325.537" y="984.766" style="font-style:normal;font-variant:normal;font-weight:400;font-stretch:normal;font-size:18px;font-family:&quot;JetBrains Mono&quot;;-inkscape-font-specification:&quot;JetBrains Mono&quot;;text-align:start;writing-mode:lr-tb;direction:ltr;text-anchor:start;fill:#fff;fill-opacity:1;stroke:none;stroke-width:2.83465;stroke-linecap:round;stroke-linejoin:round"><tspan x="325.537" y="984.766" style="font-size:18px;stroke-width:2.83465">A</tspan></text>
        <text xml:space="preserve" x="395.769" y="961.269" style="font-style:normal;font-variant:normal;font-weight:400;font-stretch:normal;font-size:18px;font-family:&quot;JetBrains Mono&quot;;-inkscape-font-specification:&quot;JetBrains Mono&quot;;text-align:start;writing-mode:lr-tb;direction:ltr;text-anchor:start;fill:#fff;fill-opacity:1;stroke:none;stroke-width:2.83465;stroke-linecap:round;stroke-linejoin:round"><tspan x="395.769" y="961.269" style="font-size:18px;stroke-width:2.83465">B</tspan></text>
        <path fill="none" stroke="#6ac0c8" stroke-linecap="round" stroke-linejoin="round" d="m299.765 967.694 159.883 1.613m-118.945-61.475.175 119.697" style="display:inline"/>
        <path fill="none" stroke="#9378e3" stroke-linecap="round" stroke-linejoin="round" stroke-width="5" d="m341.412 928.706-.503 79.049m40.147-39.424 39.148.477"/>
        <path fill="none" stroke="#f66640" stroke-linecap="round" stroke-linejoin="round" stroke-width="2.5" d="m293.833 975.314 7.907-18.492m.088.011 4.764 19.403m-15.795-12.422 15.778 12.389m-15.671-13.072 20.64 1.891m-17.872 10.555 17.903-10.471" style="display:inline"/>
    </g>
    <g style="display:inline">
        <text xml:space="preserve" x="325.404" y="1174.404" style="font-style:normal;font-variant:normal;font-weight:400;font-stretch:normal;font-size:18px;font-family:&quot;JetBrains Mono&quot;;-inkscape-font-specification:&quot;JetBrains Mono&quot;;text-align:start;writing-mode:lr-tb;direction:ltr;text-anchor:start;fill:#fff;fill-opacity:1;stroke:none;stroke-width:2.83465;stroke-linecap:round;stroke-linejoin:round"><tspan x="325.404" y="1174.404" style="font-size:18px;stroke-width:2.83465">A</tspan></text>
        <text xml:space="preserve" x="387.903" y="1111.264" style="font-style:normal;font-variant:normal;font-weight:400;font-stretch:normal;font-size:18px;font-family:&quot;JetBrains Mono&quot;;-inkscape-font-specification:&quot;JetBrains Mono&quot;;text-align:start;writing-mode:lr-tb;direction:ltr;text-anchor:start;fill:#fff;fill-opacity:1;stroke:none;stroke-width:2.83465;stroke-linecap:round;stroke-linejoin:round"><tspan x="387.903" y="1111.264" style="font-size:18px;stroke-width:2.83465">B</tspan></text>
        <path fill="none" stroke="#6ac0c8" stroke-linecap="round" stroke-linejoin="round" d="m462.146 1087.193-161.606 81.116m39.772-60.74.128 119.844" style="display:inline"/>
        <path fill="none" stroke="#9378e3" stroke-linecap="round" stroke-linejoin="round" stroke-width="5" d="m340.067 1147.203.816 38.994m39.414-58.36 39.41-19.511"/>
        <path fill="none" stroke="#f66640" stroke-linecap="round" stroke-linejoin="round" stroke-width="2.5" d="m294.69 1176.379 7.907-18.492m.088.011 4.764 19.403m-15.795-12.423 15.778 12.39m-15.671-13.073 20.64 1.891m-17.872 10.556 17.903-10.471" style="display:inline"/>
        <text xml:space="preserve" x="105.39" y="1174.698" style="font-style:normal;font-variant:normal;font-weight:400;font-stretch:normal;font-size:18px;font-family:&quot;JetBrains Mono&quot;;-inkscape-font-specification:&quot;JetBrains Mono&quot;;text-align:start;writing-mode:lr-tb;direction:ltr;text-anchor:start;fill:#fff;fill-opacity:1;stroke:none;stroke-width:2.83465;stroke-linecap:round;stroke-linejoin:round"><tspan x="105.39" y="1174.698" style="font-size:18px;stroke-width:2.83465">A</tspan></text>
        <text xml:space="preserve" x="50.74" y="1131.017" style="font-style:normal;font-variant:normal;font-weight:400;font-stretch:normal;font-size:18px;font-family:&quot;JetBrains Mono&quot;;-inkscape-font-specification:&quot;JetBrains Mono&quot;;text-align:start;writing-mode:lr-tb;direction:ltr;text-anchor:start;fill:#fff;fill-opacity:1;stroke:none;stroke-width:2.83465;stroke-linecap:round;stroke-linejoin:round"><tspan x="50.74" y="1131.017" style="font-size:18px;stroke-width:2.83465">B</tspan></text>
        <path fill="none" stroke="#6ac0c8" stroke-linecap="round" stroke-linejoin="round" d="m120.552 1089.639.777 161.038M-.836 1168.823l161.714-79.844" style="display:inline"/>
        <path fill="none" stroke="#9378e3" stroke-linecap="round" stroke-linejoin="round" stroke-width="5" d="m41.192 1148.07 40.468-19.653m39.844-20.197-.047 119.355"/>
        <path fill="none" stroke="#f66640" stroke-linecap="round" stroke-linejoin="round" stroke-width="2.5" d="m-5.347 1176.121 7.908-18.491m.088.011 4.764 19.403m-15.795-12.423 15.778 12.39m-15.671-13.073 20.64 1.891m-17.872 10.556 17.903-10.471" style="display:inline"/>
    </g>
    <g style="display:inline">
        <text xml:space="preserve" x="326.422" y="1384.138" style="font-style:normal;font-variant:normal;font-weight:400;font-stretch:normal;font-size:18px;font-family:&quot;JetBrains Mono&quot;;-inkscape-font-specification:&quot;JetBrains Mono&quot;;text-align:start;writing-mode:lr-tb;direction:ltr;text-anchor:start;fill:#fff;fill-opacity:1;stroke:none;stroke-width:2.83465;stroke-linecap:round;stroke-linejoin:round"><tspan x="326.422" y="1384.138" style="font-size:18px;stroke-width:2.83465">A</tspan></text>
        <text xml:space="preserve" x="353.74" y="1329.341" style="font-style:normal;font-variant:normal;font-weight:400;font-stretch:normal;font-size:18px;font-family:&quot;JetBrains Mono&quot;;-inkscape-font-specification:&quot;JetBrains Mono&quot;;text-align:start;writing-mode:lr-tb;direction:ltr;text-anchor:start;fill:#fff;fill-opacity:1;stroke:none;stroke-width:2.83465;stroke-linecap:round;stroke-linejoin:round"><tspan x="353.74" y="1329.341" style="font-size:18px;stroke-width:2.83465">B</tspan></text>
        <path fill="none" stroke="#6ac0c8" stroke-linecap="round" stroke-linejoin="round" d="m341.589 1328.596-.227 100.613m-41.562-60.745 121.384-61.047" style="display:inline"/>
        <path fill="none" stroke="#9378e3" stroke-linecap="round" stroke-linejoin="round" stroke-width="5" d="m342.541 1347.852-.904 60.227m.757-60.945 38.69-19.434"/>
        <path fill="none" stroke="#f66640" stroke-linecap="round" stroke-linejoin="round" stroke-width="2.5" d="m294.718 1375.258 7.908-18.492m.088.011 4.764 19.403m-15.795-12.423 15.778 12.39m-15.671-13.072 20.64 1.891m-17.872 10.555 17.903-10.471" style="display:inline"/>
        <text xml:space="preserve" x="64.033" y="1377.361" style="font-style:normal;font-variant:normal;font-weight:400;font-stretch:normal;font-size:18px;font-family:&quot;JetBrains Mono&quot;;-inkscape-font-specification:&quot;JetBrains Mono&quot;;text-align:start;writing-mode:lr-tb;direction:ltr;text-anchor:start;fill:#fff;fill-opacity:1;stroke:none;stroke-width:2.83465;stroke-linecap:round;stroke-linejoin:round"><tspan x="64.033" y="1377.361" style="font-size:18px;stroke-width:2.83465">A</tspan></text>
        <text xml:space="preserve" x="48.406" y="1329.022" style="font-style:normal;font-variant:normal;font-weight:400;font-stretch:normal;font-size:18px;font-family:&quot;JetBrains Mono&quot;;-inkscape-font-specification:&quot;JetBrains Mono&quot;;text-align:start;writing-mode:lr-tb;direction:ltr;text-anchor:start;fill:#fff;fill-opacity:1;stroke:none;stroke-width:2.83465;stroke-linecap:round;stroke-linejoin:round"><tspan x="48.406" y="1329.022" style="font-size:18px;stroke-width:2.83465">B</tspan></text>
        <path fill="none" stroke="#6ac0c8" stroke-linecap="round" stroke-linejoin="round" d="m-.734 1367.933 121.018-59.715m-39.71-.545.207 120.402" style="display:inline"/>
        <path fill="none" stroke="#9378e3" stroke-linecap="round" stroke-linejoin="round" stroke-width="5" d="m39.838 1348.428 40.875-20.302m-.28.22-.196 79.893"/>
        <path fill="none" stroke="#f66640" stroke-linecap="round" stroke-linejoin="round" stroke-width="2.5" d="M-5.907 1376.029 2 1357.537m.089.012 4.764 19.402m-15.795-12.423 15.778 12.39m-15.672-13.072 20.64 1.891m-17.871 10.555 17.903-10.471" style="display:inline"/>
    </g>
    <g style="display:inline">
        <text xml:space="preserve" x="-245.78" y="961.41" style="font-style:normal;font-variant:normal;font-weight:400;font-stretch:normal;font-size:18px;font-family:&quot;JetBrains Mono&quot;;-inkscape-font-specification:&quot;JetBrains Mono&quot;;text-align:start;writing-mode:lr-tb;direction:ltr;text-anchor:start;fill:#fff;fill-opacity:1;stroke:none;stroke-width:2.83465;stroke-linecap:round;stroke-linejoin:round"><tspan x="-245.78" y="961.41" style="font-size:18px;stroke-width:2.83465">A</tspan></text>
        <text xml:space="preserve" x="-186.126" y="961.527" style="font-style:normal;font-variant:normal;font-weight:400;font-stretch:normal;font-size:18px;font-family:&quot;JetBrains Mono&quot;;-inkscape-font-specification:&quot;JetBrains Mono&quot;;text-align:start;writing-mode:lr-tb;direction:ltr;text-anchor:start;fill:#fff;fill-opacity:1;stroke:none;stroke-width:2.83465;stroke-linecap:round;stroke-linejoin:round"><tspan x="-186.126" y="961.527" style="font-size:18px;stroke-width:2.83465">B</tspan></text>
        <path fill="none" stroke="#6ac0c8" stroke-linecap="round" stroke-linejoin="round" d="m-299.675 967.788 160.148.739" style="display:inline"/>
        <path fill="none" stroke="#9378e3" stroke-linecap="round" stroke-linejoin="round" stroke-width="5" d="m-260.821 967.878 39.606.06m20.974-.162 40.723.151"/>
        <path fill="none" stroke="#f66640" stroke-linecap="round" stroke-linejoin="round" stroke-width="2.5" d="m-306.781 975.748 7.907-18.492m.089.011 4.764 19.403m-15.795-12.423 15.778 12.39m-15.672-13.072 20.64 1.891m-17.871 10.555 17.903-10.471" style="display:inline"/>
    </g>
</svg>
