<svg xmlns="http://www.w3.org/2000/svg" width="2276.003" height="2589.636" viewBox="-646.023 445.958 1707.002 1942.227">
    <title>0F7AAB80-800A-4167-9C0F-2E85B6A9C078</title>
    <desc>
        Drawing exported from Concepts: Smarter Sketching
    </desc>
    <path fill="none" stroke="#6ac0c8" stroke-linecap="round" stroke-linejoin="round" d="m599.323 2231.923 39.261-59.776m43.64-66.443 18.054-27.487m-100.076 29.905 38.025 57.016m44.897 67.32 17.998 26.987m214.2 1.077 20.694-28.117m49.467-67.211 38.563-52.397m-100.215-34.406 17.763 26.988m43.514 66.112 33.932 51.553" style="display:inline"/>
    <path fill="none" stroke="#f3ba38" stroke-linecap="round" stroke-linejoin="round" d="m605.741 2168.626 31.327.172m7.701.043 55.399.304m206.642-1.463 70.69.38m8.893.048 53.051.285" style="display:inline"/>
    <path fill="none" stroke="#9378e3" stroke-linecap="round" stroke-linejoin="round" stroke-width="5" d="m640.535 2168.1 39.947-59.372m-39.907 60.264 40.576 60.372m262.398-121.15 39.293 60.167m-44.624 60.786 44.243-61.112" style="display:inline"/>
    <path fill="none" stroke="#f66640" stroke-linecap="round" stroke-linejoin="round" stroke-width="2.5" d="m593.221 2176.461 7.907-18.492m.088.011 4.765 19.403m-15.795-12.423 15.778 12.39m-15.672-13.072 20.64 1.891m-17.871 10.555 17.902-10.471m281.725 9.399 8.565-18.196m.087.014 4.066 19.561m-15.34-12.981 15.324 12.947m-15.192-13.625 20.559 2.629m-18.239 9.908 18.267-9.823" style="display:inline"/>
    <path fill="none" stroke="#f3ba38" stroke-linecap="round" stroke-linejoin="round" stroke-width="2.5" d="M679.963 2109.526q.106-.14.182-.296" style="display:inline"/>
    <circle cx="640.488" cy="2168.516" r="1.25" fill="#f3ba38" stroke="#f3ba38" stroke-width=".1" style="display:inline"/>
    <circle cx="680.971" cy="2229.179" r="1.25" fill="#f3ba38" stroke="#f3ba38" stroke-width=".1" style="display:inline"/>
    <circle cx="982.229" cy="2168.154" r="1.25" fill="#f3ba38" stroke="#f3ba38" stroke-width=".1" style="display:inline"/>
    <circle cx="938.411" cy="2228.714" r="1.25" fill="#f3ba38" stroke="#f3ba38" stroke-width=".1" style="display:inline"/>
    <circle cx="943.682" cy="2108.372" r="1.25" fill="#f3ba38" stroke="#f3ba38" stroke-width=".1" style="display:inline"/>
    <path fill="none" stroke="#f3ba38" stroke-linecap="round" stroke-linejoin="round" d="M587.161 2152.431q.19-.179.443-.386.319-.272 1.289-1.321t1.744-2.156q.773-1.108 1.208-1.966.436-.859.823-2.029.387-1.171.578-2.885t.104-2.608-.194-1.358q-.107-.463-.387-1.155-.281-.692-.629-1.194-.349-.502-.623-.769-.274-.266-.512-.436-.239-.17-.838-.415t-1.254-.329q-.654-.084-1.081-.056t-.759.082-1.566.505q-1.233.45-2.233 1.116-1 .665-1.451 1.067-.45.401-1.018 1.044t-1.08 1.409-1.033 1.899-.902 2.83-.372 3.173.141 2.209.341 1.381q.211.648.494 1.209.282.562.456.823t.4.528.487.513.898.615q.636.37.996.47.359.1.568.133t.489.04q.28.01.535-.013.256-.02 1.202-.317.947-.297 1.556-.663.61-.365 1.131-.778t.778-.665.454-.468q.196-.217.645-.637" style="display:inline"/>
    <path fill="none" stroke="#f3ba38" stroke-linecap="round" stroke-linejoin="round" d="M586.197 2147.965q.071.091.32.514.25.423.808 1.263t1.289 1.83 1.382 1.734q.028.013.221.138.193.126.489.316m295.595-3.52q.196-.172.457-.37.328-.261 1.335-1.274 1.008-1.014 1.82-2.093t1.278-1.921.895-1.999q.429-1.155.681-2.861t.197-2.603-.145-1.364-.345-1.168-.586-1.216-.594-.79q-.265-.276-.497-.455-.233-.179-.823-.445-.589-.266-1.241-.373-.651-.108-1.078-.095t-.762.055-1.583.448-2.272 1.035-1.487 1.014q-.465.385-1.055 1.007-.591.623-1.131 1.37-.539.747-1.1 1.861-.56 1.113-1.002 2.796-.443 1.683-.486 3.158t.062 2.212.292 1.393q.186.654.449 1.226.263.571.427.838t.38.542.469.53.876.647.978.505.563.154.487.057.535.01q.256-.011 1.213-.274.956-.262 1.579-.606.622-.343 1.158-.738t.801-.636.47-.451q.204-.21.668-.614" style="display:inline"/>
    <path fill="none" stroke="#f3ba38" stroke-linecap="round" stroke-linejoin="round" d="M885.498 2145.742q.068.094.302.525t.761 1.291q.528.859 1.223 1.875.694 1.015 1.319 1.782.027.014.216.147l.477.332m53.713 93.052q.084-.406.562-2.106.477-1.7 1.455-5.093.977-3.393 1.682-5.423.706-2.03 1.084-2.793t1.159-1.52q.107.042.474.908.366.865.623 2.571.258 1.705.384 2.937t.309 3.222.266 2.937.166 1.786q.083.841.206 1.742.019.105.059 1.26" style="display:inline"/>
    <path fill="none" stroke="#f3ba38" stroke-linecap="round" stroke-linejoin="round" d="M944.676 2240.178q.411-.115 2.14-.481 1.729-.365 4.626-1.036m-288.109 5.659q.069-.409.485-2.125.417-1.716 1.272-5.142t1.488-5.48q.631-2.053.982-2.83.351-.776 1.104-1.56.109.038.506.89t.715 2.547.489 2.922.424 3.209q.255 1.982.372 2.925t.229 1.78.268 1.732q.024.105.104 1.258" style="display:inline"/>
    <path fill="none" stroke="#f3ba38" stroke-linecap="round" stroke-linejoin="round" d="M664.335 2239.713q.407-.13 2.122-.557t4.586-1.201m-34.954-50.365-.024.419q.005.552.038 2.317.032 1.765.112 3.778.081 2.013.259 5.593.017.234.036 1.166" style="display:inline"/>
    <path fill="none" stroke="#f3ba38" stroke-linecap="round" stroke-linejoin="round" d="M635.011 2188.704q.28-.155.694-.364.415-.21 1.19-.552t1.376-.543 1.207-.32q.606-.118 1.04-.121.434 0 .772.058.337.059.692.262.354.202.563.447.209.244.287.398t.132.448q.055.295-.069.859-.125.564-.38 1.069-.255.506-.652 1.025-.396.519-.698.843t-.453.468l-.265.253q-.114.108-.748.742.039.031.266.084.226.053.591.044t.634-.022.897-.01q.629.01 1.261.081.631.074 1.036.186t.623.183q.218.072.612.289.394.218.899.684.506.467.722.817t.307.618q.091.267.124.699.032.432-.028.728-.061.297-.15.504-.09.208-.284.52-.195.313-.534.669t-.906.751q-.568.394-1.441.778t-1.842.642-1.995.43q-1.028.174-2.165.404-.084.021-.855.052l-.472.056m342.004-17.148-.024.419q.005.552.038 2.317.032 1.764.113 3.778.08 2.013.258 5.593.017.233.036 1.166" style="display:inline"/>
    <path fill="none" stroke="#f3ba38" stroke-linecap="round" stroke-linejoin="round" d="M977.925 2186.829q.28-.156.695-.365t1.189-.551q.775-.342 1.376-.543t1.207-.32 1.04-.121q.434 0 .772.057.337.06.692.262t.563.447.287.399q.077.154.132.448t-.069.858-.38 1.07q-.255.505-.652 1.025-.396.519-.698.842-.302.324-.453.469l-.265.253q-.114.108-.748.742.04.031.266.084t.591.043.634-.021q.268-.013.897-.01.629.01 1.261.081.631.075 1.036.186.405.112.623.184.218.071.612.289t.899.684.722.816q.216.351.307.618.091.268.124.7.032.431-.028.728-.061.296-.15.504-.09.208-.284.52-.195.312-.534.669t-.906.751-1.441.778-1.842.641-1.995.431-2.165.403q-.084.022-.855.053l-.472.056m-335.033-59.318-.151-.188q-.091-.125-.437-.664-.346-.538-.597-.877-.252-.338-.471-.588-.22-.25-.544-.537t-.662-.502-.683-.361q-.346-.146-.825-.24-.478-.093-.87-.084-.392.01-.811.109-.419.1-.912.348t-.768.454q-.276.205-.612.545-.337.341-.715.886-.378.546-.569.931-.192.385-.453 1.184t-.381 1.79q-.12.992-.053 1.86.068.868.161 1.285.092.418.337 1.055.244.637.584 1.178t.779.984q.439.442.856.713.418.271.849.438.432.167.985.253t1.116.034q.563-.05.802-.112.238-.063.7-.242.462-.18.829-.383.368-.202.882-.579t.846-.675.473-.431.598-.621q.171-.17.361-.375m344.593-4.77-.151-.187q-.092-.126-.437-.664-.346-.539-.598-.877-.251-.339-.471-.589t-.543-.537-.662-.501q-.338-.215-.684-.362-.345-.146-.824-.24-.479-.093-.87-.084-.392.01-.811.11t-.913.347-.768.454-.612.546q-.337.34-.714.886-.378.545-.57.93t-.452 1.185q-.261.799-.382 1.79-.12.991-.052 1.859t.16 1.286.337 1.055.585 1.178.779.983.856.714.849.438.984.252 1.116.035.802-.113.7-.242.83-.383q.367-.202.881-.578.514-.377.847-.675t.473-.431.598-.622q.17-.17.361-.375m-323.572-57.562q.006.064-.005.564.001.17.042 1.352t.163 2.762.2 2.426.155 1.635.215 2.109q.139 1.318.265 2.213.125.894.183 1.19t.104.456q.047.162.102.388" style="display:inline"/>
    <path fill="none" stroke="#f3ba38" stroke-linecap="round" stroke-linejoin="round" d="M667.313 2093.432q.192-.073.329-.12.137-.048.839-.258.703-.21 1.428-.357t1.143-.186q.418-.038 1.047-.013.63.024 1.079.117.45.092.686.172t.752.339.947.6q.433.341.656.579t.387.449q.163.213.553.96.389.748.53 1.22t.204 1.074q.064.601-.056 1.446-.119.846-.322 1.393-.203.548-.457 1.001-.254.454-.467.744-.212.291-.388.497t-.458.491-.976.84q-.693.556-1.753 1.245t-1.882 1.148-1.468.78-.727.363l-.685.364m280.114-19.771q.006.063-.006.564.001.169.042 1.351t.163 2.763.201 2.426q.078.845.155 1.635.076.79.215 2.108.138 1.319.264 2.213t.183 1.19.104.457.102.388" style="display:inline"/>
    <path fill="none" stroke="#f3ba38" stroke-linecap="round" stroke-linejoin="round" d="M948.491 2089.465q.193-.072.329-.12.137-.047.84-.258.702-.21 1.427-.357t1.143-.186q.418-.038 1.048-.013t1.079.117.685.172.752.339q.515.26.948.601t.656.578q.224.238.386.45.163.212.553.96.39.747.531 1.22.141.472.204 1.073t-.056 1.447q-.12.845-.322 1.393-.203.547-.458 1.001-.254.453-.466.744t-.389.497-.458.49q-.282.285-.975.841t-1.754 1.244q-1.06.689-1.881 1.149-.822.459-1.469.78t-.727.363l-.685.364" style="display:inline"/>
    <g style="display:inline">
        <path fill="none" stroke="#6ac0c8" stroke-linecap="round" stroke-linejoin="round" d="m622.015 1947.552 7.172-14.997m32.823-68.442 15.168-31.72m-35.64-1.34 16.616 33.287m33.82 67.784 7.253 14.528"/>
        <path fill="none" stroke="#f3ba38" stroke-linecap="round" stroke-linejoin="round" d="m605.73 1868.335 49.774-.306m9.894-.061 33.999.257"/>
        <path fill="none" stroke="#6ac0c8" stroke-linecap="round" stroke-linejoin="round" d="m922.315 1947.849 7.172-14.997m32.823-68.441 15.168-31.72m-35.641-1.341 16.617 33.287m33.82 67.784 7.253 14.528"/>
        <path fill="none" stroke="#f3ba38" stroke-linecap="round" stroke-linejoin="round" d="m906.03 1868.633 49.774-.307m9.894-.061 33.999.257"/>
        <path fill="none" stroke="#9378e3" stroke-linecap="round" stroke-linejoin="round" stroke-width="5" d="m630.883 1929.379 29.497-61.971m.009-.034 30.011 61.67m240.783.632 29.497-61.97m.009-.035 30.01 61.67"/>
        <path fill="none" stroke="#f66640" stroke-linecap="round" stroke-linejoin="round" stroke-width="2.5" d="m592.969 1875.755 7.908-18.491m.088.011 4.764 19.402m-15.795-12.422 15.778 12.39m-15.671-13.073 20.64 1.891m-17.872 10.556 17.903-10.471"/>
        <circle cx="630.837" cy="1929.301" r="1.25" fill="#f3ba38" stroke="#f3ba38" stroke-width=".1"/>
        <circle cx="660.564" cy="1867.938" r="1.25" fill="#f3ba38" stroke="#f3ba38" stroke-width=".1"/>
        <circle cx="690.255" cy="1928.721" r="1.25" fill="#f3ba38" stroke="#f3ba38" stroke-width=".1"/>
        <path fill="none" stroke="#f3ba38" stroke-linecap="round" stroke-linejoin="round" d="M587.465 1852.22q.189-.179.442-.386.319-.272 1.289-1.321.971-1.049 1.744-2.156t1.209-1.966.822-2.03q.388-1.17.578-2.884.191-1.714.104-2.608t-.194-1.358-.387-1.155-.629-1.194q-.348-.502-.622-.768-.274-.267-.513-.437-.239-.171-.838-.415-.599-.245-1.253-.329-.655-.084-1.081-.056-.427.027-.76.082-.332.054-1.566.505-1.233.45-2.233 1.115-1 .666-1.451 1.067-.45.402-1.018 1.045-.567.643-1.08 1.409t-1.033 1.899-.902 2.83q-.381 1.698-.372 3.173t.141 2.209.342 1.381.493 1.209.456.823.4.528q.225.267.487.513t.899.615q.636.37.995.47.36.1.568.133.209.033.489.04.28.01.536-.013.255-.02 1.201-.317t1.557-.663 1.13-.779q.521-.413.779-.664.257-.251.453-.468.197-.217.646-.637"/>
        <path fill="none" stroke="#f3ba38" stroke-linecap="round" stroke-linejoin="round" d="M586.5 1847.754q.071.091.321.514.249.423.807 1.263.559.839 1.289 1.829t1.382 1.735q.028.013.221.138l.489.315m23.406 80.629q.068-.41.485-2.125t1.272-5.142q.855-3.426 1.487-5.48t.983-2.83 1.104-1.561q.108.039.505.891t.716 2.547.488 2.921.425 3.209q.254 1.983.371 2.925.117.943.23 1.78t.268 1.733q.023.104.104 1.257"/>
        <path fill="none" stroke="#f3ba38" stroke-linecap="round" stroke-linejoin="round" d="M615.417 1929.57q.407-.13 2.121-.557 1.715-.428 4.586-1.202m16.11-78.594-.024.419q.005.552.038 2.317.032 1.765.112 3.778.081 2.013.259 5.593.017.233.036 1.166"/>
        <path fill="none" stroke="#f3ba38" stroke-linecap="round" stroke-linejoin="round" d="M637.156 1850.331q.28-.155.694-.364.415-.21 1.19-.552t1.376-.543 1.207-.32 1.04-.121q.434 0 .772.058.337.059.692.261.354.203.563.448.209.244.287.398t.132.448q.055.295-.069.859-.125.564-.38 1.069-.255.506-.652 1.025-.396.519-.698.843t-.453.468l-.265.253q-.114.108-.748.742.039.031.266.084.226.053.591.044t.634-.022.897-.01q.629.01 1.261.081.631.074 1.036.186.405.111.623.183t.612.289.899.684.722.817.307.618.124.699q.032.431-.028.728-.061.297-.15.505-.09.208-.284.52-.195.312-.534.668t-.906.751-1.441.778-1.842.642q-.968.257-1.995.431-1.028.173-2.165.402-.084.022-.855.053l-.472.056m68.708 57.726-.151-.188q-.092-.125-.437-.663-.346-.539-.598-.877-.251-.339-.471-.589t-.544-.537-.661-.501-.684-.362q-.345-.146-.824-.24-.479-.093-.87-.084-.392.01-.811.11t-.913.347-.768.454-.612.546-.714.886q-.378.545-.57.93t-.452 1.185q-.262.799-.382 1.79t-.052 1.859.16 1.286q.093.417.337 1.055t.585 1.177q.34.541.778.984.439.442.857.713.418.272.849.439t.984.252 1.116.035q.564-.051.802-.113t.7-.242.83-.383q.367-.202.881-.578.514-.377.846-.676.333-.298.474-.43t.597-.622q.171-.169.362-.375m-36.432-79.926q.006.064-.006.564.001.17.043 1.352t.162 2.762q.122 1.581.201 2.426t.155 1.636q.076.789.215 2.108t.264 2.213.183 1.19.105.456q.046.162.101.388"/>
        <path fill="none" stroke="#f3ba38" stroke-linecap="round" stroke-linejoin="round" d="M672.188 1849.795q.192-.073.329-.12.136-.048.839-.258t1.428-.357 1.142-.186 1.048-.013 1.079.117q.449.092.686.172.236.08.751.339.516.259.948.6.433.341.656.578.224.238.387.451.163.212.552.96.39.747.531 1.219t.204 1.074-.056 1.446q-.119.846-.322 1.393-.203.548-.457 1.001-.255.453-.467.744t-.388.497-.458.491-.976.84q-.693.556-1.753 1.245t-1.882 1.148-1.468.78-.727.363l-.685.364"/>
        <path fill="none" stroke="#f66640" stroke-linecap="round" stroke-linejoin="round" stroke-width="2.5" d="m893.269 1876.053 7.907-18.492m.089.011 4.764 19.403m-15.795-12.423 15.778 12.39m-15.672-13.072 20.64 1.89m-17.871 10.556 17.903-10.471"/>
        <circle cx="931.137" cy="1929.598" r="1.25" fill="#f3ba38" stroke="#f3ba38" stroke-width=".1"/>
        <circle cx="960.863" cy="1868.235" r="1.25" fill="#f3ba38" stroke="#f3ba38" stroke-width=".1"/>
        <circle cx="990.555" cy="1929.019" r="1.25" fill="#f3ba38" stroke="#f3ba38" stroke-width=".1"/>
        <path fill="none" stroke="#f3ba38" stroke-linecap="round" stroke-linejoin="round" d="M887.764 1852.517q.19-.179.443-.386.319-.272 1.289-1.321.971-1.049 1.744-2.156t1.208-1.966q.436-.859.823-2.029.387-1.171.578-2.885t.104-2.608-.194-1.357-.387-1.156-.629-1.194-.623-.768-.512-.437q-.239-.17-.838-.415t-1.254-.329q-.654-.084-1.081-.056t-.759.082-1.566.505q-1.233.45-2.233 1.116-1 .665-1.451 1.067-.45.401-1.018 1.044t-1.08 1.409-1.033 1.899-.902 2.83-.372 3.173.141 2.209.342 1.381.493 1.209.456.823.4.528q.225.267.487.513t.898.615.996.47.568.133.489.04q.28.01.535-.013.256-.02 1.202-.317.947-.297 1.557-.663.609-.365 1.13-.778t.778-.665.454-.468.645-.637"/>
        <path fill="none" stroke="#f3ba38" stroke-linecap="round" stroke-linejoin="round" d="M886.8 1848.051q.071.091.321.514.249.423.807 1.263t1.289 1.83 1.382 1.734q.028.013.221.138.193.126.489.316m104.406 79.296q.069-.409.486-2.125.416-1.716 1.272-5.142.855-3.426 1.487-5.48.632-2.053.982-2.83.351-.776 1.105-1.56.108.038.505.89t.716 2.547.488 2.922.425 3.209q.254 1.983.371 2.925t.23 1.78.267 1.733q.024.104.105 1.256"/>
        <path fill="none" stroke="#f3ba38" stroke-linecap="round" stroke-linejoin="round" d="M996.717 1928.535q.407-.129 2.122-.557 1.715-.427 4.586-1.201m-30.333-76.899-.024.419q.005.552.038 2.317.032 1.764.113 3.778.08 2.013.259 5.592.016.234.035 1.167"/>
        <path fill="none" stroke="#f3ba38" stroke-linecap="round" stroke-linejoin="round" d="M972.014 1850.991q.28-.155.695-.364t1.19-.551 1.376-.543 1.206-.32 1.04-.121q.434 0 .772.057.338.06.692.262t.563.447.287.399.132.448q.055.294-.069.858t-.38 1.07q-.255.505-.651 1.024-.397.52-.699.843t-.453.469l-.265.253q-.114.108-.748.742.04.031.266.084.227.053.592.043.364-.01.633-.021.269-.013.898-.01.629.01 1.26.082.631.074 1.036.185.405.112.623.184.219.071.612.289.394.217.899.684.506.466.722.816.216.351.307.618.092.268.124.699.032.432-.028.729-.06.296-.15.504t-.284.52-.533.669-.907.751-1.441.778-1.842.641-1.995.431-2.164.403q-.085.022-.856.053l-.471.056m-50.506 57.665-.151-.187q-.092-.125-.437-.664-.346-.539-.597-.877-.252-.338-.472-.589t-.543-.536q-.324-.287-.662-.502t-.684-.361-.824-.24-.87-.085q-.392.01-.811.11t-.913.348-.768.453-.612.546q-.336.34-.714.886t-.569.931q-.192.385-.453 1.184t-.381 1.79-.053 1.859.16 1.286.337 1.055.585 1.178.779.983.856.714q.418.271.849.438t.984.252q.553.086 1.116.035t.802-.113.7-.242.83-.382q.367-.203.881-.579t.847-.675.473-.431.598-.622q.17-.169.361-.374m14.497-79.627q.006.064-.006.565.001.17.043 1.351t.162 2.763q.122 1.58.201 2.426.079.845.155 1.635.077.79.215 2.108.139 1.319.264 2.213.126.894.184 1.19t.104.457.101.388"/>
        <path fill="none" stroke="#f3ba38" stroke-linecap="round" stroke-linejoin="round" d="M938.762 1850.696q.192-.072.329-.12t.839-.258 1.428-.357q.724-.147 1.142-.185t1.048-.014 1.079.117.686.172q.236.08.752.339.515.26.947.6.433.341.656.579t.387.45.552.96q.39.747.531 1.22.141.472.204 1.073t-.056 1.447-.322 1.393-.457 1q-.255.454-.467.745t-.389.497-.457.49q-.282.285-.976.841-.693.555-1.753 1.244t-1.882 1.149-1.468.78-.727.363l-.685.364"/>
    </g>
    <g style="display:inline">
        <path fill="none" stroke="#6ac0c8" stroke-linecap="round" stroke-linejoin="round" d="m600.162 1027.675 17.827-17.81m45.825-45.98 32.999-32.768m6.409-6.403 17.086-17.069m-21.304-18.168.5 33.607m1.313 88.185.249 16.751m239.499-138.306-.008 32.1m-.019 90.319-.008 36.205m-20.599-142.426 17.504 17.665m6.962 7.027 32.739 32.91m44.963 45.507 18.839 19.013"/>
        <path fill="none" stroke="#f3ba38" stroke-linecap="round" stroke-linejoin="round" d="m603.798 967.669 51.187-.065m10.464-.013 31.303-.04m7.437-.009 36.097-.046m168.305-.188 27.971.214m7.614.059 32.314.247m10.2.079 32.821.251"/>
        <path fill="none" stroke="#9378e3" stroke-linecap="round" stroke-linejoin="round" stroke-width="5" d="m620.58 1007.529 40.243-40.407m39.318-40.617.874 80.967m239.452-81.856-.028 82.818m39.663-41.533 39.597 39.515"/>
        <path fill="none" stroke="#f66640" stroke-linecap="round" stroke-linejoin="round" stroke-width="2.5" d="m592.479 975.528 7.907-18.492m.088.012 4.764 19.402m-15.795-12.422 15.778 12.389m-15.671-13.072 20.64 1.891m-17.872 10.556 17.903-10.472m282.661 10.532 7.907-18.491m.088.011 4.765 19.402m-15.795-12.422 15.777 12.39m-15.671-13.073 20.64 1.891m-17.872 10.556 17.903-10.472"/>
        <circle cx="620.875" cy="1006.967" r="1.25" fill="#f3ba38" stroke="#f3ba38" stroke-width=".1"/>
        <path fill="none" stroke="#f3ba38" stroke-linecap="round" stroke-linejoin="round" stroke-width="2.5" d="m660.372 967.445.08-.044.003.033"/>
        <circle cx="700.337" cy="926.589" r="1.25" fill="#f3ba38" stroke="#f3ba38" stroke-width=".1"/>
        <circle cx="940.413" cy="1007.448" r="1.25" fill="#f3ba38" stroke="#f3ba38" stroke-width=".1"/>
        <circle cx="980.872" cy="967.756" r="1.25" fill="#f3ba38" stroke="#f3ba38" stroke-width=".1"/>
        <circle cx="1019.681" cy="1006.561" r="1.25" fill="#f3ba38" stroke="#f3ba38" stroke-width=".1"/>
        <circle cx="700.944" cy="1007.203" r="1.25" fill="#f3ba38" stroke="#f3ba38" stroke-width=".1"/>
        <circle cx="940.609" cy="925.811" r="1.25" fill="#f3ba38" stroke="#f3ba38" stroke-width=".1"/>
        <path fill="none" stroke="#f3ba38" stroke-linecap="round" stroke-linejoin="round" d="M584.746 951.635q.189-.179.443-.386.318-.273 1.289-1.322t1.743-2.156q.774-1.107 1.209-1.966.435-.858.823-2.029t.578-2.884q.191-1.714.104-2.608t-.194-1.358q-.107-.463-.388-1.155-.28-.692-.629-1.194-.348-.502-.622-.769-.274-.266-.513-.437-.238-.17-.837-.415-.6-.244-1.254-.328t-1.081-.057q-.427.028-.759.083-.333.054-1.566.504-1.234.451-2.234 1.116-1 .666-1.45 1.067-.451.401-1.018 1.044-.568.644-1.081 1.41-.512.766-1.033 1.898-.52 1.133-.901 2.831-.382 1.697-.372 3.173.009 1.475.141 2.209t.341 1.381.493 1.209.457.823.399.527q.226.267.488.513t.898.616.996.47.568.133.488.04.536-.014 1.202-.317 1.556-.662 1.131-.779q.52-.413.778-.664.257-.251.454-.468.196-.217.645-.637"/>
        <path fill="none" stroke="#f3ba38" stroke-linecap="round" stroke-linejoin="round" d="M583.782 947.168q.071.092.32.515.25.422.808 1.262t1.288 1.83 1.383 1.734q.027.013.221.139l.489.315m298.738-.519q.19-.179.443-.386.319-.272 1.289-1.321t1.744-2.156 1.208-1.966.823-2.029q.387-1.171.578-2.885t.104-2.608-.194-1.358-.387-1.155-.629-1.194-.623-.768q-.274-.267-.512-.437-.239-.171-.838-.415-.599-.245-1.254-.329-.654-.084-1.081-.056t-.759.082-1.566.505-2.234 1.115q-1 .666-1.45 1.067-.451.402-1.018 1.045-.568.643-1.081 1.409-.512.766-1.032 1.899-.52 1.132-.902 2.83t-.372 3.173.141 2.209.341 1.381q.21.648.493 1.209.283.562.457.823t.399.528.488.513q.262.246.898.615.636.37.996.47.359.1.568.133t.489.04.535-.013 1.202-.317 1.556-.663q.61-.365 1.131-.779.521-.413.778-.664.258-.251.454-.468t.645-.637"/>
        <path fill="none" stroke="#f3ba38" stroke-linecap="round" stroke-linejoin="round" d="M886.065 947.978q.071.091.32.514.25.423.808 1.263t1.288 1.829q.731.99 1.383 1.735.028.013.221.138l.489.315m-267.845 80.572q.069-.409.486-2.125.416-1.716 1.272-5.142.855-3.426 1.487-5.48t.982-2.83 1.105-1.56q.108.038.505.89t.716 2.547.488 2.922.425 3.209q.254 1.982.371 2.925t.23 1.779q.113.838.267 1.734.024.104.104 1.256"/>
        <path fill="none" stroke="#f3ba38" stroke-linecap="round" stroke-linejoin="round" d="M623.731 1029.737q.407-.129 2.122-.557t4.586-1.201m395.334-18.559q.069-.409.486-2.125.416-1.716 1.272-5.142.855-3.426 1.487-5.48t.982-2.83q.351-.776 1.105-1.561.108.039.505.891t.716 2.547.488 2.921.425 3.209q.254 1.983.371 2.925.117.943.23 1.78t.267 1.733q.024.104.104 1.257"/>
        <path fill="none" stroke="#f3ba38" stroke-linecap="round" stroke-linejoin="round" d="M1026.775 1004.813q.407-.13 2.122-.557t4.586-1.202m-369.467-25.706-.024.419q.005.552.037 2.317.033 1.765.113 3.778.081 2.013.259 5.593.017.233.035 1.166"/>
        <path fill="none" stroke="#f3ba38" stroke-linecap="round" stroke-linejoin="round" d="M662.938 978.462q.28-.155.694-.365.415-.209 1.19-.551t1.376-.543 1.207-.32 1.04-.121.771.057q.338.06.693.262t.563.447.286.399.133.448-.069.858-.38 1.07q-.255.505-.652 1.025-.396.519-.698.842-.302.324-.453.469l-.265.253q-.114.108-.748.742.039.031.266.084.226.053.591.044t.634-.022.897-.006q.629.006 1.261.081.631.074 1.036.186.405.111.623.183.218.071.612.289.393.217.899.684.506.466.722.817t.307.617q.091.268.124.7.032.431-.028.728-.061.296-.15.504-.09.208-.284.52-.195.312-.534.669t-.906.751-1.441.778-1.842.641q-.968.258-1.995.431t-2.165.403q-.084.022-.856.053l-.471.056m320.076-45.081-.024.419q.005.552.037 2.317.033 1.764.113 3.778.081 2.013.259 5.593.017.233.035 1.166"/>
        <path fill="none" stroke="#f3ba38" stroke-linecap="round" stroke-linejoin="round" d="M983.923 948.657q.28-.155.695-.364t1.19-.551 1.376-.543 1.207-.32 1.04-.121.771.057.692.262.564.447.286.399q.078.153.133.448.055.294-.07.858-.124.564-.379 1.07-.255.505-.652 1.024-.396.52-.698.843-.302.324-.453.469l-.266.253q-.114.108-.747.742.039.031.266.084.226.053.591.043.365-.009.633-.021.269-.013.898-.006t1.26.08q.632.075 1.037.186.404.112.623.184.218.071.612.289.393.217.899.684.505.466.722.816.216.351.307.618.091.268.123.699.033.432-.028.729-.06.296-.15.504-.089.208-.284.52t-.533.669-.906.751-1.442.778q-.873.384-1.841.641-.968.258-1.996.431-1.027.173-2.164.403-.084.022-.856.053l-.471.056"/>
        <circle cx="700.602" cy="967.638" r="1.25" fill="#fa7fb1" stroke="#fa7fb1" stroke-width=".1"/>
        <circle cx="940.571" cy="967.66" r="1.25" fill="#fa7fb1" stroke="#fa7fb1" stroke-width=".1"/>
        <path fill="none" stroke="#f3ba38" stroke-linecap="round" stroke-linejoin="round" d="m719.249 1004.11-.151-.188q-.092-.125-.437-.664-.346-.538-.598-.877-.251-.338-.471-.588t-.543-.537-.662-.502q-.338-.215-.684-.361-.345-.146-.824-.24-.479-.093-.87-.084-.392.01-.811.109-.42.1-.913.348t-.768.453-.612.546-.714.886q-.378.546-.57.931t-.452 1.184-.382 1.79q-.12.991-.052 1.86.068.868.16 1.286.093.417.337 1.054t.585 1.178.779.983q.438.443.856.714t.849.438.984.252 1.116.035.802-.112q.239-.063.7-.243.462-.18.83-.382t.881-.579q.514-.376.847-.675t.473-.431.598-.621q.17-.17.361-.375m212.431-6.153-.151-.188q-.091-.125-.437-.664-.345-.538-.597-.877t-.471-.588-.544-.537-.662-.502q-.338-.215-.683-.361t-.824-.24q-.479-.093-.871-.084-.391.01-.811.109-.419.1-.912.348t-.768.453-.612.546-.715.886q-.378.546-.569.931-.192.385-.453 1.184t-.381 1.79-.052 1.86.16 1.285q.092.418.337 1.055.244.637.584 1.178t.779.983q.439.443.857.714.417.271.848.438.432.167.985.252.552.086 1.116.035.563-.05.802-.112.238-.063.7-.243t.829-.382q.368-.202.882-.579t.846-.675.473-.431q.141-.132.598-.621.171-.17.361-.375m-223.977-84.219q.006.064-.005.564.001.17.042 1.352t.163 2.762q.122 1.581.2 2.426t.155 1.636.215 2.108.265 2.213q.125.894.183 1.19t.104.456q.047.162.102.388"/>
        <path fill="none" stroke="#f3ba38" stroke-linecap="round" stroke-linejoin="round" d="M709.115 927.831q.192-.072.329-.12t.84-.258q.702-.21 1.427-.357t1.143-.186q.418-.038 1.047-.013.63.025 1.079.117.45.092.686.172t.752.339.947.6q.433.341.657.579.223.238.386.45t.553.96q.389.747.53 1.219t.204 1.074-.056 1.446q-.119.846-.322 1.393-.202.548-.457 1.001-.254.454-.467.745-.212.29-.388.496t-.458.491-.975.841q-.694.555-1.754 1.244t-1.881 1.148q-.822.46-1.469.78-.647.321-.727.363l-.685.365m213.747-18.714q.006.063-.006.564.001.17.042 1.352.041 1.181.163 2.762t.201 2.426q.078.845.155 1.635.076.79.215 2.109.138 1.318.264 2.212t.183 1.19.104.457.102.388"/>
        <path fill="none" stroke="#f3ba38" stroke-linecap="round" stroke-linejoin="round" d="M923.926 924.923q.193-.073.329-.121.137-.047.84-.257.702-.21 1.427-.357t1.143-.186 1.048-.014 1.079.117q.449.093.685.172.237.08.752.34.515.259.948.6t.656.578q.224.238.386.45.163.213.553.96.39.748.531 1.22t.204 1.073-.056 1.447-.322 1.393-.458 1.001-.466.744q-.213.291-.389.497t-.458.491q-.282.284-.975.84t-1.754 1.245q-1.06.689-1.881 1.148-.822.459-1.469.78t-.727.363l-.685.364"/>
    </g>
    <g style="display:inline">
        <path fill="none" stroke="#6ac0c8" stroke-linecap="round" stroke-linejoin="round" d="m3.06 1565.602 32.238-15.907m47.275-23.328 36.565-18.042m-39.711-.545.029 16.758m.151 87.23.028 16.414m259.734-99.055-.034 15.36m-.152 67.487-.04 17.767m-36.668-63.207 33.74-16.969m45.717-22.992 37.032-18.624"/>
        <path fill="none" stroke="#9378e3" stroke-linecap="round" stroke-linejoin="round" stroke-width="5" d="m339.686 1548.052-.269 60.559m.196-60.611 39.251-19.768m-340.309 20.079 41.092-20.343m-.132.126-.081 80.257"/>
        <path fill="none" stroke="#f66640" stroke-linecap="round" stroke-linejoin="round" stroke-width="2.5" d="m-7.053 1576.136 7.907-18.492m.088.012 4.764 19.402m-15.795-12.422 15.778 12.389m-15.671-13.072 20.64 1.891m-17.872 10.555 17.903-10.471m281.809 9.861 7.908-18.491m.088.011 4.764 19.403m-15.795-12.423 15.778 12.39m-15.671-13.073 20.64 1.891m-17.872 10.556 17.903-10.471"/>
        <circle cx="38.799" cy="1548.081" r="1.25" fill="#f3ba38" stroke="#f3ba38" stroke-width=".1"/>
        <circle cx="79.403" cy="1528.396" r="1.25" fill="#f3ba38" stroke="#f3ba38" stroke-width=".1"/>
        <circle cx="79.447" cy="1608.109" r="1.25" fill="#f3ba38" stroke="#f3ba38" stroke-width=".1"/>
        <circle cx="378.532" cy="1528.535" r="1.25" fill="#f3ba38" stroke="#f3ba38" stroke-width=".1"/>
        <path fill="none" stroke="#f3ba38" stroke-linecap="round" stroke-linejoin="round" stroke-width="2.5" d="m339.8 1548.059.037-.044q.01.01-.014.044"/>
        <circle cx="339.492" cy="1608.219" r="1.25" fill="#f3ba38" stroke="#f3ba38" stroke-width=".1"/>
        <path fill="none" stroke="#f3ba38" stroke-linecap="round" stroke-linejoin="round" d="M-11.026 1553.9q.189-.179.443-.386.318-.273 1.289-1.321t1.743-2.156q.774-1.108 1.209-1.967.435-.858.823-2.029t.578-2.884q.191-1.714.104-2.608t-.194-1.358-.388-1.155-.629-1.194-.622-.769-.513-.436q-.238-.171-.837-.415-.599-.245-1.254-.329-.654-.084-1.081-.056-.427.027-.759.082-.333.054-1.566.505-1.234.45-2.234 1.115-1 .666-1.45 1.067-.451.402-1.018 1.045-.568.643-1.081 1.409-.512.766-1.032 1.899-.52 1.132-.902 2.83-.382 1.697-.372 3.173.009 1.475.141 2.209t.341 1.381.493 1.209.457.823.399.528.488.513.898.615.996.47q.359.1.568.133t.488.04q.281.01.536-.013.255-.02 1.202-.317.946-.297 1.556-.663.61-.365 1.131-.779.52-.413.778-.664t.454-.468.645-.637"/>
        <path fill="none" stroke="#f3ba38" stroke-linecap="round" stroke-linejoin="round" d="M-11.99 1549.434q.071.091.32.514.25.423.808 1.263t1.288 1.829 1.383 1.735q.027.012.221.138l.489.315m294.614-2.393q.19-.179.443-.386.319-.272 1.289-1.321.971-1.049 1.744-2.156t1.208-1.967q.436-.858.823-2.029t.578-2.884.104-2.608-.194-1.358-.387-1.155q-.281-.692-.629-1.194-.349-.502-.623-.768-.273-.267-.512-.437-.239-.171-.838-.415-.599-.245-1.254-.329-.654-.084-1.081-.056-.426.027-.759.082-.333.054-1.566.505-1.233.45-2.233 1.115-1 .666-1.451 1.067-.45.402-1.018 1.045t-1.08 1.409-1.033 1.899q-.52 1.132-.902 2.83t-.372 3.173.141 2.209.341 1.381q.211.648.494 1.209.282.562.456.823t.4.528.487.513.898.615.996.47q.36.1.568.133t.489.04q.28.01.535-.013.256-.02 1.202-.317.947-.297 1.556-.663.61-.365 1.131-.779.521-.413.778-.664.258-.251.454-.468t.645-.637"/>
        <path fill="none" stroke="#f3ba38" stroke-linecap="round" stroke-linejoin="round" d="M286.169 1548.369q.071.091.321.514.249.423.807 1.263t1.289 1.829 1.382 1.735q.028.013.221.138l.489.315M29.56 1538.88q.069-.409.485-2.125.417-1.716 1.272-5.142.856-3.426 1.488-5.48t.982-2.83 1.105-1.561q.108.039.505.891t.715 2.547q.319 1.695.489 2.921.17 1.227.424 3.21.255 1.982.372 2.924.117.943.23 1.78.112.838.267 1.733.024.105.104 1.257"/>
        <path fill="none" stroke="#f3ba38" stroke-linecap="round" stroke-linejoin="round" d="M30.562 1534.273q.407-.13 2.122-.557t4.586-1.202m306.051 3.87q.069-.409.485-2.125.417-1.716 1.272-5.142t1.487-5.48.983-2.83 1.104-1.56q.109.038.506.89t.715 2.547q.319 1.695.489 2.922.17 1.226.424 3.209.254 1.982.372 2.925t.229 1.78q.113.837.268 1.733.023.104.104 1.256"/>
        <path fill="none" stroke="#f3ba38" stroke-linecap="round" stroke-linejoin="round" d="M344.323 1531.777q.407-.129 2.121-.557 1.715-.428 4.586-1.201M61.856 1506.54l-.023.419q.005.552.037 2.317.032 1.764.113 3.778.08 2.013.259 5.593.016.233.035 1.166"/>
        <path fill="none" stroke="#f3ba38" stroke-linecap="round" stroke-linejoin="round" d="M60.778 1507.654q.28-.156.695-.365t1.19-.551 1.376-.543 1.207-.32 1.039-.121q.434 0 .772.057.338.06.692.262.355.202.563.447.209.245.287.399t.133.448-.07.858-.379 1.07q-.256.505-.652 1.025t-.698.842q-.302.324-.454.469l-.265.253q-.114.108-.747.742.039.031.265.084.227.053.592.044t.633-.022q.269-.013.898-.01.629.01 1.26.081.631.074 1.036.185.405.112.623.184.219.071.612.289.394.217.9.684.505.466.721.816.216.351.308.618.091.268.123.699.033.432-.028.729-.06.296-.15.504-.089.208-.284.52t-.533.669q-.339.357-.907.751-.567.394-1.441.778t-1.842.642-1.995.43q-1.027.174-2.164.403-.084.022-.856.053l-.471.056m315.356-17.241-.024.419q.005.552.037 2.317.033 1.765.113 3.778.081 2.013.259 5.593.017.233.035 1.166"/>
        <path fill="none" stroke="#f3ba38" stroke-linecap="round" stroke-linejoin="round" d="M377.044 1505.686q.28-.155.695-.365.415-.209 1.19-.551t1.376-.543 1.207-.32 1.04-.121q.434 0 .771.057.338.06.693.262t.563.447.286.399.133.448-.07.858-.379 1.07-.652 1.025q-.396.519-.698.842-.302.324-.453.469l-.266.253q-.114.108-.747.742.039.031.266.084.226.053.591.044t.634-.022q.268-.013.897-.01.629.01 1.26.081.632.074 1.037.186.405.111.623.183.218.071.612.289.393.218.899.684.505.466.722.817t.307.617q.091.268.123.7.033.431-.027.728-.061.296-.15.504-.09.208-.284.52-.195.312-.534.669t-.906.751-1.442.778q-.873.384-1.841.641-.968.258-1.995.431-1.028.174-2.165.403-.084.022-.856.053l-.471.056m-280.119 84.599-.15-.188q-.092-.125-.438-.663-.345-.539-.597-.877-.252-.339-.471-.589-.22-.25-.544-.537t-.661-.502-.684-.361q-.345-.146-.824-.24-.479-.093-.871-.084-.391.01-.811.109-.419.101-.912.348-.493.248-.768.453t-.612.546-.715.886q-.377.546-.569.931t-.453 1.184-.381 1.791-.052 1.859q.067.868.16 1.286.092.417.337 1.054t.585 1.178.778.983.857.714q.417.271.849.438.431.167.984.253t1.116.035.802-.113q.238-.062.7-.242t.829-.383q.368-.202.882-.578.514-.377.846-.676.333-.299.473-.431.141-.132.598-.621.171-.17.362-.375m233.739-48.864-.151-.188q-.092-.125-.437-.663-.346-.539-.597-.877-.252-.339-.472-.589t-.543-.537-.662-.502-.683-.361q-.346-.146-.825-.24-.478-.093-.87-.084-.392.01-.811.11t-.912.347-.769.454q-.275.206-.611.546-.337.34-.715.886t-.569.931-.453 1.184-.381 1.79-.053 1.859q.068.868.16 1.286.093.418.337 1.054.245.638.585 1.178.34.541.779.984t.856.713q.418.272.849.439.432.167.984.252.553.085 1.117.035.563-.051.801-.113t.701-.242q.462-.18.829-.382.367-.203.881-.579.514-.377.847-.675t.473-.431.598-.622q.171-.169.361-.375m-245.301-38.755q.006.063-.006.564.001.17.042 1.352.042 1.181.163 2.762.122 1.58.201 2.426.079.845.155 1.635t.215 2.108.264 2.213q.126.895.183 1.19.058.296.105.457t.101.388"/>
        <path fill="none" stroke="#f3ba38" stroke-linecap="round" stroke-linejoin="round" d="M88.764 1530.917q.193-.072.33-.12.136-.047.839-.257t1.427-.358 1.143-.185q.418-.039 1.048-.014t1.079.117q.449.093.686.172.236.08.751.34.515.259.948.6t.656.578.387.45.552.96q.39.748.531 1.22t.204 1.073-.056 1.447-.322 1.393-.457 1.001q-.255.453-.467.744t-.389.497-.458.49q-.281.285-.975.841-.693.556-1.753 1.245-1.06.688-1.882 1.148t-1.468.78q-.648.321-.728.363l-.684.364m231.981 54.832q.006.064-.006.564.001.17.042 1.352.041 1.181.163 2.762t.201 2.426q.078.845.155 1.635.076.79.215 2.109t.264 2.212q.126.895.183 1.19.058.296.105.457t.101.388"/>
        <path fill="none" stroke="#f3ba38" stroke-linecap="round" stroke-linejoin="round" d="M321.81 1601.555q.193-.073.33-.12.136-.048.839-.258t1.427-.357 1.143-.186 1.048-.014 1.079.118.686.172.751.339.948.6q.432.341.656.578.224.238.387.45.162.213.552.96.39.748.531 1.22t.204 1.073-.056 1.447-.322 1.393-.457 1.001q-.255.453-.467.744t-.389.497q-.176.206-.458.491-.281.284-.975.84t-1.754 1.245-1.881 1.148q-.822.459-1.469.78t-.727.363l-.685.364"/>
    </g>
    <g style="display:inline">
        <path fill="none" stroke="#6ac0c8" stroke-linecap="round" stroke-linejoin="round" d="m460.802 1186.935-37.688 18.917m-46.899 23.541-33.911 17.02m-6.585 3.306-32.057 16.09m35.307-58.499.039 36.672m.05 47.187.038 35.986m-219.639-137.724.073 15.091m.612 126.911.092 19.036M4.006 1265.683l32.765-16.177m47.023-23.217 32.55-16.071m6.763-3.339 36.676-18.108"/>
        <path fill="none" stroke="#9378e3" stroke-linecap="round" stroke-linejoin="round" stroke-width="5" d="m40.097 1247.862 40.318-19.946m39.455-19.938.21 119.901m219.135-80.246-.119 39.896m40.47-59.934 40.286-20.023"/>
        <path fill="none" stroke="#f66640" stroke-linecap="round" stroke-linejoin="round" stroke-width="2.5" d="m-6.441 1275.913 7.907-18.491m.088.011 4.764 19.402m-15.795-12.423 15.778 12.39M-9.37 1263.73l20.64 1.891m-17.872 10.556 17.903-10.472m282.045 10.415 7.907-18.491m.089.011 4.764 19.402m-15.795-12.422 15.778 12.39m-15.672-13.073 20.64 1.891m-17.871 10.556 17.903-10.472"/>
        <circle cx="40.444" cy="1247.478" r="1.25" fill="#f3ba38" stroke="#f3ba38" stroke-width=".1"/>
        <circle cx="80.017" cy="1228.133" r="1.25" fill="#f3ba38" stroke="#f3ba38" stroke-width=".1"/>
        <circle cx="120.19" cy="1208.565" r="1.25" fill="#f3ba38" stroke="#f3ba38" stroke-width=".1"/>
        <circle cx="120.193" cy="1327.689" r="1.25" fill="#f3ba38" stroke="#f3ba38" stroke-width=".1"/>
        <circle cx="339.292" cy="1247.981" r="1.25" fill="#f3ba38" stroke="#f3ba38" stroke-width=".1"/>
        <circle cx="338.872" cy="1287.094" r="1.25" fill="#f3ba38" stroke="#f3ba38" stroke-width=".1"/>
        <circle cx="380.112" cy="1226.968" r="1.25" fill="#f3ba38" stroke="#f3ba38" stroke-width=".1"/>
        <circle cx="419.121" cy="1207.908" r="1.25" fill="#f3ba38" stroke="#f3ba38" stroke-width=".1"/>
        <path fill="none" stroke="#f3ba38" stroke-linecap="round" stroke-linejoin="round" d="M-12.801 1251.837q.19-.179.443-.386.319-.273 1.289-1.321t1.744-2.156q.773-1.108 1.208-1.967.436-.858.823-2.029t.578-2.884.104-2.608-.194-1.358-.387-1.155q-.281-.692-.629-1.194-.349-.502-.623-.769-.274-.266-.512-.436-.239-.171-.838-.415-.599-.245-1.254-.329-.654-.084-1.081-.056-.426.027-.759.082-.333.054-1.566.505-1.234.45-2.233 1.115-1 .666-1.451 1.067-.45.402-1.018 1.045t-1.08 1.409q-.513.766-1.033 1.899-.52 1.132-.902 2.83-.382 1.697-.372 3.173t.141 2.209.341 1.381q.211.647.493 1.209t.457.823q.174.261.399.528t.488.513.898.615.996.47q.359.1.568.133t.489.04q.28.01.535-.013.256-.02 1.202-.317.947-.297 1.556-.663.61-.365 1.131-.779.521-.413.778-.664.258-.251.454-.468t.645-.637"/>
        <path fill="none" stroke="#f3ba38" stroke-linecap="round" stroke-linejoin="round" d="M-13.765 1247.371q.071.091.32.514.25.423.808 1.263t1.289 1.829 1.382 1.735q.028.012.221.138l.489.315m300.649 2.221q.189-.178.443-.386.318-.272 1.289-1.321t1.743-2.156q.773-1.107 1.209-1.966.435-.859.822-2.029.388-1.17.579-2.884t.103-2.609q-.087-.894-.194-1.357-.106-.463-.387-1.156-.28-.692-.629-1.194-.348-.501-.622-.768-.274-.266-.513-.437t-.838-.415-1.253-.329q-.655-.084-1.081-.056-.427.028-.76.082-.332.055-1.566.505t-2.233 1.116-1.45 1.067-1.019 1.044q-.567.643-1.08 1.409t-1.033 1.899-.901 2.83q-.382 1.698-.372 3.173.009 1.476.14 2.21.132.733.342 1.381.21.647.493 1.209.283.561.457.822.173.262.399.528.226.267.488.513t.898.616q.636.369.995.469.36.101.568.134.209.033.489.039.28.01.536-.013.255-.02 1.202-.317.946-.297 1.556-.662t1.13-.779.779-.664q.257-.251.453-.468.197-.218.646-.637"/>
        <path fill="none" stroke="#f3ba38" stroke-linecap="round" stroke-linejoin="round" d="M290.428 1250.92q.072.092.321.515.249.422.808 1.262.558.84 1.288 1.83t1.382 1.734q.028.013.221.138l.49.316m-262.027-18.179q.069-.409.486-2.125.416-1.716 1.271-5.142.856-3.426 1.488-5.48t.982-2.83 1.105-1.56q.108.038.505.89t.715 2.547q.319 1.695.489 2.921.17 1.227.424 3.21.255 1.982.372 2.925t.23 1.779q.112.838.267 1.733.024.105.104 1.257"/>
        <path fill="none" stroke="#f3ba38" stroke-linecap="round" stroke-linejoin="round" d="M33.913 1233.929q.407-.13 2.122-.557t4.586-1.202m332.684-12.246q.069-.409.485-2.125.417-1.716 1.272-5.142t1.487-5.48.983-2.83 1.104-1.56q.109.038.506.89t.715 2.547q.319 1.695.489 2.922.17 1.226.424 3.209.255 1.982.372 2.925t.229 1.779q.113.838.268 1.733.024.105.104 1.257"/>
        <path fill="none" stroke="#f3ba38" stroke-linecap="round" stroke-linejoin="round" d="M374.307 1215.317q.407-.129 2.122-.557t4.586-1.202m-305.659-10.017-.023.419q.005.552.037 2.317.032 1.764.113 3.778.08 2.013.259 5.593.016.233.035 1.166"/>
        <path fill="none" stroke="#f3ba38" stroke-linecap="round" stroke-linejoin="round" d="M74.278 1204.655q.28-.156.695-.365t1.19-.551 1.376-.543 1.207-.32 1.039-.121q.434 0 .772.057.338.06.692.262.355.202.563.447.209.245.287.399t.133.448-.07.858-.379 1.07q-.256.505-.652 1.025t-.698.842q-.302.324-.454.469l-.265.253q-.114.108-.747.742.039.031.265.084.227.053.592.044t.633-.022q.269-.013.898-.01.629.01 1.26.081.631.074 1.036.185.405.112.623.184.219.071.612.289.394.217.9.684.505.466.721.816.216.351.308.618.091.268.123.699.033.432-.028.729-.06.296-.15.504-.089.208-.284.52t-.533.669q-.339.357-.907.751-.567.394-1.441.778t-1.842.641-1.995.431-2.164.403q-.084.022-.856.053l-.471.056m331.916-31.254-.024.419q.006.552.038 2.317.032 1.764.113 3.777.08 2.014.259 5.594.016.233.035 1.166"/>
        <path fill="none" stroke="#f3ba38" stroke-linecap="round" stroke-linejoin="round" d="M407.105 1188.673q.28-.155.695-.364t1.19-.551 1.376-.543 1.207-.32 1.039-.121q.434 0 .772.057.338.06.692.262.355.202.563.447.209.245.287.399t.132.448-.069.858-.379 1.07-.652 1.025-.698.842-.454.469l-.265.253q-.114.108-.748.742.04.031.266.084.227.053.592.043t.633-.022q.269-.012.898 0 .629.01 1.26.08.631.075 1.036.186.405.112.623.184.219.071.612.289.394.217.9.684.505.466.721.816.216.351.308.618.091.268.123.699.032.432-.028.729-.06.296-.15.504t-.284.52-.533.669-.907.751-1.441.778q-.874.384-1.842.641-.967.258-1.995.431-1.027.173-2.164.403-.084.022-.856.053l-.471.056m-271.596 123.14-.15-.187q-.092-.126-.438-.664-.345-.539-.597-.877-.251-.339-.471-.589t-.544-.537q-.323-.287-.661-.501t-.684-.362q-.345-.146-.824-.239-.479-.094-.871-.085-.391.01-.811.11-.419.1-.912.347-.493.248-.768.454t-.612.546-.715.886q-.377.546-.569.931t-.453 1.184-.381 1.79-.052 1.859.16 1.286.337 1.055.585 1.178q.34.54.778.983.439.442.857.713.417.272.849.439.431.167.984.252t1.116.035.802-.113q.238-.062.7-.242t.829-.383.882-.578.846-.675q.333-.299.474-.431t.597-.622q.171-.169.362-.375m195.012-47-.151-.187q-.092-.126-.437-.664-.346-.539-.597-.877-.252-.339-.472-.589t-.543-.537-.662-.501-.683-.361q-.346-.147-.825-.24-.478-.094-.87-.085-.392.01-.811.11t-.912.347-.769.454q-.275.206-.611.546-.337.34-.715.886t-.569.931-.453 1.184-.381 1.79-.053 1.859q.068.868.161 1.286.092.418.337 1.055.244.637.584 1.178t.779.983.856.714q.418.271.849.438.432.167.984.252.553.085 1.117.035.563-.051.801-.113t.701-.242q.462-.18.829-.382.367-.203.881-.579t.847-.675q.332-.299.473-.431t.598-.622q.171-.169.361-.375m-206.406-83.27q.006.063-.006.564.001.17.042 1.352.042 1.181.163 2.762.122 1.58.201 2.426.079.845.155 1.635t.215 2.109.264 2.212q.126.895.183 1.19.058.296.105.457t.101.388"/>
        <path fill="none" stroke="#f3ba38" stroke-linecap="round" stroke-linejoin="round" d="M127.516 1209.805q.193-.073.33-.121.136-.047.839-.257t1.428-.357q.724-.148 1.142-.186t1.048-.014 1.079.117.686.172q.236.08.751.34.515.259.948.6t.656.578q.224.238.387.45t.552.96q.39.748.531 1.22t.204 1.073-.056 1.447-.322 1.393-.457 1.001q-.255.453-.467.744t-.389.497q-.176.206-.458.491-.281.284-.975.84-.693.556-1.753 1.245t-1.882 1.148q-.821.459-1.468.78-.648.321-.728.363l-.684.364m196.428 8.417q.006.063-.006.564.001.17.042 1.352.041 1.181.163 2.762t.2 2.426q.079.845.156 1.635.076.79.215 2.109.138 1.318.264 2.212.125.895.183 1.19.058.296.104.457.047.161.102.388"/>
        <path fill="none" stroke="#f3ba38" stroke-linecap="round" stroke-linejoin="round" d="M325.009 1234.026q.193-.072.329-.12.137-.047.84-.257.702-.21 1.427-.357.725-.148 1.143-.186t1.048-.014q.629.025 1.079.117.449.093.685.172.237.08.752.34.515.259.948.6t.656.578.386.45.553.96.531 1.22.204 1.073-.056 1.447q-.12.845-.322 1.393-.203.547-.458 1.001-.254.453-.466.744t-.389.497q-.176.206-.458.491-.282.284-.975.84t-1.754 1.245-1.881 1.148q-.822.459-1.469.78t-.727.363l-.685.364"/>
    </g>
    <g style="display:inline">
        <path fill="none" stroke="#6ac0c8" stroke-linecap="round" stroke-linejoin="round" d="m7.246 967.854 28.897.001m46.812.002 33.483.002m6.923 0 16.334.001m-20.348-59.241.137 15.74m.753 86.65.15 17.22m183.651-59.582 32.224.325m7.278.074 33.055.333m46.391.468 35.613.36m-118.945-61.475.023 16.043m.128 87.373.024 16.28"/>
        <path fill="none" stroke="#9378e3" stroke-linecap="round" stroke-linejoin="round" stroke-width="5" d="m39.651 967.474 39.79.503m40.132-39.967.696 79.474m219.564-79.254.026 80.424m40.177-39.279 39.119.333"/>
        <circle cx="119.96" cy="967.718" r="1.25" fill="#fa7fb1" stroke="#fa7fb1" stroke-width=".1"/>
        <circle cx="339.657" cy="969.054" r="1.25" fill="#fa7fb1" stroke="#fa7fb1" stroke-width=".1"/>
        <path fill="none" stroke="#f66640" stroke-linecap="round" stroke-linejoin="round" stroke-width="2.5" d="m-6.866 975.85 7.907-18.492m.088.011 4.765 19.403m-15.795-12.423 15.777 12.39m-15.671-13.072 20.64 1.891m-17.871 10.555 17.902-10.471m281.908 10.571 7.907-18.491m.088.011 4.764 19.402m-15.795-12.422 15.778 12.39m-15.671-13.073 20.64 1.891m-17.872 10.556 17.903-10.472"/>
        <path fill="none" stroke="#f3ba38" stroke-linecap="round" stroke-linejoin="round" stroke-width="2.5" d="m39.883 967.557-.029.094m39.663.62.024-.152"/>
        <circle cx="119.565" cy="928.026" r="1.25" fill="#f3ba38" stroke="#f3ba38" stroke-width=".1"/>
        <circle cx="120.467" cy="1007.444" r="1.25" fill="#f3ba38" stroke="#f3ba38" stroke-width=".1"/>
        <circle cx="339.726" cy="1008.345" r="1.25" fill="#f3ba38" stroke="#f3ba38" stroke-width=".1"/>
        <path fill="none" stroke="#f3ba38" stroke-linecap="round" stroke-linejoin="round" stroke-width="2.5" d="M418.877 969.521q.049-.016.023.072"/>
        <circle cx="339.766" cy="928.197" r="1.25" fill="#f3ba38" stroke="#f3ba38" stroke-width=".1"/>
        <circle cx="379.988" cy="969.341" r="1.25" fill="#f3ba38" stroke="#f3ba38" stroke-width=".1"/>
        <path fill="none" stroke="#f3ba38" stroke-linecap="round" stroke-linejoin="round" d="M-15.285 953.678q.189-.178.442-.386.319-.272 1.289-1.321.971-1.049 1.744-2.156t1.209-1.966.822-2.029q.387-1.17.578-2.884t.104-2.609-.194-1.357q-.106-.463-.387-1.155-.28-.693-.629-1.195-.348-.501-.622-.768-.274-.266-.513-.437t-.838-.415q-.599-.245-1.253-.329-.655-.084-1.081-.056-.427.028-.76.083-.332.054-1.566.504t-2.233 1.116-1.451 1.067q-.45.401-1.018 1.044-.567.643-1.08 1.41t-1.033 1.898q-.52 1.133-.902 2.831-.381 1.697-.372 3.172t.141 2.21.342 1.381q.21.647.493 1.209.283.561.456.822.174.262.4.528.225.267.487.513t.899.616q.636.369.995.469.36.101.568.134.209.033.489.039.28.007.536-.013.255-.02 1.201-.317t1.557-.662 1.13-.779q.521-.413.779-.664.257-.251.453-.468t.646-.637"/>
        <path fill="none" stroke="#f3ba38" stroke-linecap="round" stroke-linejoin="round" d="M-16.25 949.212q.071.092.321.515.249.422.807 1.262.559.84 1.289 1.83t1.382 1.734q.028.013.221.139l.489.315m298.874-2.748q.19-.179.443-.386.319-.273 1.289-1.322.971-1.048 1.744-2.156.773-1.107 1.208-1.966.436-.858.823-2.029t.578-2.884q.191-1.714.104-2.608t-.194-1.358q-.107-.463-.387-1.155-.281-.692-.629-1.194-.349-.502-.623-.769-.273-.266-.512-.437t-.838-.415-1.254-.328-1.081-.057-.759.083q-.333.054-1.566.504-1.233.451-2.233 1.116-1 .666-1.451 1.067-.45.401-1.018 1.045t-1.08 1.409-1.033 1.898q-.52 1.133-.902 2.831t-.372 3.173.141 2.209.341 1.381q.211.647.494 1.209.282.562.456.823t.4.528q.225.266.487.512t.898.616.996.47.568.133.489.04.535-.014q.256-.02 1.202-.317.947-.297 1.556-.662t1.131-.779.778-.664q.258-.251.454-.468t.645-.637"/>
        <path fill="none" stroke="#f3ba38" stroke-linecap="round" stroke-linejoin="round" d="M286.169 947.792q.071.092.321.515.249.422.807 1.262t1.289 1.83 1.382 1.734q.028.013.221.139l.489.315m-214.322-7.045-.023.419q.005.552.037 2.316.032 1.765.113 3.778.08 2.014.259 5.593.016.234.035 1.167"/>
        <path fill="none" stroke="#f3ba38" stroke-linecap="round" stroke-linejoin="round" d="M75.278 947.655q.28-.155.695-.364t1.19-.551 1.376-.543 1.207-.32 1.039-.121q.434-.003.772.057t.692.262q.355.202.563.447.209.245.287.399.078.153.133.448.054.294-.07.858t-.379 1.07q-.256.505-.652 1.024-.396.52-.698.843t-.454.468l-.265.254q-.114.108-.747.742.039.031.265.084.227.053.592.043.365-.009.633-.022.269-.012.898-.006.629.007 1.26.081.631.075 1.036.186.405.112.623.183.219.072.612.29.394.217.9.684.505.466.721.816.216.351.308.618.091.268.123.699.033.432-.028.728-.06.297-.15.505-.089.208-.284.52t-.533.669q-.339.357-.907.751-.567.393-1.441.778-.874.384-1.842.641-.967.258-1.995.431-1.027.173-2.164.403-.084.022-.856.053l-.471.056m-42.222-1.115q.069-.41.486-2.125.416-1.716 1.272-5.142.855-3.426 1.487-5.48t.982-2.83q.351-.776 1.105-1.561.108.039.505.891t.716 2.547.488 2.921.425 3.209q.254 1.983.371 2.925.117.943.23 1.78t.267 1.733q.024.104.104 1.257"/>
        <path fill="none" stroke="#f3ba38" stroke-linecap="round" stroke-linejoin="round" d="M36.047 956.097q.407-.13 2.122-.557t4.586-1.202m333.348 8.846q.069-.41.485-2.125.417-1.716 1.272-5.142.856-3.426 1.488-5.48t.982-2.83 1.105-1.561q.108.039.505.891t.715 2.547q.319 1.695.489 2.921.17 1.227.424 3.209.255 1.983.372 2.925.117.943.23 1.78.112.837.267 1.733.024.104.104 1.257"/>
        <path fill="none" stroke="#f3ba38" stroke-linecap="round" stroke-linejoin="round" d="M377.105 958.577q.407-.13 2.122-.557t4.586-1.202m32.344-8.538-.024.419q.005.552.038 2.317.032 1.765.113 3.778.08 2.013.259 5.593.016.234.035 1.166"/>
        <path fill="none" stroke="#f3ba38" stroke-linecap="round" stroke-linejoin="round" d="M415.079 949.394q.28-.155.695-.364.415-.21 1.19-.552t1.375-.543 1.207-.32 1.04-.121.772.058q.337.059.692.261.354.203.563.447.209.245.287.399t.132.448-.069.859q-.124.564-.38 1.069-.255.506-.651 1.025-.397.519-.699.843t-.453.468l-.265.253q-.114.108-.748.742.04.031.266.084.227.053.591.044.365-.009.634-.022t.898-.006q.628.007 1.26.081.631.074 1.036.186.405.111.623.183t.612.289.899.684.722.817.307.618q.092.267.124.699t-.028.728-.15.505-.284.52-.533.669q-.339.356-.907.75t-1.441.778q-.874.384-1.842.642-.968.257-1.995.431-1.028.173-2.164.402-.085.022-.856.053l-.471.056m-279.402 42.105-.151-.187q-.092-.126-.437-.664-.346-.539-.598-.877-.251-.338-.471-.589t-.544-.537q-.323-.287-.661-.501t-.684-.362q-.345-.146-.824-.239-.479-.094-.87-.085-.392.01-.811.11t-.913.347q-.493.248-.768.454t-.612.546-.714.886-.57.931q-.191.385-.452 1.184-.262.799-.382 1.79t-.052 1.859.16 1.286q.093.418.337 1.055t.585 1.178q.34.54.778.983.439.442.857.714t.849.438q.431.167.984.252t1.116.035.802-.113q.238-.062.7-.242t.83-.382q.367-.203.881-.579t.847-.675q.332-.299.473-.431t.597-.622q.171-.169.362-.375m219.092-6.62-.15-.188q-.092-.125-.438-.664-.345-.538-.597-.877t-.471-.588-.544-.537-.662-.502q-.338-.215-.683-.361t-.824-.24q-.479-.093-.871-.084-.391.01-.811.109-.419.1-.912.348t-.768.453-.612.546-.715.886q-.378.546-.569.931-.192.385-.453 1.184t-.381 1.79-.052 1.86.16 1.286.337 1.054.584 1.178.779.983.857.714q.417.271.849.438.431.167.984.253t1.116.034q.563-.05.802-.112.238-.063.7-.243.462-.179.829-.382.368-.202.882-.579t.846-.675q.333-.299.473-.431.141-.132.598-.621.171-.17.361-.375m-230.852-92.733q.006.064-.006.564.001.17.042 1.352t.163 2.762q.122 1.581.201 2.426.078.846.155 1.636.076.79.215 2.108.138 1.318.264 2.213.126.894.183 1.19.058.295.104.456.047.162.102.388"/>
        <path fill="none" stroke="#f3ba38" stroke-linecap="round" stroke-linejoin="round" d="M127.317 920.402q.193-.072.329-.12.137-.048.84-.258.702-.21 1.427-.357t1.143-.186q.418-.038 1.048-.013.629.025 1.079.117t.685.172q.237.08.752.339.515.26.948.6.432.341.656.579t.386.45q.163.212.553.96.39.747.531 1.219t.204 1.074-.056 1.446q-.12.846-.322 1.393-.203.548-.458 1.001-.254.454-.466.744-.213.291-.389.497t-.458.491-.975.841-1.754 1.244-1.881 1.148q-.822.46-1.469.78-.647.321-.727.363l-.685.365M347.229 919.5q.006.064-.006.564.001.17.043 1.352.041 1.181.162 2.762.122 1.581.201 2.426t.155 1.635q.077.79.215 2.109.139 1.318.264 2.212.126.895.184 1.19.057.296.104.457t.101.388"/>
        <path fill="none" stroke="#f3ba38" stroke-linecap="round" stroke-linejoin="round" d="M347.353 920.417q.192-.073.329-.12.137-.048.839-.258.703-.21 1.428-.357.724-.147 1.142-.186t1.048-.014 1.079.118q.449.092.686.172.236.08.752.339.515.259.947.6.433.341.656.578.224.238.387.45t.552.96.531 1.22.204 1.073-.056 1.447q-.119.845-.322 1.393t-.457 1.001-.467.744-.388.497q-.177.206-.458.491-.282.284-.976.84-.693.556-1.753 1.245t-1.882 1.148-1.468.78-.727.363l-.685.364"/>
    </g>
    <g style="display:inline">
        <path fill="none" stroke="#6ac0c8" stroke-linecap="round" stroke-linejoin="round" d="m-596.654 968.314 31.628.146m47.281.219 33.335.172m48.303.641 16.4.076m123.703-1.8 31.628.146m47.281.218 33.335.172m48.303.641 16.401.076"/>
        <path fill="none" stroke="#9378e3" stroke-linecap="round" stroke-linejoin="round" stroke-width="5" d="m-561.13 968.389 39.606.06m41.104.368 40.723.15m179.217-1.125 39.606.06m41.104.368 40.723.151"/>
        <path fill="none" stroke="#f66640" stroke-linecap="round" stroke-linejoin="round" stroke-width="2.5" d="m-607.09 976.259 7.907-18.492m.089.011 4.764 19.403m-15.795-12.423 15.778 12.39m-15.672-13.073 20.64 1.891m-17.871 10.556 17.903-10.471"/>
        <circle cx="-560.427" cy="968.268" r="1.25" fill="#f3ba38" stroke="#f3ba38" stroke-width=".1"/>
        <circle cx="-521.557" cy="968.433" r="1.25" fill="#f3ba38" stroke="#f3ba38" stroke-width=".1"/>
        <path fill="none" stroke="#f3ba38" stroke-linecap="round" stroke-linejoin="round" stroke-width="2.5" d="m-480.14 968.984-.013-.049"/>
        <circle cx="-440.009" cy="969.156" r="1.25" fill="#f3ba38" stroke="#f3ba38" stroke-width=".1"/>
        <path fill="none" stroke="#f3ba38" stroke-linecap="round" stroke-linejoin="round" d="M-616.239 952.06q.19-.179.443-.387.319-.272 1.289-1.321.971-1.048 1.744-2.156.773-1.107 1.208-1.966.436-.859.823-2.029t.578-2.884.104-2.609-.194-1.357-.387-1.155-.629-1.194q-.348-.502-.622-.769-.274-.266-.513-.437t-.838-.415q-.599-.245-1.253-.329-.655-.084-1.082-.056-.426.028-.759.082-.332.055-1.566.505t-2.233 1.116q-1 .666-1.451 1.067-.45.401-1.018 1.044-.567.643-1.08 1.41t-1.033 1.898q-.52 1.133-.902 2.831-.381 1.697-.372 3.173t.141 2.209q.131.734.342 1.381.21.647.493 1.209.283.561.456.823t.4.527q.225.267.487.513t.898.616.996.47.568.133.489.039.535-.013q.256-.02 1.202-.317.947-.297 1.557-.662.609-.366 1.13-.779t.778-.664.454-.468.645-.637"/>
        <path fill="none" stroke="#f3ba38" stroke-linecap="round" stroke-linejoin="round" d="M-617.203 947.593q.071.092.321.515.249.422.807 1.262t1.289 1.83 1.382 1.734q.028.013.221.139l.489.315m43.796 8.892q.069-.409.486-2.125.416-1.716 1.272-5.142.855-3.426 1.487-5.48.632-2.053.982-2.83.351-.776 1.105-1.56.108.038.505.89t.716 2.547.488 2.922.425 3.209q.254 1.983.371 2.925t.23 1.78.267 1.733q.024.104.104 1.257"/>
        <path fill="none" stroke="#f3ba38" stroke-linecap="round" stroke-linejoin="round" d="M-567.896 957.673q.407-.129 2.122-.557 1.715-.427 4.586-1.201m86.556-5.745-.151-.187q-.092-.126-.437-.664-.346-.539-.597-.877-.252-.339-.472-.589t-.543-.537-.662-.501q-.338-.215-.684-.362-.345-.146-.824-.24-.479-.093-.87-.084-.392.009-.811.11-.42.1-.913.347-.493.248-.768.454t-.612.546q-.336.34-.714.886-.378.545-.569.93-.192.386-.453 1.185t-.381 1.79-.053 1.859.16 1.286.337 1.055q.245.637.585 1.178t.779.983.856.713q.418.272.849.439t.984.252 1.117.035q.563-.051.801-.113t.701-.242q.461-.18.829-.383.367-.202.881-.578.514-.377.847-.675t.473-.431q.141-.132.598-.622.17-.169.361-.375m30.591-10.096q.006.063-.006.564.001.17.043 1.352.041 1.181.162 2.762.122 1.58.201 2.426.079.845.155 1.635t.215 2.108.264 2.213.184 1.19q.057.296.104.457t.101.388"/>
        <path fill="none" stroke="#f3ba38" stroke-linecap="round" stroke-linejoin="round" d="M-443.273 947.578q.192-.072.329-.12.136-.047.839-.257t1.428-.357q.724-.148 1.142-.186t1.048-.014 1.079.117.686.172.751.34q.516.259.948.6.433.34.656.578t.387.45.552.96q.39.748.531 1.22t.204 1.073-.056 1.447-.322 1.393-.457 1.001q-.255.453-.467.744t-.389.497q-.176.206-.457.491-.282.284-.976.84-.693.556-1.753 1.245-1.06.688-1.882 1.148t-1.468.78q-.647.321-.727.363l-.685.364m-83.179-15.969-.024.419q.005.552.038 2.317.032 1.765.113 3.778.08 2.013.259 5.593.016.233.035 1.166"/>
        <path fill="none" stroke="#f3ba38" stroke-linecap="round" stroke-linejoin="round" d="M-526.589 947.612q.28-.155.695-.364.415-.21 1.19-.552t1.376-.543 1.206-.32 1.04-.121.772.058.692.261q.354.203.563.447.209.245.287.399t.132.448q.055.295-.069.859-.124.563-.38 1.069-.255.505-.651 1.025-.397.519-.699.843t-.453.468l-.265.253q-.114.108-.748.742.04.031.266.084.227.053.592.044.364-.01.633-.022.269-.013.898-.006t1.26.081 1.036.186q.405.111.623.183.219.072.612.289.394.218.899.684.506.466.722.817t.307.618.124.699-.028.728q-.06.296-.15.504t-.284.521-.533.668q-.339.357-.907.751-.567.394-1.441.778t-1.842.642q-.968.257-1.995.43-1.027.174-2.164.403-.085.022-.856.053l-.471.056"/>
        <path fill="none" stroke="#f66640" stroke-linecap="round" stroke-linejoin="round" stroke-width="2.5" d="m-306.44 975.712 7.908-18.492m.088.012 4.764 19.402m-15.795-12.422 15.778 12.389m-15.671-13.072 20.64 1.891m-17.872 10.555 17.903-10.471"/>
        <circle cx="-259.777" cy="967.722" r="1.25" fill="#f3ba38" stroke="#f3ba38" stroke-width=".1"/>
        <circle cx="-220.907" cy="967.887" r="1.25" fill="#f3ba38" stroke="#f3ba38" stroke-width=".1"/>
        <path fill="none" stroke="#f3ba38" stroke-linecap="round" stroke-linejoin="round" stroke-width="2.5" d="m-179.489 968.438-.014-.049"/>
        <circle cx="-139.359" cy="968.609" r="1.25" fill="#f3ba38" stroke="#f3ba38" stroke-width=".1"/>
        <path fill="none" stroke="#f3ba38" stroke-linecap="round" stroke-linejoin="round" d="M-315.588 951.513q.189-.179.443-.386.318-.273 1.289-1.321t1.743-2.156q.773-1.108 1.209-1.967.435-.858.822-2.029.388-1.17.579-2.884t.103-2.608q-.087-.895-.194-1.358-.106-.463-.387-1.155-.28-.692-.629-1.194-.348-.502-.622-.768-.274-.267-.513-.437-.238-.171-.838-.415-.599-.245-1.253-.329-.655-.084-1.081-.056-.427.027-.76.082-.332.054-1.566.505-1.233.45-2.233 1.115-1 .666-1.45 1.067-.451.402-1.019 1.045t-1.08 1.409-1.033 1.899q-.52 1.132-.901 2.83-.382 1.698-.372 3.173.009 1.475.14 2.209.132.734.342 1.381t.493 1.209.457.823.399.528.488.513.898.615.995.47.568.133.489.04q.28.006.536-.013.255-.02 1.202-.317.946-.297 1.556-.663.61-.365 1.13-.779.521-.413.779-.664.257-.251.453-.468.197-.217.646-.637"/>
        <path fill="none" stroke="#f3ba38" stroke-linecap="round" stroke-linejoin="round" d="M-316.553 947.047q.072.091.321.514t.808 1.263 1.288 1.829q.73.99 1.382 1.735.028.013.221.138l.49.315m128.077 10.178q.069-.409.486-2.125.416-1.716 1.272-5.142.855-3.426 1.487-5.48t.982-2.83q.351-.776 1.105-1.56.108.038.505.89t.716 2.547q.318 1.695.488 2.921.17 1.227.425 3.21.254 1.982.371 2.925t.23 1.779q.113.838.267 1.733.024.105.105 1.257"/>
        <path fill="none" stroke="#f3ba38" stroke-linecap="round" stroke-linejoin="round" d="M-182.964 958.412q.407-.13 2.122-.557t4.586-1.202m-79.026-6.008-.15-.188q-.092-.125-.438-.663-.345-.539-.597-.877-.252-.339-.471-.589-.22-.25-.544-.537t-.662-.502-.683-.361q-.346-.146-.824-.24-.479-.093-.871-.084-.391.009-.811.11-.419.1-.912.347-.493.248-.768.454-.275.205-.612.546-.337.34-.715.886-.377.545-.569.93t-.453 1.185-.381 1.79-.052 1.859.16 1.286.337 1.055q.244.637.584 1.177.34.541.779.984t.857.713q.417.272.849.439.431.167.984.252t1.116.035q.564-.051.802-.113t.7-.242.829-.383q.368-.202.882-.578.514-.377.846-.676.333-.298.473-.43.141-.132.598-.622.171-.17.361-.375m31.09-10.45q.006.064-.006.564.001.17.042 1.352.041 1.181.163 2.762t.201 2.426.155 1.635.215 2.109q.139 1.318.264 2.213.126.894.183 1.189.058.296.105.457t.101.388"/>
        <path fill="none" stroke="#f3ba38" stroke-linecap="round" stroke-linejoin="round" d="M-223.425 947.7q.193-.073.33-.12.136-.048.839-.258t1.427-.357q.725-.147 1.143-.186t1.048-.014 1.079.118q.449.092.686.172.236.08.751.339t.948.6q.432.341.656.578.224.238.387.45.162.213.552.96.39.748.531 1.22t.204 1.074-.056 1.446-.322 1.393-.457 1.001q-.255.453-.467.744t-.389.497q-.176.206-.458.491-.281.285-.975.84-.693.556-1.753 1.245t-1.882 1.148-1.469.78-.727.363l-.685.364m81.254-16.227-.024.419q.005.552.038 2.317.032 1.765.113 3.778.08 2.013.259 5.593.016.233.035 1.166"/>
        <path fill="none" stroke="#f3ba38" stroke-linecap="round" stroke-linejoin="round" d="M-142.308 947.475q.28-.155.695-.364.415-.21 1.19-.552t1.376-.543 1.206-.32q.606-.118 1.04-.121.434-.002.772.058.338.059.692.261.354.203.563.447.209.245.287.399t.132.448q.055.295-.069.859t-.38 1.069q-.255.506-.651 1.025-.397.519-.699.843t-.453.468l-.265.253q-.114.108-.748.742.04.031.266.084.227.053.592.044.364-.009.633-.022t.898-.006 1.26.081 1.036.186q.405.111.623.183.219.072.612.289.394.218.899.684.506.467.722.817t.307.618q.092.267.124.699t-.028.728-.15.504-.284.521-.533.668q-.339.357-.907.751-.567.394-1.441.778t-1.842.642q-.968.257-1.995.43-1.027.174-2.164.403-.085.022-.856.053l-.471.056"/>
    </g>
    <g style="display:inline">
        <path fill="none" stroke="#6ac0c8" stroke-linecap="round" stroke-linejoin="round" d="m601.746 1340.019 19.151-28.912m31.371-47.482 19.123-28.777m4.728-7.102 25.039-37.799m-59.568-22.583 17.929 36.122m53.214 107.209 9.251 18.638m318.758 10.141-17.88-27.115m-31.458-48.084-19.37-28.995m-4.681-7.099-27.058-41.032m61.522-17.787-17.971 35.048m-54.6 106.485-10.275 20.039"/>
        <path fill="none" stroke="#f3ba38" stroke-linecap="round" stroke-linejoin="round" d="m606.571 1267.997 38.303.172m8.609.038 34.521.155m8.203.036 45.483.204m164.625-.228 40.946-.134m7.917-.026 34.558-.112m8.513-.028 42.245-.138"/>
        <path fill="none" stroke="#9378e3" stroke-linecap="round" stroke-linejoin="round" stroke-width="5" d="m622.792 1308.106 27.198-40.972m11.707-60.646 49.536 100.822m220.016.502 50.774-100.24m11.46 60.266 27.224 41.521"/>
        <path fill="none" stroke="#f66640" stroke-linecap="round" stroke-linejoin="round" stroke-width="2.5" d="m593.527 1275.856 7.88-18.503m.287.096 4.764 19.403m-15.795-12.422 15.778 12.389m-15.671-13.072 20.64 1.891m-17.872 10.555 17.903-10.471m281.934 10.32 7.907-18.491m.088.011 4.764 19.402m-15.795-12.422 15.778 12.39m-15.671-13.073 20.64 1.891m-17.872 10.556 17.903-10.472"/>
        <path fill="none" stroke="#f3ba38" stroke-linecap="round" stroke-linejoin="round" stroke-width="2.5" d="m661.878 1206.739.041-.053"/>
        <circle cx="649.352" cy="1267.837" r="1.25" fill="#f3ba38" stroke="#f3ba38" stroke-width=".1"/>
        <path fill="none" stroke="#f3ba38" stroke-linecap="round" stroke-linejoin="round" stroke-width="2.5" d="m623.095 1307.709.053-.192"/>
        <circle cx="981.911" cy="1207.656" r="1.25" fill="#f3ba38" stroke="#f3ba38" stroke-width=".1"/>
        <circle cx="993.747" cy="1267.904" r="1.25" fill="#f3ba38" stroke="#f3ba38" stroke-width=".1"/>
        <circle cx="931.559" cy="1307.375" r="1.25" fill="#f3ba38" stroke="#f3ba38" stroke-width=".1"/>
        <circle cx="1020.534" cy="1309.16" r="1.25" fill="#f3ba38" stroke="#f3ba38" stroke-width=".1"/>
        <circle cx="711.199" cy="1307.282" r="1.25" fill="#f3ba38" stroke="#f3ba38" stroke-width=".1"/>
        <path fill="none" stroke="#f3ba38" stroke-linecap="round" stroke-linejoin="round" d="M588.34 1253.917q.19-.179.443-.386.319-.272 1.289-1.321.971-1.049 1.744-2.156t1.208-1.966q.436-.859.823-2.03t.578-2.884.104-2.608-.194-1.358-.387-1.155-.629-1.194q-.348-.502-.622-.768-.274-.267-.513-.437-.239-.171-.838-.415-.599-.245-1.253-.329-.655-.084-1.082-.056-.426.027-.759.082-.332.054-1.566.505-1.233.45-2.233 1.115-1 .666-1.451 1.067-.45.402-1.018 1.045t-1.08 1.409-1.033 1.899-.902 2.83-.372 3.173.141 2.209.342 1.381.493 1.209.456.823.4.528q.225.267.487.513t.898.615.996.47.568.133.489.04q.28.01.535-.013.256-.02 1.202-.317.947-.297 1.557-.663.609-.365 1.13-.779.521-.413.778-.664.258-.251.454-.468t.645-.637"/>
        <path fill="none" stroke="#f3ba38" stroke-linecap="round" stroke-linejoin="round" d="M587.376 1249.451q.071.091.321.514.249.423.807 1.263t1.289 1.829 1.382 1.735q.028.013.221.138l.489.315m295.097-2.947q.189-.178.443-.386.318-.272 1.289-1.321t1.743-2.156 1.209-1.966q.435-.859.822-2.029.388-1.17.579-2.885t.103-2.608-.194-1.357-.387-1.156-.629-1.194-.622-.768-.513-.437q-.238-.17-.838-.415-.599-.245-1.253-.329-.655-.084-1.081-.056-.427.028-.76.082-.332.055-1.566.505t-2.233 1.116q-1 .665-1.45 1.067-.451.401-1.019 1.044t-1.08 1.409-1.033 1.899-.901 2.83q-.382 1.698-.372 3.173.009 1.476.141 2.21.131.733.341 1.381.21.647.493 1.209.283.561.457.822.173.261.399.528t.488.513.898.615.996.47.567.133q.209.034.489.04.28.01.536-.013.255-.02 1.202-.317.946-.297 1.556-.662t1.13-.779.779-.665q.257-.251.454-.468.196-.217.645-.637"/>
        <path fill="none" stroke="#f3ba38" stroke-linecap="round" stroke-linejoin="round" d="M886.017 1247.832q.072.092.321.514t.808 1.263q.558.84 1.288 1.83t1.383 1.734q.027.013.22.138l.49.316m-286.286 61.888q.069-.409.486-2.125.416-1.716 1.271-5.142.856-3.426 1.488-5.48.632-2.053.982-2.83.351-.776 1.105-1.56.108.038.505.89t.715 2.547.489 2.922q.17 1.226.424 3.209.255 1.983.372 2.925t.23 1.78q.112.837.267 1.733.024.104.104 1.257"/>
        <path fill="none" stroke="#f3ba38" stroke-linecap="round" stroke-linejoin="round" d="M605.243 1310.908q.407-.129 2.122-.557 1.714-.427 4.586-1.201m416.198 1.655q.069-.41.485-2.126.417-1.715 1.272-5.141t1.487-5.48.983-2.83 1.104-1.561q.109.039.506.891.396.852.715 2.547t.488 2.921.425 3.209q.254 1.983.371 2.925.117.943.23 1.78t.268 1.733q.023.104.104 1.257"/>
        <path fill="none" stroke="#f3ba38" stroke-linecap="round" stroke-linejoin="round" d="M1029.151 1306.198q.407-.13 2.121-.557 1.715-.428 4.586-1.202m-397.656-58.597-.024.419q.005.552.038 2.317.032 1.765.112 3.778.081 2.014.259 5.593.017.234.036 1.166"/>
        <path fill="none" stroke="#f3ba38" stroke-linecap="round" stroke-linejoin="round" d="M637.124 1246.956q.28-.155.694-.364.415-.209 1.19-.551t1.376-.544q.601-.2 1.207-.319t1.04-.121q.434 0 .772.057.337.059.692.262.354.202.563.447t.287.398q.077.154.132.449.055.294-.069.858-.125.564-.38 1.069-.255.506-.652 1.025-.396.52-.698.843t-.453.468l-.265.254q-.114.107-.748.741.04.031.266.084t.591.044.634-.022.897-.01q.629.01 1.261.081.631.075 1.036.186.405.112.623.183.218.072.612.29t.899.683q.506.467.722.817t.307.618.124.699-.028.728-.15.505q-.09.208-.284.52-.195.312-.534.669t-.906.75q-.568.394-1.441.779-.874.384-1.842.641t-1.995.431-2.165.403q-.084.021-.855.052l-.472.057m359.509-14.977-.024.419q.005.552.037 2.317.033 1.765.113 3.778.081 2.013.259 5.593.017.234.035 1.166"/>
        <path fill="none" stroke="#f3ba38" stroke-linecap="round" stroke-linejoin="round" d="M997.542 1247.253q.28-.155.695-.364t1.19-.552 1.376-.543 1.207-.319 1.04-.122q.433 0 .771.058t.692.262q.355.202.564.447.208.244.286.398t.133.449q.054.294-.07.858t-.379 1.069-.652 1.025q-.396.52-.698.843t-.453.468l-.266.253q-.114.108-.747.742.039.031.266.084.226.053.591.044t.633-.022.898-.01q.629.01 1.26.081.631.074 1.036.186t.624.183q.218.072.612.289.393.218.899.684.505.467.721.817.217.35.308.618.091.267.123.699.033.432-.028.728-.06.297-.15.505-.089.208-.284.52t-.533.669q-.339.356-.907.75-.567.394-1.441.778-.874.385-1.841.642-.968.257-1.996.431-1.027.173-2.164.402-.084.022-.856.053l-.471.056"/>
        <circle cx="951.629" cy="1268.1" r="1.25" fill="#fa7fb1" stroke="#fa7fb1" stroke-width=".1"/>
        <circle cx="692.011" cy="1268.758" r="1.25" fill="#fa7fb1" stroke="#fa7fb1" stroke-width=".1"/>
        <path fill="none" stroke="#f3ba38" stroke-linecap="round" stroke-linejoin="round" d="m730.833 1305.479-.151-.188q-.091-.125-.437-.664-.345-.538-.597-.877t-.471-.588-.544-.537-.662-.502-.683-.361-.824-.24q-.479-.094-.871-.084-.391.01-.811.109-.419.1-.912.348t-.768.453-.612.546q-.337.34-.715.886t-.569.931q-.192.385-.453 1.184t-.381 1.79-.052 1.86.16 1.285q.092.418.337 1.055.244.637.584 1.178t.779.983q.439.443.857.714.417.271.848.438.432.167.985.252.552.086 1.116.035.563-.05.802-.112.238-.063.7-.243t.829-.382q.368-.202.882-.579t.846-.675.473-.431.598-.622q.171-.169.361-.374m190.729-9.142-.151-.188q-.092-.125-.437-.663-.346-.539-.597-.877-.252-.339-.472-.589t-.543-.537-.662-.501q-.338-.215-.684-.362-.345-.146-.824-.24-.479-.093-.87-.084-.392.01-.811.11t-.913.347-.768.454q-.275.205-.612.546-.336.34-.714.886-.378.545-.57.93t-.452 1.185-.381 1.79-.053 1.859.16 1.286.337 1.055.585 1.177q.34.541.779.984.438.442.856.713.418.272.849.439t.984.252 1.116.035q.564-.051.802-.113t.7-.242.83-.383q.367-.202.881-.578.514-.377.847-.676.332-.298.473-.43t.598-.622q.17-.169.361-.375m-253.291-117.281q.006.063-.005.564.001.17.042 1.351t.163 2.763q.121 1.58.2 2.426.079.845.155 1.635.077.79.215 2.108.139 1.319.265 2.213.125.895.183 1.19t.104.457.102.388"/>
        <path fill="none" stroke="#f3ba38" stroke-linecap="round" stroke-linejoin="round" d="M669.683 1193.148q.192-.072.329-.12.137-.047.839-.257.703-.21 1.428-.358.724-.147 1.143-.185.418-.039 1.047-.014.63.025 1.079.117t.686.172.752.34.947.6.656.578.387.45.552.96q.39.748.531 1.22t.204 1.073-.056 1.447-.322 1.393-.457 1.001-.467.744-.388.497q-.177.206-.458.49t-.976.841q-.693.556-1.753 1.245-1.06.688-1.882 1.148t-1.468.78q-.647.321-.727.363l-.685.364m295.07-17.871q.006.064-.005.564.001.17.042 1.352.041 1.181.163 2.762t.2 2.426.155 1.635.215 2.109.265 2.213q.125.894.183 1.189t.104.457.102.388"/>
        <path fill="none" stroke="#f3ba38" stroke-linecap="round" stroke-linejoin="round" d="M965.818 1191.083q.192-.073.329-.12.137-.048.839-.258.703-.21 1.428-.357t1.143-.186 1.047-.014 1.079.118.686.172.752.339.947.6q.433.341.657.578.223.238.386.451.163.212.553.959.389.748.53 1.22t.204 1.073-.056 1.447-.322 1.393-.457 1.001-.467.744-.388.497q-.177.206-.458.491t-.975.84q-.694.556-1.754 1.245t-1.881 1.148q-.822.459-1.469.78t-.727.363l-.685.364"/>
    </g>
    <g style="display:inline">
        <path fill="none" stroke="#6ac0c8" stroke-linecap="round" stroke-linejoin="round" d="m599.315 1646.557 18.524-36.529m23.831-46.87 38.021-75.096m-20.309-.245 18.451 36.256m44.88 88.185 17.829 35.033"/>
        <path fill="none" stroke="#f3ba38" stroke-linecap="round" stroke-linejoin="round" d="m606.777 1567.523 28.23.033m8.219.01 52.972.062m7.804.009 36.955.043"/>
        <path fill="none" stroke="#6ac0c8" stroke-linecap="round" stroke-linejoin="round" d="m898.735 1646.121 18.525-36.529m43.96-87.351 17.892-34.615m-20.309-.245 38.459 75.848m24.872 48.594 17.829 35.032"/>
        <path fill="none" stroke="#f3ba38" stroke-linecap="round" stroke-linejoin="round" d="m906.198 1567.087 28.23.033m8.219.01 52.972.062m7.804.009 36.955.044"/>
        <path fill="none" stroke="#9378e3" stroke-linecap="round" stroke-linejoin="round" stroke-width="5" d="m639.46 1567.27-19.912 39.577m59.841-79.578 41.856 81.624m237.839-82.461-40.115 79.979m80.193-39.559 21.503 41.605"/>
        <path fill="none" stroke="#f66640" stroke-linecap="round" stroke-linejoin="round" stroke-width="2.5" d="m593.337 1575.793 7.908-18.491m.088.011 4.764 19.402m-15.795-12.422 15.778 12.389m-15.671-13.072 20.64 1.891m-17.872 10.556 17.903-10.472"/>
        <circle cx="679.8" cy="1527.589" r="1.25" fill="#f3ba38" stroke="#f3ba38" stroke-width=".1"/>
        <circle cx="721.202" cy="1608.684" r="1.25" fill="#f3ba38" stroke="#f3ba38" stroke-width=".1"/>
        <path fill="none" stroke="#f3ba38" stroke-linecap="round" stroke-linejoin="round" stroke-width="2.5" d="M619.577 1606.71h-.02"/>
        <circle cx="639.269" cy="1567.563" r="1.25" fill="#f3ba38" stroke="#f3ba38" stroke-width=".1"/>
        <path fill="none" stroke="#f3ba38" stroke-linecap="round" stroke-linejoin="round" d="M589.629 1553.819q.189-.179.442-.386.319-.273 1.289-1.322.971-1.048 1.744-2.156.773-1.107 1.209-1.966.435-.859.822-2.029.388-1.17.579-2.884t.103-2.608-.194-1.358-.387-1.155-.629-1.194-.622-.769-.513-.437-.838-.415-1.253-.328-1.081-.057q-.427.028-.76.083-.332.054-1.566.504-1.233.451-2.233 1.116-1 .666-1.45 1.067-.451.401-1.019 1.045t-1.08 1.409-1.033 1.898-.901 2.831q-.382 1.697-.373 3.173t.141 2.209.342 1.381q.21.647.493 1.209t.457.823.399.528.488.512q.261.246.898.616.636.369.995.47.36.1.568.133.209.033.489.04.28.01.536-.014.255-.02 1.202-.317.946-.297 1.556-.662t1.13-.779.779-.664q.257-.251.453-.468.197-.217.646-.637"/>
        <path fill="none" stroke="#f3ba38" stroke-linecap="round" stroke-linejoin="round" d="M588.664 1549.353q.071.091.321.514.249.423.807 1.262.559.84 1.289 1.83t1.382 1.734q.028.013.221.139l.489.315m7.649 57.574q.069-.409.485-2.125.417-1.716 1.272-5.142.856-3.426 1.488-5.48.631-2.053.982-2.829t1.105-1.561q.108.038.505.89t.715 2.547.489 2.922q.17 1.226.424 3.209.255 1.983.372 2.925t.229 1.78.268 1.733q.024.104.104 1.257"/>
        <path fill="none" stroke="#f3ba38" stroke-linecap="round" stroke-linejoin="round" d="M601.824 1608.114q.407-.129 2.122-.557 1.714-.427 4.586-1.201"/>
        <path fill="none" stroke="#f66640" stroke-linecap="round" stroke-linejoin="round" stroke-width="2.5" d="m892.758 1575.357 7.908-18.491m.088.011 4.764 19.402m-15.795-12.422 15.778 12.389m-15.671-13.072 20.64 1.891m-17.872 10.556 17.903-10.471"/>
        <circle cx="999.266" cy="1567.323" r="1.25" fill="#f3ba38" stroke="#f3ba38" stroke-width=".1"/>
        <circle cx="1020.623" cy="1608.248" r="1.25" fill="#f3ba38" stroke="#f3ba38" stroke-width=".1"/>
        <path fill="none" stroke="#f3ba38" stroke-linecap="round" stroke-linejoin="round" stroke-width="2.5" d="M918.998 1606.274h-.02"/>
        <circle cx="959.026" cy="1526.532" r="1.25" fill="#f3ba38" stroke="#f3ba38" stroke-width=".1"/>
        <path fill="none" stroke="#f3ba38" stroke-linecap="round" stroke-linejoin="round" d="M889.05 1553.383q.189-.179.442-.386.319-.273 1.289-1.321.971-1.049 1.744-2.156t1.209-1.967q.435-.858.822-2.029.388-1.17.579-2.884t.103-2.608-.194-1.358-.387-1.155-.629-1.194-.622-.769-.513-.436q-.239-.171-.838-.416t-1.253-.328-1.081-.057q-.427.028-.76.083-.332.054-1.566.504-1.233.451-2.233 1.116-1 .666-1.451 1.067-.45.401-1.018 1.045-.567.643-1.08 1.409t-1.033 1.899-.901 2.83-.373 3.173q.01 1.475.141 2.209.132.734.342 1.381t.493 1.209.457.823.399.528.487.512.899.616q.636.37.995.47.36.1.568.133.209.033.489.04.28.01.536-.014.255-.019 1.201-.316t1.557-.663 1.13-.779q.521-.413.779-.664.257-.251.453-.468.197-.217.646-.637"/>
        <path fill="none" stroke="#f3ba38" stroke-linecap="round" stroke-linejoin="round" d="M888.085 1548.917q.071.091.321.514.249.423.807 1.262.559.84 1.289 1.83t1.382 1.734q.028.013.221.139l.489.315m137.229 57.405q.069-.409.486-2.125.416-1.716 1.271-5.142.856-3.426 1.488-5.479t.982-2.83q.351-.777 1.105-1.561.108.038.505.89t.715 2.547q.319 1.695.489 2.922.17 1.226.424 3.209.255 1.983.372 2.925t.23 1.78.267 1.733q.024.104.104 1.257"/>
        <path fill="none" stroke="#f3ba38" stroke-linecap="round" stroke-linejoin="round" d="M1030.825 1607.51q.407-.13 2.122-.558 1.714-.427 4.586-1.201m-409.717-60.83-.024.419q.005.552.037 2.317.033 1.765.113 3.778.081 2.013.259 5.593.017.233.035 1.166"/>
        <path fill="none" stroke="#f3ba38" stroke-linecap="round" stroke-linejoin="round" d="M626.737 1546.035q.28-.155.695-.365.415-.209 1.19-.551t1.376-.543 1.207-.32 1.04-.121q.434 0 .771.057.338.06.693.262t.563.447.286.399.133.448-.07.859q-.124.564-.379 1.069t-.652 1.025q-.396.519-.698.843t-.453.468l-.266.253q-.114.108-.747.742.039.031.266.084.226.053.591.044t.634-.022.897-.01q.629.01 1.26.081.632.074 1.037.186.405.111.623.183t.612.289.899.684.722.817.307.618.123.699-.027.728q-.061.296-.15.504-.09.208-.284.521-.195.312-.534.668t-.906.751-1.442.778q-.873.384-1.841.642-.968.257-1.995.43-1.028.174-2.165.403-.084.022-.856.053l-.471.056m375.586-11.9-.024.419q0 .552.037 2.317.033 1.765.113 3.778.081 2.013.259 5.593.017.233.035 1.166"/>
        <path fill="none" stroke="#f3ba38" stroke-linecap="round" stroke-linejoin="round" d="M1003.233 1549.408q.28-.155.695-.365.415-.209 1.19-.551t1.376-.543 1.207-.32 1.04-.121q.434 0 .771.057.338.06.693.262.354.203.563.447.209.245.286.399.078.154.133.448t-.07.859q-.124.564-.379 1.069t-.652 1.025q-.396.519-.698.843t-.453.468l-.266.253q-.114.108-.747.742.039.031.266.084.226.053.591.044t.634-.022.897-.01q.629.01 1.26.081.632.074 1.037.186.404.111.623.183t.612.289.899.684q.505.467.722.817t.307.618.123.699-.028.728q-.06.297-.149.505-.09.207-.284.52-.195.312-.534.668t-.906.751-1.442.778q-.873.384-1.841.642-.968.257-1.995.43-1.028.174-2.165.403-.084.022-.856.053l-.471.056"/>
        <circle cx="699.886" cy="1567.438" r="1.25" fill="#fa7fb1" stroke="#fa7fb1" stroke-width=".1"/>
        <circle cx="938.702" cy="1566.77" r="1.25" fill="#fa7fb1" stroke="#fa7fb1" stroke-width=".1"/>
        <path fill="none" stroke="#f3ba38" stroke-linecap="round" stroke-linejoin="round" d="m740.427 1598.096-.151-.187q-.092-.125-.437-.664-.346-.539-.598-.877-.251-.338-.471-.588-.22-.251-.543-.538-.324-.286-.662-.501t-.684-.361-.824-.24-.87-.085q-.392.01-.811.11t-.913.347-.768.454-.612.546-.714.886q-.378.546-.57.931t-.452 1.184q-.262.799-.382 1.79t-.052 1.859.16 1.286.337 1.055.585 1.178.778.983.857.714q.418.271.849.438t.984.252 1.116.035.802-.113q.238-.062.7-.242t.83-.382q.367-.203.881-.579t.847-.675.473-.431.597-.622q.171-.169.362-.375m171.631-5.975-.15-.188q-.092-.125-.438-.664-.345-.538-.597-.877t-.471-.588-.544-.537-.662-.502-.683-.361q-.346-.146-.824-.24-.479-.093-.871-.084-.391.01-.811.109-.419.1-.912.348t-.768.453-.612.547q-.337.34-.715.885-.377.546-.569.931t-.453 1.184-.381 1.791-.052 1.859.16 1.286q.092.417.337 1.054.244.637.585 1.178.339.541.778.983.439.443.857.714.417.271.849.438.431.167.984.253t1.116.035.802-.113.7-.242.829-.383q.368-.202.882-.579t.846-.675.473-.431.598-.621q.171-.17.362-.375m-226.275-90.272q.006.064-.006.564.001.17.042 1.352t.163 2.762.201 2.426q.078.846.155 1.636.076.789.215 2.108t.264 2.213.183 1.19.105.456q.046.162.101.388"/>
        <path fill="none" stroke="#f3ba38" stroke-linecap="round" stroke-linejoin="round" d="M687.195 1515.942q.193-.073.33-.12.136-.048.839-.258t1.427-.357q.725-.147 1.143-.186.418-.038 1.048-.013t1.079.117.686.172q.236.08.751.339t.948.6.656.578q.224.238.387.451.162.212.552.959.39.748.531 1.22.141.473.204 1.074t-.056 1.446q-.119.846-.322 1.393-.203.548-.457 1.001-.255.453-.467.744t-.389.497-.458.491-.975.84-1.753 1.245-1.882 1.148-1.469.78-.727.363l-.685.364m255.278-20.427q.006.064-.006.564.001.17.042 1.352.042 1.182.163 2.762.122 1.581.201 2.426t.155 1.636q.076.789.215 2.108t.264 2.213.183 1.19.105.456q.046.162.101.388"/>
        <path fill="none" stroke="#f3ba38" stroke-linecap="round" stroke-linejoin="round" d="M943.537 1511.32q.193-.073.33-.12.136-.048.839-.258t1.427-.357q.725-.147 1.143-.186.418-.038 1.048-.013t1.079.117.686.172q.236.08.751.339t.948.6.656.579q.224.237.387.45.163.212.552.96.39.747.531 1.219t.204 1.074-.056 1.446q-.119.846-.322 1.393-.203.548-.457 1.001-.255.453-.467.744t-.389.497-.458.491-.975.84q-.693.556-1.753 1.245t-1.882 1.148-1.468.78q-.648.321-.728.363l-.684.364"/>
    </g>
    <g fill="none" stroke-linecap="round" stroke-linejoin="round" style="display:inline">
        <path stroke="#f3ba38" stroke-width="2.5" d="m-1.009 487.525 8.802-18.126m-47.047 38.836 8.04-39.331m-28.32 58.616.147-18.404m-21.523 39.36-29.017-79.014m-9.295 78.272-78.833-78.634m57.504 138.385-58.359-.515m58.283 59.706-59.116 42.42m100.711-20.708-40.202 78.678m98.608-59.238 11.196 59.734m9.682-99.552 12.426 19.001m47.216-118.08 79.238-31.169m-99.64 130.99 24.122 18.437m95.682-138.65 58.609-17.739m-77.878 37.149 79.068-18.959M39.663 648.378l159.949 64.216m-79.725-64.39 79.4 18.073"/>
        <path stroke="#9378e3" stroke-width="5" d="M-200 468v300m400-300v300m-400 0h400m-400-300h400m-340 80h20m0 0v60h-20v-60m0 120h40v20h-20v20h-40v-20h20zM20 488v60h20v20H0v-80zm20 20h100v40h-20v-20H40zm120 80h20v40h-20zm-40-20h20v80h-20zM-40 668v40h140v20h20v-40H-20v-20zm60-20v20h20v-20zm-80-160v20h20v-20zm-20 40h20v20h-20z"/>
    </g>
</svg>
