<svg xmlns="http://www.w3.org/2000/svg" xml:space="preserve" viewBox="0 0 960 480">
    <path fill="none" stroke="#9378e3" stroke-linecap="round" stroke-linejoin="round" stroke-width="6.667" d="M402.667 290.694H456v53.333h-53.333zm133.333-80v106.667h26.667V210.694zm-80-26.667h160v-26.666H456z"/>
    <path fill="none" stroke="#f3ba38" stroke-linecap="round" stroke-linejoin="round" stroke-width="3.333" d="m403.379 290.371 52.978-106.594m79.768 28.652 51.196-27.812m-130.702-.728 130.549-.132m-50.698 29.294-.693 104.484m-79.661 26.628 79.513-25.721m-79.359 25.055.195-52.975m-52.872-.277 52.547.173"/>
    <path fill="none" stroke="#f66640" stroke-linecap="round" stroke-linejoin="round" stroke-width="3.333" d="m473.53 247.074 10.542-24.656m.118.016 6.351 25.87m-21.06-16.564 21.038 16.52m-20.895-17.43 27.52 2.521m-23.829 14.075 23.87-13.963"/>
    <text xml:space="preserve" x="272.636" y="810.16" style="font-size:14px;font-family:&quot;JetBrains Mono&quot;;-inkscape-font-specification:&quot;JetBrains Mono&quot;;text-align:start;writing-mode:lr-tb;direction:ltr;text-anchor:start;fill:#fff;stroke-width:1.00063;stroke-linecap:round;stroke-linejoin:round;stroke-dasharray:none" transform="translate(81.055 -652.566)scale(1.33333)"><tspan x="272.636" y="810.16" style="stroke-width:1.00063">fig 20</tspan></text>
</svg>
