<svg xmlns="http://www.w3.org/2000/svg" xml:space="preserve" viewBox="0 0 960 480">
    <path fill="none" stroke="#9378e3" stroke-linecap="round" stroke-linejoin="round" stroke-width="10" d="M352.952 322.988h80v80h-80zm200-120v160h40v-160zm-120-40h240v-40h-240z" style="display:inline"/>
    <path fill="none" stroke="#9378e3" stroke-linecap="round" stroke-linejoin="round" stroke-width="10" d="M233.382 42v400h480V42z" style="display:inline"/>
    <path fill="none" stroke="#f3ba38" stroke-linecap="round" stroke-linejoin="round" stroke-width="2" d="m462.806 250.24-100.364 66.096M346 327.162l-103.506 68.304M465.84 253.508l-47.374 62.72m-9.422 12.474-50.104 66.334m-10.446 13.83-20.806 27.546m140.544-181.954-31.36 62.046m-9.46 18.72-31.286 61.902m-6.57 12.998-13.058 25.838m96.164-185.052-32.75 126.118m-8.504 32.724-6.32 24.328m56.58-179.002 63.776 97.768m11.804 18.096 40.874 62.658M483.946 253.654l62.006 62.082m12.972 12.988 27.368 27.4m12.35 12.366 66.068 66.15M490.48 237.49l55.144-18.588m14.81-4.992 13.676-4.612m25.46-8.582 105.664-35.62m-215.158 71.406 55.518-22.382m44.862-18.084 64.218-25.888m25.492-10.276 25.622-10.328m-216.636 85.494 56.7-28.486m20.788-10.444 51.648-25.948m25.982-13.056 22.886-11.498m13.16-6.61 25.744-12.934M487.962 233.828l103.754-63.566m21.384-13.1 46.902-28.736m18.244-11.176 27.282-16.716M470.014 231.976l-21.51-61.936m-4.982-14.346-4.552-13.112m-9.104-26.214L406.21 49.022m61.632 183.228-30.898-62.048m-10.876-21.838-49.102-99.352m86.158 201.198-78.448 65.058m-17.432 14.458-6.752 5.6m-14.586 12.096L240.49 434.844m224.824-200.058L242.47 50.896m239.592 183.29 76.918-63.556m17.072-14.108 33.28-27.498m16.562-13.686 78.878-65.176M482.27 248.596l63.6 52.872m13.426 11.162 26.88 22.347m13.497 11.22 105.433 87.653" style="display:inline"/>
    <path fill="none" stroke="#fa7fb1" stroke-linecap="round" stroke-linejoin="round" stroke-width="2" d="M647.998 214.202q-1.584-1.442-2.598-2.44t-2.296-2.396q-1.284-1.398-2.38-2.782t-2.354-3.386q-1.258-2.004-1.94-3.33t-1.138-2.342q-.458-1.014-.636-1.434t-.87-2.592q-.692-2.17-.982-3.324-.288-1.152-.428-1.77-.14-.62-.226-.974-.084-.356-.346-1.908t-.36-2.216q-.1-.662-.428-3.486-.328-2.822-.546-4.948m-3.176 12.356.054-.612q.022-.19.86-4.462.838-4.27 1.866-8.724l.252-.872.236-.8m.356.122q.118.276.518 1.376t.918 2.494q.52 1.392.836 2.216.318.824 1.216 3.236l.03.182.278.9q.028.102.218.722.188.618.702 2.074" style="display:inline"/>
    <path fill="none" stroke="#f66640" stroke-linecap="round" stroke-linejoin="round" stroke-width="5" d="m459.246 257.558 15.814-36.982m.176.022 9.528 38.804m-31.59-24.844 31.556 24.778m-31.342-26.144 41.28 3.782m-35.744 21.112 35.806-20.944" style="display:inline"/>
    <path fill="none" stroke="#fa7fb1" stroke-linecap="round" stroke-linejoin="round" stroke-width="2" d="M216.239 393.107q-.133-.253-.445-.795-.312-.54-.67-1.077-.358-.535-.614-.868-.256-.334-.598-.701t-.55-.55q-.207-.185-.57-.445-.365-.26-1.052-.574-.687-.315-1.451-.47-.765-.156-1.178-.17-.414-.013-.892.035-.477.05-.7.099-.225.05-.72.217-.494.167-1.15.537-.658.369-1.039.671-.381.305-.741.669t-.827 1.003q-.467.638-.69 1.029-.225.39-.505 1.012-.281.622-.392.93-.11.307-.206.615-.094.308-.263 1.13-.17.822-.239 1.564-.07.742-.06 1.65t.074 1.488q.063.58.286 1.581.224 1.004.498 1.733.275.73.467 1.118.195.388.582 1.007t.678.985.566.647q.275.28.78.672.509.392 1.295.797.786.403 1.47.595.683.19 1.145.237.462.048 1.217-.025t1.263-.221.94-.35q.43-.202.881-.488.448-.285 1.244-1.008.797-.723 2.612-2.942l.084-.123m3.638.217q-.024.17-.065.817-.043.648-.08 1.35-.036.703-.062 1.25-.025.547-.037.868-.014.32-.079 1.571-.064 1.251-.112 1.95l-.097 1.33-.045.373m.805-26.205q-.03.147-.237.88-.206.735-.377 1.337-.17.6-.288 1.01-.12.412-.315 1.067-.194.656-.31 1.036l-.15.487-.11.342-.085.261m2.887-6.375q-.077.141-.163.33-.083.19-.158.355l-.418.911q-.34.745-.629 1.391-.288.646-.508 1.163-.22.518-.475 1.14l-.041.078-.063.16q-.132.292-.166.372-.032.079-.102.24m1.863-6.161h.123l.334-.03q.019.008.389-.025l.136.003" style="display:inline"/>
    <path fill="none" stroke="#fa7fb1" stroke-linecap="round" stroke-linejoin="round" stroke-width="5" d="m422.84 442.862-.114-.07-.166.001" style="display:inline"/>
    <circle cx="604.318" cy="442.742" r="2.5" fill="#fa7fb1" stroke="#fa7fb1" stroke-width=".2" style="display:inline"/>
    <path fill="none" stroke="#fa7fb1" stroke-linecap="round" stroke-linejoin="round" stroke-width="2" d="M594.828 471.674q.028-.069.181-.474l.118-.365q.1-.313.378-1.155.281-.841.382-1.148l.371-1.123.64-1.917q.369-1.101.734-2.153.364-1.05.73-2.066.367-1.014.774-2.08.405-1.063 1.065-2.661.66-1.597 2.544-4.769.018.008.24.473.219.464.36 1.535.143 1.071.193 1.743.052.672.14 1.947.087 1.274.18 2.343.09 1.07.187 1.964.095.893.273 2.365l.273 2.26q.095.79.192 1.64.098.85.23 2.123.13 1.272.2 2.018l.096 1.068q.028.322.043.47t.034.393q.018.242.045.749l.02.761" style="display:inline"/>
    <path fill="none" stroke="#fa7fb1" stroke-linecap="round" stroke-linejoin="round" stroke-width="2" d="m596.452 464.91 1.427.062q1.279.053 2.49.107 1.21.052 1.908.088.7.036 1.475.082.213.012.695.031m4.419 4.697q.11-.301.196-.518t.315-.702.46-.843q.228-.36.544-.703.315-.346.603-.563.289-.218.595-.373.307-.156.607-.25t.695-.13.713.01q.318.048.566.15.248.1.477.283.23.183.417.454.188.271.272.493.083.222.13.53.047.31.043.511-.006.201-.057.471-.05.271-.189.64-.138.366-.484.94-.346.576-.587.881-.24.305-.803.935t-1.065 1.174q-.5.542-.875.997-.373.454-.587.828-.214.375-.257.526-.044.15-.052.225-.007.073-.007.104l.005.085q.003.055.027.146.049.058.39.188.338.13 1.12.146.779.016 1.412-.032.632-.049 1.002-.085l3.636-.336.272-.018m-8.544-26.983q-.082.241-.404 1.499-.323 1.257-.538 2.045-.216.79-.538 1.819l-.046.123-.11.315-.196.564m2.818-6.347q-.052.11-.095.214l-.127.318-.19.48-.188.473-.247.61-.312.759q-.147.356-.32.758-.171.404-.36.834l-.322.73q-.131.3-.174.404-.043.103-.173.383-.129.278-.26.58" style="display:inline"/>
    <path fill="none" stroke="#fa7fb1" stroke-linecap="round" stroke-linejoin="round" stroke-width="2" d="m610.165 449.23.093-.008.65-.014.106-.003m-184.567 5.388q-.121-.118-.722-.66-.603-.54-1.096-.918-.494-.377-.809-.57-.313-.191-.634-.349-.322-.156-.895-.33t-1.17-.236q-.6-.064-1.649.093-1.051.158-2.012.58t-1.462.755q-.498.333-.794.573-.295.24-.567.485-.27.248-.697.71-.428.463-.76.913-.333.448-.788 1.238-.458.79-.698 1.345-.24.558-.554 1.692-.312 1.134-.407 2.229-.095 1.094-.066 1.68.03.586.083.957.054.372.152.81.097.437.179.707.08.27.135.434.055.165.284.695.23.528.376.795.145.268.54.843.396.577.963 1.18.566.607 1.41 1.22.842.611 1.615.978.774.367 1.607.605.832.239 1.475.311.642.073 1.238.056.596-.018 1.18-.127.583-.11 1.223-.35t1.012-.438q.369-.199.801-.507.435-.308 1.116-.987.68-.677 1.116-1.209.437-.53.79-.992l.41-.57m4.174.247q.287-.538.552-.978t.565-.852q.3-.414.614-.741.314-.326.548-.504.233-.177.424-.276.19-.097.568-.162.377-.064.597-.024.222.04.366.124.143.085.258.21.112.124.19.308.078.183.121.435.044.25.018.559-.028.31-.129.69-.102.383-.193.697-.09.315-.134.52-.043.205-.054.377t-.012.3q0 .126.177.308.175.181.365.323t.33.238.318.242q.182.147.397.35.213.204.33.358t.208.314q.09.16.177.403.086.243.12.561.03.319-.016.61-.045.29-.129.504-.083.214-.258.486-.174.274-.446.539t-.814.575-.98.448q-.44.139-1.141.201-.703.062-1.3.01-.596-.052-.886-.105-.287-.054-.647-.17-.359-.118-1.062-.457l-.625-.286m-.381-25.036q-.052.184-.087.332-.034.151-.036.165 0 .016-.346 1.513-.345 1.498-.59 2.525-.243 1.029-.352 1.479-.11.448-.21.847m2.267-6.6q-.028.078-.196.593-.168.512-.382 1.193l-.32 1.014q-.106.336-.18.563-.075.227-.198.582-.122.355-.241.691l-.196.542-.093.267-.125.34-.145.385-.187.483m228.177-246.416q-.056.182-.134.454-.076.272-.312 1.256-.234.984-.48 2.06-.248 1.074-.536 2.352-.288 1.276-.88 3.79-.59 2.516-.922 3.88-.334 1.364-.89 3.614t-.904 3.506q-.35 1.258-.654 2.08m6.34-24.002q.044.372.26 1.426.214 1.054.444 2.202.232 1.148.41 2.014.176.864.502 2.356.324 1.494.662 2.89.338 1.398.888 3.472.55 2.076.774 2.876t.356 1.278q.134.478.428 1.562.296 1.084.528 1.982.234.896.324 1.25.088.354.16.62.072.264.088.316.018.052.084.33t.208.86" style="display:inline"/>
    <path fill="none" stroke="#fa7fb1" stroke-linecap="round" stroke-linejoin="round" stroke-width="2" d="m653.502 224.312.164-.034q.124-.02 1.936-.262 1.812-.244 4.416-.734.126-.036.784-.194m9.236 5.852-.009.138q-.014.45-.012 2.374 0 1.922.034 3.288t.042 2.73q.007 1.364-.046 2.406l-.122.89m-1.811-39.388-.044.114q-.168.51-.498 1.536t-.846 2.78q-.518 1.754-.836 2.972-.32 1.216-.526 2.038t-.398 1.506" style="display:inline"/>
    <path fill="none" stroke="#fa7fb1" stroke-linecap="round" stroke-linejoin="round" stroke-width="2" d="M669.432 201.248q-.064.148-.738 1.754-.674 1.604-1.014 2.432-.34.826-.984 2.414-.646 1.586-.776 1.926-.132.338-.23.614-.098.278-.256.698-.158.422-.282.746l-.202.516m3.322-10.802q.108-.048.146-.068t.23-.076.254-.064q.06-.007.63-.224" style="display:inline"/>
    <circle cx="232.774" cy="401.32" r="2.5" fill="#fa7fb1" stroke="#fa7fb1" stroke-width=".2" style="display:inline"/>
    <circle cx="373.778" cy="41.41" r="2.5" fill="#fa7fb1" stroke="#fa7fb1" stroke-width=".2" style="display:inline"/>
    <circle cx="233.462" cy="42.276" r="2.5" fill="#f3ba38" stroke="#f3ba38" stroke-width=".2" style="display:inline"/>
    <circle cx="232.716" cy="441.952" r="2.5" fill="#f3ba38" stroke="#f3ba38" stroke-width=".2" style="display:inline"/>
    <circle cx="713.44" cy="441.852" r="2.5" fill="#f3ba38" stroke="#f3ba38" stroke-width=".2" style="display:inline"/>
    <circle cx="713.386" cy="41.504" r="2.5" fill="#f3ba38" stroke="#f3ba38" stroke-width=".2" style="display:inline"/>
    <path fill="none" stroke="#fa7fb1" stroke-linecap="round" stroke-linejoin="round" stroke-width="2" d="M361.014 11.77q-.004.104.004 1.068.007.964.026 1.66.02.696.092 1.774.07 1.078.144 2.006l.158 1.912.146 1.756q.064.774.28 3.664t.246 3.616q.03.728.036 1.07.004.344.014.764.008.42.008.512t-.03.584m-.942-18.988q.17-.154.234-.216.066-.064.276-.234.212-.172.816-.606.602-.432 1.108-.722.504-.288 1.024-.496.522-.21.93-.302.41-.094.946-.094.536.003.85.07.312.068.526.158.216.092.404.214.19.12.4.32.208.2.398.508t.266.516q.076.21.138.636.06.426.022.87t-.176.892-.262.718-.41.73-.542.78q-.256.318-1.07 1.096t-1.402 1.228q-.59.452-.976.708-.044.016-.106.044-.06.026-.096.046t-.072.05q.004.003.104-.068.102-.07.396-.234t.894-.426q.6-.264.918-.378.318-.116 1.19-.338.87-.224 1.368-.292t.842-.078q.346-.01.818.026.472.038.888.132.418.092 1.288.516.87.422 1.26.74t.632.594q.244.276.402.508.16.232.352.656.194.426.312.972t.096 1.134q-.022.59-.084.876-.062.288-.298.88-.234.592-.724 1.29t-.976 1.152-2.446 1.402q-1.96.946-2.544 1.068-.586.12-1.194.188t-1.696.058q-1.086-.008-1.762-.066l-1.034-.09q-.36-.032-.968-.074m17.248-2.376q-.004-.06-.02-.142t-.036-.228l-.05-.358q-.028-.21-.036-.36-.009-.152-.009-.398 0-.244.042-.594.042-.348.12-.634.076-.284.272-.684.194-.398.486-.768.292-.368.57-.606.28-.238.802-.518.522-.282.902-.382t.698-.12q.316-.018.536.01.22.029.464.099.244.072.604.258.358.186.664.446.304.258.442.424t.242.34q.102.172.156.292.052.118.088.216.036.096.114.592.076.496.046.86-.03.366-.078.574t-.13.442q-.082.232-.216.502t-1.254 1.63q-1.122 1.36-1.75 1.984-.628.626-.876.882-.248.258-.45.506-.2.248-.27.36-.07.11-.184.406-.112.298-.1.444l.072.036q.056.024.206.048.15.022.47-.002.322-.024.582-.066.26-.044.574-.108.312-.064 1.062-.236.748-.172 1.314-.306l1.038-.244q.472-.112 1.3-.298.828-.188 1.318-.296.49-.11 1.008-.248.518-.14 1.182-.33l.444-.13M377.812 3.608l-.022.152-.026.13q-.112.47-1.638 8.264-.068.314-.144.654" style="display:inline"/>
    <path fill="none" stroke="#fa7fb1" stroke-linecap="round" stroke-linejoin="round" stroke-width="2" d="M379.058 3.41q-.046.168-.162.522-.116.352-.302.896-.188.544-.398 1.166-.212.62-.442 1.308t-1.226 3.716q-.022.054-.108.318-.088.264-.194.624-.108.36-.252.788m1.832-9.282.22-.046q.004.004.618-.14.612-.144.896-.196" style="display:inline"/>
    <circle cx="433.662" cy="402.38" r="2.5" fill="#f3ba38" stroke="#f3ba38" stroke-width=".2" style="display:inline"/>
    <circle cx="353.256" cy="403.034" r="2.5" fill="#f3ba38" stroke="#f3ba38" stroke-width=".2" style="display:inline"/>
    <path fill="none" stroke="#f3ba38" stroke-linecap="round" stroke-linejoin="round" stroke-width="5" d="m352.896 322.786-.08-.068" style="display:inline"/>
    <circle cx="433.648" cy="322.878" r="2.5" fill="#f3ba38" stroke="#f3ba38" stroke-width=".2" style="display:inline"/>
    <circle cx="551.962" cy="362.614" r="2.5" fill="#f3ba38" stroke="#f3ba38" stroke-width=".2" style="display:inline"/>
    <path fill="none" stroke="#f3ba38" stroke-linecap="round" stroke-linejoin="round" stroke-width="5" d="m591.728 361.934.194.096" style="display:inline"/>
    <circle cx="554.14" cy="202.982" r="2.5" fill="#f3ba38" stroke="#f3ba38" stroke-width=".2" style="display:inline"/>
    <circle cx="593.074" cy="203.234" r="2.5" fill="#f3ba38" stroke="#f3ba38" stroke-width=".2" style="display:inline"/>
    <circle cx="673.222" cy="162.93" r="2.5" fill="#f3ba38" stroke="#f3ba38" stroke-width=".2" style="display:inline"/>
    <circle cx="631.346" cy="163.626" r="2.5" fill="#fa7fb1" stroke="#fa7fb1" stroke-width=".2" style="display:inline"/>
    <path fill="none" stroke="#f3ba38" stroke-linecap="round" stroke-linejoin="round" stroke-width="5" d="m670.296 121.856.126-.148" style="display:inline"/>
    <circle cx="433.16" cy="162.376" r="2.5" fill="#f3ba38" stroke="#f3ba38" stroke-width=".2" style="display:inline"/>
    <circle cx="432.91" cy="123.032" r="2.5" fill="#f3ba38" stroke="#f3ba38" stroke-width=".2" style="display:inline"/>
</svg>
