<svg xmlns="http://www.w3.org/2000/svg" xml:space="preserve" viewBox="0 0 960 480">
    <path fill="none" stroke="#9378e3" stroke-linecap="round" stroke-linejoin="round" stroke-width="10" d="M352.952 322.989h80v80h-80zm200-120v160h40v-160zm-120-40h240v-40h-240z" style="display:inline"/>
    <path fill="none" stroke="#9378e3" stroke-linecap="round" stroke-linejoin="round" stroke-width="10" d="M232.964 42.157v400h480v-400z" style="display:inline"/>
    <path fill="none" stroke="#f3ba38" stroke-linecap="round" stroke-linejoin="round" stroke-width="2" d="m268.794 49.963-28.516 57.22m69.114-57.314-68.418 136.08m.072 76.644 108.44-212.302m-110.172 296.35 143.692-282.57M265.482 377.705 401.96 105.243m-76.256 232.432 95.472-191.952m-43.97 169.25 72.04-143.362m-32.97 143.562 35.954-72.594m7.114-14.36 28.346-57.234m-46.02 173.708 40.692-80.444m6.104-12.068 3.572-7.064m6.368-12.59 30.002-59.312m-94.432 261.982L544.87 219.939m13.126-25.48 11.208-21.754m-92.738 262.742 68.864-138.272m60.594-121.69 2.15-4.316m-92.202 264.048 33.714-64.988m8.232 64.542 16.102-31.4m-28.842-45.316L241.792 206.077m347.74 218.21-148.45-79.758m-61.406-28.896-140.236-70.68m296.888 190.096-95.36-51.386m16.844 51.306-25.74-13.34m-132.15-66.238-60.776-30.346m95.698 7.62-93.736-46.634m25.26 92.31-26.752-13.318m304.934-47.386L240.884 165.701m303.042 111.806-55.924-28.168m-38.878-19.58L240.108 124.485m305.32 113.396L240.036 84.041m305.106 115.204-56.244-28.5m-72.034-36.502L251.338 50.367M589.96 181.411l-18.662-9.342m-181.15-91.858-59.652-29.854" opacity=".5" style="display:inline"/>
    <path fill="none" stroke="#f3ba38" stroke-linecap="round" stroke-linejoin="round" stroke-width="2" d="M343.492 330.185 241.88 398.957m189.372 12.852-5.454 21.888m133.344-62.098 41.932 62.7m-30.22-238.874 52.546-24.84m-198.944-28.23-44.11-92.286" style="display:inline"/>
    <path fill="none" stroke="#f66640" stroke-linecap="round" stroke-linejoin="round" stroke-width="5" d="m459.246 257.557 15.814-36.982m.176.022 9.528 38.806m-31.59-24.846 31.556 24.78m-31.342-26.146 41.28 3.782m-35.744 21.112 35.806-20.942" style="display:inline"/>
    <circle cx="354.018" cy="323.481" r="2.5" fill="#fa7fb1" stroke="#fa7fb1" stroke-width=".2" style="display:inline"/>
    <circle cx="432.652" cy="322.567" r="2.5" fill="#fa7fb1" stroke="#fa7fb1" stroke-width=".2" style="display:inline"/>
    <circle cx="433.566" cy="402.527" r="2.5" fill="#fa7fb1" stroke="#fa7fb1" stroke-width=".2" style="display:inline"/>
    <circle cx="424.814" cy="442.319" r="2.5" fill="#fa7fb1" stroke="#fa7fb1" stroke-width=".2" style="display:inline"/>
    <circle cx="607.696" cy="442.255" r="2.5" fill="#fa7fb1" stroke="#fa7fb1" stroke-width=".2" style="display:inline"/>
    <circle cx="552.984" cy="362.027" r="2.5" fill="#fa7fb1" stroke="#fa7fb1" stroke-width=".2" style="display:inline"/>
    <circle cx="553.396" cy="204.167" r="2.5" fill="#fa7fb1" stroke="#fa7fb1" stroke-width=".2" style="display:inline"/>
    <circle cx="632.94" cy="163.779" r="2.5" fill="#fa7fb1" stroke="#fa7fb1" stroke-width=".2" style="display:inline"/>
    <circle cx="433.414" cy="162.259" r="2.5" fill="#fa7fb1" stroke="#fa7fb1" stroke-width=".2" style="display:inline"/>
    <path fill="none" stroke="#fa7fb1" stroke-linecap="round" stroke-linejoin="round" stroke-width="5" d="m377.384 41.125.033.216" style="display:inline"/>
    <circle cx="232.244" cy="402.681" r="2.5" fill="#fa7fb1" stroke="#fa7fb1" stroke-width=".2" style="display:inline"/>
    <circle cx="233.582" cy="42.689" r="2.5" fill="#fa7fb1" stroke="#fa7fb1" stroke-width=".2" style="display:inline"/>
</svg>
