<svg xmlns="http://www.w3.org/2000/svg" xml:space="preserve" viewBox="0 0 960 480">
    <path fill="none" stroke="#9378e3" stroke-linecap="round" stroke-linejoin="round" stroke-width="10" d="M352.952 322.989h80v80h-80zm200-120v160h40v-160zm-120-40h240v-40h-240z" style="display:inline"/>
    <path fill="none" stroke="#9378e3" stroke-linecap="round" stroke-linejoin="round" stroke-width="10" d="M233.71 42.297v400h480v-400z" style="display:inline"/>
    <path d="m891.238 247.5.69-.288q.21-.027 2.105-.75 2.19-.83 4.382-1.654c1.66-.62 5.87-2.22 6.163-2.428m-15.977-6.597q8.251 3.338 11.276 4.547 3.027 1.213 3.096 1.293.07.078 1.605.757m-4.932-.337-834.415-.292" style="display:inline;fill:none;stroke:#6ac0c8;stroke-width:4;stroke-linecap:round;stroke-linejoin:round;stroke-dasharray:none"/>
    <path fill="none" stroke="#f66640" stroke-linecap="round" stroke-linejoin="round" stroke-width="5" d="m459.246 257.559 15.814-36.984m.176.022 9.528 38.806m-31.59-24.846 31.556 24.78m-31.342-26.144 41.28 3.782m-35.744 21.11 35.806-20.942" style="display:inline"/>
    <circle cx="352.566" cy="403.156" r="2.5" fill="#f3ba38" stroke="#f3ba38" stroke-width=".2" style="display:inline"/>
    <circle cx="352.652" cy="324.128" r="2.5" fill="#f3ba38" stroke="#f3ba38" stroke-width=".2" style="display:inline"/>
    <circle cx="432.606" cy="323.298" r="2.5" fill="#f3ba38" stroke="#f3ba38" stroke-width=".2" style="display:inline"/>
    <circle cx="432.692" cy="403.632" r="2.5" fill="#f3ba38" stroke="#f3ba38" stroke-width=".2" style="display:inline"/>
    <circle cx="552.624" cy="363.692" r="2.5" fill="#f3ba38" stroke="#f3ba38" stroke-width=".2" style="display:inline"/>
    <circle cx="592.502" cy="363.836" r="2.5" fill="#f3ba38" stroke="#f3ba38" stroke-width=".2" style="display:inline"/>
    <circle cx="553.006" cy="203.746" r="2.5" fill="#f3ba38" stroke="#f3ba38" stroke-width=".2" style="display:inline"/>
    <circle cx="592.568" cy="203.228" r="2.5" fill="#f3ba38" stroke="#f3ba38" stroke-width=".2" style="display:inline"/>
    <circle cx="672.778" cy="163.766" r="2.5" fill="#f3ba38" stroke="#f3ba38" stroke-width=".2" style="display:inline"/>
    <path fill="none" stroke="#f3ba38" stroke-linecap="round" stroke-linejoin="round" stroke-width="5" d="m673.15 123.018-.332.352" style="display:inline"/>
    <circle cx="432.598" cy="123.544" r="2.5" fill="#f3ba38" stroke="#f3ba38" stroke-width=".2" style="display:inline"/>
    <circle cx="432.788" cy="163.002" r="2.5" fill="#f3ba38" stroke="#f3ba38" stroke-width=".2" style="display:inline"/>
    <circle cx="233.322" cy="441.974" r="2.5" fill="#f3ba38" stroke="#f3ba38" stroke-width=".2" style="display:inline"/>
    <circle cx="233.824" cy="42.868" r="2.5" fill="#f3ba38" stroke="#f3ba38" stroke-width=".2" style="display:inline"/>
    <circle cx="713.718" cy="42.302" r="2.5" fill="#f3ba38" stroke="#f3ba38" stroke-width=".2" style="display:inline"/>
    <circle cx="713.884" cy="442.674" r="2.5" fill="#f3ba38" stroke="#f3ba38" stroke-width=".2" style="display:inline"/>
    <path fill="none" stroke="#f3ba38" stroke-linecap="round" stroke-linejoin="round" stroke-width="2" d="M448.414 263.38q.062-.128.382-.634t.682-1.086q.362-.578.55-.91.19-.33.32-.568.132-.238.282-.552.152-.316.63-1.48.48-1.164.704-1.91.226-.746.33-1.224.104-.476.152-3.078.048-2.604-.29-3.972-.338-1.37-.91-2.604-.572-1.236-1.04-1.932-.47-.698-.972-1.256t-1.476-1.308q-.972-.752-1.954-1.244-.98-.492-2.572-.822t-3.02-.256-1.996.21q-.57.136-1.044.31-.474.172-1.196.534t-1.662 1.046q-.942.686-1.712 1.484t-1.44 1.772q-.67.972-1.384 2.488t-.988 2.452q-.276.936-.37 1.398-.094.46-.176 1.22-.08.758-.092 1.464-.01.706.176 2.09.188 1.386.444 2.244t.548 1.52q.29.66.616 1.216.324.554 1.018 1.438t1.114 1.302q.42.42 1.584 1.208t1.77 1.068q.606.282.842.374.238.092.658.22.42.13 1.062.244.64.112 1.31.172.67.058 1.364.044.696-.014 1.166-.07t1.064-.188q.592-.132 1.47-.4t1.334-.434q.458-.166.956-.37t1.586-.672" style="display:inline"/>
    <path fill="none" stroke="#f3ba38" stroke-linecap="round" stroke-linejoin="round" stroke-width="2" d="M443.26 259.048q.132.144 1.01 1.042.88.9 2.064 2.158t1.772 1.898q.59.64 1.15 1.232.562.592 1.734 1.778l.24.282m70.086-51.828.036-.248q.042-.25.598-2.77.558-2.522 1.046-4.486.486-1.962.736-2.914.248-.954.804-3.034.556-2.082.896-3.322.34-1.238.824-2.86.484-1.624.928-2.846t2.324-3.732q.132.06.726.898t1.054 2.034.686 1.886q.228.69.584 1.81.358 1.12.884 2.918.526 1.8.792 2.768.268.968.378 1.388.11.422.524 2.066.412 1.646.658 2.654.244 1.01.4 1.63l.282 1.116q.126.496.288 1.162.16.664.794 3.398l.1.428" style="display:inline"/>
    <path fill="none" stroke="#f3ba38" stroke-linecap="round" stroke-linejoin="round" stroke-width="2" d="m524.492 206.23.226-.004q.292.016 2.54-.056 2.246-.074 3.932-.164 1.684-.088 1.984-.11.298-.022.884-.086.2-.016.788-.036m-12.702 176.932.066-.33q.044-.186.49-1.774.444-1.59 1.172-4.03.728-2.442.942-3.12.212-.678 1.002-3.074.788-2.396 1.498-4.502.708-2.106 1.052-3.116.342-1.01.71-2.07.366-1.062 1.168-3.046.8-1.982 1.304-2.77.502-.79 1.3-1.292.158.05.458.3t.634.804q.334.552.716 1.508.384.956 1.016 3.258.63 2.304 1.056 4.272t.622 2.978q.194 1.012.264 1.404l.242 1.376q.174.982.29 1.62l.278 1.522q.162.884.41 2.328.248 1.446.408 2.364.158.918.308 1.73.152.812.22 1.186l.138.788.16.94q.092.522.142.826" style="display:inline"/>
    <path fill="none" stroke="#f3ba38" stroke-linecap="round" stroke-linejoin="round" stroke-width="2" d="M525.774 373.568q.16-.012 1.94-.2t3.162-.364q1.382-.174 2.42-.332 1.04-.156 2.628-.438l.894-.15m8.962 9.18.076-.404q.026-.13.222-.8.198-.668.428-1.23.232-.564.56-1.096.328-.53.602-.83t.664-.59q.388-.288.926-.484t.986-.226q.446-.032.704.003.258.034.67.176t.704.322.518.398q.226.22.386.444.158.224.32.578.16.354.23.636.07.28.1.682t-.046.93q-.076.526-.366 1.27-.29.746-.544 1.182-.256.436-.574.89-.32.452-.672.888t-.938 1.104q-.584.67-.886 1.022t-.918 1.168q-.616.814-.748 1.084t-.186.462-.06.346-.004.174q.001.018.294.238.29.22 1.07.394.778.176 1.694.204t1.466.012q.552-.018 1.952-.09t2.094-.124q.35-.038 1.098-.108m42.57-2.787q.06-.334.332-1.358l.914-3.46q.644-2.436 1.02-3.76t.554-1.928q.18-.606 1.1-3.556t2-6.358q1.082-3.406 1.59-4.954.51-1.55.776-2.314.268-.766.68-1.738t.736-1.412.612-.598q.014 0 .324.308.308.31 1.118 2.636.812 2.326 1.246 3.966.434 1.642.66 2.524l.622 2.412q.394 1.532.81 3.004t.888 3.024q.474 1.554 1.25 4.068.774 2.514 1.122 3.668.346 1.154.724 2.376.376 1.224.43 1.416.056.19.134.48.076.29.324 1.262" style="display:inline"/>
    <path fill="none" stroke="#f3ba38" stroke-linecap="round" stroke-linejoin="round" stroke-width="2" d="M603.746 376.96q.298.024 1.028.044.728.02 1.884.046t2.104.038 2.22.04q1.27.026 2.118.054.848.03 2.58.046m9.988 7.966.212-.416q.28-.432.918-1.024.64-.594 1.32-.98t1.2-.564.964-.222q.442-.044.83.042.386.086.728.36.344.276.522.568.176.294.254.492.076.196.096.822.022.626-.122 1.206-.146.58-.316 1.004-.168.426-.368.828-.198.402-.85 2.018.478.366.74.46.262.096.542.186t.458.142.352.112q.176.06.32.112.146.052.36.152.216.1.638.35.422.248.626.398.202.15.438.366.236.214.358.362.12.148.262.378.14.228.28.616.14.386.178.64.038.252-.078.83-.114.578-.286.916-.174.338-.408.642t-.576.618q-.344.316-.926.662t-1.39.628q-.808.284-1.268.37t-1.226.126q-.766.038-1.49-.038t-1.076-.166q-.354-.088-.508-.146-.154-.056-.352-.156-.196-.098-.416-.254t-.366-.282q-.146-.124-.226-.216l-.19-.21q-.11-.122-.318-.38l-.298-.306m-22.338-174.816q.08-.434.228-1.128.15-.694.548-2.496.396-1.802.62-2.78.222-.978.594-2.53.37-1.552.926-3.818t1.172-4.744 1.142-4.52q.526-2.04 1.068-3.89.542-1.852.922-2.834.38-.984.604-1.392.226-.41.554-.756.33-.346.614-.452l.114.052q.066.048.48.66.416.612.87 2.008.452 1.396.686 2.31.232.916.368 1.462l.264 1.066q.128.522.364 1.464.236.94.562 2.184.324 1.244 1.01 4.106.686 2.864 1.086 4.742.4 1.88.562 2.7.16.82.514 2.872.352 2.052.586 3.65t.5 3.448q.012.152.114 1.292" style="display:inline"/>
    <path fill="none" stroke="#f3ba38" stroke-linecap="round" stroke-linejoin="round" stroke-width="2" d="M606.092 210.378q.14-.001 9.292.076.118-.001.974-.034m17.372.828q-.022.038-.756 1.664-.734 1.624-1.576 3.378-.84 1.752-1.484 3.06-.644 1.31-1.212 2.492-.568 1.18-.846 1.818-.28.638-.556 1.404-.278.768-.386 1.272t-.12.708.004.352.044.262q.026.116.094.284.044.044.39.24t1.144.286q.798.092 1.766.016.966-.076 1.974-.218 1.008-.144 1.658-.252l1.236-.21q.584-.1 2.248-.46l.168-.04q.312-.088 1.55-.342l.766-.182" style="display:inline"/>
    <path fill="none" stroke="#f3ba38" stroke-linecap="round" stroke-linejoin="round" stroke-width="2" d="M634.12 210.882q.004.148.06 1.172t.156 2.908.21 3.618q.108 1.734.226 3.322t.202 2.786q.086 1.198.18 2.438.094 1.238.15 2.058.054.818.088 1.38t.074 1.988q.038 1.428.078 3.898l-.012 1.056m-92.69-28.81q.005.35.08 1.83.074 1.482.16 2.94.084 1.46.27 3.858.184 2.398.386 4.506.009.066.016.262.004.198.02.512l.016.25M407.708 85.576q-.04.472-.058 1.278t.026 4.874.154 6.196.176 3.108q.064.98.174 2.58t.178 2.788q.07 1.188.102 1.942t.07 2.708q.012.086-.005 1.17m-.291-26.252q.286-.222.404-.316.118-.096.316-.228.196-.134.836-.54.642-.406 1.4-.774.758-.366 1.47-.584.714-.218 1.454-.286.742-.066 1.296.004.556.07.978.212.422.14.88.416.46.274.992.912.53.638.728 1.094.196.456.284.956.09.502.06 1.066-.028.564-.166 1.106-.136.542-.298.93t-.648 1.14q-.488.754-1.16 1.494-.67.742-1.008 1.06-.338.32-.516.502-.178.184-.352.43.074.03.34.02t.728-.074 1.146-.146q.686-.078 1.672-.108.984-.028 1.552.016.57.046 1.08.15.512.106.83.192t.966.414q.65.326 1.05.616.398.288.73.588t.47.444q.136.146.34.436.204.292.486.876.28.584.474 1.336t.236 1.26.004.874-.326 1.38-.562 1.556q-.274.544-.568.978-.294.436-1.028 1.162-.734.724-1.682 1.392-.95.666-1.502.97t-1.486.684q-.934.382-2.854.816-1.92.436-2.888.542-.966.106-1.422.138-.458.034-.722.04-.266.008-.678 0-.412-.006-1.24.029m25.92-15.081-.003.366q-.001.2.148 2.272.15 2.074.234 3.178t.14 1.924.168 5.65l-.001.204q.012.148-.066 1.13m-29.316 56.088.044 4.308q.042 3.922.088 6.096.048 2.172.142 5.148.094 2.974.124 4.038.03 1.066.066 2.904.012.08.012 1.15" style="display:inline"/>
    <path fill="none" stroke="#f3ba38" stroke-linecap="round" stroke-linejoin="round" stroke-width="2" d="M407.412 166.95q.292-.354.404-.48.11-.128.76-.758.648-.63 1.124-1.01t.9-.64q.426-.26.928-.466t.986-.306q.486-.102.938-.11t1.228.214q.778.222 1.102.428.326.206.518.374.194.17.388.402.196.232.396.572t.358.89q.156.548.186.89.032.342.007.816-.028.472-.2 1.228-.172.754-.598 1.75-.428.996-.992 1.964-.566.968-1.342 2.042-.778 1.074-1.13 1.488t-.528.598q-.176.182-.37.346t-.406.232q-.028-.004.072-.136.102-.132.35-.314.25-.182 1.062-.588.81-.406 1.864-.73 1.056-.322 2.256-.48 1.2-.156 2.086-.176.886-.018 1.9.116 1.016.136 1.698.326t1.004.32q.322.128.924.47.6.342.946.628.348.286.64.62.294.336.512.696t.418 1.006q.2.644.232 1.234.03.588-.086 1.274-.118.686-.524 1.602t-1.344 2.032q-.936 1.116-1.552 1.614t-.986.742-.958.564q-.59.322-1.156.57-.568.248-1.508.536-.94.29-1.8.458t-1.952.298q-1.094.13-1.99.198-.898.066-1.948.098l-1.806.054-1.126.03q-.37.008-1.32.084m24.117-.362q.086-.252.132-.402.048-.152.198-.534t.382-.91q.232-.53.462-.938.23-.41.584-.922.354-.514.802-.96.448-.448 1.04-.81t1.028-.492.782-.152q.344-.02.772.06t1.204.656q.776.574 1.13 1.16.356.586.516 1.11t.204 1.214q.044.688-.066 1.424t-.358 1.464q-.246.73-.658 1.512-.41.784-1.03 1.69-.62.904-1.032 1.424l-1.026 1.29q-.614.772-1.068 1.362t-1.098 1.54q-.644.952-.758 1.3-.05.134-.062.202-.012.07.016.234.03.022.38.05.35.03 1.22-.162.872-.19 1.832-.494t1.586-.518q.624-.214 1.502-.536.88-.322 1.834-.696l1.57-.614q.616-.24.908-.348.29-.108.674-.244t.618-.212q.234-.078.496-.17.264-.09.866-.324.602-.236.878-.328m217.026-19.33q-.018.298-.024.99t-.002 1.282.02 1.286q.014.694.062 1.908.046 1.214.296 4.654.25 3.438.48 5.844.228 2.406.336 3.52.108 1.116.172 1.824.066.708.544 5.47l.03.242" style="display:inline"/>
    <path fill="none" stroke="#f3ba38" stroke-linecap="round" stroke-linejoin="round" stroke-width="2" d="M665.376 179.202q.408-.324.654-.506.244-.184 1.032-.682.786-.498 1.416-.84.632-.342 1.782-.796t2.014-.634q.862-.182 1.314-.214.452-.034 1.304.028.852.06 1.5.238.648.176 1.252.492.606.316 1.072.72.464.404.784.872.318.466.46.8.144.334.268.966.126.632.112 1.246-.016.612-.106 1.058-.092.446-.18.728t-.408.956q-.318.674-.802 1.352-.486.678-1.198 1.4-.714.722-1.362 1.216t-1.098.768q-.45.276-.656.396t-.322.198q-.002.004.13-.05.13-.056.52-.156t1-.178q.61-.076 1.206-.074.594 0 1.418.116.822.116 1.442.294.62.18 1.426.59.804.408 1.464.946.66.536 1.004.932.342.394.744 1.096.404.702.618 1.486.214.782.244 1.194t-.01.898q-.042.486-.158.94-.118.454-.28.816-.164.36-.678 1.04-.516.68-1.062 1.156t-1.938 1.262q-1.392.784-2.352 1.124-.962.34-2.164.616-1.202.274-2.092.398t-1.558.178q-.666.052-1.054.078t-1.688.04m18.76-2.81q.28-.41.31-.456t.128-.176.274-.342q.174-.212.998-.968t1.278-1.004q.454-.246.802-.344.35-.098.584-.116.234-.016.504.02.272.038.568.17.294.13.518.308.224.176.454.472.232.296.448.81.216.512.332 1.51.114.996-.008 1.928-.124.934-.35 1.626-.226.694-.444 1.152-.22.456-.552.956t-.622.826q-.288.326-.688.672-.4.344-.9.62-.5.274-.722.282-.222.01-.228-.022t.11-.18.264-.26q.146-.112.558-.326.41-.216.954-.38.542-.166 1.11-.214t1.072.008q.506.058.904.18t.968.492.932.774.596.886.34 1.016q.104.534.062 1.214-.044.68-.204 1.194t-.334.85q-.172.336-.596.858t-1.09 1.036q-.664.514-1.714.978-1.05.466-1.932.652-.882.188-1.698.232-.816.042-1.54-.018-.722-.06-1.498-.218t-1.362-.342q-.584-.186-.922-.324-.336-.138-.542-.24t-.422-.224-.388-.23q-.17-.106-.56-.384l-.164-.084-.66-.402M665.47 86.326q-.018.326-.078 1.782-.06 1.458-.088 4.03-.028 2.57.02 4.346.046 1.774.154 3.77.11 1.998.258 4.114l.262 3.754.046 1.056" style="display:inline"/>
    <path fill="none" stroke="#f3ba38" stroke-linecap="round" stroke-linejoin="round" stroke-width="2" d="m665.154 86.884.128-.108q.234-.222 1.162-.972.93-.75 1.706-1.312.776-.564 1.67-1.08.892-.518 1.636-.832.742-.316 1.544-.536t1.596-.294 1.374-.02q.578.054 1.042.174.464.122 1.042.43t.938.638q.36.328.628.712.268.386.488 1.032.218.644.258 1.192.04.546-.052 1.206-.094.66-.414 1.496-.322.834-.692 1.446t-.972 1.338-1.254 1.33q-.65.602-1.262 1.038-.614.438-1.21.744-.596.304-1.146.41-.01-.036.104-.248t.49-.548.704-.556q.328-.218.87-.502t1.392-.586q.85-.304 1.378-.42t.832-.162 1.57-.056 2.068.15q.804.158 1.176.286.37.126.798.33.43.204.89.514.462.308 1.088.942t1.026 1.268.698 1.452q.298.816.402 1.704t.076 1.382q-.028.496-.182 1.178-.152.682-.606 1.642t-1.168 1.854q-.712.894-1.524 1.578t-1.172.92q-.362.234-1.076.614-.716.38-2.066.866-1.352.484-2.666.764-1.312.278-2.95.458t-2.97.242q-1.334.064-2.4.084-1.066.022-2.328.028-.086-.004-1.086-.01m33.324-15.278q-.58 1.53-1.188 2.816t-1.15 2.296q-.542 1.012-.998 1.828l-.974 1.746q-.518.93-1.37 2.748-.852 1.82-1.04 2.624-.19.806-.178 1.144.014.34.192.856.158.12.676.248.52.126 1.24.08t1.844-.224q1.124-.18 2.094-.366t2.174-.474 1.288-.314q.082-.026 1.06-.248.976-.222 1.566-.366.59-.146 1.344-.352" style="display:inline"/>
    <path fill="none" stroke="#f3ba38" stroke-linecap="round" stroke-linejoin="round" stroke-width="2" d="M700.152 94.838q.004.344.038 1.934.034 1.592.054 3.316t.04 4.086l.036 3.778q.016 1.414.046 2.756.03 1.344.062 3.042t.062 3.632q0 .084.018.794.018.708.034 1.64.018.932.02 1.238M334.484 308.602l-.478-.806q-.25-.422-.716-1.142-.468-.72-1.142-1.588-.676-.87-1.238-1.422t-1.07-.924q-.508-.374-1.196-.718-.69-.344-1.66-.572-.972-.228-1.93-.22-.96.009-1.704.164-.746.156-1.668.544-.924.39-1.476.724-.55.334-1.452 1.076t-1.888 1.898q-.988 1.156-1.406 1.79t-.6.942q-.18.31-.61 1.206-.43.894-.784 1.94-.356 1.046-.472 1.54-.118.494-.22 1.096-.104.602-.16 1.76-.056 1.16-.016 1.778.04.62.302 1.848.264 1.23.632 2.156.37.926.732 1.566.362.642.92 1.358.558.714 1.056 1.198.498.482.804.732.306.248.858.632.552.382 1.6.896 1.046.514 2.058.816 1.012.304 1.826.43.812.128 1.796.14.986.012 1.612-.056t1.866-.396 2.11-.716q.868-.39 1.492-.754.624-.366 1.394-.914t1.362-1.062q.592-.512 1.086-1.012.494-.498.966-1.03t.852-.996l.476-.556m5.006-1.602q-.004.104 0 .378t.012.51.062 1.4.126 3.296q.072 2.13.1 3.304.026 1.172.046 2.178.02 1.008.028 1.222t.012.402q.001.188-.008.498m-4.872 67.602q-.162-.304-.554-.914-.392-.608-.646-.978-.252-.368-.76-1.004t-1.298-1.39q-.792-.754-1.638-1.346-.846-.594-1.526-.95t-1.772-.732q-1.09-.376-2.184-.546-1.092-.168-1.968-.16-.874.007-1.882.196-1.006.19-1.822.5t-1.458.682q-.644.372-.95.6-.308.226-.698.57-.392.346-1.114 1.208-.72.862-1.28 1.874-.56 1.01-.888 1.88-.328.872-.538 1.784t-.308 1.608q-.1.694-.16 1.476-.058.78-.074 1.418-.016.636.024 1.376.038.74.248 1.9.208 1.158.442 1.926.234.766.7 1.792.464 1.026.926 1.768.464.742 1.078 1.49t1.118 1.224q.504.478 1.576 1.22 1.07.742 1.644 1.022t1.038.45.958.304q.492.134 1.276.252.782.12 1.766.106t2.016-.21q1.03-.194 2.08-.586 1.052-.392 2.068-.98 1.018-.588 1.5-.964.484-.376.958-.838.476-.464 1.106-1.138t1.09-1.204.894-1.108q.434-.58.814-1.106m5.132 5.48.18-.366q.116-.202.298-.508t.532-.764q.35-.456.67-.758.318-.302.6-.472.28-.172.41-.222.128-.05.296-.09.168-.042.668.046.5.09.822.308.324.22.492.434.17.214.282.438.11.226.19.836.08.612-.104 1.462t-.68 1.648q-.498.796-1.05 1.42-.552.622-1.026 1.072-.476.45-.748.686-.27.236-1.082.896-.81.662-1.264 1.058-.452.398-.71.684t-.338.408q-.08.124-.142.248-.06.124-.072.314.464.212.714.242t1.046.026q.794-.001 1.496-.062.702-.06 1.47-.154.77-.096 1.734-.23.964-.136 1.8-.25t1.568-.202 1.184-.138q.45-.05 1.944-.26m102.24-29.1q-.304-.206-.358-.252-.056-.044-.93-.678-.872-.634-1.342-.94-.47-.308-.946-.592-.476-.282-1.154-.584-.68-.3-1.256-.46-.574-.158-1.148-.216-.574-.056-1-.032-.426.026-1.04.172-.616.148-1.15.38t-1.474.908-1.346 1.094q-.408.416-.732.834-.326.418-.704.976t-.686 1.09q-.306.53-.66 1.286-.356.758-.638 1.582-.284.824-.484 1.636-.202.812-.332 1.906-.132 1.094-.146 1.686-.016.594.018 1.25.036.656.076 1.018.04.364.162.92.122.558.338 1.43t.424 1.53q.21.658.41 1.1.202.444.478.914.274.472.622.974.348.5.628.86.28.362.598.694t.822.742q.504.412 1.128.756t1.128.538q.504.196 1.098.358.592.162 1.048.256.456.092.936.13.478.038 1.042.004t1.39-.222q.826-.186 1.434-.424t1.112-.516q.504-.276 1.236-.822.732-.548 1.18-.968.448-.422 1.138-1.244.692-.82 1.108-1.388t.984-1.358q.058-.08.336-.512m5.838-.098q.226-.652.288-.798t.146-.324q.082-.178.184-.358t.31-.472q.208-.29.258-.42.05-.128.866-.756.816-.63 1.408-.91.592-.282 1.01-.382t.738-.094q.32.004.578.072.26.068.442.162t.306.192.342.358q.22.262.482 1.066.262.806.28 1.3.016.496-.052.974t-.116.694q-.05.218-.144.544t-.292.882q-.2.556-.322.868-.12.31-.208.562-.086.254-.146.572.026.016.292.046.268.032.554.032t.53.016q.246.016.53.076.284.058.578.164t.566.258q.272.154.536.35.262.196.518.462.258.266.592.832.336.568.48 1.108.142.54.158.874t-.03.678q-.044.344-.194.768t-.354.754-1.07.99q-.868.66-1.466.876-.598.214-1.03.292-.43.076-.732.096-.302.018-1.082-.036-.78-.056-1.416-.18t-1.316-.32-1.25-.404q-.568-.208-.852-.328-.286-.122-.418-.188-.134-.066-.396-.216-.26-.15-1.15-.782l-.474-.25m-5.95-117.99q-.344-.248-1.464-1.044-1.122-.794-1.738-1.154-.618-.36-1.012-.544-.394-.186-.724-.304t-.616-.196-.762-.17-1.426-.124-1.718.088-1.212.248q-.442.128-1.088.406-.648.278-2.042 1.264t-1.736 1.328q-.34.34-.836.958t-.758 1.018q-.262.398-.606 1.042-.344.642-.596 1.254t-.474 1.354-.398 1.708-.252 1.788.005 2.732q.084 1.908.264 2.924.18 1.014.424 1.902.242.888.586 1.776.342.886.722 1.598.38.71.854 1.37.476.66 1.37 1.524t1.588 1.328q.694.462 1.236.726.54.264 1.59.596 1.048.332 1.872.44.822.108 1.412.116t1.352-.076q.762-.086 1.796-.36 1.036-.274 1.604-.5.568-.224 1.21-.55.644-.324 1.032-.564.39-.238.974-.688t.916-.756q.332-.308.654-.65.32-.344.706-.824t.828-1.13.826-1.294q.384-.646.47-.778m10.365-4.204q-.092.134-.614 1.03-.52.894-.944 1.618-.424.726-1.128 1.878t-2.188 3.45-2.142 3.294q-.658.998-1.024 1.594-.366.598-.518.884t-.342.73q-.192.444-.272.87-.078.424-.02.748.032.042.742.182.708.142 3.04-.318t3.672-.802q1.34-.344 2.462-.614 1.124-.27 2.07-.482.948-.212 1.524-.334.578-.122 1.318-.284" style="display:inline"/>
    <path fill="none" stroke="#f3ba38" stroke-linecap="round" stroke-linejoin="round" stroke-width="2" d="m476.246 318.612-.1 1.28-.114 1.5-.108 1.472q-.056.792-.1 1.48-.046.688-.08 1.286-.036.598-.064 1.118-.026.52-.046.972l-.038.872q-.016.42-.034 1-.018.582-.026 1.09t-.01.89.002.802.012.878q.008.456.02.962.014.504.024.968l.022.898q.011.432.018.82l.018.912q.012.526.02 1.13.01.604.014 1.074l.012.86q.007.386.014.674t.014.424.014.206q.008.072.02.126.001.102.008.244m-281.6-313.566q0 .178.003.28l.068 1.838q.066 1.738.256 4.184.188 2.446.354 3.832.166 1.384.38 2.85t.6 3.834q.384 2.368.59 3.686.206 1.316.362 2.47.154 1.152.448 4.646.014.104-.003 1.148m-2.394-28.56q.38-.414.46-.492.082-.078.194-.188.114-.11.596-.524.484-.416 1.066-.826.58-.41 1.368-.76.79-.348 1.51-.466.722-.116 1.24-.066t.87.168q.35.118.652.29.302.17.662.502.358.332.642.756t.496.972.322 1.226q.108.678.098 1.306t-.07 1.054q-.062.426-.248 1.12-.188.694-.464 1.38-.278.688-.738 1.518-.462.83-.974 1.594-.514.762-1.05 1.54-.536.776-.876 1.338-.342.56-.83 2.142.372.52.572.69.202.168.374.28.174.112.766.424t1.278.622 1.906.852q1.222.542 1.902.858.68.318 1.628.782t1.44.72q.494.258.906.486t1.446.834q1.036.606 1.516.912.48.308.72.47.24.164.868.63.24.21.84.674m5.048-8.66.028.342q.044.346.248 1.702l.354 2.35.322 2.13q.172 1.138.318 2.152t.286 2.024q.14 1.012.258 1.782.02.086.134 1.14M187 429.498l.04.57.074 1.144q.044.716.12 1.59.074.874.18 1.906t.198 1.838.212 1.676q.118.87.218 1.532.102.662.204 1.306l.242 1.49.27 1.626.248 1.496q.12.714.226 1.374.108.66.254 1.574t.23 1.48q.084.564.156 1.192t.164 1.534l.224 2.202.304 2.994q.007.292-.034 1.346" style="display:inline"/>
    <path fill="none" stroke="#f3ba38" stroke-linecap="round" stroke-linejoin="round" stroke-width="2" d="M186.7 431.372q.102-.08.426-.356.068-.06.258-.218.192-.158.836-.63t1.47-.988q.826-.518 1.272-.744.448-.228.686-.332.24-.106.674-.264t.908-.29 1.072-.22q.6-.088 1.404-.06.802.026 1.302.132.5.104 1.146.368.648.264 1.23.68t.908.782q.328.364.62.876.29.512.476 1.25.184.738.17 1.446-.016.71-.136 1.23-.12.518-.442 1.194-.324.674-.594 1.052-.272.376-.8.914-.53.538-1.36 1.108t-1.316.834q-.484.262-1.16.572-.678.312-1.45.656t-1.226.59q-.454.248-.752.504t-.418.464q-.12.206-.156.326-.034.122.05.34.022.038.35.296t1.006.77q.68.512 1.42.98.742.466 1.3.826.56.358 1.182.774t1.14.794q.52.38 1.15.874.63.496 1.108.886.478.388 1.068.89.59.5 1.284 1.1t1.318 1.148q.624.546 1.464 1.288.84.74 1.384 1.236l.82.748q.274.252.57.504.296.25 1.118 1.028m6.736-3.41q.007-.16.007-.29.003-.13.009-.268.01-.14.046-.416t.11-.536q.072-.262.206-.546.134-.282.436-.674.302-.394.61-.632.308-.236.51-.338t.542-.194q.34-.094.778-.092.438.004.676.062.24.058.412.126.172.07.474.28.304.21.576.548.272.34.446.8.176.462.204 1.008.028.548-.076 1.058-.106.51-.234.856-.13.344-.416.856-.288.514-.69 1.06-.404.548-1.224 1.478-.822.932-1.57 1.856-.746.926-.978 1.406-.232.482-.23.884.024.028.182.124.158.094 1.182.142 1.022.046 1.308.024.288-.024.914-.084l1.118-.106q.492-.044 1.042-.082t1.04-.06q.488-.024 1.124-.038l.97-.02q.334-.007.416-.02.08-.014.606-.056m500.806-32.528q.014.074.038.6.008.13.098.75l.25 1.728q.16 1.108.384 2.454l.484 2.94q.262 1.594.444 2.818t.314 2.072q.134.848.286 1.832.154.984.322 2.118.166 1.134.308 2.198.144 1.062.328 2.55.186 1.486.284 2.438.098.954.142 1.622.046.666.014 1.408-.028.134-.064.25-.038.116-.204.488" style="display:inline"/>
    <path fill="none" stroke="#f3ba38" stroke-linecap="round" stroke-linejoin="round" stroke-width="2" d="M727.338 429.984q.05-.032.284-.24t.466-.392q.232-.182.752-.554.52-.37.948-.644.428-.272 1.11-.614.684-.342 1.226-.526.542-.186 1.09-.286.546-.1 1.152-.1.604-.001 1.15.106.544.108 1.102.362.56.254.902.516.342.26.56.488.216.228.454.584.236.358.372.676.136.316.24.814.106.498.102 1.1-.002.602-.216 1.458-.214.854-.428 1.34-.212.484-.714 1.304-.504.82-1.14 1.608-.638.786-1.12 1.286-.484.5-1.236 1.232-.75.732-1.192 1.188-.44.456-.68.806t-.332.604q.026.116.082.192.058.074.286.232.23.158.328.21.1.054 1.122.53 1.022.478 2.132.954 1.108.478 2.176.988t2.504 1.298 2.866 1.688 2.194 1.438q.762.538 1.272.938.508.4.99.818.484.416 1 .908.038.06.238.566m3.38-4.14.238-.386q.14-.244.692-1.01.554-.764.954-1.23.398-.466.622-.692.226-.228.796-.684t.986-.682q.416-.228.818-.356.402-.13.846-.168.446-.04.894.036.45.076.886.3.436.226.692.456t.514.608.458 1.032.208 1.36-.062 1.092-.238.912-.52 1.178q-.352.654-.822 1.256-.472.6-.982 1.04-.51.438-.85.586-.008-.008.102-.12.108-.114.292-.242.186-.128.454-.264.266-.136.856-.352.588-.216 1.236-.352t1.63-.158 1.698.116 1.246.356q.528.218.85.422t.634.502q.312.3.552.674t.42 1.038q.182.666.164 1.106-.016.44-.12.864-.104.422-.43.97t-.722.966q-.394.416-.83.752-.434.336-1.482.874-1.048.54-1.86.782-.81.242-1.586.346-.774.106-1.358.112-.582.007-1.43-.11t-1.358-.262q-.512-.144-.92-.3-.406-.156-.812-.334t-.72-.32q-.054-.028-1.032-.63M728.592 28.028q-.002.172.092 2.122.096 1.95.246 3.868.152 1.916.248 2.886.098.97.15 1.44.052.468.122 1.07.068.604.53 3.934.46 3.332.758 5.4t.406 2.936q.11.868.216 1.942t.136 1.794q.032.718.016 1.154-.016.434-.038.618-.022.182-.044.268-.02.086-.042.136-.022.052-.04.074-.016.022-.302.242" style="display:inline"/>
    <path fill="none" stroke="#f3ba38" stroke-linecap="round" stroke-linejoin="round" stroke-width="2" d="M727.796 30.94q.048-.07.218-.372.046-.08.356-.528.308-.45.848-1.108t1.094-1.192 1.088-.932.93-.632q.394-.236 1.144-.56.75-.322 1.34-.484t1.46-.262q.868-.098 1.55-.058.68.04 1.246.172.568.13 1.062.332t.928.466q.434.266.742.53.31.264.634.652.324.386.582.884t.414 1.166q.158.67.168 1.176t-.068 1.026q-.076.52-.352 1.296-.274.776-.594 1.36-.32.582-1.21 1.67t-2.134 2.13q-1.242 1.042-2.244 1.638-1 .594-1.476.8-.474.206-.786.298-.312.09-.6.124-.288.032-.374.016t-.142-.086q-.054-.07-.024-.134.032-.064.128-.118.098-.056.456-.08.358-.026.742.018.384.042.752.142.37.1.746.254.374.152.908.45.532.296 1.208.814t1.45 1.256q.772.738 1.478 1.496.708.758 1.836 2.008 1.128 1.252 2.482 2.678 1.354 1.428 2.456 2.518t1.578 1.542l.856.808.932.876.552.482m13.934-11.92-.19.346-.676 1.368q-.656 1.332-1.336 2.698-.678 1.364-1.514 3.078-.834 1.714-1.292 2.726t-.89 2.098q-.43 1.084-.574 1.568t-.214.922q-.07.44-.066.658.006.218.088.54l.034.07.036.078q.058.08 1.182.304 1.126.222 2.196.114 1.072-.11 1.758-.212.684-.1 1.206-.18l1.828-.27q1.304-.19 2.608-.396.174-.012.86-.128t1.218-.18" style="display:inline"/>
    <path fill="none" stroke="#f3ba38" stroke-linecap="round" stroke-linejoin="round" stroke-width="2" d="M765.786 44.226q-.002.61.002 1.032.006.422.068 2.398.062 1.978.152 3.406.09 1.426.216 2.774.128 1.348.29 2.816.162 1.47.254 2.35.092.878.322 5.376-.004.056.024 1.958.002.124-.024.672" style="display:inline"/>
    <path d="M880.386 203.787q5.36 7.106 7.311 9.715c1.823 2.392 5.804 7.13 7.662 9.496m-.351-19.21q-5.36 7.105-7.31 9.714c-1.824 2.392-5.805 7.13-7.663 9.496" style="display:inline;fill:none;stroke:#6ac0c8;stroke-width:4;stroke-linecap:round;stroke-linejoin:round;stroke-dasharray:none"/>
</svg>
