<svg xmlns="http://www.w3.org/2000/svg" xml:space="preserve" viewBox="0 0 960 480">
    <path fill="none" stroke="#9378e3" stroke-linecap="round" stroke-linejoin="round" stroke-width="6.667" d="m245.214 184.845-27.808 107.682m292.567-53.917-28.064 107.615m296.887-214.053-28.508 107.497" style="display:inline"/>
    <path fill="none" stroke="#6ac0c8" stroke-linecap="round" stroke-linejoin="round" stroke-width="1.333" d="m169.2 238.64 57.132.299m10.364.054 59.656.311m140.528-.82 68.29.519m9.33.07 48.76.371m139.046-1.568 43.662.513m9.572.112 74.576.876" style="display:inline"/>
    <path fill="none" stroke="#6ac0c8" stroke-linecap="round" stroke-linejoin="round" stroke-width="3.333" d="m231.505 239.363.088-.204" style="display:inline"/>
    <path fill="none" stroke="#6ac0c8" stroke-linecap="round" stroke-linejoin="round" stroke-width="1.333" d="M290.612 231.632q-.02-.3-.223-2.915-.203-2.613-.43-4.864-.227-2.249-.557-4.661-.33-2.41-.84-5.184-.508-2.775-3.13-12.995l-.224-.93m7.134 9.867-.32-.53q-.198-.156-.544-.588l-.536-.672q-.19-.239-1.172-1.687-.984-1.448-2.038-3.02-1.055-1.572-1.516-2.232-.462-.658-.851-1.174m-.352.793q-.072.653-.084 4.255-.012 3.6-.11 7.344-.018.081-.04.976m269.937 17.282q-.018-.3-.215-2.914t-.419-4.866q-.221-2.25-.546-4.662-.324-2.411-.827-5.187-.501-2.775-3.1-13.001l-.221-.932m7.11 9.885-.318-.532q-.198-.156-.543-.588l-.533-.673q-.19-.24-1.17-1.69t-2.03-3.025-1.511-2.235q-.46-.661-.848-1.177m-.355.792q-.073.655-.093 4.255t-.128 7.342q-.017.083-.041.978m273.892 18.75q-.015-.3-.202-2.916-.186-2.614-.398-4.866t-.527-4.664q-.315-2.414-.805-5.191t-3.047-13.015l-.217-.932m7.069 9.915-.316-.533q-.197-.158-.54-.591-.343-.435-.53-.675-.189-.241-1.163-1.696-.974-1.453-2.02-3.033-1.043-1.579-1.5-2.24-.456-.663-.843-1.181m-.357.791q-.076.653-.112 4.254-.035 3.6-.158 7.343-.017.081-.045.974" style="display:inline"/>
    <path fill="none" stroke="#f66640" stroke-linecap="round" stroke-linejoin="round" stroke-width="3.333" d="M173.274 228.664 162.5 253.219m-.118-.016-6.11-25.928m20.905 16.76-20.881-16.716m20.73 17.625-27.496-2.78m23.962-13.849-24.002 13.737m290.718-13.542-10.832 24.53m-.119-.016-6.047-25.943m20.864 16.811-20.841-16.767M443.92 244.8l-27.487-2.845m23.992-13.792-24.032 13.678m290.717-13.906-10.934 24.484m-.118-.016-5.94-25.968m20.795 16.895-20.773-16.85m20.616 17.759-27.476-2.959m24.049-13.693-24.09 13.58" style="display:inline"/>
    <circle cx="217.108" cy="292.247" r="1.667" fill="#f3ba38" stroke="#f3ba38" stroke-width=".133" style="display:inline"/>
    <circle cx="245.169" cy="185.939" r="1.667" fill="#f3ba38" stroke="#f3ba38" stroke-width=".133" style="display:inline"/>
    <circle cx="481.636" cy="345.527" r="1.667" fill="#f3ba38" stroke="#f3ba38" stroke-width=".133" style="display:inline"/>
    <circle cx="778.678" cy="133.104" r="1.667" fill="#f3ba38" stroke="#f3ba38" stroke-width=".133" style="display:inline"/>
    <circle cx="750.36" cy="239.163" r="1.667" fill="#f3ba38" stroke="#f3ba38" stroke-width=".133" style="display:inline"/>
    <circle cx="509.764" cy="239.099" r="1.667" fill="#f3ba38" stroke="#f3ba38" stroke-width=".133" style="display:inline"/>
    <path fill="none" stroke="#f3ba38" stroke-linecap="round" stroke-linejoin="round" stroke-width="1.333" d="m225.414 301.55.132-.557.454-1.94q.42-1.804.74-3.066t.732-2.778 1.816-5.864q1.404-4.349 1.93-5.588.527-1.24.987-2.016.461-.774.708-1.04.247-.265.787-.541.06.005.46.603.398.598.706 2.028t.635 4.017.519 4.09q.19 1.505.28 2.16.089.653.332 2.22.244 1.566.378 2.358l.218 1.264q.08.473.297 1.592.037.137.123.939" style="display:inline"/>
    <path fill="none" stroke="#f3ba38" stroke-linecap="round" stroke-linejoin="round" stroke-width="1.333" d="m227.356 292.92.196-.041q.168-.02 1.756-.415 1.586-.395 2.345-.61.757-.215 1.201-.354.446-.139 1.6-.51.232-.102.38-.163.15-.062.424-.184m19.896-118.658q-.066.607-.094.946-.027.34-.095 1.374t-.195 3.678q-.127 2.641-.165 4.017-.04 1.377-.063 2.572-.024 1.196-.021 3.19 0 1.995.036 3.14.035 1.143.07 1.773.038.629.063.969t.066.755l.04.425q.004.012.088.936m.64-21.259.428-.242q.26-.147.6-.311t.805-.359q.465-.194 1.07-.372.603-.177 1.006-.234.403-.056.744-.054.343.004.72.083t.565.16.332.177q.146.096.27.212t.28.342q.158.224.27.508.112.282.175.7.061.416.009.905-.052.488-.11.716-.06.228-.309.856-.25.628-.626 1.275-.376.645-.682 1.076-.305.43-.685.937t-.503.707q-.121.201-.134.258-.015.056.214.083.23.027.818-.035.586-.06 1.126-.109.539-.048 1.203-.044.663.004 1.316.093.653.09 1.121.219.468.13 1.09.435.622.304 1.242.848t.998 1.153.512 1.05q.134.44.17.874.035.435.003.79-.032.357-.15.785-.118.426-.4.973-.28.545-.77 1.121-.49.575-1.018 1.004-.53.43-2.007 1.156-1.479.728-2.495.999-1.017.27-1.52.35-.502.082-1.124.131-.622.051-1.128.056-.505.004-1.084-.045-.578-.05-1.798-.257l-.544-.067m235.32 157.091q.082-.475 1.013-3.996t1.816-6.434 1.679-4.914 1.232-2.772q.437-.771.666-1.062.228-.292 1.27-.912.109.027.329.167t.456.427q.235.285.445.678t.332.674q.12.28.596 1.866.475 1.588.77 2.918.294 1.329.5 2.358.204 1.031.474 2.482.272 1.452.51 2.628.237 1.176.402 1.962.167.788.384 2.038.044.324.147.929" style="display:inline"/>
    <path fill="none" stroke="#f3ba38" stroke-linecap="round" stroke-linejoin="round" stroke-width="1.333" d="M493.173 343.435q.179-.044 1.08-.236l2.333-.504q1.434-.312 4.14-.886l1.143-.278m15.393-98.326q-.022.286-.032.442-.008.156-.04 1.718t-.041 2.572.017 4.339.087 5.373q.057 2.046.136 3.783m-.063-17.22q.135-.036.287-.1l.29-.119q.138-.054.73-.238.59-.184 1.579-.383.988-.197 1.828-.19t1.25.11.658.224q.246.121.38.219.133.097.32.292.19.194.357.47.168.275.3.875.13.6.076 1.14-.056.541-.296 1.261-.241.72-.537 1.288-.295.57-.446.826l-.342.59q-.194.335-.282.667.056.025.127.044.072.02.844.064.772.043 1.436.072t1.225.112q.562.084 1.024.223.463.137.914.365.452.23.94.639t.752.778.362.579.172.492q.075.281.076.73.003.449-.15.987-.152.539-.46 1.04-.306.502-.696.916-.391.414-1.052.903-.663.49-1.934 1.053t-2.11.799-1.666.413-1.537.29q-.71.11-1.079.146-.37.038-.636.058t-.553.029q-.285.009-1.183.1m241.276-26.641q.044-.159.943-2.767t1.488-4.233q.59-1.627.896-2.42t.977-2.327q.67-1.535 1.47-2.841.802-1.307 1.194-1.684.392-.376.68-.539.29-.161.428-.192.139-.03.232 0 .092.03.143.053t.325.268q.278.247.96 1.932.683 1.684 1.21 4.54.528 2.856.67 3.947.143 1.09.276 2.488.134 1.396.17 2.524.008.037-.122 1.477" style="display:inline"/>
    <path fill="none" stroke="#f3ba38" stroke-linecap="round" stroke-linejoin="round" stroke-width="1.333" d="M761.7 230.121q.306-.104 1.38-.402 1.076-.299 2.524-.72 1.449-.423 2.316-.69.866-.265 1.54-.46.112-.017.2-.048.088-.03.236-.097t.702-.353m16.115-94.186q-.028.375-.059 2.586t-.043 4.597.043 6.043q.053 3.657.314 9.596.013.102.069 1.148" style="display:inline"/>
    <path fill="none" stroke="#f3ba38" stroke-linecap="round" stroke-linejoin="round" stroke-width="1.333" d="M786.688 135.559q.21-.076.53-.247.322-.172 1.088-.507.768-.336 1.816-.629t1.686-.353q.637-.062 1.154-.015.518.047.92.165t.686.264.626.456q.343.31.624.848.282.54.37 1.052.09.512.085.935-.005.421-.21 1.239-.206.817-.785 1.898t-1.185 1.827q-.607.747-1.053 1.176-.446.43-.988.856-.543.424-.708.513-.166.088-.102.031.064-.059.214-.143.15-.085.388-.196.238-.11.774-.304.538-.193 2.64-.634 2.103-.442 3.39-.474 1.288-.032 2.272.126.984.156 1.52.344t.982.444.798.564q.349.309.678.79.33.483.498.979.166.497.2 1.032.036.533-.08 1.155-.115.621-.447 1.357-.332.735-.627 1.168-.294.435-.66.833-.365.4-.937.871-.573.47-1.563 1.053-.99.584-2.454 1.188t-2.634.95q-1.17.345-1.884.514-.712.168-1.382.288-.671.12-1.474.212t-1.901.234q-.235.05-.901.153m-109.996 69.169q.04-.217.285-1.713.245-1.497.33-2.945t.042-2.127-.25-1.705q-.205-1.027-.578-1.86-.373-.832-.692-1.262-.32-.429-.493-.605-.174-.175-.498-.423-.322-.249-1.498-.604-1.175-.353-1.944-.321-.768.033-1.24.137-.47.104-.991.316t-.895.428-.87.586-1.448 1.417-1.798 2.675-1.101 2.561-.321 2.493q-.066 1.562.113 2.483.18.92.481 1.623.302.701.664 1.222.362.522.762.907t.997.733q.596.35 1.512.566.915.214 1.45.217.533.004 1.849-.353 1.314-.356 2.105-.791.792-.433 1.315-.821t1.264-1.074 1.498-1.521l.514-.62" style="display:inline"/>
    <path fill="none" stroke="#f3ba38" stroke-linecap="round" stroke-linejoin="round" stroke-width="1.333" d="M674.308 223.095q.372.418.733.876.36.457.961 1.18.602.722 1.487 1.788t1.607 1.96q.72.893 1.226 1.532m-270.6-3.918q.112-.22.178-.313t.182-.253.278-.399.534-.875.928-1.849q.554-1.212.818-2.067.262-.854.397-1.745t.123-1.493q-.012-.6-.1-1.1-.09-.5-.351-1.11-.26-.608-.603-1.037t-.608-.648q-.265-.22-.65-.423-.383-.201-.875-.325-.493-.125-.944-.145t-1.439.165-1.645.44-1.547.773-1.624 1.114q-.733.594-1.506 1.428-.772.833-1.75 2.456-.976 1.624-1.286 2.498t-.46 1.662q-.151.786-.158 1.441-.008.653.034.976.04.324.18.801.14.479.469 1.052.328.575.903 1.071.574.497.929.641.356.146.71.22t2.06-.23q1.706-.306 2.69-.732t1.376-.63q.392-.205.643-.344.252-.14.562-.324.312-.184.568-.346.256-.164 1.163-.664" style="display:inline"/>
    <path fill="none" stroke="#f3ba38" stroke-linecap="round" stroke-linejoin="round" stroke-width="1.333" d="m407.424 223.252.137.25q.112.22.519.826.406.605 1.256 1.781.849 1.175 1.094 1.523.246.35.538.801.129.167.557.85m-269.601-3.982q.92-1.017 1.568-1.805.646-.79 1.129-1.499.483-.708.892-1.464t.761-1.801q.352-1.047.454-2.436.1-1.39-.038-2.14-.137-.752-.47-1.484t-.744-1.24q-.412-.508-.912-.883-.502-.374-1.076-.606t-1.328-.342-2.3.214q-1.544.321-2.403.737-.857.416-1.657.964t-1.942 1.676-1.84 2.141q-.698 1.015-1.172 2.07-.473 1.054-.674 1.86-.202.805-.267 1.725-.064.92.072 1.87.137.947.687 2.125.548 1.178.777 1.449.23.27.524.521.293.251.668.464t.908.376q.535.164 1.132.198.596.033 2.132-.379t2.19-.759l.755-.398q.102-.056.319-.187.217-.13.577-.377l1.364-.927" style="display:inline"/>
    <path fill="none" stroke="#f3ba38" stroke-linecap="round" stroke-linejoin="round" stroke-width="1.333" d="M139.916 222.468q.19.275.436.636.244.363.656.923t.902 1.246.876 1.195.998 1.195l.617.814" style="display:inline"/>
</svg>
