<svg xmlns="http://www.w3.org/2000/svg" xml:space="preserve" viewBox="0 0 960 480">
    <g style="display:inline">
        <text xml:space="preserve" x="104.669" y="962.796" style="font-style:normal;font-variant:normal;font-weight:400;font-stretch:normal;font-size:18px;font-family:&quot;JetBrains Mono&quot;;-inkscape-font-specification:&quot;JetBrains Mono&quot;;text-align:start;writing-mode:lr-tb;direction:ltr;text-anchor:start;fill:#fff;fill-opacity:1;stroke:none;stroke-width:2.83465;stroke-linecap:round;stroke-linejoin:round" transform="translate(181.368 -1054.369)scale(1.33333)"><tspan x="104.669" y="962.796" style="font-size:18px;stroke-width:2.83465">A</tspan></text>
        <text xml:space="preserve" x="54.992" y="961.855" style="font-style:normal;font-variant:normal;font-weight:400;font-stretch:normal;font-size:18px;font-family:&quot;JetBrains Mono&quot;;-inkscape-font-specification:&quot;JetBrains Mono&quot;;text-align:start;writing-mode:lr-tb;direction:ltr;text-anchor:start;fill:#fff;fill-opacity:1;stroke:none;stroke-width:2.83465;stroke-linecap:round;stroke-linejoin:round" transform="translate(181.368 -1054.369)scale(1.33333)"><tspan x="54.992" y="961.855" style="font-size:18px;stroke-width:2.83465">B</tspan></text>
        <path fill="none" stroke="#6ac0c8" stroke-linecap="round" stroke-linejoin="round" d="m1.404 968.353 139.416.007m-20.348-59.241 1.04 119.61" style="display:inline" transform="translate(181.368 -1054.369)scale(1.33333)"/>
        <path fill="none" stroke="#9378e3" stroke-linecap="round" stroke-linejoin="round" stroke-width="6.667" d="m235.736 236.263 53.053.67m53.006-53.364 1.73 105.74"/>
        <path fill="none" stroke="#f66640" stroke-linecap="round" stroke-linejoin="round" stroke-width="2.5" d="m-5.741 976.35 7.907-18.492m.088.011 4.765 19.403m-15.795-12.423 15.777 12.39M-8.67 964.167l20.64 1.891m-17.871 10.555 17.902-10.471" style="display:inline" transform="translate(181.368 -1054.369)scale(1.33333)"/>
    </g>
    <g style="display:inline">
        <text xml:space="preserve" x="325.537" y="984.766" style="font-style:normal;font-variant:normal;font-weight:400;font-stretch:normal;font-size:18px;font-family:&quot;JetBrains Mono&quot;;-inkscape-font-specification:&quot;JetBrains Mono&quot;;text-align:start;writing-mode:lr-tb;direction:ltr;text-anchor:start;fill:#fff;fill-opacity:1;stroke:none;stroke-width:2.83465;stroke-linecap:round;stroke-linejoin:round" transform="translate(181.368 -1052.71)scale(1.33333)"><tspan x="325.537" y="984.766" style="font-size:18px;stroke-width:2.83465">A</tspan></text>
        <text xml:space="preserve" x="395.769" y="961.269" style="font-style:normal;font-variant:normal;font-weight:400;font-stretch:normal;font-size:18px;font-family:&quot;JetBrains Mono&quot;;-inkscape-font-specification:&quot;JetBrains Mono&quot;;text-align:start;writing-mode:lr-tb;direction:ltr;text-anchor:start;fill:#fff;fill-opacity:1;stroke:none;stroke-width:2.83465;stroke-linecap:round;stroke-linejoin:round" transform="translate(181.368 -1052.71)scale(1.33333)"><tspan x="395.769" y="961.269" style="font-size:18px;stroke-width:2.83465">B</tspan></text>
        <path fill="none" stroke="#6ac0c8" stroke-linecap="round" stroke-linejoin="round" d="m299.765 967.694 159.883 1.613m-118.945-61.475.175 119.697" style="display:inline" transform="translate(181.368 -1052.71)scale(1.33333)"/>
        <path fill="none" stroke="#9378e3" stroke-linecap="round" stroke-linejoin="round" stroke-width="6.667" d="m636.584 185.564-.67 105.399m53.529-52.566 52.197.636"/>
        <path fill="none" stroke="#f66640" stroke-linecap="round" stroke-linejoin="round" stroke-width="2.5" d="m293.833 975.314 7.907-18.492m.088.011 4.764 19.403m-15.795-12.422 15.778 12.389m-15.671-13.072 20.64 1.891m-17.872 10.555 17.903-10.471" style="display:inline" transform="translate(181.368 -1052.71)scale(1.33333)"/>
    </g>
    <text xml:space="preserve" x="243.265" y="383.061" style="font-size:18.6667px;font-family:&quot;JetBrains Mono&quot;;-inkscape-font-specification:&quot;JetBrains Mono&quot;;text-align:start;writing-mode:lr-tb;direction:ltr;text-anchor:start;fill:#fff;stroke-width:1.33417;stroke-linecap:round;stroke-linejoin:round"><tspan x="243.265" y="383.061">fig 7</tspan></text>
    <text xml:space="preserve" x="647.347" y="383.061" style="font-size:18.6667px;font-family:&quot;JetBrains Mono&quot;;-inkscape-font-specification:&quot;JetBrains Mono&quot;;text-align:start;writing-mode:lr-tb;direction:ltr;text-anchor:start;fill:#fff;stroke-width:1.33417;stroke-linecap:round;stroke-linejoin:round"><tspan x="647.347" y="383.061">fig 8</tspan></text>
</svg>
