<svg xmlns="http://www.w3.org/2000/svg" xml:space="preserve" viewBox="0 0 960 480">
    <g style="display:inline">
        <text xml:space="preserve" x="944.531" y="1595.634" style="font-style:normal;font-variant:normal;font-weight:400;font-stretch:normal;font-size:18px;font-family:&quot;JetBrains Mono&quot;;-inkscape-font-specification:&quot;JetBrains Mono&quot;;text-align:start;writing-mode:lr-tb;direction:ltr;text-anchor:start;fill:#fff;fill-opacity:1;stroke:none;stroke-width:2.83465;stroke-linecap:round;stroke-linejoin:round" transform="translate(-811.292 -1847.518)scale(1.33333)"><tspan x="944.531" y="1595.634" style="font-size:18px;stroke-width:2.83465">A</tspan></text>
        <text xml:space="preserve" x="941.367" y="1546.334" style="font-style:normal;font-variant:normal;font-weight:400;font-stretch:normal;font-size:18px;font-family:&quot;JetBrains Mono&quot;;-inkscape-font-specification:&quot;JetBrains Mono&quot;;text-align:start;writing-mode:lr-tb;direction:ltr;text-anchor:start;fill:#fff;fill-opacity:1;stroke:none;stroke-width:2.83465;stroke-linecap:round;stroke-linejoin:round" transform="translate(-811.292 -1847.518)scale(1.33333)"><tspan x="941.367" y="1546.334" style="font-size:18px;stroke-width:2.83465">B</tspan></text>
        <path fill="none" stroke="#6ac0c8" stroke-linecap="round" stroke-linejoin="round" d="m918.004 1660.013 103.361-151.526m-101.383-30.793 100.331 141.149" style="display:inline" transform="translate(-811.292 -1847.518)scale(1.33333)"/>
        <path fill="none" stroke="#f3ba38" stroke-linecap="round" stroke-linejoin="round" d="m898.192 1567.78 140.554-4.283" style="display:inline" transform="translate(-811.292 -1847.518)scale(1.33333)"/>
        <path fill="none" stroke="#9378e3" stroke-linecap="round" stroke-linejoin="round" stroke-width="6.667" d="m442.572 161.822 55.708 78.01m-56.556 83.128 56.033-83.546"/>
        <path fill="none" stroke="#f66640" stroke-linecap="round" stroke-linejoin="round" stroke-width="2.5" d="m892.343 1576.008 7.908-18.491m.088.011 4.764 19.403m-15.795-12.423 15.778 12.39m-15.671-13.073 20.64 1.891m-17.872 10.556 17.903-10.471" style="display:inline" transform="translate(-811.292 -1847.518)scale(1.33333)"/>
    </g>
    <g style="display:inline">
        <text xml:space="preserve" x="926.927" y="1160.547" style="font-style:normal;font-variant:normal;font-weight:400;font-stretch:normal;font-size:18px;font-family:&quot;JetBrains Mono&quot;;-inkscape-font-specification:&quot;JetBrains Mono&quot;;text-align:start;writing-mode:lr-tb;direction:ltr;text-anchor:start;fill:#fff;fill-opacity:1;stroke:none;stroke-width:2.83465;stroke-linecap:round;stroke-linejoin:round" transform="translate(-469.578 -1313.256)scale(1.33333)"><tspan x="926.927" y="1160.547" style="font-size:18px;stroke-width:2.83465">A</tspan></text>
        <text xml:space="preserve" x="970.742" y="1188.355" style="font-style:normal;font-variant:normal;font-weight:400;font-stretch:normal;font-size:18px;font-family:&quot;JetBrains Mono&quot;;-inkscape-font-specification:&quot;JetBrains Mono&quot;;text-align:start;writing-mode:lr-tb;direction:ltr;text-anchor:start;fill:#fff;fill-opacity:1;stroke:none;stroke-width:2.83465;stroke-linecap:round;stroke-linejoin:round" transform="translate(-469.578 -1313.256)scale(1.33333)"><tspan x="970.742" y="1188.355" style="font-size:18px;stroke-width:2.83465">B</tspan></text>
        <path fill="none" stroke="#6ac0c8" stroke-linecap="round" stroke-linejoin="round" d="m899.728 1249.694 77.341-161.734m-35.641-1.34 80.024 160.304" style="display:inline" transform="translate(-469.578 -1313.256)scale(1.33333)"/>
        <path fill="none" stroke="#f3ba38" stroke-linecap="round" stroke-linejoin="round" d="m901.444 1167.942 97.735-.115" style="display:inline" transform="translate(-469.578 -1313.256)scale(1.33333)"/>
        <path fill="none" stroke="#9378e3" stroke-linecap="round" stroke-linejoin="round" stroke-width="6.667" d="M756.704 297.781 810.909 184.1m.793 1.332 54.811 110.772"/>
        <path fill="none" stroke="#f66640" stroke-linecap="round" stroke-linejoin="round" stroke-width="2.5" d="m892.75 1175.357 7.908-18.491m.088.011 4.764 19.402m-15.795-12.422 15.778 12.39m-15.671-13.073 20.64 1.891m-17.872 10.556 17.903-10.471" style="display:inline" transform="translate(-469.578 -1313.256)scale(1.33333)"/>
    </g>
    <g style="display:inline">
        <text xml:space="preserve" x="645.461" y="1611.223" style="font-style:normal;font-variant:normal;font-weight:400;font-stretch:normal;font-size:18px;font-family:&quot;JetBrains Mono&quot;;-inkscape-font-specification:&quot;JetBrains Mono&quot;;text-align:start;writing-mode:lr-tb;direction:ltr;text-anchor:start;fill:#fff;fill-opacity:1;stroke:none;stroke-width:2.83465;stroke-linecap:round;stroke-linejoin:round" transform="translate(-702.778 -1846.41)scale(1.33333)"><tspan x="645.461" y="1611.223" style="font-size:18px;stroke-width:2.83465">A</tspan></text>
        <text xml:space="preserve" x="647.699" y="1532.381" style="font-style:normal;font-variant:normal;font-weight:400;font-stretch:normal;font-size:18px;font-family:&quot;JetBrains Mono&quot;;-inkscape-font-specification:&quot;JetBrains Mono&quot;;text-align:start;writing-mode:lr-tb;direction:ltr;text-anchor:start;fill:#fff;fill-opacity:1;stroke:none;stroke-width:2.83465;stroke-linecap:round;stroke-linejoin:round" transform="translate(-702.778 -1846.41)scale(1.33333)"><tspan x="647.699" y="1532.381" style="font-size:18px;stroke-width:2.83465">B</tspan></text>
        <path fill="none" stroke="#6ac0c8" stroke-linecap="round" stroke-linejoin="round" d="m598.869 1631.115 100.955-153.706m-100.076 29.905 100.92 151.323" style="display:inline" transform="translate(-702.778 -1846.41)scale(1.33333)"/>
        <path fill="none" stroke="#f3ba38" stroke-linecap="round" stroke-linejoin="round" d="m600.003 1567.789 99.711.548" style="display:inline" transform="translate(-702.778 -1846.41)scale(1.33333)"/>
        <path fill="none" stroke="#9378e3" stroke-linecap="round" stroke-linejoin="round" stroke-width="6.667" d="m150.663 243.312 53.263-79.163m-53.21 80.352 54.102 80.496"/>
        <path fill="none" stroke="#f66640" stroke-linecap="round" stroke-linejoin="round" stroke-width="2.5" d="m592.767 1575.653 7.907-18.492m.089.011 4.764 19.403m-15.795-12.423 15.778 12.39m-15.672-13.072 20.64 1.891m-17.871 10.555 17.903-10.471" style="display:inline" transform="translate(-702.778 -1846.41)scale(1.33333)"/>
    </g>
    <text xml:space="preserve" x="137.551" y="409.592" style="font-size:18.6667px;font-family:&quot;JetBrains Mono&quot;;-inkscape-font-specification:&quot;JetBrains Mono&quot;;text-align:start;writing-mode:lr-tb;direction:ltr;text-anchor:start;fill:#fff;stroke-width:1.33417;stroke-linecap:round;stroke-linejoin:round"><tspan x="137.551" y="409.592">fig 11</tspan></text>
    <text xml:space="preserve" x="461.754" y="409.592" style="font-size:18.6667px;font-family:&quot;JetBrains Mono&quot;;-inkscape-font-specification:&quot;JetBrains Mono&quot;;text-align:start;writing-mode:lr-tb;direction:ltr;text-anchor:start;fill:#fff;stroke-width:1.33417;stroke-linecap:round;stroke-linejoin:round"><tspan x="461.754" y="409.592">fig 12</tspan></text>
    <text xml:space="preserve" x="785.714" y="409.592" style="font-size:18.6667px;font-family:&quot;JetBrains Mono&quot;;-inkscape-font-specification:&quot;JetBrains Mono&quot;;text-align:start;writing-mode:lr-tb;direction:ltr;text-anchor:start;fill:#fff;stroke-width:1.33417;stroke-linecap:round;stroke-linejoin:round"><tspan x="785.714" y="409.592">fig 13</tspan></text>
</svg>
