<svg xmlns="http://www.w3.org/2000/svg" xml:space="preserve" viewBox="0 0 960 480">
    <g style="display:inline" transform="translate(976.692 -1033.582)scale(1.33333)">
        <path fill="none" stroke="#6ac0c8" stroke-linecap="round" stroke-linejoin="round" d="m-596.654 968.314 31.628.146m47.281.219 33.335.172m48.303.641 16.4.076m123.703-1.8 31.628.146m47.281.218 33.335.172m48.303.641 16.401.076"/>
        <path fill="none" stroke="#9378e3" stroke-linecap="round" stroke-linejoin="round" stroke-width="5" d="m-561.13 968.389 39.606.06m41.104.368 40.723.15m179.217-1.125 39.606.06m41.104.368 40.723.151"/>
        <path fill="none" stroke="#f66640" stroke-linecap="round" stroke-linejoin="round" stroke-width="2.5" d="m-607.09 976.259 7.907-18.492m.089.011 4.764 19.403m-15.795-12.423 15.778 12.39m-15.672-13.073 20.64 1.891m-17.871 10.556 17.903-10.471"/>
        <circle cx="-560.427" cy="968.268" r="1.25" fill="#f3ba38" stroke="#f3ba38" stroke-width=".1"/>
        <circle cx="-521.557" cy="968.433" r="1.25" fill="#f3ba38" stroke="#f3ba38" stroke-width=".1"/>
        <path fill="none" stroke="#f3ba38" stroke-linecap="round" stroke-linejoin="round" stroke-width="2.5" d="m-480.14 968.984-.013-.049"/>
        <circle cx="-440.009" cy="969.156" r="1.25" fill="#f3ba38" stroke="#f3ba38" stroke-width=".1"/>
        <path fill="none" stroke="#f3ba38" stroke-linecap="round" stroke-linejoin="round" d="M-616.239 952.06q.19-.179.443-.387.319-.272 1.289-1.321.971-1.048 1.744-2.156.773-1.107 1.208-1.966.436-.859.823-2.029t.578-2.884.104-2.609-.194-1.357-.387-1.155-.629-1.194q-.348-.502-.622-.769-.274-.266-.513-.437t-.838-.415q-.599-.245-1.253-.329-.655-.084-1.082-.056-.426.028-.759.082-.332.055-1.566.505t-2.233 1.116q-1 .666-1.451 1.067-.45.401-1.018 1.044-.567.643-1.08 1.41t-1.033 1.898q-.52 1.133-.902 2.831-.381 1.697-.372 3.173t.141 2.209q.131.734.342 1.381.21.647.493 1.209.283.561.456.823t.4.527q.225.267.487.513t.898.616.996.47.568.133.489.039.535-.013q.256-.02 1.202-.317.947-.297 1.557-.662.609-.366 1.13-.779t.778-.664.454-.468.645-.637"/>
        <path fill="none" stroke="#f3ba38" stroke-linecap="round" stroke-linejoin="round" d="M-617.203 947.593q.071.092.321.515.249.422.807 1.262t1.289 1.83 1.382 1.734q.028.013.221.139l.489.315m43.796 8.892q.069-.409.486-2.125.416-1.716 1.272-5.142.855-3.426 1.487-5.48.632-2.053.982-2.83.351-.776 1.105-1.56.108.038.505.89t.716 2.547.488 2.922.425 3.209q.254 1.983.371 2.925t.23 1.78.267 1.733q.024.104.104 1.257"/>
        <path fill="none" stroke="#f3ba38" stroke-linecap="round" stroke-linejoin="round" d="M-567.896 957.673q.407-.129 2.122-.557 1.715-.427 4.586-1.201m86.556-5.745-.151-.187q-.092-.126-.437-.664-.346-.539-.597-.877-.252-.339-.472-.589t-.543-.537-.662-.501q-.338-.215-.684-.362-.345-.146-.824-.24-.479-.093-.87-.084-.392.009-.811.11-.42.1-.913.347-.493.248-.768.454t-.612.546q-.336.34-.714.886-.378.545-.569.93-.192.386-.453 1.185t-.381 1.79-.053 1.859.16 1.286.337 1.055q.245.637.585 1.178t.779.983.856.713q.418.272.849.439t.984.252 1.117.035q.563-.051.801-.113t.701-.242q.461-.18.829-.383.367-.202.881-.578.514-.377.847-.675t.473-.431q.141-.132.598-.622.17-.169.361-.375m30.591-10.096q.006.063-.006.564.001.17.043 1.352.041 1.181.162 2.762.122 1.58.201 2.426.079.845.155 1.635t.215 2.108.264 2.213.184 1.19q.057.296.104.457t.101.388"/>
        <path fill="none" stroke="#f3ba38" stroke-linecap="round" stroke-linejoin="round" d="M-443.273 947.578q.192-.072.329-.12.136-.047.839-.257t1.428-.357q.724-.148 1.142-.186t1.048-.014 1.079.117.686.172.751.34q.516.259.948.6.433.34.656.578t.387.45.552.96q.39.748.531 1.22t.204 1.073-.056 1.447-.322 1.393-.457 1.001q-.255.453-.467.744t-.389.497q-.176.206-.457.491-.282.284-.976.84-.693.556-1.753 1.245-1.06.688-1.882 1.148t-1.468.78q-.647.321-.727.363l-.685.364m-83.179-15.969-.024.419q.005.552.038 2.317.032 1.765.113 3.778.08 2.013.259 5.593.016.233.035 1.166"/>
        <path fill="none" stroke="#f3ba38" stroke-linecap="round" stroke-linejoin="round" d="M-526.589 947.612q.28-.155.695-.364.415-.21 1.19-.552t1.376-.543 1.206-.32 1.04-.121.772.058.692.261q.354.203.563.447.209.245.287.399t.132.448q.055.295-.069.859-.124.563-.38 1.069-.255.505-.651 1.025-.397.519-.699.843t-.453.468l-.265.253q-.114.108-.748.742.04.031.266.084.227.053.592.044.364-.01.633-.022.269-.013.898-.006t1.26.081 1.036.186q.405.111.623.183.219.072.612.289.394.218.899.684.506.466.722.817t.307.618.124.699-.028.728q-.06.296-.15.504t-.284.521-.533.668q-.339.357-.907.751-.567.394-1.441.778t-1.842.642q-.968.257-1.995.43-1.027.174-2.164.403-.085.022-.856.053l-.471.056"/>
        <path fill="none" stroke="#f66640" stroke-linecap="round" stroke-linejoin="round" stroke-width="2.5" d="m-306.44 975.712 7.908-18.492m.088.012 4.764 19.402m-15.795-12.422 15.778 12.389m-15.671-13.072 20.64 1.891m-17.872 10.555 17.903-10.471"/>
        <circle cx="-259.777" cy="967.722" r="1.25" fill="#f3ba38" stroke="#f3ba38" stroke-width=".1"/>
        <circle cx="-220.907" cy="967.887" r="1.25" fill="#f3ba38" stroke="#f3ba38" stroke-width=".1"/>
        <path fill="none" stroke="#f3ba38" stroke-linecap="round" stroke-linejoin="round" stroke-width="2.5" d="m-179.489 968.438-.014-.049"/>
        <circle cx="-139.359" cy="968.609" r="1.25" fill="#f3ba38" stroke="#f3ba38" stroke-width=".1"/>
        <path fill="none" stroke="#f3ba38" stroke-linecap="round" stroke-linejoin="round" d="M-315.588 951.513q.189-.179.443-.386.318-.273 1.289-1.321t1.743-2.156q.773-1.108 1.209-1.967.435-.858.822-2.029.388-1.17.579-2.884t.103-2.608q-.087-.895-.194-1.358-.106-.463-.387-1.155-.28-.692-.629-1.194-.348-.502-.622-.768-.274-.267-.513-.437-.238-.171-.838-.415-.599-.245-1.253-.329-.655-.084-1.081-.056-.427.027-.76.082-.332.054-1.566.505-1.233.45-2.233 1.115-1 .666-1.45 1.067-.451.402-1.019 1.045t-1.08 1.409-1.033 1.899q-.52 1.132-.901 2.83-.382 1.698-.372 3.173.009 1.475.14 2.209.132.734.342 1.381t.493 1.209.457.823.399.528.488.513.898.615.995.47.568.133.489.04q.28.006.536-.013.255-.02 1.202-.317.946-.297 1.556-.663.61-.365 1.13-.779.521-.413.779-.664.257-.251.453-.468.197-.217.646-.637"/>
        <path fill="none" stroke="#f3ba38" stroke-linecap="round" stroke-linejoin="round" d="M-316.553 947.047q.072.091.321.514t.808 1.263 1.288 1.829q.73.99 1.382 1.735.028.013.221.138l.49.315m128.077 10.178q.069-.409.486-2.125.416-1.716 1.272-5.142.855-3.426 1.487-5.48t.982-2.83q.351-.776 1.105-1.56.108.038.505.89t.716 2.547q.318 1.695.488 2.921.17 1.227.425 3.21.254 1.982.371 2.925t.23 1.779q.113.838.267 1.733.024.105.105 1.257"/>
        <path fill="none" stroke="#f3ba38" stroke-linecap="round" stroke-linejoin="round" d="M-182.964 958.412q.407-.13 2.122-.557t4.586-1.202m-79.026-6.008-.15-.188q-.092-.125-.438-.663-.345-.539-.597-.877-.252-.339-.471-.589-.22-.25-.544-.537t-.662-.502-.683-.361q-.346-.146-.824-.24-.479-.093-.871-.084-.391.009-.811.11-.419.1-.912.347-.493.248-.768.454-.275.205-.612.546-.337.34-.715.886-.377.545-.569.93t-.453 1.185-.381 1.79-.052 1.859.16 1.286.337 1.055q.244.637.584 1.177.34.541.779.984t.857.713q.417.272.849.439.431.167.984.252t1.116.035q.564-.051.802-.113t.7-.242.829-.383q.368-.202.882-.578.514-.377.846-.676.333-.298.473-.43.141-.132.598-.622.171-.17.361-.375m31.09-10.45q.006.064-.006.564.001.17.042 1.352.041 1.181.163 2.762t.201 2.426.155 1.635.215 2.109q.139 1.318.264 2.213.126.894.183 1.189.058.296.105.457t.101.388"/>
        <path fill="none" stroke="#f3ba38" stroke-linecap="round" stroke-linejoin="round" d="M-223.425 947.7q.193-.073.33-.12.136-.048.839-.258t1.427-.357q.725-.147 1.143-.186t1.048-.014 1.079.118q.449.092.686.172.236.08.751.339t.948.6q.432.341.656.578.224.238.387.45.162.213.552.96.39.748.531 1.22t.204 1.074-.056 1.446-.322 1.393-.457 1.001q-.255.453-.467.744t-.389.497q-.176.206-.458.491-.281.285-.975.84-.693.556-1.753 1.245t-1.882 1.148-1.469.78-.727.363l-.685.364m81.254-16.227-.024.419q.005.552.038 2.317.032 1.765.113 3.778.08 2.013.259 5.593.016.233.035 1.166"/>
        <path fill="none" stroke="#f3ba38" stroke-linecap="round" stroke-linejoin="round" d="M-142.308 947.475q.28-.155.695-.364.415-.21 1.19-.552t1.376-.543 1.206-.32q.606-.118 1.04-.121.434-.002.772.058.338.059.692.261.354.203.563.447.209.245.287.399t.132.448q.055.295-.069.859t-.38 1.069q-.255.506-.651 1.025-.397.519-.699.843t-.453.468l-.265.253q-.114.108-.748.742.04.031.266.084.227.053.592.044.364-.009.633-.022t.898-.006 1.26.081 1.036.186q.405.111.623.183.219.072.612.289.394.218.899.684.506.467.722.817t.307.618q.092.267.124.699t-.028.728-.15.504-.284.521-.533.668q-.339.357-.907.751-.567.394-1.441.778t-1.842.642q-.968.257-1.995.43-1.027.174-2.164.403-.085.022-.856.053l-.471.056"/>
    </g>
</svg>
