<svg xmlns="http://www.w3.org/2000/svg" xml:space="preserve" viewBox="0 0 960 480">
    <g transform="translate(-597.908 -2652.493)scale(1.33333)">
        <path fill="none" stroke="#6ac0c8" stroke-linecap="round" stroke-linejoin="round" d="m599.323 2231.923 39.261-59.776m43.64-66.443 18.054-27.487m-100.076 29.905 38.025 57.016m44.897 67.32 17.998 26.987m214.2 1.077 20.694-28.117m49.467-67.211 38.563-52.397m-100.215-34.406 17.763 26.988m43.514 66.112 33.932 51.553" style="display:inline"/>
        <path fill="none" stroke="#f3ba38" stroke-linecap="round" stroke-linejoin="round" d="m605.741 2168.626 31.327.172m7.701.043 55.399.304m206.642-1.463 70.69.38m8.893.048 53.051.285" style="display:inline"/>
        <path fill="none" stroke="#9378e3" stroke-linecap="round" stroke-linejoin="round" stroke-width="5" d="m640.535 2168.1 39.947-59.372m-39.907 60.264 40.576 60.372m262.398-121.15 39.293 60.167m-44.624 60.786 44.243-61.112" style="display:inline"/>
        <path fill="none" stroke="#f66640" stroke-linecap="round" stroke-linejoin="round" stroke-width="2.5" d="m593.221 2176.461 7.907-18.492m.088.011 4.765 19.403m-15.795-12.423 15.778 12.39m-15.672-13.072 20.64 1.891m-17.871 10.555 17.902-10.471m281.725 9.399 8.565-18.196m.087.014 4.066 19.561m-15.34-12.981 15.324 12.947m-15.192-13.625 20.559 2.629m-18.239 9.908 18.267-9.823" style="display:inline"/>
        <path fill="none" stroke="#f3ba38" stroke-linecap="round" stroke-linejoin="round" stroke-width="2.5" d="M679.963 2109.526q.106-.14.182-.296" style="display:inline"/>
        <circle cx="640.488" cy="2168.516" r="1.25" fill="#f3ba38" stroke="#f3ba38" stroke-width=".1" style="display:inline"/>
        <circle cx="680.971" cy="2229.179" r="1.25" fill="#f3ba38" stroke="#f3ba38" stroke-width=".1" style="display:inline"/>
        <circle cx="982.229" cy="2168.154" r="1.25" fill="#f3ba38" stroke="#f3ba38" stroke-width=".1" style="display:inline"/>
        <circle cx="938.411" cy="2228.714" r="1.25" fill="#f3ba38" stroke="#f3ba38" stroke-width=".1" style="display:inline"/>
        <circle cx="943.682" cy="2108.372" r="1.25" fill="#f3ba38" stroke="#f3ba38" stroke-width=".1" style="display:inline"/>
        <path fill="none" stroke="#f3ba38" stroke-linecap="round" stroke-linejoin="round" d="M587.161 2152.431q.19-.179.443-.386.319-.272 1.289-1.321t1.744-2.156q.773-1.108 1.208-1.966.436-.859.823-2.029.387-1.171.578-2.885t.104-2.608-.194-1.358q-.107-.463-.387-1.155-.281-.692-.629-1.194-.349-.502-.623-.769-.274-.266-.512-.436-.239-.17-.838-.415t-1.254-.329q-.654-.084-1.081-.056t-.759.082-1.566.505q-1.233.45-2.233 1.116-1 .665-1.451 1.067-.45.401-1.018 1.044t-1.08 1.409-1.033 1.899-.902 2.83-.372 3.173.141 2.209.341 1.381q.211.648.494 1.209.282.562.456.823t.4.528.487.513.898.615q.636.37.996.47.359.1.568.133t.489.04q.28.01.535-.013.256-.02 1.202-.317.947-.297 1.556-.663.61-.365 1.131-.778t.778-.665.454-.468q.196-.217.645-.637" style="display:inline"/>
        <path fill="none" stroke="#f3ba38" stroke-linecap="round" stroke-linejoin="round" d="M586.197 2147.965q.071.091.32.514.25.423.808 1.263t1.289 1.83 1.382 1.734q.028.013.221.138.193.126.489.316m295.595-3.52q.196-.172.457-.37.328-.261 1.335-1.274 1.008-1.014 1.82-2.093t1.278-1.921.895-1.999q.429-1.155.681-2.861t.197-2.603-.145-1.364-.345-1.168-.586-1.216-.594-.79q-.265-.276-.497-.455-.233-.179-.823-.445-.589-.266-1.241-.373-.651-.108-1.078-.095t-.762.055-1.583.448-2.272 1.035-1.487 1.014q-.465.385-1.055 1.007-.591.623-1.131 1.37-.539.747-1.1 1.861-.56 1.113-1.002 2.796-.443 1.683-.486 3.158t.062 2.212.292 1.393q.186.654.449 1.226.263.571.427.838t.38.542.469.53.876.647.978.505.563.154.487.057.535.01q.256-.011 1.213-.274.956-.262 1.579-.606.622-.343 1.158-.738t.801-.636.47-.451q.204-.21.668-.614" style="display:inline"/>
        <path fill="none" stroke="#f3ba38" stroke-linecap="round" stroke-linejoin="round" d="M885.498 2145.742q.068.094.302.525t.761 1.291q.528.859 1.223 1.875.694 1.015 1.319 1.782.027.014.216.147l.477.332m53.713 93.052q.084-.406.562-2.106.477-1.7 1.455-5.093.977-3.393 1.682-5.423.706-2.03 1.084-2.793t1.159-1.52q.107.042.474.908.366.865.623 2.571.258 1.705.384 2.937t.309 3.222.266 2.937.166 1.786q.083.841.206 1.742.019.105.059 1.26" style="display:inline"/>
        <path fill="none" stroke="#f3ba38" stroke-linecap="round" stroke-linejoin="round" d="M944.676 2240.178q.411-.115 2.14-.481 1.729-.365 4.626-1.036m-288.109 5.659q.069-.409.485-2.125.417-1.716 1.272-5.142t1.488-5.48q.631-2.053.982-2.83.351-.776 1.104-1.56.109.038.506.89t.715 2.547.489 2.922.424 3.209q.255 1.982.372 2.925t.229 1.78.268 1.732q.024.105.104 1.258" style="display:inline"/>
        <path fill="none" stroke="#f3ba38" stroke-linecap="round" stroke-linejoin="round" d="M664.335 2239.713q.407-.13 2.122-.557t4.586-1.201m-34.954-50.365-.024.419q.005.552.038 2.317.032 1.765.112 3.778.081 2.013.259 5.593.017.234.036 1.166" style="display:inline"/>
        <path fill="none" stroke="#f3ba38" stroke-linecap="round" stroke-linejoin="round" d="M635.011 2188.704q.28-.155.694-.364.415-.21 1.19-.552t1.376-.543 1.207-.32q.606-.118 1.04-.121.434 0 .772.058.337.059.692.262.354.202.563.447.209.244.287.398t.132.448q.055.295-.069.859-.125.564-.38 1.069-.255.506-.652 1.025-.396.519-.698.843t-.453.468l-.265.253q-.114.108-.748.742.039.031.266.084.226.053.591.044t.634-.022.897-.01q.629.01 1.261.081.631.074 1.036.186t.623.183q.218.072.612.289.394.218.899.684.506.467.722.817t.307.618q.091.267.124.699.032.432-.028.728-.061.297-.15.504-.09.208-.284.52-.195.313-.534.669t-.906.751q-.568.394-1.441.778t-1.842.642-1.995.43q-1.028.174-2.165.404-.084.021-.855.052l-.472.056m342.004-17.148-.024.419q.005.552.038 2.317.032 1.764.113 3.778.08 2.013.258 5.593.017.233.036 1.166" style="display:inline"/>
        <path fill="none" stroke="#f3ba38" stroke-linecap="round" stroke-linejoin="round" d="M977.925 2186.829q.28-.156.695-.365t1.189-.551q.775-.342 1.376-.543t1.207-.32 1.04-.121q.434 0 .772.057.337.06.692.262t.563.447.287.399q.077.154.132.448t-.069.858-.38 1.07q-.255.505-.652 1.025-.396.519-.698.842-.302.324-.453.469l-.265.253q-.114.108-.748.742.04.031.266.084t.591.043.634-.021q.268-.013.897-.01.629.01 1.261.081.631.075 1.036.186.405.112.623.184.218.071.612.289t.899.684.722.816q.216.351.307.618.091.268.124.7.032.431-.028.728-.061.296-.15.504-.09.208-.284.52-.195.312-.534.669t-.906.751-1.441.778-1.842.641-1.995.431-2.165.403q-.084.022-.855.053l-.472.056m-335.033-59.318-.151-.188q-.091-.125-.437-.664-.346-.538-.597-.877-.252-.338-.471-.588-.22-.25-.544-.537t-.662-.502-.683-.361q-.346-.146-.825-.24-.478-.093-.87-.084-.392.01-.811.109-.419.1-.912.348t-.768.454q-.276.205-.612.545-.337.341-.715.886-.378.546-.569.931-.192.385-.453 1.184t-.381 1.79q-.12.992-.053 1.86.068.868.161 1.285.092.418.337 1.055.244.637.584 1.178t.779.984q.439.442.856.713.418.271.849.438.432.167.985.253t1.116.034q.563-.05.802-.112.238-.063.7-.242.462-.18.829-.383.368-.202.882-.579t.846-.675.473-.431.598-.621q.171-.17.361-.375m344.593-4.77-.151-.187q-.092-.126-.437-.664-.346-.539-.598-.877-.251-.339-.471-.589t-.543-.537-.662-.501q-.338-.215-.684-.362-.345-.146-.824-.24-.479-.093-.87-.084-.392.01-.811.11t-.913.347-.768.454-.612.546q-.337.34-.714.886-.378.545-.57.93t-.452 1.185q-.261.799-.382 1.79-.12.991-.052 1.859t.16 1.286.337 1.055.585 1.178.779.983.856.714.849.438.984.252 1.116.035.802-.113.7-.242.83-.383q.367-.202.881-.578.514-.377.847-.675t.473-.431.598-.622q.17-.17.361-.375m-323.572-57.562q.006.064-.005.564.001.17.042 1.352t.163 2.762.2 2.426.155 1.635.215 2.109q.139 1.318.265 2.213.125.894.183 1.19t.104.456q.047.162.102.388" style="display:inline"/>
        <path fill="none" stroke="#f3ba38" stroke-linecap="round" stroke-linejoin="round" d="M667.313 2093.432q.192-.073.329-.12.137-.048.839-.258.703-.21 1.428-.357t1.143-.186q.418-.038 1.047-.013.63.024 1.079.117.45.092.686.172t.752.339.947.6q.433.341.656.579t.387.449q.163.213.553.96.389.748.53 1.22t.204 1.074q.064.601-.056 1.446-.119.846-.322 1.393-.203.548-.457 1.001-.254.454-.467.744-.212.291-.388.497t-.458.491-.976.84q-.693.556-1.753 1.245t-1.882 1.148-1.468.78-.727.363l-.685.364m280.114-19.771q.006.063-.006.564.001.169.042 1.351t.163 2.763.201 2.426q.078.845.155 1.635.076.79.215 2.108.138 1.319.264 2.213t.183 1.19.104.457.102.388" style="display:inline"/>
        <path fill="none" stroke="#f3ba38" stroke-linecap="round" stroke-linejoin="round" d="M948.491 2089.465q.193-.072.329-.12.137-.047.84-.258.702-.21 1.427-.357t1.143-.186q.418-.038 1.048-.013t1.079.117.685.172.752.339q.515.26.948.601t.656.578q.224.238.386.45.163.212.553.96.39.747.531 1.22.141.472.204 1.073t-.056 1.447q-.12.845-.322 1.393-.203.547-.458 1.001-.254.453-.466.744t-.389.497-.458.49q-.282.285-.975.841t-1.754 1.244q-1.06.689-1.881 1.149-.822.459-1.469.78t-.727.363l-.685.364" style="display:inline"/>
    </g>
</svg>
