<svg xmlns="http://www.w3.org/2000/svg" xml:space="preserve" viewBox="0 0 960 480">
    <path fill="none" stroke="#6ac0c8" stroke-linecap="round" stroke-linejoin="round" d="m201.187 323.397 52.348-79.701m58.187-88.59 24.072-36.65M202.359 158.33l50.7 76.021m59.863 89.76 23.997 35.983m285.6 1.436 27.591-37.49m65.956-89.614 51.417-69.862m-133.62-45.875 23.685 35.984m58.018 88.15 45.243 68.736" style="display:inline;stroke-width:1.33333"/>
    <path fill="none" stroke="#f3ba38" stroke-linecap="round" stroke-linejoin="round" d="m209.745 239.001 41.769.23m10.268.057 73.865.405m275.522-1.95 94.253.506m11.857.064 70.735.38" style="display:inline;stroke-width:1.33333"/>
    <path fill="none" stroke="#9378e3" stroke-linecap="round" stroke-linejoin="round" stroke-width="6.667" d="m256.137 238.3 53.262-79.163m-53.21 80.352 54.102 80.496m349.863-161.533 52.39 80.222m-59.498 81.048 58.99-81.482" style="display:inline"/>
    <path fill="none" stroke="#f66640" stroke-linecap="round" stroke-linejoin="round" stroke-width="3.333" d="m193.051 249.448 10.543-24.656m.117.015 6.354 25.87m-21.06-16.564 21.037 16.52m-20.896-17.43 27.52 2.522m-23.828 14.073 23.87-13.96m375.632 12.531 11.42-24.261m.116.019 5.421 26.08M588.844 232.9l20.432 17.262m-20.256-18.166 27.412 3.505m-24.319 13.21 24.356-13.096" style="display:inline"/>
    <path fill="none" stroke="#f3ba38" stroke-linecap="round" stroke-linejoin="round" stroke-width="3.333" d="M308.707 160.201q.141-.186.243-.394" style="display:inline"/>
    <circle cx="256.074" cy="238.855" r="1.667" fill="#f3ba38" stroke="#f3ba38" stroke-width=".133" style="display:inline"/>
    <circle cx="310.051" cy="319.738" r="1.667" fill="#f3ba38" stroke="#f3ba38" stroke-width=".133" style="display:inline"/>
    <circle cx="711.727" cy="238.372" r="1.667" fill="#f3ba38" stroke="#f3ba38" stroke-width=".133" style="display:inline"/>
    <circle cx="653.304" cy="319.118" r="1.667" fill="#f3ba38" stroke="#f3ba38" stroke-width=".133" style="display:inline"/>
    <circle cx="660.332" cy="158.663" r="1.667" fill="#f3ba38" stroke="#f3ba38" stroke-width=".133" style="display:inline"/>
    <path fill="none" stroke="#f3ba38" stroke-linecap="round" stroke-linejoin="round" d="M184.971 217.408q.254-.239.591-.515.425-.363 1.719-1.761 1.293-1.399 2.325-2.875 1.03-1.477 1.61-2.621.582-1.145 1.098-2.705.516-1.562.77-3.847.255-2.285.14-3.477-.117-1.192-.26-1.811-.142-.617-.515-1.54-.375-.923-.839-1.592-.465-.67-.83-1.025-.366-.355-.683-.582-.319-.226-1.118-.553-.798-.327-1.672-.439-.872-.112-1.441-.074-.57.037-1.012.109t-2.088.673q-1.644.6-2.977 1.488-1.334.887-1.935 1.423-.6.535-1.357 1.392-.758.857-1.44 1.879-.683 1.02-1.378 2.531t-1.202 3.774-.496 4.23q.012 1.968.188 2.946.176.977.454 1.841.282.864.66 1.612.375.75.607 1.097.232.348.533.704t.65.684 1.197.82q.848.494 1.328.627.479.133.757.177.28.044.652.054.374.013.714-.018.341-.026 1.602-.422 1.263-.396 2.075-.884.813-.487 1.508-1.038.695-.55 1.037-.886.343-.336.606-.624.261-.29.86-.85" style="display:inline;stroke-width:1.33333"/>
    <path fill="none" stroke="#f3ba38" stroke-linecap="round" stroke-linejoin="round" d="M183.686 211.453q.095.122.427.686.333.563 1.077 1.683t1.719 2.44q.974 1.32 1.842 2.312.038.018.295.184.257.168.652.422m394.126-4.693q.261-.23.609-.494.437-.348 1.78-1.698 1.344-1.352 2.427-2.791t1.704-2.561 1.193-2.666q.572-1.54.908-3.814t.263-3.471-.194-1.819-.46-1.557-.781-1.621-.792-1.054q-.353-.368-.663-.606-.31-.24-1.097-.594-.785-.354-1.655-.497-.868-.144-1.437-.127-.57.018-1.016.074t-2.11.597-3.03 1.38-1.983 1.352q-.62.513-1.406 1.343-.788.83-1.508 1.826-.719.996-1.467 2.482-.747 1.484-1.336 3.727-.59 2.244-.648 4.211-.057 1.967.083 2.95.14.982.39 1.857.247.872.598 1.634.35.762.57 1.118.218.356.506.722.288.367.625.707t1.168.863q.83.522 1.304.673.473.15.75.205.278.055.65.076.372.022.713.014.342-.015 1.618-.366 1.274-.349 2.105-.808.83-.457 1.544-.984t1.068-.848q.353-.32.627-.6.272-.28.89-.82" style="display:inline;stroke-width:1.33333"/>
    <path fill="none" stroke="#f3ba38" stroke-linecap="round" stroke-linejoin="round" d="M582.753 208.49q.09.125.403.7.312.574 1.014 1.72.704 1.146 1.631 2.5.925 1.354 1.759 2.376.036.02.288.196l.636.443m71.617 124.07q.112-.542.75-2.809.635-2.266 1.94-6.79 1.302-4.524 2.242-7.231.941-2.707 1.445-3.724t1.546-2.027q.142.056.632 1.21.488 1.154.83 3.429.344 2.273.512 3.916t.412 4.296.355 3.916.221 2.381q.11 1.122.275 2.323.025.14.079 1.68" style="display:inline;stroke-width:1.33333"/>
    <path fill="none" stroke="#f3ba38" stroke-linecap="round" stroke-linejoin="round" d="M661.657 334.404q.548-.154 2.853-.642 2.306-.486 6.168-1.381m-384.144 7.545q.092-.545.646-2.833.556-2.288 1.696-6.856t1.984-7.307q.842-2.737 1.31-3.773.468-1.035 1.472-2.08.145.05.674 1.187.53 1.136.954 3.396t.652 3.896.565 4.278q.34 2.643.496 3.9t.305 2.374.358 2.309q.032.14.138 1.677" style="display:inline;stroke-width:1.33333"/>
    <path fill="none" stroke="#f3ba38" stroke-linecap="round" stroke-linejoin="round" d="M287.87 333.784q.542-.174 2.83-.743 2.286-.57 6.114-1.601m-46.605-67.154-.032.559q.007.736.05 3.09t.15 5.037q.108 2.684.345 7.457.023.312.048 1.555" style="display:inline;stroke-width:1.33333"/>
    <path fill="none" stroke="#f3ba38" stroke-linecap="round" stroke-linejoin="round" d="M248.771 265.772q.374-.207.926-.486.553-.28 1.586-.736 1.034-.456 1.835-.724t1.61-.426q.807-.158 1.386-.162.579 0 1.03.078.449.078.922.349.472.27.75.596.28.325.383.53.104.206.176.598.073.393-.092 1.145-.166.752-.506 1.426t-.87 1.366q-.528.692-.93 1.124-.403.432-.604.624l-.354.338q-.152.144-.997.989.052.041.355.112.3.07.788.059.486-.014.845-.03.359-.017 1.196-.013.839.013 1.681.108.842.099 1.382.248.54.15.83.244.29.096.816.385.526.291 1.199.912.675.623.963 1.09.288.466.409.824.121.356.165.932.043.576-.037.97-.081.396-.2.672-.12.278-.379.694-.26.417-.712.892-.452.474-1.208 1.001-.757.525-1.921 1.037t-2.456.856-2.66.574q-1.37.232-2.887.538-.112.028-1.14.07l-.63.074m456.005-22.864-.032.56q.007.735.05 3.088.044 2.352.151 5.038.107 2.684.344 7.457.023.31.048 1.555" style="display:inline;stroke-width:1.33333"/>
    <path fill="none" stroke="#f3ba38" stroke-linecap="round" stroke-linejoin="round" d="M705.989 263.272q.373-.208.926-.487.554-.279 1.586-.735t1.834-.724 1.61-.426 1.386-.162q.579 0 1.03.076.449.08.922.35t.751.596.383.532q.102.205.176.597.073.392-.092 1.144-.166.752-.507 1.427-.34.673-.87 1.366-.527.692-.93 1.123t-.604.625l-.353.338q-.152.144-.998.989.054.041.355.112.301.07.788.057t.845-.028q.358-.017 1.196-.013.839.013 1.682.108.841.1 1.381.248.54.15.83.245.291.095.817.386.525.29 1.198.912.674.621.963 1.088t.41.824.165.933q.042.575-.038.97t-.2.673-.378.693q-.26.416-.712.892t-1.208 1.001-1.922 1.038-2.456.854-2.66.575-2.886.537q-.112.03-1.14.071l-.63.075m-446.71-79.09-.2-.251q-.122-.167-.583-.886-.461-.717-.796-1.17-.336-.45-.628-.783-.293-.333-.725-.716t-.883-.67-.91-.48q-.462-.195-1.1-.32t-1.16-.113q-.523.014-1.082.146-.559.133-1.216.464-.657.33-1.024.605-.368.273-.816.727-.45.454-.953 1.18-.504.729-.76 1.242-.255.514-.603 1.579t-.508 2.387-.07 2.48.214 1.713q.123.557.45 1.407.325.849.778 1.57t1.039 1.312 1.14.95q.558.362 1.133.585.576.223 1.313.337.738.115 1.488.046.75-.067 1.07-.15.317-.084.933-.322.616-.24 1.105-.511.49-.27 1.176-.772.686-.503 1.128-.9.443-.397.63-.575.189-.177.798-.828.228-.226.482-.5m459.456-6.36-.202-.25q-.122-.167-.582-.884-.462-.72-.798-1.17-.334-.452-.628-.785-.293-.333-.724-.716-.43-.383-.882-.668-.45-.287-.912-.483-.46-.194-1.099-.32-.639-.124-1.16-.112-.523.014-1.081.147-.559.133-1.218.463-.658.329-1.024.605-.365.276-.816.728-.449.453-.952 1.181-.504.727-.76 1.24-.256.514-.602 1.58-.348 1.066-.51 2.387-.16 1.321-.069 2.479.09 1.157.213 1.714.123.558.45 1.407.326.85.78 1.57.453.722 1.038 1.311.586.59 1.142.952.556.363 1.132.584.576.222 1.312.336t1.488.047 1.07-.15q.316-.083.932-.323t1.107-.511 1.175-.77q.685-.503 1.13-.9.443-.398.63-.575.186-.178.797-.83.227-.226.481-.5M291.675 137.52q.008.085-.007.752.001.227.056 1.803t.217 3.682.267 3.235.207 2.18.286 2.812q.186 1.757.354 2.95.166 1.193.244 1.587.077.395.138.608.063.216.136.518" style="display:inline;stroke-width:1.33333"/>
    <path fill="none" stroke="#f3ba38" stroke-linecap="round" stroke-linejoin="round" d="M291.84 138.743q.256-.098.44-.16.182-.064 1.118-.344t1.904-.476q.966-.196 1.524-.248.557-.051 1.396-.018.84.032 1.438.156.6.123.915.23.315.106 1.003.452.688.345 1.262.8.578.454.875.772.297.317.516.598.217.284.737 1.28.52.998.707 1.627.188.63.272 1.432t-.075 1.928q-.158 1.128-.429 1.857-.27.731-.61 1.335-.338.605-.622.992-.283.388-.517.663-.235.274-.611.654t-1.301 1.12q-.924.742-2.338 1.66-1.413.919-2.509 1.531t-1.957 1.04-.97.484l-.913.485m373.484-26.36q.008.083-.008.751.001.225.056 1.801t.218 3.684.268 3.235q.104 1.127.206 2.18t.287 2.81q.184 1.76.352 2.951t.244 1.587.139.61.136.517" style="display:inline;stroke-width:1.33333"/>
    <path fill="none" stroke="#f3ba38" stroke-linecap="round" stroke-linejoin="round" d="M666.744 133.453q.257-.096.438-.16.183-.062 1.12-.344.936-.28 1.903-.476.966-.196 1.524-.248.557-.05 1.397-.017t1.439.156.913.23 1.003.451q.686.347 1.264.802.577.454.874.77.3.318.515.6.217.283.737 1.28.52.996.708 1.627.188.63.272 1.43.084.802-.074 1.93-.16 1.127-.43 1.857t-.61 1.335q-.339.604-.622.992-.282.388-.518.663-.236.274-.61.653-.377.38-1.3 1.121-.925.742-2.34 1.659-1.413.919-2.508 1.532-1.096.612-1.958 1.04-.863.428-.97.484l-.913.485" style="display:inline;stroke-width:1.33333"/>
    <path fill="none" stroke="#6ac0c8" stroke-linecap="round" stroke-linejoin="round" d="m490.71 178.223 23.026-46.208m-83.904 165.931-23.51 47.534" style="stroke-width:1.33333"/>
    <path fill="none" stroke="#f3ba38" stroke-linecap="round" stroke-linejoin="round" d="m413.139 238.621 40.236.108m12.437-.041 73.229.625" style="stroke-width:1.33333"/>
    <path fill="none" stroke="#9378e3" stroke-linecap="round" stroke-linejoin="round" stroke-width="6.667" d="m459.701 238.594 27.984-54.485m-28.102 55-26.524 53.495"/>
    <path fill="none" stroke="#f66640" stroke-linecap="round" stroke-linejoin="round" stroke-width="3.333" d="m396.445 249.068 10.543-24.656m.117.015 6.352 25.87m-21.06-16.564 21.038 16.52m-20.895-17.43 27.52 2.52m-23.83 14.075 23.871-13.96"/>
    <circle cx="459.468" cy="238.473" r="1.667" fill="#f3ba38" stroke="#f3ba38" stroke-width=".133"/>
    <circle cx="433.247" cy="292.126" r="1.667" fill="#f3ba38" stroke="#f3ba38" stroke-width=".133"/>
    <path fill="none" stroke="#f3ba38" stroke-linecap="round" stroke-linejoin="round" d="M388.365 217.028q.252-.239.591-.515.424-.364 1.719-1.761 1.294-1.397 2.324-2.875 1.032-1.477 1.612-2.621.58-1.145 1.097-2.707t.77-3.845.14-3.477q-.118-1.194-.26-1.811-.14-.617-.515-1.54t-.839-1.592-.83-1.024q-.367-.355-.683-.583-.319-.228-1.118-.553-.798-.327-1.672-.439-.872-.112-1.441-.074-.57.037-1.012.109-.444.072-2.088.673-1.645.6-2.979 1.487-1.333.888-1.933 1.423-.601.536-1.357 1.393-.758.857-1.442 1.879-.682 1.02-1.376 2.531-.693 1.51-1.202 3.774-.51 2.264-.496 4.23.012 1.967.188 2.946.176.978.454 1.841.28.863.658 1.612.377.75.61 1.097.231.348.531.704t.65.684q.351.328 1.198.82.848.494 1.328.627.479.133.757.177.28.044.651.054.375.008.715-.018t1.602-.422 2.075-.884q.813-.487 1.508-1.039.693-.55 1.037-.885t.606-.624.86-.85" style="stroke-width:1.33333"/>
    <path fill="none" stroke="#f3ba38" stroke-linecap="round" stroke-linejoin="round" d="M387.08 211.073q.095.122.427.686.333.564 1.077 1.684t1.717 2.438q.975 1.32 1.844 2.313.038.018.295.184l.652.42m45.364 89.956q.092-.545.648-2.833.555-2.288 1.695-6.856t1.984-7.307q.842-2.737 1.309-3.773.468-1.035 1.473-2.08.144.05.674 1.187.529 1.136.953 3.396t.652 3.896.565 4.278q.34 2.644.496 3.9t.307 2.374q.15 1.116.356 2.31.032.139.139 1.676" style="stroke-width:1.33333"/>
    <path fill="none" stroke="#f3ba38" stroke-linecap="round" stroke-linejoin="round" d="M439.792 302.612q.543-.172 2.83-.743 2.285-.57 6.114-1.601m16.21-56.136-.033.558q.007.736.05 3.09.043 2.352.15 5.037.108 2.684.345 7.457.023.311.047 1.555" style="stroke-width:1.33333"/>
    <path fill="none" stroke="#f3ba38" stroke-linecap="round" stroke-linejoin="round" d="M463.507 245.617q.373-.208.926-.487.554-.278 1.587-.734t1.835-.724q.8-.268 1.609-.427t1.387-.161 1.027.076.924.35q.472.268.751.595t.381.532q.104.205.178.597.073.392-.092 1.144-.166.752-.507 1.427-.34.673-.87 1.367-.527.692-.93 1.122-.403.432-.604.626l-.354.337q-.152.144-.996.99.052.04.354.111t.788.06q.487-.013.845-.03.36-.017 1.196-.008.84.008 1.68.108.843.099 1.383.246.54.15.83.246.291.095.817.385.524.29 1.198.912.675.621.963 1.09.288.467.41.822.12.357.165.933.043.575-.037.971-.082.395-.2.672-.12.277-.38.693t-.711.892-1.208 1.002q-.756.525-1.923 1.037-1.164.512-2.454.855-1.291.344-2.66.574-1.37.231-2.887.538-.112.03-1.141.07l-.628.075m-10.035-44.916-.201-.25q-.123-.167-.583-.886-.461-.717-.797-1.169-.335-.45-.628-.784-.294-.333-.724-.716-.431-.383-.883-.67-.45-.286-.912-.48-.46-.197-1.099-.32-.638-.126-1.16-.113t-1.081.146-1.217.464q-.66.33-1.024.604-.366.273-.816.728-.448.453-.952 1.181t-.76 1.241q-.256.514-.603 1.579t-.51 2.387q-.16 1.321-.069 2.48.091 1.157.214 1.713.124.557.449 1.407.325.849.78 1.57t1.039 1.31q.584.592 1.141.953t1.132.584 1.312.336 1.488.047 1.07-.15.933-.324q.616-.24 1.106-.509.49-.27 1.175-.772.685-.501 1.13-.9.442-.399.63-.575t.797-.829q.227-.225.482-.499m14.865-68.364q.008.086-.008.752 0 .227.056 1.803t.217 3.683q.163 2.108.268 3.234l.207 2.182q.101 1.054.287 2.81t.352 2.951q.168 1.192.244 1.587.077.393.14.61.06.214.134.515" style="stroke-width:1.33333"/>
    <path fill="none" stroke="#f3ba38" stroke-linecap="round" stroke-linejoin="round" d="M472.012 161.228q.253-.099.432-.164.18-.065 1.103-.353.922-.288 1.874-.494.953-.204 1.503-.26t1.378-.029 1.422.145q.59.119.902.224.312.104.991.444.677.342 1.247.791.57.45.864.765.293.315.508.596.214.28.725 1.272.51.992.695 1.619t.264 1.427-.083 1.924-.435 1.854q-.27.73-.61 1.334t-.622.993-.517.663q-.235.276-.608.656t-1.29 1.126-2.31 1.676q-1.39.932-2.46 1.56-1.068.628-1.903 1.072-.836.444-.938.503l-.876.508" style="stroke-width:1.33333"/>
    <circle cx="486.949" cy="184.56" r="1.667" fill="#f3ba38" stroke="#f3ba38" stroke-width=".133"/>
</svg>
