<svg xmlns="http://www.w3.org/2000/svg" xml:space="preserve" viewBox="0 0 960 480">
    <g style="display:inline">
        <text xml:space="preserve" x="326.422" y="1384.138" style="font-style:normal;font-variant:normal;font-weight:400;font-stretch:normal;font-size:18px;font-family:&quot;JetBrains Mono&quot;;-inkscape-font-specification:&quot;JetBrains Mono&quot;;text-align:start;writing-mode:lr-tb;direction:ltr;text-anchor:start;fill:#fff;fill-opacity:1;stroke:none;stroke-width:2.83465;stroke-linecap:round;stroke-linejoin:round" transform="translate(196.732 -1588.21)scale(1.33333)"><tspan x="326.422" y="1384.138" style="font-size:18px;stroke-width:2.83465">A</tspan></text>
        <text xml:space="preserve" x="353.74" y="1329.341" style="font-style:normal;font-variant:normal;font-weight:400;font-stretch:normal;font-size:18px;font-family:&quot;JetBrains Mono&quot;;-inkscape-font-specification:&quot;JetBrains Mono&quot;;text-align:start;writing-mode:lr-tb;direction:ltr;text-anchor:start;fill:#fff;fill-opacity:1;stroke:none;stroke-width:2.83465;stroke-linecap:round;stroke-linejoin:round" transform="translate(196.732 -1588.21)scale(1.33333)"><tspan x="353.74" y="1329.341" style="font-size:18px;stroke-width:2.83465">B</tspan></text>
        <path fill="none" stroke="#6ac0c8" stroke-linecap="round" stroke-linejoin="round" d="m341.589 1328.596-.227 100.613m-41.562-60.745 121.384-61.047" style="display:inline" transform="translate(196.732 -1588.21)scale(1.33333)"/>
        <path fill="none" stroke="#9378e3" stroke-linecap="round" stroke-linejoin="round" stroke-width="6.667" d="m653.454 208.927-1.206 80.303m1.01-81.26 51.586-25.912"/>
        <path fill="none" stroke="#f66640" stroke-linecap="round" stroke-linejoin="round" stroke-width="2.5" d="m294.718 1375.258 7.908-18.492m.088.011 4.764 19.403m-15.795-12.423 15.778 12.39m-15.671-13.072 20.64 1.891m-17.872 10.555 17.903-10.471" style="display:inline" transform="translate(196.732 -1588.21)scale(1.33333)"/>
    </g>
    <g style="display:inline">
        <text xml:space="preserve" x="64.033" y="1377.361" style="font-style:normal;font-variant:normal;font-weight:400;font-stretch:normal;font-size:18px;font-family:&quot;JetBrains Mono&quot;;-inkscape-font-specification:&quot;JetBrains Mono&quot;;text-align:start;writing-mode:lr-tb;direction:ltr;text-anchor:start;fill:#fff;fill-opacity:1;stroke:none;stroke-width:2.83465;stroke-linecap:round;stroke-linejoin:round" transform="translate(196.732 -1587.624)scale(1.33333)"><tspan x="64.033" y="1377.361" style="font-size:18px;stroke-width:2.83465">A</tspan></text>
        <text xml:space="preserve" x="48.406" y="1329.022" style="font-style:normal;font-variant:normal;font-weight:400;font-stretch:normal;font-size:18px;font-family:&quot;JetBrains Mono&quot;;-inkscape-font-specification:&quot;JetBrains Mono&quot;;text-align:start;writing-mode:lr-tb;direction:ltr;text-anchor:start;fill:#fff;fill-opacity:1;stroke:none;stroke-width:2.83465;stroke-linecap:round;stroke-linejoin:round" transform="translate(196.732 -1587.624)scale(1.33333)"><tspan x="48.406" y="1329.022" style="font-size:18px;stroke-width:2.83465">B</tspan></text>
        <path fill="none" stroke="#6ac0c8" stroke-linecap="round" stroke-linejoin="round" d="m-.734 1367.933 121.018-59.715m-39.71-.545.207 120.402" style="display:inline" transform="translate(196.732 -1587.624)scale(1.33333)"/>
        <path fill="none" stroke="#9378e3" stroke-linecap="round" stroke-linejoin="round" stroke-width="6.667" d="m249.85 210.28 54.5-27.07m-.374.294-.261 106.524"/>
        <path fill="none" stroke="#f66640" stroke-linecap="round" stroke-linejoin="round" stroke-width="2.5" d="M-5.907 1376.029 2 1357.537m.089.012 4.764 19.402m-15.795-12.423 15.778 12.39m-15.672-13.072 20.64 1.891m-17.871 10.555 17.903-10.471" style="display:inline" transform="translate(196.732 -1587.624)scale(1.33333)"/>
    </g>
    <text xml:space="preserve" x="234.694" y="384.286" style="font-size:18.6667px;font-family:&quot;JetBrains Mono&quot;;-inkscape-font-specification:&quot;JetBrains Mono&quot;;text-align:start;writing-mode:lr-tb;direction:ltr;text-anchor:start;fill:#fff;stroke-width:1.33417;stroke-linecap:round;stroke-linejoin:round"><tspan x="234.694" y="384.286">fig 5</tspan></text>
    <text xml:space="preserve" x="650.204" y="384.286" style="font-size:18.6667px;font-family:&quot;JetBrains Mono&quot;;-inkscape-font-specification:&quot;JetBrains Mono&quot;;text-align:start;writing-mode:lr-tb;direction:ltr;text-anchor:start;fill:#fff;stroke-width:1.33417;stroke-linecap:round;stroke-linejoin:round"><tspan x="650.204" y="384.286">fig 6</tspan></text>
</svg>
