<svg xmlns="http://www.w3.org/2000/svg" xml:space="preserve" viewBox="0 0 960 480">
    <g style="display:inline" transform="translate(-600.175 -1849.781)scale(1.33333)">
        <path fill="none" stroke="#6ac0c8" stroke-linecap="round" stroke-linejoin="round" d="m599.315 1646.557 18.524-36.529m23.831-46.87 38.021-75.096m-20.309-.245 18.451 36.256m44.88 88.185 17.829 35.033"/>
        <path fill="none" stroke="#f3ba38" stroke-linecap="round" stroke-linejoin="round" d="m606.777 1567.523 28.23.033m8.219.01 52.972.062m7.804.009 36.955.043"/>
        <path fill="none" stroke="#6ac0c8" stroke-linecap="round" stroke-linejoin="round" d="m898.735 1646.121 18.525-36.529m43.96-87.351 17.892-34.615m-20.309-.245 38.459 75.848m24.872 48.594 17.829 35.032"/>
        <path fill="none" stroke="#f3ba38" stroke-linecap="round" stroke-linejoin="round" d="m906.198 1567.087 28.23.033m8.219.01 52.972.062m7.804.009 36.955.044"/>
        <path fill="none" stroke="#9378e3" stroke-linecap="round" stroke-linejoin="round" stroke-width="5" d="m639.46 1567.27-19.912 39.577m59.841-79.578 41.856 81.624m237.839-82.461-40.115 79.979m80.193-39.559 21.503 41.605"/>
        <path fill="none" stroke="#f66640" stroke-linecap="round" stroke-linejoin="round" stroke-width="2.5" d="m593.337 1575.793 7.908-18.491m.088.011 4.764 19.402m-15.795-12.422 15.778 12.389m-15.671-13.072 20.64 1.891m-17.872 10.556 17.903-10.472"/>
        <circle cx="679.8" cy="1527.589" r="1.25" fill="#f3ba38" stroke="#f3ba38" stroke-width=".1"/>
        <circle cx="721.202" cy="1608.684" r="1.25" fill="#f3ba38" stroke="#f3ba38" stroke-width=".1"/>
        <path fill="none" stroke="#f3ba38" stroke-linecap="round" stroke-linejoin="round" stroke-width="2.5" d="M619.577 1606.71h-.02"/>
        <circle cx="639.269" cy="1567.563" r="1.25" fill="#f3ba38" stroke="#f3ba38" stroke-width=".1"/>
        <path fill="none" stroke="#f3ba38" stroke-linecap="round" stroke-linejoin="round" d="M589.629 1553.819q.189-.179.442-.386.319-.273 1.289-1.322.971-1.048 1.744-2.156.773-1.107 1.209-1.966.435-.859.822-2.029.388-1.17.579-2.884t.103-2.608-.194-1.358-.387-1.155-.629-1.194-.622-.769-.513-.437-.838-.415-1.253-.328-1.081-.057q-.427.028-.76.083-.332.054-1.566.504-1.233.451-2.233 1.116-1 .666-1.45 1.067-.451.401-1.019 1.045t-1.08 1.409-1.033 1.898-.901 2.831q-.382 1.697-.373 3.173t.141 2.209.342 1.381q.21.647.493 1.209t.457.823.399.528.488.512q.261.246.898.616.636.369.995.47.36.1.568.133.209.033.489.04.28.01.536-.014.255-.02 1.202-.317.946-.297 1.556-.662t1.13-.779.779-.664q.257-.251.453-.468.197-.217.646-.637"/>
        <path fill="none" stroke="#f3ba38" stroke-linecap="round" stroke-linejoin="round" d="M588.664 1549.353q.071.091.321.514.249.423.807 1.262.559.84 1.289 1.83t1.382 1.734q.028.013.221.139l.489.315m7.649 57.574q.069-.409.485-2.125.417-1.716 1.272-5.142.856-3.426 1.488-5.48.631-2.053.982-2.829t1.105-1.561q.108.038.505.89t.715 2.547.489 2.922q.17 1.226.424 3.209.255 1.983.372 2.925t.229 1.78.268 1.733q.024.104.104 1.257"/>
        <path fill="none" stroke="#f3ba38" stroke-linecap="round" stroke-linejoin="round" d="M601.824 1608.114q.407-.129 2.122-.557 1.714-.427 4.586-1.201"/>
        <path fill="none" stroke="#f66640" stroke-linecap="round" stroke-linejoin="round" stroke-width="2.5" d="m892.758 1575.357 7.908-18.491m.088.011 4.764 19.402m-15.795-12.422 15.778 12.389m-15.671-13.072 20.64 1.891m-17.872 10.556 17.903-10.471"/>
        <circle cx="999.266" cy="1567.323" r="1.25" fill="#f3ba38" stroke="#f3ba38" stroke-width=".1"/>
        <circle cx="1020.623" cy="1608.248" r="1.25" fill="#f3ba38" stroke="#f3ba38" stroke-width=".1"/>
        <path fill="none" stroke="#f3ba38" stroke-linecap="round" stroke-linejoin="round" stroke-width="2.5" d="M918.998 1606.274h-.02"/>
        <circle cx="959.026" cy="1526.532" r="1.25" fill="#f3ba38" stroke="#f3ba38" stroke-width=".1"/>
        <path fill="none" stroke="#f3ba38" stroke-linecap="round" stroke-linejoin="round" d="M889.05 1553.383q.189-.179.442-.386.319-.273 1.289-1.321.971-1.049 1.744-2.156t1.209-1.967q.435-.858.822-2.029.388-1.17.579-2.884t.103-2.608-.194-1.358-.387-1.155-.629-1.194-.622-.769-.513-.436q-.239-.171-.838-.416t-1.253-.328-1.081-.057q-.427.028-.76.083-.332.054-1.566.504-1.233.451-2.233 1.116-1 .666-1.451 1.067-.45.401-1.018 1.045-.567.643-1.08 1.409t-1.033 1.899-.901 2.83-.373 3.173q.01 1.475.141 2.209.132.734.342 1.381t.493 1.209.457.823.399.528.487.512.899.616q.636.37.995.47.36.1.568.133.209.033.489.04.28.01.536-.014.255-.019 1.201-.316t1.557-.663 1.13-.779q.521-.413.779-.664.257-.251.453-.468.197-.217.646-.637"/>
        <path fill="none" stroke="#f3ba38" stroke-linecap="round" stroke-linejoin="round" d="M888.085 1548.917q.071.091.321.514.249.423.807 1.262.559.84 1.289 1.83t1.382 1.734q.028.013.221.139l.489.315m137.229 57.405q.069-.409.486-2.125.416-1.716 1.271-5.142.856-3.426 1.488-5.479t.982-2.83q.351-.777 1.105-1.561.108.038.505.89t.715 2.547q.319 1.695.489 2.922.17 1.226.424 3.209.255 1.983.372 2.925t.23 1.78.267 1.733q.024.104.104 1.257"/>
        <path fill="none" stroke="#f3ba38" stroke-linecap="round" stroke-linejoin="round" d="M1030.825 1607.51q.407-.13 2.122-.558 1.714-.427 4.586-1.201m-409.717-60.83-.024.419q.005.552.037 2.317.033 1.765.113 3.778.081 2.013.259 5.593.017.233.035 1.166"/>
        <path fill="none" stroke="#f3ba38" stroke-linecap="round" stroke-linejoin="round" d="M626.737 1546.035q.28-.155.695-.365.415-.209 1.19-.551t1.376-.543 1.207-.32 1.04-.121q.434 0 .771.057.338.06.693.262t.563.447.286.399.133.448-.07.859q-.124.564-.379 1.069t-.652 1.025q-.396.519-.698.843t-.453.468l-.266.253q-.114.108-.747.742.039.031.266.084.226.053.591.044t.634-.022.897-.01q.629.01 1.26.081.632.074 1.037.186.405.111.623.183t.612.289.899.684.722.817.307.618.123.699-.027.728q-.061.296-.15.504-.09.208-.284.521-.195.312-.534.668t-.906.751-1.442.778q-.873.384-1.841.642-.968.257-1.995.43-1.028.174-2.165.403-.084.022-.856.053l-.471.056m375.586-11.9-.024.419q0 .552.037 2.317.033 1.765.113 3.778.081 2.013.259 5.593.017.233.035 1.166"/>
        <path fill="none" stroke="#f3ba38" stroke-linecap="round" stroke-linejoin="round" d="M1003.233 1549.408q.28-.155.695-.365.415-.209 1.19-.551t1.376-.543 1.207-.32 1.04-.121q.434 0 .771.057.338.06.693.262.354.203.563.447.209.245.286.399.078.154.133.448t-.07.859q-.124.564-.379 1.069t-.652 1.025q-.396.519-.698.843t-.453.468l-.266.253q-.114.108-.747.742.039.031.266.084.226.053.591.044t.634-.022.897-.01q.629.01 1.26.081.632.074 1.037.186.404.111.623.183t.612.289.899.684q.505.467.722.817t.307.618.123.699-.028.728q-.06.297-.149.505-.09.207-.284.52-.195.312-.534.668t-.906.751-1.442.778q-.873.384-1.841.642-.968.257-1.995.43-1.028.174-2.165.403-.084.022-.856.053l-.471.056"/>
        <circle cx="699.886" cy="1567.438" r="1.25" fill="#fa7fb1" stroke="#fa7fb1" stroke-width=".1"/>
        <circle cx="938.702" cy="1566.77" r="1.25" fill="#fa7fb1" stroke="#fa7fb1" stroke-width=".1"/>
        <path fill="none" stroke="#f3ba38" stroke-linecap="round" stroke-linejoin="round" d="m740.427 1598.096-.151-.187q-.092-.125-.437-.664-.346-.539-.598-.877-.251-.338-.471-.588-.22-.251-.543-.538-.324-.286-.662-.501t-.684-.361-.824-.24-.87-.085q-.392.01-.811.11t-.913.347-.768.454-.612.546-.714.886q-.378.546-.57.931t-.452 1.184q-.262.799-.382 1.79t-.052 1.859.16 1.286.337 1.055.585 1.178.778.983.857.714q.418.271.849.438t.984.252 1.116.035.802-.113q.238-.062.7-.242t.83-.382q.367-.203.881-.579t.847-.675.473-.431.597-.622q.171-.169.362-.375m171.631-5.975-.15-.188q-.092-.125-.438-.664-.345-.538-.597-.877t-.471-.588-.544-.537-.662-.502-.683-.361q-.346-.146-.824-.24-.479-.093-.871-.084-.391.01-.811.109-.419.1-.912.348t-.768.453-.612.547q-.337.34-.715.885-.377.546-.569.931t-.453 1.184-.381 1.791-.052 1.859.16 1.286q.092.417.337 1.054.244.637.585 1.178.339.541.778.983.439.443.857.714.417.271.849.438.431.167.984.253t1.116.035.802-.113.7-.242.829-.383q.368-.202.882-.579t.846-.675.473-.431.598-.621q.171-.17.362-.375m-226.275-90.272q.006.064-.006.564.001.17.042 1.352t.163 2.762.201 2.426q.078.846.155 1.636.076.789.215 2.108t.264 2.213.183 1.19.105.456q.046.162.101.388"/>
        <path fill="none" stroke="#f3ba38" stroke-linecap="round" stroke-linejoin="round" d="M687.195 1515.942q.193-.073.33-.12.136-.048.839-.258t1.427-.357q.725-.147 1.143-.186.418-.038 1.048-.013t1.079.117.686.172q.236.08.751.339t.948.6.656.578q.224.238.387.451.162.212.552.959.39.748.531 1.22.141.473.204 1.074t-.056 1.446q-.119.846-.322 1.393-.203.548-.457 1.001-.255.453-.467.744t-.389.497-.458.491-.975.84-1.753 1.245-1.882 1.148-1.469.78-.727.363l-.685.364m255.278-20.427q.006.064-.006.564.001.17.042 1.352.042 1.182.163 2.762.122 1.581.201 2.426t.155 1.636q.076.789.215 2.108t.264 2.213.183 1.19.105.456q.046.162.101.388"/>
        <path fill="none" stroke="#f3ba38" stroke-linecap="round" stroke-linejoin="round" d="M943.537 1511.32q.193-.073.33-.12.136-.048.839-.258t1.427-.357q.725-.147 1.143-.186.418-.038 1.048-.013t1.079.117.686.172q.236.08.751.339t.948.6.656.579q.224.237.387.45.163.212.552.96.39.747.531 1.219t.204 1.074-.056 1.446q-.119.846-.322 1.393-.203.548-.457 1.001-.255.453-.467.744t-.389.497-.458.491-.975.84q-.693.556-1.753 1.245t-1.882 1.148-1.468.78q-.648.321-.728.363l-.684.364"/>
    </g>
</svg>
