<svg xmlns="http://www.w3.org/2000/svg" xml:space="preserve" viewBox="0 0 960 480">
    <g style="display:inline" transform="translate(187.828 -1451.495)scale(1.33333)">
        <path fill="none" stroke="#6ac0c8" stroke-linecap="round" stroke-linejoin="round" d="m460.802 1186.935-37.688 18.917m-46.899 23.541-33.911 17.02m-6.585 3.306-32.057 16.09m35.307-58.499.039 36.672m.05 47.187.038 35.986m-219.639-137.724.073 15.091m.612 126.911.092 19.036M4.006 1265.683l32.765-16.177m47.023-23.217 32.55-16.071m6.763-3.339 36.676-18.108"/>
        <path fill="none" stroke="#9378e3" stroke-linecap="round" stroke-linejoin="round" stroke-width="5" d="m40.097 1247.862 40.318-19.946m39.455-19.938.21 119.901m219.135-80.246-.119 39.896m40.47-59.934 40.286-20.023"/>
        <path fill="none" stroke="#f66640" stroke-linecap="round" stroke-linejoin="round" stroke-width="2.5" d="m-6.441 1275.913 7.907-18.491m.088.011 4.764 19.402m-15.795-12.423 15.778 12.39M-9.37 1263.73l20.64 1.891m-17.872 10.556 17.903-10.472m282.045 10.415 7.907-18.491m.089.011 4.764 19.402m-15.795-12.422 15.778 12.39m-15.672-13.073 20.64 1.891m-17.871 10.556 17.903-10.472"/>
        <circle cx="40.444" cy="1247.478" r="1.25" fill="#f3ba38" stroke="#f3ba38" stroke-width=".1"/>
        <circle cx="80.017" cy="1228.133" r="1.25" fill="#f3ba38" stroke="#f3ba38" stroke-width=".1"/>
        <circle cx="120.19" cy="1208.565" r="1.25" fill="#f3ba38" stroke="#f3ba38" stroke-width=".1"/>
        <circle cx="120.193" cy="1327.689" r="1.25" fill="#f3ba38" stroke="#f3ba38" stroke-width=".1"/>
        <circle cx="339.292" cy="1247.981" r="1.25" fill="#f3ba38" stroke="#f3ba38" stroke-width=".1"/>
        <circle cx="338.872" cy="1287.094" r="1.25" fill="#f3ba38" stroke="#f3ba38" stroke-width=".1"/>
        <circle cx="380.112" cy="1226.968" r="1.25" fill="#f3ba38" stroke="#f3ba38" stroke-width=".1"/>
        <circle cx="419.121" cy="1207.908" r="1.25" fill="#f3ba38" stroke="#f3ba38" stroke-width=".1"/>
        <path fill="none" stroke="#f3ba38" stroke-linecap="round" stroke-linejoin="round" d="M-12.801 1251.837q.19-.179.443-.386.319-.273 1.289-1.321t1.744-2.156q.773-1.108 1.208-1.967.436-.858.823-2.029t.578-2.884.104-2.608-.194-1.358-.387-1.155q-.281-.692-.629-1.194-.349-.502-.623-.769-.274-.266-.512-.436-.239-.171-.838-.415-.599-.245-1.254-.329-.654-.084-1.081-.056-.426.027-.759.082-.333.054-1.566.505-1.234.45-2.233 1.115-1 .666-1.451 1.067-.45.402-1.018 1.045t-1.08 1.409q-.513.766-1.033 1.899-.52 1.132-.902 2.83-.382 1.697-.372 3.173t.141 2.209.341 1.381q.211.647.493 1.209t.457.823q.174.261.399.528t.488.513.898.615.996.47q.359.1.568.133t.489.04q.28.01.535-.013.256-.02 1.202-.317.947-.297 1.556-.663.61-.365 1.131-.779.521-.413.778-.664.258-.251.454-.468t.645-.637"/>
        <path fill="none" stroke="#f3ba38" stroke-linecap="round" stroke-linejoin="round" d="M-13.765 1247.371q.071.091.32.514.25.423.808 1.263t1.289 1.829 1.382 1.735q.028.012.221.138l.489.315m300.649 2.221q.189-.178.443-.386.318-.272 1.289-1.321t1.743-2.156q.773-1.107 1.209-1.966.435-.859.822-2.029.388-1.17.579-2.884t.103-2.609q-.087-.894-.194-1.357-.106-.463-.387-1.156-.28-.692-.629-1.194-.348-.501-.622-.768-.274-.266-.513-.437t-.838-.415-1.253-.329q-.655-.084-1.081-.056-.427.028-.76.082-.332.055-1.566.505t-2.233 1.116-1.45 1.067-1.019 1.044q-.567.643-1.08 1.409t-1.033 1.899-.901 2.83q-.382 1.698-.372 3.173.009 1.476.14 2.21.132.733.342 1.381.21.647.493 1.209.283.561.457.822.173.262.399.528.226.267.488.513t.898.616q.636.369.995.469.36.101.568.134.209.033.489.039.28.01.536-.013.255-.02 1.202-.317.946-.297 1.556-.662t1.13-.779.779-.664q.257-.251.453-.468.197-.218.646-.637"/>
        <path fill="none" stroke="#f3ba38" stroke-linecap="round" stroke-linejoin="round" d="M290.428 1250.92q.072.092.321.515.249.422.808 1.262.558.84 1.288 1.83t1.382 1.734q.028.013.221.138l.49.316m-262.027-18.179q.069-.409.486-2.125.416-1.716 1.271-5.142.856-3.426 1.488-5.48t.982-2.83 1.105-1.56q.108.038.505.89t.715 2.547q.319 1.695.489 2.921.17 1.227.424 3.21.255 1.982.372 2.925t.23 1.779q.112.838.267 1.733.024.105.104 1.257"/>
        <path fill="none" stroke="#f3ba38" stroke-linecap="round" stroke-linejoin="round" d="M33.913 1233.929q.407-.13 2.122-.557t4.586-1.202m332.684-12.246q.069-.409.485-2.125.417-1.716 1.272-5.142t1.487-5.48.983-2.83 1.104-1.56q.109.038.506.89t.715 2.547q.319 1.695.489 2.922.17 1.226.424 3.209.255 1.982.372 2.925t.229 1.779q.113.838.268 1.733.024.105.104 1.257"/>
        <path fill="none" stroke="#f3ba38" stroke-linecap="round" stroke-linejoin="round" d="M374.307 1215.317q.407-.129 2.122-.557t4.586-1.202m-305.659-10.017-.023.419q.005.552.037 2.317.032 1.764.113 3.778.08 2.013.259 5.593.016.233.035 1.166"/>
        <path fill="none" stroke="#f3ba38" stroke-linecap="round" stroke-linejoin="round" d="M74.278 1204.655q.28-.156.695-.365t1.19-.551 1.376-.543 1.207-.32 1.039-.121q.434 0 .772.057.338.06.692.262.355.202.563.447.209.245.287.399t.133.448-.07.858-.379 1.07q-.256.505-.652 1.025t-.698.842q-.302.324-.454.469l-.265.253q-.114.108-.747.742.039.031.265.084.227.053.592.044t.633-.022q.269-.013.898-.01.629.01 1.26.081.631.074 1.036.185.405.112.623.184.219.071.612.289.394.217.9.684.505.466.721.816.216.351.308.618.091.268.123.699.033.432-.028.729-.06.296-.15.504-.089.208-.284.52t-.533.669q-.339.357-.907.751-.567.394-1.441.778t-1.842.641-1.995.431-2.164.403q-.084.022-.856.053l-.471.056m331.916-31.254-.024.419q.006.552.038 2.317.032 1.764.113 3.777.08 2.014.259 5.594.016.233.035 1.166"/>
        <path fill="none" stroke="#f3ba38" stroke-linecap="round" stroke-linejoin="round" d="M407.105 1188.673q.28-.155.695-.364t1.19-.551 1.376-.543 1.207-.32 1.039-.121q.434 0 .772.057.338.06.692.262.355.202.563.447.209.245.287.399t.132.448-.069.858-.379 1.07-.652 1.025-.698.842-.454.469l-.265.253q-.114.108-.748.742.04.031.266.084.227.053.592.043t.633-.022q.269-.012.898 0 .629.01 1.26.08.631.075 1.036.186.405.112.623.184.219.071.612.289.394.217.9.684.505.466.721.816.216.351.308.618.091.268.123.699.032.432-.028.729-.06.296-.15.504t-.284.52-.533.669-.907.751-1.441.778q-.874.384-1.842.641-.967.258-1.995.431-1.027.173-2.164.403-.084.022-.856.053l-.471.056m-271.596 123.14-.15-.187q-.092-.126-.438-.664-.345-.539-.597-.877-.251-.339-.471-.589t-.544-.537q-.323-.287-.661-.501t-.684-.362q-.345-.146-.824-.239-.479-.094-.871-.085-.391.01-.811.11-.419.1-.912.347-.493.248-.768.454t-.612.546-.715.886q-.377.546-.569.931t-.453 1.184-.381 1.79-.052 1.859.16 1.286.337 1.055.585 1.178q.34.54.778.983.439.442.857.713.417.272.849.439.431.167.984.252t1.116.035.802-.113q.238-.062.7-.242t.829-.383.882-.578.846-.675q.333-.299.474-.431t.597-.622q.171-.169.362-.375m195.012-47-.151-.187q-.092-.126-.437-.664-.346-.539-.597-.877-.252-.339-.472-.589t-.543-.537-.662-.501-.683-.361q-.346-.147-.825-.24-.478-.094-.87-.085-.392.01-.811.11t-.912.347-.769.454q-.275.206-.611.546-.337.34-.715.886t-.569.931-.453 1.184-.381 1.79-.053 1.859q.068.868.161 1.286.092.418.337 1.055.244.637.584 1.178t.779.983.856.714q.418.271.849.438.432.167.984.252.553.085 1.117.035.563-.051.801-.113t.701-.242q.462-.18.829-.382.367-.203.881-.579t.847-.675q.332-.299.473-.431t.598-.622q.171-.169.361-.375m-206.406-83.27q.006.063-.006.564.001.17.042 1.352.042 1.181.163 2.762.122 1.58.201 2.426.079.845.155 1.635t.215 2.109.264 2.212q.126.895.183 1.19.058.296.105.457t.101.388"/>
        <path fill="none" stroke="#f3ba38" stroke-linecap="round" stroke-linejoin="round" d="M127.516 1209.805q.193-.073.33-.121.136-.047.839-.257t1.428-.357q.724-.148 1.142-.186t1.048-.014 1.079.117.686.172q.236.08.751.34.515.259.948.6t.656.578q.224.238.387.45t.552.96q.39.748.531 1.22t.204 1.073-.056 1.447-.322 1.393-.457 1.001q-.255.453-.467.744t-.389.497q-.176.206-.458.491-.281.284-.975.84-.693.556-1.753 1.245t-1.882 1.148q-.821.459-1.468.78-.648.321-.728.363l-.684.364m196.428 8.417q.006.063-.006.564.001.17.042 1.352.041 1.181.163 2.762t.2 2.426q.079.845.156 1.635.076.79.215 2.109.138 1.318.264 2.212.125.895.183 1.19.058.296.104.457.047.161.102.388"/>
        <path fill="none" stroke="#f3ba38" stroke-linecap="round" stroke-linejoin="round" d="M325.009 1234.026q.193-.072.329-.12.137-.047.84-.257.702-.21 1.427-.357.725-.148 1.143-.186t1.048-.014q.629.025 1.079.117.449.093.685.172.237.08.752.34.515.259.948.6t.656.578.386.45.553.96.531 1.22.204 1.073-.056 1.447q-.12.845-.322 1.393-.203.547-.458 1.001-.254.453-.466.744t-.389.497q-.176.206-.458.491-.282.284-.975.84t-1.754 1.245-1.881 1.148q-.822.459-1.469.78t-.727.363l-.685.364"/>
    </g>
</svg>
