<svg xmlns="http://www.w3.org/2000/svg" xml:space="preserve" viewBox="0 0 960 480">
    <g style="display:inline">
        <text xml:space="preserve" x="325.404" y="1174.404" style="font-style:normal;font-variant:normal;font-weight:400;font-stretch:normal;font-size:18px;font-family:&quot;JetBrains Mono&quot;;-inkscape-font-specification:&quot;JetBrains Mono&quot;;text-align:start;writing-mode:lr-tb;direction:ltr;text-anchor:start;fill:#fff;fill-opacity:1;stroke:none;stroke-width:2.83465;stroke-linecap:round;stroke-linejoin:round" transform="translate(176.68 -1303.129)scale(1.33333)"><tspan x="325.404" y="1174.404" style="font-size:18px;stroke-width:2.83465">A</tspan></text>
        <text xml:space="preserve" x="387.903" y="1111.264" style="font-style:normal;font-variant:normal;font-weight:400;font-stretch:normal;font-size:18px;font-family:&quot;JetBrains Mono&quot;;-inkscape-font-specification:&quot;JetBrains Mono&quot;;text-align:start;writing-mode:lr-tb;direction:ltr;text-anchor:start;fill:#fff;fill-opacity:1;stroke:none;stroke-width:2.83465;stroke-linecap:round;stroke-linejoin:round" transform="translate(176.68 -1303.129)scale(1.33333)"><tspan x="387.903" y="1111.264" style="font-size:18px;stroke-width:2.83465">B</tspan></text>
        <path fill="none" stroke="#6ac0c8" stroke-linecap="round" stroke-linejoin="round" d="m462.146 1087.193-161.606 81.116m39.772-60.74.128 119.844" style="display:inline" transform="translate(176.68 -1303.129)scale(1.33333)"/>
        <path fill="none" stroke="#9378e3" stroke-linecap="round" stroke-linejoin="round" stroke-width="6.667" d="m630.102 226.475 1.088 51.992m52.552-77.813 52.547-26.015"/>
        <path fill="none" stroke="#f66640" stroke-linecap="round" stroke-linejoin="round" stroke-width="2.5" d="m294.69 1176.379 7.907-18.492m.088.011 4.764 19.403m-15.795-12.423 15.778 12.39m-15.671-13.073 20.64 1.891m-17.872 10.556 17.903-10.471" style="display:inline" transform="translate(176.68 -1303.129)scale(1.33333)"/>
    </g>
    <g style="display:inline">
        <text xml:space="preserve" x="105.39" y="1174.698" style="font-style:normal;font-variant:normal;font-weight:400;font-stretch:normal;font-size:18px;font-family:&quot;JetBrains Mono&quot;;-inkscape-font-specification:&quot;JetBrains Mono&quot;;text-align:start;writing-mode:lr-tb;direction:ltr;text-anchor:start;fill:#fff;fill-opacity:1;stroke:none;stroke-width:2.83465;stroke-linecap:round;stroke-linejoin:round" transform="translate(176.68 -1319.829)scale(1.33333)"><tspan x="105.39" y="1174.698" style="font-size:18px;stroke-width:2.83465">A</tspan></text>
        <text xml:space="preserve" x="50.74" y="1131.017" style="font-style:normal;font-variant:normal;font-weight:400;font-stretch:normal;font-size:18px;font-family:&quot;JetBrains Mono&quot;;-inkscape-font-specification:&quot;JetBrains Mono&quot;;text-align:start;writing-mode:lr-tb;direction:ltr;text-anchor:start;fill:#fff;fill-opacity:1;stroke:none;stroke-width:2.83465;stroke-linecap:round;stroke-linejoin:round" transform="translate(176.68 -1319.829)scale(1.33333)"><tspan x="50.74" y="1131.017" style="font-size:18px;stroke-width:2.83465">B</tspan></text>
        <path fill="none" stroke="#6ac0c8" stroke-linecap="round" stroke-linejoin="round" d="m120.552 1089.639.777 161.038M-.836 1168.823l161.714-79.844" style="display:inline" transform="translate(176.68 -1319.829)scale(1.33333)"/>
        <path fill="none" stroke="#9378e3" stroke-linecap="round" stroke-linejoin="round" stroke-width="6.667" d="m231.602 210.931 53.957-26.204m53.126-26.929-.063 159.14"/>
        <path fill="none" stroke="#f66640" stroke-linecap="round" stroke-linejoin="round" stroke-width="2.5" d="m-5.347 1176.121 7.908-18.491m.088.011 4.764 19.403m-15.795-12.423 15.778 12.39m-15.671-13.073 20.64 1.891m-17.872 10.556 17.903-10.471" style="display:inline" transform="translate(176.68 -1319.829)scale(1.33333)"/>
    </g>
    <text xml:space="preserve" x="242.041" y="408.776" style="font-size:18.6667px;font-family:&quot;JetBrains Mono&quot;;-inkscape-font-specification:&quot;JetBrains Mono&quot;;text-align:start;writing-mode:lr-tb;direction:ltr;text-anchor:start;fill:#fff;stroke-width:1.33417;stroke-linecap:round;stroke-linejoin:round"><tspan x="242.041" y="408.776">fig 3</tspan></text>
    <text xml:space="preserve" x="650.204" y="408.776" style="font-size:18.6667px;font-family:&quot;JetBrains Mono&quot;;-inkscape-font-specification:&quot;JetBrains Mono&quot;;text-align:start;writing-mode:lr-tb;direction:ltr;text-anchor:start;fill:#fff;stroke-width:1.33417;stroke-linecap:round;stroke-linejoin:round"><tspan x="650.204" y="408.776">fig 4</tspan></text>
</svg>
