<svg xmlns="http://www.w3.org/2000/svg" xml:space="preserve" viewBox="0 0 960 480">
    <text xml:space="preserve" x="140.408" y="402.626" style="font-size:18.6667px;font-family:&quot;JetBrains Mono&quot;;-inkscape-font-specification:&quot;JetBrains Mono&quot;;text-align:start;writing-mode:lr-tb;direction:ltr;text-anchor:start;fill:#fff;stroke-width:1.33417;stroke-linecap:round;stroke-linejoin:round;stroke-dasharray:none"><tspan x="140.408" y="402.626">fig 14</tspan></text>
    <text xml:space="preserve" x="458.367" y="402.626" style="font-size:18.6667px;font-family:&quot;JetBrains Mono&quot;;-inkscape-font-specification:&quot;JetBrains Mono&quot;;text-align:start;writing-mode:lr-tb;direction:ltr;text-anchor:start;fill:#fff;stroke-width:1.33417;stroke-linecap:round;stroke-linejoin:round;stroke-dasharray:none"><tspan x="458.367" y="402.626">fig 15</tspan></text>
    <text xml:space="preserve" x="775.953" y="402.626" style="font-size:18.6667px;font-family:&quot;JetBrains Mono&quot;;-inkscape-font-specification:&quot;JetBrains Mono&quot;;text-align:start;writing-mode:lr-tb;direction:ltr;text-anchor:start;fill:#fff;stroke-width:1.33417;stroke-linecap:round;stroke-linejoin:round;stroke-dasharray:none"><tspan x="775.953" y="402.626">fig 16</tspan></text>
    <g style="display:inline">
        <text xml:space="preserve" x="941.325" y="1353.517" style="font-style:normal;font-variant:normal;font-weight:400;font-stretch:normal;font-size:18px;font-family:&quot;JetBrains Mono&quot;;-inkscape-font-specification:&quot;JetBrains Mono&quot;;text-align:start;writing-mode:lr-tb;direction:ltr;text-anchor:start;display:inline;fill:#fff;fill-opacity:1;stroke:none;stroke-width:2.83465;stroke-linecap:round;stroke-linejoin:round" transform="translate(-511.575 -1569.893)scale(1.33333)"><tspan x="941.325" y="1353.517" style="font-size:18px;stroke-width:2.83465">A</tspan></text>
        <text xml:space="preserve" x="981.654" y="1392.782" style="font-style:normal;font-variant:normal;font-weight:400;font-stretch:normal;font-size:18px;font-family:&quot;JetBrains Mono&quot;;-inkscape-font-specification:&quot;JetBrains Mono&quot;;text-align:start;writing-mode:lr-tb;direction:ltr;text-anchor:start;display:inline;fill:#fff;fill-opacity:1;stroke:none;stroke-width:2.83465;stroke-linecap:round;stroke-linejoin:round" transform="translate(-511.575 -1569.893)scale(1.33333)"><tspan x="981.654" y="1392.782" style="font-size:18px;stroke-width:2.83465">B</tspan></text>
        <path fill="none" stroke="#6ac0c8" stroke-linecap="round" stroke-linejoin="round" d="m1039.672 1439.131-100.447-152.325m61.522-17.787-82.846 161.572" style="display:inline" transform="translate(-511.575 -1569.893)scale(1.33333)"/>
        <path fill="none" stroke="#f3ba38" stroke-linecap="round" stroke-linejoin="round" d="m900.066 1368.047 139.357-.454" style="display:inline" transform="translate(-511.575 -1569.893)scale(1.33333)"/>
        <path fill="none" stroke="#9378e3" stroke-linecap="round" stroke-linejoin="round" stroke-width="6.667" d="m728.043 305.967 67.961-133.11m-1.31 53.791 54.843 81.73"/>
        <path fill="none" stroke="#f66640" stroke-linecap="round" stroke-linejoin="round" stroke-width="2.5" d="m892.305 1375.699 7.907-18.492m.088.012 4.764 19.402m-15.795-12.422 15.778 12.389m-15.671-13.072 20.64 1.891m-17.872 10.555 17.903-10.471" style="display:inline" transform="translate(-511.575 -1569.893)scale(1.33333)"/>
        <text xml:space="preserve" x="620.604" y="1385.075" style="font-style:normal;font-variant:normal;font-weight:400;font-stretch:normal;font-size:18px;font-family:&quot;JetBrains Mono&quot;;-inkscape-font-specification:&quot;JetBrains Mono&quot;;text-align:start;writing-mode:lr-tb;direction:ltr;text-anchor:start;display:inline;fill:#fff;fill-opacity:1;stroke:none;stroke-width:2.83465;stroke-linecap:round;stroke-linejoin:round" transform="translate(-407.686 -1568.925)scale(1.33333)"><tspan x="620.604" y="1385.075" style="font-size:18px;stroke-width:2.83465">A</tspan></text>
        <text xml:space="preserve" x="678.519" y="1385.81" style="font-style:normal;font-variant:normal;font-weight:400;font-stretch:normal;font-size:18px;font-family:&quot;JetBrains Mono&quot;;-inkscape-font-specification:&quot;JetBrains Mono&quot;;text-align:start;writing-mode:lr-tb;direction:ltr;text-anchor:start;display:inline;fill:#fff;fill-opacity:1;stroke:none;stroke-width:2.83465;stroke-linecap:round;stroke-linejoin:round" transform="translate(-407.686 -1568.925)scale(1.33333)"><tspan x="678.519" y="1385.81" style="font-size:18px;stroke-width:2.83465">B</tspan></text>
        <path fill="none" stroke="#6ac0c8" stroke-linecap="round" stroke-linejoin="round" d="m600.675 1439.676 99.413-150.072m-59.568-22.583 80.393 161.969" style="display:inline" transform="translate(-407.686 -1568.925)scale(1.33333)"/>
        <path fill="none" stroke="#f3ba38" stroke-linecap="round" stroke-linejoin="round" d="m600.15 1367.63 140.47.629" style="display:inline" transform="translate(-407.686 -1568.925)scale(1.33333)"/>
        <path fill="none" stroke="#9378e3" stroke-linecap="round" stroke-linejoin="round" stroke-width="6.667" d="m420.803 307.683 54.739-81.456m-2.076-53.91 65.73 134.714"/>
        <path fill="none" stroke="#f66640" stroke-linecap="round" stroke-linejoin="round" stroke-width="2.5" d="m592.457 1375.513 7.88-18.503m.287.096 4.764 19.403m-15.795-12.423 15.778 12.39m-15.671-13.072 20.64 1.89m-17.872 10.556 17.903-10.471" style="display:inline" transform="translate(-407.686 -1568.925)scale(1.33333)"/>
        <text xml:space="preserve" x="624.589" y="1159.179" style="font-style:normal;font-variant:normal;font-weight:400;font-stretch:normal;font-size:18px;font-family:&quot;JetBrains Mono&quot;;-inkscape-font-specification:&quot;JetBrains Mono&quot;;text-align:start;writing-mode:lr-tb;direction:ltr;text-anchor:start;display:inline;fill:#fff;fill-opacity:1;stroke:none;stroke-width:2.83465;stroke-linecap:round;stroke-linejoin:round" transform="translate(-711.245 -1321.599)scale(1.33333)"><tspan x="624.589" y="1159.179" style="font-size:18px;stroke-width:2.83465">A</tspan></text>
        <text xml:space="preserve" x="702.908" y="1159.18" style="font-style:normal;font-variant:normal;font-weight:400;font-stretch:normal;font-size:18px;font-family:&quot;JetBrains Mono&quot;;-inkscape-font-specification:&quot;JetBrains Mono&quot;;text-align:start;writing-mode:lr-tb;direction:ltr;text-anchor:start;display:inline;fill:#fff;fill-opacity:1;stroke:none;stroke-width:2.83465;stroke-linecap:round;stroke-linejoin:round" transform="translate(-711.245 -1321.599)scale(1.33333)"><tspan x="702.908" y="1159.18" style="font-size:18px;stroke-width:2.83465">B</tspan></text>
        <path fill="none" stroke="#6ac0c8" stroke-linecap="round" stroke-linejoin="round" d="m598.476 1246.857 80.376-158.495m-20.308-.245 81.159 159.474" style="display:inline" transform="translate(-711.245 -1321.599)scale(1.33333)"/>
        <path fill="none" stroke="#f3ba38" stroke-linecap="round" stroke-linejoin="round" d="m599.698 1167.816 140.421.164" style="display:inline" transform="translate(-711.245 -1321.599)scale(1.33333)"/>
        <path fill="none" stroke="#9378e3" stroke-linecap="round" stroke-linejoin="round" stroke-width="6.667" d="M165.875 183.499 113.7 287.929m79.932-105.786 55.664 108.516"/>
        <path fill="none" stroke="#f66640" stroke-linecap="round" stroke-linejoin="round" stroke-width="2.5" d="m592.499 1176.093 7.907-18.491m.088.011 4.764 19.402m-15.795-12.422 15.778 12.389m-15.671-13.072 20.64 1.891m-17.872 10.556 17.903-10.472" style="display:inline" transform="translate(-711.245 -1321.599)scale(1.33333)"/>
    </g>
</svg>
