<svg xmlns="http://www.w3.org/2000/svg" xml:space="preserve" viewBox="0 0 960 480">
    <g style="display:inline" transform="translate(190.953 -1051.365)scale(1.33333)">
        <path fill="none" stroke="#6ac0c8" stroke-linecap="round" stroke-linejoin="round" d="m7.246 967.854 28.897.001m46.812.002 33.483.002m6.923 0 16.334.001m-20.348-59.241.137 15.74m.753 86.65.15 17.22m183.651-59.582 32.224.325m7.278.074 33.055.333m46.391.468 35.613.36m-118.945-61.475.023 16.043m.128 87.373.024 16.28"/>
        <path fill="none" stroke="#9378e3" stroke-linecap="round" stroke-linejoin="round" stroke-width="5" d="m39.651 967.474 39.79.503m40.132-39.967.696 79.474m219.564-79.254.026 80.424m40.177-39.279 39.119.333"/>
        <circle cx="119.96" cy="967.718" r="1.25" fill="#fa7fb1" stroke="#fa7fb1" stroke-width=".1"/>
        <circle cx="339.657" cy="969.054" r="1.25" fill="#fa7fb1" stroke="#fa7fb1" stroke-width=".1"/>
        <path fill="none" stroke="#f66640" stroke-linecap="round" stroke-linejoin="round" stroke-width="2.5" d="m-6.866 975.85 7.907-18.492m.088.011 4.765 19.403m-15.795-12.423 15.777 12.39m-15.671-13.072 20.64 1.891m-17.871 10.555 17.902-10.471m281.908 10.571 7.907-18.491m.088.011 4.764 19.402m-15.795-12.422 15.778 12.39m-15.671-13.073 20.64 1.891m-17.872 10.556 17.903-10.472"/>
        <path fill="none" stroke="#f3ba38" stroke-linecap="round" stroke-linejoin="round" stroke-width="2.5" d="m39.883 967.557-.029.094m39.663.62.024-.152"/>
        <circle cx="119.565" cy="928.026" r="1.25" fill="#f3ba38" stroke="#f3ba38" stroke-width=".1"/>
        <circle cx="120.467" cy="1007.444" r="1.25" fill="#f3ba38" stroke="#f3ba38" stroke-width=".1"/>
        <circle cx="339.726" cy="1008.345" r="1.25" fill="#f3ba38" stroke="#f3ba38" stroke-width=".1"/>
        <path fill="none" stroke="#f3ba38" stroke-linecap="round" stroke-linejoin="round" stroke-width="2.5" d="M418.877 969.521q.049-.016.023.072"/>
        <circle cx="339.766" cy="928.197" r="1.25" fill="#f3ba38" stroke="#f3ba38" stroke-width=".1"/>
        <circle cx="379.988" cy="969.341" r="1.25" fill="#f3ba38" stroke="#f3ba38" stroke-width=".1"/>
        <path fill="none" stroke="#f3ba38" stroke-linecap="round" stroke-linejoin="round" d="M-15.285 953.678q.189-.178.442-.386.319-.272 1.289-1.321.971-1.049 1.744-2.156t1.209-1.966.822-2.029q.387-1.17.578-2.884t.104-2.609-.194-1.357q-.106-.463-.387-1.155-.28-.693-.629-1.195-.348-.501-.622-.768-.274-.266-.513-.437t-.838-.415q-.599-.245-1.253-.329-.655-.084-1.081-.056-.427.028-.76.083-.332.054-1.566.504t-2.233 1.116-1.451 1.067q-.45.401-1.018 1.044-.567.643-1.08 1.41t-1.033 1.898q-.52 1.133-.902 2.831-.381 1.697-.372 3.172t.141 2.21.342 1.381q.21.647.493 1.209.283.561.456.822.174.262.4.528.225.267.487.513t.899.616q.636.369.995.469.36.101.568.134.209.033.489.039.28.007.536-.013.255-.02 1.201-.317t1.557-.662 1.13-.779q.521-.413.779-.664.257-.251.453-.468t.646-.637"/>
        <path fill="none" stroke="#f3ba38" stroke-linecap="round" stroke-linejoin="round" d="M-16.25 949.212q.071.092.321.515.249.422.807 1.262.559.84 1.289 1.83t1.382 1.734q.028.013.221.139l.489.315m298.874-2.748q.19-.179.443-.386.319-.273 1.289-1.322.971-1.048 1.744-2.156.773-1.107 1.208-1.966.436-.858.823-2.029t.578-2.884q.191-1.714.104-2.608t-.194-1.358q-.107-.463-.387-1.155-.281-.692-.629-1.194-.349-.502-.623-.769-.273-.266-.512-.437t-.838-.415-1.254-.328-1.081-.057-.759.083q-.333.054-1.566.504-1.233.451-2.233 1.116-1 .666-1.451 1.067-.45.401-1.018 1.045t-1.08 1.409-1.033 1.898q-.52 1.133-.902 2.831t-.372 3.173.141 2.209.341 1.381q.211.647.494 1.209.282.562.456.823t.4.528q.225.266.487.512t.898.616.996.47.568.133.489.04.535-.014q.256-.02 1.202-.317.947-.297 1.556-.662t1.131-.779.778-.664q.258-.251.454-.468t.645-.637"/>
        <path fill="none" stroke="#f3ba38" stroke-linecap="round" stroke-linejoin="round" d="M286.169 947.792q.071.092.321.515.249.422.807 1.262t1.289 1.83 1.382 1.734q.028.013.221.139l.489.315m-214.322-7.045-.023.419q.005.552.037 2.316.032 1.765.113 3.778.08 2.014.259 5.593.016.234.035 1.167"/>
        <path fill="none" stroke="#f3ba38" stroke-linecap="round" stroke-linejoin="round" d="M75.278 947.655q.28-.155.695-.364t1.19-.551 1.376-.543 1.207-.32 1.039-.121q.434-.003.772.057t.692.262q.355.202.563.447.209.245.287.399.078.153.133.448.054.294-.07.858t-.379 1.07q-.256.505-.652 1.024-.396.52-.698.843t-.454.468l-.265.254q-.114.108-.747.742.039.031.265.084.227.053.592.043.365-.009.633-.022.269-.012.898-.006.629.007 1.26.081.631.075 1.036.186.405.112.623.183.219.072.612.29.394.217.9.684.505.466.721.816.216.351.308.618.091.268.123.699.033.432-.028.728-.06.297-.15.505-.089.208-.284.52t-.533.669q-.339.357-.907.751-.567.393-1.441.778-.874.384-1.842.641-.967.258-1.995.431-1.027.173-2.164.403-.084.022-.856.053l-.471.056m-42.222-1.115q.069-.41.486-2.125.416-1.716 1.272-5.142.855-3.426 1.487-5.48t.982-2.83q.351-.776 1.105-1.561.108.039.505.891t.716 2.547.488 2.921.425 3.209q.254 1.983.371 2.925.117.943.23 1.78t.267 1.733q.024.104.104 1.257"/>
        <path fill="none" stroke="#f3ba38" stroke-linecap="round" stroke-linejoin="round" d="M36.047 956.097q.407-.13 2.122-.557t4.586-1.202m333.348 8.846q.069-.41.485-2.125.417-1.716 1.272-5.142.856-3.426 1.488-5.48t.982-2.83 1.105-1.561q.108.039.505.891t.715 2.547q.319 1.695.489 2.921.17 1.227.424 3.209.255 1.983.372 2.925.117.943.23 1.78.112.837.267 1.733.024.104.104 1.257"/>
        <path fill="none" stroke="#f3ba38" stroke-linecap="round" stroke-linejoin="round" d="M377.105 958.577q.407-.13 2.122-.557t4.586-1.202m32.344-8.538-.024.419q.005.552.038 2.317.032 1.765.113 3.778.08 2.013.259 5.593.016.234.035 1.166"/>
        <path fill="none" stroke="#f3ba38" stroke-linecap="round" stroke-linejoin="round" d="M415.079 949.394q.28-.155.695-.364.415-.21 1.19-.552t1.375-.543 1.207-.32 1.04-.121.772.058q.337.059.692.261.354.203.563.447.209.245.287.399t.132.448-.069.859q-.124.564-.38 1.069-.255.506-.651 1.025-.397.519-.699.843t-.453.468l-.265.253q-.114.108-.748.742.04.031.266.084.227.053.591.044.365-.009.634-.022t.898-.006q.628.007 1.26.081.631.074 1.036.186.405.111.623.183t.612.289.899.684.722.817.307.618q.092.267.124.699t-.028.728-.15.505-.284.52-.533.669q-.339.356-.907.75t-1.441.778q-.874.384-1.842.642-.968.257-1.995.431-1.028.173-2.164.402-.085.022-.856.053l-.471.056m-279.402 42.105-.151-.187q-.092-.126-.437-.664-.346-.539-.598-.877-.251-.338-.471-.589t-.544-.537q-.323-.287-.661-.501t-.684-.362q-.345-.146-.824-.239-.479-.094-.87-.085-.392.01-.811.11t-.913.347q-.493.248-.768.454t-.612.546-.714.886-.57.931q-.191.385-.452 1.184-.262.799-.382 1.79t-.052 1.859.16 1.286q.093.418.337 1.055t.585 1.178q.34.54.778.983.439.442.857.714t.849.438q.431.167.984.252t1.116.035.802-.113q.238-.062.7-.242t.83-.382q.367-.203.881-.579t.847-.675q.332-.299.473-.431t.597-.622q.171-.169.362-.375m219.092-6.62-.15-.188q-.092-.125-.438-.664-.345-.538-.597-.877t-.471-.588-.544-.537-.662-.502q-.338-.215-.683-.361t-.824-.24q-.479-.093-.871-.084-.391.01-.811.109-.419.1-.912.348t-.768.453-.612.546-.715.886q-.378.546-.569.931-.192.385-.453 1.184t-.381 1.79-.052 1.86.16 1.286.337 1.054.584 1.178.779.983.857.714q.417.271.849.438.431.167.984.253t1.116.034q.563-.05.802-.112.238-.063.7-.243.462-.179.829-.382.368-.202.882-.579t.846-.675q.333-.299.473-.431.141-.132.598-.621.171-.17.361-.375m-230.852-92.733q.006.064-.006.564.001.17.042 1.352t.163 2.762q.122 1.581.201 2.426.078.846.155 1.636.076.79.215 2.108.138 1.318.264 2.213.126.894.183 1.19.058.295.104.456.047.162.102.388"/>
        <path fill="none" stroke="#f3ba38" stroke-linecap="round" stroke-linejoin="round" d="M127.317 920.402q.193-.072.329-.12.137-.048.84-.258.702-.21 1.427-.357t1.143-.186q.418-.038 1.048-.013.629.025 1.079.117t.685.172q.237.08.752.339.515.26.948.6.432.341.656.579t.386.45q.163.212.553.96.39.747.531 1.219t.204 1.074-.056 1.446q-.12.846-.322 1.393-.203.548-.458 1.001-.254.454-.466.744-.213.291-.389.497t-.458.491-.975.841-1.754 1.244-1.881 1.148q-.822.46-1.469.78-.647.321-.727.363l-.685.365M347.229 919.5q.006.064-.006.564.001.17.043 1.352.041 1.181.162 2.762.122 1.581.201 2.426t.155 1.635q.077.79.215 2.109.139 1.318.264 2.212.126.895.184 1.19.057.296.104.457t.101.388"/>
        <path fill="none" stroke="#f3ba38" stroke-linecap="round" stroke-linejoin="round" d="M347.353 920.417q.192-.073.329-.12.137-.048.839-.258.703-.21 1.428-.357.724-.147 1.142-.186t1.048-.014 1.079.118q.449.092.686.172.236.08.752.339.515.259.947.6.433.341.656.578.224.238.387.45t.552.96.531 1.22.204 1.073-.056 1.447q-.119.845-.322 1.393t-.457 1.001-.467.744-.388.497q-.177.206-.458.491-.282.284-.976.84-.693.556-1.753 1.245t-1.882 1.148-1.468.78-.727.363l-.685.364"/>
    </g>
</svg>
