<svg xmlns="http://www.w3.org/2000/svg" xml:space="preserve" viewBox="0 0 960 480">
    <g style="display:inline">
        <path d="m-140 668-59.743 41.096L-200 608h80v-60l-80-80h89.883L-80 548h20v-40h20l8.952-40H8.074l-9.083 19.525L0 568h40l80-30.445V548h20l60-17.995v18.761L120 568v80l80 18.244v45.863L40 648.513 20 648v20l24.314 20H-6.751L-20 668h-20v40l10.918 60h-110.45L-100 688v-20z" style="display:inline;fill:#f3ba38;fill-opacity:1;stroke:none;stroke-width:2.83465;stroke-linecap:round;stroke-linejoin:round" transform="translate(480 -583.998)scale(1.33333)"/>
        <path fill="none" stroke="#9378e3" stroke-linecap="round" stroke-linejoin="round" stroke-width="6.667" d="M213.333 40.002v400m533.334-400v400m-533.334 0h533.334m-533.334-400h533.334M293.333 146.67H320m0 0v80h-26.667v-80m0 160h53.334v26.666H320v26.667h-53.333v-26.667h26.666zm213.334-240v80h26.666v26.666H480V66.67Zm26.666 26.666h133.334v53.334H640v-26.667H533.333Zm160 106.667H720v53.333h-26.667ZM640 173.335h26.667v106.667H640ZM426.667 306.67v53.333h186.666v26.667H640v-53.334H453.333V306.67Zm80-26.667v26.667h26.666v-26.667ZM400 66.67v26.666h26.667V66.67Zm-26.667 53.333H400v26.667h-26.667z"/>
        <path fill="none" stroke="#f66640" stroke-linecap="round" stroke-linejoin="round" stroke-width="2.5" d="m-66.821 615.967 7.907-18.492m.089.011 4.764 19.403m-15.795-12.423 15.778 12.39m-15.672-13.072 20.64 1.89m-17.871 10.556 17.903-10.471" style="display:inline" transform="translate(480 -583.998)scale(1.33333)"/>
    </g>
</svg>
