<svg xmlns="http://www.w3.org/2000/svg" xml:space="preserve" viewBox="0 0 960 480">
    <g fill="none" stroke="#FFF" stroke-linecap="round" stroke-linejoin="round" stroke-width="6.667">
        <path d="M242.678 227.993q2.275-.725 3.508-.882 1.233-.159 2.803-.318 1.568-.158 2.194-.24.626-.08 2.588-.237t7.375-.272 8.235-.067q2.82.048 6.078.326t8.138.441q4.88.161 11.22-.104 6.342-.265 9.097-.319t6.43-.014q3.674.041 12.774.045l1.496-.021m-80.528 4.412q.276.264 1.223 1.942.946 1.68 1.426 2.446.482.765 1.995 2.502 1.513 1.738 3.355 3.362 1.84 1.624 4.053 3.277t5.108 3.387q2.893 1.733 5.872 2.985 2.979 1.253 6.183 2.119 3.204.864 10.684 2.314 7.48 1.452 9.962 1.696 2.483.244 4.23.394l3.2.276q1.454.126 7.674.202 6.22.078 11.227-.286l1.688-.147m3.514-36.564q.085 2.055.24 5.993.154 3.94.2 6.92.047 2.978.06 8.284.014 5.306.038 10.192t.04 5.914q.015 1.028.033 1.482.019.455.08 3.255.063 2.8.08 4.373m.464-47.837.8-.067q.096.015 1.538.524l1.822.136 1.68.036q.456.014 1.967.04 1.512.028 4.725.014 3.214-.016 8.772.013 5.558.023 8.768-.033 3.21-.058 4.714-.124 1.505-.067 2.917-.159 1.413-.093 2.773-.188 1.359-.095 5.435-.244 4.075-.15 8.992-.367 4.917-.216 7.296-.293t3.27-.11q.89-.035 3.297-.08 2.408-.042 8.17-.125t8.718-.098 5.868-.094 4.38-.174 3.669-.148 3.876-.058q1.677 0 4.275-.025 2.598-.02 4.713-.081 2.115-.062 2.895-.09.778-.03 3.3-.085l5.186-.108q2.664-.055 4.596-.117 1.932-.064 3.586-.134 1.652-.07 3.874-.084t5.456.092q3.232.107 7.199.1 3.968-.013 6.772-.026 2.804-.019 5.348.088 2.545.106 6.97.258 4.427.152 9.663.347t8.25.273q3.017.078 4.344.091 1.326.013 3.902.08 2.576.068 4.87.153 2.293.087 5.329.216 3.037.13 4.539.211 1.5.081 2.744.13 1.242.051 2.137.094.896.041 2.707.144t2.908.15q1.098.05 1.74.073.644.024 2.122.061t5.959.27l1.163.063m1.151.532-.026 2.603q-.017 1.713-.013 1.803.002.088-.07 2.885t-.361 6.717-.485 5.748q-.2 1.828-.456 3.238-.26 1.408-.435 2.162-.176.754-.193.835-.02.08-.44 1.407-.422 1.326-.964 2.541-.543 1.215-1.607 2.884t-1.7 2.475-1.437 1.698q-.802.892-1.623 1.684t-1.54 1.414q-.719.62-1.285 1.07-.567.45-1.18.924-.612.474-2.48 1.786-1.864 1.312-4.895 3.102-3.03 1.791-3.955 2.272-.924.483-1.081.552-.157.068-1.048.478-.89.41-2.53 1.124-1.637.713-2.198.934-.561.223-.839.322-.276.098-1.316.5-1.041.401-1.42.556-.38.156-1.268.472-.888.318-1.881.62-.995.302-1.995.593-1 .29-3.045.773t-2.753.626q-.71.142-2.034.434-1.322.294-2.638.635-1.318.341-5.35 1.575-4.032 1.232-7.221 2.374t-4.577 1.718q-1.387.573-2.4.986-1.014.414-1.094.442-.08.026-2.166 1.048-2.087 1.022-2.951 1.484t-1.063.577-1.562 1.015-2.788 1.982-2.654 2.166q-1.232 1.082-2.31 2.194-1.08 1.114-1.638 1.731-.558.619-1.326 1.553t-1.284 1.63q-.518.697-1.34 1.938-.824 1.242-1.187 1.826t-.77 1.312q-.405.728-.962 1.892t-1.561 4.148q-1.006 2.984-1.26 4.273-.256 1.288-.47 2.907t-.27 2.238-.162 2.951q-.105 2.33-.084 4.755.022 2.424.026 2.594.004.171.356 3.794.35 3.622.64 4.97t.717 2.902 1.003 2.97.982 2.203 1.132 1.972q.727 1.184 1.126 1.737.398.552.874 1.12.478.564.943 1.136.467.572 1.75 1.916 1.282 1.346 1.951 1.931.67.585 2.054 1.656t2.134 1.608q.75.54 2.659 1.77 1.907 1.227 3.165 2.053 1.26.824 1.542 1.028.28.202 1.794 1.244t2.499 1.737q.984.693 1.925 1.42l1.523 1.179q.581.452 1.163.894t.628.47 1.612 1.342 2.393 2.044 1.473 1.311q.646.583 1.338 1.36t1.25 1.492.944 1.241q.386.527 1.099 1.66.713 1.132 1.135 1.847t1.518 3.21q1.098 2.493 1.42 3.565.324 1.073.954 4.41.226 2.098.305 5.468l-.15 1.6"/>
        <path d="M325.655 266.127q.896 2.78.983 2.982.085.202.452.896.365.694 1.047 1.874.68 1.181 1.03 1.606.35.427.947 1.024l1.09 1.098q.494.498 1.12 1.066.627.567 1.12 1 .493.43 1.749 1.38 1.257.951 2.472 1.822 1.214.87 2.1 1.472.889.601 2.506 1.654 1.618 1.055 3.636 2.495 2.019 1.441 3.33 2.46 1.31 1.02 1.616 1.265.305.246 1.365 1.135 1.06.89 1.587 1.392.528.503.842.85.314.349.346.403.032.056.418.503.387.447 1.078 1.261.69.814 1.865 3.004 1.173 2.19 1.22 2.287.045.097.35.895.302.797.873 2.712l.602 2.024q.032.11.458 2.058.424 1.948 1.018 5.186t.744 4.33q.15 1.09.292 2.471.142 1.38.384 4.853.242 3.474.207 5.4t-.227 3.367-.204 1.55q-.013.106-.357 1.142-.344 1.037-.552 1.572-.21.535-.473 1.075-.264.541-.494.946-.228.406-.426.702t-.714.93-1.017 1.158q-.501.52-.62.63-.119.107-.397.38-.278.274-.67.68-.393.404-.874.84-.482.434-.786.691t-.82.653q-.516.398-.55.432-.031.035-2.387 1.808-2.355 1.772-3.57 2.595t-2.405 1.673-2.58 1.706-1.845 1.161-1.135.779q-.68.473-1.188.806-.508.332-.996.631-.49.299-1.113.713-.624.415-1.564 1.071t-2.259 1.532-2.394 1.639q-1.076.761-1.735 1.23-.657.468-1.163.778-.505.308-3.168 2.426-2.662 2.12-3.144 2.595t-1.024 1.063q-.54.588-1.134 1.257-.595.67-1.092 1.319-.498.65-1.384 2.064-.887 1.413-.91 1.442-.021.03-.818 1.994-.796 1.962-1.114 3.33-.317 1.366-.512 3.087-.194 1.721-.298 5.58t-.068 5.673.07 2.82q.034 1.007.176 2.758l.315 3.906q.175 2.158.457 6.131l.107.895m.612.155.43-.106q.429.084.698.155t.796.088 1.013.018.73-.013.82-.059q.578-.052 1.976-.094 1.397-.043 4.176.013 2.777.055 5.302.232t3.84.237q1.316.06 7.083-.206 5.768-.267 8.644-.395 2.877-.127 4.285-.121 1.408 0 3.52.165 2.112.16 4.4.224 2.288.063 4.596-.068 2.31-.133 5.099-.159t6.75-.132 6.157-.16l3.61-.09q1.418-.036 4.335-.202 2.919-.164 4.624-.224 1.705-.058 3.619-.105 1.912-.045 3.185-.09 1.272-.045 3.61-.1 2.34-.054 6.426-.035 4.084.02 6.89.08t5.813.253 4.477.29 2.397.18q.927.08 3.695.303 2.767.224 3.893.334 1.126.108 2.532.261t5.414.539q4.006.385 6.22.632 2.216.245 4.202.413 1.987.17 3.952.336 1.966.168 4.099.275t5.255.141q3.122.033 3.732.019.609-.016 2.136-.014 1.525.014 2.562 0 1.038-.014 3.002-.088 1.962-.073 3.19-.185t4.148-.257q2.922-.144 4.874-.29 1.953-.145 3.245-.38 1.292-.238 2.439-.734 1.146-.496 2.074-1.152.223-.5.506-1.764.284-1.266.348-2.515t.045-1.996q-.02-.745-.081-1.328l-.195-1.817q-.132-1.235-.343-2.788M351.986 101.408l.827 3.408q.09.543 1.766 6.799t3.672 12.432 3.107 9.51q1.11 3.332 1.667 4.887.557 1.556 1.072 3.059.516 1.504 1.1 3.398t3.186 11.386 3.795 14.021q1.195 4.53 2.275 8.516 1.08 3.987 1.649 6.095.57 2.106 1.144 4.296.575 2.19 1.395 5.19t1.502 5.7 1.127 4.384.75 2.744q-.087.24-.274.602M351.78 99.407l.671.062.762.11q1.11.104 2.308.24t2.773.704q.259.29 1.816 2.71t3.281 7.268q1.726 4.847 1.918 5.574.192.725 1.066 4.15.875 3.427 1.29 5.188.414 1.762.52 2.182.108.42.506 2.142.399 1.722.895 4.087.497 2.364 1.537 7.037 1.04 4.672 1.604 7.082.566 2.41 1.532 6.026.968 3.62 1.896 7.011t1.415 5.087q.488 1.694 1.02 3.714.533 2.022.953 3.56.422 1.538 1.06 3.924t1.208 4.335 1.284 4.29q.716 2.34 1.45 4.769.737 2.428 1.492 4.904.754 2.476 1.274 4.062.52 1.588.978 2.892.457 1.306.958 3.123l.296.68.698 2.187"/>
        <path d="m384.285 206.133 1.402-.316 2.212-.202q4.378-.372 7.384-.464 3.008-.092 4.088-.096 1.08 0 2.872-.052 1.79-.048 3.263-.118 1.47-.069 1.803-.073.33 0 5.709-.112 5.38-.11 8.839-.105 3.458 0 6.1.05 2.64.044 3.954.032 1.315-.013 2.144 0 .83.014 6.328-.042t9.88-.27q4.383-.212 8.892-.389 4.51-.176 8.518-.31 4.008-.137 6.513-.24t5.587-.26q3.08-.16 3.28-.175t2.806.013q2.607.023 5.302.499 2.693.474 3.9 1.013 1.208.539 1.726 1.459.518.921.598 1.233.078.313.245.87.165.558.285 1.226t.336 1.664m-114.336-4.992.303.66q.204 1.912.527 4.484.322 2.572.645 4.235m4.625-2.688q2.247-.15 2.488-.179.24-.028 4.01-.15 3.768-.12 5.789-.137 2.02-.016 3.881-.044 1.86-.029 1.96-.037.099-.013 2.472.023 2.374.033 4.007.092t4.867.141 4.166.095q.935.013 4.656-.019l6.586.067q5.264.094 7.9.074 2.638-.02 5.266-.082 2.63-.062 5.512-.296 2.884-.235 6.606-.386l4.87-.194q1.15-.046 10.29.04t11.08.206 5.468.51q5.77.466 7.632.576m-103.714.672q-.184 1.23-.224 12.77t-.117 19.236q-.076 7.698-.29 12.694-.215 4.996-.325 7.69t-.134 4.62q-.026 1.922-.092 9.948-.067 8.026-.491 14.55-.424 6.522-.915 11.176-.49 4.653-.793 7.606-.303 2.952-.9 7.694-.597 4.741-1.115 7.774-.517 3.035-1.112 5.656-.594 2.622-1.556 6.74-.961 4.115-1.393 5.94-.433 1.824-1.05 4.448-.615 2.622-1.655 6.838t-1.395 5.608-1.8 7.832q-1.447 6.44-2.348 11.582t-1.584 10.768-1.097 9.776q-.415 4.15-.7 8.114-.283 3.965-.638 6.796-.354 2.83-1.05 5.632-.694 2.801-1.758 5.345-.126.265-1.378 2.057-1.251 1.794-4.447 4.024t-5.477 3.35q-2.283 1.118-3.52 1.71-1.236.59-3.371 1.504-2.135.915-3.728 1.494-1.592.577-5.795 1.316-4.201.74-6.077.92-1.876.178-4.276.352-2.401.173-3.627.268-1.225.094-3.246.134t-3.654-.1-2.98-.372-1.466-.232-3.291-.737q-3.173-.737-7.188-2.579-4.016-1.84-5.693-2.917-1.678-1.077-2.926-1.893-1.25-.815-1.721-1.164-.473-.35-.833-.667-.362-.316-1.478-1.441t-1.956-2.02-1.402-1.466q-.563-.569-1.363-1.096-.8-.526-2.208-1.09-1.408-.563-4.101-1.55m-.963-13.237v1.041l-.139.802q-1.482 5.57-2.41 7.937t-3.051 5.584q-2.124 3.215-3.324 4.38-1.2 1.167-1.87 1.644-1.113.417-2.21.637-1.099.22-1.805.19-.707-.03-1.534-.144-.825-.114-2.517-.508-1.692-.395-2.852-.855t-2.533-1.043q-1.375-.582-2.356-1.22-.983-.64-2.802-2.63l-.134-.518q-.088-.634.008-3.12.094-2.488.549-4.225t1.367-3.879q.91-2.14 1.606-3.32.698-1.177 2.136-2.673 1.44-1.496 2.26-2.09.822-.594 1.568-.943.747-.35 1.103-.423.357-.07.553-.18t3.963.504 5.665 1.33q1.898.718 2.687 1.114t1.63.752 1.8.663q.96.304 2.785.964m-30.579 1.644-.384-.064-.255.033q-4.061-.69-5.737-1.155-1.676-.464-1.81-.528-.131-.064-2.787-1.268-2.656-1.202-3.954-2.012-1.297-.808-1.914-1.349-.616-.541-1.724-1.783-1.108-1.24-1.87-2.398-.761-1.158-1.568-2.902-.805-1.742-1.55-4.445-.744-2.703-1.131-6.045-.387-3.344-.503-5.19-.117-1.846-.072-9.846.047-7.999.086-11.798t.045-7.736q.008-3.936-.007-4.436"/>
        <path d="M213.334 353.835q.077-2.104.047-4.112.006-.09.089-3.595.083-3.504.517-5.663.434-2.157.81-3.076.377-.92.969-1.737.59-.816 1.436-1.423.845-.606 1.476-.873.63-.265 1.841-.515 1.21-.248 1.974-.24.762 0 2.084.096 1.32.092 2.468.26 1.146.166 2.346.494 1.199.33 1.762.536.564.205 1.645.638 1.081.435 1.123.48.042.043 1.129.604 1.088.563 1.835 1.064t1.028.831.388.401.81 1.39 1.192 3.497q.49 2.181.43 4.19-.06 2.007-.682 3.807-.621 1.8-.804 2.066-.182.264-.381.48-.2.216-1.31.576-1.109.361-1.865.366-3.477-.508-4.06-.613t-2.568-.275-10.932-.758q-.7-.075-1.41-.094-.712-.017-1.266.027-.553.045-2.878-.03"/>
        <path d="M199.047 322.367q-.03.464.099 7.553.13 7.088.303 11.339.174 4.25.218 5.826.044 1.58.218 4.036.173 2.46.373 4.008.201 1.55.521 3.478t.848 3.997 2.568 5.977l.926.726 2.022.898q.966.128 2.05.211 1.088.081 3.572.313t2.566.224q.083-.013 5.8.146 5.719.152 7.403.146 1.684 0 4.855.02 3.169.027 5.146-.038 1.976-.067 4.268-.323 2.29-.257 4.808-.928 2.519-.67 4.58-1.705l2.05-4.046q.196-.388.698-4.25.503-3.863.494-6.379-.01-2.517-.118-4.435l-.184-3.258q-.076-1.342-.117-2.258-.041-.917-.468-5.116t-.864-6.414q-.439-2.218-1.435-4.92-.997-2.703-1.876-4.124l-2.782-1.52q-.314-.114-6.852-1.056t-9.991-.975-8.047.12-5.761.22-2.85.285l-4.706.615q-3.027.395-8.585 1.461l-2.712.746M367.733 93.965l.754-.733.666-.456q1.056-.595 5.276-3.044 4.22-2.45 7.817-4.27t5.117-2.546q1.522-.727 5.143-2.433 3.62-1.707 8.415-4.038t9.736-4.625 16.757-8.652q11.816-6.357 19.1-10.492t12.601-7.099q5.318-2.962 23.707-12.585l1.723-.603m-86.234 160.496 1.974-.214q.762-.05 3.984-.39 3.22-.34 6.82-.758t11.88-1.84 15.413-2.432q7.13-1.012 11.099-1.639 3.968-.627 10.548-1.672t10.553-1.588 15.507-2.35 14.836-2.414l5.565-1.024q2.261-.416 6.947-1.423 4.684-1.005 7.306-1.588 2.623-.582 4.852-1.148 2.228-.565 4.92-1.237M458.713 329.42l1.446-.379q1.512.182 2.402.196.89.018 1.845 0 .956-.014 1.868-.078.912-.063 2.136-.247 1.223-.184 3.515-.705 2.292-.523 4.482-1.155t2.57-.757 1.546-.663q1.166-.536 1.994-1.047.828-.509 2.078-1.482 1.25-.974 2.908-2.53 1.66-1.554 3.355-3.72 1.696-2.164 2.2-3.006.505-.844.81-1.444.303-.6.73-1.612.425-1.014 1.027-2.93.6-1.917.873-3.17.272-1.254.476-2.895t.221-3.9-.072-3.21q-.09-.947-.252-1.914-.161-.965-.372-1.807-.212-.84-.372-1.32-.161-.477-.313-.9-.152-.422-1.24-2.902m-25.729 44.107.1.317q.314 3.062 1.246 11.206.115.511.21 1.415m-8.781 2.902 1.831-.474q.743 0 2.928-.765 2.186-.766 3.796-1.219m11.463-16.956.517.448.476.504q.446.775 3.726 4.495t4.205 4.817m2.231-3.13 1.168-.093q.884-.29 4.165-2.762 3.28-2.47 5.004-4.05m-8.925-10.638q.769.501 2.845 3.038 2.076 2.54 3.897 4.4 1.822 1.86 3.002 3.042m-5.958-24.906q1.194.028 1.79.183t.704.179 2.509.27q2.401.244 6.64.232l1.315-.205m-.226-14.127-.07.54q.117 1.932.542 8.571l.04 2.341m-13.386-13.009 1.393-.496 1.503.217q3.042-.09 12.128-.322"/>
        <path d="m462.807 311.65 1.028.14.614.046q1.566-.013 2.926-.196 1.362-.183 4.196-.957.582-.199 2.088-1.068 1.506-.87 3.639-2.996t2.881-3.398q.748-1.269 1.307-2.754.557-1.484.924-3.688.365-2.204.388-2.544t-.02-1.843q-.041-1.503-.096-3.875m88.124 18.408q.843-3.05 1.455-5.718.61-2.668 1.234-5.768.626-3.1 1.198-6.06.572-2.962 2.554-7.104 1.982-4.144 6.316-6.164 4.335-2.02 9.868-2.956 5.532-.938 14.348-1.303 8.818-.367 13.05-.285 4.232.081 8.388.418 4.157.338 7.582.803 3.426.467 8.915 1.183 5.49.716 14.004.806 8.513.092 14.332-.897 5.82-.99 7.799-1.815 1.98-.826 3.958-2.082 1.98-1.258 3.742-2.756 1.76-1.499 2.9-2.679 1.138-1.179 3.734-4.808 2.595-3.63 4.122-6.404 1.526-2.776 4.666-10.08 3.142-7.304 4.448-10.987 1.307-3.684 2.456-7.822 1.148-4.139 2.575-9.962 1.427-5.82 2.528-10.789t2.263-11.139q1.16-6.17 3.088-16.558 1.925-10.388 2.884-15.295.957-4.908 1.56-7.3.6-2.392 1.852-7.059 1.249-4.668 1.812-6.764t3.714-12.23l.319-2.11"/>
        <path d="M608.673 274.128q-.322.793-1.3 5.883-.98 5.09-1.42 8.257-.44 3.168-.704 5.665-.266 2.498-1.174 9.344-.908 6.847-1.536 11.696-.63 4.85-1.377 10.02-.75 5.172-1.455 9.128l-1.19 6.671q-.483 2.715-1.043 6.235-.561 3.52-1.559 9.482t-1.666 11.687q-.67 5.727-.931 8.303-.263 2.574-.488 4.264-.225 1.688-.943 7.138-.717 5.451-1.288 8.966-.57 3.513-1.125 6.592-.555 3.077-1.432 6.65-.877 3.57-1.336 4.936-.457 1.367-1.327 3.367m84.207-141.897.06.648q-.02.804.91 7t1.615 9.734q.687 3.54 1.558 8.124.872 4.584 3.58 16.376 2.71 11.791 4.2 18.686 1.488 6.894 2.524 12.742t1.853 10.898 1.15 6.945q.331 1.893.713 3.947.38 2.052 1.282 5.79.902 3.735 2.927 11.316 2.025 7.583 3.113 11.518t1.536 5.63q.45 1.696 2.324 8.564l.522 2.15.569 2.042"/>
        <path d="m597.21 351.403 1.43.294.767.002.947-.052q1.21-.19 1.53-.27.318-.08 1.713-.373 1.393-.293 3.532-.408 2.137-.116 3.562-.075 1.424.043 2.287.028.864-.013 1.943 0 1.078.014 4.646-.17 3.568-.179 9.215-.643t10.199-.67q4.55-.205 6.409-.211 1.857 0 4.88.013t6.813.147 4.379.133 9.364.037l2.199-.073m64.33-240.985.082-.222q.16-.644 11.31-44.957.236-.436.828-2.044m-.613 20.973q.568.532 1.361 1.522.792.988 1.784 2.481.992 1.495 1.778 2.817.784 1.323.962 1.7.179.38.887 1.77t.915 1.748q.208.357.74 1.626.536 1.27 1.202 3.227.668 1.959 1.007 3.081l.645 2.143q.307 1.02.584 2.036.278 1.016.568 2.744.292 1.728.424 3.37t.083 3.794-.212 3.46q-.164 1.31-.913 3.984-.75 2.675-1.432 4.341-.683 1.667-1.336 2.951-.654 1.283-1.526 2.69t-1.058 1.665q-.188.258-1.416 1.958t-2.9 3.548l-2.29 2.534q-.618.685-1.68 1.766-1.061 1.083-2.045 2-.985.915-2.45 2.307-1.462 1.392-2.58 2.383-1.12.99-1.526 1.36t-2.395 2.3q-1.99 1.932-3.134 3.108-1.146 1.176-2.852 3.07-.06.184-1.356 1.508M462.495 65.993l-.205.315q-.945 2.18-3.516 7.568-2.572 5.387-4.833 10.105t-3.443 7.236q-1.181 2.52-2.141 4.687-.96 2.17-1.558 3.577t-2.93 7.163q-2.332 5.755-3.887 9.603-1.553 3.85-4.292 9.87m27.976-58.307q.004 1.735-.019 11.135-.022 9.4-.066 15.171-.044 5.773-.072 11.901t-.083 11.907-.139 13.137q-.082 7.36-.165 10.06-.083 2.703-.165 4.663l-.24 5.603q-.158 3.644-.264 5.721l-.435 2.576"/>
        <path d="m433.326 127.692 2.305-.064q3.434.013 3.863 0 .43-.013 3.51 0 3.08.017 6.091.04 3.01.021 4.414.013 1.402-.014 2.917 0 1.513.022 4.46.192 2.945.172 5.157.236 2.212.063 3.43.078 1.22.016 2.369-.026l2.019-.07q.873-.03 1.884-.019 1.012.013 4.793.175m3.862-52.635q1.177-1.684 1.78-2.577.606-.894 1.72-2.2 1.117-1.306 2.025-2.068.908-.763 2.042-1.438 1.136-.674 2.534-1.109t2.066-.496q.668-.06 1.058-.092.389-.032 1.87.316t2.172.672 1.187.575q.497.252 1.099.684t1.216 1.133q.612.701 1.018 1.239.406.536 1.296 1.968t1.412 2.756.768 2.492q.248 1.168.343 2.33t.112 2.294-.239 2.868q-.254 1.736-.565 3.206-.312 1.47-1.11 4.044-.798 2.576-1.691 5.182-.892 2.605-1.614 4.668-.721 2.064-2.114 6.04t-3.074 8.358-2.648 6.624q-.966 2.243-1.625 3.751l-1.057 2.43q-.4.92-1.502 3.28-1.102 2.358-2.984 6.267t-2.841 6.034q-.957 2.124-1.548 3.724-.59 1.6-1.08 3.697t-.413 3.713l.114.826q1.294.816 2.112 1.09.819.272 1.742.428.922.158 1.598.262.678.102 1.862.161t3.598.144 4.08.175q1.666.088 3.01.085 1.344 0 8.12-.084M747.53 60.957q-2.539 2.92-4.504 5.547t-2.584 3.667q-.617 1.04-2.22 4.581t-2.008 4.805-.877 3.434q-.474 2.17-.692 3.298-.22 1.13-.266 1.263-.048.133-.353 3.679t-.252 6.352q.055 2.805.21 4.366.158 1.562.535 3.194.378 1.632.584 2.386.207.756.352 1.412.144.656.45 1.756l.586 1.794"/>
    </g>
</svg>
