<svg xmlns="http://www.w3.org/2000/svg" xml:space="preserve" viewBox="0 0 960 480">
    <g fill="none" stroke="#FFF" stroke-linecap="round" stroke-linejoin="round" stroke-width="5.023">
        <path d="M354.476 384.095q1.674-2.433 1.822-2.655.15-.222.855-1.298.706-1.076 2.306-3.8t4.81-7.65q3.209-4.925 5.446-8.178 2.238-3.253 5.542-7.954t5.494-7.72 5.262-7.128 5.792-7.723 3.914-5.215 7.784-9.9q6.592-8.302 12.105-15.026t8.667-10.555q3.151-3.83 5.865-7.03 2.716-3.197 5.563-6.344 2.848-3.149 4.407-4.84t2.471-2.732 3.224-3.407l1.68-1.591m1.992-.071.022-.377q-.025-.703-.912-4.834-.887-4.132-1.97-8.409-1.083-4.275-1.686-6.598-.602-2.324-1.718-5.9t-2.126-6.01q-1.011-2.432-1.915-4.005-.904-1.574-1.745-2.45-.155-.071-1.1-1.297m14.471 38.843.461-.277q1.956-1.633 6.936-6.179t12.09-11.715 13.018-13.075l1.256-1.69m-36.566 35.889 2.479.04q.279.014 4.266-.043 3.987-.055 9.609-.695 5.62-.64 8.006-1.1 2.385-.46 3.52-.696 1.134-.236 1.627-.407t.848-.405.79-.617q.433-.385 2.311-1.614m4.593-28.877q-.04.176.148 1.119.083.971-.741 10.724-.825 9.752-2.38 17.228-.07.12-.868 1.212m-42.398-38.332-.062-1.166-.176-9.688q-.06-3.222-.129-6.163-.067-2.941-.093-7.599-.027-4.657.015-6.972.04-2.313-.04-3.455t-.099-3.261.052-3.848.13-2.818.625-3.699m.812-1.774.929.25q.735.025 1.92.014 1.183-.01 1.643-.035t3.305.119q2.846.143 9.69 1.144t12.361 1.781 10.321 1.064l1.336.178m2.744 2.513.135.774-.047.836q-.222 1.12-.434 9.589-.212 8.468-1.21 30.327l-.456 2.485m-2.215 43.642q.059 1.52.081 1.695t.026 3.266-.315 9.162-.473 7.99-.68 7.486l-.55 2.231M438.826 234.4l-.254.856-.047 1.31q.022.802-.385 10.575-.406 9.772-.46 11.646-.055 1.875-.175 4.192m-1.037 22.233-.036 2.846q.087.785-1.147 13.996l-.138 1.33m1.769 2.954q2.192-.095 2.906-.062.714.032.852.069.137.038 3.905.369 3.767.33 6.006.52 2.238.19 4.04.49 1.8.3 3.66.676 1.859.377 4.174.77 2.315.394 3.29.568.974.175 1.47.272.495.096 2.667.325 2.172.23 3.481.238 1.308.01 2.356-.08 1.047-.088 1.729-.203t1.917-.615q.847-1.332 1.44-3.57.593-2.24.803-3.46"/>
        <path d="m437.058 176.277.848-.575q1.34-1.125 2.24-1.834.898-.709 5.579-5.009 4.68-4.298 8.309-8.046 3.627-3.749 8.873-8.799t8.511-8.255 4.961-4.889 3.374-3.309 3.818-3.553 5.395-4.905q3.255-2.975 4.914-4.62 1.66-1.645 8.809-9.176l1.382-2.01m-19.37 67.053q.486-.382 1.197-1.127.71-.745 1.037-1.114.328-.37 4.811-5.262 4.485-4.892 8.38-9.23 3.897-4.339 7.911-8.49 4.014-4.153 5.865-6.083t3.145-3.315q1.296-1.383 2.633-2.705 1.336-1.321 2.25-2.23.912-.908 2.077-2.089t3.47-3.509 2.893-2.898 3.946-3.687 5.716-5.413q2.356-2.296 5.562-5.655l1.099-1.15m-46.178 6.715 1.145.305q.474.369 1.035.756.561.386 1.139.61.577.222 1.862.421 1.286.2 2.45.164 1.166-.036 2.457-.173 1.292-.137 3.151-.222.24.073.814.263.574.188.976.292.403.102 1.308.193.907.09 1.907.138t1.398.052q.397 0 1.277.142.881.138 1.443.262t.678.173q.118.048 4.52 1.351"/>
        <path d="M506.124 113.583q-.03.676.192 1.13.033.851.374 4.551t.41 4.513m38.11-6.73.097.492q-.18 2.935-.186 5.02-.006 2.086.05 3.972.054 1.885.108 2.913.053 1.027.153 3.21t.184 4.34.104 5.924q.02 3.765-.022 5.326l-.162 5.838q-.12 4.277-.177 5.618-.056 1.343-.21 5.405-.155 4.062-.271 6.463-.116 2.402-.147 2.895t-.271 5.513-.277 5.57-.188 4.501q-.152 3.954-.234 6.458-.084 2.505-.195 5.344-.112 2.838-.216 6.589-.104 3.75-.177 5.743-.072 1.993-.222 8.524-.149 6.532-.205 8.246-.056 1.713-.193 5.537-.138 3.825-.208 7.304-.07 3.481-.164 5.828m-61.911 57.23q.199-.111 1.132-.931t1.947-1.625q1.015-.804 2.186-1.797 1.17-.992 2.955-2.609 1.784-1.615 6.084-5.837 4.301-4.223 6.094-6.051 1.795-1.828 4.72-4.892 2.928-3.063 4.3-4.494 1.374-1.432 2.736-2.824t2.023-2.037 1.433-1.355 1.552-1.455q.78-.746 1.426-1.4.645-.657 2.265-2.397t3.352-3.426q1.734-1.686 4.138-4.209 2.404-2.521 4.117-4.354m-79.269-84.26q.129-.088 2.97-3.142t4.284-4.659 3.275-3.524q1.835-1.919 2.811-2.977t1.888-2.111 6.666-7.422 7.337-8.054q1.581-1.687 2.11-2.2.528-.512 1.533-1.551 1.004-1.04 1.978-2.09.972-1.05 1.862-1.98t1.467-1.51 1.062-1.028q.485-.449 1.023-1.023t2.214-2.444m-33.476 48.88q.8-.86 7.06-8.304 6.261-7.443 9.42-11.394 3.16-3.95 4.247-5.142t5.876-6.476q4.79-5.283 14.053-14.854l1.234-1.318M474.152 174.8q.116-.16 8.348-9.273t14.353-15.478q6.12-6.366 8.747-8.977t4.272-4.37 1.784-1.924q.137-.166 1.175-1.294t2.787-2.99q1.749-1.864 2.558-2.813m-33.617 100.373q.164-.145.521-.607t.657-.993q.301-.53 2.868-3.803 2.568-3.274 4.953-6.21t3.946-4.792q1.561-1.855 6.685-7.695.6-.576 1.346-1.525m-16.829 34.342.31-.454.225-.439q8.86-9.46 24.762-24.739.338-.085 1.43-.731m-30.346 38.474q.873-.681 1.537-1.385.39-.393 19.02-17.547l.574-.262q.403-.217 2.284-1.705m-26.24 35.153.394-.274q.58-.915 4.84-4.888t6.864-6.085 3.575-2.81 2.884-2.27m-40.935 10.051q-.052.602-.53 2.605t-.873 3.671m9.167-14.326-.34.9q-.026.096-1.428 14.973m9.37-21.792.135 1.067q-2.797 16.633-3.448 19.391m13.293-29.829-.069.284-.19.507q-.225.857-1.086 6.258-.86 5.4-1.8 9.819-.942 4.418-2.143 8.068l-.709 1.358m-41.728 3.392-.163.52.064.298q.054 1.063.18 4.053m67.074-156.042-.047.697q.05 0-.18.513-.23.511-.525 1.374m1.484-3.109.701-.503q-.576 1.309-.985 2.35m2.357-4.061-.412.577q-.212.18-1.214 1.935M339.363 347.664q-.072-1.093-.957-2.485-.884-1.392-1.92-5.905-1.035-4.513-1.179-8.928-.142-4.415.232-7.576.376-3.16 2.083-6.98 1.706-3.82 3.54-6.31 1.834-2.493 4.914-5.348 3.078-2.855 5.024-4.228 1.945-1.373 4.934-3.035 2.989-1.661 6.267-3.035t5.274-2.3 3.19-1.739q1.193-.815 1.681-1.248t.926-.965q.439-.532 1.642-5.515 1.205-4.983 1.856-7.418.652-2.435 1.302-3.91t3.194-4.672 5.728-5.31q3.185-2.115 6.571-3.494 3.387-1.38 8.114-3.541.518-.254 2.653-4.727 2.135-4.472 2.994-6.004t2.528-2.904q1.67-1.373 2.918-1.528 1.25-.156 1.917-.03.668.126 1.143.299.477.173 1.01.442.534.27.917.524.383.253 1.511 1.256 1.127 1.002 2.647 2.467 1.521 1.466 3.372 3.494t2.538 2.705 1.113 1.052q.424.378 1.55 1.247 1.125.868 3.408 2.813"/>
        <path d="m511.56 283.564.507.504 1.03.893q2.554 1.631 6.33 3.186 3.774 1.555 6.533 2.498t4.204 1.45 3.722 1.245q2.278.74 3.01.955.73.216 1.581.454.85.238 1.924.253t3.016-.263q1.944-.279 2.983-.558 1.04-.28 4.645-1.467 3.606-1.186 8.485-3.094t8.517-3.996 5.367-2.999 3.326-1.451 2.286-.694q.691-.151.982-.188.29-.038.728 0 .438.033.864.102.426.07.948.163.522.092 1.172.185t1.248.101q.6.01 1.563-.11.964-.118 3.941-2.099 2.98-1.981 4.981-4.224 2.003-2.244 2.966-3.51.962-1.267 2.668-4.581t2.27-5.197.841-4.542q.279-2.66.15-4.512t-.816-4.29q-.687-2.436-2.716-6.055t-3.265-5.763q-1.236-2.145-1.82-4.046-.582-1.902-.702-2.875-.118-.975-.12-2.289-.003-1.313.763-3.896.767-2.584 1.753-5.25.988-2.666 1.245-3.608t.358-1.496q.1-.552.152-1.097.053-.545.044-1.104-.01-.558.007-.913.015-.355-.625-2.487-.641-2.133-1.335-3.346-.696-1.212-1.842-2.502-1.145-1.29-2.224-2.172t-4.499-2.745-5.289-2.62-4.83-2q-2.964-1.244-4.451-2.023-1.488-.78-3.708-1.679t-2.824-1.421-2.162-1.585-2.713-1.792q-1.153-.728-2.298-1.536-1.145-.806-3.505-2.417"/>
        <path d="M496.5 108.527q.08-.868-.705-2.836-.052-.11-.188-3.893t.127-6.258q.263-2.477 1.54-6.502 1.28-4.025 2.874-6.908 1.593-2.882 2.853-4.471 1.259-1.59 8.317-7.42 7.058-5.828 10.777-9.313 3.72-3.484 5.354-5.97.031-.342.043-1.121t.007-1.588.026-1.338.138-.943.143-.659q.036-.242.526-1.318.491-1.075 2.86-3.967 2.367-2.893 5.503-5.162 3.137-2.267 6.006-3.478 2.87-1.21 6.108-1.707t5.198-.43 3.31.299q1.348.232 7.6 1.938 6.25 1.706 10.089 3.208 3.838 1.503 6.876 3.379 3.037 1.875 5.898 4.56 2.861 2.686 6.78 8.305 3.917 5.619 6.813 12.008 2.897 6.39 5.015 12.347 2.119 5.958 4.424 11.045 2.304 5.087 4.59 8.371t5.06 5.728q2.772 2.446 10.322 5.107t11.935 3.6 9.135 2.133q4.753 1.194 8.427 2.204t7.642 2.198q3.967 1.189 6.164 2.03t4.915 2.517q2.72 1.677 6.163 4.912t5.915 5.81 4.954 5.376 4.276 5.386 3.33 6.764q1.536 4.18 1.895 9.068.36 4.888.011 7.881-.35 2.992-.751 4.667-.403 1.675-2.992 7.247-2.59 5.571-8.67 14.593-6.08 9.024-8.387 13.37-2.307 4.345-3.029 6.409-.721 2.062-.9 3.517-.179 1.454.006 3.678.186 2.223.4 3.947t.518 3.4 1.218 6.53 2.186 10.296 2.772 9.971q1.5 4.53 2.56 7.374 1.058 2.843 2.102 6.218 1.045 3.377 1.563 5.577.52 2.2 1.092 7.204.574 5.004.556 7.597-.02 2.593-.28 5-.26 2.409-.953 4.882-.691 2.473-2.717 5.58-2.028 3.107-5.691 5.906-3.665 2.797-7.907 5.037-4.242 2.238-7.494 3.84t-7.74 4.517q-4.49 2.914-6.67 4.688-2.181 1.775-7.124 6.56t-7.773 8.091-4.52 5.647q-1.693 2.342-4.094 7.286-2.4 4.943-3.866 9.822t-1.85 6.158"/>
        <path d="M646.602 147.597q-.161-.195-.531-.487l-.417-.431q-.494-.416-2.05-1.132-1.556-.718-3.29-.886t-3.379.397q-1.643.566-2.665 1.218-1.02.651-2.457 2.252-1.436 1.602-2.002 2.63-.568 1.03-.774 1.648-.206.619-.255.697t-.17 2.564.129 3.523q.248 1.036.93 2.19.684 1.154 1.27 1.65.588.498 1.76.963 1.173.466 4.375.291 3.201-.174 4.993-.846 1.79-.67 3.594-1.789 1.803-1.117 3.586-3.064t2.733-4.008q.95-2.06 1.239-3.303.287-1.244.637-2.6m27.765 17.292q-.547-1.613-.97-2.537-.425-.924-.694-1.342-.27-.418-.703-.99-.435-.573-1.85-1.552-1.413-.98-3.143-1.366-1.73-.384-2.867-.086-1.136.298-1.8.706-.662.407-1.981 2.024-1.32 1.618-1.754 2.752t-.499 2.527.39 2.677q.451 1.285 1.342 2.072.89.787 1.971 1.19 1.082.402 1.972.507.891.106 1.901-.044t5.056-2.545 5.153-3.814l1.646-2.18m-75.264 29.543q.687-.628 1.51-1.238.821-.61 1.003-.687.182-.076 2.477-1.442t5.38-2.71q3.084-1.346 7.646-2.254t7.288-.827 3.945.211 4.901 1.735 6.755 3.419q3.074 1.813 4.02 2.397.947.582 2.536 1.799 1.59 1.216 2.621 2.257 1.032 1.042 3.31 4.098 2.276 3.056 2.673 3.888.397.833 1.017 3.324t.896 6.024.174 5.445q-.103 1.911-.442 3.81t-1.419 5.485-1.855 5.148q-.777 1.56-1.817 3.09t-1.566 2.12-.885.908-1.22.89q-.858.573-2.651 1.493-1.794.919-4.274 1.412t-5.39.443-5.776-.764-5.386-1.911-5.417-3.526-7.861-8.281q-4.964-5.95-5.313-6.511-.35-.562-1.821-3.807-1.473-3.246-2.236-5.55t-1.147-3.627q-.381-1.324-.702-2.61t-.643-2.95-.343-3.776q-.022-2.11.15-3.54.172-1.428.563-2.798t1.266-3.797q.874-2.425 1.122-3.15m8.292-110.396-.48-1.396-.663-1.83q-2.39-8.86-2.57-9.699-.182-.838-.484-3.132-.304-2.293-.269-2.93.036-.637.16-1.037.126-.4.327-.796.202-.395.93-1.201.728-.808 1.257-1.14t.615-.395 1.862-.43 3.557-.234q1.782.131 4.309.924t4.09 1.47q1.566.679 3.326 1.567t3.79 2.158 2.982 1.937 2.287 1.722q1.336 1.057 1.632 1.377.297.32.673.948.376.63.653 1.414.276.783.533 3.124.258 2.34.026 3.656-.234 1.315-.572 1.997-.339.682-1.75 2.008t-2.282 2.002-2.128 1.547-1.88 1.248q-.62.378-1.601 1.025-.98.647-1.697 1.015-.716.37-.97.485-.256.115-1.599.524-1.344.409-2.976.53-1.633.12-3.07-.016t-2.492-.486-1.487-.593q-.43-.24-1.006-.722-.577-.481-.68-.55t-1.336-2.178-2.258-3.923-1.584-2.731m9.248 300.724-.271.478-.345.921q-.75 2.22-2.386 6.417-1.635 4.197-3.37 7.544-1.737 3.347-3.507 6.838t-2.492 5.085-1.314 3.141-1.134 3.16q-.54 1.614-1.102 3.598t-1.232 4.696-1.208 6.126q-.535 3.414-.893 5.383-.358 1.97-.725 3.224-.368 1.255-2.108 3.849-1.74 2.593-3.258 4.676m-3.313-2.357q.044-.126.02-.731.225-.647.691-2.695.465-2.05.116-5.478t-1.193-7.615q-.841-4.188-1.87-7.742-1.026-3.553-3.231-7.765t-3.672-6.306q-1.466-2.095-2.858-3.937-1.391-1.844-4.611-5.334-.27-.318-1.228-3.62-.959-3.303-1.603-8.12t-1.22-7.218-1.578-4.445-2.506-3.257q-1.502-1.211-3.025-2.136t-2.325-1.41-1.773-.997q-.97-.51-4.471-2.797-3.5-2.287-5.35-3.569-1.848-1.282-3.601-2.196t-3.777-1.548-3.146-.908q-1.123-.273-1.625-.355-.504-.081-1.152-.275-.648-.195-1.059-.274t-.447-.084q-.038 0-.177.208-.14.211-.406.58-.268.368-.436.687t-.703 1.281-.88 1.596-.717 1.35q-.374.717-1.683 3.972t-2.141 6.644-1.046 6.143-.099 4.835q.115 2.083.414 4.185.299 2.1.581 6.602.283 4.5.17 7.107t-.328 4.234-2.184 8.09-5.283 12.407q-3.312 5.943-5.531 9.115-2.22 3.172-3.384 4.673t-1.662 2.23q-.5.733-.59.926-.09.192-1.095 1.755-.973.92-1.49 1.5-.518.58-3.697 4.443-.463.115.07-4.681-.112.075-1.285.456-1.174.38-2.8.592-1.626.21-1.95.173-.325-.039-1.687-.25-1.363-.212-2.55-.802-1.189-.592-1.766-1.065-.576-.473-1.08-1.029-.503-.555-1.3-2.031-.796-1.476-1.677-6.895-.882-5.42-.528-12.299.354-6.88.479-10.363.124-3.484-.16-6.484t-1.603-7.136-2.423-6.236-2.517-4.218-1.795-2.65q-.382-.534-2.024-2.482-1.64-1.947-2.786-3.074t-1.946-1.82-3.219-2.602q-2.421-1.911-4.052-3.012-1.631-1.102-2.947-1.588-1.316-.484-2.528-.606-1.211-.123-3.691.237l-.425-.108q-.27.01-.797.372-.09.488-.832 3.972t-1.811 8.698-1.614 8.223q-.544 3.007-.909 5.131t-.865 6.926q-.499 4.8-.81 7.638-.312 2.836-1.231 6.034-.92 3.2-2.391 6.355-1.47 3.156-4.162 6.635-2.691 3.479-7.184 7.395t-7.355 6.227q-2.86 2.312-8.416 6.545-5.556 4.235-6.689 4.614-1.133.38-2.067.289-.935-.09-1.693-.736t-1.606-3.222-.935-5.099q-.087-2.522.265-5.914.351-3.391.478-4.867.125-1.476.497-6.604.373-5.13.301-10.607-.07-5.479-.432-8.669-.36-3.19-1.495-8.73-1.138-5.541-2.327-9.07t-2.34-5.632q-1.151-2.102-2.624-3.833t-2.965-2.963q-1.493-1.23-3.418-2.638-1.926-1.409-3.732-2.513t-2.783-1.608q-.975-.503-2.011-.898-1.035-.394-2.461-.655l-.806-.488q-.342-.274-2.416-1.115-2.075-.843-2.502-1.182m-17.358-3.323-.505-.323q-2.2-.621-3.563-1.064t-3.098-1.3-2.908-1.587-2.051-1.313q-.878-.581-1.716-1.164-.84-.584-2.104-1.528t-2.636-2.765q-1.37-1.82-2.923-3.948M537.772 90.357q-.25-.34-.956-1.246t-2.648-2.532-4.63-3.684-3.326-2.46q-.638-.4-2.436-1.35-1.8-.948-3.652-1.702-1.851-.755-5.78-2.022-3.928-1.265-14.043-2.952-10.116-1.686-16.442-1.889-6.325-.203-9.556.036t-5.793.652-7.924 1.803-9.312 2.852-7.727 2.994-8.492 3.61q-.52.451-2.201 1.303m108.436 2.294.386.633.349 2.371.113.76q-.033.92.157 5.449-.095.017-3.178 0-3.083-.016-3.884-.126m-303.764 7.855q-.007-.287.031-.556.037-.268.032-.594-.052-.266-1.734-2.141-1.68-1.876-2.94-2.286t-2.434-.328q-1.175.082-1.991.503t-1.482 1.163q-.665.74-.955 1.253l-.478.854q-.19.34-.564 2.089t.024 4.062q.398 2.316 2.143 4.029 1.746 1.713 3.001 2.197 1.256.484 2.088.56.83.076 1.402-.044.57-.12.828-.234.257-.113 1.278-.761 1.022-.65 3.72-2.44l.563.74.363.563.433.578q.841 1.024 1.974 4.783t.995 7.304q-.023.473-2.35 1.565t-3.698 1.102-2.33-.097q-.956-.106-5.294-3.45m6.47-42.436 1.436 1.87q.088.245 3.676 6.83 3.589 6.584 7.334 10.552l.8-.434q.11-.02.851-.898.742-.876 1.373-1.529.63-.653 1.214-.854.584-.202 1.274-.285t1.187.053q.499.137 1.166.43.667.292 2.516 2.018 1.85 1.727 3.382 2.967m16.23-5.075.294-1.943q-.038-.544-.296-1.624-.257-1.08-1.244-2.904-.986-1.823-1.905-2.682-.92-.858-1.646-1.172t-1.489-.327q-.764-.013-1.54.569-.774.581-1.34 1.558-.567.976-.805 1.813-.237.836-.253 1.811-.015.975.063 1.47t.414 1.174 1.422 1.843q1.085 1.163 1.81 1.532.724.369 1.593.483.87.114 1.367 0 .497-.11.593-.189.098-.08.538-.371.44-.293 1.126-1.608t.367-2.69-.851-4.023m19.218-10.241-.228.117q-.15-.047-.611.434l-.694.088q-.584.013-1.822.18-1.236.166-1.9.456-.663.292-1.417.743-.753.45-1.398 1.451-.646 1-.887 1.79-.241.791-.163 1.578.077.786.25 1.408.171.622 1.202 1.25 1.03.627 1.972.95.941.322 2.465.54 1.524.22 3.437.386t2.606.35q.693.182 1.381.447t1.243.719q.553.454.829.817.274.364.448.824.172.46.183 1.097.01.638-.083.957-.093.32-1.623 1.292-1.53.973-3.997 1.51-2.465.538-4.498.288-.67-.23-2.453-.945m18.013-30.39.242.511q.051.553 2.735 6.478t4.506 8.4q1.825 2.473 2.756 3.365.931.891 1.66 1.222.73.33 1.358.358t2.358-.659 4.426-2.843"/>
        <path d="M297.43 82.382q3.265-1.721 17.025-9.958m41.452-6.97q-.24-.446-.588-.516-.349-.072-1.628-1.992-.87-.509-2.3-1.054-.948-.224-1.582-.287t-1.778.058-1.5.18q-.357.06-2.062 1.292-1.706 1.233-2.357 2.794t-.53 2.995q.122 1.433 1.123 2.528 1.002 1.096 3.418 1.733 2.416.638 3.85.382t2.836-1.127q1.403-.871 2.523-2.636t1.41-3.256q.292-1.489-.04-6.284m22.919-18.114q-.795-.272-3.736-1.33-2.94-1.06-5.718-1.48-2.778-.418-4.056-.229-1.278.191-2.045.704-.768.511-1.286 1.871t.035 3.051 1.793 3.508 4.638 5.754q3.398 3.938 8.326 10.135.458-.101.76-.078"/>
        <path d="M366.188 60.877q.51-.338 2.165-1.603 1.653-1.265 4.98-2.902 3.327-1.636 5.987-3.078m-151.25 112.56q1.878-1.487 2.44-1.93.564-.442 1.178-1.255.613-.814.978-1.395.366-.582 1.065-2.269.7-1.685.75-2.6.049-.916.046-1.27-.004-.355-.567-.967t-1.454-.7-1.562.267q-.67.355-1.148.773-.479.417-1.195 1.648-.717 1.232-.979 2.592t-.04 3.124.649 2.556 1.852 2.182 3.063 2.245 3.273 1.159q1.636.302 3.434.17t10.45-5.326m-6.388-16.621q.146.57.51 1.749.365 1.178 2.196 4.349 1.83 3.17 4.265 6.846t4.184 6.267q1.75 2.592 3.267 5.142 1.518 2.548 2.318 3.9.093-.067-.325-.69-.418-.624-1.857-2.574"/>
        <path d="m244.216 152.316 1.459-.722.608-.269q1.876-.214 3.533-.174t2.698.365 1.573.674 1.278 1.14q.748.79.982 1.235.234.444.452 1.181.217.737.24 1.785.022 1.047-3.446 6.733m-.603-30.084q.077.133 4.6 5.545t6.425 7.385q1.9 1.972 2.462 2.474.56.502.84.865.014.052.154-.467.138-.52.357-1.256.22-.736.562-1.569t.822-1.693q.479-.859 1.421-1.374.942-.514 1.38-.586.436-.072 1.261-.141.824-.07 1.878.416 1.054.485 1.581.894.527.408 1.643 1.932t1.787 2.858 1.53 2.354m5.867-10.054q.938-1.046 1.569-2.479.63-1.433.968-2.802t.303-2.27q-.034-.9-.106-1.12-.072-.222-.396-.651-.323-.43-.698-.56-.374-.133-.943 0-.57.133-1.056 1.372-.487 1.241-.336 2.591.152 1.35.27 1.704.12.354 1.37 1.738 1.252 1.384 3.23 2.086t3.41.768q1.43.067 3.37-.355 1.942-.422 3.65-1.323 1.71-.9 2.831-1.4m-8.965-17.424q.395.251 1.055.826.66.574.799.815.138.24 3.142 3.305 3.005 3.064 4.919 4.775 1.914 1.71 2.743 2.493.83.783.735.382l-.764-3.216q-.668-2.815-.852-4.387t-.055-2.233.4-1.102 1.186-.799q.916-.36 1.721-.35t1.919.385 2.319 1.06 2.19 1.521 1.42 1.554q.034.122-.219-1.942-.254-2.064-.338-4.037t.203-3.243.633-1.574q.348-.305.571-.402.224-.096.767-.011.541.085 1.98 1.67 1.438 1.586 2.29 2.72.85 1.134 2.117 2.877t2.315 2.959q.162.121.43.253t.754.68m7.977-3.791.093-.269.436-.927q.25-.727.897-3.333t.713-4.403-.16-2.785-.764-1.648q-.54-.659-.922-.807-.383-.148-.796-.11-.413.036-.656.235t-.588.91q-.344.713-.42 1.393-.078.68-.037 1.096.042.417.21 1.392.166.976 1.274 2.431 1.108 1.457 3.186 2.674t8.387 1.911l2.389-.346m-2.687-18.23.267.367q.897 1.33 11.848 9.325.177-.045-.13-2.919-.309-2.873-.522-4.408-.212-1.535-.182-3.393.03-1.86.447-3.058.418-1.2 1.52-2.603 1.1-1.405 1.94-2.143t1.261-1.222m21.22 4.577-.044-.146.064-.119q-.077-.437-.498-1.327-.421-.891-1.22-1.482-.797-.59-1.097-.754t-1.747-.221-2.908 1.298-2.04 3.208q-.58 1.855-.095 3.55.485 1.696 1.395 2.803.908 1.107 1.599 1.528.69.421 1.21.554.52.132 1.081.084.563-.048 1.98-.902 1.418-.855 4.828-3.464.103.052 1.418.647 1.314.597 4 1.754l1.12.362m-11.349-32.171 1.03 1.17q.387.466 4.518 5.921 4.13 5.455 6.722 9.525 2.59 4.068 4.695 7.837 2.104 3.768 3.907 6.062.29.077.677-.033.386-.11 1.179.1m-140.01 71.408q.46.416 5.176 5.533 4.717 5.116 9.355 11.637.197.056.821.773m.493-18.231q-.075 1.087.086 2.747t.58 3.34.892 2.728.703 1.298.797.607 2.203.71q1.634.354 2.254.387.62.035 5.151.324m-4.798-18.92.608.562q.724 1.43 1.277 2.626t1.47 2.575q.916 1.377 3.347 3.478t4.426 2.77q.195-.317 1.04-2.007.844-1.69 1.572-2.798t1.246-1.583 1.14-.703q.622-.23 1.118-.317t1.94.238 2.502 1.016q1.057.692 2.316 1.808t3.606 3.288m11.762-9.057-1.168.044q-.202.01-.665-.034-.463-.042-1.019-.237-.555-.196-1.047-.428-.493-.233-1.615-1.368-1.12-1.134-1.377-1.773-.256-.64-.32-1.291-.065-.65.152-1.322.218-.671 1.209-.763.99-.092 2.252.739 1.263.83 2.11 1.92.847 1.091.982 1.692.136.602.068 1.36-.067.758-.988 1.373-.921.614-1.9.781-.981.166-1.86.143t-6.576-2.636m11.952-9.958q1.49.323 2.979 1.125 1.49.803 1.816 1.014.326.212 1.033.617.708.404 3.47 1.999 2.763 1.594 5.458 2.585.634-.23 2.706-5.859.132-.33 2.062-.149t3.459.221 2.491-.214l.169-.606q-.246-2.158-.279-2.387-.032-.228-1.221-2.697-1.19-2.467-2.621-5.013m-.877-15.836.227.383q1.108 1.378 6.381 7.036t11.132 13.317q.288.204.514-.166t.47-.75m12.638-2.893-.116-3.316q-.02-.57-.506-3.064-.488-2.493-1.085-3.446-.598-.952-1.317-1.37-.72-.42-1.37-.116-.65.302-.85.621-.2.32-.415 1.666-.217 1.347.034 2.39.25 1.045.736 1.955.484.91 2.264 2.303t3.471 1.834q1.691.442 2.742.428t2.19-.34 2.28-1.322 2.607-1.995m10.775-4.787q-.176-.423-1.474-.98-1.86-2.957-2.765-3.846-.904-.888-1.631-1.423t-1.878-.953-2.512-.422q-1.363-.01-2.806.891-1.445.895-1.767 1.535-.323.64-.483 1.948t.452 2.573 2.361 2.59q1.752 1.326 3.859 1.663t2.902.23 1.38-.391 1.207-.85q.623-.565.982-.982.36-.418.954-1.329.596-.91 1.219-1.748m-16.642-23.209q1.575 2.667 6.092 8.762 4.518 6.094 7.494 8.96 2.974 2.865 4.807 3.936.126-.058.16-.613t.09-1.32m16.723-9.174-.123-.38q-.819-.12-2.128-1.466-1.31-1.345-2.322-1.877t-1.549-.703q-.536-.17-1.416-.235t-1.69.135q-.814.2-1.528 1-.715.799-.892 1.736-.176.937.296 2.157t1.886 2.62 2.559 1.908q1.144.505 2.106.531.963.025 1.556-.152t.978-.421 1.023-.962 1.275-1.952.576-3.353l.174.355.36.62q-.014.07 1.75 2.732 1.763 2.661 4.061 6.48t3.43 6.338q1.133 2.517 1.544 3.827.41 1.311.714 3.165.305 1.853.177 3.316-.127 1.463-.477 2.436t-2.203 2.379-7.132 1.902-8.742-.851q-.545-.151-1.401-1.128t-1.416-1.47m14.833-35.447.379-1.612q.911-2.424.954-2.506t.529-2.536q.484-2.455.393-3.489t-.163-1.49-.54-.878q-.47-.42-1.4-.294-.928.126-1.828 1.232t-1.224 2.418-.25 2.265.531 1.96.573 1.125l1.338 1.385q1.221 1.267 3.01 2.26 1.79.993 3.285 1.382 1.494.39 2.734.379t2.62-.677 6-5.309M229.66 101.11l.85.902q.37 1.384 1.287 2.838.917 1.456 1.947 3.632m10.775-5.974.049.71 2.527 5.169m473.159 92.499-.183-.11-.383.01q-.179-.14-1.228-.63-1.048-.492-1.872-.666-.823-.176-2.205-.099t-2.48.68q-1.1.602-2.194 1.895-1.095 1.292-1.618 3.351t-.334 3.302q.191 1.244.498 1.891.306.647.996 1.284.69.638 1.438.947.746.31 1.969.428 1.222.118 1.873.034.652-.084 1.876-.578t1.363-.565 1.609-1.44q1.467-1.37 3.778-6.967l.43-2.469m3.17-5.764.36.609.636 2.946q.062.297.696 4.317.635 4.02 1.16 7.46-.017-.041-1.45-1.006"/>
        <path d="m726.981 207.9 1.045-.314q4.316-1.791 8.113-2.82 3.798-1.027 5.09-1.438"/>
        <path d="M738.2 193.348q-.372 1.677-.04 6.042.331 4.364 1.149 11.205-.235.73-.295 2.174m-39.228 18.911.159.345 3.288 14.806q.063.033.116-.095t.136-.206m-3.252-14.325q1.065 1.11 3.594 3.434 2.529 2.326 4.817 4.46t3.515 2.991q1.225.858 1.638.863l.165-.52q-.063-.635-.687-1.765t-3.33-10.11l-1.663-2.76m20.02 2.215-.148-.024-.264-.022q-.35-.442-1.052-.898t-1.269-.602-.839-.16q-.274-.018-.666.013-.393.031-1.039.224-.647.193-1.244.635-.598.443-1.036.858-.44.416-1.042 1.442-.604 1.025-.81 2.026-.205 1.002-.194 1.77.01.767.14 1.252.128.484.734 1.448.605.965 1.16 1.34.556.374 1.338.496t1.527-.158 1.503-.918 1.548-2.203.91-2.5q.12-.937.458-2.387m6.932-8.716q.412.988.656 1.696.243.709 1.07 2.493.826 1.785 1.749 3.86m1.708 10.705-.163-1.179m-90.631-93.417 1.054.98.374.074.234.212q.136.38 1.367 1.601"/>
    </g>
</svg>
