<svg xmlns="http://www.w3.org/2000/svg" xml:space="preserve" viewBox="0 0 960 480">
    <g transform="translate(487.565 -650.839)scale(1.33333)">
        <path fill="none" stroke="#9378e3" stroke-linecap="round" stroke-linejoin="round" stroke-width="5" d="M-60 708h40v40h-40zm100-60v80h20v-80zm-60-20h120v-20H-20z"/>
        <path fill="none" stroke="#6ac0c8" stroke-linecap="round" stroke-linejoin="round" d="m-5.674 668.129-114.462-.152m3.635 4.279q.1 1.346.342 4.837t.58 6.855.537 4.878.454 3.241.662 4.214q.408 2.486.721 4.137t.441 2.23l.261 1.172q.133.594.188.86.055.265.519 2.411m-5.203-6.809.289.371q.052.122.804 1.151.751 1.029 1.73 2.383.978 1.354 1.24 1.568l.491.536q.054.069.299.415m1.812-9.969q-.653 5.557-.885 7.592-.231 2.036-.268 2.092t-.192 1.099"/>
        <path fill="none" stroke="#f3ba38" stroke-linecap="round" stroke-linejoin="round" d="m-5.073 671.626-50.182 33.048m-8.221 5.413-55.222 36.441m115.142-73.269-23.688 31.361m-4.71 6.236-25.052 33.167m-5.223 6.916-11.786 15.603m71.655-92.808-15.68 31.024m-4.73 9.36-15.643 30.95m-3.285 6.5-7.996 15.822m49.099-93.663L-16.52 735.02m-4.252 16.362-4.273 16.448m29.403-93.786 31.888 48.884m5.902 9.049 23.127 35.452M5.451 673.286 36.5 704.373m6.486 6.494 13.684 13.701m6.175 6.183 36.881 36.926M8.764 665.251l27.572-9.295m7.405-2.496 6.838-2.305m12.73-4.291 56.418-19.019M8.562 664.756l27.759-11.19m22.431-9.043 32.109-12.943m12.746-5.138 16.337-6.586M8.1 664.025l28.35-14.244m10.394-5.222 25.824-12.974m12.991-6.527 11.443-5.749m6.58-3.305 15.661-7.869M7.505 663.42l51.877-31.783m10.692-6.551 23.451-14.367m9.122-5.589 16.929-10.371M-1.469 662.494l-10.755-30.968m-2.491-7.174-2.277-6.555m-4.551-13.107L-34.2 568.657m31.645 93.974-15.449-31.024m-5.438-10.92-25.875-52.356"/>
        <path fill="none" stroke="#f3ba38" stroke-linecap="round" stroke-linejoin="round" stroke-width="2.5" d="m-60.028 707.898-.04-.034"/>
        <circle cx="-59.848" cy="748.023" r="1.25" fill="#f3ba38" stroke="#f3ba38" stroke-width=".1"/>
        <circle cx="-19.652" cy="707.945" r="1.25" fill="#f3ba38" stroke="#f3ba38" stroke-width=".1"/>
        <circle cx="-19.645" cy="747.696" r="1.25" fill="#f3ba38" stroke="#f3ba38" stroke-width=".1"/>
        <circle cx="40.594" cy="647.997" r="1.25" fill="#f3ba38" stroke="#f3ba38" stroke-width=".1"/>
        <circle cx="60.061" cy="648.123" r="1.25" fill="#f3ba38" stroke="#f3ba38" stroke-width=".1"/>
        <circle cx="100.135" cy="627.97" r="1.25" fill="#f3ba38" stroke="#f3ba38" stroke-width=".1"/>
        <path fill="none" stroke="#f3ba38" stroke-linecap="round" stroke-linejoin="round" stroke-width="2.5" d="m98.672 607.434.063-.075"/>
        <circle cx="-19.896" cy="627.694" r="1.25" fill="#f3ba38" stroke="#f3ba38" stroke-width=".1"/>
        <circle cx="-20.021" cy="608.021" r="1.25" fill="#f3ba38" stroke="#f3ba38" stroke-width=".1"/>
        <circle cx="39.505" cy="727.812" r="1.25" fill="#f3ba38" stroke="#f3ba38" stroke-width=".1"/>
        <path fill="none" stroke="#f3ba38" stroke-linecap="round" stroke-linejoin="round" stroke-width="2.5" d="m59.388 727.472.097.048"/>
        <circle cx="79.197" cy="628.318" r="1.25" fill="#fa7fb1" stroke="#fa7fb1" stroke-width=".1"/>
        <path fill="none" stroke="#f66640" stroke-linecap="round" stroke-linejoin="round" stroke-width="2.5" d="m-6.854 675.285 7.908-18.492m.088.011 4.764 19.403m-15.795-12.423 15.778 12.39m-15.671-13.072 20.64 1.89m-17.872 10.556 17.903-10.471"/>
    </g>
    <text xml:space="preserve" x="451.912" y="436.452" style="font-size:18.6667px;font-family:&quot;JetBrains Mono&quot;;-inkscape-font-specification:&quot;JetBrains Mono&quot;;text-align:start;writing-mode:lr-tb;direction:ltr;text-anchor:start;fill:#fff;stroke-width:1.33417;stroke-linecap:round;stroke-linejoin:round;stroke-dasharray:none"><tspan x="451.912" y="436.452">fig 18</tspan></text>
</svg>
