<svg xmlns="http://www.w3.org/2000/svg" xml:space="preserve" viewBox="0 0 960 480">
    <path fill="none" stroke="#9378e3" stroke-linecap="round" stroke-linejoin="round" stroke-width="10" d="M352.952 322.989h80v80h-80zm200-120v160h40v-160zm-120-40h240v-40h-240z" style="display:inline"/>
    <path fill="none" stroke="#9378e3" stroke-linecap="round" stroke-linejoin="round" stroke-width="10" d="M233.71 42.297v400h480v-400z" style="display:inline"/>
    <path fill="none" stroke="#6ac0c8" stroke-linecap="round" stroke-linejoin="round" stroke-width="2" d="m703.694 242.043-218.192-.292m212.726-7.63q-.15-2.142-.51-7.696-.358-5.554-.872-10.908-.514-5.356-.82-7.764-.304-2.41-.696-5.16-.394-2.75-1.024-6.708t-1.116-6.586q-.486-2.63-.686-3.55-.198-.922-.406-1.868-.206-.944-.292-1.368t-.808-3.84m8.228 10.87-.458-.592q-.081-.196-1.27-1.838-1.188-1.642-2.736-3.802-1.546-2.162-1.96-2.504l-.778-.856q-.085-.112-.472-.662m-2.956 15.844q1.08-8.834 1.462-12.07.384-3.238.444-3.326.057-.088.314-1.746" style="display:inline"/>
    <path fill="none" stroke="#f66640" stroke-linecap="round" stroke-linejoin="round" stroke-width="5" d="m459.246 257.559 15.814-36.984m.176.022 9.528 38.806m-31.59-24.846 31.556 24.78m-31.342-26.144 41.28 3.782m-35.744 21.11 35.806-20.942" style="display:inline"/>
</svg>
