<svg xmlns="http://www.w3.org/2000/svg" xml:space="preserve" viewBox="0 0 960 480">
    <g transform="translate(-317.239 -654.205)scale(1.33333)">
        <path fill="none" stroke="#9378e3" stroke-linecap="round" stroke-linejoin="round" stroke-width="5" d="M539.929 708.674h40v40h-40zm100-60v80h20v-80zm-60-20h120v-19.999h-120z"/>
        <path fill="none" stroke="#f3ba38" stroke-linecap="round" stroke-linejoin="round" d="m594.733 672.84-50.183 33.048m51.699-31.415-23.242 30.772m-5.155 6.825-24.711 32.716m54.305-69.838-15.223 30.119m16.988-30.125-15.925 61.292m20.878-60.976 31.888 48.884M605.257 674.5l31.049 31.088m6.486 6.493 13.684 13.701m-47.906-59.317 27.572-9.295m7.405-2.496 6.838-2.305m-42.017 13.601 27.759-11.19m22.431-9.043 32.109-12.943m-82.762 32.445 28.35-14.244m10.395-5.222 25.824-12.974m-65.163 31.835 51.877-31.783m10.692-6.55 23.451-14.368m-94.994 51.775-10.755-30.968m-2.491-7.174-2.277-6.555m14.436 44.834-15.449-31.024"/>
        <path fill="none" stroke="#f3ba38" stroke-linecap="round" stroke-linejoin="round" stroke-width="2.5" d="m539.778 709.113-.041-.034"/>
        <circle cx="539.958" cy="749.237" r="1.25" fill="#f3ba38" stroke="#f3ba38" stroke-width=".1"/>
        <circle cx="580.154" cy="709.159" r="1.25" fill="#f3ba38" stroke="#f3ba38" stroke-width=".1"/>
        <circle cx="580.161" cy="748.91" r="1.25" fill="#f3ba38" stroke="#f3ba38" stroke-width=".1"/>
        <circle cx="640.4" cy="649.211" r="1.25" fill="#f3ba38" stroke="#f3ba38" stroke-width=".1"/>
        <circle cx="659.867" cy="649.337" r="1.25" fill="#f3ba38" stroke="#f3ba38" stroke-width=".1"/>
        <circle cx="699.941" cy="629.184" r="1.25" fill="#f3ba38" stroke="#f3ba38" stroke-width=".1"/>
        <path fill="none" stroke="#f3ba38" stroke-linecap="round" stroke-linejoin="round" stroke-width="2.5" d="m698.478 608.648.063-.075"/>
        <circle cx="579.91" cy="628.908" r="1.25" fill="#f3ba38" stroke="#f3ba38" stroke-width=".1"/>
        <circle cx="579.784" cy="609.235" r="1.25" fill="#f3ba38" stroke="#f3ba38" stroke-width=".1"/>
        <circle cx="639.311" cy="729.026" r="1.25" fill="#f3ba38" stroke="#f3ba38" stroke-width=".1"/>
        <path fill="none" stroke="#f3ba38" stroke-linecap="round" stroke-linejoin="round" stroke-width="2.5" d="m659.194 728.686.097.048"/>
        <circle cx="679.002" cy="629.532" r="1.25" fill="#fa7fb1" stroke="#fa7fb1" stroke-width=".1"/>
        <path fill="none" stroke="#f66640" stroke-linecap="round" stroke-linejoin="round" stroke-width="2.5" d="m593.075 675.959 7.908-18.491m.088.011 4.764 19.402m-15.795-12.422 15.778 12.39m-15.671-13.073 20.64 1.891m-17.872 10.556 17.903-10.472"/>
    </g>
    <text xml:space="preserve" x="445.621" y="434.296" style="font-size:18.6667px;font-family:&quot;JetBrains Mono&quot;;-inkscape-font-specification:&quot;JetBrains Mono&quot;;text-align:start;writing-mode:lr-tb;direction:ltr;text-anchor:start;fill:#fff;stroke-width:1.33417;stroke-linecap:round;stroke-linejoin:round;stroke-dasharray:none"><tspan x="445.621" y="434.296">fig 19</tspan></text>
</svg>
