<svg xmlns="http://www.w3.org/2000/svg" xml:space="preserve" viewBox="0 0 960 480">
    <path fill="none" stroke="#6ac0c8" stroke-linecap="round" stroke-linejoin="round" stroke-width="3.333" d="m336.798 277.067 19.21-10.316m.332-.206 10.206 18.782m-38.5-25.222q.26-.143.853-.446.595-.304 1.531-.764.937-.46 1.696-.809t1.33-.593q.573-.244.967-.406.395-.161.71-.285l.674-.265q.358-.14 1.402-.499 1.044-.357 1.382-.465.34-.107.751-.215.41-.107 1.008-.25.597-.14 1.105-.251.508-.112.926-.194.417-.08.968-.18.549-.1 1.23-.218.68-.12 1.434-.228t1.581-.206 1.545-.164 1.33-.098q.612-.034 1.348-.04.737-.008 1.6.012.861.018 1.75.066.89.05 1.806.128.916.079 1.573.152.656.074 1.252.178l1.583.272q.988.169 1.708.313.718.144 1.137.248t.944.245q.525.14 1.296.352.772.211 1.397.392.627.182 1.347.408.72.228 1.456.5t1.092.42q.356.147.999.418.642.269 1.238.533t1.36.61q.763.349 1.372.647.608.3 1.288.678.68.377 1.494.853.813.476 1.018.59t1.082.673 1.562 1.048q.688.489 1.476 1.08.787.59 1.208.93.42.339 1.011.835.59.496 1.01.861.418.366.863.766.446.4.928.862.483.463 1.003.988t.979 1.003.857.91q.397.434.755.842.357.408.834.985.478.576.803.996.325.422.852 1.132.527.712 1.055 1.516.528.806.817 1.268t.833 1.402q.546.94.764 1.369.219.43.536 1.107.319.676.542 1.172.224.497.458 1.04.235.542.38.888.144.345.2.493.055.147.176.51.122.365.31.945t.344 1.093q.157.512.282.959.124.445.296 1.209t.391 1.844q.219 1.081.383 2.132.162 1.05.27 2.07t.17 1.75.08 1.17q.016.44.024 1.006t.007 1.257-.011 1.247-.041 1.19q-.031.631-.123 1.589-.093.958-.139 1.41-.044.452-.118.995-.075.544-.194 1.328-.118.785-.218 1.4-.102.615-.183 1.06-.081.444-.185.996-.104.553-.231 1.215l-.21 1.086q-.085.427-.146.716-.063.29-.199.96M320.187 245q.239-.149 1.218-.714.978-.565 1.804-1.03l1.462-.818q.64-.355 1.632-.86.991-.504 1.21-.62t.58-.287q.361-.172.944-.438.582-.266 1.23-.53.648-.265 1.359-.533.71-.268 1.613-.568.902-.299 1.992-.63 1.09-.33 2.094-.6 1.002-.27 1.688-.426t1.209-.256q.523-.099 1.11-.19.59-.09 1.243-.174.655-.083 1.374-.157.72-.075 1.35-.131t1.443-.117 1.548-.084 1.352-.039q.619-.016 1.37-.028.75-.012 1.295-.009.547.003 1.044.016.498.013 1.127.037.63.023 1.477.07.848.045 1.915.112 1.067.068 1.885.132.819.065 1.39.128.57.062 1.253.156.681.093 1.475.217.792.124 1.488.244t1.294.237q.599.116 1.234.259.633.143 1.302.31.67.167 1.315.34t1.265.353q.62.178 1.14.336t.939.296 1.019.357q.598.22 1.377.52l1.259.488.662.26q.182.073.556.228l.942.392q.568.236 1.112.473.542.239 1.062.478.519.238 1.076.5.558.26 1.154.546.594.284 1.05.507.458.223.934.464t.869.455q.392.214.91.5l1.293.712q.774.428 1.518.865.744.436 1.456.883.712.445 1.378.886.665.443 1.282.882.618.437 1.299.953.681.517 1.425 1.11.744.595 1.191.957.447.36.672.554.224.192.928.85.703.66 1.13 1.092.429.43.85.872.423.44.981 1.034.56.595.935 1.003.375.41.564.63.19.223.544.645.355.42.872 1.042t.92 1.115q.403.495.69.86.08.087.887 1.147m-96.9-35.134q.46-.379.639-.516.179-.139.712-.532.535-.393 1.553-1.043 1.02-.649 1.862-1.101.841-.452 1.429-.739.587-.288 1.19-.566.606-.28 1.133-.51.528-.229 1.197-.506.67-.278 1.49-.586.823-.308 1.83-.654 1.007-.348 1.88-.622.875-.273 1.341-.412.467-.138 1.642-.456 1.176-.316 2.192-.537 1.017-.22 1.541-.308l1.53-.257q1.006-.17 1.491-.236t.747-.099 1.356-.127q1.095-.092 1.923-.146l2.101-.139m-18.96 55.487q-.081.032-.327.157-.245.127-.681.401-.436.275-.728.478l-.487.341q-.196.139-.7.519-.504.381-.853.666-.348.287-.704.599-.356.31-.83.744-.475.432-1.033.996-.558.563-1.19 1.257-.634.695-1.064 1.203-.431.51-.671.835t-.585.844q-.343.521-.784 1.236-.442.716-.816 1.384-.375.668-.687 1.288t-.556 1.149-.419.973q-.174.443-.378 1.07-.206.626-.367 1.141-.163.515-.35 1.127-.189.61-.334 1.092-.147.482-.304 1.013t-.199.728-.105.595q-.063.396-.15.992t-.151 1.224q-.066.626-.108 1.286-.044.66-.067 1.214t-.027 1.226q-.005.672.012 1.227.019.556.08 1.157.063.602.122 1.112t.137 1.134.15 1.138.171 1.123q.1.61.232 1.143.134.533.34 1.198t.4 1.166.264.673q.071.17.359.752l.265.679q.028.078.163.353t.377.747q.244.47.392.761.15.29.23.453.078.164.782 1.596"/>
    <path fill="none" stroke="#6ac0c8" stroke-linecap="round" stroke-linejoin="round" stroke-width="1.333" d="M323.03 185.945q-.088.445-.17 1.078-.085.634-.282 2.207t-.363 2.79q-.165 1.214-.642 3.885-.478 2.67-.895 4.304-.417 1.632-.676 2.434-.26.804-.704 1.891-.445 1.087-.968 2.035-.524.948-.953 1.532-.431.585-1.03 1.166-.597.582-1.053.879-.455.296-.85.46-.395.163-.775.245-.379.083-.91.058-.529-.026-1.102-.207-.572-.181-1.252-.62-.68-.437-1.267-1.083-.587-.644-.855-1.072-.268-.426-.432-.793-.164-.365-.224-.533-.06-.167-.224-.932-.165-.766-.046-2.466.118-1.698.41-2.508.294-.808.642-1.394.349-.588.57-.854.22-.264.854-.773.634-.508 1.157-.77.524-.26.923-.375.397-.116.796-.163.398-.047.813-.028.416.017 1.325.272.91.256 1.394.503.484.246 1.358.854.874.61 1.443 1.1.57.492 1.357 1.348.787.858 1.34 1.544.552.688 1.043 1.291t1.555 1.884l1.721 2.073q.657.791 1.572 1.792l.23.256m2.755-.498q.066-.36.179-.834.112-.473.216-.873.103-.4.244-.879.143-.478.277-.833.134-.353.263-.63.13-.278.388-.671.257-.394.613-.746.355-.353.727-.562.372-.208.735-.279.362-.07.59-.059.228.014.476.106t.39.184.313.252.356.477.264.593.1.708q.02.431-.016.71t-.065.412-.179.557q-.148.423-.455.979-.308.557-.696 1.073t-.712.892-.953 1.081q-.63.707-.85.946-.223.238-.527.566-.306.328-.463.515t-.217.272-.107.176-.105.273q-.056.183-.048.375.02.015.1.05.078.035.397.06.317.025 1.013-.06.696-.082 1.315-.203.62-.122 1.061-.216.442-.095.83-.176.386-.082.992-.232.606-.152.936-.24.329-.087.561-.14.232-.052.719-.182l1.993-.477m56.248 1.593q-.299.563-.517 1.028t-.823 1.798l-.992 2.184q-.387.849-.968 2.044-.58 1.194-1.212 2.322-.63 1.128-1.307 2.134-.674 1.004-1.422 1.918-.748.916-1.512 1.675-.764.76-1.97 1.615-1.204.856-2.029 1.236-.825.378-1.479.554-.653.176-1.473.224-.82.05-1.293-.009-.475-.057-1.023-.233t-1.064-.476-.945-.695q-.43-.394-.835-1.029t-.59-1.163-.254-.916-.076-.965q-.01-.579.099-1.208.108-.628.648-1.805.541-1.178 1.664-2.364 1.122-1.188 2.005-1.722t1.645-.788q.762-.253 1.316-.317.555-.065 1.218-.008.664.059 1.136.213.47.156.938.414t1.071.768 1.103 1.124.949 1.345q.45.73.927 1.736t.814 1.86q.338.852.708 1.85l.559 1.511.288.784.447 1.188q.346.918.653 1.727.307.81.581 1.579.184.378.316.737m6.574-5.008-.022.222q-.038.236-.13.916-.094.679-.243 1.884-.15 1.206-.35 2.954t-.294 2.621l-.153 1.44q-.06.565-.14 1.184l-.076.679m35.868 47.95q-.026.084-.23.558-.036.086-.141.372-.107.285-.165.462-.059.179-.41 1.159-.35.98-1.1 2.813-.749 1.835-1.413 3.188-.663 1.354-1.324 2.43t-1.163 1.718q-.501.642-1.097 1.227-.595.584-1.41 1.123-.815.538-1.413.77-.598.234-1.224.303-.624.07-1.106-.003t-.8-.204-.547-.283q-.228-.149-.685-.702-.459-.554-.719-1.391t-.284-1.432.05-1.119q.073-.525.157-.84.084-.313.509-1.205.427-.892.91-1.461.48-.571.78-.814.298-.241.74-.485.442-.243 1.03-.388.587-.145 1.052-.139.465.007.772.066.308.06.817.289.51.23 1.092.693t1.28 1.36q.696.898 1.25 1.984.556 1.088 1.073 2.692.519 1.606.727 2.543.209.937.325 1.536t.25 1.16q.055.273.133.732m7.625-7.648q-.104.191-.19.356-.085.167-.25.508t-.28.587-.499 1.112-.798 1.961q-.416 1.096-.6 1.751-.184.653-.3 1.356t-.063 1.592.195 1.288.224.541q.08.142.212.299.13.157.254.26.124.101.203.15.079.051.347.174.269.124.697.212t.953.11q.527.022.779.014.25-.008.419-.023.168-.016.286-.032.119-.016.27-.044.149-.026.188-.028m2.613-7.884q-.064.196-.277 1.08t-.631 2.628q-.416 1.746-.645 2.743-.228.997-.467 2.103l-.415 1.918q-.177.815-.344 1.546-.165.732-.217.948l-.092.392-.101.456q-.062.278-.238 1.046m-155.052-46.134q-.142.444-.801 2.805t-1.407 5.05q-.746 2.687-1.149 4.033-.403 1.345-.853 2.668-.451 1.321-.734 2.017-.282.697-.549 1.27-.265.574-.607 1.194-.34.62-.724 1.204-.382.583-1.169 1.453-.785.872-1.283 1.248-.496.376-.977.619-.48.244-.865.357-.387.114-.81.147-.422.032-.704.005t-.524-.092-.936-.483-1.112-.916-.646-.953-.323-.752-.187-.777q-.09-.482-.056-1.455.035-.972.182-1.625.148-.652.413-1.35.265-.697.37-.909.103-.212.37-.67.267-.46.839-1.162.572-.703.996-1.059t.78-.57.802-.38 1.068-.239 1.104-.017q.482.053 1.134.29.65.236 1.089.507.439.272.797.564.358.29.894.868.534.576 1.178 1.53.644.957 1.124 1.846t.915 1.803q.435.91.844 1.885.41.975.67 1.647.26.67.415 1.102.158.431.456 1.227l.09.207q.066.154.3.837m2.724-1.131.31-.403q.142-.184.475-.551.332-.365.588-.628.257-.264.64-.61.384-.345.656-.55.27-.204.607-.41.334-.206.617-.337.284-.129.545-.214.262-.086.904-.154.643-.066 1.066.001.422.07.772.227.35.159.488.255.138.097.344.301.206.205.384.503t.29.717q.114.419.108.917-.004.499-.17 1.06-.167.563-.563 1.184-.396.622-.765.978-.371.356-.946.746-.574.391-.861.538-.285.146-.453.218t-.356.14-.315.116q-.125.051-.184.08-.057.03-.043.035.015.004.276-.03.263-.035.718-.042.453-.008 1.086.083.635.09 1.05.213t.737.26q.321.139.817.493.496.355.744.628.248.274.399.5.15.227.255.442.104.216.193.516t.132.75q.04.45-.08 1.064-.121.615-.347 1.063t-.42.7-.758.707q-.566.454-1.112.714-.548.26-1.471.436-.921.176-1.413.172-.491-.004-.938-.056-.445-.05-1.796-.638-1.35-.587-1.55-.728t-.511-.404-.65-.627q-.34-.365-.63-.732l-.537-.572"/>
    <path fill="none" stroke="#9378e3" stroke-linecap="round" stroke-linejoin="round" stroke-width="13.333" d="m345.517 306.567 268.877-132.405"/>
    <path fill="none" stroke="#fa7fb1" stroke-linecap="round" stroke-linejoin="round" stroke-width="3.333" d="m220.789 368.8 114.248-56.878M739.031 112.13 354.693 301.698m4.407 10.849 243.853 59.702M282.59 181.153l58.788 115.729m6.093-182.957-.618 179.241M231.27 350.287l-10.565 18.624m21.175 1.282-20.99-1.564m61.26-187.039 1.097 23.443m-.725-24.282 19.425 15.08m45.259-81.798-9.559 19.416m10.258-19.578 9.142 19.644m363-23.209 17.86 1.21m1.258.115-9.976 15.708M590.32 358.76l12.406 12.705m-16.509 4.898 17.661-3.72"/>
    <circle cx="279.185" cy="174.039" r="3.333" fill="#f3ba38" stroke="#f3ba38" stroke-width=".133"/>
    <path fill="none" stroke="#f3ba38" stroke-linecap="round" stroke-linejoin="round" stroke-width="3.333" d="M765.78 83.549q.025.748.242 3.08.216 2.33.524 5.253.307 2.923.576 5.148t.716 5.073q.021.079.328 2.322"/>
    <path fill="none" stroke="#f3ba38" stroke-linecap="round" stroke-linejoin="round" stroke-width="3.333" d="m764.369 84.562 1.081-.304q.23-.037 1.521-.285t2.454-.344q1.161-.096 2.088-.042.925.055 1.708.259.782.203 1.533.67.752.466 1.164 1.046.413.58.516.923.101.342.128.692.025.349.004.565-.023.215-.124.533t-.397.839-.718 1.005q-.42.486-1.58 1.331-1.16.847-2.214 1.43-1.056.582-1.427.775-.37.195-.567.323-.194.13-.469.3t-.545.323m13.948 3.472.182.636q.048.18 1.484 7.604l.172.716M333.093 66.963q.137 1.255.653 4.08.517 2.826.992 5.292.475 2.467.757 3.876.283 1.41.73 3.46.448 2.051.918 3.979.124.547.364 1.739"/>
    <path fill="none" stroke="#f3ba38" stroke-linecap="round" stroke-linejoin="round" stroke-width="3.333" d="m332.446 66.567.623-.261q.449-.223 1.729-.705 1.28-.483 2.295-.779t2.014-.436q1.002-.14 2.128-.081 1.128.058 1.967.294.839.235 1.999 1.094 1.161.857 1.646 1.645.486.788.62 1.203.134.414.176 1.006.042.591-.149 1.444-.192.852-.379 1.278-.185.424-.589 1.065-.405.641-2.29 2.365-1.883 1.723-2.727 2.246t-1.254.714q-.409.194-.468.23l-.342.218q-.284.182-1.471.964m16.361 5.206q-.212-.714-.288-1.014t-.142-.642-.139-.968.088-2.034.23-1.604.267-.581q.196-.383.335-.585t.67-.72q.529-.519 1.066-.822.537-.304.999-.45t1.081-.195q.619-.047.988.003.37.049.707.153.334.104.774.367.442.262.679.476.237.212.485.525.25.312.458.697.209.387.392 1.043.182.657.217 1.24.033.584-.021 1.075-.054.492-.32 1.352-.267.86-.575 1.492-.308.633-.768 1.356-.46.721-1.01 1.446-.547.724-1.2 1.502l-1.13 1.35q-.48.571-.937 1.183t-.695 1.003-.481.964q-.246.573-.128 1.365.206.057.562.056.358 0 .755-.079.397-.078 1.105-.293t2.136-.732q1.428-.519 2.835-1.02t2.625-.91q1.219-.407 3.382-1.057l.381-.15M174.862 371.56q.035.189.263 1.314t.789 3.835.901 4.473.578 3.15q.237 1.39.95 5.957l.135 1.326"/>
    <path fill="none" stroke="#f3ba38" stroke-linecap="round" stroke-linejoin="round" stroke-width="3.333" d="M174.638 371.49q.513-.555 1.23-1.215.72-.66 1.342-1.164t1.176-.864 1.204-.66q.65-.298 1.317-.466.668-.17 1.278-.191.608-.023 1.026.05.418.07.692.163.275.094.83.4.553.308 1.081.85.528.541.795.988.265.446.454 1.042.191.598.223 1.363.03.765-.045 1.221-.076.456-.22.898-.146.442-.652 1.225-.507.783-1.234 1.51-.726.73-1.937 1.582-1.21.852-2.38 1.525-1.168.674-2.285 1.278l-.64.368m10.724 6.897q.27-.528.976-1.657.705-1.13 1.301-1.864t1.067-1.175q.469-.443 1.006-.796.536-.355 1.235-.61.7-.257 1.324-.309.625-.05 1.056.018.43.068.784.212.353.144.673.374.322.232.627.588.307.355.608 1.06.3.706.38 1.403.08.699.027 1.236-.055.537-.242 1.15-.186.613-.44 1.12-.252.507-.585.995-.332.487-.721.948-.39.46-1.614 1.548.074.098.175.114.1.014.296.014t.497.003q.302.004.686.054.385.049.702.114.319.066.588.15.268.085.662.236t.83.412.872.637.82.833q.384.458.66.944.276.487.424.955.15.467.198.89.048.422.018.915t-.19 1.038q-.16.544-.51 1.116-.352.57-.878 1.074-.527.504-1.75 1.039-1.225.535-2.84.679-1.613.142-2.368.046-.754-.097-1.35-.233-.596-.135-1.512-.433-.918-.299-1.81-.687-.89-.388-1.34-.604t-.728-.36q-.276-.143-.37-.2-.095-.057-.582-.303m444.475-33.949q.033.502.15 1.752t.28 2.645q.162 1.396.389 3.068.225 1.672.67 4.616t.823 5.281q.376 2.339.585 3.77.211 1.432.327 2.405.115.973.253 2.467"/>
    <path fill="none" stroke="#f3ba38" stroke-linecap="round" stroke-linejoin="round" stroke-width="3.333" d="M631.537 369.107q.473-.33.913-.624t.852-.526q.41-.232.853-.446.443-.212 1.19-.5.746-.286 1.794-.48 1.047-.192 1.978-.146.93.045 1.476.184.545.14 1.022.358.479.218.915.516t.9.79q.463.49.903 1.401.44.91.573 1.705.132.796.083 1.475-.05.679-.336 1.55-.287.87-.551 1.366t-.661 1.055q-.396.557-1.004 1.168-.61.609-1.876 1.49-1.268.883-2.532 1.576-1.263.695-2.534 1.412m17.148-4.336q-.057.527-.074 1.462t.004 1.816.056 1.504q.037.622.394 2.253.359 1.632 1.186 2.912.192.119.458.24.267.121.863.247t1.401.098q.806-.029 1.151-.088t.93-.208.851-.244q.267-.094.823-.352.557-.257.756-.362.199-.107.93-.539.323-.132.603-.256m-.693-9.68q.008.127.293 2.624.286 2.499.507 4.303l.545 4.469q.326 2.665.43 3.452.102.788.249 1.785.147.998.41 2.986.003.084.133 1.064"/>
    <circle cx="613.318" cy="174.41" r="3.333" fill="#f3ba38" stroke="#f3ba38" stroke-width=".133"/>
    <circle cx="346.755" cy="306.318" r="3.333" fill="#f3ba38" stroke="#f3ba38" stroke-width=".133"/>
    <circle cx="346.938" cy="106.326" r="3.333" fill="#f3ba38" stroke="#f3ba38" stroke-width=".133"/>
    <circle cx="613.525" cy="373.674" r="3.333" fill="#f3ba38" stroke="#f3ba38" stroke-width=".133"/>
    <circle cx="746.638" cy="106.963" r="3.333" fill="#f3ba38" stroke="#f3ba38" stroke-width=".133"/>
    <circle cx="213.362" cy="373.502" r="3.333" fill="#f3ba38" stroke="#f3ba38" stroke-width=".133"/>
    <path fill="none" stroke="#f3ba38" stroke-linecap="round" stroke-linejoin="round" stroke-width="3.333" d="M333.174 358.9q.172-.826 1.141-4.9.968-4.075 1.975-8.067 1.007-3.994 1.639-6.178t1.537-4.677 1.764-4.121q.857-1.627 1.317-2.207t1.171-.984 1.392.015 1.93 2.497q1.25 2.076 2.42 5.103t1.77 4.794 1.752 5.73 1.657 5.86q.507 1.9.847 3.194.34 1.296.743 2.82l.414 1.615"/>
    <path fill="none" stroke="#f3ba38" stroke-linecap="round" stroke-linejoin="round" stroke-width="3.333" d="m336.94 346.7.94-.071q.373-.107 3.94-.692 3.569-.586 5.9-.994 2.329-.409 3.135-.56.807-.15 1.046-.2.238-.049.804-.118m266.489-154.116q.013.138.295 4.156.28 4.018.57 7.918.29 3.902.542 7.634t.414 6.785q.028.18.076 1.847"/>
    <path fill="none" stroke="#f3ba38" stroke-linecap="round" stroke-linejoin="round" stroke-width="3.333" d="M618.662 191.038q.887-.332 1.333-.484.447-.15.856-.285.411-.135 2.122-.582 1.71-.445 2.896-.596 1.185-.152 1.748-.146.562.005 1.178.106.618.103 1.416.495.8.393 1.258.87.458.48.662.89.206.41.308.947.104.534.088.95-.014.415-.134.903t-.383 1.073-.935 1.576-1 1.426q-.326.436-.472.685-.144.25-.208.907.355.224.932.374.579.15 1.206.275.626.125 1.628.38t1.837.556q.837.303 1.292.51.456.21 1.316.835.86.624 1.241 1.008.382.386.694.758.312.373.494.65.183.279.346.731.162.45.252 1.335.089.884.029 1.272-.059.388-.641 1.673t-1.547 2.223-1.684 1.42-1.623.93-2.148.879q-1.242.432-1.833.585-.59.152-1.507.352-.916.202-1.808.404-.89.204-1.654.36-.766.156-2.042.311l-.622.024-.776.107-1.54.212M255.875 142.52v.622q-.008.207.242 3.43.248 3.225.561 6.533t.531 5.476l.07.85"/>
    <path fill="none" stroke="#f3ba38" stroke-linecap="round" stroke-linejoin="round" stroke-width="3.333" d="M255.169 142.805q.089-.067.666-.527.176-.156.638-.52.46-.365 1.32-.983t1.421-.969q.559-.35 1.504-.808t1.732-.708 1.572-.341q.784-.094 1.275-.066.489.027 1.314.36t1.204.636q.379.304.491.426.11.121.339.557.228.435.342 1.124t.088 1.044q-.026.353-.145.848-.117.496-.301.956-.183.46-.398.917-.214.458-.508 1.095l-.396.86q-.101.223-.165.352-.064.13-.145.447-.082.316-.062.476.022.161.08.19.056.027.483.116t1.439.106 1.922.028 2.095.165 1.848.31 1.401.413 1.048.432q.312.174.518.344.204.168.336.281l.241.208q.11.097.372.501.261.403.385.768.123.364.151.667t-.095.93q-.122.629-.621 1.527-.499.9-.817 1.262-.319.361-1.168 1.066-.85.704-1.667 1.195-.817.49-1.747.895t-2.158.83q-1.228.422-2.275.69t-1.479.336-2.222.382-2.935.44q-1.144.122-1.7.188-.556.068-1.713.164-.61 0-1.718.044m17.981-31.886q.394.749 1.28 2.762.887 2.014 2.302 5.036"/>
</svg>
