<svg xmlns="http://www.w3.org/2000/svg" xml:space="preserve" viewBox="0 0 960 480">
    <g style="display:inline" transform="translate(-597.294 -1051.877)scale(1.33333)">
        <path fill="none" stroke="#6ac0c8" stroke-linecap="round" stroke-linejoin="round" d="m600.162 1027.675 17.827-17.81m45.825-45.98 32.999-32.768m6.409-6.403 17.086-17.069m-21.304-18.168.5 33.607m1.313 88.185.249 16.751m239.499-138.306-.008 32.1m-.019 90.319-.008 36.205m-20.599-142.426 17.504 17.665m6.962 7.027 32.739 32.91m44.963 45.507 18.839 19.013"/>
        <path fill="none" stroke="#f3ba38" stroke-linecap="round" stroke-linejoin="round" d="m603.798 967.669 51.187-.065m10.464-.013 31.303-.04m7.437-.009 36.097-.046m168.305-.188 27.971.214m7.614.059 32.314.247m10.2.079 32.821.251"/>
        <path fill="none" stroke="#9378e3" stroke-linecap="round" stroke-linejoin="round" stroke-width="5" d="m620.58 1007.529 40.243-40.407m39.318-40.617.874 80.967m239.452-81.856-.028 82.818m39.663-41.533 39.597 39.515"/>
        <path fill="none" stroke="#f66640" stroke-linecap="round" stroke-linejoin="round" stroke-width="2.5" d="m592.479 975.528 7.907-18.492m.088.012 4.764 19.402m-15.795-12.422 15.778 12.389m-15.671-13.072 20.64 1.891m-17.872 10.556 17.903-10.472m282.661 10.532 7.907-18.491m.088.011 4.765 19.402m-15.795-12.422 15.777 12.39m-15.671-13.073 20.64 1.891m-17.872 10.556 17.903-10.472"/>
        <circle cx="620.875" cy="1006.967" r="1.25" fill="#f3ba38" stroke="#f3ba38" stroke-width=".1"/>
        <path fill="none" stroke="#f3ba38" stroke-linecap="round" stroke-linejoin="round" stroke-width="2.5" d="m660.372 967.445.08-.044.003.033"/>
        <circle cx="700.337" cy="926.589" r="1.25" fill="#f3ba38" stroke="#f3ba38" stroke-width=".1"/>
        <circle cx="940.413" cy="1007.448" r="1.25" fill="#f3ba38" stroke="#f3ba38" stroke-width=".1"/>
        <circle cx="980.872" cy="967.756" r="1.25" fill="#f3ba38" stroke="#f3ba38" stroke-width=".1"/>
        <circle cx="1019.681" cy="1006.561" r="1.25" fill="#f3ba38" stroke="#f3ba38" stroke-width=".1"/>
        <circle cx="700.944" cy="1007.203" r="1.25" fill="#f3ba38" stroke="#f3ba38" stroke-width=".1"/>
        <circle cx="940.609" cy="925.811" r="1.25" fill="#f3ba38" stroke="#f3ba38" stroke-width=".1"/>
        <path fill="none" stroke="#f3ba38" stroke-linecap="round" stroke-linejoin="round" d="M584.746 951.635q.189-.179.443-.386.318-.273 1.289-1.322t1.743-2.156q.774-1.107 1.209-1.966.435-.858.823-2.029t.578-2.884q.191-1.714.104-2.608t-.194-1.358q-.107-.463-.388-1.155-.28-.692-.629-1.194-.348-.502-.622-.769-.274-.266-.513-.437-.238-.17-.837-.415-.6-.244-1.254-.328t-1.081-.057q-.427.028-.759.083-.333.054-1.566.504-1.234.451-2.234 1.116-1 .666-1.45 1.067-.451.401-1.018 1.044-.568.644-1.081 1.41-.512.766-1.033 1.898-.52 1.133-.901 2.831-.382 1.697-.372 3.173.009 1.475.141 2.209t.341 1.381.493 1.209.457.823.399.527q.226.267.488.513t.898.616.996.47.568.133.488.04.536-.014 1.202-.317 1.556-.662 1.131-.779q.52-.413.778-.664.257-.251.454-.468.196-.217.645-.637"/>
        <path fill="none" stroke="#f3ba38" stroke-linecap="round" stroke-linejoin="round" d="M583.782 947.168q.071.092.32.515.25.422.808 1.262t1.288 1.83 1.383 1.734q.027.013.221.139l.489.315m298.738-.519q.19-.179.443-.386.319-.272 1.289-1.321t1.744-2.156 1.208-1.966.823-2.029q.387-1.171.578-2.885t.104-2.608-.194-1.358-.387-1.155-.629-1.194-.623-.768q-.274-.267-.512-.437-.239-.171-.838-.415-.599-.245-1.254-.329-.654-.084-1.081-.056t-.759.082-1.566.505-2.234 1.115q-1 .666-1.45 1.067-.451.402-1.018 1.045-.568.643-1.081 1.409-.512.766-1.032 1.899-.52 1.132-.902 2.83t-.372 3.173.141 2.209.341 1.381q.21.648.493 1.209.283.562.457.823t.399.528.488.513q.262.246.898.615.636.37.996.47.359.1.568.133t.489.04.535-.013 1.202-.317 1.556-.663q.61-.365 1.131-.779.521-.413.778-.664.258-.251.454-.468t.645-.637"/>
        <path fill="none" stroke="#f3ba38" stroke-linecap="round" stroke-linejoin="round" d="M886.065 947.978q.071.091.32.514.25.423.808 1.263t1.288 1.829q.731.99 1.383 1.735.028.013.221.138l.489.315m-267.845 80.572q.069-.409.486-2.125.416-1.716 1.272-5.142.855-3.426 1.487-5.48t.982-2.83 1.105-1.56q.108.038.505.89t.716 2.547.488 2.922.425 3.209q.254 1.982.371 2.925t.23 1.779q.113.838.267 1.734.024.104.104 1.256"/>
        <path fill="none" stroke="#f3ba38" stroke-linecap="round" stroke-linejoin="round" d="M623.731 1029.737q.407-.129 2.122-.557t4.586-1.201m395.334-18.559q.069-.409.486-2.125.416-1.716 1.272-5.142.855-3.426 1.487-5.48t.982-2.83q.351-.776 1.105-1.561.108.039.505.891t.716 2.547.488 2.921.425 3.209q.254 1.983.371 2.925.117.943.23 1.78t.267 1.733q.024.104.104 1.257"/>
        <path fill="none" stroke="#f3ba38" stroke-linecap="round" stroke-linejoin="round" d="M1026.775 1004.813q.407-.13 2.122-.557t4.586-1.202m-369.467-25.706-.024.419q.005.552.037 2.317.033 1.765.113 3.778.081 2.013.259 5.593.017.233.035 1.166"/>
        <path fill="none" stroke="#f3ba38" stroke-linecap="round" stroke-linejoin="round" d="M662.938 978.462q.28-.155.694-.365.415-.209 1.19-.551t1.376-.543 1.207-.32 1.04-.121.771.057q.338.06.693.262t.563.447.286.399.133.448-.069.858-.38 1.07q-.255.505-.652 1.025-.396.519-.698.842-.302.324-.453.469l-.265.253q-.114.108-.748.742.039.031.266.084.226.053.591.044t.634-.022.897-.006q.629.006 1.261.081.631.074 1.036.186.405.111.623.183.218.071.612.289.393.217.899.684.506.466.722.817t.307.617q.091.268.124.7.032.431-.028.728-.061.296-.15.504-.09.208-.284.52-.195.312-.534.669t-.906.751-1.441.778-1.842.641q-.968.258-1.995.431t-2.165.403q-.084.022-.856.053l-.471.056m320.076-45.081-.024.419q.005.552.037 2.317.033 1.764.113 3.778.081 2.013.259 5.593.017.233.035 1.166"/>
        <path fill="none" stroke="#f3ba38" stroke-linecap="round" stroke-linejoin="round" d="M983.923 948.657q.28-.155.695-.364t1.19-.551 1.376-.543 1.207-.32 1.04-.121.771.057.692.262.564.447.286.399q.078.153.133.448.055.294-.07.858-.124.564-.379 1.07-.255.505-.652 1.024-.396.52-.698.843-.302.324-.453.469l-.266.253q-.114.108-.747.742.039.031.266.084.226.053.591.043.365-.009.633-.021.269-.013.898-.006t1.26.08q.632.075 1.037.186.404.112.623.184.218.071.612.289.393.217.899.684.505.466.722.816.216.351.307.618.091.268.123.699.033.432-.028.729-.06.296-.15.504-.089.208-.284.52t-.533.669-.906.751-1.442.778q-.873.384-1.841.641-.968.258-1.996.431-1.027.173-2.164.403-.084.022-.856.053l-.471.056"/>
        <circle cx="700.602" cy="967.638" r="1.25" fill="#fa7fb1" stroke="#fa7fb1" stroke-width=".1"/>
        <circle cx="940.571" cy="967.66" r="1.25" fill="#fa7fb1" stroke="#fa7fb1" stroke-width=".1"/>
        <path fill="none" stroke="#f3ba38" stroke-linecap="round" stroke-linejoin="round" d="m719.249 1004.11-.151-.188q-.092-.125-.437-.664-.346-.538-.598-.877-.251-.338-.471-.588t-.543-.537-.662-.502q-.338-.215-.684-.361-.345-.146-.824-.24-.479-.093-.87-.084-.392.01-.811.109-.42.1-.913.348t-.768.453-.612.546-.714.886q-.378.546-.57.931t-.452 1.184-.382 1.79q-.12.991-.052 1.86.068.868.16 1.286.093.417.337 1.054t.585 1.178.779.983q.438.443.856.714t.849.438.984.252 1.116.035.802-.112q.239-.063.7-.243.462-.18.83-.382t.881-.579q.514-.376.847-.675t.473-.431.598-.621q.17-.17.361-.375m212.431-6.153-.151-.188q-.091-.125-.437-.664-.345-.538-.597-.877t-.471-.588-.544-.537-.662-.502q-.338-.215-.683-.361t-.824-.24q-.479-.093-.871-.084-.391.01-.811.109-.419.1-.912.348t-.768.453-.612.546-.715.886q-.378.546-.569.931-.192.385-.453 1.184t-.381 1.79-.052 1.86.16 1.285q.092.418.337 1.055.244.637.584 1.178t.779.983q.439.443.857.714.417.271.848.438.432.167.985.252.552.086 1.116.035.563-.05.802-.112.238-.063.7-.243t.829-.382q.368-.202.882-.579t.846-.675.473-.431q.141-.132.598-.621.171-.17.361-.375m-223.977-84.219q.006.064-.005.564.001.17.042 1.352t.163 2.762q.122 1.581.2 2.426t.155 1.636.215 2.108.265 2.213q.125.894.183 1.19t.104.456q.047.162.102.388"/>
        <path fill="none" stroke="#f3ba38" stroke-linecap="round" stroke-linejoin="round" d="M709.115 927.831q.192-.072.329-.12t.84-.258q.702-.21 1.427-.357t1.143-.186q.418-.038 1.047-.013.63.025 1.079.117.45.092.686.172t.752.339.947.6q.433.341.657.579.223.238.386.45t.553.96q.389.747.53 1.219t.204 1.074-.056 1.446q-.119.846-.322 1.393-.202.548-.457 1.001-.254.454-.467.745-.212.29-.388.496t-.458.491-.975.841q-.694.555-1.754 1.244t-1.881 1.148q-.822.46-1.469.78-.647.321-.727.363l-.685.365m213.747-18.714q.006.063-.006.564.001.17.042 1.352.041 1.181.163 2.762t.201 2.426q.078.845.155 1.635.076.79.215 2.109.138 1.318.264 2.212t.183 1.19.104.457.102.388"/>
        <path fill="none" stroke="#f3ba38" stroke-linecap="round" stroke-linejoin="round" d="M923.926 924.923q.193-.073.329-.121.137-.047.84-.257.702-.21 1.427-.357t1.143-.186 1.048-.014 1.079.117q.449.093.685.172.237.08.752.34.515.259.948.6t.656.578q.224.238.386.45.163.213.553.96.39.748.531 1.22t.204 1.073-.056 1.447-.322 1.393-.458 1.001-.466.744q-.213.291-.389.497t-.458.491q-.282.284-.975.84t-1.754 1.245q-1.06.689-1.881 1.148-.822.459-1.469.78t-.727.363l-.685.364"/>
    </g>
</svg>
