<svg xmlns="http://www.w3.org/2000/svg" xml:space="preserve" viewBox="0 0 960 480">
    <g style="display:inline" transform="translate(-599.56 -1431.589)scale(1.33333)">
        <path fill="none" stroke="#6ac0c8" stroke-linecap="round" stroke-linejoin="round" d="m601.746 1340.019 19.151-28.912m31.371-47.482 19.123-28.777m4.728-7.102 25.039-37.799m-59.568-22.583 17.929 36.122m53.214 107.209 9.251 18.638m318.758 10.141-17.88-27.115m-31.458-48.084-19.37-28.995m-4.681-7.099-27.058-41.032m61.522-17.787-17.971 35.048m-54.6 106.485-10.275 20.039"/>
        <path fill="none" stroke="#f3ba38" stroke-linecap="round" stroke-linejoin="round" d="m606.571 1267.997 38.303.172m8.609.038 34.521.155m8.203.036 45.483.204m164.625-.228 40.946-.134m7.917-.026 34.558-.112m8.513-.028 42.245-.138"/>
        <path fill="none" stroke="#9378e3" stroke-linecap="round" stroke-linejoin="round" stroke-width="5" d="m622.792 1308.106 27.198-40.972m11.707-60.646 49.536 100.822m220.016.502 50.774-100.24m11.46 60.266 27.224 41.521"/>
        <path fill="none" stroke="#f66640" stroke-linecap="round" stroke-linejoin="round" stroke-width="2.5" d="m593.527 1275.856 7.88-18.503m.287.096 4.764 19.403m-15.795-12.422 15.778 12.389m-15.671-13.072 20.64 1.891m-17.872 10.555 17.903-10.471m281.934 10.32 7.907-18.491m.088.011 4.764 19.402m-15.795-12.422 15.778 12.39m-15.671-13.073 20.64 1.891m-17.872 10.556 17.903-10.472"/>
        <path fill="none" stroke="#f3ba38" stroke-linecap="round" stroke-linejoin="round" stroke-width="2.5" d="m661.878 1206.739.041-.053"/>
        <circle cx="649.352" cy="1267.837" r="1.25" fill="#f3ba38" stroke="#f3ba38" stroke-width=".1"/>
        <path fill="none" stroke="#f3ba38" stroke-linecap="round" stroke-linejoin="round" stroke-width="2.5" d="m623.095 1307.709.053-.192"/>
        <circle cx="981.911" cy="1207.656" r="1.25" fill="#f3ba38" stroke="#f3ba38" stroke-width=".1"/>
        <circle cx="993.747" cy="1267.904" r="1.25" fill="#f3ba38" stroke="#f3ba38" stroke-width=".1"/>
        <circle cx="931.559" cy="1307.375" r="1.25" fill="#f3ba38" stroke="#f3ba38" stroke-width=".1"/>
        <circle cx="1020.534" cy="1309.16" r="1.25" fill="#f3ba38" stroke="#f3ba38" stroke-width=".1"/>
        <circle cx="711.199" cy="1307.282" r="1.25" fill="#f3ba38" stroke="#f3ba38" stroke-width=".1"/>
        <path fill="none" stroke="#f3ba38" stroke-linecap="round" stroke-linejoin="round" d="M588.34 1253.917q.19-.179.443-.386.319-.272 1.289-1.321.971-1.049 1.744-2.156t1.208-1.966q.436-.859.823-2.03t.578-2.884.104-2.608-.194-1.358-.387-1.155-.629-1.194q-.348-.502-.622-.768-.274-.267-.513-.437-.239-.171-.838-.415-.599-.245-1.253-.329-.655-.084-1.082-.056-.426.027-.759.082-.332.054-1.566.505-1.233.45-2.233 1.115-1 .666-1.451 1.067-.45.402-1.018 1.045t-1.08 1.409-1.033 1.899-.902 2.83-.372 3.173.141 2.209.342 1.381.493 1.209.456.823.4.528q.225.267.487.513t.898.615.996.47.568.133.489.04q.28.01.535-.013.256-.02 1.202-.317.947-.297 1.557-.663.609-.365 1.13-.779.521-.413.778-.664.258-.251.454-.468t.645-.637"/>
        <path fill="none" stroke="#f3ba38" stroke-linecap="round" stroke-linejoin="round" d="M587.376 1249.451q.071.091.321.514.249.423.807 1.263t1.289 1.829 1.382 1.735q.028.013.221.138l.489.315m295.097-2.947q.189-.178.443-.386.318-.272 1.289-1.321t1.743-2.156 1.209-1.966q.435-.859.822-2.029.388-1.17.579-2.885t.103-2.608-.194-1.357-.387-1.156-.629-1.194-.622-.768-.513-.437q-.238-.17-.838-.415-.599-.245-1.253-.329-.655-.084-1.081-.056-.427.028-.76.082-.332.055-1.566.505t-2.233 1.116q-1 .665-1.45 1.067-.451.401-1.019 1.044t-1.08 1.409-1.033 1.899-.901 2.83q-.382 1.698-.372 3.173.009 1.476.141 2.21.131.733.341 1.381.21.647.493 1.209.283.561.457.822.173.261.399.528t.488.513.898.615.996.47.567.133q.209.034.489.04.28.01.536-.013.255-.02 1.202-.317.946-.297 1.556-.662t1.13-.779.779-.665q.257-.251.454-.468.196-.217.645-.637"/>
        <path fill="none" stroke="#f3ba38" stroke-linecap="round" stroke-linejoin="round" d="M886.017 1247.832q.072.092.321.514t.808 1.263q.558.84 1.288 1.83t1.383 1.734q.027.013.22.138l.49.316m-286.286 61.888q.069-.409.486-2.125.416-1.716 1.271-5.142.856-3.426 1.488-5.48.632-2.053.982-2.83.351-.776 1.105-1.56.108.038.505.89t.715 2.547.489 2.922q.17 1.226.424 3.209.255 1.983.372 2.925t.23 1.78q.112.837.267 1.733.024.104.104 1.257"/>
        <path fill="none" stroke="#f3ba38" stroke-linecap="round" stroke-linejoin="round" d="M605.243 1310.908q.407-.129 2.122-.557 1.714-.427 4.586-1.201m416.198 1.655q.069-.41.485-2.126.417-1.715 1.272-5.141t1.487-5.48.983-2.83 1.104-1.561q.109.039.506.891.396.852.715 2.547t.488 2.921.425 3.209q.254 1.983.371 2.925.117.943.23 1.78t.268 1.733q.023.104.104 1.257"/>
        <path fill="none" stroke="#f3ba38" stroke-linecap="round" stroke-linejoin="round" d="M1029.151 1306.198q.407-.13 2.121-.557 1.715-.428 4.586-1.202m-397.656-58.597-.024.419q.005.552.038 2.317.032 1.765.112 3.778.081 2.014.259 5.593.017.234.036 1.166"/>
        <path fill="none" stroke="#f3ba38" stroke-linecap="round" stroke-linejoin="round" d="M637.124 1246.956q.28-.155.694-.364.415-.209 1.19-.551t1.376-.544q.601-.2 1.207-.319t1.04-.121q.434 0 .772.057.337.059.692.262.354.202.563.447t.287.398q.077.154.132.449.055.294-.069.858-.125.564-.38 1.069-.255.506-.652 1.025-.396.52-.698.843t-.453.468l-.265.254q-.114.107-.748.741.04.031.266.084t.591.044.634-.022.897-.01q.629.01 1.261.081.631.075 1.036.186.405.112.623.183.218.072.612.29t.899.683q.506.467.722.817t.307.618.124.699-.028.728-.15.505q-.09.208-.284.52-.195.312-.534.669t-.906.75q-.568.394-1.441.779-.874.384-1.842.641t-1.995.431-2.165.403q-.084.021-.855.052l-.472.057m359.509-14.977-.024.419q.005.552.037 2.317.033 1.765.113 3.778.081 2.013.259 5.593.017.234.035 1.166"/>
        <path fill="none" stroke="#f3ba38" stroke-linecap="round" stroke-linejoin="round" d="M997.542 1247.253q.28-.155.695-.364t1.19-.552 1.376-.543 1.207-.319 1.04-.122q.433 0 .771.058t.692.262q.355.202.564.447.208.244.286.398t.133.449q.054.294-.07.858t-.379 1.069-.652 1.025q-.396.52-.698.843t-.453.468l-.266.253q-.114.108-.747.742.039.031.266.084.226.053.591.044t.633-.022.898-.01q.629.01 1.26.081.631.074 1.036.186t.624.183q.218.072.612.289.393.218.899.684.505.467.721.817.217.35.308.618.091.267.123.699.033.432-.028.728-.06.297-.15.505-.089.208-.284.52t-.533.669q-.339.356-.907.75-.567.394-1.441.778-.874.385-1.841.642-.968.257-1.996.431-1.027.173-2.164.402-.084.022-.856.053l-.471.056"/>
        <circle cx="951.629" cy="1268.1" r="1.25" fill="#fa7fb1" stroke="#fa7fb1" stroke-width=".1"/>
        <circle cx="692.011" cy="1268.758" r="1.25" fill="#fa7fb1" stroke="#fa7fb1" stroke-width=".1"/>
        <path fill="none" stroke="#f3ba38" stroke-linecap="round" stroke-linejoin="round" d="m730.833 1305.479-.151-.188q-.091-.125-.437-.664-.345-.538-.597-.877t-.471-.588-.544-.537-.662-.502-.683-.361-.824-.24q-.479-.094-.871-.084-.391.01-.811.109-.419.1-.912.348t-.768.453-.612.546q-.337.34-.715.886t-.569.931q-.192.385-.453 1.184t-.381 1.79-.052 1.86.16 1.285q.092.418.337 1.055.244.637.584 1.178t.779.983q.439.443.857.714.417.271.848.438.432.167.985.252.552.086 1.116.035.563-.05.802-.112.238-.063.7-.243t.829-.382q.368-.202.882-.579t.846-.675.473-.431.598-.622q.171-.169.361-.374m190.729-9.142-.151-.188q-.092-.125-.437-.663-.346-.539-.597-.877-.252-.339-.472-.589t-.543-.537-.662-.501q-.338-.215-.684-.362-.345-.146-.824-.24-.479-.093-.87-.084-.392.01-.811.11t-.913.347-.768.454q-.275.205-.612.546-.336.34-.714.886-.378.545-.57.93t-.452 1.185-.381 1.79-.053 1.859.16 1.286.337 1.055.585 1.177q.34.541.779.984.438.442.856.713.418.272.849.439t.984.252 1.116.035q.564-.051.802-.113t.7-.242.83-.383q.367-.202.881-.578.514-.377.847-.676.332-.298.473-.43t.598-.622q.17-.169.361-.375m-253.291-117.281q.006.063-.005.564.001.17.042 1.351t.163 2.763q.121 1.58.2 2.426.079.845.155 1.635.077.79.215 2.108.139 1.319.265 2.213.125.895.183 1.19t.104.457.102.388"/>
        <path fill="none" stroke="#f3ba38" stroke-linecap="round" stroke-linejoin="round" d="M669.683 1193.148q.192-.072.329-.12.137-.047.839-.257.703-.21 1.428-.358.724-.147 1.143-.185.418-.039 1.047-.014.63.025 1.079.117t.686.172.752.34.947.6.656.578.387.45.552.96q.39.748.531 1.22t.204 1.073-.056 1.447-.322 1.393-.457 1.001-.467.744-.388.497q-.177.206-.458.49t-.976.841q-.693.556-1.753 1.245-1.06.688-1.882 1.148t-1.468.78q-.647.321-.727.363l-.685.364m295.07-17.871q.006.064-.005.564.001.17.042 1.352.041 1.181.163 2.762t.2 2.426.155 1.635.215 2.109.265 2.213q.125.894.183 1.189t.104.457.102.388"/>
        <path fill="none" stroke="#f3ba38" stroke-linecap="round" stroke-linejoin="round" d="M965.818 1191.083q.192-.073.329-.12.137-.048.839-.258.703-.21 1.428-.357t1.143-.186 1.047-.014 1.079.118.686.172.752.339.947.6q.433.341.657.578.223.238.386.451.163.212.553.959.389.748.53 1.22t.204 1.073-.056 1.447-.322 1.393-.457 1.001-.467.744-.388.497q-.177.206-.458.491t-.975.84q-.694.556-1.754 1.245t-1.881 1.148q-.822.459-1.469.78t-.727.363l-.685.364"/>
    </g>
</svg>
