<svg xmlns="http://www.w3.org/2000/svg" xml:space="preserve" viewBox="0 0 960 480">
    <g style="display:inline" transform="translate(214.537 -1849.018)scale(1.33333)">
        <path fill="none" stroke="#6ac0c8" stroke-linecap="round" stroke-linejoin="round" d="m3.06 1565.602 32.238-15.907m47.275-23.328 36.565-18.042m-39.711-.545.029 16.758m.151 87.23.028 16.414m259.734-99.055-.034 15.36m-.152 67.487-.04 17.767m-36.668-63.207 33.74-16.969m45.717-22.992 37.032-18.624"/>
        <path fill="none" stroke="#9378e3" stroke-linecap="round" stroke-linejoin="round" stroke-width="5" d="m339.686 1548.052-.269 60.559m.196-60.611 39.251-19.768m-340.309 20.079 41.092-20.343m-.132.126-.081 80.257"/>
        <path fill="none" stroke="#f66640" stroke-linecap="round" stroke-linejoin="round" stroke-width="2.5" d="m-7.053 1576.136 7.907-18.492m.088.012 4.764 19.402m-15.795-12.422 15.778 12.389m-15.671-13.072 20.64 1.891m-17.872 10.555 17.903-10.471m281.809 9.861 7.908-18.491m.088.011 4.764 19.403m-15.795-12.423 15.778 12.39m-15.671-13.073 20.64 1.891m-17.872 10.556 17.903-10.471"/>
        <circle cx="38.799" cy="1548.081" r="1.25" fill="#f3ba38" stroke="#f3ba38" stroke-width=".1"/>
        <circle cx="79.403" cy="1528.396" r="1.25" fill="#f3ba38" stroke="#f3ba38" stroke-width=".1"/>
        <circle cx="79.447" cy="1608.109" r="1.25" fill="#f3ba38" stroke="#f3ba38" stroke-width=".1"/>
        <circle cx="378.532" cy="1528.535" r="1.25" fill="#f3ba38" stroke="#f3ba38" stroke-width=".1"/>
        <path fill="none" stroke="#f3ba38" stroke-linecap="round" stroke-linejoin="round" stroke-width="2.5" d="m339.8 1548.059.037-.044q.01.01-.014.044"/>
        <circle cx="339.492" cy="1608.219" r="1.25" fill="#f3ba38" stroke="#f3ba38" stroke-width=".1"/>
        <path fill="none" stroke="#f3ba38" stroke-linecap="round" stroke-linejoin="round" d="M-11.026 1553.9q.189-.179.443-.386.318-.273 1.289-1.321t1.743-2.156q.774-1.108 1.209-1.967.435-.858.823-2.029t.578-2.884q.191-1.714.104-2.608t-.194-1.358-.388-1.155-.629-1.194-.622-.769-.513-.436q-.238-.171-.837-.415-.599-.245-1.254-.329-.654-.084-1.081-.056-.427.027-.759.082-.333.054-1.566.505-1.234.45-2.234 1.115-1 .666-1.45 1.067-.451.402-1.018 1.045-.568.643-1.081 1.409-.512.766-1.032 1.899-.52 1.132-.902 2.83-.382 1.697-.372 3.173.009 1.475.141 2.209t.341 1.381.493 1.209.457.823.399.528.488.513.898.615.996.47q.359.1.568.133t.488.04q.281.01.536-.013.255-.02 1.202-.317.946-.297 1.556-.663.61-.365 1.131-.779.52-.413.778-.664t.454-.468.645-.637"/>
        <path fill="none" stroke="#f3ba38" stroke-linecap="round" stroke-linejoin="round" d="M-11.99 1549.434q.071.091.32.514.25.423.808 1.263t1.288 1.829 1.383 1.735q.027.012.221.138l.489.315m294.614-2.393q.19-.179.443-.386.319-.272 1.289-1.321.971-1.049 1.744-2.156t1.208-1.967q.436-.858.823-2.029t.578-2.884.104-2.608-.194-1.358-.387-1.155q-.281-.692-.629-1.194-.349-.502-.623-.768-.273-.267-.512-.437-.239-.171-.838-.415-.599-.245-1.254-.329-.654-.084-1.081-.056-.426.027-.759.082-.333.054-1.566.505-1.233.45-2.233 1.115-1 .666-1.451 1.067-.45.402-1.018 1.045t-1.08 1.409-1.033 1.899q-.52 1.132-.902 2.83t-.372 3.173.141 2.209.341 1.381q.211.648.494 1.209.282.562.456.823t.4.528.487.513.898.615.996.47q.36.1.568.133t.489.04q.28.01.535-.013.256-.02 1.202-.317.947-.297 1.556-.663.61-.365 1.131-.779.521-.413.778-.664.258-.251.454-.468t.645-.637"/>
        <path fill="none" stroke="#f3ba38" stroke-linecap="round" stroke-linejoin="round" d="M286.169 1548.369q.071.091.321.514.249.423.807 1.263t1.289 1.829 1.382 1.735q.028.013.221.138l.489.315M29.56 1538.88q.069-.409.485-2.125.417-1.716 1.272-5.142.856-3.426 1.488-5.48t.982-2.83 1.105-1.561q.108.039.505.891t.715 2.547q.319 1.695.489 2.921.17 1.227.424 3.21.255 1.982.372 2.924.117.943.23 1.78.112.838.267 1.733.024.105.104 1.257"/>
        <path fill="none" stroke="#f3ba38" stroke-linecap="round" stroke-linejoin="round" d="M30.562 1534.273q.407-.13 2.122-.557t4.586-1.202m306.051 3.87q.069-.409.485-2.125.417-1.716 1.272-5.142t1.487-5.48.983-2.83 1.104-1.56q.109.038.506.89t.715 2.547q.319 1.695.489 2.922.17 1.226.424 3.209.254 1.982.372 2.925t.229 1.78q.113.837.268 1.733.023.104.104 1.256"/>
        <path fill="none" stroke="#f3ba38" stroke-linecap="round" stroke-linejoin="round" d="M344.323 1531.777q.407-.129 2.121-.557 1.715-.428 4.586-1.201M61.856 1506.54l-.023.419q.005.552.037 2.317.032 1.764.113 3.778.08 2.013.259 5.593.016.233.035 1.166"/>
        <path fill="none" stroke="#f3ba38" stroke-linecap="round" stroke-linejoin="round" d="M60.778 1507.654q.28-.156.695-.365t1.19-.551 1.376-.543 1.207-.32 1.039-.121q.434 0 .772.057.338.06.692.262.355.202.563.447.209.245.287.399t.133.448-.07.858-.379 1.07q-.256.505-.652 1.025t-.698.842q-.302.324-.454.469l-.265.253q-.114.108-.747.742.039.031.265.084.227.053.592.044t.633-.022q.269-.013.898-.01.629.01 1.26.081.631.074 1.036.185.405.112.623.184.219.071.612.289.394.217.9.684.505.466.721.816.216.351.308.618.091.268.123.699.033.432-.028.729-.06.296-.15.504-.089.208-.284.52t-.533.669q-.339.357-.907.751-.567.394-1.441.778t-1.842.642-1.995.43q-1.027.174-2.164.403-.084.022-.856.053l-.471.056m315.356-17.241-.024.419q.005.552.037 2.317.033 1.765.113 3.778.081 2.013.259 5.593.017.233.035 1.166"/>
        <path fill="none" stroke="#f3ba38" stroke-linecap="round" stroke-linejoin="round" d="M377.044 1505.686q.28-.155.695-.365.415-.209 1.19-.551t1.376-.543 1.207-.32 1.04-.121q.434 0 .771.057.338.06.693.262t.563.447.286.399.133.448-.07.858-.379 1.07-.652 1.025q-.396.519-.698.842-.302.324-.453.469l-.266.253q-.114.108-.747.742.039.031.266.084.226.053.591.044t.634-.022q.268-.013.897-.01.629.01 1.26.081.632.074 1.037.186.405.111.623.183.218.071.612.289.393.218.899.684.505.466.722.817t.307.617q.091.268.123.7.033.431-.027.728-.061.296-.15.504-.09.208-.284.52-.195.312-.534.669t-.906.751-1.442.778q-.873.384-1.841.641-.968.258-1.995.431-1.028.174-2.165.403-.084.022-.856.053l-.471.056m-280.119 84.599-.15-.188q-.092-.125-.438-.663-.345-.539-.597-.877-.252-.339-.471-.589-.22-.25-.544-.537t-.661-.502-.684-.361q-.345-.146-.824-.24-.479-.093-.871-.084-.391.01-.811.109-.419.101-.912.348-.493.248-.768.453t-.612.546-.715.886q-.377.546-.569.931t-.453 1.184-.381 1.791-.052 1.859q.067.868.16 1.286.092.417.337 1.054t.585 1.178.778.983.857.714q.417.271.849.438.431.167.984.253t1.116.035.802-.113q.238-.062.7-.242t.829-.383q.368-.202.882-.578.514-.377.846-.676.333-.299.473-.431.141-.132.598-.621.171-.17.362-.375m233.739-48.864-.151-.188q-.092-.125-.437-.663-.346-.539-.597-.877-.252-.339-.472-.589t-.543-.537-.662-.502-.683-.361q-.346-.146-.825-.24-.478-.093-.87-.084-.392.01-.811.11t-.912.347-.769.454q-.275.206-.611.546-.337.34-.715.886t-.569.931-.453 1.184-.381 1.79-.053 1.859q.068.868.16 1.286.093.418.337 1.054.245.638.585 1.178.34.541.779.984t.856.713q.418.272.849.439.432.167.984.252.553.085 1.117.035.563-.051.801-.113t.701-.242q.462-.18.829-.382.367-.203.881-.579.514-.377.847-.675t.473-.431.598-.622q.171-.169.361-.375m-245.301-38.755q.006.063-.006.564.001.17.042 1.352.042 1.181.163 2.762.122 1.58.201 2.426.079.845.155 1.635t.215 2.108.264 2.213q.126.895.183 1.19.058.296.105.457t.101.388"/>
        <path fill="none" stroke="#f3ba38" stroke-linecap="round" stroke-linejoin="round" d="M88.764 1530.917q.193-.072.33-.12.136-.047.839-.257t1.427-.358 1.143-.185q.418-.039 1.048-.014t1.079.117q.449.093.686.172.236.08.751.34.515.259.948.6t.656.578.387.45.552.96q.39.748.531 1.22t.204 1.073-.056 1.447-.322 1.393-.457 1.001q-.255.453-.467.744t-.389.497-.458.49q-.281.285-.975.841-.693.556-1.753 1.245-1.06.688-1.882 1.148t-1.468.78q-.648.321-.728.363l-.684.364m231.981 54.832q.006.064-.006.564.001.17.042 1.352.041 1.181.163 2.762t.201 2.426q.078.845.155 1.635.076.79.215 2.109t.264 2.212q.126.895.183 1.19.058.296.105.457t.101.388"/>
        <path fill="none" stroke="#f3ba38" stroke-linecap="round" stroke-linejoin="round" d="M321.81 1601.555q.193-.073.33-.12.136-.048.839-.258t1.427-.357 1.143-.186 1.048-.014 1.079.118.686.172.751.339.948.6q.432.341.656.578.224.238.387.45.162.213.552.96.39.748.531 1.22t.204 1.073-.056 1.447-.322 1.393-.457 1.001q-.255.453-.467.744t-.389.497q-.176.206-.458.491-.281.284-.975.84t-1.754 1.245-1.881 1.148q-.822.459-1.469.78t-.727.363l-.685.364"/>
    </g>
</svg>
