<svg xmlns="http://www.w3.org/2000/svg" xml:space="preserve" viewBox="0 0 960 480">
    <g style="display:inline" transform="translate(-574.583 -2279.268)scale(1.33333)">
        <path fill="none" stroke="#6ac0c8" stroke-linecap="round" stroke-linejoin="round" d="m622.015 1947.552 7.172-14.997m32.823-68.442 15.168-31.72m-35.64-1.34 16.616 33.287m33.82 67.784 7.253 14.528"/>
        <path fill="none" stroke="#f3ba38" stroke-linecap="round" stroke-linejoin="round" d="m605.73 1868.335 49.774-.306m9.894-.061 33.999.257"/>
        <path fill="none" stroke="#6ac0c8" stroke-linecap="round" stroke-linejoin="round" d="m922.315 1947.849 7.172-14.997m32.823-68.441 15.168-31.72m-35.641-1.341 16.617 33.287m33.82 67.784 7.253 14.528"/>
        <path fill="none" stroke="#f3ba38" stroke-linecap="round" stroke-linejoin="round" d="m906.03 1868.633 49.774-.307m9.894-.061 33.999.257"/>
        <path fill="none" stroke="#9378e3" stroke-linecap="round" stroke-linejoin="round" stroke-width="5" d="m630.883 1929.379 29.497-61.971m.009-.034 30.011 61.67m240.783.632 29.497-61.97m.009-.035 30.01 61.67"/>
        <path fill="none" stroke="#f66640" stroke-linecap="round" stroke-linejoin="round" stroke-width="2.5" d="m592.969 1875.755 7.908-18.491m.088.011 4.764 19.402m-15.795-12.422 15.778 12.39m-15.671-13.073 20.64 1.891m-17.872 10.556 17.903-10.471"/>
        <circle cx="630.837" cy="1929.301" r="1.25" fill="#f3ba38" stroke="#f3ba38" stroke-width=".1"/>
        <circle cx="660.564" cy="1867.938" r="1.25" fill="#f3ba38" stroke="#f3ba38" stroke-width=".1"/>
        <circle cx="690.255" cy="1928.721" r="1.25" fill="#f3ba38" stroke="#f3ba38" stroke-width=".1"/>
        <path fill="none" stroke="#f3ba38" stroke-linecap="round" stroke-linejoin="round" d="M587.465 1852.22q.189-.179.442-.386.319-.272 1.289-1.321.971-1.049 1.744-2.156t1.209-1.966.822-2.03q.388-1.17.578-2.884.191-1.714.104-2.608t-.194-1.358-.387-1.155-.629-1.194q-.348-.502-.622-.768-.274-.267-.513-.437-.239-.171-.838-.415-.599-.245-1.253-.329-.655-.084-1.081-.056-.427.027-.76.082-.332.054-1.566.505-1.233.45-2.233 1.115-1 .666-1.451 1.067-.45.402-1.018 1.045-.567.643-1.08 1.409t-1.033 1.899-.902 2.83q-.381 1.698-.372 3.173t.141 2.209.342 1.381.493 1.209.456.823.4.528q.225.267.487.513t.899.615q.636.37.995.47.36.1.568.133.209.033.489.04.28.01.536-.013.255-.02 1.201-.317t1.557-.663 1.13-.779q.521-.413.779-.664.257-.251.453-.468.197-.217.646-.637"/>
        <path fill="none" stroke="#f3ba38" stroke-linecap="round" stroke-linejoin="round" d="M586.5 1847.754q.071.091.321.514.249.423.807 1.263.559.839 1.289 1.829t1.382 1.735q.028.013.221.138l.489.315m23.406 80.629q.068-.41.485-2.125t1.272-5.142q.855-3.426 1.487-5.48t.983-2.83 1.104-1.561q.108.039.505.891t.716 2.547.488 2.921.425 3.209q.254 1.983.371 2.925.117.943.23 1.78t.268 1.733q.023.104.104 1.257"/>
        <path fill="none" stroke="#f3ba38" stroke-linecap="round" stroke-linejoin="round" d="M615.417 1929.57q.407-.13 2.121-.557 1.715-.428 4.586-1.202m16.11-78.594-.024.419q.005.552.038 2.317.032 1.765.112 3.778.081 2.013.259 5.593.017.233.036 1.166"/>
        <path fill="none" stroke="#f3ba38" stroke-linecap="round" stroke-linejoin="round" d="M637.156 1850.331q.28-.155.694-.364.415-.21 1.19-.552t1.376-.543 1.207-.32 1.04-.121q.434 0 .772.058.337.059.692.261.354.203.563.448.209.244.287.398t.132.448q.055.295-.069.859-.125.564-.38 1.069-.255.506-.652 1.025-.396.519-.698.843t-.453.468l-.265.253q-.114.108-.748.742.039.031.266.084.226.053.591.044t.634-.022.897-.01q.629.01 1.261.081.631.074 1.036.186.405.111.623.183t.612.289.899.684.722.817.307.618.124.699q.032.431-.028.728-.061.297-.15.505-.09.208-.284.52-.195.312-.534.668t-.906.751-1.441.778-1.842.642q-.968.257-1.995.431-1.028.173-2.165.402-.084.022-.855.053l-.472.056m68.708 57.726-.151-.188q-.092-.125-.437-.663-.346-.539-.598-.877-.251-.339-.471-.589t-.544-.537-.661-.501-.684-.362q-.345-.146-.824-.24-.479-.093-.87-.084-.392.01-.811.11t-.913.347-.768.454-.612.546-.714.886q-.378.545-.57.93t-.452 1.185q-.262.799-.382 1.79t-.052 1.859.16 1.286q.093.417.337 1.055t.585 1.177q.34.541.778.984.439.442.857.713.418.272.849.439t.984.252 1.116.035q.564-.051.802-.113t.7-.242.83-.383q.367-.202.881-.578.514-.377.846-.676.333-.298.474-.43t.597-.622q.171-.169.362-.375m-36.432-79.926q.006.064-.006.564.001.17.043 1.352t.162 2.762q.122 1.581.201 2.426t.155 1.636q.076.789.215 2.108t.264 2.213.183 1.19.105.456q.046.162.101.388"/>
        <path fill="none" stroke="#f3ba38" stroke-linecap="round" stroke-linejoin="round" d="M672.188 1849.795q.192-.073.329-.12.136-.048.839-.258t1.428-.357 1.142-.186 1.048-.013 1.079.117q.449.092.686.172.236.08.751.339.516.259.948.6.433.341.656.578.224.238.387.451.163.212.552.96.39.747.531 1.219t.204 1.074-.056 1.446q-.119.846-.322 1.393-.203.548-.457 1.001-.255.453-.467.744t-.388.497-.458.491-.976.84q-.693.556-1.753 1.245t-1.882 1.148-1.468.78-.727.363l-.685.364"/>
        <path fill="none" stroke="#f66640" stroke-linecap="round" stroke-linejoin="round" stroke-width="2.5" d="m893.269 1876.053 7.907-18.492m.089.011 4.764 19.403m-15.795-12.423 15.778 12.39m-15.672-13.072 20.64 1.89m-17.871 10.556 17.903-10.471"/>
        <circle cx="931.137" cy="1929.598" r="1.25" fill="#f3ba38" stroke="#f3ba38" stroke-width=".1"/>
        <circle cx="960.863" cy="1868.235" r="1.25" fill="#f3ba38" stroke="#f3ba38" stroke-width=".1"/>
        <circle cx="990.555" cy="1929.019" r="1.25" fill="#f3ba38" stroke="#f3ba38" stroke-width=".1"/>
        <path fill="none" stroke="#f3ba38" stroke-linecap="round" stroke-linejoin="round" d="M887.764 1852.517q.19-.179.443-.386.319-.272 1.289-1.321.971-1.049 1.744-2.156t1.208-1.966q.436-.859.823-2.029.387-1.171.578-2.885t.104-2.608-.194-1.357-.387-1.156-.629-1.194-.623-.768-.512-.437q-.239-.17-.838-.415t-1.254-.329q-.654-.084-1.081-.056t-.759.082-1.566.505q-1.233.45-2.233 1.116-1 .665-1.451 1.067-.45.401-1.018 1.044t-1.08 1.409-1.033 1.899-.902 2.83-.372 3.173.141 2.209.342 1.381.493 1.209.456.823.4.528q.225.267.487.513t.898.615.996.47.568.133.489.04q.28.01.535-.013.256-.02 1.202-.317.947-.297 1.557-.663.609-.365 1.13-.778t.778-.665.454-.468.645-.637"/>
        <path fill="none" stroke="#f3ba38" stroke-linecap="round" stroke-linejoin="round" d="M886.8 1848.051q.071.091.321.514.249.423.807 1.263t1.289 1.83 1.382 1.734q.028.013.221.138.193.126.489.316m104.406 79.296q.069-.409.486-2.125.416-1.716 1.272-5.142.855-3.426 1.487-5.48.632-2.053.982-2.83.351-.776 1.105-1.56.108.038.505.89t.716 2.547.488 2.922.425 3.209q.254 1.983.371 2.925t.23 1.78.267 1.733q.024.104.105 1.256"/>
        <path fill="none" stroke="#f3ba38" stroke-linecap="round" stroke-linejoin="round" d="M996.717 1928.535q.407-.129 2.122-.557 1.715-.427 4.586-1.201m-30.333-76.899-.024.419q.005.552.038 2.317.032 1.764.113 3.778.08 2.013.259 5.592.016.234.035 1.167"/>
        <path fill="none" stroke="#f3ba38" stroke-linecap="round" stroke-linejoin="round" d="M972.014 1850.991q.28-.155.695-.364t1.19-.551 1.376-.543 1.206-.32 1.04-.121q.434 0 .772.057.338.06.692.262t.563.447.287.399.132.448q.055.294-.069.858t-.38 1.07q-.255.505-.651 1.024-.397.52-.699.843t-.453.469l-.265.253q-.114.108-.748.742.04.031.266.084.227.053.592.043.364-.01.633-.021.269-.013.898-.01.629.01 1.26.082.631.074 1.036.185.405.112.623.184.219.071.612.289.394.217.899.684.506.466.722.816.216.351.307.618.092.268.124.699.032.432-.028.729-.06.296-.15.504t-.284.52-.533.669-.907.751-1.441.778-1.842.641-1.995.431-2.164.403q-.085.022-.856.053l-.471.056m-50.506 57.665-.151-.187q-.092-.125-.437-.664-.346-.539-.597-.877-.252-.338-.472-.589t-.543-.536q-.324-.287-.662-.502t-.684-.361-.824-.24-.87-.085q-.392.01-.811.11t-.913.348-.768.453-.612.546q-.336.34-.714.886t-.569.931q-.192.385-.453 1.184t-.381 1.79-.053 1.859.16 1.286.337 1.055.585 1.178.779.983.856.714q.418.271.849.438t.984.252q.553.086 1.116.035t.802-.113.7-.242.83-.382q.367-.203.881-.579t.847-.675.473-.431.598-.622q.17-.169.361-.374m14.497-79.627q.006.064-.006.565.001.17.043 1.351t.162 2.763q.122 1.58.201 2.426.079.845.155 1.635.077.79.215 2.108.139 1.319.264 2.213.126.894.184 1.19t.104.457.101.388"/>
        <path fill="none" stroke="#f3ba38" stroke-linecap="round" stroke-linejoin="round" d="M938.762 1850.696q.192-.072.329-.12t.839-.258 1.428-.357q.724-.147 1.142-.185t1.048-.014 1.079.117.686.172q.236.08.752.339.515.26.947.6.433.341.656.579t.387.45.552.96q.39.747.531 1.22.141.472.204 1.073t-.056 1.447-.322 1.393-.457 1q-.255.454-.467.745t-.389.497-.457.49q-.282.285-.976.841-.693.555-1.753 1.244t-1.882 1.149-1.468.78-.727.363l-.685.364"/>
    </g>
</svg>
