<svg xmlns="http://www.w3.org/2000/svg" xml:space="preserve" viewBox="0 0 960 480">
    <g style="display:inline">
        <text xml:space="preserve" x="924.015" y="963.631" style="font-style:normal;font-variant:normal;font-weight:400;font-stretch:normal;font-size:18px;font-family:&quot;JetBrains Mono&quot;;-inkscape-font-specification:&quot;JetBrains Mono&quot;;text-align:start;writing-mode:lr-tb;direction:ltr;text-anchor:start;fill:#fff;fill-opacity:1;stroke:none;stroke-width:2.83465;stroke-linecap:round;stroke-linejoin:round" transform="translate(-612.216 -1052.89)scale(1.33333)"><tspan x="924.015" y="963.631" style="font-size:18px;stroke-width:2.83465">A</tspan></text>
        <text xml:space="preserve" x="974.656" y="991.274" style="font-style:normal;font-variant:normal;font-weight:400;font-stretch:normal;font-size:18px;font-family:&quot;JetBrains Mono&quot;;-inkscape-font-specification:&quot;JetBrains Mono&quot;;text-align:start;writing-mode:lr-tb;direction:ltr;text-anchor:start;fill:#fff;fill-opacity:1;stroke:none;stroke-width:2.83465;stroke-linecap:round;stroke-linejoin:round" transform="translate(-612.216 -1052.89)scale(1.33333)"><tspan x="974.656" y="991.274" style="font-size:18px;stroke-width:2.83465">B</tspan></text>
        <path fill="none" stroke="#6ac0c8" stroke-linecap="round" stroke-linejoin="round" d="m940.565 889.714-.035 158.624m-20.599-142.426 121.007 122.122" style="display:inline" transform="translate(-612.216 -1052.89)scale(1.33333)"/>
        <path fill="none" stroke="#f3ba38" stroke-linecap="round" stroke-linejoin="round" d="m899.937 967.242 119.574.916" style="display:inline" transform="translate(-612.216 -1052.89)scale(1.33333)"/>
        <path fill="none" stroke="#9378e3" stroke-linecap="round" stroke-linejoin="round" stroke-width="6.667" d="m641.74 181.265-.038 110.424m25.984-82.162 79.696 79.472"/>
        <path fill="none" stroke="#f66640" stroke-linecap="round" stroke-linejoin="round" stroke-width="2.5" d="m892.882 975.852 7.907-18.491m.088.011 4.765 19.402m-15.795-12.422 15.777 12.39m-15.671-13.073 20.64 1.891m-17.872 10.556 17.903-10.472" style="display:inline" transform="translate(-612.216 -1052.89)scale(1.33333)"/>
    </g>
    <g style="display:inline">
        <text xml:space="preserve" x="647.206" y="963.091" style="font-style:normal;font-variant:normal;font-weight:400;font-stretch:normal;font-size:18px;font-family:&quot;JetBrains Mono&quot;;-inkscape-font-specification:&quot;JetBrains Mono&quot;;text-align:start;writing-mode:lr-tb;direction:ltr;text-anchor:start;fill:#fff;fill-opacity:1;stroke:none;stroke-width:2.83465;stroke-linecap:round;stroke-linejoin:round" transform="translate(-612.216 -1039.186)scale(1.33333)"><tspan x="647.206" y="963.091" style="font-size:18px;stroke-width:2.83465">A</tspan></text>
        <text xml:space="preserve" x="683.709" y="984.977" style="font-style:normal;font-variant:normal;font-weight:400;font-stretch:normal;font-size:18px;font-family:&quot;JetBrains Mono&quot;;-inkscape-font-specification:&quot;JetBrains Mono&quot;;text-align:start;writing-mode:lr-tb;direction:ltr;text-anchor:start;fill:#fff;fill-opacity:1;stroke:none;stroke-width:2.83465;stroke-linecap:round;stroke-linejoin:round" transform="translate(-612.216 -1039.186)scale(1.33333)"><tspan x="683.709" y="984.977" style="font-size:18px;stroke-width:2.83465">B</tspan></text>
        <path fill="none" stroke="#6ac0c8" stroke-linecap="round" stroke-linejoin="round" d="m600.162 1027.675 120.146-120.03m-21.304-18.168 2.062 138.543" style="display:inline" transform="translate(-612.216 -1039.186)scale(1.33333)"/>
        <path fill="none" stroke="#f3ba38" stroke-linecap="round" stroke-linejoin="round" d="m599.793 967.674 140.493-.178" style="display:inline" transform="translate(-612.216 -1039.186)scale(1.33333)"/>
        <path fill="none" stroke="#9378e3" stroke-linecap="round" stroke-linejoin="round" stroke-width="6.667" d="m215.223 304.186 79.615-80.268m26.64-26.238 1.117 105.815"/>
        <path fill="none" stroke="#f66640" stroke-linecap="round" stroke-linejoin="round" stroke-width="2.5" d="m592.479 975.528 7.907-18.492m.088.012 4.764 19.402m-15.795-12.422 15.778 12.389m-15.671-13.072 20.64 1.891m-17.872 10.556 17.903-10.472" style="display:inline" transform="translate(-612.216 -1039.186)scale(1.33333)"/>
    </g>
    <text xml:space="preserve" x="240.816" y="396.122" style="font-size:18.6667px;font-family:&quot;JetBrains Mono&quot;;-inkscape-font-specification:&quot;JetBrains Mono&quot;;text-align:start;writing-mode:lr-tb;direction:ltr;text-anchor:start;fill:#fff;stroke-width:1.33417;stroke-linecap:round;stroke-linejoin:round"><tspan x="240.816" y="396.122">fig 9</tspan></text>
    <text xml:space="preserve" x="639.592" y="396.122" style="font-size:18.6667px;font-family:&quot;JetBrains Mono&quot;;-inkscape-font-specification:&quot;JetBrains Mono&quot;;text-align:start;writing-mode:lr-tb;direction:ltr;text-anchor:start;fill:#fff;stroke-width:1.33417;stroke-linecap:round;stroke-linejoin:round"><tspan x="639.592" y="396.122">fig 10</tspan></text>
</svg>
