<svg xmlns="http://www.w3.org/2000/svg" xml:space="preserve" viewBox="0 0 960 480">
    <g fill="none" stroke="#FFF" stroke-linecap="round" stroke-linejoin="round" stroke-width="2" transform="translate(-1008.26 -595.262)scale(1.33333)">
        <path stroke-width="5" d="M861.923 618.748q1.317-.239 4.377-.658t7.274-.804 6.41-.474 4.131-.157q1.936-.066 5.34-.151t8.592-.349q5.187-.263 8.619-.449 3.431-.185 8.182-.314 4.75-.129 11.401-.222t15.147-.127q8.495-.033 10.501-.055t11.601-.101 11.846-.109 7.19-.248 8.973-.362q4.034-.145 12.831-.298t10.848-.207 6.587-.291 7.584-.386 4.296-.191q1.246-.043 4.438-.178t6.99-.291q3.797-.155 8.949-.279l8.849-.212q3.698-.089 7.987-.176 4.289-.086 12.838-.467 8.55-.382 13.287-.657t7.385-.379 9.384-.401 10.138-.433q3.403-.136 7.042-.184t9.418.123 10.72.292 8.241.043 6.995-.179l9.09-.25q5.394-.148 14.541-.216 9.147-.067 11.25-.074 2.104-.007 6.097-.028t8.041-.077 10.39-.332q6.344-.277 8.544-.32t7.289-.131q5.089-.089 11.283-.254 6.193-.164 10.787-.188 4.593-.025 10.439-.052 5.845-.027 11.143-.141 5.297-.114 16.049-.208t11.846-.101 6.918-.171 9.098-.404q3.273-.24 9.545-.31 6.271-.069 12.119-.17 5.847-.1 9.81-.161 3.963-.06 9.123-.077t6.835-.119 2.193-.138q.518-.035 2.252-.486l.3-.124q-.122-.281-.378-.578-.256-.298-.948-.795-.693-.496-2.554-1.457t-2.965-1.526-3.376-1.66q-1.288-.72-2.258-1.175-.969-.456-2.722-1.215-1.752-.759-2.468-1.042-.715-.284-1.859-.752-1.144-.467-3.08-1.278t-2.039-.865q-.101-.054-2.418-1.003l-2.035-.725"/>
        <path stroke-width="5" d="M880.27 599.277q.015 1.252-.018 1.47-.034.217.256 7.343.29 7.125.661 10.921t.568 5.441.365 2.748q.169 1.102.267 1.856.097.754.32 2.78.224 2.025.279 2.414.056.388.599 3.497m404.271-51.327.077 2.795q0 .417.311 7.551.315 7.134.506 11.392t.32 5.884.454 5.852.542 6.106.359 4.056"/>
        <path d="M874.292 710.035q-.27-.654-.682-1.353t-1.034-1.38q-.623-.68-1-.977t-1.011-.553-1.529-.164q-.894.094-1.416.399-.523.306-1.026.876t-.769 1.143-.32.65-.263 1.522-.103 2.372q.105.927.53 2.112t.805 1.759q.38.573.884 1.055.505.481.99.745.486.263 1.3.215t1.375-.348q.561-.301.915-.633.353-.332.945-1.168.593-.835 2.083-5.216m13.372-1.132q-.138-.014-.595-.334-.457-.321-.773-.596-.843-.626-1.577-.879-.734-.254-1.327-.302-.592-.048-1.19.049-.599.096-1.404.613-.805.516-1.379 1.143-.575.627-.982 1.47-.406.842-.553 1.703t-.135 1.606.107 1.327.424 1.22.7 1.016.833.653q.463.274.987.394.524.119.973.164.45.044 1.46-.378 1.01-.423 1.487-.837.476-.414.687-.661t.318-.383q.107-.135.523-.961.415-.826.596-1.518t.226-1.02-.007-4.011"/>
        <circle cx="895.353" cy="708.444" r="1" fill="#FFF" stroke-width=".1"/>
        <circle cx="894.824" cy="718.498" r="1" fill="#FFF" stroke-width=".1"/>
        <path d="M914.027 714.527q-.41-1.332-.929-2.617-.518-1.286-1.305-2.231t-1.551-1.391-1.475-.523q-.71-.076-1.395.06-.684.136-1.897 1.165t-1.71 2.087-.606 2.311q-.108 1.253.159 2.155.268.902 1.377 1.886 1.11.983 1.541 1.149.432.166.593.178t.594.049q.432.037 1.451-.448 1.019-.484 1.662-.967.643-.482 3.236-5.37m14.958-.661-.048-.152q-.019-.056-.341-.941-.323-.885-1.117-1.786-.794-.902-1.166-1.121-.371-.22-.615-.357-.244-.138-1.031-.288-.788-.151-1.429-.023-.642.129-1.53.574t-1.924 1.317-1.581 1.604-.71 3.733.473 3.88q.64.88 1.813 1.576t2.264.814 1.98-.242 2.332-1.63 1.768-1.789q.324-.518.425-.714.102-.196.451-1.148t.314-5.229m-25.859-34.358-.121-.281q-.294-.555-1.511-2.098t-2.291-2.303-1.88-.912q-.805-.151-1.221.035-.415.186-.794 1.112t.169 5.254 1.248 6.894q.699 2.566 1.622 4.255.104.12.149.252.045.131.13.633"/>
        <path d="M892.869 681.557q.986-.363 1.37-.464t1.836-.366 3.554-.621m10.73 2.112.073-.308.498-.634q.365-.565.51-.85t.179-.325q.034-.039.154-.415.121-.376.115-.608t-.031-.34-.192-.208-.467-.113q-.302-.014-.631.251t-.589 1.075-.109 1.339.278.701q.128.171.477.609t1.173.987 2.127.984 3.577.77m.073-15.755.285.875.269 1.081q.165.372 2.409 13.065.084.349.08 1.128"/>
        <path d="M919.888 679.381q1.379-.166 2.316-.177t1.838.121 1.194.195.856.374q.563.312 1.119.872t.83 1.356.139 1.344-.611 1.072q-.477.526-.871.742t-1.254.483-3.446.101q-.16-.073-1.764-.731m-69.327-8.153q.726-.685.912-.905.185-.221.271-.354t.667-.692 1.714-1.395 1.71-1.118q.575-.283 1.561-.013.118 0 .353 1.205t-.284 3.581-.889 4.453q.009.113.505.253.497.14.988.25.492.109.85.235.358.125.658.319.299.194.52.602.22.408.384.876t.267 1.656q.103 1.186-.196 2.206t-.856 1.676-1.507 1.331q-.952.674-2.321 1.19t-2.788.513q-1.418-.002-2.536-.388-.211.096-1.295-.388m28.003-10.384q-.057-.253-.118-.753t-.399-1.56q-.339-1.06-.539-1.523-.201-.464-.818-1.374-.618-.911-1.493-1.684t-1.748-1.016q-.874-.244-1.748-.177-.874.068-1.832.583-.957.516-2.157 2.078t-1.661 2.939-.577 2.768.133 3.091q.251 1.699.395 2.101t.452.952 1.016 1.298 1.11 1.018.991.477 1.164.267q.575.058.971.083t1.129-.214 1.434-.749.901-.678.945-1.196q.745-1.026 1.154-2.051t.523-1.59.113-.63.138-1.06.321-4.251m384.699-16.543q.469-.889 2.606-3.238t3.295-3.123 2.206-1.084 1.489-.28q.441.028.797.205.357.178.721.973.365.795.414.831t.075 1.206q.026 1.172-.434 2.853t-.781 2.508q-.321.826-.48 1.164l.191-.079q.347-.046 1.258-.232.911-.187 1.829-.188t1.773.337q.855.339 1.075.555.221.218.517.525.295.307.505.993.209.685.217 1.275.01.589-.226 1.493-.233.903-1.013 2.123-.781 1.22-2.437 2.284-1.657 1.063-3.723 1.526-2.065.462-3.233.446-1.167-.015-3.104-.665-1.936-.649-3.937-1.349m24.304-22.843-.021.131q-.098.233-.074.399.024.165-.124.399-.166.312.239 5.111.404 4.8.777 7.837.374 3.038.627 4.793.252 1.756.456 2.44.203.685.279.75t.355.448m23.903-16.085q-.172-.674-.235-.874-.064-.201-.201-.499-.138-.298-.181-.377-.043-.078-.449-.641t-1.004-1.217q-.599-.654-1.033-1.018t-.859-.628q-.427-.264-.673-.411-.247-.148-1.197-.299t-1.262-.089q-.311.062-.59.27-.279.207-.464.499-.184.292-.278.584-.093.292-.255 1.185-.162.892.556 3.89.717 2.998 1.831 5.803 1.113 2.806 1.635 4.101.521 1.296.938 2.32t.8 2.397q0 .237.334 1.293"/>
        <path d="m1304.274 664.611.487-.122q.291-.017 9.57-.604m9.274 4.9.042-.194q.341-.317 1.026-1.033.684-.715 1.084-1.32.399-.604.475-.759.076-.154.209-.761.134-.606-.072-1.194-.205-.588-.831-.895t-1.948-.047-2.593 1.487-1.62 2.049-.362 1.851.648 2.023 1.794 1.701 3.068 1.167 4 .302 5.41-1.399m.801-19.662q.1.428 2.824 18.924.147.373.363.312l-.016.158"/>
        <path d="m1336.449 663.555.977-.364q.093-.033 1.099-.202t2.793-.157q1.787.013 2.82.315 1.032.303 1.943 1.073.912.77 1.239 1.252.326.483.502 1.584.175 1.101.021 1.558-.153.457-.481.921-.329.464-.684.782-.356.319-.446.511-.089.191-9.455 2.92m-56.479 27.679q-.015-.542-.04-.855t-.114-.661q-.088-.349-.382-1.159t-.935-1.727-1.429-1.42q-.789-.504-1.987-.709t-2.237.124-1.768.922-1.355 1.732q-.628 1.138-.73 2.463t.33 2.53q.432 1.204 1.297 2.04.866.835 1.322 1.018t1.376.306 1.901-.166q.982-.288 1.967-1.005.984-.717 1.558-1.506.574-.788 1.554-2.665m15.559-1.451-.215-.528q-.049-.121-.607-.891-.557-.769-1.438-1.288t-1.573-.707-1.515-.148-1.442.205q-.62.164-1.629.872t-1.936 2.051q-.928 1.343-1.102 3.055t.232 2.895q.408 1.183.913 1.748t1.317.895q.81.33 1.836.242t1.724-.385 1.425-.676 3.627-3.166m7.999-5.498-.055-.127"/>
        <circle cx="1304.529" cy="706.911" r="1" fill="#FFF" stroke-width=".1"/>
        <path d="m1325.918 699.632-.084-.204q-.021-.293-.46-1.589-.44-1.296-.964-2.042-.523-.746-1.457-1.253-.933-.507-1.961-.599t-2.041.211q-1.012.302-2.589 1.687t-2.191 3.391-.539 3q.074.996.215 1.529.14.534.674 1.527.535.992 1.087 1.442.553.451 1.42.711.867.261 2.794-.356 1.926-.617 2.955-1.486 1.03-.868 1.82-1.864.791-.996 1.996-3.443m14.957-1.782q.486-.392.88-.767l.077-.383q.017-1.151-.183-1.742-.199-.59-.904-1.105-.706-.514-2.328-.614-1.623-.1-2.536.149-.914.249-1.979 1.077-1.066.827-1.46 1.303t-.99 1.636-.787 2.278q-.189 1.117-.033 2.358.155 1.241.507 1.869t1.254 1.273 2.396.773q1.495.127 3.157-.828t3.007-2.519 3.165-6.412M955.216 575.78l.036.659.167 2.069q.055 1.389.404 6.311t.775 9.49.777 7.947l.485 4.657q.132 1.278.498 3.382.365 2.104.702 3.688m37.203-40.582q-.03.256.031 6.068t.273 11.55q.212 5.74.373 8.323t.354 4.598.28 2.678.547 4.451"/>
        <path d="m961.829 594.78.009.254q.022.174-.1.409-.145.084-.721.943-.575.859-1.598 2.651t-3.547 6.407m15.832-10.193q-.416.403-2.129 3.114t-3.316 5.465-4.503 7.936l-.783 1.352m19.676-18.262q-.043.124-.364.889-.322.765-.542 1.093-.22.329-1.092 1.725t-3.265 6.028q-2.393 4.633-3.555 6.809m17.217-12.84q-.091.096-.149.212-.122.102-5.833 10.358l-.959 1.481m14.029-7.75q-.119.373-.445 1.306t-3.655 7.895m169.255-38.394-.081.496q-.079.423-.403 9.986t-.052 19.834l.01.798m52.632-32.769-.058 1.546q-.052.674.163 9.221t.619 12.683.626 5.881.394 2.46q.171.713.304.973l.266 1.202m-46.677-16.62-.177.486q-.103.163-7.712 11.234m17.29-9.277-.623 1q-1.741 2.249-9.128 13.761l-.452.599m23.375-16.683-.142.398q-.609.829-6.906 14.577l-.567 1.645m20.405-15.488q-.205.31-2.829 4.843t-6.317 10.377m18.219-11.313-.783 1.769-5.849 10.677m153.759-75.288.096.438q-.049 1.105.095 8.484.144 7.38.618 11.191.475 3.811 1.166 5.6t1.187 2.307 1.865.949 3.01.218 9.107-4.232"/>
        <path d="M1354.312 545.656q.106.002 4.546-.384 4.439-.386 14.169-.824l.45-.084 1.55-.171"/>
    </g>
</svg>
