<svg xmlns="http://www.w3.org/2000/svg" xml:space="preserve" viewBox="0 0 960 480">
    <g fill="none" stroke="#fff" stroke-linecap="round" stroke-linejoin="round" stroke-width="2" transform="translate(-173.564 -1077.46)scale(.64406)">
        <path stroke-width="5" d="m506.17 1904.205-.071.068q-.129.125-.327.224t-.398.184q-.199.084-.723.264-.524.179-.767.24t-1.884.606-3.538.882-3.097.37-2.109-.156-2.212-.939-2.121-1.41q-.818-.658-1.444-1.304-.625-.646-1.556-1.899-.93-1.252-1.803-2.693t-1.03-1.748-.764-1.951-.917-3.261-.535-4.135-.226-4.067-.009-1.753.468-3.92 1.238-6.659 1.338-4.742 1.105-3.355 1.673-4.704 2.122-5.451 2.437-4.907q1.459-2.605 3.105-5.107t2.372-3.463 3.572-4.139 5.831-6.023q2.987-2.846 5.946-4.98t5.248-3.387 3.708-1.906 2.908-1.219 2.521-.899 4.359-1.212 5.753-1.362 4.525-.783 3.701-.397 4.286.251 6.337 1.282 4.049.931q.394 0 .871-.107.478-.103 2.535-.993 2.057-.889 2.224-.993.167-.105 1.28-.671t2.407-1.079 2.335-.83 2.032-.521 2.615-.336 3.929-.236 3.322-.152 2.118-.076 3.37-.199 2.841-.228 3.32-.287 4.8-.42 3.851-.27 4.527.042q2.729.12 4.142.287t3.255.46q1.841.294 2.838.536t2.287.597q1.289.355 2.927.914t3.813 1.48 3.476 1.503 3.09 1.603 3.136 2.043q1.348 1.023 2.958 2.476t2.468 2.48q.859 1.026 1.59 1.971t1.513 1.801 1.076 1.159q.292.303.933 1.133.64.831 1.227 1.538.586.707.885 1.009t.996.845l2.05 1.133q1.307.585 1.999.95t4.589 3.116l.57.455q1.515 1.47 2.216 2.46.702.989 1.203 1.92t.936 1.879q.434.949.802 2.094t.737 2.737q.369 1.591.421 2.502t-.357 4.811-.869 5.786-.637 2.463-.823 2.066-1.81 4.082-2.008 4.366-1.638 3.211q-.795 1.438-1.835 2.921-1.04 1.484-3.13 3.811t-2.71 2.884-1.931 1.523q-1.311.967-1.643 1.174t-2.094.996-3.342 1.205-4.377.455l-1.397-.175q-1.065-.221-3.683-.845-2.731-1.296-3.588-1.773l-2.308-1.286q-1.451-.81-4.58-2.562t-3.931-2.182-5.289-2.468q-.253 0-.759.069-.507.073-1.516.228t-1.593.266q-.585.111-2.674.833-2.089.723-6.409 3.123-3.419 2.331-4.368 3.039t-2.842 2.223-3.374 2.631q-1.482 1.118-1.809 1.338t-.822.498-1.62.911-2.181 1.14q-1.055.509-2.596 1.144-1.542.636-3.932 1.55t-3.725 1.461q-1.334.547-7.751 3.213t-8.321 3.386-4.209 1.423q-2.306.703-4.464 1.237t-6.896.696q-4.736.16-5.949-.12t-4.101-1.259q-2.887-.978-4.426-1.752-1.539-.773-2.673-1.445-1.133-.673-2.283-1.363-1.149-.689-2.837-1.646-1.688-.956-2.074-1.132t-1.441-.319q-1.055-.145-3.194-.317-2.49.101-3.559.791t-1.034.786m56.381 4.36.306.771.991 1.898q2.322 4.123 6.076 11.561t4.843 9.611q1.09 2.174 1.678 3.324t2.666 6.332q2.077 5.182 3.679 9.158t2.462 5.984 1.183 2.844q.325.835 1.676 4.678l.051.085-.049.817"/>
        <path stroke-width="5" d="M571.32 1905.843q1.166 1.099 1.503 1.753t1.49 2.317 2.59 3.525 1.857 2.386 1.593 1.769 2.007 2.188 1.509 1.68q.674.737 1.238 1.293.563.557 1.943 1.711 1.379 1.154 2.299 1.836.92.681 2.598 1.461t3.408 1.083q1.731.302 4.282-.194 2.551-.495 2.609-.489.059.01 1.677-1.019 1.618-1.027 2.583-1.897t1.682-1.683 1.399-1.533 1.129-1.2 1.102-1.063.834-.725.643-.545 1.652-1.361 1.247-.992 1.623-1.016 3.73-1.968 3.291-1.557 2.074-1.166q.947-.595 1.825-1.311t1.733-1.801 1.431-2.329.975-2.585.536-1.846q.139-.505 1.947-6.233m-43.78 33.488q.205.363 1.7 4.927 1.496 4.564 2.633 8.286t2.307 7.323 1.905 6.161 1.428 4.816l1.108 3.604.142.293.365 1.203m-89.68-62.88q.275-1.081.315-1.267t.437-1.585 1.043-2.66 1.22-2.031q.575-.771 1.113-1.396.539-.625 1.043-1.109t.942-.95.654-.716.968-1.051q.753-.801 1.504-1.888.751-1.088 1.381-2.107.631-1.019 1.244-1.867t.787-.93q1.54-1.317 2.171-1.678.632-.36 1.358-.691t4.76-2.439q.086-.056.937-.786.851-.729 1.318-1.112t1.193-.887 1.416-.933.796-.47 1.351-.864q1.244-.822 1.918-1.318t1.323-.807 1.141-.534q.492-.225 1.198-.595.706-.371 1.136-.693t1.153-1.019.83-.759q.108-.063 1.278-1.246t1.775-1.638q.606-.454 1.513-.949.908-.496 1.823-1.006.915-.511 1.656-.861l1.359-1.079q1.756-1.137 3.824-2.184 1.628-.59 2.124-.823.495-.232 1.004-.61.51-.377 1.742-1.251t1.848-1.24 1.231-.625 1.078-.342q.464-.082.861-.177t2.818-.894q.244-.109 2.01-.315t3.03-.224l1.752-.027q.488-.01 1.68.122l1.724.358q2.363.461 2.846.547t1.555.424q2.426 1.225 4.089 2.206t2.66 1.423q.998.443 2.237.888 1.238.445 2.368.75t1.527.385 1.681.418 3.3.686l2.347.579q1.864.962 2.091 1.022.228.059 1.002.63t1.138 1.007.447.584q.082.147.416 1.232-.011.081-.139.793-.127.712-.576 1.727t-.585 1.375-.382 1.108-.31 1.14-.214 1.57q-.151 1.179-.379 2.077l-.181.451q-.585 1.152-1.002 2.105t-.657 1.553-.545 1.553-.698 1.801m6.677-20.101q.857-.128 1.676.01.823-.133 1.206-.178.384-.044 1.084-.18t1.451-.179 1.731-.249 2.34-.62q1.36-.416 1.689-.555.33-.139 1.422-.786 1.093-.647 1.417-.822.325-.176 1.11-.538l.609-.266 1.354-.797q.416-.263 1.125-1.011t1.159-1.332q.449-.584.899-1.158.45-.573 1.105-1.554.356-.339 1.404-2.484t1.428-3.079.566-1.329.896-1.669q1.175-1.809 1.447-2.314t.462-.955q.191-.449.605-1.942t1.385-5.587"/>
        <path stroke-width="5" d="M561.44 1859.456q-.057-.091-.571-.72-.514-.63-1.195-1.667t-.934-1.524-.532-1.237-.548-2.303q-.27-1.552-.343-2.536t-.05-1.672.045-.815q.023-.128.104-.752.082-.624.122-1.091t.067-.93q.027-.462.042-1.79-.083-1.178-.134-1.854-.051-.675-.054-1.251t.204-3.548l.095-1.108q.173-1.073.364-2.07.192-.997.882-3.619-.025-2.11-.063-2.636-.037-.525-.141-1.326t-.274-2.266q-.169-1.465-.466-4.701"/>
        <path d="M590.651 1914.646q-.603-.517-1.426-1.127t-1.913-1.651-1.931-2.104-1.398-1.811-1.039-1.312-1.083-1.407-1.248-2.442q-.053-.198-.356-.758m14.275 10.722-.416-.556q-.301-.56-.929-2.095t-1.13-2.704-.804-1.848-.67-2.003-.53-1.893-.33-1.16q-.17-.59-.248-.963t-.187-1.073q-.11-.7-.171-1.031-.062-.332-.071-.368-.01-.036-.117-1.021m3.517 24.592.102.92q.038.499.307 2.157t.975 4.272m2.915-9.003q.041.112.043.391.046.391.292 1.212t.647 1.885.741 2.003 1.143 2.768l.093.063.077.059q.062.052.18.323m.756-10.059q.4.275 1.523 1.364 1.124 1.089 2.612 2.315t2.987 2.275l.758.434m-4.701-9.729q.141.065.429.16t1.636.333 3.624.359q2.276.123 6.327-.292m-16.944-4.371q.065-.372.069-.631t-.116-2.242-.233-3.162-.232-2.446q-.118-1.268-.24-2.408-.121-1.141-.199-2.907t-.046-2.629q.033-.862.103-1.346t.177-1.282l.132-.978q.025-.18.102-.468t.283-1.244m4.563 19.592.143-1.345q.053-.184 1.018-6.18t1.183-6.878.647-2.201q.428-1.319.918-2.886t1.164-4.294q.064-.114.065-.542m-1.193 23.632q.037-.128.277-.567.239-.438.932-1.847t1.66-3.61 2.409-5.091 2.267-4.399q.826-1.511 1.052-1.919t.591-.942 1.971-3.303m-7.515 21.946.642-.384q.538-.296 2.83-2.518t3.68-4.117l2.34-3.194q.953-1.3 1.751-2.261.799-.961 1.404-1.625t1.027-1.243l.493-.676q.072-.097.38-.473.307-.375 1.039-1.217m-11.15 20.285.275-.12q.254-.15 1.482-.53 1.229-.38 2.392-1.012 1.163-.633 2.022-1.259.86-.627 1.45-1.084.591-.457.988-.809.398-.351.836-.771.437-.419.851-.823.415-.403.467-.448.051-.044.853-.943l1.109-1.24q.306-.341.513-.58t.388-.483.641-.852.929-1.168 1.42-1.845m-8.909-33.195-.027.389q-.001.145.078.434.078.289.168.588l.15.504q.06.204.161.774t.14 1.098-.04 1.503q-.08.976-.133 1.216-.054.239-.158.528t-.106.351-.411.873-.914 1.525-.936 1.338q-.433.624-1.179 1.751m4.637-5.161q.454.343 1.478 1.4 1.024 1.058 1.661 1.924.638.866.766 1.083.127.217.211.409.085.192.123.332.039.14.054.238t.407.437m22.145 6.954q-.309-.297-.742-.722t-1.115-.826-.924-.496-.756-.262-.885-.229-.448-.073-1.198.042q-.862.165-1.746.393-.884.229-1.552.384t-1.2.188q-.531.034-1.015-.051t-.586-.123q-.104-.038-.625-.337t-.992-.68-1.299-1.098l-.629-.689-.168-.222q-.339-.525-.443-.675t-.309-.408l-.612-.771"/>
        <path d="M643.789 1872.197q-.02.159-.135.816-.114.656-.205 1.503t-.147 1.608-.029 1.568.099 1.436q.07.629.18 1.082t.34.855l.188.6m-7.515-12.344-.046-.257.084-.986q-.015-.219 1.792-3.673l.374-.171.596-.233q.056-.039 1.285-.485 1.23-.445 1.344-.507.114-.061.299-.188.184-.127.315-.26.131-.134.311-.399t.436-.865.375-.957.225-1.942q.104-1.585.08-1.721t-.043-.163-.14-.237m5.065.197q.026.173.232 1.001.205.828.366 1.464.162.635.471 2.296t.395 2.534.085 1.866.02 1.935q.019.942.064 2.104t.054 1.279.013.389.222 2.114m-.163-4.237q.148-.139.429-.448.282-.308.482-.561t.457-.566.582-.684.818-.947.55-.636.309-.388q.254-.329.778-1.079t.661-.95.427-.689m-3.143-18.37.133.224q.021.145.352 4.452-.008.054-.519.547-.512.492-1.036.866-.524.375-.889.684t-.584.522l-1.137 1.11m4.436-3.309q.28.5.438.69t.615.787.645.889.983 1.614q.661 1.143.988 1.66.328.516.497.746t.451.529.541.515.62.483.765.585.826.591.609.402.439.325.997.746l1.253.987m-134.178 40.322q.386-.195.712-.38.662-.126 1.716-.347 1.054-.222 1.897-.602.844-.38 1.194-.637.351-.256.602-.533t.48-.657.337-.648q.109-.269.242-1.04.133-.772.116-1.088t-.087-.621-.128-.529-.089-.371-.169-1.023m-.136 6.421.284.244.268.199q.943.548 1.269.721t.725.372 1.075.335 1.205.175l.697-.114q.204-.054.86-.552.656-.497 1.145-1.212.488-.715.773-1.356.284-.642.467-1.302t.457-2.272.424-2.509l.361-2.17.068-.24q.104-1.065.152-2.231m-7.479-1.062q.111-.104.716-.769.211-.145.509-.396.297-.251 1.072-.777t1.283-.801q.508-.276 1.183-.55t1.265-.457 1.583-.389 1.574-.293 1.078-.15 1.524-.232q1.027-.168 1.232-.207.205-.04 1.215-.38t1.563-.59q.554-.251 1.039-.524.486-.272 1.207-.782.721-.509.881-.643.161-.135 2.365-2.222m-5.466-6.057q-.219.158-.311.204l-.398.275-.671.593q-.158.097-1.012.958-.853.862-1.477 1.67t-1.146 1.687-.668 1.192-.351.794l-.303.714q-.098.232-.407.752-.31.521-.506.81-.196.288-.894 1.505m3.216 21.914q.095-.39.217-.688l.124-.215q.586-1.287.619-1.321.032-.034.429-.637.396-.602.588-.848.193-.247.407-.32t.429-.128.405-.107q.19-.054.493-.175.302-.122.396-.162t1.64-.923q.2-.125.565-.402.365-.276.693-.552t.631-.574.616-.636.68-.769q.365-.432 1.063-1.144.277-.271.455-.449t1.055-.791l.856.418q.104.069.486.274t.702.37 1.094.515l.685.199.683.04q.57-.038 1.504-.283.935-.244 1.275-.389t.452-.182q.113-.037 1.025-.616l1.438-.912q.526-.333 1.063-.702l.142-.14m-5.302-3.97.26.233.271.189q.361.218.673.423.312.204 1.505.819 1.194.615 1.789.919t.909.417.492.227q.179.113.705.402.525.29.706.398t.478.263.562.27.945.501l.688.343.712.418"/>
        <path d="m564.14 1894.677.118.15q-.055.221-.118 1.409m-9.437-6.357q.361-.365.447-.535.086-.172.416-.641.331-.469.926-1.186.596-.718 1.198-1.345.603-.628.935-.923.332-.294.46-.395.129-.101 1.885-1.546.758-.508 1.57-.919t1.033-.501q.22-.088.507-.215.287-.126.833-.337.546-.21 1.136-.424t.936-.324q.348-.11 1.478-.413 1.13-.302 1.781-.509.65-.207 1.801-.658 1.151-.45 1.756-.722 1.179-.66 1.834-1.055.864-.663 1.613-1.34.748-.677 1.545-1.558.797-.88 1.618-1.97l1.995-2.648.924-1.135q1.164-1.23 2.206-2.144.778-.582 1.786-1.231 2.715-1.406 3.651-1.834.937-.428 1.744-.77t1.683-.771q.435-.204.748-.419.314-.215 2.658-1.795 1.692-1.441 2.272-2.008t.703-.696q.124-.129.573-.685.45-.556.781-1.064l.482-.736q.15-.229.369-.632.218-.403.287-.549.07-.146.231-.593.162-.447.283-.911.122-.463.213-1.08.092-.618.111-1.17t.002-1.034l-.024-.672q-.006-.19-.086-1.2"/>
        <path d="m566.15 1862.944.209.442.306 1.183.381 1.313q.593 1.446 1.014 2.013.42.567.616.77.195.203.385.353.191.15.616.369.425.218.885.388t1.064.342q.605.172 1.366.303.761.132 1.533.226.772.093 1.07.138t.792.219.551.198q.057.025.417.137.36.111.939.264.579.152 1.605.397l.553.114m-8.244-.795-.372.202-.858.663m2.286-11.091.28.204.279.182q.093.059.737.407.644.349.943.469t.81.235l.711.157q.2.042 1.416-.033t2.712-.529 2.032-.706q.535-.251 1.029-.491t.822-.437.911-.564.864-.584l1.458-1.122"/>
        <path d="m578.001 1857.02.552.356q.456.557.496.615.039.059.491.463.453.404.75.652t.571.404.756.365q.484.208.902.36.419.153 1.476.425m.428.267q-1.017 1.039-1.472 1.568t-1.134 1.42-1.994 2.904m3.079 22.906q.13-.091.368-.289l.609-.254q2.348-1.185 3.107-1.648.758-.462.937-.595t.82-.559.707-.463q.067-.037 1.555-1.099 1.487-1.061 2.169-1.51.682-.448 1.612-1.018.931-.571 1.309-.781t.788-.415q.409-.204 1.021-.504.613-.3 1.172-.562t1.47-.595 1.717-.523.955-.207.514 0q.363.02.647.165t.498.335q.213.19.234.197.02.01.966.956m-23.776 4.998q.313.346.47.476t1.689 1.083m2.414-11.72.417.657.375 1.232m-1.557 3.042.569-.421q.118-.064.467-.222t.992-.529q.643-.37 1.309-.815t.961-.684 1.212-.938q.509-.499 1.429-1.441l.372-.481q.044-.041.194-.446.149-.406.19-.572.04-.166.118-.779.099-1.384.199-1.96l.245-.606q.232-.364.459-.587.227-.224.424-.368.196-.145.893-.496t1.488-.609q.791-.259 1.255-.399t.675-.212.728-.275 1.46-.642 1.066-.484 1.805-1.057m.201.954-.038.213-.032.449q-.015.038.006 2.819m4.136-16.55q.452.177 1.166.644t3.634 1.704m-3.343.197q-.06.42-.135.781-.075.36-.473 2.596-.399 2.236-.886 6.091m-31.683 59.182q.181.312.431.846.25.535.443 1.016.193.48 1.016 2.463.824 1.983 1.172 2.89.347.907.459 1.234t.656 1.86 1.245 3.479q.702 1.945 1.184 3.2t.599 1.538q.116.282 1.074 2.665.957 2.383 1.199 2.926.241.544.526 1.126l1.687 3.441q1.402 2.858 1.64 3.377t.84 1.935 1.038 2.562.57 1.488.633 1.69q.5 1.348 1.069 2.895m-9.628-37.834.013.177q.086.725.863 3.902.776 3.177 1.264 4.801.487 1.624.747 2.458.26.833.481 1.463t.467 1.285l.411 1.095q.165.44.527 1.288t.534 1.26q.173.412.467 1.077t1.238 2.673 1.88 4.199 1.694 4.441q.388 1.357.601 2.186.213.83.334 1.321t.694 3.142l.028.175m-106.144-70.342.292.103q.291.245.551.478t.7.553.499.365.703.319q.645.273 1.082.387.436.113 1.115.2.678.087 1.086.071.408-.015.843-.111.435-.095 1.346-.342.91-.246 1.823-.53t1.146-.352.449-.107q.217-.04.443-.046.226-.01.702-.058.476-.052.565-.052.09.001.283-.039.193-.039 1.366-.336m-3.771 1.718q.43.018.645.304.216.285.976.752m-16.788-7.712.416-.013q.052-.026 2.535.281m-1.257-5.695q.128.227.81 1.503.681 1.276 1.095 1.918t.653.916q.24.274.285.305.045.032.559.566.574.435 1.025.677t.931.405q.482.163.716.218t.917.139q.684.083 1.13.13t1.227.149q.78.103 1.03.153l2.166.537m-9.829 8.635q.255.532.692 1.756m-6.094-20.355.028-.164q.276-.767.614-1.395.338-.627.589-.901t.511-.43q.262-.157.366-.19.105-.033.306-.032t.443.103.461.208.64.407q.422.303.644.517t.82.917q.596.701.958 1.161.361.459.656.798t.425.472.559.453q.431.319.966.625.535.307.551.327.016.019.499.223t1.095.403.694.219q.082.022 2.022.692l.728.219m-12.517-12.777q.023.396.078 1.454t.25 2.224m17.682 9.793q.852.35 1.361.483t.642.158q.133.026.413-.027.281-.052.506-.161t.515-.318q.291-.207.416-.328t.679-.83.689-.985.345-1.045l.121-.936q-.058-.654-.177-1.078t-.165-.508-.059-.276l.042.073q.15.176.448.574.299.399.433.553.135.154.506.493.372.339.77.713.398.375.722.636.324.262 1.096.742.773.48 1.041.639.269.159 2.3 1.23"/>
        <path d="m506.027 1883.967.059 1.051q.011.189.086.902t.137 1.057.188.832l.132.508q.005.019.107.185t.412.791m-22.446-24.128q.192.155.38.315.188.161.488.307.301.146 1.044.457.743.31 1.257.504t3.481.898m-.92-3.474.579 1.62q.516 1.211.689 1.575.173.365 1.125 1.85l.298.412q.424.51.611.762.187.253.33.463t.332.515.965 2.029q.48 1.126.718 1.526.238.399.643.813.226.192.48.401.253.21.433.286t.463.082q.283.01 1.253.029 1.194-.133 1.502-.162.307-.03 1.041-.091l.387-.031q.349.04.754.059.404.019.626 0 .222-.016.482-.058t.707-.161q.448-.119.887-.331t.687-.377.744-.631q.389-.456 1.203-2.013l.398-.794"/>
        <path d="M490.559 1865.661q.199-1.082.472-2.28.273-1.199.416-1.613.144-.413.284-.714.141-.3.409-.967l.325-.922q.454-.999.661-1.527t.313-.905.283-1.62l.007-.386-.255-2.237m0 4.664.118-.126q.313-.257 1.271-.944.957-.686 1.315-.894t.967-.356.817-.092.409.191.532.785q.077.594-.119 1.768-.196 1.175-.358 1.784-.161.608-.203.759t-.189.773q-.146.621-.588 2.937m1.421-3.741q.082.077.072.216.069.236.375.63.307.393 1.548 1.674m-2.359 6.98q.179 0 2.651-.064m.929.764.315.113.167.309q.079.118 1.276 1.13m-2.35-2.316.355-.534q.791-.967 1.071-1.305.281-.337 1.039-1.189l.632-.784.959-1.329q1.178-1.949 1.405-2.404t.476-1.197.406-1.464q.158-.724.192-.804.035-.08.215-2.295m.1 3.742q.317.29.683.508.366.217 1.114.521t1.04.314q.291.01 1.348-.263.425-.33 1.048-1.034.393-.562.602-1.023.208-.462.233-.505.025-.044.126-.556.101-.513.126-1.029.026-.516-.053-.841-.078-.326-.146-.594t-.112-.488-.443-1.73m.993 4.397-.061.26-.008.422q.01.515.025.746t-.043 2.628-.091 3.259-.111 2.217q-.005.027.022.77.026.742.113 1.451t.18 1.086.45 1.347.707 1.642q.35.674.759 1.4.324.431.642.761.319.329.788.755.468.427 1.003.938l.881.954q.585.751 1.377 2.033.541 1.126.592 1.211t.782 2.272m-3.307-24.561q.414.284 3.107 2.615m.528-3.143-.055.384q-.024.391-.198 2.729l.048.649.015 1.305q.042 1.426.092 2.141.049.714.149 1.294t.41 1.723q1.03 2.742 1.435 3.611l.723 1.546q.318.678.836 1.844t.644 1.501.775 1.99m3.443-10.161-.209-.665q-.29-4.333.191-7.084.482-2.75 1.048-4.74.567-1.989.829-3.137.263-1.148.143-2.764-.119-1.617-.484-1.934-.364-.317-.744-.443-.381-.126-1.056-.135-.676-.01-1.267.126-.591.135-.859.229t-.329.119q-.062.024-.52.23t-.86.422-2.265 1.386l-1.571 1.097-1.061.757-2.227 1.532m3.161-2.736q-.17-.505-.233-.618-.063-.114-.208-.328-.144-.214-.504-.699-.361-.485-.846-1.302-.484-.817-1.626-2.967-.495-1.244-.547-2.706-.051-1.462-.029-1.619.022-.156.148-.549.127-.393.222-.613.096-.221.646-1.067.039-.127 1.72-1.995m-18.775 2.844q-.096.419-.153 2.032-.056 1.614-.066 1.797-.009.184-.066.74-.057.557-.088 1.137-.031.579-.047.804-.017.225-.025.631t.038.984.107.807.168.524q.108.295.241.515.133.219.146.249t.377-.123.615-.313l.319-.203.44-.277q.372-.233.652-.403.28-.169.496-.296t.761-.413.913-.535.441-.297.281-.191.278-.308q.071-.165.197-.639.126-.473.254-1.177.127-.703.185-1.071t.204-1.205.322-1.493.462-1.4.515-1.221.414-.777q.185-.299.428-.646.243-.346.515-.742t.513-.77q.24-.374.52-.777.281-.403.547-.942t.316-.924.027-.634q-.024-.25-.152-.526-.129-.277-.865-1.251m5.302-.891q.133-.178.473-.394t.669-.448.691-.525q.362-.294.533-.452t.5-.527l.535-.598q.205-.23.423-.531.217-.301.365-.589.147-.289.18-.369t.063-.221q.029-.141.03-.493l-.001-.58q.005-.168.002-.4m.365 2.157q.217.214 1.128 2.124.301.394.468.56t.532.479q.555.445 1.233 1.037l.335.325q.375.703.487 1.069.113.365.178.928l.089.776q.024.215.054 1.177l.029.663.043 1.368q.011.33.059.768.048.437.076.979.028.541-.04 1.316l-.262.304-.139.144-.352.392q-.26.291-.464.56t-.334.447q-.13.176-.289.454t-.177.293q-.017.016-.168.389-.152.374-.348 1.094-.197.72-.453 1.71m15.24 5.733q-.011.337-.035.401t-.005 1.265.033 1.503.062.791.138 1.136.162 1.127m3.079-3.608q-.133.381-.217.456-.085.075-.202.236-.116.16-.364.469t-.831 1.176-1.085 1.717-.986 1.462q-.483.613-.653.876t-.443.764-.48 1.157-.333 1.544q.015.845.204 1.458.188.614.322 1.009.015.099.154.331t.177.324q.345.303.951.757l.239.194q.469.569.669.828.201.26 1.394 1.824m9.373-19.235q-.16.254-1.65 2.785-1.491 2.532-3.588 5.594m2.159-3.709-.088-.358-.229-1.44q-.191-1.003-.253-1.409t-.131-.831q-.069-.426-.136-1.14-.067-.715-.102-2.15l.043-.937q.082-.751.538-3.008l.258-1.274.059-.255.114-.886.017-.42q.026-.153.028-.828.003-.676-.057-1.023-.059-.347-.147-.606-.087-.259-.336-.69-.374-.37-.443-.405-.07-.035-.862-.13l-.281.049-.392.138q-.443.259-.787.506-.344.246-1.265.872-.58.436-1.422.937t-1.602.916l-.234.106q-1.861.485-4.202.94l-.872.115q-.657.05-1.283.191t-1.04.295l-.65.353-.657.457q-.055.013-1.568 1.321"/>
        <path d="m534.731 1839.675.273.284q.176.177 1.777 2.401m-7.579-6.357q.238-.01 1.849.764m14.074-3.907.032.244q-.062.335-.11.542-.049.206-.148 1.135-.1.93.062 3.042m-14.739-19.559q.069.226.231.473.163.247.431.716.269.468.667 1.036t.576.731.345.266.228.162.264.174.482.2.754.119q.474.033.854.026l.382-.01q.002.001 1.336-.31t2.063-.571q.73-.26.983-.376.252-.117.624-.246.371-.128 2.433-1.038m6.586-3.936-.135.3q-.431 1.731-.591 2.205-.161.474-.553 1.425-.391.95-.546 1.192-.155.243-.484.612t-1.281 1.144-1.375 1.042-.817.451-1.339.596q-.947.411-1.031.45t-1.086.411-1.645.584q-.644.212-1.137.35-.494.139-1.126.35t-.8.255-1.777.583m7.178-.929q-.225.382-1.03 1.922l-.23.511q-.068.078-.604 1.461-.535 1.384-.749 2.051t-.279.914q-.066.246-.514 1.616m4.272-8.94q.103.074.378.229t.545.267q.271.112 1.038.398.767.285 1.015.365.247.079.73.278l1.278.524q.795.327 1.714.774.09.041.383.268.292.227.611.582.104.07.55.788.445.719.692 1.262.247.544.43 1.023m-.92-2.584q.715.162 1.062.197.346.034 1.216.134m-3.471-2.087.212-.313.304-.166.312-.207q.855-.862 1.088-1.104t.323-.35.564-.742q.475-.633 1.296-1.979m22.813-12.094-.051.086-.279.503q-.068.095-.362.845-.295.75-.422 1.078t-.316.747-.434.83q-.247.411-.549.807-.302.395-.393.518t-.986.895-1.825 1.413-1.705 1.076-1.17.613q-.394.18-.444.196-.051.017-.967.445l-1.22.638m4.199-.465q-.253 1.071-.468 1.831l-.468 1.648q-.586 1.718-1.1 3.023-.513 1.304-.766 1.996-.253.691-.477 1.415t-.398 1.396q-.173.671-.447 1.56-.275.888-.558 2.19l-.182.632m-2.05 1.158q.237-.09.351-.061.114.03.264.052t.26.028q.11.01.301-.02.19-.026.351-.066.161-.039 1.253-.663.069-.036.561-.092.491-.056.862-.19t.671-.289.534-.302.404-.292.711-.586m-1.093-7.611q.419-.212.823-.357t1.3-.524q.896-.38 1.321-.58t1.429-.625l.599-.354.449-.213m5.502-3.767.368.099 1.354.408q.804.316 1.996 1.505 1.191 1.19.393 2.918-.797 1.727-1.068 2.055t-.749.811q-.477.483-1.079 1.008-.601.524-1.394 1.195t-1.107.932q-.315.261-1.988 1.883l-1.024 1.269-1.289 2.001-.277.461-.443.631q-1.108 1.528-1.276 1.791t-.746 1.189-.941 1.68q-.362.752-.592 1.457-.169 1.078-.171 1.313-.002.236.031.452t.128.459.202.421.572.655.606.614q.142.137.324.258t.829.436 1.474.726"/>
        <path d="M562.9 1845.327q-.008.305 1.159 3.987.273-.143.459-.252t.516-.33.528-.377 3.724-2.265m6.859-9.996q.378.327.42.428.043.102.448.641.404.54 1.045 1.311m7.524-3.773q-.479.126-.668.195t-.693.323q-.502.254-1.21.662t-1.919 1.377q-1.21.97-1.62 1.4-.411.431-.721.793-.31.361-.648.849t-.525.806q-.188.318-.594.949-.405.632-.455.723t-.332.513-.536.762-.712.917l-.271.396-.783 1.151m9.693-2.049q.229-.224 1.643-1.066.43-.26 1.327-.86.897-.601 1.824-1.326 1.587-1.413 1.954-1.83.366-.417.642-.854.023-.133.19-.731l.275-1.215q.256-1.964.327-2.383.07-.418.485-1.977.153-.443 1.002-1.613.606-.393.901-.513.376-.08.576-.082.199 0 .509.038.31.04.475.104.164.065.354.246.19.18.249.264t.2.431q.141.346.186.797t.034.702-.066.959q-.049.111-.106.614m-5.922-10.359q.056.062.381.455t.518.62q.193.228.306.351.113.124.413.348.299.223.682.536.382.313.968.825.119.525.162.907.043.381.064.619t.141 1.326m-12.544-12.904q.213 0 3.608-.165m1.093.261q-.235.199-2.123 2.189m14.339-8.177.282.274q.183.37.968 1.54t1.063 1.497q.28.327.655.631.374.303.807.55.432.247.718.331.285.084.588.108t.803.04 1.613-.052 2.521-.245l.813-.207m-6.723 1.954-.331.029q-.192.07-.692.286-.501.217-.984.377-.484.161-1.562.498l-.466.058-.576-.033q-.415-.296-.47-.35-.055-.055-.319-.272-.263-.217-.459-.399-.197-.182-.311-.28-.115-.097-.954-.907m2.587 3.34q-.081.119-.064.1l-.15.068q-.147.098-.979.825m-2.778.102.201.082q.163.142.56.392t.698.473.999.814q1.89 2.217 2.401 2.952t.818 1.219.489.829q.18.345.413.83t.508 1.011m.034 10.855.257-.251.548-.837q.477-.519.734-.764.258-.245.515-.378.258-.134.499-.204.242-.07.453-.082t.307-.011.276.021.711.024m-1.394-2.882q.486.461.628.682t.435.724q.294.503.768 1.552t.523 1.163.7 1.201q.058.117.327.581t.586 1.096q.317.634.54 1.222l.487 1.282q.265.693.357.915l.114.276q.022.055.265.854m.337.465q1.834-.934 2.542-1.34.709-.405 1.134-.651.425-.245.85-.493t1.594-1.077 1.72-1.328q.55-.498 1.748-1.737l.388-.463q1.089-1.614 1.416-2.297.327-.682.547-1.22t.788-2.113l.318-1.051"/>
        <path d="m619.878 1837.277.084-.044.114.094h-.069l.04-.063.432.214m-7.051-4.833.201.462.137.56q.095.144.655 4.469"/>
        <path d="M613.228 1833.109q.294-.119.488-.215t.303-.144q.11-.048.888-.304.779-.257 1.317-.465.539-.208.868-.326t.753-.295 1.311-.665 2.343-1.359m-12.052-.63q-.311-1.825-.506-2.703-.196-.879-.351-1.427-.155-.549-.443-1.55t-.48-1.638l-.169-.528m1.357 2.781.294-.053.411.05 1.924.096 2.378.01q3.445-.087 4.417-.142.971-.055 2.085-.096l2.464-.091q1.295-.016 2.151.029"/>
        <path d="m618.485 1817.041.17-.01q.18.065 1.05.184t1.623.357 1.33.564q.575.324.958.626.382.302 1.201 1.182.662 1.057.704 1.153t.298.635q.255.539.532 1.136t.562 1.202.503 1.074.619 1.214q.4.743.77 1.32.371.576.72 1.005t.563.644.456.429q.241.215.379.316l.843.634"/>
        <path d="M624.215 1820.05q.472-.073.597-.038.126.035.563.096.437.06.542.078.105.017.636.01.53-.013.837-.087t.667-.239.688-.468q.328-.301.483-.523.156-.222.201-.301t.175-.769q.13-.692-.225-2.318l-.2-.596m6.659 5.289q.088.21.214.748.125.538.248 1.13.124.592.302 1.743l.181 1.843q.117 2.349.152 3.633.034 1.286.062 2.008.028.721.041 1.193l.018.73q.006.258.001.624-.004.366.046 1.42l.165 1.378q.184.892.263 1.181t.32.913.565 1.677m-.564-7.215.261-.094 1.497.393m-12.016 9.201.157-.247q.107-.112.391-.309.284-.196.31-.219l.596-.526q.57-.504 1.382-1.471t1.099-1.429.475-.944l.227-.512m-1.722 4.168.193.086q.1.041.703.454.602.413 1.192.85.591.438.894.683t.905.692 2.267 1.441l.222.211q1.176.95 1.541 1.274t.883.831m-14.165.859q.158.11.429.328.272.218.831.611t1.085.749.826.524q.298.168 1.017.529.718.362 1.441.787 1.18.866 1.457 1.095t.431.379q.154.151.477.503t1.27 1.577m-14.73 1.425.17-.141q.257-.29.701-.686t.821-.679q.377-.282.791-.553.414-.27 1.177-.644.762-.374 1.485-.574t1.208-.296q.486-.096 1.855-.398m-12.608-.432 1.95-.662m.164-1.521.079.342q.548 1.478.95 2.604m2.815-4.371q.282-.69.457-1.283.175-.592.353-1.115.177-.523.404-1.05.226-.527.622-1.312.396-.786.743-1.422.348-.637.673-1.246t.52-.991.322-.67.47-1.073"/>
        <path stroke-width="5" d="m922.19 1756.927-.847-.159q-.364-.049-1.556-.097-1.192-.049-4.73.01-3.537.058-5.482.232t-4.744.393-4.776.378q-1.975.16-3.022.265t-2.529.22-5.87.344-8.195.308-7.844.081q-4.037 0-6.629-.015-2.593-.017-6.85-.166t-11.591-.441-13.47-.482q-6.136-.188-9.509-.184-3.373 0-7.609.397-4.235.394-8.544.78-4.308.385-8.392 1.329t-6.991 2.153-4.431 2.245-2.864 2.414q-1.339 1.38-2.178 2.643t-1.543 2.826-1.091 2.769-.939 3.819-.714 5.647q-.161 3.036-.071 4.397t.815 5.263 1.108 5.776.587 2.958.821 5.25.781 6.304.325 6.92.198 6.783.074 5.448.08 5.843.096 8.157q.052 5.759.081 8.606.028 2.847.123 6.191.096 3.344.192 6.233.096 2.89.16 6.548.065 3.657.158 7.448t.12 6.539.1 6.495.176 7.087.426 8.33.682 9.668q.36 4.679.57 10.119t.343 10.385.457 12.582.438 11.739q.113 4.104.276 8.797t.536 9.666q.372 4.974.638 7.448t1.107 6.709 1.804 6.948 1.87 4.347q.907 1.635 1.725 2.615t1.303 1.437.894.84 1.684 1.203 2.734 1.342 1.537.539 2.177.385q2.101.369 3.892.427t3.475-.181 3.508-.425q1.823-.185 4.347-.346l4.985-.319q2.461-.157 3.052-.178t3.461-.224 6.911-.341 6.579-.21q2.538-.073 4.829-.13 2.292-.056 6.054-.339 3.763-.282 6.538-.468t4.225-.219 3.885-.099 2.487-.074q.054-.01 2.048-.042 1.995-.033 5.078-.072t7.154-.223 7.464-.204q3.392-.018 5.84-.045t5.982-.042 4.837 0q1.302.013 4.065-.017 2.764-.031 4.31-.061 1.547-.03 4.05-.022 2.503.01 4.277.087 1.774.079 2.122.131t1.67.193 2.406.243 3.647.66"/>
        <path stroke-width="5" d="m814.534 1778.637-.625-.088q-3.159.265-4.334.455t-2.338.504q-1.165.315-2.463.777t-2.289 1.101-1.973 1.941q-.983 1.3-1.425 2.393-.441 1.092-.762 2.649t-.421 2.723.026 4.135q.128 2.968.273 4.31t.822 4.788 1.148 4.997 1.008 3.042 1.508 3.705 1.294 2.703q.322.491 1.019 1.234.697.744 1.171 1.111.474.368.99.756.515.388 1.023.625.507.238 2.064.552 1.558.313 2.355.347.797.035 2.596.049t2.68 0q.882-.016 3.077-.113 2.195-.098 3.415-.214 1.219-.116 2.129-.237t2.581-.327 2.75-.389 2.695-.64 4.471-1.879 3.633-2.043q.779-.62 1.021-.843t.628-.761q.385-.537.898-1.636.512-1.098 1.075-4.619t.533-5.492-.217-3.596q-.188-1.625-.408-3.113-.22-1.489-.755-3.802-.534-2.312-.876-3.457-.343-1.145-.81-2.263-.466-1.118-.608-1.432-.142-.315-.337-.805t-.572-1.138-.924-1.262-.64-.737-.575-.605-1.68-1.161-1.58-.811-1.978-.437-3.402-.385q-1.807-.078-2.292-.075-.485 0-1.849-.025-1.365-.028-2.706-.036-1.341-.01-2.188-.028-.847-.021-1.795-.064t-1.787-.09-3.746.115m-8.089 65.6.771-.215 1.711-.06q.399.06 4.963 0 4.564-.063 7.344.052 2.779.115 3.678.202t2.237.425 1.697.432 1.364.303q1.003.208 1.483.358t1.527.451q1.046.301 2.36.753t1.939.777 1.101.641 1.435 1.189q.96.874 1.833 2.021.873 1.148 1.165 1.591.291.443.848 1.58.558 1.136 1.04 2.57t.759 2.579.491 2.364q.214 1.217.361 2.537.147 1.321.283 3.112t.16 3.519q.024 1.726.006 2.246t-.265 2.241-.618 2.763q-.37 1.041-.615 1.477t-.654.926-.467.542-1.159.698-2.144 1.026q-1.041.38-3.116.655t-4.921.353q-2.845.078-4.494.056t-1.983-.069q-.336-.046-1.854-.137t-5.158-.421q-3.641-.329-5.824-.781-2.184-.452-3.853-1.134t-2.547-1.245q-.877-.563-1.341-.959t-.763-.722-.623-.803q-.322-.478-.552-.915t-.746-1.903q-.516-1.465-.697-2.276t-.366-3.031q-.186-2.221-.24-3.585-.054-1.365-.032-4.542.023-3.177.182-5.121t.24-3.029q.08-1.083.283-2.104.202-1.02.337-1.596t.363-1.152.53-1.067.762-1.035q.46-.543.795-.803.334-.26.916-.585t2.327-1.415m-1.057 76.391q-.143.619-.203 1.133-.059.515-.039 2.026.021 1.511.165 2.995t.559 3.186q.416 1.702.952 2.681.537.979 1.096 1.525.558.545.769.694t.637.355q.427.206.496.268.068.063 1.908.378 1.84.316 3.507.428t3.723.169 3.33.064l2.03.017q.756.01 2.956-.143 2.2-.151 3.231-.299t2.557-.547 2.979-.882 2.755-1.08 2.204-1.185q.903-.588 1.375-.999t.862-.902.843-1.282.801-1.656.71-2.516.509-3.003.132-3.309-.246-3.96q-.231-2.001-.591-4.249-.359-2.248-.526-3.01-.167-.763-.465-1.722t-.445-1.288q-.146-.328-2.332-3.969l-.444-.271q-1.613-.727-3.601-1.258t-4.334-.744-3.936-.2-2.983.135l-2.779.242q-1.385.121-2.013.154-.628.032-3.061.429-2.432.396-3.798.753-1.365.356-2.871.801-1.505.446-2.029.662-.525.216-3.081 1.801l-.785.82q-.439.631-.789 1.492t-.581 1.983-.291 2.331q-.06 1.211-.006 2.059t.239 2.417.586 3.385 1.302 4.873m17.345 76.062q.566-.188.717-.264.152-.075 2.585-.406 2.433-.332 4.27-.742t2.967-.793 1.886-.696.905-.396 1.171-.597q1.02-.514 1.727-.855.707-.342 1.465-.726.757-.385 1.368-.768t1.042-.735 1.155-1.147 1.69-2.536q.966-1.739 1.367-2.897.402-1.157.561-1.909t.225-1.247.118-.808q.053-.312.059-3.34t-.506-6.04q-.512-3.014-1.178-5.005t-1.433-3.372q-.769-1.381-1.284-2.107-.516-.727-1.401-1.584t-5.495-1.636-6.199-.691-2.375.214q-.785.128-2.665.61t-3.441.852q-1.563.369-2.709.556-1.147.186-1.728.322-.58.135-1.027.27-.446.134-.578.198-.132.065-1.226.365-1.094.301-2.22.626t-1.838.629q-.711.305-.923.436-.211.13-1.254.652t-1.696.937-.895.617-.655.735-1.203 2.462-1.094 4.157q-.304 2.229-.338 3.471-.034 1.243.13 2.903t.344 3.072q.179 1.411.352 2.284.172.873.874 3.693t1.068 3.818 1.124 2.252q.757 1.254 1.627 2.433l1.661.964q1.311.719 2.493 1.068t3.433.671 3.366.25 5.214-.22m55.047-182.462-.253-.121q-.94-.131-1.5-.188-.561-.058-2.919-.632-2.359-.575-4.026-1.329-1.667-.753-2.307-1.276t-1.068-1.137q-.427-.615-.969-1.742-.543-1.128-1.152-3.831t-.704-3.807-.167-3.932q-.071-2.829.067-6.079.139-3.251.636-5.945t.994-4.059.853-1.953q.357-.59.977-1.319.62-.728 2.869-1.839t2.444-1.176q.197-.064 1.935-.36t3.219-.197 2.547.159 2.188.11 3.446.171 3.51.179 2.833.042 5.322-.238 4.67-.112 1.369.208q.376.097 1.938.908 1.562.812 1.643.856t.652.723q.571.68.761 1.012t.352.601q.16.269.966 3.643t.92 5.482.088 5.706-.248 6.367-.684 5.209-1.195 4.244-1.021 2.303q-.287.501-.53.814t-.352.48q-.108.169-1.623 1.062-1.515.894-2.492 1.188t-2.396.346q-1.42.053-3.572-.017t-3.042-.187-2-.29q-1.112-.172-2.587-.335t-2.025-.199q-.551-.036-1.083-.057-.532-.02-1.596.021-1.063.041-2.76.202-1.697.16-3.274.258m92.243-18.542q.07-.574-.188-4.62-.257-4.046-.702-6.126t-1.15-3.637-1.303-2.333q-.597-.776-1.059-1.135t-1.089-.701-1.572-.772-1.955-.659-1.566-.291-2.952-.031-4.713.35q-2.318.321-3.459.59-1.141.27-2.17.433-1.03.163-2.324.35-1.295.187-2.5.407-1.204.22-1.59.32t-1.32.321-1.126.261-1.355.398q-1.161.359-1.905.707-.744.347-1.203.593t-.9.712-.54.52-1.38 3.55q-1.282 3.497-1.52 7.155-.238 3.657-.199 4.814.039 1.156.423 5.449.383 4.293.799 6.444.415 2.152.985 3.627.569 1.475 1.086 2.34t.615.986 2.338 2.403q.966.44 3.329.702t3.99.19q1.626-.072 3.809-.3t4.709-.664 4.37-.803 3.859-.813 4.006-.952q1.993-.507 3.678-1.223 1.686-.717 2.611-1.488.924-.77 1.139-1.1t.559-1.278q.344-.947.473-1.694.13-.747.178-1.811.049-1.064-.041-2.112-.089-1.048-.219-1.921-.13-.874-.883-8.023m-106.818 121.15-.057-.264q-.039-.415.099-4.801.137-4.387.705-6.545.569-2.158.983-3.007.414-.848 1.127-1.619.714-.77 1.305-1.096.591-.325 2.54-1.134t2.881-.97q.93-.162 1.715-.233t3.225-.152q2.439-.08 4.677.105 2.239.185 3.166.295t1.487.111 1.063.031 1.368 0q.865-.033 2.68.022 1.815.054 2.698.13.882.077 2.543.35t4.213 1.455q.218.263 1.236 2.717t1.353 6.239.179 7.123q-.157 3.338-.669 6.028t-.991 3.916-.507 1.328-.751 1.075q-.722.972-1.163 1.402-.44.429-1.733 1.314-1.292.884-2.915 1.478t-2.608.82q-.985.227-1.557.313-.571.087-1.566.12-.994.033-2.018-.068t-2.756-.206-3.61-.322q-1.877-.216-2.799-.228-.922-.011-1.895-.082-.974-.07-1.981-.184t-2.402-.309-3.359-.672q-1.965-.479-2.52-.693-.556-.215-1.329-.635t-1.57-1.25l-1.117-2.257-.139-.489q-.31-.617-.363-6.402.088-.334 1.004-5.462m80.455-15.427q.272-.077 1.072-.386.46.108.571.126t.956.062q.845.042 4.005.123t5.15.512q1.989.432 2.881.804t1.738.714q2.88 4.508 3.569 8.777t.644 6.928q-.046 2.659-.208 4.106-.161 1.446-1.196 4.457t-1.302 3.34q-.267.33-.89.765-.622.435-1.336.865-.713.43-1.772.859-1.058.429-2.994.831t-4.649.668-3.376.281q-.664.016-1.698-.012-1.033-.029-2.067-.159-1.034-.129-1.098-.143t-1.544-.192q-1.479-.179-3.17-.524-1.692-.346-2.743-.678t-1.718-.572-.807-.278q-.141-.037-1.301-.705t-1.66-1.054-1.118-1.11-1.3-2.395-.896-3.154-.287-2.594-.089-2.075q-.015-.962-.036-1.159t.567-4.612 1.324-6.432 1.321-2.933.843-1.188.642-.543.475-.379q.09-.107 1.252-.567t2.259-.644 2.166-.188q1.068-.01 2.525.12 1.456.125 1.67.142t1.196.156 1.657.271q.673.132 1.108.155.434.023 1.778.01m-43.234 78.708-.266-.606q-.082-.17-.509-2.472-.428-2.303-.758-3.732-.331-1.428-.496-2.049-.164-.62-.774-2.066-.611-1.446-1.248-2.485t-1.037-1.493q-.401-.456-.967-1.066-.567-.609-.988-.903t-.814-.487-2.544-.779q-2.15-.584-3.433-.749t-1.845-.162q-.562 0-1.688.134-1.125.131-1.315.173-.191.043-1.654.235-1.464.191-2.658.263-1.193.071-1.887.145-.694.073-1.187.21t-.867.217q-.374.079-.822.142t-.683.081q-.237.019-1.062.174t-1.121.248-1.195.327q-.901.234-1.319.377-.417.144-.928.423-.51.278-.785.458-.275.179-1.378 4.918t-.703 9.613q.399 4.873.697 6.742.299 1.868.722 3.829t.936 3.754q.513 1.794 1.366 3.628t1.697 2.917q.843 1.083 1.019 1.267.177.184.873.606.696.421 2.393.826 1.698.405 3.448.444t4.354-.397 3.015-.58q.412-.143 2.233-.538t2.945-.637 2.879-.746q1.756-.504 2.651-.924t1.783-.877q.887-.457 1.609-.915.721-.457 1.024-.707t.838-.944 1.014-1.793q.478-1.098.78-2.476t.363-3.069-.05-2.946-.105-1.333-1.28-8.458"/>
        <circle cx="872.343" cy="1872.306" r="2.5" fill="#fff" stroke-width=".1"/>
        <circle cx="886.718" cy="1873.032" r="2.5" fill="#fff" stroke-width=".1"/>
        <path stroke-width="5" d="m898.761 1872.23-.984.204m-48.936-74.866q1.503-.498 13.363-2.246.164-.08 1.394-.338m53.582 2.176q.623.099 14.63 1.4m-81.257 117.167.289-.09q.503-.031 12.956-.903m46.55.471q1.801-.227 6.95-.229 5.15 0 13.656.089m-75.755 62.229 1.873.15q1.036.316 12.356.97m-77.267 3.118q.542 0 4.612.161 4.07.162 9.945-.161m-17.672-60.702.856-.205 1.5.012q.389.096 13.804.384m-17.946-58.45q1.35.078 4.329.082 2.979 0 8.388-.476m-13.646-59.977.692.15q.885.181 11.879-2.136m177.599-3.575q2.046-.408 9.201-1.057m-14.156 120.539q1.22.139 3.732.154t5.195-.077m-71.109 61.096.917-.043.62-.02q.411.06 6.935-.407m-68.267-112.268q.825-.06 5.758-.203m139.065 69.775q.293-.067.876-.315l-.166.052q.005.045 1.476-.526"/>
        <circle cx="1009.478" cy="1933.938" r="2.5" fill="#fff" stroke-width=".1"/>
        <circle cx="1022.723" cy="1935.388" r="2.5" fill="#fff" stroke-width=".1"/>
        <circle cx="999.093" cy="1811.337" r="2.5" fill="#fff" stroke-width=".1"/>
        <circle cx="1011.664" cy="1812.189" r="2.5" fill="#fff" stroke-width=".1"/>
        <circle cx="1025.966" cy="1812.597" r="2.5" fill="#fff" stroke-width=".1"/>
        <path stroke-width="5" d="m930.079 1994.436 1.658 1.196"/>
        <circle cx="944.126" cy="1995.492" r="2.5" fill="#fff" stroke-width=".1"/>
        <path stroke-width="5" d="m958.173 1996.294-.297.828.151.101m276.79-218.335q-.291-.157-1.62-.633-1.329-.477-3.703-1.026-2.375-.549-5.518-.633t-4.836.18-2.51.528q-.817.265-2.098.888t-2.46 1.427-1.874 1.427-1.12 1.018q-.425.394-2.097 3.415t-2.09 4.398-.518 3.667q-.102 2.291.283 3.885t1.375 3.272 3.386 3.221q2.395 1.542 3.985 2.099t2.41.806q.819.249 1.953.574 1.133.326 2.077.489.945.164 2.542.219t2.494 0q.898-.059 1.205-.077t1.609-.34 3.273-1.303q1.972-.983 3.317-2.039 1.347-1.057 2.033-1.844.687-.787.922-1.107.235-.321 1.016-1.752.78-1.432.997-1.995t.508-1.796.386-2.363.053-1.996q-.042-.865-.042-.964t-.191-1.267-.419-1.898-.591-1.446q-.365-.716-.843-1.439t-.948-1.414-3.002-3.643m-46.75 92.933q-.065-.542-.164-1.098-.099-.557-.516-1.633t-1.784-2.616-2.951-2.41-3.004-1.184-5.549.769-5.914 2.355q-1.785 1.274-3.192 3.765t-1.765 5.017q-.358 2.527-.2 3.735t1.151 3.39q.995 2.183 2.051 3.344t2.08 1.902 3.739 1.37q2.717.63 4.076.586 1.359-.043 2.043-.199.685-.155 1.523-.498t1.751-.816 2.198-1.658 1.753-1.809.799-1.183.428-.817.493-1.432q.394-1.176.737-2.769t.217-4.914m78.651 3.372-.915-1.387q-1.226-1.574-2.795-3.151t-3.118-2.607-2.024-1.271-2.319-.692-4.458.267-3.958 1.496-2.431 1.59-2.069 2.042-1.715 2.831q-.732 1.599-1.075 3.319t-.267 3.007.414 2.235 1.026 2.085q.69 1.136 2.075 2.586t3.278 2.379 3.202 1.211 1.938.293q.628.012.742.035t1.483-.191q1.37-.213 4.163-1.446t3.311-1.605.895-.706q.376-.334.888-.881t2.732-3.678q1.485-3.858 2.127-7.621m64.896-38.928q-.476-.289-.837-.825-.36-.535-.97-1.287t-1.536-1.5-2.071-1.291-2.962-.743-5.123 1.064-4.77 2.285-2.871 2.906q-1.409 1.885-1.857 3.08-.448 1.194-.631 2.141t-.207 1.663q-.024.717.157 1.918.18 1.201 1.161 2.911.98 1.709 1.915 2.645t2.232 1.656 2.216 1.015 3.646.482 3.865.017q1.14-.169 2.545-.64 1.404-.47 2.067-.825t1.644-1.116 1.908-1.899 1.153-1.524.747-1.554q.519-1.167.779-2.186.261-1.019.356-1.511.095-.493.045-1.53-.049-1.037-.09-1.973-.04-.935-.598-4.436m-116 129.015-.226-.96q-.309-.765-.911-1.74t-2.559-2.59-4.382-2.066q-2.427-.451-3.719-.285-1.292.165-2.227.495t-1.568.697-1.129.791q-.495.425-1.051 1.11-.556.686-1.04 1.577-.484.892-.885 2.445-.4 1.552-.395 3.095 0 1.543.457 2.973.452 1.43.709 1.914t1.224 1.771 2.372 2.082 2.382 1.01 1.363.267q.385.052 2.084-.062 1.698-.115 2.861-.532l1.448-.519q.285-.101 1.26-.776.976-.674 1.711-1.479t1.128-1.444q.393-.64.745-1.611.351-.97.58-1.871.228-.9.367-2.038t.129-4.036m-88.671-.865-1.602-2.517q-.411-.539-2.042-2.102-1.632-1.564-3.332-2.295t-3.296-.85-3.385.651-3.028 1.997q-1.237 1.226-2.037 2.667-.8 1.442-1.125 3.052t-.224 3.595q.101 1.984.876 3.855t2.061 3.432 2.472 2.353q1.187.791 3.094 1.366t2.6.634 1.19.032.791-.034q.295-.01 1.061-.207.766-.2 1.921-.843 1.156-.644 1.569-1.01t.724-.73.798-1.175.914-2.354q.429-1.544.463-2.745t-.041-2.385q-.075-1.183-.145-1.517l-.551-2.666m166.413-7.089q-.116-.142-.23-.732-.483-1.21-.857-1.726-.375-.517-1.101-1.176-.726-.66-1.427-1.047t-1.443-.586q-.741-.2-1.292-.264-.551-.065-1.559.011-1.008.075-1.66.259-.652.185-2.99 1.621t-3.65 3.032q-1.311 1.595-1.982 3.19-.67 1.595-.857 3.757t.148 3.444 1.585 2.932q1.252 1.65 3.645 2.474 2.393.823 2.974.865.582.041 2.907-.422t3.252-.909 1.497-.865 1.232-1.132 1.345-1.848 1.037-2.56.353-3.1-.081-2.212-.497-1.98q-.417-1.444-.703-2.114-.287-.671-1.231-2.819m82.969-30.376q-.916 0-1.191-.224-.275-.226-1.038-.61-.762-.384-1.409-.58-.646-.195-.666-.21-.019-.015-1.037-.14-1.017-.125-1.896-.113-.878.013-2.416.463-1.538.449-3.282 1.664t-2.83 2.675-1.424 2.234-.595 2.369.103 3.668q.359 2.074.937 3.225.578 1.15 1.213 1.925.634.775 1.501 1.329.866.555 4.221.793 3.355.239 3.523.236.168 0 2.175-1.185 2.006-1.183 2.663-1.789.657-.607 1.818-2.138t1.433-2.055.453-1.002.379-1.222.307-2.405 0-2.133l-.224-.993q-.117-.523-.33-1.103-.213-.579-1.133-2.946m58.868-41.118-.49-.338q-.828-.723-3.537-2.196-2.71-1.472-5.028-1.939t-3.888-.358-3.086.689-3.858 2.827q-2.343 2.248-3.238 4.37t-1.061 3.67q-.166 1.547.092 3.32.257 1.773 1.171 3.605.913 1.831 1.752 2.816.84.985 1.99 1.754t1.827 1.051q.678.282 2.432.602 1.754.319 4.484-.211 2.729-.529 4.161-1.42t2.35-1.796 1.562-1.978 1.201-2.543.846-3.19.346-2.612.048-1.378-.332-3.485m-262.353 90.634-1.321-1.921q-.512-.64-1.501-1.621-.99-.982-2.22-1.808t-2.95-1.194-2.827-.253-2.071.432q-.962.317-1.692.92-.729.604-1.89 2.349t-1.577 3.356q-.416 1.609-.409 2.628.01 1.018.215 2.019.208 1.001.257 1.208.048.207.619 1.124.571.916 1.981 1.93t3.743 1.386q2.334.373 3.012.249.678-.123 1.286-.381.607-.258 1.594-.777t1.217-.649.607-.452q.379-.322.708-.748.329-.425.4-.472t.689-1.37q.618-1.324.6-5.103m84.099-8.666-.086-.758-.122-.682q-.666-1.773-2.216-3.617-1.549-1.844-3.217-2.739-1.668-.896-2.805-1.022-1.138-.127-1.825-.07-.687.058-1.887.563t-2.631 1.708-2.168 2.18-1.532 3.029q-.796 2.053-1.016 3.796-.221 1.744-.065 3.197.155 1.454.332 2.085.177.632.425 1.061t1.143 1.426 1.659 1.534 1.889 1.015 2.23.604 2.075.045 2.305-.658q1.335-.579 2.383-1.368t1.742-1.655 1.117-1.611 1.208-2.35q.586-1.9.934-5.051m82.295-20.794-.116-.385-.095-.462-.741-1.565q-.689-1.453-1.762-2.528-1.074-1.075-2.214-1.604-1.141-.53-2.514-.569t-2.382.276-3.106 1.545-3.051 2.171-1.44 1.761-.777 1.67-.425 1.805-.047 1.653.49 1.638.762 1.566.637 1.043q.28.415 1.374 1.56 1.095 1.144 1.833 1.593.739.448 1.726.804t2.698.512 2.778.032 1.964-.498 1.335-.675q.438-.299 1.107-.855.67-.555 1.356-1.908t.86-2.135q.174-.781.225-1.143.051-.363.023-.711-.029-.349-.107-.604-.077-.254-.263-1.242-.186-.987-.984-3.992m71.309-32.706q-.337-.257-1.117-1.536-.78-1.28-1.465-2.027t-1.786-1.621-2.819-1.493q-1.718-.617-4.153-.421-2.436.196-4.644 1.48-2.208 1.283-2.982 2.783-.775 1.5-.878 6.007-.104 4.508.767 5.873.87 1.366 1.917 2.226t2.19 1.396q1.143.538 1.75.667.607.128 1.455.178t1.953-.143q1.104-.192 2.185-.789 1.082-.597 1.806-1.252.724-.656 1.03-.968.306-.313.858-1.175.553-.862.907-1.512t.565-1.262.354-1.164q.144-.552.175-.935.031-.382.347-2.594m-203.543-97.709-.304.529q-.105.494-2.656 6.032t-4.099 9.079-3.172 7.449-2.891 6.708-1.865 4.139-3.225 6.681l-.535.959m48.207-39.463.03.199q.116.361 1.8 4.732t3.689 10.335 2.932 8.552q.926 2.589 1.866 5.4t1.348 4.27q.407 1.457 1.672 5.123l.164 1.042m.929-59.302.969.892q.489.317 4.024 2.576t7.515 4.283q3.979 2.024 6.597 3.171t4.033 1.821 3.33 1.804q1.917 1.13 3.06 1.784t1.84 1.031q.695.378.885.474.189.096 1.368.791 1.178.695 2.445 1.498 1.266.802 4.407 2.598t4.611 2.596 2.538 1.397 1.2.645 1.263.652 1.962 1.074 1.223.675q.393.205.876.424.484.22 2.005.585m-144.75 70.908q-.359.381-.669.828t-.458.6-2.764 4.512-4.444 7.584q-1.826 3.227-2.852 4.849t-3.876 6.384l-4.675 7.817q-1.826 3.055-2.628 4.301t-1.63 2.579-2.115 3.338q-1.288 2.005-3.349 5.465m41.047-46.475.087.405q.063.436-.48 11.099t-1.14 17.542-.964 10.165-.532 4.96-.26 2.677-.19 1.819q-.095.814-.498 4.839-.043.144-.523 2.17m73.168-57.063q-.142.181-1.184.922-4.549 6.179-9.436 14.789-4.887 8.611-7.389 13.226-2.501 4.614-3.77 6.724t-2.15 3.57-1.716 2.835q-.835 1.377-1.351 2.139-.515.762-1.006 1.407t-1.258 1.588m39.59-40.977.251.713q.12.588.273 6.372.152 5.783.185 10.818.034 5.035.074 7.014t-.468 9.516l-.57 2.103m12.243-38.521q.285.463 1.808 4.298t2.573 6.332 2.005 4.581 2.682 5.767 2.849 6.779 1.529 5.279m-3.171-42.632.721.313q.595.202 5.037 3.421t7.663 6.158l5.407 4.933q2.186 1.994 3.257 3.061 1.071 1.068 1.593 1.564t.739.698.98.894 1.188 1.006 1.671 1.271 1.741 1.377.56.454 1.5 1.331q1.435 1.299 2.45 2.21 1.014.911 1.937 1.63.923.72 2.025 1.501l1.322.807m22.719-60.829.001.324q.069.471 1.009 3.772.941 3.302 2.385 7.804 1.445 4.502 2.745 7.777t2.196 5.128 2.602 5.099 3.016 6.477 1.875 5.002 1.388 3.389l.255 1.168m-5.029-50.839.255.305q.518.598.783.842t1.374 1.338 3.911 3.499 6.068 5.276 5.142 4.68 2.081 2.02 1.78 1.798 2.31 2.341q.735.752 2.558 2.746 1.824 1.994 1.958 2.161t.66.673q.526.507 3.539 4.236l1.487 2.037m-30.262-47.989.79.026q.924.329 1.108.409t4.985 2.042 5.593 2.332q.791.371 2.463 1.21 1.671.838 4.537 2.202t5.278 2.374 3.969 1.754 2.245 1.012q.688.266 1.378.555t2.242 1.008l2.086.966q.533.246 1.491.616t2.028.799 2.737 1.182q1.666.752 2.954 1.428t2.546 1.32q1.256.644 1.505.743t1.638.796 2.834 1.533 3.202 1.705"/>
        <path stroke="#999" d="M1177.391 1958.752q.023-.848 1.13-4.737t2.351-7.719q1.244-3.828 2.004-6.257.759-2.428 1.395-4.697t2.432-6.868 3.192-7.935q1.394-3.336 2-4.836.605-1.5 2.044-4.215t2.953-5.446 2.44-4.44q.926-1.707 1.699-3.037.774-1.329 2.552-4.226t2.931-4.753 1.895-3.043 1.518-2.349.936-1.412q.158-.25 2.44-3.434t4.51-5.792q2.229-2.608 3.605-4.088t3.557-3.864 4.671-4.654 4.152-3.593 2.859-2.203q1.195-.879 2.053-1.452.858-.574 3.034-1.907 2.176-1.332 5.322-2.683t5.053-1.993 3.731-1.026q1.825-.383 4.457-.793 2.633-.41 3.764-.502 1.132-.093 2.463-.179t2.814-.122 3.346-.035 2.932.065 1.698.126 2.921.183 3.835.25 2.258.175q.716.048 1.983.245t2.319.297 1.171.125q.118.024 1.68.174 1.562.149 4.382.371l2.022.266m-7.288 94.731.114-.624q.783-1.936 2.138-5.098t2.959-6.778 2.46-5.379 1.424-2.808 1.589-2.717 2.826-4.273 4.737-5.699 4.663-4.557 2.421-1.961 3.439-2.251 3.738-2.334 2.691-1.493q1.704-.908 4.26-2.128 2.557-1.219 8.375-3.554t7.269-2.847q1.451-.514 2.768-.867t2.272-.62q.957-.266 2.954-.913 1.998-.646 2.916-.862.919-.216 1.676-.362.757-.145 3.048-.691t3.449-.816 2.359-.612q1.202-.341 1.727-.472.525-.132 1.681-.362t2.012-.385 1.222-.25q.367-.097 4.054-.357 3.688-.261 5.424-.227 1.736.035 3.712.208t3.039.355q1.062.182 1.743.291.68.109 1.503.33t1.529.397q.705.176 1.221.303.515.126 1.431.396t1.555.441 1.105.373q.467.202 2.016.944"/>
        <path stroke="#999" d="m1138.657 1953.916.15-.209.35-.333.327-.318q.967-1.116 1.432-1.612.465-.495 2.214-2.115 1.748-1.619 3.346-2.855t9.742-5.689 9.204-4.828 3.303-1.144l3.693-1.265q1.451-.496 2.383-.807t2.614-.72q1.684-.41 3.808-.85 2.125-.441 3.566-.787 1.441-.345 2.946-.676t3.156-.626 3.027-.513 3.935-.612 5.667-.726 3.751-.374 4.426-.561q3.784-.519 6.299-.858 2.514-.34 5.878-.92 3.363-.581 5.494-.885t3.544-.374 3.128-.23l3.795-.358q2.079-.197 3.002-.225.923-.029 2.129.06 1.206.088 4.75.223t5.064.248 3.736.312 3.879.473q1.664.275 4.112.677t4.282.815q1.833.412 2.595.587.763.176 1.82.458 1.057.281 3.233.844 2.175.562 3.719 1.037t2.34.825q.796.352 1.644.695t1.668.649 2.302.809q1.596.65 2.489 1.08t1.839.777q.947.346 1.822.659t1.776.691q.899.378 1.494.606t1.598.705 1.73.784 1.161.467 1.777.765 4.028 1.92"/>
        <path stroke-width="5" d="m1543.487 1997.512-.065-4.23q-.05-1.11-.167-4.83-.116-3.719-.289-6.043-.172-2.324-.362-3.753-.19-1.428-.389-2.694-.198-1.266-.288-1.743t-.54-3.062-.912-6.433-.653-5.631-.465-4.007-.972-7.06-.996-7.56-.681-8.44-1.236-15.222-1.259-14.775-.841-9.493-1.002-8.815-.891-9.211q-.323-4.621-.424-6.511-.1-1.891-.519-6.868-.418-4.976-.792-9.648t-.699-7.932-.992-7.235-1.024-5.986-.771-5.164q-.412-3.153-.748-6.228-.337-3.075-.589-6.369-.253-3.295-.69-8.715-.436-5.421-.684-8.307t-.364-4.588-.382-5.974q-.268-4.273-.452-8.565t-.309-5.987-.251-5.965q-.124-4.27-.152-6.453-.027-2.182.383-6.68.41-4.499.91-6.579.499-2.08.978-3.378.478-1.297 1.458-2.944t1.638-2.262q.659-.616 1.781-1.36t1.979-1.207q.858-.462 2.361-1.123 1.504-.662 5.411-1.459t6.141-1.057 3.368-.388q1.136-.13 1.858-.166t3.955-.489q3.232-.452 6.443-1.041 3.212-.589 4.332-.78t8.089-.927q6.968-.737 11.672-1.27t8.885-1.18q4.18-.646 11.481-1.243 7.3-.597 11.918-.844 4.618-.246 7.516-.46t4.43-.338 5.865-.357 8.257-.6 6.986-.683 6.884-.515l4.675-.244 4.287-.223q3.435-.178 5.686-.261t3.334-.148 7.525-.198 7.288-.14q.844-.01 2.696-.036 1.852-.029 2.738-.067.885-.037 1.938-.028 1.052.01 1.842.01.791 0 4.816.227 4.025.226 6.362.628t3.915.882 2.037.655q.457.175 1.869.956t2.247 1.467 1.477 1.419.943 1.21.854 1.691.779 1.981q.228.767.464 2.006t.389 2.491.209 3.317q.056 2.067-.047 4.209t-.377 5.519-.412 4.961-.668 8.759-.774 11.671-.38 6.542q-.137 2.047-.229 4.194-.093 2.147-.101 2.491-.01.346-.091 2.04-.083 1.694-.333 5.677-.249 3.981-.419 6.566t-.214 2.977-.32 4.085-.371 6.233-.21 8.183-.11 8.994q0 3.352.073 6.744.068 3.393.224 6.54.155 3.146.356 7.285.202 4.138.436 8.226.235 4.088.435 7.032t.291 4.985.203 4.744q.114 2.702.466 8.279.352 5.576.497 8.366.144 2.789.359 5.722.215 2.932.434 7.917.218 4.984.347 7.48.128 2.495.267 4.342t.348 5.123q.209 3.277.282 5.123t.292 6.277.399 6.714.513 5.234.603 8.269.472 9.81q.201 4.49.305 7.28t.164 4.028q.062 1.237.176 3.161t.184 3.474.104 2.87q.033 1.32.097 2.759.065 1.439.148 2.762.083 1.324.043 3.21t-.152 4.027q.03.062-.651.018"/>
        <path stroke-width="5" d="M1543.104 1788.197q.283-.23.505-.498.222-.267 1.919-6.729 1.696-6.462 2.889-13.138t1.839-9.411 1.216-4.181 1.353-2.126q.402-.038 1.08 5.011.678 5.048 1.168 9.888.49 4.841.999 6.982t1.036 3.337.738 1.607 1.021 1.171q.81.758 1.251.858.442.099.692.108.251.01.568-.1.318-.109.664-.31.345-.201.587-.392.241-.191 1.35-1.53 1.11-1.34 1.851-2.115.742-.774 1.635-1.098.893-.323 2.483.762t2.606 2.022q1.015.938 1.899 1.68.885.741 2.013 1.393 1.129.651 2.473.833 1.344.183 3.608-.713t7.261-4.381q.293-.019 2.052 2.055t3.332 3.937q1.573 1.864 2.42 2.424t1.919.629 2.461-1.959 2.515-5.76q1.125-3.732 1.866-6.026.74-2.293 1.648-3.875t1.782-2.171 1.763-.658q.322-.091 2.463 2.703t3.858 5.341 3.345 4.058q1.627 1.51 2.638 1.864t2.098.445 1.733 0q.645-.087 1.154-.182t2.856-.813q.378.101 1.503.635t1.917.829 1.297.421 1.08.04q.573-.086 4.821-2.483l.516.086q.872.042 3.019.227 2.147.186 4.419.229.703-.227 2.249-1.005t4.008-1.453l.839.242q.096-.037 1.21.413t2.348.781 2.429.229 2.319-.608 1.695-.922q.572-.414 2.729-2.515m-103.702 42.902q.129-.018.861.659 0-.01.669-1.148.666-1.138 1.535-2.162t1.338-1.351.818-.44.603-.131q.255-.019.552.057t2.206 1.002 2.285 1.066.797.222.652.092 1.507-.422 3.311-1.135q2.036-.703 2.613-.711 2.825.923 4.33 1.222t2.461.336 1.866-.072q.91-.111 1.287-.217.378-.106 1.819-1.108 1.442-1.002 3.852-3.136l.715-.022q.304-.111 1.209 1.02.905 1.13 1.55 2.059.644.929 1.076 1.467t1.086 1.2 1.389.986q.353.346 3.134-3.685l.372-1.006"/>
        <path d="m1553.782 1857.742.14 3.044q.105.146.624-1.451t2.097-5.729q1.578-4.134 4.255-6.701.177-.099 2.019 3.158 1.842 3.256 3.139 5.888t1.994 3.519 1.2 1.223.715.372q.21.037.528.02t1.537-1.524 2.195-2.837q.976-1.329 1.366-1.721.389-.393.728-.606.339-.214.675-.194.337.021 1.334 1.011.996.991 1.631 1.791t1.03 1.125.655.472.72.224 1.174-.109q.716-.186 3.428-1.179.312-.082 1.109.124t1.426.376q.63.17 1.292.271t1.194.108q.532.01.831-.062.298-.067.868-.389.569-.322.616-.327.047 0 5.209-6.799.536.17 1.01.871.473.7 1.431 2.525t1.68 2.96.966 1.441 1.57.797q.094.076.494-.223.4-.298.672-.654t1.109-1.631 1.398-1.958.577-.681q.018 0 .953-.552.935-.555 2.056.149 1.122.703 1.983 1.393.862.691 1.328.978t1.005.432.955.052q.416-.095.719-.186.302-.091 1.704-.691t3.234-1.274q1.946.246 2.448.286.501.039.798.042.297 0 .84-.018.543-.022 1.562-.108t2.198-.49 1.816-.656 1.03-.387q.393-.133.938-.207t.683-.082q.138-.01 1.51-.049 1.373-.041 2.251-.182t1.423-.327 1.042-.467q.497-.28 1.259-1.018t1.803-2.253q1.04-1.515 2.154-3.5t3.162-4.215q.988.093 1.321.25.332.156.631.497.298.341 1.95 3.489 1.651 3.149 2.481 4.365.831 1.216 2.322 1.791.365-.139 1.407-1.261t2.433-3.066 2.384-2.913 1.911-1.404q.271-.157 1.305.444 1.034.6 1.707 1.137t1.124.842.969.633.704.409.794.206 1.154.144q.545.021 2.336.182 2.861 2.162 3.62 2.426t3.862-.128m-130.174 37.274q.294.351.56 1.393.265 1.041.547 1.6.281.559.673 1.01.392.452.851.492.227.112.957-1.447.729-1.56 1.03-2.421t1.253-2.903 1.963-3.603q.712 2.276 1.293 4.347t3.181 8.324q.515-.235.555-.206.039.029.909-1.678.87-1.708 1.618-4.125t1.25-3.686.967-1.766q.154-.061 1.258 1.619 1.105 1.681 2.984 4.07.668.285 1.319.417l1.031.209q.379.077 1.361.615t1.509.776q.528.237.747.331.219.093 1.248.268 2.647-1.343 3.414-1.697t1.085-.412q.318-.057 1.135.171t.916.273.713.275 1.081.387.803.245.657.098q.32.011.478-.016.157-.026.446-.104t3.002-1.223q.351-.186 1.611-.117 1.261.07 1.937.113.677.044 1.058-.011.38-.054.5-.049.12 0 1.232-.395 1.111-.401 1.947-.666.836-.264 1.273-.344t.781-.092.722.044 1.123.308q.745.25 1.372.528t1.734.824 1.55.678.885.134.687-.084 1.125-1.113q.88-1.029 1.47-2.1.591-1.07.935-1.805.343-.735 1.009-2.012t1.707-1.912q.188 0 1.61 4.339 1.421 4.333 4.474 10.372.59-.016 1.462-3.006t1.785-8.265 1.688-7.606 1.642-3.011q.169.194 1.003 2.336.835 2.141 1.32 4.004t.746 2.89q.26 1.026.753 2.557.494 1.531 1.425 2.729.29.052 1.147-.747t1.536-1.496.994-.934q.314-.235.634-.39.319-.155.674-.245.591.189 1.262.534t1.307.565.912.232 1.058-.355 5.911-7.814q.273.012.727.23.453.217 1.685.835 1.233.618 1.931.938t1.075.472q.378.153.759.233.38.08.798.052t1.028-.108 2.622-.214q.179-.039.939.264t1.286.489 1.055.274 1.262.074 1.586-.343 2.065-.791 2.399-.76q.229.03 1.237.484t1.613.71.868.326.805.098 1.881-.276q1.337-.302 1.693-.395t.678-.14l.325.089.546.063 2.889-1m-120.913 51.663-.577-.324-1.043-.732q-2.101-1.313-3.423-2.477-1.321-1.164-1.884-1.749t-1.126-1.22-.795-1.047q-.231-.413-.324-.654t-.264-1.074q-.172-.832-.18-1.213-.01-.38-.025-.813-.017-.434.18-1.096t1.161-2.008 1.209-1.566.395-.376 1.436-.92 2.441-1.047 2.195-.358 2.23 0q1.19.073 2.678.557 1.489.485 2.333.945t1.939 1.351 1.698 1.611.623.763.737.962q.719.919 1.139 1.714t.911 7.845q-.648.638-1.009.936-.362.297-1.667.864-1.305.566-2.134.761t-.893.222-1.548.157-6.741-.138m1.312 2.377.098.139.086.251-.043.233q-.141.756 2.555 8.132.046-.018.139-.51.093-.493-.175-1.819m-.802-4.11q.314-.487.985-.648t1.32-.446 1.063-.461.605-.297q.193-.12.754-.734.56-.613 1.377-2.314"/>
        <circle cx="1566.961" cy="1914.636" r="1" fill="#fff" stroke-width=".1"/>
        <path d="m1566.688 1913.771.627.367q.274.765.427 1.077.154.311 2.676 3.155l.345.303q.175.01 1.92.32 1.746.31 4.318-.255.4.034.709-.132.309-.167.632-.488.323-.322 1.864-1.968m-15.559 8.743 1.202-.185q1.574-.579 2.616-.872t3.572-.77l1.834.757 1.108.678q.691.03 1.395-.043.704-.074 1.445.244m2.515-4.238.059.248q-.124.197-.13.313-.01.115 1.601.954m-18.419-2.38q.773.154.874.271.102.118.458.17t1.248.113q.892.059 2.594-.16m40.191-10.524q-.299.129-.481.123-.182-.01-2.071.621-1.889.626-3.299 1.253t-1.453.706-.504.843-.784 1.317-.717 2.093-.451 3.716.397 4.329q.454 2.155 1.379 4.271.926 2.117 3.063 5.092 1.392.683 2.173.89t1.336.18 2.96-.191 4.08-.472 3.47-.772l.477-.305.682-.456"/>
        <path d="m1604.638 1914.699-.028.243q.393 1.056.494 1.302.102.245.305.443.203.197.385.266.183.068.265.12.083.053.45-.061t.456-.234q.088-.121.122-.22.035-.098.017-.36-.016-.262-.175-.509t-.305-.399q-.148-.151-.368-.326-.22-.174-.762-.595m8.946 1.781q.038-.045.419-.919-.165-.151-.547-.417-.382-.267-.273-.904m-7.415 9.468-.909-.881q-.142-.023-.348-1.244m8.216 1.12q-.345-.148-.903-.191l-.026-.272q-.041-.414-.401-.593m8.144.865-.769-.575-.107-.381-.108-1.36m-11.988 9.201.22.045-.191-.054-.102-.167.01-.244.121-.776m5.772 2.456.179-.347q-.17.018-.699-.337l-.482-1.301m9.201.254-.21-.125q.026-.31.21-.791m23.32-21.647q-.719.587-.98.653-.268.159-.553-.832.069.206-.125.434m1.312 1.26-.7.989-.359.394q-.365.638-1.234 2.298t-1.934 3.534m.784 1.922q-.115.018-.23-.178-.115-.197-.284-.312-.169-.116-.24-.108-.072.01-.349-.068l-.154-.327m-.529 1.464-.378.397q-.221.146-1.04 1.464-.818 1.317-1.53 2.561t-1.679 2.589m6.486-6.948q.06.344-.078.629v1.097q-.082.176.485 5.822l.194 1.322"/>
        <path d="m1640.529 1917.741.33.428q.134.371 1.609 2.389 1.475 2.019 4.875 5.531m-2.714-18.732q.402 1.093.608 2.148.344.987 2.635 6.187m2.659 1.133-.094-.191q-.983-.275-1.306.251-.153.07 1.073.525m-.201 1.731.312.199q-.01.246 1.729 4.827m-1.312-6.884q.547.785 7.014 4.899"/>
        <path d="M1644.957 1909.011q.466.035 2.979.985t6.465 1.518l1.56-.06m1.384.14q.286.164.309.215t-.112.01q-.135-.039-.722.103l-.025.165.423.233m-.128.191q.243.515 1.408 1.928t4.076 4.625m-5.885-6.681 1.344.15q1.266.034 3.229.054m-2.714-.598q.797-.388 5.229-3.716m17.144 17.485q-.708-1.808-1.258-3.865-.549-2.058-.872-3.555t-.649-13.869q.54-1.407.984-1.932t1.188-1.077q.743-.551 1.61-.93.866-.379.907-.415t1.313-.257q1.272-.223 2.261-.194t1.595.076 1.96.318 3.496 1.042q2.143.773 2.872 1.223.728.451 1.065.823.336.373.603.789.267.415.717 1.482t.973 4.135.56 4.643.046 1.653q.01.076-.086 3.703-.094 3.626-.055 4.05.036.103-.483 1.228"/>
        <path d="m1682.579 1909.8 1.147-.543q.792-.167 1.129-.204.338-.038.782-.023t.776.056q.332.043.911.079t.811.014q.231-.024.609-.122.378-.099.81-.25.433-.152.759-.16.326-.01.677.041.351.05.764.084t.869 0q.455-.03 1.004-.198t.835-.202q.288-.035.548.001.259.036 1.131.03l1.541-.388m-11.332 7.143q.215-.216.363-.56.221.01.409-.104.189-.113.411-.164t.748-.195.879-.264q.353-.121 2.419-1.284"/>
        <circle cx="1684.164" cy="1921.979" r="1" fill="#fff" stroke-width=".1"/>
        <circle cx="1688.409" cy="1921.915" r="1" fill="#fff" stroke-width=".1"/>
        <circle cx="1692.708" cy="1922.844" r="1" fill="#fff" stroke-width=".1"/>
        <path d="M1568.218 1968.39q.2-.176.486-.434.163-.148 2.265-5.198.015-.035 1.236 1.666t2.395 3.127 1.923 1.99 1.674.559q.204.049 1.91-2.481t2.84-4.796q.865.185 1.85 2.886.984 2.701 1.519 4.432.535 1.73.989 2.63.453.901 1.428 1.36.345 0 1.255-1.462.911-1.461 1.91-2.953t2.345-2.535q.809.084 1.826.389t1.829.553q.813.249 1.525.312.364-.098 4.223-2.301.093.024 2.159.501.269-.01 1.428-1.325l.345-.126q.446-.056 2.804-3.841.034-.016 2.961 2.332.664.188.968.214.304.027 1.177.052.873.026.997.083t1.188.702 1.465.778.999.21.843.025.638-.316.809-.811q.415-.545.851-1.344.436-.8.731-1.468.296-.669.833-2.53t1.166-6.488 1.2-9.553q.297 0 .593 4.346.295 4.35 1.096 10.644t1.534 8.775q.732 2.48 1.113 3.153.381.674 1.023.959.122-.117 3.572-5.438.49-.238 1.881 1.406 1.39 1.644 2.163 2.695t1.261 1.525 1.432.71q.484-.035 5.165-4.781.415.075.453.091t1.222 1.113 2.252 2.076 1.614 1.218.769.256q.221.016.561-.068t.743-.551.959-1.758q.555-1.293.84-2.628.286-1.335.723-8.152t.702-9.843.466-4.066q.202-1.04.792-1.307.355.139 1.033 5.531t1.013 9.055q.336 3.665.678 5.069.343 1.404.616 1.857.274.454.645.545.372.091 3.732-5.505.151-.101 2.735 1.235.23.112 1.589-.68 1.36-.791 2.455-1.211 1.096-.421 1.7-.208.605.214 1.304.481.699.266 1.058.322.358.057.959.101t1.067-.021.955-.145 2.58-.513q.425.165 1.091.451t1.294.504 1.255.379 1.895.078 1.703-.152 1.212-.124 1.297-.082 1.11-.014q.59.012 1.342.107t1.788.123 5.124-2.196M306.37 2069.601q-.011.063-.086 3.586-.075 3.524 1.588 14.979 1.663 11.456 2.911 17.66t1.766 10.232l.252 2.334m-6.359-49.517q.551-.392 2.484-1.182t4.204-1.197q2.271-.406 4.141-.228 1.87.177 4.457 1.597 2.588 1.42 3.821 2.85 1.232 1.43 1.726 2.9t.32 3.18q-.174 1.711-.901 3.361-.727 1.649-1.155 2.27-.428.62-.489.731t-.58.726q-.52.616-.899 1.036t-.875.892-1.401 1.237-2.363 1.926-2.725 2.516q-1.269 1.355-1.664 3.985.008.13.58.456.573.325 1.111.507.538.183.86.337.323.153 1.602.615t3.923 1.743q2.645 1.282 6.299 3.453 3.654 2.172 6.563 4.089t4.804 2.905q.184 0 1.575-1.445m22.646-6.618q-.654-1.277-1.613-2.65t-2.33-2.526-3.224-1.692-3.242-.292q-1.388.248-2.36.8-.971.553-1.917 1.603-.945 1.05-1.465 2.093t-.847 3.217.283 4.605q.608 2.431 1.696 4.33t2.748 3.503 2.735 1.99q1.074.387 1.588.387.515 0 .61.012t1.209-.449 1.896-1.184 1.009-1.013q.227-.291.589-.782t1.204-3.27q.843-2.779 1.103-8.287m7.889-36.816q.044.655-.259 4.747-.304 4.092-.313 7.166t.069 5.834.898 9.379q.818 6.619 3.372 18.12.018-.024-.469-1.749m15.103-1.323q.401-.18.732-.271 1.1-.617 2.068-1.467.967-.849 2.068-2.418 1.101-1.568 1.35-3.389t.146-2.655-.488-1.784q-.386-.95-.954-1.634-.569-.684-1.448-1.144t-1.789-.522q-.911-.061-2.073.439-1.163.501-2.437 1.716t-2.246 3.22q-.973 2.006-1.28 3.668t.041 3.694.776 2.844q.429.811 1.762 2.441 1.333 1.631 3.129 2.715t3.715 1.284 4.118-.775q2.201-.975 8.169-7.68m19.804-11.123-.566-.365-1.589-1.712q-1.051-.842-1.897-1.342t-2.309-.859q-1.462-.359-2.351-.283t-1.4.249-1.275.677-1.305 1.507-.534 1.667q.006.664.035.904.029.239.384.96t1.629 1.596q1.273.876 2.253 1.288t2.145.794 1.908.617q.744.236 1.406.482.662.245 1.852.977t2.185 1.757 1.37 1.511q.375.487.918 1.406t.778 1.501.27 1.001-.033.824-.347.927-.63.931q-.35.411-1.208 1.012t-2.601.951-3.124.238q-1.38-.111-3.263-.821-1.882-.71-3.268-1.667t-2.219-1.814q-.832-.857-2.318-4.059m121.364-40.028q-.05-.157-.118-.755-.13.038-1.057 2.603-.928 2.566-2.617 10.353-1.69 7.786-2.74 13.88t-3.182 14.501q-.124.097-1.273.65"/>
        <path d="m531.362 2066.643.309.68q.496.655 2.515 7.438t3.549 11.77 2.766 8.084q1.236 3.098 2.144 4.884t1.831 2.803q.107.023-.47-.383"/>
        <path d="M522.562 2094.704q.388-.01 4.964-.306 4.575-.3 17.282-2.201m24.359 2.252-.17-.396-.237-.492-.361-.622q-.897-1.32-.991-1.372t-1.302-1.168q-1.209-1.115-3.131-1.748-1.922-.634-3.585-.404-1.662.23-3.612 1.846-1.949 1.616-2.687 3.375-.739 1.759-.748 3.251t.704 2.749 2.851 2.426 3.458 1.249 2.172-.036q.853-.114 1.771-.503.918-.388 1.603-.891t1.273-1.084q.587-.582 1.113-1.005.264-.242.459-.5t.324-.443.219-.103.094.087q.151.66.79 4.089.638 3.43 1.553 7.585.915 4.156 1.331 7.157.416 3 .472 4.264t-.114 2.931q-.171 1.666-.381 2.288t-.853 1.398-1.171 1.037-1.452.368q-.922.107-2.923-.944t-2.904-2.169-1.402-2.318 2.735-12.035m16.361-12.713.698-.68q.475-.424 2.834-2.565t3.387-3.512 1.463-2.649q.434-1.279.147-2.208t-1.578-1.616q-1.289-.686-2.307-.657t-1.782.299-1.799 1.178q-1.035.909-1.764 2.233-.728 1.324-.963 3.406t.127 3.484q.362 1.404 1.448 2.718 1.087 1.314 2.85 2.189 1.764.874 4.625 1.195t5.52-.102 8.155-2.84m.073-14.164q-.361.873-.543 1.426t-.355 2.057q-.173 1.506.727 6.082t1.827 6.981 1.358 3.479q-.025.149.243-1.621.267-1.771.953-4.854t1.712-5.287q1.025-2.204 2.232-3.594t2.656-1.913q1.448-.525 2.155-.54t2.194.629 2.61 1.728 1.648 1.854.825 1.224 1.178 3.141q.879 2.686 1.118 4.471t.226 2.641q.016.045.21.294m8.472-37.198-.144.566-.008 1.06q-.015.487.967 8.556.981 8.069 2.12 12.431t1.918 5.721 1.354 1.887q.573.528 1.015.729.443.2 1.685.386t2.966-.326 2.582-1.022q.858-.508 1.234-.802.377-.293 2.257-2.041"/>
        <path d="M625.992 2082.194q1.589.143 24.632-2.316m-148.522 12.65q-.011-.156-.002-.424-.299-.444-.868-.604-.568-.159-1.066-.116-.498.044-.861.257-.362.213-.632.526-.269.314-.411.707-.142.394-.146 1.076t.355 1.2q.361.517.98.831.62.313 1.161.284.54-.03.696-.098.155-.067 1.385-1.21l-.663-2.099m3.941 68.526q-.283.112-.469-.01-.187-.123-.24-.163t-.579-.218-1.242-.163-1.269.256-.868.914-.375 1.134.276 1.21q.338.75.696 1.111.358.36.554.496.197.135.423.23.227.094.605.156.379.063.74-.379t.492-1.077-.584-3.294m37.403-12.051q-.08-.16-.169-.404-.088-.245-.255-.574-.168-.33-.452-.695-.284-.366-2.82-1.197t-4.521-.686q-1.986.145-3.186.716-1.199.57-2.198 1.779-1 1.209-1.404 3.057t.131 3.476q.535 1.627 1.465 2.737.929 1.109 2.241 1.953t4.885 1.917q3.573 1.074 5.712 1.666t3.936 1.616q1.797 1.026 3.07 2.775 1.272 1.75 1.567 3.609t-.131 3.203-1.323 2.296q-.899.951-1.939 1.537-1.04.585-3.126.998t-4.256.216-4.537-1.219-3.888-2.428-1.938-2.204-.484-1.297.18-.873 1.252-1.256m43.78 1.323-.185-.516q-.296-1.079-.956-2.227t-1.941-2.443-2.133-1.766-2.323-.765-3.009.212-2.429 1.351q-.892.846-1.619 2.622-.726 1.777-.492 3.508.235 1.731 1.403 3.285 1.167 1.554 2.536 2.328t2.794.956 2.657-.225 2.034-1.219q.802-.813 1.204-1.87t.439-1.772-.212-1.44q-.249-.723-1.339-2.997m13.1-5.09q-.027.064-.141.239-.247.375-.457 3.048t.243 5.136 1.326 3.976 1.906 2.204q1.034.693 1.799.736.764.042 2.054-.512t2.025-1.207 1.872-2.289 1.674-3.071q.537-1.436.776-2.638.239-1.203-.405-1.948-.136.041.471 2.64t1.535 4.849q.928 2.249 1.522 3.164.593.916 1.114 1.274t1.888 1.413m4.573-21.85q.088.456.113 3.05t.521 5.096.964 4.11q.47 1.608.904 2.814t.729 1.915q.293.709.136-2.294-.158-3.004.02-5.273.179-2.27.34-2.909t.588-1.471 1.851-1.212 3.305.087 3.316 1.304q1.434.836 3.246 2.457m18.328-4.632q-.719 0-1.356-.383-.636-.389-1.484-.716t-1.648-.484-1.802-.064q-1.003.092-2.191.748t-2.079 1.854-1.301 2.958-.191 3.192q.218 1.43.876 2.639.659 1.209 1.744 2.141t3.039 1.433q1.956.501 3.245.393t3.185-.762q1.897-.653 3.015-1.228 1.119-.574 3.635-2.584m8.49 0 .431-.224q1.32-.832 1.791-1.186.472-.353 1.791-1.745 1.319-1.391 1.951-2.688t.551-2.626q-.082-1.328-1.088-2.35t-1.565-1.224q-.557-.202-1.478-.278-.922-.075-2.144.541t-2.101 1.647q-.879 1.032-1.559 2.956t-.619 3.45.237 2.12q.176.593.56 1.355t1.602 1.917 2.71 1.821 4.927 1.136q3.436.468 5.833.215 2.397-.252 4.438-.852t6.105-2.395m39.207-10.32q-.764-.403-1.254-1.278-.49-.876-1.19-1.613-.7-.736-1.341-1.195-.641-.458-1.771-.932-1.129-.473-1.98-.609-.85-.136-1.271-.113t-1.038.099-1.56.556q-.943.481-1.987 2.245t-1.206 3.742-.059 2.761.527 1.789 1.028 1.609 1.108.912 1.815.554 2.511-.146q1.2-.392 2.277-1.273 1.077-.882 1.95-2.656.874-1.774 1.182-5.712m17.29-9.608-.053-.614q-.419-2.331-1.578-5.268t-2.912-5.213q-1.752-2.276-3.023-3.057t-2.011-.859-1.202.063-.706.442-.626 1.543q-.383 1.241.798 6.306t3.289 11.799q2.108 6.735 4.042 18.036-.133.156-.919-3.911"/>
        <path d="m719.006 2161.651.818-.047q1.325.135 14.996-2.6m-189.842 56.134-.121-.613q-.064-.197-.574-1.187t-1.79-2.025q-1.279-1.034-2.564-1.333t-2.271-.118q-.986.18-1.655.594-.668.414-1.414 1.508t-1.051 2.942.353 3.777 1.895 3.08 2.143 1.442 2.02.104q1.115-.187 2.011-1.007t1.357-1.539 1.097-2.189 1.62-5.282m-1.257-19.33q.038.126.263 4.975.224 4.85.664 8.539t.939 6.765 2.066 8.842q.184.156.969-2.053m16.033-1.056q-.037-.293-.042-.72t-.215-1.295q-.209-.868-.565-1.633-.356-.764-1.403-1.612t-2.232-1.079-2.47.054-2.132 1.358-.954 2.757q-.107 1.686.517 3.107t1.721 2.386 1.874 1.17q.777.206 1.54.192.764-.014 1.833-.693t1.527-1.251.988-1.556.784-1.729.248-1.046q-.016-.01.806 1.211.823 1.216 1.981 2.486t1.862 1.824 1.454.913 1.115.44 1.692.544m2.97-31.255q-.015.117-.644 1.706-.291.968.431 7.117.721 6.149 2.322 10.422 1.601 4.272 2.59 5.871.989 1.598 1.634 2.235t1.485.977q.841.338 2.4-.2 1.56-.538 2.729-1.487 1.168-.95 1.838-1.827.67-.878 1.521-2.238"/>
        <path d="m571.869 2212.554.985-.222 1.059-.178q.892-.078 16.485-2.31m20.86 9.264q-.019-.134.373-1.001t.466-1.53q.074-.664.006-1.519-.069-.855-.359-1.665-.291-.81-1.351-2.116t-2.233-1.932-2.328-.714-1.855.052q-.699.141-1.974 1.331-1.276 1.189-1.834 3.33-.559 2.142-.329 3.674t.977 2.776 1.889 2.099q1.142.857 2.898 1.137t3.329-.463q1.574-.742 3.097-2.409t2.401-3.662q-.064.051.259 1.485t.754 3.037 1.167 3.468 1.606 3.584 2.789 4.477m198.877-152.735-.262.01-.556-.472q-1.089-.388-1.743-.348t-1.346.328-1.307 1.09-.847 1.824-.041 2.055.938 1.621 1.308.7 1.323-.078 1.2-.91q.437-.719.537-1.401.101-.683-.161-1.465-.261-.782-2.158-3.472m22.705-7.75q-.021.32-.083.742-.061.421 1.468 7.16t2.38 9.706 1.808 5.508q.959 2.539 2.17 4.065 1.042.124 4.522-14.506-.006.034 8.523 13.971.221-.061 1.363-5.256t1.072-9.851q-.069-4.657-.482-7.699-.412-3.042-1.856-8.209l-.279-2.058m12.771 16.544q.073.505.715 5.293.641 4.789 3.031 9.167.129-.1.779-1.927.651-1.828 1.222-3.476.571-1.649 1.174-2.852t1.356-2.12 1.374-1.402 1.744-.982 1.647-.534.757.014q.233.053.649.015m10.512-5.498q.1.132-.181.182-.06.165.054 1.804m1.057 5.637-.064.549q-.038 1.694 1.389 12.204l.606 2.136m10.658-34.69-.027.62q-.133 1.216.346 6.375t1.544 10.982 3.17 9.468q.567.4 2.662.501t3.701-.453q1.607-.553 3.762-1.812"/>
        <path d="M910.145 2086.433q.725-.448 11.386-4.963m9.985-15.691q-.056.648.68 6.903t1.504 11.177 1.255 6.434q.488 1.512 1.255 2.458t1.866.946q1.098 0 1.928-.357.829-.356 1.309-.694.479-.337.932-.745.452-.408.904-1.014.451-.606 2.013-3.067"/>
        <path d="M931.916 2082.068q1.201-.507 1.311-.527t3.128-.615 7.823-1.581m6.613 8.539q.351-.307 2.477-1.973t3.06-2.7q.934-1.035 1.277-1.856.344-.82.295-1.13-.048-.311-.374-.691-.325-.38-.929-.446t-1.373.35-1.699 1.937-1.182 2.846-.098 2.447.709 2.089q.553.967 2.215 1.883 1.661.917 3.855 1.164t5.49-.456q3.297-.702 9.853-4.126"/>
        <path d="M970.723 2075.769q-.008.562.012 1.191.019.628.254 1.804.234 1.175.84 2.958.607 1.783 1.32 4.004.712 2.222 1.812 6.194-.021-.026.617-1.923.638-1.896 1.773-4.435 1.134-2.54 1.924-3.527.789-.988 1.415-1.38.627-.392 1.016-.432.39-.04.911.201.522.242 1.444 1.137t1.503 1.92q.581 1.024.916 1.699t1.695 9.34l.038.579m-132.051 35.289q-.451-.098-1.135-.739-.683-.64-1.872-1.299t-2.547-.84-1.985-.109q-.626.071-1.818.609-1.191.537-2.078 1.709-.888 1.172-1.116 2.432-.227 1.261.075 2.432.303 1.172 1.134 1.982.831.809 2.407 1.183 1.575.375 3.017-.031 1.442-.405 2.392-1.552.95-1.146 2.87-6.311"/>
        <path d="M854.322 2108.41q.033 1.043.026 3.336t.254 7.05q.26 4.756.755 8.921.494 4.165 1.296 10.053.009-.067 1.112-3.806m16.67 6.426-.62-.522-2.262-1.844q-.861-.889-1.67-3.496t-.629-3.96.655-2.16 1.21-1.224q.735-.419 1.731-.452.995-.032 2.316.688 1.322.72 2.159 1.978.838 1.258 1.128 2.922.291 1.665-.045 2.853t-.668 1.701-1.239 1.18q-.906.669-1.809.719-.903.051-1.421-.171t-1.683-1.915q-1.166-1.694-3.165-10.664m17.745.725.02.426q.062.481 1.154 3.708 1.091 3.226 1.896 4.49.804 1.263 2.005 1.744.171-.01 1.494-1.902t2.12-3.113q.796-1.22 1.146-1.537t.586-.465q.238-.149.551-.168t.978.448q.666.468 1.933 1.778t2.425 2.177 2.486.623q.154-.095.863-2.059.708-1.964.802-4.39.093-2.425-.252-4.843-.346-2.417-1.039-4.373l.09-1.553m11.788 3.244q.046.615.275 3.307t.46 4.076.444 2.514.602 2.331q.388 1.2.465 1.36.088-.133 1.622-2.4t2.923-4.024q1.388-1.758 2.251-2.377.864-.62 1.426-.738.562-.119.78-.153.218-.033.49.082.271.116.878.669.608.553 1.206 1.695.599 1.143.928 2.129.328.985.388 4.06-.184.528-.29 1.901m-84.627 33.1.303-.112q1.697-.727 3.797-2.422t2.949-3.023 1.063-2.644-.187-2.335q-.403-1.02-1.559-1.847-1.156-.828-2.16-1.046t-2.13-.032q-1.126.187-2.705 1.594t-2.337 3.776-.64 4.175q.118 1.805.651 3.074t1.715 2.604 3.001 2.349 4.72 1.394 4.306.196q1.405-.182 3.806-1.235 2.402-1.052 6.65-7.177m-2.186-6.096.379.331q.413.262 3.958 4.778 3.546 4.515 5.968 7.081 2.423 2.565 4.373 3.708.212.018 2.211-.13"/>
        <path d="m881.468 2158.652-.947.783-.689.62q-.765.838-4.458 5.703t-5.548 8.182-2.754 6.415l-.38 2.336m23.977-23.237q-.331 1.12-.44 2.523t-.054 3.692q.054 2.289.312 4.022t1.596 6.544 2.356 8.24 1.432 6.244q.094-.044.096.026t.404-1.245"/>
        <path d="m889.284 2164.48.97-.834q1.733-1.074 3.69-1.938t3.146-.951q1.189-.086 2.284.214t1.98 1.078q.887.779 1.598 2.143t.797 2.933-.143 2.509q-.228.94-1.068 2.279-.839 1.339-2.205 2.347t-2.794 1.411-2.862.421q-1.434.017-4.409-1.482m22.974-5.828q.091.128 1.014 1.249.939.092 3.004-.72t3.036-1.717q.972-.906 1.358-1.631t.398-1.543q.011-.817-.793-1.518t-2.332-.986-2.776-.017-2.283.983q-1.034.715-1.715 1.958-.68 1.242-.699 2.348-.019 1.107.367 1.968t1.532 1.876 4.45 1.924 5.702.997 7.427-1.061m4.1-15.296q-.008.297-.18 1.112t-.144 2.209.265 2.897.932 3.79 1.302 5.216q-.176.081-.236-.01-.059-.087-.069-.836-.009-.749.595-3.976.604-3.225 1.93-5.803t2.138-3.381q.811-.803 1.643-1.257.831-.454 1.554-.542t1.218.029q.494.119.676.187.183.069 2.222 1.29m6.687-5.29q.168.039.328 2.176m2.058 7.152.04.837q-.068 1.267.053 2.665.122 1.398.397 3.501t1.425 4.391l.199.657m6.231-8.081q.18-.158 1.768-1.164t2.682-2.046 1.58-1.846.566-1.925-.478-1.521-1.58 0q-1.023.4-1.949 1.465t-1.522 2.822q-.596 1.759-.544 3.217.052 1.457.381 2.489t1.366 2.164 2.772 1.735 3.124.308 5.735-3.443m.783-10.857q-.158.983-.128 1.836.031.854.168 1.956.138 1.103.754 3.521.617 2.417.951 3.218t.757 1.462q.053-.196 1.503-3.42t2.541-5.2 1.756-2.621 1.498-.816q.392.172 1.244 1.272.852 1.099 2.087 4.059t1.556 4.204.745 2.185m16.961-7.215-.637-.407q-1.806-1.57-2.984-2.307t-2.488-.988-2.045-.14-1.221.335q-.487.222-1.088.887-.6.665-.939 1.873t.03 2.757q.37 1.55 1.766 3.041 1.396 1.492 3.036 2.185t2.58.827q.939.134 2.119.027t3.857-.951m5.302-3.703q.665-.426 1.972-1.443t2.146-1.767q.839-.748 1.625-1.799t1.115-1.769.479-1.889q.149-1.171-.36-2.41-.51-1.239-1.251-1.677t-1.716-.426q-.976.012-2.788 1.523-1.812 1.512-2.625 3.654t-.82 3.496q-.01 1.356.516 2.813.521 1.457 3.298 3.484 2.776 2.027 5.574 2.605t4.352.463q1.556-.115 2.379-.316.824-.202 4.305-2.226m-219.047 48.396q.038.057.02.163t-.216-.153-.559-.475q-.359-.217-.822-.318t-.622-.102-.874.133q-.716.135-1.332.743-.615.608-.946 1.341t-.347 1.599q-.016.865.13 1.31t.825 1.034 1.667.785q.989.197 1.687.057.697-.14 1.538-.711.84-.571 1.36-1.317t2.335-4.623m25.34-4.924.175.519q-.068.522 1.994 23.433-.015-.04-.639-.32m-14.174-22.105.184-.081 1.125-.173q1.117-.25 21.986-3.784l.327-.155 1.538-.515m3.772 12.255q-.068 2.084.356 4.893.423 2.81.683 4.207t.406 2.1.597 2.385q-.011-.026.51-1.724t1.254-3.468 2.025-3.439 6.284-1.913m15.359 7.419q-.219-1.166-.215-1.188t-.219-.737q-.223-.714-.932-1.777-.71-1.064-1.252-1.521-.541-.457-1.082-.729t-1.123-.384-1.374.015q-.792.129-1.684.925t-1.391 2.278-.345 2.689q.152 1.209.846 1.969t1.67 1.041 1.639.303 1.785-.402 2.446-1.388q1.325-.965 1.813-1.332t1.023.473q.534.841 1.212 2.145.678 1.303 1.847 2.843l.638.924m16.433-10.855q-.224-.08-.343-.077-.119 0-.896-.211-.777-.215-2.298-.173t-2.772.336q-1.25.292-2.196.993-.945.701-1.386 1.606t-.421 1.845q.02.941.541 1.969t1.851 1.843q1.33.816 3.321.964 1.99.149 4.37-1t7.899-7.357m.073-17.549-.085.474q-.126.497 1.784 23.165.073.092.014.527m8.745-14.164-.375.442-.33.466q-.383.581-2.858 8.854.161.214 1.521 1.123 1.361.911 3.014 1.642t6.188 3.75m10.512-7.407.296-.174q.217-.087 1.571-1.16t2.067-2.025q.714-.952.917-1.786.203-.833-.038-1.427-.24-.594-1.15-.889-.91-.294-1.591-.252-.681.043-1.717.774-1.037.73-1.735 1.789t-.904 3.214q-.206 2.156.179 3.069.384.913 1.717 1.864 1.333.95 3.753 1.073 2.419.122 13.196-4.668m5.357-8.411q.018.166-.077.556-.094.39-.091.833.002.443 2.75 11.029.122-.132.944-2.449.821-2.317 1.565-4.03.745-1.714 1.488-2.759t1.423-1.538 2.395-1.015q1.714-.523 2.621-.49.906.032 1.341.118.435.087.984.353l1.017.257m173.84-147.807q-1.084-.727-1.441-.815t-.669-.172q-.311-.084-1.257-.144-.947-.06-1.679.094t-1.261.48q-.529.325-.648.456-.12.13-.307.295-.188.164-.505.925-.316.762-.315 1.363.001.6.207 1.213.205.613.606 1.293.4.679.785.998.384.319.598.43t1.033.154 1.578-.345 1.448-1.099 1.371-2.212m29.831-17.155q-.021.098-.442.395-.554.342-2.09 3.703t-2.361 5.753-1.767 5.259-2.464 7.289-1.834 5.207q-.312.783-1.386 3.354l-.774.817"/>
        <path d="m1189.676 2059.153.507.795q.361.933 1.705 5.067t2.317 7.017 2.092 6.054 6.144 16.033q.056.204-.201.081-.258-.124-1.25-2.023"/>
        <path d="m1184.847 2082.849.577-.207q.254.016 18.681-2.898m19.731-8.616-1.544.641-1.045.533q-.857.525-2.908 2.166-2.05 1.642-2.735 2.824t-.681 1.488q0 .307.106.559.102.252 3.385 1.105t5.621 1.325 3.511 1.285q.262.413-.295 1.714t-1.958 2.276q-1.401.976-2.252 1.287-.852.311-1.445.436-.593.124-2.661.368m26.491-19.852q-.087.079-1.538.689-1.45.61-3.96 2.325t-4.006 3.327q-1.498 1.612-1.821 2.533t-.065 1.759q1.673 1.066 15.861 2.119.284.517-.145 2.468t-1.229 3.036q-.8 1.084-1.657 1.67-.856.587-1.321.787-.464.199-1.531.404-1.066.204-2.809.064t-4.178-1.189m30.116-2.723q-.612-.585-1.227-1.284t-.678-.762-.522-.765q-.459-.703-.621-1.067t-.359-.787q-.199-.424-.646-2.942-.448-2.518-.191-4.109.257-1.59 1.112-2.8.854-1.211 2.36-1.577 1.507-.367 3.245.466t2.95 2.334 1.753 3.372q.541 1.873.119 3.958t-1.806 3.715-2.462 2.1-1.412.502-1.427-.154q-1.093-.188-6.474-7.085m37.149-7.737q-.222-.109-1.026-.879-.804-.771-1.881-1.393t-2.467-1.046-3.321-.199-3.353 1.23q-1.423 1.004-2.474 2.818-1.051 1.813-1.194 3.933t.484 3.675q.627 1.557 2.496 2.899t4.511 1.756 3.962.265 3.23-.945 5.533-4.109m7.542-17.804.391-.929q.089-.029.611-.127m2.642 10.779q-.242 1.203-.291 1.896-.049.695.287 2.343t.933 6.361m16.889-4.11q.111-.347 1.004-1.895t1.319-3.212q.426-1.663.338-2.765-.089-1.102-.352-1.695-.263-.592-.869-1.184-.607-.593-1.856-.881t-2.77.148-3.26 2.079q-1.74 1.642-2.461 3.868t-.637 3.538q.084 1.313.653 2.45t1.749 1.791q1.179.653 2.469.68t2.33-.368q1.039-.394 2.283-1.259 1.244-.866 2.29-1.986t1.259-1.409q.211-.288.739 1.199.529 1.487.85 2.51t.761 1.83q.441.808.802 1.07t2.159 1.052m10.731-29.46q-.091.428-.139.768-.049.341-.045.974 0 .633-.028.849-.033.216.199 3.442t.563 6.549.804 6.345.999 4.541q.526 1.518.989 2.153.462.634 1.893 1.168t3.347.207q1.915-.325 3.232-1.087 1.316-.763 2.17-1.524.855-.762 2.577-3.324"/>
        <path d="M1346.086 2067.298q.499-.138 4.408-.413 3.908-.276 11.606-1.712m15.104-5.358-.627.623q-.238.452-.303 2.215m3.517 6.096q-.143.492-.255.742-.111.25-.256.76t-.172 1.092q-.027.583-.017 1.167t.113 1.707q.103 1.122.241 7.245m12.917-20.323q.159.644 1.298 4.779 1.138 4.136 2.585 7.302t2.687 4.322q.259-.4 1.639-4.563t3.609-11.173q.074-.063-.103-.667m11.787 12.445q.341-.318.642-.65.302-.331 1.813-1.322 1.512-.992 2.268-1.531t1.892-1.441 2.027-1.875q.889-.973 1.501-2.1t.71-2.366-.46-2.199q-.558-.959-1.226-1.439-.669-.481-1.989-.74-1.321-.258-2.891-.01-1.569.252-3.538 1.578-1.969 1.325-3.359 3.439t-1.629 4.947 1.404 4.891q1.643 2.057 3.356 3.036 1.713.978 3.782 1.669t4.939.976q2.869.284 4.423.018 1.554-.267 6.139-2.377m-250.438 55.157q-.339-.458-.406-.855-.068-.397-.549-1.658-.48-1.26-1.241-2.159-.76-.9-1.759-1.518-1-.619-2.513-.795t-2.548.145q-1.036.322-2.146 1.343t-1.855 3.172q-.744 2.152-.672 3.582.073 1.431.25 2.084.177.654 1.086 1.974t2.153 1.714 2.696.111 3.119-1.595q1.667-1.314 2.501-2.587.835-1.274 1.191-2.069.357-.796.259-1.353-.161.629 3.628 10.013l.523.899m3.17-15.882.448.447q.397.347 4.855 8.724.058-.092 1.465-2.128t2.619-3.576 2.013-2.134 1.668-.66 1.678.67q.813.734 1.411 1.844t1.424 3.509 1.223 3.806q.399 1.408.544 2.008m15.614-4.696-.277-.4.023-.441q.01-.611-.155-1.493t-.609-1.921-1.359-1.84-1.519-1.082-1.377-.366-1.454.016-1.561.622q-.88.519-1.587 1.709t-.885 2.415q-.178 1.226.485 2.942.664 1.717 1.578 2.456t2.211.977 2.288-.018 2.378-1.291 4.28-5.53"/>
        <path d="M1222.652 2111.444q.02 1.4 1.108 5.604t1.879 8.127 1.28 7.561 1.047 5.901q.367.088.443-1.703m42.049-16.022-1.211-.38q-.075-.01-2.163 1.226-2.088 1.233-2.993 2.438t-.99 2.361q-.016.401 3 1.302t5.491 1.439q2.476.539 3.858 1.181t1.789 1.209q.405.567.497 1.085.092.519-.349 1.467-.441.947-1.386 1.546-.946.599-2.495.962-1.55.364-3.602.257-2.053-.107-3.241-.54-1.188-.432-1.892-1.25-.052-.205.258-.063m21.116-14.304q-.084.701-.179.998t-.171 1.313q-.077 1.015.08 2.847t.615 3.314 1.441 2.971q.984 1.488 1.832 2.168t1.977 1.009 2.249.068 2.697-2.173q1.576-1.914 2.119-3.824-.011-.054-.063.024t.171 1.35q.222 1.273 1.355 4.944 1.132 3.671 2.511 8.69t1.689 7.296.154 3.631-.489 2.243-.847 1.593-1.08 1.135-1.049.693q-.484.261-2.92.716t-3.989.353-3.734-.563-4.919-1.546-3.912-1.888-2.099-2.194q-.925-1.392-.301-2.48t7.135-5.213m31.519-28.073q-1.037-.154-1.424-.096-.387.059-1.048.209-.66.15-1.589.658t-1.194.732-.849 1.168q-.584.945-.311 1.99.347.493 9.44 3.721l.37.493q.357.765.765 1.808.407 1.044.278 2.067t-.885 2.28-1.938 2.276-3.18 1.676-9.533-2.032q-.098-.159-.489-1.59m27.547-25.617q0 .062-.204 6.373-.208 6.312.336 9.6.543 3.288 1.261 4.778.718 1.491 1.39 2.123t2.209 1.113q1.537.482 3.391-.028 1.854-.509 2.884-1.328 1.03-.818 1.648-2.007t.057-4.271"/>
        <path d="M1328.595 2125.277q.485-.157 16.816-7.012m9.201 12.509q.564-.544.867-.755.302-.212 1.807-1.045 1.506-.834 2.703-1.662 1.198-.827 1.877-1.509t1.025-1.255.435-1.052q.089-.477-.069-1.253t-.984-1.495q-.826-.72-1.855-.915-1.03-.195-2.045-.037-1.016.158-2.415 1.195-1.401 1.037-2.057 2.229-.656 1.191-.855 2.612t.392 2.923q.59 1.502 1.779 2.625 1.188 1.122 2.672 1.773t3.976.877 5.494-.564 8.387-4.346m9.802-9.799q.136 1.065-.207 4.127-.343 3.063-.06 12.436.277.159 1.358-3.127t1.897-5.603q.818-2.317 1.354-3.16t.817-1.038.755-.116 1.406 1.168 1.772 3.029 1.426 3.915q.019.124 5.836-8.601.224-.149 1.559 1.963 1.336 2.112 2.091 4.488t1.159 5.463q-.025.205.026.887m18.2-5.103q.118-1.441.029-3.182-.09-1.742-.407-2.971-.318-1.229-.475-1.584-.157-.356-1.146-1.486t-3.116-1.661-3.768-.01-2.666 1.484q-1.023.963-1.542 1.935-.518.973-.712 2.623t.445 3.235 2.061 2.655 1.997 1.255 1.714.278 1.722-.028 2.621-1.509 3.446-3.274 1.834-2.647.751-1.517q-.083.371.173 1.975.257 1.603.609 2.836t.786 2.121 1.01 1.606.985 1.067q.408.35.661.507.252.157.668.281.415.124 1.339.515m6.686-26.087q-.03.256.372 6.212.403 5.957.896 8.631.494 2.673 1.091 4.178t1.022 1.949 1.175.738q.75.295 1.801.368t4.301-1.091"/>
        <path d="M1435.741 2121.968q.279-.087 1.426-.348t3.032-.573 2.705-.458 1.674-.282q.854-.137 5.793-1.049m8.472-7.012.35-.355 1.235-.18m.273 8.806q-.028 1.104 0 1.409.023.305.017.463-.01.158 1.973 10.04m19.654-11.721q-.166-.23-.534-1.42-.037-.256-.401-1.576t-.911-2.275q-.547-.956-.883-1.368-.337-.412-1.131-.901-.793-.489-1.909-.672t-2.65.342q-1.534.527-2.7 1.895t-1.553 3.261q-.388 1.892.019 3.621.406 1.729 2.187 3.723 1.781 1.995 3.871 2.986 2.091.991 4.975 1.191 2.883.199 11.568-3.831m-310.889 51.298q-.151-.135-.479-.474-.329-.34-.946-.615-.616-.275-1.523-.371t-1.422.023-.832.582-.307.821.203.924 1.649 1.965q1.457 1.399 4.418 3.304t4.483 3.056q1.521 1.152 1.932 1.814.41.662.407 1.671 0 1.009-.299 1.61-.297.601-.976 1.314t-2.388.969-2.982.078q-1.272-.177-2.044-.367-.772-.191-2.677-1.004-1.905-.814-3.015-2.057.039-.291 2.025-.734m23.63-22.702.024.712q0 .702.988 7.01.987 6.308 2.037 9.216t1.652 3.863q.604.955 1.227 1.431.622.475 1.346.568.723.093 1.127.024t1.327-.494 2.661-1.944"/>
        <path d="m1195.232 2177.911.605-.285q.718-.441 15.483-1.968m19.676 13.77q-.121-.29-.154-1.591t-.204-2.2q-.172-.9-.33-1.609-.158-.71-.876-2.063-.717-1.354-1.731-2.197t-2.224-1.074-2.283 0q-1.072.232-2.361 1.374t-1.964 2.961q-.674 1.82-.515 3.554t1.108 3.298 2.329 2.482q1.381.919 2.756 1.102 1.374.182 2.329-.052.954-.235 1.894-.93t1.839-2.341 1.444-3.898m8.945-8.129-.724 1.61q-.058.188.178 4.598.236 4.409.646 6.477t.649 2.638.541.791q.203-.015.267-2.226.063-2.211.067-4.685 0-2.473.252-3.788.248-1.315.551-2.175.303-.861.73-1.486t1.385-1.326 2.207-1.08q1.248-.38 2.415-.391t1.815.136q.647.148 2.121.703m11.86 9.926q2.109-1.012 2.301-1.171t.45-.473q.259-.313.613-1.476.355-1.162.275-2.208-.081-1.047-.621-2.058t-1.528-1.929-2.638-1.445q-1.65-.526-2.638-.379t-1.44.364q-.451.217-.887.55t-1.436 2.717-.756 4.946 1.117 4.069 1.797 2.251 2.406.939 3.206-1.245 2.722-2.99q.998-1.549 1.41-2.302.412-.752.849-1.666-.01.02.519 1.162.527 1.141 1.519 2.738t2.185 2.958q1.195 1.362 3.174 2.586l1.503.883m13.901-3.843-.194-2.19q-.059-.254-.129-1.704t-.303-2.489q-.232-1.039-.547-1.791-.315-.751-1.335-2.007t-2.24-1.884-2.262-.633q-1.042 0-1.484.161-.441.166-1.079.802t-1.121 2.688.239 5.077q.724 3.025 1.611 4.414t1.465 1.887q.578.5 1.731.85 1.155.351 2.18 0 1.025-.347 1.651-.818.627-.47 1.345-1.561t1.017-2.045q.3-.955.3-1.381.001-.426-.284-.566-.099-.01.477 1.994.576 2.002 1.168 5.275.592 3.272.854 6.894t-.022 7.458q-.283 3.835-1.349 6.85-.142.101-3.676.368-3.534.266-5.873-.646-2.339-.911-3.314-1.784-.976-.874-1.209-1.376t-.103-1.416 5.8-6.725m14.047-15.751q.512-.43 3.166-1.963t4.836-3.288 2.82-2.592.851-1.446 0-1.253q-.219-.646-.86-1.021t-1.823-.528-2.274.06-1.728.509-2.045 1.541q-1.409 1.243-1.999 3.07-.589 1.826-.396 2.982t1.031 2.364 2.997 2.422 4.256 1.654 5.167.42 12.095-3.262m229.158-117.938-.098-.08q-.929-.892-1.76-1.33t-1.504-.472-1.084.049q-.41.082-.714.325-.305.243-.503.545-.197.301-.306 1.155-.108.853.865 2.373.973 1.519 1.276 1.646.302.128.665.132.364 0 1.014-.578.651-.582 1.141-1.845.491-1.262.562-1.891.071-.628-.028-1.683m21.967-11.583q-.302.631-.554 1.074-.211.614 1.042 10.904 1.252 10.29 2.64 19.397.101.095-.34.465"/>
        <path d="m1576.555 2061.498.572-.474q1.028-.881 1.283-1.043t1.386-.618q1.131-.457 1.708-.618t2.084-.261 2.479.089q.972.19 3.293 1.575t3.434 2.878 1.531 3.164 0 3.618q-.421 1.948-1.335 3.299t-2.311 2.422-2.57 1.488-2.604.642-4.922-.534m20.003 8.004.442-.419q.359-.148 2.543-1.194 2.184-1.045 3.49-2.112t1.806-1.875.586-1.731-.526-1.669-2.22-1.134-3.754.18q-2.147.567-3.913 2.303-1.765 1.735-2.141 3.073t-.236 2.628q.14 1.292 1.372 2.779 1.231 1.487 2.694 2.333t3.688 1.365 5.049.302q2.824-.218 4.735-.913t5.66-2.783m.456-13.247-.21 1.093q-.059 1.162.938 5.868t2.598 9.084q.902-3.618 1.308-6.084.405-2.466.769-3.735.364-1.27 1.081-2.263t10.823-2.834l.639-.061m12.389-3.054q-.418.107-1.199.352t-1.506.599-1.117.653-1.511 1.229-2.012 2.252q-.891 1.322-.995 2.254t.328 1.487q.431.554 12.977 4.202.3.302.063 1.563-.238 1.261-1.139 2.218-.901.956-1.35 1.172-.449.217-1.125.342t-3.012-.406q-2.335-.533-3.388-1.466-1.054-.932-.917-2.872m29.205 1.59q.051-.591.173-1.058t.317-1.227q.194-.761.243-1.78t-.267-2.409-.911-2.44-1.822-2.108q-1.228-1.058-3.182-1.311-1.955-.254-4.075 1.39t-2.935 3.295q-.815 1.65-.919 3.426-.103 1.776.548 3.174t2.291 2.671q1.641 1.273 3.528 1.629t3.689-.066q1.802-.423 3.953-2.097 2.151-1.675 4.925-7.184m7.944-9.672q-.263.745-.383 1.063t-.39 2.417.016 6.169q.285 4.069.752 6.884t.701 3.849q.012-.103.703-3.773.69-3.67 2.122-7.173t1.953-3.886 1.242-.421q.719-.038 3.317 1.69t4.016 3.57 2.215 3.573.778 2.818q-.135.228-.554.565m17.089-3.575.26-.726q.391-.731.876-1.905.484-1.173.682-2.789.197-1.615-.075-2.939-.273-1.324-.941-2.3-.667-.977-1.926-1.578t-2.22-.673-2.414.341-3.06 1.808-2.37 3.326-.701 3.574q.06 1.643.629 2.858t1.667 2.217 2.292 1.335 2.571.222q1.375-.111 3.031-1.149 1.655-1.037 2.842-2.329t1.957-2.41l.019-.027q.088.213.186.256l.835 1.579q.636 1.203 1.605 2.504.968 1.301 1.478 1.738t.922.607q.412.169 2.459.697m8.344-35.81.102.815q.025.588.01 1.782-.018 1.195.439 29.065.19.186.212.072.022-.113-.042-.339-.063-.226-.536-.611m-165.941 32.043.2.509q.179.433 1.202 6.203 1.024 5.77 1.702 9.524.679 3.755 1.29 5.195.291.181.033-3.395-.257-3.576-.332-6.906t.485-5.8 1.244-3.359 1.968-1.642 2.398-.945 2.062-.01 1.589.852.461 2.943m6.158 12.051q2.894-1.567 3.76-2.317t1.27-1.232.673-.9.486-1.273q.219-.854.101-1.69t-.773-1.541-2.047-1.069-2.665-.063-2.556 1.391-2.045 2.799-.795 3.475q-.032 1.766.352 2.828t1.337 2.247 2.961 2.227q2.007 1.043 3.658 1.282t3.47.14 3.083-.437q1.262-.338 4.232-1.756m13.245-12.841q-.154-.061-1.533-.666-1.378-.604-2.376-1.036-.997-.431-1.625-.612-.627-.181-1.575-.248-.948-.066-1.721.098-.773.165-1.32.588-.546.424-.757 1.109-.21.686-.01 1.583t1.961 2.151 5.121 2.39q3.359 1.136 5.019 1.852t1.996.897.759.645.305 4.142q-.786.46-1.835.729t-2.663.072q-1.614-.198-3.136-.953l-.982-.435m23.32-1.985q.082-.123.232-.301.15-.01 1.923-1.274 1.774-1.27 2.886-2.741t1.509-2.633q.397-1.163.426-2.049.03-.886-.516-2.225t-1.516-2.189-2.324-1.227-2.757-.114-2.546 1.08q-1.142.816-2.206 2.619-1.065 1.802-1.33 3.001t-.186 2.844q.078 1.646.725 3.226t1.738 2.75 2.502 2.007q1.412.835 4.267 1.348t4.796.407 2.971-.274q1.029-.17 3.18-.883m14.702-6.083.595-1.399q.125-.41.185-.863.059-.452.036-1.14-.024-.689-.178-1.419t-.641-1.667q-.487-.938-1.569-1.938t-2.523-1.487-2.548-.383-1.911.444q-.806.34-2.146 1.914-1.34 1.575-1.891 3.981-.55 2.407-.332 4.022t.946 2.86q.728 1.244 2.023 2.087 1.294.843 3.193.963t2.864-.092 2.814-1.297q1.85-1.083 3.018-2.517 1.167-1.435 1.452-2.183.285-.749.378-1.315.092-.566-.173-1.01-.266-.444-.602-.1-.068.455 1.18 2.862t2.382 3.772q1.134 1.367 2.009 2.079.874.713 1.438.902t3.101.662m4.3-17.002q-.36.831-.482 1.267-.123.436-.086 1.597t.713 3.614 1.264 3.802 1.12 2.425q.133.024.219-2.43.087-2.455.242-4.856t.387-3.213q.231-.813.439-1.378t1.066-1.378 1.996-1.132q1.137-.317 1.744-.353t1.848.361 2.261 1.427l1.188 1.1m16.014 2.583-.21-.164q-.101-.474-.629-1.63-.528-1.157-1.719-2.128t-1.944-1.231-1.543-.327-1.912.349-1.628.908q-.507.492-1.088 1.274t-1.122 2.753-.335 3.618.888 2.965q.683 1.319 1.951 2.214t3.065 1.285 4.084-.032q2.286-.421 7.845-4.026m1.785-20.654.231.943q.188 1.803.589 6.453t.787 7.338q.385 2.688.878 4.075t.923 1.937.749.724.596.186.412-.045 1.115-1.707 1.279-2.299 1.141-2.26 2.107-3.07q1.266-1.458 2.607-1.784 1.342-.325 2.336.184t2.336 2.344 2.131 5.237.794 5.224q0 1.822-.499 3.516l-.507.937m-586.318 98.049q-.096-.103-.2-.395-.555-.703-.753-.831-.199-.127-.227-.167-.029-.04-.66-.298t-1.217-.243q-.586.016-1.065.228-.479.211-.786.571-.307.359-.436.62-.129.262-.177.46-.049.198-.051.895 0 .697.222 1.177.225.479.86.888.634.408 1.309.453.676.045 1.207-.132t.907-.47.571-.532q.196-.238.563-1.021.368-.782-.268-3.455m19.732-8.73q.221 1.261-.648 7.174t.419 25.113q.532.301 2.098.117 1.566-.183 3.669-.993t3.817-1.462 4.641-2.526l.706-.75m19.859-1.654-.143-.325q.142-.408-.122-1.488-.263-1.08-.557-1.667-.294-.586-.39-.727-.095-.14-1.248-1.109-1.152-.97-2.673-1.337-1.52-.368-2.743-.208-1.224.16-2.771 1.266-1.548 1.107-2.356 2.344-.808 1.238-1.212 3.113-.405 1.876-.18 3.255t1.197 2.788 1.517 1.755 1.587.654 2.531-.293q1.491-.601 2.224-1.328.732-.726 1.136-1.322.403-.595.779-1.35.375-.755.91-3.486m9.802-8.616q.068.554.042.708t.41 3.631.666 5.522q.231 2.046.427 3.341t.712 2.83q.367-.197 2.065-4.433t4.623-7.882q.504-.161 2.095.673 1.592.833 3.017 2.256 1.425 1.424 2.117 2.499.693 1.075.975 1.88.281.806.365 1.476t.065 1.19q-.018.519-.343 1.347l-.147.589m19.604-.458q-.05-.288.259-1.816t.308-3.178-.59-3.343-1.588-2.682-1.984-1.408q-.986-.42-2.446-.428-1.459-.01-2.2.234-.74.242-1.494.677-.753.436-1.908 1.508t-2.115 3.353-1.006 3.741.064 2.325q.109.864.887 2.455.779 1.591 1.87 2.488 1.091.898 1.923 1.19t1.701.397q.868.104 2.585-.428t3.143-1.829 1.946-2.132q.521-.836.819-1.529.299-.693.442-1.191.142-.497.094-.697t-.201-.17-.119.734.355 2.011.669 2.814.598 4.483.233 4.172-.282 3.74q-.267 2.545-.973 4.594-.705 2.049-1.327 2.965t-1.65 1.795q-1.029.88-2.862 1.359-1.834.48-3.926.055-2.093-.426-4.158-2.094t-2.648-3.044-.648-2.582q-.066-1.207 2.656-6.093m23.028-18.669q.471-.227 8.29-2.252m19.731-16.887-.288.527q-.528 1.023-.681 1.657-.154.633-.213 1.208-.058.576.435 4.891t1.654 8.965q1.161 4.649 2.07 6.555t1.358 2.392.746.605.769.188 2.317-.72q1.847-.788 3.008-1.866t2.156-2.381 1.463-2.179 1.567-3.35"/>
        <path d="m1293.638 2247.864.674-.018q.334.017 16.142-5.543m6.887 5.955q.445-.533.484-.531 1.214-.469 2.61-1.577t2.038-2.009q.643-.902.776-1.485.132-.582.101-1.064t-.553-1.221-1.9-1.087q-1.376-.348-2.527-.116t-2.612 1.46-2.131 2.741-.738 2.726q-.069 1.215.051 1.836.121.621.603 1.652.483 1.03 2.059 2.388 1.576 1.359 3.377 1.943 1.802.584 3.546.621t3.496-.556 6.551-4.066m2.387-10.321.194.921q.569 1.174 2.49 4.435t3.67 6.976q.013.137 1.723-11.558 1.015-1.064 8.156.218m4.372-1.463q.079.367 1.321 3.075t2.432 5.557 1.987 4.543q.081-.279 4.703-10.687.098-.042 2.145 2.804t4.494 5.515q.076.043 1.261-1.575 1.186-1.617 2.185-3.339t1.76-2.6 1.233-1.133.831-.268.767.197 2.01 2.843q1.601 2.631 5.285 11.644l.289.833m-212.961 33.367.279.469q.163.407 1.479 4.624t3.576 8.034q.204.137.443-1.345.238-1.482.504-4.369.265-2.887.633-4.181.367-1.294.742-1.813.374-.519.773-.616t.718.017q.319.112.86.514.54.401 2.106 2.596 1.566 2.194 4.032 7.077.067-.082.585-1.954.518-1.873.93-3.147t.73-1.756.524-.605q.207-.122.653-.156t1.247.744q.8.777 1.47 1.757.671.98 2.155 3.045 1.485 2.065 2.414 3.036t1.529 1.364q.601.392 1.121.588.521.196 1.159.218t1.221-.08 1.381-.339q.797-.238 2.863-1.426t3.003-2.165 1.201-1.416.377-1.636-.648-2.902q-.761-1.707-1.582-2.291-.821-.585-1.22-.679t-1.219.122q-.82.217-1.515 2.046t-.592 3.415.607 2.891 2.112 2.921q1.608 1.617 3.172 2.348 1.564.732 2.827.893 1.263.16 2.993-.146 1.73-.305 5.024-6.025m.528-9.468q-.209.515-.379.918-.332 1.162 4.364 13.004.134-.289.731-3.335.598-3.046 1.119-5.005.521-1.958 1.334-2.648.21-.06 2.123 2.508t4.108 4.679q2.674-4.006 3.904-5.545.27-.059 1.017 1.122t1.651 2.402q.904 1.22 1.514 1.699.609.479 1.068.696t1.516.125 4.252-3.682q3.194-3.591 5.275-6.282t3.322-3.557q1.239-.867 2.081-1.024t1.133-.142.911.412q.621.398 1.619 1.68t1.928 3.058q.929 1.775 1.437 3.375.508 1.599.487 3.148-.021 1.548-.364 2.576t-1.746 2.562q-1.404 1.535-3.22 2.051-1.815.517-3.388.013-1.574-.504-2.371-2.716t-.733-4.435 6.099-15.471m12.243 1.985-.113.39q-.17.508-.251.856t-.123 1.387.231 2.789.811 3.347 1.207 3.537.975 2.921.348 1.367q-.146-.032-.161-.131t.128-1.641.605-3.906q.461-2.365 1.595-5.165t2.382-4.504q1.249-1.705 2.69-2.722 1.442-1.017 2.999-1.086 1.556-.068 2.838 4.941m9-1.985-.072.623-.208.67q-.15.969-.224 3.592-.074 2.622.476 5.094.55 2.471 1.515 3.994t1.497 1.92 1.321.681 1.816.024 2.224-1.503q1.195-1.242 1.938-2.595.744-1.354 1.619-3.989-.046-.113.079 1.689t.489 4.518 1.973 8.567 2.39 9.451.808 6.148-.525 4.43-1.629 3.111-2.858 1.796q-1.782.569-3.945.442t-5.243-1.262-5.455-2.716-3.651-3.131-1.393-2.821q.194-.444 2.303-3.584m-479.469-34.411-.463-.099q-1.372-1.239-2.467-1.449t-2.031-.091q-.936.118-1.444.55-.509.433-.741 1.038-.233.606-.031 1.476.202.869.978 1.356.776.486 1.82.715t2.088.111 1.702-.402q.66-.284 2.502-1.411m32.448-14.507q-.075-.113-.299-.477-.225-.364-.258-.37-.033-.01-.393-.387-.36-.38-1.029-.568t-1.99-.204-2.388.368q-1.068.386-1.752.954t-.976 1.119q-.292.552-.412 1.46-.12.909.656 2.596t1.961 2.883q1.186 1.197 2.938 2.479 1.751 1.282 6.276 3.414 4.524 2.132 6.252 3.062t2.123 1.23.951 1.146q.556.847-.19 2.55-.745 1.704-2.074 2.65t-2.879 1.296-3.677-.066-5.003-1.691q-2.877-1.274-5.144-2.401t-3.7-1.569q-.11.189 3.337 1.778m21.443-20.921.5 2.243q.092.567 2.085 6.849t7.595 17.546q.481.121 2.182-1.98t2.675-3.414 1.482-1.743.84-.566.586-.101.659.224 5.18 7.905l.648 1.975m13.974-.738q-.771-1.123-1.597-2.276-.827-1.152-1.191-1.969t-.705-2.74-.172-2.938.325-1.385.517-.74 1-.621 1.943.029 2.209 1.055q.903.776 1.43 1.462t1.013 1.946q.487 1.261.511 1.955t-.369 1.885-1.41 2.067q-1.019.876-2.027 1.15t-1.773.24-1.279-.158-1.437-.662q-.921-.539-1.87-1.995t-1.304-2.712-.701-4.308m17.746-5.765q.165.091.274.25-.124.856.022.998.091 1.178 1.482 4.163 1.391 2.984 2.352 4.697t1.3 2.393.462 1.198q-.345.103-.465-2.564t.303-5.426q.422-2.76 1.271-4.494t1.643-2.419q.795-.686 1.263-.898.468-.213 1.318-.298t3.751 1.471m10.257-13.044-.155.614q-.041.449.213 6.778.253 6.329 1.071 10.04.819 3.71 1.66 5.509.84 1.798 1.405 2.487.565.688 1.242 1.26t1.862.818q1.184.246 1.882.033.699-.214 1.185-.584.486-.371 1.101-1.589.614-1.219.777-5.437"/>
        <path d="M941.192 2288.917q1.138-.61 2.82-1.423 1.683-.813 8.895-3.68m11.131 5.167.519-.265q.432-.244 8.482-2.446m13.245-15.894q-.202.33-.701 1.238t-.756 1.739q-.259.832-.395 1.623t-.162 2.308q-.025 1.518.891 5.18t7.297 15.175q.311.161 1.397.131 1.087-.031 2.465-.886 1.379-.855 2.341-1.9.961-1.045 3.054-5.01"/>
        <path d="m984.098 2287.263.625-.293q1.397-.509 9.96-4.085m9.601 6.427q.851.044 3.084-.459t4.09-1.483q1.857-.979 2.871-2.08t1.248-2.101q.235-.999.02-1.712t-1.046-1.485-2.15-1.099q-1.32-.329-2.568-.123-1.249.205-2.558.978t-2.52 2.206-1.75 3.088-.108 3.703 4.224 4.201q3.793 2.155 6.585 2.658t4.913.843q.549-.136 1.57-.251m4.173-16.48-.239 1.24q-.03.474 1.206 5.929t3.554 9.013q.262.127.259-1.962l.001-4.798q0-2.709.391-4.54.387-1.83.939-2.942t1.594-2.035 2.434-1.246q1.394-.324 2.146-.175t1.347.574.972 1.059q.377.635.554 2.658m6.886-7.216q-.079.268-.556 1.302-.167.828.088 3.342.256 2.513 1.22 6.021.963 3.508 1.567 5.232t1.185 2.899q-.054-.143 4.846-14.601.211-.045.701.382t.646.706.414.754 1.136 2.816q.878 2.342 2.51 4.887.327 0 1.752-2.401 1.426-2.399 3.513-4.445.437.066 1.937 2.76t3.747 8.417m-226.663 38.534-.089.63q-.126.569.559 4.226t1.255 5.697.816 2.778q.245.739.422 1.133.177.395.171.374t1.146-3.094q1.153-3.073 3.2-5.409.35-.066 1.348 1.054t2.447 2.814q1.448 1.694 3.107 2.524.353-.218 4.729-3.238.158-.018 1.017.802t1.63 1.474q.772.653 1.586 1.105t1.673.599 2.025 0q1.165-.144 2.947-1.759 1.781-1.615 2.607-3.671.825-2.056.797-3.607t-.466-2.262q-.437-.71-1.107-.881-.671-.172-1.109-.01-.439.162-.952.873t-.78 1.947-.173 2.382.769 2.555 2.79 2.803 5.512 1.63l2.241-.697m5.029-8.204q-.115.299-.097.385.329.08.651-.211-.215 1.009 3.719 9.909.317.122 4.083-10.652.592-.001 5.406 8.4.189-.246 3.165-5.672.35-.29 1.372 1.025 1.021 1.314 1.81 2.229.79.914 1.197 1.209t.744.388q.337.092.611.027.275-.065 1.408-1.265t2.233-3.034 2.204-3.671q1.106-1.836 2.328-3.017t2.024-1.325q.804-.143 2.743 1.882t2.342 2.899q.404.875.491 2.154.088 1.278-.292 2.197-.379.918-1.297 1.362-.918.443-1.518.384-.6-.06-1.38-.469t-1.68-2.101q-.899-1.691-1.28-3.736t-.197-8.37m10.603 3.906.828 1.08q.364 1.223 1.304 4.919.939 3.695 2.966 7.76.212-.08.285-3.035t.239-5.271.549-3.711.763-1.985 1.167-.969 1.539-.361q.754.019 1.556.42.803.401 1.977 1.484m6.358-4.632q-.225.207-1.435 1.234-.063.107-.407 2.257t.493 5.197 2.217 5.106q1.381 2.059 2.376 2.937.995.879 2.862 1.386t3.252-.419 2.209-2.362 1.112-3.273q.288-1.836.177-2.183-.112-.346-.334-.506-.223-.159-.473-.085t-.429 1.059.21 2.881 1.893 5.435 2.458 5.913q.954 2.375 1.674 5.216t.77 6.361q.051 3.519-.707 5.908-.757 2.388-2.562 4.312-1.805 1.923-6.309 1.932-4.504.01-7.153-.984-2.649-.992-4.875-2.386t-3.251-2.419-1.382-1.545-.63-1.157-.329-1.291q-.056-.653 1.085-3.973m-659.2-297.617.151.732q-.004.177.092 5.635.095 5.459.279 9.194.184 3.734.921 9.426t1.338 9.816.867 10.831.257 10.586q-.007 3.878.143 6.903.151 3.025.289 4.526.138 1.502.503 3.381t.768 2.975q.403 1.097.658 1.551t1.116 1.755q.834.659 1.742 1.052t1.611.543.85.194 2.314.134 4.743.143 5.465-.077l4.104-.182q1.214-.052 2.869.048 1.655.099 2.643.096.988 0 1.148.01.16.013 3.605-.341t7.967-.634 6.996-.482 4.203-.35q1.73-.148 10.6-.848 8.871-.7 16.302-1.623 7.431-.922 13.697-2.089t10.851-1.839q4.586-.671 7.625-.897 3.038-.227 5.43-.323 2.392-.097 5.773-.192 3.382-.094 4.615-.159 1.233-.064 4.544-.371 3.311-.306 6.493-.627 3.181-.321 5.23-.705 2.048-.384 3.36-.697 1.312-.314 2.343-.678 1.032-.364 1.356-.472.323-.109.904-.301t.889-.33.763-.474q.455-.335.833-.765.377-.431.466-.591t.463-1.245q.372-1.084.512-2.262.14-1.179.163-2.302t-.152-3.712-.425-4.782-1.158-7.819q-.908-5.624-1.321-8.265-.412-2.64-.606-7.195-.193-4.554-.057-7.377.135-2.823.603-9.395t-1.968-18.363l-.548-.211q-.898-.159-2.408-.233t-2.769-.015l-2.366.111q-1.108.05-2.104.064-.997.014-1.079.026-.083.012-1.101.01-1.018-.01-1.632-.045-.614-.038-1.812-.077t-3.391-.148q-2.194-.108-2.438-.133l-4.787-.493q-4.544-.468-10.392-1.179t-10.277-1.099q-4.43-.387-6.769-.482t-3.634-.144q-1.294-.048-3.194-.115-1.901-.066-5.249-.155-3.348-.088-10.17.065t-11.497.497-7.866.779-5.123.648q-1.934.213-2.879.287-.945.075-3.427.294-2.482.22-6.204.608-3.721.387-5.655.583t-5.194.607q-3.259.411-7.043.861-3.783.451-5.25.672t-3.178.533-3.157.564q-1.446.253-2.201.362t-2.057.372q-1.302.265-1.529.308-.228.044-1.237.209t-3.621 1.069m227.882 214.873-.767-.237q-.766-.17-1.338-.182t-1.256.11q-.684.12-1.156.37-.473.25-.866.703-.394.452-.372 1.245.022.792.451 1.391.428.598.746.723.317.125.627.118.309-.01.493-.06.184-.053.449-.19.264-.137 2.647-2.456l.397-.402m15.905 20.056q.101-.647 2.09-6.192t3.741-12.323q1.752-6.779 2.445-11.86t-.112-11.385q-.179-.111-.685.474-.505.586-.83 2.502t-.241 4.816q.083 2.901.564 6.463.482 3.561 1.469 7.918.986 4.357 2.411 8.015t2.562 5.121q1.138 1.461 1.609 1.731.471.269 1.175.295.703.025 2.396-2.094t2.918-7.276 1.335-9.907-.242-7.487-.761-4.006-.899-2.089-1.025-.962q-.535-.144-.63 1.191-.095 1.336 1.08 6.814t3.214 14.309 3.616 13.221q.128.074.258-.889t-.184-2.954m11.186 2.443.364-.518q1.321-1.42 2.474-3.174 1.152-1.754 1.628-3.525.475-1.771.052-2.938-.422-1.167-1.312-1.615t-1.703-.424-1.825.871q-1.012.846-1.623 2.007-.61 1.161-.866 3.104-.255 1.943.061 3.453t1.291 2.707 2.32 1.864 2.695.777q1.349.112 2.007 0 .658-.113 1.807-.566t1.512-.664q.362-.213 5.293-4.666m5.502-13.033q-.058.351-.713 3.253t1.256 11.431q.214-.441.33-.761t.45-1.455.633-2.134q.298-1.001.842-2.238.545-1.238 1.079-1.905t1.547-.659q.238.132.896 1.365t1.32 3.008q.663 1.774 1.226 2.867.563 1.094.893 1.382.33.289.687.286.358 0 1.261-.985.904-.982 3.634-5.445.184-.021.92.816l1.746 1.987q1.01 1.148 1.863 1.738.852.589 1.44.769t1.208.167.996-.107 1.927-1.48 3.096-3.472q1.544-2.087 2.624-3.341 1.079-1.254 1.979-1.889.899-.636 2.364-.885t2.467-.123 1.999.762 1.848 2.308q.851 1.671 1.006 2.578t.088 2.041q-.066 1.135-.442 2.219-.375 1.083-1.293 1.873-.918.791-1.722 1.057-.805.266-1.737.32-.933.054-1.885-.214t-1.865-.99q-.914-.723-1.474-2.012-.561-1.29.409-7.563m20.333-6.961-.121.508-.104 1.276q-.083 2.683 1.652 17.012.031-.016.45-2.087.42-2.07 1.055-4.08.636-2.009 1.868-3.777 1.233-1.767 13.272-5.186l.73-.09m8.8-7.61q-.885 1.45-1.608 3.97t-.781 6.579q-.059 4.057.497 5.656t1.072 2.298q.516.7 1.578 1.268t1.767.242q.705-.325 2.404-2.616t2.704-3.874q.232.878.49 2.708.259 1.831.752 4.409.493 2.579 1.014 4.611.521 2.033 1.672 7.178t1.378 9.102-.172 5.799-.878 2.71q-.478.867-2.204 2.02t-22.935-3.062q-.123-.07-1.107-1.136"/>
    </g>
</svg>
