<svg xmlns="http://www.w3.org/2000/svg" xml:space="preserve" viewBox="0 0 960 480">
    <g fill="none" stroke="#fff" stroke-linecap="round" stroke-linejoin="round" stroke-width="2" transform="translate(958.626 -1397.919)scale(1.33333)">
        <path stroke-width="5" d="M-512.694 1354.529q.041-.412.011-2.122-.031-1.711-.242-4.71-.211-3-.472-6.353-.262-3.352-.496-7.273t-.543-11.334-.765-11.523-.978-9.371-.963-9.98-1.021-9.364-.982-10.358q-.402-5.711-.506-8.812t-.368-7.821q-.263-4.72-.405-11.803t-.261-10.87-.433-7.441-.495-5.639-.28-4.071-.182-6.166q-.085-4.079-.147-5.917-.063-1.839-.213-4.172-.151-2.332-.394-6.22t-.382-5.963-.212-2.808-.045-4.625.662-7.231 1.332-4.929q.698-1.589 1.296-2.483l.693-1.036q.095-.141.715-.802.62-.662 1.479-1.37t4.045-1.853 6.659-1.355q3.475-.21 8.099-.1 4.625.111 7.513.095 2.889-.017 4.486-.064 1.596-.046 3.14-.135 1.543-.088 2.037-.133.493-.045 4.027-.212 3.534-.168 9.576-.46t12.276-.367q6.235-.074 14.079-.047 7.845.028 11.243.103t7.812.298 6.905.233 7.172-.082q4.681-.09 11.727.018t15.237.189q8.19.081 12.64.061l6.305-.03q1.855-.01 3.711-.045 1.855-.037 5.197-.072t20.89-.032q17.548 0 19.593.032 2.046.029 5.591.031 3.546 0 6.244-.025 2.699-.028 8.31-.051t8.307-.031q2.696-.01 11.439.093 8.743.101 13.489.191t6.049.072q1.302-.019 5.141-.06 3.838-.042 5.892-.047 2.054 0 13.258.088 11.205.092 14.3.368t4.146.446 2.465.54q1.415.368 2.672.884 1.256.517 2.114 1.016.858.5 1.458.971.601.471 1.139 1.018.539.548.794.884.256.337.872 1.396t.654 1.106q.039.047.458 1.153t1.076 5.765q.656 4.658.688 10.785.033 6.128.003 8.57-.029 2.443.051 6.293.081 3.85.232 15.503.15 11.654.159 16.703.008 5.049 0 6.693-.008 1.645-.129 15.145-.122 13.499-.069 21.448t.114 11.696q.062 3.747.107 5.892t.089 4.893.101 5.296.161 4.94.272 8.295.274 8.837.157 5.587.134 5.46q.085 2.808.254 14.035-.063.462-.189 1.273m-317.258-248.807q.085.438 1.745 4.96t3.536 7.315 2.729 3.418q.853.626 2.325-.384.245-.144 2.52-3.813t3.672-6.312 2.476-4.586m-10.002 16.62.075.377.179 4.659q-.014.07.169 3.82t.339 5.741.293 3.926l.256 2.525m20.688-37.766q.085.438 1.745 4.96t3.536 7.315 2.729 3.418q.853.626 2.325-.384.245-.144 2.52-3.813t3.672-6.312 2.476-4.586m-10.002 16.62.075.377.179 4.659q-.014.07.169 3.82t.339 5.741.293 3.926l.256 2.525m20.188-38.266q.085.438 1.745 4.96t3.536 7.315 2.729 3.418q.853.626 2.325-.384.245-.144 2.52-3.813t3.672-6.312 2.476-4.586m-10.002 16.62.075.377.179 4.659q-.014.07.169 3.82t.339 5.741.293 3.926l.256 2.525m19.688-37.766q.085.438 1.745 4.96t3.536 7.315 2.729 3.418q.853.626 2.325-.384.245-.144 2.52-3.813t3.672-6.312 2.476-4.586m-10.002 16.62.075.377.179 4.659q-.014.07.169 3.82t.339 5.741.293 3.926l.256 2.525m22.005-16.029.703.024q3.674.106 6.673-.228t3.883-.458m14.174 17.015-.102-.66q.21-1.923.988-10.275.777-8.353 2.954-17.558l.146.195q.107.067.608 1.146.5 1.079 2.026 6.151 1.525 5.071 2.436 8.24.911 3.168 2.078 6.012.08.423.38.275.299-.149.352-.06t.162.113.325-.098q.046-.264.447-2.328.402-2.064 1.486-6.376t2.013-6.675 1.938-3.57q.019.04.431 1.204.356.83.713 1.807.358.977 1.906 7.278t2.938 11.819l.462 1.566m9.813-.706-.102-.66q.21-1.923.988-10.275.777-8.353 2.954-17.558l.146.195q.107.067.608 1.146.5 1.079 2.026 6.151 1.525 5.071 2.436 8.24.911 3.168 2.078 6.012.08.423.38.275.299-.149.352-.06t.162.113.325-.098q.046-.264.447-2.328.402-2.064 1.486-6.376t2.013-6.675 1.938-3.57q.019.04.431 1.204.356.83.713 1.807.358.977 1.906 7.278t2.938 11.819l.462 1.566m7.75-14.502q.343.052 3.7-.156 3.358-.209 7.416-.976l1.273-.128m13.774-11.848.074.292.114 2.042q.113 2.721.757 9.429.645 6.707 1.676 14.299.047.277.088.306t-.195.102m-.656-26.61q3.808 1.056 6.404 2.217t4.286 2.535q1.691 1.373 2.386 2.245t1.432 3.37q.736 2.497.73 3.69t-.079 1.929q-.072.736-.377 1.932-.304 1.197-.795 2.236-.491 1.038-2.117 3.036t-2.531 2.811q-.905.814-1.425 1.245t-1.039.93l-.165.147q-.126.083-.41.1-.283.017-1.199.503m19.541-28.786.074.292.114 2.042q.113 2.721.757 9.429.645 6.707 1.676 14.299.047.277.088.306t-.195.102m-.656-26.61q3.808 1.056 6.404 2.217t4.286 2.535q1.691 1.373 2.386 2.245t1.432 3.37q.736 2.497.73 3.69t-.079 1.929q-.072.736-.377 1.932-.304 1.197-.795 2.236-.491 1.038-2.117 3.036t-2.531 2.811q-.905.814-1.425 1.245t-1.039.93l-.165.147q-.126.083-.41.1-.283.017-1.199.503"/>
        <path d="M-496.925 1175.387q-.238.794-.225 3.592.014 2.799.21 5.156.197 2.356.629 7.278.433 4.921.741 9.035-.001.077-.089.288"/>
        <path d="m-496.342 1190.56-.387-.118-.6.013q-.159-.044-1.308-.01-1.149.035-1.875.208t-1.222.394-.852.484-1.056 1.092q-.7.831-.927 1.207t-.381.761q-.155.386-.21.656-.055.271-.071 1.136t.152 1.431.824 1.344q.655.778 1.123 1.096.321.152.661.25.341.097 1.277.082t1.326-.148q.389-.133.405-.131.015 0 3.221-1.973m15.359-6.418q-.466-.019-1.492-.175-1.027-.155-1.928-.179-.9-.023-1.473.087-.572.111-.703.143-.131.033-.704.367t-1.258 1.195q-.685.862-.964 1.618-.28.757-.34 1.537-.06.781.08 1.517.139.737.445 1.373.305.637 1.156 1.113.851.477 1.426.551t1.048-.022 1.523-.863 1.343-1.09.775-1.166.637-1.196.308-.662.275-.563.447-1.041q.068.203.069.201.002 0 .149.893.147.896 1.011 5.265l-.008.361m4.764-10.359.06.352q.021.247.597 1.829.575 1.583.958 2.438.382.856.551 1.213.168.357 1.171 1.753l.407.331m4.172-8.444q-.345.553-.875 2.233-.531 1.68-.886 2.91-.356 1.229-.657 2.308t-3.403 12.088q-.047.075-.173.555"/>
        <circle cx="-459.895" cy="1189.797" r="1" fill="#fff" stroke-width=".1"/>
        <circle cx="-459.631" cy="1197.61" r="1" fill="#fff" stroke-width=".1"/>
        <path d="m-499.749 1239.048.016.622q-.028.528.4 7.579.427 7.051.502 12.601-.007 0-.153-.186m6.787-21.576-.092.485q-.072 1.112-.118 2.264-.047 1.151-.049 2.774-.002 1.624.627 18.216l.06.223"/>
        <path d="M-504.686 1246.627q.22.062 2.719.223 2.499.162 5.251.236t5.25.019 4.604-.034l.586.084m-17.08 6.687.205-.013.196.068q.228.077 3.399.038 3.172-.039 5.336-.079 2.165-.041 3.571-.01 1.407.032 2.834.14l.683-.081m19.367-17.574q-.223 1.459-.259 2.28t.107 3.389q.142 2.569.317 4.773t.292 4.069q.118 1.866.414 5.757.018.047.158-1.866m.064-7.177q.162-.026 1.162-.095.999-.07 2.341-.147 1.341-.078 1.854-.103.512-.026 1.967.067l.105.034q.149 0 .487-.056m1.12-10.562q-.063.236-.216 5.465-.153 5.23-.021 8.593t.344 4.945q.02.127.03.525m6.234-19.891q-.223 1.459-.259 2.28t.107 3.389q.142 2.569.317 4.773t.292 4.069q.118 1.866.414 5.757.018.047.158-1.866m.064-7.177q.162-.026 1.162-.095.999-.07 2.341-.147 1.341-.078 1.854-.103.512-.026 1.967.067l.105.034q.149 0 .487-.056m1.12-10.562q-.063.236-.216 5.465-.153 5.23-.021 8.593t.344 4.945q.02.127.03.525m9.426-13.47-.159-.127q-.077.059-.242.127m1.293 8.341q-.04-.011-.134.106-.093.118-.039.06m8.196-6.737-.047.643q-.098.633.69 10.974.038.063.21-1.052t.433-2.359q.26-1.244.645-2.141.384-.898.748-1.245.363-.348.51-.384.147-.035.307-.015t.379.226q.218.205.552.873.333.669 1.013 2.252.037-.052.429-1.176.392-1.125.976-2.342.583-1.218.97-1.665.386-.447.735-.601t.761.129q.411.282.897 1.137.485.854.856 2.282t.807 3.756q.04.022.445-.027m3.184-9.265-.047.643q-.098.633.69 10.974.038.063.21-1.052t.433-2.359q.26-1.244.645-2.141.384-.898.748-1.245.363-.348.51-.384.147-.035.307-.015t.379.226q.218.205.552.873.333.669 1.013 2.252.037-.052.429-1.176.392-1.125.976-2.342.583-1.218.97-1.665.386-.447.735-.601t.761.129q.411.282.897 1.137.485.854.856 2.282t.807 3.756q.04.022.445-.027m-104.407 31.761.016.622q-.028.528.4 7.579.427 7.051.502 12.601-.007 0-.153-.186m6.787-21.576-.092.485q-.072 1.112-.118 2.264-.047 1.151-.049 2.774-.002 1.624.627 18.216l.06.223"/>
        <path d="M-504.186 1293.127q.22.062 2.719.223 2.499.162 5.251.236t5.25.019 4.604-.034l.586.084m-17.08 6.687.205-.013.196.068q.228.077 3.399.038 3.172-.039 5.336-.079 2.165-.041 3.571-.01 1.407.032 2.834.14l.683-.081m10.883-14.607.016.622q-.028.528.4 7.579.427 7.051.502 12.601-.007 0-.153-.186m6.787-21.576-.092.485q-.072 1.112-.118 2.264-.047 1.151-.049 2.774-.002 1.624.627 18.216l.06.223"/>
        <path d="M-480.686 1293.377q.22.062 2.719.223 2.499.162 5.251.236t5.25.019 4.604-.034l.586.084m-17.08 6.687.205-.013.196.068q.228.077 3.399.038 3.172-.039 5.336-.079 2.165-.041 3.571-.01 1.407.032 2.834.14l.683-.081"/>
        <circle cx="-431.66" cy="1304.449" r="1" fill="#fff" stroke-width=".1"/>
        <circle cx="-421.367" cy="1304.876" r="1" fill="#fff" stroke-width=".1"/>
        <path d="M-409.907 1305.538q-.12.015-.295-.024.007.095-.005.221"/>
        <circle cx="-486.213" cy="1342.262" r="1" fill="#fff" stroke-width=".1"/>
        <circle cx="-475.91" cy="1342.46" r="1" fill="#fff" stroke-width=".1"/>
        <circle cx="-464.196" cy="1342.924" r="1" fill="#fff" stroke-width=".1"/>
        <circle cx="-442.37" cy="1201.707" r="1" fill="#fff" stroke-width=".1"/>
        <circle cx="-430.045" cy="1202.069" r="1" fill="#fff" stroke-width=".1"/>
        <circle cx="-417.401" cy="1202.4" r="1" fill="#fff" stroke-width=".1"/>
        <path d="m-450.683 1194.727-.063.263q-.052 2.623.009 4.55t.182 2.96q.12 1.032.421 2.204.3 1.172.583 1.771t.372.729q.089.129.365.387t.474.419q.199.161.553.357t.719.372q.363.177.387.193t.934.21 1.363.22.522.029q.07 0 1.042.022.972.019 1.999.01 1.026-.01 1.571-.031t.785-.024q.241 0 1.803-.118l.722-.046q.138-.017 1.78-.069t2.379-.085q.737-.031 1.935-.058t4.656-.096l3.983-.081q.524-.012 1.462-.054.939-.041 1.798-.097t.906-.065 1.217-.111 2.739-.387q1.568-.287 2.521-.707.952-.421 1.166-.598.215-.177.333-.344t.515-1.423q.396-1.257.424-2.023t.008-1.105q-.018-.34-.239-2.079t-.365-2.51q-.143-.771-.334-1.864-.191-1.094-.304-1.846-.113-.753-.28-1.849-.166-1.096-.346-2.008-.181-.913-.248-1.152t-.211-.703q-.143-.465-.579-1.337t-.975-1.519l-.706-.539-.394-.215q-1.732-.546-2.268-.621-.537-.075-1.196-.098t-1.289-.013q-.631.01-1.805.099t-1.829.154-1.19.131-1.05.121-.568.051q-.053 0-1.859.197-1.806.199-2.738.313-.932.115-1.764.204t-2.241.262q-1.41.173-2.497.296t-1.949.237-1.504.186q-.642.073-1.463.215l-1.402.243q-.581.102-1.054.201l-.916.191q-.443.093-1.008.227-.564.134-2.135.761t-1.976.901q-.404.273-.961.98-.405.771-.614 1.481-.21.71-.306 1.567-.097.857-.166 3.746m-25.761 53.753-.04-.459-.068-.479-.203-2.549q.022-.152-.273-2.986t-.405-4.362-.098-2.094.315-2.468.337-2.017q.034-.117.339-.697.305-.581.585-.918.281-.338.445-.488t.886-.521 1.661-.639 1.499-.355 2.185-.206l2.486-.184q.862-.064 2.596-.141 1.734-.078 3.936-.126 2.201-.049 5.368-.076t4.849-.045 3.255-.043 2.821-.027q1.247 0 4.494-.038 3.247-.035 5.897-.102 2.65-.068 4.274-.083t5.288-.02q3.664-.01 5.684.03 2.019.034 3.682.097 1.662.062 1.726.062.064-.001 1.447.073 1.382.074 2.505.139t2.456.106 3.371.064 3.552.033 2.203.016q.689.01 2.536.15 1.847.144 2.646.299.8.156 1.551.401t1.336.596.801.532.442.421.374.455.659 1.802.531 1.67q.018.084.194 2.309.175 2.225.21 3.516t.052 2.098l.073 3.273q.056 2.466.11 3.99.055 1.525.087 2.888t.028 2.239-.086 2.355-.253 2.358-.421 1.558-.338.838q-.087.158-.26.388-.173.229-.752.727-.579.497-1.084.727t-1.121.409-1.692.39-1.814.275-2.729.114q-1.992.05-3.935.056l-4.166.022q-2.222.016-3.92.065t-5.494.083q-3.796.033-6.218.083-2.422.049-3.522.083t-1.606.04q-.506.01-3.452.092-2.946.086-5.936.195t-4.937.214-3.322.135-4.796.02-6.368-.084-4.486-.133q-1.541-.059-2.066-.096l-2.342-.165q-1.818-.129-2.718-.204-.9-.076-1.59-.153t-.736-.08q-.046 0-1.421-.272-1.376-.271-1.817-.394t-.861-.291-.885-.38q-.464-.214-.756-.411-.291-.197-.417-.296-.127-.099-.502-.579-.376-.479-1-1.745-.033-.052-.237-.753-.205-.702-.35-1.691-.146-.99-.174-1.567-.027-.578-.058-1.584-.03-1.006-.022-1.798.007-.792.075-3.655m30.905 46.38q-.037-.18-.097-1.841-.059-1.661-.103-3.172t-.039-2.276.078-1.722.286-1.81.415-1.286.45-.782q.248-.351.407-.519t.438-.378.962-.462.942-.319q.258-.067.704-.141t1.476-.112 2.17-.035q1.139 0 2.614.01 1.475 0 2.484-.019 1.01-.021 2.052-.107t1.559-.116 1.394-.052q.875-.021 2.786-.061 1.911-.041 1.973-.041h4.749q4.688 0 7.856.112 3.167.115 4.492.227t2.138.217 1.462.23 1.332.312 1.061.304.52.158.728.308 1.043.597.633.487q.175.158.517.727.342.57.568 1.319l.25.831q.025.084.066.484.042.399.124 2.357.083 1.957.094 3.284.012 1.327.048 2.716t.046 1.916.039 1.172.068 2.109.055 2.348-.003 2.247q-.018 1.363-.107 2.222-.09.858-.327 1.824t-.282 1.096-.315.597-.445.68-.361.382-.229.236q-.041.067-1.138.585t-2.208.717-1.865.268q-.755.069-.805.083t-1.353 0q-1.302-.017-2.247-.051t-1.585-.026q-.639.01-1.172.036-.532.028-.927.04-.396.012-1.706.03-1.31.019-2.525.054t-3.103.082-4.358.151-2.501.11l-3.368.08q-3.335.075-4.992.075t-2.59-.014-3.771-.433-3.007-.481-.769-.409q-.6-.349-.96-.75t-1.16-5.151-.87-5.713-.098-1.297q-.028-.332-.085-1.264-.057-.933-.145-1.882m-47.102 44.026-.06-.584-.068-1.927q.018-.094.08-2.025t.285-2.847q.222-.917.386-1.248.163-.33.318-.513t.619-.46.529-.311q.065-.035.864-.187.8-.152 1.481-.138.681.015 1.029.059.348.043.676.079l.393.042q.065.01.827.011t2.293.012q1.53.01 2.196-.011t2.121-.043 2.948-.069 2.466-.063 2.142-.012h1.938q.769-.01 1.735-.049.967-.041 1.887-.065.919-.024 2.481-.001 1.563.023 3.531.266 1.968.242 2.068.266t2.109.862q.303.292.617.634t.677 1.346.46 1.968.118 2.077-.026 2.954-.141 3.018q-.092 1.177-.248 2.143t-.377 1.663-.375.988-.318.448-.657.466q-.493.311-1.343.611-.85.299-1.82.506-.97.206-1.172.242t-.451.054-1.269.126-1.721.199q-.7.091-1.327.19-.628.098-.917.148-.29.051-1.142.181-.851.129-2.135.254-1.284.124-1.58.144t-2.189.129q-1.892.109-2.642.126t-2.495.033-4.455-.053-4.942-.356-3.121-.64q-.89-.353-1.127-.518-.238-.165-.444-.464t-.337-.576q-.132-.277-.287-.833t-.212-1.015q-.056-.459-.1-1.069-.043-.61-.035-2.103.008-1.492.004-1.569-.003-.078.155-2.091m107.256-102.958q.273-.018 1.172-.164.899-.145 2.58-.312 1.68-.167 3.04-.291 1.36-.122 2.403-.209 1.043-.086 3.174-.301t3.521-.31 4.041-.182l3.775-.125q1.126-.038 1.794-.072t2.241-.109 3.839-.19 4.242-.141 3.1-.015q1.126.011 2.046.014.92 0 2.571.031 1.652.028 3.252.053 1.6.026 5.246.143t5.64.167 2.621.059 2.299.064 2.523.09 2.843.095 3.725.138q1.733.076 2.537.127t2.119.127 1.943.12q.628.045 1.299.134t1.37.2m16.588-6.852q.038.212.29 3.63.251 3.417.474 8.089l-.108.86m-6.285-12.579.225-.066.981-.097q.567-.01 4.016-.472 3.45-.462 6.26-.654.131.05.221.073.09.024.913-.044"/>
        <circle cx="-278.384" cy="1235.606" r="1" fill="#fff" stroke-width=".1"/>
        <path d="m-277.847 1240.143.076.472q-.006.032.194 5.282l-.042.666m5.493-9.436.056.8q-.003.163.233 2.002.235 1.839.556 2.811.073-.049.563-.837l.881-1.414q.39-.626.687-.945t.429-.408q.133-.09.303-.147.171-.057.945-.039.774.017 1.038.206.263.19.554.737.29.548.459 1.181.168.634.374 1.123.099-.123.538-1.002t.993-1.445q.552-.567.889-.66t.504-.089q.168 0 .512.234.344.229.567.563t.378.783q.154.45.235.961t.09 1.02.021 1.054-.018 1.191m7.051-2.316.141-.141.902-.472q.091-.033.714-.48.622-.447.927-.766.305-.32.452-.562.147-.241.189-.375.041-.134.067-.385.026-.252-.074-.534-.101-.281-.283-.424-.183-.142-.447-.234-.265-.092-.969.041-.703.134-1.23.556-.526.422-.588.503l-.252.335q-.19.254-.396 1.275-.206 1.022-.127 1.604t.221.935.408.754q.267.402.969.973.703.572 5.384.857l.915-.12m-148.295 43.419.758.051q.265.065 3.95.261 3.685.198 5.693.255 2.009.057 4.002.246t5.282.325 8.231.063q4.943-.074 9.267-.02 4.325.053 6.016.143 1.691.091 2.543.133.852.041 1.3.061.447.019.674.022.227 0 .764.128l.984.152m9.702-8.405q.204.916.502 3.782.297 2.867.7 7.938.071.12.018.166m.164-3.379.625-.247q.606-.094 2.276-.297 1.67-.204 3.407-.588.085-.011.379.01"/>
        <path d="m-327.715 1282.003-.114.689q-.059.602-.07 1.409t.01 1.623.183 2.328.284 3.211.131 3.032l-.096.981m6.723-3.207q.122-.03.753-.245.632-.215 1.103-.494.47-.28.708-.558.238-.277.303-.433t.091-.339q.025-.185-.166-.379t-.367-.273q-.175-.079-.511-.095-.337-.016-.446.014-.11.03-.314.203t-.462.553q-.259.379-.47.907t-.256.989.086 1.018q.132.557.566 1.167.434.611.729.862t.8.431.97.189.725-.026.734-.104 1.318-.345m8.18-2.482q-.204-.492-.351-.805-.146-.313-.235-.466-.088-.153-.257-.379-.168-.225-.302-.345t-.356-.272q-.223-.154-.798-.334-.574-.181-1.315-.07t-1.466.824-.813 1.411q-.087.696.07 1.101.158.404.466.771.307.367.624.574.317.208.62.314.304.106.787.102.484 0 .974-.183.49-.181.616-.25.126-.07 1.399-.835m.993-4.435-.051.18q-.168 1.306-.261 3.51-.093 2.205-.152 2.998m9.902-4.601q-.977-.655-1.045-.657-.765-.263-1.689-.293t-1.329.058-.608.191-.659.465q-.456.36-.758.915-.303.554-.331 1.113-.028.56.156.969.184.41.373.618.188.208.347.322.159.113.763.279.603.167.968.176.366.01 2.882-.949"/>
        <path d="M-296.032 1281.411q-.043.152-.128.901t-.175 1.94q-.089 1.192-.164 2.394l-.163 2.556q-.087 1.355-.152 2.4-.066 1.046-.087 2.119t.053 1.339.124.846"/>
        <circle cx="-291.632" cy="1288.296" r="1" fill="#fff" stroke-width=".1"/>
        <path d="M-291.532 1291.738q.092 1.317.201 2.726t.1 1.97m5.028-8.208q-.077.425 1.06 5.44.022-.046.423-.76.401-.713.929-1.396.527-.684.915-.997.388-.314.846-.425t.958-.01q.5.105.867.475.366.37.56.78.193.411.294.75t.304 2.958l-.096.727m9.893-1.879-.032-.325q-.076-.418-.474-1.25-.399-.831-.734-1.209t-.725-.652q-.39-.275-.821-.409t-1.069-.04-1.257.551q-.62.459-.935 1.048-.314.59-.381 1.277-.066.687.149 1.233.215.545.471.848t.869.575.92.286.665-.061.663-.194.891-.442.941-.514q0 .099.019.222.02.122.172 1.13.153 1.009.461 4.862.307 3.854.181 4.603-.125.749-.159.888-.033.14-.202.559-.168.42-.289.593-.12.172-.284.289-.165.116-.817.321t-1.092.177-.904-.23-.995-.776-.762-1.04-.368-1.081-.161-1.08.338-2.282m-178.263 35.747q1.518 0 3.142-.01 1.624-.013 2.65-.034t1.377-.024q.352 0 1.873-.066 1.521-.062 2.519-.116.998-.053 2.446-.107 1.448-.053 3.537-.159t3.289-.14 4.747-.034 5.478.01 3.475.01q1.546 0 5.235-.039 3.689-.04 5.455-.062t2.503-.033 2.109-.031q1.372-.018 2.305-.035t2.125-.05m28.248-4.215q-.132-.203-.175-.31-.044-.106-.256-.432-.213-.327-.357-.521-.145-.193-.255-.352t-.903-.989q-.792-.83-1.323-1.172t-1.347-.561-1.561-.133q-.745.087-1.053.21t-1.258.78-1.452 1.239-1.092 1.867-.72 3.42.439 3.994q.568 1.857 1.178 2.737t1.026 1.235 1.265.651q.849.295 2.572-.1 1.724-.396 2.999-1.255t2.596-2.433l.333-.659m12.289.235q-.049-.072-.636-.727-.587-.654-1.214-1.02-.628-.365-1.294-.438-.665-.073-1.397.297-.733.37-1.175.907-.441.538-.66 1.245-.218.708-.093 1.426t.534 1.18 1.021.716 1.179.252q.566 0 1.069-.197.503-.198.766-.423.264-.225.445-.432.181-.208.425-.551.245-.344 1.194-1.605m2.715-3.379.124.227.134.298.093.333q.147.636.445 1.997t.66 1.995q.252-.26.543-.785.292-.526.566-.916.275-.391.736-.708t1.002-.411.784-.038.497.23q.256.173.83 1.29t.891 2.586l.079.043q.056.024.158.248m6.923-13.038q-.02.126-.103.376-.082.249-.101 1.36-.018 1.11.315 3.872.334 2.763 1.87 8.219.667.203 1.609-.199.941-.401 1.816-1.33l.424-.647"/>
        <path d="m-343.939 1337.742.218-.062q2.931-.438 4.676-.566t3.648-.076l.367.011m7.051 4.632.33-.157.33-.091q.782-.282 1.318-.684.535-.403.684-.617.15-.215.202-.409t.043-.508-.279-.6q-.268-.287-.39-.342-.123-.055-.703-.059-.58 0-1.294.689-.715.692-.918 1.209t-.242.989.032.843q.071.37.237.699t.512.744.755.676.739.388 1.051.258 1.797-.01q1.076-.139 3.147-1.232m3.043-7.017-.203.47q-.079.268.041 2.282t.535 3.588q.068.051.452-.463t.865-1.336q.482-.823.629-1.044t.645-.749.971-.654.994.032q.521.159 1.221 1.639.699 1.481.888 2.456.188.975.106 1.119-.082.143-.193.474m6.03-12.115q.212.222.388.439.051.058.493 2.225.442 2.166.707 3.687t.52 2.182.654 1.131.684.634.461.224.581.103q.407.044 2.961-.906l.822-.416"/>
        <path d="m-305.369 1336.718.236.022.261.014.473-.015q.805-.058 7.474-.518m-112.639-146.067q1.113-.102 1.556-.153t1.108-.148q.664-.095.982-.138t3.243-.292q2.926-.248 5.997-.294t4.521-.023 2.35.026q.901 0 3.1.043 2.2.041 4.22.049 2.02.01 5.015-.052 2.994-.06 5.128-.106 2.133-.047 8.769-.076l.497.01m11.424-7.747-.008.452q-.123.686 1.041 13.719.04.032.123.26"/>
        <path d="M-351.882 1181.081q.072.024 1.779.329t2.517.585q.812.28 1.39.65.579.369 1.055.885.477.516.881 1.61.404 1.093.432 2.376.028 1.284-.137 1.952-.164.668-.866 1.954t-3.292 3.386q-.18.199-.516.774m13.372-3.245-.134-.302q-.401-.619-.616-.824-.216-.204-.459-.375-.243-.17-.449-.279t-1.186-.246-1.677.119-1.195.787q-.497.529-.616 1.053-.118.524-.006.897t.823.864 1.32.602 1.155.053 1.194-.384q.647-.326.962-.55t.78-.668q.017-.023.101.161l.377.836q.294.653.48 1.027.048.018.203.607m3.617-5.001.221.451q.017.112 2.271 3.682l.486.633m2.214-4.734-.037.295-.139.342q-.399.662-2.258 6.624-.025.12.047.254m17.554-5.065-.143-.156q-.024-.103-.194-.458-.169-.355-.47-.703t-.487-.471q-.188-.122-.61-.28-.423-.159-1.205-.068t-1.157.397-.643.761-.266 1.041q.003.584.362 1.088.358.504.778.73t.814.269.7-.034.76-.332q.456-.256 1.625-1.288m8.043-3.837-.033-.083-.002-.155q-.029-.251-.231-.983t-.695-1.382q-.494-.65-.911-.944t-.781-.367-.726.035-.623 2.087q-.263 1.979-.088 3.337.174 1.358.339 2.094t.667 2.998q-.024.018-.122-.019"/>
        <path d="m-308.348 1191.942.394-.176.981-.122q.153-.01 2.812-.333l.614-.101m14.466-1.686.09.266q0 .143.564 2.146t1.112 3.047.723 1.211.4.236q.226.07.644-.956.417-1.026.942-1.924l.179-.034q.253.023.747.576l1.098 1.226q.602.673.991.953.389.281 1.056.376.041-.019.59-.661.549-.643.8-1.779t.254-2.107-.175-1.789-.454-1.254q-.131-.049-.06.2m5.602 6.096.268-.072q.096-.058.436-.2.341-.141.939-.565.599-.424.905-.783.305-.36.524-.789t.247-.926-.174-.813-.682-.452q-.479-.136-1.039.022-.561.159-1.207.851-.645.692-.91 1.604t-.194 1.531.376 1.199.788 1.006q.485.425 1.292.765.807.339 1.599.423t3.09-.421m4.036-.599q.097-.122.882-.904t1.224-1.396.655-1.098.279-.972q.064-.488.011-.786t-.231-.528-.61-.369q-.433-.14-.848-.046-.416.094-.668.236-.253.143-.682.526t-.783 1.128q-.355.745-.385 1.353-.029.608.107 1.092.135.484.923 1.355.787.871 1.731 1.249t2.1.422q1.155.043 3.409-.466m1.458-13.407q.029.213.178 2.695.149 2.483.494 4.794.344 2.311.761 3.69l.024.045m5.302-6.687q-.316.214-.719.578-.404.364-1.387 1.493t-1.132 1.421-.206 1.011q.137.242.871.691t1.484.736q.749.286 4.044 1.956.144 0 .489.023"/>
    </g>
</svg>
