<svg xmlns="http://www.w3.org/2000/svg" xml:space="preserve" viewBox="0 0 960 480">
    <g fill="none" stroke="#fff" stroke-linecap="round" stroke-linejoin="round" stroke-width="5">
        <path stroke-width="6.667" d="m456.093 177.391-.574 2.046q-1.64 4.664-1.7 4.789-.062.127-2.079 5.93-2.019 5.802-3.813 10.826t-2.867 7.733-3.48 8.702q-2.407 5.994-3.841 9.582-1.435 3.587-3.195 7.847-1.761 4.261-2.484 6.04-.723 1.78-2.345 5.863-1.624 4.084-2.771 6.836-1.147 2.75-3.656 8.85-2.508 6.102-4.936 11.764-2.43 5.663-4.007 9.384l-.909 1.842m-.875 2.648.214.838q.477 8.464.581 9.655.105 1.192.25 4.167m.267-15.798q3.576-.024 3.85-.006.272.018 3.28-.03 3.006-.046 5.709-.146t5.196-.128q2.493-.03 3.455 0 .96.029 4.906.026 3.946-.002 7.906.008 3.961.011 4.176.01.213-.003 7.068.092 6.853.094 10.93.208 4.076.114 6.259.266t6.405.367 5.171.288 5.137.21q4.188.138 6.74.243m-85.289 17.647.495-.097q2.185.014 3.397.06 1.21.045 2.973.093t9.49.056q7.726.01 12.056-.037 4.328-.047 6.768-.096 2.44-.048 3.45-.083 1.012-.036 3.124-.17 2.112-.133 4.039-.218t21.728-.545l3.88-.112 2.457-.039q1.404-.08 2.994-.068 1.59.013 3.366.072t4.611.132m-43.888-127.691 3.012-.56 3.955-.417q.529-.076 7.836-.708 7.306-.632 10.89-.848 3.586-.217 12.775-.432t12.513-.248q3.323-.032 5.43-.079 2.108-.048 9.374-.057 7.266-.008 10.174.024 2.909.032 4.474.057 1.567.026 8.015.536m-.608.968-.01 1.136-1.326 4.002q-.059.178-.864 2.513t-1.77 5.172-1.277 3.7q-.31.864-1.117 2.93-.807 2.063-2.143 5.52-1.336 3.454-2.668 6.76-1.332 3.309-2.761 6.897t-2.301 5.681q-.87 2.093-.98 2.33-.111.238-2.596 6.342-2.486 6.104-4.494 11.312-2.006 5.207-3.092 8.29-1.084 3.082-3.145 8.922t-4.015 11.325q-1.953 5.487-3.316 9.388-1.362 3.902-2.741 7.578m44.503-96.461q-.576 2.317-1.16 3.903-.586 1.587-1.099 3.02-.512 1.434-2.173 6.227-1.663 4.793-2.622 7.481-.96 2.687-1.734 4.955-.774 2.267-1.22 3.51-.448 1.24-1.858 5.202-1.409 3.961-2.704 7.39-1.293 3.43-1.742 4.671-.448 1.24-1.802 4.788-1.353 3.548-2.076 5.487-.721 1.939-2.322 5.955-1.603 4.014-1.692 4.264-.091.25-1.016 2.53-.926 2.28-2.396 5.708-1.471 3.427-2.675 6.152-1.205 2.724-1.324 2.963-.12.237-1.325 3.092t-2.342 5.696q-1.134 2.843-2.112 5.248-.976 2.407-1.662 4.179-.687 1.772-1.399 3.497-.712 1.727-1.423 3.325-.71 1.599-1.162 2.648-.452 1.051-1.366 2.93m36.632-114.466q1.072-.17 1.206.026t4.26-.212m-3.692 2.731q-.074 1.434-.179 1.793-.105.357-1.08 4.084t-1.635 5.952q-.658 2.225-1.564 5.213-.905 2.987-2.422 7.19-1.518 4.202-2.514 6.73-.994 2.527-1.761 4.587-.767 2.058-1.868 4.901t-1.77 4.481q-.67 1.64-1.683 4.067-1.014 2.427-2.759 6.887t-2.635 6.676q-.89 2.214-.964 2.413t-2.144 4.939q-2.068 4.741-3.157 7.262-1.09 2.52-2.065 4.735t-1.963 4.628q-.99 2.415-2.141 5.045-1.152 2.632-3.848 9.059-1.03 2.743-1.699 4.38-.67 1.639-1.159 2.787l-1.646 3.857m-1.143-14.389.81 6.734q.1.955.697 4.295"/>
        <path stroke-width="2.667" d="M509.41 193.669q-.213.336-1.073 1.984-1.173 3.344-2.58 7.164-1.406 3.821-2.702 7.312-1.298 3.489-1.763 4.718-.467 1.23-1.652 4.178t-3.304 8.332q-2.117 5.384-3.521 8.83-1.404 3.447-2.24 5.334-.836 1.888-1.87 4.23-1.033 2.343-1.888 4.054-.856 1.709-3.4 5.95t-3.54 5.464-2.068 2.26q-1.07 1.038-2.326 1.978t-2.439 1.552-1.765.82-2.004.522q-1.424.315-4.18.446-2.758.129-3.571.06-.815-.07-1.123-.075-.308-.007-1.549-.299t-2.34-.777q-1.101-.485-2.772-1.65-1.164-.818-2.056-1.683-.892-.864-1.141-1.2-.251-.335-1.516-1.874-1.266-1.538-2.848-3.204m34.178-65.852q.412-.082 2.362-.278 20.974-.318 23.558-.2 2.586.117 5.664.212 3.08.094 8.116.244l2.326.125"/>
    </g>
</svg>
