<svg xmlns="http://www.w3.org/2000/svg" xml:space="preserve" viewBox="0 0 960 480">
    <g fill="none" stroke="#FFF" stroke-linecap="round" stroke-linejoin="round" stroke-width="2" transform="translate(-400.595 -452.511)scale(1.06063)">
        <path d="M405.943 626.788q-.092.561.483 6.891.576 6.329 1.215 10.301.64 3.971 1.416 8.657.777 4.686 1.022 6.182.246 1.495.415 2.401.147.019-1.124-8.382t-1.987-14.747q-.715-6.344-.397-8.574 3.661 7.235 4.767 9.809 1.105 2.575 2.578 5.58t2.413 4.726 2.446 4.031q1.505 2.311 2.558 3.64t1.929 2.248q.878.918 1.676 1.434.139-.224.055-5.054t-1.106-17.323-2.355-20.497q-.28-.57-1.046 1.131m27.82 35.95q-.079-.469-.533-1.889-.455-1.42-.934-2.531-.479-1.11-1.392-2.221t-1.708-1.643-1.713-.695-1.906.134-1.98 1.541-1.405 3.624-.105 4.016q.306 1.635 1.015 2.842.71 1.206 1.769 1.974 1.06.768 2.083.95 1.023.183 1.995-.021t2.116-1.61q1.143-1.405 1.591-2.577t1.235-4.146m9.474-22.372q.102 1.013.174 6.571.071 5.558.676 10.405t1.447 7.083 1.501 3.182 1.375 1.363q.718.417 1.258.508t2.197-.317 4.872-2.72"/>
        <path d="M453.349 647.378q2.786-.116 10.931-1.45m15.158 9.124q.192-.078 1.003-.301t1.769-.624q.96-.401 1.732-.846t2.096-1.676q1.325-1.231 1.884-2.411.558-1.181.567-2.057t-.099-1.223-.387-.709-.822-.666q-.542-.303-1.262-.358-.72-.056-1.491.227-.77.282-1.278.622-.507.34-.887.639-.381.3-1.208 1.501-.828 1.201-1.171 2.128-.343.926-.446 1.805t.225 2.535 1.523 3.052q1.196 1.395 2.389 2.054 1.194.659 2.757.963 1.563.305 3.424.154 1.861-.152 5.715-1.895m19.586-14.367q-.153-.068-.469-.213t-1.294-.449q-.979-.304-1.546-.416-.567-.113-.989-.157t-.763-.053q-.34-.009-1.625.147-1.285.157-2.314.862t-1.354 1.35q-.325.644-.254 1.344.07.7.871 1.726.802 1.027 3.265 2.889t3.829 2.905 1.818 1.494q.453.449.751.898t.474.885q.175.436.234.767.059.332.001 1.151t-.408 1.413-1.125.976-1.576.514-1.889.074-1.352-.091-2.071-.547q-1.805-.514-2.794-1.017t-1.418-1.151q-.044-.17-.574-1.786m85.496-60.011q-.167.958-.186 1.194-.019.235-.07 1.587t-.062 4.53.326 8.108q.335 4.93-1.086 11.514-.394.28-2.063.343-1.669.064-3.076-.6t-2.109-1.296-1.321-1.575-.756-3.482m27.292 2.189-.306-.279q-1.144-1.272-1.594-1.673t-1.646-1.129-2.373-.914-2.001.013-1.563.982q-.74.785-1.172 2.113-.432 1.329-.197 2.843t.742 2.103q.506.59 1.972.964 1.465.375 2.415.235t1.443-.337 1.032-.535.827-.678.812-1.225 1.609-3.145m6.231-3.308-.421 1.025q-.177.66-.118 2.98t.564 3.558.941 1.597.967.493 1.49-.174q.96-.306 2.36-1.549t2.111-2.174 1.039-1.561.389-.792.028-.232-.088-.063-.076.152.113 1.058.337 2.055q.202 1.144.714 2.724t1.766 4.201m5.429-13.96q-.052.256-.071.626-.019.369.01.821.03.452.045 1.031.015.58.297 2.285.283 1.706 1.2 4.133.032-.283.098-.616.067-.332.182-.807t.534-1.611.868-1.877.937-1.159.737-.554 1.383-.536 1.891-.46 2.674-.093m6.432-1.845-.12.704q.002.372.105 2.537t1.477 6.583q1.846-3.641 2.261-4.432t.85-1.381q.433-.59.996-.971.562-.38 1.119-.373t1.033.263.755.526l.487.471q.209.203 1.324 2.292t1.787 4.29l.77 1.67m15.687-4.505q-.1-.145-.066-.415t-.073-1.081-.163-.977-.251-.798-.59-1.239q-.394-.605-1.403-1.095t-1.838-.473q-.83.017-1.879.678t-1.492 1.262-.765 1.958.3 2.959 1.287 2.233 1.457.905 1.144.261q.352-.012 1.049-.24.698-.228 1.157-.516t.845-.586.872-.744.802-.753l-.013.047q.058-.028.46.991t1.043 2.574q.642 1.555 2.617 4.25m1.33-34.36q-.027.518 1.136 11.277 1.163 10.76 3.044 19.676.153.115.721.632m61.908-50.381q.222.792.503 8.329.28 7.537 1.155 14.852.075.198.167.292t.106.286"/>
        <path d="M745.776 579.427q.272.085 1.684-.014t2.544-.055q1.134.044 1.608.119t1.395.252 2.398 1.003q1.476.828 2.83 2.552t1.911 4.085.433 3.927-.714 3.053-2.2 3.412-4.051 3.212q-.313-.113-1.407-.358m22.573-3.372-.291-.368q-.02-.597-.13-1.028t-.581-1.34-1.501-1.606-2.434-.734q-1.405-.035-2.281.382-.875.417-1.579 1.241-.703.825-1.015 1.695t-.296 2.106.347 2.018 1.136 1.551 1.949 1.041 2.221.064 2.445-1.149q1.366-.941 2.014-1.751t.864-1.249.238-.577q.02-.138-.001-.189t-.058-.066-.108.162.082 1.098.488 2.123.932 2.504 2.059 3.731m-29.004 34.818.148.301q.482 1.926 1.95 8.363t2.33 10.52q.122-.119.223-.592.101-.474.049-1.247"/>
        <path d="m749.292 643.845 1.372-.746.576-.388q1.162-.523 2.965-.888 1.803-.364 2.753-.274.951.091 1.705.5.755.408 1.285 1.838t.21 3.294-.82 3.186q-.502 1.323-.869 2.333-.368 1.01-.637 1.723-.018.081.293.41l.239.233q1.357 1.273 4.312 3.226t8.436 3.708q.097-.032.15-.158.053-.125.11-.307.057-.181.439-1.083m10.585-1.183.716-.335.754-.456q.769-.554 2.534-2.132 1.765-1.577 2.346-2.549t.676-1.672-.598-1.414-2.265-.952-3.271.558-2.714 2.177-1.234 2.483-.077 1.956 2.225 2.843 4.54 2.799 3.741.902 2.506.005 4.496-1.503m9.802-4.835q.523-.16.802-.227.28-.067.458-.174.178-.108.361-.267.184-.159.323-.446.14-.286.172-.301t.138-.642-.029-1.111-.502-.872q-.369-.388-.936-.671-.566-.282-1.726-.404-1.159-.121-2.285.214-1.125.335-1.958 1.047-.832.712-1.305 1.733t-.438 2.055q.036 1.032.576 1.786.541.753 1.787 1.32 1.246.566 2.272.59 1.027.023 1.698-.12.672-.144 1.724-.778 1.052-.633 2.816-2.451.148.319.695 1.243t.998 1.636q.451.713.997 1.256.546.544.909.82.362.276.683.459.32.184.702.328t.997.403m13.773-7.941q.313-.125 1.234.068.228-.175.346-.476t.131-.645-.05-.696-.142-.697-1.016-1.413-2.583-1.766-2.798-.699q-1.15-.001-1.941.246t-1.515.833-1.372 2.462-.437 3.457.573 2.378.972 1.581q.612.783 1.189 1.236t1.264.745 1.551.395q.862.102 2.257-.396 1.395-.499 4.25-3.839"/>
        <path d="m830.676 635.039-.113.477q-.024 2.069-.064 2.352-.039.283.441 6.888t1.266 10.521 1.245 5.197.682 1.718q.224.437.68.849.34-.369.564-2.589m7.998-11.644q.046-.097-.195-.371l.004.151.337.347m.856 6.758q.185.721 2.559 8.609l.356.795m4.628-16.823.296.585q.218 1.093 1.412 5.142t2.656 6.026q.452-.148 1.199-1.689t1.335-2.65q.588-1.108 1.034-1.719.447-.61 1.062-1.099.615-.49 1.16-.576.544-.087 1.653.691 1.11.778 2.017 2.555.908 1.776 1.34 3.161t1.064 5.353q.037.041.059.636m17.946-3.245q.218.074.431.078t.377-.08q.163-.086.291-.187t.233-.402q.104-.3.078-.951-.027-.651-.469-1.698-.442-1.048-1.703-2.234t-2.691-1.706-2.918-.325q-1.486.194-2.283.987t-1.198 2.473q-.402 1.681-.037 3.344t1.296 2.898 2.264 1.832 2.322.661q.991.064 2.289-.338 1.299-.403 2.229-1.136.93-.734 1.328-1.186t.569-.674q.172-.221.133-.215t-.009.343.113.919.377 2.392.927 5.196 1.066 6.688q.433 3.304.315 5.76-.119 2.456-.698 3.939-.579 1.482-1.449 2.408t-1.68 1.248-1.905.071-2.2-1.393q-1.107-1.143-1.668-2.565t-.684-2.755q-.124-1.334.002-2.526.125-1.193 1.855-5.366m-125.493 23.742q.081.261 3.266 25.29.045 0 .178-.602"/>
        <path d="m745.776 703.271.212.002 1.223-.192q.299-.13 16.345-3.433l1.095-.284m18 20.526q-.352-.207-1.197-1.506-.846-1.3-2.031-2.152t-2.296-1.173q-1.11-.322-2.266-.16-1.156.161-2.118.942-.961.781-1.629 2.063t-.768 2.558q-.1 1.277.2 2.378.3 1.1 1.035 1.973.736.872 1.551 1.34.814.467 1.689.688t1.981.185q1.106-.035 2.817-1.125 1.71-1.091 2.576-2.912l.128-2.31m8.144-3.97q.112.559.206 4.47t.944 9.009 1.587 8.937 1.523 8.123q.212.32.112.639"/>
        <path d="M789.538 719.356q1.026-.367 1.948-.57t2.752-.183q1.831.019 2.685.257t2.051 1.152 1.778 2.293q.581 1.38.486 2.577-.096 1.197-.809 2.368t-1.968 1.941-2.131.809-1.469-.465-2.135-2.505m15.486-12.777-.052-.328q.179.001.781.073m.802 7.47q.206.712.352 1.361t.204 1.03.367 2.002 1.336 6.666m17.016-8.412-.095-.464q-.782-2.121-1.894-3.354t-2.203-1.453-1.956.298q-.867.517-1.419 1.243t-.909 1.943-.291 2.342q.067 1.124.466 2.026.4.901 1.348 1.857t2.455 1.47 3.179.489 5.418-1.497m11.916-10.194q-.849-.607-1.177-.816-.327-.209-.597-.311t-.616-.156-.912-.061-1.058.146-.992.581-.74 1.113-.184 1.14q.055.454.264.903.208.449.586.889.377.44.682.691t.644.568q.34.316 2.825 1.557 2.484 1.242 3.92 1.979t2.044 1.248.972 1.188q.365.678.446 1.107t.067 1.276-.31 1.475q-.296.627-.504.855t-1.384.801-2.713.729q-1.537.154-2.407.041-.871-.114-1.733-.475t-1.206-.619q-.345-.257-.742-.816t-.732-3.185m-50.795-149.098q-.251 1.196-.316 1.42-.066.224.046 4.917t.976 8.292 1.426 4.798 1.303 2.147q.739.948 1.614 1.211t1.977-.057 3.96-2.278"/>
        <path d="M783.38 593.418q.689.073 10.33-1.119m13.974 7.47q.237-.183.975-1.067t1.171-1.696.485-1.178.009-.749-.648-.669q-.603-.287-1.26-.192-.656.096-1.129.393t-1.136 1.122q-.664.824-.833 1.353-.169.528-.163 2.042t1.599 3.173q1.592 1.66 3.171 2.463t3.141 1.186 2.948.339 4.988-.628m107.616-29.154.253-.263.414-.602q.381-.441 1.865-1.91 1.483-1.47 2.725-2.179t1.901-.804 1.04-.019.491.133q.111.056.505 1.013t-2.573 7.517q-2.966 6.559-4.731 12.019.222.346 2.583 0t6.048-1.346l.104.006q.204-.135 1.308-.661m17.144-5.752.391-.939q.245-.587.406-2.036.161-1.448.002-2.703t-.655-2.188-1.772-2.002q-1.275-1.069-2.441-1.272-1.165-.202-2.405.03t-3.115 2.002-2.761 4.596-.732 4.727q.156 1.9.59 2.992t1.002 1.838 1.522 1.347 2.083.74 1.88-.078 1.508-.685q.756-.466 1.202-.905t.974-1.161 1.72-2.915m8.344-8.349q.149-.203.524-1.091t.801-1.621q.426-.734.748-1.111.321-.378.942-.938t1.062-.781 1.479-.27 1.759.775q.722.822 1.037 2.221.316 1.398-.259 3.623-.575 2.224-2.575 5.766t-3.981 6.977q.035-.004.337.066t.408.115.312.04 1.275-.105 2.373-.273q1.303-.174 2.395-.28t2.243-.145l1.637-.115m7.488-12.522q.062-.477.29-1.298t.663-1.938 1.47-2.407q1.034-1.292 2.114-1.788 1.081-.496 1.78-.409t1.177.386.698.604.493.926q.272.62.491 2.161t-.486 4.314-2.516 5.744q-1.81 2.971-2.821 4.188-1.01 1.218-1.477 1.742-.466.524-.71.774-.244.251-.552.507.225-.122.292.003 3.301-.585 12.789-1.721.051-.025.68-.004m56.953-14.129.115-.232q.53-.877 1.337-1.872.808-.995 1.683-1.684t1.552-.957 1.691-.272 1.267.092q.251.095.814.638t.868 1.676-.134 3.499q-.439 2.364-2.248 5.735t-3.093 5.407q-1.283 2.035-3.061 4.828l.311.162q-.022.087 2.543.263 2.565.175 7.633-.498l1.767-.572m19.53-6.223q.18-.475 1.99-1.319.255-.271.856-1.988.602-1.717.486-3.412-.117-1.696-.863-3.181-.745-1.485-1.944-2.572t-2.784-1.575q-1.585-.487-3.176-.3-1.59.187-3.833 1.795-2.242 1.608-3.409 3.75t-1.197 5.141q-.031 2.999 1.507 5.14t3.329 3.037 3.272.954q1.483.058 2.52-.164 1.038-.223 2.257-.996t1.88-1.623.995-1.543 1.157-3.46m7.615-3.971.299-.694.982-2.75q.379-1.02 1.666-3.046t2.627-2.924 1.88-.938q.539-.041.76.014t.653.387.884 1.345q.451 1.012.576 2.069t-.016 2.549-.936 3.736-3.265 5.712-4.496 5.396q-2.026 1.93-3.817 2.939-.094-.229 1.645-1.01 1.738-.781 4.424-1.394t5.051-.726q2.364-.114 3.608-.048 1.244.065 2.273.138t2.346.143q.036-.011-.049.042-.084.052 0 .119m2.964-16.226q.457-1.374.744-1.872.286-.499 1.595-1.726t2.733-1.894 2.875-.685q1.449-.017 2.393.381.945.398 1.863 1.629.919 1.231 1.144 2.92.224 1.69.104 2.751t-1.684 4.271q-1.563 3.212-2.948 5.169-1.384 1.956-2.275 3.051-.025.003.059-.011.085-.015.588-.032t1.176-.036 1.006-.064 3.43-.277 6.373-.135l.293.16q.108.058.609.106m1.457-8.272q1.186-.466 1.671-.579.484-.112 5.599-1.279m14.648-12.445.295.788q.029.421.564 6.391t1.192 14.924q.268.273.39-.126m20.387-10.053q.408-1.407.45-1.776.043-.368.01-1.631-.036-1.263-.307-2.469t-.545-1.778-1.381-1.884-3.43-2.062-3.984-.411-2.718 1.154q-1.056.814-1.69 1.838-.634 1.023-1.089 3.549t.167 4.987q.62 2.46 1.444 3.666.823 1.206 1.703 1.963.879.756 2.019 1.157 1.139.401 2.212.396t1.672-.218 1.451-.757 1.951-1.906 1.8-2.814l.215-1.742m9.069 2.583q.555-.316 9-2.38m11.66-12.573q.01.556-.046 1.835-.053 1.279-.06 2.669-.01 1.389 0 2.665t.225 6.859.579 12.094q.045.176-.046 1.608m11.992-27.145q-.132.562-.233 3.109t-.01 7.596 1.155 13.225q.099.284.071.771m-252.837 47.245-.035.633.045.813q-.052.354.579 5.713t1.385 9.476 1.968 8.817l.019.111q.196.366.752.367t.61-.003l7.321-.564"/>
        <circle cx="993.484" cy="645.103" r="1" fill="#FFF" stroke-width=".1"/>
        <path d="M997 652.255q-.362 1.428 1.585 10.397m5.629-14.902q.409 1.163.481 1.474.072.312 1.32 4.091 1.249 3.779 2.636 7.15.033.058.81-1.445t1.601-2.968 1.432-2.107q.608-.641.946-.804t.588-.192.356-.074 1.018.305q.913.349 1.996 1.656 1.084 1.306 1.875 3.538.792 2.232 1.503 4.074m3.516-25.019.151.486q.369 1.675 1.93 8.279t2.937 11.445q.037.104.01.902m7.816-14.367q-.672.943-.892 1.338t-1.083 2.199-1.011 4.536q.01.342 1.774 1.355 1.766 1.013 3.413 1.465t2.877.89 3.522 1.133m13.846-9.531-.715-.38q-.18-.023-.968-.368t-1.525-.551-1.706-.275q-.969-.07-1.843.144t-1.261.572-.522.863-.089.901q.047.397.593 1.033t4.401 2.373q3.855 1.736 4.504 2.062t1.522 1.349 1.151 1.525q.277.503.657 1.712t.323 1.92-.358 1.234-1.695 1.06q-1.395.535-2.787.535-1.393-.001-3.1-.569t-2.683-1.15-1.818-1.537l-1.427-1.267m-71.052 45.484q-.019.242 1.705 21.125.073.157.08.267m-1.658-20.323q.682-.205 1.036-.254.353-.048.408-.063t1.528.021q1.474.036 2.182.252.707.217 1.101.441.393.225.765.622t.462.581.351.849.006 1.965-.551 2.003-.477 1.169-.543 1.204q.172-.065.826-.056t1.457.056 2.034.295q1.233.249 2.152.609.919.361 1.441.715.523.355 1.047.917t.775 1.083.42 1.774-.195 2.402-.638 1.547q-.273.4-.816.943-.544.544-3.256 1.449t-4.466.899-2.365-.187q-.61-.18-.969-.462-.359-.281-1.055-1.252m29.861-3.105.049-.212q-.03-.091.047-.482-.077-.707-.369-1.477-.292-.769-.427-.973-.136-.203-1.19-.877-1.054-.675-2.217-.798-1.162-.124-1.864-.009-.702.114-1.489.552t-1.099.741-.833 1.217q-.522.914-.53 2.239-.01 1.325.158 1.803.167.478.623 1.021.457.543 1.235.915.778.373 2.331.347 1.553-.025 3.063-.687 1.51-.663 5.281-3.651m11.005.992q.032-.187.16-.483.128-.297.24-.658.113-.361-.013-1.631-.125-1.27-.625-1.939t-2.213-.957-2.971.465q-1.258.752-1.948 2.191t-.669 2.416.323 1.621.986 1.141q.685.499 1.934.718t2.071.062 1.728-.641 1.617-1.153 2.295-3.34m5.156-16.48.071.695q-.107 1.422 2.313 17.28l.059.046q.204.079.672.177m8.217-11.848-.467.438q-.602.627-2.211 2.909t-1.897 5.035q.368.427 2.037.946t3.279.651q1.61.134 2.455.367.845.234 2.233.114m15.559-6.286q-.451-.237-.841-.991-.391-.753-.841-1.292-.45-.538-.848-.828t-1.888-.54-2.399.136q-.908.384-1.422 1.01-.515.626-.586 1.398-.072.772.27 1.465.342.692 1.92 1.71 1.578 1.017 3.521 1.836t3.428 1.548 1.871 1.17.8 1.143.597 2.105.129 1.703-.277.669-1.767.886-2.799.442q-1.253-.076-2.524-.583t-1.979-1.045-.984-.947q-.277-.409-1.124-1.998m70.321-51.062.345-.127.3-.085q.683-.059.785-.049.102.011 11.414-.605m13.173-13.642q-.136-.39-.146-.527t-.378-1.273-1.449-2.47-1.874-1.615q-.792-.282-1.243-.211t-.637.166-.55.795-.491 2.283 1.007 5.021 2.396 6.373 1.623 4.413.341 1.535-.257.476"/>
        <path d="m1145.719 664.544.652-.132q.177.044 11.209-.988m4.7-2.647-.017.653q.198 1.099.714 2.492.517 1.393 1.278 2.407.762 1.015 1.348 1.376.585.361 1.237.373t1.987-.84 2.159-2.025 1.067-1.828.296-.945-.226-.413q-.197.899 2.537 9.499l.592 1.888m5.557-21.647q.08 1.472.75 5.475t1.476 6.089 1.454 3.037 1.384 1.598 1.51.899q.773.254 1.483.378t4.532-1.123"/>
        <path d="m1176.637 663.03 1.603-.36q.123-.063 2.548-.337 2.425-.273 9.167-1.556m9.273-.992q-.319 1.056-.377 1.396t.28 2.232.953 2.946 1.187 1.554 1.251.676 1.588-.05q.91-.226 1.986-1.1t1.733-1.779.989-1.545q.334-.641.266-.725-.067-.084.529 1.364.596 1.447 1.259 2.757t1.293 2.266 1.294 1.57l.8 1.011m1.385-14.431.207.461q.151.589 5.431 9.915.14.023.353-1.297.214-1.321.545-2.721t.687-2.2.956-1.442 1.111-.928q.511-.288.671-.341l.781-.254q.62-.2 1.563-.264.943-.065 2.142.203m5.685 6.019q1.677-.735 4.017-2.212 2.34-1.476 3.074-2.316t.911-1.372q.176-.533.11-.926-.066-.394-.514-.719-.447-.324-1.383-.416t-2.11.42q-1.174.511-2.486 2.049t-1.656 2.943q-.345 1.405-.138 2.492t.853 1.962q.648.876 13.569 3.72"/>
        <circle cx="945.082" cy="537.249" r="1" fill="#FFF" stroke-width=".1"/>
        <circle cx="961.57" cy="536.982" r="1" fill="#FFF" stroke-width=".1"/>
        <circle cx="977.585" cy="535.659" r="1" fill="#FFF" stroke-width=".1"/>
        <circle cx="1082.016" cy="533.813" r="1" fill="#FFF" stroke-width=".1"/>
        <circle cx="1098.577" cy="533.012" r="1" fill="#FFF" stroke-width=".1"/>
        <circle cx="1117.051" cy="532.821" r="1" fill="#FFF" stroke-width=".1"/>
        <circle cx="1123.016" cy="624.521" r="1" fill="#FFF" stroke-width=".1"/>
        <circle cx="1135.933" cy="625.31" r="1" fill="#FFF" stroke-width=".1"/>
        <circle cx="1148.104" cy="625.043" r="1" fill="#FFF" stroke-width=".1"/>
        <circle cx="1136.573" cy="707.632" r="1" fill="#FFF" stroke-width=".1"/>
        <circle cx="1153.061" cy="706.041" r="1" fill="#FFF" stroke-width=".1"/>
        <circle cx="1169.95" cy="704.921" r="1" fill="#FFF" stroke-width=".1"/>
        <path d="M1132.398 760.013q.992-.249 1.665-.349.674-.099 2.209-.37t2.472-.469 6.86-1.362l2.026-.618m15.018-17.728q-.312-.888-.616-1.578-.304-.689-.969-1.758-.664-1.069-1.731-1.941t-1.994-1.111q-.926-.24-1.28-.205-.353.034-.967.395-.615.361-.674 2.461t.501 4.154 1 3.249 4.59 11.09q.199.329.555.4"/>
        <path d="M1153.83 746.205q1.56-.333 9.547-1.921m9.401-2.647q.234 1.351.83 2.948t1.952 3.497 1.863 2.102 1.584-.347 1.724-1.12 1.11-1.138.712-1.04q-.028.075 0 .179.028.105.11.271.082.165.076.172-.01.007.502 1.171.508 1.163 1.219 2.479t1.026 1.881 1.254 1.512l1.068 1.202m2.187-23.772q-.031.363-.027.931 0 .569.17 2.165.167 1.597 1.129 4.965.963 3.368 1.84 5.21t1.987 3.155q1.109 1.313 2.047 1.686.938.374 1.6.365.663-.008 3.114-1.857"/>
        <path d="m1188.464 744.207 1.265-.336q.292-.086 8.082-1.573m10.33-1.858-.23 1.299q-.016.527.527 2.419.544 1.892 1.511 3.144.967 1.251 1.802 1.677.834.427 1.291.433t1.016-.139 1.6-.982q1.042-.837 1.898-2.125.855-1.287 1.221-2.222.365-.936.317-1.142-.048-.207-.113-.161t-.096.167-.031.466.036.527q.034.181.042.403.01.222.259 1.345.252 1.124.832 2.874t1.879 4.005l.996 1.909m7.488-15.882q-.057.351-.126.806-.07.455-.049.509.02.055.01.774-.01.72 1.061 3.615t2.419 4.902q.054-.112.259-1.571t.368-2.684q.162-1.227.438-2.135.275-.907.704-1.721.43-.815 3.048-2.284.26-.027 1.471-.338m8.015 8.793q.942-.257 2.154-.88 1.213-.624 3.576-2.704t2.771-3.122q.409-1.041.249-1.75t-1.383-1.106-2.709.173q-1.484.57-2.697 1.716-1.213 1.147-1.835 2.682t-.561 2.379.095 1.06.798 1.336 3.529 2.419 4.974 1.468 2.908.145q.701-.026 1.316-.185.615-.158 3.558-.907"/>
        <circle cx="936.391" cy="765.271" r="1" fill="#FFF" stroke-width=".1"/>
        <circle cx="951.094" cy="764.405" r="1" fill="#FFF" stroke-width=".1"/>
        <path d="M965.724 764.405q.246-.195.361-.329-.066-.044-.103.023t.087-.047.456-.639M582.66 677.618l.012.593q.016.627 1.042 3.558t2.575 6.16 2.518 4.757q.971 1.529 1.596 2.036t.88.485.399-.141.262-.589q.119-.471.187-.85.069-.38.135-.592.065-.213.146-.656.082-.444.418-2.61t2.507-8.894q.017.144 1.541 2.976t2.983 5.096 2.279 2.971 1.744.844l.696-.913q.173-.371.461-1.103.287-.731 1.257-4.295.969-3.564 1.897-11.28l.018-.278-.119-1.64"/>
        <circle cx="615.691" cy="678.814" r="1" fill="#FFF" stroke-width=".1"/>
        <path d="M615.564 686.883q.193.538.255.684-.072.413 1.382 8.589l.148.793m5.174-24.23.133 1.11q.08.782.718 7.163.639 6.381 1.566 10.373l.051.042q.219.055.349.01.13-.046.153-.029m6.832-11.059q-.071.14-.554.921-.483.78-.943 1.972t-.561 1.53-.073 2.122q.071.154.538.597.466.444 1.386 1.06.921.616 1.494.959.574.342 1.579.838 1.005.497 2.431 1.063.181.002.989.2m10.658-12.051-.281.969-.035 1.667q.062.619.803 12.5l.369 1.815m-2.769-25.096-.856-1.858m-67.812 73.288.252.933q.04.284 2.056 4.996t3.35 6.935q1.334 2.224 2.161 3.032.827.809 1.878.956.371-.176.686-3.142.315-2.967.748-8.941-.037.009.974 1.552t1.862 3.128q.852 1.584 1.991 3.554 1.139 1.971 2.105 3.083t2.306 1.293q.324-.431 1.033-5.162t.4-9.193-.856-7.228-.912-4.04-.741-2.08l-.418-1.791m10.586 17.015-.069.769q.079.56 3.247 11.783.055-.022.183-.863.129-.841.511-3.441.383-2.6.896-4.419.514-1.818 1.264-3.019.749-1.202 1.976-2.156t4.18-2.497m6.686-.128q-.462-.011-.431.037.03.048.125.027-.372-.038-1.151.204m1.858 6.681q-.015.471-.012 1.249t.314 4.393q.312 3.616.706 5.934t1.233 5.044m10.476-31.713q-.103.487.349 7.851.453 7.364 1.818 11.523t1.735 4.523.665.542q.295.18.669.285t.835.103 1.092-.126q.633-.123 2.238-.802"/>
        <path d="M636.352 750.104q.702-.323 10.202-1.845"/>
        <circle cx="655.026" cy="741.502" r="1" fill="#FFF" stroke-width=".1"/>
        <path d="m657.558 748.386-.202.836q0 1.642.005 1.998.004.355.171 1.772.166 1.418.475 3.321t1.064 5.245m7.287-20.12q-.203 1.767 2.735 13.952.093.134.956-1.316t1.631-2.635 1.195-1.574.763-.516.69-.056q.354.069 4.38 7.178l.823 1.574m17.162-1.183q-.067-.204-.142-.41t-.066-1.091-.287-2.269q-.294-1.383-.544-1.929-.251-.547-.885-1.261-.635-.715-1.485-1.06t-1.383-.326-.946.131-1.224.977q-.809.864-1.243 2.392-.434 1.527-.302 2.909.131 1.383.655 2.338.525.956 1.109 1.449t1.499.76q.916.267 1.714.026.799-.241 1.485-.711.687-.469 1.032-.727.344-.258.653-.466-.003.254.383 1.852t1.435 6.612q1.05 5.014 1.242 7.742t-.059 4.338-.745 2.508-2.715 1.837q-2.221.94-4.116.754-1.894-.187-3.211-.901-1.318-.715-2.164-1.433-.845-.718-3.336-5.703m-262.429-99.676q1.644-.132 6.629-.349 4.986-.217 8.322-.344 3.337-.128 6.032-.253t4.939-.243 3.596-.168 5.446-.116 6.488-.077 4.544.021q2.151.03 10.2.161 8.049.13 12.944.15 4.894.02 7.476.041 2.583.022 10.299-.87t8.253-1.096 1.103-.504q.565-.299 1.623-1.215t1.425-1.425q.368-.509.838-1.39t.726-1.647q.257-.765.408-1.871.152-1.106.198-1.572t.043-.547q-.005-.081-.01-3.622t-.131-6.013q-.126-2.471-.305-6.22-.18-3.749-.338-6.378t-.302-4.227-.239-3.025-.318-3.558l-.315-3.015q-.092-.885-.255-1.999-.163-1.113-.629-3.749t-1.234-5.004-1.609-3.935-1.004-1.843q-.164-.275-.709-.857t-1.541-1.236q-.995-.655-3.095-1.391t-6.815-1.31q-4.714-.575-8.08-.687-3.366-.111-6.848-.235t-8.27-.097q-4.789.026-11.976.344t-10.678.432q-3.491.115-6.032.177-2.542.063-9.972.567t-11.111.852q-3.681.349-7.396.755-3.716.406-6.299.625t-5.29.541q-2.706.322-4.782.622-2.076.299-3.975.7t-3.904 1.035q-2.006.635-3.231 1.233t-1.947 1.072q-.723.475-1.236 1.015-.512.54-1.162 1.599-.65 1.06-1.322 2.917-.673 1.857-1.047 4.531t-.422 5.765.017 4.33.241 3.264.362 3.699.364 3.423q.179 1.748.314 3.185t.446 4.311q.312 2.874.407 3.656.096.782.279 2.339.182 1.557.626 4.046.444 2.488.517 2.855t1.078 3.638q.837 1.964 1.653 3.258t1.301 1.829.692.687 2.844 1.189 4.14 1.338q1.505.301 2.479.412t2.254.22 3.045.21q1.763.101 3.004.118 1.24.016 6.307-.082M595.83 638.25q2.029-.141 3.504-.322 1.475-.18 2.215-.258t1.529-.141 3.416-.193 6.519-.237q3.891-.108 5.087-.146 1.196-.039 2.843-.066t3.046-.059 3.747-.096 8.253-.11 7.248-.047 5.048.023q3.707.025 9.942.094t10.115.053 8.584-.399 5.832-.628 2.222-.589 2.012-.806q.918-.464 1.386-.785t1.007-.868.864-.957q.324-.41 1.057-1.976t1.012-2.565.412-2.135.189-1.904.112-2.473q.055-1.704-.222-10.076-.276-8.372-.586-10.376-.31-2.005-.523-2.954t-1.016-3.233q-.918-1.907-1.351-2.594-.432-.688-1.306-1.68t-1.507-1.48-1.081-.764q-.447-.277-1.149-.596-.702-.32-6.978-1.356-6.275-1.035-7.548-1.083t-3.656-.175-5.975-.23q-3.592-.102-7.928-.149t-4.432-.041q-.094.005-6.846-.005t-15.641.341-13.296.763-6.745.611q-2.336.198-5.147.569t-5.91.777q-3.1.405-4.416.54-1.315.135-4.481.625t-6.01 1.203q-2.844.714-4.286 1.405-1.443.691-1.784.951-.342.26-.555.502-.212.243-1.032 1.685-.819 1.443-1.174 2.296-.354.854-.775 2.468-.42 1.613-.84 7.038-.421 5.425-.059 12.409t.644 8.289q.281 1.306.977 3.04t.791 1.947.559.921.725 1.027q.261.318.703.663.442.344 1.135.74.694.397 2.035.914t2.928.967q1.587.449 3.068.68 1.48.231 4.342.431t4.022.194 1.734-.024 3.919-.048m-12.971 20.119 1.688-.212q.333-.11 1.918-.353 1.586-.243 2.993-.367t2.183-.169 2.784-.178 3.111-.241q4.727-.247 6.568-.295l3.392-.087q1.551-.04 6.197-.072t18.733.831q14.086.862 14.97 1.175.883.312 1.517.661.633.348 1.512.873.792.605 1.276 1.171.485.566 1.407 2.038.921 1.472 1.677 3.268t1.137 3.317q.381 1.522.5 2.533.12 1.011.189 1.575t.106 1.382.008 2.918-.025 3.667.04 2.047.063 2.34-.009 5.26-.053 3.683q-.015.282-.17 2.564t-.715 4.169q-.56 1.886-.586 1.935-.025.048-.99 1.349-2.689 1.336-4.105 1.655t-6.927.816-8.262.713-5.283.365q-2.534.149-3.486.181t-7.538.242-10.184.297q-3.599.086-5.437.191-1.839.104-3.856.197t-5.147.095-6.617-.389-4.792-.785-2.195-.763-1.743-.918q-.852-.548-1.627-1.615t-1.414-2.281q-.639-1.215-1.166-2.438t-.964-2.378-.764-2.047q-.326-.893-1.142-3.148-.817-2.256-.962-2.717t-.399-1.392-.675-2.935q-.422-2.004-.642-3.248-.219-1.243-.326-2.383-.107-1.141.108-5.249.216-4.108.553-5.344.336-1.235.382-1.388t.499-1.138q.452-.986 1.035-1.786.582-.799.988-1.165.406-.365.447-.437t2.094-1.072 3.45-1.37q1.396-.371 2.273-.558t5.245-.796"/>
        <path d="m581.856 723.907 1.373-.024 1.513-.129q.454-.133 4.786-.468t8.221-.577q3.889-.241 8.548-.618 4.658-.377 6.547-.505 1.889-.127 6.238-.267 4.348-.139 7.939-.22t5.643-.13 8.454-.184q6.403-.134 9.739-.267 3.337-.132 7.683-.362t5.787-.332 5.422-.476 7.3-.66q3.319-.287 4.624-.347 1.304-.061 2.842-.096 1.538-.034 5.058.037t6.742.548 5.072 1.107 2.932 1.242 1.469.914.962 1.003.985 1.45q.409.749.747 1.476.338.726 1.009 3.448t.795 3.968.172 1.624q.047.378.101 1.913.053 1.535.044 2.155-.009.621.085 3.453.095 2.833.229 5.193.133 2.36.163 2.792t.062 1.727-.136 3.51-1.051 6.1l-.472 1.155q-.949 1.124-1.947 1.962-.997.838-1.159.998t-1.439.905q-1.278.745-1.93 1.089t-3.44 1.416-5.151 1.637-3.122.676q-.761.11-3.372.524-2.612.414-4.393.594t-7.143.505q-5.362.326-7.956.481-2.593.156-5.979.432t-3.43.275-4.271.243q-4.226.244-9.73.439-5.503.196-8.247.234t-4.186.065q-1.443.026-1.544.019t-3.902-.01q-3.801-.005-6.841-.07-3.04-.064-4.841-.1-1.801-.035-2.399-.036t-3.089-.057-3.888-.064-4.239.029q-2.843.038-4.368.103-1.525.066-5.332.067-3.807 0-6.619-.371-2.812-.37-3.033-.406-.22-.035-1.323-.394-1.103-.36-2.003-.786-.899-.426-2.327-1.518-1.429-1.092-2.081-1.761-.652-.67-1.233-1.57-.58-.9-.742-1.258-.161-.357-.911-2.975-.751-2.618-.991-4.247-.241-1.629-.486-3.743t-.563-4.836-.457-4.083q-.14-1.363-.212-1.878-.073-.515-.213-1.942l-.058-3.741q.084-1.722.379-3.513.294-1.792.464-2.428.17-.637.717-1.783t.946-1.669q.399-.524 1.003-1.105.604-.582.709-.687t.91-.532 1.559-.697q.755-.269.956-.357t8.035-1.04m169.358-107.981q.172.034 1.167-.181.994-.215 1.818-.045 1.123-.022 4.45-.156t7.384-.348q4.056-.213 6.519-.33t4.044-.16 3.175-.138l1.887-.113q.294-.018 3.029-.044t8.567.005 8.683-.084 5.826-.365 3.828-.41 2.122-.485 1.63-.434q.359-.11 1.37-.463t1.633-.668l1.327-.98q1.003-1.12 1.251-1.522.248-.403 1.094-3.284t.94-3.864.128-2.66.024-2.676q-.01-1.001-.33-6.409-.319-5.408-.446-6.334-.126-.926-.447-2.297t-3.136-7.858l-1.031-.925q-1.111-.729-6.001-2.475t-8.806-2.25q-3.917-.506-7.69-.662-3.774-.155-5.768-.145-1.995.011-6.688.042t-8.228.07-5.035.074-3.64.054-4.264.08-2.528.067-2.656.237q-2.25.23-4.474.393-2.223.162-5.276.624t-4.324.806-2.33.777q-1.058.432-1.839.896-.78.463-1.083.667t-1.284 1.196l-.586.791q-1.53 3.128-2.3 8.728-.771 5.601-.79 6.339-.018.738.025 2.655.044 1.916.147 4.201t.227 3.584.333 2.913q.208 1.615.683 3.564t.839 2.86.862 1.771q.498.861.617 1.047t.42.538.316.385 1.066.796q2.518 1.082 3.577 1.382t2.58.479q1.52.181 2.978.285 1.458.105 1.798.101t.838.014.684.004 5.722.276m8.417 59.837q.74-.062 1.866-.211 1.125-.149 2.93-.265 1.804-.116 5.022-.217 3.219-.102 5.024-.127 1.806-.024 7.186-.075t12.016.107 10.937.254 5.949.092q1.649-.005 3.59-.028 1.94-.024 6.74-.075 4.8-.052 15.158-.068 10.357-.016 15.707.086 5.35.103 7.944.174t4.483.109 5.586.104 7.889-.118 6.535-.554 3.583-.752 2.651-1.104q1.413-.721 1.866-1.002t1.224-1.04 1.163-1.279q.393-.52.913-1.45.521-.931.793-1.665.271-.734.518-1.946t.289-2.326q.043-1.115.038-1.228-.004-.114-.511-5.152t-.958-8.033-.752-4.65q-.302-1.655-.839-3.893-.538-2.239-1.394-4.479t-1.349-3.143q-.492-.904-.714-1.233t-.567-.682-1.144-.925q-.798-.572-1.426-.875t-2.499-.887-5.711-1.106-5.945-.636q-2.105-.112-6.825-.29-4.721-.177-10.773-.305t-9.402-.128-8.338.12-7.636.253-4.139.223-3.828.321-3.816.382q-1.479.152-2.729.269t-2.381.253-3.395.439-3.85.471q-1.588.167-2.23.208-.643.04-2.074.209t-2.707.327-3.757.317-4.178.286-4.136.213q-2.44.086-7.83.192t-8.284.154-5.14.067-2.343.014-5.943.093-10.677.491-6.177.599-2.891.627-2.166.652q-.623.232-1.377.595-.753.364-1.885 1.106-1.132.741-1.191.772t-.701.62q-.643.589-1.34 1.569-.697.979-.931 1.468t-.675 2.059q-.442 1.57-.598 2.935-.157 1.365-.222 2.384t-.065 2.865.018 2.569.446 5.85.649 6.194.561 2.31q.341 1.244.523 1.723t.961 1.783 1.326 2.041 1.109 1.209 1.284.87 3.613 1.166q2.89.767 5.08.923t6.101.166 5.168-.026 2.185-.09 4.343-.276m-.073 69.635.464.011q2.608-.663 4.085-.979 1.478-.317 5.378-.557 3.899-.24 7.893-.112 3.993.127 7.323.164t9.565-.008 9.425-.107q3.191-.061 8.997-.195t8.65-.164q2.843-.029 4.689-.07 1.846-.04 5.103-.152t6.859-.602q3.603-.491 5.252-.953 1.65-.463 2.642-.935.991-.473 1.602-.843.61-.37 1.425-1.132t1.241-1.318q.425-.556.846-1.491.42-.934.635-1.879.216-.946.286-2.089l.074-1.223q.004-.079-.05-2.49t-.187-5q-.132-2.588-.336-5.35-.203-2.762-.46-6.825-.256-4.063-.278-4.297t-.721-4.152-1.103-4.83l-.453-1.018q-.048-.108-.725-1.083t-1.116-1.429-1.288-1.076q-.848-.623-1.904-1.043t-7.546-1.422q-6.49-1.001-8.604-1.194t-4.35-.334-3.23-.212-2.146-.171q-1.151-.098-4.38-.279t-8.26-.559-8.465-.567-6.341-.281-6.603-.177-6.788-.105-6.298-.017q-3.206.001-5.95.056t-5.332.16-4.021.211q-1.433.105-5.325.58-3.892.474-7.419 1.058t-6.021 1.198-3.761 1.127-2.061.985-1.175.718q-.379.244-.638.472t-.474.503-1.091 2.532q-.878 2.257-1.081 3.446-.204 1.189-.306 2.165-.102.977-.13 2.048-.027 1.071.01 5.294.037 4.224.232 7.92.196 3.695.552 7.486t.927 6.287.776 3.012q.203.514.585 1.4.382.887.871 1.651.488.764 1.075 1.336t.673.687 1.116.781 2.32 1.238 2.334.933 1.655.554 1.556.376 1.771.292 2.709.294 4.136.244q2.254.061 3.216.04t2.413-.097 3.156-.231q1.705-.154 6.801-.59m158.387-139.312q.215-.033 3.628-.486t5.85-.659q2.435-.205 3.208-.216t1.847.005q1.073.017 2.49.046 1.416.028 3.244.07 1.827.043 3.165.144t2.85.255 5.344.424 4.313.334 5.312.341q4.829.277 8.556.325t6.896-.038 5.095-.236 2.673-.218 2.746-.456 3.056-.689q1.057-.299 2.02-.708.962-.409 1.944-1.075.983-.666 1.432-1.132t.75-.953q.302-.488.469-.867.168-.38.345-1.052.178-.673.271-1.325t.175-1.683.14-2.903q.06-1.872.073-5.456v-1.044q.049-2.523-.248-7.625-.296-5.102-.675-7.032t-.447-2.202q-.069-.273-2.507-4.63-1.746-.906-3.341-1.238-1.596-.333-3.651-.598-2.056-.264-3.393-.363t-2.582-.153q-1.244-.056-3.043-.178-1.799-.123-3.805-.27-2.005-.146-3.399-.192-1.395-.045-1.983-.073t-4.93-.157-6.991-.142q-2.65-.012-4.049-.012-1.399.001-2.146.023t-4.739.094-6.896.193q-2.905.121-3.691.175t-3.424.225-6.333.589q-3.694.418-6.433.976t-4.405 1.148-2.432.949q-.766.357-1.329.743-.562.385-.673.444-.112.059-.745.723-.634.663-1.055 1.33t-.992 2.541-.659 2.557q-.089.683-.101 1.192t-.047 4.228q-.034 3.719.007 5.614.041 1.894 1.043 8.98 1.002 7.085 1.206 7.508.204.422.233.513.028.091.707.98.335.24.609.569t2.268.84 4.391.372 10.079-1.183m1.983-54.874q.217.018.808-.188l2.361-.192q.884-.095 3.385-.282t4.174-.369 3.854-.489 5.233-.593 4.414-.408l2.222-.201q.859-.079 2.343-.141 1.485-.063 2.647-.053t1.794-.027 1.947-.096 1.899-.08q.584-.02 1.615-.158t1.118-.16q.086-.023 4.321-1.61.13-.072.628-1.047.498-.976.739-2.065.24-1.089.157-2.253t-.106-1.228-.405-1.717-.99-3.052q-.61-1.398-.786-1.695-.175-.296-.709-.829-.534-.534-1.083-.886l-1.355-.522q-.142-.021-4.365-.39t-9.385-.296-8.18.144-4.01.108-4.261.148-4.493.217-2.998.341q-1.773.234-3.429.817t-1.962.728-.656.403-.57.49-.512.675-.533 1.067-.443 2.602q-.202 1.979-.097 3.231.105 1.253.271 2.145.165.891.762 2.712.597 1.82 1.199 2.759t.836 1.187.475.395 2.21.626 7.604.296m144.55-3.182q.189.018 1.551-.151t3.136-.5 3.2-.493 4.592-.372 4.158-.274 1.077-.082 1.383-.057q1.296-.041 5.355-.956 4.058-.915 4.356-1.071t1.065-.732 1.086-1.02.78-1.69.631-2.239q.172-.993-.174-3.327-.347-2.334-.798-3.368t-.855-1.734-1.83-2.585l-1.171-.548q-.752-.194-4.243-.537t-5.904-.34q-2.412.002-4.257-.008-1.845-.009-3.468-.023t-3.102-.053-3.646-.15-5.573-.096-5.84.291-3.5.536-1.384.375q-.319.115-1.631.678t-1.949.928-.973.591-.887.842-.828 1.224q-.279.607-.388.962-.109.354-.281 1.009-.172.656-.249 2.044-.077 1.389.074 2.484.152 1.095 1.039 4.069l.624 1.353q.134.189.472.752t.716 1.039.835.855q.456.379 3.045 1.319t3.631 1.088 1.693.211 1.929.04 1.672-.053q.396-.031 1.39-.081.994-.049 5.299-.48m-16.288 59.06q.813-.08 3.04-.122t2.713-.056q.485-.014.592-.037.107-.024 6.373.12 6.265.143 11.273.278 5.007.135 8.839.313 3.831.178 5.913.325t6.407.139q4.325-.007 6.715-.055t6.603-.053 5.917-.05q1.702-.045 6.174-.262t8.452-.217 9.463-.054 13.275-.344q7.793-.289 11.869-.484 4.075-.194 6.24-.429t7.139-.589q4.972-.354 10.839-.627 5.868-.273 8.942-.53 3.075-.256 5.944-.604 2.87-.349 3.513-.485.644-.136 2.29-.617 1.647-.482 2.512-.901t1.275-.732.799-.701 1.124-1.567.805-1.266.916-3.921q.848-3.833.901-6.615t0-4.339q-.058-1.555-.4-4.02t-1.01-6.049-1.24-5.886-.885-3.249-.774-1.927q-.462-.982-.541-1.109-.078-.127-1.094-1.553-1.015-1.425-1.486-1.812-.47-.386-.748-.546-.279-.16-4.12-1.345t-6.525-1.575q-2.683-.39-4.659-.646-1.977-.257-8.887-.624l-11.295-.599q-4.386-.232-9.463-.57-5.078-.337-11.108-.387t-13.606.409q-7.575.46-11.814.77t-8.347.779-6.041.735q-1.934.267-6.524.75t-8.793 1.036-9.066.938q-4.862.383-7.953.514t-5.084.264q-1.992.133-5.876.362-3.883.229-5.573.35t-4.87.448-5.611.495-7.228.668-7.182.825q-2.386.324-3.336.463t-1.976.342-2.676.688-2.875.943-2.147.944q-.92.488-1.485.918t-1.593 1.521q-1.026 1.091-1.231 1.364t-1.298 2.57-1.277 3.039q-.184.743-.433 2.996-.248 2.252-.235 3.335t.064 1.851.158 2.361.245 3.09q.137 1.495.484 3.669.348 2.174.869 4.14.52 1.965 1.573 4.373 1.054 2.409 1.281 2.792t.59.832 1.001 1.017l.672.467q1.517.801 3.603 1.624 2.087.822 4.475 1.295t4.676.607 3.245.167q.958.033 2.57-.013 1.612-.045 2.834-.143t4.831-.419m42.184 32.313q.138-.043 1.327-.216 1.189-.174 1.967-.223l2.643-.171q1.865-.122 3.921-.201t3.968-.106 3.449-.061 3.185-.051 2.863-.048 1.987-.099 2.633-.455 2.619-.708 1.188-.615.601-.384q.172-.089.715-1.073t.779-2.159.117-2.261-.515-2.348q-.396-1.261-.579-1.672t-.386-.735-.341-.583-.458-.613q-.321-.356-.843-.706t-.958-.511-2.62-.705q-2.183-.543-3.962-.796t-4.908-.466q-3.129-.214-5.948-.393t-4.522-.255-3.561-.134q-1.86-.058-3.656.125-1.796.184-2.702.434-.906.249-1.256.391t-.963.503q-.613.359-1.2.95-.586.59-.743.729t-.931 2.843-.659 4.028.311 2.103.361 1.21.373.658.948.747 1.661.868 3.694 1.25m9.384 51.004q1.934-.501 5.194-1.034 3.259-.534 6.106-.879 2.847-.346 4.533-.453 1.686-.106 2.782-.148t2.281-.052 2.083-.025 5.384-.067 7.985-.113 5.841-.179q2.344-.118 3.581-.192t2.692-.125 7.98-.112q6.525-.062 10.567-.108 4.043-.046 6.182-.185t5.862-.37q3.723-.23 7.751-.603t6.015-.527 3.719-.23 3.181-.14 2.091-.098 1.024-.076 4.062-.133 7.003-.192 7.006-.616q3.682-.513 6.465-1.738t2.999-1.448.673-.852q.458-.629 1.104-2.894t.751-3.907.107-2.907-.158-3.323-.335-3.222-.512-2.483q-.337-1.32-1.537-3.608t-1.736-2.891q-.536-.601-.695-.738-.158-.136-1.198-.691-1.039-.556-5.084-1.536-4.045-.981-10.374-1.377-6.329-.395-9.592-.418t-5.724-.008-2.526.028q-.065.012-2.36.141t-4.392.222q-2.099.094-2.19.082t-3.445.069q-3.355.081-5.285.164t-4.193.062-6.146-.172-6.809-.154-4.766-.023q-1.839-.02-4.372.04-2.532.059-5.153.239-2.62.179-4.622.467-2.001.287-3.422.444-1.42.157-3.547.353t-3.756.404q-1.628.207-2.564.299t-4.664.296-4.571.245-3.872.165q-3.028.126-6.102.325-3.073.2-6.555.76-3.482.561-5.695 1.325t-3.214 1.229-1.546.774-1.345.892-1.365 1.112-1.31 1.466q-.747.938-1.549 2.236-.801 1.297-1.228 2.24-.426.942-.835 2.227t-.572 2.163q-.163.88-.231 2.73-.067 1.85.143 3.488t.666 2.958 1.021 2.389q.771 1.041 1.533 1.777.762.737 1.96 1.374t3.621 1.615q2.425.978 3.331 1.295t1.625.527 1.883.535 1.881.49q.716.165 3.85 1.005m-.84 32.994q.154-.027 7.068-.397 6.914-.369 11.401-.484t6.569-.188q2.083-.073 6.16-.397 4.077-.323 6.393-.862t3.143-.909 1.602-.841 1.765-1.45q.99-.981 1.285-1.465t.417-.777q.124-.293.237-.811.114-.519.123-1.075.01-.556-.674-2.71t-.84-2.414-1.204-1.907q-1.566-1.537-2.146-1.948t-.643-.472q-.062-.061-1.303-.691t-3.133-1.156q-1.893-.526-3.511-.82t-2.038-.365q-.421-.072-3.914-.34-3.493-.269-6.264-.262t-6.284.232q-3.513.223-7.606.781-1.802.312-3.38.684t-3.777 1.225q-2.2.852-2.359.917t-1.348.826q-1.191.76-2.426 1.917t-1.6 1.583-.855 1.226-.928 2.409q-.437 1.61-.428 2.777t.061 1.45.2.657.478.772.741.747q.411.35 1.079.788t1.785.928 1.366.565q.25.075 6.446 1.659m-.54 48.843q.768-.267 4.534-.633 3.766-.365 7.046-.571t5.37-.202 4.498.02 2.943.046 4.79.148 6.183.187q1.926.069 4.185.1t2.324.037 5.769-.025q5.702-.03 9.734-.104 4.032-.073 6.84-.157t8.199-.319q5.39-.236 7.533-.352t3.886-.182q1.742-.066 4.134-.211l5.281-.319q2.889-.174 6.928-.512t6.869-.624 4.467-.49q1.636-.202 3.342-.472 1.707-.271 5.053-.98 3.346-.708 6.029-1.658 2.684-.949 3.536-1.394.853-.444 1.761-1.09.909-.645 1.753-1.429.845-.785 1.827-2.12.982-1.336 1.266-1.883t.463-.841.851-3.893.51-5.992-.239-2.719-.669-2.362-1.4-3.909-.936-2.157-1.168-1.648q-1.039-1.363-1.711-2.09t-1.288-1.197-1.04-.774-6.145-1.523-7.137-1.29-6.97-.127-9.64.016-7.441.214-4.589.178-2.739.104q-1.503.068-3.243.207t-4.924.309q-3.186.17-5.428.316-2.242.147-3.628.192t-3.977.153l-5.044.209q-2.452.102-4.05.198t-3.299.185-5.424.393q-3.722.303-6.945.656t-4.222.482-4.318.575-5.149.722q-1.83.274-4.145.668-2.316.395-2.707.457-.392.063-3.098.547t-6.065 1.191q-3.36.705-5.517 1.259t-4.244 1.191-4.586 1.734-4.222 2.226-2.68 2.082-1.882 2.507-1.148 2.207-.549 2.753.164 5.634 1.265 5.321.909 2.05q.134.261 1.65 1.884t2.075 2.065.887.705q.327.261 1.367.683 1.04.421 3.085.878 2.044.458 5.283.829m-153.089-87.513q1.228-.119 1.786-.23t3.696-.344 6.267-.337q3.129-.105 8.655-.116t8.319.029 6.834.114q4.042.073 10.648.052t11.303-.104 7.73-.157 4.382-.119 2.377-.116q1.026-.071 2.835-.232t3.302-.382q1.495-.22 3.706-.823 2.212-.604 3.667-1.225 1.456-.621 2.546-1.19 1.089-.57 1.97-1.171t1.827-1.441 1.584-1.66 1.494-2.413q.856-1.595 1.176-2.782t.4-1.97.075-1.251q0-.469.02-1.571l.048-2.268q.023-1.166-.041-3.137-.063-1.972-.222-4.695t-.722-7.504q-.782-4.159-1.431-5.989-.65-1.83-1.188-2.759t-.976-1.489-.725-.842q-.286-.283-1.222-.909t-1.964-.997-1.801-.526-2.013-.261-2.56-.186-4.094-.154q-2.774-.075-4.743-.09t-4.448-.08-5.162-.172-12.72-.049q-10.036.056-16.725.056t-9.389-.06-6.789-.087q-4.089-.029-7.922.127-3.833.155-7.065.24t-9.681.653-8.511 1.087-3.299 1.129-1.469.802-.633.487q-.4.296-1.376 1.203t-2.115 2.363q-1.139 1.455-2.192 3.496t-1.677 3.961-.962 4.697q-.336 2.778-.176 5.648t.43 4.298 1.397 4.933 1.737 4.925 1.269 2.71 1.258 2.302 1.146 1.724 1.256 1.379.801.767 1.802 1.019q1.71.917 3.136 1.348 1.425.432 1.801.5.376.069 3.426.468 3.05.398 9.186.443l.737.296 2.297.49m-4.858 61.54 1.968-.368 3.11-.408q2.538-.529 9.181-.87 6.644-.341 12.972-.394 6.329-.053 10.085-.08t6.453-.053q2.698-.026 10.5-.054l10.149-.036q2.346-.007 4.737-.036 2.39-.03 4.803-.111 2.414-.082 3.337-.127.924-.045 2.832-.183 1.909-.138 3.474-.389t2.052-.369 1.343-.338 1.829-.646q.975-.427 2.102-1.168 1.128-.74 1.593-1.141.465-.402 1.173-1.211.709-.81 1.314-1.775t1.209-2.202 1.319-5.258.673-6.56-.342-4.715q-.299-2.178-.377-2.498t-.506-1.942-1.063-3.173-.771-1.866q-.135-.316-.716-1.205t-1.431-1.801q-.849-.911-2.1-1.819-1.25-.907-3.59-2.012t-4.121-1.512-3.876-.7q-2.096-.292-8.477-.545-6.38-.253-9.475-.262l-5.248-.013q-2.152-.005-8.704.068t-10.138.232q-3.585.159-7.824.408-4.238.25-4.939.269-.701.018-5.839.286-5.137.267-9.113.478t-6.03.358q-2.055.147-5.505.709t-4.787 1.023-1.743.623q-.404.162-1.479.77t-1.804 1.225q-.73.617-1.462 1.419-.732.801-1.601 2.178t-1.188 2.13q-.32.752-.925 3.2-.604 2.447-.848 5.26t-.248 2.812q-.003 0 .076 3.093t.32 4.883.659 3.585q.418 1.793.484 2.052t2.113 4.968q.525.889 1.098 1.53t1.734 1.337q1.159.695 1.714.97.556.274 1.388.579.833.305 12.976 2.528m-46.986 37.827.913-.292q3.601-.186 5.712-.275t2.784-.097 2.518-.001 3.652-.04q1.808-.049 4.119-.203t4.064-.369 2.947-.466 2.504-.572 3.126-1.015 2.439-1.084 1.402-1.128 1.102-1.192.608-1.014q.287-.56.423-.844t.4-1.277q.263-.994.329-1.921.067-.927-.011-2.204-.078-1.276-.284-2.244-.207-.968-.495-1.925t-1.219-2.891q-.929-1.935-2.233-3.489-3.604-1.669-5.395-2.032t-3.091-.435l-2.457-.135q-1.157-.063-2.146-.054-.99.009-1.803.073-.813.065-3.195.107-2.382.043-6.529.022t-6.324.007q-2.176.029-3.117.13-.941.1-1.844.225t-.998.134-.979.205-2.308.711-1.659.604q-.237.09-1.421.78t-3.003 2.468q-1.677 3.102-1.91 3.974t-.332 3.764q-.1 2.89.036 3.576t1.885 4.707q.333.65.941 1.27.608.619 1.27 1.045t2.399 1.081 3.516 1.065 4.484.732q2.703.323 4.737.583"/>
        <path stroke="#999" stroke-width="5" d="M524.297 618.533q6.978-3.133 9.84-4.424t3.746-1.65q.884-.358 3.243-1.402 2.359-1.043 4.169-1.829 1.811-.786 3.496-1.504t2.729-1.185q1.042-.467 2.914-1.283t3.714-1.706 5.211-2.553m-36.647 39.217q1.914 1.107 2.745 1.532t2.452 1.185q1.62.761 3.015 1.412 1.394.651 2.107.992t2.22 1.004q1.505.662 2.007.87.501.208 2.643 1.135 2.141.928 4.395 1.809 2.254.882 3.249 1.278t2.408.914 2.162.816 2.066.763q1.316.466 3.118 1.143t2.811 1.1 1.634.65q.624.225 4.074 1.34m-42.724 11.441q.26.221.504.527.243.306 1.58 1.824 1.337 1.517 2.868 3.193t3.409 3.806q1.879 2.129 2.86 3.245.981 1.115 2.386 2.807t3.627 4.463 5.106 6.64 4.981 6.657 3.323 4.519 1.309 1.857q.081.128 1.177 1.673 1.095 1.545 2.012 2.761.918 1.216 1.963 2.737 1.045 1.52 2.001 2.995.957 1.474 2.17 3.304l.574.949m127.933-131.076q.621-.154 1.791-.551 1.171-.396 5.695-2.02 4.524-1.623 6.35-2.322t3.666-1.414 3.92-1.56q2.078-.847 3.502-1.408 1.424-.562 1.975-.766.55-.204 3.964-1.539m-27.419 25.948q.409.228.546.368t1.075 1.121q.937.982 2.432 2.337t4.016 3.602q2.523 2.246 3.786 3.351 1.262 1.106 1.94 1.726t1.591 1.5 2.958 2.821 3.502 3.389 2.316 2.281q.859.835 2.263 2.184t1.705 1.629 2.332 2.349m-33.377-8.602.393.412q.591.871 2.446 3.88t2.536 4.095 1.814 2.937l2.945 4.815q1.813 2.963 2.911 4.753 1.099 1.789 2.583 4.216t3.11 5.052q1.625 2.625 3.428 5.546t1.921 3.077 2.192 3.439 3.715 5.992 1.762 2.898 2.891 4.752l.789 1.262m96.87-107.432q.463-.309 8.885-3.737 8.421-3.429 13.635-5.379t7.69-2.872 3.928-1.425q1.453-.504 3.558-1.304 2.106-.8 4.968-1.986t5.55-2.389q2.689-1.205 4.408-1.993 1.719-.789 3.129-1.413t1.544-.695 4.257-1.828 8.476-3.383 6.531-2.498 3.884-1.531 3.432-1.302 2.358-.86 5.609-2.08m-88.599 53.753.896.233q15.817.74 22.242.872 6.424.132 10.369.14 3.944.007 8.738-.073 4.793-.079 10.36-.302t8.633-.433q3.066-.211 4.036-.253t2.333-.115 3.072-.13q1.709-.059 3.163-.079m109.314-23.822.74-.398q3.072-1.999 5.428-3.497t5.476-3.465q3.119-1.968 5.874-3.675t5.376-3.359q2.623-1.652 5.479-3.52 2.857-1.868 3.794-2.47.938-.601 3.995-2.449 3.057-1.849 5.055-3 1.998-1.15 2.76-1.623.762-.472 4.102-2.272m-47.879 45.279q.268-.06 4.073-.289 3.806-.23 6.073-.357 2.267-.128 3.086-.185t2.572-.098 5.858-.064m47.29 52.318q1.038-.602 1.508-.86.47-.259 2.641-1.261l2.377-1.098q.206-.095 3.24-1.474t4.717-2.159 2.825-1.306 1.293-.576q.15-.051 4.173-2.198m-22.045 29.333q7.578 1.926 9.912 2.503 2.333.578 3.656.874 1.322.295 2.454.575 1.132.281 2.908.808m-22.319 48.193q.249.018 4.58-.336t7.411-.665q3.08-.312 5.115-.501 2.035-.19 2.375-.231.341-.042 12.639-.914m-31.646 19.928q1.941.532 6.184 2.004 4.242 1.471 6.71 2.341t3.284 1.133 1.933.592 2.862.904 3.544 1.128 5.672 1.964m-204.301-95.185q2.828-.299 5.16-.572t5.535-.644 6.271-.643q3.069-.271 5.449-.393t13.749-1.324m-33.049 26.47q.086.085 2.052 1.374 1.965 1.288 3.184 2.027 1.218.739 2.821 1.856 1.604 1.118 2.603 1.831t1.877 1.299q.877.588.998.677.12.089 2.997 1.884t5.263 3.208 3.363 1.963q.976.551 2.032 1.186t1.089.665 1.805 1.055q1.773 1.024 3.066 1.729t2.191 1.166 3.029 1.45 3.402 1.594q1.271.607 2.167.995t1.415.611q.52.224 4.056 1.566m-95.17 26.012q1.512.857 2.956 1.753 1.445.896 4.391 2.666t3.402 2.064q.457.295 3.334 2.082t4.481 2.803q1.604 1.017 2.222 1.443t1.67 1.074 4.329 2.555 3.923 2.276q.645.37 3.917 2.262t5.558 3.244q2.287 1.352 3.148 1.85.861.499 1.717 1.026.857.526 2.855 1.652 1.999 1.126 4.805 2.696"/>
    </g>
</svg>
