<svg xmlns="http://www.w3.org/2000/svg" xml:space="preserve" viewBox="0 0 960 480">
    <g fill="none" stroke="#fff" stroke-linecap="round" stroke-linejoin="round" stroke-width="2" transform="translate(866.754 -574.269)scale(1.12158)">
        <path stroke-width="5" d="M-541.237 617.239q-.04.378.148 4.246.187 3.867.239 6.524t.204 7.397.422 8.729.415 5.629.644 4.738q.5 3.097.852 4.335t.785 2.02.936 1.452l.568.758q.065.089.564.557t1.362.921q.862.452 2.913 1.09t3.809.67 3.806-.068 4.508-.246 3.622-.294q1.164-.147 2.666-.306t2.038-.187 2.289-.212 3.194-.383q1.439-.199 2.877-.305t4.224-.211 2.956-.126 1.847-.031q1.675-.01 3.02.006t2.695-.011 4.626-.23q3.277-.202 4.491-.309t2.135-.217q.923-.109 1.746-.186.824-.076 4.346-.553t5.089-.871 3.098-1.053q1.53-.659 2.148-1.069t1.36-1.136q.742-.728 1.472-1.886.73-1.159 1.312-2.915t.709-2.332.468-4.908q.34-4.332.114-10.084-.226-5.753-.468-10.178t-.413-6.498-.584-5.122q-.413-3.05-.669-5.27t-.412-3.783-.339-2.575-.671-5.695-1.395-8.392-1.208-4.373-.739-1.343q-.436-.68-.789-1.087t-.673-.672q-.319-.267-.749-.672-.431-.406-1.261-.99-.83-.583-2.406-1.188-1.575-.605-4.525-1.23-2.95-.624-6.002-.758-3.053-.133-4.83-.041-1.777.093-2.448.186-.67.094-1.92.242t-1.359.136q-.109-.013-4.323.561-4.213.574-6.957.937t-3.767.464l-4.683.456q-3.66.355-5.72.61-2.061.254-2.687.381-.626.126-3.137.659-2.51.532-5.416 1.209t-4.514 1.159-2.781.932-1.549.631-1.851.882-2.526 1.288-1.447.819-1.149 1.016-1.054 1.142-.576.962-.667 2.126-.45 2.22q-.058.697-.055 1.076.003.378.121 3.018t.273 3.979.271 2.093q.115.752.398 2.903t.327 2.303 1.205 8.833"/>
        <path d="M-586.29 842.254q.612-.13 3.315-.581t4.623-1.03q1.921-.579 2.689-.984.768-.404 1.093-.647.326-.244 1.028-1.124.703-.88.904-1.395t.256-.848.041-.648q-.013-.314-.104-.663t-.207-.571-.514-.612q-.397-.388-1.167-.561-.769-.172-1.241-.063-.473.11-.744.265-.272.155-.525.398-.254.244-.39.427t-.368.7-.423 1.528-.216 1.707.14 2.524.271 2.508q.106.682.418 2.418.313 1.736.625 3.167t1.106 3.613 1.122 2.722.733.974q.404.436.84.715.437.279.97.444.534.166.841.165t.435-.028q.129-.026.422-.15t.734-.5.723-1.007q.283-.63.275-1.072-.008-.441-.04-.564-.031-.123-.173-.422-.143-.298-.259-.453-.115-.154-.746-.642-.63-.487-1.4-.79t-1.368-.434q-.597-.131-1.052-.199-.455-.069-1.446-.146-.992-.077-2.285-.034-1.292.044-1.96.121-.667.078-1.669.262-1.002.185-2.059.462t-1.62.463-1.242.457-1.296.56-1.041.53-1.236.876-1.065.905q-.251.27-.476.577t-.458 1.017q-.235.711-.21 1.229.025.517.141.828t.38.657.837.656.899.374.573.061.433-.032.782-.294.878-.497.554-.567q.271-.337.514-.837.244-.5.378-1.085.133-.584.167-1.12.033-.535-.033-1.335-.065-.799-.194-1.571t-.43-2.132q-.301-1.361-.386-1.759l-.256-1.199q-.171-.801-.531-2.538-.36-1.738-.614-2.998-.255-1.261-.531-2.408-.277-1.147-.675-2.179-.399-1.031-.674-1.459-.276-.427-.542-.689t-.493-.388-.713-.233q-.485-.108-.852-.047-.366.061-.607.164t-.463.237q-.223.132-.449.322t-.747 1.007q-.52.818-.648 1.421-.127.604.024 1.355.152.751.202.854t.189.294.943.72q.805.531 1.303.685t.9.226.785.102.778.027.622-.017q.227-.013.484-.043.258-.029.59-.079.333-.049.574-.099.24-.049.335-.076t.918-.177M-612.494 610.6q.068 2.043.227 4.807.158 2.765.431 6.631t.42 6.174.507 10.066m-.656-28.34q1.218.093 2.789.123 1.57.029 2.752.027 1.181-.001 4.063-.042 2.881-.04 6.375-.067 3.493-.027 4.166-.01t6.473.096m.983 1.336q.142 3.166 1.131 13.751l.4 3.06m-26.363 10.983q1.175-.026 1.528-.004t1.962.019q1.609-.004 3.406-.044t4.758-.355q2.96-.315 5.909-.8m-5.86-20.686q.244 6.368.528 12.764"/>
        <path d="M-612.494 610.6q.068 2.043.227 4.807.158 2.765.431 6.631t.42 6.174.507 10.066m26.945-26.877q.142 3.166 1.131 13.751l.4 3.06m-26.363 10.983q1.175-.026 1.528-.004t1.962.019q1.609-.004 3.406-.044t4.758-.355q2.96-.315 5.909-.8m.592-.305q2.12-1.917 7.807-7.699m-14.259-12.682q.244 6.368.528 12.764"/>
        <path stroke-width="5" d="M-230.91 517.089q-.75.009-2.307.094t-2.738.171-4.185.367-4.862.478q-1.859.197-4.976.496-.721.224-26.284.938-.644-.019-8.963.024t-17.285.128q-8.966.087-13.319.12-4.354.032-21.456-.068-17.103-.099-25.955-.218t-12.792-.258q-3.94-.138-5.989-.236t-9.837-.377q-7.79-.279-23.837-.276t-26.754-.119q-10.706-.121-15.899-.247-5.194-.126-10.793-.15-5.6-.024-17.239.389t-17.903.749q-6.263.337-10.423.778-4.159.441-9.222.835t-9.419 1.008-6.688 1.208-5.079 1.667q-2.749 1.073-4.213 1.884t-3.426 2.285-3.175 2.775q-1.211 1.301-1.961 2.34t-1.832 3.196-2.835 9.151q-1.753 6.995-1.942 11.352t-.011 9.981.264 7.819.38 10.384.562 19.64.35 17.039.209 8.67q.128 3.081.265 4.712t.359 8.755q.221 7.125.416 12.261t.402 7.81.277 3.311.401 7.107q.331 6.471.829 11.516.498 5.046.851 7.049.354 2.004.651 3.296.297 1.293 1.149 3.994t1.902 5.226q1.05 2.523 1.862 3.996t1.865 2.82 1.888 2.131 2.053 1.621 2.587 1.544 5.096 1.869q3.726 1.164 6.931 1.64 3.206.475 6.207.725 3.002.249 7.938.784 4.935.534 9.803.748t8.352.15 6.174-.067 6.236-.013q3.544-.012 5.334-.048t5.241-.15q3.452-.115 4.893-.147 1.442-.031 13.691-.05t19.446.023q7.195.041 9.999.049 2.805.007 7.748.005t15.195.031q10.252.034 15.054.138t8.453.257 9.54.39q5.888.238 13.079.51 7.191.271 11.996.41l9.157.263q4.353.126 13.485.364 9.132.239 14.894.302l8.861.099q3.098.035 7.089.044t7.941.013q3.951.004 9.603-.014t13.245-.007 11.714.066 6.982.134q2.86.08 6.257.228t5.327.281q1.93.132 3.889.418l1.468.23m.929 24.23q-1.738.186-2.764.339t-2.905.397q-1.878.245-6.601.617t-11.097.621q-6.376.248-12.73.206-6.355-.042-9.946-.048t-13.184.282-18.994.518-16.454.36-11.753.148-10.585-.1-8.631-.255-7.931-.411q-5.188-.275-12.932-.497t-13.343-.443-13.595-.394-13.787-.324-9.089-.246q-3.298-.097-11.949-.403t-19.438-.493q-10.788-.187-19.597-.147t-19.753.107q-10.943.067-18.629.365-7.685.297-11.216.628t-5.734.625-3.588.546q-1.383.252-2.13.424t-3.27.993-4.423 1.886-3.205 2.23q-1.305 1.164-1.704 1.637t-.863 1.22q-.464.746-.739 1.295t-.521 1.167-.692 2.612-.565 3.381q-.117 1.386-.138 2.441-.02 1.055-.003 2.651t.11 3.47q.092 1.874.354 5.707.261 3.832.783 11.889.523 8.058.531 10.449t-.004 2.939.026 3.682.059 4.73.121 4.535.441 6.817q.341 3.877.759 9.048t.582 7.362.248 3.429.3 3.515.291 3.317.2 3.116q.126 2.077.4 5.609l.547 7.057q.274 3.525.306 3.689t.281 4.491.405 7.282q.158 2.955.319 4.777t.343 3.907q.181 2.084.421 4.204.239 2.12.388 3.186t.533 3.733q.384 2.669.638 3.953.254 1.285.282 1.346t.374 1.549 1.314 4.177 1.451 3.565 1.71 2.495 2.371 2.7 1.73 1.492.722.519q.136.107 2.615 1.131t4.914 1.505 6.16.992 6.594.793 4.541.361 1.891.105 7.992.147 13.335-.073 8.301-.26q2.74-.067 7.835-.235t7.655-.214 9.5-.028q6.938.018 10.288.142 3.349.124 10.139.298t10.542.249 16.847.134 19.749-.047 9.353-.208q2.698-.103 3.593-.135.895-.031 3.435-.14t10.484-.333q7.944-.225 12.65-.244t8.212-.036q3.506-.018 9.296.038t8.782.131 9.291.046 10.521-.215 5.716-.302 5.931-.254 8.879-.245 6.172-.173 5.026-.05q3.297.015 5.524.095t5.031.164 4.591.072 9.926-.26q8.14-.247 12.624-.334t18.672-.531q14.188-.445 16.313-.552"/>
        <path stroke-width="5" d="M-429.737 617.239q-.04.378.148 4.246.187 3.867.239 6.524t.204 7.397q.151 4.741.422 8.729.27 3.989.414 5.629.145 1.64.645 4.738.5 3.097.852 4.335t.785 2.02.936 1.452l.568.758q.065.089.564.557t1.362.921q.862.452 2.913 1.09t3.809.67q1.757.031 3.806-.068 2.048-.099 4.508-.246t3.622-.294q1.164-.147 2.666-.306t2.038-.187 2.289-.212q1.754-.184 3.194-.383t2.877-.305 4.224-.211q2.785-.106 2.956-.126t1.847-.031 3.02.006q1.345.016 2.695-.011t4.626-.23q3.277-.202 4.491-.309t2.135-.217q.923-.109 1.746-.186.824-.076 4.346-.553t5.089-.871 3.098-1.053q1.53-.659 2.148-1.069t1.36-1.136q.742-.728 1.472-1.886.73-1.159 1.312-2.915t.709-2.332.468-4.908q.34-4.332.114-10.084-.226-5.753-.468-10.178t-.413-6.498-.584-5.122q-.413-3.05-.669-5.27t-.412-3.783-.339-2.575-.671-5.695-1.395-8.392-1.208-4.373-.739-1.343q-.436-.68-.789-1.087t-.673-.672q-.319-.267-.749-.672-.431-.406-1.261-.99-.83-.583-2.406-1.188-1.575-.605-4.525-1.23-2.95-.624-6.002-.758-3.053-.133-4.83-.041-1.777.093-2.448.186-.67.094-1.92.242t-1.359.136q-.109-.013-4.323.561-4.213.574-6.957.937t-3.767.464l-4.683.456q-3.66.355-5.72.61-2.061.254-2.687.381-.626.126-3.137.659-2.51.532-5.416 1.209t-4.514 1.159-2.781.932-1.549.631-1.851.882-2.526 1.288-1.447.819-1.149 1.016-1.054 1.142-.576.962-.667 2.126q-.393 1.522-.45 2.22-.058.697-.055 1.076.003.378.121 3.018t.273 3.979.271 2.093q.115.752.398 2.903t.327 2.303 1.205 8.833m105.357-1.299q-.04.378.148 4.246.187 3.867.239 6.524t.204 7.397q.151 4.741.422 8.729.27 3.989.414 5.629.145 1.64.645 4.738.5 3.097.852 4.335t.785 2.02.936 1.452l.568.758q.065.089.564.557t1.362.921q.862.452 2.913 1.09t3.809.67q1.757.031 3.806-.068 2.048-.099 4.508-.246t3.622-.294q1.164-.147 2.666-.306t2.038-.187 2.289-.212q1.754-.184 3.194-.383t2.877-.305 4.224-.211q2.785-.106 2.956-.126t1.847-.031 3.02.006q1.345.016 2.695-.011t4.626-.23q3.277-.202 4.491-.309t2.135-.217q.923-.109 1.746-.186.824-.076 4.346-.553t5.089-.871q1.568-.394 3.098-1.053t2.148-1.069 1.36-1.136q.742-.728 1.472-1.886.73-1.159 1.312-2.915t.709-2.332.468-4.908q.34-4.332.114-10.084-.226-5.753-.468-10.178t-.413-6.498-.584-5.122q-.413-3.05-.669-5.27t-.412-3.783-.339-2.575q-.182-1.013-.671-5.695t-1.395-8.392q-.906-3.709-1.208-4.373t-.739-1.343q-.436-.68-.789-1.087t-.673-.672q-.319-.267-.749-.672-.431-.406-1.261-.99-.83-.583-2.406-1.188-1.575-.605-4.525-1.23-2.95-.624-6.002-.758-3.053-.133-4.83-.041-1.777.093-2.448.186-.67.094-1.92.242t-1.359.136q-.109-.013-4.323.561-4.213.574-6.957.937t-3.767.464l-4.683.456q-3.66.355-5.72.61-2.061.254-2.687.381-.626.126-3.137.659-2.51.532-5.416 1.209t-4.514 1.159-2.781.932-1.549.631-1.851.882-2.526 1.288-1.447.819-1.149 1.016-1.054 1.142-.576.962-.667 2.126q-.393 1.522-.45 2.22-.058.697-.055 1.076.003.378.121 3.018t.273 3.979.271 2.093q.115.752.398 2.903t.327 2.303 1.205 8.833m104.857-5.799q-.04.378.148 4.246.187 3.867.239 6.524t.204 7.397q.151 4.741.422 8.729.27 3.989.415 5.629t.644 4.738q.5 3.097.852 4.335t.785 2.02.936 1.452l.568.758q.065.089.564.557t1.362.921q.862.452 2.913 1.09t3.809.67 3.806-.068 4.508-.246 3.622-.294q1.164-.147 2.666-.306t2.038-.187q.535-.028 2.289-.212t3.194-.383q1.439-.199 2.877-.305t4.224-.211 2.956-.126 1.847-.031q1.675-.01 3.02.006t2.695-.011 4.626-.23q3.277-.202 4.491-.309t2.135-.217q.923-.109 1.746-.186.824-.076 4.346-.553t5.089-.871q1.568-.394 3.098-1.053t2.148-1.069 1.36-1.136q.742-.728 1.472-1.886.73-1.159 1.312-2.915t.709-2.332.468-4.908q.34-4.332.114-10.084-.226-5.753-.468-10.178t-.413-6.498-.584-5.122q-.413-3.05-.669-5.27t-.412-3.783-.339-2.575q-.182-1.013-.671-5.695t-1.395-8.392q-.906-3.709-1.208-4.373t-.739-1.343q-.436-.68-.789-1.087t-.673-.672q-.319-.267-.749-.672-.431-.406-1.261-.99-.83-.583-2.406-1.188-1.575-.605-4.525-1.23-2.95-.624-6.003-.758-3.052-.133-4.829-.041-1.777.093-2.448.186-.67.094-1.92.242t-1.359.136q-.109-.013-4.323.561-4.213.574-6.957.937t-3.767.464l-4.683.456q-3.66.355-5.72.61-2.061.254-2.687.381-.626.126-3.137.659-2.51.532-5.416 1.209t-4.514 1.159-2.781.932q-1.174.449-1.549.631-.375.181-1.851.882-1.475.7-2.526 1.288t-1.447.819-1.149 1.016-1.054 1.142-.576.962-.667 2.126q-.393 1.522-.45 2.22-.058.697-.055 1.076.003.378.121 3.018t.273 3.979q.156 1.34.271 2.093t.398 2.903.327 2.303 1.205 8.833"/>
        <circle cx="-110.761" cy="621.969" r="2.5" fill="#fff" stroke-width=".1"/>
        <circle cx="-95.075" cy="621.307" r="2.5" fill="#fff" stroke-width=".1"/>
        <circle cx="-78.714" cy="620.442" r="2.5" fill="#fff" stroke-width=".1"/>
        <circle cx="-307.761" cy="847.469" r="2.5" fill="#fff" stroke-width=".1"/>
        <circle cx="-292.075" cy="846.807" r="2.5" fill="#fff" stroke-width=".1"/>
        <circle cx="-275.714" cy="845.942" r="2.5" fill="#fff" stroke-width=".1"/>
        <path stroke-width="5" d="M-414.023 835.63q-.04.377.147 4.245.188 3.868.24 6.524t.203 7.397q.152 4.741.422 8.73.271 3.988.415 5.628t.644 4.738.853 4.336q.352 1.238.785 2.019t.936 1.452q.503.67.568.759t.564.556 1.361.921q.863.452 2.913 1.091 2.051.638 3.809.669t3.806-.067q2.049-.1 4.508-.247t3.623-.294 2.666-.306 2.038-.187 2.289-.212q1.754-.184 3.193-.383 1.44-.198 2.878-.304t4.223-.212 2.957-.126q.17-.021 1.846-.031t3.021.006 2.694-.011q1.35-.027 4.627-.229 3.277-.203 4.49-.31t2.136-.216 1.746-.186q.824-.077 4.346-.554 3.521-.477 5.089-.871t3.098-1.053 2.148-1.068 1.36-1.137 1.472-1.886 1.311-2.915.71-2.332q.127-.575.467-4.908.341-4.332.115-10.084-.227-5.753-.469-10.178t-.413-6.498q-.171-2.072-.584-5.122t-.668-5.27-.412-3.782-.339-2.576q-.182-1.012-.671-5.695t-1.395-8.392-1.208-4.373q-.303-.663-.739-1.343t-.79-1.087q-.353-.406-.672-.672t-.75-.672-1.26-.989q-.831-.584-2.406-1.189t-4.525-1.229-6.003-.758-4.83-.041-2.447.186-1.921.242-1.359.135-4.322.561-6.958.938-3.767.463l-4.683.456q-3.659.356-5.72.61t-2.686.381q-.626.127-3.137.659t-5.417 1.209-4.513 1.16q-1.608.482-2.782.931t-1.548.631-1.851.882q-1.475.7-2.527 1.288-1.051.588-1.446.819-.396.232-1.149 1.016-.753.785-1.054 1.142t-.576.962-.668 2.126-.45 2.22-.054 1.076.121 3.018.273 3.98.271 2.092q.114.752.398 2.903.283 2.151.327 2.303t1.204 8.833"/>
        <path d="M-530.29 595.341q.069 2.044.227 4.808.158 2.765.431 6.631t.42 6.173.507 10.067m-.656-28.34q1.218.093 2.789.122 1.57.03 2.752.028t4.063-.042 6.375-.067 4.167-.01 6.472.096m.984 1.336q.141 3.166 1.13 13.751l.4 3.06m-26.363 10.982q1.175-.025 1.528-.003t1.962.018 3.406-.043 4.758-.355q2.96-.315 5.909-.8m-5.86-20.686q.245 6.368.528 12.764"/>
        <path d="M-530.29 595.341q.069 2.044.227 4.808.158 2.765.431 6.631t.42 6.173.507 10.067m26.946-26.877q.141 3.166 1.13 13.751l.4 3.06m-26.363 10.982q1.175-.025 1.528-.003t1.962.018 3.406-.043 4.758-.355q2.96-.315 5.909-.8m.592-.306q2.121-1.916 7.807-7.699m-14.259-12.681q.245 6.368.528 12.764m93.458-19.261q.068 2.044.227 4.808.158 2.765.431 6.631.272 3.866.42 6.174.147 2.307.507 10.066m-.656-28.34q1.218.093 2.788.122 1.571.03 2.753.028 1.181-.002 4.062-.042t6.376-.067q3.493-.027 4.166-.01t6.473.096m.983 1.336q.142 3.166 1.131 13.751l.4 3.06m-26.363 10.982q1.175-.025 1.528-.003t1.962.019q1.609-.004 3.406-.044t4.758-.355 5.909-.8m-5.86-20.686q.244 6.368.528 12.764"/>
        <path d="M-420.903 595.57q.068 2.044.227 4.808.158 2.765.431 6.631.272 3.866.42 6.174.147 2.307.507 10.066m26.945-26.877q.142 3.166 1.131 13.751l.4 3.06m-26.363 10.982q1.175-.025 1.528-.003t1.962.019q1.609-.004 3.406-.044t4.758-.355 5.909-.8m.592-.306q2.12-1.916 7.807-7.699m-14.259-12.681q.244 6.368.528 12.764m89.394-16.36q.068 2.044.227 4.808.158 2.765.431 6.631.272 3.866.42 6.173t.507 10.067m-.656-28.34q1.218.093 2.789.122 1.57.03 2.752.028t4.063-.042 6.375-.067q3.493-.027 4.166-.01t6.473.096m.984 1.336q.141 3.166 1.13 13.751l.4 3.06m-26.363 10.982q1.175-.025 1.528-.003t1.962.018 3.406-.043 4.758-.355 5.909-.8m-5.86-20.686q.244 6.368.528 12.764"/>
        <path d="M-315.58 598.7q.068 2.044.227 4.808.158 2.765.431 6.631.272 3.866.42 6.173t.507 10.067m26.946-26.877q.141 3.166 1.13 13.751l.4 3.06m-26.363 10.982q1.175-.025 1.528-.003t1.962.018 3.406-.043 4.758-.355 5.909-.8m.592-.306q2.12-1.916 7.807-7.699m-14.259-12.681q.244 6.368.528 12.764m90.321-25.24q.068 2.044.227 4.808.158 2.765.431 6.631.272 3.866.42 6.173t.507 10.067m-.656-28.34q1.218.093 2.789.122 1.57.03 2.752.028t4.063-.042 6.375-.067q3.493-.027 4.166-.01t6.473.096m.984 1.336q.141 3.166 1.13 13.751l.4 3.06m-26.363 10.982q1.175-.025 1.528-.003t1.962.018 3.406-.043 4.758-.355q2.96-.315 5.909-.8m-5.86-20.686q.244 6.368.528 12.764"/>
        <path d="M-209.33 592.95q.068 2.044.227 4.808.158 2.765.431 6.631.272 3.866.42 6.173t.507 10.067m26.946-26.877q.141 3.166 1.13 13.751l.4 3.06m-26.363 10.982q1.175-.025 1.528-.003t1.962.018 3.406-.043 4.758-.355q2.96-.315 5.909-.8m.592-.306q2.12-1.916 7.807-7.699m-14.259-12.681q.244 6.368.528 12.764m-74.538 26.033q.612-.13 3.315-.582t4.623-1.03 2.689-.983q.768-.405 1.093-.648.326-.243 1.028-1.124.703-.88.904-1.395t.256-.848q.054-.333.041-.648-.014-.314-.104-.663-.091-.348-.207-.571t-.514-.611q-.397-.389-1.167-.561-.769-.172-1.242-.063-.472.109-.743.264-.272.155-.525.399-.254.244-.39.427t-.368.7-.423 1.528-.216 1.707.139 2.523.271 2.509.419 2.418.625 3.167 1.106 3.613 1.122 2.721.733.975q.404.435.84.714t.97.445.841.164q.306-.001.435-.027t.422-.15.734-.5q.44-.377.723-1.007.283-.631.275-1.072t-.04-.565q-.031-.123-.174-.421-.142-.299-.258-.453t-.746-.642q-.631-.488-1.4-.79-.77-.303-1.368-.434-.597-.131-1.052-.2-.455-.068-1.447-.145-.991-.077-2.284-.034t-1.96.121-1.669.262-2.059.461-1.62.464-1.242.457-1.296.559-1.041.53-1.236.876q-.813.636-1.065.906-.251.27-.476.576-.224.307-.459 1.018-.234.711-.209 1.228.025.518.141.828t.38.657.836.657.9.373q.326.064.573.061t.433-.032q.186-.028.782-.294t.878-.497.553-.567.515-.837.377-1.084.168-1.12q.033-.536-.033-1.335-.065-.799-.194-1.571t-.43-2.133-.386-1.758l-.256-1.2q-.171-.801-.532-2.538-.36-1.737-.614-2.998-.254-1.26-.53-2.408-.277-1.147-.675-2.178-.399-1.032-.675-1.459-.275-.428-.541-.689-.266-.262-.493-.388-.227-.127-.713-.234-.485-.107-.852-.047-.366.061-.607.165t-.463.236q-.223.132-.449.322t-.747 1.008q-.52.817-.648 1.421-.127.603.024 1.354.152.751.202.854.051.104.189.294.139.191.943.721t1.303.685q.498.155.9.226t.785.101.778.027.622-.016.484-.043.59-.079q.332-.05.573-.099.241-.05.336-.077t.918-.177m-104.699-.947q.612-.13 3.315-.582t4.623-1.03 2.689-.983q.768-.405 1.093-.648.326-.243 1.028-1.124.703-.88.904-1.395t.256-.848.041-.648q-.014-.314-.104-.663-.091-.348-.207-.571t-.514-.611q-.397-.389-1.167-.561-.769-.172-1.242-.063-.472.109-.743.264-.272.155-.525.399-.254.244-.39.427t-.368.7-.423 1.528-.216 1.707.139 2.523.271 2.509.419 2.418.625 3.167 1.106 3.613 1.122 2.721.733.975q.404.435.84.714t.97.445.841.164.435-.027.422-.15.734-.5q.44-.377.723-1.007.283-.631.275-1.072t-.04-.565-.174-.421q-.142-.299-.258-.453t-.746-.642-1.4-.79q-.77-.303-1.368-.434-.597-.131-1.052-.2-.455-.068-1.447-.145-.991-.077-2.284-.034t-1.96.121-1.669.262-2.059.461-1.62.464-1.242.457-1.296.559-1.041.53-1.236.876q-.813.636-1.065.906-.251.27-.476.576-.224.307-.459 1.018-.234.711-.209 1.228.025.518.141.828t.38.657.836.657.9.373q.326.064.573.061t.433-.032q.186-.028.782-.294t.878-.497.553-.567.515-.837.377-1.084.168-1.12q.033-.536-.033-1.335-.065-.799-.194-1.571t-.43-2.133-.386-1.758l-.256-1.2q-.171-.801-.532-2.538-.36-1.737-.614-2.998-.254-1.26-.53-2.408-.277-1.147-.675-2.178-.399-1.032-.675-1.459-.275-.428-.541-.689-.266-.262-.493-.388-.227-.127-.713-.234-.485-.107-.852-.047-.366.061-.607.165t-.463.236q-.223.132-.449.322t-.747 1.008q-.52.817-.648 1.421-.127.603.024 1.354.152.751.202.854.051.104.189.294.139.191.943.721t1.303.685q.498.155.9.226t.785.101.778.027.622-.016.484-.043.59-.079q.332-.05.573-.099.241-.05.336-.077t.918-.177m-21.699 185.553q.612-.13 3.315-.582t4.623-1.03 2.689-.983q.768-.405 1.093-.648.326-.243 1.028-1.124.703-.88.904-1.395t.256-.848.041-.648q-.014-.314-.104-.663-.091-.348-.207-.571t-.514-.611q-.397-.389-1.167-.561-.769-.172-1.242-.063-.472.109-.743.264-.272.155-.525.399-.254.244-.39.427t-.368.7-.423 1.528-.216 1.707.139 2.523.271 2.509.419 2.418.625 3.167 1.106 3.613 1.122 2.721.733.975q.404.435.84.714t.97.445.841.164.435-.027.422-.15.734-.5q.44-.377.723-1.007.283-.631.275-1.072t-.04-.565-.174-.421q-.142-.299-.258-.453t-.746-.642-1.4-.79q-.77-.303-1.368-.434-.597-.131-1.052-.2-.455-.068-1.447-.145-.991-.077-2.284-.034t-1.96.121-1.669.262-2.059.461-1.62.464-1.242.457-1.296.559-1.041.53-1.236.876q-.813.636-1.065.906-.251.27-.476.576-.224.307-.459 1.018-.234.711-.209 1.228.025.518.141.828t.38.657.836.657.9.373q.326.064.573.061t.433-.032q.186-.028.782-.294t.878-.497.553-.567.515-.837.377-1.084.168-1.12q.033-.536-.033-1.335-.065-.799-.194-1.571t-.43-2.133-.386-1.758l-.256-1.2q-.171-.801-.532-2.538-.36-1.737-.614-2.998-.254-1.26-.53-2.408-.277-1.147-.675-2.178-.399-1.032-.675-1.459-.275-.428-.541-.689-.266-.262-.493-.388-.227-.127-.713-.234-.485-.107-.852-.047-.366.061-.607.165t-.463.236q-.223.132-.449.322t-.747 1.008q-.52.817-.648 1.421-.127.603.024 1.354.152.751.202.854.051.104.189.294.139.191.943.721t1.303.685q.498.155.9.226t.785.101.778.027.622-.016.484-.043.59-.079q.332-.05.573-.099.241-.05.336-.077t.918-.177"/>
        <path stroke-width="5" d="M-522.523 838.63q-.04.377.147 4.245.188 3.868.24 6.524t.203 7.397q.152 4.741.422 8.73.271 3.988.415 5.628t.644 4.738.853 4.336.785 2.019.936 1.452.568.759.564.556 1.361.921q.863.452 2.913 1.091 2.051.638 3.809.669t3.806-.067q2.049-.1 4.508-.247t3.623-.294 2.666-.306 2.038-.187 2.289-.212q1.754-.184 3.193-.383 1.44-.198 2.878-.304t4.223-.212 2.957-.126q.17-.021 1.846-.031t3.021.006 2.694-.011q1.35-.027 4.627-.229 3.277-.203 4.49-.31t2.136-.216 1.746-.186q.824-.077 4.346-.554 3.521-.477 5.089-.871t3.098-1.053 2.148-1.068 1.36-1.137 1.472-1.886 1.311-2.915.71-2.332q.127-.575.467-4.908.341-4.332.115-10.084-.227-5.753-.469-10.178t-.413-6.498q-.171-2.072-.584-5.122t-.668-5.27-.412-3.782-.339-2.576q-.182-1.012-.671-5.695t-1.395-8.392-1.208-4.373q-.303-.663-.739-1.343t-.79-1.087q-.353-.406-.672-.672t-.75-.672-1.26-.989q-.831-.584-2.406-1.189t-4.525-1.229-6.003-.758-4.83-.041-2.447.186-1.921.242-1.359.135-4.322.561-6.958.938-3.767.463l-4.683.456q-3.659.356-5.72.61t-2.686.381q-.626.127-3.137.659t-5.417 1.209-4.513 1.16q-1.608.482-2.781.931t-1.549.631-1.851.882-2.527 1.288-1.446.819q-.396.232-1.149 1.016-.753.785-1.054 1.142t-.576.962-.668 2.126-.45 2.22-.054 1.076.121 3.018.273 3.98.271 2.092q.114.752.398 2.903.283 2.151.327 2.303t1.204 8.833"/>
        <circle cx="-507.468" cy="825.164" r="2.5" fill="#fff" stroke-width=".1"/>
        <circle cx="-504.808" cy="847.549" r="2.5" fill="#fff" stroke-width=".1"/>
        <path d="M-494.077 823.179q.478-.182 1.003-.118.526.064 1.26.053.735-.012 1.463-.12t1.864-.393 1.36-.355q.226-.069.903-.191.678-.122 1.331-.164.652-.041 1.541-.03.89.01 2.076-.09t2.416-.342q1.231-.241 1.765-.376.533-.134 1.798-.417 1.264-.284 2.659-.258t1.962-.003q.566-.029 1.452-.122.885-.093 1.622-.198.736-.105 1.858-.15 1.121-.045 6.957-.162m-31.992 28.061.427-.204.687.147.666-.04q.903-.158 1.952-.491t1.83-.516 1-.22q.218-.036 1.208.045.989.08 1.053.094t.965.042 1.801-.058 1.754-.238q.854-.151 2.098-.281 1.244-.129 1.923-.062.68.066 1.546.121.867.054 2.227.012t2.482-.123q1.121-.081 2.077-.109.955-.028 1.497-.06t1.391-.154.97-.157 1.664-.143 3.744-.443"/>
        <path stroke="#999" d="m-460.053 809.606-.181-.675q-.004-.343.015-3.904.02-3.561.379-6.236.36-2.675.493-3.278t.737-2.115q.603-1.51 1.276-2.637.672-1.126 1.507-2.139t2.822-2.784 2.804-2.294 2.109-1.205 1.587-.832 1.46-.559 2.034-.645 1.333-.366 3.344-.721q2.881-.59 4.113-.872 1.232-.281 2.775-.684t2.043-.54q.502-.137 2.554-.934 2.052-.796 2.836-1.145.783-.348 1.5-.685.716-.337 1.703-1.042t1.431-1.131.971-1.032q.528-.607 1.498-2.124.971-1.516 1.632-3.137t1.073-3.288q.413-1.668.544-2.709t.163-1.166.065-4.137-.164-5.167-.371-1.98-.312-1.84-.416-3.331-.573-5.247q-.294-2.933-.394-4.101-.099-1.168-.143-2.985t.027-4.453q.072-2.636.508-5.158.435-2.521.717-3.391t.787-1.96 1.093-2.032.656-1.066q.069-.124 1.354-1.576t2.277-2.267q.991-.815 2.946-1.872t2.018-1.103 2.328-.835q2.264-.788 4.975-1.558t6.134-1.703 4.264-1.177q.84-.244 1.821-.517.98-.273 3.11-1.048t5.405-2.454l1.454-.981 1.1-.972q1.244-1.409 1.656-2.035t.878-1.554.715-1.718.438-1.785.251-1.604q.063-.61.058-1.04t-.02-1.3q-.015-.868-.088-2.392t-.149-2.034q-.077-.51-.375-3.934"/>
        <path stroke="#999" d="m-457.393 837.005.058-.488q.012-.094.355-1.203t.855-2.258.883-1.629q.372-.48.611-.715.24-.235 2.424-1.74 1.578-.731 1.789-.865t1.564-.543 2.307-.595 2.641-.469q1.686-.284 4.39-.777 2.704-.492 3.412-.657.708-.164 2.107-.711 1.398-.547 2.359-1.132t1.66-1.287.94-1.021q.241-.32.606-.995.364-.676.546-1.205.182-.528.398-1.251.215-.722.378-1.692t.243-2.209q.079-1.24.102-3.171t.109-4.047q.085-2.115.212-4.134.126-2.018.387-3.333.261-1.314.858-2.964t1.133-2.506 1.01-1.441q2.641-2.114 3.166-2.428t1.566-.785 2.109-.882 3.941-1.147 3.431-.87 1.072-.223 1.533-.326 2.604-.715 3.595-1.108 2.418-.763q.406-.133 1.096-.439t1.684-.873l1.109-.633q.115-.065.932-.699.816-.633 1.347-1.21.531-.578.954-1.247t1.014-2.114.808-2.297.521-4.054.263-4.839-.079-3.383-.172-3.222-.209-2.311-.134-1.822-.21-2.801q-.149-1.816-.373-5.164-.224-3.349-.284-4.697-.06-1.349-.144-2.822-.085-1.474-.138-2.13-.052-.657-.061-.853t-.052-1.936q-.044-1.739.405-6.38.448-4.641.75-5.668.302-1.026 1.493-3.61.156-.205.296-.532.14-.326 1.15-1.524t1.6-1.696q.589-.499 1.978-1.291t2.682-1.267 4.254-1.016q2.961-.542 3.83-.658.869-.117 1.872-.222t3.789-.478q2.784-.373 4.555-.602 1.772-.228 2.558-.345t2.318-.287l2.566-.284q1.036-.115 5.309-.319t4.62-.224q.348-.02 1.948-.053t4.598-.041q2.997-.007 5.538-.019t6-.057q3.459-.046 6.056-.119t4.581-.164 3.29-.138q1.304-.047 7.95-.373 6.645-.326 11.818-.709t8.336-.791q3.162-.407 6.653-1.335t5.674-2.056 3.178-1.996 1.354-1.311.787-1.283q1.101-4.859 1.095-5.868t-.099-1.635l-.365-2.448q-.272-1.823-.56-3.458t-.329-2.007m-110.569 4.507q.053-.255.565-1.634.512-1.378.91-2.556.397-1.178.906-2.494.51-1.316.99-2.259t.83-1.447.908-1.065.91-.801.513-.329q.162-.09.37-.115.209-.026.531.014l.388.049q.066.009.895.506.83.498 1.3 1.028.469.53 1.617 2.773t1.468 2.863q.321.62.61 1.105t.51 1.101l.142.098.303.517"/>
        <path stroke="#999" d="M-271.81 692.098q-.054-.26-.078-.421-.024-.162.081-.782.105-.619.543-2.73.437-2.11.957-3.614.519-1.504 3.46-5.145.043-.003.604-.099t1.008.027.774.324.353.207q.026.005.918.868.891.863 1.685 1.807.793.945 1.497 1.738.703.792 1.506 1.625t1.297 1.399l-.011.092q-.047.129-.001.153.045.023.073.078"/>
    </g>
</svg>
