<svg xmlns="http://www.w3.org/2000/svg" xml:space="preserve" viewBox="0 0 960 480">
    <g fill="none" stroke="#fff" stroke-linecap="round" stroke-linejoin="round" stroke-width="5">
        <path stroke-width="6.667" d="M93.724 407.488q-.016-.578.365-8.686.383-8.109.307-15.96-.078-7.85-1.432-22.953-1.356-15.104-2.054-23.679-.696-8.573-1.088-14.232-.392-5.657-.82-13.313-.428-7.655-.676-11.579t-.968-13.892q-.72-9.966-1.138-15.549-.42-5.581-.558-7.367-.137-1.785-.629-6.964-.492-5.177-.816-7.88-.325-2.702-.912-8.037-.585-5.335-.81-9.92-.227-4.587-.527-10.219-.302-5.633-.824-12.193t-.72-10.408-.332-7.788-.588-18.263q-.455-14.32-.664-22.774-.21-8.452-.238-12.924-.026-4.474-.038-8.26-.014-3.788.066-6.558.079-2.77.786-8.618.706-5.85 1.449-8.467.743-2.619 1.576-4.288.832-1.67 1.847-2.944 1.014-1.273 1.79-2.024.776-.75 2.703-2.035 1.928-1.285 7.837-2.64 5.91-1.356 9.839-1.433t8.19.127q4.262.205 7.573.284 3.31.078 5.225.062 1.915-.014 8.645-.456 6.732-.44 14.491-.51t15.061.426q7.304.5 17.726.842t16.001.245q5.577-.097 17.943.413 12.365.511 20.754.924 8.391.415 13.436.411 5.047 0 19.78-.577 14.732-.574 44.307-.8 29.575-.228 36.036-.436 6.46-.208 11.935-.338 5.476-.128 11.873-.22 6.396-.093 10.393-.106 3.996-.014 19.51-.539t27.548-1.39 24-1.678 26.089-1.348q14.121-.535 24.45-.744 10.327-.21 21.27-.337 10.941-.128 23.747-.399 12.805-.272 22.044-.537 9.238-.266 16.654-.234t13.528.223q6.114.19 16.498.363 10.384.17 14.86.025t10.037-.557q5.561-.414 9.547-.852 3.984-.438 13.594-1.442 9.611-1.002 25.1-1.772 15.49-.769 26.038-1.388 10.548-.62 16.132-.765t8.708.152q3.122.296 4.764.639t4.569 1.245l3.079 1.48q2.289 1.193 2.481 1.26t8.024 5.307q7.83 5.238 14.387 9.641 6.554 4.401 9.86 6.373 3.306 1.974 10.189 5.995 6.883 4.023 9.395 5.641 2.51 1.62 5.002 3.388t5.25 3.848q2.76 2.082 6.4 4.867 3.641 2.784 7.788 5.799 4.146 3.014 5.426 3.96 1.28.945 6.876 5.112t9.562 7.217q3.964 3.052 5.492 4.376 1.526 1.324 2.686 2.612t2.218 2.544 1.846 2.55q.787 1.297 1.143 2.14.356.842 1.085 3.417.73 2.576 1.228 7.306.499 4.732.504 8.734.004 4.001-.07 6.453-.072 2.45-.118 4.456-.046 2.005-.222 7.783t-.288 12.304q-.112 6.525-.092 11.733t.05 13.737q.03 8.53-.037 14.52-.068 5.992-.085 7.732t-.124 6.13.118 15.233q.226 10.845 1.716 28.39t2.339 26.693 1.179 12.657.6 6.97q.27 3.46.469 5.455.199 1.994 1.57 21.25"/>
        <path stroke-width="6.667" d="M752.714 74.601q.203.567.482 3.924.278 3.356 1.122 9.07.843 5.714 1.264 9.729.422 4.016.674 7.692.252 3.674.384 5.861.13 2.185.232 3.75.101 1.563.146 1.814.046.25.151 4.333.107 4.084.128 6.72t.061 4.42.203 3.6q.161 1.816.216 2.602t.153 2.781q.099 1.993.422 5.423.321 3.428.382 4.201.06.773.578 5.239.517 4.466.568 5.045.052.58.06.721t.478 2.936l.151.263.555 2.455m.122 4.608q.69-.419 1.108-.71.42-.293 1.691-.7 1.27-.405 2.06-.664.79-.258 2.961-.806t4.903-.926q2.73-.377 9.817-.928 7.086-.55 18.882-1.428t18.445-1.214q6.648-.338 12.764-.582 6.115-.242 8.63-.397 2.514-.153 4.545-.31 2.029-.157 4.53-.333t4.646-.308 4.048-.28q1.902-.149 3.274-.23 1.372-.083 8.862-.266m-722.326 17.016.72.307 1.214.785q1.937 1.44 8.616 6.586 6.678 5.145 13.385 9.717 6.708 4.572 16.763 9.613"/>
        <path stroke-width="6.667" d="m148.844 210.154.372-.444q1.354-1.214 13.901-10.634t27.813-21.327"/>
        <path stroke-width="6.667" d="M171.134 169.69q-.181 1.107-1.169 12.96-.99 11.852-.224 35.11l.23 1.452m50.671-39.667q1.016.337 6.938 3.93t9.373 5.903 7.04 4.962 6.31 4.781 5.022 4.05 7.312 5.62"/>
        <path stroke-width="6.667" d="M263.905 171.878q-1.347.76-1.88 1.12-.533.358-1.25.91-.715.553-3.126 2.501t-9.457 7.804q-7.05 5.857-14.059 12.004-7.01 6.148-20.532 18.168"/>
        <path stroke-width="6.667" d="M240.686 162.474q-.532 1.44-1.27 6.298-.739 4.86-1.027 13.042t-.157 15.548q.129 7.367.053 11.111-.077 3.743-.248 5.993t-.58 4.951m57.716-43.396q.275.597 5.07 6.467t9.951 10.365 8.816 6.644 8.476 3.696q4.818 1.547 11.227 2.817"/>
        <path stroke-width="6.667" d="M334.017 171.592q-.6.406-3.005 2.325-2.407 1.917-7.706 6.625t-16.69 13.296-20.591 14.511l-2.56 1.488"/>
        <path stroke-width="6.667" d="M316.786 160.582q-.338.495-.646.966-.376.67-2.342 9.378-1.966 8.711-2.669 14.708-.701 5.998-1.556 17.32-.855 11.32-.925 13.098t-.051 2.48.215 1.18q.141.242.198 1.412m87.552-54.598-.028.382q.108 1.262.091 1.81-.016.546 1.745 11.44 1.762 10.891 3.219 18.291 1.457 7.399 2.187 15.44l.293 1.104"/>
        <path stroke-width="6.667" d="m396.709 167.68 1.501-.518q.286-.097 3.06-.065 2.775.03 6.843.783 4.068.752 6.939 1.862t5.39 2.98 3.722 3.167q1.204 1.296 3.076 5.128t2.254 8.736q.384 4.904-.248 7.847-.633 2.941-1.572 4.948-.94 2.005-6.604 7.637-5.664 5.63-12.041 10.636.076.108 3.467-4.86m30.905-12.611.76-.468q1.168-.29 4.46-1.765t6.31-3.673q3.017-2.2 4.786-4.346 1.77-2.145 2.53-4.578.76-2.435.59-4.183t-1.123-2.917q-.954-1.168-2.698-1.719t-3.412-.476q-1.667.076-3.67 1.008-2.004.933-3.982 2.921-1.979 1.99-2.97 3.656-.99 1.667-1.726 4.95t-.714 5.314.971 5.284q.95 3.255 2.577 5.695t3.408 3.941 4.372 2.448 5.52 1.052q2.93.104 6.687-.805 3.759-.908 12.23-5.816m11.005-25.48q.021.928.028 1.565.118 1.011 2.53 4.938 2.412 3.925 5.988 8.961t5.706 7.824q2.128 2.79 6.632 6.548l.757-.39q.476-.269 2.33-8.597 1.853-8.328 2.551-14.2.699-5.87 1.112-7.293.415-1.421 1.118-.91m14.444-23.214q-.434 1.595-1.076 8.556t9.905 47.28q.313.261-1.161-2.928m42.164-9.103q.013-.162.381-.874.37-.714.692-1.794.323-1.08.408-2.882t-.061-3.206q-.147-1.405-.954-3.489-.808-2.084-2.412-4.1t-4.054-3.375q-2.45-1.36-4.586-1.684-2.136-.322-4.373.116-2.237.44-4.99 2.475t-4.351 5.163q-1.598 3.126-2.062 5.693-.464 2.565.05 6.91.512 4.343 1.946 7.306 1.435 2.963 2.814 4.413 1.378 1.45 2.664 2.192 1.285.743 3.476 1.192 2.192.45 4.761-.2 2.57-.653 4.285-1.837t2.903-2.588 1.89-3.021q.703-1.618.99-3.37t.488-5.093m39.417-3.137q.056-.159.295-.768l.259-.588q.198-.944.098-2.287-.101-1.341-1.062-3.363-.963-2.022-4.424-5.337-3.463-3.313-6.492-4.581-3.028-1.267-5.098-1.384-2.07-.118-3.592.205-1.521.321-2.629 1.003-1.107.681-2.653 2.33t-2.822 5.427q-1.276 3.776-1.413 7.119t1.663 9.288q1.798 5.946 3.768 8.781t3.306 3.919q1.336 1.082 3.104 1.516 1.77.433 2.882.345t2.484-.688q1.372-.599 3.484-2.407t4.201-5.349 3.584-7.025q-.092.038 2.135 7.413 2.228 7.375 3.741 13.692 1.513 6.319 2.367 10.368.853 4.048 1.452 7.779.597 3.73.765 6.324t-.099 4.662q-.266 2.07-.554 2.947-.288.879-.596 1.584-.31.707-.894 1.32-.584.615-1.674 1.23-1.092.613-5.327 1.071-4.235.46-8.09-.47-3.857-.93-6.494-2.463t-3.89-2.783-1.953-2.322q-.696-1.074-1.064-2.854t1.387-9.526m75.616-54.995.719-.483q.073-.025.73-.613.659-.588 1.366-1.303.705-.716 2.901-3.253 2.196-2.539 5.552-8.525t6.227-17.852q-.039-.02-.21.581-.169.601-.241 1.06t-.188 1.068-.353 7.959q-.238 7.352.313 14.492.55 7.138 1.219 12.097.668 4.959.918 6.903.251 1.945.283 2.565.032.621.112.65t-.101.091"/>
        <path stroke-width="6.667" d="M144.576 244.072q3.728-.644 6.36-1.01 2.63-.368 7.37-.92 4.74-.554 8.038-.886t4.944-.564 4.756-.492q3.108-.259 3.966-.31.859-.049 3.824-.322 2.966-.272 5.48-.443 2.514-.172 5.498-.357 2.984-.187 4.821-.383 1.837-.195 2.941-.336 1.104-.14 2.183-.217 1.077-.076 3.985-.334 2.908-.257 6.807-.574 3.899-.319 13.873-.523t15.899-.095q5.924.112 16.45-.113 10.525-.224 26.657-.464 16.133-.241 30.121-.04t27.448.553 25.232.922 19.43 1.134q7.657.567 12.042.93 4.385.362 15.385 1.402 10.999 1.042 28.255 1.752 17.255.712 27.97.556 10.714-.154 16.16-.502 5.445-.347 22.703-1.13 17.26-.784 31.639-1.168 14.377-.385 20.77-.624 6.393-.238 19.389-.254 12.997-.016 19.924-.102t11.244-.26q4.316-.18 6.969-.356 2.652-.176 19.895-.5 17.242-.325 27.348-.277t20.834-.764 21.178-1.185q10.449-.374 19.085.6.279-.016 1.117 1.294"/>
        <path stroke-width="2.667" d="M162.202 320.462q.73.152 49.266-.672l2.556.112"/>
        <path stroke-width="2.667" d="M185.181 306.272q.065.333.195 8.596t.42 14.334.526 10.407q.236 4.333.107 7.581-.13 3.247-.604 5.46-.473 2.211-.981 3.16-.507.947-.883 1.33-.376.382-1.324.962-.947.582-1.804 1.064t-2.237 1.115q-.251 0-1.832.283m-10.487-20.187q-.213.67-.303.908.008.332-5.808 10.885m46.172-8.96.298.81q.073.474 7.373 6.78m-6.061-46.882-.498-.252q-.306-.62-.505-.937-.199-.319-.39-.555-.19-.237-.595-.525-.404-.287-1.403-.576-.999-.288-1.603-.232t-.966.425-.51 1.048q-.146.68-.122.894t.312.684.525.67 1.088.472 1.228.235.51-.084.275-.156q.142-.11 1.335-.256m50.373 2.583q.41.013 30.258-1.32m-41.848 18.285q.365-.095 1.79-.36 1.426-.264 2.16-.316.736-.053 6.258-.41 5.521-.355 12.092-.585 6.569-.229 31.42-1.424l1.785-.258m-31.287 6.324q-.253 1.044-.064 1.786.188.744.24 2.168.052 1.426-.224 4.307-.274 2.881-.629 4.419-.353 1.538-.721 2.534t-1.008 2.26q-.642 1.263-.975 1.798-.333.534-2.533 3.001-2.199 2.47-2.923 3.11-.723.64-8.475 6.137m79.118-52.118q-.267 1.503-.278 1.986-.012.481-.116.906-.104.424.294 7.428.396 7.004.901 10.806t1.168 9.448q.661 5.646.903 14.77.105.235-.246 1.22"/>
        <path stroke-width="2.667" d="M331.978 323.748q1.147.128 3.979.944t4.723 1.326 2.986.763q1.096.25 2.36.559t2.527.653 2.957.865q1.694.524 4.98 1.48m25.035 32.232-.299-.438q-.501-.476-.892-.606-.39-.129-.898-.222-.51-.094-1.222-.018-.713.076-.773.076t-.623.303q-.561.304-1.101.87-.54.569-.65.935-.113.367-.1.483t-.003.364q-.016.25.153.712.17.463.415.739.245.277.736.538.49.262.625.306.135.042 1.107.134.97.092 1.536-.07.565-.163 1.045-.419.481-.257 1.552-.685"/>
    </g>
</svg>
