<svg xmlns="http://www.w3.org/2000/svg" xml:space="preserve" viewBox="0 0 960 480">
    <g fill="none" stroke="#FFF" stroke-linecap="round" stroke-linejoin="round" stroke-width="2" transform="translate(-499.045 -1219.916)scale(1.33333)">
        <path d="M388.184 974.014q-.034.093-.317.761-.282.668-.805 3.94t-.683 5.892-.158 5.377.679 7.62 1.635 7.339q.956 2.476 2.369 4.086 1.412 1.61 3.086 1.914 1.673.305 2.807.132 1.134-.174 3.754-2.149t4.835-5.311 3.867-7.995 1.315-24.299q-.475-.209-.811 2.748t-.203 5.471.535 5.68.803 5.628 1.697 7.495 2.777 8.949l.492.815m20.606-14.966-.316-.376q-.743-1.007-1.551-1.957-.809-.949-1.58-1.488-.771-.538-1.77-.877-.998-.339-1.858-.361-.859-.022-1.72.321-.861.342-1.549 1.116t-.912 1.589q-.225.815-.175 1.82t.671 2.195q.622 1.19 1.825 2.101 1.203.91 1.864 1.183t1.207.493 1.662.501q1.115.283 2.889.659t2.667.648q.894.273 1.849.688.956.414 2.535 1.85 1.578 1.436 2.408 3.005.83 1.57.967 2.233t.072 1.428q-.065.764-.368 1.477-.304.713-2.076 1.35-1.773.636-3.276.514t-3.282-.931-3.229-1.848-3.986-3.691m28.549-3.372.147-.165 1.636-.803q.214-.242 1.174-.77.959-.528 2.272-1.801 1.314-1.274 1.888-2.467t.591-2.355-.244-1.698-1.375-1.181-2.28-.556q-1.168.089-1.718.269-.551.18-2.09 1.505t-2.488 3.406-1.098 3.449.086 2.986q.234 1.619 1.157 3.277t2.019 2.571 2.061 1.329q.966.417 3.048.599t4.301-.467q2.22-.649 8.057-3.82m18.948-23.835q-.015-.21-.519-1.107.077-.352.008-1.859-.07-1.508-.435-3.125-.366-1.618-1.403-3.612t-2.29-3.268-2.345-1.742-2.243-.352q-1.151.114-2.319 1.758t-1.811 5.087-.13 9.693 1.683 12.859q1.171 6.608 1.754 9.503t.884 3.835q.302.939.374.98.071.041.101-.246"/>
        <path d="M479.097 994.795q1.023-.082 12.115-2.176m13.318-2.316q-.435 1.324-.411 1.851.023.527.051 1.885t.316 3.021.969 2.988q.679 1.325 1.247 1.912.567.588 1.264.981.697.394 1.702.371 1.006-.023 2.035-.677 1.028-.654 1.628-1.206.6-.553 1.768-2.174 1.167-1.621 2.665-4.91-.018.055.348 1.481.365 1.426 1.002 3.405t1.513 4.002q.875 2.024 2.505 4.415m7.488-45.023q-.476 1.202-.89 9.418t.226 16.582 1.259 12.912.995 5.814q.151.252.797 1.354m-140.196 76.584q-.173.967.138 7.734.311 6.766.778 10.228.466 3.463 2.191 18.489.071.107-.246.365m-4.245-38.14q1.299-.453 6.021-.986t8.197-.946 7.772-1.236"/>
        <path d="M394.469 1105.154q.976.097 15.906-2.316m13.099-1.12q.029.184-.15.616-.179.433-.306 1.46-.127 1.028-.143 1.838t.134 3.056q.149 2.245.78 4.064t1.363 2.674 1.274 1.098 1.245.156 3.344-2.721 4.24-5.584q1.601-2.949 1.891-3.793t.219-.832q-.071.013-.093.173t.015.658.212 1.581 1.047 3.256q.871 2.172 1.686 3.675.814 1.503 2.518 3.514m6.886-18.007q-.227 4.732 5.253 19.208.076 0 .273-.296.196-.29.849-1.776t1.308-2.903q.654-1.418 1.535-2.851t1.996-2.469 1.872-1.325q.757-.288 1.838-.211t1.663.409q.584.333 1.822 1.556 1.239 1.222 2.732 4.256 1.494 3.033 1.739 4.708m158.033-99.187q.105.8.99 4.343.884 3.543 2.87 8.442t3.133 6.547 1.738 2.067.804.451q.215.034.392 0 .177-.033 1.508-4.209t2.89-7.952q.039-.064 3.125 3.44t5.043 5.571 2.706 2.59 1.45.703.972.085q.269-.094 1.19-2.541t1.08-4.7.087-4.607-.22-4.43-1.779-13.323l-.231-2.149m21.917 28.073q.049-.358-.135-2.218-.185-1.86-.699-3.303t-1.353-2.213-1.236-.945-1.507-.303q-1.111-.128-2.196.431t-1.585 1.04-1.248 1.725q-.749 1.242-1.084 3.169t0 3.447q.336 1.518 1.148 2.593.813 1.074 1.852 1.673t2.514.661q1.474.061 3.346-1.063t5.372-6.412m3.698-6.159-.003.579q.227.906 3.707 11.291.092-.094.445-1.885.353-1.792.896-3.608.542-1.816.946-2.702t1.453-2.204 2.663-2.437q1.614-1.117 4.268-2.075m10.057-15.17q.055 1.349.237 5.563.181 4.215.587 7.793t.88 6.496.914 5.281.836 4.226q.049.363.718-.026m8.545-16.556q-.232.169-.734.55-.501.38-2.315 2.998t-2.431 3.926-.786 2.06-.191 1.415q4.148 1.889 6.067 2.258 1.92.368 3.143.594l3.71.688 1.954.146m-96.285 34.609.027 1.159q-.183 1.191 3.392 23.297.065.097.68 1.429"/>
        <path d="m634.523 1072.982.673-.452q.264-.122 1.388-.629 1.124-.508 2.285-.923 1.16-.415 2.29-.764 1.129-.348 1.901-.581.771-.233 9.937-1.818m-13.646 15.755q.538-.164 13.045-3.436m-12.644 14.431 1.415-.247q1.093-.316 16.13-3.202m4.3-7.61q.248.296 1.842 2.114t3.12 3.487q1.524 1.67 3.02 3.212t2.063 2.061 1.049.894 2.552 1.671"/>
        <path d="M673.785 1083.048q-.148.216-1.422 1.341T663 1100.317m17.599-5.816q.386-.289 2.775-2.605t3.404-3.688 1.303-2.115.292-1.245-.366-.838q-.372-.335-.662-.403-.291-.069-.75-.131t-1.863.485q-1.403.547-2.544 1.767t-1.684 2.66-.472 2.577.369 1.827 1.62 1.842 2.435 1.599q1.114.449 2.307.572t3.092-.274 7.232-3.493m.929-8.335q.171.676 5.61 10.901.075-.132.209-2.14.133-2.009.357-3.807.223-1.797.566-2.988t.663-1.811 1.447-1.788 7.108-3m14.776 6.083q-.149-.263-.214-.442-.066-.18-.282-.572-.217-.393-.895-1.017-.678-.625-1.615-.963t-2.025-.282q-1.089.055-2.289.894-1.199.838-2.013 2.857-.815 2.018-.638 3.841t.942 3.065 2.542 2.033q1.776.792 4.024.319t3.906-1.41q1.659-.937 4.442-3.36m5.702-13.234q-.182.046-.607.049-.105.108-.249 1.147m1.712 4.225q.014.965.146 3.143t.296 3.349q.166 1.171.428 2.308t.861 2.92m15.213-9.264-.044-.173q-.054-.258-.302-.905t-.407-.95q-.16-.302-.359-.535t-.662-.566-.858-.48-.951-.17-.834.083q-.279.107-.576.359-.297.253-.443.405-.145.153-.343.736-.198.582-.162 1.13.035.547.444 1.163.409.617.884 1.053t1.203.987 1.745 1.191 1.949 1.321 1.769 2.045q.838 1.366.882 2.105.044.74-1.408 1.564-1.452.823-8.072-.148-.083-.046-.998-.289m17.946-3.309q.276-.262.53-.57.253-.308 1.19-1.016.938-.708 2.256-1.75 1.318-1.041 2.267-2.202.949-1.16 1.355-1.985.405-.826.432-1.594t-.136-1.107q-.164-.337-1.258-.695t-2.34-.034q-1.247.325-2.253 1.317-1.006.993-1.458 1.976t-.576 2.458.261 2.707q.386 1.234 1.368 2.312.982 1.079 2.816 1.76 1.835.681 4.772.363t9.576-3.467m-151.184 54.554-.073.503q-.141.623 2.484 21.809l.073.107.559 1.353"/>
        <path d="M634.757 1146.141q.806.092 14.32-.993m-9.747 12.115 1.121-.149q.174-.065 8.809-.653m10.002-2.252-.058.775.096.742q.101 1.18 1.173 4.104t2.091 4.806q.009-.105.176-1.609.168-1.503.65-3.12.482-1.616.704-2.165t1.486-1.866q1.265-1.319 8.33-4.378m7.47-1.196-.804.548-.781.916m1.985 6.159q-.148 1.393 2.442 11.58m10.202-6.617q.924-1.109 1.767-2.258t1.455-2.266.786-1.817.083-1.36q-.093-.66-.713-.951-.62-.292-1.352-.142-.732.151-1.615 1.28t-1.19 2.12q-.307.989-.314 2.301t.607 2.612q.615 1.299 1.232 1.95t1.913 1.229 2.895.679 3.081-.181 5.412-1.478m1.84-10.855q.444 3.341 1.434 6.478.99 3.138 1.526 4.204.535 1.066 1.326 2.177.162-.287 1.025-2.017.862-1.731 2.354-3.692t2.208-2.311 1.245-.438q.528-.089 1.166.125.639.213 1.421.75.781.536 1.056.793.274.257.745.729.47.473 4.9 7.429m15.158-5.624q-.035-.313.047-.627.083-.314.021-1.288-.063-.975-.27-1.83-.208-.854-.424-1.357-.216-.502-1.037-1.386t-1.686-1.337-2.177-.588-2.398.236-1.938 1.158q-.854.785-1.334 1.856t-.601 2.339.583 2.813q.703 1.545 1.487 2.256.784.712 1.477 1.006t1.502.34q.808.047 2.239-.569t6.294-5.797"/>
        <path d="m742.96 1136.673-.033 1.515.034 1.165q-.049.853 1.269 10.127t3.825 16.51q.158.216.735.868m15.559-15.818q-.567.221-.641.245t-.353-.166-.699-.374q-.421-.185-1.536-.199t-2.047.345-1.492.802-.97 1.233q-.412.79-.383 1.468.029.679.452 1.426.423.748 1.82 1.826t2.873 1.75 2.735 1.298 1.884.996 1.083.766.859.858.812 1.523.332 1.539q-.077.478-.122.719-.044.24-.752.76-.707.52-3.002.679t-3.89-.519-2.218-1.255q-.623-.575-1.041-1.231t-1.119-3.239M634.34 1201.4q-.029.643-.039.995-.011.351.243 1.748t.85 3.561 2.086 6.818q1.49 4.656 3.738 9.465.332-.263.407-.22.076.042.966-5.967t2.638-19.165q.038-.319.17-2.135m6.631 11.186q-.097.08-.278.202t-.14.138q.041.014.087-.038.046-.053-.258.177-.305.23-.668.641m1.658 6.757q-.095.97-.108 1.432t.013 1.16.438 3.228.841 4.832m19.003-10.919-.677-.195q-.492-.355-1.354-.839-.863-.485-1.249-.628t-1.465-.306q-1.078-.161-2.163-.049-1.085.113-1.928.523t-1.473 1.036-1.13 2.543-.307 2.955.348 1.437q.156.4.648.895.491.495 1.268.785t1.935.199 5.306-1.866m.984-26.546q-.191.781-.372 3.73-.181 2.95.963 11.067t2.671 13.09q.115.025 1.766-1.277m3.917.395q.352-.234 2.053-1.83 1.7-1.597 2.486-3.113.785-1.516.889-2.657.105-1.141-.065-1.58t-.843-.845-1.289-.356-.957.227q-.342.176-.975.866-.633.689-1.073 2.271t-.342 2.678.381 1.774q.285.676 1.03 1.502.745.825 2.158 1.32t3.057.174q1.644-.323 6.207-2.938m7.215 2.048q-.195-.158-.722-.393t-.82-.538-1.078-2.094-.8-3.575q-.017-1.783.262-2.533t.565-1.07 1.017-.565q.729-.244 1.887-.015 1.159.229 2.431 1.509 1.272 1.281 1.761 2.939t.374 2.764-.455 1.767-.883 1.126-1.257.686-1.327.248q-.612.028-2.285.075m32.32-5.497-.285-.291q-.313-.924-.919-2.135t-1.573-2.06q-.965-.849-1.873-1.148-.907-.299-1.7-.232-.792.068-1.192.298-.401.23-.817.547t-1.103 1.808-.644 3.112.514 2.604 1.021 1.487.828.652.507.221.766.107.872-.043q.335-.078 1.182-.454.847-.377 1.355-.754l.839-.621q.331-.245 1.077-1.078-.039.207.019.212.058.01.303 1.398.245 1.392.768 3.833.523 2.44 1.085 4.63t1.448 6.049q.886 3.861 1.008 5.886t-.04 2.963q-.162.937-.463 1.662-.3.725-2.016 1.537t-4.211.243q-2.495-.568-3.865-1.451-1.37-.882-1.841-1.313-.471-.432-1.111-1.228-.639-.796-1.599-3.408m25.288-22.766q-.02-.142.084-.456.103-.313.21-.57t.256-.608.124-.486-.077-.94-.282-1.494q-.23-.69-.972-1.42-.742-.731-1.851-.847t-1.787.178-1.701 1.854-1.173 3.409.017 2.69q.169.841.788 1.79.619.948 1.547 1.222.928.275 2.112-.256t2.256-1.664 1.317-1.551q.243-.419.429-.845.187-.425.033-.606-.004-.02.439 1.597t1.468 4.071l.881 1.817m4.773-15.755q-.11 1.081-.18 1.392t-.179 2.414q-.109 2.104 1.703 9.424.193.267.96-1.676.768-1.944 1.26-3.313.491-1.37.83-1.9.34-.531.844-.656.242.052 1.125 1.396.884 1.343 2.75 4.566.325-.547.541-1.122.215-.574.372-.983.156-.409.469-1.115t.558-1.055q.245-.348.493-.479.248-.132.483-.126.236 0 .361.073.126.068.604.493.478.426 3.112 8.01.066.055.71 1.01m8.599-6.49q.109-.275.431-.561.613-.408 1.671-1.843t1.361-2.548.277-1.607-.127-.824q-.103-.329-.561-.661t-1.019-.405q-.559-.074-1.671.348t-2.464 2.097-1.865 3.446q-.512 1.771-.404 2.925t.357 1.786 1.267 1.609 2.458 1.424 3.025.432 2.737-.431 4.803-2.935m14.229-10.588-1.21-.468q-.077-.09-.963-.859t-1.958-1.295-1.808-.564-1.456.164-1.165.642-.686 1.117q-.24.677-.242 1.152t.183 1.057.885 1.361 2.107 1.783 2.921 1.866q1.516.863 2.912 1.612 1.397.749 2.137 1.336t1.099 1.059q.358.471.461.662t.386 1.56.084 2.217q-.199.85-.594 1.271-.396.421-1.115.711-.718.29-2.108.502-1.389.213-3.295-.154t-3.339-1.191-2.217-1.727-2.533-3.951m55.076-115.131-.126.679q-.194.7 2.808 25.365l.579 1.24"/>
        <path d="m849.032 1120.769.482-.098q.975-.225 11.834-1.366m-.346-18.401q-.069.402.117 5.74.185 5.339.976 10.847.791 5.509 1.298 8.54.508 3.031 1.053 6.318"/>
        <circle cx="870.221" cy="1112.026" r="1" fill="#FFF" stroke-width=".1"/>
        <path d="M871.934 1120.769q.102.542.02 1.48t.062 2.441.251 2.029q.107.524.177.709t.417 1.538.731 3.447m3.971-23.696.38.882q.025.299.517 4.422.491 4.123.858 6.732t.678 4.239q.311 1.629.684 2.923l.327 1.189m6.231-13.706q-.653.887-.957 1.563-.304.677-.601 1.362t-.593 1.721-.14 2.587q-.038.51 1.76 1.929 1.799 1.418 3.577 2.314 1.777.897 4.824 2.561"/>
        <circle cx="898.752" cy="1113.744" r="1" fill="#FFF" stroke-width=".1"/>
        <path d="m900.61 1121.1 3.845 9.595m5.629-17.74q-.086.36-.23.906-.153.868 3.21 11.559.097-.067 1.209-1.304t2.287-2.35q1.174-1.114 1.525-1.28.352-.166.83-.159.477.01 2.359 2.226 1.882 2.218 2.33 3.45t1.238 2.834m18.219-6.083q.266-.276.793-.011.527.266.503-.578t-.338-1.558-1.183-1.591-2.332-1.506q-1.461-.631-2.957-.571-1.497.06-2.296.588-.8.529-1.273 2.124-.474 1.595-.313 2.781t.722 2.242q.562 1.056 1.535 1.915.974.859 2.039 1.067 1.065.209 1.728.065.664-.144 1.623-.641.958-.498 1.713-1.16t.977-.905.405-.382.182-.115q.057.195.312 1.128.256.933.533 2.127.276 1.195.974 3.773t1.268 5.233.677 3.799q.107 1.146-.324 3.48t-1.859 2.925-2.389.472q-.961-.117-1.652-.487t-1.531-1.227-1.594-2.35-1.974-5.213m-58.738 49.32-.044.632q.072 2.13 1.238 8.568 1.165 6.439 2.552 12.948l.626 1.624m-4.245-26.814q.593.032 1.47-.05.877-.083 2.144-.176t2.852.14 2.146.539.877.653q.316.345.681 1.104.366.758.456 1.798.089 1.041-.177 2.314t-.513 1.937q-.247.665-.398 1.105-.151.441-.713 1.563-.049.219.841-.021.889-.24 2.142-.367 1.253-.126 2.349.025t1.873.469 2.306 1.71q1.529 1.394 2.253 3.11.725 1.717.732 2.514.006.797-.16 1.497-.167.7-1.4 1.87-1.233 1.169-4.117 2.12t-4.739 1.001q-1.855.049-2.936-.191t-1.324-.444-1.288-1.046m24.577-2.189q.778-.396 3.074-2.607 2.296-2.21 3.063-3.545t.844-1.604q.076-.269.071-1.023t-.283-1.133-1.219-.728-2.087-.061q-1.147.287-1.967.858-.82.57-1.837 1.861t-1.298 3.79 1.463 4.091 4.263 2.14q2.518.546 4.466.375t2.514-.419q.564-.248 2.233-.939m15.031-4.301-.052-.124q.047-.583-.049-1.578-.096-.994-.527-2.321t-1.151-2.003-1.197-.919-1.567-.459-2.351.074-2.266 1.185q-1.003.895-1.283 1.362-.279.467-.575 1.447-.295.981-.203 1.937t.558 1.834q.466.876 1.225 1.426t1.673.766 1.872.152 2.463-.917 2.75-2.042q1.247-1.188 1.772-1.921.043.187.579 1.278t.967 1.974.742 1.406.647.967 1.475 2.037m4.974-27.666q-.45 4.084-.391 6.474t.267 3.949q.208 1.557 1.562 6.379t2.415 6.615 1.595 2.358.984.776.913.191q.465-.02.627-.079t.543-.188q.38-.129 5.258-5.159"/>
        <path d="M943.315 1196.177q1.65-.484 8.8-1.591m29.661-9.799q-.138-.271-.147-.419t-.275-1.105q-.266-.958-.668-1.72t-.744-1.118-.784-.694-.939-.56q-.497-.224-1.151-.344-.653-.12-1.862.163-1.208.282-2.051 1.827t-.872 2.89.457 2.695 1.13 2.128q.643.778 1.403 1.409.761.63 2.887 1.466 2.126.835 4.611 1.282 2.485.446 5.201 1.092 2.716.645 4.045 1.707t1.925 3.072q.596 2.011.396 3.077-.201 1.066-1.422 2.24t-3.981 1.886-4.739.525q-1.98-.185-3.477-.807-1.496-.621-2.494-1.469t-1.305-1.366-.471-.955q-.163-.437-.23-2.14m35.09-2.711q.21-.294.37-.49.16-.195.183-.253t.139-.255q.054-.096.044-.722t-.113-1.024q-.102-.397-.555-1.001-.452-.605-1.643-1.005-1.19-.4-2.413-.312-1.224.089-2.106.521t-1.595 1.082q-.714.649-1.363 2.278-.648 1.628-.196 3.536.453 1.907 1.179 2.795.727.888 1.387 1.328.661.439 1.57.685.908.246 2.13-.031t2.548-1.142 2.371-1.809 2.013-1.876q.071-.093.265.245.193.337.519.869t.384.654.521.825q.464.703 1.173 1.195.709.491 1.48.811.771.319 3.842.045m-.146-28.01q.01.151-.255.926-.21.724 4.102 25.24.108.149.125.711m-.583-9.328q1.667-.307 3.119-.284 1.452.022 3.496.604 2.045.583 3.192 2.103t1.285 2.743q.136 1.224-.397 2.532-.532 1.308-2.034 2.096-1.502.789-2.564.88-1.062.092-1.813-.069-.751-.162-.958-.282t-.756-.613-.912-2.163m19.13.929q.13-.145 1.527-.887 1.398-.742 3.088-2.23 1.689-1.489 2.424-2.627t.914-1.866.18-.996-.262-.87-1.286-.965-1.799-.209q-.777.156-1.542.768t-1.17 1.286-.673 1.94.042 2.674q.31 1.409 1.395 2.615t2.033 1.707 2.547.844 4.061.116 8.853-3.617"/>
        <path d="M1065.219 1187.37q-.054.316-.127 1.021t-.095 1.113q-.021.409.033 1.16t.616 3.54 1.28 7.509q-.113.086.24-1.935t1.05-4.116 1.634-3.457 1.774-2.012q.837-.651 2.095-.932 1.259-.28 1.969-.21t2.072.802 2.326 1.853 2.678 4.203m-434.493-248.08q-.295-.335-.811-1.22-.516-.884-1.494-1.843-.977-.959-1.594-1.312t-1.91-.681-2.622-.074-2.558 1.028q-1.228.772-3.272 3.309t-3.184 5.851-1.324 6.331.46 6.128 1.706 5.175 1.847 3.131 2.209 2.284q1.423 1.215 3.597 1.878t5.657-.446q3.483-1.108 5.299-2.546t2.46-2.108 1.367-1.643 1.837-3.046M658 952.932q-.112.626-.197.864-.228 1.256.85 7.775 1.079 6.518 2.049 9.621.969 3.102 1.368 4.008t.503 1.058q.103.153.792-1.709.689-1.861 1.664-3.876.974-2.014 1.662-2.874t1.115-1.127.878-.391.744-.084 3.103 2.405q2.808 2.365 3.808 4.127 1 1.763 1.565 3.831l.428 1.862m15.031-5.701-1.348-.438q-.242-.343-.964-1.002-.723-.658-1.869-2.223t-1.585-2.666-.557-2.435.013-2.091q.131-.756.545-1.524.414-.767 1.691-1.386t2.879-.346 2.662 1.049 1.662 1.54q.6.764 1.324 3.019t.395 4.605q-.33 2.351-1.042 3.549-.713 1.198-1.348 1.741-.635.542-1.232.72-.597.179-.833.178-.236 0-.677-.15t-.851-.43-.845-.735q-.434-.455-2.793-3.482m14.247-13.973-.083 1.099q.143 1.464 1.187 5.2t1.507 5.47.99 4.195.535 3.86q-.182.088-.308-3.366t.379-6.596 1.151-4.744q.647-1.602 2.065-3.02t2.875-2.047 2.842-.837 2.564-.123 3.754.782m5.174 12.904q.1-.041 1.046.252.567-.088 1.75-.866 1.183-.779 2.326-2.073 1.142-1.295 1.877-2.577.735-1.281 1.089-2.536.355-1.255.334-2.034-.022-.779-.329-1.44-.306-.661-1.463-1.194t-2.191-.468q-1.033.066-1.737.305-.705.238-1.944 1.187-1.24.949-2.095 2.293t-1.269 3.548.288 4.373q.701 2.168 1.741 3.261t1.84 1.561 1.807.743q1.008.275 2.676.361 1.668.087 11.198-3.373m13.372-14.762-1.115-.85q-.098-.108-.681-1.013t-1.014-1.406q-.429-.503-.777-.812t-1.267-.636-1.763-.296-1.624.407-1.624 1.239-1.374 2.081q-.529 1.22-.527 2.427t.255 1.886q.253.677.591 1.144t1.239 1.223 2.438 1.304 3.929.798 3.76.425 2.178.399q.811.223 1.627.688.816.466 1.749 1.688t1.46 3.028.46 2.936-.457 2.219-1.303 2.178q-.914 1.09-1.694 1.546t-2.961.863q-2.181.406-4.489-.053-2.308-.458-4.047-1.407t-4.683-4.126"/>
        <path stroke="#666" stroke-width="5" d="M545.717 987.689q.25-.08 6.526-2.364t10.434-3.521 6.278-1.804q2.119-.569 4.105-1.059 1.985-.491 6.016-1.608t8.242-2.205 8.14-2.222 7.168-2.109q3.241-.977 4.356-1.276t2.438-.707 7.952-2.314m-71.728 22.97q.378.209 2.283 1.934t3.226 2.973 5.611 5.731q4.288 4.483 6.945 7.397t3.099 3.382q.444.466 3.671 4.08t5.314 6.038q2.088 2.424 5.124 6.075t4.48 5.372 4.022 4.708 6.895 7.839 6.08 6.944q1.762 2.092 4.564 5.236t5.647 6.226 4.53 4.895q1.686 1.813 5.393 5.912m-76.611-84.996.595.035q.311.056 1.929.564 1.617.509 4.386 1.572 2.768 1.064 6.018 2.364t3.931 1.576q.682.277 3.277 1.482 2.594 1.205 4.341 2.049 1.746.843 3.688 1.842 1.941 1 4.455 2.393 2.513 1.394 6.352 3.592t6.136 3.431q2.297 1.232 3.429 1.802l1.348.679q.217.109 2.855 1.45t6.159 3.217 6.031 3.361q2.512 1.484 2.716 1.614.204.129.609.489.404.361 2.271 1.904m221.561 94.498-.425.42-1.014.707q-.682.446-5.705 3.569t-9.384 5.788-6.791 4.235q-2.429 1.569-4.536 2.897t-4.753 2.929l-4.734 2.865q-2.088 1.265-3.516 2.166t-2.644 1.638-2.039 1.177-2.081 1.149-3.236 1.84-2.976 1.689q-1 .56-2.953 1.607t-5.995 3.12m20.132-63.82q2.112.92 2.601 1.138t2.342.943q1.854.724 3.629 1.498 1.776.774 2.586 1.19t1.521.801q.712.386.762.419t.891.472q.842.44 2.979 1.371 2.137.932 3.625 1.682t2.473 1.217q.984.466 1.112.505.128.04 3.145 1.668t3.779 2.079q.761.452 2.813 1.677t2.775 1.663q.723.437 1.415.89.693.454 1.754 1.135 1.062.682 1.657 1.081t2.65 1.948"/>
        <path stroke="#666" stroke-width="5" d="m795.311 1093.591.192.391.284.646q.943 1.617 3.011 5.294t3.965 6.843 3.188 5.334 3.151 5.239 3.274 5.3 3.321 5.238q1.906 3.01 3.51 5.538t3.043 4.687 3.531 5.321l3.058 4.623q.965 1.459 2.968 4.567t3.024 4.704 2.353 3.599 3.13 4.64 4.206 6.205 2.944 4.352q.538.784 2.44 3.636t2.949 4.409 2.49 3.686q1.442 2.129 2.707 4.09 1.266 1.961 2.101 3.248t1.482 2.328 1.162 1.803q.092.078.856 1.596m-48.809 15.284.436.013 2.637-.393 6.392-1.371q5.467-1.173 11.479-2.635 6.011-1.463 9.286-2.279 3.274-.817 4.68-1.208t2.382-.656 2.068-.598 1.531-.489 1.233-.419q.793-.262 1.928-.604t4.556-1.603m-382.936-92.585 1.307.827q1.053.737 7.508 5.02t10.142 6.675q3.686 2.392 6.3 4.064t7.149 4.602 8.805 5.711 6.636 4.385 3.808 2.57 3.987 2.641 10.535 7.093 12.71 8.524 6.686 4.36q1.968 1.254 2.755 1.714.788.459 4.82 2.861 4.033 2.402 6.321 3.82t5.536 3.379 12.533 7.399q9.286 5.436 11.526 6.757t4.169 2.495q1.929 1.175 3.818 2.296 1.889 1.122 3.976 2.304l2.265 1.391m-143.82-92.746q1.777.533 4.25 1.318 2.473.786 4.768 1.48t5.413 1.603 5.369 1.554 5.741 1.697q3.49 1.053 6.122 1.983 2.633.93 5.786 2.02t5.95 2.021 5.945 2.067q3.148 1.134 6.597 2.295 3.448 1.162 7.605 2.612t6.087 2.136 4.295 1.476q2.365.789 4.054 1.395 1.688.605 6.405 2.258 4.717 1.652 7.513 2.577 2.795.926 4.688 1.564t3.784 1.293q1.892.654 4.162 1.42t6.652 2.182q4.38 1.416 6.559 2.118 2.178.703 3.158 1.017t4.629 1.519 11.996 4.09q.434.251 1.734.775 1.299.523 2.546 1.009t3.324 1.439"/>
        <path stroke-width="5" d="m389.344 1033.406.433-.397q.154-.182 1.592-2.164 1.438-1.981 2.502-2.84t1.712-1.142q.647-.282 1.219-.288.573-.01 1.675.411 1.103.418 1.937.84.834.423 1.731.824.897.402 1.583.624t1.202.292 1.65-.07q1.134-.138 1.702-.312t1.263-.405 2.279-.871 2.299-.86 2.081-.167q1.266.561 2.357 1.138t1.849.913q.756.337 1.113.451.356.114 1.003.207.648.093 1.174.083t1.018-.089q.491-.081 1.266-.364t2.737-1.228 3.158-1.337q1.198-.393 2.118-.439.921-.045 1.358.08.437.126.708.21.271.085 2.715 1.356t4.73 2.458q2.284 1.187 3.423 1.462 1.138.275 2.15.306 1.012.032 2.694-.578 1.682-.609 4.335-1.91t3.971-1.714q1.319-.414 1.793-.409.474 0 1.248.151.774.148 2.56.921t3.272 1.358q1.486.586 2.244.805.757.219 1.405.322.649.102.793.14.144.037 1.245.04 1.101 0 1.724-.03.624-.033 2.336-.527 1.712-.495 3.15-1.047t2.645-1.008 2.169-.77 2.349-.598q1.388-.285 2.856-.359 1.467-.073 1.756-.043.289.031.745.164t2.103.87 2.472 1.136q.826.399 1.669.786.843.386 2.397 1.054t2.941 1.029 2.302.375q.917.015 1.505-.048.588-.062 1.816-.506 1.228-.443 1.377-.5.149-.058 1.78-1.029 1.631-.972 4.11-2.728 2.479-1.755 3.575-2.295 1.096-.539 1.509-.673t1.582-.017 1.821.341 1.368.553 1.594.822 1.714.839 1.501.531q.665.186 1.57.185t1.024.012 1.823-.772q1.703-.786 4.915-3.15m-155.535 118.961.714-.388q.645-.657 2.921-2.738t4.464-3.093q.342-.148 1.791.887 1.448 1.036 2.317 1.773t1.341 1.035q.472.297 1.025.551.554.255 1.182.29t.984-.06q.357-.095 1.314-.616.957-.522 3.252-2.042 2.295-1.521 2.636-1.639.341-.117.821-.178t1.327.176q.848.236 2.198.842t2.156.944q.805.337 1.594.511.79.173 1.217.186.427.012 1.327-.186t1.267-.346.893-.354 2.295-1.034q1.771-.829 2.676-1.161t1.319-.392.685-.068q.269-.01 1.026.073.757.081 1.807.411t2.094.666 1.526.456.86.19 1.668.065q1.291 0 3.314-.885 2.022-.882 3.508-1.68 1.486-.799 2.362-1.166t1.814-.485q.936-.119 1.783-.181.847-.063 2.113.329 1.267.391 2.047.703t1.498.576q.719.264 1.411.484t1.954.351 2.568-.119q1.306-.252 2.057-.523.751-.272 3.199-1.293t3.048-1.167.978-.162 1.38.163q1 .179 2.314.542t1.672.454q.357.089.906.165.549.075 1.24.045.69-.03 6.323-2.429"/>
        <path d="m859.832 1041.36-.411-.057q-.701-.518-.994-.669-.292-.152-1.415-.69t-2.203-.82-2.301-.241q-1.221.039-2.243.414t-2.239 1.359-1.95 2.135-1.38 3.815-.536 5.658.776 4.922q.665 1.93 1.611 3.157t1.913 1.785 2.172.711q1.204.154 2.243-.192t1.85-.854 1.382-.958 1.986-2.353q1.416-1.902 1.941-3.761-.07-.167-.172-.283-.103-.115-.678-.493l-.198-.248q-.059-.389-4.844-2.221-.095-.064-.742-.661m12.644.929-.019.506q.014.316.301 2.264.288 1.948 1.484 4.903.239.244 1.149 1.592m4.501-8.4q-.174.307-1.72 3.368t-2.582 5.463q-1.037 2.401-1.409 3.491t-.539 1.768q-.167.677-.213 1.031l.651.761m10.658-16.276.075.176q.075.672 1.116 10.268.198-.18 1.362-2.081t1.946-2.897 1.164-1.232.544-.257.458.079.713.537 2.056 4.056q-.011-.027.874-1.521t1.651-2.547q.767-1.052 1.153-1.356.387-.304.671-.43.284-.127.891.254.608.381.856.695t.393.561.385.873q.241.624.359 1.069.117.446.179.648t.476 3.609q.054.079.35.084"/>
        <path stroke="#666" stroke-width="5" d="M794.334 1094.376q.436-.258 2.889-2.398t5.354-4.73q2.9-2.589 5.849-5.116 2.949-2.528 4.37-3.77 1.42-1.242 3.076-2.741t2.801-2.515 2.301-1.986q1.157-.972 2.204-1.838 1.047-.865 2.083-1.827 1.036-.961 1.976-1.848.939-.887 1.303-1.216.365-.329 1.669-1.414 1.304-1.086 2.38-2.025 1.076-.94 3.467-3.252"/>
    </g>
</svg>
