<?xml version="1.0" encoding="UTF-8" standalone="no"?>
<!-- Generator: Adobe Illustrator 26.1.0, SVG Export Plug-In . SVG Version: 6.00 Build 0)  -->

<svg
   version="1.1"
   id="Layer_1"
   x="0px"
   y="0px"
   viewBox="0 0 960 480"
   style="enable-background:new 0 0 960 480;"
   xml:space="preserve"
   sodipodi:docname="pt2-journal-note.svg"
   inkscape:version="1.2.1 (9c6d41e410, 2022-07-14, custom)"
   xmlns:inkscape="http://www.inkscape.org/namespaces/inkscape"
   xmlns:sodipodi="http://sodipodi.sourceforge.net/DTD/sodipodi-0.dtd"
   xmlns="http://www.w3.org/2000/svg"
   xmlns:svg="http://www.w3.org/2000/svg"><defs
   id="defs8096" /><sodipodi:namedview
   id="namedview8094"
   pagecolor="#505050"
   bordercolor="#eeeeee"
   borderopacity="1"
   inkscape:showpageshadow="0"
   inkscape:pageopacity="0"
   inkscape:pagecheckerboard="0"
   inkscape:deskcolor="#505050"
   showgrid="false"
   inkscape:zoom="0.49166667"
   inkscape:cx="478.98305"
   inkscape:cy="243.05085"
   inkscape:window-width="2560"
   inkscape:window-height="1381"
   inkscape:window-x="0"
   inkscape:window-y="0"
   inkscape:window-maximized="1"
   inkscape:current-layer="Layer_1" />
<g
   id="Daily_note_structure"
   opacity="1"
   transform="matrix(1.3333333,0,0,1.3333333,958.6262,-1397.9186)"><path
     id="STROKE_8a7ae6cc-bf4e-4c8d-91fe-be4d581ef712"
     opacity="1"
     fill="none"
     stroke="#FFFFFF"
     stroke-width="5"
     stroke-opacity="1"
     stroke-linecap="round"
     stroke-linejoin="round"
     d="m -512.694,1354.529 q 0.041,-0.412 0.011,-2.122 -0.031,-1.711 -0.242,-4.71 -0.211,-3 -0.472,-6.353 -0.262,-3.352 -0.496,-7.273 -0.234,-3.921 -0.543,-11.334 -0.309,-7.413 -0.765,-11.523 -0.456,-4.11 -0.978,-9.371 -0.522,-5.262 -0.963,-9.98 -0.441,-4.718 -1.021,-9.364 -0.579,-4.646 -0.982,-10.358 -0.402,-5.711 -0.506,-8.812 -0.104,-3.101 -0.368,-7.821 -0.263,-4.72 -0.405,-11.803 -0.142,-7.083 -0.261,-10.87 -0.12,-3.787 -0.433,-7.441 -0.313,-3.654 -0.495,-5.639 -0.181,-1.984 -0.28,-4.071 -0.098,-2.087 -0.182,-6.166 -0.085,-4.079 -0.147,-5.917 -0.063,-1.839 -0.213,-4.172 -0.151,-2.332 -0.394,-6.22 -0.243,-3.887 -0.382,-5.963 -0.139,-2.076 -0.212,-2.808 -0.073,-0.732 -0.045,-4.625 0.029,-3.892 0.662,-7.231 0.634,-3.34 1.332,-4.929 0.698,-1.589 1.296,-2.483 0.598,-0.894 0.693,-1.036 0.095,-0.141 0.715,-0.802 0.62,-0.662 1.479,-1.37 0.859,-0.709 4.045,-1.853 3.185,-1.145 6.659,-1.355 3.475,-0.21 8.099,-0.1 4.625,0.111 7.513,0.095 2.889,-0.017 4.486,-0.064 1.596,-0.046 3.14,-0.135 1.543,-0.088 2.037,-0.133 0.493,-0.045 4.027,-0.212 3.534,-0.168 9.576,-0.46 6.042,-0.293 12.276,-0.367 6.235,-0.074 14.079,-0.047 7.845,0.028 11.243,0.103 3.398,0.075 7.812,0.298 4.414,0.224 6.905,0.233 2.491,0.01 7.172,-0.082 4.681,-0.09 11.727,0.018 7.047,0.108 15.237,0.189 8.19,0.081 12.64,0.061 4.449,-0.021 6.305,-0.03 1.855,-0.01 3.711,-0.045 1.855,-0.037 5.197,-0.072 3.342,-0.035 20.89,-0.032 17.548,0 19.593,0.032 2.046,0.029 5.591,0.031 3.546,0 6.244,-0.025 2.699,-0.028 8.31,-0.051 5.611,-0.023 8.307,-0.031 2.696,-0.01 11.439,0.093 8.743,0.101 13.489,0.191 4.747,0.09 6.049,0.072 1.302,-0.019 5.141,-0.06 3.838,-0.042 5.892,-0.047 2.054,0 13.258,0.088 11.205,0.092 14.3,0.368 3.096,0.276 4.146,0.446 1.05,0.171 2.465,0.54 1.415,0.368 2.672,0.884 1.256,0.517 2.114,1.016 0.858,0.5 1.458,0.971 0.601,0.471 1.139,1.018 0.539,0.548 0.794,0.884 0.256,0.337 0.872,1.396 0.616,1.059 0.654,1.106 0.039,0.047 0.458,1.153 0.419,1.107 1.076,5.765 0.656,4.658 0.688,10.785 0.033,6.128 0.003,8.57 -0.029,2.443 0.051,6.293 0.081,3.85 0.232,15.503 0.15,11.654 0.159,16.703 0.008,5.049 0,6.693 -0.008,1.645 -0.129,15.145 -0.122,13.499 -0.069,21.448 0.053,7.948 0.114,11.696 0.062,3.747 0.107,5.892 0.045,2.145 0.089,4.893 0.044,2.748 0.101,5.296 0.056,2.548 0.161,4.94 0.105,2.393 0.272,8.295 0.168,5.903 0.274,8.837 0.106,2.934 0.157,5.587 0.05,2.653 0.134,5.46 0.085,2.808 0.254,14.035 -0.063,0.462 -0.189,1.273" /><path
     id="STROKE_a9ea7dc1-8c8d-438b-a6ed-e0b4b69262da"
     opacity="1"
     fill="none"
     stroke="#FFFFFF"
     stroke-width="5"
     stroke-opacity="1"
     stroke-linecap="round"
     stroke-linejoin="round"
     d="m -511.903,1102.349 q 0.085,0.438 1.745,4.96 1.66,4.523 3.536,7.315 1.875,2.793 2.729,3.418 0.853,0.626 2.325,-0.384 0.245,-0.144 2.52,-3.813 2.274,-3.669 3.672,-6.312 1.398,-2.643 2.476,-4.586" /><path
     id="STROKE_1bde1bd2-91d9-4ce7-8605-cdd1e0516e7b"
     opacity="1"
     fill="none"
     stroke="#FFFFFF"
     stroke-width="5"
     stroke-opacity="1"
     stroke-linecap="round"
     stroke-linejoin="round"
     d="m -502.902,1119.567 0.075,0.377 0.179,4.659 q -0.014,0.07 0.169,3.82 0.183,3.749 0.339,5.741 0.156,1.991 0.293,3.926 l 0.256,2.525" /><path
     id="STROKE_340abc1f-9022-47a6-a507-84328fe52072"
     opacity="1"
     fill="none"
     stroke="#FFFFFF"
     stroke-width="5"
     stroke-opacity="1"
     stroke-linecap="round"
     stroke-linejoin="round"
     d="m -480.903,1102.849 q 0.085,0.438 1.745,4.96 1.66,4.523 3.536,7.315 1.875,2.793 2.729,3.418 0.853,0.626 2.325,-0.384 0.245,-0.144 2.52,-3.813 2.274,-3.669 3.672,-6.312 1.398,-2.643 2.476,-4.586" /><path
     id="STROKE_cbc70186-36e1-471b-9c5c-41524698e14c"
     opacity="1"
     fill="none"
     stroke="#FFFFFF"
     stroke-width="5"
     stroke-opacity="1"
     stroke-linecap="round"
     stroke-linejoin="round"
     d="m -471.902,1120.067 0.075,0.377 0.179,4.659 q -0.014,0.07 0.169,3.82 0.183,3.749 0.339,5.741 0.156,1.991 0.293,3.926 l 0.256,2.525" /><path
     id="STROKE_4b895e6d-cdd1-4687-bc96-3bad265f0f4c"
     opacity="1"
     fill="none"
     stroke="#FFFFFF"
     stroke-width="5"
     stroke-opacity="1"
     stroke-linecap="round"
     stroke-linejoin="round"
     d="m -450.403,1102.849 q 0.085,0.438 1.745,4.96 1.66,4.523 3.536,7.315 1.875,2.793 2.729,3.418 0.853,0.626 2.325,-0.384 0.245,-0.144 2.52,-3.813 2.274,-3.669 3.672,-6.312 1.398,-2.643 2.476,-4.586" /><path
     id="STROKE_60885c46-e5a5-4e52-9309-009c000c8275"
     opacity="1"
     fill="none"
     stroke="#FFFFFF"
     stroke-width="5"
     stroke-opacity="1"
     stroke-linecap="round"
     stroke-linejoin="round"
     d="m -441.402,1120.067 0.075,0.377 0.179,4.659 q -0.014,0.07 0.169,3.82 0.183,3.749 0.339,5.741 0.156,1.991 0.293,3.926 l 0.256,2.525" /><path
     id="STROKE_36e56175-11fc-4dda-b8fa-8c2d6ea41bd3"
     opacity="1"
     fill="none"
     stroke="#FFFFFF"
     stroke-width="5"
     stroke-opacity="1"
     stroke-linecap="round"
     stroke-linejoin="round"
     d="m -420.403,1103.349 q 0.085,0.438 1.745,4.96 1.66,4.523 3.536,7.315 1.875,2.793 2.729,3.418 0.853,0.626 2.325,-0.384 0.245,-0.144 2.52,-3.813 2.274,-3.669 3.672,-6.312 1.398,-2.643 2.476,-4.586" /><path
     id="STROKE_258ed761-ccd3-445d-b55e-e402d25e6e1c"
     opacity="1"
     fill="none"
     stroke="#FFFFFF"
     stroke-width="5"
     stroke-opacity="1"
     stroke-linecap="round"
     stroke-linejoin="round"
     d="m -411.402,1120.567 0.075,0.377 0.179,4.659 q -0.014,0.07 0.169,3.82 0.183,3.749 0.339,5.741 0.156,1.991 0.293,3.926 l 0.256,2.525" /><path
     id="STROKE_767bdce7-4b63-414d-b315-dfa7807361fa"
     opacity="1"
     fill="none"
     stroke="#FFFFFF"
     stroke-width="5"
     stroke-opacity="1"
     stroke-linecap="round"
     stroke-linejoin="round"
     d="m -388.086,1125.586 0.703,0.024 q 3.674,0.106 6.673,-0.228 2.999,-0.334 3.883,-0.458" /><path
     id="STROKE_a8634403-9f97-48bf-bdca-52dff17f9a1c"
     opacity="1"
     fill="none"
     stroke="#FFFFFF"
     stroke-width="5"
     stroke-opacity="1"
     stroke-linecap="round"
     stroke-linejoin="round"
     d="m -362.653,1141.939 -0.102,-0.66 q 0.21,-1.923 0.988,-10.275 0.777,-8.353 2.954,-17.558 l 0.146,0.195 q 0.107,0.067 0.608,1.146 0.5,1.079 2.026,6.151 1.525,5.071 2.436,8.24 0.911,3.168 2.078,6.012 0.08,0.423 0.38,0.275 0.299,-0.149 0.352,-0.06 0.053,0.089 0.162,0.113 0.109,0.024 0.325,-0.098 0.046,-0.264 0.447,-2.328 0.402,-2.064 1.486,-6.376 1.085,-4.313 2.013,-6.675 0.928,-2.363 1.938,-3.57 0.019,0.04 0.431,1.204 0.356,0.83 0.713,1.807 0.358,0.977 1.906,7.278 1.548,6.3 2.938,11.819 l 0.462,1.566" /><path
     id="STROKE_bae75cfe-dbbf-476b-863c-f07ad2afc96a"
     opacity="1"
     fill="none"
     stroke="#FFFFFF"
     stroke-width="5"
     stroke-opacity="1"
     stroke-linecap="round"
     stroke-linejoin="round"
     d="m -328.153,1139.439 -0.102,-0.66 q 0.21,-1.923 0.988,-10.275 0.777,-8.353 2.954,-17.558 l 0.146,0.195 q 0.107,0.067 0.608,1.146 0.5,1.079 2.026,6.151 1.525,5.071 2.436,8.24 0.911,3.168 2.078,6.012 0.08,0.423 0.38,0.275 0.299,-0.149 0.352,-0.06 0.053,0.089 0.162,0.113 0.109,0.024 0.325,-0.098 0.046,-0.264 0.447,-2.328 0.402,-2.064 1.486,-6.376 1.085,-4.313 2.013,-6.675 0.928,-2.363 1.938,-3.57 0.019,0.04 0.431,1.204 0.356,0.83 0.713,1.807 0.358,0.977 1.906,7.278 1.548,6.3 2.938,11.819 l 0.462,1.566" /><path
     id="STROKE_bc07bd4f-01be-4eb0-93a5-44c35215304a"
     opacity="1"
     fill="none"
     stroke="#FFFFFF"
     stroke-width="5"
     stroke-opacity="1"
     stroke-linecap="round"
     stroke-linejoin="round"
     d="m -295.716,1123.143 q 0.343,0.052 3.7,-0.156 3.358,-0.209 7.416,-0.976 l 1.273,-0.128" /><path
     id="STROKE_f3e0ade7-6231-4535-b46d-f9a71bff2da1"
     opacity="1"
     fill="none"
     stroke="#FFFFFF"
     stroke-width="5"
     stroke-opacity="1"
     stroke-linecap="round"
     stroke-linejoin="round"
     d="m -269.553,1110.035 0.074,0.292 0.114,2.042 q 0.113,2.721 0.757,9.429 0.645,6.707 1.676,14.299 0.047,0.277 0.088,0.306 0.04,0.029 -0.195,0.102" /><path
     id="STROKE_0b7c9760-6641-4c97-801c-b74298985b1b"
     opacity="1"
     fill="none"
     stroke="#FFFFFF"
     stroke-width="5"
     stroke-opacity="1"
     stroke-linecap="round"
     stroke-linejoin="round"
     d="m -267.695,1109.895 q 3.808,1.056 6.404,2.217 2.596,1.162 4.286,2.535 1.691,1.373 2.386,2.245 0.696,0.873 1.432,3.37 0.736,2.497 0.73,3.69 -0.006,1.193 -0.079,1.929 -0.072,0.736 -0.377,1.932 -0.304,1.197 -0.795,2.236 -0.491,1.038 -2.117,3.036 -1.626,1.998 -2.531,2.811 -0.905,0.814 -1.425,1.245 -0.52,0.431 -1.039,0.93 l -0.165,0.147 q -0.126,0.083 -0.41,0.1 -0.283,0.017 -1.199,0.503" /><path
     id="STROKE_a5713e7d-ef9e-4da9-be19-c819891b7307"
     opacity="1"
     fill="none"
     stroke="#FFFFFF"
     stroke-width="5"
     stroke-opacity="1"
     stroke-linecap="round"
     stroke-linejoin="round"
     d="m -243.053,1110.035 0.074,0.292 0.114,2.042 q 0.113,2.721 0.757,9.429 0.645,6.707 1.676,14.299 0.047,0.277 0.088,0.306 0.04,0.029 -0.195,0.102" /><path
     id="STROKE_2069194c-a218-4d5a-856a-874f507a1a5c"
     opacity="1"
     fill="none"
     stroke="#FFFFFF"
     stroke-width="5"
     stroke-opacity="1"
     stroke-linecap="round"
     stroke-linejoin="round"
     d="m -241.195,1109.895 q 3.808,1.056 6.404,2.217 2.596,1.162 4.286,2.535 1.691,1.373 2.386,2.245 0.696,0.873 1.432,3.37 0.736,2.497 0.73,3.69 -0.006,1.193 -0.079,1.929 -0.072,0.736 -0.377,1.932 -0.304,1.197 -0.795,2.236 -0.491,1.038 -2.117,3.036 -1.626,1.998 -2.531,2.811 -0.905,0.814 -1.425,1.245 -0.52,0.431 -1.039,0.93 l -0.165,0.147 q -0.126,0.083 -0.41,0.1 -0.283,0.017 -1.199,0.503" /><path
     id="STROKE_67e6d49d-1d7c-477a-b1cb-134026d5d16c"
     opacity="1"
     fill="none"
     stroke="#FFFFFF"
     stroke-width="2"
     stroke-opacity="1"
     stroke-linecap="round"
     stroke-linejoin="round"
     d="m -496.925,1175.387 q -0.238,0.794 -0.225,3.592 0.014,2.799 0.21,5.156 0.197,2.356 0.629,7.278 0.433,4.921 0.741,9.035 -0.001,0.077 -0.089,0.288" /><path
     id="STROKE_2870ffa5-5cd8-431b-a2b6-515a2eed3e45"
     opacity="1"
     fill="none"
     stroke="#FFFFFF"
     stroke-width="2"
     stroke-opacity="1"
     stroke-linecap="round"
     stroke-linejoin="round"
     d="m -496.342,1190.56 -0.387,-0.118 -0.6,0.013 q -0.159,-0.044 -1.308,-0.01 -1.149,0.035 -1.875,0.208 -0.726,0.173 -1.222,0.394 -0.496,0.221 -0.852,0.484 -0.356,0.262 -1.056,1.092 -0.7,0.831 -0.927,1.207 -0.227,0.376 -0.381,0.761 -0.155,0.386 -0.21,0.656 -0.055,0.271 -0.071,1.136 -0.016,0.865 0.152,1.431 0.168,0.566 0.824,1.344 0.655,0.778 1.123,1.096 0.321,0.152 0.661,0.25 0.341,0.097 1.277,0.082 0.936,-0.015 1.326,-0.148 0.389,-0.133 0.405,-0.131 0.015,0 3.221,-1.973" /><path
     id="STROKE_bac8f1cd-4773-4c02-892e-74d273e504f6"
     opacity="1"
     fill="none"
     stroke="#FFFFFF"
     stroke-width="2"
     stroke-opacity="1"
     stroke-linecap="round"
     stroke-linejoin="round"
     d="m -480.883,1191.916 q -0.466,-0.019 -1.492,-0.175 -1.027,-0.155 -1.928,-0.179 -0.9,-0.023 -1.473,0.087 -0.572,0.111 -0.703,0.143 -0.131,0.033 -0.704,0.367 -0.573,0.334 -1.258,1.195 -0.685,0.862 -0.964,1.618 -0.28,0.757 -0.34,1.537 -0.06,0.781 0.08,1.517 0.139,0.737 0.445,1.373 0.305,0.637 1.156,1.113 0.851,0.477 1.426,0.551 0.575,0.074 1.048,-0.022 0.473,-0.096 1.523,-0.863 1.05,-0.767 1.343,-1.09 0.294,-0.322 0.775,-1.166 0.481,-0.844 0.637,-1.196 0.155,-0.352 0.308,-0.662 0.153,-0.31 0.275,-0.563 0.122,-0.253 0.447,-1.041 0.068,0.203 0.069,0.201 0.002,0 0.149,0.893 0.147,0.896 1.011,5.265 l -0.008,0.361" /><path
     id="STROKE_10be080d-5a5b-4555-ad56-98bf67c50ea4"
     opacity="1"
     fill="none"
     stroke="#FFFFFF"
     stroke-width="2"
     stroke-opacity="1"
     stroke-linecap="round"
     stroke-linejoin="round"
     d="m -474.297,1190.821 0.06,0.352 q 0.021,0.247 0.597,1.829 0.575,1.583 0.958,2.438 0.382,0.856 0.551,1.213 0.168,0.357 1.171,1.753 0.112,0.091 0.407,0.331" /><path
     id="STROKE_00ca057b-9ff8-4374-b62e-c0c5b4434126"
     opacity="1"
     fill="none"
     stroke="#FFFFFF"
     stroke-width="2"
     stroke-opacity="1"
     stroke-linecap="round"
     stroke-linejoin="round"
     d="m -466.381,1190.293 q -0.345,0.553 -0.875,2.233 -0.531,1.68 -0.886,2.91 -0.356,1.229 -0.657,2.308 -0.301,1.079 -3.403,12.088 -0.047,0.075 -0.173,0.555" /><circle
     id="STROKE_c3ea8467-026d-4af5-a439-8b1355a7bc94"
     opacity="1"
     fill="#FFFFFF"
     stroke="#FFFFFF"
     stroke-width="0.1"
     stroke-opacity="1"
     fill-opacity="1"
     cx="-459.89499"
     cy="1189.797"
     r="1" /><circle
     id="STROKE_7bf3d699-fa79-4aa6-94fa-b7b10ea8d625"
     opacity="1"
     fill="#FFFFFF"
     stroke="#FFFFFF"
     stroke-width="0.1"
     stroke-opacity="1"
     fill-opacity="1"
     cx="-459.63101"
     cy="1197.61"
     r="1" /><path
     id="STROKE_c1e09db0-b4fa-4a3e-ab52-d06800a72cff"
     opacity="1"
     fill="none"
     stroke="#FFFFFF"
     stroke-width="2"
     stroke-opacity="1"
     stroke-linecap="round"
     stroke-linejoin="round"
     d="m -499.749,1239.048 0.016,0.622 q -0.028,0.528 0.4,7.579 0.427,7.051 0.502,12.601 -0.007,0 -0.153,-0.186" /><path
     id="STROKE_bf329ea8-4b7b-4256-a6dd-efb4b70a38a0"
     opacity="1"
     fill="none"
     stroke="#FFFFFF"
     stroke-width="2"
     stroke-opacity="1"
     stroke-linecap="round"
     stroke-linejoin="round"
     d="m -492.197,1238.088 -0.092,0.485 q -0.072,1.112 -0.118,2.264 -0.047,1.151 -0.049,2.774 -0.002,1.624 0.627,18.216 l 0.06,0.223" /><path
     id="STROKE_fc26a997-16ff-4a66-acc1-f974ae4c3cd8"
     opacity="1"
     fill="none"
     stroke="#FFFFFF"
     stroke-width="2"
     stroke-opacity="1"
     stroke-linecap="round"
     stroke-linejoin="round"
     d="m -504.686,1246.627 q 0.22,0.062 2.719,0.223 2.499,0.162 5.251,0.236 2.752,0.074 5.25,0.019 2.498,-0.054 4.604,-0.034 l 0.586,0.084" /><path
     id="STROKE_5fa9a558-9895-4266-b037-eb66ed002dbc"
     opacity="1"
     fill="none"
     stroke="#FFFFFF"
     stroke-width="2"
     stroke-opacity="1"
     stroke-linecap="round"
     stroke-linejoin="round"
     d="m -503.356,1253.842 0.205,-0.013 0.196,0.068 q 0.228,0.077 3.399,0.038 3.172,-0.039 5.336,-0.079 2.165,-0.041 3.571,-0.01 1.407,0.032 2.834,0.14 l 0.683,-0.081" /><path
     id="STROKE_7495688c-7457-40c6-931a-b4cffd9c2220"
     opacity="1"
     fill="none"
     stroke="#FFFFFF"
     stroke-width="2"
     stroke-opacity="1"
     stroke-linecap="round"
     stroke-linejoin="round"
     d="m -467.765,1236.331 q -0.223,1.459 -0.259,2.28 -0.036,0.82 0.107,3.389 0.142,2.569 0.317,4.773 0.175,2.204 0.292,4.069 0.118,1.866 0.414,5.757 0.018,0.047 0.158,-1.866" /><path
     id="STROKE_e0c7cdbb-f663-466c-998d-60e1cfd9a8c1"
     opacity="1"
     fill="none"
     stroke="#FFFFFF"
     stroke-width="2"
     stroke-opacity="1"
     stroke-linecap="round"
     stroke-linejoin="round"
     d="m -466.672,1247.556 q 0.162,-0.026 1.162,-0.095 0.999,-0.07 2.341,-0.147 1.341,-0.078 1.854,-0.103 0.512,-0.026 1.967,0.067 l 0.105,0.034 q 0.149,0 0.487,-0.056" /><path
     id="STROKE_6eed8956-5045-47a2-9387-2ff8e0e53cae"
     opacity="1"
     fill="none"
     stroke="#FFFFFF"
     stroke-width="2"
     stroke-opacity="1"
     stroke-linecap="round"
     stroke-linejoin="round"
     d="m -457.636,1236.694 q -0.063,0.236 -0.216,5.465 -0.153,5.23 -0.021,8.593 0.132,3.363 0.344,4.945 0.02,0.127 0.03,0.525" /><path
     id="STROKE_0792a288-8505-4ebf-9b01-dafd08e62d6b"
     opacity="1"
     fill="none"
     stroke="#FFFFFF"
     stroke-width="2"
     stroke-opacity="1"
     stroke-linecap="round"
     stroke-linejoin="round"
     d="m -451.265,1236.331 q -0.223,1.459 -0.259,2.28 -0.036,0.82 0.107,3.389 0.142,2.569 0.317,4.773 0.175,2.204 0.292,4.069 0.118,1.866 0.414,5.757 0.018,0.047 0.158,-1.866" /><path
     id="STROKE_208e45c3-01a9-41d7-8ad9-1b9f557c0ec1"
     opacity="1"
     fill="none"
     stroke="#FFFFFF"
     stroke-width="2"
     stroke-opacity="1"
     stroke-linecap="round"
     stroke-linejoin="round"
     d="m -450.172,1247.556 q 0.162,-0.026 1.162,-0.095 0.999,-0.07 2.341,-0.147 1.341,-0.078 1.854,-0.103 0.512,-0.026 1.967,0.067 l 0.105,0.034 q 0.149,0 0.487,-0.056" /><path
     id="STROKE_e675ef16-3507-4d5c-9df9-ecf30d453a88"
     opacity="1"
     fill="none"
     stroke="#FFFFFF"
     stroke-width="2"
     stroke-opacity="1"
     stroke-linecap="round"
     stroke-linejoin="round"
     d="m -441.136,1236.694 q -0.063,0.236 -0.216,5.465 -0.153,5.23 -0.021,8.593 0.132,3.363 0.344,4.945 0.02,0.127 0.03,0.525" /><path
     id="STROKE_6604d251-369f-4fd6-88fc-05e51476588d"
     opacity="1"
     fill="none"
     stroke="#FFFFFF"
     stroke-width="2"
     stroke-opacity="1"
     stroke-linecap="round"
     stroke-linejoin="round"
     d="m -431.573,1242.752 -0.159,-0.127 q -0.077,0.059 -0.242,0.127" /><path
     id="STROKE_b8110b9e-8e02-4807-9a92-1d00262c8f0c"
     opacity="1"
     fill="none"
     stroke="#FFFFFF"
     stroke-width="2"
     stroke-opacity="1"
     stroke-linecap="round"
     stroke-linejoin="round"
     d="m -430.681,1251.093 q -0.04,-0.011 -0.134,0.106 -0.093,0.118 -0.039,0.06" /><path
     id="STROKE_1b325bd3-5c73-4674-b075-a6fa9aa7e179"
     opacity="1"
     fill="none"
     stroke="#FFFFFF"
     stroke-width="2"
     stroke-opacity="1"
     stroke-linecap="round"
     stroke-linejoin="round"
     d="m -422.658,1244.522 -0.047,0.643 q -0.098,0.633 0.69,10.974 0.038,0.063 0.21,-1.052 0.172,-1.114 0.433,-2.359 0.26,-1.244 0.645,-2.141 0.384,-0.898 0.748,-1.245 0.363,-0.348 0.51,-0.384 0.147,-0.035 0.307,-0.015 0.16,0.021 0.379,0.226 0.218,0.205 0.552,0.873 0.333,0.669 1.013,2.252 0.037,-0.052 0.429,-1.176 0.392,-1.125 0.976,-2.342 0.583,-1.218 0.97,-1.665 0.386,-0.447 0.735,-0.601 0.349,-0.154 0.761,0.129 0.411,0.282 0.897,1.137 0.485,0.854 0.856,2.282 0.371,1.428 0.807,3.756 0.04,0.022 0.445,-0.027" /><path
     id="STROKE_dff5ffff-8cda-452d-82ec-d5e9d4b69126"
     opacity="1"
     fill="none"
     stroke="#FFFFFF"
     stroke-width="2"
     stroke-opacity="1"
     stroke-linecap="round"
     stroke-linejoin="round"
     d="m -407.158,1244.522 -0.047,0.643 q -0.098,0.633 0.69,10.974 0.038,0.063 0.21,-1.052 0.172,-1.114 0.433,-2.359 0.26,-1.244 0.645,-2.141 0.384,-0.898 0.748,-1.245 0.363,-0.348 0.51,-0.384 0.147,-0.035 0.307,-0.015 0.16,0.021 0.379,0.226 0.218,0.205 0.552,0.873 0.333,0.669 1.013,2.252 0.037,-0.052 0.429,-1.176 0.392,-1.125 0.976,-2.342 0.583,-1.218 0.97,-1.665 0.386,-0.447 0.735,-0.601 0.349,-0.154 0.761,0.129 0.411,0.282 0.897,1.137 0.485,0.854 0.856,2.282 0.371,1.428 0.807,3.756 0.04,0.022 0.445,-0.027" /><path
     id="STROKE_8d44de5b-0535-4e11-afd0-09da93b0e49f"
     opacity="1"
     fill="none"
     stroke="#FFFFFF"
     stroke-width="2"
     stroke-opacity="1"
     stroke-linecap="round"
     stroke-linejoin="round"
     d="m -499.249,1285.548 0.016,0.622 q -0.028,0.528 0.4,7.579 0.427,7.051 0.502,12.601 -0.007,0 -0.153,-0.186" /><path
     id="STROKE_78a058b3-4bf0-4ede-a3c2-7f15f655f2d8"
     opacity="1"
     fill="none"
     stroke="#FFFFFF"
     stroke-width="2"
     stroke-opacity="1"
     stroke-linecap="round"
     stroke-linejoin="round"
     d="m -491.697,1284.588 -0.092,0.485 q -0.072,1.112 -0.118,2.264 -0.047,1.151 -0.049,2.774 -0.002,1.624 0.627,18.216 l 0.06,0.223" /><path
     id="STROKE_bafaeae8-6457-45af-bd72-01c78ee0e0e3"
     opacity="1"
     fill="none"
     stroke="#FFFFFF"
     stroke-width="2"
     stroke-opacity="1"
     stroke-linecap="round"
     stroke-linejoin="round"
     d="m -504.186,1293.127 q 0.22,0.062 2.719,0.223 2.499,0.162 5.251,0.236 2.752,0.074 5.25,0.019 2.498,-0.054 4.604,-0.034 l 0.586,0.084" /><path
     id="STROKE_4a23f0e3-efdf-4917-9ee2-175b184e2840"
     opacity="1"
     fill="none"
     stroke="#FFFFFF"
     stroke-width="2"
     stroke-opacity="1"
     stroke-linecap="round"
     stroke-linejoin="round"
     d="m -502.856,1300.342 0.205,-0.013 0.196,0.068 q 0.228,0.077 3.399,0.038 3.172,-0.039 5.336,-0.079 2.165,-0.041 3.571,-0.01 1.407,0.032 2.834,0.14 l 0.683,-0.081" /><path
     id="STROKE_6f97e00f-3c5c-4f1d-a963-b7d20d913468"
     opacity="1"
     fill="none"
     stroke="#FFFFFF"
     stroke-width="2"
     stroke-opacity="1"
     stroke-linecap="round"
     stroke-linejoin="round"
     d="m -475.749,1285.798 0.016,0.622 q -0.028,0.528 0.4,7.579 0.427,7.051 0.502,12.601 -0.007,0 -0.153,-0.186" /><path
     id="STROKE_ab049d95-f041-4ecf-806d-a8336d4daf35"
     opacity="1"
     fill="none"
     stroke="#FFFFFF"
     stroke-width="2"
     stroke-opacity="1"
     stroke-linecap="round"
     stroke-linejoin="round"
     d="m -468.197,1284.838 -0.092,0.485 q -0.072,1.112 -0.118,2.264 -0.047,1.151 -0.049,2.774 -0.002,1.624 0.627,18.216 l 0.06,0.223" /><path
     id="STROKE_7c115a92-dbb5-4b4a-83c2-565f965ab2d3"
     opacity="1"
     fill="none"
     stroke="#FFFFFF"
     stroke-width="2"
     stroke-opacity="1"
     stroke-linecap="round"
     stroke-linejoin="round"
     d="m -480.686,1293.377 q 0.22,0.062 2.719,0.223 2.499,0.162 5.251,0.236 2.752,0.074 5.25,0.019 2.498,-0.054 4.604,-0.034 l 0.586,0.084" /><path
     id="STROKE_4b0ebdb7-f408-4b1d-9a80-785ded43e1ec"
     opacity="1"
     fill="none"
     stroke="#FFFFFF"
     stroke-width="2"
     stroke-opacity="1"
     stroke-linecap="round"
     stroke-linejoin="round"
     d="m -479.356,1300.592 0.205,-0.013 0.196,0.068 q 0.228,0.077 3.399,0.038 3.172,-0.039 5.336,-0.079 2.165,-0.041 3.571,-0.01 1.407,0.032 2.834,0.14 l 0.683,-0.081" /><circle
     id="STROKE_da6d04fd-adec-4b8a-84bb-42d9b70c6b5f"
     opacity="1"
     fill="#FFFFFF"
     stroke="#FFFFFF"
     stroke-width="0.1"
     stroke-opacity="1"
     fill-opacity="1"
     cx="-431.66"
     cy="1304.449"
     r="1" /><circle
     id="STROKE_ec228cc2-281c-4054-ba15-ae0a7f1cfa22"
     opacity="1"
     fill="#FFFFFF"
     stroke="#FFFFFF"
     stroke-width="0.1"
     stroke-opacity="1"
     fill-opacity="1"
     cx="-421.367"
     cy="1304.876"
     r="1" /><path
     id="STROKE_b3247ac0-d2b7-4a55-b71d-12f562f37508"
     opacity="1"
     fill="none"
     stroke="#FFFFFF"
     stroke-width="2"
     stroke-opacity="1"
     stroke-linecap="round"
     stroke-linejoin="round"
     d="m -409.907,1305.538 q -0.12,0.015 -0.295,-0.024 0.007,0.095 -0.005,0.221" /><circle
     id="STROKE_289a2303-0117-42b1-a96e-47c6628c790c"
     opacity="1"
     fill="#FFFFFF"
     stroke="#FFFFFF"
     stroke-width="0.1"
     stroke-opacity="1"
     fill-opacity="1"
     cx="-486.21301"
     cy="1342.262"
     r="1" /><circle
     id="STROKE_d079b54f-3070-4b7d-b9f3-d7b076496e8f"
     opacity="1"
     fill="#FFFFFF"
     stroke="#FFFFFF"
     stroke-width="0.1"
     stroke-opacity="1"
     fill-opacity="1"
     cx="-475.91"
     cy="1342.46"
     r="1" /><circle
     id="STROKE_8a77a22b-0be5-4685-b28b-43795bcf4765"
     opacity="1"
     fill="#FFFFFF"
     stroke="#FFFFFF"
     stroke-width="0.1"
     stroke-opacity="1"
     fill-opacity="1"
     cx="-464.19601"
     cy="1342.924"
     r="1" /><circle
     id="STROKE_062fb142-4aac-40d2-8636-ce1a75aed39f"
     opacity="1"
     fill="#FFFFFF"
     stroke="#FFFFFF"
     stroke-width="0.1"
     stroke-opacity="1"
     fill-opacity="1"
     cx="-442.37"
     cy="1201.707"
     r="1" /><circle
     id="STROKE_57174aa1-a94c-413c-a5ac-19ecd5dd8332"
     opacity="1"
     fill="#FFFFFF"
     stroke="#FFFFFF"
     stroke-width="0.1"
     stroke-opacity="1"
     fill-opacity="1"
     cx="-430.04501"
     cy="1202.069"
     r="1" /><circle
     id="STROKE_69a891df-5685-42ae-a7ab-bd31968d1f59"
     opacity="1"
     fill="#FFFFFF"
     stroke="#FFFFFF"
     stroke-width="0.1"
     stroke-opacity="1"
     fill-opacity="1"
     cx="-417.401"
     cy="1202.4"
     r="1" /><path
     id="STROKE_a7d1fa11-ddbd-40be-ae2e-839f7cc234a7"
     opacity="1"
     fill="none"
     stroke="#FFFFFF"
     stroke-width="2"
     stroke-opacity="1"
     stroke-linecap="round"
     stroke-linejoin="round"
     d="m -450.683,1194.727 -0.063,0.263 q -0.052,2.623 0.009,4.55 0.061,1.927 0.182,2.96 0.12,1.032 0.421,2.204 0.3,1.172 0.583,1.771 0.283,0.599 0.372,0.729 0.089,0.129 0.365,0.387 0.276,0.258 0.474,0.419 0.199,0.161 0.553,0.357 0.355,0.196 0.719,0.372 0.363,0.177 0.387,0.193 0.024,0.016 0.934,0.21 0.911,0.193 1.363,0.22 0.452,0.027 0.522,0.029 0.07,0 1.042,0.022 0.972,0.019 1.999,0.01 1.026,-0.01 1.571,-0.031 0.544,-0.02 0.785,-0.024 0.241,0 1.803,-0.118 l 0.722,-0.046 q 0.138,-0.017 1.78,-0.069 1.642,-0.053 2.379,-0.085 0.737,-0.031 1.935,-0.058 1.197,-0.027 4.656,-0.096 3.459,-0.07 3.983,-0.081 0.524,-0.012 1.462,-0.054 0.939,-0.041 1.798,-0.097 0.859,-0.056 0.906,-0.065 0.047,-0.01 1.217,-0.111 1.17,-0.101 2.739,-0.387 1.568,-0.287 2.521,-0.707 0.952,-0.421 1.166,-0.598 0.215,-0.177 0.333,-0.344 0.118,-0.167 0.515,-1.423 0.396,-1.257 0.424,-2.023 0.027,-0.766 0.008,-1.105 -0.018,-0.34 -0.239,-2.079 -0.221,-1.74 -0.365,-2.51 -0.143,-0.771 -0.334,-1.864 -0.191,-1.094 -0.304,-1.846 -0.113,-0.753 -0.28,-1.849 -0.166,-1.096 -0.346,-2.008 -0.181,-0.913 -0.248,-1.152 -0.067,-0.238 -0.211,-0.703 -0.143,-0.465 -0.579,-1.337 -0.436,-0.872 -0.975,-1.519 l -0.706,-0.539 -0.394,-0.215 q -1.732,-0.546 -2.268,-0.621 -0.537,-0.075 -1.196,-0.098 -0.659,-0.024 -1.289,-0.013 -0.631,0.01 -1.805,0.099 -1.174,0.089 -1.829,0.154 -0.654,0.064 -1.19,0.131 -0.535,0.066 -1.05,0.121 -0.514,0.054 -0.568,0.051 -0.053,0 -1.859,0.197 -1.806,0.199 -2.738,0.313 -0.932,0.115 -1.764,0.204 -0.832,0.089 -2.241,0.262 -1.41,0.173 -2.497,0.296 -1.086,0.123 -1.949,0.237 -0.862,0.114 -1.504,0.186 -0.642,0.073 -1.463,0.215 -0.82,0.142 -1.402,0.243 -0.581,0.102 -1.054,0.201 -0.473,0.099 -0.916,0.191 -0.443,0.093 -1.008,0.227 -0.564,0.134 -2.135,0.761 -1.571,0.627 -1.976,0.901 -0.404,0.273 -0.961,0.98 -0.405,0.771 -0.614,1.481 -0.21,0.71 -0.306,1.567 -0.097,0.857 -0.166,3.746" /><path
     id="STROKE_18d8fb6a-6d1d-460c-8b41-93a7cfea01f7"
     opacity="1"
     fill="none"
     stroke="#FFFFFF"
     stroke-width="2"
     stroke-opacity="1"
     stroke-linecap="round"
     stroke-linejoin="round"
     d="m -476.608,1250.065 -0.04,-0.459 -0.068,-0.479 -0.203,-2.549 q 0.022,-0.152 -0.273,-2.986 -0.295,-2.834 -0.405,-4.362 -0.11,-1.528 -0.098,-2.094 0.012,-0.566 0.315,-2.468 0.303,-1.901 0.337,-2.017 0.034,-0.117 0.339,-0.697 0.305,-0.581 0.585,-0.918 0.281,-0.338 0.445,-0.488 0.163,-0.15 0.886,-0.521 0.723,-0.371 1.661,-0.639 0.939,-0.268 1.499,-0.355 0.561,-0.087 2.185,-0.206 1.623,-0.12 2.486,-0.184 0.862,-0.064 2.596,-0.141 1.734,-0.078 3.936,-0.126 2.201,-0.049 5.368,-0.076 3.168,-0.027 4.849,-0.045 1.682,-0.018 3.255,-0.043 1.573,-0.025 2.821,-0.027 1.247,0 4.494,-0.038 3.247,-0.035 5.897,-0.102 2.65,-0.068 4.274,-0.083 1.624,-0.014 5.288,-0.02 3.664,-0.01 5.684,0.03 2.019,0.034 3.682,0.097 1.662,0.062 1.726,0.062 0.064,-10e-4 1.447,0.073 1.382,0.074 2.505,0.139 1.123,0.065 2.456,0.106 1.333,0.041 3.371,0.064 2.037,0.024 3.552,0.033 1.515,0.01 2.203,0.016 0.689,0.01 2.536,0.15 1.847,0.144 2.646,0.299 0.8,0.156 1.551,0.401 0.751,0.245 1.336,0.596 0.585,0.351 0.801,0.532 0.215,0.181 0.442,0.421 0.227,0.241 0.374,0.455 0.147,0.214 0.659,1.802 0.512,1.587 0.531,1.67 0.018,0.084 0.194,2.309 0.175,2.225 0.21,3.516 0.035,1.291 0.052,2.098 0.017,0.807 0.073,3.273 0.056,2.466 0.11,3.99 0.055,1.525 0.087,2.888 0.032,1.362 0.028,2.239 -0.003,0.877 -0.086,2.355 -0.083,1.478 -0.253,2.358 -0.171,0.879 -0.421,1.558 -0.251,0.679 -0.338,0.838 -0.087,0.158 -0.26,0.388 -0.173,0.229 -0.752,0.727 -0.579,0.497 -1.084,0.727 -0.505,0.229 -1.121,0.409 -0.616,0.18 -1.692,0.39 -1.077,0.21 -1.814,0.275 -0.737,0.065 -2.729,0.114 -1.992,0.05 -3.935,0.056 -1.944,0.01 -4.166,0.022 -2.222,0.016 -3.92,0.065 -1.698,0.049 -5.494,0.083 -3.796,0.033 -6.218,0.083 -2.422,0.049 -3.522,0.083 -1.099,0.034 -1.606,0.04 -0.506,0.01 -3.452,0.092 -2.946,0.086 -5.936,0.195 -2.99,0.109 -4.937,0.214 -1.948,0.105 -3.322,0.135 -1.375,0.03 -4.796,0.02 -3.421,-0.01 -6.368,-0.084 -2.946,-0.074 -4.486,-0.133 -1.541,-0.059 -2.066,-0.096 -0.525,-0.036 -2.342,-0.165 -1.818,-0.129 -2.718,-0.204 -0.9,-0.076 -1.59,-0.153 -0.69,-0.077 -0.736,-0.08 -0.046,0 -1.421,-0.272 -1.376,-0.271 -1.817,-0.394 -0.442,-0.123 -0.861,-0.291 -0.42,-0.167 -0.885,-0.38 -0.464,-0.214 -0.756,-0.411 -0.291,-0.197 -0.417,-0.296 -0.127,-0.099 -0.502,-0.579 -0.376,-0.479 -1,-1.745 -0.033,-0.052 -0.237,-0.753 -0.205,-0.702 -0.35,-1.691 -0.146,-0.99 -0.174,-1.567 -0.027,-0.578 -0.058,-1.584 -0.03,-1.006 -0.022,-1.798 0.007,-0.792 0.075,-3.655" /><path
     id="STROKE_1c3cefc5-a732-4540-82b6-3c4e9378a956"
     opacity="1"
     fill="none"
     stroke="#FFFFFF"
     stroke-width="2"
     stroke-opacity="1"
     stroke-linecap="round"
     stroke-linejoin="round"
     d="m -445.603,1296.477 q -0.037,-0.18 -0.097,-1.841 -0.059,-1.661 -0.103,-3.172 -0.044,-1.511 -0.039,-2.276 0.005,-0.766 0.078,-1.722 0.073,-0.956 0.286,-1.81 0.214,-0.854 0.415,-1.286 0.201,-0.432 0.45,-0.782 0.248,-0.351 0.407,-0.519 0.159,-0.168 0.438,-0.378 0.279,-0.21 0.962,-0.462 0.683,-0.251 0.942,-0.319 0.258,-0.067 0.704,-0.141 0.446,-0.074 1.476,-0.112 1.03,-0.039 2.17,-0.035 1.139,0 2.614,0.01 1.475,0 2.484,-0.019 1.01,-0.021 2.052,-0.107 1.042,-0.085 1.559,-0.116 0.518,-0.031 1.394,-0.052 0.875,-0.021 2.786,-0.061 1.911,-0.041 1.973,-0.041 0.061,0 4.749,0 4.688,0 7.856,0.112 3.167,0.115 4.492,0.227 1.325,0.112 2.138,0.217 0.812,0.105 1.462,0.23 0.65,0.126 1.332,0.312 0.682,0.187 1.061,0.304 0.378,0.118 0.52,0.158 0.141,0.04 0.728,0.308 0.587,0.267 1.043,0.597 0.457,0.33 0.633,0.487 0.175,0.158 0.517,0.727 0.342,0.57 0.568,1.319 0.226,0.748 0.25,0.831 0.025,0.084 0.066,0.484 0.042,0.399 0.124,2.357 0.083,1.957 0.094,3.284 0.012,1.327 0.048,2.716 0.037,1.389 0.046,1.916 0.01,0.526 0.039,1.172 0.029,0.645 0.068,2.109 0.039,1.465 0.055,2.348 0.016,0.884 -0.003,2.247 -0.018,1.363 -0.107,2.222 -0.09,0.858 -0.327,1.824 -0.237,0.966 -0.282,1.096 -0.044,0.129 -0.315,0.597 -0.271,0.467 -0.445,0.68 -0.174,0.213 -0.361,0.382 -0.187,0.169 -0.229,0.236 -0.041,0.067 -1.138,0.585 -1.097,0.518 -2.208,0.717 -1.111,0.198 -1.865,0.268 -0.755,0.069 -0.805,0.083 -0.05,0.014 -1.353,0 -1.302,-0.017 -2.247,-0.051 -0.945,-0.034 -1.585,-0.026 -0.639,0.01 -1.172,0.036 -0.532,0.028 -0.927,0.04 -0.396,0.012 -1.706,0.03 -1.31,0.019 -2.525,0.054 -1.215,0.035 -3.103,0.082 -1.889,0.047 -4.358,0.151 -2.469,0.105 -2.501,0.11 -0.032,0 -3.368,0.08 -3.335,0.075 -4.992,0.075 -1.658,0 -2.59,-0.014 -0.932,-0.013 -3.771,-0.433 -2.838,-0.42 -3.007,-0.481 -0.169,-0.061 -0.769,-0.409 -0.6,-0.349 -0.96,-0.75 -0.36,-0.401 -1.16,-5.151 -0.8,-4.749 -0.87,-5.713 -0.07,-0.964 -0.098,-1.297 -0.028,-0.332 -0.085,-1.264 -0.057,-0.933 -0.145,-1.882" /><path
     id="STROKE_fc13eae8-47c5-4395-a4d7-a0945ffe3cb6"
     opacity="1"
     fill="none"
     stroke="#FFFFFF"
     stroke-width="2"
     stroke-opacity="1"
     stroke-linecap="round"
     stroke-linejoin="round"
     d="m -493.242,1341.601 -0.06,-0.584 -0.068,-1.927 q 0.018,-0.094 0.08,-2.025 0.062,-1.93 0.285,-2.847 0.222,-0.917 0.386,-1.248 0.163,-0.33 0.318,-0.513 0.155,-0.183 0.619,-0.46 0.464,-0.277 0.529,-0.311 0.065,-0.035 0.864,-0.187 0.8,-0.152 1.481,-0.138 0.681,0.015 1.029,0.059 0.348,0.043 0.676,0.079 0.328,0.036 0.393,0.042 0.065,0.01 0.827,0.011 0.762,0 2.293,0.012 1.53,0.01 2.196,-0.011 0.666,-0.02 2.121,-0.043 1.455,-0.022 2.948,-0.069 1.493,-0.047 2.466,-0.063 0.972,-0.016 2.142,-0.012 1.17,0 1.938,0 0.769,-0.01 1.735,-0.049 0.967,-0.041 1.887,-0.065 0.919,-0.024 2.481,-10e-4 1.563,0.023 3.531,0.266 1.968,0.242 2.068,0.266 0.1,0.024 2.109,0.862 0.303,0.292 0.617,0.634 0.314,0.342 0.677,1.346 0.363,1.004 0.46,1.968 0.096,0.964 0.118,2.077 0.022,1.113 -0.026,2.954 -0.048,1.842 -0.141,3.018 -0.092,1.177 -0.248,2.143 -0.156,0.966 -0.377,1.663 -0.221,0.697 -0.375,0.988 -0.155,0.292 -0.318,0.448 -0.164,0.156 -0.657,0.466 -0.493,0.311 -1.343,0.611 -0.85,0.299 -1.82,0.506 -0.97,0.206 -1.172,0.242 -0.201,0.036 -0.451,0.054 -0.249,0.019 -1.269,0.126 -1.02,0.109 -1.721,0.199 -0.7,0.091 -1.327,0.19 -0.628,0.098 -0.917,0.148 -0.29,0.051 -1.142,0.181 -0.851,0.129 -2.135,0.254 -1.284,0.124 -1.58,0.144 -0.296,0.02 -2.189,0.129 -1.892,0.109 -2.642,0.126 -0.75,0.018 -2.495,0.033 -1.745,0.015 -4.455,-0.053 -2.71,-0.069 -4.942,-0.356 -2.232,-0.286 -3.121,-0.64 -0.89,-0.353 -1.127,-0.518 -0.238,-0.165 -0.444,-0.464 -0.206,-0.3 -0.337,-0.576 -0.132,-0.277 -0.287,-0.833 -0.155,-0.556 -0.212,-1.015 -0.056,-0.459 -0.1,-1.069 -0.043,-0.61 -0.035,-2.103 0.008,-1.492 0.004,-1.569 -0.003,-0.078 0.155,-2.091" /><path
     id="STROKE_3df2a3d1-a84b-4b1b-a00d-1dc3dd7d94a9"
     opacity="1"
     fill="none"
     stroke="#FFFFFF"
     stroke-width="2"
     stroke-opacity="1"
     stroke-linecap="round"
     stroke-linejoin="round"
     d="m -386.086,1239.048 q 0.273,-0.018 1.172,-0.164 0.899,-0.145 2.58,-0.312 1.68,-0.167 3.04,-0.291 1.36,-0.122 2.403,-0.209 1.043,-0.086 3.174,-0.301 2.131,-0.215 3.521,-0.31 1.39,-0.094 4.041,-0.182 2.65,-0.087 3.775,-0.125 1.126,-0.038 1.794,-0.072 0.669,-0.034 2.241,-0.109 1.572,-0.074 3.839,-0.19 2.267,-0.115 4.242,-0.141 1.975,-0.027 3.1,-0.015 1.126,0.011 2.046,0.014 0.92,0 2.571,0.031 1.652,0.028 3.252,0.053 1.6,0.026 5.246,0.143 3.646,0.117 5.64,0.167 1.994,0.051 2.621,0.059 0.627,0.01 2.299,0.064 1.672,0.056 2.523,0.09 0.852,0.034 2.843,0.095 1.992,0.061 3.725,0.138 1.733,0.076 2.537,0.127 0.804,0.051 2.119,0.127 1.315,0.076 1.943,0.12 0.628,0.045 1.299,0.134 0.671,0.09 1.37,0.2" /><path
     id="STROKE_4a4eb393-5c8b-4144-9bad-1346f8cf53fe"
     opacity="1"
     fill="none"
     stroke="#FFFFFF"
     stroke-width="2"
     stroke-opacity="1"
     stroke-linecap="round"
     stroke-linejoin="round"
     d="m -288.542,1231.337 q 0.038,0.212 0.29,3.63 0.251,3.417 0.474,8.089 l -0.108,0.86" /><path
     id="STROKE_12f923e6-e12d-423e-8c45-fe8293612fed"
     opacity="1"
     fill="none"
     stroke="#FFFFFF"
     stroke-width="2"
     stroke-opacity="1"
     stroke-linecap="round"
     stroke-linejoin="round"
     d="m -294.171,1231.337 0.225,-0.066 0.981,-0.097 q 0.567,-0.01 4.016,-0.472 3.45,-0.462 6.26,-0.654 0.131,0.05 0.221,0.073 0.09,0.024 0.913,-0.044" /><circle
     id="STROKE_52dc7e2f-fa85-4b67-8039-667d3a2d70ed"
     opacity="1"
     fill="#FFFFFF"
     stroke="#FFFFFF"
     stroke-width="0.1"
     stroke-opacity="1"
     fill-opacity="1"
     cx="-278.384"
     cy="1235.606"
     r="1" /><path
     id="STROKE_23d1961b-cea8-4ba2-bc00-7227132e9eaa"
     opacity="1"
     fill="none"
     stroke="#FFFFFF"
     stroke-width="2"
     stroke-opacity="1"
     stroke-linecap="round"
     stroke-linejoin="round"
     d="m -277.847,1240.143 0.076,0.472 q -0.006,0.032 0.194,5.282 l -0.042,0.666" /><path
     id="STROKE_41918b85-7a5d-43c8-8eff-06573c2750dd"
     opacity="1"
     fill="none"
     stroke="#FFFFFF"
     stroke-width="2"
     stroke-opacity="1"
     stroke-linecap="round"
     stroke-linejoin="round"
     d="m -272.126,1237.127 0.056,0.8 q -0.003,0.163 0.233,2.002 0.235,1.839 0.556,2.811 0.073,-0.049 0.563,-0.837 0.49,-0.788 0.881,-1.414 0.39,-0.626 0.687,-0.945 0.297,-0.319 0.429,-0.408 0.133,-0.09 0.303,-0.147 0.171,-0.057 0.945,-0.039 0.774,0.017 1.038,0.206 0.263,0.19 0.554,0.737 0.29,0.548 0.459,1.181 0.168,0.634 0.374,1.123 0.099,-0.123 0.538,-1.002 0.44,-0.879 0.993,-1.445 0.552,-0.567 0.889,-0.66 0.336,-0.093 0.504,-0.089 0.168,0 0.512,0.234 0.344,0.229 0.567,0.563 0.223,0.333 0.378,0.783 0.154,0.45 0.235,0.961 0.081,0.511 0.09,1.02 0.009,0.509 0.021,1.054 0.012,0.544 -0.018,1.191" /><path
     id="STROKE_9d239561-99ac-44fa-8bb4-b2de0a26fe00"
     opacity="1"
     fill="none"
     stroke="#FFFFFF"
     stroke-width="2"
     stroke-opacity="1"
     stroke-linecap="round"
     stroke-linejoin="round"
     d="m -253.288,1242.491 0.141,-0.141 0.902,-0.472 q 0.091,-0.033 0.714,-0.48 0.622,-0.447 0.927,-0.766 0.305,-0.32 0.452,-0.562 0.147,-0.241 0.189,-0.375 0.041,-0.134 0.067,-0.385 0.026,-0.252 -0.074,-0.534 -0.101,-0.281 -0.283,-0.424 -0.183,-0.142 -0.447,-0.234 -0.265,-0.092 -0.969,0.041 -0.703,0.134 -1.23,0.556 -0.526,0.422 -0.588,0.503 -0.061,0.081 -0.252,0.335 -0.19,0.254 -0.396,1.275 -0.206,1.022 -0.127,1.604 0.079,0.582 0.221,0.935 0.142,0.353 0.408,0.754 0.267,0.402 0.969,0.973 0.703,0.572 5.384,0.857 l 0.915,-0.12" /><path
     id="STROKE_256f552f-78af-42c6-bcfe-dab1f4d528f2"
     opacity="1"
     fill="none"
     stroke="#FFFFFF"
     stroke-width="2"
     stroke-opacity="1"
     stroke-linecap="round"
     stroke-linejoin="round"
     d="m -394.66,1289.25 0.758,0.051 q 0.265,0.065 3.95,0.261 3.685,0.198 5.693,0.255 2.009,0.057 4.002,0.246 1.993,0.189 5.282,0.325 3.288,0.137 8.231,0.063 4.943,-0.074 9.267,-0.02 4.325,0.053 6.016,0.143 1.691,0.091 2.543,0.133 0.852,0.041 1.3,0.061 0.447,0.019 0.674,0.022 0.227,0 0.764,0.128 l 0.984,0.152" /><path
     id="STROKE_fef4be7a-8c1f-444f-ac73-49c3c0e1c9d5"
     opacity="1"
     fill="none"
     stroke="#FFFFFF"
     stroke-width="2"
     stroke-opacity="1"
     stroke-linecap="round"
     stroke-linejoin="round"
     d="m -335.494,1282.665 q 0.204,0.916 0.502,3.782 0.297,2.867 0.7,7.938 0.071,0.12 0.018,0.166" /><path
     id="STROKE_48ea00fa-26a4-4733-8357-5e31db9c824a"
     opacity="1"
     fill="none"
     stroke="#FFFFFF"
     stroke-width="2"
     stroke-opacity="1"
     stroke-linecap="round"
     stroke-linejoin="round"
     d="m -334.11,1291.172 0.625,-0.247 q 0.606,-0.094 2.276,-0.297 1.67,-0.204 3.407,-0.588 0.085,-0.011 0.379,0.01" /><path
     id="STROKE_45dc19a0-6c17-4f08-bfb9-8863d943a3b1"
     opacity="1"
     fill="none"
     stroke="#FFFFFF"
     stroke-width="2"
     stroke-opacity="1"
     stroke-linecap="round"
     stroke-linejoin="round"
     d="m -327.715,1282.003 -0.114,0.689 q -0.059,0.602 -0.07,1.409 -0.011,0.807 0.01,1.623 0.021,0.815 0.183,2.328 0.162,1.513 0.284,3.211 0.122,1.698 0.131,3.032 l -0.096,0.981" /><path
     id="STROKE_6bb3739c-9bc4-4336-8ab4-e652a73f8ee6"
     opacity="1"
     fill="none"
     stroke="#FFFFFF"
     stroke-width="2"
     stroke-opacity="1"
     stroke-linecap="round"
     stroke-linejoin="round"
     d="m -320.664,1292.069 q 0.122,-0.03 0.753,-0.245 0.632,-0.215 1.103,-0.494 0.47,-0.28 0.708,-0.558 0.238,-0.277 0.303,-0.433 0.065,-0.155 0.091,-0.339 0.025,-0.185 -0.166,-0.379 -0.191,-0.194 -0.367,-0.273 -0.175,-0.079 -0.511,-0.095 -0.337,-0.016 -0.446,0.014 -0.11,0.03 -0.314,0.203 -0.204,0.174 -0.462,0.553 -0.259,0.379 -0.47,0.907 -0.21,0.528 -0.256,0.989 -0.045,0.462 0.086,1.018 0.132,0.557 0.566,1.167 0.434,0.611 0.729,0.862 0.295,0.251 0.8,0.431 0.505,0.181 0.97,0.189 0.465,0.01 0.725,-0.026 0.261,-0.035 0.734,-0.104 0.473,-0.07 1.318,-0.345" /><path
     id="STROKE_8561e514-8a5e-45fe-8eb9-4af2cec46b8d"
     opacity="1"
     fill="none"
     stroke="#FFFFFF"
     stroke-width="2"
     stroke-opacity="1"
     stroke-linecap="round"
     stroke-linejoin="round"
     d="m -306.59,1292.629 q -0.204,-0.492 -0.351,-0.805 -0.146,-0.313 -0.235,-0.466 -0.088,-0.153 -0.257,-0.379 -0.168,-0.225 -0.302,-0.345 -0.133,-0.119 -0.356,-0.272 -0.223,-0.154 -0.798,-0.334 -0.574,-0.181 -1.315,-0.07 -0.741,0.111 -1.466,0.824 -0.725,0.714 -0.813,1.411 -0.087,0.696 0.07,1.101 0.158,0.404 0.466,0.771 0.307,0.367 0.624,0.574 0.317,0.208 0.62,0.314 0.304,0.106 0.787,0.102 0.484,0 0.974,-0.183 0.49,-0.181 0.616,-0.25 0.126,-0.07 1.399,-0.835" /><path
     id="STROKE_eaa9b773-4645-46c7-af84-ade22706bef6"
     opacity="1"
     fill="none"
     stroke="#FFFFFF"
     stroke-width="2"
     stroke-opacity="1"
     stroke-linecap="round"
     stroke-linejoin="round"
     d="m -305.934,1289.352 -0.051,0.18 q -0.168,1.306 -0.261,3.51 -0.093,2.205 -0.152,2.998" /><path
     id="STROKE_c98db4d6-d80a-45f9-ae1c-5268b23beb2a"
     opacity="1"
     fill="none"
     stroke="#FFFFFF"
     stroke-width="2"
     stroke-opacity="1"
     stroke-linecap="round"
     stroke-linejoin="round"
     d="m -296.496,1291.439 q -0.977,-0.655 -1.045,-0.657 -0.765,-0.263 -1.689,-0.293 -0.924,-0.03 -1.329,0.058 -0.404,0.087 -0.608,0.191 -0.204,0.104 -0.659,0.465 -0.456,0.36 -0.758,0.915 -0.303,0.554 -0.331,1.113 -0.028,0.56 0.156,0.969 0.184,0.41 0.373,0.618 0.188,0.208 0.347,0.322 0.159,0.113 0.763,0.279 0.603,0.167 0.968,0.176 0.366,0.01 2.882,-0.949" /><path
     id="STROKE_54078c5b-d141-4c23-afca-eabcb7e2d2b1"
     opacity="1"
     fill="none"
     stroke="#FFFFFF"
     stroke-width="2"
     stroke-opacity="1"
     stroke-linecap="round"
     stroke-linejoin="round"
     d="m -296.032,1281.411 q -0.043,0.152 -0.128,0.901 -0.086,0.749 -0.175,1.94 -0.089,1.192 -0.164,2.394 -0.076,1.202 -0.163,2.556 -0.087,1.355 -0.152,2.4 -0.066,1.046 -0.087,2.119 -0.02,1.073 0.053,1.339 0.074,0.267 0.124,0.846" /><circle
     id="STROKE_b7593f1a-5760-46a4-9628-1977c6b9f4e4"
     opacity="1"
     fill="#FFFFFF"
     stroke="#FFFFFF"
     stroke-width="0.1"
     stroke-opacity="1"
     fill-opacity="1"
     cx="-291.63199"
     cy="1288.296"
     r="1" /><path
     id="STROKE_18f043c9-cc1e-4a1b-8f08-45b458a216ed"
     opacity="1"
     fill="none"
     stroke="#FFFFFF"
     stroke-width="2"
     stroke-opacity="1"
     stroke-linecap="round"
     stroke-linejoin="round"
     d="m -291.532,1291.738 q 0.092,1.317 0.201,2.726 0.109,1.409 0.1,1.97" /><path
     id="STROKE_9eb9199c-ddd8-4f99-a767-5e536051e6f0"
     opacity="1"
     fill="none"
     stroke="#FFFFFF"
     stroke-width="2"
     stroke-opacity="1"
     stroke-linecap="round"
     stroke-linejoin="round"
     d="m -286.203,1288.226 q -0.077,0.425 1.06,5.44 0.022,-0.046 0.423,-0.76 0.401,-0.713 0.929,-1.396 0.527,-0.684 0.915,-0.997 0.388,-0.314 0.846,-0.425 0.458,-0.111 0.958,-0.01 0.5,0.105 0.867,0.475 0.366,0.37 0.56,0.78 0.193,0.411 0.294,0.75 0.101,0.339 0.304,2.958 l -0.096,0.727" /><path
     id="STROKE_86196782-ce14-416d-9390-47c6bcaa15ef"
     opacity="1"
     fill="none"
     stroke="#FFFFFF"
     stroke-width="2"
     stroke-opacity="1"
     stroke-linecap="round"
     stroke-linejoin="round"
     d="m -269.25,1293.889 -0.032,-0.325 q -0.076,-0.418 -0.474,-1.25 -0.399,-0.831 -0.734,-1.209 -0.335,-0.378 -0.725,-0.652 -0.39,-0.275 -0.821,-0.409 -0.43,-0.134 -1.069,-0.04 -0.638,0.093 -1.257,0.551 -0.62,0.459 -0.935,1.048 -0.314,0.59 -0.381,1.277 -0.066,0.687 0.149,1.233 0.215,0.545 0.471,0.848 0.256,0.302 0.869,0.575 0.612,0.272 0.92,0.286 0.307,0.014 0.665,-0.061 0.358,-0.074 0.663,-0.194 0.305,-0.119 0.891,-0.442 0.586,-0.322 0.941,-0.514 0,0.099 0.019,0.222 0.02,0.122 0.172,1.13 0.153,1.009 0.461,4.862 0.307,3.854 0.181,4.603 -0.125,0.749 -0.159,0.888 -0.033,0.14 -0.202,0.559 -0.168,0.42 -0.289,0.593 -0.12,0.172 -0.284,0.289 -0.165,0.116 -0.817,0.321 -0.652,0.206 -1.092,0.177 -0.44,-0.028 -0.904,-0.23 -0.465,-0.203 -0.995,-0.776 -0.531,-0.573 -0.762,-1.04 -0.231,-0.466 -0.368,-1.081 -0.136,-0.615 -0.161,-1.08 -0.024,-0.465 0.338,-2.282" /><path
     id="STROKE_7cb133f0-b41a-41ee-afa2-d604885fce0f"
     opacity="1"
     fill="none"
     stroke="#FFFFFF"
     stroke-width="2"
     stroke-opacity="1"
     stroke-linecap="round"
     stroke-linejoin="round"
     d="m -453.234,1337.513 q 1.518,0 3.142,-0.01 1.624,-0.013 2.65,-0.034 1.025,-0.021 1.377,-0.024 0.352,0 1.873,-0.066 1.521,-0.062 2.519,-0.116 0.998,-0.053 2.446,-0.107 1.448,-0.053 3.537,-0.159 2.09,-0.107 3.289,-0.14 1.2,-0.034 4.747,-0.034 3.548,0 5.478,0.01 1.93,0.01 3.475,0.01 1.546,0 5.235,-0.039 3.689,-0.04 5.455,-0.062 1.766,-0.022 2.503,-0.033 0.737,-0.012 2.109,-0.031 1.372,-0.018 2.305,-0.035 0.933,-0.017 2.125,-0.05" /><path
     id="STROKE_1771c2f1-e1b4-4c4d-85a0-337594cf0e9f"
     opacity="1"
     fill="none"
     stroke="#FFFFFF"
     stroke-width="2"
     stroke-opacity="1"
     stroke-linecap="round"
     stroke-linejoin="round"
     d="m -370.721,1332.378 q -0.132,-0.203 -0.175,-0.31 -0.044,-0.106 -0.256,-0.432 -0.213,-0.327 -0.357,-0.521 -0.145,-0.193 -0.255,-0.352 -0.11,-0.159 -0.903,-0.989 -0.792,-0.83 -1.323,-1.172 -0.531,-0.342 -1.347,-0.561 -0.816,-0.219 -1.561,-0.133 -0.745,0.087 -1.053,0.21 -0.308,0.123 -1.258,0.78 -0.949,0.657 -1.452,1.239 -0.503,0.582 -1.092,1.867 -0.589,1.285 -0.72,3.42 -0.13,2.136 0.439,3.994 0.568,1.857 1.178,2.737 0.61,0.88 1.026,1.235 0.416,0.355 1.265,0.651 0.849,0.295 2.572,-0.1 1.724,-0.396 2.999,-1.255 1.275,-0.859 2.596,-2.433 l 0.333,-0.659" /><path
     id="STROKE_fb65a7a7-920b-4a25-8de7-a8b15db6dddf"
     opacity="1"
     fill="none"
     stroke="#FFFFFF"
     stroke-width="2"
     stroke-opacity="1"
     stroke-linecap="round"
     stroke-linejoin="round"
     d="m -357.776,1339.829 q -0.049,-0.072 -0.636,-0.727 -0.587,-0.654 -1.214,-1.02 -0.628,-0.365 -1.294,-0.438 -0.665,-0.073 -1.397,0.297 -0.733,0.37 -1.175,0.907 -0.441,0.538 -0.66,1.245 -0.218,0.708 -0.093,1.426 0.125,0.718 0.534,1.18 0.409,0.463 1.021,0.716 0.613,0.253 1.179,0.252 0.566,0 1.069,-0.197 0.503,-0.198 0.766,-0.423 0.264,-0.225 0.445,-0.432 0.181,-0.208 0.425,-0.551 0.245,-0.344 1.194,-1.605" /><path
     id="STROKE_fda65aff-2f6e-4f9b-992e-893c542d8371"
     opacity="1"
     fill="none"
     stroke="#FFFFFF"
     stroke-width="2"
     stroke-opacity="1"
     stroke-linecap="round"
     stroke-linejoin="round"
     d="m -354.897,1337.08 0.124,0.227 0.134,0.298 0.093,0.333 q 0.147,0.636 0.445,1.997 0.298,1.361 0.66,1.995 0.252,-0.26 0.543,-0.785 0.292,-0.526 0.566,-0.916 0.275,-0.391 0.736,-0.708 0.461,-0.317 1.002,-0.411 0.542,-0.094 0.784,-0.038 0.242,0.057 0.497,0.23 0.256,0.173 0.83,1.29 0.574,1.117 0.891,2.586 l 0.079,0.043 q 0.056,0.024 0.158,0.248" /><path
     id="STROKE_73b71799-9ab4-4814-baae-2db0f33f3791"
     opacity="1"
     fill="none"
     stroke="#FFFFFF"
     stroke-width="2"
     stroke-opacity="1"
     stroke-linecap="round"
     stroke-linejoin="round"
     d="m -340.432,1330.431 q -0.02,0.126 -0.103,0.376 -0.082,0.249 -0.101,1.36 -0.018,1.11 0.315,3.872 0.334,2.763 1.87,8.219 0.667,0.203 1.609,-0.199 0.941,-0.401 1.816,-1.33 l 0.424,-0.647" /><path
     id="STROKE_509e6ed2-d4e9-4f72-9038-7d8b0e53997c"
     opacity="1"
     fill="none"
     stroke="#FFFFFF"
     stroke-width="2"
     stroke-opacity="1"
     stroke-linecap="round"
     stroke-linejoin="round"
     d="m -343.939,1337.742 0.218,-0.062 q 2.931,-0.438 4.676,-0.566 1.746,-0.128 3.648,-0.076 l 0.367,0.011" /><path
     id="STROKE_a1c2d7fa-c40f-4d8c-933e-51d67cf4ee8e"
     opacity="1"
     fill="none"
     stroke="#FFFFFF"
     stroke-width="2"
     stroke-opacity="1"
     stroke-linecap="round"
     stroke-linejoin="round"
     d="m -327.979,1341.681 0.33,-0.157 0.33,-0.091 q 0.782,-0.282 1.318,-0.684 0.535,-0.403 0.684,-0.617 0.15,-0.215 0.202,-0.409 0.053,-0.194 0.043,-0.508 -0.01,-0.314 -0.279,-0.6 -0.268,-0.287 -0.39,-0.342 -0.123,-0.055 -0.703,-0.059 -0.58,0 -1.294,0.689 -0.715,0.692 -0.918,1.209 -0.203,0.517 -0.242,0.989 -0.039,0.472 0.032,0.843 0.071,0.37 0.237,0.699 0.165,0.329 0.512,0.744 0.347,0.415 0.755,0.676 0.408,0.261 0.739,0.388 0.33,0.126 1.051,0.258 0.72,0.131 1.797,-0.01 1.076,-0.139 3.147,-1.232" /><path
     id="STROKE_d2b77421-f08e-4e79-bf12-06fe638143d9"
     opacity="1"
     fill="none"
     stroke="#FFFFFF"
     stroke-width="2"
     stroke-opacity="1"
     stroke-linecap="round"
     stroke-linejoin="round"
     d="m -317.585,1336.45 -0.203,0.47 q -0.079,0.268 0.041,2.282 0.12,2.015 0.535,3.588 0.068,0.051 0.452,-0.463 0.384,-0.514 0.865,-1.336 0.482,-0.823 0.629,-1.044 0.148,-0.222 0.645,-0.749 0.498,-0.528 0.971,-0.654 0.473,-0.126 0.994,0.032 0.521,0.159 1.221,1.639 0.699,1.481 0.888,2.456 0.188,0.975 0.106,1.119 -0.082,0.143 -0.193,0.474" /><path
     id="STROKE_1526cd56-e124-4643-8cb2-c8d9ecf0d6fc"
     opacity="1"
     fill="none"
     stroke="#FFFFFF"
     stroke-width="2"
     stroke-opacity="1"
     stroke-linecap="round"
     stroke-linejoin="round"
     d="m -304.604,1332.149 q 0.212,0.222 0.388,0.439 0.051,0.058 0.493,2.225 0.442,2.166 0.707,3.687 0.265,1.521 0.52,2.182 0.254,0.662 0.654,1.131 0.399,0.47 0.684,0.634 0.285,0.165 0.461,0.224 0.175,0.059 0.581,0.103 0.407,0.044 2.961,-0.906 l 0.822,-0.416" /><path
     id="STROKE_6f87ab0b-cd64-4fb8-ba8c-1424a7428637"
     opacity="1"
     fill="none"
     stroke="#FFFFFF"
     stroke-width="2"
     stroke-opacity="1"
     stroke-linecap="round"
     stroke-linejoin="round"
     d="m -305.369,1336.718 0.236,0.022 0.261,0.014 0.473,-0.015 q 0.805,-0.058 7.474,-0.518" /><path
     id="STROKE_44ae1bd0-c7e3-4e0c-b956-9aeb524a0cc6"
     opacity="1"
     fill="none"
     stroke="#FFFFFF"
     stroke-width="2"
     stroke-opacity="1"
     stroke-linecap="round"
     stroke-linejoin="round"
     d="m -409.564,1190.154 q 1.113,-0.102 1.556,-0.153 0.443,-0.052 1.108,-0.148 0.664,-0.095 0.982,-0.138 0.318,-0.043 3.243,-0.292 2.926,-0.248 5.997,-0.294 3.071,-0.046 4.521,-0.023 1.449,0.023 2.35,0.026 0.901,0 3.1,0.043 2.2,0.041 4.22,0.049 2.02,0.01 5.015,-0.052 2.994,-0.06 5.128,-0.106 2.133,-0.047 8.769,-0.076 l 0.497,0.01" /><path
     id="STROKE_36849100-945e-4558-9168-2c1423ec106a"
     opacity="1"
     fill="none"
     stroke="#FFFFFF"
     stroke-width="2"
     stroke-opacity="1"
     stroke-linecap="round"
     stroke-linejoin="round"
     d="m -351.654,1181.253 -0.008,0.452 q -0.123,0.686 1.041,13.719 0.04,0.032 0.123,0.26" /><path
     id="STROKE_fe73d3ee-6f5a-4a81-a59e-49d66c1dc1e6"
     opacity="1"
     fill="none"
     stroke="#FFFFFF"
     stroke-width="2"
     stroke-opacity="1"
     stroke-linecap="round"
     stroke-linejoin="round"
     d="m -351.882,1181.081 q 0.072,0.024 1.779,0.329 1.706,0.305 2.517,0.585 0.812,0.28 1.39,0.65 0.579,0.369 1.055,0.885 0.477,0.516 0.881,1.61 0.404,1.093 0.432,2.376 0.028,1.284 -0.137,1.952 -0.164,0.668 -0.866,1.954 -0.702,1.286 -3.292,3.386 -0.18,0.199 -0.516,0.774" /><path
     id="STROKE_d2654a75-aa0e-484c-b4b1-250f26761fcf"
     opacity="1"
     fill="none"
     stroke="#FFFFFF"
     stroke-width="2"
     stroke-opacity="1"
     stroke-linecap="round"
     stroke-linejoin="round"
     d="m -335.267,1192.337 -0.134,-0.302 q -0.401,-0.619 -0.616,-0.824 -0.216,-0.204 -0.459,-0.375 -0.243,-0.17 -0.449,-0.279 -0.206,-0.109 -1.186,-0.246 -0.98,-0.138 -1.677,0.119 -0.698,0.257 -1.195,0.787 -0.497,0.529 -0.616,1.053 -0.118,0.524 -0.006,0.897 0.112,0.373 0.823,0.864 0.71,0.49 1.32,0.602 0.609,0.111 1.155,0.053 0.546,-0.058 1.194,-0.384 0.647,-0.326 0.962,-0.55 0.314,-0.225 0.78,-0.668 0.017,-0.023 0.101,0.161 0.084,0.184 0.377,0.836 0.294,0.653 0.48,1.027 0.048,0.018 0.203,0.607" /><path
     id="STROKE_e0975291-5ddc-49d0-bf5a-a9545dd76edd"
     opacity="1"
     fill="none"
     stroke="#FFFFFF"
     stroke-width="2"
     stroke-opacity="1"
     stroke-linecap="round"
     stroke-linejoin="round"
     d="m -330.593,1190.714 0.221,0.451 q 0.017,0.112 2.271,3.682 l 0.486,0.633" /><path
     id="STROKE_c7cce868-f254-42d6-801d-6de3b30648e0"
     opacity="1"
     fill="none"
     stroke="#FFFFFF"
     stroke-width="2"
     stroke-opacity="1"
     stroke-linecap="round"
     stroke-linejoin="round"
     d="m -325.401,1190.746 -0.037,0.295 -0.139,0.342 q -0.399,0.662 -2.258,6.624 -0.025,0.12 0.047,0.254" /><path
     id="STROKE_4514d434-9184-41e7-90c8-2cac59d0d99c"
     opacity="1"
     fill="none"
     stroke="#FFFFFF"
     stroke-width="2"
     stroke-opacity="1"
     stroke-linecap="round"
     stroke-linejoin="round"
     d="m -310.234,1193.196 -0.143,-0.156 q -0.024,-0.103 -0.194,-0.458 -0.169,-0.355 -0.47,-0.703 -0.3,-0.348 -0.487,-0.471 -0.188,-0.122 -0.61,-0.28 -0.423,-0.159 -1.205,-0.068 -0.782,0.091 -1.157,0.397 -0.374,0.306 -0.643,0.761 -0.268,0.456 -0.266,1.041 0.003,0.584 0.362,1.088 0.358,0.504 0.778,0.73 0.42,0.226 0.814,0.269 0.394,0.043 0.7,-0.034 0.305,-0.076 0.76,-0.332 0.456,-0.256 1.625,-1.288" /><path
     id="STROKE_8827ac21-d7ab-4add-9ec2-791d9663832b"
     opacity="1"
     fill="none"
     stroke="#FFFFFF"
     stroke-width="2"
     stroke-opacity="1"
     stroke-linecap="round"
     stroke-linejoin="round"
     d="m -302.327,1189.855 -0.033,-0.083 -0.002,-0.155 q -0.029,-0.251 -0.231,-0.983 -0.202,-0.732 -0.695,-1.382 -0.494,-0.65 -0.911,-0.944 -0.417,-0.294 -0.781,-0.367 -0.365,-0.073 -0.726,0.035 -0.361,0.108 -0.623,2.087 -0.263,1.979 -0.088,3.337 0.174,1.358 0.339,2.094 0.165,0.736 0.667,2.998 -0.024,0.018 -0.122,-0.019" /><path
     id="STROKE_a6bd0667-46aa-41df-b85c-ba6172bb04d8"
     opacity="1"
     fill="none"
     stroke="#FFFFFF"
     stroke-width="2"
     stroke-opacity="1"
     stroke-linecap="round"
     stroke-linejoin="round"
     d="m -308.348,1191.942 0.394,-0.176 0.981,-0.122 q 0.153,-0.01 2.812,-0.333 l 0.614,-0.101" /><path
     id="STROKE_75b2b55f-f707-4996-b24f-a24801a9ebc0"
     opacity="1"
     fill="none"
     stroke="#FFFFFF"
     stroke-width="2"
     stroke-opacity="1"
     stroke-linecap="round"
     stroke-linejoin="round"
     d="m -289.081,1189.524 0.09,0.266 q 0,0.143 0.564,2.146 0.564,2.003 1.112,3.047 0.548,1.044 0.723,1.211 0.175,0.166 0.4,0.236 0.226,0.07 0.644,-0.956 0.417,-1.026 0.942,-1.924 l 0.179,-0.034 q 0.253,0.023 0.747,0.576 0.495,0.553 1.098,1.226 0.602,0.673 0.991,0.953 0.389,0.281 1.056,0.376 0.041,-0.019 0.59,-0.661 0.549,-0.643 0.8,-1.779 0.251,-1.136 0.254,-2.107 0.002,-0.971 -0.175,-1.789 -0.178,-0.817 -0.454,-1.254 -0.131,-0.049 -0.06,0.2" /><path
     id="STROKE_b1f1d43d-354d-44f5-9eeb-9090eb3e982a"
     opacity="1"
     fill="none"
     stroke="#FFFFFF"
     stroke-width="2"
     stroke-opacity="1"
     stroke-linecap="round"
     stroke-linejoin="round"
     d="m -273.978,1195.353 0.268,-0.072 q 0.096,-0.058 0.436,-0.2 0.341,-0.141 0.939,-0.565 0.599,-0.424 0.905,-0.783 0.305,-0.36 0.524,-0.789 0.22,-0.43 0.247,-0.926 0.028,-0.496 -0.174,-0.813 -0.202,-0.317 -0.682,-0.452 -0.479,-0.136 -1.039,0.022 -0.561,0.159 -1.207,0.851 -0.645,0.692 -0.91,1.604 -0.265,0.913 -0.194,1.531 0.071,0.619 0.376,1.199 0.304,0.581 0.788,1.006 0.485,0.425 1.292,0.765 0.807,0.339 1.599,0.423 0.792,0.084 3.09,-0.421" /><path
     id="STROKE_218ff7be-3cb8-4253-916d-b79171051058"
     opacity="1"
     fill="none"
     stroke="#FFFFFF"
     stroke-width="2"
     stroke-opacity="1"
     stroke-linecap="round"
     stroke-linejoin="round"
     d="m -263.684,1197.134 q 0.097,-0.122 0.882,-0.904 0.785,-0.782 1.224,-1.396 0.438,-0.614 0.655,-1.098 0.216,-0.484 0.279,-0.972 0.064,-0.488 0.011,-0.786 -0.053,-0.298 -0.231,-0.528 -0.177,-0.23 -0.61,-0.369 -0.433,-0.14 -0.848,-0.046 -0.416,0.094 -0.668,0.236 -0.253,0.143 -0.682,0.526 -0.429,0.383 -0.783,1.128 -0.355,0.745 -0.385,1.353 -0.029,0.608 0.107,1.092 0.135,0.484 0.923,1.355 0.787,0.871 1.731,1.249 0.944,0.378 2.1,0.422 1.155,0.043 3.409,-0.466" /><path
     id="STROKE_ac61706b-3590-49c5-a58c-b42d773af2d6"
     opacity="1"
     fill="none"
     stroke="#FFFFFF"
     stroke-width="2"
     stroke-opacity="1"
     stroke-linecap="round"
     stroke-linejoin="round"
     d="m -255.112,1184.523 q 0.029,0.213 0.178,2.695 0.149,2.483 0.494,4.794 0.344,2.311 0.761,3.69 l 0.024,0.045" /><path
     id="STROKE_253bd910-b115-4580-a054-a71f25ae3400"
     opacity="1"
     fill="none"
     stroke="#FFFFFF"
     stroke-width="2"
     stroke-opacity="1"
     stroke-linecap="round"
     stroke-linejoin="round"
     d="m -248.353,1189.06 q -0.316,0.214 -0.719,0.578 -0.404,0.364 -1.387,1.493 -0.983,1.129 -1.132,1.421 -0.149,0.293 -0.206,1.011 0.137,0.242 0.871,0.691 0.734,0.449 1.484,0.736 0.749,0.286 4.044,1.956 0.144,0 0.489,0.023" /></g></svg>
