<?xml version="1.0" encoding="UTF-8" standalone="no"?>
<!-- Generator: Adobe Illustrator 26.1.0, SVG Export Plug-In . SVG Version: 6.00 Build 0)  -->

<svg
   version="1.1"
   id="Layer_1"
   x="0px"
   y="0px"
   viewBox="0 0 960 480"
   style="enable-background:new 0 0 960 480;"
   xml:space="preserve"
   sodipodi:docname="pt2-journal.svg"
   inkscape:version="1.2.1 (9c6d41e410, 2022-07-14, custom)"
   xmlns:inkscape="http://www.inkscape.org/namespaces/inkscape"
   xmlns:sodipodi="http://sodipodi.sourceforge.net/DTD/sodipodi-0.dtd"
   xmlns="http://www.w3.org/2000/svg"
   xmlns:svg="http://www.w3.org/2000/svg"><defs
   id="defs1298" /><sodipodi:namedview
   id="namedview1296"
   pagecolor="#505050"
   bordercolor="#eeeeee"
   borderopacity="1"
   inkscape:showpageshadow="0"
   inkscape:pageopacity="0"
   inkscape:pagecheckerboard="0"
   inkscape:deskcolor="#505050"
   showgrid="false"
   inkscape:zoom="1.7614583"
   inkscape:cx="479.71614"
   inkscape:cy="240.99349"
   inkscape:window-width="1902"
   inkscape:window-height="2039"
   inkscape:window-x="1924"
   inkscape:window-y="8"
   inkscape:window-maximized="0"
   inkscape:current-layer="Layer_1" />
<g
   id="Journal"
   opacity="1"
   transform="matrix(1.3333333,0,0,1.3333333,235.97734,-1017.5286)"><path
     id="STROKE_56d00da3-237f-4e28-a659-bbbfcf8c2408"
     opacity="1"
     fill="none"
     stroke="#FFFFFF"
     stroke-width="5"
     stroke-opacity="1"
     stroke-linecap="round"
     stroke-linejoin="round"
     d="m 165.087,896.19 -0.431,1.534 q -1.23,3.498 -1.275,3.592 -0.046,0.095 -1.559,4.447 -1.514,4.352 -2.86,8.12 -1.346,3.769 -2.15,5.8 -0.805,2.031 -2.61,6.526 -1.805,4.496 -2.881,7.187 -1.076,2.69 -2.396,5.885 -1.321,3.196 -1.863,4.53 -0.542,1.335 -1.759,4.397 -1.218,3.063 -2.078,5.127 -0.86,2.063 -2.742,6.638 -1.881,4.576 -3.702,8.823 -1.822,4.247 -3.005,7.038 l -0.682,1.381" /><path
     id="STROKE_8e5b4de4-ec88-470e-8225-40f02c398b85"
     opacity="1"
     fill="none"
     stroke="#FFFFFF"
     stroke-width="5"
     stroke-opacity="1"
     stroke-linecap="round"
     stroke-linejoin="round"
     d="m 132.438,979.201 0.16,0.629 q 0.358,6.348 0.436,7.241 0.079,0.894 0.188,3.125" /><path
     id="STROKE_34e78b35-4f36-49d7-bdc0-8ccde0cd5586"
     opacity="1"
     fill="none"
     stroke="#FFFFFF"
     stroke-width="5"
     stroke-opacity="1"
     stroke-linecap="round"
     stroke-linejoin="round"
     d="m 133.422,978.348 q 2.682,-0.018 2.887,-0.005 0.204,0.014 2.46,-0.022 2.255,-0.035 4.282,-0.11 2.027,-0.074 3.897,-0.096 1.87,-0.022 2.591,0 0.72,0.022 3.68,0.02 2.959,-0.002 5.929,0.006 2.971,0.008 3.132,0.007 0.16,-0.002 5.301,0.069 5.14,0.071 8.198,0.156 3.057,0.086 4.694,0.2 1.637,0.114 4.804,0.275 3.166,0.161 3.878,0.216 0.712,0.055 3.853,0.158 3.141,0.103 5.055,0.182" /><path
     id="STROKE_8d325c06-f538-41aa-bcc6-2618a28d4f5f"
     opacity="1"
     fill="none"
     stroke="#FFFFFF"
     stroke-width="5"
     stroke-opacity="1"
     stroke-linecap="round"
     stroke-linejoin="round"
     d="m 134.096,992.639 0.371,-0.073 q 1.639,0.011 2.548,0.045 0.908,0.034 2.23,0.07 1.321,0.036 7.117,0.042 5.795,0.007 9.042,-0.028 3.246,-0.035 5.076,-0.072 1.83,-0.036 2.588,-0.062 0.759,-0.027 2.343,-0.127 1.584,-0.1 3.029,-0.164 1.445,-0.064 16.296,-0.409 l 2.91,-0.084 1.843,-0.029 q 1.053,-0.06 2.245,-0.051 1.193,0.01 2.525,0.054 1.332,0.044 3.458,0.099" /><path
     id="STROKE_8c8c99f9-b63a-4e74-a2d6-d6a3e408bfd5"
     opacity="1"
     fill="none"
     stroke="#FFFFFF"
     stroke-width="5"
     stroke-opacity="1"
     stroke-linecap="round"
     stroke-linejoin="round"
     d="m 164.801,896.082 2.259,-0.42 2.966,-0.313 q 0.397,-0.057 5.877,-0.531 5.48,-0.474 8.168,-0.636 2.689,-0.163 9.581,-0.324 6.893,-0.161 9.385,-0.186 2.492,-0.024 4.072,-0.059 1.581,-0.036 7.031,-0.043 5.449,-0.006 7.63,0.018 2.182,0.024 3.356,0.043 1.175,0.019 6.011,0.402" /><path
     id="STROKE_8c31bd9c-c583-4ead-9964-670877a845a1"
     opacity="1"
     fill="none"
     stroke="#FFFFFF"
     stroke-width="5"
     stroke-opacity="1"
     stroke-linecap="round"
     stroke-linejoin="round"
     d="m 230.681,894.759 -0.008,0.852 q -0.949,2.866 -0.994,3.001 -0.044,0.134 -0.648,1.885 -0.603,1.752 -1.327,3.879 -0.724,2.127 -0.958,2.775 -0.233,0.648 -0.838,2.197 -0.605,1.548 -1.607,4.14 -1.002,2.591 -2.001,5.071 -0.999,2.481 -2.071,5.172 -1.073,2.691 -1.726,4.261 -0.652,1.57 -0.735,1.748 -0.083,0.178 -1.947,4.756 -1.864,4.578 -3.37,8.484 -1.505,3.905 -2.319,6.217 -0.813,2.312 -2.359,6.692 -1.546,4.38 -3.011,8.494 -1.465,4.115 -2.487,7.041 -1.022,2.926 -2.056,5.683" /><path
     id="STROKE_2c018705-2dc3-4cba-ac46-871a1eddfde0"
     opacity="1"
     fill="none"
     stroke="#FFFFFF"
     stroke-width="5"
     stroke-opacity="1"
     stroke-linecap="round"
     stroke-linejoin="round"
     d="m 233.596,904.761 q -0.432,1.738 -0.87,2.928 -0.439,1.19 -0.824,2.265 -0.384,1.075 -1.63,4.67 -1.247,3.595 -1.966,5.611 -0.72,2.015 -1.301,3.716 -0.58,1.7 -0.915,2.632 -0.336,0.931 -1.393,3.902 -1.057,2.971 -2.028,5.543 -0.97,2.572 -1.307,3.503 -0.336,0.93 -1.351,3.591 -1.015,2.661 -1.557,4.115 -0.541,1.454 -1.742,4.466 -1.202,3.011 -1.269,3.198 -0.068,0.188 -0.762,1.898 -0.694,1.71 -1.797,4.281 -1.103,2.57 -2.006,4.614 -0.904,2.043 -0.993,2.222 -0.09,0.178 -0.994,2.319 -0.904,2.141 -1.756,4.272 -0.851,2.132 -1.584,3.936 -0.732,1.805 -1.247,3.134 -0.515,1.329 -1.049,2.623 -0.534,1.295 -1.067,2.494 -0.533,1.199 -0.872,1.986 -0.339,0.788 -1.024,2.197" /><path
     id="STROKE_1c8d9555-3175-4405-803d-e5dcf5384840"
     opacity="1"
     fill="none"
     stroke="#FFFFFF"
     stroke-width="5"
     stroke-opacity="1"
     stroke-linecap="round"
     stroke-linejoin="round"
     d="m 227.766,905.028 q 0.804,-0.128 0.904,0.019 0.1,0.147 3.195,-0.159" /><path
     id="STROKE_4017caa1-3ef8-46d0-8214-2a83c1b266b4"
     opacity="1"
     fill="none"
     stroke="#FFFFFF"
     stroke-width="5"
     stroke-opacity="1"
     stroke-linecap="round"
     stroke-linejoin="round"
     d="m 229.096,906.937 q -0.055,1.075 -0.134,1.344 -0.079,0.268 -0.81,3.063 -0.731,2.795 -1.226,4.464 -0.494,1.669 -1.173,3.91 -0.679,2.24 -1.817,5.392 -1.138,3.152 -1.885,5.048 -0.746,1.895 -1.321,3.44 -0.575,1.544 -1.401,3.676 -0.826,2.132 -1.328,3.361 -0.502,1.23 -1.262,3.05 -0.76,1.82 -2.069,5.165 -1.309,3.345 -1.976,5.007 -0.668,1.661 -0.723,1.81 -0.056,0.149 -1.608,3.704 -1.551,3.556 -2.368,5.447 -0.818,1.89 -1.549,3.551 -0.731,1.661 -1.472,3.471 -0.742,1.811 -1.606,3.784 -0.864,1.974 -2.886,6.794 -0.772,2.057 -1.274,3.285 -0.502,1.229 -0.869,2.09 -0.368,0.861 -1.235,2.893" /><path
     id="STROKE_a8da7a3b-b349-4ea5-b46b-ffca2f6656fe"
     opacity="1"
     fill="none"
     stroke="#FFFFFF"
     stroke-width="5"
     stroke-opacity="1"
     stroke-linecap="round"
     stroke-linejoin="round"
     d="m 196.247,979.894 0.608,5.051 q 0.075,0.716 0.522,3.221" /><path
     id="STROKE_2d1f77b0-6515-4cd1-89ef-b31d90abe85d"
     opacity="1"
     fill="none"
     stroke="#FFFFFF"
     stroke-width="2"
     stroke-opacity="1"
     stroke-linecap="round"
     stroke-linejoin="round"
     d="m 205.075,908.398 q -0.16,0.252 -0.805,1.488 -0.88,2.508 -1.935,5.373 -1.055,2.866 -2.027,5.484 -0.973,2.617 -1.322,3.539 -0.35,0.922 -1.239,3.133 -0.889,2.211 -2.478,6.249 -1.588,4.038 -2.641,6.623 -1.053,2.585 -1.68,4 -0.627,1.416 -1.402,3.173 -0.775,1.757 -1.416,3.04 -0.642,1.282 -2.55,4.463 -1.908,3.18 -2.655,4.098 -0.747,0.917 -1.551,1.695 -0.803,0.778 -1.745,1.483 -0.942,0.705 -1.829,1.164 -0.887,0.459 -1.324,0.615 -0.436,0.156 -1.503,0.392 -1.068,0.236 -3.135,0.334 -2.068,0.097 -2.678,0.045 -0.611,-0.052 -0.842,-0.056 -0.231,-0.005 -1.162,-0.224 -0.93,-0.219 -1.755,-0.583 -0.826,-0.364 -2.079,-1.237 -0.873,-0.614 -1.542,-1.263 -0.669,-0.648 -0.856,-0.9 -0.188,-0.251 -1.137,-1.405 -0.949,-1.154 -2.136,-2.403" /><path
     id="STROKE_222f9d06-9893-4682-9d05-d08268abbe06"
     opacity="1"
     fill="none"
     stroke="#FFFFFF"
     stroke-width="2"
     stroke-opacity="1"
     stroke-linecap="round"
     stroke-linejoin="round"
     d="m 183.285,907.329 q 0.309,-0.062 1.771,-0.209 15.731,-0.238 17.669,-0.15 1.939,0.088 4.248,0.159 2.31,0.071 6.087,0.183 l 1.744,0.094" /></g></svg>
