<?xml version="1.0" encoding="UTF-8" standalone="no"?>
<!-- Generator: Adobe Illustrator 26.1.0, SVG Export Plug-In . SVG Version: 6.00 Build 0)  -->

<svg
   version="1.1"
   id="Layer_1"
   x="0px"
   y="0px"
   viewBox="0 0 960 480"
   style="enable-background:new 0 0 960 480;"
   xml:space="preserve"
   sodipodi:docname="pt2-purpose.svg"
   inkscape:version="1.2.1 (9c6d41e410, 2022-07-14, custom)"
   xmlns:inkscape="http://www.inkscape.org/namespaces/inkscape"
   xmlns:sodipodi="http://sodipodi.sourceforge.net/DTD/sodipodi-0.dtd"
   xmlns="http://www.w3.org/2000/svg"
   xmlns:svg="http://www.w3.org/2000/svg"><defs
   id="defs1303" /><sodipodi:namedview
   id="namedview1301"
   pagecolor="#505050"
   bordercolor="#eeeeee"
   borderopacity="1"
   inkscape:showpageshadow="0"
   inkscape:pageopacity="0"
   inkscape:pagecheckerboard="0"
   inkscape:deskcolor="#505050"
   showgrid="false"
   inkscape:zoom="1.7614583"
   inkscape:cx="479.71614"
   inkscape:cy="240.99349"
   inkscape:window-width="1902"
   inkscape:window-height="2039"
   inkscape:window-x="1924"
   inkscape:window-y="8"
   inkscape:window-maximized="0"
   inkscape:current-layer="Layer_1" />
<g
   id="Purpose"
   opacity="1"
   transform="matrix(1.3333333,0,0,1.3333333,200.18035,-701.33934)"><path
     id="STROKE_da820af3-8e53-489b-844c-b5a86367de8c"
     opacity="1"
     fill="none"
     stroke="#000000"
     stroke-width="5"
     stroke-opacity="1"
     stroke-linecap="round"
     stroke-linejoin="round"
     d="m 162.117,730.076 -0.319,-0.292 q -0.338,-0.294 -1.97,-0.977 -1.632,-0.682 -2.856,-1.49 -1.225,-0.809 -1.73,-1.234 -0.505,-0.426 -1.922,-2.176 -1.417,-1.751 -2.935,-4.992 -1.519,-3.242 -2.134,-5.489 -0.614,-2.248 -0.699,-4.201 -0.084,-1.953 0.621,-4.165 0.095,-0.179 0.497,-0.917 0.402,-0.737 1.219,-1.574 0.816,-0.836 1.368,-1.099 0.552,-0.262 1.246,-0.382 0.694,-0.119 0.748,-0.168 0.054,-0.05 0.949,0.055 0.896,0.104 1.92,-0.037 -0.013,-0.028 -0.41,-1.739 -0.398,-1.711 -0.777,-2.984 -0.379,-1.273 -0.713,-2.629 -0.335,-1.357 -0.517,-2.297 -0.182,-0.94 -0.483,-3.013 -0.302,-2.073 -0.017,-5.092 0.284,-3.02 0.609,-3.98 0.324,-0.959 0.741,-1.782 0.417,-0.824 0.838,-1.405 0.42,-0.581 0.645,-0.813 0.225,-0.232 0.741,-0.574 0.515,-0.341 1.913,-0.875 1.398,-0.535 2.339,-0.588 0.942,-0.053 1.418,-0.043 0.476,0.01 1.348,0.257 0.872,0.248 3.246,1.316 2.373,1.069 3.662,1.585 1.289,0.517 2.246,0.738 0.132,-0.052 0.381,-0.377 0.249,-0.325 1.092,-1.928 0.843,-1.602 1.722,-3.183 0.878,-1.581 1.492,-2.537 0.613,-0.955 1.424,-2.039 0.811,-1.084 3.201,-3.268 2.39,-2.185 3.7,-2.913 1.309,-0.728 2.642,-1.078 1.333,-0.35 2.568,-0.346 1.234,0.005 1.91,0.193 0.676,0.188 1.675,0.719 0.998,0.531 1.724,1.073 0.727,0.542 1.71,1.274 0.984,0.733 2.123,1.317 0.085,-0.031 1.18,-1.229 1.096,-1.199 2.864,-3.509 1.768,-2.309 3.484,-4.074 1.717,-1.765 3.124,-2.683 1.407,-0.919 3.598,-1.41 2.19,-0.492 3.804,-0.228 1.614,0.263 3.035,1.08 1.421,0.818 3.029,2.518 1.608,1.7 2.742,3.388 1.134,1.689 2.516,6.158 0.612,-0.466 1.29,-1.035 0.678,-0.568 1.662,-1.417 0.984,-0.849 2.186,-1.814 1.202,-0.964 3.924,-2.512 2.722,-1.549 4.915,-1.999 2.194,-0.45 3.32,-0.274 1.126,0.176 3.415,1.688 2.289,1.511 3.442,2.981 1.153,1.469 1.683,3.067 0.529,1.599 0.501,3.276 -0.029,1.677 -0.368,3.11 -0.34,1.434 -0.81,2.767 -0.47,1.334 -0.842,2.233 -0.373,0.9 -0.509,1.392 -0.137,0.493 -0.131,0.67 0.005,0.177 0.108,0.501 0.058,0.348 1.61,0.613 1.552,0.265 2.775,0.38 1.224,0.116 2.668,0.488 1.445,0.372 2.897,1.509 1.451,1.137 2.542,2.587 1.091,1.45 2.159,3.529 1.068,2.078 2.36,5.706 1.293,3.628 1.558,5.483 0.266,1.856 0.033,3.325 -0.233,1.47 -1.241,2.683 -1.008,1.214 -8.52,4.982 0.104,0.256 0.497,0.917 0.393,0.661 0.733,1.245 0.339,0.584 0.561,1.033 0.222,0.448 0.309,0.665 0.087,0.216 0.34,0.998 0.252,0.782 0.581,5.446 0.329,4.664 -0.089,7.108 -0.418,2.445 -1.306,4.18 -0.888,1.735 -1.367,2.252 -0.478,0.517 -0.861,0.902 -0.383,0.384 -1.402,0.878 -1.019,0.495 -2.528,0.738 -1.509,0.244 -3.217,0.48 -1.708,0.237 -3.683,0.531 -0.27,0.189 -0.775,2.105 -0.506,1.915 -0.966,4.525 -0.46,2.609 -1.874,6.013 -1.415,3.403 -2.62,4.844 -1.206,1.441 -1.912,1.971 -0.706,0.53 -1.422,0.815 -0.716,0.285 -1.476,0.425 -0.759,0.14 -2.95,-0.006 -2.19,-0.146 -4.695,-1.118 -2.504,-0.972 -4.582,-2.088 -2.077,-1.115 -4.019,-2.165 l -0.239,0.11 q -0.74,0.77 -2.073,2.397 -1.334,1.626 -3.135,3.483 -1.802,1.857 -2.446,2.289 -0.643,0.433 -1.199,0.777 -0.555,0.344 -2.132,0.931 -1.576,0.587 -3.358,0.737 -1.781,0.151 -3.862,-0.369 -2.081,-0.52 -4.488,-1.817 -2.407,-1.297 -4.394,-2.714 -1.987,-1.416 -4.389,-3.176 -2.403,-1.76 -3.588,-2.344 -1.185,-0.584 -2.894,-1.199 -0.175,0.125 -2.002,1.838 -1.826,1.712 -3.461,3.454 -1.634,1.741 -2.994,2.736 -1.359,0.994 -3.139,1.288 -1.779,0.294 -3.874,-0.694 -2.095,-0.987 -3.656,-2.575 -1.561,-1.588 -2.366,-2.868 -0.806,-1.28 -1.68,-4.636 -0.875,-3.356 -0.966,-4.375 -0.092,-1.019 -0.243,-2.634 -0.152,-1.615 -0.163,-2.889 -0.012,-1.274 0.269,-3.61 l 0.337,-1.774 0.532,-3.045" /><path
     id="STROKE_c03a1f2a-bd0c-46a4-b9e9-8d99d3cb4e06"
     opacity="1"
     fill="none"
     stroke="#000000"
     stroke-width="5"
     stroke-opacity="1"
     stroke-linecap="round"
     stroke-linejoin="round"
     d="m 192.379,697.905 0.154,-0.413 0.028,-0.174 -0.109,-0.294 q -0.053,-0.809 0.395,-2.952 0.449,-2.143 1.329,-3.831 0.881,-1.689 1.826,-2.781 0.945,-1.093 1.35,-1.422 0.404,-0.33 2.063,-1.197 1.659,-0.867 4.394,-1.205 2.734,-0.338 4.244,-0.1 1.509,0.238 2.504,0.613 0.995,0.375 1.641,0.796 0.645,0.422 1.406,1.084 0.761,0.661 1.147,1.064 0.385,0.403 0.862,1.093 0.477,0.691 1.029,1.911 0.551,1.22 0.746,2.258 0.196,1.037 0.194,1.475 -0.001,0.438 -0.108,1.145 -0.107,0.706 -0.162,1.222 -0.054,0.516 -0.882,2.43 -0.828,1.914 -1.428,2.815 -0.6,0.902 -1.23,1.639 -0.63,0.737 -1.053,1.164 -0.423,0.427 -1.774,1.824 -1.35,1.398 -2.257,2.45 -0.907,1.053 -1.641,2.192 -0.735,1.139 -1.305,2.396 -0.571,1.257 -0.598,1.296 -0.027,0.04 -0.218,1.184 -0.19,1.144 -0.094,2.155 0.097,1.012 0.177,1.325 0.079,0.313 0.297,0.793 0.219,0.48 0.526,0.872 0.307,0.392 0.871,0.959 0.564,0.568 1.114,1.019 l 0.376,0.418" /><path
     id="STROKE_ceffbe8c-5b1f-400e-9ac8-3f456e4b41ca"
     opacity="1"
     fill="none"
     stroke="#000000"
     stroke-width="5"
     stroke-opacity="1"
     stroke-linecap="round"
     stroke-linejoin="round"
     d="m 213.44,738.348 q -0.362,-0.358 -0.651,-0.639 -0.464,-0.187 -0.968,-0.492 -0.505,-0.305 -0.967,-0.481 -0.461,-0.177 -1.078,-0.26 -0.617,-0.083 -1.468,0.052 -0.851,0.134 -1.162,0.346 -0.311,0.211 -0.448,0.392 -0.138,0.182 -0.246,0.425 -0.108,0.243 -0.177,1.431 -0.019,0.06 0.135,0.479 0.155,0.418 0.441,0.78 0.287,0.362 0.896,0.792 0.61,0.43 1.031,0.643 0.422,0.213 1.282,0.29 l 0.451,-0.034 0.547,-0.214 0.553,-0.446 0.368,-0.179 q 0.436,-0.525 1.516,-1.498" /></g></svg>
