<svg xmlns="http://www.w3.org/2000/svg" xml:space="preserve" viewBox="0 0 960 480">
    <g fill="none" stroke="#FFF" stroke-linecap="round" stroke-linejoin="round" stroke-width="6.667">
        <path d="m297.843 255.975 2.224-.352q.649-.194 11.968-.832 11.32-.637 19.642-.781t13.848-.336 8.44-.364q2.912-.17 8.246-.317 5.332-.147 10.398-.155t28.063.087q22.997.094 40.323.206t19.518.135 16.474.107 21.676.133q7.396.05 20.2.07 12.804.022 20.197 0 7.395-.023 21.524-.037t22.19.254q8.06.265 11.778.517 3.717.253 7.564.573 3.845.32 6.563.518 2.718.196 5.909.361 3.192.167 6.764.367t7 .501 5.115.43q1.688.127 4.96.309 3.276.181 6.588.489t5.15.447q1.838.138 3.799.214 1.96.078 2.856.135.895.056 3.095.324m-180.539-6.007q4.775-.962 5.992-1.134t4.71-.863q3.491-.693 6.875-1.915t5.063-2.257 3.173-2.436 2.423-2.863q.93-1.462 1.61-3.429.68-1.968.614-3.507-.065-1.538-.348-2.362t-.303-.942-.757-1.402q-.736-1.286-1.9-2.443-1.164-1.156-5.44-3.032t-9.08-2.71q-4.805-.833-7.803-1.126-2.997-.295-4.061-.395t-3.37-.204q-2.306-.102-4.76-.124-2.454-.02-3.438-.032t-4.865.194q-3.883.205-6.36.538-2.476.334-3.351.476-.875.143-2.443.499t-3.804 1.184q-2.236.83-3.481 1.501t-2.69 1.782q-1.443 1.109-1.983 1.725-.54.615-1.072 1.461-.535.847-.93 1.935-.396 1.088-.49 2.233-.091 1.146-.042 2.008.05.863.438 1.971.388 1.107.522 1.43.136.325 1.559 2.16t1.65 2.071q.225.236.871.756.647.522 2.118 1.399 1.47.879 2.78 1.437 1.312.56 2.864 1.086 1.55.525 3.268 1.021 1.716.496 3.228.83 1.512.335 2.709.586 1.196.25 2.44.465 1.244.214 1.713.308.47.095 2.722.387 2.252.29 11.316 1.292"/>
        <path d="M640.408 242.994q.132.043 1.899.695t4.178 1.824q2.414 1.17 4.432 2.248 2.019 1.076 3.314 1.893 1.296.817 2.84 2.032 1.548 1.215 2.378 2.117t1.423 1.974q.59 1.072.883 1.678.29.606.326.687t-.296.592q-.33.512-.35.767-1.226 1.278-1.268 1.308l-3.528 2.35q-3.486 2.323-12.262 7.162-.073.101-2.293.925M478.04 242.91l-.05.681q.178 2.484.23 2.899.053.413.35 11.65l-.165 1.89m-3.546-51.276q-.307.241-.648.897-.251.048-2.7 1.93-2.448 1.881-4.023 3.337-1.576 1.455-2.773 2.923-1.198 1.466-1.551 2.18-.355.714-.715 1.84.948 1.54 2.132 2.72t2.21 1.968q1.025.786 1.872 1.429 3.225 1.835 5.744 2.836l2.758 1.423"/>
    </g>
</svg>
