<?xml version="1.0" encoding="UTF-8" standalone="no"?>
<!-- Generator: Adobe Illustrator 26.1.0, SVG Export Plug-In . SVG Version: 6.00 Build 0)  -->

<svg
   version="1.1"
   id="Layer_1"
   x="0px"
   y="0px"
   viewBox="0 0 960 480"
   style="enable-background:new 0 0 960 480;"
   xml:space="preserve"
   sodipodi:docname="pt2-reintroduction.svg"
   inkscape:version="1.2.1 (9c6d41e410, 2022-07-14, custom)"
   xmlns:inkscape="http://www.inkscape.org/namespaces/inkscape"
   xmlns:sodipodi="http://sodipodi.sourceforge.net/DTD/sodipodi-0.dtd"
   xmlns="http://www.w3.org/2000/svg"
   xmlns:svg="http://www.w3.org/2000/svg"><defs
   id="defs1308" /><sodipodi:namedview
   id="namedview1306"
   pagecolor="#505050"
   bordercolor="#eeeeee"
   borderopacity="1"
   inkscape:showpageshadow="0"
   inkscape:pageopacity="0"
   inkscape:pagecheckerboard="0"
   inkscape:deskcolor="#505050"
   showgrid="false"
   inkscape:zoom="1.7614583"
   inkscape:cx="480.28386"
   inkscape:cy="241.56121"
   inkscape:window-width="1902"
   inkscape:window-height="2039"
   inkscape:window-x="1924"
   inkscape:window-y="8"
   inkscape:window-maximized="0"
   inkscape:current-layer="Layer_1" />
<g
   id="Reintroduction"
   opacity="1"
   transform="matrix(1.3333333,0,0,1.3333333,678.42385,-685.99531)"><path
     id="STROKE_6679109b-a7e8-4011-8e66-cc4bba960277"
     opacity="1"
     fill="none"
     stroke="#FFFFFF"
     stroke-width="5"
     stroke-opacity="1"
     stroke-linecap="round"
     stroke-linejoin="round"
     d="m -285.436,706.478 1.668,-0.264 q 0.487,-0.146 8.976,-0.624 8.49,-0.478 14.732,-0.586 6.241,-0.108 10.386,-0.252 4.145,-0.144 6.33,-0.273 2.184,-0.128 6.184,-0.238 3.999,-0.11 7.799,-0.116 3.799,-0.006 21.047,0.065 17.248,0.071 30.242,0.155 12.995,0.084 14.639,0.101 1.645,0.017 12.355,0.08 10.711,0.064 16.257,0.1 5.547,0.037 15.15,0.053 9.603,0.016 15.148,-10e-4 5.546,-0.017 16.143,-0.027 10.597,-0.01 16.642,0.19 6.045,0.199 8.834,0.388 2.788,0.19 5.673,0.43 2.884,0.24 4.922,0.388 2.039,0.147 4.432,0.271 2.394,0.125 5.073,0.275 2.679,0.15 5.25,0.376 2.571,0.226 3.836,0.322 1.266,0.096 3.721,0.232 2.456,0.136 4.94,0.367 2.484,0.231 3.863,0.335 1.378,0.104 2.849,0.161 1.47,0.058 2.142,0.101 0.671,0.042 2.321,0.243" /><path
     id="STROKE_436e0f6f-939f-42f7-b966-9e52ba2448ee"
     opacity="1"
     fill="none"
     stroke="#FFFFFF"
     stroke-width="5"
     stroke-opacity="1"
     stroke-linecap="round"
     stroke-linejoin="round"
     d="m -149.286,704.225 q 3.581,-0.722 4.494,-0.851 0.913,-0.128 3.532,-0.647 2.619,-0.52 5.157,-1.436 2.538,-0.916 3.797,-1.693 1.259,-0.777 2.38,-1.827 1.12,-1.05 1.817,-2.147 0.698,-1.097 1.207,-2.572 0.51,-1.476 0.461,-2.63 -0.049,-1.154 -0.261,-1.772 -0.212,-0.618 -0.227,-0.706 -0.015,-0.087 -0.568,-1.052 -0.552,-0.964 -1.425,-1.832 -0.873,-0.867 -4.08,-2.274 -3.207,-1.407 -6.81,-2.032 -3.604,-0.625 -5.852,-0.845 -2.248,-0.221 -3.046,-0.296 -0.799,-0.075 -2.528,-0.153 -1.729,-0.077 -3.57,-0.093 -1.84,-0.015 -2.578,-0.024 -0.738,-0.009 -3.649,0.145 -2.912,0.154 -4.769,0.404 -1.858,0.25 -2.514,0.357 -0.656,0.107 -1.832,0.374 -1.176,0.267 -2.853,0.888 -1.677,0.622 -2.611,1.126 -0.933,0.503 -2.017,1.336 -1.083,0.832 -1.488,1.294 -0.404,0.461 -0.804,1.096 -0.401,0.635 -0.697,1.451 -0.297,0.816 -0.367,1.675 -0.069,0.859 -0.032,1.506 0.037,0.647 0.328,1.478 0.291,0.83 0.392,1.073 0.102,0.243 1.169,1.62 1.067,1.376 1.237,1.553 0.169,0.177 0.654,0.567 0.485,0.391 1.588,1.049 1.103,0.659 2.086,1.078 0.983,0.42 2.147,0.814 1.163,0.394 2.451,0.766 1.287,0.372 2.421,0.623 1.134,0.251 2.032,0.439 0.897,0.188 1.83,0.349 0.933,0.16 1.285,0.231 0.352,0.071 2.041,0.29 1.689,0.218 8.487,0.969" /><path
     id="STROKE_683505bc-8f2c-4f82-b74a-ed0494f88071"
     opacity="1"
     fill="none"
     stroke="#FFFFFF"
     stroke-width="5"
     stroke-opacity="1"
     stroke-linecap="round"
     stroke-linejoin="round"
     d="m -28.512,696.742 q 0.099,0.032 1.424,0.521 1.325,0.489 3.134,1.368 1.81,0.878 3.324,1.686 1.514,0.807 2.485,1.42 0.972,0.613 2.131,1.524 1.16,0.911 1.783,1.588 0.623,0.676 1.067,1.48 0.443,0.804 0.662,1.259 0.218,0.454 0.245,0.515 0.027,0.061 -0.222,0.444 -0.248,0.384 -0.263,0.575 -0.919,0.959 -0.951,0.981 -0.032,0.022 -2.646,1.763 -2.614,1.742 -9.196,5.371 -0.055,0.076 -1.72,0.694" /><path
     id="STROKE_7b4f7703-2263-4d9b-a6e3-67421c320c10"
     opacity="1"
     fill="none"
     stroke="#FFFFFF"
     stroke-width="5"
     stroke-opacity="1"
     stroke-linecap="round"
     stroke-linejoin="round"
     d="m -150.288,696.679 -0.037,0.511 q 0.133,1.863 0.172,2.174 0.04,0.31 0.263,8.737 l -0.124,1.418" /><path
     id="STROKE_3e4e189a-d869-43d7-8a6e-9bec59fa6fd2"
     opacity="1"
     fill="none"
     stroke="#FFFFFF"
     stroke-width="5"
     stroke-opacity="1"
     stroke-linecap="round"
     stroke-linejoin="round"
     d="m -152.674,671.062 q -0.23,0.181 -0.486,0.673 -0.188,0.036 -2.025,1.447 -1.836,1.411 -3.017,2.503 -1.182,1.091 -2.08,2.192 -0.898,1.1 -1.163,1.635 -0.266,0.536 -0.536,1.38 0.711,1.155 1.599,2.04 0.888,0.885 1.657,1.476 0.769,0.59 1.404,1.072 2.419,1.376 4.308,2.127 l 2.069,1.067" /></g></svg>
