<?xml version="1.0" encoding="UTF-8" standalone="no"?>
<!-- Generator: Adobe Illustrator 26.1.0, SVG Export Plug-In . SVG Version: 6.00 Build 0)  -->

<svg
   version="1.1"
   id="Layer_1"
   x="0px"
   y="0px"
   viewBox="0 0 960 480"
   style="enable-background:new 0 0 960 480;"
   xml:space="preserve"
   sodipodi:docname="pt2-steamroller.svg"
   inkscape:version="1.2.1 (9c6d41e410, 2022-07-14, custom)"
   xmlns:inkscape="http://www.inkscape.org/namespaces/inkscape"
   xmlns:sodipodi="http://sodipodi.sourceforge.net/DTD/sodipodi-0.dtd"
   xmlns="http://www.w3.org/2000/svg"
   xmlns:svg="http://www.w3.org/2000/svg"><defs
   id="defs8218" /><sodipodi:namedview
   id="namedview8216"
   pagecolor="#505050"
   bordercolor="#eeeeee"
   borderopacity="1"
   inkscape:showpageshadow="0"
   inkscape:pageopacity="0"
   inkscape:pagecheckerboard="0"
   inkscape:deskcolor="#505050"
   showgrid="false"
   inkscape:zoom="0.49166667"
   inkscape:cx="478.98305"
   inkscape:cy="243.05085"
   inkscape:window-width="2560"
   inkscape:window-height="1381"
   inkscape:window-x="0"
   inkscape:window-y="0"
   inkscape:window-maximized="1"
   inkscape:current-layer="Layer_1" />
<g
   id="Steamroller"
   opacity="1"
   transform="matrix(1.0187299,0,0,1.0187299,-502.38365,-878.18344)"><path
     id="STROKE_b71aeaaf-2628-4e24-9445-e8666c7fd36b"
     opacity="1"
     fill="none"
     stroke="#FFFFFF"
     stroke-width="5"
     stroke-opacity="1"
     stroke-linecap="round"
     stroke-linejoin="round"
     d="m 732.94,1135.272 q -0.487,-0.727 -0.684,-0.978 -0.196,-0.25 -0.804,-0.827 -0.608,-0.576 -0.73,-0.714 -0.123,-0.138 -3.189,-2.415 -3.066,-2.277 -5.603,-3.588 -2.538,-1.31 -5.569,-2.37 -3.031,-1.06 -5.897,-1.802 -2.866,-0.741 -7.448,-1.675 -4.583,-0.933 -8.61,-1.366 -4.027,-0.433 -8.974,-0.306 -4.947,0.127 -10.083,1.054 -5.135,0.928 -8.74,1.888 -3.604,0.96 -6.16,1.787 -2.557,0.827 -6.136,2.213 -3.579,1.387 -8.371,3.766 -4.793,2.378 -10.676,6.695 -5.884,4.316 -8.819,6.995 -2.935,2.678 -4.487,4.229 -1.551,1.55 -5.071,5.613 -3.52,4.064 -7.534,10.011 -4.015,5.946 -5.951,9.382 -1.936,3.436 -2.67,4.84 -0.734,1.405 -3.094,6.888 -2.361,5.483 -3.914,11.416 -1.553,5.934 -2.01,11.812 -0.457,5.878 -0.335,9.192 0.122,3.314 1.007,8.314 0.885,5 1.997,8.271 1.112,3.271 1.782,4.749 0.67,1.478 2.686,5.118 2.016,3.639 5.111,8.019 3.096,4.381 4.927,6.535 1.832,2.155 4.008,4.324 2.176,2.168 5.912,5.084 3.736,2.915 7.377,5.04 3.641,2.125 5.836,3.172 2.195,1.047 5.67,2.653 3.475,1.607 6.62,2.88 3.145,1.274 5.885,2.031 2.74,0.756 6.2,1.235 3.459,0.478 8.245,0.831 4.786,0.354 10.687,0.964 5.9,0.611 11.359,0.924 5.46,0.313 11.099,-0.078 5.64,-0.391 10.992,-1.304 5.351,-0.912 9.129,-2.02 3.777,-1.107 5.766,-1.942 1.989,-0.834 5.275,-2.798 3.286,-1.964 5.465,-3.725 2.179,-1.76 4.218,-3.773 2.039,-2.013 3.949,-4.166 1.909,-2.153 5.763,-7.361 3.854,-5.208 6.293,-9.139 2.439,-3.93 3.574,-6.082 1.136,-2.152 2.241,-4.491 1.105,-2.339 2.383,-5.879 1.277,-3.54 2.255,-7.579 0.977,-4.04 1.305,-7.231 0.329,-3.19 0.387,-5.272 0.059,-2.082 -0.028,-5.929 -0.086,-3.846 -0.699,-7.776 -0.614,-3.931 -1.561,-7.626 -0.947,-3.695 -1.951,-7.501 -1.003,-3.807 -1.751,-6.24 -0.749,-2.433 -1.652,-5.169 -0.903,-2.736 -1.563,-4.59 -0.66,-1.853 -1.391,-3.529 -0.732,-1.676 -1.523,-3.271 -0.79,-1.596 -1.442,-2.82 -0.651,-1.225 -1.448,-2.541 -0.796,-1.315 -2.035,-3.087 -1.24,-1.773 -2.36,-3.243 -1.12,-1.471 -2.312,-2.832 -1.192,-1.361 -2.509,-2.827 -1.317,-1.465 -3.213,-3.228 -1.896,-1.763 -6.807,-6.644" /><path
     id="STROKE_a9b05bb8-75cd-454c-a9ff-19ea898af6fa"
     opacity="1"
     fill="none"
     stroke="#FFFFFF"
     stroke-width="5"
     stroke-opacity="1"
     stroke-linecap="round"
     stroke-linejoin="round"
     d="m 1013.329,1163.134 q -0.463,-0.133 -4.761,-0.467 -4.297,-0.334 -7.516,-0.311 -3.219,0.023 -4.915,0.162 -1.697,0.139 -4.623,0.753 -2.927,0.613 -7.494,2.317 -4.568,1.705 -7.99,3.563 -3.421,1.858 -5.312,3.14 -1.891,1.281 -4.998,3.82 -3.106,2.539 -7.255,6.877 -4.149,4.337 -6.675,7.708 -2.525,3.371 -3.548,5.051 -1.023,1.68 -1.685,2.929 -0.663,1.25 -1.566,3.263 -0.903,2.014 -2.433,8.037 -1.531,6.023 -2.29,10.739 -0.759,4.717 -0.982,6.819 -0.222,2.103 -0.288,3.34 -0.066,1.237 -0.076,2.912 -0.01,1.675 0.041,2.696 0.051,1.021 0.097,2.243 0.046,1.222 0.942,5.202 0.896,3.979 1.579,5.914 0.684,1.935 1.443,3.641 0.759,1.705 2.286,4.283 1.527,2.577 2.112,3.479 0.586,0.902 1.235,1.895 0.65,0.993 1.44,2.063 0.791,1.069 3.019,3.589 2.228,2.52 2.804,3.123 0.577,0.603 2.186,2.052 1.61,1.449 4.074,3.31 2.464,1.862 4.974,3.464 2.51,1.603 4.481,2.512 1.971,0.909 3.361,1.347 1.391,0.438 6.195,1.432 4.805,0.993 9.897,1.781 5.092,0.788 8.524,1.014 3.432,0.227 5.798,0.228 2.367,0 5.102,-0.205 2.734,-0.206 9.176,-1.177 6.443,-0.972 10.831,-1.95 4.387,-0.977 8.465,-2.52 4.077,-1.542 10.548,-6.028 6.47,-4.487 9.497,-7.225 3.027,-2.738 5.599,-5.478 2.573,-2.74 4.368,-5.153 1.794,-2.413 3.094,-4.563 1.299,-2.151 3.266,-6.646 1.967,-4.496 2.957,-9.15 0.99,-4.654 1.056,-9.637 0.066,-4.982 -0.176,-7.344 -0.242,-2.362 -0.796,-4.709 -0.553,-2.347 -1.719,-4.951 -1.167,-2.605 -3.197,-6.294 -2.031,-3.69 -3.451,-5.832 -1.42,-2.142 -2.158,-3.139 -0.738,-0.997 -1.958,-2.608 -1.219,-1.611 -1.235,-1.651 -0.017,-0.04 -1.114,-1.349 -1.097,-1.309 -2.081,-2.344 -0.985,-1.034 -2.578,-2.498 -1.594,-1.464 -3.568,-3.158 -1.974,-1.694 -2.689,-2.283 -0.715,-0.589 -2.357,-1.687 -1.641,-1.098 -3.665,-2.316 -2.024,-1.219 -3.831,-2.338 -1.806,-1.119 -5.406,-2.95 -3.6,-1.832 -5.904,-2.79 -2.304,-0.959 -4.223,-1.638 -1.919,-0.678 -3.585,-1.224 -1.665,-0.545 -3.141,-1.008 -1.475,-0.464 -2.485,-0.807 -1.01,-0.344 -5.051,-2.186" /><path
     id="STROKE_ad93e600-365b-498a-bde4-1daf313d3ce9"
     opacity="1"
     fill="none"
     stroke="#FFFFFF"
     stroke-width="5"
     stroke-opacity="1"
     stroke-linecap="round"
     stroke-linejoin="round"
     d="m 782.091,1213.28 q 0.861,-0.239 3.776,-0.675 2.914,-0.436 6.09,-0.733 3.176,-0.297 4.913,-0.456 1.736,-0.159 4.262,-0.267 2.526,-0.108 6.21,-0.212 3.684,-0.104 8.426,-0.183 4.742,-0.079 6.098,-0.145 1.356,-0.065 5.093,-0.135 3.738,-0.07 6.182,-0.093 2.445,-0.023 6.047,-0.087 3.601,-0.065 6.196,-0.121 2.594,-0.056 7.317,-0.334 4.723,-0.277 7.023,-0.354 2.301,-0.076 7.48,-0.319 5.179,-0.244 8.108,-0.394 2.928,-0.15 5.008,-0.348 2.081,-0.198 6.811,-0.37 4.73,-0.172 9.966,-0.259 5.237,-0.086 10.681,-0.131 5.444,-0.045 6.892,-0.083 1.447,-0.037 6.59,-0.145 5.143,-0.108 5.402,-0.105 0.26,0 4.551,-0.274" /><path
     id="STROKE_b507208a-7027-4bc9-8f39-babcfb9adf83"
     opacity="1"
     fill="none"
     stroke="#FFFFFF"
     stroke-width="5"
     stroke-opacity="1"
     stroke-linecap="round"
     stroke-linejoin="round"
     d="m 931.013,1207.515 q 0.743,-1.387 0.787,-1.548 0.044,-0.162 0.241,-0.747 0.198,-0.585 0.466,-1.48 0.269,-0.896 0.727,-2.12 0.459,-1.225 1.555,-4.224 1.096,-3 2.029,-5.34 0.934,-2.341 1.552,-3.666 0.619,-1.326 1.171,-2.377 0.552,-1.052 1.136,-2.192 0.584,-1.139 1.359,-2.583 0.775,-1.443 1.668,-2.939 0.894,-1.497 1.09,-1.839 0.197,-0.343 1.659,-2.526 1.463,-2.183 3.668,-4.901 2.204,-2.718 2.824,-3.433 0.621,-0.715 2.359,-2.406 1.738,-1.691 2.478,-2.331 0.741,-0.64 4.075,-3.136 3.334,-2.497 7.539,-4.932 4.204,-2.434 6.503,-3.472 2.298,-1.038 3.76,-1.627 1.463,-0.589 2.498,-0.946 1.035,-0.357 1.745,-0.56 0.711,-0.203 2.943,-0.835 2.231,-0.633 4.074,-0.996 1.843,-0.364 2.418,-0.425 0.575,-0.061 1.946,-0.266 1.371,-0.205 2.545,-0.366 1.174,-0.16 2.952,-0.29 1.778,-0.129 3.201,-0.168 1.423,-0.038 1.715,-0.054 0.292,-0.016 2.268,0.024 1.975,0.04 5.089,0.343 3.114,0.303 3.645,0.4 0.531,0.098 2.905,0.594 2.375,0.496 4.812,1.158 2.436,0.662 4.036,1.155 1.601,0.494 2.592,0.841 0.992,0.347 3.415,1.359 2.423,1.013 4.633,2.14 2.21,1.127 5.899,3.295 3.69,2.169 4.95,2.966 1.261,0.797 2.184,1.403 0.923,0.605 4.251,2.697 3.329,2.091 5.403,3.478 2.074,1.386 5.368,3.799 3.294,2.413 4.985,3.863 1.691,1.449 3.574,3.277 1.882,1.828 3.215,3.36 1.333,1.533 2.678,3.306 1.344,1.774 1.482,1.974 0.139,0.201 1.3,1.85 1.161,1.649 1.916,2.754 0.755,1.105 1.276,1.978 0.521,0.873 1.549,2.624 1.029,1.752 1.664,2.967 0.635,1.215 0.708,1.382 0.074,0.167 0.569,1.135 0.496,0.968 1.226,2.67 0.729,1.702 1.245,3.076 0.516,1.375 1.608,3.482 l 0.811,2.086" /><path
     id="STROKE_ccb594d2-6de4-4943-a920-3fd9de1bc4a3"
     opacity="1"
     fill="none"
     stroke="#FFFFFF"
     stroke-width="5"
     stroke-opacity="1"
     stroke-linecap="round"
     stroke-linejoin="round"
     d="m 780.961,1213.802 q 0.049,-0.214 0.252,-0.719 0.204,-0.505 0.36,-1.805 0.156,-1.3 0.229,-2.837 0.073,-1.537 0.021,-4.041 -0.052,-2.503 -0.375,-4.175 -0.323,-1.672 -0.647,-3.213 -0.323,-1.541 -0.631,-3.009 -0.308,-1.468 -0.456,-2.336 -0.148,-0.867 -0.385,-1.762 -0.237,-0.895 -0.37,-1.519 -0.133,-0.624 -0.443,-1.818 -0.31,-1.195 -0.929,-4.252 -0.619,-3.058 -1.272,-6.166 -0.653,-3.108 -0.971,-4.572 -0.318,-1.465 -0.56,-2.372 -0.243,-0.906 -0.471,-1.878 -0.228,-0.972 -0.805,-3.088 -0.578,-2.115 -1.209,-4.041 -0.631,-1.926 -1.031,-2.946 -0.401,-1.021 -1.347,-3.316 -0.946,-2.295 -2.199,-4.945 -1.253,-2.65 -1.721,-3.537 -0.468,-0.886 -1.165,-2.193 -0.697,-1.308 -1.389,-2.464 -0.691,-1.157 -1.445,-2.367 -0.754,-1.21 -1.506,-2.259 -0.752,-1.049 -1.595,-2.197 -0.842,-1.148 -1.501,-1.946 -0.658,-0.798 -0.937,-1.144 -0.279,-0.345 -1.499,-1.689 -1.22,-1.344 -1.857,-1.96 -0.636,-0.616 -2.954,-2.502 -2.318,-1.886 -3.059,-2.39 -0.74,-0.504 -2.208,-1.485 -1.468,-0.98 -2.134,-1.42 -0.666,-0.44 -4.365,-2.508 -3.698,-2.069 -4.584,-2.52 -0.886,-0.452 -3.276,-1.37 -2.391,-0.919 -5.028,-1.759 -2.638,-0.84 -3.684,-1.119 -1.046,-0.279 -1.857,-0.531 -0.811,-0.252 -6.505,-1.405 -5.693,-1.153 -12.836,-1.81 -7.142,-0.657 -10.175,-0.703 -3.034,-0.046 -4.233,-10e-4 -1.199,0.044 -2.187,0.072 -0.988,0.028 -7.675,0.778 -6.687,0.75 -10.454,1.468 -3.767,0.718 -5.075,1.03 -1.309,0.313 -3.097,0.764 -1.787,0.452 -4.84,1.475 -3.053,1.023 -5.39,1.999 -2.336,0.975 -4.182,1.857 -1.845,0.883 -4.646,2.382 -2.801,1.499 -4.277,2.326 -1.477,0.826 -2.489,1.456 -1.012,0.63 -3.501,2.348 -2.489,1.718 -5.094,3.794 -2.605,2.075 -5.48,4.731 -2.876,2.656 -4.297,4.171 -1.42,1.515 -3.271,3.788 -1.851,2.273 -3.035,3.796 -1.184,1.523 -1.352,1.74 -0.169,0.215 -1.506,2.107 -1.338,1.891 -2.852,4.245 -1.514,2.354 -2.3,3.631 -0.786,1.277 -2.149,3.737 -1.362,2.46 -2.81,5.252 -1.447,2.793 -3.162,6.556 -1.715,3.763 -4.063,9.765 -2.348,6.001 -3.518,9.547 -1.171,3.546 -1.821,5.841 -0.649,2.296 -1.142,4.378 -0.492,2.083 -1.214,5.99 -0.722,3.907 -1.057,6.518 -0.334,2.611 -0.504,4.471 -0.17,1.86 -0.208,2.367 -0.039,0.506 -0.47,4.959" /><path
     id="STROKE_a2975137-1a7a-4c2d-8f44-0659a0389d54"
     opacity="1"
     fill="none"
     stroke="#FFFFFF"
     stroke-width="5"
     stroke-opacity="1"
     stroke-linecap="round"
     stroke-linejoin="round"
     d="m 575.433,1227.049 -1.081,-0.188 -0.797,0.126 q -0.321,0.101 -0.957,0.21 -0.637,0.109 -0.893,0.111 -0.257,0 -3.027,0.125 -2.771,0.122 -4.132,0.196 -1.362,0.073 -2.71,0.109 -1.347,0.036 -1.748,0.073 -0.401,0.036 -0.884,0.104 -0.482,0.069 -2.524,0.159 -2.042,0.09 -2.91,0.095" /><path
     id="STROKE_3f175d47-4e01-4110-b984-4d42aa5e940a"
     opacity="1"
     fill="none"
     stroke="#FFFFFF"
     stroke-width="5"
     stroke-opacity="1"
     stroke-linecap="round"
     stroke-linejoin="round"
     d="m 550.327,1230.027 q 0.057,-0.466 -0.096,-4.133 -0.154,-3.667 -0.549,-7.572 -0.395,-3.905 -0.732,-6.684 -0.338,-2.779 -0.777,-5.774 -0.439,-2.996 -0.58,-4.093 -0.142,-1.098 -0.494,-4.317 -0.352,-3.22 -0.672,-6.248 -0.321,-3.028 -0.572,-5.61 -0.252,-2.582 -0.311,-3.127 -0.058,-0.546 -0.57,-5.003 -0.512,-4.457 -0.744,-7.391 -0.232,-2.934 -0.273,-4.53 -0.042,-1.596 -0.059,-4.279 -0.018,-2.683 -0.011,-3.985 0.006,-1.302 0.318,-6.876 0.311,-5.575 0.404,-8.169 0.093,-2.594 0.116,-4.441 0.023,-1.848 -0.03,-5.925 -0.053,-4.077 -0.206,-6.313 -0.153,-2.237 -0.318,-4.126 -0.164,-1.89 -0.334,-4.528 -0.17,-2.639 -0.355,-4.872 -0.184,-2.232 -0.541,-7.902 -0.357,-5.669 -0.53,-8.414 -0.174,-2.745 -0.289,-3.918 -0.116,-1.172 -0.189,-2.427 -0.073,-1.255 -0.333,-3.794" /><path
     id="STROKE_7cd5bf3e-3dd2-4b90-b8c2-f0ceae11ad64"
     opacity="1"
     fill="none"
     stroke="#FFFFFF"
     stroke-width="5"
     stroke-opacity="1"
     stroke-linecap="round"
     stroke-linejoin="round"
     d="m 541.983,1084.52 0.806,-0.337 1.079,-0.317 0.93,-0.201 q 2.032,-0.514 4.62,-1.095 2.587,-0.58 6.896,-0.59 4.309,-0.01 7.984,0.228 3.676,0.237 7.032,0.321 3.357,0.084 8.391,-0.331 5.034,-0.414 8.758,-0.763 3.725,-0.348 8.752,-0.629 5.027,-0.28 7.516,-0.426 2.49,-0.146 3.426,-0.23 0.937,-0.083 3.478,-0.214 2.541,-0.131 8.763,-0.675 6.223,-0.544 9.459,-0.796 3.237,-0.251 4.341,-0.317 1.105,-0.066 3.335,-0.214 2.23,-0.149 3.976,-0.265 1.746,-0.116 12.282,-0.689 10.535,-0.572 16.129,-0.839 5.593,-0.267 8.44,-0.294 2.848,-0.028 5.942,-0.035 3.094,-0.01 8.138,0.081 5.044,0.088 13.849,0.1 8.805,0.013 13.594,-0.029 4.79,-0.041 16.194,-0.183 11.404,-0.142 18.208,-0.261 6.804,-0.12 9.796,-0.22 2.992,-0.101 12.792,-0.31 9.8,-0.21 15.293,-0.321 5.494,-0.112 8.442,-0.126 2.948,-0.015 10.295,-0.127 7.346,-0.112 9.495,-0.177 2.15,-0.066 9.541,-0.372 7.392,-0.306 11.94,-0.408 4.548,-0.103 6.95,-0.156 2.402,-0.053 7.593,-0.168 5.192,-0.115 8.333,-0.264 3.141,-0.149 7.282,-0.286 4.142,-0.138 8.131,-0.23 3.989,-0.091 6.383,-0.164 2.393,-0.072 3.348,-0.134 0.955,-0.061 4.545,-0.15 3.589,-0.088 8.882,-0.219 5.292,-0.13 7.988,-0.196 2.696,-0.065 4.948,-0.148 2.252,-0.082 10.239,-0.311 7.986,-0.228 15.849,-0.27 7.863,-0.041 11.702,-0.053 3.839,-0.012 6.343,-0.01 2.504,0 4.16,0 1.656,0 5.047,0 3.391,10e-4 7.593,-0.015 4.201,-0.016 8.087,-0.116 3.887,-0.1 5.195,-0.116 1.309,-0.016 8.754,-0.218 7.444,-0.202 11.841,-0.253 4.396,-0.051 10.095,-0.08 5.698,-0.029 8.948,-0.065 3.249,-0.035 10.649,-0.115 7.399,-0.081 11.15,-0.105 3.751,-0.025 8.554,0.028 4.803,0.053 8.693,0.05 3.89,0 5.641,0 1.752,10e-4 5.048,-0.045 3.296,-0.045 5.493,-0.083 2.196,-0.037 4.747,-0.043 2.55,-0.01 5.59,0 3.039,0.01 10.547,0.166 7.507,0.16 16.609,0.544 l 2.248,0.32" /><path
     id="STROKE_f24996b8-2f50-4923-963e-22c844e6bb64"
     opacity="1"
     fill="none"
     stroke="#FFFFFF"
     stroke-width="5"
     stroke-opacity="1"
     stroke-linecap="round"
     stroke-linejoin="round"
     d="m 1125.555,1071.349 q 0.106,0.645 0.212,4.208 0.105,3.563 0.228,5.897 0.124,2.335 0.235,3.908 0.112,1.573 0.267,4.745 0.155,3.172 0.339,8.808 0.184,5.636 0.176,8.174 -0.01,2.538 -0.18,6.424 -0.172,3.887 -0.441,10.83 -0.268,6.942 -0.393,11.587 -0.125,4.645 -0.257,7.429 -0.132,2.785 -0.232,14.082 -0.1,11.298 -0.034,14.196 0.066,2.898 0.259,6.928 0.192,4.03 0.42,6.984 0.228,2.954 0.483,5.283 0.255,2.33 0.558,5.073 0.303,2.743 0.422,3.657 0.118,0.914 0.281,2.047 0.163,1.133 0.555,4.532 l 0.017,0.776" /><path
     id="STROKE_6c585a09-b699-48d8-b275-dc11e596cead"
     opacity="1"
     fill="none"
     stroke="#FFFFFF"
     stroke-width="5"
     stroke-opacity="1"
     stroke-linecap="round"
     stroke-linejoin="round"
     d="m 1096.624,1213.471 0.598,0.085 q 0.138,-0.018 1.4,-0.199 1.262,-0.181 3.153,-0.247 1.891,-0.066 3.703,-0.116 1.811,-0.05 7.089,-0.176 5.278,-0.127 6.199,-0.149 0.92,-0.022 1.516,-0.03 0.597,-0.01 3.116,-0.293 0.633,-0.139 1.322,-0.389 0.688,-0.25 1.639,-0.714 l 1.528,-0.623" /><path
     id="STROKE_9bed9fdb-b0c9-4846-ab5a-4cb1992e706c"
     opacity="1"
     fill="none"
     stroke="#FFFFFF"
     stroke-width="5"
     stroke-opacity="1"
     stroke-linecap="round"
     stroke-linejoin="round"
     d="m 635.013,1152.449 q -0.133,0.088 -1.166,0.797 -1.032,0.71 -2.304,1.758 -1.272,1.049 -2.86,2.405 -1.587,1.357 -1.982,1.705 -0.396,0.348 -2.323,2.336 -1.927,1.988 -2.487,2.586 -0.56,0.597 -0.637,0.664 -0.077,0.066 -1.14,1.388 -1.062,1.322 -2.322,2.945 -1.26,1.623 -1.922,2.451 -0.662,0.828 -2.155,3.036 -1.493,2.207 -2.048,3.131 -0.555,0.924 -0.594,1.01 -0.039,0.086 -0.765,1.38 -0.727,1.295 -1.347,2.403 -0.62,1.108 -0.933,1.66 -0.314,0.553 -0.942,1.825 -0.628,1.271 -1.082,2.348 -0.455,1.077 -1.094,2.87 -0.639,1.793 -1.263,4.853 -0.625,3.059 -0.835,4.576 -0.21,1.517 -0.319,2.947 -0.11,1.43 -0.183,2.955 -0.074,1.524 0.164,7.106 0.238,5.582 0.402,6.496 0.164,0.914 0.568,2.833 0.404,1.92 0.654,2.904 0.25,0.984 1.007,3.039 0.757,2.054 1.178,2.979 0.421,0.925 1.868,3.403 1.448,2.478 2.355,3.667 0.907,1.189 1.655,2.152 0.748,0.962 1.574,1.9 0.826,0.939 1.634,1.898 0.808,0.96 0.934,1.098 0.127,0.138 1.116,1.077 0.989,0.939 1.737,1.732 0.748,0.793 1.155,1.238 0.407,0.445 1.265,1.235 0.858,0.791 1.949,1.664 1.09,0.873 1.204,0.994 0.114,0.121 2.704,1.611 2.591,1.489 3.046,1.742 0.454,0.253 3.51,2.085 3.055,1.832 4.743,2.728 1.687,0.897 2.98,1.588 1.294,0.691 2.668,1.326 1.373,0.634 1.859,0.879 0.485,0.244 1.248,0.557 0.764,0.313 2.533,0.868 1.77,0.555 3.256,1.022 1.486,0.467 3.045,0.87 1.558,0.403 2.736,0.715 1.177,0.312 2.664,0.697 1.487,0.385 2.898,0.655 1.411,0.27 2.56,0.517 1.148,0.247 2.26,0.506 1.112,0.259 1.354,0.315 0.241,0.057 2.111,0.367 1.869,0.311 3.363,0.523 1.494,0.213 2.537,0.37 1.044,0.157 2.479,0.323 1.435,0.167 2.11,0.253 0.675,0.086 1.486,0.211 0.811,0.125 2.173,0.244 1.362,0.119 4.163,0.183 2.802,0.064 3.44,0.066 0.638,0 2.164,-0.067 1.526,-0.07 2.597,-0.185 1.071,-0.116 2.043,-0.211 0.973,-0.096 1.567,-0.156 0.593,-0.06 1.756,-0.238 1.162,-0.178 2.175,-0.385 1.013,-0.207 1.913,-0.388 0.9,-0.18 3.032,-0.869 2.131,-0.689 3.785,-1.406 1.653,-0.717 2.555,-1.187 0.901,-0.47 3.701,-2.332 2.8,-1.862 3.692,-2.573 0.893,-0.711 1.887,-1.583 0.994,-0.871 2.763,-2.455 1.769,-1.584 3.348,-3.215 1.579,-1.631 2.347,-2.535 0.767,-0.904 2.459,-3.209 1.691,-2.305 2.633,-3.808 0.941,-1.504 2.305,-4.103 1.363,-2.599 3.24,-7.337 1.876,-4.739 2.328,-6.108 0.452,-1.37 0.552,-1.682 0.1,-0.312 0.848,-3.268 0.749,-2.957 1.064,-4.809 0.316,-1.853 0.56,-5.06 0.245,-3.208 0.254,-5.859 0.009,-2.65 -0.009,-3.347 -0.019,-0.697 -0.144,-2.475 -0.125,-1.778 -0.323,-3.409 -0.198,-1.632 -0.586,-3.84 -0.388,-2.208 -0.993,-4.572 -0.605,-2.363 -0.981,-3.658 -0.375,-1.294 -0.831,-2.626 -0.457,-1.331 -1.023,-2.837 -0.567,-1.505 -1.226,-3.296 -0.659,-1.791 -1.529,-3.78 -0.87,-1.988 -1.929,-4.27 -1.06,-2.281 -1.635,-3.345 -0.576,-1.063 -1.612,-2.899 -1.037,-1.836 -3.555,-5.439 -2.518,-3.602 -4.067,-5.534 -1.548,-1.933 -2.264,-2.723 -0.716,-0.79 -2.096,-2.066 -1.38,-1.276 -2.459,-2.141 -1.079,-0.865 -2.072,-1.623 -0.994,-0.759 -4.084,-2.721 -3.09,-1.962 -4.549,-2.753 -1.459,-0.791 -2.269,-1.183 -0.81,-0.392 -2.295,-0.944 -1.485,-0.552 -2.333,-0.847 -0.848,-0.295 -1.095,-0.39 -0.246,-0.095 -3.344,-0.997 -3.097,-0.902 -5.491,-1.289 -2.395,-0.387 -7.444,-0.634 -5.048,-0.246 -8.533,0.092 -3.484,0.337 -5.733,0.67 -2.25,0.333 -6.335,1.289 -4.085,0.956 -5.753,1.438 -1.668,0.482 -3.508,1.13 -1.839,0.648 -3.903,1.454 -2.064,0.805 -3.642,1.537 -1.577,0.732 -3.675,1.872 -2.099,1.141 -2.284,1.228 -0.185,0.086 -1.59,0.939 -1.404,0.853 -3.247,2.089 -1.843,1.237 -3.389,2.307 -1.546,1.07 -4.109,2.821" /><path
     id="STROKE_2f596039-04f6-461c-aa33-6619669118c1"
     opacity="1"
     fill="none"
     stroke="#FFFFFF"
     stroke-width="5"
     stroke-opacity="1"
     stroke-linecap="round"
     stroke-linejoin="round"
     d="m 682.018,1204.027 q -0.428,-0.066 -1.343,-0.554 -0.915,-0.489 -2.714,-0.829 -1.799,-0.34 -2.954,-0.285 -1.155,0.055 -2.267,0.349 -1.111,0.295 -2.002,0.829 -0.892,0.534 -1.345,0.883 -0.454,0.349 -1.093,1.209 -0.639,0.859 -1.067,1.885 -0.428,1.026 -0.546,2.289 -0.117,1.262 0.077,2.142 0.195,0.879 0.539,1.524 0.344,0.644 0.677,1.061 0.334,0.417 1.026,0.938 0.692,0.52 1.381,0.786 0.69,0.267 1.467,0.387 0.778,0.121 1.86,0.082 1.083,-0.04 1.979,-0.343 0.897,-0.304 2.417,-1.401 1.52,-1.098 1.834,-1.468 0.313,-0.37 0.483,-0.629 0.171,-0.26 0.576,-1.237 0.405,-0.978 0.501,-2.033 0.097,-1.054 0.057,-1.581 -0.04,-0.528 -0.111,-0.943 -0.072,-0.415 -0.361,-2.4" /><circle
     id="STROKE_80467e28-9431-46d6-b3c6-e17efd56a18f"
     opacity="1"
     fill="#FFFFFF"
     stroke="#FFFFFF"
     stroke-width="0.1"
     stroke-opacity="1"
     fill-opacity="1"
     cx="673.21802"
     cy="1191.835"
     r="2.5" /><path
     id="STROKE_c6b1f2c3-c66d-42fa-b162-92b0cdbb24af"
     opacity="1"
     fill="none"
     stroke="#FFFFFF"
     stroke-width="5"
     stroke-opacity="1"
     stroke-linecap="round"
     stroke-linejoin="round"
     d="m 673.619,1227.595 -0.13,-0.221 -0.271,0.284" /><circle
     id="STROKE_4d0c850e-55a0-41d3-9c4e-a7eef9329f18"
     opacity="1"
     fill="#FFFFFF"
     stroke="#FFFFFF"
     stroke-width="0.1"
     stroke-opacity="1"
     fill-opacity="1"
     cx="689.77899"
     cy="1201.5699"
     r="2.5" /><circle
     id="STROKE_8ed31341-1a60-4a95-83e4-389ea6810d1d"
     opacity="1"
     fill="#FFFFFF"
     stroke="#FFFFFF"
     stroke-width="0.1"
     stroke-opacity="1"
     fill-opacity="1"
     cx="690.30798"
     cy="1216.7271"
     r="2.5" /><path
     id="STROKE_3c28f08d-9e50-4267-9e6c-ba51e85a63f6"
     opacity="1"
     fill="none"
     stroke="#FFFFFF"
     stroke-width="5"
     stroke-opacity="1"
     stroke-linecap="round"
     stroke-linejoin="round"
     d="m 657.586,1201.838 -0.492,-0.532 q -0.078,0.06 0.083,0.207 -0.219,-0.287 -0.575,-0.401" /><circle
     id="STROKE_f4b66510-91c6-443f-b81b-d9913837b72e"
     opacity="1"
     fill="#FFFFFF"
     stroke="#FFFFFF"
     stroke-width="0.1"
     stroke-opacity="1"
     fill-opacity="1"
     cx="657.71399"
     cy="1214.9449"
     r="2.5" /><path
     id="STROKE_0552997f-d458-4af8-95db-91ae5acad232"
     opacity="1"
     fill="none"
     stroke="#FFFFFF"
     stroke-width="5"
     stroke-opacity="1"
     stroke-linecap="round"
     stroke-linejoin="round"
     d="m 1009.98,1230.511 q -0.98,-1.527 -1.192,-1.818 -0.211,-0.29 -1.415,-1.224 -1.203,-0.933 -2.394,-1.508 -1.191,-0.575 -3.032,-0.72 -1.842,-0.144 -3.612,0.839 -1.77,0.982 -2.629,2.214 -0.859,1.233 -1.145,2.666 -0.285,1.433 0.089,2.774 0.374,1.34 1.05,2.062 0.676,0.721 1.167,1.036 0.49,0.315 1.56,0.635 1.07,0.32 2.164,0.324 1.094,0.01 1.679,-0.055 0.586,-0.061 1.177,-0.303 0.591,-0.242 1.455,-0.748 0.864,-0.506 1.528,-1.019 0.665,-0.513 0.989,-0.808 0.323,-0.296 0.761,-0.833 0.438,-0.538 0.772,-1.057 0.335,-0.52 1.629,-2.584" /><circle
     id="STROKE_70f86830-6264-49c8-a696-df920c1e2a63"
     opacity="1"
     fill="#FFFFFF"
     stroke="#FFFFFF"
     stroke-width="0.1"
     stroke-opacity="1"
     fill-opacity="1"
     cx="1000.451"
     cy="1215.355"
     r="2.5" /><circle
     id="STROKE_42576ad3-0577-48af-be6f-b76e2d199689"
     opacity="1"
     fill="#FFFFFF"
     stroke="#FFFFFF"
     stroke-width="0.1"
     stroke-opacity="1"
     fill-opacity="1"
     cx="1015.938"
     cy="1223.626"
     r="2.5" /><path
     id="STROKE_b4bf9568-7ca4-4252-9caa-7071b1a0c294"
     opacity="1"
     fill="none"
     stroke="#FFFFFF"
     stroke-width="5"
     stroke-opacity="1"
     stroke-linecap="round"
     stroke-linejoin="round"
     d="m 1016.94,1237.663 0.128,-0.222 -0.329,-0.045" /><circle
     id="STROKE_8ddbf607-bd28-4e4a-b1fd-a52f11d61841"
     opacity="1"
     fill="#FFFFFF"
     stroke="#FFFFFF"
     stroke-width="0.1"
     stroke-opacity="1"
     fill-opacity="1"
     cx="1002.237"
     cy="1248.658"
     r="2.5" /><circle
     id="STROKE_fbbc6b42-f2a6-4038-b25b-c7184ad78454"
     opacity="1"
     fill="#FFFFFF"
     stroke="#FFFFFF"
     stroke-width="0.1"
     stroke-opacity="1"
     fill-opacity="1"
     cx="983.56201"
     cy="1242.4351"
     r="2.5" /><path
     id="STROKE_49eff315-01db-4a2d-bc31-cabf09ffcf1b"
     opacity="1"
     fill="none"
     stroke="#FFFFFF"
     stroke-width="5"
     stroke-opacity="1"
     stroke-linecap="round"
     stroke-linejoin="round"
     d="m 980.447,1227.597 q 0.038,-0.212 0.266,-0.576 l -0.063,0.156 q -0.029,-0.061 0.599,-1.234" /><path
     id="STROKE_c1098717-7035-4e22-ab80-a8eb3f708687"
     opacity="1"
     fill="none"
     stroke="#FFFFFF"
     stroke-width="5"
     stroke-opacity="1"
     stroke-linecap="round"
     stroke-linejoin="round"
     d="m 973.833,1200.86 -0.106,0.234 -0.423,0.625 q -0.797,1.052 -2.83,4.03 -2.032,2.978 -3.097,5.228 -1.065,2.249 -1.414,3.091 -0.349,0.841 -0.837,2.372 -0.488,1.531 -1.12,4.393 -0.632,2.862 -0.746,3.634 -0.114,0.772 -0.195,1.551 -0.082,0.778 -0.295,4.65 -0.213,3.873 -0.096,6.411 0.118,2.538 0.343,4.207 0.226,1.669 0.525,2.858 0.3,1.189 0.743,2.241 0.443,1.053 0.469,1.154 0.026,0.102 0.449,0.888 0.423,0.787 1.739,2.365 1.316,1.578 3.173,3.3 l 1.459,1.089 q 0.817,0.589 1.909,1.221 1.092,0.631 2.356,1.135 1.264,0.504 2.702,0.947 1.437,0.443 2.355,0.755 0.917,0.311 2.369,0.7 1.452,0.39 2.534,0.717 1.082,0.326 1.553,0.424 0.471,0.097 1.686,0.437 1.215,0.339 2.362,0.63 1.147,0.292 2.296,0.54 1.149,0.247 2.27,0.41 1.121,0.163 3.269,0.445 2.148,0.283 3.313,0.418 1.165,0.136 1.888,0.24 0.723,0.105 2.811,0.319 2.088,0.213 3.368,0.263 1.279,0.049 3.514,-0.113 2.234,-0.163 3.482,-0.297 1.247,-0.134 3.416,-0.436 2.168,-0.301 3.308,-0.547 1.14,-0.245 2.066,-0.472 0.926,-0.227 1.99,-0.578 1.063,-0.351 2.955,-1.266 1.891,-0.915 2.519,-1.279 0.628,-0.365 2.064,-1.238 1.436,-0.873 2.355,-1.51 0.919,-0.636 1.075,-0.731 0.156,-0.094 2.274,-2.057 2.119,-1.963 3.659,-3.876 1.54,-1.913 2.935,-4.207 1.395,-2.293 1.9,-3.384 0.504,-1.092 1.104,-3.069 0.6,-1.977 0.963,-3.901 0.364,-1.924 0.47,-7.763 0.106,-5.838 -0.12,-7.31 -0.226,-1.472 -0.442,-2.362 -0.216,-0.89 -0.278,-1.119 -0.061,-0.23 -1.3,-4.154 -1.239,-3.925 -1.695,-4.953 -0.456,-1.029 -0.727,-1.517 -0.272,-0.488 -0.878,-1.348 -0.607,-0.86 -1.043,-1.447 -0.436,-0.588 -1.696,-1.811 -1.26,-1.224 -2.181,-2.018 -0.922,-0.794 -1.889,-1.617 -0.967,-0.823 -2.272,-1.895 -1.304,-1.072 -1.377,-1.132 -0.072,-0.061 -1.112,-0.667 -1.039,-0.606 -2.622,-1.38 -1.582,-0.775 -2.787,-1.292 -1.206,-0.516 -1.918,-0.826 -0.711,-0.31 -2.04,-0.785 -1.329,-0.474 -3.385,-1.229 -2.057,-0.756 -3.498,-1.171 -1.44,-0.415 -2.376,-0.695 -0.935,-0.28 -1.927,-0.583 -0.991,-0.304 -1.792,-0.478 -0.8,-0.174 -1.997,-0.296 -1.197,-0.123 -1.582,-0.139 -0.384,-0.016 -2.505,-0.074 -2.121,-0.057 -4.723,0.183 -2.603,0.24 -5.314,0.784 -2.712,0.545 -4.475,1.047 -1.763,0.503 -3.971,1.488 -2.207,0.986 -3.269,1.562 -1.062,0.577 -1.675,0.986 -0.613,0.41 -1.67,1.172 -1.057,0.761 -1.528,1.114 -0.471,0.352 -1.503,1.345 -1.032,0.994 -1.145,1.119 -0.113,0.124 -0.456,0.391 -0.342,0.268 -0.748,0.712 -0.406,0.444 -2.113,2.332" /><path
     id="STROKE_de1ecf7b-9966-405d-a28f-f883b91453a0"
     opacity="1"
     fill="none"
     stroke="#FFFFFF"
     stroke-width="5"
     stroke-opacity="1"
     stroke-linecap="round"
     stroke-linejoin="round"
     d="m 508.282,1310.691 q 15.156,-1.626 19.578,-1.879 4.422,-0.253 6.568,-0.276 2.146,-0.023 4.84,-0.078 2.694,-0.056 12.377,-0.502 9.683,-0.446 14.682,-0.655 4.998,-0.208 11.545,-0.282 6.548,-0.074 11.799,-0.01 5.252,0.064 8.048,0.096 2.797,0.031 9.45,0.058 6.654,0.027 10.018,0.019 3.365,-0.01 8.663,-0.034 5.298,-0.027 13.618,-0.066 8.32,-0.04 14.867,-0.02 6.547,0.021 13.709,0.142 7.163,0.121 12.973,0.205 5.81,0.085 10.449,0.085 4.64,0 7.862,-0.133 3.221,-0.134 7.302,-0.43 4.081,-0.295 11.428,-0.77 7.348,-0.475 14.506,-0.788 7.157,-0.312 10.691,-0.327 3.534,-0.016 8.556,0.206 5.023,0.222 7.746,0.327 2.723,0.105 8.067,0.054 5.344,-0.051 7.8,-0.116 2.456,-0.064 3.778,-0.099 1.322,-0.034 6.219,0.046 4.897,0.081 9.269,0.195 4.373,0.114 8.372,0.136 3.999,0.021 9.903,0.013 5.904,-0.01 10.688,-0.207 4.784,-0.2 11.587,-0.395 6.803,-0.196 11.581,-0.339 4.778,-0.144 9.806,-0.304 5.027,-0.159 10.126,-0.291 5.098,-0.132 10.268,-0.238 5.169,-0.106 9.044,-0.204 3.874,-0.099 7.742,-0.236 3.869,-0.137 10.704,-0.227 6.836,-0.089 10.285,-0.157 3.449,-0.067 7.686,-0.266 4.237,-0.199 6.83,-0.304 2.594,-0.106 6.941,-0.321 4.348,-0.216 7.671,-0.434 3.324,-0.217 7.541,-0.39 4.217,-0.174 10.435,-0.376 6.218,-0.201 9.902,-0.327 3.683,-0.125 5.406,-0.199 1.723,-0.074 2.666,-0.128 0.942,-0.054 2.203,-0.107 1.262,-0.053 5.693,-0.219 4.431,-0.166 5.835,-0.219 1.403,-0.052 3.649,-0.153 2.246,-0.101 2.548,-0.12 0.303,-0.019 2.898,-0.1 2.595,-0.08 5.043,-0.168 2.447,-0.087 10.09,-0.29 7.642,-0.202 12.088,-0.321 4.446,-0.119 7.892,-0.264 3.445,-0.145 7.591,-0.25 4.146,-0.105 6.295,-0.18 2.15,-0.076 5.388,-0.228 3.238,-0.151 8.733,-0.355 5.495,-0.204 10.637,-0.332 5.142,-0.129 9.33,-0.331 4.189,-0.202 9.084,-0.336 4.896,-0.134 5.338,-0.131 0.442,0 8.239,-0.189 7.797,-0.192 17.736,-0.515 9.939,-0.322 14.947,-0.47 5.008,-0.147 9.322,-0.213 4.314,-0.065 8.079,-0.135 3.766,-0.07 6.613,-0.1 2.847,-0.03 5.558,-0.073 2.711,-0.042 5.663,-0.119 2.952,-0.076 5.017,-0.119 2.064,-0.043 7.729,-0.208 5.665,-0.166 14.178,-0.262 8.512,-0.097 17.129,-0.256 8.617,-0.159 14.029,-0.306 5.413,-0.147 11.21,-0.281 5.798,-0.133 8.215,-0.171 2.418,-0.038 10.542,-0.166 8.125,-0.128 14.702,-0.199 6.577,-0.07 7.135,-0.066 0.559,0.01 9.989,-0.064 l 0.814,0.03" /><path
     id="STROKE_97c9e3fc-3f82-440a-a2ae-a0fae64e0807"
     opacity="1"
     fill="none"
     stroke="#FFFFFF"
     stroke-width="5"
     stroke-opacity="1"
     stroke-linecap="round"
     stroke-linejoin="round"
     d="m 725.671,1283.738 -1.675,0.056 -4.23,0.615 -1.511,0.24 q -2.078,0.394 -7.973,1.265 -5.895,0.871 -10.808,1.565 -4.913,0.693 -6.192,0.854 -1.279,0.16 -6.035,0.89 -4.756,0.731 -6.441,0.989 -1.685,0.258 -3.649,0.586 -1.964,0.328 -5.027,0.713 -3.063,0.386 -5.103,0.623 -2.041,0.237 -3.531,0.357 -1.491,0.12 -2.679,0.198 -1.188,0.077 -1.478,0.108 -0.289,0.032 -4.572,0.099 -4.284,0.068 -6.839,-0.011 -2.555,-0.079 -6.331,-0.205 -3.776,-0.125 -5.979,-0.256 -2.204,-0.132 -3.17,-0.212 -0.965,-0.08 -4.916,-0.313 -3.95,-0.233 -8.562,-0.271 -4.611,-0.038 -7.774,0.075 -3.163,0.113 -6.307,0.246 -3.145,0.133 -5.949,0.258 -2.804,0.124 -7.099,0.265 -4.296,0.141 -5.264,0.153 -0.969,0.012 -3.84,0.032 -2.871,0.02 -7.96,0.051 -5.089,0.031 -9.868,0.035 -4.78,0.01 -11.423,-0.029 -6.642,-0.035 -11.859,-0.036 -5.217,0 -6.924,0.042 -1.707,0.043 -3.526,0.153 -1.818,0.109 -4.034,0.187 -2.216,0.077 -2.837,0.113 -0.62,0.037 -2.802,0.127 -2.183,0.091 -3.794,0.106 -1.611,0.015 -2.143,0.022 -0.532,0.01 -1.857,0 -1.326,-0.01 -3.11,0 -1.785,0.011 -2.505,0.087 -0.721,0.076 -1.037,0.126 -0.316,0.05 -1.184,0.448 l -0.106,0.183" /><path
     id="STROKE_d1ed53ee-cfd7-4b7c-8333-6d6086ba38c9"
     opacity="1"
     fill="none"
     stroke="#FFFFFF"
     stroke-width="5"
     stroke-opacity="1"
     stroke-linecap="round"
     stroke-linejoin="round"
     d="m 712.626,1285.201 q 0.296,-0.236 0.495,-0.296 0.199,-0.059 1.554,-0.411 1.354,-0.351 2.56,-0.49 1.207,-0.139 2.483,-0.264 1.277,-0.125 1.97,-0.195 0.694,-0.071 1.603,-0.227 0.909,-0.157 2.114,-0.362 1.204,-0.205 2.289,-0.436 1.085,-0.232 2.558,-0.612 1.473,-0.381 3.148,-0.812 1.56,-0.453 2.695,-0.782 1.135,-0.329 2.176,-0.567 1.041,-0.238 2.425,-0.441 1.384,-0.203 2.899,-0.377 1.516,-0.175 3.411,-0.325 l 3.489,-0.059 q 2.087,0.059 4.203,0.14 2.115,0.081 4.966,0.299 2.85,0.217 4.524,0.441 1.777,0.294 2.798,0.491 1.022,0.198 2.819,0.393 1.798,0.195 3.704,0.37 1.906,0.175 3.042,0.214 1.135,0.04 1.431,0.042 0.295,0 1.84,0.11 1.545,0.108 2.772,0.237 1.228,0.129 2.12,0.266 0.892,0.137 6.857,1.229 l 1.971,0.385 q 0.857,0.146 2.17,0.26 1.313,0.115 3.992,0.014 2.679,-0.102 3.69,-0.093 1.012,0.01 2.389,0.109 1.376,0.102 3.14,0.027 1.763,-0.076 3.759,-0.26 1.997,-0.184 2.811,-0.273 0.814,-0.089 2.42,-0.244 1.605,-0.155 3.482,-0.322 1.876,-0.167 2.846,-0.241 0.969,-0.074 2.212,-0.094 1.243,-0.02 2.238,0.074 0.995,0.095 1.373,0.11 0.379,0.015 1.936,0.17 1.556,0.154 2.586,0.242 1.029,0.087 1.557,0.093 0.529,0.01 1.189,-0.014 0.66,-0.021 1.555,-0.077 0.894,-0.055 3.315,-0.138 2.421,-0.083 3.541,-0.141 1.12,-0.059 3.95,-0.051 l 0.847,0.033 q 2.22,0.202 2.947,0.288 0.727,0.087 0.823,0.097 0.096,0.01 1.021,0.085 0.924,0.075 2.191,0.106 1.267,0.031 1.687,0.05 0.419,0.019 1.385,-0.067 0.966,-0.087 1.841,-0.156 0.875,-0.069 1.815,-0.098 0.941,-0.028 1.003,-0.039 0.062,-0.01 1.547,-0.04 1.484,-0.03 3.358,-0.035 1.874,-0.01 2.449,0 0.575,0.01 1.585,0 1.01,-0.014 2.374,10e-4 1.364,0.014 2.758,0.072 1.395,0.057 2.647,0.018 1.252,-0.038 2.321,-0.143 1.068,-0.104 1.63,-0.189 0.562,-0.086 2.49,-0.291 1.928,-0.205 2.994,-0.288 1.065,-0.083 1.784,-0.152 0.72,-0.068 3.139,-0.16 2.419,-0.091 2.462,-0.104 0.043,-0.013 1.307,-0.022 1.264,-0.01 4.224,0.158 2.961,0.167 5.5,0.196 1.632,-0.036 3.585,-0.248 1.953,-0.213 3.398,-0.333 1.445,-0.121 3.099,-0.221 1.654,-0.1 4.144,-0.163 2.49,-0.063 3.464,-0.056 0.973,0.01 2.851,0.133 1.877,0.127 3.105,0.104 1.227,-0.023 2.254,-0.078 1.026,-0.055 2.591,-0.116 1.564,-0.06 4.526,-0.166 2.963,-0.106 3.396,-0.13 0.433,-0.025 2.166,-0.182 1.734,-0.157 2.959,-0.251 1.225,-0.095 2.535,-0.157 1.311,-0.062 1.423,-0.047 0.113,0.015 2.47,-0.122 2.357,-0.138 5.932,-0.353" /><path
     id="STROKE_2a3bbf97-98cd-4bf5-bb86-ec3ee4aad876"
     opacity="1"
     fill="none"
     stroke="#FFFFFF"
     stroke-width="5"
     stroke-opacity="1"
     stroke-linecap="round"
     stroke-linejoin="round"
     d="m 1053.19,1274.964 1.349,-0.227 q 2.37,-0.164 4.181,-0.326 1.811,-0.161 3.472,-0.349 1.661,-0.187 2.636,-0.324 0.975,-0.138 1.836,-0.253 0.862,-0.116 1.214,-0.177 0.353,-0.062 0.861,-0.222 0.507,-0.16 1.15,-0.381 0.642,-0.222 0.947,-0.349 0.304,-0.127 1.302,-0.461 0.998,-0.335 1.537,-0.453 0.539,-0.118 4.504,1.221 0.843,0.157 2.338,-0.072 1.494,-0.229 2.335,-0.383 0.841,-0.154 1.69,-0.207 0.849,-0.053 1.777,0.014 0.928,0.067 0.995,0.084 0.067,0.017 1.855,0.125 1.788,0.108 3.983,0.01 2.195,-0.099 2.768,-0.183 0.572,-0.084 1.02,-0.156 0.447,-0.073 2.202,-0.28 0.957,0.023 1.665,-0.072 0.709,-0.095 0.937,-0.159 0.228,-0.065 0.561,-0.211 0.332,-0.146 1.198,-0.678 0.865,-0.532 2.57,-1.856 1.705,-1.323 3.81,-2.486 0.353,0.032 1.253,0.593 0.9,0.561 1.805,1.226 0.905,0.665 1.31,0.944 0.405,0.279 0.787,0.417 0.382,0.139 0.642,0.179 0.26,0.04 0.789,0.045 0.528,0.01 0.757,0.012 0.228,0.01 0.66,0.08 0.432,0.073 1.062,0.275 0.629,0.202 0.995,0.283 0.366,0.082 0.858,0.046 0.491,-0.035 0.801,-0.112 0.31,-0.077 0.66,-0.254 0.351,-0.176 1.253,-0.796 0.901,-0.621 2.545,-1.739 1.644,-1.118 3.006,-1.6 0.664,0.523 1.187,1.118 0.522,0.596 1.465,1.8 0.943,1.204 1.246,1.489 0.302,0.286 0.558,0.444 0.256,0.158 1.808,0.837 l 0.664,0.208 q 1.695,0.31 2.247,0.327 0.552,0.016 1.568,-0.05 1.017,-0.065 2.795,-0.354 1.778,-0.289 2.008,-0.344 0.231,-0.054 1.511,-0.16 0.439,0.052 1.333,0.084 0.893,0.032 2.088,-0.047 1.195,-0.08 1.9,-0.15 0.705,-0.07 0.863,-0.103 0.159,-0.034 2.026,-0.307 1.867,-0.273 4.187,-0.244 0.651,0.144 1.621,0.39 0.97,0.246 1.738,0.36 0.767,0.114 1.76,0.104 0.993,-0.01 1.531,0.014 0.538,0.023 1.239,-0.01 0.702,-0.031 1.31,-0.158 0.607,-0.128 1.516,-0.459 0.909,-0.331 3.257,-1.412 2.349,-1.081 3.458,-1.462 1.11,-0.381 1.797,-0.457 0.686,-0.075 2.317,0.303 0.309,-0.015 7.238,4.843 1.124,0.334 1.604,0.379 0.479,0.045 1.063,0.1 0.583,0.055 2.871,0.152 2.288,0.098 2.718,0.134 0.429,0.035 1.302,0.171 0.873,0.137 1.239,0.153 0.365,0.017 0.974,-0.06 0.608,-0.078 1.576,-0.319 0.968,-0.241 2.514,-0.683 1.545,-0.442 2.42,-0.669 0.875,-0.228 1.318,-0.321 0.443,-0.094 0.81,-0.136 0.367,-0.041 0.973,-0.015 0.607,0.027 1.359,0.047 0.752,0.021 1.274,0.01 0.522,-0.012 1.22,-0.04 0.699,-0.027 1.623,-0.139 0.923,-0.111 1.541,-0.238 0.617,-0.126 1.572,-0.357 0.954,-0.231 2.122,-0.513 1.168,-0.281 2.154,-0.438 0.987,-0.157 1.486,-0.175 0.499,-0.017 1.303,0 0.804,0.02 1.126,0.061 0.322,0.041 2.362,0.382 2.04,0.341 3.616,0.524 1.576,0.183 2.084,0.176 0.507,-0.01 1.278,-0.075 0.772,-0.068 2.122,-0.299 1.351,-0.231 3.564,-0.656 2.213,-0.425 2.756,-0.51 0.542,-0.086 1.378,-0.114 0.836,-0.027 1.549,-0.036 0.712,-0.01 1.587,0.217 0.875,0.225 1.493,0.387 0.619,0.162 1.435,0.447 0.815,0.284 1.763,0.68 0.948,0.395 1.477,0.567 0.529,0.173 1.019,0.265 0.491,0.092 0.575,0.107 0.084,0.015 0.636,-0.023 0.553,-0.038 0.798,-0.013 0.245,0.025 1.958,-0.777 1.713,-0.801 2.985,-1.685 1.273,-0.884 2.252,-1.504 0.98,-0.62 1.695,-0.966 0.715,-0.345 1.284,-0.511 0.568,-0.165 1.098,-0.193 0.529,-0.028 0.976,0.04 0.446,0.068 1.303,0.333 0.856,0.264 1.566,0.647 0.709,0.382 1.641,0.964 0.932,0.582 1.713,0.97 0.782,0.389 1.39,0.552 0.607,0.164 0.958,0.232 0.351,0.069 1.263,-0.042 0.912,-0.111 2.045,-0.501 1.133,-0.39 2.234,-0.807 1.101,-0.418 1.91,-0.668 0.808,-0.25 1.628,-0.309 1.102,0.261 2.226,0.55 1.125,0.289 1.469,0.387 0.344,0.098 0.743,0.144 0.398,0.046 2.679,-0.265" /><path
     id="STROKE_c40d3dcd-a0ef-408b-a139-30c360e0084d"
     opacity="1"
     fill="none"
     stroke="#FFFFFF"
     stroke-width="5"
     stroke-opacity="1"
     stroke-linecap="round"
     stroke-linejoin="round"
     d="m 854.697,1129.145 -0.081,-0.394 q -0.178,-0.812 -0.204,-0.922 -0.025,-0.111 -0.802,-1.147 -0.778,-1.036 -1.516,-1.943 -0.738,-0.907 -1.154,-1.234 -0.415,-0.326 -0.891,-0.559 -0.476,-0.232 -1.6,-0.445 -1.124,-0.213 -1.258,-0.208 -0.135,0.01 -0.99,-0.01 -0.856,-0.015 -2.624,0.752 -1.767,0.766 -2.624,1.516 -0.857,0.75 -1.296,1.347 -0.438,0.597 -0.681,1.062 -0.242,0.467 -0.325,0.61 -0.082,0.144 -0.393,1.513 -0.311,1.37 -0.164,2.589 0.148,1.219 0.512,1.978 0.365,0.76 1.027,1.531 0.662,0.771 1.379,1.322 0.718,0.551 1.759,0.933 1.041,0.383 2.038,0.447 0.996,0.064 1.121,0.065 0.125,0 0.901,-0.155 0.776,-0.156 1.325,-0.427 0.549,-0.272 0.785,-0.437 0.237,-0.166 0.5,-0.341 0.263,-0.174 0.598,-0.462 0.334,-0.288 0.619,-0.643 0.285,-0.356 0.902,-1.238 0.617,-0.883 0.794,-1.256 0.178,-0.374 1.013,-2.584" /><path
     id="STROKE_cebeb553-4d8c-4d42-87a6-4318d466ce10"
     opacity="1"
     fill="none"
     stroke="#FFFFFF"
     stroke-width="5"
     stroke-opacity="1"
     stroke-linecap="round"
     stroke-linejoin="round"
     d="m 855.48,1129.54 q 0.667,-0.018 9.101,-0.812 8.434,-0.795 14.611,-1.115 6.177,-0.32 9.575,-0.433 3.398,-0.113 9.61,-0.154 6.212,-0.042 10.659,-0.113 4.446,-0.072 6.072,-0.124 1.625,-0.051 2.892,-0.113 1.266,-0.062 4.489,-0.147 l 1.403,-0.031" /><path
     id="STROKE_0a78e296-e23e-4d93-8c45-733274dcce23"
     opacity="1"
     fill="none"
     stroke="#FFFFFF"
     stroke-width="5"
     stroke-opacity="1"
     stroke-linecap="round"
     stroke-linejoin="round"
     d="m 907.932,1120.072 0.907,-0.08 q 0.302,0.061 3.057,0.549 2.756,0.488 5.127,1.219 2.37,0.731 4.184,1.668 1.813,0.936 2.404,1.38 0.592,0.443 0.837,0.695 0.246,0.252 0.44,0.578 -0.028,0.117 -2.018,1.628 -1.991,1.512 -3.748,2.316 -1.758,0.805 -5.296,2.166 -0.662,0.327 -1.98,0.831 -1.319,0.504 -1.673,0.692" /><path
     id="STROKE_2f7fb2e0-a46e-4d6e-88ab-1f8035dd8092"
     opacity="1"
     fill="none"
     stroke="#FFFFFF"
     stroke-width="5"
     stroke-opacity="1"
     stroke-linecap="round"
     stroke-linejoin="round"
     d="m 1104.364,1272.32 0.426,0.101 q 0.299,0.191 1.243,0.408 0.944,0.218 1.885,0.343 0.941,0.125 1.329,0.156 0.388,0.031 0.637,0.016 0.248,-0.014 0.706,-0.041 0.458,-0.027 1.523,-0.49 1.065,-0.463 1.913,-0.973 0.849,-0.511 2.381,-1.569" /><path
     id="STROKE_318c9b2a-b87e-40f7-bdc7-7718836f07a8"
     opacity="1"
     fill="none"
     stroke="#FFFFFF"
     stroke-width="5"
     stroke-opacity="1"
     stroke-linecap="round"
     stroke-linejoin="round"
     d="m 1170.517,1272.193 q 1.297,0.051 2.702,0.309 1.406,0.257 1.933,0.328 0.528,0.072 1.113,0.045 0.584,-0.026 0.857,-0.083 0.273,-0.057 0.971,-0.268 0.699,-0.21 4.339,-1.655" /><path
     id="STROKE_d45b3e13-a1bb-46ac-90e1-c188f52531ed"
     opacity="1"
     fill="none"
     stroke="#FFFFFF"
     stroke-width="5"
     stroke-opacity="1"
     stroke-linecap="round"
     stroke-linejoin="round"
     d="m 1263.671,1270.996 q 0.245,-0.168 0.378,-0.265 0.568,0.169 1.155,0.317 0.587,0.149 0.595,0.156 0.01,0.01 0.75,0.061 0.4,0.02 3.553,-3.437" /><path
     id="STROKE_91cff896-35c8-4640-b548-6550578b425e"
     opacity="1"
     fill="none"
     stroke="#FFFFFF"
     stroke-width="5"
     stroke-opacity="1"
     stroke-linecap="round"
     stroke-linejoin="round"
     d="m 575.062,992.869 q 0.066,-0.102 5.422,-6.465 5.356,-6.364 12.269,-14.514 6.914,-8.151 10.615,-12.813 3.702,-4.662 10.179,-12.794 6.476,-8.132 9.943,-12.262 3.467,-4.129 4.942,-5.83 1.475,-1.702 3.834,-4.544 2.359,-2.843 6.975,-8.433 4.616,-5.591 9.824,-11.769 5.208,-6.177 7.355,-8.708 2.148,-2.53 3.416,-4.054 1.267,-1.524 3.023,-3.331 1.755,-1.808 3.244,-2.793" /><path
     id="STROKE_707ad894-edb9-4fe9-bbad-5470cb6c7607"
     opacity="1"
     fill="none"
     stroke="#FFFFFF"
     stroke-width="5"
     stroke-opacity="1"
     stroke-linecap="round"
     stroke-linejoin="round"
     d="m 668.161,887.614 0.608,-0.037 q 0.577,-0.107 6.705,0.357 6.129,0.465 12.921,1.909 6.793,1.445 8.68,1.921 1.888,0.476 4.122,1.149 2.235,0.674 4.829,1.376 2.595,0.702 4.782,1.217 2.186,0.514 5.775,1.368 3.589,0.855 6.028,1.385 2.439,0.53 7.11,1.615 4.67,1.084 9.52,2.279 4.849,1.195 7.432,1.791 2.584,0.597 4.95,1.198 2.366,0.602 5.971,1.46 3.604,0.858 10.407,2.491 6.804,1.632 8.202,1.976 1.398,0.344 4.154,1.02 2.755,0.676 5.576,1.3 2.821,0.625 3.626,0.84 0.806,0.216 1.97,0.424 1.164,0.209 1.503,0.255 0.338,0.045 1.939,0.4 1.6,0.354 2.625,0.591 1.025,0.237 2.129,0.479 1.105,0.242 3.39,0.72 2.285,0.478 4.468,0.899 2.183,0.422 3.094,0.615 0.912,0.192 1.879,0.411 0.968,0.218 2.113,0.441 1.145,0.223 1.424,0.304 0.279,0.081 6.347,1.136" /><path
     id="STROKE_b2ca8671-f9c1-4d48-b23e-a14d7c3c31f5"
     opacity="1"
     fill="none"
     stroke="#FFFFFF"
     stroke-width="5"
     stroke-opacity="1"
     stroke-linecap="round"
     stroke-linejoin="round"
     d="m 666.23,887.474 q -0.316,0.75 -1.667,11.773 -1.35,11.023 -2.112,17.717 -0.762,6.694 -1.357,11.954 -0.596,5.26 -1.46,10.821 -0.864,5.561 -1.21,7.991 -0.346,2.429 -1.106,8.725 -0.76,6.296 -1.309,10.403 -0.549,4.106 -0.827,6.114 -0.278,2.008 -0.608,5.358 -0.329,3.35 -0.856,6.899 -0.527,3.549 -0.862,5.491 -0.334,1.942 -0.549,3.424 -0.214,1.483 -0.915,6.57 l -0.448,1.687" /><path
     id="STROKE_4a810c81-e96b-4cd5-9252-309474bfdc10"
     opacity="1"
     fill="none"
     stroke="#FFFFFF"
     stroke-width="5"
     stroke-opacity="1"
     stroke-linecap="round"
     stroke-linejoin="round"
     d="m 665.848,884.763 0.569,0.423 q 0.642,0.638 2.929,3.431 2.287,2.794 5.317,6.176 3.031,3.382 4.695,5.201 1.665,1.819 3.535,3.883 1.87,2.064 4.756,5.235 2.887,3.171 7.448,8.004 4.561,4.833 6.888,7.363 2.327,2.53 4.972,5.652 2.645,3.122 4.426,5.207 1.782,2.084 3.029,3.458 1.248,1.375 5.593,6.116 4.346,4.741 7.723,8.466 3.377,3.726 7.168,7.7 3.792,3.974 5.509,5.923 1.717,1.948 3.077,3.814 l 1.017,1.667" /><path
     id="STROKE_6c4ca2f6-867e-4744-ba34-155255bdec02"
     opacity="1"
     fill="none"
     stroke="#FFFFFF"
     stroke-width="5"
     stroke-opacity="1"
     stroke-linecap="round"
     stroke-linejoin="round"
     d="m 573.204,996.572 q 0.133,0.052 2.182,0.56 2.049,0.508 3.518,0.815 1.469,0.308 4.053,0.682 2.583,0.375 3.7,0.605 1.117,0.23 1.21,0.261 0.092,0.03 1.713,0.348 1.621,0.318 2.883,0.507 1.262,0.189 2.341,0.359 1.078,0.171 1.199,0.198 0.122,0.027 1.688,0.24 1.567,0.213 4.166,0.437 2.599,0.223 5.038,0.447 2.44,0.223 4.417,0.356 1.977,0.134 3.157,0.247 1.181,0.114 2.311,0.254 1.131,0.14 2.711,0.313 1.58,0.173 3.24,0.32 1.66,0.147 3.365,0.326 1.704,0.179 1.841,0.187 0.138,0.01 1.577,0.18 1.439,0.171 3.682,0.5 2.243,0.33 4.143,0.583 1.901,0.254 1.925,0.266 0.024,0.011 4.593,0.604" /><path
     id="STROKE_0c238406-71c4-452e-a634-2a050d3f1ffe"
     opacity="1"
     fill="none"
     stroke="#FFFFFF"
     stroke-width="5"
     stroke-opacity="1"
     stroke-linecap="round"
     stroke-linejoin="round"
     d="m 651.6,1006.307 q 2.008,-0.548 3.015,-0.903 1.007,-0.356 1.786,-0.656 0.781,-0.3 1.86,-0.727 1.079,-0.428 2.894,-1.022 1.815,-0.593 2.851,-0.878 1.037,-0.286 1.885,-0.538 0.848,-0.251 1.067,-0.351 0.219,-0.1 4.228,-1.259 4.008,-1.16 6.679,-1.95 2.67,-0.791 3.973,-1.285 1.303,-0.493 2.684,-0.932 1.381,-0.438 2.818,-0.833 1.436,-0.395 1.575,-0.41 0.139,-0.016 3.504,-1.222 3.366,-1.205 4.273,-1.487 0.907,-0.281 4.637,-1.929 1.903,-0.714 1.972,-0.724 0.068,-0.009 1.37,-0.483 1.303,-0.475 2.256,-0.861 0.953,-0.386 2.172,-0.83 1.22,-0.443 2.595,-0.952 1.376,-0.509 2.061,-0.744 0.685,-0.235 0.775,-0.246 0.091,-0.01 1.153,-0.374 1.062,-0.364 2.099,-0.785 1.037,-0.422 1.224,-0.481 0.187,-0.058 1.576,-0.554 1.389,-0.495 2.257,-0.815 0.868,-0.32 1.354,-0.516 0.486,-0.196 1.92,-0.679 1.433,-0.482 2.511,-0.777 1.078,-0.295 2.089,-0.551 1.01,-0.255 2.454,-0.697 1.444,-0.441 2.227,-0.699 0.783,-0.257 2.339,-0.725 1.555,-0.467 2.294,-0.719 0.738,-0.251 1.188,-0.389 0.45,-0.138 4.814,-1.666" /><path
     id="STROKE_567acaf2-cb1b-4498-8635-6832a43ac992"
     opacity="1"
     fill="none"
     stroke="#FFFFFF"
     stroke-width="5"
     stroke-opacity="1"
     stroke-linecap="round"
     stroke-linejoin="round"
     d="m 745.701,974.989 q 1.914,-0.944 2.505,-1.265 0.59,-0.322 1.288,-0.772 0.698,-0.45 1.851,-1.241 1.153,-0.791 2.599,-1.801 1.447,-1.01 2.445,-1.701 0.999,-0.691 1.546,-1.049 0.546,-0.358 3.68,-2.512 3.133,-2.154 7.176,-5.21 4.042,-3.057 8.332,-6.046 4.289,-2.989 6.084,-4.251 1.796,-1.261 4.869,-3.485 3.073,-2.224 4.512,-3.206 1.439,-0.983 4.971,-3.232 3.532,-2.249 6.836,-4.334 3.303,-2.085 5.383,-3.424 2.08,-1.338 3.292,-2.079 1.212,-0.74 8.735,-4.779 l 1.236,-0.516" /><path
     id="STROKE_e4019950-87bd-425e-ae44-53324ef0b1dd"
     opacity="1"
     fill="none"
     stroke="#FFFFFF"
     stroke-width="5"
     stroke-opacity="1"
     stroke-linecap="round"
     stroke-linejoin="round"
     d="m 701.921,992.538 0.445,0.656 q 0.12,0.254 1.586,4.109 1.466,3.855 2.185,5.916 0.719,2.062 1.318,3.785 0.599,1.724 1.302,3.987 0.702,2.264 1.239,3.928 0.537,1.663 1.567,4.631 1.029,2.969 1.418,4.11 0.389,1.141 1.694,4.858 1.306,3.717 2.847,7.942 1.542,4.226 2.512,6.953 0.969,2.727 1.638,4.696 0.669,1.97 1.336,3.768 0.666,1.798 1.514,4.256 0.848,2.458 1.578,4.619 0.73,2.161 1.146,3.39 0.416,1.228 1.551,4.363 0.062,0.145 0.416,1.483" /><path
     id="STROKE_d9520e8c-515a-4fc3-b7bf-a01355d91b1d"
     opacity="1"
     fill="none"
     stroke="#FFFFFF"
     stroke-width="5"
     stroke-opacity="1"
     stroke-linecap="round"
     stroke-linejoin="round"
     d="m 710.266,989.56 0.508,1.944 q 0.038,0.179 2.19,6.253 2.152,6.074 3.583,9.947 1.432,3.874 2.098,5.705 0.666,1.832 1.461,3.873 0.794,2.041 1.209,3.309 0.415,1.268 1.119,3.302 0.705,2.033 1.964,5.77 1.259,3.736 2.083,6.151 0.825,2.416 1.51,4.392 0.685,1.976 1.573,4.365 0.887,2.389 1.449,3.865 0.562,1.476 1.086,2.921 0.524,1.445 1.222,3.428 0.698,1.984 1.353,3.924 0.655,1.94 1.694,4.963 1.039,3.024 1.511,4.401 0.472,1.378 1.337,3.696" /><circle
     id="STROKE_119841f3-73ad-4a03-93bc-95b5ab2f352b"
     opacity="1"
     fill="#FFFFFF"
     stroke="#FFFFFF"
     stroke-width="0.1"
     stroke-opacity="1"
     fill-opacity="1"
     cx="1127.4919"
     cy="1107.845"
     r="2.5" /><path
     id="STROKE_9d438cc3-5a20-4ff4-ae1e-4554fd1846ce"
     opacity="1"
     fill="none"
     stroke="#FFFFFF"
     stroke-width="5"
     stroke-opacity="1"
     stroke-linecap="round"
     stroke-linejoin="round"
     d="m 1129.222,1107.705 q 0.354,0.164 2.487,0.636 2.133,0.473 5.825,2.1 0.733,1.024 0.997,1.606 0.264,0.581 0.896,4.704 0.631,4.122 0.61,10.785 -0.022,6.663 -0.085,10.789 -0.064,4.126 -0.082,5.609 -0.019,1.483 -0.131,4.368 -0.112,2.885 -0.222,4.041 -0.109,1.156 -0.553,3.725 -0.443,2.57 -0.722,3.486 -0.28,0.916 -1.286,3.092 -3.465,2.166 -4.895,2.688 -1.431,0.522 -3.179,1.148 l -2.247,0.805" /><path
     id="STROKE_aa73f7c0-bc5d-4908-af09-6db38e892ec2"
     opacity="1"
     fill="none"
     stroke="#FFFFFF"
     stroke-width="5"
     stroke-opacity="1"
     stroke-linecap="round"
     stroke-linejoin="round"
     d="m 1414.491,993.128 q -1.694,-1.038 -1.79,-1.085 -0.096,-0.046 -1.571,-0.776 -1.475,-0.729 -2.545,-1.082 -1.069,-0.353 -1.975,-0.54 -0.906,-0.186 -2.849,-0.299 -1.942,-0.112 -3.733,-0.011 -1.791,0.101 -3.05,0.257 -1.259,0.157 -4.386,1.493 -3.127,1.335 -4.524,2.06 -1.396,0.725 -2.26,1.283 -0.864,0.557 -2.114,1.776 -1.25,1.219 -2.237,2.323 -0.987,1.105 -1.831,2.196 -0.843,1.092 -1.319,1.924 -0.476,0.832 -0.757,1.463 -0.281,0.631 -0.782,2.25 -0.501,1.619 -0.709,2.851 -0.208,1.231 -0.286,2.642 -0.078,1.411 0.038,2.971 0.116,1.56 0.312,2.505 0.196,0.944 0.405,1.607 0.209,0.663 1.226,2.812 1.017,2.148 2.07,3.627 1.053,1.478 1.952,2.338 0.899,0.86 3.265,2.351 2.367,1.491 3.48,1.977 1.113,0.485 3.396,1.026 2.283,0.54 5.878,0.616 3.595,0.075 4.703,-0.079 1.108,-0.155 1.508,-0.212 0.4,-0.058 1.854,-0.47 1.454,-0.412 2.67,-1.034 1.215,-0.621 2.559,-1.516 1.344,-0.894 1.828,-1.317 0.484,-0.422 1.608,-1.66 1.124,-1.238 1.742,-2.056 0.618,-0.819 1.164,-1.601 0.546,-0.781 1.12,-1.703 0.575,-0.922 1.308,-2.416 0.733,-1.494 1.463,-3.752 0.729,-2.257 0.953,-3.325 0.223,-1.068 0.326,-2.131 0.102,-1.064 0.055,-2.318 -0.047,-1.255 -0.18,-2.217 -0.133,-0.962 -0.598,-2.266 -0.466,-1.304 -0.709,-1.795 -0.243,-0.491 -0.478,-0.847 -0.236,-0.355 -0.543,-0.794 -0.306,-0.439 -0.502,-0.682 -0.194,-0.242 -0.736,-0.711 -0.542,-0.47 -0.929,-0.81 -0.387,-0.339 -1.011,-0.856 -0.623,-0.516 -2.625,-2.065" /><path
     id="STROKE_52eaa1eb-5fd5-4b45-a2b4-d007a0c934fa"
     opacity="1"
     fill="none"
     stroke="#FFFFFF"
     stroke-width="5"
     stroke-opacity="1"
     stroke-linecap="round"
     stroke-linejoin="round"
     d="m 1395.616,1039.73 q -10e-4,0.113 -0.231,2.705 -0.23,2.591 -0.947,8.278 -0.716,5.686 -1.222,9.08 -0.506,3.395 -0.861,5.563 -0.355,2.169 -0.629,3.905 -0.273,1.735 -0.707,4.292 -0.434,2.557 -1.509,8.351 -1.074,5.794 -1.615,8.86 -0.542,3.066 -1.096,6.765 -0.554,3.699 -1.878,12.452 -1.324,8.753 -2.033,13.126 -0.708,4.373 -1.058,6.293 -0.351,1.92 -0.946,5.129 -0.594,3.209 -0.833,4.424 -0.238,1.215 -0.503,2.669 -0.266,1.455 -0.735,4.134 -0.469,2.679 -0.504,2.802 -0.034,0.122 -0.601,3.525 -0.567,3.402 -0.965,5.956 -0.399,2.553 -0.851,5.055 -0.451,2.503 -0.601,3.414 -0.15,0.911 -0.249,1.667 -0.1,0.755 -0.687,4.222" /><path
     id="STROKE_d5dda05f-d9c5-476e-9196-808e6234ebe2"
     opacity="1"
     fill="none"
     stroke="#FFFFFF"
     stroke-width="5"
     stroke-opacity="1"
     stroke-linecap="round"
     stroke-linejoin="round"
     d="m 1374.355,1174.586 q 1.389,2.339 1.42,2.415 0.031,0.075 1.641,2.796 1.61,2.721 3.137,5.109 1.527,2.388 3.418,5.596 1.89,3.207 2.834,4.782 0.943,1.575 1.601,2.619 0.659,1.044 1.195,1.934 0.537,0.89 1.525,2.559 0.988,1.669 1.468,2.444 0.481,0.774 1.531,2.619 1.051,1.844 1.828,3.151 0.777,1.307 1.163,1.998 0.386,0.691 0.41,0.766 0.023,0.075 2.104,3.574 l 0.687,1.389" /><path
     id="STROKE_f817549d-37b1-4992-aa93-11a6b2145f7d"
     opacity="1"
     fill="none"
     stroke="#FFFFFF"
     stroke-width="5"
     stroke-opacity="1"
     stroke-linecap="round"
     stroke-linejoin="round"
     d="m 1400.517,1221.379 -0.376,0.622 q -0.623,0.715 -0.86,1.029 -0.237,0.313 -1.091,1.519 -0.854,1.206 -5.082,7.738 -4.228,6.531 -6.932,10.887 -2.703,4.355 -3.959,6.415 -1.256,2.06 -2.219,3.581 -0.962,1.522 -1.312,2.037 -0.349,0.515 -1.014,1.549 -0.665,1.034 -1.248,1.992 -0.583,0.959 -4.656,7.26" /><path
     id="STROKE_2e3f0840-742f-476b-a3ce-e8acdae23cc5"
     opacity="1"
     fill="none"
     stroke="#FFFFFF"
     stroke-width="5"
     stroke-opacity="1"
     stroke-linecap="round"
     stroke-linejoin="round"
     d="m 1372.496,1176.839 q -0.167,0.326 -0.45,0.61 -0.2,0.141 -3.257,4.713 -3.057,4.571 -5.797,8.863 -2.741,4.292 -4.454,6.908 -1.713,2.615 -2.975,4.447 -1.262,1.831 -3.47,5.211 -2.209,3.381 -3.385,5.136 -1.176,1.755 -1.824,2.672 -0.647,0.918 -1.831,2.643 -1.183,1.725 -2.345,3.337" /><path
     id="STROKE_a73027d9-b069-4a77-b9d7-f4c7bf28ac92"
     opacity="1"
     fill="none"
     stroke="#FFFFFF"
     stroke-width="5"
     stroke-opacity="1"
     stroke-linecap="round"
     stroke-linejoin="round"
     d="m 1339.866,1224.166 q -0.979,0.531 -1.461,0.617 l -0.839,0.294 q -2.844,1.288 -5.05,2.269 -2.205,0.981 -5.36,2.949 -3.156,1.969 -8.099,5.108 -4.942,3.139 -6.562,4.341 -1.621,1.202 -2.728,2.014 -1.106,0.811 -3.022,2.004 -1.915,1.194 -3.142,2.042 -1.226,0.848 -1.857,1.318 -0.63,0.47 -4.232,2.967 -3.603,2.498 -6.615,4.672 -3.013,2.175 -4.207,3.041 -1.195,0.866 -1.666,1.205 -0.472,0.339 -1.221,0.92 -0.749,0.582 -1.544,1.24 -0.795,0.658 -3.192,2.78" /><path
     id="STROKE_5d5d7135-d46a-48ed-876d-d96b30f93153"
     opacity="1"
     fill="none"
     stroke="#FFFFFF"
     stroke-width="5"
     stroke-opacity="1"
     stroke-linecap="round"
     stroke-linejoin="round"
     d="m 1374.614,1072.117 1.533,-0.53 q 1.258,-0.565 2.584,-1.137 1.326,-0.572 7.696,-3.343 6.371,-2.77 9.373,-4.045 3.002,-1.275 5.135,-1.956 2.133,-0.68 2.97,-0.9 0.837,-0.221 5.471,-1.133" /><path
     id="STROKE_ea4f5f8c-1cf1-47f1-89c9-d9593d5e1fdc"
     opacity="1"
     fill="none"
     stroke="#FFFFFF"
     stroke-width="5"
     stroke-opacity="1"
     stroke-linecap="round"
     stroke-linejoin="round"
     d="m 1411.362,1062.191 q 0,0.134 0.943,7.009 0.947,6.875 1.889,15.367 0.942,8.491 1.347,12.409 0.404,3.918 0.886,7.831 0.483,3.914 0.594,4.743 0.111,0.828 0.239,1.968 0.128,1.14 0.445,3.876 0.316,2.737 0.46,4.129 0.144,1.392 0.264,2.389 0.119,0.997 0.302,2.879 0.183,1.881 0.314,3.759 0.13,1.878 0.156,2.179 0.025,0.302 0.031,2.09" /><path
     id="STROKE_a66ce8af-8f1e-4882-97ab-86bc7bcf9464"
     opacity="1"
     fill="none"
     stroke="#FFFFFF"
     stroke-width="5"
     stroke-opacity="1"
     stroke-linecap="round"
     stroke-linejoin="round"
     d="m 1422.876,1066.416 q -0.108,0.415 -0.705,8.579 -0.598,8.164 -0.78,14.471 -0.182,6.307 -0.191,9.11 -0.01,2.804 -0.017,4.138 -0.01,1.333 0.01,6.414 0.012,5.08 0.017,7.354 0.01,2.275 0.018,5.404 0.013,3.13 -0.01,4.698 -0.022,1.568 -0.039,2.096 -0.018,0.528 -0.212,2.358" /><path
     id="STROKE_ec2913ee-48c4-4f13-9c33-fca422b706d0"
     opacity="1"
     fill="none"
     stroke="#FFFFFF"
     stroke-width="5"
     stroke-opacity="1"
     stroke-linecap="round"
     stroke-linejoin="round"
     d="m 1372.683,1074.306 q 0.057,0.55 -0.396,4.915 -0.452,4.364 -0.723,7.362 -0.272,2.997 -0.56,6.205 -0.288,3.209 -0.451,5.641 -0.162,2.433 -0.419,5.566 -0.256,3.133 -0.936,9.687 -0.681,6.555 -0.836,8.081 -0.156,1.526 -0.201,1.875 -0.045,0.348 -0.248,2.187 -0.204,1.838 -0.364,3.365 -0.16,1.528 -0.382,3.366 -0.222,1.839 -0.476,4.083 -0.253,2.244 -0.273,2.334 -0.02,0.09 -0.23,2.462 -0.211,2.373 -0.247,2.665 -0.037,0.292 -0.4,2.552" /><path
     id="STROKE_4ac8ffbe-3720-48b8-93a3-8e9f38efb543"
     opacity="1"
     fill="none"
     stroke="#FFFFFF"
     stroke-width="5"
     stroke-opacity="1"
     stroke-linecap="round"
     stroke-linejoin="round"
     d="m 1380.499,1079.193 q -0.183,0.361 -1.223,4.268 -1.041,3.906 -1.813,6.886 -0.773,2.98 -1.164,4.55 -0.391,1.57 -1.096,4.408 -0.704,2.839 -1.433,5.802 -0.73,2.962 -1.851,8.83 -1.121,5.868 -1.574,8.672 -0.453,2.804 -0.935,5.581 -0.481,2.776 -1.006,5.734 -0.525,2.958 -0.821,4.547 -0.296,1.59 -0.785,3.676" /><path
     id="STROKE_b65d0cd4-4933-4336-af7f-7ccbda16fb0a"
     opacity="1"
     fill="none"
     stroke="#FFFFFF"
     stroke-width="5"
     stroke-opacity="1"
     stroke-linecap="round"
     stroke-linejoin="round"
     d="m 1377.329,1081.713 q -0.749,-0.061 -7.032,0.671 -6.284,0.733 -13.633,2.025 -7.349,1.293 -10.93,1.907 -3.582,0.615 -6.538,0.988 -2.956,0.374 -9.05,1.384 -6.094,1.01 -10.616,1.639 -4.522,0.629 -6.896,0.798 -2.374,0.17 -11.619,1.544 -9.244,1.373 -13.849,2.223 -4.605,0.849 -6.956,1.281 -2.351,0.432 -3.119,0.633 -0.768,0.2 -7.334,1.405 -6.566,1.205 -13.113,2.363 -6.547,1.157 -9.328,1.715 -2.78,0.557 -4.216,0.813 -1.436,0.256 -6.069,1.221 -4.633,0.964 -8.319,1.638 -3.686,0.674 -5.86,1.021 -2.174,0.347 -3.695,0.591 -1.521,0.244 -4.386,0.708 -2.865,0.465 -4.441,0.678 -1.576,0.213 -6.553,1.02 -4.976,0.806 -7.667,1.351 -2.691,0.545 -5.617,1.229 -2.925,0.683 -4.372,1.023 -1.446,0.34 -4.611,1.038 -3.165,0.697 -8.802,1.874 -5.637,1.177 -8.167,1.705 -2.53,0.529 -4.541,1.019 -2.011,0.489 -3.292,0.776 -1.281,0.287 -4.02,0.96 -2.739,0.673 -4.349,1.112 -1.61,0.438 -3.025,0.736 -1.416,0.297 -2.372,0.454 -0.956,0.157 -4.392,0.821" /><path
     id="STROKE_4a519e67-b715-488e-b2e6-b1fea4e03204"
     opacity="1"
     fill="none"
     stroke="#FFFFFF"
     stroke-width="5"
     stroke-opacity="1"
     stroke-linecap="round"
     stroke-linejoin="round"
     d="m 1419.032,1067.549 -1.77,0.529 q -7.109,2.342 -12.916,4.345 -5.806,2.003 -8.788,3.03 -2.981,1.026 -7.271,2.531 -4.29,1.504 -6.552,2.277 -2.261,0.773 -6.064,2.317" /><path
     id="STROKE_047b7768-e209-41f5-b47a-09f3ab15f14c"
     opacity="1"
     fill="none"
     stroke="#FFFFFF"
     stroke-width="5"
     stroke-opacity="1"
     stroke-linecap="round"
     stroke-linejoin="round"
     d="m 1418.303,1067.88 q -0.433,-0.047 -0.906,0.063 -2.156,0.373 -3.174,0.49 -1.018,0.117 -8.273,1.644 -7.255,1.527 -13.167,2.855 -5.912,1.327 -8.583,1.872 -2.671,0.545 -4.005,0.874 -1.334,0.33 -3.933,0.767 -2.599,0.438 -4.512,0.701 -1.912,0.264 -3.142,0.496 -1.23,0.232 -3.392,0.556 -2.162,0.324 -4.31,0.687 -2.148,0.363 -3.573,0.638 -1.426,0.275 -1.671,0.31 -0.245,0.035 -4.558,0.871 -4.313,0.836 -8.077,1.484 -3.764,0.648 -5.138,0.855 -1.373,0.207 -3.413,0.475 -2.041,0.269 -2.712,0.336 -0.671,0.067 -1.928,0.213 -1.257,0.147 -3.784,0.487 -2.528,0.341 -2.677,0.349 -0.15,0.01 -2.803,0.383 -2.653,0.375 -6.637,1.046 -3.984,0.671 -7.446,1.187 -3.463,0.516 -5.388,0.782 -1.925,0.265 -5.281,0.712 -3.355,0.447 -5.523,0.817 -2.168,0.37 -5.214,0.908 -3.047,0.538 -8.601,1.635 -5.554,1.096 -8.728,1.738 -3.175,0.642 -8.38,1.607 -5.204,0.965 -6.984,1.241 -1.781,0.276 -5.993,1.012 -4.213,0.736 -7.195,1.405 -2.983,0.668 -4.42,1.025 -1.437,0.357 -4.206,1.028 -2.769,0.671 -5.39,1.277 -2.621,0.606 -5.777,1.401 -3.157,0.795 -4.603,1.148 -1.446,0.353 -3.01,0.69 -1.564,0.338 -4.713,1.098 -3.15,0.76 -7.997,1.926 -4.847,1.166 -8.559,1.934 -3.712,0.767 -6.307,1.256 -2.595,0.488 -4.192,0.875 -1.597,0.387 -3.624,0.861 -2.027,0.475 -3.543,0.784 -1.515,0.309 -3.171,0.688 -1.656,0.379 -2.963,0.653 -1.306,0.275 -3.636,0.8 -2.33,0.525 -3.87,0.891 -1.54,0.366 -2.67,0.667 -1.131,0.302 -3.823,1.014 -2.693,0.711 -4.385,1.181 -1.692,0.471 -2.425,0.678 -0.733,0.208 -1.616,0.433 -0.884,0.225 -1.821,0.449 -0.936,0.225 -1.393,0.358 -0.456,0.133 -3.412,1.064" /><path
     id="STROKE_e0330479-204a-42e8-ae27-9ac761dd720f"
     opacity="1"
     fill="none"
     stroke="#FFFFFF"
     stroke-width="5"
     stroke-opacity="1"
     stroke-linecap="round"
     stroke-linejoin="round"
     d="m 1139.662,1123.491 -0.035,-0.028 0.308,-0.333 q 0.107,-0.166 0.195,-0.46 0.088,-0.294 0.036,-0.608 -0.051,-0.314 -0.17,-0.453 -0.118,-0.138 -0.39,-0.255 -0.272,-0.117 -0.851,-0.082 -0.58,0.035 -0.909,0.292 -0.33,0.258 -0.625,0.728 -0.294,0.471 -0.316,0.478 -0.021,0.01 -0.166,0.385 -0.145,0.377 -0.194,0.946 -0.05,0.568 1.858,0.785 l 0.182,-0.474 q 0.063,-0.066 -0.03,-1.092 -0.644,-0.167 -1.003,-0.103 -0.36,0.065 -0.552,0.173 -0.191,0.109 -0.475,0.371 l -0.507,0.316" /><circle
     id="STROKE_9631c19a-a169-43d7-a8a1-75a189338c30"
     opacity="1"
     fill="#FFFFFF"
     stroke="#FFFFFF"
     stroke-width="0.1"
     stroke-opacity="1"
     fill-opacity="1"
     cx="1389.116"
     cy="1009.557"
     r="1" /><circle
     id="STROKE_6f74c5bb-2685-44f8-91bd-2c9d4faebbe5"
     opacity="1"
     fill="#FFFFFF"
     stroke="#FFFFFF"
     stroke-width="0.1"
     stroke-opacity="1"
     fill-opacity="1"
     cx="1410.1591"
     cy="1010.092"
     r="1" /></g></svg>
