<?xml version="1.0" encoding="UTF-8" standalone="no"?>
<!-- Generator: Adobe Illustrator 26.1.0, SVG Export Plug-In . SVG Version: 6.00 Build 0)  -->

<svg
   version="1.1"
   id="Layer_1"
   x="0px"
   y="0px"
   viewBox="0 0 960 480"
   style="enable-background:new 0 0 960 480;"
   xml:space="preserve"
   sodipodi:docname="pt2-topic-split.svg"
   inkscape:version="1.2.1 (9c6d41e410, 2022-07-14, custom)"
   xmlns:inkscape="http://www.inkscape.org/namespaces/inkscape"
   xmlns:sodipodi="http://sodipodi.sourceforge.net/DTD/sodipodi-0.dtd"
   xmlns="http://www.w3.org/2000/svg"
   xmlns:svg="http://www.w3.org/2000/svg"><defs
   id="defs8462" /><sodipodi:namedview
   id="namedview8460"
   pagecolor="#505050"
   bordercolor="#eeeeee"
   borderopacity="1"
   inkscape:showpageshadow="0"
   inkscape:pageopacity="0"
   inkscape:pagecheckerboard="0"
   inkscape:deskcolor="#505050"
   showgrid="false"
   inkscape:zoom="1.3906433"
   inkscape:cx="452.66819"
   inkscape:cy="158.55971"
   inkscape:window-width="2560"
   inkscape:window-height="1381"
   inkscape:window-x="0"
   inkscape:window-y="0"
   inkscape:window-maximized="1"
   inkscape:current-layer="Layer_1" />
<g
   id="Splitting_a_topic"
   opacity="1"
   transform="matrix(1.1215823,0,0,1.1215823,866.75411,-574.26879)"><path
     id="STROKE_263f0e0b-36ba-454c-9dc1-2390fb51b36e"
     opacity="1"
     fill="none"
     stroke="#000000"
     stroke-width="5"
     stroke-opacity="1"
     stroke-linecap="round"
     stroke-linejoin="round"
     d="m -541.237,617.239 q -0.04,0.378 0.148,4.246 0.187,3.867 0.239,6.524 0.052,2.656 0.204,7.397 0.151,4.741 0.422,8.729 0.27,3.989 0.415,5.629 0.144,1.64 0.644,4.738 0.5,3.097 0.852,4.335 0.352,1.238 0.785,2.02 0.433,0.782 0.936,1.452 0.503,0.67 0.568,0.758 0.065,0.089 0.564,0.557 0.499,0.468 1.362,0.921 0.862,0.452 2.913,1.09 2.051,0.638 3.809,0.67 1.757,0.031 3.806,-0.068 2.048,-0.099 4.508,-0.246 2.459,-0.147 3.622,-0.294 1.164,-0.147 2.666,-0.306 1.503,-0.159 2.038,-0.187 0.535,-0.028 2.289,-0.212 1.754,-0.184 3.194,-0.383 1.439,-0.199 2.877,-0.305 1.438,-0.106 4.224,-0.211 2.785,-0.106 2.956,-0.126 0.171,-0.021 1.847,-0.031 1.675,-0.01 3.02,0.006 1.345,0.016 2.695,-0.011 1.35,-0.027 4.626,-0.23 3.277,-0.202 4.491,-0.309 1.213,-0.107 2.135,-0.217 0.923,-0.109 1.746,-0.186 0.824,-0.076 4.346,-0.553 3.522,-0.477 5.089,-0.871 1.568,-0.394 3.098,-1.053 1.53,-0.659 2.148,-1.069 0.618,-0.409 1.36,-1.136 0.742,-0.728 1.472,-1.886 0.73,-1.159 1.312,-2.915 0.582,-1.757 0.709,-2.332 0.127,-0.575 0.468,-4.908 0.34,-4.332 0.114,-10.084 -0.226,-5.753 -0.468,-10.178 -0.242,-4.426 -0.413,-6.498 -0.171,-2.073 -0.584,-5.122 -0.413,-3.05 -0.669,-5.27 -0.256,-2.22 -0.412,-3.783 -0.156,-1.563 -0.339,-2.575 -0.182,-1.013 -0.671,-5.695 -0.489,-4.683 -1.395,-8.392 -0.906,-3.709 -1.208,-4.373 -0.302,-0.664 -0.739,-1.343 -0.436,-0.68 -0.789,-1.087 -0.354,-0.406 -0.673,-0.672 -0.319,-0.267 -0.749,-0.672 -0.431,-0.406 -1.261,-0.99 -0.83,-0.583 -2.406,-1.188 -1.575,-0.605 -4.525,-1.23 -2.95,-0.624 -6.002,-0.758 -3.053,-0.133 -4.83,-0.041 -1.777,0.093 -2.448,0.186 -0.67,0.094 -1.92,0.242 -1.251,0.148 -1.359,0.136 -0.109,-0.013 -4.323,0.561 -4.213,0.574 -6.957,0.937 -2.744,0.364 -3.767,0.464 -1.023,0.1 -4.683,0.456 -3.66,0.355 -5.72,0.61 -2.061,0.254 -2.687,0.381 -0.626,0.126 -3.137,0.659 -2.51,0.532 -5.416,1.209 -2.906,0.677 -4.514,1.159 -1.608,0.483 -2.781,0.932 -1.174,0.449 -1.549,0.631 -0.375,0.181 -1.851,0.882 -1.475,0.7 -2.526,1.288 -1.051,0.588 -1.447,0.819 -0.396,0.232 -1.149,1.016 -0.753,0.784 -1.054,1.142 -0.301,0.357 -0.576,0.962 -0.275,0.604 -0.667,2.126 -0.393,1.522 -0.45,2.22 -0.058,0.697 -0.055,1.076 0.003,0.378 0.121,3.018 0.117,2.639 0.273,3.979 0.156,1.34 0.271,2.093 0.115,0.752 0.398,2.903 0.284,2.151 0.327,2.303 0.044,0.152 1.205,8.833" /><path
     id="STROKE_89bdc87a-d8f3-47e1-8191-51f86e779bba"
     opacity="1"
     fill="none"
     stroke="#000000"
     stroke-width="2"
     stroke-opacity="1"
     stroke-linecap="round"
     stroke-linejoin="round"
     d="m -586.29,842.254 q 0.612,-0.13 3.315,-0.581 2.703,-0.451 4.623,-1.03 1.921,-0.579 2.689,-0.984 0.768,-0.404 1.093,-0.647 0.326,-0.244 1.028,-1.124 0.703,-0.88 0.904,-1.395 0.201,-0.515 0.256,-0.848 0.055,-0.334 0.041,-0.648 -0.013,-0.314 -0.104,-0.663 -0.091,-0.349 -0.207,-0.571 -0.116,-0.223 -0.514,-0.612 -0.397,-0.388 -1.167,-0.561 -0.769,-0.172 -1.241,-0.063 -0.473,0.11 -0.744,0.265 -0.272,0.155 -0.525,0.398 -0.254,0.244 -0.39,0.427 -0.136,0.183 -0.368,0.7 -0.232,0.518 -0.423,1.528 -0.19,1.011 -0.216,1.707 -0.026,0.696 0.14,2.524 0.165,1.827 0.271,2.508 0.106,0.682 0.418,2.418 0.313,1.736 0.625,3.167 0.312,1.431 1.106,3.613 0.793,2.182 1.122,2.722 0.329,0.539 0.733,0.974 0.404,0.436 0.84,0.715 0.437,0.279 0.97,0.444 0.534,0.166 0.841,0.165 0.306,-10e-4 0.435,-0.028 0.129,-0.026 0.422,-0.15 0.293,-0.124 0.734,-0.5 0.44,-0.376 0.723,-1.007 0.283,-0.63 0.275,-1.072 -0.008,-0.441 -0.04,-0.564 -0.031,-0.123 -0.173,-0.422 -0.143,-0.298 -0.259,-0.453 -0.115,-0.154 -0.746,-0.642 -0.63,-0.487 -1.4,-0.79 -0.77,-0.303 -1.368,-0.434 -0.597,-0.131 -1.052,-0.199 -0.455,-0.069 -1.446,-0.146 -0.992,-0.077 -2.285,-0.034 -1.292,0.044 -1.96,0.121 -0.667,0.078 -1.669,0.262 -1.002,0.185 -2.059,0.462 -1.057,0.277 -1.62,0.463 -0.563,0.186 -1.242,0.457 -0.679,0.271 -1.296,0.56 -0.617,0.288 -1.041,0.53 -0.424,0.241 -1.236,0.876 -0.813,0.635 -1.065,0.905 -0.251,0.27 -0.476,0.577 -0.224,0.306 -0.458,1.017 -0.235,0.711 -0.21,1.229 0.025,0.517 0.141,0.828 0.116,0.31 0.38,0.657 0.264,0.347 0.837,0.656 0.572,0.31 0.899,0.374 0.326,0.064 0.573,0.061 0.247,-0.004 0.433,-0.032 0.186,-0.028 0.782,-0.294 0.596,-0.266 0.878,-0.497 0.282,-0.231 0.554,-0.567 0.271,-0.337 0.514,-0.837 0.244,-0.5 0.378,-1.085 0.133,-0.584 0.167,-1.12 0.033,-0.535 -0.033,-1.335 -0.065,-0.799 -0.194,-1.571 -0.129,-0.771 -0.43,-2.132 -0.301,-1.361 -0.386,-1.759 -0.085,-0.398 -0.256,-1.199 -0.171,-0.801 -0.531,-2.538 -0.36,-1.738 -0.614,-2.998 -0.255,-1.261 -0.531,-2.408 -0.277,-1.147 -0.675,-2.179 -0.399,-1.031 -0.674,-1.459 -0.276,-0.427 -0.542,-0.689 -0.266,-0.261 -0.493,-0.388 -0.227,-0.126 -0.713,-0.233 -0.485,-0.108 -0.852,-0.047 -0.366,0.061 -0.607,0.164 -0.241,0.104 -0.463,0.237 -0.223,0.132 -0.449,0.322 -0.226,0.19 -0.747,1.007 -0.52,0.818 -0.648,1.421 -0.127,0.604 0.024,1.355 0.152,0.751 0.202,0.854 0.051,0.103 0.189,0.294 0.139,0.19 0.943,0.72 0.805,0.531 1.303,0.685 0.498,0.155 0.9,0.226 0.402,0.072 0.785,0.102 0.383,0.03 0.778,0.027 0.395,-0.003 0.622,-0.017 0.227,-0.013 0.484,-0.043 0.258,-0.029 0.59,-0.079 0.333,-0.049 0.574,-0.099 0.24,-0.049 0.335,-0.076 0.095,-0.027 0.918,-0.177" /><path
     id="STROKE_438a443e-f0a1-4d6b-b489-2770d8fbfdb5"
     opacity="1"
     fill="none"
     stroke="#000000"
     stroke-width="2"
     stroke-opacity="1"
     stroke-linecap="round"
     stroke-linejoin="round"
     d="m -612.494,610.6 q 0.068,2.043 0.227,4.807 0.158,2.765 0.431,6.631 0.273,3.866 0.42,6.174 0.147,2.307 0.507,10.066" /><path
     id="STROKE_7e796352-c040-4824-bdfc-2cbcc6958e8f"
     opacity="1"
     fill="none"
     stroke="#000000"
     stroke-width="2"
     stroke-opacity="1"
     stroke-linecap="round"
     stroke-linejoin="round"
     d="m -611.565,609.938 q 1.218,0.093 2.789,0.123 1.57,0.029 2.752,0.027 1.181,-10e-4 4.063,-0.042 2.881,-0.04 6.375,-0.067 3.493,-0.027 4.166,-0.01 0.674,0.017 6.473,0.096" /><path
     id="STROKE_9d72cfab-0e28-47b0-afab-45ebae065dbf"
     opacity="1"
     fill="none"
     stroke="#000000"
     stroke-width="2"
     stroke-opacity="1"
     stroke-linecap="round"
     stroke-linejoin="round"
     d="m -583.964,611.401 q 0.142,3.166 1.131,13.751 l 0.4,3.06" /><path
     id="STROKE_1db24c21-526f-439d-adbc-647aad969dcf"
     opacity="1"
     fill="none"
     stroke="#000000"
     stroke-width="2"
     stroke-opacity="1"
     stroke-linecap="round"
     stroke-linejoin="round"
     d="m -608.796,639.195 q 1.175,-0.026 1.528,-0.004 0.353,0.022 1.962,0.019 1.609,-0.004 3.406,-0.044 1.797,-0.04 4.758,-0.355 2.96,-0.315 5.909,-0.8" /><path
     id="STROKE_d73d924b-4e9b-4f1f-987c-2ddec98e7228"
     opacity="1"
     fill="none"
     stroke="#000000"
     stroke-width="2"
     stroke-opacity="1"
     stroke-linecap="round"
     stroke-linejoin="round"
     d="m -597.093,617.325 q 0.244,6.368 0.528,12.764" /><path
     id="STROKE_e8c9962a-c5d0-45cb-8629-5c29a7a38d41"
     opacity="1"
     fill="none"
     stroke="#000000"
     stroke-width="2"
     stroke-opacity="1"
     stroke-linecap="round"
     stroke-linejoin="round"
     d="m -612.494,610.6 q 0.068,2.043 0.227,4.807 0.158,2.765 0.431,6.631 0.273,3.866 0.42,6.174 0.147,2.307 0.507,10.066" /><path
     id="STROKE_15738af2-5917-4533-b94c-08734e6dd28a"
     opacity="1"
     fill="none"
     stroke="#000000"
     stroke-width="2"
     stroke-opacity="1"
     stroke-linecap="round"
     stroke-linejoin="round"
     d="m -583.964,611.401 q 0.142,3.166 1.131,13.751 l 0.4,3.06" /><path
     id="STROKE_82595900-3372-496e-ba39-ce423f5f5570"
     opacity="1"
     fill="none"
     stroke="#000000"
     stroke-width="2"
     stroke-opacity="1"
     stroke-linecap="round"
     stroke-linejoin="round"
     d="m -608.796,639.195 q 1.175,-0.026 1.528,-0.004 0.353,0.022 1.962,0.019 1.609,-0.004 3.406,-0.044 1.797,-0.04 4.758,-0.355 2.96,-0.315 5.909,-0.8" /><path
     id="STROKE_ee90b589-de76-4a46-8af9-da3d4404dd67"
     opacity="1"
     fill="none"
     stroke="#000000"
     stroke-width="2"
     stroke-opacity="1"
     stroke-linecap="round"
     stroke-linejoin="round"
     d="m -590.641,637.706 q 2.12,-1.917 7.807,-7.699" /><path
     id="STROKE_02fd8106-f689-4591-8e87-66b423a037d8"
     opacity="1"
     fill="none"
     stroke="#000000"
     stroke-width="2"
     stroke-opacity="1"
     stroke-linecap="round"
     stroke-linejoin="round"
     d="m -597.093,617.325 q 0.244,6.368 0.528,12.764" /><path
     id="STROKE_0eb00cba-8d63-4e97-967f-f98dc8354d20"
     opacity="1"
     fill="none"
     stroke="#000000"
     stroke-width="5"
     stroke-opacity="1"
     stroke-linecap="round"
     stroke-linejoin="round"
     d="m -230.91,517.089 q -0.75,0.009 -2.307,0.094 -1.557,0.085 -2.738,0.171 -1.181,0.086 -4.185,0.367 -3.004,0.281 -4.862,0.478 -1.859,0.197 -4.976,0.496 -0.721,0.224 -26.284,0.938 -0.644,-0.019 -8.963,0.024 -8.319,0.042 -17.285,0.128 -8.966,0.087 -13.319,0.12 -4.354,0.032 -21.456,-0.068 -17.103,-0.099 -25.955,-0.218 -8.852,-0.119 -12.792,-0.258 -3.94,-0.138 -5.989,-0.236 -2.048,-0.098 -9.837,-0.377 -7.79,-0.279 -23.837,-0.276 -16.047,0.003 -26.754,-0.119 -10.706,-0.121 -15.899,-0.247 -5.194,-0.126 -10.793,-0.15 -5.6,-0.024 -17.239,0.389 -11.639,0.413 -17.903,0.749 -6.263,0.337 -10.423,0.778 -4.159,0.441 -9.222,0.835 -5.063,0.394 -9.419,1.008 -4.357,0.614 -6.688,1.208 -2.331,0.594 -5.079,1.667 -2.749,1.073 -4.213,1.884 -1.464,0.811 -3.426,2.285 -1.963,1.474 -3.175,2.775 -1.211,1.301 -1.961,2.34 -0.75,1.039 -1.832,3.196 -1.082,2.157 -2.835,9.151 -1.753,6.995 -1.942,11.352 -0.19,4.357 -0.011,9.981 0.179,5.624 0.264,7.819 0.085,2.195 0.38,10.384 0.295,8.189 0.562,19.64 0.268,11.451 0.35,17.039 0.082,5.588 0.209,8.67 0.128,3.081 0.265,4.712 0.137,1.63 0.359,8.755 0.221,7.125 0.416,12.261 0.195,5.136 0.402,7.81 0.207,2.675 0.277,3.311 0.07,0.637 0.401,7.107 0.331,6.471 0.829,11.516 0.498,5.046 0.851,7.049 0.354,2.004 0.651,3.296 0.297,1.293 1.149,3.994 0.853,2.702 1.902,5.226 1.05,2.523 1.862,3.996 0.813,1.473 1.865,2.82 1.052,1.347 1.888,2.131 0.836,0.783 2.053,1.621 1.217,0.838 2.587,1.544 1.369,0.706 5.096,1.869 3.726,1.164 6.931,1.64 3.206,0.475 6.207,0.725 3.002,0.249 7.938,0.784 4.935,0.534 9.803,0.748 4.869,0.214 8.352,0.15 3.483,-0.065 6.174,-0.067 2.691,-0.002 6.236,-0.013 3.544,-0.012 5.334,-0.048 1.79,-0.036 5.241,-0.15 3.452,-0.115 4.893,-0.147 1.442,-0.031 13.691,-0.05 12.25,-0.019 19.446,0.023 7.195,0.041 9.999,0.049 2.805,0.007 7.748,0.005 4.943,-0.002 15.195,0.031 10.252,0.034 15.054,0.138 4.801,0.104 8.453,0.257 3.652,0.153 9.54,0.39 5.888,0.238 13.079,0.51 7.191,0.271 11.996,0.41 4.805,0.138 9.157,0.263 4.353,0.126 13.485,0.364 9.132,0.239 14.894,0.302 5.763,0.064 8.861,0.099 3.098,0.035 7.089,0.044 3.991,0.009 7.941,0.013 3.951,0.004 9.603,-0.014 5.652,-0.019 13.245,-0.007 7.593,0.012 11.714,0.066 4.121,0.054 6.982,0.134 2.86,0.08 6.257,0.228 3.396,0.148 5.327,0.281 1.93,0.132 3.889,0.418 l 1.468,0.23" /><path
     id="STROKE_e682298e-ce88-453c-bb46-9e5c0d627a0b"
     opacity="1"
     fill="none"
     stroke="#000000"
     stroke-width="5"
     stroke-opacity="1"
     stroke-linecap="round"
     stroke-linejoin="round"
     d="m -227.74,752.16 q -1.738,0.186 -2.764,0.339 -1.026,0.153 -2.905,0.397 -1.878,0.245 -6.601,0.617 -4.722,0.372 -11.097,0.621 -6.376,0.248 -12.73,0.206 -6.355,-0.042 -9.946,-0.048 -3.59,-0.006 -13.184,0.282 -9.594,0.288 -18.994,0.518 -9.4,0.231 -16.454,0.36 -7.054,0.129 -11.753,0.148 -4.699,0.02 -10.585,-0.1 -5.887,-0.119 -8.631,-0.255 -2.744,-0.136 -7.931,-0.411 -5.188,-0.275 -12.932,-0.497 -7.745,-0.222 -13.343,-0.443 -5.598,-0.222 -13.595,-0.394 -7.997,-0.173 -13.787,-0.324 -5.791,-0.15 -9.089,-0.246 -3.298,-0.097 -11.949,-0.403 -8.65,-0.306 -19.438,-0.493 -10.788,-0.187 -19.597,-0.147 -8.809,0.04 -19.753,0.107 -10.943,0.067 -18.629,0.365 -7.685,0.297 -11.216,0.628 -3.53,0.331 -5.734,0.625 -2.204,0.293 -3.588,0.546 -1.383,0.252 -2.13,0.424 -0.747,0.172 -3.27,0.993 -2.523,0.821 -4.423,1.886 -1.9,1.065 -3.205,2.23 -1.305,1.164 -1.704,1.637 -0.399,0.473 -0.863,1.22 -0.464,0.746 -0.739,1.295 -0.275,0.549 -0.521,1.167 -0.245,0.619 -0.692,2.612 -0.447,1.994 -0.565,3.381 -0.117,1.386 -0.138,2.441 -0.02,1.055 -0.003,2.651 0.017,1.596 0.11,3.47 0.092,1.874 0.354,5.707 0.261,3.832 0.783,11.889 0.523,8.058 0.531,10.449 0.008,2.391 -0.004,2.939 -0.012,0.548 0.026,3.682 0.038,3.134 0.059,4.73 0.021,1.595 0.121,4.535 0.1,2.939 0.441,6.817 0.341,3.877 0.759,9.048 0.418,5.171 0.582,7.362 0.164,2.19 0.248,3.429 0.085,1.238 0.3,3.515 0.216,2.277 0.291,3.317 0.075,1.04 0.2,3.116 0.126,2.077 0.4,5.609 0.274,3.533 0.547,7.057 0.274,3.525 0.306,3.689 0.032,0.164 0.281,4.491 0.248,4.327 0.405,7.282 0.158,2.955 0.319,4.777 0.161,1.822 0.343,3.907 0.181,2.084 0.421,4.204 0.239,2.12 0.388,3.186 0.149,1.065 0.533,3.733 0.384,2.669 0.638,3.953 0.254,1.285 0.282,1.346 0.028,0.061 0.374,1.549 0.347,1.487 1.314,4.177 0.967,2.69 1.451,3.565 0.484,0.875 1.71,2.495 1.226,1.62 2.371,2.7 1.145,1.081 1.73,1.492 0.585,0.411 0.722,0.519 0.136,0.107 2.615,1.131 2.48,1.025 4.914,1.505 2.434,0.48 6.16,0.992 3.726,0.511 6.594,0.793 2.869,0.282 4.541,0.361 1.672,0.078 1.891,0.105 0.22,0.026 7.992,0.147 7.772,0.12 13.335,-0.073 5.562,-0.194 8.301,-0.26 2.74,-0.067 7.835,-0.235 5.095,-0.167 7.655,-0.214 2.561,-0.046 9.5,-0.028 6.938,0.018 10.288,0.142 3.349,0.124 10.139,0.298 6.79,0.174 10.542,0.249 3.752,0.075 16.847,0.134 13.095,0.058 19.749,-0.047 6.655,-0.105 9.353,-0.208 2.698,-0.103 3.593,-0.135 0.895,-0.031 3.435,-0.14 2.54,-0.109 10.484,-0.333 7.944,-0.225 12.65,-0.244 4.706,-0.019 8.212,-0.036 3.506,-0.018 9.296,0.038 5.79,0.056 8.782,0.131 2.991,0.074 9.291,0.046 6.3,-0.029 10.521,-0.215 4.221,-0.186 5.716,-0.302 1.495,-0.115 5.931,-0.254 4.437,-0.138 8.879,-0.245 4.442,-0.107 6.172,-0.173 1.729,-0.066 5.026,-0.05 3.297,0.015 5.524,0.095 2.227,0.08 5.031,0.164 2.805,0.083 4.591,0.072 1.786,-0.012 9.926,-0.26 8.14,-0.247 12.624,-0.334 4.484,-0.087 18.672,-0.531 14.188,-0.445 16.313,-0.552" /><path
     id="STROKE_17284ba1-5a62-4149-b51c-d7f21710bbbd"
     opacity="1"
     fill="none"
     stroke="#000000"
     stroke-width="5"
     stroke-opacity="1"
     stroke-linecap="round"
     stroke-linejoin="round"
     d="m -429.737,617.239 q -0.04,0.378 0.148,4.246 0.187,3.867 0.239,6.524 0.052,2.656 0.204,7.397 0.151,4.741 0.422,8.729 0.27,3.989 0.414,5.629 0.145,1.64 0.645,4.738 0.5,3.097 0.852,4.335 0.352,1.238 0.785,2.02 0.433,0.782 0.936,1.452 0.503,0.67 0.568,0.758 0.065,0.089 0.564,0.557 0.499,0.468 1.362,0.921 0.862,0.452 2.913,1.09 2.051,0.638 3.809,0.67 1.757,0.031 3.806,-0.068 2.048,-0.099 4.508,-0.246 2.459,-0.147 3.622,-0.294 1.164,-0.147 2.666,-0.306 1.503,-0.159 2.038,-0.187 0.535,-0.028 2.289,-0.212 1.754,-0.184 3.194,-0.383 1.439,-0.199 2.877,-0.305 1.438,-0.106 4.224,-0.211 2.785,-0.106 2.956,-0.126 0.171,-0.021 1.847,-0.031 1.675,-0.01 3.02,0.006 1.345,0.016 2.695,-0.011 1.35,-0.027 4.626,-0.23 3.277,-0.202 4.491,-0.309 1.213,-0.107 2.135,-0.217 0.923,-0.109 1.746,-0.186 0.824,-0.076 4.346,-0.553 3.522,-0.477 5.089,-0.871 1.568,-0.394 3.098,-1.053 1.53,-0.659 2.148,-1.069 0.618,-0.409 1.36,-1.136 0.742,-0.728 1.472,-1.886 0.73,-1.159 1.312,-2.915 0.582,-1.757 0.709,-2.332 0.127,-0.575 0.468,-4.908 0.34,-4.332 0.114,-10.084 -0.226,-5.753 -0.468,-10.178 -0.242,-4.426 -0.413,-6.498 -0.171,-2.073 -0.584,-5.122 -0.413,-3.05 -0.669,-5.27 -0.256,-2.22 -0.412,-3.783 -0.156,-1.563 -0.339,-2.575 -0.182,-1.013 -0.671,-5.695 -0.489,-4.683 -1.395,-8.392 -0.906,-3.709 -1.208,-4.373 -0.302,-0.664 -0.739,-1.343 -0.436,-0.68 -0.789,-1.087 -0.354,-0.406 -0.673,-0.672 -0.319,-0.267 -0.749,-0.672 -0.431,-0.406 -1.261,-0.99 -0.83,-0.583 -2.406,-1.188 -1.575,-0.605 -4.525,-1.23 -2.95,-0.624 -6.002,-0.758 -3.053,-0.133 -4.83,-0.041 -1.777,0.093 -2.448,0.186 -0.67,0.094 -1.92,0.242 -1.251,0.148 -1.359,0.136 -0.109,-0.013 -4.323,0.561 -4.213,0.574 -6.957,0.937 -2.744,0.364 -3.767,0.464 -1.023,0.1 -4.683,0.456 -3.66,0.355 -5.72,0.61 -2.061,0.254 -2.687,0.381 -0.626,0.126 -3.137,0.659 -2.51,0.532 -5.416,1.209 -2.906,0.677 -4.514,1.159 -1.608,0.483 -2.781,0.932 -1.174,0.449 -1.549,0.631 -0.375,0.181 -1.851,0.882 -1.475,0.7 -2.526,1.288 -1.051,0.588 -1.447,0.819 -0.396,0.232 -1.149,1.016 -0.753,0.784 -1.054,1.142 -0.301,0.357 -0.576,0.962 -0.275,0.604 -0.667,2.126 -0.393,1.522 -0.45,2.22 -0.058,0.697 -0.055,1.076 0.003,0.378 0.121,3.018 0.117,2.639 0.273,3.979 0.156,1.34 0.271,2.093 0.115,0.752 0.398,2.903 0.284,2.151 0.327,2.303 0.044,0.152 1.205,8.833" /><path
     id="STROKE_71924803-4754-435a-a358-d20eb7b7080b"
     opacity="1"
     fill="none"
     stroke="#000000"
     stroke-width="5"
     stroke-opacity="1"
     stroke-linecap="round"
     stroke-linejoin="round"
     d="m -324.237,618.239 q -0.04,0.378 0.148,4.246 0.187,3.867 0.239,6.524 0.052,2.656 0.204,7.397 0.151,4.741 0.422,8.729 0.27,3.989 0.414,5.629 0.145,1.64 0.645,4.738 0.5,3.097 0.852,4.335 0.352,1.238 0.785,2.02 0.433,0.782 0.936,1.452 0.503,0.67 0.568,0.758 0.065,0.089 0.564,0.557 0.499,0.468 1.362,0.921 0.862,0.452 2.913,1.09 2.051,0.638 3.809,0.67 1.757,0.031 3.806,-0.068 2.048,-0.099 4.508,-0.246 2.459,-0.147 3.622,-0.294 1.164,-0.147 2.666,-0.306 1.503,-0.159 2.038,-0.187 0.535,-0.028 2.289,-0.212 1.754,-0.184 3.194,-0.383 1.439,-0.199 2.877,-0.305 1.438,-0.106 4.224,-0.211 2.785,-0.106 2.956,-0.126 0.171,-0.021 1.847,-0.031 1.675,-0.01 3.02,0.006 1.345,0.016 2.695,-0.011 1.35,-0.027 4.626,-0.23 3.277,-0.202 4.491,-0.309 1.213,-0.107 2.135,-0.217 0.923,-0.109 1.746,-0.186 0.824,-0.076 4.346,-0.553 3.522,-0.477 5.089,-0.871 1.568,-0.394 3.098,-1.053 1.53,-0.659 2.148,-1.069 0.618,-0.409 1.36,-1.136 0.742,-0.728 1.472,-1.886 0.73,-1.159 1.312,-2.915 0.582,-1.757 0.709,-2.332 0.127,-0.575 0.468,-4.908 0.34,-4.332 0.114,-10.084 -0.226,-5.753 -0.468,-10.178 -0.242,-4.426 -0.413,-6.498 -0.171,-2.073 -0.584,-5.122 -0.413,-3.05 -0.669,-5.27 -0.256,-2.22 -0.412,-3.783 -0.156,-1.563 -0.339,-2.575 -0.182,-1.013 -0.671,-5.695 -0.489,-4.683 -1.395,-8.392 -0.906,-3.709 -1.208,-4.373 -0.302,-0.664 -0.739,-1.343 -0.436,-0.68 -0.789,-1.087 -0.354,-0.406 -0.673,-0.672 -0.319,-0.267 -0.749,-0.672 -0.431,-0.406 -1.261,-0.99 -0.83,-0.583 -2.406,-1.188 -1.575,-0.605 -4.525,-1.23 -2.95,-0.624 -6.002,-0.758 -3.053,-0.133 -4.83,-0.041 -1.777,0.093 -2.448,0.186 -0.67,0.094 -1.92,0.242 -1.251,0.148 -1.359,0.136 -0.109,-0.013 -4.323,0.561 -4.213,0.574 -6.957,0.937 -2.744,0.364 -3.767,0.464 -1.023,0.1 -4.683,0.456 -3.66,0.355 -5.72,0.61 -2.061,0.254 -2.687,0.381 -0.626,0.126 -3.137,0.659 -2.51,0.532 -5.416,1.209 -2.906,0.677 -4.514,1.159 -1.608,0.483 -2.781,0.932 -1.174,0.449 -1.549,0.631 -0.375,0.181 -1.851,0.882 -1.475,0.7 -2.526,1.288 -1.051,0.588 -1.447,0.819 -0.396,0.232 -1.149,1.016 -0.753,0.784 -1.054,1.142 -0.301,0.357 -0.576,0.962 -0.275,0.604 -0.667,2.126 -0.393,1.522 -0.45,2.22 -0.058,0.697 -0.055,1.076 0.003,0.378 0.121,3.018 0.117,2.639 0.273,3.979 0.156,1.34 0.271,2.093 0.115,0.752 0.398,2.903 0.284,2.151 0.327,2.303 0.044,0.152 1.205,8.833" /><path
     id="STROKE_9d781920-1223-495b-b82e-33c9c563ffc5"
     opacity="1"
     fill="none"
     stroke="#000000"
     stroke-width="5"
     stroke-opacity="1"
     stroke-linecap="round"
     stroke-linejoin="round"
     d="m -219.237,614.739 q -0.04,0.378 0.148,4.246 0.187,3.867 0.239,6.524 0.052,2.656 0.204,7.397 0.151,4.741 0.422,8.729 0.27,3.989 0.415,5.629 0.144,1.64 0.644,4.738 0.5,3.097 0.852,4.335 0.352,1.238 0.785,2.02 0.433,0.782 0.936,1.452 0.503,0.67 0.568,0.758 0.065,0.089 0.564,0.557 0.499,0.468 1.362,0.921 0.862,0.452 2.913,1.09 2.051,0.638 3.809,0.67 1.757,0.031 3.806,-0.068 2.048,-0.099 4.508,-0.246 2.459,-0.147 3.622,-0.294 1.164,-0.147 2.666,-0.306 1.503,-0.159 2.038,-0.187 0.535,-0.028 2.289,-0.212 1.754,-0.184 3.194,-0.383 1.439,-0.199 2.877,-0.305 1.438,-0.106 4.224,-0.211 2.785,-0.106 2.956,-0.126 0.171,-0.021 1.847,-0.031 1.675,-0.01 3.02,0.006 1.345,0.016 2.695,-0.011 1.35,-0.027 4.626,-0.23 3.277,-0.202 4.491,-0.309 1.213,-0.107 2.135,-0.217 0.923,-0.109 1.746,-0.186 0.824,-0.076 4.346,-0.553 3.522,-0.477 5.089,-0.871 1.568,-0.394 3.098,-1.053 1.53,-0.659 2.148,-1.069 0.618,-0.409 1.36,-1.136 0.742,-0.728 1.472,-1.886 0.73,-1.159 1.312,-2.915 0.582,-1.757 0.709,-2.332 0.127,-0.575 0.468,-4.908 0.34,-4.332 0.114,-10.084 -0.226,-5.753 -0.468,-10.178 -0.242,-4.426 -0.413,-6.498 -0.171,-2.073 -0.584,-5.122 -0.413,-3.05 -0.669,-5.27 -0.256,-2.22 -0.412,-3.783 -0.156,-1.563 -0.339,-2.575 -0.182,-1.013 -0.671,-5.695 -0.489,-4.683 -1.395,-8.392 -0.906,-3.709 -1.208,-4.373 -0.302,-0.664 -0.739,-1.343 -0.436,-0.68 -0.789,-1.087 -0.354,-0.406 -0.673,-0.672 -0.319,-0.267 -0.749,-0.672 -0.431,-0.406 -1.261,-0.99 -0.83,-0.583 -2.406,-1.188 -1.575,-0.605 -4.525,-1.23 -2.95,-0.624 -6.003,-0.758 -3.052,-0.133 -4.829,-0.041 -1.777,0.093 -2.448,0.186 -0.67,0.094 -1.92,0.242 -1.251,0.148 -1.359,0.136 -0.109,-0.013 -4.323,0.561 -4.213,0.574 -6.957,0.937 -2.744,0.364 -3.767,0.464 -1.023,0.1 -4.683,0.456 -3.66,0.355 -5.72,0.61 -2.061,0.254 -2.687,0.381 -0.626,0.126 -3.137,0.659 -2.51,0.532 -5.416,1.209 -2.906,0.677 -4.514,1.159 -1.608,0.483 -2.781,0.932 -1.174,0.449 -1.549,0.631 -0.375,0.181 -1.851,0.882 -1.475,0.7 -2.526,1.288 -1.051,0.588 -1.447,0.819 -0.396,0.232 -1.149,1.016 -0.753,0.784 -1.054,1.142 -0.301,0.357 -0.576,0.962 -0.275,0.604 -0.667,2.126 -0.393,1.522 -0.45,2.22 -0.058,0.697 -0.055,1.076 0.003,0.378 0.121,3.018 0.117,2.639 0.273,3.979 0.156,1.34 0.271,2.093 0.115,0.752 0.398,2.903 0.284,2.151 0.327,2.303 0.044,0.152 1.205,8.833" /><circle
     id="STROKE_4df8786b-3770-4365-88e2-d95a7189b630"
     opacity="1"
     fill="#000000"
     stroke="#000000"
     stroke-width="0.1"
     stroke-opacity="1"
     fill-opacity="1"
     cx="-110.761"
     cy="621.96899"
     r="2.5" /><circle
     id="STROKE_b084f4ef-1ae2-4752-b2c3-a0d4e52753b8"
     opacity="1"
     fill="#000000"
     stroke="#000000"
     stroke-width="0.1"
     stroke-opacity="1"
     fill-opacity="1"
     cx="-95.074997"
     cy="621.30701"
     r="2.5" /><circle
     id="STROKE_01155f95-156f-490a-8a5f-4e5f450f2464"
     opacity="1"
     fill="#000000"
     stroke="#000000"
     stroke-width="0.1"
     stroke-opacity="1"
     fill-opacity="1"
     cx="-78.713997"
     cy="620.44202"
     r="2.5" /><circle
     id="STROKE_9453b594-4790-4fc0-9c5c-9b5f41929a7e"
     opacity="1"
     fill="#000000"
     stroke="#000000"
     stroke-width="0.1"
     stroke-opacity="1"
     fill-opacity="1"
     cx="-307.76099"
     cy="847.46899"
     r="2.5" /><circle
     id="STROKE_c797e7db-b756-48bf-b57f-33803b0a62c0"
     opacity="1"
     fill="#000000"
     stroke="#000000"
     stroke-width="0.1"
     stroke-opacity="1"
     fill-opacity="1"
     cx="-292.07501"
     cy="846.80701"
     r="2.5" /><circle
     id="STROKE_431a0fe6-8468-4f1b-b1c8-65b4179f46e6"
     opacity="1"
     fill="#000000"
     stroke="#000000"
     stroke-width="0.1"
     stroke-opacity="1"
     fill-opacity="1"
     cx="-275.71399"
     cy="845.94202"
     r="2.5" /><path
     id="STROKE_7eb9946b-da99-4526-96fd-889afa535c7f"
     opacity="1"
     fill="none"
     stroke="#000000"
     stroke-width="5"
     stroke-opacity="1"
     stroke-linecap="round"
     stroke-linejoin="round"
     d="m -414.023,835.63 q -0.04,0.377 0.147,4.245 0.188,3.868 0.24,6.524 0.051,2.656 0.203,7.397 0.152,4.741 0.422,8.73 0.271,3.988 0.415,5.628 0.144,1.641 0.644,4.738 0.501,3.098 0.853,4.336 0.352,1.238 0.785,2.019 0.433,0.782 0.936,1.452 0.503,0.67 0.568,0.759 0.064,0.088 0.564,0.556 0.499,0.468 1.361,0.921 0.863,0.452 2.913,1.091 2.051,0.638 3.809,0.669 1.758,0.032 3.806,-0.067 2.049,-0.1 4.508,-0.247 2.46,-0.147 3.623,-0.294 1.163,-0.147 2.666,-0.306 1.503,-0.159 2.038,-0.187 0.535,-0.028 2.289,-0.212 1.754,-0.184 3.193,-0.383 1.44,-0.198 2.878,-0.304 1.438,-0.106 4.223,-0.212 2.786,-0.105 2.957,-0.126 0.17,-0.021 1.846,-0.031 1.676,-0.01 3.021,0.006 1.345,0.016 2.694,-0.011 1.35,-0.027 4.627,-0.229 3.277,-0.203 4.49,-0.31 1.214,-0.107 2.136,-0.216 0.922,-0.11 1.746,-0.186 0.824,-0.077 4.346,-0.554 3.521,-0.477 5.089,-0.871 1.568,-0.394 3.098,-1.053 1.53,-0.659 2.148,-1.068 0.618,-0.41 1.36,-1.137 0.742,-0.727 1.472,-1.886 0.729,-1.158 1.311,-2.915 0.582,-1.757 0.71,-2.332 0.127,-0.575 0.467,-4.908 0.341,-4.332 0.115,-10.084 -0.227,-5.753 -0.469,-10.178 -0.241,-4.425 -0.413,-6.498 -0.171,-2.072 -0.584,-5.122 -0.412,-3.05 -0.668,-5.27 -0.256,-2.22 -0.412,-3.782 -0.157,-1.563 -0.339,-2.576 -0.182,-1.012 -0.671,-5.695 -0.489,-4.682 -1.395,-8.392 -0.906,-3.709 -1.208,-4.373 -0.303,-0.663 -0.739,-1.343 -0.436,-0.68 -0.79,-1.087 -0.353,-0.406 -0.672,-0.672 -0.319,-0.266 -0.75,-0.672 -0.43,-0.406 -1.26,-0.989 -0.831,-0.584 -2.406,-1.189 -1.575,-0.605 -4.525,-1.229 -2.95,-0.625 -6.003,-0.758 -3.052,-0.134 -4.83,-0.041 -1.777,0.092 -2.447,0.186 -0.67,0.094 -1.921,0.242 -1.25,0.148 -1.359,0.135 -0.109,-0.013 -4.322,0.561 -4.213,0.574 -6.958,0.938 -2.744,0.363 -3.767,0.463 -1.023,0.1 -4.683,0.456 -3.659,0.356 -5.72,0.61 -2.06,0.254 -2.686,0.381 -0.626,0.127 -3.137,0.659 -2.511,0.532 -5.417,1.209 -2.905,0.677 -4.513,1.16 -1.608,0.482 -2.782,0.931 -1.173,0.45 -1.548,0.631 -0.375,0.182 -1.851,0.882 -1.475,0.7 -2.527,1.288 -1.051,0.588 -1.446,0.819 -0.396,0.232 -1.149,1.016 -0.753,0.785 -1.054,1.142 -0.302,0.357 -0.576,0.962 -0.275,0.604 -0.668,2.126 -0.392,1.522 -0.45,2.22 -0.057,0.698 -0.054,1.076 0.003,0.378 0.121,3.018 0.117,2.64 0.273,3.98 0.156,1.34 0.271,2.092 0.114,0.752 0.398,2.903 0.283,2.151 0.327,2.303 0.044,0.152 1.204,8.833" /><path
     id="STROKE_cf6e7ffc-cfff-48cb-86dd-b6a530b9b785"
     opacity="1"
     fill="none"
     stroke="#000000"
     stroke-width="2"
     stroke-opacity="1"
     stroke-linecap="round"
     stroke-linejoin="round"
     d="m -530.29,595.341 q 0.069,2.044 0.227,4.808 0.158,2.765 0.431,6.631 0.273,3.866 0.42,6.173 0.147,2.308 0.507,10.067" /><path
     id="STROKE_8009e05d-0bda-4a88-859d-0bb00047d2b5"
     opacity="1"
     fill="none"
     stroke="#000000"
     stroke-width="2"
     stroke-opacity="1"
     stroke-linecap="round"
     stroke-linejoin="round"
     d="m -529.361,594.68 q 1.218,0.093 2.789,0.122 1.57,0.03 2.752,0.028 1.181,-0.002 4.063,-0.042 2.881,-0.04 6.375,-0.067 3.493,-0.027 4.167,-0.01 0.673,0.017 6.472,0.096" /><path
     id="STROKE_c34fa2e4-403b-4742-913d-81c0e280448b"
     opacity="1"
     fill="none"
     stroke="#000000"
     stroke-width="2"
     stroke-opacity="1"
     stroke-linecap="round"
     stroke-linejoin="round"
     d="m -501.759,596.143 q 0.141,3.166 1.13,13.751 l 0.4,3.06" /><path
     id="STROKE_29e9a261-884c-4f36-8c08-8eef032a6bb8"
     opacity="1"
     fill="none"
     stroke="#000000"
     stroke-width="2"
     stroke-opacity="1"
     stroke-linecap="round"
     stroke-linejoin="round"
     d="m -526.592,623.936 q 1.175,-0.025 1.528,-0.003 0.353,0.022 1.962,0.018 1.609,-0.003 3.406,-0.043 1.797,-0.04 4.758,-0.355 2.96,-0.315 5.909,-0.8" /><path
     id="STROKE_d060ca99-2e26-4a85-a32e-4905ec3c537b"
     opacity="1"
     fill="none"
     stroke="#000000"
     stroke-width="2"
     stroke-opacity="1"
     stroke-linecap="round"
     stroke-linejoin="round"
     d="m -514.889,602.067 q 0.245,6.368 0.528,12.764" /><path
     id="STROKE_ebc47a21-e860-4c86-9d8c-a001539955ad"
     opacity="1"
     fill="none"
     stroke="#000000"
     stroke-width="2"
     stroke-opacity="1"
     stroke-linecap="round"
     stroke-linejoin="round"
     d="m -530.29,595.341 q 0.069,2.044 0.227,4.808 0.158,2.765 0.431,6.631 0.273,3.866 0.42,6.173 0.147,2.308 0.507,10.067" /><path
     id="STROKE_c2de8280-b4f6-46fb-9c88-71181911f4be"
     opacity="1"
     fill="none"
     stroke="#000000"
     stroke-width="2"
     stroke-opacity="1"
     stroke-linecap="round"
     stroke-linejoin="round"
     d="m -501.759,596.143 q 0.141,3.166 1.13,13.751 l 0.4,3.06" /><path
     id="STROKE_16a5fdab-0432-49ad-9bb8-9a6eaf414474"
     opacity="1"
     fill="none"
     stroke="#000000"
     stroke-width="2"
     stroke-opacity="1"
     stroke-linecap="round"
     stroke-linejoin="round"
     d="m -526.592,623.936 q 1.175,-0.025 1.528,-0.003 0.353,0.022 1.962,0.018 1.609,-0.003 3.406,-0.043 1.797,-0.04 4.758,-0.355 2.96,-0.315 5.909,-0.8" /><path
     id="STROKE_c6450d2d-5ba3-4ace-83ee-30fa850fca0c"
     opacity="1"
     fill="none"
     stroke="#000000"
     stroke-width="2"
     stroke-opacity="1"
     stroke-linecap="round"
     stroke-linejoin="round"
     d="m -508.437,622.447 q 2.121,-1.916 7.807,-7.699" /><path
     id="STROKE_8936193f-9e1a-47fd-aace-6aff8a00bcd3"
     opacity="1"
     fill="none"
     stroke="#000000"
     stroke-width="2"
     stroke-opacity="1"
     stroke-linecap="round"
     stroke-linejoin="round"
     d="m -514.889,602.067 q 0.245,6.368 0.528,12.764" /><path
     id="STROKE_b0137e35-8b4c-4ea7-939a-75cabbb70968"
     opacity="1"
     fill="none"
     stroke="#000000"
     stroke-width="2"
     stroke-opacity="1"
     stroke-linecap="round"
     stroke-linejoin="round"
     d="m -420.903,595.57 q 0.068,2.044 0.227,4.808 0.158,2.765 0.431,6.631 0.272,3.866 0.42,6.174 0.147,2.307 0.507,10.066" /><path
     id="STROKE_d61d4ba3-d9a3-4921-b2ab-fb0db6219e51"
     opacity="1"
     fill="none"
     stroke="#000000"
     stroke-width="2"
     stroke-opacity="1"
     stroke-linecap="round"
     stroke-linejoin="round"
     d="m -419.974,594.909 q 1.218,0.093 2.788,0.122 1.571,0.03 2.753,0.028 1.181,-0.002 4.062,-0.042 2.882,-0.04 6.376,-0.067 3.493,-0.027 4.166,-0.01 0.674,0.017 6.473,0.096" /><path
     id="STROKE_c1a7110c-b9dc-4b75-8faa-1bb82e1fbd44"
     opacity="1"
     fill="none"
     stroke="#000000"
     stroke-width="2"
     stroke-opacity="1"
     stroke-linecap="round"
     stroke-linejoin="round"
     d="m -392.373,596.372 q 0.142,3.166 1.131,13.751 l 0.4,3.06" /><path
     id="STROKE_2a885637-6811-46de-bdb3-187a15a3265d"
     opacity="1"
     fill="none"
     stroke="#000000"
     stroke-width="2"
     stroke-opacity="1"
     stroke-linecap="round"
     stroke-linejoin="round"
     d="m -417.205,624.165 q 1.175,-0.025 1.528,-0.003 0.353,0.022 1.962,0.019 1.609,-0.004 3.406,-0.044 1.797,-0.04 4.758,-0.355 2.96,-0.315 5.909,-0.8" /><path
     id="STROKE_dddb5c7e-6dc3-4b5b-8e42-5f994957c283"
     opacity="1"
     fill="none"
     stroke="#000000"
     stroke-width="2"
     stroke-opacity="1"
     stroke-linecap="round"
     stroke-linejoin="round"
     d="m -405.502,602.296 q 0.244,6.368 0.528,12.764" /><path
     id="STROKE_bed60b3f-627a-4d8d-ad60-992ebee9e08c"
     opacity="1"
     fill="none"
     stroke="#000000"
     stroke-width="2"
     stroke-opacity="1"
     stroke-linecap="round"
     stroke-linejoin="round"
     d="m -420.903,595.57 q 0.068,2.044 0.227,4.808 0.158,2.765 0.431,6.631 0.272,3.866 0.42,6.174 0.147,2.307 0.507,10.066" /><path
     id="STROKE_a260b6dd-e5e3-4515-b49f-2230af0c3bbc"
     opacity="1"
     fill="none"
     stroke="#000000"
     stroke-width="2"
     stroke-opacity="1"
     stroke-linecap="round"
     stroke-linejoin="round"
     d="m -392.373,596.372 q 0.142,3.166 1.131,13.751 l 0.4,3.06" /><path
     id="STROKE_07dffa5c-0042-4b81-88cd-25dd1333dbd1"
     opacity="1"
     fill="none"
     stroke="#000000"
     stroke-width="2"
     stroke-opacity="1"
     stroke-linecap="round"
     stroke-linejoin="round"
     d="m -417.205,624.165 q 1.175,-0.025 1.528,-0.003 0.353,0.022 1.962,0.019 1.609,-0.004 3.406,-0.044 1.797,-0.04 4.758,-0.355 2.96,-0.315 5.909,-0.8" /><path
     id="STROKE_bd99d546-bc09-4644-b5f7-ccaef0755cc7"
     opacity="1"
     fill="none"
     stroke="#000000"
     stroke-width="2"
     stroke-opacity="1"
     stroke-linecap="round"
     stroke-linejoin="round"
     d="m -399.05,622.676 q 2.12,-1.916 7.807,-7.699" /><path
     id="STROKE_f7040808-3ac6-4a37-b005-6245f3b59bb9"
     opacity="1"
     fill="none"
     stroke="#000000"
     stroke-width="2"
     stroke-opacity="1"
     stroke-linecap="round"
     stroke-linejoin="round"
     d="m -405.502,602.296 q 0.244,6.368 0.528,12.764" /><path
     id="STROKE_78717f8e-8b55-4b0e-8c0c-1fb70042425a"
     opacity="1"
     fill="none"
     stroke="#000000"
     stroke-width="2"
     stroke-opacity="1"
     stroke-linecap="round"
     stroke-linejoin="round"
     d="m -315.58,598.7 q 0.068,2.044 0.227,4.808 0.158,2.765 0.431,6.631 0.272,3.866 0.42,6.173 0.147,2.308 0.507,10.067" /><path
     id="STROKE_e8e55e6a-cd6e-4b2d-8d21-e8a6a46de20e"
     opacity="1"
     fill="none"
     stroke="#000000"
     stroke-width="2"
     stroke-opacity="1"
     stroke-linecap="round"
     stroke-linejoin="round"
     d="m -314.651,598.039 q 1.218,0.093 2.789,0.122 1.57,0.03 2.752,0.028 1.181,-0.002 4.063,-0.042 2.881,-0.04 6.375,-0.067 3.493,-0.027 4.166,-0.01 0.674,0.017 6.473,0.096" /><path
     id="STROKE_6454654e-01dc-4cd4-819b-a3b9e7b3da78"
     opacity="1"
     fill="none"
     stroke="#000000"
     stroke-width="2"
     stroke-opacity="1"
     stroke-linecap="round"
     stroke-linejoin="round"
     d="m -287.049,599.502 q 0.141,3.166 1.13,13.751 l 0.4,3.06" /><path
     id="STROKE_4d8e2f49-4f46-4768-a9b5-91893395db51"
     opacity="1"
     fill="none"
     stroke="#000000"
     stroke-width="2"
     stroke-opacity="1"
     stroke-linecap="round"
     stroke-linejoin="round"
     d="m -311.882,627.295 q 1.175,-0.025 1.528,-0.003 0.353,0.022 1.962,0.018 1.609,-0.003 3.406,-0.043 1.797,-0.04 4.758,-0.355 2.96,-0.315 5.909,-0.8" /><path
     id="STROKE_003d9f75-8af9-487a-a162-ae4352727c4c"
     opacity="1"
     fill="none"
     stroke="#000000"
     stroke-width="2"
     stroke-opacity="1"
     stroke-linecap="round"
     stroke-linejoin="round"
     d="m -300.179,605.426 q 0.244,6.368 0.528,12.764" /><path
     id="STROKE_9360b2bf-e332-428a-8421-a6b06c04851a"
     opacity="1"
     fill="none"
     stroke="#000000"
     stroke-width="2"
     stroke-opacity="1"
     stroke-linecap="round"
     stroke-linejoin="round"
     d="m -315.58,598.7 q 0.068,2.044 0.227,4.808 0.158,2.765 0.431,6.631 0.272,3.866 0.42,6.173 0.147,2.308 0.507,10.067" /><path
     id="STROKE_019a2d39-1d3f-4e62-9df6-f5861714d415"
     opacity="1"
     fill="none"
     stroke="#000000"
     stroke-width="2"
     stroke-opacity="1"
     stroke-linecap="round"
     stroke-linejoin="round"
     d="m -287.049,599.502 q 0.141,3.166 1.13,13.751 l 0.4,3.06" /><path
     id="STROKE_1dfb5e31-7234-42b0-86f5-6223fe972c7f"
     opacity="1"
     fill="none"
     stroke="#000000"
     stroke-width="2"
     stroke-opacity="1"
     stroke-linecap="round"
     stroke-linejoin="round"
     d="m -311.882,627.295 q 1.175,-0.025 1.528,-0.003 0.353,0.022 1.962,0.018 1.609,-0.003 3.406,-0.043 1.797,-0.04 4.758,-0.355 2.96,-0.315 5.909,-0.8" /><path
     id="STROKE_871ac07e-4945-4bda-871a-d557690cb9c7"
     opacity="1"
     fill="none"
     stroke="#000000"
     stroke-width="2"
     stroke-opacity="1"
     stroke-linecap="round"
     stroke-linejoin="round"
     d="m -293.727,625.806 q 2.12,-1.916 7.807,-7.699" /><path
     id="STROKE_06a7eec1-5311-4564-b4ac-0afc2f8d84da"
     opacity="1"
     fill="none"
     stroke="#000000"
     stroke-width="2"
     stroke-opacity="1"
     stroke-linecap="round"
     stroke-linejoin="round"
     d="m -300.179,605.426 q 0.244,6.368 0.528,12.764" /><path
     id="STROKE_fdcc1c1c-c96c-4f24-a5b0-63f77c93a4e9"
     opacity="1"
     fill="none"
     stroke="#000000"
     stroke-width="2"
     stroke-opacity="1"
     stroke-linecap="round"
     stroke-linejoin="round"
     d="m -209.33,592.95 q 0.068,2.044 0.227,4.808 0.158,2.765 0.431,6.631 0.272,3.866 0.42,6.173 0.147,2.308 0.507,10.067" /><path
     id="STROKE_440ab553-13df-421a-afe5-1b92e2fcea70"
     opacity="1"
     fill="none"
     stroke="#000000"
     stroke-width="2"
     stroke-opacity="1"
     stroke-linecap="round"
     stroke-linejoin="round"
     d="m -208.401,592.289 q 1.218,0.093 2.789,0.122 1.57,0.03 2.752,0.028 1.181,-0.002 4.063,-0.042 2.881,-0.04 6.375,-0.067 3.493,-0.027 4.166,-0.01 0.674,0.017 6.473,0.096" /><path
     id="STROKE_782da535-ce53-4c94-910e-b10fb5bfb60c"
     opacity="1"
     fill="none"
     stroke="#000000"
     stroke-width="2"
     stroke-opacity="1"
     stroke-linecap="round"
     stroke-linejoin="round"
     d="m -180.799,593.752 q 0.141,3.166 1.13,13.751 l 0.4,3.06" /><path
     id="STROKE_35735fff-7ade-41d6-8ac2-fa53f61ce2a4"
     opacity="1"
     fill="none"
     stroke="#000000"
     stroke-width="2"
     stroke-opacity="1"
     stroke-linecap="round"
     stroke-linejoin="round"
     d="m -205.632,621.545 q 1.175,-0.025 1.528,-0.003 0.353,0.022 1.962,0.018 1.609,-0.003 3.406,-0.043 1.797,-0.04 4.758,-0.355 2.96,-0.315 5.909,-0.8" /><path
     id="STROKE_704e2218-a200-436a-8faf-8c7c08e5da98"
     opacity="1"
     fill="none"
     stroke="#000000"
     stroke-width="2"
     stroke-opacity="1"
     stroke-linecap="round"
     stroke-linejoin="round"
     d="m -193.929,599.676 q 0.244,6.368 0.528,12.764" /><path
     id="STROKE_1d862f50-7d88-4c78-a6a1-7c4686ab3d09"
     opacity="1"
     fill="none"
     stroke="#000000"
     stroke-width="2"
     stroke-opacity="1"
     stroke-linecap="round"
     stroke-linejoin="round"
     d="m -209.33,592.95 q 0.068,2.044 0.227,4.808 0.158,2.765 0.431,6.631 0.272,3.866 0.42,6.173 0.147,2.308 0.507,10.067" /><path
     id="STROKE_df042c5f-1861-4497-8ea8-92d9875e5594"
     opacity="1"
     fill="none"
     stroke="#000000"
     stroke-width="2"
     stroke-opacity="1"
     stroke-linecap="round"
     stroke-linejoin="round"
     d="m -180.799,593.752 q 0.141,3.166 1.13,13.751 l 0.4,3.06" /><path
     id="STROKE_9ec54295-d1a4-4424-acfa-395bd279e450"
     opacity="1"
     fill="none"
     stroke="#000000"
     stroke-width="2"
     stroke-opacity="1"
     stroke-linecap="round"
     stroke-linejoin="round"
     d="m -205.632,621.545 q 1.175,-0.025 1.528,-0.003 0.353,0.022 1.962,0.018 1.609,-0.003 3.406,-0.043 1.797,-0.04 4.758,-0.355 2.96,-0.315 5.909,-0.8" /><path
     id="STROKE_227c18bb-c1b7-4623-baac-fa604498e34f"
     opacity="1"
     fill="none"
     stroke="#000000"
     stroke-width="2"
     stroke-opacity="1"
     stroke-linecap="round"
     stroke-linejoin="round"
     d="m -187.477,620.056 q 2.12,-1.916 7.807,-7.699" /><path
     id="STROKE_66406589-b551-4f3d-afdb-95889867c356"
     opacity="1"
     fill="none"
     stroke="#000000"
     stroke-width="2"
     stroke-opacity="1"
     stroke-linecap="round"
     stroke-linejoin="round"
     d="m -193.929,599.676 q 0.244,6.368 0.528,12.764" /><path
     id="STROKE_9204ad1b-6035-41f0-b18a-29784121c62f"
     opacity="1"
     fill="none"
     stroke="#000000"
     stroke-width="2"
     stroke-opacity="1"
     stroke-linecap="round"
     stroke-linejoin="round"
     d="m -267.939,638.473 q 0.612,-0.13 3.315,-0.582 2.703,-0.451 4.623,-1.03 1.92,-0.579 2.689,-0.983 0.768,-0.405 1.093,-0.648 0.326,-0.243 1.028,-1.124 0.703,-0.88 0.904,-1.395 0.201,-0.515 0.256,-0.848 0.054,-0.333 0.041,-0.648 -0.014,-0.314 -0.104,-0.663 -0.091,-0.348 -0.207,-0.571 -0.116,-0.222 -0.514,-0.611 -0.397,-0.389 -1.167,-0.561 -0.769,-0.172 -1.242,-0.063 -0.472,0.109 -0.743,0.264 -0.272,0.155 -0.525,0.399 -0.254,0.244 -0.39,0.427 -0.136,0.183 -0.368,0.7 -0.232,0.517 -0.423,1.528 -0.19,1.01 -0.216,1.707 -0.026,0.696 0.139,2.523 0.165,1.827 0.271,2.509 0.106,0.681 0.419,2.418 0.313,1.736 0.625,3.167 0.312,1.431 1.106,3.613 0.793,2.182 1.122,2.721 0.329,0.539 0.733,0.975 0.404,0.435 0.84,0.714 0.436,0.279 0.97,0.445 0.534,0.165 0.841,0.164 0.306,-10e-4 0.435,-0.027 0.129,-0.026 0.422,-0.15 0.293,-0.124 0.734,-0.5 0.44,-0.377 0.723,-1.007 0.283,-0.631 0.275,-1.072 -0.008,-0.442 -0.04,-0.565 -0.031,-0.123 -0.174,-0.421 -0.142,-0.299 -0.258,-0.453 -0.116,-0.155 -0.746,-0.642 -0.631,-0.488 -1.4,-0.79 -0.77,-0.303 -1.368,-0.434 -0.597,-0.131 -1.052,-0.2 -0.455,-0.068 -1.447,-0.145 -0.991,-0.077 -2.284,-0.034 -1.292,0.043 -1.96,0.121 -0.667,0.078 -1.669,0.262 -1.002,0.184 -2.059,0.461 -1.058,0.278 -1.62,0.464 -0.563,0.186 -1.242,0.457 -0.68,0.27 -1.296,0.559 -0.617,0.289 -1.041,0.53 -0.424,0.241 -1.236,0.876 -0.813,0.636 -1.065,0.906 -0.251,0.27 -0.476,0.576 -0.224,0.307 -0.459,1.018 -0.234,0.711 -0.209,1.228 0.025,0.518 0.141,0.828 0.116,0.31 0.38,0.657 0.264,0.347 0.836,0.657 0.573,0.309 0.9,0.373 0.326,0.064 0.573,0.061 0.247,-0.003 0.433,-0.032 0.186,-0.028 0.782,-0.294 0.596,-0.266 0.878,-0.497 0.282,-0.23 0.553,-0.567 0.271,-0.337 0.515,-0.837 0.243,-0.5 0.377,-1.084 0.134,-0.584 0.168,-1.12 0.033,-0.536 -0.033,-1.335 -0.065,-0.799 -0.194,-1.571 -0.129,-0.772 -0.43,-2.133 -0.301,-1.36 -0.386,-1.758 -0.085,-0.399 -0.256,-1.2 -0.171,-0.801 -0.532,-2.538 -0.36,-1.737 -0.614,-2.998 -0.254,-1.26 -0.53,-2.408 -0.277,-1.147 -0.675,-2.178 -0.399,-1.032 -0.675,-1.459 -0.275,-0.428 -0.541,-0.689 -0.266,-0.262 -0.493,-0.388 -0.227,-0.127 -0.713,-0.234 -0.485,-0.107 -0.852,-0.047 -0.366,0.061 -0.607,0.165 -0.241,0.104 -0.463,0.236 -0.223,0.132 -0.449,0.322 -0.226,0.19 -0.747,1.008 -0.52,0.817 -0.648,1.421 -0.127,0.603 0.024,1.354 0.152,0.751 0.202,0.854 0.051,0.104 0.189,0.294 0.139,0.191 0.943,0.721 0.804,0.53 1.303,0.685 0.498,0.155 0.9,0.226 0.402,0.071 0.785,0.101 0.383,0.031 0.778,0.027 0.395,-0.003 0.622,-0.016 0.227,-0.014 0.484,-0.043 0.257,-0.03 0.59,-0.079 0.332,-0.05 0.573,-0.099 0.241,-0.05 0.336,-0.077 0.095,-0.027 0.918,-0.177" /><path
     id="STROKE_3ac7461a-4a31-47e0-9c08-8a9b598cc3d1"
     opacity="1"
     fill="none"
     stroke="#000000"
     stroke-width="2"
     stroke-opacity="1"
     stroke-linecap="round"
     stroke-linejoin="round"
     d="m -372.689,637.223 q 0.612,-0.13 3.315,-0.582 2.703,-0.451 4.623,-1.03 1.92,-0.579 2.689,-0.983 0.768,-0.405 1.093,-0.648 0.326,-0.243 1.028,-1.124 0.703,-0.88 0.904,-1.395 0.201,-0.515 0.256,-0.848 0.054,-0.333 0.041,-0.648 -0.014,-0.314 -0.104,-0.663 -0.091,-0.348 -0.207,-0.571 -0.116,-0.222 -0.514,-0.611 -0.397,-0.389 -1.167,-0.561 -0.769,-0.172 -1.242,-0.063 -0.472,0.109 -0.743,0.264 -0.272,0.155 -0.525,0.399 -0.254,0.244 -0.39,0.427 -0.136,0.183 -0.368,0.7 -0.232,0.517 -0.423,1.528 -0.19,1.01 -0.216,1.707 -0.026,0.696 0.139,2.523 0.165,1.827 0.271,2.509 0.106,0.681 0.419,2.418 0.313,1.736 0.625,3.167 0.312,1.431 1.106,3.613 0.793,2.182 1.122,2.721 0.329,0.539 0.733,0.975 0.404,0.435 0.84,0.714 0.436,0.279 0.97,0.445 0.534,0.165 0.841,0.164 0.306,-10e-4 0.435,-0.027 0.129,-0.026 0.422,-0.15 0.293,-0.124 0.734,-0.5 0.44,-0.377 0.723,-1.007 0.283,-0.631 0.275,-1.072 -0.008,-0.442 -0.04,-0.565 -0.031,-0.123 -0.174,-0.421 -0.142,-0.299 -0.258,-0.453 -0.116,-0.155 -0.746,-0.642 -0.631,-0.488 -1.4,-0.79 -0.77,-0.303 -1.368,-0.434 -0.597,-0.131 -1.052,-0.2 -0.455,-0.068 -1.447,-0.145 -0.991,-0.077 -2.284,-0.034 -1.292,0.043 -1.96,0.121 -0.667,0.078 -1.669,0.262 -1.002,0.184 -2.059,0.461 -1.058,0.278 -1.62,0.464 -0.563,0.186 -1.242,0.457 -0.68,0.27 -1.296,0.559 -0.617,0.289 -1.041,0.53 -0.424,0.241 -1.236,0.876 -0.813,0.636 -1.065,0.906 -0.251,0.27 -0.476,0.576 -0.224,0.307 -0.459,1.018 -0.234,0.711 -0.209,1.228 0.025,0.518 0.141,0.828 0.116,0.31 0.38,0.657 0.264,0.347 0.836,0.657 0.573,0.309 0.9,0.373 0.326,0.064 0.573,0.061 0.247,-0.003 0.433,-0.032 0.186,-0.028 0.782,-0.294 0.596,-0.266 0.878,-0.497 0.282,-0.23 0.553,-0.567 0.271,-0.337 0.515,-0.837 0.243,-0.5 0.377,-1.084 0.134,-0.584 0.168,-1.12 0.033,-0.536 -0.033,-1.335 -0.065,-0.799 -0.194,-1.571 -0.129,-0.772 -0.43,-2.133 -0.301,-1.36 -0.386,-1.758 -0.085,-0.399 -0.256,-1.2 -0.171,-0.801 -0.532,-2.538 -0.36,-1.737 -0.614,-2.998 -0.254,-1.26 -0.53,-2.408 -0.277,-1.147 -0.675,-2.178 -0.399,-1.032 -0.675,-1.459 -0.275,-0.428 -0.541,-0.689 -0.266,-0.262 -0.493,-0.388 -0.227,-0.127 -0.713,-0.234 -0.485,-0.107 -0.852,-0.047 -0.366,0.061 -0.607,0.165 -0.241,0.104 -0.463,0.236 -0.223,0.132 -0.449,0.322 -0.226,0.19 -0.747,1.008 -0.52,0.817 -0.648,1.421 -0.127,0.603 0.024,1.354 0.152,0.751 0.202,0.854 0.051,0.104 0.189,0.294 0.139,0.191 0.943,0.721 0.804,0.53 1.303,0.685 0.498,0.155 0.9,0.226 0.402,0.071 0.785,0.101 0.383,0.031 0.778,0.027 0.395,-0.003 0.622,-0.016 0.227,-0.014 0.484,-0.043 0.257,-0.03 0.59,-0.079 0.332,-0.05 0.573,-0.099 0.241,-0.05 0.336,-0.077 0.095,-0.027 0.918,-0.177" /><path
     id="STROKE_83ce870b-ac69-4932-b6b9-5a9f3de99ddc"
     opacity="1"
     fill="none"
     stroke="#000000"
     stroke-width="2"
     stroke-opacity="1"
     stroke-linecap="round"
     stroke-linejoin="round"
     d="m -394.439,822.473 q 0.612,-0.13 3.315,-0.582 2.703,-0.451 4.623,-1.03 1.92,-0.579 2.689,-0.983 0.768,-0.405 1.093,-0.648 0.326,-0.243 1.028,-1.124 0.703,-0.88 0.904,-1.395 0.201,-0.515 0.256,-0.848 0.054,-0.333 0.041,-0.648 -0.014,-0.314 -0.104,-0.663 -0.091,-0.348 -0.207,-0.571 -0.116,-0.222 -0.514,-0.611 -0.397,-0.389 -1.167,-0.561 -0.769,-0.172 -1.242,-0.063 -0.472,0.109 -0.743,0.264 -0.272,0.155 -0.525,0.399 -0.254,0.244 -0.39,0.427 -0.136,0.183 -0.368,0.7 -0.232,0.517 -0.423,1.528 -0.19,1.01 -0.216,1.707 -0.026,0.696 0.139,2.523 0.165,1.827 0.271,2.509 0.106,0.681 0.419,2.418 0.313,1.736 0.625,3.167 0.312,1.431 1.106,3.613 0.793,2.182 1.122,2.721 0.329,0.539 0.733,0.975 0.404,0.435 0.84,0.714 0.436,0.279 0.97,0.445 0.534,0.165 0.841,0.164 0.306,-10e-4 0.435,-0.027 0.129,-0.026 0.422,-0.15 0.293,-0.124 0.734,-0.5 0.44,-0.377 0.723,-1.007 0.283,-0.631 0.275,-1.072 -0.008,-0.442 -0.04,-0.565 -0.031,-0.123 -0.174,-0.421 -0.142,-0.299 -0.258,-0.453 -0.116,-0.155 -0.746,-0.642 -0.631,-0.488 -1.4,-0.79 -0.77,-0.303 -1.368,-0.434 -0.597,-0.131 -1.052,-0.2 -0.455,-0.068 -1.447,-0.145 -0.991,-0.077 -2.284,-0.034 -1.292,0.043 -1.96,0.121 -0.667,0.078 -1.669,0.262 -1.002,0.184 -2.059,0.461 -1.058,0.278 -1.62,0.464 -0.563,0.186 -1.242,0.457 -0.68,0.27 -1.296,0.559 -0.617,0.289 -1.041,0.53 -0.424,0.241 -1.236,0.876 -0.813,0.636 -1.065,0.906 -0.251,0.27 -0.476,0.576 -0.224,0.307 -0.459,1.018 -0.234,0.711 -0.209,1.228 0.025,0.518 0.141,0.828 0.116,0.31 0.38,0.657 0.264,0.347 0.836,0.657 0.573,0.309 0.9,0.373 0.326,0.064 0.573,0.061 0.247,-0.003 0.433,-0.032 0.186,-0.028 0.782,-0.294 0.596,-0.266 0.878,-0.497 0.282,-0.23 0.553,-0.567 0.271,-0.337 0.515,-0.837 0.243,-0.5 0.377,-1.084 0.134,-0.584 0.168,-1.12 0.033,-0.536 -0.033,-1.335 -0.065,-0.799 -0.194,-1.571 -0.129,-0.772 -0.43,-2.133 -0.301,-1.36 -0.386,-1.758 -0.085,-0.399 -0.256,-1.2 -0.171,-0.801 -0.532,-2.538 -0.36,-1.737 -0.614,-2.998 -0.254,-1.26 -0.53,-2.408 -0.277,-1.147 -0.675,-2.178 -0.399,-1.032 -0.675,-1.459 -0.275,-0.428 -0.541,-0.689 -0.266,-0.262 -0.493,-0.388 -0.227,-0.127 -0.713,-0.234 -0.485,-0.107 -0.852,-0.047 -0.366,0.061 -0.607,0.165 -0.241,0.104 -0.463,0.236 -0.223,0.132 -0.449,0.322 -0.226,0.19 -0.747,1.008 -0.52,0.817 -0.648,1.421 -0.127,0.603 0.024,1.354 0.152,0.751 0.202,0.854 0.051,0.104 0.189,0.294 0.139,0.191 0.943,0.721 0.804,0.53 1.303,0.685 0.498,0.155 0.9,0.226 0.402,0.071 0.785,0.101 0.383,0.031 0.778,0.027 0.395,-0.003 0.622,-0.016 0.227,-0.014 0.484,-0.043 0.257,-0.03 0.59,-0.079 0.332,-0.05 0.573,-0.099 0.241,-0.05 0.336,-0.077 0.095,-0.027 0.918,-0.177" /><path
     id="STROKE_7ed45fa3-776e-4075-94b1-ea1949b53925"
     opacity="1"
     fill="none"
     stroke="#000000"
     stroke-width="5"
     stroke-opacity="1"
     stroke-linecap="round"
     stroke-linejoin="round"
     d="m -522.523,838.63 q -0.04,0.377 0.147,4.245 0.188,3.868 0.24,6.524 0.051,2.656 0.203,7.397 0.152,4.741 0.422,8.73 0.271,3.988 0.415,5.628 0.144,1.641 0.644,4.738 0.501,3.098 0.853,4.336 0.352,1.238 0.785,2.019 0.433,0.782 0.936,1.452 0.503,0.67 0.568,0.759 0.064,0.088 0.564,0.556 0.499,0.468 1.361,0.921 0.863,0.452 2.913,1.091 2.051,0.638 3.809,0.669 1.758,0.032 3.806,-0.067 2.049,-0.1 4.508,-0.247 2.46,-0.147 3.623,-0.294 1.163,-0.147 2.666,-0.306 1.503,-0.159 2.038,-0.187 0.535,-0.028 2.289,-0.212 1.754,-0.184 3.193,-0.383 1.44,-0.198 2.878,-0.304 1.438,-0.106 4.223,-0.212 2.786,-0.105 2.957,-0.126 0.17,-0.021 1.846,-0.031 1.676,-0.01 3.021,0.006 1.345,0.016 2.694,-0.011 1.35,-0.027 4.627,-0.229 3.277,-0.203 4.49,-0.31 1.214,-0.107 2.136,-0.216 0.922,-0.11 1.746,-0.186 0.824,-0.077 4.346,-0.554 3.521,-0.477 5.089,-0.871 1.568,-0.394 3.098,-1.053 1.53,-0.659 2.148,-1.068 0.618,-0.41 1.36,-1.137 0.742,-0.727 1.472,-1.886 0.729,-1.158 1.311,-2.915 0.582,-1.757 0.71,-2.332 0.127,-0.575 0.467,-4.908 0.341,-4.332 0.115,-10.084 -0.227,-5.753 -0.469,-10.178 -0.241,-4.425 -0.413,-6.498 -0.171,-2.072 -0.584,-5.122 -0.412,-3.05 -0.668,-5.27 -0.256,-2.22 -0.412,-3.782 -0.157,-1.563 -0.339,-2.576 -0.182,-1.012 -0.671,-5.695 -0.489,-4.682 -1.395,-8.392 -0.906,-3.709 -1.208,-4.373 -0.303,-0.663 -0.739,-1.343 -0.436,-0.68 -0.79,-1.087 -0.353,-0.406 -0.672,-0.672 -0.319,-0.266 -0.75,-0.672 -0.43,-0.406 -1.26,-0.989 -0.831,-0.584 -2.406,-1.189 -1.575,-0.605 -4.525,-1.229 -2.95,-0.625 -6.003,-0.758 -3.052,-0.134 -4.83,-0.041 -1.777,0.092 -2.447,0.186 -0.67,0.094 -1.921,0.242 -1.25,0.148 -1.359,0.135 -0.109,-0.013 -4.322,0.561 -4.213,0.574 -6.958,0.938 -2.744,0.363 -3.767,0.463 -1.023,0.1 -4.683,0.456 -3.659,0.356 -5.72,0.61 -2.06,0.254 -2.686,0.381 -0.626,0.127 -3.137,0.659 -2.511,0.532 -5.417,1.209 -2.905,0.677 -4.513,1.16 -1.608,0.482 -2.781,0.931 -1.174,0.45 -1.549,0.631 -0.375,0.182 -1.851,0.882 -1.475,0.7 -2.527,1.288 -1.051,0.588 -1.446,0.819 -0.396,0.232 -1.149,1.016 -0.753,0.785 -1.054,1.142 -0.302,0.357 -0.576,0.962 -0.275,0.604 -0.668,2.126 -0.392,1.522 -0.45,2.22 -0.057,0.698 -0.054,1.076 0.003,0.378 0.121,3.018 0.117,2.64 0.273,3.98 0.156,1.34 0.271,2.092 0.114,0.752 0.398,2.903 0.283,2.151 0.327,2.303 0.044,0.152 1.204,8.833" /><circle
     id="STROKE_cc5b94e7-3293-4441-ab49-f4986d9c3835"
     opacity="1"
     fill="#000000"
     stroke="#000000"
     stroke-width="0.1"
     stroke-opacity="1"
     fill-opacity="1"
     cx="-507.46799"
     cy="825.164"
     r="2.5" /><circle
     id="STROKE_54b16005-7993-47fb-b751-af375143c050"
     opacity="1"
     fill="#000000"
     stroke="#000000"
     stroke-width="0.1"
     stroke-opacity="1"
     fill-opacity="1"
     cx="-504.80801"
     cy="847.54901"
     r="2.5" /><path
     id="STROKE_15e8cac7-6d5f-481f-b52d-e06f9bf2f428"
     opacity="1"
     fill="none"
     stroke="#000000"
     stroke-width="2"
     stroke-opacity="1"
     stroke-linecap="round"
     stroke-linejoin="round"
     d="m -494.077,823.179 q 0.478,-0.182 1.003,-0.118 0.526,0.064 1.26,0.053 0.735,-0.012 1.463,-0.12 0.729,-0.108 1.864,-0.393 1.135,-0.286 1.36,-0.355 0.226,-0.069 0.903,-0.191 0.678,-0.122 1.331,-0.164 0.652,-0.041 1.541,-0.03 0.89,0.01 2.076,-0.09 1.186,-0.1 2.416,-0.342 1.231,-0.241 1.765,-0.376 0.533,-0.134 1.798,-0.417 1.264,-0.284 2.659,-0.258 1.395,0.026 1.962,-0.003 0.566,-0.029 1.452,-0.122 0.885,-0.093 1.622,-0.198 0.736,-0.105 1.858,-0.15 1.121,-0.045 6.957,-0.162" /><path
     id="STROKE_ee8b8513-1d79-454b-8b83-8419abae8581"
     opacity="1"
     fill="none"
     stroke="#000000"
     stroke-width="2"
     stroke-opacity="1"
     stroke-linecap="round"
     stroke-linejoin="round"
     d="m -490.779,847.804 0.427,-0.204 0.687,0.147 0.666,-0.04 q 0.903,-0.158 1.952,-0.491 1.048,-0.332 1.83,-0.516 0.782,-0.184 1,-0.22 0.218,-0.036 1.208,0.045 0.989,0.08 1.053,0.094 0.063,0.013 0.965,0.042 0.901,0.028 1.801,-0.058 0.9,-0.086 1.754,-0.238 0.854,-0.151 2.098,-0.281 1.244,-0.129 1.923,-0.062 0.68,0.066 1.546,0.121 0.867,0.054 2.227,0.012 1.36,-0.042 2.482,-0.123 1.121,-0.081 2.077,-0.109 0.955,-0.028 1.497,-0.06 0.542,-0.032 1.391,-0.154 0.848,-0.123 0.97,-0.157 0.121,-0.035 1.664,-0.143 1.543,-0.109 3.744,-0.443" /><path
     id="STROKE_5356939e-1104-4597-adbd-8e2f42cff695"
     opacity="1"
     fill="none"
     stroke="#999999"
     stroke-width="2"
     stroke-opacity="1"
     stroke-linecap="round"
     stroke-linejoin="round"
     d="m -460.053,809.606 -0.181,-0.675 q -0.004,-0.343 0.015,-3.904 0.02,-3.561 0.379,-6.236 0.36,-2.675 0.493,-3.278 0.133,-0.604 0.737,-2.115 0.603,-1.51 1.276,-2.637 0.672,-1.126 1.507,-2.139 0.835,-1.013 2.822,-2.784 1.988,-1.771 2.804,-2.294 0.817,-0.523 2.109,-1.205 1.292,-0.681 1.587,-0.832 0.295,-0.15 1.46,-0.559 1.165,-0.408 2.034,-0.645 0.869,-0.236 1.333,-0.366 0.464,-0.13 3.344,-0.721 2.881,-0.59 4.113,-0.872 1.232,-0.281 2.775,-0.684 1.542,-0.403 2.043,-0.54 0.502,-0.137 2.554,-0.934 2.052,-0.796 2.836,-1.145 0.783,-0.348 1.5,-0.685 0.716,-0.337 1.703,-1.042 0.987,-0.706 1.431,-1.131 0.444,-0.425 0.971,-1.032 0.528,-0.607 1.498,-2.124 0.971,-1.516 1.632,-3.137 0.661,-1.62 1.073,-3.288 0.413,-1.668 0.544,-2.709 0.131,-1.041 0.163,-1.166 0.032,-0.125 0.065,-4.137 0.033,-4.012 -0.164,-5.167 -0.197,-1.155 -0.371,-1.98 -0.174,-0.824 -0.312,-1.84 -0.138,-1.015 -0.416,-3.331 -0.278,-2.315 -0.573,-5.247 -0.294,-2.933 -0.394,-4.101 -0.099,-1.168 -0.143,-2.985 -0.044,-1.817 0.027,-4.453 0.072,-2.636 0.508,-5.158 0.435,-2.521 0.717,-3.391 0.282,-0.87 0.787,-1.96 0.505,-1.09 1.093,-2.032 0.588,-0.942 0.656,-1.066 0.069,-0.124 1.354,-1.576 1.285,-1.452 2.277,-2.267 0.991,-0.815 2.946,-1.872 1.955,-1.057 2.018,-1.103 0.063,-0.047 2.328,-0.835 2.264,-0.788 4.975,-1.558 2.71,-0.77 6.134,-1.703 3.424,-0.934 4.264,-1.177 0.84,-0.244 1.821,-0.517 0.98,-0.273 3.11,-1.048 2.131,-0.775 5.405,-2.454 l 1.454,-0.981 1.1,-0.972 q 1.244,-1.409 1.656,-2.035 0.412,-0.626 0.878,-1.554 0.466,-0.928 0.715,-1.718 0.249,-0.789 0.438,-1.785 0.189,-0.995 0.251,-1.604 0.063,-0.61 0.058,-1.04 -0.005,-0.431 -0.02,-1.3 -0.015,-0.868 -0.088,-2.392 -0.073,-1.524 -0.149,-2.034 -0.077,-0.51 -0.375,-3.934" /><path
     id="STROKE_a6233c52-0c6a-4419-ab62-30d6aeb712e3"
     opacity="1"
     fill="none"
     stroke="#999999"
     stroke-width="2"
     stroke-opacity="1"
     stroke-linecap="round"
     stroke-linejoin="round"
     d="m -457.393,837.005 0.058,-0.488 q 0.012,-0.094 0.355,-1.203 0.343,-1.109 0.855,-2.258 0.512,-1.149 0.883,-1.629 0.372,-0.48 0.611,-0.715 0.24,-0.235 2.424,-1.74 1.578,-0.731 1.789,-0.865 0.211,-0.134 1.564,-0.543 1.353,-0.409 2.307,-0.595 0.954,-0.186 2.641,-0.469 1.686,-0.284 4.39,-0.777 2.704,-0.492 3.412,-0.657 0.708,-0.164 2.107,-0.711 1.398,-0.547 2.359,-1.132 0.961,-0.584 1.66,-1.287 0.699,-0.702 0.94,-1.021 0.241,-0.32 0.606,-0.995 0.364,-0.676 0.546,-1.205 0.182,-0.528 0.398,-1.251 0.215,-0.722 0.378,-1.692 0.163,-0.97 0.243,-2.209 0.079,-1.24 0.102,-3.171 0.023,-1.931 0.109,-4.047 0.085,-2.115 0.212,-4.134 0.126,-2.018 0.387,-3.333 0.261,-1.314 0.858,-2.964 0.597,-1.65 1.133,-2.506 0.536,-0.856 1.01,-1.441 2.641,-2.114 3.166,-2.428 0.524,-0.314 1.566,-0.785 1.042,-0.471 2.109,-0.882 1.068,-0.41 3.941,-1.147 2.873,-0.737 3.431,-0.87 0.558,-0.133 1.072,-0.223 0.514,-0.09 1.533,-0.326 1.02,-0.237 2.604,-0.715 1.584,-0.478 3.595,-1.108 2.011,-0.63 2.418,-0.763 0.406,-0.133 1.096,-0.439 0.69,-0.306 1.684,-0.873 0.994,-0.567 1.109,-0.633 0.115,-0.065 0.932,-0.699 0.816,-0.633 1.347,-1.21 0.531,-0.578 0.954,-1.247 0.423,-0.669 1.014,-2.114 0.591,-1.446 0.808,-2.297 0.217,-0.851 0.521,-4.054 0.304,-3.202 0.263,-4.839 -0.042,-1.637 -0.079,-3.383 -0.037,-1.746 -0.172,-3.222 -0.135,-1.476 -0.209,-2.311 -0.074,-0.836 -0.134,-1.822 -0.06,-0.986 -0.21,-2.801 -0.149,-1.816 -0.373,-5.164 -0.224,-3.349 -0.284,-4.697 -0.06,-1.349 -0.144,-2.822 -0.085,-1.474 -0.138,-2.13 -0.052,-0.657 -0.061,-0.853 -0.009,-0.196 -0.052,-1.936 -0.044,-1.739 0.405,-6.38 0.448,-4.641 0.75,-5.668 0.302,-1.026 1.493,-3.61 0.156,-0.205 0.296,-0.532 0.14,-0.326 1.15,-1.524 1.01,-1.198 1.6,-1.696 0.589,-0.499 1.978,-1.291 1.389,-0.792 2.682,-1.267 1.293,-0.474 4.254,-1.016 2.961,-0.542 3.83,-0.658 0.869,-0.117 1.872,-0.222 1.004,-0.105 3.789,-0.478 2.784,-0.373 4.555,-0.602 1.772,-0.228 2.558,-0.345 0.786,-0.117 2.318,-0.287 1.531,-0.17 2.566,-0.284 1.036,-0.115 5.309,-0.319 4.273,-0.204 4.62,-0.224 0.348,-0.02 1.948,-0.053 1.6,-0.033 4.598,-0.041 2.997,-0.007 5.538,-0.019 2.542,-0.012 6,-0.057 3.459,-0.046 6.056,-0.119 2.596,-0.073 4.581,-0.164 1.985,-0.091 3.29,-0.138 1.304,-0.047 7.95,-0.373 6.645,-0.326 11.818,-0.709 5.173,-0.383 8.336,-0.791 3.162,-0.407 6.653,-1.335 3.491,-0.928 5.674,-2.056 2.182,-1.128 3.178,-1.996 0.996,-0.867 1.354,-1.311 0.358,-0.443 0.787,-1.283 1.101,-4.859 1.095,-5.868 -0.006,-1.01 -0.099,-1.635 -0.094,-0.625 -0.365,-2.448 -0.272,-1.823 -0.56,-3.458 -0.288,-1.635 -0.329,-2.007" /><path
     id="STROKE_e4a989ea-7bcc-4cca-9879-451e50de3de3"
     opacity="1"
     fill="none"
     stroke="#999999"
     stroke-width="2"
     stroke-opacity="1"
     stroke-linecap="round"
     stroke-linejoin="round"
     d="m -376.79,685.417 q 0.053,-0.255 0.565,-1.634 0.512,-1.378 0.91,-2.556 0.397,-1.178 0.906,-2.494 0.51,-1.316 0.99,-2.259 0.48,-0.943 0.83,-1.447 0.349,-0.503 0.908,-1.065 0.558,-0.562 0.91,-0.801 0.352,-0.24 0.513,-0.329 0.162,-0.09 0.37,-0.115 0.209,-0.026 0.531,0.014 0.322,0.04 0.388,0.049 0.066,0.009 0.895,0.506 0.83,0.498 1.3,1.028 0.469,0.53 1.617,2.773 1.148,2.244 1.468,2.863 0.321,0.62 0.61,1.105 0.289,0.485 0.51,1.101 l 0.142,0.098 0.303,0.517" /><path
     id="STROKE_7c39942c-9190-4121-be1b-b5e2f383a924"
     opacity="1"
     fill="none"
     stroke="#999999"
     stroke-width="2"
     stroke-opacity="1"
     stroke-linecap="round"
     stroke-linejoin="round"
     d="m -271.81,692.098 q -0.054,-0.26 -0.078,-0.421 -0.024,-0.162 0.081,-0.782 0.105,-0.619 0.543,-2.73 0.437,-2.11 0.957,-3.614 0.519,-1.504 3.46,-5.145 0.043,-0.003 0.604,-0.099 0.561,-0.096 1.008,0.027 0.447,0.124 0.774,0.324 0.327,0.201 0.353,0.207 0.026,0.005 0.918,0.868 0.891,0.863 1.685,1.807 0.793,0.945 1.497,1.738 0.703,0.792 1.506,1.625 0.803,0.833 1.297,1.399 l -0.011,0.092 q -0.047,0.129 -10e-4,0.153 0.045,0.023 0.073,0.078" /></g></svg>
