<?xml version="1.0" encoding="UTF-8" standalone="no"?>
<!-- Generator: Adobe Illustrator 26.1.0, SVG Export Plug-In . SVG Version: 6.00 Build 0)  -->

<svg
   version="1.1"
   id="Layer_1"
   x="0px"
   y="0px"
   viewBox="0 0 960 480"
   style="enable-background:new 0 0 960 480;"
   xml:space="preserve"
   sodipodi:docname="pt2-vault.svg"
   inkscape:version="1.2.1 (9c6d41e410, 2022-07-14, custom)"
   xmlns:inkscape="http://www.inkscape.org/namespaces/inkscape"
   xmlns:sodipodi="http://sodipodi.sourceforge.net/DTD/sodipodi-0.dtd"
   xmlns="http://www.w3.org/2000/svg"
   xmlns:svg="http://www.w3.org/2000/svg"><defs
   id="defs1415" /><sodipodi:namedview
   id="namedview1413"
   pagecolor="#505050"
   bordercolor="#eeeeee"
   borderopacity="1"
   inkscape:showpageshadow="0"
   inkscape:pageopacity="0"
   inkscape:pagecheckerboard="0"
   inkscape:deskcolor="#505050"
   showgrid="false"
   inkscape:zoom="1.7614583"
   inkscape:cx="480.28386"
   inkscape:cy="242.12892"
   inkscape:window-width="3840"
   inkscape:window-height="2055"
   inkscape:window-x="0"
   inkscape:window-y="0"
   inkscape:window-maximized="1"
   inkscape:current-layer="Layer_1" />
<g
   id="Vault_structure"
   opacity="1"
   transform="matrix(1.3333333,0,0,1.3333333,692.60199,-1017.751)"><path
     id="STROKE_12dbdfc9-9895-4f89-b3f0-2b7d6de965f9"
     opacity="1"
     fill="none"
     stroke="#000000"
     stroke-width="5"
     stroke-opacity="1"
     stroke-linecap="round"
     stroke-linejoin="round"
     d="m -246.016,902.998 0.078,1.307 0.065,2.32 q -0.09,0.915 1.924,16.557 2.014,15.642 3.211,23.693 1.198,8.05 1.721,11.846 0.524,3.797 1.06,8.556 0.537,4.76 0.827,7.092 0.29,2.333 0.809,6.318 0.033,0.171 0.052,1.619" /><path
     id="STROKE_767d26dd-8539-4b98-bdee-36639a80d07d"
     opacity="1"
     fill="none"
     stroke="#000000"
     stroke-width="5"
     stroke-opacity="1"
     stroke-linecap="round"
     stroke-linejoin="round"
     d="m -245.287,902.082 0.313,-0.038 q 1.169,-0.268 4.616,-0.502 3.447,-0.234 7.902,-0.325 4.454,-0.091 11.158,-0.301 6.705,-0.21 10.898,-0.364 4.193,-0.154 7.839,-0.182 3.645,-0.028 7.79,0.05 4.145,0.078 7.573,0.25 3.428,0.171 5.867,0.222 2.44,0.051 5.808,0.059 3.367,0.009 7.831,0.098" /><path
     id="STROKE_25a78646-b4c0-4eb1-b900-674799df7187"
     opacity="1"
     fill="none"
     stroke="#000000"
     stroke-width="5"
     stroke-opacity="1"
     stroke-linecap="round"
     stroke-linejoin="round"
     d="m -226.941,917.837 q 0.023,0.595 -0.49,5.638 -0.512,5.044 -1.257,10.721 -0.745,5.678 -0.992,7.456 -0.246,1.778 -0.841,6.433 -0.595,4.655 -0.921,7.219 -0.326,2.564 -0.61,5.277 -0.284,2.714 -0.654,7.069 -0.37,4.355 -0.656,6.88 -0.287,2.525 -0.485,4.219 -0.198,1.694 -0.272,2.196 -0.073,0.502 -0.131,0.676 -0.059,0.174 -0.434,2.479" /><path
     id="STROKE_c55e1227-4803-49a3-ba35-8f039de2c83b"
     opacity="1"
     fill="none"
     stroke="#000000"
     stroke-width="5"
     stroke-opacity="1"
     stroke-linecap="round"
     stroke-linejoin="round"
     d="m -227.068,919.287 q 0.706,0.135 1.38,0.184 0.674,0.049 1.478,-0.045 0.803,-0.094 5.47,-0.227 4.666,-0.133 7.056,-0.225 2.391,-0.091 6.914,-0.173 4.524,-0.083 7.07,-0.11 2.547,-0.027 7.3,-0.1 4.754,-0.073 6.904,-0.106 2.151,-0.033 5.99,-0.035 3.839,-0.002 5.731,0.005 1.893,0.006 7.136,0.15 5.243,0.144 7.849,0.248 2.606,0.104 5.814,0.31 l 1.591,0.126 q 1.538,0.069 3.828,0.266" /><path
     id="STROKE_6c14f267-2700-4d7c-a324-5e6afda1c274"
     opacity="1"
     fill="none"
     stroke="#000000"
     stroke-width="5"
     stroke-opacity="1"
     stroke-linecap="round"
     stroke-linejoin="round"
     d="m -233.726,984.654 0.624,-0.127 5.018,-0.435 q 1.858,-0.193 3.785,-0.358 1.928,-0.164 3.358,-0.297 1.431,-0.133 1.88,-0.191 0.448,-0.058 1.773,-0.166 1.325,-0.107 1.528,-0.109 0.204,-0.002 6.126,-0.218 5.922,-0.217 9.058,-0.3 3.135,-0.083 4.936,-0.19 1.801,-0.107 3.632,-0.173 1.832,-0.065 5.226,-0.118 3.393,-0.054 4.719,-0.082 1.326,-0.028 5.622,0.014 4.296,0.043 6.62,0.083 2.323,0.041 3.309,-0.003 0.985,-0.043 5.086,-0.015 l 2.598,0.101" /><path
     id="STROKE_968be56e-ef88-4bbf-8644-de7dc1876aae"
     opacity="1"
     fill="none"
     stroke="#000000"
     stroke-width="5"
     stroke-opacity="1"
     stroke-linecap="round"
     stroke-linejoin="round"
     d="m -146.84,921.432 0.006,0.994 q -0.119,1.252 -0.12,1.449 -0.001,0.198 -0.502,3.792 -0.502,3.594 -1.339,8.086" /><path
     id="STROKE_07b08522-30da-497f-8f9b-151fb16c971b"
     opacity="1"
     fill="none"
     stroke="#000000"
     stroke-width="5"
     stroke-opacity="1"
     stroke-linecap="round"
     stroke-linejoin="round"
     d="m -154.698,965.479 q -0.325,1.688 -0.639,3.389 -0.313,1.701 -0.422,2.335 -0.109,0.634 -1.665,8.199 l -0.092,0.289" /><path
     id="STROKE_8a4fd6d7-ff95-452c-be68-773b0d491730"
     opacity="1"
     fill="none"
     stroke="#000000"
     stroke-width="5"
     stroke-opacity="1"
     stroke-linecap="round"
     stroke-linejoin="round"
     d="m -167.446,901.236 0.367,0.991 0.265,1.485 q 0.011,0.201 0.39,2.061 0.378,1.861 0.849,4.045 0.47,2.185 0.99,4.729" /><path
     id="STROKE_32091128-d96c-4a8b-b3ca-099b2485356d"
     opacity="1"
     fill="none"
     stroke="#000000"
     stroke-width="5"
     stroke-opacity="1"
     stroke-linecap="round"
     stroke-linejoin="round"
     d="m -216.837,942.417 q 0.233,-1.318 0.531,-3.306 0.299,-1.989 2.428,-9.725 0.079,0.13 0.279,1.358 0.199,1.228 0.634,3.789 0.434,2.561 0.608,2.984 0.173,0.423 0.471,0.609 0.298,0.185 1.303,-0.864 1.005,-1.049 2.71,-2.182 0.389,0.214 0.468,0.174 0.079,-0.039 0.643,0.415 0.563,0.454 1.121,0.897 0.558,0.442 0.899,0.634 0.341,0.192 0.621,0.267 0.279,0.075 0.596,0.076 0.317,10e-4 0.739,-0.284 0.421,-0.285 1.241,-1.135 0.82,-0.85 1.164,-1.108 0.345,-0.259 0.607,-0.401 0.262,-0.141 0.59,-0.232 0.329,-0.091 0.621,0.092 0.293,0.182 0.527,0.423 0.235,0.242 0.476,0.566 0.242,0.323 0.401,0.576 0.159,0.252 0.338,0.566 0.178,0.313 1.149,1.463 l 0.245,0.038 0.369,-0.174 q 0.212,0.163 0.751,-0.546 0.539,-0.708 0.984,-1.193 0.444,-0.485 0.777,-0.737 0.334,-0.252 0.923,-0.342 0.558,0.396 1.266,1.139 0.707,0.743 1.289,1.236 0.581,0.493 1.134,0.606 0.255,-0.112 0.71,-0.411 0.456,-0.3 0.578,-0.42 0.122,-0.12 0.878,-0.858 0.756,-0.739 1.145,-1.087 0.388,-0.348 0.652,-0.553 0.265,-0.206 0.904,-0.582 0.04,0.01 0.644,0.487 0.605,0.477 1.114,1.027 0.509,0.55 0.78,0.738 0.271,0.188 0.52,0.336 0.25,0.148 1.905,1.075" /><path
     id="STROKE_fd2f7833-da0a-40c3-81d9-0b63e759d2af"
     opacity="1"
     fill="none"
     stroke="#000000"
     stroke-width="5"
     stroke-opacity="1"
     stroke-linecap="round"
     stroke-linejoin="round"
     d="m -148.097,934.209 q -0.231,0.157 -0.5,0.376 -0.268,0.218 -1.807,1.235 l -0.755,0.361 q -1.332,0.512 -2.109,0.751 -0.777,0.239 -2.327,0.628 -0.112,0.017 -1.219,0.405 -1.108,0.388 -2.073,0.857 -0.965,0.469 -1.556,0.922 -0.591,0.452 -1.481,1.457 -0.889,1.005 -1.848,2.54 -1.285,3.708 -1.396,4.516 -0.112,0.807 0.091,3.933 l 0.54,1.958 q 0.205,0.407 0.533,0.913 0.327,0.506 1.431,1.8 1.634,1.452 3.32,2.701 1.081,0.698 2.032,1.379 l 0.514,0.683 1.228,2.311 q 0.204,0.56 1.023,2.712" /><path
     id="STROKE_0fbff267-5790-4755-bfb0-73aad0e24ae8"
     opacity="1"
     fill="none"
     stroke="#000000"
     stroke-width="5"
     stroke-opacity="1"
     stroke-linecap="round"
     stroke-linejoin="round"
     d="m -118.38,907.083 q -0.158,0.715 -0.552,2.239 -0.393,1.524 -1.264,4.848 -0.87,3.323 -1.632,6.573 -0.762,3.25 -1.313,5.356 -0.552,2.107 -1.295,4.478 -0.744,2.371 -1.178,3.34 -0.433,0.968 -0.495,1.136 -0.061,0.168 -1.138,1.775 -1.076,1.608 -1.443,1.856 -0.366,0.247 -0.817,0.57 -0.452,0.322 -1.22,0.736 -0.769,0.415 -1.661,0.838 -0.892,0.424 -2.633,1.306 -1.372,0.814 -3.141,2.325 l -1.279,1.652 q -0.89,1.917 -1.16,3.528 l 0.725,4.097 q 0.194,0.471 0.682,1.194 0.488,0.723 0.952,1.2 0.465,0.477 1.322,1.257 0.857,0.779 1.61,1.518 l 0.88,1.026 q 1.224,1.994 1.799,3.41 l 0.405,2.485 q -0.16,3.273 -0.658,6.721 -0.582,2.779 -0.771,3.706 -0.189,0.928 -0.698,2.965 l -0.697,2.795" /><path
     id="STROKE_141dbe53-cbbf-47a8-8b87-0304a0abf78d"
     opacity="1"
     fill="none"
     stroke="#000000"
     stroke-width="5"
     stroke-opacity="1"
     stroke-linecap="round"
     stroke-linejoin="round"
     d="m -117.177,906.562 q 0.304,0.033 1.121,-0.027 0.816,-0.059 3.645,-0.381 2.829,-0.322 4.569,-0.436 1.74,-0.114 3.807,-0.229 2.066,-0.115 3.448,-0.146 1.382,-0.03 2.332,-0.009 0.95,0.022 1.037,0.029 0.087,0.007 2.949,-0.012 2.863,-0.02 4.156,-0.038 1.292,-0.019 5.839,0.116" /><path
     id="STROKE_eb2eaddc-848d-496b-9644-e74b095b090c"
     opacity="1"
     fill="none"
     stroke="#000000"
     stroke-width="5"
     stroke-opacity="1"
     stroke-linecap="round"
     stroke-linejoin="round"
     d="m -82.889,905.964 q 2.367,4.842 2.886,5.825 0.52,0.983 1.848,3.443 1.328,2.461 1.817,3.307 0.489,0.846 1.316,2.35 0.827,1.505 1.221,2.002 l 0.914,1.411" /><path
     id="STROKE_ed301e53-5b12-4d82-9021-f035f89b5b3a"
     opacity="1"
     fill="none"
     stroke="#000000"
     stroke-width="5"
     stroke-opacity="1"
     stroke-linecap="round"
     stroke-linejoin="round"
     d="m -72.887,926.414 q -0.489,3.797 -1.147,7.845 -0.658,4.047 -1.94,11.232 -1.282,7.185 -1.656,9.195 -0.373,2.009 -0.895,4.611 -0.522,2.602 -0.728,3.722 -0.206,1.12 -0.939,4.635 -0.733,3.516 -1.245,6.098 -0.511,2.582 -0.58,2.968 -0.068,0.386 -1.197,5.601 l -0.571,2.588 -0.088,0.222" /><path
     id="STROKE_0c45a687-7e0a-441d-986d-21c6100a38be"
     opacity="1"
     fill="none"
     stroke="#000000"
     stroke-width="5"
     stroke-opacity="1"
     stroke-linecap="round"
     stroke-linejoin="round"
     d="m -134.923,983.884 1.172,-0.245 0.578,0.088 0.81,0.022 q 1.939,0.008 3.966,0.027 2.027,0.019 3.356,0.076 1.33,0.056 2.804,0.197 1.474,0.141 3.25,0.283 1.775,0.142 1.813,0.136 0.038,-0.006 1.167,0.102 1.128,0.107 2.537,0.271 1.409,0.163 2.436,0.265 1.027,0.101 2.924,0.326 1.898,0.225 3.302,0.32 1.404,0.096 3.025,0.218 1.62,0.123 3.775,0.187 2.155,0.065 3.729,0.05 1.573,-0.016 3.018,-0.007 1.444,0.009 1.515,0.024 0.071,0.015 4.416,0.04" /><path
     id="STROKE_932eb1d4-72d4-4b61-99e1-d343ba729ef0"
     opacity="1"
     fill="none"
     stroke="#000000"
     stroke-width="5"
     stroke-opacity="1"
     stroke-linecap="round"
     stroke-linejoin="round"
     d="m -85.804,905.836 q -0.278,1.604 -0.846,5.6 -0.568,3.997 -0.776,5.266 -0.209,1.269 -0.493,3.221 -0.285,1.951 -0.6,3.513" /><path
     id="STROKE_cf5ef0b5-b5e5-4390-be4c-931eccdf5955"
     opacity="1"
     fill="none"
     stroke="#000000"
     stroke-width="5"
     stroke-opacity="1"
     stroke-linecap="round"
     stroke-linejoin="round"
     d="m -89.102,924.963 q 1.988,0.042 4.599,0.199 2.611,0.156 3.37,0.209 0.76,0.053 2.446,0.271 1.053,0.279 1.631,0.396 0.577,0.118 4.114,0.643" /><path
     id="STROKE_2f77c6be-9f2b-4b9c-8d32-7ed8dd74f267"
     opacity="1"
     fill="none"
     stroke="#000000"
     stroke-width="2"
     stroke-opacity="1"
     stroke-linecap="round"
     stroke-linejoin="round"
     d="m -115.354,922.939 q 0.402,-0.249 0.809,-0.589 0.408,-0.34 1.239,-1.274 0.831,-0.934 1.357,-1.478 0.526,-0.544 0.997,-0.927 0.471,-0.382 0.782,-0.529 0.31,-0.146 2.441,2.16 0.803,0.137 3.588,-0.534 0.079,-0.02 2.377,2.864 0.318,0.373 3.658,-0.283 l 1.065,0.893 q 0.288,0.103 2.275,-0.036" /><path
     id="STROKE_125f7e0d-25d6-4c5e-812e-9f9d1dc05fe1"
     opacity="1"
     fill="none"
     stroke="#000000"
     stroke-width="2"
     stroke-opacity="1"
     stroke-linecap="round"
     stroke-linejoin="round"
     d="m -116.283,937.51 0.327,-0.113 q 0.148,-0.213 2.82,-1.943 l 1.942,0.339 q 0.189,0.033 0.671,-0.083 0.481,-0.116 0.885,-0.281 0.404,-0.166 0.641,-0.237 0.237,-0.07 0.608,-0.102 0.372,-0.032 0.686,0.035 0.314,0.067 0.799,0.117 0.484,0.049 0.907,0.037 0.423,-0.012 1.646,-0.102 0.622,0.226 0.794,0.303 0.173,0.076 0.563,0.16 0.391,0.084 1.01,0.137 0.618,0.053 0.953,0.09 0.336,0.038 1.412,-0.003 1.636,0.645 2.276,0.717 0.64,0.071 0.908,0.057 0.268,-0.014 0.715,-0.082 0.447,-0.069 0.592,-0.123 0.146,-0.054 3.6,-0.73 1.715,0.402 2.171,0.349 0.455,-0.053 0.909,-0.175 0.453,-0.121 0.964,-0.287 0.512,-0.165 3.321,-0.867" /><path
     id="STROKE_3d804c34-59d8-4edd-b91f-5f36de7533c5"
     opacity="1"
     fill="none"
     stroke="#000000"
     stroke-width="2"
     stroke-opacity="1"
     stroke-linecap="round"
     stroke-linejoin="round"
     d="m -120.382,952.399 0.557,0.114 0.4,-0.11 q 0.35,0.088 3.004,-0.255 0.901,0.249 1.304,0.354 0.404,0.106 1.086,0.131 0.683,0.026 0.718,0.046 0.035,0.02 0.652,0.004 0.617,-0.016 3.319,-0.418 1.359,0.488 1.764,0.617 0.405,0.13 1.002,0.191 0.598,0.062 0.721,0.044 0.124,-0.018 0.633,-0.019 0.509,-10e-4 4.504,-1.259 0.549,0.162 1.193,0.327 0.645,0.165 0.943,0.199 0.299,0.034 0.594,0.029 0.296,-0.004 0.772,-0.113 0.476,-0.109 3.458,-0.808 l 0.485,0.267 q 0.132,0.036 1.908,0.959 0.588,0.265 4.846,-1.174 l 1.7,-0.31" /><path
     id="STROKE_fdcdae42-f0fd-46c9-afc9-a0e4c7dc24c6"
     opacity="1"
     fill="none"
     stroke="#000000"
     stroke-width="2"
     stroke-opacity="1"
     stroke-linecap="round"
     stroke-linejoin="round"
     d="m -121.84,969.681 q 1.637,-0.278 2.231,-0.306 0.594,-0.028 1.574,0.154 0.981,0.181 1.769,0.153 0.789,-0.028 1.715,-0.208 0.927,-0.18 3.271,-0.7 1.789,0.623 2.318,0.758 0.528,0.136 1.398,0.148 0.869,0.012 1.134,-0.012 0.266,-0.023 3.397,-0.683 l 2.382,1.453 q 0.36,0.038 0.505,0.113 0.145,0.075 3.462,-0.399 0.1,0.023 0.544,0.304 0.445,0.282 0.879,0.49 0.434,0.208 0.763,0.273 0.33,0.064 0.468,0.105 0.139,0.041 0.451,0.053 0.311,0.011 0.592,-0.039 0.28,-0.05 1.664,-0.13" /></g></svg>
