<?xml version="1.0" encoding="UTF-8" standalone="no"?>
<!-- Generator: Adobe Illustrator 26.1.0, SVG Export Plug-In . SVG Version: 6.00 Build 0)  -->

<svg
   version="1.1"
   id="Layer_1"
   x="0px"
   y="0px"
   viewBox="0 0 960 480"
   style="enable-background:new 0 0 960 480;"
   xml:space="preserve"
   sodipodi:docname="pt2-wiki-note.svg"
   inkscape:version="1.2.1 (9c6d41e410, 2022-07-14, custom)"
   xmlns:inkscape="http://www.inkscape.org/namespaces/inkscape"
   xmlns:sodipodi="http://sodipodi.sourceforge.net/DTD/sodipodi-0.dtd"
   xmlns="http://www.w3.org/2000/svg"
   xmlns:svg="http://www.w3.org/2000/svg"><defs
   id="defs8584" /><sodipodi:namedview
   id="namedview8582"
   pagecolor="#505050"
   bordercolor="#eeeeee"
   borderopacity="1"
   inkscape:showpageshadow="0"
   inkscape:pageopacity="0"
   inkscape:pagecheckerboard="0"
   inkscape:deskcolor="#505050"
   showgrid="false"
   inkscape:zoom="0.49166667"
   inkscape:cx="478.98305"
   inkscape:cy="243.05085"
   inkscape:window-width="2560"
   inkscape:window-height="1381"
   inkscape:window-x="0"
   inkscape:window-y="0"
   inkscape:window-maximized="1"
   inkscape:current-layer="Layer_1" />
<g
   id="Wiki_note_structure"
   opacity="1"
   transform="matrix(1.3333333,0,0,1.3333333,957.95954,-1958.9793)"><path
     id="STROKE_7dfec71e-c7fd-4882-9cae-3115b1a474ca"
     opacity="1"
     fill="none"
     stroke="#FFFFFF"
     stroke-width="5"
     stroke-opacity="1"
     stroke-linecap="round"
     stroke-linejoin="round"
     d="m -512.194,1772.529 q 0.041,-0.412 0.011,-2.122 -0.031,-1.711 -0.242,-4.71 -0.211,-3 -0.472,-6.353 -0.262,-3.352 -0.496,-7.273 -0.234,-3.921 -0.543,-11.334 -0.309,-7.413 -0.765,-11.523 -0.456,-4.11 -0.978,-9.371 -0.522,-5.262 -0.963,-9.98 -0.441,-4.718 -1.021,-9.364 -0.579,-4.646 -0.982,-10.358 -0.402,-5.711 -0.506,-8.812 -0.104,-3.101 -0.368,-7.821 -0.263,-4.72 -0.405,-11.803 -0.142,-7.083 -0.261,-10.87 -0.12,-3.787 -0.433,-7.441 -0.313,-3.654 -0.495,-5.639 -0.181,-1.984 -0.28,-4.071 -0.098,-2.087 -0.182,-6.166 -0.085,-4.079 -0.147,-5.917 -0.063,-1.839 -0.213,-4.172 -0.151,-2.332 -0.394,-6.22 -0.243,-3.887 -0.382,-5.963 -0.139,-2.076 -0.212,-2.808 -0.073,-0.732 -0.045,-4.625 0.029,-3.892 0.662,-7.231 0.634,-3.34 1.332,-4.929 0.698,-1.589 1.296,-2.483 0.598,-0.894 0.693,-1.036 0.095,-0.141 0.715,-0.802 0.62,-0.662 1.479,-1.37 0.859,-0.709 4.045,-1.853 3.185,-1.145 6.659,-1.355 3.475,-0.21 8.099,-0.1 4.625,0.111 7.513,0.095 2.889,-0.017 4.486,-0.064 1.596,-0.046 3.14,-0.135 1.543,-0.088 2.037,-0.133 0.493,-0.045 4.027,-0.212 3.534,-0.168 9.576,-0.46 6.042,-0.293 12.276,-0.367 6.235,-0.074 14.079,-0.047 7.845,0.028 11.243,0.103 3.398,0.075 7.812,0.298 4.414,0.224 6.905,0.233 2.491,0.01 7.172,-0.082 4.681,-0.09 11.727,0.018 7.047,0.108 15.237,0.189 8.19,0.081 12.64,0.061 4.449,-0.021 6.305,-0.03 1.855,-0.01 3.711,-0.045 1.855,-0.037 5.197,-0.072 3.342,-0.035 20.89,-0.032 17.548,0 19.593,0.032 2.046,0.029 5.591,0.031 3.546,0 6.244,-0.025 2.699,-0.028 8.31,-0.051 5.611,-0.023 8.307,-0.031 2.696,-0.01 11.439,0.093 8.743,0.101 13.489,0.191 4.747,0.09 6.049,0.072 1.302,-0.019 5.141,-0.06 3.838,-0.042 5.892,-0.047 2.054,0 13.258,0.088 11.205,0.092 14.3,0.368 3.096,0.276 4.146,0.446 1.05,0.171 2.465,0.54 1.415,0.368 2.672,0.884 1.256,0.517 2.114,1.016 0.858,0.5 1.458,0.971 0.601,0.471 1.139,1.018 0.539,0.548 0.794,0.884 0.256,0.337 0.872,1.396 0.616,1.059 0.654,1.106 0.039,0.047 0.458,1.153 0.419,1.107 1.076,5.765 0.656,4.658 0.688,10.785 0.033,6.128 0.003,8.57 -0.029,2.443 0.051,6.293 0.081,3.85 0.232,15.503 0.15,11.654 0.159,16.703 0.008,5.049 0,6.693 -0.008,1.645 -0.129,15.145 -0.122,13.499 -0.069,21.448 0.053,7.948 0.114,11.696 0.062,3.747 0.107,5.892 0.045,2.145 0.089,4.893 0.044,2.748 0.101,5.296 0.056,2.548 0.161,4.94 0.105,2.393 0.272,8.295 0.168,5.903 0.274,8.837 0.106,2.934 0.157,5.587 0.05,2.653 0.134,5.46 0.085,2.808 0.254,14.035 -0.063,0.462 -0.189,1.273" /><path
     id="STROKE_6bc70781-17c3-45bd-9dbb-dc6adccf0de0"
     opacity="1"
     fill="none"
     stroke="#FFFFFF"
     stroke-width="2"
     stroke-opacity="1"
     stroke-linecap="round"
     stroke-linejoin="round"
     d="m -495.249,1688.048 0.016,0.622 q -0.028,0.528 0.4,7.579 0.427,7.051 0.502,12.601 -0.007,0 -0.153,-0.186" /><path
     id="STROKE_d63d5965-f80a-4c4c-a572-240fb8a4c922"
     opacity="1"
     fill="none"
     stroke="#FFFFFF"
     stroke-width="2"
     stroke-opacity="1"
     stroke-linecap="round"
     stroke-linejoin="round"
     d="m -487.697,1687.088 -0.092,0.485 q -0.072,1.112 -0.118,2.264 -0.047,1.151 -0.049,2.774 -0.002,1.624 0.627,18.216 l 0.06,0.223" /><path
     id="STROKE_0125e053-5843-498c-b404-53d91abc4364"
     opacity="1"
     fill="none"
     stroke="#FFFFFF"
     stroke-width="2"
     stroke-opacity="1"
     stroke-linecap="round"
     stroke-linejoin="round"
     d="m -500.186,1695.627 q 0.22,0.062 2.719,0.223 2.499,0.162 5.251,0.236 2.752,0.074 5.25,0.019 2.498,-0.054 4.604,-0.034 l 0.586,0.084" /><path
     id="STROKE_166bd60d-abf1-491e-96b7-38a40626200a"
     opacity="1"
     fill="none"
     stroke="#FFFFFF"
     stroke-width="2"
     stroke-opacity="1"
     stroke-linecap="round"
     stroke-linejoin="round"
     d="m -498.856,1702.842 0.205,-0.013 0.196,0.068 q 0.228,0.077 3.399,0.038 3.172,-0.039 5.336,-0.079 2.165,-0.041 3.571,-0.01 1.407,0.032 2.834,0.14 l 0.683,-0.081" /><circle
     id="STROKE_1daf214b-c890-4cfb-a027-44321a99eddb"
     opacity="1"
     fill="#FFFFFF"
     stroke="#FFFFFF"
     stroke-width="0.1"
     stroke-opacity="1"
     fill-opacity="1"
     cx="-451.16"
     cy="1706.699"
     r="1" /><circle
     id="STROKE_2d0c2592-3de3-471a-85ac-06fb42c719c3"
     opacity="1"
     fill="#FFFFFF"
     stroke="#FFFFFF"
     stroke-width="0.1"
     stroke-opacity="1"
     fill-opacity="1"
     cx="-440.867"
     cy="1707.126"
     r="1" /><path
     id="STROKE_5952d2f6-8728-483a-9449-004d8ad0c9f1"
     opacity="1"
     fill="none"
     stroke="#FFFFFF"
     stroke-width="2"
     stroke-opacity="1"
     stroke-linecap="round"
     stroke-linejoin="round"
     d="m -429.407,1707.788 q -0.12,0.015 -0.295,-0.024 0.007,0.095 -0.005,0.221" /><circle
     id="STROKE_f983f4ce-4450-44d9-8157-8ef563b74f95"
     opacity="1"
     fill="#FFFFFF"
     stroke="#FFFFFF"
     stroke-width="0.1"
     stroke-opacity="1"
     fill-opacity="1"
     cx="-491.21301"
     cy="1742.012"
     r="1" /><circle
     id="STROKE_085ac27a-5528-4407-a0c3-c0063efd333c"
     opacity="1"
     fill="#FFFFFF"
     stroke="#FFFFFF"
     stroke-width="0.1"
     stroke-opacity="1"
     fill-opacity="1"
     cx="-480.91"
     cy="1742.21"
     r="1" /><circle
     id="STROKE_ca46a242-09c4-40f1-9f5b-7d27a9b3108c"
     opacity="1"
     fill="#FFFFFF"
     stroke="#FFFFFF"
     stroke-width="0.1"
     stroke-opacity="1"
     fill-opacity="1"
     cx="-469.19601"
     cy="1742.674"
     r="1" /><path
     id="STROKE_9377fbae-91fe-4778-a94a-0ef41ee1dc71"
     opacity="1"
     fill="none"
     stroke="#FFFFFF"
     stroke-width="2"
     stroke-opacity="1"
     stroke-linecap="round"
     stroke-linejoin="round"
     d="m -465.103,1698.727 q -0.037,-0.18 -0.097,-1.841 -0.059,-1.661 -0.103,-3.172 -0.044,-1.511 -0.039,-2.276 0.005,-0.766 0.078,-1.722 0.073,-0.956 0.286,-1.81 0.214,-0.854 0.415,-1.286 0.201,-0.432 0.45,-0.782 0.248,-0.351 0.407,-0.519 0.159,-0.168 0.438,-0.378 0.279,-0.21 0.962,-0.462 0.683,-0.251 0.942,-0.319 0.258,-0.067 0.704,-0.141 0.446,-0.074 1.476,-0.112 1.03,-0.039 2.17,-0.035 1.139,0 2.614,0.01 1.475,0 2.484,-0.019 1.01,-0.021 2.052,-0.107 1.042,-0.085 1.559,-0.116 0.518,-0.031 1.394,-0.052 0.875,-0.021 2.786,-0.061 1.911,-0.041 1.973,-0.041 0.061,0 4.749,0 4.688,0 7.856,0.112 3.167,0.115 4.492,0.227 1.325,0.112 2.138,0.217 0.812,0.105 1.462,0.23 0.65,0.126 1.332,0.312 0.682,0.187 1.061,0.304 0.378,0.118 0.52,0.158 0.141,0.04 0.728,0.308 0.587,0.267 1.043,0.597 0.457,0.33 0.633,0.487 0.175,0.158 0.517,0.727 0.342,0.57 0.568,1.319 0.226,0.748 0.25,0.831 0.025,0.084 0.066,0.484 0.042,0.399 0.124,2.357 0.083,1.957 0.094,3.284 0.012,1.327 0.048,2.716 0.037,1.389 0.046,1.916 0.01,0.526 0.039,1.172 0.029,0.645 0.068,2.109 0.039,1.465 0.055,2.348 0.016,0.884 -0.003,2.247 -0.018,1.363 -0.107,2.222 -0.09,0.858 -0.327,1.824 -0.237,0.966 -0.282,1.096 -0.044,0.129 -0.315,0.597 -0.271,0.467 -0.445,0.68 -0.174,0.213 -0.361,0.382 -0.187,0.169 -0.229,0.236 -0.041,0.067 -1.138,0.585 -1.097,0.518 -2.208,0.717 -1.111,0.198 -1.865,0.268 -0.755,0.069 -0.805,0.083 -0.05,0.014 -1.353,0 -1.302,-0.017 -2.247,-0.051 -0.945,-0.034 -1.585,-0.026 -0.639,0.01 -1.172,0.036 -0.532,0.028 -0.927,0.04 -0.396,0.012 -1.706,0.03 -1.31,0.019 -2.525,0.054 -1.215,0.035 -3.103,0.082 -1.889,0.047 -4.358,0.151 -2.469,0.105 -2.501,0.11 -0.032,0 -3.368,0.08 -3.335,0.075 -4.992,0.075 -1.658,0 -2.59,-0.014 -0.932,-0.013 -3.771,-0.433 -2.838,-0.42 -3.007,-0.481 -0.169,-0.061 -0.769,-0.409 -0.6,-0.349 -0.96,-0.75 -0.36,-0.401 -1.16,-5.151 -0.8,-4.749 -0.87,-5.713 -0.07,-0.964 -0.098,-1.297 -0.028,-0.332 -0.085,-1.264 -0.057,-0.933 -0.145,-1.882" /><path
     id="STROKE_bd010bee-4d56-470d-8460-8cebb0345f76"
     opacity="1"
     fill="none"
     stroke="#FFFFFF"
     stroke-width="2"
     stroke-opacity="1"
     stroke-linecap="round"
     stroke-linejoin="round"
     d="m -498.242,1741.351 -0.06,-0.584 -0.068,-1.927 q 0.018,-0.094 0.08,-2.025 0.062,-1.93 0.285,-2.847 0.222,-0.917 0.386,-1.248 0.163,-0.33 0.318,-0.513 0.155,-0.183 0.619,-0.46 0.464,-0.277 0.529,-0.311 0.065,-0.035 0.864,-0.187 0.8,-0.152 1.481,-0.138 0.681,0.015 1.029,0.059 0.348,0.043 0.676,0.079 0.328,0.036 0.393,0.042 0.065,0.01 0.827,0.011 0.762,0 2.293,0.012 1.53,0.01 2.196,-0.011 0.666,-0.02 2.121,-0.043 1.455,-0.022 2.948,-0.069 1.493,-0.047 2.466,-0.063 0.972,-0.016 2.142,-0.012 1.17,0 1.938,0 0.769,-0.01 1.735,-0.049 0.967,-0.041 1.887,-0.065 0.919,-0.024 2.481,-10e-4 1.563,0.023 3.531,0.266 1.968,0.242 2.068,0.266 0.1,0.024 2.109,0.862 0.303,0.292 0.617,0.634 0.314,0.342 0.677,1.346 0.363,1.004 0.46,1.968 0.096,0.964 0.118,2.077 0.022,1.113 -0.026,2.954 -0.048,1.842 -0.141,3.018 -0.092,1.177 -0.248,2.143 -0.156,0.966 -0.377,1.663 -0.221,0.697 -0.375,0.988 -0.155,0.292 -0.318,0.448 -0.164,0.156 -0.657,0.466 -0.493,0.311 -1.343,0.611 -0.85,0.299 -1.82,0.506 -0.97,0.206 -1.172,0.242 -0.201,0.036 -0.451,0.054 -0.249,0.019 -1.269,0.126 -1.02,0.109 -1.721,0.199 -0.7,0.091 -1.327,0.19 -0.628,0.098 -0.917,0.148 -0.29,0.051 -1.142,0.181 -0.851,0.129 -2.135,0.254 -1.284,0.124 -1.58,0.144 -0.296,0.02 -2.189,0.129 -1.892,0.109 -2.642,0.126 -0.75,0.018 -2.495,0.033 -1.745,0.015 -4.455,-0.053 -2.71,-0.069 -4.942,-0.356 -2.232,-0.286 -3.121,-0.64 -0.89,-0.353 -1.127,-0.518 -0.238,-0.165 -0.444,-0.464 -0.206,-0.3 -0.337,-0.576 -0.132,-0.277 -0.287,-0.833 -0.155,-0.556 -0.212,-1.015 -0.056,-0.459 -0.1,-1.069 -0.043,-0.61 -0.035,-2.103 0.008,-1.492 0.004,-1.569 -0.003,-0.078 0.155,-2.091" /><path
     id="STROKE_12d7e949-fada-4bfd-b627-4a04190f373a"
     opacity="1"
     fill="none"
     stroke="#FFFFFF"
     stroke-width="2"
     stroke-opacity="1"
     stroke-linecap="round"
     stroke-linejoin="round"
     d="m -414.16,1691.5 0.758,0.051 q 0.265,0.065 3.95,0.261 3.685,0.198 5.693,0.255 2.009,0.057 4.002,0.246 1.993,0.189 5.282,0.325 3.288,0.137 8.231,0.063 4.943,-0.074 9.267,-0.02 4.325,0.053 6.016,0.143 1.691,0.091 2.543,0.133 0.852,0.041 1.3,0.061 0.447,0.019 0.674,0.022 0.227,0 0.764,0.128 l 0.984,0.152" /><path
     id="STROKE_2422b01b-a24f-4468-9dd5-97d515eb9461"
     opacity="1"
     fill="none"
     stroke="#FFFFFF"
     stroke-width="2"
     stroke-opacity="1"
     stroke-linecap="round"
     stroke-linejoin="round"
     d="m -354.994,1684.915 q 0.204,0.916 0.502,3.782 0.297,2.867 0.7,7.938 0.071,0.12 0.018,0.166" /><path
     id="STROKE_c8b10fc2-b22e-4b5c-9a4c-4a00ab48a7a1"
     opacity="1"
     fill="none"
     stroke="#FFFFFF"
     stroke-width="2"
     stroke-opacity="1"
     stroke-linecap="round"
     stroke-linejoin="round"
     d="m -353.61,1693.422 0.625,-0.247 q 0.606,-0.094 2.276,-0.297 1.67,-0.204 3.407,-0.588 0.085,-0.011 0.379,0.01" /><path
     id="STROKE_c7dc892f-0b1d-4588-a552-f3069e8472b6"
     opacity="1"
     fill="none"
     stroke="#FFFFFF"
     stroke-width="2"
     stroke-opacity="1"
     stroke-linecap="round"
     stroke-linejoin="round"
     d="m -347.215,1684.253 -0.114,0.689 q -0.059,0.602 -0.07,1.409 -0.011,0.807 0.01,1.623 0.021,0.815 0.183,2.328 0.162,1.513 0.284,3.211 0.122,1.698 0.131,3.032 l -0.096,0.981" /><path
     id="STROKE_c7f96db9-d7ba-492b-b28a-6923c1377dda"
     opacity="1"
     fill="none"
     stroke="#FFFFFF"
     stroke-width="2"
     stroke-opacity="1"
     stroke-linecap="round"
     stroke-linejoin="round"
     d="m -340.164,1694.319 q 0.122,-0.03 0.753,-0.245 0.632,-0.215 1.103,-0.494 0.47,-0.28 0.708,-0.558 0.238,-0.277 0.303,-0.433 0.065,-0.155 0.091,-0.339 0.025,-0.185 -0.166,-0.379 -0.191,-0.194 -0.367,-0.273 -0.175,-0.079 -0.511,-0.095 -0.337,-0.016 -0.446,0.014 -0.11,0.03 -0.314,0.203 -0.204,0.174 -0.462,0.553 -0.259,0.379 -0.47,0.907 -0.21,0.528 -0.256,0.989 -0.045,0.462 0.086,1.018 0.132,0.557 0.566,1.167 0.434,0.611 0.729,0.862 0.295,0.251 0.8,0.431 0.505,0.181 0.97,0.189 0.465,0.01 0.725,-0.026 0.261,-0.035 0.734,-0.104 0.473,-0.07 1.318,-0.345" /><path
     id="STROKE_59cc0886-abb5-4e10-8af5-15615572b1d6"
     opacity="1"
     fill="none"
     stroke="#FFFFFF"
     stroke-width="2"
     stroke-opacity="1"
     stroke-linecap="round"
     stroke-linejoin="round"
     d="m -326.09,1694.879 q -0.204,-0.492 -0.351,-0.805 -0.146,-0.313 -0.235,-0.466 -0.088,-0.153 -0.257,-0.379 -0.168,-0.225 -0.302,-0.345 -0.133,-0.119 -0.356,-0.272 -0.223,-0.154 -0.798,-0.334 -0.574,-0.181 -1.315,-0.07 -0.741,0.111 -1.466,0.824 -0.725,0.714 -0.813,1.411 -0.087,0.696 0.07,1.101 0.158,0.404 0.466,0.771 0.307,0.367 0.624,0.574 0.317,0.208 0.62,0.314 0.304,0.106 0.787,0.102 0.484,0 0.974,-0.183 0.49,-0.181 0.616,-0.25 0.126,-0.07 1.399,-0.835" /><path
     id="STROKE_6d84aa1d-37ea-4358-a8c4-cab87ccdc0fa"
     opacity="1"
     fill="none"
     stroke="#FFFFFF"
     stroke-width="2"
     stroke-opacity="1"
     stroke-linecap="round"
     stroke-linejoin="round"
     d="m -325.434,1691.602 -0.051,0.18 q -0.168,1.306 -0.261,3.51 -0.093,2.205 -0.152,2.998" /><path
     id="STROKE_7e370716-0274-417f-8c2b-48ca9e360022"
     opacity="1"
     fill="none"
     stroke="#FFFFFF"
     stroke-width="2"
     stroke-opacity="1"
     stroke-linecap="round"
     stroke-linejoin="round"
     d="m -315.996,1693.689 q -0.977,-0.655 -1.045,-0.657 -0.765,-0.263 -1.689,-0.293 -0.924,-0.03 -1.329,0.058 -0.404,0.087 -0.608,0.191 -0.204,0.104 -0.659,0.465 -0.456,0.36 -0.758,0.915 -0.303,0.554 -0.331,1.113 -0.028,0.56 0.156,0.969 0.184,0.41 0.373,0.618 0.188,0.208 0.347,0.322 0.159,0.113 0.763,0.279 0.603,0.167 0.968,0.176 0.366,0.01 2.882,-0.949" /><path
     id="STROKE_82799386-3228-409e-b5a1-f832869fe77f"
     opacity="1"
     fill="none"
     stroke="#FFFFFF"
     stroke-width="2"
     stroke-opacity="1"
     stroke-linecap="round"
     stroke-linejoin="round"
     d="m -315.532,1683.661 q -0.043,0.152 -0.128,0.901 -0.086,0.749 -0.175,1.94 -0.089,1.192 -0.164,2.394 -0.076,1.202 -0.163,2.556 -0.087,1.355 -0.152,2.4 -0.066,1.046 -0.087,2.119 -0.02,1.073 0.053,1.339 0.074,0.267 0.124,0.846" /><circle
     id="STROKE_113b374a-89ec-4e2a-99e2-10c48ff5a172"
     opacity="1"
     fill="#FFFFFF"
     stroke="#FFFFFF"
     stroke-width="0.1"
     stroke-opacity="1"
     fill-opacity="1"
     cx="-311.13199"
     cy="1690.546"
     r="1" /><path
     id="STROKE_84f4ee94-0d26-487c-b05d-b73e165e9117"
     opacity="1"
     fill="none"
     stroke="#FFFFFF"
     stroke-width="2"
     stroke-opacity="1"
     stroke-linecap="round"
     stroke-linejoin="round"
     d="m -311.032,1693.988 q 0.092,1.317 0.201,2.726 0.109,1.409 0.1,1.97" /><path
     id="STROKE_9f7eb444-efc6-44a6-b076-dca1642b8c9a"
     opacity="1"
     fill="none"
     stroke="#FFFFFF"
     stroke-width="2"
     stroke-opacity="1"
     stroke-linecap="round"
     stroke-linejoin="round"
     d="m -305.703,1690.476 q -0.077,0.425 1.06,5.44 0.022,-0.046 0.423,-0.76 0.401,-0.713 0.929,-1.396 0.527,-0.684 0.915,-0.997 0.388,-0.314 0.846,-0.425 0.458,-0.111 0.958,-0.01 0.5,0.105 0.867,0.475 0.366,0.37 0.56,0.78 0.193,0.411 0.294,0.75 0.101,0.339 0.304,2.958 l -0.096,0.727" /><path
     id="STROKE_59815d06-ab4b-41ea-a8a3-880585a15a30"
     opacity="1"
     fill="none"
     stroke="#FFFFFF"
     stroke-width="2"
     stroke-opacity="1"
     stroke-linecap="round"
     stroke-linejoin="round"
     d="m -288.75,1696.139 -0.032,-0.325 q -0.076,-0.418 -0.474,-1.25 -0.399,-0.831 -0.734,-1.209 -0.335,-0.378 -0.725,-0.652 -0.39,-0.275 -0.821,-0.409 -0.43,-0.134 -1.069,-0.04 -0.638,0.093 -1.257,0.551 -0.62,0.459 -0.935,1.048 -0.314,0.59 -0.381,1.277 -0.066,0.687 0.149,1.233 0.215,0.545 0.471,0.848 0.256,0.302 0.869,0.575 0.612,0.272 0.92,0.286 0.307,0.014 0.665,-0.061 0.358,-0.074 0.663,-0.194 0.305,-0.119 0.891,-0.442 0.586,-0.322 0.941,-0.514 0,0.099 0.019,0.222 0.02,0.122 0.172,1.13 0.153,1.009 0.461,4.862 0.307,3.854 0.181,4.603 -0.125,0.749 -0.159,0.888 -0.033,0.14 -0.202,0.559 -0.168,0.42 -0.289,0.593 -0.12,0.172 -0.284,0.289 -0.165,0.116 -0.817,0.321 -0.652,0.206 -1.092,0.177 -0.44,-0.028 -0.904,-0.23 -0.465,-0.203 -0.995,-0.776 -0.531,-0.573 -0.762,-1.04 -0.231,-0.466 -0.368,-1.081 -0.136,-0.615 -0.161,-1.08 -0.024,-0.465 0.338,-2.282" /><path
     id="STROKE_8abe0109-bdfd-430f-bd9d-d4456b969c0b"
     opacity="1"
     fill="none"
     stroke="#FFFFFF"
     stroke-width="2"
     stroke-opacity="1"
     stroke-linecap="round"
     stroke-linejoin="round"
     d="m -458.234,1737.263 q 1.518,0 3.142,-0.01 1.624,-0.013 2.65,-0.034 1.025,-0.021 1.377,-0.024 0.352,0 1.873,-0.066 1.521,-0.062 2.519,-0.116 0.998,-0.053 2.446,-0.107 1.448,-0.053 3.537,-0.159 2.09,-0.107 3.289,-0.14 1.2,-0.034 4.747,-0.034 3.548,0 5.478,0.01 1.93,0.01 3.475,0.01 1.546,0 5.235,-0.039 3.689,-0.04 5.455,-0.062 1.766,-0.022 2.503,-0.033 0.737,-0.012 2.109,-0.031 1.372,-0.018 2.305,-0.035 0.933,-0.017 2.125,-0.05" /><path
     id="STROKE_81127c29-bd18-4b6b-b6a3-aeaa48cfbd9e"
     opacity="1"
     fill="none"
     stroke="#FFFFFF"
     stroke-width="2"
     stroke-opacity="1"
     stroke-linecap="round"
     stroke-linejoin="round"
     d="m -375.721,1732.128 q -0.132,-0.203 -0.175,-0.31 -0.044,-0.106 -0.256,-0.432 -0.213,-0.327 -0.357,-0.521 -0.145,-0.193 -0.255,-0.352 -0.11,-0.159 -0.903,-0.989 -0.792,-0.83 -1.323,-1.172 -0.531,-0.342 -1.347,-0.561 -0.816,-0.219 -1.561,-0.133 -0.745,0.087 -1.053,0.21 -0.308,0.123 -1.258,0.78 -0.949,0.657 -1.452,1.239 -0.503,0.582 -1.092,1.867 -0.589,1.285 -0.72,3.42 -0.13,2.136 0.439,3.994 0.568,1.857 1.178,2.737 0.61,0.88 1.026,1.235 0.416,0.355 1.265,0.651 0.849,0.295 2.572,-0.1 1.724,-0.396 2.999,-1.255 1.275,-0.859 2.596,-2.433 l 0.333,-0.659" /><path
     id="STROKE_9997b395-6525-4c47-a7fb-1a98975593ef"
     opacity="1"
     fill="none"
     stroke="#FFFFFF"
     stroke-width="2"
     stroke-opacity="1"
     stroke-linecap="round"
     stroke-linejoin="round"
     d="m -362.776,1739.579 q -0.049,-0.072 -0.636,-0.727 -0.587,-0.654 -1.214,-1.02 -0.628,-0.365 -1.294,-0.438 -0.665,-0.073 -1.397,0.297 -0.733,0.37 -1.175,0.907 -0.441,0.538 -0.66,1.245 -0.218,0.708 -0.093,1.426 0.125,0.718 0.534,1.18 0.409,0.463 1.021,0.716 0.613,0.253 1.179,0.252 0.566,0 1.069,-0.197 0.503,-0.198 0.766,-0.423 0.264,-0.225 0.445,-0.432 0.181,-0.208 0.425,-0.551 0.245,-0.344 1.194,-1.605" /><path
     id="STROKE_f39ddcd0-220e-4407-9ef5-ddd0b7fa57f4"
     opacity="1"
     fill="none"
     stroke="#FFFFFF"
     stroke-width="2"
     stroke-opacity="1"
     stroke-linecap="round"
     stroke-linejoin="round"
     d="m -359.897,1736.83 0.124,0.227 0.134,0.298 0.093,0.333 q 0.147,0.636 0.445,1.997 0.298,1.361 0.66,1.995 0.252,-0.26 0.543,-0.785 0.292,-0.526 0.566,-0.916 0.275,-0.391 0.736,-0.708 0.461,-0.317 1.002,-0.411 0.542,-0.094 0.784,-0.038 0.242,0.057 0.497,0.23 0.256,0.173 0.83,1.29 0.574,1.117 0.891,2.586 l 0.079,0.043 q 0.056,0.024 0.158,0.248" /><path
     id="STROKE_80ce6988-0815-4adb-9e64-2d2e263d5ec4"
     opacity="1"
     fill="none"
     stroke="#FFFFFF"
     stroke-width="2"
     stroke-opacity="1"
     stroke-linecap="round"
     stroke-linejoin="round"
     d="m -345.432,1730.181 q -0.02,0.126 -0.103,0.376 -0.082,0.249 -0.101,1.36 -0.018,1.11 0.315,3.872 0.334,2.763 1.87,8.219 0.667,0.203 1.609,-0.199 0.941,-0.401 1.816,-1.33 l 0.424,-0.647" /><path
     id="STROKE_72760340-b1c5-4793-aa0f-484985186cec"
     opacity="1"
     fill="none"
     stroke="#FFFFFF"
     stroke-width="2"
     stroke-opacity="1"
     stroke-linecap="round"
     stroke-linejoin="round"
     d="m -348.939,1737.492 0.218,-0.062 q 2.931,-0.438 4.676,-0.566 1.746,-0.128 3.648,-0.076 l 0.367,0.011" /><path
     id="STROKE_cd644ba4-6aeb-4c2f-a574-f5a691f78409"
     opacity="1"
     fill="none"
     stroke="#FFFFFF"
     stroke-width="2"
     stroke-opacity="1"
     stroke-linecap="round"
     stroke-linejoin="round"
     d="m -332.979,1741.431 0.33,-0.157 0.33,-0.091 q 0.782,-0.282 1.318,-0.684 0.535,-0.403 0.684,-0.617 0.15,-0.215 0.202,-0.409 0.053,-0.194 0.043,-0.508 -0.01,-0.314 -0.279,-0.6 -0.268,-0.287 -0.39,-0.342 -0.123,-0.055 -0.703,-0.059 -0.58,0 -1.294,0.689 -0.715,0.692 -0.918,1.209 -0.203,0.517 -0.242,0.989 -0.039,0.472 0.032,0.843 0.071,0.37 0.237,0.699 0.165,0.329 0.512,0.744 0.347,0.415 0.755,0.676 0.408,0.261 0.739,0.388 0.33,0.126 1.051,0.258 0.72,0.131 1.797,-0.01 1.076,-0.139 3.147,-1.232" /><path
     id="STROKE_14687221-2adb-414c-9146-e707ffd31d7e"
     opacity="1"
     fill="none"
     stroke="#FFFFFF"
     stroke-width="2"
     stroke-opacity="1"
     stroke-linecap="round"
     stroke-linejoin="round"
     d="m -322.585,1736.2 -0.203,0.47 q -0.079,0.268 0.041,2.282 0.12,2.015 0.535,3.588 0.068,0.051 0.452,-0.463 0.384,-0.514 0.865,-1.336 0.482,-0.823 0.629,-1.044 0.148,-0.222 0.645,-0.749 0.498,-0.528 0.971,-0.654 0.473,-0.126 0.994,0.032 0.521,0.159 1.221,1.639 0.699,1.481 0.888,2.456 0.188,0.975 0.106,1.119 -0.082,0.143 -0.193,0.474" /><path
     id="STROKE_bbc8dde8-5346-4aeb-ae54-9a178eab998e"
     opacity="1"
     fill="none"
     stroke="#FFFFFF"
     stroke-width="2"
     stroke-opacity="1"
     stroke-linecap="round"
     stroke-linejoin="round"
     d="m -309.604,1731.899 q 0.212,0.222 0.388,0.439 0.051,0.058 0.493,2.225 0.442,2.166 0.707,3.687 0.265,1.521 0.52,2.182 0.254,0.662 0.654,1.131 0.399,0.47 0.684,0.634 0.285,0.165 0.461,0.224 0.175,0.059 0.581,0.103 0.407,0.044 2.961,-0.906 l 0.822,-0.416" /><path
     id="STROKE_74934cb0-6678-451a-8dfc-a60bdcf6a859"
     opacity="1"
     fill="none"
     stroke="#FFFFFF"
     stroke-width="2"
     stroke-opacity="1"
     stroke-linecap="round"
     stroke-linejoin="round"
     d="m -310.369,1736.468 0.236,0.022 0.261,0.014 0.473,-0.015 q 0.805,-0.058 7.474,-0.518" /><path
     id="STROKE_38aa400b-d29e-4b22-a7ab-8a26d1ab998e"
     opacity="1"
     fill="none"
     stroke="#FFFFFF"
     stroke-width="5"
     stroke-opacity="1"
     stroke-linecap="round"
     stroke-linejoin="round"
     d="m -500.159,1526.665 q -0.274,1.074 0.039,7.21 0.313,6.135 0.797,14.121 0.483,7.987 1.033,13.802 0.077,0.147 0.444,1.149" /><path
     id="STROKE_cf48decc-9146-46a3-92e0-a4221da0e2fe"
     opacity="1"
     fill="none"
     stroke="#FFFFFF"
     stroke-width="5"
     stroke-opacity="1"
     stroke-linecap="round"
     stroke-linejoin="round"
     d="m -500.287,1526.729 0.299,1.101 q 0.168,0.474 1.308,3.915 1.14,3.441 2.835,7.789 1.695,4.348 3.335,7.66 1.639,3.312 3.127,5.855 1.487,2.542 2.834,4.605 1.346,2.063 2.406,3.321 0.214,-0.153 0.315,-0.304 0.101,-0.15 0.34,-3.503 0.239,-3.352 -0.411,-13.267 -0.65,-9.915 -0.965,-16.733 0.031,-0.126 -0.265,-1.228" /><path
     id="STROKE_94c45f88-5bb0-4ca8-b9aa-ee1cb4e86937"
     opacity="1"
     fill="none"
     stroke="#FFFFFF"
     stroke-width="5"
     stroke-opacity="1"
     stroke-linecap="round"
     stroke-linejoin="round"
     d="m -457.782,1548.783 -0.494,-0.773 -0.49,-0.64 q -0.119,-0.171 -1.327,-1.158 -1.209,-0.988 -2.086,-1.327 -0.876,-0.34 -1.972,-0.42 -1.096,-0.08 -2.52,0.726 -1.424,0.807 -2.236,1.694 -0.811,0.887 -1.53,2.172 -0.72,1.285 -0.922,1.921 -0.203,0.636 -0.363,1.765 -0.16,1.128 -0.048,2.163 0.111,1.035 1.266,2.742 1.154,1.708 2.071,2.411 0.917,0.704 1.802,0.961 0.885,0.256 1.796,0.182 0.911,-0.074 2.144,-0.601 1.233,-0.527 2.796,-1.811 1.563,-1.284 2.721,-2.218 l 0.538,0.615 q 0.079,0.25 2.527,5.851 l 0.171,0.303" /><path
     id="STROKE_9376b6d9-b660-46d6-ad14-0107340652b0"
     opacity="1"
     fill="none"
     stroke="#FFFFFF"
     stroke-width="5"
     stroke-opacity="1"
     stroke-linecap="round"
     stroke-linejoin="round"
     d="m -445.539,1542.025 -0.073,0.613 q 0.016,1.185 -0.01,1.452 -0.026,0.266 0.273,5.396 0.299,5.13 1.201,8.284 l 0.172,-0.361 q 0.126,-0.658 1.054,-3.374 0.929,-2.716 2.438,-5.107 1.508,-2.39 2.236,-3.008 0.727,-0.617 1.443,-0.832 0.715,-0.215 1.136,-0.083 0.42,0.132 0.689,0.328 0.269,0.196 1.489,2.073 1.219,1.876 1.945,4.514 0.727,2.637 0.873,3.786 0.146,1.149 0.209,0.765 0.064,-0.384 0.438,-2.249 0.375,-1.865 1.25,-3.975 0.874,-2.109 1.906,-3.506 1.032,-1.397 1.666,-1.807 0.634,-0.41 1.169,-0.546 0.535,-0.136 0.888,-0.14 0.354,-0.01 0.906,0.244 0.552,0.248 1.427,1.168 0.875,0.92 1.419,1.849 0.545,0.928 1.341,3.793 0.797,2.865 0.958,4.105 0.161,1.241 0.507,2.768" /><path
     id="STROKE_99d95454-9e8c-460b-9c4a-9e8d0325d834"
     opacity="1"
     fill="none"
     stroke="#FFFFFF"
     stroke-width="5"
     stroke-opacity="1"
     stroke-linecap="round"
     stroke-linejoin="round"
     d="m -401.103,1555.464 q 0.126,-0.179 0.496,-0.372 0.454,-0.197 2.263,-1.779 1.808,-1.582 2.96,-3.087 1.151,-1.505 1.523,-2.319 0.371,-0.814 0.437,-1.718 0.065,-0.903 -0.004,-1.245 -0.07,-0.341 -0.571,-0.909 -0.501,-0.567 -0.742,-0.695 -0.241,-0.128 -1.1,-0.274 -0.86,-0.145 -1.879,0.066 -1.019,0.212 -2.061,0.948 -1.043,0.736 -1.478,1.221 -0.435,0.485 -0.944,1.173 -0.509,0.689 -1.233,2.42 -0.724,1.731 -0.918,2.971 -0.193,1.241 -0.028,2.51 0.166,1.269 0.441,1.925 0.274,0.657 0.635,1.217 0.361,0.561 1.026,1.211 0.665,0.65 1.107,0.923 0.441,0.274 1.272,0.551 0.831,0.278 1.695,0.361 0.864,0.083 1.457,0.035 0.593,-0.049 2.032,-0.527 1.439,-0.478 3.207,-1.446 1.767,-0.967 4.782,-3.428" /><path
     id="STROKE_f5d304b5-163a-45cc-907f-b9c3aa81f0df"
     opacity="1"
     fill="none"
     stroke="#FFFFFF"
     stroke-width="2"
     stroke-opacity="1"
     stroke-linecap="round"
     stroke-linejoin="round"
     d="m -504.337,1603.678 q 0.225,-0.079 3.09,-0.372 2.865,-0.294 6.283,-0.593 0.374,0.09 0.793,0.036" /><path
     id="STROKE_07b4a338-a8ad-4e81-810f-4e2488d0b1a0"
     opacity="1"
     fill="none"
     stroke="#FFFFFF"
     stroke-width="2"
     stroke-opacity="1"
     stroke-linecap="round"
     stroke-linejoin="round"
     d="m -482.657,1593.714 q -0.023,0.156 0.114,2.592 0.136,2.436 1.82,11.562 0.052,0.05 0.074,-0.516 0.021,-0.567 0.206,-1.445 0.185,-0.879 0.425,-1.501 0.241,-0.623 0.905,-1.413 0.663,-0.79 1.166,-1.033 0.502,-0.243 0.838,-0.266 0.335,-0.023 0.55,0.073 0.215,0.097 0.704,0.583 0.49,0.487 1.294,1.99 0.805,1.504 1.16,2.861 0.354,1.357 0.519,1.873" /><path
     id="STROKE_59741952-5ad7-414f-93a6-a0749e5999f8"
     opacity="1"
     fill="none"
     stroke="#FFFFFF"
     stroke-width="2"
     stroke-opacity="1"
     stroke-linecap="round"
     stroke-linejoin="round"
     d="m -466.761,1594.408 q -0.007,0.177 0.159,3.52 0.167,3.344 0.571,5.5 0.404,2.156 0.815,2.983 0.41,0.827 0.635,1.056 0.224,0.228 0.48,0.37 0.257,0.142 0.499,0.185 0.242,0.042 0.811,-0.037 0.568,-0.079 2.689,-0.966" /><path
     id="STROKE_5bb33b21-5cd3-43c7-8afc-2e029c701968"
     opacity="1"
     fill="none"
     stroke="#FFFFFF"
     stroke-width="2"
     stroke-opacity="1"
     stroke-linecap="round"
     stroke-linejoin="round"
     d="m -469.339,1602.387 q 0.625,-0.036 5.457,-1.095" /><path
     id="STROKE_a3aaa050-7287-497a-a6aa-d95d70a46eec"
     opacity="1"
     fill="none"
     stroke="#FFFFFF"
     stroke-width="2"
     stroke-opacity="1"
     stroke-linecap="round"
     stroke-linejoin="round"
     d="m -456.066,1593.848 q -0.075,0.548 -0.035,1.503 0.04,0.955 0.23,2.931 0.189,1.977 0.53,3.74 0.342,1.763 0.645,2.517 0.304,0.753 0.733,1.257 0.429,0.503 0.635,0.565 0.206,0.062 0.495,0.122 0.289,0.06 1.089,-0.158 0.8,-0.218 2.237,-0.96" /><path
     id="STROKE_4f1daa26-5a6b-4585-88d0-85dac4208d57"
     opacity="1"
     fill="none"
     stroke="#FFFFFF"
     stroke-width="2"
     stroke-opacity="1"
     stroke-linecap="round"
     stroke-linejoin="round"
     d="m -458.453,1600.529 q 0.386,-0.109 0.729,-0.191 0.342,-0.083 0.617,-0.127 0.274,-0.045 0.904,-0.12 0.631,-0.075 4.309,-0.453" /><path
     id="STROKE_d510438b-7d3c-4a27-8abe-e5c2be350e0e"
     opacity="1"
     fill="none"
     stroke="#FFFFFF"
     stroke-width="2"
     stroke-opacity="1"
     stroke-linecap="round"
     stroke-linejoin="round"
     d="m -444.442,1600.363 q -0.093,1.079 2.013,15.825" /><path
     id="STROKE_e3d98de2-a3a3-418a-9c1f-01dabb9d1a7d"
     opacity="1"
     fill="none"
     stroke="#FFFFFF"
     stroke-width="2"
     stroke-opacity="1"
     stroke-linecap="round"
     stroke-linejoin="round"
     d="m -444.706,1600.993 q 0.504,-0.302 0.69,-0.397 0.185,-0.096 0.255,-0.125 0.07,-0.029 0.585,-0.158 0.515,-0.128 1.301,-0.147 0.787,-0.02 1.385,0.105 0.599,0.124 1.066,0.378 0.467,0.253 0.88,0.685 0.413,0.432 0.643,1.31 0.23,0.878 0.174,1.308 -0.056,0.429 -0.216,0.869 -0.159,0.44 -1.143,0.98 -0.984,0.54 -4.6,1.186" /><path
     id="STROKE_527c0873-8587-4261-9587-240ca3ca3694"
     opacity="1"
     fill="none"
     stroke="#FFFFFF"
     stroke-width="2"
     stroke-opacity="1"
     stroke-linecap="round"
     stroke-linejoin="round"
     d="m -427.991,1600.102 -0.234,-0.051 q -0.631,-0.069 -1.145,-0.071 -0.514,0 -1.378,0.182 -0.864,0.186 -1.435,0.592 -0.572,0.406 -0.791,0.745 -0.219,0.339 -0.278,0.673 -0.059,0.335 -0.002,0.6 0.056,0.266 0.189,0.445 0.132,0.18 0.326,0.334 0.195,0.154 0.36,0.249 0.165,0.094 0.664,0.279 0.499,0.185 1.269,0.31 0.771,0.125 1.363,0.213 0.592,0.089 0.904,0.19 0.312,0.101 0.444,0.164 0.132,0.063 0.45,0.286 0.319,0.223 0.628,0.516 0.309,0.293 0.444,0.658 0.135,0.365 0.119,0.645 -0.015,0.28 -0.158,0.446 -0.142,0.166 -0.328,0.252 -0.186,0.086 -1.095,0.263 -0.909,0.177 -4.268,-0.394 -0.123,-0.065 -0.548,-0.278" /><circle
     id="STROKE_aeeba181-8fd5-4c3d-8301-64c03b5d6ab5"
     opacity="1"
     fill="#FFFFFF"
     stroke="#FFFFFF"
     stroke-width="0.1"
     stroke-opacity="1"
     fill-opacity="1"
     cx="-421.40399"
     cy="1599.74"
     r="1" /><circle
     id="STROKE_9507b66c-d47a-49cb-b9df-edef220e1498"
     opacity="1"
     fill="#FFFFFF"
     stroke="#FFFFFF"
     stroke-width="0.1"
     stroke-opacity="1"
     fill-opacity="1"
     cx="-420.84"
     cy="1606.79"
     r="1" /><path
     id="STROKE_3dbd0757-7e22-4383-b213-56b798220ddb"
     opacity="1"
     fill="none"
     stroke="#FFFFFF"
     stroke-width="2"
     stroke-opacity="1"
     stroke-linecap="round"
     stroke-linejoin="round"
     d="m -409.68,1593.052 q -0.223,0.456 -0.942,2.525 -0.72,2.069 -1.338,3.951 -0.617,1.882 -0.996,3.028 -0.378,1.147 -2.736,8.552 l -0.083,0.18" /><path
     id="STROKE_891ba938-16e8-4600-86f9-1a6dbd53da83"
     opacity="1"
     fill="none"
     stroke="#FFFFFF"
     stroke-width="2"
     stroke-opacity="1"
     stroke-linecap="round"
     stroke-linejoin="round"
     d="m -403.75,1594.077 -0.137,0.227 q -0.45,0.985 -1.04,2.371 -0.59,1.386 -1.917,4.492 -1.327,3.105 -2.013,4.875 -0.687,1.771 -1.43,4.194 -0.022,0.034 -0.159,0.493" /><circle
     id="STROKE_9303c706-77ba-4015-b820-a41a2e8d9aa0"
     opacity="1"
     fill="#FFFFFF"
     stroke="#FFFFFF"
     stroke-width="0.1"
     stroke-opacity="1"
     fill-opacity="1"
     cx="-399.28601"
     cy="1606.822"
     r="1" /><circle
     id="STROKE_41b018eb-ac5c-493e-97e4-a68153a902d1"
     opacity="1"
     fill="#FFFFFF"
     stroke="#FFFFFF"
     stroke-width="0.1"
     stroke-opacity="1"
     fill-opacity="1"
     cx="-392.035"
     cy="1607.248"
     r="1" /><circle
     id="STROKE_b8a34ae1-a60a-4cd2-be63-babc9d349539"
     opacity="1"
     fill="#FFFFFF"
     stroke="#FFFFFF"
     stroke-width="0.1"
     stroke-opacity="1"
     fill-opacity="1"
     cx="-384.25601"
     cy="1607.413"
     r="1" /><path
     id="STROKE_a4ef0942-92d1-4603-b11d-2dacd6b16853"
     opacity="1"
     fill="none"
     stroke="#FFFFFF"
     stroke-width="2"
     stroke-opacity="1"
     stroke-linecap="round"
     stroke-linejoin="round"
     d="m -505.203,1634.526 q 0.43,-0.033 2.343,-0.27 1.912,-0.236 3.228,-0.334 1.316,-0.098 1.967,-0.119 0.652,-0.022 1.181,-0.022 0.529,0 0.635,-0.017 0.106,-0.016 1.099,0.057 0.994,0.072 1.399,0.043" /><circle
     id="STROKE_f567aa17-4e20-4175-ad43-6a4f3772fcfd"
     opacity="1"
     fill="#FFFFFF"
     stroke="#FFFFFF"
     stroke-width="0.1"
     stroke-opacity="1"
     fill-opacity="1"
     cx="-480.20599"
     cy="1638.1021"
     r="1" /><circle
     id="STROKE_da9559c4-2a1e-4ba3-b883-385f0269bc07"
     opacity="1"
     fill="#FFFFFF"
     stroke="#FFFFFF"
     stroke-width="0.1"
     stroke-opacity="1"
     fill-opacity="1"
     cx="-470.76901"
     cy="1639.024"
     r="1" /><circle
     id="STROKE_d8715d86-acce-4308-8fa5-de5be0ff55e5"
     opacity="1"
     fill="#FFFFFF"
     stroke="#FFFFFF"
     stroke-width="0.1"
     stroke-opacity="1"
     fill-opacity="1"
     cx="-461.45901"
     cy="1638.528"
     r="1" /><path
     id="STROKE_f312e120-e1b5-4332-b33d-f084e12eb3c0"
     opacity="1"
     fill="none"
     stroke="#FFFFFF"
     stroke-width="2"
     stroke-opacity="1"
     stroke-linecap="round"
     stroke-linejoin="round"
     d="m -504.739,1671.244 q 1.5,-0.148 5.507,-0.279 4.007,-0.132 6.275,-0.164 2.269,-0.033 9.038,-0.649 6.77,-0.617 12.366,-1.138 5.596,-0.522 9.99,-0.69 4.394,-0.168 8.064,-0.378 3.671,-0.21 7.6,-0.538 3.93,-0.329 8.752,-0.462 4.823,-0.133 7.991,-0.118 3.168,0.015 7.472,0.071 4.304,0.056 8.795,-0.065 4.49,-0.121 6.861,-0.242 2.371,-0.121 4.044,-0.174 1.673,-0.053 3.75,-0.095 2.077,-0.042 4.997,-0.046 2.919,0 9.621,-0.176 6.702,-0.173 10.172,-0.309 3.47,-0.137 11.839,-0.183 8.368,-0.046 10.945,-0.044 2.576,10e-4 11.774,-0.321 9.198,-0.323 13.813,-0.492 4.614,-0.169 8.266,-0.196 3.652,-0.028 6.025,0 2.373,0.031 8.697,0.139 6.323,0.107 10.047,0.025 3.724,-0.083 9.394,-0.285 5.671,-0.202 8.514,-0.22 2.844,-0.018 8.039,-0.221 5.194,-0.203 8.716,-0.343 3.522,-0.139 8.718,-0.135 5.196,0 7.918,0.048 2.721,0.045 5.968,0.095 3.246,0.05 4.88,0.141 1.635,0.092 2.552,0.183 0.917,0.09 2.215,0.259 1.298,0.168 4.262,0.329 2.964,0.161 4.546,0.217 1.581,0.055 2.598,0.143 1.018,0.089 2.12,0.185 1.102,0.096 3.933,0.241 l 0.834,0.094" /><path
     id="STROKE_227df33d-d74a-4f3e-a0b6-aa4a55fc05e6"
     opacity="1"
     fill="none"
     stroke="#FFFFFF"
     stroke-width="2"
     stroke-opacity="1"
     stroke-linecap="round"
     stroke-linejoin="round"
     d="m -511.69,1615.741 v -0.67 q 0.019,-0.19 -0.128,-3.331 -0.148,-3.142 -0.326,-5.224 -0.179,-2.082 -0.231,-3.044 -0.052,-0.962 -0.057,-0.984 -0.004,-0.022 0.025,-2.037 0.029,-2.015 0.249,-3.277 0.22,-1.262 0.373,-1.689 0.153,-0.427 0.642,-1.334 0.489,-0.906 0.783,-1.293 0.294,-0.387 0.668,-0.735 0.374,-0.348 1.147,-0.844 0.772,-0.496 1.836,-0.925 1.065,-0.43 1.729,-0.588 0.663,-0.157 0.995,-0.211 0.332,-0.055 1.239,-0.164 0.906,-0.11 1.708,-0.122 0.802,-0.013 1.713,0.014 0.91,0.027 1.527,0.041 0.617,0.013 1.214,0.023 0.597,0.01 1.141,0.029 0.544,0.019 2.314,0.04 1.771,0.021 3.884,-0.01 2.113,-0.027 2.208,-0.022 0.095,0.01 1.933,-0.125 1.838,-0.13 4.354,-0.294 2.515,-0.165 3.71,-0.246 1.194,-0.081 3.136,-0.152 1.942,-0.071 2.493,-0.104 0.552,-0.033 1.346,-0.054 0.795,-0.022 3.217,-0.101 2.422,-0.08 3.644,-0.14 1.222,-0.06 3.641,-0.119 2.419,-0.059 4.275,-0.096 1.855,-0.038 2.881,-0.049 1.025,-0.011 2.225,-0.023 1.2,-0.013 2.241,-0.036 1.041,-0.024 4.069,-0.03 3.027,-0.01 3.701,0 0.674,0 1.672,0.018 0.999,0.014 2.298,0.047 1.3,0.034 3.6,0.08 2.3,0.046 4.577,0.073 2.277,0.028 3.4,0.041 1.123,0.013 1.845,0.017 0.721,0 4.598,0.028 3.877,0.024 7.053,0.045 3.175,0.022 5.702,0.019 2.527,0 3.478,-0.012 0.951,-0.01 6,-0.023 5.05,-0.014 7.871,-0.01 2.822,0.01 4.096,0.01 1.274,0 3.018,0 1.745,0 3.129,0.029 1.385,0.026 2.61,0.09 1.226,0.065 1.616,0.101 0.39,0.037 0.9,0.126 0.51,0.089 0.73,0.135 0.22,0.046 0.833,0.235 0.613,0.188 1.043,0.392 0.43,0.204 0.65,0.348 0.22,0.144 0.422,0.31 0.202,0.166 0.444,0.436 0.243,0.271 0.496,0.683 0.254,0.411 0.516,1.179 0.263,0.768 0.375,1.686 0.111,0.919 0.088,2.469 -0.024,1.551 -0.053,2.263 -0.028,0.713 -0.103,2.569 -0.075,1.857 -0.122,2.929 -0.046,1.073 -0.064,1.716 -0.019,0.643 -0.025,1.296 -0.007,0.654 -0.048,2.547 -0.041,1.893 0.022,4.815 0.063,2.922 0.143,4.317 0.08,1.396 0.296,3.758 0.216,2.363 0.33,3.782 0.114,1.419 0.184,2.368 0.07,0.949 0.135,1.741 0.064,0.792 0.342,3.934 0.277,3.143 0.332,4.324 0.056,1.18 -0.016,2.704 -0.071,1.523 -0.243,2.295 -0.172,0.773 -0.319,1.127 -0.146,0.354 -0.235,0.484 -0.088,0.13 -0.286,0.333 -0.199,0.203 -0.217,0.238 -0.017,0.035 -0.435,0.346 -0.418,0.31 -0.849,0.509 -0.431,0.199 -1.379,0.497 -0.948,0.298 -1.519,0.401 -0.571,0.103 -0.897,0.127 -0.326,0.025 -0.925,0.03 -0.599,0 -1.804,0.027 -1.204,0.022 -2.979,0.1 -1.774,0.078 -2.755,0.115 -0.982,0.038 -1.605,0.053 -0.623,0.015 -2.658,0.027 -2.035,0.012 -5.874,0.385 -3.838,0.373 -5.991,0.615 -2.153,0.242 -3.296,0.322 -1.142,0.08 -4.015,0.171 -2.873,0.091 -6.313,0.182 -3.439,0.09 -5.927,0.098 -2.488,0.01 -3.855,0.029 -1.367,0.021 -2.915,0.167 -1.549,0.146 -6.172,0.318 -4.624,0.172 -8.123,0.128 -3.5,-0.044 -5.073,-0.113 -1.574,-0.069 -2.344,-0.088 -0.769,-0.02 -1.969,-0.03 -1.2,-0.011 -3.923,0 -2.724,0.01 -4.351,0.012 -1.628,0 -3.87,0.023 -2.242,0.02 -3.768,-0.013 -1.526,-0.033 -3.297,-0.048 -1.772,-0.016 -4.645,-0.01 -2.873,0.01 -4.651,0.022 -1.778,0.013 -3.149,0.034 -1.371,0.021 -6.049,0.036 -4.677,0.015 -7.02,0.054 -2.344,0.039 -4.737,0.128 -2.393,0.089 -4.08,0.117 -1.687,0.028 -2.844,0.01 -1.156,-0.02 -2.12,-0.085 -0.963,-0.064 -1.601,-0.131 -0.639,-0.066 -1.526,-0.343 -0.887,-0.276 -1.075,-0.347 -0.188,-0.071 -0.584,-0.42 -0.396,-0.349 -0.721,-0.832 -0.325,-0.483 -0.451,-0.759 -0.125,-0.276 -0.358,-1.066 -0.233,-0.791 -0.546,-5.541 -0.314,-4.75 -0.337,-5.154 -0.024,-0.405 -0.062,-1.649 -0.039,-1.245 -0.067,-2.342 -0.029,-1.097 -0.074,-2.169 -0.046,-1.072 -0.071,-1.979 -0.026,-0.907 -0.089,-2.918 -0.063,-2.012 -0.093,-2.99 -0.03,-0.978 -0.029,-1.152 0,-0.174 -0.166,-3.229" /><path
     id="STROKE_fb196708-276f-48cf-9372-e95f069fb7dd"
     opacity="1"
     fill="none"
     stroke="#FFFFFF"
     stroke-width="2"
     stroke-opacity="1"
     stroke-linecap="round"
     stroke-linejoin="round"
     d="m -366.74,1600.743 q 0.205,0.023 2.347,-0.127 2.142,-0.149 3.676,-0.209 1.534,-0.06 2.267,-0.036 0.733,0.024 1.972,0.022 1.239,0 1.959,-0.01 0.72,-0.01 1.236,0 0.516,0 1.255,0.013 0.739,0.011 1.388,0.01 0.65,0 1.901,-0.015 1.251,-0.012 1.409,-0.012 0.159,0 0.839,-0.025 0.681,-0.026 4.484,-0.4" /><path
     id="STROKE_e69cade9-c487-4953-88d4-14277c30580d"
     opacity="1"
     fill="none"
     stroke="#FFFFFF"
     stroke-width="2"
     stroke-opacity="1"
     stroke-linecap="round"
     stroke-linejoin="round"
     d="m -332.843,1591.078 q 0.007,0.528 0.223,5.385 0.216,4.856 0.616,7.337 0.4,2.48 1.114,3.7 0.236,0.132 0.658,0.222 0.108,0.08 1.746,0.26 1.637,0.179 2.426,0.232 0.79,0.052 1.955,0.225 1.165,0.174 2.021,0.301 l 0.4,0.25" /><path
     id="STROKE_b491ffa0-698b-4079-91db-eb87b49f517d"
     opacity="1"
     fill="none"
     stroke="#FFFFFF"
     stroke-width="2"
     stroke-opacity="1"
     stroke-linecap="round"
     stroke-linejoin="round"
     d="m -317.812,1595.748 q -0.083,-0.04 -0.108,0.111 0.03,-0.055 0.007,-0.084 -0.024,-0.029 -0.191,0.272" /><path
     id="STROKE_d22df346-c950-419f-a055-49f36b29c0e2"
     opacity="1"
     fill="none"
     stroke="#FFFFFF"
     stroke-width="2"
     stroke-opacity="1"
     stroke-linecap="round"
     stroke-linejoin="round"
     d="m -317.311,1601.64 q 0.007,0.209 0.602,5.136 l 0.063,0.756" /><path
     id="STROKE_675bc522-25cc-4d5e-9ca2-16a5e78e0c3e"
     opacity="1"
     fill="none"
     stroke="#FFFFFF"
     stroke-width="2"
     stroke-opacity="1"
     stroke-linecap="round"
     stroke-linejoin="round"
     d="m -305.36,1597.632 q -0.535,-0.231 -0.683,-0.28 -0.147,-0.049 -0.343,-0.078 -0.195,-0.029 -0.813,-0.035 -0.618,-0.01 -1.36,0.336 -0.741,0.342 -0.966,0.569 -0.224,0.227 -0.386,0.543 -0.162,0.316 -0.159,0.651 0.003,0.335 0.024,0.441 0.022,0.107 0.13,0.302 0.109,0.195 0.286,0.391 0.176,0.196 0.358,0.377 0.181,0.181 0.732,0.52 0.55,0.339 1.798,0.927 1.249,0.587 1.595,0.777 0.346,0.191 0.491,0.301 0.144,0.11 0.332,0.395 0.188,0.285 0.363,0.792 0.175,0.507 0.174,0.827 -0.001,0.321 -0.035,0.519 -0.035,0.198 -0.151,0.389 -0.115,0.191 -0.241,0.332 -0.126,0.142 -0.196,0.186 -0.069,0.044 -0.12,0.101 -0.05,0.057 -1.626,0.172 -1.577,0.115 -3.689,-0.154 -0.176,-0.061 -0.616,-0.196" /><path
     id="STROKE_ae239212-9ac7-42ba-8bdd-b08a73bf31be"
     opacity="1"
     fill="none"
     stroke="#FFFFFF"
     stroke-width="2"
     stroke-opacity="1"
     stroke-linecap="round"
     stroke-linejoin="round"
     d="m -297.708,1591.905 q -0.038,1.145 0.342,4.859 0.381,3.714 0.865,5.315 0.484,1.6 0.898,2.317 0.414,0.717 0.759,1.017 0.345,0.3 0.864,0.477 0.519,0.176 0.956,0.187 0.437,0.01 0.775,-0.074 0.337,-0.084 0.591,-0.191 0.254,-0.107 0.417,-0.199 0.163,-0.092 1.24,-0.664" /><path
     id="STROKE_fbf9d6c7-a76b-493a-8d29-10f642034b65"
     opacity="1"
     fill="none"
     stroke="#FFFFFF"
     stroke-width="2"
     stroke-opacity="1"
     stroke-linecap="round"
     stroke-linejoin="round"
     d="m -299.867,1600.317 q 0.262,-0.05 0.903,-0.165 0.64,-0.114 1.713,-0.253 1.073,-0.139 1.87,-0.23 0.797,-0.091 2.738,-0.383" /><path
     id="STROKE_a94dcee0-1ff5-4566-bd70-b912c2916602"
     opacity="1"
     fill="none"
     stroke="#FFFFFF"
     stroke-width="2"
     stroke-opacity="1"
     stroke-linecap="round"
     stroke-linejoin="round"
     d="m -268.311,1599.057 q -0.099,-0.168 -0.345,-0.53 -0.246,-0.361 -0.542,-0.655 -0.297,-0.295 -0.453,-0.41 -0.157,-0.116 -0.766,-0.444 -0.609,-0.329 -1.085,-0.446 -0.477,-0.118 -1.037,-0.122 -0.56,0 -1.199,0.194 -0.64,0.198 -1.245,0.707 -0.606,0.508 -1.012,1.374 -0.406,0.865 -0.47,1.713 -0.064,0.848 0.136,1.589 0.201,0.74 0.529,1.273 0.327,0.533 0.838,1 0.511,0.467 1.302,0.711 0.792,0.243 1.555,0.07 0.762,-0.173 1.396,-0.573 0.633,-0.4 0.964,-0.712 0.331,-0.312 0.728,-0.82 0.397,-0.508 0.635,-1.056 0.238,-0.548 0.499,-2.303" /><path
     id="STROKE_24b2dc16-8ad9-4c36-8871-ac68b94c6641"
     opacity="1"
     fill="none"
     stroke="#FFFFFF"
     stroke-width="2"
     stroke-opacity="1"
     stroke-linecap="round"
     stroke-linejoin="round"
     d="m -257.981,1594.59 q 0.016,-0.465 -0.051,-1.15 -0.068,-0.686 -0.398,-1.427 -0.331,-0.741 -0.671,-1.13 -0.34,-0.389 -0.665,-0.576 -0.325,-0.187 -0.582,-0.236 -0.257,-0.049 -0.651,-0.016 -0.393,0.033 -1.026,0.443 -0.633,0.411 -0.959,0.823 -0.325,0.411 -0.538,1.095 -0.212,0.683 -0.121,2.518 0.092,1.834 0.608,4.477 0.516,2.644 0.854,4.012 0.338,1.368 0.619,2.074 0.282,0.707 0.465,1.24" /><path
     id="STROKE_317df4d6-114b-47cb-8f48-b32cd3d39b90"
     opacity="1"
     fill="none"
     stroke="#FFFFFF"
     stroke-width="2"
     stroke-opacity="1"
     stroke-linecap="round"
     stroke-linejoin="round"
     d="m -265.169,1599.75 q 0.365,-0.072 2.068,-0.324 1.703,-0.252 4.555,-0.802" /><path
     id="STROKE_5c82d78a-eeab-44bc-9792-bc727682d939"
     opacity="1"
     fill="none"
     stroke="#FFFFFF"
     stroke-width="2"
     stroke-opacity="1"
     stroke-linecap="round"
     stroke-linejoin="round"
     d="m -333.964,1622.161 q 0.002,0.055 0.117,0.666 0.115,0.611 0.194,0.96 0.079,0.348 0.222,1.021 0.143,0.674 1.837,6.603 l -0.049,-0.083 q -0.044,-0.04 -0.095,-1.016 -0.05,-0.975 0.073,-1.995 0.123,-1.019 0.591,-1.925 0.468,-0.906 1.645,-2.055 1.176,-1.149 1.486,-1.303 0.31,-0.153 0.713,-0.166 0.403,-0.013 0.981,0.062 0.579,0.075 1.935,0.057 0.256,-0.057 0.38,-0.063" /><path
     id="STROKE_68927789-fe6b-47e3-8f18-0414c9b0723a"
     opacity="1"
     fill="none"
     stroke="#FFFFFF"
     stroke-width="2"
     stroke-opacity="1"
     stroke-linecap="round"
     stroke-linejoin="round"
     d="m -321.32,1628.944 q 1.03,-0.123 2.138,-0.479 1.109,-0.356 2.226,-1.164 1.118,-0.807 1.501,-1.341 0.383,-0.533 0.465,-0.787 0.082,-0.255 0.079,-0.539 -0.003,-0.284 -0.133,-0.522 -0.13,-0.238 -0.61,-0.445 -0.48,-0.206 -0.883,-0.189 -0.404,0.016 -0.918,0.212 -0.513,0.195 -0.993,0.53 -0.479,0.334 -1.216,1.24 -0.738,0.906 -0.962,1.785 -0.224,0.879 -0.189,1.382 0.035,0.503 0.517,1.289 0.483,0.786 0.996,1.141 0.514,0.354 0.799,0.461 0.286,0.107 0.926,0.198 0.64,0.091 1.129,0.059 0.489,-0.031 1.346,-0.26 0.857,-0.229 3.056,-1.413" /><path
     id="STROKE_18ad7ce9-9f11-4b19-9543-21a70b3bdf7a"
     opacity="1"
     fill="none"
     stroke="#FFFFFF"
     stroke-width="2"
     stroke-opacity="1"
     stroke-linecap="round"
     stroke-linejoin="round"
     d="m -302.117,1620.207 q -0.767,-0.551 -0.913,-0.672 -0.146,-0.121 -0.78,-0.692 -0.634,-0.57 -1.168,-0.896 -0.533,-0.326 -1.124,-0.451 -0.59,-0.126 -1.027,0.034 -0.437,0.16 -0.849,0.864 -0.411,0.704 -0.538,1.627 -0.126,0.922 0.419,3.408 0.545,2.485 2.23,7.812 0.049,0.093 0.207,0.617" /><path
     id="STROKE_7ab63388-8135-4808-aca5-10034636b7f8"
     opacity="1"
     fill="none"
     stroke="#FFFFFF"
     stroke-width="2"
     stroke-opacity="1"
     stroke-linecap="round"
     stroke-linejoin="round"
     d="m -309.996,1625.667 q 0.912,-0.143 1.008,-0.169 0.095,-0.027 4.986,-0.06" /><path
     id="STROKE_a17a90c6-c79c-42e6-bb0e-2cb33f7a3f5c"
     opacity="1"
     fill="none"
     stroke="#FFFFFF"
     stroke-width="2"
     stroke-opacity="1"
     stroke-linecap="round"
     stroke-linejoin="round"
     d="m -297.516,1628.314 q 0.189,-0.112 0.433,-0.194 0.243,-0.082 1.093,-0.585 0.85,-0.504 1.332,-0.995 0.483,-0.491 0.692,-0.913 0.21,-0.422 0.176,-0.983 -0.035,-0.561 -0.72,-0.929 -0.685,-0.369 -1.214,-0.351 -0.528,0.017 -0.932,0.139 -0.405,0.122 -0.985,0.587 -0.581,0.464 -0.88,1.096 -0.3,0.631 -0.371,1.244 -0.071,0.613 0.485,1.756 0.556,1.142 1.192,1.788 0.637,0.646 1.368,0.994 0.732,0.348 1.667,0.496 0.935,0.148 2.076,-0.035 1.141,-0.183 1.794,-0.403 0.653,-0.221 2.067,-0.956" /><path
     id="STROKE_953065f1-3d8e-4f9c-8025-9f2dac9ab5af"
     opacity="1"
     fill="none"
     stroke="#FFFFFF"
     stroke-width="2"
     stroke-opacity="1"
     stroke-linecap="round"
     stroke-linejoin="round"
     d="m -286.357,1621.964 0.031,0.25 q -0.021,0.249 0.534,2.341 0.554,2.093 0.881,3.102 0.327,1.01 0.414,1.291 0.087,0.281 0.217,0.612 0.01,-0.083 -0.11,-0.713 -0.119,-0.629 -0.12,-1.169 0,-0.54 0.143,-1.452 0.143,-0.912 0.893,-1.967 0.75,-1.055 3.087,-2.521 l 0.625,-0.271" /><path
     id="STROKE_eec35ded-dedb-48d1-b834-af835f9aacbb"
     opacity="1"
     fill="none"
     stroke="#FFFFFF"
     stroke-width="2"
     stroke-opacity="1"
     stroke-linecap="round"
     stroke-linejoin="round"
     d="m -275.563,1627.359 q 0.621,-0.173 1.947,-1.21 1.326,-1.037 1.866,-1.732 0.541,-0.696 0.698,-1.078 0.157,-0.383 0.182,-0.591 0.024,-0.209 0.007,-0.378 -0.018,-0.169 -0.056,-0.286 -0.038,-0.117 -0.471,-0.399 -0.433,-0.282 -1.088,-0.302 -0.656,-0.021 -1.13,0.117 -0.473,0.139 -1.107,0.671 -0.633,0.532 -1.052,1.27 -0.419,0.738 -0.521,1.655 -0.103,0.917 0.245,1.826 0.348,0.909 0.948,1.479 0.6,0.569 1.472,0.856 0.871,0.287 1.755,0.246 0.883,-0.041 1.737,-0.293 0.854,-0.252 1.596,-0.582 0.743,-0.33 1.617,-0.842" /><path
     id="STROKE_fb7538e7-4375-4cd8-85e8-09b44906c700"
     opacity="1"
     fill="none"
     stroke="#FFFFFF"
     stroke-width="2"
     stroke-opacity="1"
     stroke-linecap="round"
     stroke-linejoin="round"
     d="m -262.618,1621.467 q -0.177,0.861 0.207,2.88 0.384,2.02 0.819,3.435 0.435,1.416 0.548,1.708 0.113,0.293 0.121,0.233 0.008,-0.06 -0.004,-0.077 -0.012,-0.018 0.011,-1.485 0.023,-1.467 0.22,-2.703 0.197,-1.236 0.519,-1.986 0.322,-0.75 0.699,-1.128 0.378,-0.379 1.285,-0.64 0.907,-0.26 1.335,-0.222 0.428,0.038 1.218,0.406 0.79,0.369 1.483,1.592 0.694,1.224 1.423,4.698 l 0.246,0.403" /><path
     id="STROKE_a605f144-e82d-4d63-a267-bdb173de843d"
     opacity="1"
     fill="none"
     stroke="#FFFFFF"
     stroke-width="2"
     stroke-opacity="1"
     stroke-linecap="round"
     stroke-linejoin="round"
     d="m -241.721,1623.847 -0.111,-0.257 q -0.617,-1.67 -0.939,-2.083 -0.323,-0.413 -0.627,-0.602 -0.303,-0.19 -0.786,-0.31 -0.483,-0.12 -1.029,-0.01 -0.545,0.112 -1.167,0.596 -0.622,0.483 -1.184,1.453 -0.563,0.97 -0.662,1.963 -0.098,0.993 0.089,1.694 0.187,0.701 0.639,1.446 0.453,0.744 1.275,1.319 0.822,0.576 2.083,0.567 1.261,-0.01 4.605,-1.769" /><path
     id="STROKE_5b22cd3d-4a30-4085-98d0-20f37ce8de1a"
     opacity="1"
     fill="none"
     stroke="#FFFFFF"
     stroke-width="2"
     stroke-opacity="1"
     stroke-linecap="round"
     stroke-linejoin="round"
     d="m -235.198,1628.021 q 0.171,-0.177 0.503,-0.488 0.332,-0.311 0.646,-0.582 0.314,-0.271 0.429,-0.394 0.114,-0.124 0.686,-0.877 0.572,-0.753 0.808,-1.614 0.236,-0.861 0.187,-1.294 -0.05,-0.432 -0.233,-0.795 -0.183,-0.364 -0.601,-0.619 -0.419,-0.255 -0.77,-0.3 -0.35,-0.046 -0.775,0.015 -0.424,0.061 -1.345,0.611 -0.921,0.549 -1.622,1.512 -0.7,0.962 -0.902,1.922 -0.202,0.959 0.069,1.746 0.271,0.787 1.192,1.689 0.921,0.901 2.244,1.343 1.323,0.441 2.802,0.411 1.478,-0.031 4.989,-1.529" /><path
     id="STROKE_85893e9d-8d60-44ac-a632-5515f94588a7"
     opacity="1"
     fill="none"
     stroke="#FFFFFF"
     stroke-width="2"
     stroke-opacity="1"
     stroke-linecap="round"
     stroke-linejoin="round"
     d="m -217.089,1619.876 q -0.11,0.018 -0.633,0.024 -0.327,-0.091 -0.919,-0.203 -0.591,-0.112 -1.536,-0.085 -0.944,0.028 -1.542,0.205 -0.597,0.177 -1.023,0.464 -0.426,0.287 -0.704,0.724 -0.278,0.436 -0.327,0.832 -0.049,0.396 0.105,0.759 0.155,0.363 0.289,0.492 0.135,0.13 0.287,0.29 0.152,0.161 0.697,0.501 0.546,0.34 2.211,0.914 1.665,0.574 2.452,0.886 0.787,0.313 1.209,0.599 0.423,0.286 0.642,0.725 0.22,0.438 0.262,0.897 0.041,0.459 0.004,0.674 -0.038,0.216 -0.168,0.529 -0.13,0.312 -0.352,0.596 -0.221,0.285 -0.656,0.452 -0.436,0.167 -0.858,0.255 -0.422,0.088 -2.187,-0.133 -1.764,-0.22 -2.676,-0.596 -0.912,-0.375 -1.503,-0.848 -0.138,-0.072 -0.298,-1.043" /></g></svg>
