<?xml version="1.0" encoding="UTF-8" standalone="no"?>
<!-- Generator: Adobe Illustrator 26.1.0, SVG Export Plug-In . SVG Version: 6.00 Build 0)  -->

<svg
   version="1.1"
   id="Layer_1"
   x="0px"
   y="0px"
   viewBox="0 0 960 480"
   style="enable-background:new 0 0 960 480;"
   xml:space="preserve"
   sodipodi:docname="pt2-writing-note.svg"
   inkscape:version="1.2.1 (9c6d41e410, 2022-07-14, custom)"
   xmlns:inkscape="http://www.inkscape.org/namespaces/inkscape"
   xmlns:sodipodi="http://sodipodi.sourceforge.net/DTD/sodipodi-0.dtd"
   xmlns="http://www.w3.org/2000/svg"
   xmlns:svg="http://www.w3.org/2000/svg"><defs
   id="defs8828" /><sodipodi:namedview
   id="namedview8826"
   pagecolor="#505050"
   bordercolor="#eeeeee"
   borderopacity="1"
   inkscape:showpageshadow="0"
   inkscape:pageopacity="0"
   inkscape:pagecheckerboard="0"
   inkscape:deskcolor="#505050"
   showgrid="false"
   inkscape:zoom="0.49166667"
   inkscape:cx="478.98305"
   inkscape:cy="243.05085"
   inkscape:window-width="2560"
   inkscape:window-height="1381"
   inkscape:window-x="0"
   inkscape:window-y="0"
   inkscape:window-maximized="1"
   inkscape:current-layer="Layer_1" />
<g
   id="Writing"
   opacity="1"
   transform="matrix(1.3333333,0,0,1.3333333,845.82895,-2596.2695)"><path
     id="STROKE_7038668e-e87e-42ed-8584-c9c96d2f947f"
     opacity="1"
     fill="none"
     stroke="#000000"
     stroke-width="5"
     stroke-opacity="1"
     stroke-linecap="round"
     stroke-linejoin="round"
     d="m -564.079,2252.818 q -0.012,-0.433 0.274,-6.514 0.287,-6.082 0.23,-11.97 -0.058,-5.888 -1.074,-17.215 -1.017,-11.328 -1.54,-17.759 -0.522,-6.43 -0.816,-10.674 -0.294,-4.243 -0.615,-9.985 -0.321,-5.741 -0.507,-8.684 -0.186,-2.943 -0.726,-10.419 -0.54,-7.475 -0.854,-11.662 -0.315,-4.186 -0.418,-5.525 -0.103,-1.339 -0.472,-5.223 -0.369,-3.883 -0.612,-5.91 -0.244,-2.027 -0.684,-6.028 -0.439,-4.001 -0.608,-7.44 -0.17,-3.44 -0.395,-7.664 -0.226,-4.225 -0.618,-9.145 -0.391,-4.919 -0.54,-7.806 -0.149,-2.886 -0.249,-5.841 -0.1,-2.956 -0.441,-13.697 -0.341,-10.741 -0.498,-17.081 -0.157,-6.339 -0.178,-9.693 -0.02,-3.355 -0.029,-6.195 -0.01,-2.841 0.05,-4.918 0.059,-2.078 0.589,-6.464 0.53,-4.387 1.087,-6.35 0.557,-1.964 1.182,-3.216 0.624,-1.252 1.385,-2.208 0.761,-0.955 1.343,-1.518 0.582,-0.562 2.027,-1.526 1.446,-0.964 5.878,-1.981 4.432,-1.016 7.379,-1.074 2.947,-0.058 6.143,0.095 3.196,0.154 5.679,0.213 2.483,0.059 3.919,0.047 1.436,-0.011 6.484,-0.342 5.049,-0.33 10.868,-0.383 5.819,-0.053 11.296,0.32 5.478,0.374 13.294,0.631 7.817,0.256 12.001,0.184 4.183,-0.073 13.457,0.31 9.274,0.383 15.566,0.693 6.293,0.311 10.077,0.308 3.785,0 14.835,-0.433 11.049,-0.43 33.23,-0.6 22.181,-0.171 27.027,-0.327 4.845,-0.156 8.951,-0.253 4.107,-0.096 8.905,-0.166 4.797,-0.069 7.795,-0.079 2.997,-0.01 14.632,-0.404 11.636,-0.394 20.661,-1.043 9.025,-0.648 18,-1.258 8.975,-0.61 19.567,-1.011 10.591,-0.401 18.337,-0.558 7.746,-0.157 15.953,-0.253 8.206,-0.096 17.81,-0.299 9.604,-0.204 16.533,-0.403 6.929,-0.199 12.491,-0.175 5.562,0.024 10.146,0.167 4.585,0.143 12.373,0.272 7.788,0.128 11.145,0.019 3.357,-0.109 7.528,-0.418 4.171,-0.31 7.16,-0.639 2.988,-0.328 10.196,-1.081 7.208,-0.752 18.825,-1.329 11.617,-0.577 19.528,-1.041 7.911,-0.465 12.099,-0.574 4.189,-0.109 6.531,0.114 2.342,0.222 3.573,0.479 1.232,0.258 3.427,0.934 l 2.309,1.11 q 1.717,0.895 1.861,0.945 0.144,0.05 6.018,3.98 5.873,3.929 10.79,7.231 4.916,3.301 7.395,4.78 2.48,1.48 7.642,4.496 5.162,3.017 7.046,4.231 1.883,1.214 3.752,2.541 1.868,1.326 3.937,2.886 2.07,1.561 4.8,3.65 2.731,2.088 5.841,4.349 3.11,2.261 4.07,2.97 0.96,0.709 5.157,3.834 4.197,3.125 7.171,5.413 2.973,2.289 4.119,3.282 1.145,0.993 2.015,1.959 0.87,0.966 1.663,1.908 0.794,0.942 1.385,1.913 0.59,0.972 0.857,1.604 0.267,0.632 0.814,2.563 0.547,1.932 0.921,5.48 0.374,3.549 0.378,6.55 0.003,3.001 -0.052,4.84 -0.055,1.837 -0.089,3.342 -0.035,1.504 -0.167,5.837 -0.132,4.334 -0.216,9.228 -0.084,4.894 -0.069,8.8 0.016,3.906 0.038,10.303 0.023,6.397 -0.028,10.89 -0.051,4.494 -0.064,5.799 -0.013,1.305 -0.093,4.597 -0.08,3.292 0.089,11.425 0.169,8.134 1.287,21.292 1.118,13.159 1.754,20.02 0.637,6.861 0.884,9.493 0.247,2.632 0.45,5.227 0.203,2.596 0.352,4.092 0.149,1.495 1.177,15.937" /><path
     id="STROKE_0c9fa005-5438-4ddd-ba75-8a012d35c32d"
     opacity="1"
     fill="none"
     stroke="#000000"
     stroke-width="5"
     stroke-opacity="1"
     stroke-linecap="round"
     stroke-linejoin="round"
     d="m -69.836,2003.153 q 0.152,0.425 0.361,2.943 0.209,2.517 0.842,6.802 0.632,4.286 0.948,7.297 0.316,3.012 0.505,5.769 0.189,2.756 0.288,4.396 0.098,1.639 0.174,2.812 0.076,1.173 0.11,1.361 0.034,0.188 0.113,3.25 0.08,3.063 0.096,5.04 0.016,1.977 0.046,3.314 0.03,1.337 0.152,2.7 0.121,1.363 0.162,1.952 0.041,0.59 0.115,2.086 0.074,1.495 0.316,4.067 0.241,2.571 0.287,3.151 0.045,0.58 0.433,3.929 0.388,3.35 0.426,3.784 0.039,0.435 0.045,0.541 0.007,0.106 0.359,2.202 l 0.113,0.197 0.416,1.841" /><path
     id="STROKE_1eba15df-09cb-432d-9324-6c9a53536cce"
     opacity="1"
     fill="none"
     stroke="#000000"
     stroke-width="5"
     stroke-opacity="1"
     stroke-linecap="round"
     stroke-linejoin="round"
     d="m -63.437,2076.043 q 0.517,-0.314 0.831,-0.533 0.315,-0.219 1.268,-0.524 0.952,-0.304 1.545,-0.498 0.593,-0.194 2.221,-0.605 1.628,-0.411 3.677,-0.694 2.048,-0.283 7.363,-0.696 5.314,-0.413 14.161,-1.071 8.847,-0.658 13.834,-0.911 4.986,-0.253 9.573,-0.436 4.586,-0.182 6.472,-0.298 1.886,-0.115 3.409,-0.233 1.522,-0.117 3.398,-0.249 1.876,-0.132 3.484,-0.231 1.609,-0.099 3.036,-0.21 1.427,-0.112 2.456,-0.173 1.029,-0.062 6.646,-0.199" /><path
     id="STROKE_89c55e73-0c07-4574-86fa-714bf6ef6f35"
     opacity="1"
     fill="none"
     stroke="#000000"
     stroke-width="5"
     stroke-opacity="1"
     stroke-linecap="round"
     stroke-linejoin="round"
     d="m -521.807,2081.244 0.54,0.23 0.91,0.589 q 1.453,1.08 6.462,4.939 5.009,3.859 10.039,7.288 5.031,3.429 12.572,7.21" /><path
     id="STROKE_c039ab13-56ff-4849-a4b5-9e987a534d6e"
     opacity="1"
     fill="none"
     stroke="#000000"
     stroke-width="5"
     stroke-opacity="1"
     stroke-linecap="round"
     stroke-linejoin="round"
     d="m -522.739,2104.818 0.279,-0.333 q 1.016,-0.911 10.426,-7.976 9.411,-7.065 20.86,-15.995" /><path
     id="STROKE_d5736188-0a10-4986-bcf1-13fe21374c76"
     opacity="1"
     fill="none"
     stroke="#000000"
     stroke-width="5"
     stroke-opacity="1"
     stroke-linecap="round"
     stroke-linejoin="round"
     d="m -506.021,2074.469 q -0.136,0.831 -0.877,9.72 -0.742,8.89 -0.168,26.333 l 0.172,1.089" /><path
     id="STROKE_19606b30-abb4-4eb8-bbcf-df643194d9f5"
     opacity="1"
     fill="none"
     stroke="#000000"
     stroke-width="5"
     stroke-opacity="1"
     stroke-linecap="round"
     stroke-linejoin="round"
     d="m -468.89,2081.861 q 0.762,0.253 5.203,2.947 4.441,2.695 7.03,4.428 2.589,1.734 5.28,3.721 2.691,1.987 4.733,3.586 2.042,1.599 3.766,3.038 1.724,1.438 5.484,4.215" /><path
     id="STROKE_efa84dee-3a88-47f0-93aa-bc4ad34ea241"
     opacity="1"
     fill="none"
     stroke="#000000"
     stroke-width="5"
     stroke-opacity="1"
     stroke-linecap="round"
     stroke-linejoin="round"
     d="m -436.443,2076.111 q -1.01,0.57 -1.41,0.839 -0.4,0.269 -0.937,0.683 -0.537,0.415 -2.345,1.876 -1.807,1.46 -7.093,5.853 -5.287,4.393 -10.544,9.003 -5.258,4.611 -15.399,13.626" /><path
     id="STROKE_804a9e42-76bf-47d8-b603-239b2bd90792"
     opacity="1"
     fill="none"
     stroke="#000000"
     stroke-width="5"
     stroke-opacity="1"
     stroke-linecap="round"
     stroke-linejoin="round"
     d="m -453.857,2069.058 q -0.399,1.079 -0.953,4.723 -0.554,3.645 -0.77,9.782 -0.216,6.136 -0.118,11.661 0.097,5.525 0.04,8.333 -0.058,2.807 -0.186,4.495 -0.128,1.687 -0.435,3.713" /><path
     id="STROKE_67eb1945-f3c5-4d96-b950-a11523c5c39d"
     opacity="1"
     fill="none"
     stroke="#000000"
     stroke-width="5"
     stroke-opacity="1"
     stroke-linecap="round"
     stroke-linejoin="round"
     d="m -412.992,2079.218 q 0.206,0.448 3.802,4.85 3.597,4.402 7.464,7.774 3.867,3.371 6.612,4.983 2.745,1.612 6.357,2.772 3.613,1.16 8.42,2.113" /><path
     id="STROKE_a4f0566b-c36a-4400-af10-e739b2da5e9c"
     opacity="1"
     fill="none"
     stroke="#000000"
     stroke-width="5"
     stroke-opacity="1"
     stroke-linecap="round"
     stroke-linejoin="round"
     d="m -383.859,2075.896 q -0.45,0.305 -2.254,1.744 -1.805,1.438 -5.779,4.969 -3.975,3.531 -12.518,9.972 -8.543,6.441 -15.443,10.883 l -1.92,1.116" /><path
     id="STROKE_6625e1c9-d5ab-4824-85dc-46a13db8e232"
     opacity="1"
     fill="none"
     stroke="#000000"
     stroke-width="5"
     stroke-opacity="1"
     stroke-linecap="round"
     stroke-linejoin="round"
     d="m -396.782,2067.639 q -0.254,0.371 -0.485,0.724 -0.282,0.502 -1.756,7.034 -1.475,6.533 -2.002,11.031 -0.526,4.498 -1.167,12.989 -0.641,8.491 -0.694,9.824 -0.053,1.334 -0.038,1.86 0.014,0.526 0.161,0.885 0.106,0.182 0.149,1.059" /><path
     id="STROKE_3f6a4d81-32a8-4475-91a0-c80c6da8d1f7"
     opacity="1"
     fill="none"
     stroke="#000000"
     stroke-width="5"
     stroke-opacity="1"
     stroke-linecap="round"
     stroke-linejoin="round"
     d="m -336.95,2072.097 -0.021,0.286 q 0.081,0.947 0.068,1.357 -0.012,0.41 1.309,8.58 1.321,8.169 2.414,13.719 1.093,5.549 1.64,11.58 l 0.22,0.828" /><path
     id="STROKE_c5dab4ab-fdbc-4042-b82e-b7bcb3361ff8"
     opacity="1"
     fill="none"
     stroke="#000000"
     stroke-width="5"
     stroke-opacity="1"
     stroke-linecap="round"
     stroke-linejoin="round"
     d="m -336.84,2072.962 q 0.913,-0.315 1.126,-0.388 0.214,-0.073 2.295,-0.049 2.081,0.023 5.132,0.587 3.051,0.564 5.204,1.397 2.154,0.833 4.043,2.235 1.889,1.402 2.791,2.375 0.903,0.972 2.307,3.846 1.404,2.874 1.691,6.552 0.288,3.678 -0.186,5.885 -0.475,2.206 -1.179,3.711 -0.705,1.504 -4.953,5.728 -4.248,4.223 -9.031,7.977 0.057,0.081 2.6,-3.645" /><path
     id="STROKE_e37a3981-3e28-410a-bc3a-06909b9263b0"
     opacity="1"
     fill="none"
     stroke="#000000"
     stroke-width="5"
     stroke-opacity="1"
     stroke-linecap="round"
     stroke-linejoin="round"
     d="m -301.821,2099.715 0.57,-0.351 q 0.876,-0.218 3.345,-1.324 2.469,-1.106 4.732,-2.755 2.263,-1.65 3.59,-3.259 1.327,-1.609 1.897,-3.434 0.571,-1.826 0.443,-3.137 -0.127,-1.311 -0.842,-2.188 -0.716,-0.876 -2.024,-1.289 -1.308,-0.414 -2.559,-0.357 -1.25,0.057 -2.752,0.756 -1.503,0.7 -2.987,2.191 -1.484,1.492 -2.227,2.742 -0.743,1.25 -1.295,3.712 -0.552,2.463 -0.535,3.986 0.016,1.523 0.728,3.963 0.712,2.441 1.933,4.271 1.221,1.831 2.556,2.956 1.335,1.126 3.279,1.836 1.944,0.71 4.14,0.789 2.197,0.078 5.015,-0.604 2.819,-0.681 9.173,-4.362" /><path
     id="STROKE_43d1aec9-5b52-42b4-b21c-0109ef5e4244"
     opacity="1"
     fill="none"
     stroke="#000000"
     stroke-width="5"
     stroke-opacity="1"
     stroke-linecap="round"
     stroke-linejoin="round"
     d="m -267.388,2084.747 q 0.016,0.696 0.021,1.174 0.089,0.758 1.898,3.703 1.809,2.944 4.491,6.721 2.682,3.777 4.279,5.868 1.596,2.092 4.974,4.911 l 0.568,-0.293 q 0.357,-0.201 1.747,-6.447 1.39,-6.246 1.914,-10.65 0.524,-4.403 0.834,-5.47 0.311,-1.066 0.838,-0.682" /><path
     id="STROKE_8f28c667-9e84-4865-a6b5-cfb46549a713"
     opacity="1"
     fill="none"
     stroke="#000000"
     stroke-width="5"
     stroke-opacity="1"
     stroke-linecap="round"
     stroke-linejoin="round"
     d="m -234.991,2066.171 q -0.325,1.196 -0.807,6.417 -0.481,5.221 7.429,35.46 0.235,0.196 -0.871,-2.196" /><path
     id="STROKE_fff55b70-b7ae-4bb5-a24f-b207a55e6ae8"
     opacity="1"
     fill="none"
     stroke="#000000"
     stroke-width="5"
     stroke-opacity="1"
     stroke-linecap="round"
     stroke-linejoin="round"
     d="m -197.617,2099.024 q 0.01,-0.121 0.286,-0.655 0.277,-0.535 0.519,-1.345 0.242,-0.811 0.306,-2.162 0.063,-1.351 -0.046,-2.404 -0.11,-1.054 -0.715,-2.617 -0.606,-1.563 -1.809,-3.075 -1.203,-1.512 -3.041,-2.531 -1.837,-1.02 -3.439,-1.263 -1.602,-0.242 -3.28,0.087 -1.678,0.329 -3.743,1.856 -2.065,1.527 -3.263,3.872 -1.198,2.345 -1.546,4.27 -0.348,1.924 0.037,5.182 0.384,3.258 1.46,5.48 1.076,2.222 2.11,3.31 1.034,1.087 1.998,1.644 0.964,0.557 2.607,0.894 1.644,0.337 3.571,-0.151 1.927,-0.489 3.214,-1.377 1.287,-0.888 2.177,-1.941 0.891,-1.053 1.418,-2.266 0.527,-1.213 0.742,-2.527 0.215,-1.314 0.366,-3.82" /><path
     id="STROKE_f8562e26-4638-4e12-a56b-2fb780614154"
     opacity="1"
     fill="none"
     stroke="#000000"
     stroke-width="5"
     stroke-opacity="1"
     stroke-linecap="round"
     stroke-linejoin="round"
     d="m -168.125,2095.132 q 0.042,-0.119 0.221,-0.576 l 0.194,-0.441 q 0.149,-0.708 0.074,-1.715 -0.076,-1.006 -0.797,-2.522 -0.722,-1.517 -3.318,-4.003 -2.597,-2.485 -4.869,-3.436 -2.271,-0.95 -3.823,-1.038 -1.553,-0.088 -2.694,0.154 -1.141,0.241 -1.972,0.752 -0.83,0.511 -1.99,1.748 -1.16,1.237 -2.116,4.07 -0.957,2.832 -1.06,5.339 -0.103,2.507 1.247,6.966 1.349,4.46 2.826,6.586 1.478,2.127 2.48,2.939 1.002,0.812 2.328,1.137 1.327,0.325 2.161,0.259 0.835,-0.066 1.863,-0.516 1.029,-0.449 2.613,-1.805 1.585,-1.356 3.151,-4.012 1.566,-2.656 2.688,-5.269 -0.069,0.029 1.601,5.56 1.671,5.531 2.806,10.269 1.135,4.739 1.775,7.776 0.64,3.036 1.089,5.834 0.448,2.797 0.574,4.743 0.126,1.945 -0.074,3.497 -0.2,1.552 -0.416,2.21 -0.216,0.659 -0.447,1.188 -0.232,0.53 -0.67,0.99 -0.438,0.461 -1.256,0.922 -0.819,0.46 -3.995,0.804 -3.176,0.345 -6.068,-0.353 -2.892,-0.698 -4.87,-1.847 -1.977,-1.15 -2.918,-2.087 -0.941,-0.938 -1.464,-1.742 -0.522,-0.805 -0.798,-2.14 -0.277,-1.335 1.04,-7.145" /><path
     id="STROKE_6759a3a3-35f5-4fc3-a6c6-628d05df5511"
     opacity="1"
     fill="none"
     stroke="#000000"
     stroke-width="5"
     stroke-opacity="1"
     stroke-linecap="round"
     stroke-linejoin="round"
     d="m -126.297,2086.982 0.539,-0.362 q 0.055,-0.019 0.548,-0.46 0.494,-0.441 1.024,-0.977 0.529,-0.537 2.176,-2.44 1.647,-1.904 4.164,-6.394 2.516,-4.49 4.67,-13.389 -0.029,-0.015 -0.157,0.436 -0.127,0.451 -0.181,0.795 -0.054,0.345 -0.141,0.801 -0.087,0.456 -0.265,5.969 -0.178,5.514 0.235,10.869 0.413,5.354 0.914,9.073 0.501,3.719 0.689,5.177 0.188,1.459 0.212,1.924 0.024,0.466 0.084,0.488 0.06,0.022 -0.076,0.068" /><path
     id="STROKE_22e57a8b-6861-44a4-90b8-f8bb99cb75a3"
     opacity="1"
     fill="none"
     stroke="#000000"
     stroke-width="5"
     stroke-opacity="1"
     stroke-linecap="round"
     stroke-linejoin="round"
     d="m -525.94,2130.256 q 2.796,-0.483 4.77,-0.758 1.973,-0.275 5.528,-0.69 3.555,-0.415 6.028,-0.664 2.474,-0.249 3.708,-0.423 1.235,-0.174 3.567,-0.369 2.331,-0.194 2.975,-0.232 0.644,-0.037 2.868,-0.242 2.224,-0.204 4.11,-0.332 1.885,-0.129 4.123,-0.268 2.238,-0.14 3.616,-0.287 1.378,-0.146 2.206,-0.252 0.828,-0.105 1.637,-0.163 0.808,-0.057 2.989,-0.25 2.181,-0.193 5.105,-0.431 2.924,-0.239 10.405,-0.392 7.481,-0.154 11.924,-0.071 4.443,0.084 12.337,-0.085 7.894,-0.168 19.993,-0.348 12.1,-0.181 22.591,-0.03 10.491,0.151 20.586,0.415 10.094,0.264 18.924,0.691 8.83,0.426 14.572,0.851 5.743,0.425 9.032,0.697 3.289,0.272 11.539,1.052 8.249,0.781 21.191,1.314 12.941,0.534 20.977,0.417 8.036,-0.116 12.12,-0.377 4.084,-0.26 17.028,-0.848 12.945,-0.587 23.729,-0.875 10.783,-0.289 15.577,-0.468 4.795,-0.179 14.542,-0.191 9.748,-0.012 14.943,-0.076 5.195,-0.064 8.433,-0.196 3.237,-0.134 5.227,-0.266 1.989,-0.132 14.921,-0.376 12.932,-0.243 20.511,-0.207 7.58,0.036 15.626,-0.573 8.046,-0.609 15.883,-0.889 7.837,-0.28 14.314,0.45 0.209,-0.012 0.838,0.971" /><path
     id="STROKE_4b9bb3f3-3500-4bd2-8eea-9254c6e6ce03"
     opacity="1"
     fill="none"
     stroke="#000000"
     stroke-width="2"
     stroke-opacity="1"
     stroke-linecap="round"
     stroke-linejoin="round"
     d="m -512.72,2187.549 q 0.547,0.114 36.949,-0.504 l 1.917,0.084" /><path
     id="STROKE_dad935c9-d059-4cb3-98e3-d538e3983543"
     opacity="1"
     fill="none"
     stroke="#000000"
     stroke-width="2"
     stroke-opacity="1"
     stroke-linecap="round"
     stroke-linejoin="round"
     d="m -495.486,2176.906 q 0.049,0.25 0.146,6.447 0.098,6.197 0.315,10.751 0.218,4.554 0.395,7.805 0.177,3.25 0.08,5.686 -0.098,2.435 -0.453,4.094 -0.355,1.659 -0.736,2.37 -0.38,0.711 -0.662,0.998 -0.282,0.287 -0.993,0.722 -0.71,0.436 -1.353,0.798 -0.643,0.361 -1.678,0.836 -0.188,0 -1.374,0.212" /><path
     id="STROKE_287e21ab-ef7a-4793-8d58-3d1ac4b314dc"
     opacity="1"
     fill="none"
     stroke="#000000"
     stroke-width="2"
     stroke-opacity="1"
     stroke-linecap="round"
     stroke-linejoin="round"
     d="m -509.664,2202.485 q -0.16,0.503 -0.227,0.681 0.006,0.249 -4.356,8.164" /><path
     id="STROKE_71218366-659e-4a38-83a1-b6295d138d9d"
     opacity="1"
     fill="none"
     stroke="#000000"
     stroke-width="2"
     stroke-opacity="1"
     stroke-linecap="round"
     stroke-linejoin="round"
     d="m -479.618,2204.609 0.223,0.608 q 0.055,0.356 5.53,5.085" /><path
     id="STROKE_fd7db39d-7396-4d53-992f-106d5e2eaa18"
     opacity="1"
     fill="none"
     stroke="#000000"
     stroke-width="2"
     stroke-opacity="1"
     stroke-linecap="round"
     stroke-linejoin="round"
     d="m -478.411,2175.141 -0.373,-0.189 q -0.23,-0.465 -0.379,-0.703 -0.149,-0.239 -0.292,-0.416 -0.143,-0.178 -0.447,-0.394 -0.303,-0.215 -1.052,-0.432 -0.749,-0.216 -1.202,-0.174 -0.453,0.042 -0.725,0.319 -0.272,0.277 -0.382,0.786 -0.11,0.509 -0.092,0.67 0.018,0.161 0.234,0.513 0.216,0.352 0.394,0.502 0.178,0.15 0.816,0.355 0.639,0.204 0.921,0.176 0.283,-0.029 0.383,-0.063 0.1,-0.035 0.206,-0.117 0.106,-0.082 1.001,-0.192" /><path
     id="STROKE_13ecc5b4-da62-46c2-800f-c5c5adac3998"
     opacity="1"
     fill="none"
     stroke="#000000"
     stroke-width="2"
     stroke-opacity="1"
     stroke-linecap="round"
     stroke-linejoin="round"
     d="m -441.62,2177.719 q 0.307,0.01 22.693,-0.99" /><path
     id="STROKE_6063fd7e-8692-40fa-8c0a-d8cc6748e588"
     opacity="1"
     fill="none"
     stroke="#000000"
     stroke-width="2"
     stroke-opacity="1"
     stroke-linecap="round"
     stroke-linejoin="round"
     d="m -450.313,2190.443 q 0.274,-0.071 1.343,-0.27 1.069,-0.198 1.62,-0.237 0.552,-0.04 4.693,-0.307 4.141,-0.267 9.069,-0.439 4.927,-0.172 23.565,-1.068 l 1.339,-0.194" /><path
     id="STROKE_c53e7466-ff6f-446d-9ebb-be5ebc74fea9"
     opacity="1"
     fill="none"
     stroke="#000000"
     stroke-width="2"
     stroke-opacity="1"
     stroke-linecap="round"
     stroke-linejoin="round"
     d="m -432.149,2192.671 q -0.19,0.783 -0.048,1.34 0.141,0.558 0.18,1.626 0.039,1.069 -0.168,3.23 -0.206,2.161 -0.472,3.314 -0.265,1.154 -0.541,1.901 -0.276,0.747 -0.756,1.695 -0.481,0.947 -0.731,1.348 -0.25,0.401 -1.9,2.251 -1.649,1.852 -2.192,2.332 -0.542,0.48 -6.356,4.603" /><path
     id="STROKE_2c9bb83b-e50d-40a0-a611-aa09574c9030"
     opacity="1"
     fill="none"
     stroke="#000000"
     stroke-width="2"
     stroke-opacity="1"
     stroke-linecap="round"
     stroke-linejoin="round"
     d="m -385.795,2177.223 q -0.2,1.127 -0.208,1.489 -0.009,0.361 -0.087,0.68 -0.078,0.318 0.22,5.571 0.297,5.253 0.676,8.104 0.379,2.851 0.876,7.086 0.496,4.235 0.677,11.077 0.079,0.177 -0.184,0.915" /><path
     id="STROKE_b5e4b9ce-40f7-40b7-b7ec-149ee0eaade9"
     opacity="1"
     fill="none"
     stroke="#000000"
     stroke-width="2"
     stroke-opacity="1"
     stroke-linecap="round"
     stroke-linejoin="round"
     d="m -385.388,2190.013 q 0.86,0.096 2.984,0.708 2.124,0.612 3.542,0.995 1.418,0.383 2.24,0.572 0.822,0.188 1.77,0.419 0.947,0.232 1.895,0.49 0.947,0.257 2.218,0.649 1.27,0.393 3.735,1.109" /><path
     id="STROKE_ebeafb48-48eb-4455-a92a-d2e5f148a5f7"
     opacity="1"
     fill="none"
     stroke="#000000"
     stroke-width="2"
     stroke-opacity="1"
     stroke-linecap="round"
     stroke-linejoin="round"
     d="m -348.228,2219.129 -0.224,-0.328 q -0.376,-0.357 -0.669,-0.454 -0.293,-0.097 -0.674,-0.167 -0.382,-0.07 -0.916,-0.013 -0.535,0.057 -0.58,0.057 -0.046,0 -0.467,0.227 -0.421,0.228 -0.826,0.653 -0.405,0.426 -0.488,0.701 -0.084,0.275 -0.074,0.362 0.009,0.086 -0.003,0.273 -0.012,0.187 0.115,0.534 0.127,0.347 0.311,0.554 0.184,0.208 0.552,0.404 0.368,0.196 0.469,0.229 0.101,0.032 0.83,0.101 0.728,0.069 1.152,-0.053 0.424,-0.122 0.784,-0.314 0.361,-0.193 1.164,-0.514" /></g></svg>
