<?xml version="1.0" encoding="UTF-8" standalone="no"?>
<!-- Generator: Adobe Illustrator 26.1.0, SVG Export Plug-In . SVG Version: 6.00 Build 0)  -->

<svg
   version="1.1"
   id="Layer_1"
   x="0px"
   y="0px"
   viewBox="0 0 960 480"
   style="enable-background:new 0 0 960 480;"
   xml:space="preserve"
   sodipodi:docname="changes.svg"
   inkscape:version="1.2.1 (9c6d41e410, 2022-07-14, custom)"
   xmlns:inkscape="http://www.inkscape.org/namespaces/inkscape"
   xmlns:sodipodi="http://sodipodi.sourceforge.net/DTD/sodipodi-0.dtd"
   xmlns="http://www.w3.org/2000/svg"
   xmlns:svg="http://www.w3.org/2000/svg"><defs
   id="defs3860" /><sodipodi:namedview
   id="namedview3858"
   pagecolor="#505050"
   bordercolor="#eeeeee"
   borderopacity="1"
   inkscape:showpageshadow="0"
   inkscape:pageopacity="0"
   inkscape:pagecheckerboard="0"
   inkscape:deskcolor="#505050"
   showgrid="false"
   inkscape:zoom="0.70677083"
   inkscape:cx="524.92262"
   inkscape:cy="162.71186"
   inkscape:window-width="938"
   inkscape:window-height="1023"
   inkscape:window-x="0"
   inkscape:window-y="0"
   inkscape:window-maximized="1"
   inkscape:current-layer="Layer_1" />
<g
   id="New_Layer_4"
   opacity="1"
   transform="matrix(1.3333333,0,0,1.3333333,94.719911,-1349.6532)"><path
     id="STROKE_254d4a35-d97e-46dc-bb72-7d545e1c7c84"
     opacity="1"
     fill="none"
     stroke="#000000"
     stroke-width="5"
     stroke-opacity="1"
     stroke-linecap="round"
     stroke-linejoin="round"
     d="m 118.257,1185.126 q -0.757,-1.164 -1.13,-1.677 -0.373,-0.513 -3.455,-2.729 -3.082,-2.215 -5.197,-3.146 -2.115,-0.931 -5.482,-1.613 -3.367,-0.683 -6.716,-0.512 -3.35,0.171 -5.666,0.854 -2.316,0.683 -4.881,2.281 -2.564,1.597 -3.392,2.36 -0.829,0.762 -2.985,3.29 -2.155,2.528 -2.38,2.835 -0.225,0.307 -1.944,3.688 -1.719,3.38 -1.967,4.169 -0.248,0.788 -0.507,2.005 -0.259,1.217 -0.278,3.313 -0.019,2.095 0.6,4.542 0.618,2.446 1.773,5.169 1.155,2.723 2.482,4.697 1.327,1.975 2.567,3.346 1.241,1.371 3.325,3.004 2.084,1.633 4.483,2.827 2.4,1.194 4.947,1.97 2.548,0.776 5.552,0.858 3.004,0.082 4.388,-0.137 1.384,-0.219 4.034,-0.788 2.65,-0.57 4.374,-1.255 1.724,-0.685 3.144,-1.559 1.421,-0.875 2.67,-1.986 1.249,-1.112 2.516,-2.598 1.268,-1.486 3.066,-4.39 1.798,-2.904 2.125,-3.627 0.326,-0.724 0.96,-2.554 0.633,-1.831 0.685,-1.974 0.052,-0.144 0.423,-2.23 0.371,-2.086 0.45,-3.588 0.079,-1.501 0.044,-2.115 -0.035,-0.613 -0.467,-2.288 -0.432,-1.675 -0.914,-2.827 -0.483,-1.152 -1.089,-2.221 -0.606,-1.069 -0.792,-1.291 -0.186,-0.223 -4.109,-5.884" /><path
     id="STROKE_1186bd76-8025-41c9-9f4e-15476938b596"
     opacity="1"
     fill="none"
     stroke="#000000"
     stroke-width="5"
     stroke-opacity="1"
     stroke-linecap="round"
     stroke-linejoin="round"
     d="m 320.38,1179.275 q 1.682,-3.652 2.702,-5.7 1.019,-2.048 1.921,-3.655 0.903,-1.608 3.043,-5.187 2.14,-3.579 3.625,-5.788 1.485,-2.208 2.915,-3.913 1.43,-1.704 3.285,-3.594 1.855,-1.89 4.471,-4.025 2.615,-2.134 4.625,-3.486 2.009,-1.353 5.306,-2.799 3.297,-1.447 5.62,-2.134 2.322,-0.687 5.121,-1.253 2.799,-0.567 3.035,-0.628 0.236,-0.062 2.852,-0.428 2.617,-0.367 7.373,-0.709 4.755,-0.342 8.431,-0.605 3.677,-0.264 6.83,-0.267 3.154,0 5.941,0.287 2.787,0.289 4.249,0.536 1.463,0.245 2.82,0.492 1.357,0.246 1.398,0.262 0.04,0.016 3.472,0.786 3.432,0.771 5.552,1.407 2.121,0.635 3.903,1.295 1.781,0.66 2.605,0.994 0.823,0.333 2.573,1.287 1.75,0.954 3.17,1.831 1.419,0.876 2.565,1.561 1.147,0.684 3.319,2.298 2.173,1.613 3.396,2.596 1.222,0.983 1.81,1.449 0.588,0.466 1.712,1.343 1.125,0.877 2.691,2.143 1.565,1.266 4.209,3.89 2.644,2.624 3.944,3.946 1.3,1.321 1.743,1.779 0.443,0.458 1.126,1.254 0.683,0.795 1.237,1.499 0.554,0.703 1.065,1.29 0.51,0.586 3.32,3.474 l 0.892,0.771" /><path
     id="STROKE_1a23698b-4c29-4609-b130-e5056515de63"
     opacity="1"
     fill="none"
     stroke="#000000"
     stroke-width="5"
     stroke-opacity="1"
     stroke-linecap="round"
     stroke-linejoin="round"
     d="m 455.474,1156.496 0.355,0.495 q 0.82,2.039 1.487,3.655 0.667,1.617 0.984,2.53 0.317,0.913 0.784,3.007 0.468,2.095 0.477,3.006 0.01,0.912 -0.155,1.591 -0.164,0.68 -0.269,0.925 -0.105,0.244 -1.043,0.598 -0.939,0.353 -2.471,0.265 -1.533,-0.088 -2.993,-0.497 -1.461,-0.409 -2.277,-0.685 -0.817,-0.276 -4.941,-1.37 l -0.569,-0.32 -1.267,-0.447 -1.44,-0.556 -2.39,-0.848 -0.505,-0.227" /><path
     id="STROKE_7e994bde-3934-4959-8726-f35c9e0ee0a1"
     opacity="1"
     fill="none"
     stroke="#000000"
     stroke-width="5"
     stroke-opacity="1"
     stroke-linecap="round"
     stroke-linejoin="round"
     d="m 91.111,1195.065 0.635,0.581 q 0.904,0.985 3.785,4.617 2.88,3.633 4.723,5.66 1.843,2.028 3.049,3.118 1.206,1.089 2.458,1.672 0.153,0.037 0.25,0.033 0.097,0 0.932,0.341" /><path
     id="STROKE_ba83d8fa-e737-4357-a983-ca200b8e3550"
     opacity="1"
     fill="none"
     stroke="#000000"
     stroke-width="5"
     stroke-opacity="1"
     stroke-linecap="round"
     stroke-linejoin="round"
     d="m 107.526,1193.411 -0.5,0.442 q -0.821,0.95 -3.68,4.394 -2.858,3.445 -10.193,12.531 l -1.059,1.098" /><path
     id="STROKE_dcc9c565-4ac6-4fd4-9035-e2b075997cb3"
     opacity="1"
     fill="none"
     stroke="#000000"
     stroke-width="5"
     stroke-opacity="1"
     stroke-linecap="round"
     stroke-linejoin="round"
     d="m 318.994,1191.559 q -0.082,-0.305 -0.741,-2.087 -0.659,-1.781 -1.291,-2.911 -0.631,-1.131 -0.902,-1.625 -0.271,-0.495 -1.915,-2.454 -1.644,-1.959 -4.911,-4.098 -3.267,-2.139 -4.899,-2.728 -1.633,-0.589 -5.11,-1.252 -3.476,-0.664 -5.731,-0.748 -2.256,-0.085 -6.23,0.698 -3.975,0.784 -5.94,1.398 -1.965,0.613 -4.33,1.85 -2.365,1.237 -3.973,2.301 -1.608,1.065 -2.606,2.006 -0.998,0.941 -1.956,1.906 -0.958,0.965 -2.37,3.323 -1.413,2.358 -1.745,3.295 -0.333,0.938 -0.754,2.405 -0.422,1.467 -0.65,3.975 -0.229,2.509 0.026,5.065 0.255,2.555 0.918,4.546 0.664,1.991 1.48,3.394 0.815,1.402 1.001,1.669 0.187,0.266 1.596,1.791 1.409,1.525 2.625,2.5 1.216,0.974 2.852,1.91 1.637,0.935 3.726,1.668 2.088,0.733 2.356,0.823 0.268,0.09 2.299,0.354 2.03,0.264 5.835,-0.116 3.805,-0.379 6.452,-1.156 2.646,-0.776 4.296,-1.517 1.65,-0.74 7.067,-4.312 2.412,-2.131 3.972,-3.849 1.559,-1.717 2.859,-3.667 1.299,-1.95 1.964,-3.376 0.665,-1.427 0.72,-1.502 0.055,-0.075 0.494,-1.368 0.438,-1.293 0.582,-2.109 0.143,-0.816 0.875,-3.322" /><path
     id="STROKE_de6db7bd-1322-48c6-b20e-3b253663644b"
     opacity="1"
     fill="none"
     stroke="#000000"
     stroke-width="5"
     stroke-opacity="1"
     stroke-linecap="round"
     stroke-linejoin="round"
     d="m 125.694,1214.122 q 1.611,1.506 2.719,2.419 1.108,0.914 5.784,4.511 4.675,3.596 7.447,5.761 2.771,2.165 4.561,3.443 1.789,1.278 2.72,1.943 0.93,0.665 2.443,1.785 1.513,1.121 1.607,1.211 0.093,0.09 1.808,1.216 1.714,1.126 3.227,1.978 1.513,0.852 7.759,3.607 6.247,2.754 11.721,4.289 5.475,1.535 8.675,2.137 3.2,0.602 7.612,0.839 4.412,0.236 7.687,-0.014 3.275,-0.25 4.473,-0.442 1.199,-0.192 2.137,-0.407 0.938,-0.215 6.58,-2.359 5.642,-2.144 8.517,-3.649 2.874,-1.504 4.411,-2.488 1.537,-0.983 5.611,-4.142 4.075,-3.159 6.558,-5.364 2.483,-2.206 5.042,-4.582 2.56,-2.376 3.767,-3.632 1.207,-1.256 2.311,-2.404 1.104,-1.148 2.893,-2.969 1.79,-1.822 2.691,-2.785 0.901,-0.963 2.76,-3.39" /><path
     id="STROKE_2526fe7b-04d4-4673-b5f7-4afb13194130"
     opacity="1"
     fill="none"
     stroke="#000000"
     stroke-width="5"
     stroke-opacity="1"
     stroke-linecap="round"
     stroke-linejoin="round"
     d="m 238.791,1218.319 q 0.742,-0.27 0.893,-0.377 0.151,-0.106 2.866,-1.264 2.714,-1.157 5.579,-2.139 2.865,-0.983 7.712,-1.132 -0.348,2.913 -0.694,5.033 -0.346,2.12 -0.622,4.241 -0.276,2.12 -1.262,9.274" /><path
     id="STROKE_c3ced4e5-0a1a-416d-b3ba-67edf1aff748"
     opacity="1"
     fill="none"
     stroke="#000000"
     stroke-width="5"
     stroke-opacity="1"
     stroke-linecap="round"
     stroke-linejoin="round"
     d="m 281.887,1201.556 q 0.454,0.408 0.544,0.5 0.091,0.092 1.662,1.768 1.571,1.675 2.64,2.42 1.068,0.745 1.842,1.048 0.773,0.303 1.067,0.293 0.246,-0.037 3.353,-4.653 3.107,-4.616 4.794,-9.265 1.686,-4.65 2.153,-6.062" /><path
     id="STROKE_e3a828ec-ed39-4269-a375-e5a35af722f4"
     opacity="1"
     fill="none"
     stroke="#000000"
     stroke-width="5"
     stroke-opacity="1"
     stroke-linecap="round"
     stroke-linejoin="round"
     d="m 473.814,1170.652 -0.785,0.063 q -6.19,1.723 -7.412,2.135 -1.222,0.411 -2.23,0.876 -1.008,0.465 -2.164,1.219 -1.156,0.754 -2.928,2.529 -1.773,1.775 -2.525,2.868 -0.752,1.092 -1.398,2.513 -0.646,1.42 -1.174,3.64 -0.528,2.219 -0.742,4.375 -0.213,2.156 0.169,6.139 0.382,3.982 0.517,4.642 0.135,0.659 0.448,1.485 0.312,0.826 0.704,1.619 0.392,0.792 2.159,3.551 1.767,2.76 3.779,4.507 2.012,1.747 3.57,2.65 1.557,0.903 2.863,1.457 1.306,0.553 2.715,0.944 1.409,0.39 1.491,0.437 0.082,0.047 3.247,0.342 3.166,0.294 4.678,0.218 1.512,-0.076 4.035,-0.761 2.522,-0.685 2.687,-0.769 0.165,-0.083 1.803,-0.704 1.639,-0.62 4.111,-1.874 2.471,-1.253 3.986,-2.344 1.514,-1.092 2.188,-1.7 0.674,-0.608 2.179,-2.484 1.505,-1.876 2.269,-3.11 0.763,-1.235 1.739,-3.473 0.975,-2.237 1.304,-3.424 0.329,-1.188 0.488,-5.149 0.16,-3.962 -0.139,-5.983 -0.3,-2.021 -1.489,-4.381 -1.19,-2.361 -2.049,-3.349 -0.859,-0.989 -1.896,-1.972 -1.036,-0.983 -2.337,-1.727 -1.301,-0.745 -2.316,-1.223 -1.016,-0.478 -2.532,-0.892 -1.516,-0.414 -3.399,-0.605 -1.883,-0.192 -3.281,-0.247 -1.399,-0.055 -3.386,0.168 -1.986,0.222 -3.557,0.391 -1.571,0.168 -1.871,0.166 -0.3,-10e-4 -4.139,0.922" /><path
     id="STROKE_94827938-a451-4f64-a0b4-9a875795ca2d"
     opacity="1"
     fill="none"
     stroke="#000000"
     stroke-width="5"
     stroke-opacity="1"
     stroke-linecap="round"
     stroke-linejoin="round"
     d="m 471.05,1185.214 0.65,-0.156 q 0.293,-0.183 1.474,-0.601 1.18,-0.418 2.677,-0.714 1.497,-0.295 2.517,-0.244 1.02,0.05 1.699,0.248 0.679,0.198 1.509,1.035 0.83,0.836 1.059,1.152 0.229,0.316 0.429,1 0.2,0.683 0.257,1.562 0.058,0.879 -0.339,2.264 -1.057,2.113 -1.311,2.411 -0.254,0.299 -0.941,1.149 -0.686,0.849 -1.558,1.975 -0.871,1.125 -1.295,2.014 l -0.625,1.656 -0.87,2.353" /><circle
     id="STROKE_da0ecb1a-8bed-40b1-a440-141aedbb1c65"
     opacity="1"
     fill="#000000"
     stroke="#000000"
     stroke-width="0.1"
     stroke-opacity="1"
     fill-opacity="1"
     cx="476.974"
     cy="1209.806"
     r="2.5" /></g></svg>
