<?xml version="1.0" encoding="UTF-8" standalone="no"?>
<!-- Generator: Adobe Illustrator 26.1.0, SVG Export Plug-In . SVG Version: 6.00 Build 0)  -->

<svg
   version="1.1"
   id="Layer_1"
   x="0px"
   y="0px"
   viewBox="0 0 960 480"
   style="enable-background:new 0 0 960 480;"
   xml:space="preserve"
   sodipodi:docname="framework.svg"
   inkscape:version="1.2.1 (9c6d41e410, 2022-07-14, custom)"
   xmlns:inkscape="http://www.inkscape.org/namespaces/inkscape"
   xmlns:sodipodi="http://sodipodi.sourceforge.net/DTD/sodipodi-0.dtd"
   xmlns="http://www.w3.org/2000/svg"
   xmlns:svg="http://www.w3.org/2000/svg"><defs
   id="defs6175" /><sodipodi:namedview
   id="namedview6173"
   pagecolor="#505050"
   bordercolor="#eeeeee"
   borderopacity="1"
   inkscape:showpageshadow="0"
   inkscape:pageopacity="0"
   inkscape:pagecheckerboard="0"
   inkscape:deskcolor="#505050"
   showgrid="false"
   inkscape:zoom="0.70677083"
   inkscape:cx="551.80545"
   inkscape:cy="246.19013"
   inkscape:window-width="938"
   inkscape:window-height="1023"
   inkscape:window-x="0"
   inkscape:window-y="0"
   inkscape:window-maximized="1"
   inkscape:current-layer="Layer_1" />
<g
   id="New_Layer_10"
   opacity="1"
   transform="matrix(1.3333333,0,0,1.3333333,87.90723,-3053.4851)"><path
     id="STROKE_95c20e08-93a5-43b6-9c2b-d51871aca834"
     opacity="1"
     fill="none"
     stroke="#000000"
     stroke-width="5"
     stroke-opacity="1"
     stroke-linecap="round"
     stroke-linejoin="round"
     d="m 116.078,2461.109 q 1.706,-0.544 2.631,-0.662 0.925,-0.119 2.102,-0.238 1.176,-0.119 1.646,-0.18 0.469,-0.061 1.941,-0.178 1.472,-0.118 5.531,-0.204 4.06,-0.086 6.176,-0.05 2.115,0.036 4.559,0.244 2.443,0.209 6.103,0.331 3.66,0.121 8.416,-0.078 4.756,-0.199 6.822,-0.239 2.066,-0.041 4.822,-0.011 2.756,0.031 9.581,0.034 l 1.122,-0.016" /><path
     id="STROKE_26dd687c-7faf-4248-a950-424d542f0d10"
     opacity="1"
     fill="none"
     stroke="#000000"
     stroke-width="5"
     stroke-opacity="1"
     stroke-linecap="round"
     stroke-linejoin="round"
     d="m 117.134,2463.171 q 0.207,0.198 0.917,1.457 0.71,1.259 1.07,1.834 0.361,0.574 1.496,1.877 1.135,1.303 2.516,2.521 1.38,1.218 3.04,2.458 1.66,1.24 3.831,2.54 2.17,1.3 4.404,2.239 2.234,0.94 4.637,1.589 2.403,0.648 8.013,1.736 5.611,1.089 7.472,1.272 1.862,0.183 3.172,0.295 1.31,0.113 2.401,0.207 1.09,0.095 5.755,0.152 4.665,0.058 8.42,-0.215 l 1.266,-0.11" /><path
     id="STROKE_9b37c1db-7f48-4a5c-aac4-521670fa5dfb"
     opacity="1"
     fill="none"
     stroke="#000000"
     stroke-width="5"
     stroke-opacity="1"
     stroke-linecap="round"
     stroke-linejoin="round"
     d="m 178.18,2455.6 q 0.063,1.541 0.179,4.495 0.116,2.954 0.151,5.189 0.035,2.234 0.045,6.214 0.01,3.979 0.028,7.644 0.018,3.665 0.03,4.435 0.011,0.771 0.025,1.112 0.014,0.341 0.06,2.441 0.047,2.1 0.06,3.28" /><path
     id="STROKE_bb76ca84-5975-449f-b9cb-de6a46c02c7e"
     opacity="1"
     fill="none"
     stroke="#000000"
     stroke-width="5"
     stroke-opacity="1"
     stroke-linecap="round"
     stroke-linejoin="round"
     d="m 179.106,2454.532 0.6,-0.05 q 0.072,0.011 1.153,0.393 l 1.367,0.102 q 0.918,0.019 1.26,0.027 0.342,0.01 1.475,0.03 1.134,0.021 3.544,0.01 2.41,-0.012 6.579,0.01 4.168,0.017 6.576,-0.025 2.407,-0.043 3.535,-0.093 1.129,-0.05 2.188,-0.119 1.06,-0.07 2.08,-0.141 1.019,-0.071 4.076,-0.183 3.056,-0.112 6.744,-0.275 3.688,-0.162 5.472,-0.22 1.784,-0.057 2.452,-0.083 0.668,-0.026 2.473,-0.059 1.806,-0.032 6.128,-0.094 4.322,-0.062 6.538,-0.074 2.216,-0.012 4.401,-0.07 2.186,-0.059 3.286,-0.131 1.101,-0.072 2.751,-0.111 1.649,-0.039 2.907,-0.043 1.258,0 3.206,-0.019 1.949,-0.015 3.535,-0.061 1.586,-0.046 2.171,-0.068 0.584,-0.022 2.476,-0.063 1.892,-0.04 3.889,-0.081 1.998,-0.041 3.447,-0.088 1.449,-0.048 2.689,-0.1 1.239,-0.053 2.906,-0.063 1.667,-0.01 4.092,0.069 2.424,0.08 5.399,0.075 2.976,-0.01 5.079,-0.02 2.103,-0.014 4.011,0.066 1.909,0.08 5.228,0.194 3.32,0.114 7.247,0.26 3.927,0.146 6.188,0.205 2.262,0.058 3.257,0.068 0.995,0.01 2.927,0.06 1.932,0.051 3.652,0.115 1.72,0.065 3.997,0.162 2.278,0.097 3.404,0.158 1.126,0.061 2.058,0.098 0.932,0.038 1.603,0.07 0.672,0.031 2.03,0.108 1.358,0.077 2.181,0.113 0.824,0.037 1.306,0.054 0.482,0.018 1.591,0.046 1.108,0.028 4.469,0.202 l 0.872,0.048" /><path
     id="STROKE_41ced3d7-7d8c-4525-8c1c-46a772dfd49e"
     opacity="1"
     fill="none"
     stroke="#000000"
     stroke-width="5"
     stroke-opacity="1"
     stroke-linecap="round"
     stroke-linejoin="round"
     d="m 352.464,2455.34 -0.019,1.952 q -0.013,1.285 -0.01,1.352 0.002,0.066 -0.052,2.164 -0.054,2.098 -0.271,5.038 -0.216,2.939 -0.364,4.311 -0.149,1.371 -0.342,2.428 -0.194,1.056 -0.326,1.622 -0.132,0.565 -0.145,0.626 -0.014,0.06 -0.33,1.055 -0.316,0.995 -0.723,1.906 -0.407,0.911 -1.205,2.163 -0.798,1.251 -1.275,1.856 -0.477,0.604 -1.078,1.274 -0.601,0.669 -1.217,1.263 -0.616,0.594 -1.155,1.06 -0.539,0.465 -0.964,0.802 -0.425,0.338 -0.884,0.694 -0.46,0.355 -1.86,1.339 -1.399,0.984 -3.672,2.327 -2.273,1.343 -2.966,1.704 -0.693,0.362 -0.811,0.414 -0.118,0.051 -0.786,0.358 -0.668,0.307 -1.897,0.843 -1.228,0.535 -1.649,0.701 -0.421,0.167 -0.629,0.241 -0.207,0.074 -0.987,0.375 -0.781,0.301 -1.065,0.417 -0.285,0.117 -0.951,0.354 -0.666,0.239 -1.411,0.465 -0.746,0.227 -1.496,0.445 -0.75,0.218 -2.284,0.58 -1.534,0.362 -2.065,0.469 -0.532,0.107 -1.525,0.326 -0.992,0.22 -1.979,0.476 -0.988,0.256 -4.012,1.181 -3.024,0.924 -5.416,1.781 -2.393,0.857 -3.433,1.288 -1.04,0.43 -1.8,0.74 -0.76,0.31 -0.82,0.331 -0.06,0.02 -1.625,0.786 -1.565,0.767 -2.213,1.113 -0.648,0.346 -0.797,0.433 -0.149,0.087 -1.172,0.761 -1.023,0.674 -2.091,1.487 -1.067,0.812 -1.99,1.624 -0.924,0.812 -1.733,1.646 -0.81,0.835 -1.228,1.298 -0.419,0.464 -0.995,1.165 -0.576,0.7 -0.963,1.222 -0.388,0.523 -1.005,1.454 -0.618,0.931 -0.89,1.369 -0.272,0.438 -0.577,0.984 -0.304,0.546 -0.722,1.419 -0.417,0.873 -1.171,3.111 -0.754,2.238 -0.945,3.205 -0.192,0.966 -0.352,2.18 -0.16,1.214 -0.202,1.679 -0.043,0.465 -0.122,2.213 -0.079,1.748 -0.063,3.566 0.016,1.818 0.019,1.946 0.003,0.128 0.267,2.845 0.263,2.717 0.481,3.728 0.217,1.011 0.537,2.176 0.319,1.164 0.752,2.227 0.433,1.063 0.737,1.653 0.305,0.59 0.849,1.479 0.545,0.888 0.844,1.303 0.299,0.414 0.656,0.839 0.358,0.424 0.707,0.853 0.35,0.429 1.312,1.437 0.962,1.009 1.464,1.448 0.503,0.439 1.54,1.242 1.038,0.802 1.601,1.206 0.563,0.405 1.994,1.327 1.43,0.921 2.374,1.54 0.945,0.618 1.156,0.771 0.211,0.152 1.346,0.933 1.136,0.782 1.874,1.303 0.738,0.52 1.444,1.065 0.706,0.546 1.142,0.884 0.436,0.339 0.872,0.671 0.437,0.331 0.471,0.352 0.034,0.021 1.209,1.007 1.176,0.986 1.795,1.533 0.62,0.547 1.105,0.983 0.484,0.437 1.003,1.02 0.519,0.583 0.938,1.119 0.42,0.536 0.708,0.931 0.289,0.395 0.824,1.245 0.535,0.849 0.851,1.385 0.317,0.536 1.139,2.407 0.823,1.87 1.065,2.674 0.243,0.805 0.715,3.308 0.17,1.573 0.229,4.101 l -0.112,1.199" /><path
     id="STROKE_76c964ae-db78-4582-85d3-bed5da524512"
     opacity="1"
     fill="none"
     stroke="#000000"
     stroke-width="5"
     stroke-opacity="1"
     stroke-linecap="round"
     stroke-linejoin="round"
     d="m 178.311,2489.709 q 0.672,2.085 0.737,2.237 0.064,0.151 0.339,0.672 0.274,0.52 0.785,1.405 0.511,0.886 0.773,1.205 0.262,0.32 0.71,0.768 0.448,0.449 0.818,0.823 0.37,0.374 0.84,0.8 0.47,0.425 0.839,0.749 0.37,0.323 1.312,1.036 0.943,0.713 1.854,1.366 0.911,0.653 1.576,1.104 0.666,0.451 1.879,1.241 1.213,0.791 2.727,1.871 1.514,1.081 2.497,1.845 0.983,0.765 1.212,0.949 0.229,0.184 1.024,0.851 0.795,0.667 1.19,1.044 0.396,0.377 0.632,0.638 0.235,0.261 0.259,0.302 0.024,0.042 0.314,0.377 0.29,0.335 0.808,0.946 0.518,0.61 1.399,2.253 0.88,1.642 0.915,1.715 0.034,0.073 0.262,0.671 0.227,0.598 0.655,2.034 0.428,1.436 0.452,1.518 0.024,0.082 0.343,1.544 0.318,1.461 0.764,3.889 0.446,2.429 0.558,3.247 0.112,0.818 0.219,1.854 0.106,1.035 0.288,3.64 0.181,2.605 0.155,4.05 -0.026,1.444 -0.17,2.525 -0.144,1.081 -0.153,1.162 -0.01,0.08 -0.268,0.857 -0.258,0.778 -0.414,1.179 -0.157,0.401 -0.355,0.806 -0.198,0.406 -0.37,0.71 -0.171,0.304 -0.32,0.526 -0.148,0.222 -0.535,0.698 -0.386,0.477 -0.763,0.868 -0.376,0.39 -0.465,0.472 -0.089,0.081 -0.298,0.286 -0.208,0.205 -0.502,0.509 -0.295,0.304 -0.656,0.63 -0.361,0.326 -0.589,0.519 -0.228,0.192 -0.615,0.49 -0.387,0.298 -0.412,0.324 -0.024,0.026 -1.791,1.356 -1.766,1.329 -2.677,1.946 -0.911,0.618 -1.804,1.255 -0.892,0.637 -1.935,1.279 -1.042,0.642 -1.384,0.871 -0.341,0.229 -0.851,0.584 -0.51,0.355 -0.891,0.605 -0.381,0.249 -0.747,0.473 -0.367,0.224 -0.835,0.535 -0.468,0.311 -1.173,0.803 -0.705,0.492 -1.694,1.149 -0.989,0.657 -1.796,1.229 -0.807,0.571 -1.301,0.923 -0.493,0.351 -0.872,0.583 -0.379,0.231 -2.376,1.82 -1.997,1.589 -2.358,1.946 -0.362,0.356 -0.768,0.797 -0.405,0.441 -0.851,0.943 -0.446,0.502 -0.819,0.989 -0.373,0.488 -1.038,1.548 -0.665,1.06 -0.682,1.082 -0.016,0.022 -0.614,1.495 -0.597,1.472 -0.835,2.497 -0.238,1.025 -0.384,2.316 -0.146,1.291 -0.224,4.185 -0.078,2.894 -0.051,4.255 0.027,1.361 0.053,2.115 0.025,0.755 0.132,2.068 0.106,1.312 0.236,2.93 0.131,1.618 0.343,4.598 l 0.08,0.671" /><path
     id="STROKE_84a8f00c-66d2-4b58-947a-fb8296df1b3c"
     opacity="1"
     fill="none"
     stroke="#000000"
     stroke-width="5"
     stroke-opacity="1"
     stroke-linecap="round"
     stroke-linejoin="round"
     d="m 171.113,2600.876 0.323,-0.079 q 0.321,0.063 0.523,0.116 0.201,0.053 0.597,0.066 0.396,0.014 0.76,0.014 0.364,0 0.548,-0.01 0.183,-0.01 0.615,-0.044 0.433,-0.039 1.481,-0.071 1.048,-0.032 3.132,0.01 2.083,0.041 3.977,0.174 1.893,0.133 2.88,0.178 0.987,0.045 5.312,-0.155 4.326,-0.2 6.483,-0.296 2.158,-0.095 3.214,-0.091 1.056,0 2.64,0.124 1.584,0.12 3.3,0.168 1.716,0.047 3.447,-0.051 1.732,-0.1 3.824,-0.119 2.092,-0.02 5.063,-0.099 2.971,-0.08 4.617,-0.121 1.645,-0.04 2.708,-0.067 1.063,-0.027 3.251,-0.151 2.189,-0.123 3.468,-0.168 1.279,-0.044 2.714,-0.079 1.434,-0.034 2.389,-0.068 0.954,-0.033 2.708,-0.074 1.755,-0.041 4.819,-0.027 3.063,0.015 5.168,0.06 2.105,0.045 4.359,0.19 2.254,0.145 3.358,0.218 1.104,0.073 1.798,0.134 0.695,0.06 2.771,0.228 2.075,0.168 2.92,0.25 0.844,0.081 1.899,0.196 1.054,0.115 4.06,0.404 3.005,0.289 4.666,0.474 1.661,0.184 3.151,0.31 1.49,0.127 2.964,0.252 1.474,0.126 3.074,0.206 1.599,0.081 3.941,0.106 2.342,0.025 2.799,0.014 0.457,-0.012 1.602,-0.01 1.144,0.01 1.922,0 0.778,-0.011 2.251,-0.066 1.472,-0.055 2.393,-0.139 0.921,-0.084 3.111,-0.193 2.191,-0.108 3.655,-0.217 1.465,-0.109 2.434,-0.286 0.969,-0.178 1.829,-0.55 0.86,-0.372 1.556,-0.864 0.167,-0.375 0.379,-1.323 0.213,-0.949 0.261,-1.886 0.048,-0.937 0.034,-1.497 -0.015,-0.559 -0.061,-0.996 -0.047,-0.437 -0.146,-1.363 -0.099,-0.926 -0.257,-2.091" /><path
     id="STROKE_24cb025f-13eb-4f11-b4d7-52909d0927ed"
     opacity="1"
     fill="none"
     stroke="#000000"
     stroke-width="5"
     stroke-opacity="1"
     stroke-linecap="round"
     stroke-linejoin="round"
     d="m 198.059,2366.17 0.62,2.556 q 0.068,0.407 1.325,5.099 1.256,4.693 2.754,9.324 1.497,4.632 2.33,7.132 0.832,2.5 1.25,3.666 0.418,1.167 0.804,2.294 0.387,1.128 0.825,2.549 0.439,1.421 2.39,8.539 1.951,7.119 2.846,10.516 0.896,3.397 1.706,6.387 0.81,2.99 1.237,4.571 0.427,1.58 0.858,3.222 0.431,1.642 1.046,3.892 0.616,2.251 1.127,4.276 0.512,2.026 0.845,3.288 0.333,1.263 0.562,2.058 -0.065,0.179 -0.205,0.451" /><path
     id="STROKE_981816aa-743f-4e5d-8da8-0eaf87f75910"
     opacity="1"
     fill="none"
     stroke="#000000"
     stroke-width="5"
     stroke-opacity="1"
     stroke-linecap="round"
     stroke-linejoin="round"
     d="m 197.905,2364.669 0.503,0.047 0.571,0.082 q 0.833,0.078 1.731,0.18 0.899,0.102 2.08,0.528 0.194,0.218 1.362,2.033 1.167,1.815 2.461,5.451 1.294,3.635 1.438,4.18 0.144,0.544 0.8,3.113 0.656,2.57 0.967,3.891 0.311,1.321 0.391,1.636 0.08,0.315 0.379,1.607 0.299,1.291 0.671,3.065 0.373,1.773 1.153,5.278 0.78,3.504 1.203,5.311 0.424,1.807 1.149,4.52 0.726,2.714 1.422,5.258 0.695,2.544 1.061,3.815 0.366,1.271 0.765,2.786 0.4,1.516 0.715,2.669 0.316,1.154 0.795,2.944 0.479,1.79 0.906,3.251 0.427,1.461 0.963,3.217 0.537,1.756 1.088,3.577 0.552,1.821 1.118,3.678 0.566,1.857 0.956,3.047 0.39,1.191 0.733,2.169 0.343,0.979 0.719,2.342 l 0.222,0.51 0.523,1.64" /><path
     id="STROKE_9d884e36-cb6c-4447-a9bf-56ce1e85b808"
     opacity="1"
     fill="none"
     stroke="#000000"
     stroke-width="5"
     stroke-opacity="1"
     stroke-linecap="round"
     stroke-linejoin="round"
     d="m 222.283,2444.714 1.052,-0.237 1.659,-0.152 q 3.283,-0.279 5.538,-0.348 2.256,-0.069 3.066,-0.072 0.81,0 2.154,-0.039 1.343,-0.036 2.447,-0.088 1.103,-0.052 1.352,-0.055 0.248,0 4.282,-0.084 4.035,-0.082 6.629,-0.079 2.594,0 4.575,0.037 1.981,0.034 2.966,0.025 0.986,-0.01 1.608,0 0.622,0.01 4.746,-0.032 4.124,-0.042 7.41,-0.202 3.287,-0.159 6.669,-0.292 3.383,-0.132 6.388,-0.233 3.006,-0.102 4.885,-0.179 1.879,-0.077 4.19,-0.196 2.31,-0.119 2.46,-0.131 0.15,-0.011 2.105,0.01 1.955,0.017 3.976,0.374 2.02,0.356 2.926,0.76 0.905,0.404 1.294,1.094 0.388,0.691 0.448,0.925 0.059,0.235 0.184,0.653 0.124,0.418 0.214,0.919 0.09,0.501 0.252,1.248" /><path
     id="STROKE_27c6ac0e-af1e-4947-9f78-b9033f0c1ad5"
     opacity="1"
     fill="none"
     stroke="#000000"
     stroke-width="5"
     stroke-opacity="1"
     stroke-linecap="round"
     stroke-linejoin="round"
     d="m 222.006,2444.596 0.227,0.495 q 0.153,1.434 0.395,3.363 0.242,1.929 0.484,3.176" /><path
     id="STROKE_3bb593df-43b0-47c6-869f-dbfce3edd6a0"
     opacity="1"
     fill="none"
     stroke="#000000"
     stroke-width="5"
     stroke-opacity="1"
     stroke-linecap="round"
     stroke-linejoin="round"
     d="m 226.581,2449.614 q 1.685,-0.112 1.866,-0.134 0.18,-0.021 3.007,-0.112 2.826,-0.091 4.342,-0.103 1.515,-0.012 2.911,-0.033 1.395,-0.022 1.47,-0.028 0.074,-0.01 1.854,0.017 1.78,0.025 3.005,0.069 1.225,0.044 3.65,0.106 2.425,0.062 3.125,0.071 0.701,0.01 3.492,-0.014 l 4.939,0.05 q 3.948,0.071 5.926,0.056 1.978,-0.016 3.949,-0.062 1.972,-0.046 4.134,-0.222 2.163,-0.176 4.954,-0.289 2.791,-0.112 3.653,-0.146 0.862,-0.034 7.718,0.03 6.855,0.065 8.309,0.155 1.454,0.09 4.101,0.382 4.328,0.35 5.724,0.432" /><path
     id="STROKE_2263f120-504c-41fd-badf-adbe9f2514b2"
     opacity="1"
     fill="none"
     stroke="#000000"
     stroke-width="5"
     stroke-opacity="1"
     stroke-linecap="round"
     stroke-linejoin="round"
     d="m 230.925,2450.343 q -0.138,0.923 -0.168,9.578 -0.03,8.655 -0.088,14.427 -0.057,5.773 -0.218,9.52 -0.161,3.747 -0.243,5.768 -0.082,2.021 -0.101,3.464 -0.019,1.442 -0.069,7.462 -0.05,6.019 -0.368,10.912 -0.318,4.892 -0.686,8.382 -0.368,3.49 -0.595,5.705 -0.227,2.214 -0.675,5.77 -0.448,3.556 -0.836,5.831 -0.388,2.276 -0.834,4.242 -0.446,1.966 -1.167,5.054 -0.721,3.087 -1.045,4.456 -0.325,1.368 -0.787,3.336 -0.462,1.966 -1.242,5.128 -0.779,3.162 -1.046,4.206 -0.266,1.044 -1.35,5.874 -1.085,4.83 -1.761,8.687 -0.675,3.856 -1.188,8.076 -0.512,4.22 -0.823,7.332 -0.311,3.112 -0.524,6.085 -0.213,2.974 -0.479,5.097 -0.266,2.123 -0.787,4.224 -0.521,2.101 -1.319,4.009 -0.095,0.199 -1.034,1.543 -0.938,1.345 -3.335,3.018 -2.397,1.673 -4.108,2.512 -1.712,0.839 -2.64,1.282 -0.927,0.443 -2.528,1.129 -1.601,0.686 -2.796,1.12 -1.194,0.433 -4.346,0.987 -3.151,0.555 -4.558,0.69 -1.407,0.134 -3.207,0.264 -1.801,0.13 -2.72,0.201 -0.919,0.071 -2.435,0.101 -1.515,0.03 -2.74,-0.075 -1.226,-0.105 -2.235,-0.279 -1.01,-0.174 -1.1,-0.174 -0.089,0 -2.468,-0.553 -2.38,-0.553 -5.391,-1.934 -3.012,-1.38 -4.27,-2.188 -1.258,-0.808 -2.194,-1.42 -0.937,-0.611 -1.291,-0.873 -0.355,-0.263 -0.625,-0.5 -0.271,-0.237 -1.108,-1.081 -0.837,-0.843 -1.467,-1.515 -0.63,-0.671 -1.052,-1.099 -0.422,-0.427 -1.022,-0.822 -0.6,-0.395 -1.656,-0.818 -1.056,-0.422 -3.076,-1.162" /><path
     id="STROKE_438e0a8b-d870-4b48-9ad7-0764b45ac5b3"
     opacity="1"
     fill="none"
     stroke="#000000"
     stroke-width="5"
     stroke-opacity="1"
     stroke-linecap="round"
     stroke-linejoin="round"
     d="m 146.402,2601.394 v 0.781 l -0.104,0.601 q -1.112,4.178 -1.808,5.953 -0.696,1.776 -2.288,4.188 -1.593,2.411 -2.493,3.285 -0.9,0.875 -1.403,1.233 -0.834,0.313 -1.657,0.478 -0.824,0.165 -1.354,0.142 -0.53,-0.023 -1.15,-0.108 -0.619,-0.085 -1.888,-0.381 -1.269,-0.296 -2.139,-0.641 -0.87,-0.344 -1.9,-0.782 -1.031,-0.437 -1.767,-0.916 -0.737,-0.479 -2.101,-1.972 l -0.101,-0.388 q -0.066,-0.476 0.006,-2.341 0.071,-1.865 0.412,-3.168 0.342,-1.303 1.025,-2.909 0.683,-1.606 1.205,-2.49 0.523,-0.883 1.602,-2.005 1.08,-1.122 1.695,-1.568 0.616,-0.445 1.176,-0.707 0.56,-0.263 0.827,-0.317 0.268,-0.053 0.415,-0.135 0.147,-0.082 2.972,0.378 2.825,0.46 4.249,0.998 1.423,0.538 2.015,0.835 0.591,0.297 1.222,0.564 0.632,0.268 1.351,0.497 0.72,0.228 2.088,0.723" /><path
     id="STROKE_2c2d2eeb-6918-441e-801c-273519862400"
     opacity="1"
     fill="none"
     stroke="#000000"
     stroke-width="5"
     stroke-opacity="1"
     stroke-linecap="round"
     stroke-linejoin="round"
     d="m 123.575,2602.455 -0.288,-0.048 -0.191,0.025 q -3.046,-0.518 -4.303,-0.866 -1.257,-0.348 -1.357,-0.396 -0.099,-0.048 -2.091,-0.951 -1.992,-0.902 -2.965,-1.509 -0.973,-0.606 -1.436,-1.012 -0.462,-0.406 -1.293,-1.337 -0.831,-0.931 -1.402,-1.799 -0.571,-0.868 -1.176,-2.176 -0.604,-1.307 -1.162,-3.334 -0.559,-2.027 -0.849,-4.534 -0.29,-2.508 -0.377,-3.893 -0.088,-1.384 -0.054,-7.384 0.035,-5.999 0.064,-8.848 0.029,-2.85 0.034,-5.802 0.006,-2.952 -0.005,-3.327" /><path
     id="STROKE_ead6a25b-77f4-426c-8e18-ae20ca1dc053"
     opacity="1"
     fill="none"
     stroke="#000000"
     stroke-width="5"
     stroke-opacity="1"
     stroke-linecap="round"
     stroke-linejoin="round"
     d="m 94.07,2555.49 q 0.058,-1.578 0.035,-3.084 0.005,-0.068 0.067,-2.696 0.062,-2.628 0.388,-4.247 0.325,-1.618 0.608,-2.307 0.282,-0.69 0.726,-1.303 0.443,-0.612 1.077,-1.067 0.634,-0.455 1.107,-0.655 0.473,-0.199 1.381,-0.386 0.907,-0.186 1.48,-0.181 0.572,0 1.563,0.073 0.99,0.069 1.851,0.194 0.86,0.125 1.76,0.371 0.899,0.247 1.321,0.402 0.423,0.154 1.234,0.479 0.811,0.326 0.842,0.359 0.032,0.033 0.847,0.454 0.816,0.422 1.376,0.798 0.56,0.376 0.771,0.623 0.21,0.247 0.291,0.301 0.081,0.053 0.608,1.042 0.527,0.988 0.894,2.623 0.368,1.636 0.322,3.142 -0.045,1.506 -0.511,2.856 -0.466,1.35 -0.603,1.549 -0.137,0.198 -0.286,0.36 -0.15,0.162 -0.982,0.432 -0.832,0.271 -1.399,0.275 -2.608,-0.381 -3.045,-0.46 -0.437,-0.079 -1.926,-0.206 -1.49,-0.127 -8.199,-0.569 -0.525,-0.056 -1.058,-0.07 -0.534,-0.013 -0.949,0.02 -0.415,0.034 -2.159,-0.023" /><path
     id="STROKE_ddf38171-e6c6-425f-9d6a-d220d44ca206"
     opacity="1"
     fill="none"
     stroke="#000000"
     stroke-width="5"
     stroke-opacity="1"
     stroke-linecap="round"
     stroke-linejoin="round"
     d="m 83.355,2531.889 q -0.022,0.348 0.074,5.665 0.097,5.316 0.227,8.504 0.131,3.187 0.164,4.37 0.033,1.184 0.163,3.027 0.13,1.844 0.28,3.006 0.151,1.162 0.391,2.608 0.24,1.446 0.636,2.998 0.396,1.553 1.926,4.483 l 0.694,0.544 1.517,0.674 q 0.724,0.096 1.538,0.158 0.815,0.061 2.678,0.235 1.863,0.174 1.925,0.168 0.062,-0.01 4.35,0.109 4.289,0.114 5.552,0.11 1.263,0 3.641,0.015 2.377,0.02 3.86,-0.029 1.482,-0.05 3.201,-0.242 1.718,-0.193 3.606,-0.696 1.889,-0.503 3.435,-1.279 l 1.537,-3.034 q 0.147,-0.291 0.524,-3.188 0.377,-2.897 0.37,-4.784 -0.007,-1.888 -0.088,-3.326 -0.081,-1.439 -0.138,-2.444 -0.057,-1.006 -0.088,-1.693 -0.031,-0.688 -0.351,-3.837 -0.32,-3.149 -0.648,-4.811 -0.329,-1.663 -1.076,-3.69 -0.748,-2.027 -1.407,-3.093 l -2.087,-1.14 q -0.235,-0.085 -5.139,-0.792 -4.903,-0.706 -7.493,-0.731 -2.59,-0.024 -6.035,0.09 -3.446,0.114 -4.321,0.165 -0.875,0.05 -2.137,0.214 -1.261,0.164 -3.53,0.461 -2.27,0.296 -6.439,1.096 l -2.034,0.559" /><path
     id="STROKE_0f5bc1a4-ddc6-4274-87d4-f0eb85f826be"
     opacity="1"
     fill="none"
     stroke="#000000"
     stroke-width="5"
     stroke-opacity="1"
     stroke-linecap="round"
     stroke-linejoin="round"
     d="m 209.869,2360.588 0.566,-0.55 0.499,-0.342 q 0.792,-0.446 3.957,-2.283 3.165,-1.837 5.863,-3.203 2.698,-1.365 3.838,-1.909 1.141,-0.545 3.857,-1.825 2.715,-1.28 6.311,-3.028 3.596,-1.749 7.302,-3.469 3.706,-1.72 12.568,-6.489 8.862,-4.768 14.325,-7.869 5.464,-3.101 9.451,-5.324 3.988,-2.222 17.78,-9.439 l 1.292,-0.452" /><path
     id="STROKE_b31ba210-cda8-4001-a595-7c4d04ef4d54"
     opacity="1"
     fill="none"
     stroke="#000000"
     stroke-width="5"
     stroke-opacity="1"
     stroke-linecap="round"
     stroke-linejoin="round"
     d="m 232.803,2434.778 1.48,-0.161 q 0.572,-0.037 2.988,-0.293 2.415,-0.255 5.115,-0.568 2.7,-0.313 8.911,-1.38 6.211,-1.066 11.559,-1.824 5.348,-0.759 8.324,-1.229 2.976,-0.47 7.911,-1.254 4.935,-0.783 7.915,-1.191 2.98,-0.408 11.63,-1.763 8.651,-1.355 11.127,-1.81 2.477,-0.456 4.174,-0.768 1.696,-0.312 5.21,-1.067 3.513,-0.754 5.48,-1.191 1.967,-0.437 3.639,-0.861 1.671,-0.424 3.69,-0.928" /><path
     id="STROKE_b80a8f4e-fd60-45f4-a146-cc49c8597096"
     opacity="1"
     fill="none"
     stroke="#000000"
     stroke-width="5"
     stroke-opacity="1"
     stroke-linecap="round"
     stroke-linejoin="round"
     d="m 278.104,2537.179 1.085,-0.284 q 1.134,0.136 1.801,0.147 0.668,0.013 1.384,0 0.717,-0.011 1.401,-0.059 0.684,-0.047 1.602,-0.185 0.917,-0.138 2.636,-0.529 1.719,-0.392 3.362,-0.866 1.642,-0.474 1.927,-0.568 0.285,-0.094 1.16,-0.497 0.874,-0.402 1.495,-0.785 0.621,-0.382 1.559,-1.112 0.937,-0.73 2.181,-1.897 1.245,-1.166 2.516,-2.79 1.272,-1.623 1.65,-2.255 0.379,-0.633 0.607,-1.083 0.228,-0.45 0.548,-1.209 0.319,-0.76 0.77,-2.197 0.451,-1.438 0.655,-2.378 0.204,-0.94 0.357,-2.171 0.153,-1.231 0.166,-2.925 0.013,-1.695 -0.054,-2.407 -0.068,-0.711 -0.189,-1.436 -0.121,-0.724 -0.279,-1.355 -0.159,-0.631 -0.279,-0.99 -0.121,-0.358 -0.235,-0.675 -0.114,-0.317 -0.93,-2.177" /><path
     id="STROKE_1d28f3f3-fd8c-4007-b1ca-3ba461ba781a"
     opacity="1"
     fill="none"
     stroke="#000000"
     stroke-width="5"
     stroke-opacity="1"
     stroke-linecap="round"
     stroke-linejoin="round"
     d="m 285.703,2537.576 0.076,0.238 q 0.235,2.297 0.934,8.405 0.086,0.383 0.157,1.061" /><path
     id="STROKE_78c6529d-e4cf-458e-b2ad-7a2df475d6a4"
     opacity="1"
     fill="none"
     stroke="#000000"
     stroke-width="5"
     stroke-opacity="1"
     stroke-linecap="round"
     stroke-linejoin="round"
     d="m 280.284,2549.457 1.374,-0.356 q 0.557,0 2.196,-0.574 1.639,-0.574 2.847,-0.914" /><path
     id="STROKE_ca27d80e-59dd-4d67-b0eb-df6838dcacb8"
     opacity="1"
     fill="none"
     stroke="#000000"
     stroke-width="5"
     stroke-opacity="1"
     stroke-linecap="round"
     stroke-linejoin="round"
     d="m 295.298,2534.896 0.388,0.336 0.357,0.378 q 0.334,0.581 2.794,3.371 2.46,2.79 3.154,3.613" /><path
     id="STROKE_6c274066-a9b7-4a1d-a0c0-03ba0564680c"
     opacity="1"
     fill="none"
     stroke="#000000"
     stroke-width="5"
     stroke-opacity="1"
     stroke-linecap="round"
     stroke-linejoin="round"
     d="m 303.664,2540.246 0.876,-0.069 q 0.663,-0.218 3.124,-2.072 2.46,-1.853 3.753,-3.038" /><path
     id="STROKE_2204e61a-9d64-4d84-836e-f2c5dee8606c"
     opacity="1"
     fill="none"
     stroke="#000000"
     stroke-width="5"
     stroke-opacity="1"
     stroke-linecap="round"
     stroke-linejoin="round"
     d="m 304.723,2527.089 q 0.577,0.376 2.134,2.279 1.557,1.904 2.923,3.299 1.366,1.395 2.251,2.282" /><path
     id="STROKE_12b12f1c-df24-4a25-be84-81512302cea5"
     opacity="1"
     fill="none"
     stroke="#000000"
     stroke-width="5"
     stroke-opacity="1"
     stroke-linecap="round"
     stroke-linejoin="round"
     d="m 307.563,2516.27 q 0.895,0.021 1.342,0.137 0.447,0.116 0.528,0.134 0.081,0.019 1.882,0.202 1.801,0.184 4.98,0.175 l 0.986,-0.154" /><path
     id="STROKE_3c33f817-036a-42eb-9405-65417d6218ee"
     opacity="1"
     fill="none"
     stroke="#000000"
     stroke-width="5"
     stroke-opacity="1"
     stroke-linecap="round"
     stroke-linejoin="round"
     d="m 317.112,2506.169 -0.053,0.404 q 0.088,1.45 0.407,6.429 l 0.03,1.756" /><path
     id="STROKE_1bed9dca-278e-40c1-a921-191ad3824885"
     opacity="1"
     fill="none"
     stroke="#000000"
     stroke-width="5"
     stroke-opacity="1"
     stroke-linecap="round"
     stroke-linejoin="round"
     d="m 307.456,2505.001 1.045,-0.372 1.127,0.163 q 2.282,-0.068 9.096,-0.242" /><path
     id="STROKE_1ad8b069-c6c5-4757-a55e-a73f55fd71e4"
     opacity="1"
     fill="none"
     stroke="#000000"
     stroke-width="5"
     stroke-opacity="1"
     stroke-linecap="round"
     stroke-linejoin="round"
     d="m 281.175,2523.851 0.771,0.105 0.46,0.035 q 1.175,-0.01 2.195,-0.147 1.021,-0.137 3.147,-0.718 0.436,-0.149 1.566,-0.801 1.129,-0.652 2.729,-2.247 1.599,-1.595 2.161,-2.548 0.561,-0.952 0.98,-2.066 0.418,-1.113 0.693,-2.766 0.274,-1.653 0.291,-1.908 0.017,-0.255 -0.015,-1.382 -0.031,-1.127 -0.072,-2.906" /><path
     id="STROKE_30538ca5-a1c6-413d-b452-c7cda02a823e"
     opacity="1"
     fill="none"
     stroke="#000000"
     stroke-width="5"
     stroke-opacity="1"
     stroke-linecap="round"
     stroke-linejoin="round"
     d="m 362.174,2520.308 q 0.632,-2.288 1.091,-4.289 0.458,-2.001 0.926,-4.326 0.469,-2.325 0.898,-4.545 0.429,-2.221 1.916,-5.328 1.486,-3.108 4.737,-4.623 3.251,-1.515 7.401,-2.217 4.149,-0.703 10.761,-0.977 6.613,-0.275 9.787,-0.214 3.174,0.061 6.291,0.314 3.118,0.253 5.687,0.602 2.569,0.35 6.686,0.887 4.117,0.537 10.503,0.605 6.385,0.069 10.749,-0.673 4.365,-0.742 5.849,-1.361 1.485,-0.62 2.969,-1.562 1.485,-0.943 2.806,-2.067 1.321,-1.124 2.175,-2.009 0.854,-0.884 2.801,-3.606 1.946,-2.722 3.091,-4.803 1.145,-2.082 3.5,-7.56 2.356,-5.478 3.336,-8.24 0.98,-2.763 1.842,-5.867 0.861,-3.104 1.931,-7.471 1.07,-4.366 1.896,-8.092 0.825,-3.726 1.697,-8.354 0.871,-4.628 2.316,-12.419 1.444,-7.791 2.163,-11.471 0.718,-3.681 1.17,-5.475 0.451,-1.794 1.389,-5.294 0.937,-3.501 1.359,-5.073 0.422,-1.572 2.786,-9.173 l 0.239,-1.583" /><path
     id="STROKE_031d9c98-424d-4c63-ae79-77090a62a1cd"
     opacity="1"
     fill="none"
     stroke="#000000"
     stroke-width="5"
     stroke-opacity="1"
     stroke-linecap="round"
     stroke-linejoin="round"
     d="m 390.574,2495.71 q -0.241,0.595 -0.975,4.412 -0.734,3.817 -1.064,6.193 -0.33,2.376 -0.529,4.249 -0.199,1.873 -0.88,7.008 -0.681,5.135 -1.152,8.772 -0.472,3.637 -1.033,7.515 -0.562,3.879 -1.091,6.846 -0.53,2.966 -0.892,5.003 -0.363,2.036 -0.783,4.676 -0.421,2.64 -1.169,7.112 -0.749,4.471 -1.25,8.765 -0.502,4.295 -0.698,6.227 -0.197,1.931 -0.366,3.198 -0.169,1.266 -0.707,5.354 -0.538,4.088 -0.966,6.724 -0.427,2.635 -0.844,4.944 -0.416,2.308 -1.074,4.987 -0.658,2.678 -1.002,3.703 -0.343,1.025 -0.995,2.525" /><path
     id="STROKE_bfaf5976-4673-4e62-be90-4f6cf94fe561"
     opacity="1"
     fill="none"
     stroke="#000000"
     stroke-width="5"
     stroke-opacity="1"
     stroke-linecap="round"
     stroke-linejoin="round"
     d="m 436.259,2497.5 0.045,0.486 q -0.015,0.603 0.683,5.25 0.697,4.647 1.211,7.301 0.515,2.654 1.168,6.093 0.654,3.438 2.686,12.282 2.032,8.843 3.149,14.014 1.116,5.171 1.893,9.557 0.777,4.386 1.39,8.173 0.612,3.788 0.862,5.209 0.249,1.42 0.535,2.96 0.285,1.539 0.962,4.342 0.676,2.802 2.195,8.488 1.519,5.687 2.335,8.638 0.816,2.952 1.152,4.223 0.337,1.272 1.743,6.423 l 0.391,1.612 0.427,1.532" /><path
     id="STROKE_c2813e01-2bd4-45ef-87ed-775ce3127c51"
     opacity="1"
     fill="none"
     stroke="#000000"
     stroke-width="5"
     stroke-opacity="1"
     stroke-linecap="round"
     stroke-linejoin="round"
     d="m 381.977,2553.666 1.072,0.221 0.576,10e-4 0.71,-0.039 q 0.908,-0.143 1.147,-0.203 0.239,-0.059 1.285,-0.279 1.045,-0.22 2.649,-0.306 1.603,-0.087 2.672,-0.056 1.068,0.032 1.715,0.021 0.648,-0.01 1.457,0 0.809,0.01 3.485,-0.128 2.676,-0.134 6.911,-0.482 4.235,-0.348 7.649,-0.502 3.413,-0.154 4.807,-0.159 1.393,0 3.66,0.01 2.267,0.01 5.11,0.11 2.842,0.101 3.284,0.1 0.442,-10e-4 7.023,0.028 l 1.649,-0.055" /><path
     id="STROKE_4492ac2b-ec3d-42d3-9165-a1ea92718713"
     opacity="1"
     fill="none"
     stroke="#000000"
     stroke-width="5"
     stroke-opacity="1"
     stroke-linecap="round"
     stroke-linejoin="round"
     d="m 487.086,2371.209 0.061,-0.166 q 0.121,-0.483 8.483,-33.718 0.177,-0.327 0.621,-1.533" /><path
     id="STROKE_611833df-ef41-4598-888a-fd0667be546e"
     opacity="1"
     fill="none"
     stroke="#000000"
     stroke-width="5"
     stroke-opacity="1"
     stroke-linecap="round"
     stroke-linejoin="round"
     d="m 495.791,2351.522 q 0.426,0.399 1.021,1.141 0.594,0.741 1.338,1.861 0.744,1.121 1.333,2.113 0.588,0.992 0.722,1.275 0.134,0.284 0.665,1.327 0.531,1.043 0.686,1.311 0.156,0.268 0.556,1.22 0.401,0.952 0.901,2.42 0.501,1.469 0.755,2.311 0.254,0.842 0.484,1.607 0.23,0.765 0.438,1.527 0.208,0.762 0.426,2.058 0.219,1.296 0.318,2.528 0.099,1.232 0.062,2.845 -0.037,1.614 -0.159,2.595 -0.123,0.982 -0.685,2.988 -0.562,2.006 -1.074,3.256 -0.512,1.25 -1.002,2.213 -0.49,0.962 -1.144,2.017 -0.654,1.056 -0.794,1.249 -0.141,0.194 -1.062,1.469 -0.921,1.275 -2.175,2.661 -1.253,1.386 -1.717,1.9 -0.464,0.514 -1.26,1.325 -0.796,0.812 -1.534,1.499 -0.739,0.687 -1.837,1.731 -1.097,1.044 -1.936,1.787 -0.84,0.743 -1.144,1.02 -0.304,0.277 -1.796,1.725 -1.492,1.449 -2.351,2.331 -0.859,0.882 -2.139,2.303 -0.045,0.138 -1.017,1.131" /><path
     id="STROKE_b9f80da5-15be-4c80-88a2-857a51a8a970"
     opacity="1"
     fill="none"
     stroke="#000000"
     stroke-width="5"
     stroke-opacity="1"
     stroke-linecap="round"
     stroke-linejoin="round"
     d="m 280.941,2339.609 -0.154,0.236 q -0.709,1.635 -2.637,5.676 -1.929,4.04 -3.625,7.579 -1.696,3.538 -2.582,5.427 -0.886,1.889 -1.606,3.515 -0.72,1.627 -1.168,2.683 -0.449,1.056 -2.198,5.372 -1.749,4.316 -2.915,7.202 -1.165,2.887 -3.219,7.402" /><path
     id="STROKE_cd07ad57-50a6-45ce-924c-079e237c988f"
     opacity="1"
     fill="none"
     stroke="#000000"
     stroke-width="5"
     stroke-opacity="1"
     stroke-linecap="round"
     stroke-linejoin="round"
     d="m 281.819,2340.972 q 0.003,1.301 -0.014,8.351 -0.017,7.049 -0.05,11.378 -0.033,4.33 -0.054,8.926 -0.02,4.596 -0.062,8.93 -0.042,4.334 -0.104,9.853 -0.062,5.519 -0.124,7.545 -0.062,2.027 -0.124,3.497 -0.063,1.47 -0.18,4.202 -0.118,2.733 -0.198,4.291 l -0.326,1.932" /><path
     id="STROKE_3ed5872d-e528-46fb-9ec3-5e294054078b"
     opacity="1"
     fill="none"
     stroke="#000000"
     stroke-width="5"
     stroke-opacity="1"
     stroke-linecap="round"
     stroke-linejoin="round"
     d="m 259.064,2385.883 1.729,-0.048 q 2.575,0.01 2.897,0 0.323,-0.01 2.633,0 2.31,0.013 4.568,0.03 2.258,0.016 3.31,0.01 1.052,-0.011 2.188,0 1.135,0.016 3.345,0.144 2.209,0.129 3.868,0.177 1.659,0.047 2.573,0.058 0.915,0.012 1.776,-0.019 0.86,-0.031 1.514,-0.053 0.655,-0.023 1.413,-0.014 0.759,0.01 3.595,0.131" /><path
     id="STROKE_c12ea85b-e765-4327-91fe-fd6ec7e22ce5"
     opacity="1"
     fill="none"
     stroke="#000000"
     stroke-width="5"
     stroke-opacity="1"
     stroke-linecap="round"
     stroke-linejoin="round"
     d="m 297.369,2346.823 q 0.883,-1.263 1.336,-1.933 0.454,-0.67 1.29,-1.65 0.837,-0.979 1.518,-1.551 0.681,-0.572 1.532,-1.078 0.852,-0.506 1.9,-0.832 1.048,-0.326 1.55,-0.372 0.501,-0.045 0.793,-0.069 0.292,-0.024 1.403,0.237 1.111,0.261 1.629,0.504 0.518,0.242 0.89,0.431 0.373,0.189 0.824,0.513 0.452,0.324 0.912,0.85 0.459,0.526 0.764,0.929 0.304,0.402 0.972,1.476 0.668,1.074 1.059,2.067 0.391,0.993 0.576,1.869 0.186,0.876 0.257,1.747 0.071,0.872 0.084,1.721 0.012,0.849 -0.179,2.151 -0.191,1.302 -0.424,2.405 -0.234,1.102 -0.833,3.033 -0.598,1.932 -1.268,3.886 -0.669,1.954 -1.21,3.501 -0.541,1.548 -1.586,4.53 -1.044,2.982 -2.305,6.269 -1.261,3.286 -1.986,4.968 -0.725,1.682 -1.219,2.813 -0.493,1.131 -0.793,1.822 -0.3,0.691 -1.126,2.46 -0.827,1.769 -2.238,4.701 -1.412,2.932 -2.131,4.525 -0.718,1.593 -1.161,2.793 -0.443,1.2 -0.81,2.773 -0.367,1.573 -0.31,2.785 l 0.086,0.619 q 0.97,0.612 1.584,0.817 0.614,0.205 1.306,0.322 0.692,0.118 1.199,0.196 0.508,0.077 1.396,0.121 0.889,0.045 2.699,0.108 1.81,0.064 3.06,0.131 1.249,0.066 2.257,0.064 1.008,0 6.091,-0.063" /><path
     id="STROKE_fa024e68-47bf-4687-b606-123b3f0408f0"
     opacity="1"
     fill="none"
     stroke="#000000"
     stroke-width="5"
     stroke-opacity="1"
     stroke-linecap="round"
     stroke-linejoin="round"
     d="m 494.717,2335.832 q -1.904,2.189 -3.378,4.16 -1.474,1.97 -1.938,2.75 -0.463,0.78 -1.665,3.436 -1.202,2.656 -1.506,3.604 -0.304,0.948 -0.658,2.575 -0.355,1.627 -0.519,2.474 -0.164,0.847 -0.199,0.947 -0.036,0.1 -0.265,2.759 -0.229,2.659 -0.189,4.764 0.041,2.104 0.158,3.275 0.118,1.171 0.401,2.395 0.283,1.224 0.438,1.79 0.155,0.567 0.264,1.059 0.108,0.492 0.337,1.317 l 0.44,1.345" /></g></svg>
