<svg xmlns="http://www.w3.org/2000/svg" xml:space="preserve" viewBox="0 0 960 480">
    <g fill="none" stroke-linecap="round" stroke-linejoin="round">
        <path stroke="#f6f7ef" stroke-width="1.356" d="M68.053 257.53 217.336 166m9.467 2.908 58.965 149.449m90.732-61.132 149.283-91.532m9.467 2.909 58.965 149.448m89.761-58.24 149.284-91.532m9.467 2.91 58.966 149.447" opacity=".5"/>
        <path stroke="#e66465" stroke-width="2.711" d="m842.84 166.596-.126-.37q-.026-.097-.183-1.179t-.395-1.629q-.237-.548-.686-1.039-.45-.492-1.012-.669t-1.195-.026-1.262.658-.88.846q-.248.34-.453.762-.206.423-.333 1.081-.128.659-.094 1.302.035.642.107.892t.187.458.49.603.7.56.514.207.495.06 1.03-.223 2.603-1.325m66.243 162.018-.256-.241q-.165-.168-.5-.99t-.613-1.332-.76-.977-1.306-.772q-.825-.304-1.533-.272-.707.031-1.315.4-.61.368-.813.622-.205.255-.38.766-.175.51-.207.935-.031.425.214 1.229.245.803.628 1.254.382.45.74.679.36.23.867.36.509.131 1.125.137.615.007.827-.047.213-.054.39-.09.18-.037 1.114-.595.934-.56 2.033-1.975l.666-1.133m-229.296-61.954q-.05-.076-.272-1.161t-.564-1.912q-.34-.827-.586-1.19-.246-.365-.453-.596-.206-.23-.357-.338-.15-.106-.183-.152t-1.966-.1-2.24.182q-.304.237-.595.68-.29.445-.527 1.385t-.152 1.545.244.985 1.118.916 1.685.646 1.1.119 1.09-.065q.717-.075 1.197-.22.48-.143 2.048-.873m-34.117-34.195-.283.788-.062.49q-.142.415 1.14 17.41l.274-.253"/>
        <path stroke="#e66465" stroke-width="2.711" d="M646.338 231.486q.026-.045.22-.542.69-.966.973-1.156.282-.189.702-.32t1.017-.02q.597.113 1.012.364.415.25.888.637t1.04 1.101.99 1.743q.42 1.028.467 1.883.046.854-.2 1.805-.248.952-1.038 2.056t-1.525 1.669-1.317.819q-.581.253-.932.335-.35.082-.719.056l-.143.084-.22.154m16.024 8.783q-.065-.219-.204-.57-.138-.352-.429-.946-.29-.595-.65-1.09-.36-.497-.518-.673t-.582-.528-1.17-.563-1.322-.132q-.575.08-1.035.475t-.725 1.122-.168 1.337.543 1.092.945.701.829.262.76 0q.43-.042.66-.13.23-.09 3.106-2.009M846.242 132l.114.52q-.02.087.427 5.144.447 5.056 1.457 11.127.108.213.285.907m-2.096-18.229q.21-.266.564-.64.355-.374 1.058-.679.702-.305 1.317-.374.614-.069 1.263.014.65.082 1.683.934t1.503 1.673.733 2.247-.009 2.776-.933 2.349-1.539 1.742-3.038 1.388q-.134-.014-.853.114m11.122 6.881q.547-.467.558-.496.01-.028.86-1.122.851-1.094 1.563-2.05 0 .028.224 1.143.224 1.117 1.288 4.952l.502 1.359m55.08 183.017v.382q-.156 1.133.319 5.518.474 4.386 1.195 8.69.72 4.304 1.34 8.1.059.116.2.837m-2.427-19.312.23-.442q.358-.751.73-1.347.37-.596.684-.92.314-.323.953-.74t1.881-.676 1.93-.175 1.243.336 1.335.965q.777.711 1.306 1.974.53 1.262.616 1.99.088.727.026 1.694-.062.968-.617 2.314t-1.384 2.295-1.794 1.397-1.48.52q-.518.071-.865.04t-.648-.19q-.3-.16-1.235-.932m12.137 8.057q0-.415-.006-.508l.236-.547q.168-.266 1.066-.923.898-.658 1.687-.797.79-.14 1.218-.04t.597.206q.17.108.27.264.102.156.3.841.199.685-.172 2.255-.37 1.57-.862 2.687l-.762 1.734q-.27.62-.357.87t-.154.403q.109.02.305.05.195.03.216.028l1.776-.017q1.754-.014 5.331-.446l1.394.048M227.542 163.192l-.127-.37q-.025-.096-.183-1.178-.157-1.083-.394-1.63t-.687-1.039-1.012-.669-1.195-.026-1.262.659-.879.846-.454.762q-.206.422-.333 1.08-.128.66-.094 1.302.035.643.107.893t.187.457.49.603.7.56.514.208.495.06q.306.017 1.03-.224.724-.24 2.603-1.324M293.29 326.18l-.255-.242q-.165-.166-.5-.99-.334-.821-.613-1.332-.279-.51-.76-.976-.481-.467-1.306-.772t-1.532-.273q-.708.032-1.316.4-.61.369-.813.623-.205.254-.38.765t-.207.935.214 1.23q.245.802.628 1.253.382.45.741.68.359.229.867.36t1.124.137.828-.048.39-.09 1.114-.595q.934-.56 2.032-1.975l.666-1.133M64.916 262.183q-.05-.075-.272-1.16-.223-1.086-.564-1.913-.34-.826-.586-1.19t-.452-.595-.358-.338q-.15-.107-.183-.153t-1.966-.1-2.24.183q-.304.236-.595.68-.29.445-.527 1.384-.238.94-.152 1.546t.245.984 1.117.917 1.685.645 1.1.119 1.09-.065q.717-.075 1.197-.22.48-.143 2.048-.873M31.387 227.84l-.284.787-.062.49q-.142.416 1.14 17.411l.274-.253"/>
        <path stroke="#e66465" stroke-width="2.711" d="M31.04 228.082q.025-.044.22-.542.69-.966.972-1.155t.702-.32q.42-.132 1.017-.02t1.012.363.888.637 1.04 1.102q.568.714.99 1.742.42 1.029.467 1.883.046.854-.2 1.806-.248.952-1.038 2.056-.79 1.103-1.525 1.668t-1.317.82-.932.335-.719.056l-.142.084-.22.153m16.023 8.783q-.065-.218-.203-.57-.14-.352-.43-.946t-.65-1.09-.518-.673-.582-.528-1.17-.562-1.321-.132-1.035.474-.726 1.123q-.265.727-.167 1.336.097.61.543 1.092.444.483.944.702t.829.262.76.001.66-.13 3.106-2.009m182.625-117.287.114.521q-.02.087.428 5.143.446 5.056 1.456 11.127.108.214.285.908m-2.096-18.23q.21-.266.564-.64.355-.374 1.058-.678.702-.305 1.317-.374.614-.07 1.263.013.65.082 1.683.935t1.504 1.673q.47.82.733 2.246.261 1.427-.01 2.777-.271 1.348-.933 2.348t-1.539 1.743-3.038 1.387q-.134-.013-.853.114m11.122 6.881q.547-.466.558-.495t.861-1.123q.85-1.093 1.562-2.049 0 .027.224 1.143t1.288 4.951l.502 1.36m55.08 183.017v.382q-.156 1.132.319 5.518.474 4.385 1.195 8.689.72 4.305 1.34 8.1.059.116.201.837m-2.428-19.312.23-.441q.358-.752.73-1.348.37-.595.685-.92.313-.323.952-.74t1.882-.675 1.928-.176q.686.083 1.245.336.558.255 1.334.966.777.71 1.306 1.973.53 1.262.617 1.99t.025 1.695-.617 2.313-1.384 2.296-1.794 1.397q-.963.448-1.48.519-.518.072-.865.04-.347-.03-.648-.19-.3-.16-1.235-.931m12.137 8.057q0-.415-.006-.509l.236-.546q.168-.266 1.066-.924t1.687-.797 1.218-.04.597.207.27.263.3.842q.199.684-.172 2.255-.37 1.57-.862 2.686l-.762 1.735q-.27.619-.357.87-.087.25-.154.403.109.02.305.05.195.03.216.028l1.776-.017q1.754-.015 5.331-.446l1.395.047m204.196-195.379-.127-.37q-.025-.097-.182-1.178-.158-1.083-.395-1.63t-.687-1.039-1.012-.669-1.194-.026-1.262.659-.88.845q-.249.34-.454.762-.206.423-.333 1.081-.127.66-.094 1.302.035.642.107.892t.188.458.489.603.7.56.514.207q.19.044.495.06.306.018 1.03-.223.724-.24 2.603-1.324m66.243 162.017-.256-.241q-.164-.167-.5-.99-.334-.822-.613-1.332t-.76-.977-1.306-.772q-.824-.304-1.532-.272t-1.316.4q-.609.368-.813.623-.205.254-.38.765-.175.51-.207.935-.031.425.214 1.229.245.803.628 1.253.382.45.741.68t.867.36 1.124.137.828-.048q.212-.053.39-.09.179-.036 1.114-.594.934-.56 2.032-1.975l.666-1.133m-229.296-61.954q-.049-.075-.272-1.161-.223-1.085-.564-1.912-.34-.826-.586-1.19t-.452-.596q-.207-.23-.358-.338-.15-.106-.183-.152-.033-.047-1.966-.1t-2.239.182-.596.68q-.29.446-.527 1.385t-.152 1.545.245.985 1.117.917q.96.536 1.685.645t1.1.118q.375.011 1.091-.064t1.196-.22q.48-.143 2.049-.873m-34.117-34.195-.284.787-.061.491q-.143.416 1.14 17.411l.273-.253"/>
        <path stroke="#e66465" stroke-width="2.711" d="M339.53 229.287q.024-.045.219-.542.69-.967.972-1.156t.703-.32 1.016-.02q.597.113 1.012.364.415.25.888.637t1.04 1.101q.569.714.99 1.743.42 1.028.467 1.883.046.854-.2 1.806-.248.951-1.038 2.055t-1.525 1.668q-.734.566-1.316.82-.582.253-.932.335t-.72.057l-.142.084-.22.153m16.023 8.783q-.065-.219-.203-.57-.139-.352-.43-.947-.29-.593-.65-1.09-.359-.496-.518-.672-.158-.176-.582-.528t-1.17-.563-1.321-.132q-.576.08-1.035.475-.46.395-.725 1.122-.266.727-.168 1.337t.543 1.092.944.701.83.263.759 0 .66-.13 3.106-2.008m182.625-117.287.114.52q-.02.087.428 5.144.447 5.056 1.457 11.126.107.214.284.908m-2.096-18.229q.21-.266.564-.64.355-.374 1.058-.679t1.317-.374 1.263.013q.65.083 1.683.936 1.033.852 1.504 1.672.47.82.733 2.247.261 1.427-.01 2.776-.27 1.35-.933 2.349-.662 1-1.539 1.742-.876.743-3.038 1.387-.134-.013-.853.115m11.122 6.881q.547-.467.558-.496t.861-1.122 1.563-2.05q0 .027.223 1.144.224 1.116 1.289 4.95l.501 1.36m55.08 183.017v.383q-.155 1.131.319 5.517t1.195 8.69q.72 4.304 1.34 8.1.059.116.201.837m-2.428-19.312.23-.441q.358-.752.73-1.348.37-.596.685-.92.313-.323.952-.74.64-.417 1.882-.676 1.243-.258 1.929-.175t1.244.336 1.334.965q.777.711 1.307 1.974t.616 1.99.025 1.694q-.062.968-.616 2.314t-1.384 2.295-1.794 1.397-1.481.52-.865.04-.648-.19q-.3-.16-1.235-.932m12.137 8.057q0-.415-.006-.508l.236-.546q.168-.267 1.066-.924.898-.658 1.688-.797.79-.14 1.217-.04.428.099.598.206.17.108.27.264.101.156.3.841t-.173 2.255-.862 2.687-.761 1.734q-.27.62-.358.87t-.154.403q.109.02.305.05.195.031.217.028l1.775-.017q1.754-.014 5.331-.446l1.395.048"/>
        <path stroke="#9198e5" stroke-width="2.711" d="M760.384 214.22q-.241-.24-.296-.3-.054-.058-.21-.254-.158-.194-.292-.331-.135-.137-.249-.226-.114-.09-.307-.188t-.47-.14q-.278-.043-.544-.016-.267.026-.572.213-.304.185-.514.549-.211.362-.16.894.053.53.191.696.139.167.709.38.57.214 1.103.16.532-.052.993-.275.46-.222.749-.533.289-.31.427-.75.139-.442-.11-1.248m-41.179 26.666q-.039-.208-.129-.43-.09-.221-.216-.39-.126-.17-.52-.392-.394-.221-.691-.235t-.41.007-.284.101q-.171.082-.395.394-.225.313-.269.672-.043.358.018.564.06.205.165.327.103.123.27.233.166.109.52.159.353.05.636-.054.282-.104.54-.292.258-.187 1.213-1.68m79.781-48.283q-.034-.033-.072-.132-.038-.098-.16-.318-.123-.22-.232-.355t-.294-.266q-.185-.13-.359-.193-.173-.062-.53-.084t-.42-.009-.367.177-.412.317-.125.309q-.016.154.017.264.034.109.249.331t.58.31q.363.086.55.063t.54-.196q.353-.175 1.365-1.398m72.988 58.719q-.092-.17-.2-.324t-.239-.294-.426-.347q-.296-.205-.67-.31-.376-.103-.652-.047-.277.057-.387.18-.109.12-.173.42t.014.483.418.46q.34.275.668.398.328.122.695.131t.657-.164.491-.414q.202-.238.592-.977M856.84 209.14l.01-.087.023-.126q.011-.364 0-.455t-.01-.118-.088-.355q-.091-.329-.22-.51-.131-.182-.24-.27-.109-.09-.333-.086-.224.007-.456.263-.233.26-.29.532-.057.273-.046.431t.099.332.253.31q.168.136.334.187.167.05.25.046.083-.006.122-.016.038-.013.126-.027.089-.015 1.047-.784m31.638 78.781-.063-.065q-.047-.019-.24-.203t-.499-.342-.675-.221-.612.025q-.246.087-.38.192-.135.106-.226.292-.092.187-.084.37.006.184.048.263t.193.258.344.302.436.198.511.086.536-.058q.266-.07.452-.218.186-.15.285-.288t.209-.409.136-.526-.083-1m-189.724-34.3q-.016-.041 0-.125.02-.085.023-.172.007-.088 0-.222-.007-.135-.05-.385t-.134-.456q-.09-.207-.307-.333-.216-.127-.446-.154t-.424.048-.366.36q-.172.284-.175.532 0 .25.09.413t.176.231q.087.069.218.134.132.065.483.128.35.064.601.052.25-.011.765-.194m40.318-24.801-.093-.136q-.299-.35-.484-.486-.186-.137-.507-.246-.32-.11-.669-.109-.348 0-.485.041-.138.04-.293.16t-.23.353q-.073.232-.055.422t.156.368q.139.18.442.298t.716.098.711-.146.506-.362.355-.52q.148-.282.294-.696m38.917-23.261.013-.285-.013-.087q-.204-.5-.267-.578t-.134-.138-.207-.125-.288-.101-.39-.03-.412.066q-.172.063-.376.265t-.236.369-.007.36q.027.193.275.377.248.183.423.217.175.033.304.032.13 0 .221.007t.623-.263 1.357-1.677m38.105-22.706-.04-.02q-.048-.072-.243-.334t-.219-.272-.167-.097q-.144-.086-.568-.16-.424-.072-.669-.035-.244.036-.452.167-.207.131-.276.34t.076.476q.148.267.464.42.316.155.529.172.212.018.462-.037t.403-.163q.153-.107.197-.15.044-.044.208-.27.164-.225.318-.594.154-.368.307-1.492m30.154 11.003-.134-.281q-.024-.05-.14-.211l-.193-.268q-.076-.107-.372-.299t-.524-.263-.541-.084q-.313-.012-.553.117-.242.128-.324.315-.084.186-.072.395.01.21.196.373.184.164.525.265.34.103.66.103.319.001.586-.067.267-.067.358-.114t.297-.225.715-.694m15.038 41.403-.057-.062q-.245-.247-.414-.372-.17-.125-.441-.21-.271-.083-.45-.064-.178.02-.247.048-.068.029-.144.094-.076.064-.122.154-.045.089-.06.188-.013.1.035.244.049.143.265.318t.694.2.771-.179q.292-.205.528-1.086-.057-.127-.166-.573m15.621 40.126-.033-.022-.176-.15-.134-.09q-.127-.058-.243-.094-.118-.036-.273-.041-.156-.007-.286.028-.13.033-.158.061-.027.029-.075.166t-.04.231.073.19.147.157q.084.062.347.098.264.035.46.017.195-.019.283-.05t1.049-.478m15.018 39.016-.114-.013q-.184-.017-.506.039t-.533.163q-.211.106-.293.177t-.147.176q-.066.106-.078.23t.107.272.355.183q.235.036.307.019t.353-.218 1.095-.987l.202-.16m-443.618-93.224q-.242-.24-.296-.3-.055-.06-.211-.255-.158-.194-.292-.331-.135-.137-.248-.226-.114-.09-.308-.188-.193-.098-.47-.14-.278-.043-.544-.016-.267.026-.572.213-.304.186-.514.549-.21.362-.16.894.053.53.191.697.14.166.71.38.569.213 1.102.16t.993-.275.749-.534.428-.75q.138-.442-.11-1.248m-41.18 26.666q-.038-.208-.129-.43-.09-.221-.216-.39-.126-.17-.52-.392-.394-.221-.691-.235t-.41.006-.283.102-.396.394q-.225.312-.269.671-.042.359.019.564.06.205.164.328.103.122.27.232.166.11.52.16.353.05.636-.054.282-.105.54-.292.258-.188 1.213-1.68m79.781-48.283q-.034-.033-.072-.132t-.16-.318-.232-.355-.294-.265-.358-.194q-.174-.062-.531-.084t-.42-.008-.367.176-.412.317-.125.31.017.263q.034.109.249.331t.58.31q.363.086.55.064.188-.023.54-.197t1.366-1.398m72.987 58.719q-.092-.17-.2-.324t-.239-.294-.426-.346-.67-.31-.652-.048-.387.18q-.109.12-.172.42-.065.3.013.483t.418.46q.34.275.669.397.328.123.694.132.367.01.657-.164t.492-.414.591-.977m-17.148-37.811.011-.088.022-.126q.011-.364 0-.455t-.009-.118q0-.026-.089-.355-.091-.329-.22-.51-.13-.182-.24-.27-.108-.09-.333-.086-.223.004-.456.263-.233.26-.29.532-.057.273-.045.43.011.16.098.333t.253.31q.168.136.334.187.167.05.25.046.083-.003.122-.016t.127-.028 1.046-.783m31.638 78.781-.063-.065q-.047-.019-.24-.203t-.498-.342q-.307-.159-.675-.221t-.613.025-.38.192-.226.293-.084.37.049.262.192.258q.15.18.344.302t.436.198q.244.076.511.086.269.011.536-.058.266-.07.453-.218.185-.15.284-.287.099-.139.209-.41t.136-.526-.082-1m-437.452-72.828q-.242-.24-.297-.3-.054-.059-.21-.254-.158-.195-.292-.332-.135-.137-.249-.226t-.307-.188-.47-.14q-.278-.043-.544-.016-.267.027-.572.213t-.514.55q-.211.362-.16.893.053.53.191.697.139.166.709.38.57.213 1.103.16.532-.052.993-.275t.749-.533q.29-.31.427-.751.139-.442-.11-1.248M257.9 244.353q-.09-.17-.198-.324t-.24-.294-.426-.346-.67-.31-.652-.047q-.277.057-.387.179-.109.12-.173.42t.014.483.418.46q.34.275.668.397.329.123.695.133.367.01.657-.165t.491-.414q.202-.237.592-.976"/>
    </g>
</svg>
