<svg xmlns="http://www.w3.org/2000/svg" xml:space="preserve" viewBox="0 0 960 480">
    <g fill="none" stroke-linecap="round" stroke-linejoin="round">
        <path stroke="#e66465" stroke-width="2.255" d="M234.288 344.074q1.276-1.64 3.698-4.326t8.243-8.72 7.328-7.528q1.506-1.494 4.795-4.64t7.403-6.762 9.473-8.11 8.202-6.81 5.836-4.625 4.798-3.663q1.806-1.355 6.95-5.11 5.143-3.756 8.12-5.848t6.697-4.581 7.013-4.636q3.292-2.146 10.765-6.722t12.862-7.731 7.95-4.628 8.953-5.003q6.394-3.53 9.93-5.453t12.207-6.486 12.335-6.445q3.663-1.883 13.567-6.685t18.238-8.59 13.803-6.14q5.472-2.35 11.009-4.572 5.536-2.221 13.578-5.237t12.317-4.522q4.276-1.507 11.323-3.903t12.513-4.16q5.465-1.763 12.226-3.853t11.109-3.373q4.346-1.284 15.998-4.622 11.65-3.339 19.138-5.41t11.289-3.101 15.58-4.04 30.321-6.978q18.541-3.97 27.867-5.688 9.327-1.72 13.387-2.422 4.06-.7 10.984-1.841 6.924-1.14 15.746-2.475 8.823-1.334 13.611-2.016t7.304-1.024 11.985-1.656 20.901-2.924"/>
        <path stroke="#f6f7ef" stroke-width="1.127" d="M343.72 259.12q.024-.384-.059-.954t-.219-1.08-.315-1.002-.491-1.01q-.313-.517-.775-.959-.463-.442-1.17-.68-.708-.237-1.334-.217t-1.305.353-1.025.644-.783.98-.69 1.404-.21 2.009q.039 1.275.273 1.766.234.49.792 1.009.557.519 1.217.774.66.256 1.232.28.571.024.966-.045.396-.069 1.092-.427t1.472-1.179 2.06-4.31m200.905-83.738.005-.28-.044-.27q-.121-.56-.142-.666-.02-.107-.262-.903t-.41-1.17-.48-.834-.955-1.008-1.312-.76-1.138-.186-.874.154-1.45 1.306-1.412 2.399q-.369 1.221-.403 1.787-.036.567.061 1.078t.356 1.009.596.904.718.695q.383.289.644.418.262.13.974.245t1.246.04 1.453-.545 1.593-1.135q.675-.663 1.055-1.196t.953-1.448M315.753 288.205q-.13.224-.296.59-.068.219.296 6.593.363 6.375.912 10.251.55 3.876.813 5.285t.453 2.133.5 1.75"/>
        <path stroke="#f6f7ef" stroke-width="1.127" d="m315.697 288.312.727-.788q1.143-.66 2.98-1.152 1.838-.493 3.553-.196 1.715.296 2.564.674.849.377 2.108 1.316t2.084 2.029 1.17 2.208q.348 1.121.302 2.475t-.64 2.56-2.44 2.799-7.815 3.396l-1.496.382m14.896 4.967q.053.19-.306.803-.094.223 2.813 9.264.089.006.594-1.079l.891-1.917q.386-.832.822-1.34t.931-.774q.497-.266.974-.287.478-.021.761.044t.586.218 1.3 1.63 1.944 4.791l.351 1.115m221.343-147.453q.013.452.522 4.882.51 4.43 2.009 14.489.029.036-.048.295"/>
        <path stroke="#f6f7ef" stroke-width="1.127" d="M566.889 174.806q.117-.055.91-.7t2.546-1.397 2.915-.926q1.162-.171 2.151-.04.99.131 1.455.328t1.187 1.06 1.033 2.403-.012 3.051-.722 2.352q-.399.84-1.366 2.084-.968 1.243-2.003 2.058t-2.32 1.333-1.975.581q-.689.063-.983.066-.293.005-.561-.1-.267-.101-.478-.23-.21-.13-.856-.468m12.972 4.354q.083.198.072.362t0 .18.063.536.566 1.75.884 1.855.62.975.534.613q.118-.096.55-.91t.778-1.41.715-1.01.979-.668q.608-.252.952-.248t.548 0 .795.28q.592.283.93.58.339.298.633.651.295.354.424.557l.272.427q.142.223.599 1.612t.594 2.079m4.463-4.403q.499-.342 5.62-1.831"/>
        <path stroke="#f6f7ef" stroke-width="1.127" d="M598.37 190.721q.27.54 1.925 7.14m10.908-4.198.151-.346.23-.376q.096-.087.68-.978.584-.892 1.001-1.416.067.285.123.566.056.282.332 1.983t1.087 4.962l.301 1.07"/>
    </g>
</svg>
