<svg xmlns="http://www.w3.org/2000/svg" viewBox="-0.3 -0.4 16.6 14.1">
    <path d="M-.3-.4h16.6v14.1H-.3z"/>
    <text fill="#fff" font-family="JetBrains Mono, monospace" font-size=".3">
hovert60: ftvkyo
</text>
    <g transform="translate(0 .4)">
        <text x=".2" y=".4" fill="#fff" font-family="JetBrains Mono, monospace" font-size=".3">
Default
</text>
        <g fill="#fff">
            <path fill="#aefac6" d="M.05 1.8h.9v.9h-.9z"/>
            <path d="M4.05 1.3h.9v.9h-.9zm9 0h.9v.9h-.9zm0 3h.9v.9h-.9zM.05.8h.9v.9h-.9zm11-.5h.9v.9h-.9z"/>
            <path fill="#fcdee9" d="M15.05 2.8h.9v.9h-.9z"/>
            <path d="M1.05 3.8h.9v.9h-.9zm11-3.75h.9v.9h-.9zm1 2.25h.9v.9h-.9zm0-2h.9v.9h-.9zm-11 2h.9v.9h-.9zm3 .25h.9v.9h-.9zm-1 .75h.9v.9h-.9zm7 0h.9v.9h-.9zm2 0h.9v.9h-.9zm1 .5h.9v.9h-.9zm-4-1.25h.9v.9h-.9zm1-1.25h.9v.9h-.9zm-6 2.25h.9v.9h-.9zm3.673 1.99.738-.517.516.738-.738.516zM5.05 1.55h.9v.9h-.9z"/>
            <path fill="#fcdee9" d="M3.05 4.05h.9v.9h-.9z"/>
            <path d="m6.382 3.802.816.38-.38.816-.816-.38zM4.05.3h.9v.9h-.9z"/>
            <path fill="#aefac6" d="M2.05 4.3h.9v.9h-.9z"/>
            <path d="M14.05 1.8h.9v.9h-.9zm-9-1.25h.9v.9h-.9zm-2-.5h.9v.9h-.9z"/>
            <path fill="#fcdee9" d="M11.05 4.3h.9v.9h-.9z"/>
            <path fill="#c3e7fd" d="m5.232 4.599.87.233-.234.87-.87-.234z"/>
            <path d="M12.05 3.05h.9v.9h-.9z"/>
            <path fill="#aefac6" d="M15.05.8h.9v.9h-.9z"/>
            <path d="M12.05 1.05h.9v.9h-.9z"/>
            <path fill="#fcdee9" d="M12.05 4.05h.9v.9h-.9z"/>
            <path d="M1.05 1.8h.9v.9h-.9zm13 1h.9v.9h-.9zm-4-2.25h.9v.9h-.9zm-6 1.75h.9v.9h-.9z"/>
            <path fill="#fcdee9" d="M.05 3.8h.9v.9h-.9z"/>
            <path d="M2.05.3h.9v.9h-.9zm1 1.75h.9v.9h-.9zm11-1.25h.9v.9h-.9zm-11 2.25h.9v.9h-.9zm7-1.5h.9v.9h-.9zm-7-.5h.9v.9h-.9zm7 2.5h.9v.9h-.9z"/>
            <path fill="#fcdee9" d="M15.05 3.8h.9v.9h-.9zm-15-1h.9v.9h-.9z"/>
            <path d="m6.54 5.023.737.516-.516.738-.738-.516zM2.05 3.3h.9v.9h-.9zm-1-2.5h.9v.9h-.9zm10 1.5h.9v.9h-.9zm-10 .5h.9v.9h-.9zm14-1h.9v.9h-.9z"/>
            <path fill="#aefac6" d="m9.899 4.832.87-.233.232.87-.87.232z"/>
            <path fill="#fcdee9" d="M4.05 4.3h.9v.9h-.9z"/>
            <path d="m8.802 4.182.816-.38.38.816-.816.38zM12.05 2.05h.9v.9h-.9zm-10-.75h.9v.9h-.9z"/>
        </g>
        <g font-family="JetBrains Mono, monospace" font-size=".3" font-weight="bold">
            <text x=".41" y="2.4">
⇥
</text>
            <text x="4.41" y="1.9">
R
</text>
            <text x="13.41" y="1.9">
O
</text>
            <text x="13.41" y="4.9">
\
</text>
            <text x=".41" y="1.4">
`
</text>
            <text x="11.41" y=".9">
7
</text>
            <text x="15.41" y="3.4">
⌃
</text>
            <text x="1.41" y="4.4">
Z
</text>
            <text x="12.41" y=".65">
8
</text>
            <text x="13.41" y="2.9">
L
</text>
            <text x="13.41" y=".9">
9
</text>
            <text x="2.41" y="2.9">
S
</text>
            <text x="5.41" y="3.15">
G
</text>
            <text x="4.41" y="3.9">
V
</text>
            <text x="11.41" y="3.9">
M
</text>
            <text x="13.41" y="3.9">
.
</text>
            <text x="14.41" y="4.4">
/
</text>
            <text x="10.41" y="3.15">
H
</text>
            <text x="11.41" y="1.9">
U
</text>
            <text x="5.41" y="4.15">
B
</text>
            <text x="9.26" y="5.8" transform="rotate(-35 9.35 5.65)">
␣
</text>
            <text x="5.41" y="2.15">
T
</text>
            <text x="3.41" y="4.65">
⌥
</text>
            <text x="6.51" y="4.55" transform="rotate(25 6.6 4.4)">
[
</text>
            <text x="4.41" y=".9">
4
</text>
            <text x="2.41" y="4.9">
⎋
</text>
            <text x="14.41" y="2.4">
P
</text>
            <text x="5.41" y="1.15">
5
</text>
            <text x="3.41" y=".65">
3
</text>
            <text x="11.41" y="4.9">
⌘
</text>
            <text x="5.46" y="5.3" transform="rotate(15 5.55 5.15)">
↓
</text>
            <text x="12.41" y="3.65">
,
</text>
            <text x="15.41" y="1.4">
⌫
</text>
            <text x="12.41" y="1.65">
I
</text>
            <text x="12.41" y="4.65">
⎇
</text>
            <text x="1.41" y="2.4">
Q
</text>
            <text x="14.41" y="3.4">
;
</text>
            <text x="10.41" y="1.15">
6
</text>
            <text x="4.41" y="2.9">
F
</text>
            <text x=".41" y="4.4">
⇧
</text>
            <text x="2.41" y=".9">
2
</text>
            <text x="3.41" y="2.65">
D
</text>
            <text x="14.41" y="1.4">
0
</text>
            <text x="3.41" y="3.65">
C
</text>
            <text x="10.41" y="2.15">
Y
</text>
            <text x="3.41" y="1.65">
E
</text>
            <text x="10.41" y="4.15">
N
</text>
            <text x="15.41" y="4.4">
⇧
</text>
            <text x=".41" y="3.4">
⌃
</text>
            <text x="6.56" y="5.8" transform="rotate(35 6.65 5.65)">
␣
</text>
            <text x="2.41" y="3.9">
X
</text>
            <text x="1.41" y="1.4">
1
</text>
            <text x="11.41" y="2.9">
J
</text>
            <text x="1.41" y="3.4">
A
</text>
            <text x="15.41" y="2.4">
&apos;
</text>
            <text x="10.36" y="5.3" transform="rotate(-15 10.45 5.15)">
↵
</text>
            <text x="4.41" y="4.9">
⌘
</text>
            <text x="9.31" y="4.55" transform="rotate(-25 9.4 4.4)">
]
</text>
            <text x="12.41" y="2.65">
K
</text>
            <text x="2.41" y="1.9">
W
</text>
        </g>
        <rect width="16.375" height="6.525" x="-.188" y="-.188" fill="none" stroke="#505050" stroke-width=".025" rx=".1" ry=".1"/>
    </g>
    <g transform="translate(0 7.25)">
        <text x=".2" y=".4" fill="#fff" font-family="JetBrains Mono, monospace" font-size=".3">
Lower
</text>
        <g fill="#fff">
            <path fill="gray" d="M.05 1.8h.9v.9h-.9zm4-.5h.9v.9h-.9z"/>
            <path fill="#aefac6" d="M13.05 1.3h.9v.9h-.9z"/>
            <path fill="gray" d="M13.05 4.3h.9v.9h-.9z"/>
            <path fill="#aefac6" d="M.05.8h.9v.9h-.9zm11-.5h.9v.9h-.9z"/>
            <path fill="#fcdee9" d="M15.05 2.8h.9v.9h-.9z"/>
            <path fill="gray" d="M1.05 3.8h.9v.9h-.9z"/>
            <path fill="#aefac6" d="M12.05.05h.9v.9h-.9zm1 2.25h.9v.9h-.9zm0-2h.9v.9h-.9zm-11 2h.9v.9h-.9z"/>
            <path d="M5.05 2.55h.9v.9h-.9z"/>
            <path fill="gray" d="M4.05 3.3h.9v.9h-.9z"/>
            <path fill="#aefac6" d="M11.05 3.3h.9v.9h-.9zm2 0h.9v.9h-.9zm1 .5h.9v.9h-.9z"/>
            <path d="M10.05 2.55h.9v.9h-.9z"/>
            <path fill="gray" d="M11.05 1.3h.9v.9h-.9zm-6 2.25h.9v.9h-.9z"/>
            <path fill="#aefac6" d="m8.723 5.54.738-.517.516.738-.738.516z"/>
            <path fill="#c3e7fd" d="M5.05 1.55h.9v.9h-.9z"/>
            <path fill="#fcdee9" d="M3.05 4.05h.9v.9h-.9z"/>
            <path fill="gray" d="m6.382 3.802.816.38-.38.816-.816-.38z"/>
            <path fill="#aefac6" d="M4.05.3h.9v.9h-.9zm-2 4h.9v.9h-.9zm12-2.5h.9v.9h-.9zm-9-1.25h.9v.9h-.9zm-2-.5h.9v.9h-.9z"/>
            <path fill="#fcdee9" d="M11.05 4.3h.9v.9h-.9z"/>
            <path fill="#beaded" d="m5.232 4.599.87.233-.234.87-.87-.234z"/>
            <path fill="#aefac6" d="M12.05 3.05h.9v.9h-.9zm3-2.25h.9v.9h-.9z"/>
            <path fill="gray" d="M12.05 1.05h.9v.9h-.9z"/>
            <path fill="#fcdee9" d="M12.05 4.05h.9v.9h-.9z"/>
            <path fill="#c3e7fd" d="M1.05 1.8h.9v.9h-.9z"/>
            <path fill="#aefac6" d="M14.05 2.8h.9v.9h-.9zm-4-2.25h.9v.9h-.9zm-6 1.75h.9v.9h-.9z"/>
            <path fill="#fcdee9" d="M.05 3.8h.9v.9h-.9z"/>
            <path fill="#aefac6" d="M2.05.3h.9v.9h-.9zm1 1.75h.9v.9h-.9zm11-1.25h.9v.9h-.9z"/>
            <path fill="gray" d="M3.05 3.05h.9v.9h-.9zm7-1.5h.9v.9h-.9z"/>
            <path fill="#c3e7fd" d="M3.05 1.05h.9v.9h-.9z"/>
            <path fill="gray" d="M10.05 3.55h.9v.9h-.9z"/>
            <path fill="#fcdee9" d="M15.05 3.8h.9v.9h-.9zm-15-1h.9v.9h-.9z"/>
            <path fill="gray" d="m6.54 5.023.737.516-.516.738-.738-.516zM2.05 3.3h.9v.9h-.9z"/>
            <path fill="#aefac6" d="M1.05.8h.9v.9h-.9zm10 1.5h.9v.9h-.9zm-10 .5h.9v.9h-.9z"/>
            <path fill="gray" d="M15.05 1.8h.9v.9h-.9z"/>
            <path fill="#aefac6" d="m9.899 4.832.87-.233.232.87-.87.232z"/>
            <path fill="#fcdee9" d="M4.05 4.3h.9v.9h-.9z"/>
            <path fill="gray" d="m8.802 4.182.816-.38.38.816-.816.38z"/>
            <path fill="#aefac6" d="M12.05 2.05h.9v.9h-.9z"/>
            <path fill="#c3e7fd" d="M2.05 1.3h.9v.9h-.9z"/>
        </g>
        <g font-family="JetBrains Mono, monospace" font-size=".3" font-weight="bold">
            <text x=".14" y="2.4">

</text>
            <text x="4.14" y="1.9">

</text>
            <text x="13.23" y="1.9">
F11
</text>
            <text x="13.14" y="4.9">

</text>
            <text x=".41" y="1.4">
🖵
</text>
            <text x="11.32" y=".9">
F7
</text>
            <text x="15.41" y="3.4">
⌾
</text>
            <text x="1.14" y="4.4">

</text>
            <text x="12.32" y=".65">
F8
</text>
            <text x="13.41" y="2.9">
↑
</text>
            <text x="13.32" y=".9">
F9
</text>
            <text x="2.32" y="2.9">
🔈 
</text>
            <text x="5.41" y="3.15">
-
</text>
            <text x="4.14" y="3.9">

</text>
            <text x="11.14" y="3.9">
Home
</text>
            <text x="13.14" y="3.9">
PgUp
</text>
            <text x="14.23" y="4.4">
End
</text>
            <text x="10.41" y="3.15">
=
</text>
            <text x="11.14" y="1.9">

</text>
            <text x="5.14" y="4.15">

</text>
            <text x="9.17" y="5.8" transform="rotate(-35 9.35 5.65)">
🔇 
</text>
            <text x="5.23" y="2.15">
BtX
</text>
            <text x="3.41" y="4.65">
⌾
</text>
            <text x="6.24" y="4.55" transform="rotate(25 6.6 4.4)">

</text>
            <text x="4.32" y=".9">
F4
</text>
            <text x="2.41" y="4.9">
⇪
</text>
            <text x="14.23" y="2.4">
F12
</text>
            <text x="5.32" y="1.15">
F5
</text>
            <text x="3.32" y=".65">
F3
</text>
            <text x="11.41" y="4.9">
⌾
</text>
            <text x="5.46" y="5.3" transform="rotate(15 5.55 5.15)">
↓
</text>
            <text x="12.14" y="3.65">
PgDn
</text>
            <text x="15.41" y="1.4">
⌦
</text>
            <text x="12.14" y="1.65">

</text>
            <text x="12.41" y="4.65">
⌾
</text>
            <text x="1.23" y="2.4">
Bt1
</text>
            <text x="14.41" y="3.4">
→
</text>
            <text x="10.32" y="1.15">
F6
</text>
            <text x="4.32" y="2.9">
⏭ 
</text>
            <text x=".41" y="4.4">
⌾
</text>
            <text x="2.32" y=".9">
F2
</text>
            <text x="3.32" y="2.65">
🔊 
</text>
            <text x="14.23" y="1.4">
F10
</text>
            <text x="3.14" y="3.65">

</text>
            <text x="10.14" y="2.15">

</text>
            <text x="3.23" y="1.65">
Bt3
</text>
            <text x="10.14" y="4.15">

</text>
            <text x="15.41" y="4.4">
⌾
</text>
            <text x=".41" y="3.4">
⌾
</text>
            <text x="6.29" y="5.8" transform="rotate(35 6.65 5.65)">

</text>
            <text x="2.14" y="3.9">

</text>
            <text x="1.32" y="1.4">
F1
</text>
            <text x="11.41" y="2.9">
←
</text>
            <text x="1.32" y="3.4">
⏮ 
</text>
            <text x="15.14" y="2.4">

</text>
            <text x="10.27" y="5.3" transform="rotate(-15 10.45 5.15)">
⏯️
</text>
            <text x="4.41" y="4.9">
⌾
</text>
            <text x="9.04" y="4.55" transform="rotate(-25 9.4 4.4)">

</text>
            <text x="12.41" y="2.65">
↓
</text>
            <text x="2.23" y="1.9">
Bt2
</text>
        </g>
        <rect width="16.375" height="6.525" x="-.188" y="-.188" fill="none" stroke="#505050" stroke-width=".025" rx=".1" ry=".1"/>
    </g>
</svg>
