<svg xmlns="http://www.w3.org/2000/svg" xml:space="preserve" viewBox="0 0 960 480">
    <g fill="none" stroke="#fff" stroke-linecap="round" stroke-linejoin="round" stroke-width="5" transform="translate(-76.65 -3742.785)scale(1.16244)">
        <path d="M188.285 3374.457q-5.568-.859-8.747-1.252t-8.96-.611q-5.78-.218-10.481.237t-10.449 1.79q-5.748 1.334-9.453 2.372-3.706 1.038-7.817 2.388-4.111 1.351-6.488 2.386t-4.738 2.318q-2.362 1.282-6.083 4.01t-6.232 5.183q-2.512 2.455-4.992 6.125t-4.605 7.833q-2.125 4.162-3.508 7.344-1.383 3.18-3.29 8.576t-3.146 12.464-1.549 13.271-.266 9.851q.044 3.649 1.081 11.769 1.038 8.12 2.065 12.579t2.923 9.84q1.897 5.381 5.868 12.081t6.463 9.973q2.494 3.275 3.699 4.592 1.206 1.316 1.739 1.917t5.109 4.771 9.506 7.453 8.959 5.127 7.673 3.15l5.72 2.049q2.074.744 9.658 3.267 7.585 2.523 13.868 3.129 6.284.607 11.271.093 4.987-.515 14.496-3.908 9.508-3.393 14.296-5.617t8.763-4.42q3.974-2.195 7.008-3.99 3.034-1.794 6.652-4.255 3.618-2.462 7.844-6.666t6.975-7.753q2.749-3.55 4.212-5.848 1.464-2.298 4.375-7.974 2.912-5.675 4.48-9.245t2.966-7.486q1.396-3.917 2.174-6.333t1.779-8.749q1-6.333 1.066-9.583.065-3.249-.014-4.63t-.264-2.423-.891-5.121-1.459-6.966-1.393-4.67-1.125-2.96-2.062-4.506q-1.576-3.328-2.972-5.704t-1.982-3.212-3.126-4.033q-2.541-3.198-4.899-5.472t-3.375-3.131q-1.018-.856-3.54-2.982t-2.834-2.382-3.718-2.768q-3.405-2.513-5.739-4.02t-3.399-2.127-4.714-2.496-6.283-3.059q-2.635-1.183-5.908-2.469-3.273-1.287-6.224-2.283t-5.224-1.471l-3.662-.765q-1.388-.291-3.149-.636l-3.461-.174"/>
        <path d="m157.912 3457.771-.549-.48-.62-.492q-.222-.128-2.486-1.346t-4.615-1.616-3.644-.241-2.618.933-3 3.741-2.013 5.577q-.337 2.613-.173 3.607.163.994.305 1.477t.915 1.814q.774 1.331 2.112 2.644t2.595 2.054q1.258.741 2.342 1.091t2.122.423q1.039.072 1.656.026.618-.046 1.726-.427t2.927-1.416q1.553-1.151 2.884-2.899t1.733-2.632.58-1.814q.177-.93.187-2.066t-.099-1.819q-.11-.683-.489-1.458t-.405-.903-.763-1.404q-.736-1.278-1.397-2.538m57.831-3.09q-.118-.039-.582-1.111-1.238-1.475-2.673-2.168t-3.937-.898-3.323-.094q-.82.11-2.014.541t-3.267 2.466-2.385 2.78-.58 1.915q-.267 1.169-.303 1.892t-.026 1.318.401 1.951q.391 1.357 1.255 2.65.863 1.294 1.308 1.704.445.411 2.081 1.323 1.635.913 2.134 1.097t2.212.342q1.714.159 2.626.057.913-.102 2.535-.677 1.621-.575 2.491-1.153.87-.577 1.584-1.321t1.011-1.175q.296-.432.581-1.036.284-.604.384-.859.099-.256.302-1.171.202-.914.24-1.671.038-.758.087-.853.05-.096-.44-4.452m-81.474 47.136.968.205 7.062.911q2.161.374 3.128.565.966.191 3.005.526 2.039.334 3.419.524 1.381.19 2.184.284.802.095 6.705.442 5.902.347 10.851.31 4.948-.038 7.794-.196 2.846-.159 4.173-.259 1.328-.1 3.769-.268t3.304-.268q.864-.1 3.107-.33t6.117-.896 5.813-1.152 2.716-.685 2.007-.619 3.682-1.407q2.452-.986 3.612-1.487 1.161-.5 3.805-1.823 2.643-1.322 4.248-2.211 1.604-.89 2.987-1.586m-72.823 57.3q-.538 1.477-.522 7.273t.224 8.653m58.512-21.645q.168.836 2.658 8.707 2.489 7.873 2.829 9.001m54.343-113.532.572-.162q.138.042 3.39-1.107t4.694-1.672m-195.506 1.01-.592.23q-.196.064-3.338.324t-6.577.605m112.025-73.346.166-.571q-.059-.146.664-4.744.722-4.599 1.084-6.971m240.719-12.806.482 1.262q.171 1.675.623 8.975t1.377 17.529q.925 10.231 1.355 15.266t.54 11.855-.18 12.155-.635 14.716-.301 14.133.228 11.576l-.15 1.177m-3.105-110.041 2.024-.157 3.838-.135q2.188-.028 5.617-.203 3.43-.176 10.291-.299 6.862-.122 11.335-.095t7.547-.055 13.282-1.229 16.697-1.747q6.488-.601 9.531-.748 3.042-.147 7.658-.279m-83.247 117.008.668-.04 2.833.016q.293 0 2.798.123 2.505.122 4.641.414 2.135.292 3.728.513t4.305.685 5.187.885q2.475.42 7.127.71t14.358.209q9.706-.079 15.398-.115t13.312-.021 10.051.16q2.432.146 5.334-.075.674-.248 1.696-.374m-5.169-119.474q.038 2.507.014 2.869t.023 4.381.256 7.529.562 11.975.162 21.059-.182 23.565.053 12.491.145 3.823q.102 2.304.17 4.321t.434 6.533q.366 4.515.587 6.464.221 1.948.488 4.05t.678 7.14l.013 1.031m-1.318-107.738q.289.549 4.172 3.902 2.555 24.154 2.599 28.026l.066 5.726q.022 1.854.035 1.897t.024 5.207q.01 5.163-.025 7.495-.034 2.332-.067 5.932t-.108 6.285q-.075 2.686-.112 7.701-.036 5.015-.027 9.378.01 4.364.059 8.581t.171 7.947q.123 3.731.255 6.297.132 2.567.23 6.084.099 3.517.082 3.978-.017.46-.165 1.339"/>
        <path d="M528.787 3358.05q1.167.98 2.137 1.758.969.777 1.077.885.107.109.868.678t1.561 1.327 1.863 2.114 1.246 1.653q.184.297.803 1.563l.684 2.022q.103.569.74 4.725.638 4.156.844 6.913.207 2.758.329 4.189t.248 4.029q.126 2.596.222 8.072t.069 11.012q-.028 5.535-.054 8.265t-.024 3.215-.062 3.802-.117 8.576q-.055 5.259-.051 8.235t.022 6.809q.017 3.833.038 5.921t-.051 7.25-.221 7.902q-.149 2.741-.285 4.65t-.309 3.468-.517 3.458M436.735 3462l.663.032q1.091.215 1.878.446t1.653.44 1.258.27q.393.06 1.918.38 1.526.32 2.848.606 1.323.285 2.044.407t1.1.157 2.627.551 4.224.811 4.24.521q2.263.226 4.269.306 2.005.081 5.179.271 3.173.19 5.714.403t3.46.317 5.263.52q4.344.414 6.841.705 2.496.29 5.67.629t4.15.421q.976.083 4.367.384 3.391.3 5.661.505 2.27.204 3.732.365 1.462.16 2.118.253.655.092 4.705.304 4.05.213 4.769.188m4.19 1.084q-.117-.148.217-.491.081.117-.834-.816"/>
        <path d="M540.549 3480.006q-.897-.148-3.887-.147-2.99 0-5.893-.287-2.902-.288-3.336-.364-.434-.075-1.89-.494t-4.368-1.02-4.921-.965-2.117-.373q-.109-.01-3.123-.656-3.015-.647-5.519-.99t-4.387-.642q-1.884-.301-2.838-.504t-2.158-.4q-1.205-.196-5.327-.838-4.123-.641-7.16-1.136t-4.648-.744q-1.612-.25-4.389-.868-2.777-.617-5.507-1.216t-5.785-1.299q-3.054-.699-4.232-.95-1.177-.252-5.614-1.379t-6.47-1.667q-2.033-.541-4.553-1.299t-3.009-.896q-.49-.137-.978-.245t-3.795-1.022q-1.195-.623-3.015-1.245m17.696-77.282q.009.291-.102 1.189t-.341 11.189-.215 15.008q.017 4.717.11 7.984t.177 4.347q.085 1.079.275 2.517t.506 3.201.774 3.261.886 2.574.661 1.61q.232.532.594 1.114t.705 1.004q.343.421 1.47 1.417 1.128.997 1.921 1.501.792.504 1.653.877.862.373 3.286.958 2.424.584 3.425.749t2.798.275q1.798.111 3.751.07 1.954-.042 3.292-.192t4.01-.636 4.141-.74q1.468-.255 2.768-.457t1.975-.29q.677-.087 3.998-.493t5.49-.75 4.876-.972q2.707-.627 3.897-1.143t3.769-1.963l1.892-2.778q.396-.407 1.156-6.156t.42-10.957q-.34-5.207-.883-9.522t-4.869-18.949q-.579-.89-1.007-1.261-.428-.372-1.324-.887-.897-.514-2.629-1.152-1.733-.638-2.846-.919t-1.149-.279-2.276-.469q-2.24-.469-4.509-.735t-3.85-.397-4.093-.329q-2.512-.197-4.238-.355t-3.328-.323q-1.602-.166-2.674-.243t-5.392-.129-5.269-.037q-.948.015-1.192 0-.243-.01-2.513.16t-2.854.307-.7.19-1.17.276-1.588.318-1.048.257-.746.241-3.339 1.301"/>
        <path d="m458.131 3402.798.269-.617q.875-1.389 2.431-3.479t2.587-2.905q1.03-.814 1.669-1.02t1.168-.114.783.226q.254.133.903.76.649.628 1.309 2.531.661 1.903.69 3.252.03 1.35.006 1.616-.023.266-.194 1.248t-.42 1.719q-.248.737-.373 1.584.047.115.744.171.698.056 1.247.061.549 0 1.269.175.72.169 2.242 1.04 1.522.87 1.835 1.11.314.239 1.137 1.112.823.872 1.328 2.785t.412 2.884-.269 1.518-.498 1.071q-.324.524-2.54 2.229t-4.288 2.283-3.458.618q-1.386.042-3.621-.594-2.234-.635-4.411-1.383-1.153.042-2.02-.256m42.814-20.398q-.779-1.454-.971-1.749-.193-.294-.375-.622-.182-.329-.605-.915-.424-.586-1.865-1.736t-2.176-1.474q-.734-.323-2.18-.557-1.446-.233-2.095-.096-.649.138-1.161.439-.512.302-.879.646t-.571.439q-.203.094-1.284 2.528-1.081 2.433-1.227 4.071t-.092 2.982q.055 1.345.173 2.111.118.765.586 2.17t1.038 2.642 1.45 2.562 1.073 1.518.838.851 1.369 1.216q.724.556 1.249.873t1.65.51 1.863.173q2.572-1.045 3.015-1.395.443-.349.822-.78t.988-1.533q.61-1.101.939-2.329.33-1.227.415-1.923.085-.695.149-2.388.065-1.694-.071-2.828t-.266-1.613-.277-.828-1.756-4.896m115.797 115.458-.866-.32q-.562-.034-3.171-.294-2.609-.261-4.34-.074-1.731.186-2.529.45-.798.265-1.892.967t-1.917 1.589-1.252 1.703-.828 2.589-.37 2.921q.031 1.148.238 2.112.206.963 1.305 2.653t2.054 2.558q.957.869 1.72 1.25.763.382 1.972.667 1.209.284 3.575.146t3.009-.367 1.353-.677 1.984-1.927q1.272-1.479 1.698-2.271.427-.792.745-1.904.318-1.113.372-1.317t.073-1.502-.064-1.869-.226-1.506-.279-1.438q-.138-.503-.257-.722-.12-.219-.204-.521t-1.754-4.293m.617-.995q.278-.467.417-.598.139-.132.858-1.349t2.568-4.627q1.849-3.411 4.5-9.159t4.575-9.683 4.926-9.152 4.209-7.23 1.625-2.762q.418-.748 3.327-5.468l1.219-2.222m15.143-14.916-.622-.322-.887-.436q-1.461-.595-3.783-1t-3.658-.327-2.157.3-1.558.657q-.738.435-1.293.918-.556.482-1.04 1.334-.485.852-.706 1.538-.222.686-.373 2.109-.152 1.423-.113 2.182.04.759.071 1.218t.607 2.103q.577 1.644 1.404 2.71.828 1.066 1.516 1.552.687.486 1.08.669.394.183 2.024.46 1.63.278 2.762.143t2.15-.55 1.823-.98 1.25-.985.927-1.149.858-1.721q.375-.991.489-1.48.114-.49.253-.725t-.068-4.355l-.573-2.541m-39.411 77.966q1.467-.447 2.27-.747t3.887-1.578 3.788-1.512 4.233-1.563 4.655-1.771 3.273-1.171 3.45-1.193q1.302-.466 2.395-.866t6.058-2.025 6.785-2.218q1.82-.594 2.596-.826t2.844-.91 4.025-1.295q1.955-.617 5.091-1.47l2.544-.718m25.502-5.942-.484-.465-.755-.545q-.995-.563-2.43-1.342t-3.163-1.348q-1.727-.569-2.915-.674t-2.964.209-2.575.684-1.175.628q-.378.257-1.204 1.04t-1.645 2.235q-.818 1.453-1.028 2.478-.209 1.026-.137 1.747t1.157 2.309q1.085 1.587 1.693 2.05.608.464 1.177.703t1.394.407 2.345.162q1.519-.01 2.666-.3 1.146-.294 2.178-.689 1.031-.396 2.592-1.356l1.359-1.112 1.339-1.524q1.071-1.658 2.043-3.128m-16.228 7.948-.285.137q-1.289.864-3.005 2.144t-3.653 2.812q-1.937 1.531-3.965 3.286-2.028 1.754-2.912 2.571-.885.816-1.099 1.064t-3.334 3.217q-3.12 2.967-5.242 4.962t-3.739 3.563-2.972 2.89-2.275 2.183-5.102 4.642m-.063 7.651-.299-.608q-.51-.85-.941-1.397-.43-.548-.854-.877-.425-.329-1.038-.649-.613-.319-2.12-.643-1.506-.325-2.55-.323-1.044.001-1.634.137-.591.137-1.12.347-.529.211-1.964.896-.15.061-1.019.938t-1.276 1.694q-.407.818-.613 1.397-.205.58-.208 1.578-.003.997.009 1.206t.324 1.118q.312.91 1.093 1.89.782.981 1.091 1.183t2.34.7 2.874.485q.841-.012 1.785-.226.943-.214 2.395-.853 1.452-.638 2.667-1.476 1.215-.839 1.768-1.701.554-.862 1.906-2.498m61.085-120.336q-1.013-.305-1.776-.45t-2.646-.313q-1.882-.168-3.918.041-2.036.208-3.66 1.034t-2.252 1.391q-.626.566-1.636 2.534-1.01 1.969-1.096 2.25t-.213 1.589-.073 1.987.33 1.645q.276.967.398 1.402.123.436.712 1.295.59.86 1.014 1.235.423.376.908.762t1.355.986q.869.601 3.259.852t3.199.139q.81-.113 1.406-.348.596-.236 2.945-2.304 1.601-2.678 1.886-3.664t.448-2.583q.165-1.595.172-2.006t-.433-2.435q-.44-2.025-1.18-4.876"/>
        <path d="M641.947 3545.22q2.771-7.113 3.901-10.107 1.13-2.995 1.759-4.494t1.31-3.114l1.34-3.179q.66-1.564 1.211-2.772t1.413-2.994q.863-1.787 2.933-5.762 2.071-3.975 3.754-7.111 1.684-3.136 2.33-4.376.645-1.241 1.838-3.441t3.332-5.942q2.139-3.741 4.161-7.161 2.023-3.419 3.055-5.106t2.218-3.56q1.186-1.875 2.393-3.718 1.207-1.844 2.734-4.213 1.528-2.369 3.477-5.395t2.374-3.635 1.496-2.213 2.239-3.348q2.125-2.867 3.99-5.653m-31.074-1.769q.236-.145.605-.234.37-.089 1.814-.688 1.444-.6 6.156-2.449 4.712-1.85 6.959-2.369t3.79-.804 3.144-.73 2.705-.708 1.73-.385 4.107-.754m-37.732-65.695q-1.855.425-4.091.958-2.235.534-3.4.978t-2.281 1.21-1.703 1.312-.903.923q-.317.379-.855 1.271t-.817 1.746-.363 1.446q-.082.592-.155 1.391-.072.8.429 2.853.5 2.053.992 2.855.492.801 1.019 1.365t1.399 1.102q.873.538 2.135.88 1.263.342 2.228.359.965.018 1.388-.012t2.315-.757q1.891-.727 2.369-1.052t1.804-1.7 2.262-2.905q.729-1.734 1.011-3.679t.285-2.685q.002-.741-.208-1.948-.211-1.207-.369-1.724-.159-.516-.394-1.017t-.442-.787-.447-.621-2.123-3.693m-8.188 23.191.085.427-.007 2.33q-.306 4.227-.354 11.69-.049 7.462-.17 20.087-.12 12.626-.341 15.383m127.05-84.511.17.859q.08 1.256.315 7.286t.553 12.544.52 10.977.269 6.678.458 7.326q.39 5.11.778 8.81.389 3.7.632 6.189.243 2.49 1.03 8.734t1.372 16.369q.584 10.126.63 15.02.045 4.894.098 16.038t.107 14.335.249 7.91q.197 4.719.327 7.219t.267 3.966.163 1.648q.027.182.122 1.714.096 1.531.128 2.716.032 1.184.101 2.012.07.829-.335 2.782"/>
        <path d="m775.654 3358.245 1.237-.279q1.214-.322 1.763-.402.549-.079 1.747-.141 1.199-.061 2.402-.18 1.202-.119 3.672-.516t2.733-.462 6.233-.371 9.668-.43 5.732-.217 4.596-.189q2.562-.097 6.212-.373t5.171-.414q1.52-.137 2.618-.222t2.907-.204q1.809-.118 3.601-.262 1.791-.143 4.111-.346t4.114-.316 6.84-.4q5.044-.286 6.041-.32.996-.035 4.45-.365t3.913-.377q.46-.046 3.043-.157 2.584-.112 7.289-.084m-.064.535q.046.638-.068 5.387-.113 4.748-.277 8.703t-.265 8.548.095 12.637.674 15.727.643 11.529.264 6.989q.099 3.144.17 4.837t.201 4.244q.13 2.552.17 3.667t.149 6.594.282 13.825q.172 8.347.66 16.067t.712 12.667q.223 4.946.458 9.517.234 4.571.444 9.536.209 4.964.225 6.454.016 1.491-.044 3.38t-.324 3.84m-88.903-139.181q.095.684-.022 2.595t-.047 4.302q.069 2.389.445 4.451t1.495 4.306h.258q.919-.552.986-.544.067.01.694-.929.628-.936.982-1.684.355-.747.829-2 .474-1.252.711-2.006t.504-1.647.54-1.533.282-.679.613-.722q.604-.681.914-.8t.849-.026l.7.52.511.644q.316.188.746 2.141.429 1.954.526 2.962.097 1.007.335 1.787.238.779.469 1.172t.414.554.416.184 1.093-.673q.396-.538 1.071-3.057.676-2.52 1.162-4.536.487-2.016.77-2.889t.431-1.141q.146-.27.802-.671.369.071.834.592.466.521.721 1.061t.47 1.327.389 1.7.336 2.31.204 2.138.319 2.498.56 2.836.717 1.608.57.559.354-.036.463-.313.737-1.626q.491-1.38.729-2.615l.303-1.566q.065-.329.464-2.8t.734-3.836q.336-1.366 1.4-3.09.959-.012 1.349.288.391.3.681.599.29.298.445.585.154.286.614 2.123t.584 2.524q.125.686.239 1.822t.135 1.538.112 1.211q.092.81.263 1.698t.291 1.438.357.988.229.476q-.006.039 1.017.598.839-1.455 1.895-5.233 1.056-3.779 1.607-7.757t.688-5.051q.136-1.074.187-1.517t.251-1.199.4-1.027.656-.361q.455-.092.702.113.248.204.92 1.484.673 1.28 1.203 3.951.529 2.673.741 4.651.212 1.979.743 4.566t.903 2.987.423.333l.316-.115q.387-.422.657-.702t1.012-1.877 1.047-2.343q.306-.745.686-1.475.379-.729.573-.98.193-.252.505-.461.313-.209.48-.265.168-.055.484-.056.316 0 .643.32.326.323.69.752t.688.867q.324.437.97 1.945.645 1.507 1.167 2.742t.626 1.449.366.558.725.665.758.317q.295 0 .3-.03.005-.028.628-1.042t1.123-3.182q.499-2.166.775-4.099t.526-3.711q.249-1.779.416-2.514t.204-.886q.038-.151.397-.533.36-.381.593-.381.225.226.674 1.862t.487 5.197-.138 5.198q-.176 1.638-.33 2.724m-66.234 35.69q.329-.235.797-.859t1.262-1.389.966-.912q.173-.148 1.083-.717t1.372-.743.984-.273q.523-.098 1.171.149.647.248 1.65.858t2.302 1.624 1.952 1.364 1.025.459.67.073.486-.114q.188-.08 4.477-4.012.545.029.875.163t.747.347q.417.212.445.244t3.012 1.656q.613.072 1.051.044t1.21-.111q.773-.084 2.301-.368t2.109-.21q.32.115 1.047.729.728.614 1.825 1.377t2.476.883q1.163-1.349 1.714-2.572.552-1.224 1.182-2.927.631-1.702.874-2.303.243-.6.829-1.224.585-.625.79-.694.204-.07.435-.01.231.063.595.466t1.179 1.739 1.232 1.93.731.935.472.47q.158.13.208.21t1.464.624q.063.021 4.047-1.02l.39.014.76.2 2.667.738q.785-.181 1.49-.482.704-.302 1.326-.596t1.598-.805 1.204-.465 3.281.403q.209.032 1.32-.418 1.11-.451 2.764-1.289t2.15-1.101q.496-.264 1.046-.159.549.106.846.033m-71.188 32.925.561-1.003q.21-.58 5.05-4.72l.376.059q.634.243 2.952 1.496.434.019.458 0 .025-.016.28-.097.255-.08.694-.225t.61-.169q.17-.025.32-.019.153.053.183.845.031.792.376 3.078.344 2.286.509 3.237.164.952 2.011 3.495.328-.019.729-.421t.514-.529.798-1.691q.686-1.565 1.239-2.708t2.7-3.561q.277.207.736.823.46.615.881 1.265.42.649.729 1.018.309.37.695.743.385.374.947 1.007l.413.219q.42.234.499.232.078 0 .599-.845.521-.843 1.24-3.651t.784-3.183.799-2.863q.733-2.488 1.761-4.06h.105q.585.668 1.197 1.904.611 1.235 3.277 6.909l.771.41q.156.234.972.663 1.232-.221 2.15-.595.919-.374 1.574-.673.379-.079 1.207.094.827.174 1.297.212t.745.038 1.07-.075q.795-.076 1.002-.129t1.254-.509q.223-.072 1.064-.411t1.159-.424q.406.057 3.967 2.124l.67-.164q.138 0 .614-.554.476-.556.878-1.222.402-.667.592-.949t1.126-2.593q.936-2.313 2.005-3.851.347.474.51.647.163.172 1.469 4.146t3.118 7.007q.277-.02 3.647-2.879l.383-.055q.069-.078 2.418-.088.247-.124.711-.567t.962-.87q.499-.428 2.468-1.575m-74.208 31.765.237.381.6.664q.473.438 1.473 1.335 1.001.896 2.548 1.179l.996-.992q1.363-2.214 1.731-3.029.367-.815.544-1.225.176-.411.446-.809t.97-.584q.699-.186.96-.165.26.021.524.119t.3.093q.035-.01.537.384.501.389.74.731t.358.63.306.917.416 1.567.349 1.334.472 1.647 1.124 2.783q.774 1.53 1.191 1.966.416.436.901.562.484.126.933-.151.448-.276 1.23-1.553t1.199-2.488.739-2.493 1.1-2.714q.401-.198.779-.054.379.143.957.719.577.577 1.006 1.183t.906 1.334q.477.727 1.374 1.751.875.162 1.526.134t.878-.051q.226-.023.548-.028.321 0 1.067-.406.745-.401 1.006-.581.262-.18.834-.533.572-.352.71-.445.139-.093.532-.269.394-.177.472-.155t.825-.213 1.006-.356q.26-.12.501 0 .241.124 1.286.913 1.045.787 1.977 1.534.931.747 1.828 1.141.589-.284.75-.444.162-.159.243-.152.082.01 4.37-7.971.14.16.655.975.516.814.983 1.882.468 1.068 3.748 8.066.243-.035.816-.534.573-.5.666-.517t.995-2.219q.903-2.201 3.514-7.532l.423.17q.155-.279 3.5 3.788.294-.074 1.571-.739t1.947-.576q.671.089 1.091.065.42-.025.782-.114.362-.088.682-.263.319-.175.905-.567.585-.392.878-.571t1.296-.771q1.003-.591 2.536-1.713"/>
        <circle cx="814.194" cy="3510.318" r="2.5" fill="#fff" stroke-width=".1"/>
        <path d="m831.616 3509.596-.418-.306"/>
        <circle cx="848.532" cy="3509.765" r="2.5" fill="#fff" stroke-width=".1"/>
        <path d="M261.075 3379.835q1.498-1.32 2.247-2.181.749-.862.802-.887.052-.025 1.793-1.822 1.742-1.797 6.251-5.519t6.675-5.185q2.165-1.464 4.615-3.024 2.449-1.56 7.833-3.804 5.383-2.243 11.024-3.613t19.337-2.439q13.697-1.068 21.483-.898 7.786.169 10.786.401t5.292.636q2.293.404 7.61 1.493t11.006 2.62q5.69 1.532 11.129 4.203l3.251 1.915"/>
        <path d="M382.637 3344.644q.175.497.462 1.199t1.601 2.29 2.377 2.859q1.063 1.273 2.264 3.048t2.138 3.707q.936 1.931.83 2.214t-.185.425-.041.643.024 1.156q-.013.655-.215 1.341l-1.049.603q-.085.205-1.06.465-.975.259-2.958.735-1.983.475-4.223.9t-4.737.707-3.626.521-3.89.667m-87.694 137.913q.862.532 2.966 1.948 2.104 1.417 4.057 2.583 1.953 1.165 4.955 2.689 3.002 1.523 7.272 3.538t7.998 3.397q3.727 1.382 8.474 2.658t15.374 3.65q10.626 2.373 19.981 4.381 9.354 2.009 14.016 2.87 4.661.862 12.746 1.64 8.085.779 14.28 1.166 6.195.388 15.311.807 9.117.418 19.655-.02 10.538-.439 16.856-1.147 6.318-.707 9.429-1.047l7.198-.784q4.086-.446 8.361-1.137t9.274-2q4.998-1.31 7.705-2.132t4.761-1.434q2.054-.611 6.153-1.868 4.098-1.257 9.154-3.019t9.988-3.689 13.799-6.273q8.869-4.345 16.043-8.342 7.173-3.996 15.081-8.579 7.907-4.582 10.82-6.285t8.627-5.126 8.985-5.478l5.946-3.735q2.675-1.68 7.134-4.514l3.324-2.237"/>
        <path d="M584.979 3467.189q.331.104 1.602.44l2.22-.014q.438.07 16.815.766.108.317.165.971.056.654.064 1.172.007.518-.045.806t-4.192 13.484l-1.263 2.317m-292.89-41.702q9.24-1.19 15.481-2.789 6.241-1.598 11.083-2.897 4.841-1.299 11.071-2.628t12.29-2.93 10.875-3.258 6.725-2.405q1.911-.747 5.168-2.095t17.125-8.322q.392-.327 1.953-1.108t3.883-2.223q2.322-1.441 3.122-1.932t3.668-2.41m100.513-80.843 1.435-1.237q2.284-1.266 2.403-1.357.119-.092 2.564-1.612t5.619-3.47 7.278-4.294q4.103-2.343 6.204-3.416t3.485-1.634q1.384-.562 5.179-2.112t9.52-3.684q5.724-2.135 9.609-3.262 3.886-1.128 12.213-3.198t19.181-4.547 18.853-3.984q7.999-1.508 12.302-2.2 4.304-.693 10.869-1.379 6.565-.685 18.44-1.273t19.93-.872 14.431-.369q6.375-.085 8.91-.085t9.802.335 17.409 1.819 15.431 2.402q5.288.918 11.549 2.297t12.373 3.245q6.111 1.865 9.169 2.952 3.057 1.086 4.567 1.759t4.732 2.485q3.222 1.813 7.793 4.899t7.423 5.278 4.987 4.018 3.437 2.902q1.301 1.075 2.701 2.31t2.348 2.203 1.04 1.075 1.48 1.39 2.584 2.368q1.197 1.086 4.255 4.217"/>
        <path d="M816.318 3308.22q.728 1.4 2.37 8.977t1.748 11.212q.104 3.635-.093 5.674l-.001.168-.711.063q-1.258.074-2.029.027-.771-.046-.944-.01-.173.038-4.298-.684-4.124-.722-12.75-2.875-.727.293-3.025.848"/>
    </g>
</svg>
