<svg xmlns="http://www.w3.org/2000/svg" xml:space="preserve" viewBox="0 0 960 480">
    <g fill="none" stroke="#FFF" stroke-linecap="round" stroke-linejoin="round" stroke-width="5">
        <path stroke-width="6.667" d="M250.874 103.729q.439-.056 6.093.238 5.654.295 8.9.584 3.247.29 6.179.782 2.932.49 10.128 1.994 7.195 1.506 17.925 2.68t18.091 1.47q7.361.294 17.572 1.152 10.212.857 22.459 1.554t26.845 1.778q14.596 1.08 23.28 1.557 8.684.479 14.367.527t22.169.288q16.484.241 29.85.541 13.363.299 19.509.21 6.145-.09 20.629-.134 14.483-.043 28.935.119t24.685.076 15.024-.156q4.792-.071 7.78-.144 2.988-.075 15.84.346l2.027.403m3.09 1.764.655 1.69.227 2.877q-.047.256.164 10.126.21 9.87.293 16.99.081 7.12.076 12.944-.005 5.822-.012 9.073-.005 3.25-.104 8.247-.099 4.998-.184 14.394-.085 9.395.168 21.919.255 12.523.501 20.15.247 7.629.743 16.189.496 8.558 1.29 19.641.794 11.081 1.138 16.53t2.113 30.355 3.119 45.959 1.89 30.91q.538 9.857.814 13.58.275 3.726.515 7.675.241 3.95.336 5.178.096 1.229.301 6.35.204 5.123.232 8.046t.001 4.828-.036 5.55l-.018 5.991q-.01 2.345.001 3.307.012.961-.024 4.716l-.076.837"/>
        <path stroke-width="6.667" d="M337.369 14.59q-.12.516-.288 9.819t.121 15.049q.29 5.744 1.097 13.89t.99 38.771.441 42.128q.26 11.506.3 19.52.04 8.015-.079 17.348-.12 9.334-.257 26.207t-.25 25.601q-.111 8.73-.425 14.93-.312 6.2-.846 19.189-.536 12.988-1.364 33.12t-1.294 34.923-.761 24.094-.695 15.3l-.32 1.91m1.248 9.685 5.335.13q.453-.066 13.924.473t24.35.818 19.12.498q8.24.217 21.154.308 12.913.089 20.453-.079 7.54-.17 24.023-.46t27.225.057 26.192 1.26q15.448.912 30.387 1.228 14.937.316 25.667.706 10.728.388 24.644.938 13.916.551 20.764.687 6.849.136 17.585.212 10.737.077 24.713.235t25.22.602 20.608.591l2.775.235"/>
        <path stroke-width="13.333" d="M270.066 430.666q.347-.281 4.352-4.537 4.004-4.255 9.665-10.143t6.79-6.91 1.949-1.713q.82-.69 2.45-1.986 1.631-1.298 5.011-4.199t5.828-5.124q2.45-2.223 10.68-9.039t16.602-13.833q8.369-7.017 12.17-10.44t9.8-8.656q6-5.232 17.804-15.91 11.804-10.68 19.596-18.222 7.791-7.541 15.304-14.525 7.514-6.986 15.526-14.942t14.02-13.569q6.008-5.61 11.004-10.308 4.996-4.699 10.788-10.321 5.793-5.624 8.661-8.188 2.868-2.563 6.317-5.447t10.424-8.437 13.911-11.144 11.476-9.176q4.541-3.587 11.335-9.256t11.441-10.166 7.561-7.473 4.559-4.688 7.895-7.996 11.186-11.144q4.938-4.859 7.783-7.64 2.847-2.783 6.233-6.03 3.388-3.249 16.026-14.72t21.125-19.109 14.952-13.79 14.115-13.08q7.652-6.928 11.432-10.342t5.634-5.076q1.856-1.661 6.156-5.444t8.652-7.777l1.494-1.11"/>
    </g>
</svg>
