<svg xmlns="http://www.w3.org/2000/svg" xml:space="preserve" viewBox="0 0 960 480">
    <g fill="none" stroke="#fff" stroke-linecap="round" stroke-linejoin="round" stroke-width="5" transform="translate(94.72 -1349.653)scale(1.33333)">
        <path d="M118.257 1185.126q-.757-1.164-1.13-1.677t-3.455-2.729q-3.082-2.215-5.197-3.146t-5.482-1.613-6.716-.512-5.666.854-4.881 2.281-3.392 2.36q-.829.762-2.985 3.29t-2.38 2.835q-.225.307-1.944 3.688-1.719 3.38-1.967 4.169t-.507 2.005-.278 3.313q-.019 2.095.6 4.542.618 2.446 1.773 5.169t2.482 4.697q1.327 1.975 2.567 3.346t3.325 3.004 4.483 2.827q2.4 1.194 4.947 1.97t5.552.858q3.004.082 4.388-.137t4.034-.788 4.374-1.255q1.724-.685 3.144-1.559 1.421-.875 2.67-1.986 1.249-1.112 2.516-2.598 1.268-1.486 3.066-4.39t2.125-3.627q.326-.724.96-2.554.633-1.831.685-1.974t.423-2.23.45-3.588.044-2.115-.467-2.288-.914-2.827-1.089-2.221-.792-1.291-4.109-5.884m200.866-4.07q1.682-3.652 2.702-5.7 1.019-2.048 1.921-3.655.903-1.608 3.043-5.187t3.625-5.788 2.915-3.913 3.285-3.594 4.471-4.025 4.625-3.486q2.009-1.353 5.306-2.799 3.297-1.447 5.62-2.134t5.121-1.253q2.799-.567 3.035-.628t2.852-.428q2.617-.367 7.373-.709l8.431-.605q3.677-.264 6.83-.267 3.154 0 5.941.287 2.787.289 4.249.536 1.463.245 2.82.492 1.357.246 1.398.262t3.472.786q3.432.771 5.552 1.407 2.121.635 3.903 1.295 1.781.66 2.605.994.823.333 2.573 1.287t3.17 1.831q1.419.876 2.565 1.561 1.147.684 3.319 2.298 2.173 1.613 3.396 2.596t1.81 1.449q.588.466 1.712 1.343t2.691 2.143q1.565 1.266 4.209 3.89t3.944 3.946 1.743 1.779 1.126 1.254q.683.795 1.237 1.499.554.703 1.065 1.29.51.586 3.32 3.474l.892.771"/>
        <path d="m455.474 1156.496.355.495q.82 2.039 1.487 3.655.667 1.617.984 2.53t.784 3.007q.468 2.095.477 3.006.01.912-.155 1.591-.164.68-.269.925-.105.244-1.043.598-.939.353-2.471.265t-2.993-.497-2.277-.685q-.817-.276-4.941-1.37l-.569-.32-1.267-.447-1.44-.556-2.39-.848-.505-.227m-348.13 27.447.635.581q.904.985 3.785 4.617 2.88 3.633 4.723 5.66t3.049 3.118q1.206 1.089 2.458 1.672.153.037.25.033.097 0 .932.341"/>
        <path d="m107.526 1193.411-.5.442q-.821.95-3.68 4.394t-10.193 12.531l-1.059 1.098m226.9-20.317q-.082-.305-.741-2.087-.659-1.781-1.291-2.911t-.902-1.625q-.271-.495-1.915-2.454t-4.911-4.098-4.899-2.728-5.11-1.252q-3.476-.664-5.731-.748-2.256-.085-6.23.698-3.975.784-5.94 1.398t-4.33 1.85-3.973 2.301-2.606 2.006-1.956 1.906-2.37 3.323q-1.413 2.358-1.745 3.295-.333.938-.754 2.405-.422 1.467-.65 3.975t.026 5.065q.255 2.555.918 4.546.664 1.991 1.48 3.394.815 1.402 1.001 1.669.187.266 1.596 1.791t2.625 2.5q1.216.974 2.852 1.91 1.637.935 3.726 1.668t2.356.823 2.299.354q2.03.264 5.835-.116 3.805-.379 6.452-1.156t4.296-1.517 7.067-4.312q2.412-2.131 3.972-3.849 1.559-1.717 2.859-3.667 1.299-1.95 1.964-3.376.665-1.427.72-1.502t.494-1.368q.438-1.293.582-2.109t.875-3.322m-191.241 19.883q1.611 1.506 2.719 2.419 1.108.914 5.784 4.511 4.675 3.596 7.447 5.761 2.771 2.165 4.561 3.443l2.72 1.943q.93.665 2.443 1.785 1.513 1.121 1.607 1.211.093.09 1.808 1.216 1.714 1.126 3.227 1.978t7.759 3.607q6.247 2.754 11.721 4.289t8.675 2.137q3.2.602 7.612.839 4.412.236 7.687-.014t4.473-.442q1.199-.192 2.137-.407t6.58-2.359 8.517-3.649 4.411-2.488 5.611-4.142 6.558-5.364 5.042-4.582q2.56-2.376 3.767-3.632l2.311-2.404q1.104-1.148 2.893-2.969 1.79-1.822 2.691-2.785t2.76-3.39"/>
        <path d="M238.791 1218.319q.742-.27.893-.377t2.866-1.264q2.714-1.157 5.579-2.139 2.865-.983 7.712-1.132-.348 2.913-.694 5.033t-.622 4.241q-.276 2.12-1.262 9.274m28.624-30.399q.454.408.544.5t1.662 1.768 2.64 2.42 1.842 1.048 1.067.293q.246-.037 3.353-4.653t4.794-9.265 2.153-6.062m173.872-16.953-.785.063q-6.19 1.723-7.412 2.135t-2.23.876-2.164 1.219q-1.156.754-2.928 2.529t-2.525 2.868-1.398 2.513-1.174 3.64-.742 4.375.169 6.139q.382 3.982.517 4.642.135.659.448 1.485.312.826.704 1.619.392.792 2.159 3.551t3.779 4.507 3.57 2.65 2.863 1.457q1.306.553 2.715.944t1.491.437 3.247.342q3.166.294 4.678.218t4.035-.761q2.522-.685 2.687-.769t1.803-.704q1.639-.62 4.111-1.874 2.471-1.253 3.986-2.344 1.514-1.092 2.188-1.7t2.179-2.484 2.269-3.11q.763-1.235 1.739-3.473.975-2.237 1.304-3.424.329-1.188.488-5.149.16-3.962-.139-5.983t-1.489-4.381-2.049-3.349-1.896-1.972-2.337-1.727-2.316-1.223-2.532-.892-3.399-.605-3.281-.247-3.386.168q-1.986.222-3.557.391-1.571.168-1.871.166-.3-.001-4.139.922"/>
        <path d="m471.05 1185.214.65-.156q.293-.183 1.474-.601 1.18-.418 2.677-.714 1.497-.295 2.517-.244t1.699.248q.679.198 1.509 1.035.83.836 1.059 1.152t.429 1 .257 1.562-.339 2.264q-1.057 2.113-1.311 2.411t-.941 1.149q-.686.849-1.558 1.975-.871 1.125-1.295 2.014l-.625 1.656-.87 2.353"/>
        <circle cx="476.974" cy="1209.806" r="2.5" fill="#fff" stroke-width=".1"/>
    </g>
</svg>
