<svg xmlns="http://www.w3.org/2000/svg" xml:space="preserve" viewBox="0 0 960 480">
    <g fill="none" stroke="#fff" stroke-linecap="round" stroke-linejoin="round" stroke-width="5" transform="translate(876.37 -3690.226)scale(1.33333)">
        <path d="M-351.485 3039.095q-.154.042-1.556.458t-2.3.603q-.898.188-2.126.378-1.229.19-2.294.277t-2.372.033q-1.306-.054-2.278-.184-.971-.129-2.322-.44-1.351-.31-2.683-.621-1.333-.311-3.897-1.067t-5.38-1.674-5.226-1.881q-2.41-.964-4.421-2.107t-2.498-1.469q-.487-.327-.739-.466-.253-.14-3.33-2.905t-4.72-4.678q-1.643-1.915-3.565-5.029-1.922-3.115-3.519-6.648t-2.607-6.636-1.343-4.314-1.01-4.2q-.677-2.987-1.061-7.266t-.192-8.148q.193-3.869.712-6.508.519-2.64 1.631-6.111 1.111-3.471 2.647-6.062 1.537-2.591 2.064-3.297.527-.707 2.353-2.861t3.191-3.43 2.346-2.03q.983-.755 6.431-3.815t8.686-4.412 5.86-2.06q2.623-.71 9.157-1.453t9.587-.95q3.054-.205 5.161-.278t2.817-.151q.71-.079 1.595-.553l-.057-.261q-.222-.757-1.005-2.305-.784-1.547-1.663-3.05t-1.714-3.11-1.604-3.486-1.206-3.285q-.436-1.406-1.39-5.715t-1.277-9.933q-.324-5.624.196-10.756.52-5.131 1.316-8.732.795-3.6 2.335-7.656t4.569-8.838q3.028-4.782 8.444-10.829 5.415-6.048 9.031-8.84 3.616-2.793 6.777-4.691t10.026-4.644q6.864-2.747 11.465-3.866t6.23-1.355 5.418-.532q3.79-.297 7.555-.19t6.582.434 7.442 2.001q4.625 1.673 7.218 3.282 2.593 1.61 5.325 4.31 2.732 2.701 6.231 8.262 3.499 5.562 4.808 7.988t3.083 6.04q1.773 3.613 3.13 6.677 1.357 3.065 3.435 7.337t3.105 5.797q1.027 1.524 1.632.953t1.464-1.704q.859-1.132 2.163-2.806t2.253-2.641q.95-.966 1.751-1.555.802-.589 6.274-3.615t10.185-4.704q4.713-1.677 7.514-2.442 2.8-.764 8.008-1.555 5.208-.792 9.725-.797 4.518-.01 8.732.628 4.215.632 9.57 2.003t8.024 2.293q2.668.922 5.356 2.298t6.077 3.866q3.389 2.489 5.047 3.913 1.659 1.423 3.03 2.87t3.567 4.367q2.197 2.922 3.657 5.287 1.461 2.366 3.832 7.626 2.372 5.261 4.141 10.41 1.768 5.15 2.325 7.503.556 2.352 1.057 6.72t.258 9.329-1.215 9.161-1.721 7.382-.634 4.392.329 1.374q.934.459 1.864.697.929.238 2.633.692 1.703.455 2.663.811t2.218.902 3.645 1.998q2.386 1.451 3.562 2.387 1.176.937 2.718 2.429 1.543 1.493 1.924 1.909.381.417 1.223 1.355.841.937 2.977 3.794t3.428 4.905 2.037 3.393 1.525 2.96q.78 1.617 2.277 5.387t2.467 6.968 1.477 6.846q.506 3.647.438 6.12-.068 2.472-.333 4.299-.266 1.827-.303 2.042t-.97 3.389-1.654 4.731-1.302 2.556-1.763 2.515q-1.18 1.517-3.272 3.391-2.091 1.873-3.012 2.473t-1.074.703q-.154.104-1.554.707t-3.785 1.182l-2.564.621q-.179.043-3.852.534t-6.648.835-4.636.543q-1.66.2-4.125.476t-9.525.831q-7.06.556-10.511.77-3.452.214-8.24.501-4.788.286-13.632.78-8.844.493-13.512.734t-7.064.317-5.689.215-15.128.437q-11.836.297-19.346.309t-11.13-.045q-3.62-.056-5.642-.052-2.022 0-12.575.046-10.554.042-16.722.044-6.168 0-14.323-.034-8.156-.037-10.76-.104-2.605-.067-8.145-.146t-13.235-.144q-7.696-.066-9.994-.123t-6.21-.189q-3.913-.133-5.491-.25-1.578-.118-1.739-.136t-9.24-.746-10.875-.849"/>
        <path d="M-406.373 2958.322q-2.179.084-2.973.168-.795.083-1.695.191t-2.042.175-2.499.018-2.85-.233q-1.492-.185-3.698-.846-2.207-.66-3.618-1.233-1.411-.571-4.118-1.901-2.708-1.329-5.4-3.109t-4.051-3.026-2.578-2.697q-1.22-1.452-1.698-2.055t-1.816-2.309-2.995-4.531-3.034-6.036q-1.377-3.21-2.435-7.33-1.058-4.119-1.495-6.82-.436-2.702-.774-6.372-.337-3.67-.097-8.504t.641-7.26.734-3.811q.334-1.385.841-3.026t1.201-3.454 1.23-2.951q.536-1.139 1.369-2.642.833-1.504 3.22-5.079t3.947-5.455 2.764-3.096q1.203-1.216 1.857-1.789.654-.574 2.063-1.626t2.36-1.65q.95-.598 4.391-2.179 3.442-1.582 5.138-2.2t2.707-.968 3.679-.794q2.669-.446 5.061-.614 2.392-.169 4.527-.292 2.134-.123 2.241-.136.107-.012 2.316.022 2.209.033 4.369.106 2.159.072 2.222.082t2.473.234 4.006.401 3.171.438 2.194.374 1.612.372 2.516.753 2.807.987 3.142 1.469q1.86.975 2.855 1.597.995.623 1.649 1.116.654.492 1.552 1.148.897.655 2.991 2.827t2.736 2.93 1.285 1.673q.642.916 1.583 2.324.941 1.409 1.426 2.269t1.306 2.566q.821 1.704 2.204 5.459"/>
        <circle cx="-352.611" cy="2931.022" r="2.5" fill="#fff" stroke-width=".1"/>
        <path d="M-352.669 2931.375q-.55.499-.852 1.019t-.915 1.313m-82.846 60.743q-.333.734-2.293 5.331t-5.948 15.525-4.535 12.438m-25.551-63.211q-.939.172-14.839 6.534-13.9 6.361-16.207 7.502m20.251-62.221-1.031-.036q-.691-.073-7.181-.192t-10.448-.416-6.095-.481m42.054-56.865q-.896-.228-3.829-.888-2.932-.659-5.255-1.393t-7.779-3.047-7.134-3.066m61.819-19.611q-.366-.477-.716-1.025t-.624-1.122-.851-1.978q-.578-1.406-2.35-6.143t-3.958-10.636q-2.185-5.9-2.723-7.317m54.616 18.972q.006-.826.894-4.553.889-3.728 2.234-7.82 1.346-4.091 3.939-11.047m31.959 39.789q4.936-4.253 7.095-6.227t5.981-5.986q3.821-4.011 5.407-5.769m94.982 167.27-.33-.047q-.298-.11-.726-.217t-.76-.134q-.332-.026-.854.013t-1.33.332q-.808.292-.927.377-.118.084-.32.326-.202.241-.322.48t-.253.954-.025 1.584q.106.869.135 1.008.028.138.275.532.246.394.708.842.461.449 1.436.548t1.474-.084q.498-.183.96-.5.463-.317.83-.867.368-.55.459-.784t.087-.885-.073-.798q-.067-.147-.269-.637-.201-.49-1.787-2.898m4.505 3.811 1.724.285q1.683-.02 2.676-.13t2.152-.248q1.16-.139 1.936-.208.775-.069 3.524-.115 2.749-.047 4.273-.01 1.524.041 2.306.092.783.051 1.395.072t1.238.023q.625 0 4.461.119 3.837.116 7.294.191 3.457.076 4.514.072 1.057 0 3.499.038 2.443.041 5.183.091 2.741.05 3.736.049.995 0 1.875.081.88.082 3.671.163t4.404.056q1.614-.025 3.457-.04 1.843-.016 9.779-.356l1.498-.229"/>
        <path d="m-170.259 2981.892.684.264q.918.503 2.389 1.181t3.316 1.521 2.57 1.274q.724.431 1.553 1.141.828.711 1.2 1.228t1.252 1.508q-.339 2.043-.594 2.595-.255.551-.693 1.18-.439.629-3.23 3.842l-1.748 1.408m-158.762 67.442.029.212.193.671q.601 1.637 1.797 4.7t3.51 8.014q2.316 4.951 4.261 8.572l.714 1.673m6.912-26.107.029.528-.035.423q-.296 1.669-1.084 5.332t-1.587 7.165q-.8 3.501-1.064 4.831-.265 1.331-.85 3.723-.586 2.392-.89 3.661-.303 1.269-.519 2.071m16.232-14.891q.739.01 2.76-.106 2.021-.111 3.184-.227t2.019-.251q.857-.134 3.686-.894m-8.601 7.893q1.112-.249 2.023-.156.912.094 1.928.171t5.643.073l1.337-.156m48.539-5.506q.345 2.251.933 4.483t.956 2.861q.367.628.842-.017.195-.479.519-1.302.325-.823.996-1.849.672-1.025 1.355-1.754t1.319-1.196.875-.588q.239-.12.987-.239.748-.118 1.786 1.277 1.037 1.395 1.553 2.261.515.866.95-.176.436-1.042.927-2.026t.954-1.468q.462-.485.779-.651t.607-.233q.291-.066.696-.041t.873.305 1.159 1.309q.692 1.028 1.021 2.914.33 1.886.455 4.037m18.076-27.517q.033.746-.089 1.682t-.182 1.18-.73 3.563-1.711 7.72-3.152 11.477-4.349 13.072l-.31.676m24.425-25.049q-1.051.067-1.907.223t-1.591.348-1.668.806-1.376 1.25q-.441.637-.487 1.24-.046.604.174 1.092t1.833 1.283q1.614.796 2.479 1.091.865.296 1.584.676t1.137.88.556.932q.138.433.133.629-.004.195-.067.403-.062.208-.368.432-.306.223-.884.467t-7.322 1.232l-.769-.073m-83.254-1.378q1.113-1.518 6.721-14.623.115-.144-.015 2.412t1.347 19.363q.249.273.781 1.026m18.833-15.732q-.097-.043-.948-.625-.85-.582-1.766-.982-.916-.399-2.328-.645t-2.441 0q-1.03.243-1.379.456-.35.212-.449.256-.098.043-1.048 1.01-.949.968-1.447 1.954-.498.987-.821 2.479-.322 1.493-.353 2.78-.03 1.288.123 2.349.153 1.06.456 1.979.302.92.924 2.079.621 1.16 1.272 1.87.65.711 1.453 1.132t1.356.527q.554.105 1.605-.215 1.051-.321 1.443-.622t.716-.559.95-.988 1.122-1.768q.497-1.039.68-1.64.183-.6.401-1.444t.401-2.243q.182-1.399.199-2.822.016-1.422-.1-3.289-.115-1.867-.157-2.505"/>
    </g>
</svg>
