<svg xmlns="http://www.w3.org/2000/svg" xml:space="preserve" viewBox="0 0 960 480">
    <g fill="none" stroke="#fff" stroke-linecap="round" stroke-linejoin="round" stroke-width="5" transform="translate(880.496 -1966.837)scale(1.33333)">
        <path d="m-398.008 1674.122-.918-.731q-1.155-.567-2.099-.886t-1.951-.417-2.598.382-2.327.968-1.047.848q-.313.36-.719 1.066-.406.705-.688 1.399-.283.694-.423 1.424t-.136 1.355.071 1.015.474 1.248.878 1.474q.47.617 1.106 1.113.636.497 1.23.734.594.236 1.044.366.451.129 1.586.265t2.094.06q.959-.075 2.298-.482 1.34-.407 1.869-.709t.718-.452.578-.628q.391-.478.818-1.254.427-.777.586-1.422t.177-1.627-.113-1.625q-.13-.645-.27-.979-.139-.335-.359-.718-.284-.336-.52-.611t-1.032-1.28m-5.903 12.231q.091.539.228 3.595t.148 3.455q.01.4.085 2.018.074 1.619.146 5.015t.181 6.652q.11 3.255.228 6.435.117 3.18.133 4.836l.04 4.668q.024 3.013.026 6.82.002 3.806-.005 7.122t-.045 6.793q-.038 3.478-.039 3.668 0 .19-.042 1.467l-.058 1.682q-.015.405-.069 2.011-.054 1.605-.118 2.738-.065 1.134-.253 3.164t-.433 4.245q-.244 2.213-.517 4.785t-.496 4.829l-.376 3.801q-.153 1.543-.385 3.531l-.142.918m3.665-46.999q-.002 1.373.031 2.856t.048 1.584.101 1.884.122 2.725.191 2.58q.156 1.638.312 3.204.156 1.565.216 2.314.059.748.117 1.116t.295 2.279.316 2.717.232 2.069.417 3.284.446 3.171.347 2.022q.166.872.386 1.892l.421 1.951.37 1.702q.169.773.435 1.848l.151.864q.195.81.829 3.86.025.069.044.181t.046.322"/>
        <path d="m-403.227 1695.353-.106.434-.052.478-.078 1.024q.012.19-.354 5.384t-.522 8.828q-.155 3.635-.197 5.372-.042 1.736-.128 4.89-.087 3.155-.152 5.21-.066 2.056-.154 3.804t-.19 3.519-.132 2.729q-.031.956-.047 1.388-.015.432-.117 2.39m2.268-44.115-.028.257q.117 1.874.337 3.686.219 1.813.694 6.207.476 4.394.719 6.661t.373 3.254.343 3.096q.212 2.109.416 5.294t.531 6.07q.327 2.886.579 4.516.253 1.631.93 5.3l.217 1.109m-2.239-64.917-.247.104m110.848 93.487-1.089.099-.875-.059q-.196-.048-2.136.016t-3.485.532q-1.544.468-2.264 1.257-.721.789-1.221 2.373-.499 1.584-.406 2.77.094 1.186.302 1.751.208.566.766 1.157.559.59 1.036.88t1.065.523 2.077.373 2.361-.033 1.472-.547q.6-.375 1.536-1.394.936-1.02 1.248-1.738.312-.719.371-.877.058-.157.177-1.313.118-1.156.084-1.413t-.033-1.29q-.19-.635-.33-2.201m49.282 1.196q-.449-.022-1.103-.233-.655-.21-2.18-.483-1.526-.272-2.406-.228-.881.043-1.359.16-.478.116-.817.29t-.858.655-.872 1.043q-.354.562-.575 1.534-.222.972-.207 1.299t.25 1.354q.18.186 1.275 1.202t1.746 1.366q.65.349 1.324.398.673.05.713.067t.981-.207q.942-.223 1.86-.804.918-.58 1.392-1.004t.631-.701.3-.368q.142-.092.591-1.534.449-1.443.772-2.355m-79.344-.064q1.51.133 2.358.39.848.256 6.26.505l1.858-.042"/>
        <path d="M-306.804 1774.452q.665-.43 1.185-1.189.521-.759 1.19-1.482.67-.724 1.258-1.21t.776-.609q.187-.123 1.022-.565t2.455-1.122 2.41-.847q.79-.165 1.231-.273t1.585-.394l.792-.108q1.112-.054 2.161.017 1.049.07 2.026.344t1.492.45.826.331 1.207.835q.896.678 1.186.997t.556.673.661 1.049 1.341 2.25m.474-1.056 1.004-.094q.461.024.861.12.401.096 2.1.289 2.116.043 5.41.079t6.177.176 3.792.269q.91.13 1.738.161.827.032 4.607.387m-.528-.534q1.229-.688 1.641-.96.412-.271.579-.411t1.784-1.134q1.618-.994 2.607-1.446t2.067-.752 1.754-.388 1.628-.063q.953.025 1.7.052.748.027 1.609.175.862.148 3.481.738l1.416.609q.849.437 2.27 1.406l.449.294q2.056 1.764 2.977 2.35m-.675-1.73 1.369.446q.439 0 1.067.033.627.035 2.084.023 1.456-.011 2.384-.081.928-.069 1.66-.064.733.01 3.5-.037l2.056.214"/>
        <path d="M-319.303 1771.805q.068-.263.148-.834-.129-.394.822-10.361.337-.671.848-1.637.511-.965 1.146-1.79 1.193-1.066 3.295-2.257.168-.155 1.403-.577t2.168-.614 1.82-.404 2.118-.55q1.232-.338 2.347-.624 1.116-.286 2.2-.598 1.665-.612 3.38-1.322t2.1-.887 1.536-.783q3.52-1.54 4.947-2.11t3.105-1.052 3.663-.828 5.361-.581q3.375-.236 5.4-.259t3.25.018l2.219.076q.996.034 2.175.121 1.18.086 2.558.174 1.379.089 2.003.094.624 0 2.513.197 1.889.193 4.812.725 1.881.404 3.158.718 1.277.315 2.091.58t3.369 1.432q2.07 1.117 3.532 1.991t1.877 1.111 1.673.792l3.343 1.705q1.919.784 2.692 1.035.772.25 1.365.404.594.154 1.813.365 2.35.644 2.742.77t.878.254q.487.128.948.247.461.12 1.127.414.667.295 1.486.895t1.04.803q.221.202.584.716.362.514 1.134 2.444t.889 2.471q.119.541.326 1.867.207 1.325.321 2.272-.029 1.619-.07 1.897-.041.279-.171 2.142m-39.762-144.183 1.437-.122q.562.122 1.595.282 1.032.161 5.048.093 4.015-.068 6.476-.101t5.832.044q3.371.076 5.768.293t4.306.51 6.535.498 6.307.205 4.904.085q3.221.083 5.617.09 2.396.01 9.22-.037 6.825-.044 11.61-.547 4.786-.504 7.833-.961t5.897-.817 4.143-.502q1.294-.143 1.962-.266t1.165-.166q.496-.042 1.025-.144.53-.102 1.077-.19.548-.088 1.429-.173t1.206-.055 2.837-.258m.127 2.71q.141.79.399 9.571.257 8.782.315 11.222.058 2.441.098 4.239.04 1.797.029 4.243t-.175 8.385-.2 21.031q-.036 15.093.322 29.84.359 14.746.685 24.339.326 9.591.598 13.428t.458 6.871l.287 4.662q.101 1.627.098 1.742t.257 2.684.38 4.028m-94.464-133.177-.04.55q.077 2.461.077 3.254t.121 2.823q.122 2.031.259 4.434.138 2.403.179 3.684t.09 2.232q.05.951.113 1.179.063.227.077 1.236t.053 2.522m.456 12.84q-.127.908-.112 6.136t-.004 6.335-.065 4.29q-.047 3.184-.038 3.367.008.184-.068 2.059t-.114 2.234m.401 11.453q.057 3.98.138 7.571.08 3.59.213 5.912t.451 10.149m79.726-97.9q-.148.601-.316 7.792-.168 7.192.099 13.555l.217.758m-.601 14.037-.04.57q-.001.864.121 4.301.121 3.438.225 6.011t.209 4.174q.105 1.6.183 2.453.079.852.17 1.635t.389 5.62m.801 11.441-.057.693q-.13.479-.139 5.6t.16 8.093.221 3.725q.051.751.112 2.737t.08 3.487q.018 1.501-.049 4.539m-37.075-29.727.107.38.209 2.67q-.006.481.777 9.737.784 9.255.893 11.379m-14.976-20.59.142.758q-.02 1.039.106 6.731t.307 8.426q.182 2.735.45 4.532.134.097.397.334m-1.73-59.977.092.395q.016.658.309 5.539t.536 9.24q.242 4.36.302 6.732l-.055.606m11.405-22.512.099.415q.067.442.132 2.711.064 2.269.159 4.024t.252 3.852q.156 2.097.236 8.197l-.295 1.85m-12.243-55.001q.092 1.154.186 1.466t.298 3.443.51 8.04q.305 4.91.337 4.967t.254 2.14m11.46-20.26q.161 1.191.327 6.118.165 4.927.246 8.867t.155 6.866m-4.172-22.054q.526-.103 8.614-.714 8.088-.61 11.66-.818 3.571-.208 5.278-.332t3.65-.207 3.249-.156 3.641-.217m-81.056 4.174q.231-.046 1.017.161l.919.016q.214.045 6.139-.202t9.701-.597q3.777-.349 5.313-.522t2.541-.362q1.006-.19 2.13-.415t3.558-.802m-28.932 26.152q1.956-.311 8.483-.678 6.527-.366 10.394-.632t12.572-1.226l1.455-.111m14.174.598q.394-.068.777-.027.382.041 3.881.014t7.718-.159q4.22-.132 5.289-.185 1.07-.052 3.922-.321 2.852-.268 4.79-.538 1.938-.269 5.676-.61l1.58-.223m-82.296 12.967q.966-.149 1.635-.122.669.028 3.873-.022 3.204-.049 6.827-.135t7.151-.238q3.527-.152 5.772-.312 2.246-.159 4.607-.254l1.508-.036"/>
        <path d="M-243.065 1701.038q.248-.048 6.509-.926 6.26-.878 10.446-1.255 4.185-.377 7.139-.572 2.953-.195 6.05-.449t3.889-.298m11.26-24.102.493-.088q1.981.085 9.66.382t13.631.591q5.953.293 7.15.354 1.197.06 2.698.288m-34.234 20.654q3.34-.01 4.848-.028t6.191.043q4.681.063 11.079.382 6.397.319 7.108.353t1.627.108q.915.073 2.583.293 1.667.22 4.842.503m-83.77 14.762q3.008-.558 5.208-.761 2.2-.204 5.687-.494t8.393-.612 10.435-.642l1.522.053m-29.26 27.144q1.456 0 5.682-.091 4.226-.094 8.895-.395 4.67-.301 7.868-.645t10.14-1.275l.92-.177m10.731-22.97 1.814-.164q.931-.176 7.455-.455 6.523-.279 11.13-.388t8.425-.379l2.495.062m-29.661 24.701q.121.012 6.087-.121 5.965-.132 11.253-.215t7.906-.147q2.617-.063 4.371-.174 1.753-.111 5.4-.272m-73.769-109.162.222-.508q.158-1.023 1.408-6.992t2.049-9.387q.799-3.419 1.425-5.814.625-2.395 1.515-5.481.89-3.087 1.999-6.312l.656-1.787m12.188-1.527.3.483q.683 1.766.693 1.841t.937 2.44 2.27 5.721 2.101 5.324 1.543 4.086 1.43 3.947 1.3 3.659 1.062 2.853q.407 1.022.947 2.272t.679 1.669q.14.418 1.463 4.047l.379 1.057m-28.804-27.145q.232.193 13.407 7.679.27.823.494 1.128m-10.731 16.149q.107-.148.516-.464.665-.68 4.609-4.786t7.624-7.272q.222-.079.696-.649m-79.811 62.128.211.437q.288.762.525 1.668.237.907.527 2.24.291 1.332.898 4.418t1.095 8.014q.488 4.927.665 10.8.176 5.873.311 10.607t.237 7.904.158 4.622.137 2.503.095 1.749q.013.699.066 4.421t-.152 5.57l-.473 4.225"/>
        <path d="M-290.173 1704.386q-.599.137-1.035.272t-1.35.331-1.849.336q-.934.142-2.075.269-1.141.126-3.529.169-2.389.042-3.677-.084t-2.55-.485-2.439-.998-1.636-1.05q-.043-.248-.077-.488-.035-.24-.024-.388t-.135-.312q-.145-.164.015-1.156-.013-.398-3.557-3.892t-4.43-4.604-1.319-1.828-.869-1.425q-.436-.708-.617-1.137-.181-.428-.226-1.603-.044-1.174.145-1.699t.274-.684.524-.706q.44-.546.892-1.092.452-.545.737-.95.286-.405.583-1.082.032-.319-.145-1.027-.177-.707-.544-2.03t-.72-2.413q-.352-1.091-.901-3.296t-.835-6.503q.317-.421.438-.57t1.597-1.184 3.504-2.885l.078-.697q.046-.177-1.19-4.413-1.237-4.236-2.015-6.661-.779-2.425-.77-3.689l.695-.384q.017-.084 1.581-.123t3.486.097 2.571.161 1.038-.047q.387-.073.77-.215.382-.141.576-.278.193-.136.363-.408t.245-.313q.076-.042.238-.652.162-.611.128-1.14t-.078-1.075q-.045-.546-.094-.704t-.524-2.911-.453-4.313.005-1.646q-.016-.085.005-.175t1.133-.061l2.089.052q.977.024 1.331-.051.354-.076.725-.248t.608-.453.519-.862.482-1.552.211-2.388-.247-5.406-.243-5.06-.003-1.681q-.018-.229.864.062.882.29 1.982.759 1.099.469 1.395.524.295.056.64.08t.575 0q.231-.02.948-.291t1.464-4.027 1.763-12.135q-.002.011.22.051.221.041.464.203.243.161.942 1.214t1.126 1.786 1.807 3.063 2.31 3.596q.929 1.268 2.312 1.652.21.094.912-1.332.701-1.425 1.258-2.875.556-1.45.944-2.114.389-.663 1.168-1.059.667.47.979.849.311.378 1.277 2.205.967 1.828 1.409 2.597.441.769.844 1.249.403.479.995.541.209.074 1.101-2.25t1.434-3.7.792-1.78q.251-.403.378-.56t.417-.288q.291-.131.436-.131t.347.183q.2.183.516.735t.788 2.179.756 2.894 1.197 3.106l.159.031.196-.101q.387-.397.873-1.582t1.944-3.049q.494.516 1.144 1.723t1.609 3.155q.618.262 1.276 1.057m42.062-39.246-.165-.028-.223-.11q-.304-.157-1.411-.294t-1.81-.06q-.702.077-1.262.271-.561.195-1.103.665t-.825.86q-.283.388-.582 1.149t-.343.898-.058 1.14q-.013 1.003.097 1.456.11.452.259.794t.475.794.538.65q.212.197 1.12.684.908.486 1.416.598.509.112 1.444.051.936-.061 1.309-.18.374-.119.872-.454.498-.334 1.053-.994.556-.66.743-1.13.188-.469.294-.918.106-.448.17-1.565.065-1.118-.103-2.216-.1-.51-.448-1.794"/>
        <path d="m-219.404 1571.972-.014-1.505q.024-.144-.137-3.106-.16-2.963-.193-4.52-.033-1.558-.002-3.656.03-2.099.092-3.449.061-1.35.061-2.019 0-.67.041-2.863.042-2.194.003-4.107t-.172-3.837q-.134-1.923-.353-4.027m-22.539-1.995q.399.068 8.768.732t13.446.906q5.078.243 7.515.293t3.917-.001 2.39-.049q.909 0 2.303-.071 1.394-.073 3.77-.156m-42.936 10.951q-.078-.945-.086-2.466-.009-1.522-.16-5.404-.151-3.883-.48-6.701t-.674-4.282-.681-3.122"/>
        <path d="m-232.206 1545.345-.194-1.391q-.113-.356-.166-1.503-.054-1.148-.123-2.149-.07-1.002-.241-1.991t-.55-3.266-.705-6.063l-.188-1.058m24.611 16.468-.169-.329-.088-.322q-.029-.634-2.379-10.838-.088-.146-.427-1.444m15.693 15.873.076-.709-.045-.497q.014-.298-.809-4.241t-2.531-14.943q-.109-.219-.362-2.046"/>
        <circle cx="-251.611" cy="1753.098" r="2.5" fill="#fff" stroke-width=".1"/>
        <circle cx="-184.902" cy="1684.979" r="2.5" fill="#fff" stroke-width=".1"/>
        <circle cx="-177.086" cy="1684.648" r="2.5" fill="#fff" stroke-width=".1"/>
        <path d="m-256.733 1612.719.195.112q.248.228.374.337.479.113 2.377.602t2.688.795 1.208.586q.417.28.534.54t.14.444q.024.184-.136.901-.161.717-.402 1.729t-.194 1.889l1.004 1.195q.037.026.566.521.53.495.819.988t.948 2.338q.066.099.482.907m-10.357 1.14-.085.293q-.078.733-.16 4.007-.083 3.274.17 6.273.252 2.999.399 4.364l.374 3.492q.228 2.128.394 6.904.167 4.776.156 7.374-.011 2.599-.025 3.768t-.034 1.997-.023 3.397.087 6.341.104 5.79q.013 2.016.019 3.212.007 1.195-.138 7.175t-.184 9.288-.027 5.205q.011 1.896.025 2.757.014.86.021 2.639t.231 9.453.395 12.192q.172 4.518.307 7.629l-.051.572m-12.883-72.549.045.51.009 1.331q-.013.911-.026 7.672t.059 10.739q.071 3.979.131 5.673t.099 2.359.131 2.501.142 4.285q.052 2.449.181 7.836.13 5.386.288 7.436t.439 4.576q.28 2.528.491 3.726.211 1.199.411 2.409.201 1.211.316 1.962.116.751.201 1.131t.197.776q.113.395.193.743.081.348.483 2.495l.199 1.385"/>
        <path d="M-266.186 1700.534q.477.151.951.275.475.124.6.132l.615.047q.49.04.83.093t1.576-.02q1.238-.073 1.706-.137.469-.064.692-.152.223-.087.79-.473t.942-.65q.375-.263.503-.384.129-.121.94-.839m-194.078 86.934q.097-1.579.059-3.101t-.39-5.382-.779-10.591-.625-10.961-.213-5.84.049-5.796.114-8.029q.049-3.843.073-6.429t.078-5.792q.054-3.207.136-6.425.081-3.219.108-4.724t.042-4.002q.015-2.495.104-6.499.089-4.005.168-6.001t.385-4.67.687-5.342.445-3.48q.064-.814.571-3.264t.985-4.371q.477-1.921.796-3.288t1.294-4.139 1.42-3.769 1.147-2.421 1.642-3.012 2.036-3.129q1.094-1.541 1.706-2.273l1.178-1.409q.566-.677 1.646-1.819 1.079-1.143 2.785-2.658t2.789-2.307 1.589-1.122q.508-.329 1.27-.762.762-.434 1.758-.957.995-.523 2.709-1.271 1.714-.749 3.808-1.321t4.271-.997q2.177-.424 4.486-.75 2.31-.325 4.121-.323 1.811 0 3.315.11 1.503.109 3.189.461 1.685.352 2.188.473.503.12 1.672.531 1.169.41 3.124 1.139 1.955.728 3.643 1.407 1.689.678 2.634 1.135t1.754.958l1.554.966q.744.464 1.28.835.537.372 1.741 1.309t3.996 3.461 4.543 4.613q1.753 2.088 2.497 3.105.743 1.017 1.583 2.387.839 1.37 1.957 3.864 1.118 2.495 2.338 8.023t1.586 8.344.467 4.109.502 6.842.55 7.95.268 9.133q.12 6.733.191 11.06t.166 7q.093 2.672.253 6.063.16 3.392.231 6.507.072 3.116.252 8.061.18 4.944.395 7.97t.355 4.711.314 4.82.405 6.7.312 5.009q.082 1.442.165 2.962.082 1.521.129 3.454"/>
    </g>
</svg>
