<svg xmlns="http://www.w3.org/2000/svg" xml:space="preserve" viewBox="0 0 960 480">
    <g fill="none" stroke="#fff" stroke-linecap="round" stroke-linejoin="round" stroke-width="6.667">
        <path d="m89.072 154.661.223.778q.237 4.164.733 12.149.496 7.987 1.728 18.015 1.233 10.029 1.784 15.469t1.53 17.313q.98 11.875 2.022 22.268 1.044 10.395 1.51 26.236.467 15.843.533 24.644.065 8.802-.016 22.722l-.428 1.584m-9.086-161.703q1.151.256 2.175.343 1.025.088 6.23.385 5.203.296 11.48.192 6.278-.105 9.402-.132t4.899.052 7.049.748q5.272.67 10.277 1.167 5.006.497 8.374.71 3.368.214 12.348.612t24.693-.082 24.223-.948q8.508-.47 13.881-.808 5.375-.339 7.98-.51t5.835-.265 17.636-.853l2.057-.424m.801.78.22.808q.039 1.02.522 9.46.481 8.438.814 14.778.334 6.339.727 14.067.395 7.728.621 12.372.227 4.643.302 7.315.076 2.673.152 12.068.074 9.396.192 18.374.116 8.98.472 15.431t.593 12.115q.236 5.664.43 18.656.195 12.992.185 30.777l-.371 2.285m-168.271-6.532q.552.04 3.382.486 1.921.232 2.286.294.366.063 2.412.148 2.048.086 3.795.019t2.357-.081.96-.042q.352-.026 7.043-.16 6.692-.133 11.723-.172 5.029-.038 10.609-.158 5.579-.119 13.763-.306 8.184-.185 16.038-.47 7.854-.286 13.383-.379 5.53-.092 17.301.452 11.774.544 18.396 1.144 6.624.6 10.624.833t7.599.376q3.6.144 5.932.267t5.037.313q2.704.191 8.51.251l3.234-.083m62.302-147.605.146 1.084q.072 1.421.242 7.74.169 6.317.878 16.915.71 10.596 1.152 15.882.443 5.286.774 26.067.33 20.78.757 26.676t1.08 13.392q.653 7.499.972 13.481t1.11 14.144q.031.062-.385-.889-.417-.95-.993-2.619m-2.745-133.467 2.057.57q2.09-.024 7.104-.412 5.016-.388 8.37-.613 3.357-.226 7.593-.395l7.914-.317q3.679-.147 5.662-.32 1.982-.174 5.576-.34t5.634-.058q2.04.11 4.195.467 2.155.356 4.268.807m-55.19 72.638 1.323-.489q1.223-.33 2.472-.592 1.251-.261 5.179-.99 3.93-.731 5.461-.931t4.614-.332 6.478-.255 6.076-.307q2.682-.185 5.078-.337t3.94-.205q1.544-.052 2.144-.05.598.003 1.664.171 1.064.17 1.296.23.23.06 1.162.195t3.496.343l2.499.376m26.576 4.056q.181-.19.016-.381t.344-.276q.51-.084.976-.395m.511 18.697q-.038.575 1.733 13.028 1.77 12.454 2.956 20.042 1.187 7.586 1.505 10.097m14.818-55.077q.209.613 2.361 4.71 2.152 4.098 6.33 11.043 4.18 6.945 6.473 10.483 2.293 3.537 3.312 5.036 1.018 1.5 3.632 5.52t3.728 5.77 2.284 2.766l.244-.034q.113-.061.52-.008"/>
        <path d="m452.69 246.25-.026 1.109q-.21 1.826-2.787 12.832-2.577 11.004-4.814 19.878t-3.548 13.928-1.734 6.495-1.246 3.908q-.824 2.465-1.9 6.108m93.766-52.956-.098-.168q.065-.195.2-.455-.415-2.07-1.351-3.534t-2.436-2.706-2.664-1.74q-1.164-.501-3.056-.602-1.892-.102-3.448.626t-3.49 2.668q-1.937 1.94-3.134 4.058-1.197 2.116-1.883 4.269t-.974 4.541 1.03 7.772q1.322 5.386 2.663 7.644t2.156 3.102q.815.841 1.763 1.368.948.526 3.152.266t4.084-1.458 3.338-2.896q1.46-1.698 2.688-4.206t2.06-7.274.703-7.418l-.236.095q-.217.001-.496 2.335-.279 2.332.347 7.698.625 5.367 1.372 9.191.745 3.824 2.73 10.143.168.144.372 1.024m5.102-69.654.246.67q.324 2.145 2.04 15.588 1.716 13.441 3.322 23.076 1.605 9.636 2.454 13.748.85 4.113 1.323 6.357.472 2.245.964 4.852l.072 2.003m6.9-70.162q.067.603 1.155 12.344 1.086 11.742 1.497 18.516.412 6.775 1.187 16.354.774 9.578 2.454 22.713-.317.264-.464.676m45.28-40.688-.634 1.07q-.526.862.368 16.651t2.085 26.26q1.192 10.474 1.513 15.246.322 4.772.402 7.509t-.844 10.247q-.614.408-.63.461l-1.19.132"/>
        <path d="m607.552 255.872.972-1.101q.307-.398.61-.486.3-.088 1.818-.985 1.516-.897 2.39-1.252.877-.355 3.171-.555 2.295-.2 3.828.12 1.534.32 3.307 1.402t3.665 3.857 2.688 7.24.191 8.063q-.605 3.596-2.001 5.582-1.396 1.988-2.614 3.004-1.216 1.016-9.37 4.45l-2.12.508m24.56-35.226.082.807.15.975q-.084.7 1.876 7.373 1.96 6.672 3.364 11.25-.144.225-.063-2.838.083-3.063.613-6.493.531-3.431 1.274-5.6.742-2.17 2.873-5.219 2.13-3.048 4.079-4.433t3.505-1.912 2.939-.615q1.381-.087 2.054.405.674.492 1.52 1.006m26.042 23.484.281-2.39q.075-.268.061-3.456-.013-3.189-.385-5.234-.37-2.046-1.339-4.076-.968-2.032-2.476-3.564-1.508-1.534-3.074-1.898t-3.314.41-3.122 2.41q-1.378 1.638-2.155 4.635-.779 2.999-.65 5.112.126 2.113.96 4.5.833 2.387 2.665 4.579 1.83 2.192 3.344 2.762 1.512.57 2.136.52.624-.048 1.073-.169.45-.121.916-.379.465-.258.645-.344t1.204-1.109 1.742-2.388q.716-1.367 1.182-3.143.468-1.776.291-3.289-.177-1.515-.495-4.79m12.34-42.894-.388 1.004q-.498 1.07-.477 15.772t6.237 42.067q.206.093-.209-.67-.413-.762-.912-1.773"/>
        <path d="m702.121 258.35 1.378-1.233q1.644-1.284 4.976-2.753 3.333-1.468 6.052-1.6 2.717-.132 3.842.092 1.124.223 3.608 2.027 2.486 1.804 3.81 4.326 1.324 2.524 1.545 4.162.223 1.637-.283 3.886t-2.392 4.232-3.266 2.804-4.16 1.61q-2.78.786-5.231.837-2.45.052-2.92-.09t-1.005-.422-2.699-.928m31.968-65.41q-.007 1.251.843 14.131.848 12.879 1.604 20.058.754 7.177 1.429 12.318.676 5.142 2.193 16.638.036.006.034-1.228-.003-1.235-.102-2.344m16.785-1.764q.153-.111 2.151-1.863t3.122-2.97q1.124-1.22 2.669-3.374t2.236-4.26.679-4.02-.78-3.141q-.77-1.228-2.482-1.559t-3.892 1.659-3.592 5.052-1.696 5.969q-.282 2.907.018 4.91t1.17 3.983 2.292 3.603 2.584 2.336 2.824 1.115q1.664.4 5.842-.748 4.177-1.15 11.488-6.591m2.55-23.67-.177.698q-.221 1.747-.143 2.079-.15 2.241 1.507 10.544 1.659 8.301 3.319 10.968 1.66 2.665 1.961.24.301-2.427 1.296-8.98.995-6.555 1.615-7.518.62-.962.728-1.065t1.172-.52 2.548.043 2.906 1.982 2.97 4.784 3.122 13.454q-.033-.036.283-4.108.317-4.071 1.164-7.683t1.3-4.616q.455-1.004 1.124-1.936.67-.93.967-1.21.297-.278 1.478-.889 1.182-.612 2.779-.746 1.597-.136 2.536.158t1.55.798q.614.502.729.546.113.046 1.845 4.068 1.73 4.023 1.55 15.211l-1.018 2.39m32.332-29.132-.655-.842q-.32-.292-.952-.64-.632-.35-1.737-.644-1.104-.296-2.996-.379-1.893-.082-4.02.442-2.128.522-3.883 1.802-1.754 1.279-2.437 2.535-.681 1.256-.673 3.181.006 1.926 2.632 3.438 2.624 1.51 5.826 2.061t4.956.687q1.756.134 4.16.425 2.404.29 6.063 1.455 3.659 1.164 5.888 9.362-1.059 1.054-5.823 3.556-4.764 2.503-7.968 3.063-3.202.561-4.448.479-1.245-.083-1.61-.098-.366-.016-1.206-.345-.838-.33-1.358-.823t-2.22-1.873m-732.434-4.453q1.81 2.76 3.662 5.252 1.85 2.49 6.152 8.356m8.818 11.029q.703 1.261.966 1.627.264.365 1.009 1.233t1.19 1.372 1.55 1.881q1.107 1.378 4.468 6.154m15.716 4.684q.885-1.374 3.355-4.128 2.468-2.754 5.221-5.935m11.927-12.183.812-.512q.798-.297 10.557-9.99m12.899-11.742q.638-.518 6.045-5.838 5.407-5.322 6.756-6.616m10.057-12.793q1.352-.726 1.92-1.137.568-.41 4.131-4.17 3.563-3.762 4.905-5.112m10.056-9.35q.396-1.7 4.082-7.686M107.35 251.876l.822-1 .51-.56q1.722-1.437 1.966-1.65.244-.214 1.648-1.574 1.404-1.359 6.253-6.347m10.786-1.408q1.094 1.584 3.396 4.207t3.649 4.277m8.137 9.96 1.343 1.356q.057-.009 4.828 4.922m9.352-8.484.292-.468q1.97-2.264 6.565-7.118 4.596-4.853 6.844-7.142m9.887-9.62q.5-.48 10.421-11.047m11.466-12.879 1.146-.589q.251-.13.658-.445.405-.316 3.373-3.13t4.977-4.658m7.506-8.298q1.346-1.374 10.518-10.418m10.155 2.121q1.24 1.825 4.943 5.801 3.701 3.976 5.381 5.839"/>
    </g>
</svg>
