<svg xmlns="http://www.w3.org/2000/svg" xml:space="preserve" viewBox="0 0 960 480">
    <g fill="none" stroke="#fff" stroke-linecap="round" stroke-linejoin="round" stroke-width="6.667">
        <path d="M337.034 240.796q.005.059.398 9.035.394 8.976.412 14.284.018 5.31-.02 7.707-.037 2.398-.44 8.298-.402 5.9-.765 16.103t-.336 15.685q.027 5.484.052 8.548.027 3.064.143 13.17.117 10.104.492 14.585.374 4.48 1.514 8.701 1.142 4.22 1.674 5.179.532.957.974 1.62.443.663 2.875 3.037 2.433 2.375 4.519 3.752 2.086 1.378 4.846 2.62t6.019 1.858 7.048.79 8.079.568q4.289.392 6.49.582t3.406.253 5.598-.135q4.395-.2 8.175-.524 3.781-.325 6.476-.537 2.693-.213 4.164-.323t5.513-.556q4.043-.448 9.286-1.436 5.24-.99 10.46-1.841 5.217-.85 14.076-1.241 8.857-.39 13.609-.403 4.75-.013 11.173.193t9.128.239q2.706.032 5.987.055 3.28.02 8.797-.015t8.523-.063q3.007-.028 4.437.014 1.43.037 2.747.096 1.317.058 13.317.12 12 .064 18.676-.08t10.927-.488 8.98-.951 7.215-1.359q2.484-.75 3.602-1.385 1.118-.633 1.516-.875.398-.241 1.19-1.292.793-1.05 1.237-2.024.444-.973.756-1.868t1.161-4.082 2.183-8.516q1.333-5.33 2.237-9.822t1.622-9.892q.717-5.398 1.18-9.96.465-4.561.59-8.43.126-3.867-.121-7.452-.245-3.584-.808-8.192-.563-4.61-1.216-9.662-.655-5.05-.895-8.706t-.304-8.534.016-9.268.124-6.122q.046-1.731-.084-8.743.056-.556-1.86-9.664l-.594-1.507m-245.766 7.099.51-.508.757-.999q.445-.785 5.759-7 5.313-6.213 9.168-10.5 3.853-4.286 7.452-7.985t6.94-7.003l6.868-6.781q3.525-3.479 7.77-7.628 4.246-4.15 8.15-8.104 3.905-3.955 5.8-6.03 1.894-2.075 4.633-5.117 2.737-3.04 3.493-3.86l4.19-4.54q3.436-3.72 7.526-7.746 4.092-4.027 5.939-5.594 1.845-1.566 2.705-2.198.859-.634.99-.702.129-.068 3.994-2.525 3.864-2.457 6.218-3.58 2.352-1.123 5.252-2.073t4.012-1.214 2.196-.47q1.085-.204 4.89-.455 3.806-.252 6.904.147 3.098.4 6.679 1.528 3.583 1.128 5.435 1.988t2.713 1.354 2.275 1.434 1.446.974q.035.034 2.504 1.664 2.47 1.632 4.158 2.902 1.686 1.269 2.584 1.984.897.714 1.625 1.274.727.559 1 .778.275.217 3.185 2.18 2.91 1.96 5.123 3.54 2.213 1.578 4.624 3.593 2.412 2.015 3.432 2.983 1.021.966 2.175 1.964 1.154.997 1.648 1.42.494.424 2.15 1.936 1.656 1.51 3.286 3.045 1.63 1.536 2.557 2.399.925.864 4.004 3.84 3.077 2.98 3.947 3.774.868.796 1.077 1.014t2.033 1.832q1.827 1.613 3.284 2.788 1.458 1.173 2.703 2.156 1.244.982 5.467 4.348 4.222 3.364 4.662 3.705.44.34 2.659 2.2 2.217 1.86 3.483 2.875t3.326 2.802 2.839 2.52q.776.732 1.803 1.61 1.026.877 1.272 1.032.244.156 2.946 2.488t4.362 3.793q1.66 1.463 3.28 2.77 1.618 1.309 2.28 1.88.664.571 1.729 1.526t1.6 1.38.924.699q.39.273 1.087.929.698.656 3.054 2.625"/>
        <path d="m338.978 355.602.51-.508.756-1q.446-.784 5.759-7 5.315-6.212 9.168-10.5 3.853-4.286 7.452-7.984 3.599-3.7 6.941-7.003 3.343-3.303 6.867-6.781 3.525-3.48 7.77-7.628 4.247-4.151 8.151-8.104 3.904-3.955 5.799-6.031t4.633-5.116 3.494-3.86l4.19-4.54q3.435-3.72 7.527-7.747 4.09-4.026 5.937-5.593t2.706-2.2q.86-.632.989-.7.13-.068 3.995-2.525 3.865-2.458 6.217-3.58 2.352-1.123 5.252-2.074t4.012-1.213 2.197-.47q1.084-.205 4.89-.457 3.806-.25 6.904.148 3.097.4 6.68 1.528 3.58 1.128 5.433 1.988t2.713 1.354q.863.494 2.275 1.436 1.413.94 1.448.973.033.032 2.503 1.664t4.157 2.901 2.584 1.984q.899.715 1.625 1.275.727.559 1.002.777.273.218 3.184 2.18 2.91 1.96 5.124 3.54 2.212 1.579 4.624 3.594 2.41 2.014 3.43 2.982 1.022.967 2.175 1.964 1.155.998 1.65 1.42.493.424 2.149 1.936 1.656 1.51 3.286 3.046 1.63 1.534 2.556 2.398t4.004 3.842 3.947 3.773 1.077 1.013q.208.219 2.035 1.832 1.825 1.614 3.283 2.788t2.702 2.156 5.467 4.348q4.223 3.364 4.663 3.706.44.34 2.658 2.2t3.483 2.874q1.267 1.015 3.328 2.803t2.837 2.52q.778.732 1.804 1.61 1.027.877 1.27 1.031.246.156 2.948 2.488 2.7 2.332 4.362 3.794 1.66 1.462 3.279 2.77t2.281 1.879q.663.572 1.728 1.527 1.066.954 1.6 1.378.536.426.924.7.39.274 1.087.93.699.656 3.055 2.625m-244.7-107.333q.352.382 1.182 1.032.832.649 2.444 1.774t3.015 1.927q1.403.803 2.299 1.245.894.443 3.006 1.468 2.114 1.026 4.604 2.183l3.408 1.581q.915.423.955.426.04 0 3.035 1.445 2.994 1.443 5.808 2.952 2.813 1.51 4.682 2.537 1.87 1.03 2.899 1.584 1.028.556 6.172 3.507t8.01 4.685q2.869 1.735 4.111 2.426 1.243.689 2.762 1.534 1.52.847 5.584 3.219l1.429.687m177.249-43.59q-2.49 1.688-4.733 3.288-2.241 1.6-5.835 4.378t-6.012 4.722q-2.42 1.946-4.358 3.524-1.94 1.579-4.982 3.91-3.042 2.333-5.816 4.21-2.772 1.878-4.981 3.35-2.21 1.474-3.255 2.205-1.045.73-2.89 1.985-1.844 1.256-3.77 2.58t-3.48 2.348q-1.553 1.024-3.893 2.5-2.341 1.475-2.708 1.672-.367.198-1.56.95-1.192.753-2.325 1.546-1.132.794-2.951 2.036t-3.979 2.647l-2.068 1.164m55.438-153.319q-.363-.056-2.39-.042-2.025.013-3.778.146-1.754.134-4.223.694-2.47.56-3.557 1.08-1.086.522-1.4.72-.312.198-1.178.737t-3.32 2.701q-2.456 2.164-3.508 3.526t-1.772 2.605-1.464 3.073-1.197 3.606-.561 2.536l-.17 1.18q-.061.425.012 3.237.074 2.812.79 5.961t1.558 5.187q.842 2.036 1.862 3.848t2.129 3.283q1.108 1.47 2.19 2.566 1.08 1.095 1.26 1.252t2.687 1.764 4.619 2.456q2.11.85 3.193 1.138 1.082.288 2.462.52t4.278.432 4.535.085 3.015-.424q1.377-.31 3.318-1.048 1.942-.739 2.704-1.075.762-.334 1.523-.653.763-.319 1.373-.62.612-.301 2.016-1.123 1.406-.82 2.764-1.804 1.359-.982 2.547-2.01 1.187-1.026 2.599-2.511t1.692-1.817 1.402-1.955 1.874-3.332q.75-1.71 1.429-3.943t.812-3.666.119-2.922-.108-2.454q-.095-.967-.306-2.508-.21-1.542-.333-2.212-.121-.67-1.45-4.446-1.326-3.776-1.71-4.378t-1.29-1.738q-.907-1.133-1.48-1.762-.575-.628-2.954-2.391-2.38-1.761-3.51-2.319-1.129-.556-2.394-1.077-1.267-.52-3.167-.959-1.901-.437-3.581-.656-1.681-.218-3.496-.346-1.816-.128-6.464-.171m-31.687-1.353-.378-.09q-1.058-.121-8.004-3.021m32.822-6.025-.256-2.088-.134-.804q-.262-2.062-.518-4.651-.254-2.59-.508-4.779m31.688 13.064q.955-.814 2.978-2.946 2.02-2.132 6.504-6.67m13.672 32.634q3.642-.715 5.918-1.366 2.275-.65 3.566-.937m-9.204 33.168q.62.245.909.561.288.318.592.559.304.24.736.492.433.25 1.701.819 1.268.568 2.787 1.165 1.52.599 3.224 1.348M591.752 190.6q.314.51.77 2.226.457 1.716 1.394 3.734.938 2.02 1.767 3.928"/>
        <path d="M577.636 151.034q-.081-.482-.608-2.366-.528-1.885-1.165-3.078-.637-1.194-1.001-1.586-.363-.39-1.423-.973t-2.073-.797-2.092 0q-1.08.212-1.49.408t-1.08.557-1.79 1.436q-1.118 1.076-1.624 1.955-.507.877-.86 2.34-.351 1.462-.372 1.685-.02.221.056 1.273t.145 1.316.745 1.47q.675 1.208 1.098 1.604.422.396.94.649t1.229.43q.71.175 1.36.222.648.045 1.952-.15.365-.12.963-.3.597-.182 1.493-.625.897-.442 1.336-.74t1.377-1.07l.372-.27.712-.461.323-.068.364.913.145 1.396q-1.513 7.468-1.694 7.77-.183.305-.366.646-.182.343-.766 1.06t-2.05 1.75-2.42 1.388q-.954.354-2.225.425-1.272.07-2.376-.059-1.104-.13-2.388-.47-1.283-.342-2.05-.728-.946-.696-2.685-1.646"/>
    </g>
</svg>
