<svg xmlns="http://www.w3.org/2000/svg" xml:space="preserve" viewBox="0 0 960 480">
    <g fill="none" stroke="#fff" stroke-linecap="round" stroke-linejoin="round" stroke-width="5" transform="translate(990.36 -1640.042)scale(1.5398)">
        <path d="M-454.361 1111.112q-.169.348-.751 1.721t-1.072 2.965q-.49 1.593-.659 3.438-.168 1.845-.174 2.592t.516 2.85q.523 2.102 1.852 6.369t2.184 7.21q.854 2.943 1.298 6.027.443 3.084.473 4.774t-.119 4.336-.682 5.439-1.227 5.609-.953 4.733-.226 3.434.234 2.554.405 1.79q.202.753.82 2.794t1.708 5.262q1.091 3.222 2.697 8.937 1.605 5.715 2.225 9.225.62 3.511.738 6.277t-.027 4.322q-.145 1.557-.275 2.321t-.813 4.954-1.549 9.437q-.866 5.248-1.127 7.377t-.451 6.438q-.19 4.308-.053 7.72t.338 5.181.402 3.393.309 2.695q.109 1.073.222 2.753.112 1.681.143 3.765t-.011 2.962-.051 2.008-.303 4.845q-.292 3.714-1.53 10.819-1.239 7.106-1.809 11.081-.571 3.974-.687 5.419t-.191 5.052q-.076 3.608-.021 6.129.054 2.522.404 5.336.349 2.814.826 5.693.476 2.878.75 4.283.275 1.405.441 2.101.167.696.648 1.914.482 1.217 1.041 2.041t.95 1.199.665.485.59.159 1.258-.154q.941-.205 2.806-1.052t3.793-1.727q1.927-.879 4.808-1.749t5.159-1.071 4.077-.072 4.223.78 4.03 1.112 4.301.995q2.694.534 2.84.548l3.538.343q3.391.329 5.878.163t4.132-.543 2.989-.784q1.342-.406 5.193-1.905t6.859-2.581 5.588-1.61 6.126-.469 7.549.753q4.002.694 10.061 1.839t9.061 1.616 6.132.856 3.999.466 3.716.09 5.164-.342q2.317-.349 4.295-.86t3.786-1.047 3.042-.851q1.235-.315 1.384-.375.149-.059 3.255-.535t8.112-.199 8.984.873 5.756 1.011 5.349 1.451q3.572 1.038 10.982 2.323 7.411 1.286 10.052 1.638t5.037.395 5.043-.343 4.655-.854q2.007-.466 3.805-1.059t3.728-1.046q1.929-.453 3.264-.633t2.204-.303l1.836-.259q.966-.136 2.42-.285t6.09-.569 5.879-.667 2.535-.615q1.294-.367 2.664-.93t2.444-1.328q.315-.408.451-2.948t-.32-4.011q-.456-1.472-.911-2.38-.456-.909-.983-1.734t-1-1.637-1.827-3.427-1.856-4.041q-.503-1.427-.667-2.246-.163-.819-.169-1.329-.007-.511-.046-1.345t.892-3.793 1.794-4.616q.864-1.656 1.464-3 .601-1.344 1.047-2.953.447-1.609.613-3.09.166-1.482.156-2.61t-.772-4.6q-.76-3.473-1.708-5.645t-1.71-3.485q-.762-1.314-.997-1.676-.235-.363-.987-1.448-.753-1.085-1.4-1.99l-1.126-1.575q-.48-.67-1.503-2.545-1.024-1.875-1.558-3.389t-.652-2.731q-.117-1.218-.075-1.85t.381-1.993q.338-1.36 2.537-6.833t2.624-7.233.499-3.437-.094-5.556q-.169-3.877-.69-6.563t-1.388-5.983q-.868-3.298-1.627-6.478-.76-3.179-1.492-6.552-.731-3.373-1.132-6.467t.559-8.073q.959-4.98 1.745-7.238.785-2.258 1.463-4.046t1.709-5.182 1.725-8.213.726-8.778q.033-3.957-.072-6.283-.106-2.325-.523-7.054-.416-4.729-.55-7.207-.133-2.477-.002-4.735t.266-3.57q.136-1.312.371-2.111t.363-1.175q.129-.376.323-.897.195-.521.655-1.862.114-1.09-.257-4.449-.372-3.359-1.072-4.952t-1.428-2.553-1.866-1.792q-1.137-.833-2.94-1.397t-2.837-.633q-1.036-.07-1.848-.018t-1.445.246q-.631.194-1.202.44t-1.901.935q-1.329.689-1.674.834-.344.146-.592.219-.248.072-.854.132-.606.059-1.639.029t-3.147-.522q-2.115-.494-3.409-.975-1.295-.481-3.883-1.533-2.587-1.051-4.6-1.596-2.013-.544-3.285-.671-1.271-.128-2.274-.096t-1.698.13-1.674.369-2.323.814-3.322 1.389-2.958 1.197q-.979.353-2.951.87t-5.717.91q-3.745.392-6.533.256t-4.703-.45-7.875-2.588q-5.961-2.275-8.796-3.505-2.836-1.229-5.455-1.945t-6.648-.675-5.397.473q-1.369.432-2.165.813t-1.987 1.07q-1.19.689-2.459 1.482t-3.834 1.829-4.177 1.487-3.189.497q-1.576.048-2.48-.046t-3.854-.781q-2.951-.686-5.889-1.522t-6.302-1.549q-3.362-.713-7.916-.96-4.554-.246-7.514.046-2.961.291-4.614.664t-3.493 1.073q-1.839.699-3.503 1.409t-4.312 1.719-5.088 1.167-3.538.074-4.045-.677q-2.947-.595-5.328-1.36t-5.51-1.658-4.837-1.227-2.712-.537-2.678-.57-2.768-.497-1.664-.176q-.571-.045-.696-.044-.125 0-1.791-.12-1.665-.121-3.134-.208-1.468-.086-4.116.01-2.648.091-3.515.201-.868.111-3.025.495-2.157.385-3.954.987-1.796.602-2.412.887-.616.284-1.967 1.387-1.352 1.103-2.198 2.029-.846.927-2.259 2.144"/>
        <path d="m-402.309 1297.457.045-.552q-.112-1.599-.984-7.646t-1.258-10.159l-.645-6.866m2.186-18.592q.397-5.091.658-7.304.26-2.213.476-3.504.217-1.29 1.27-6.085 1.053-4.796 1.367-6.09m7.015-17.995q.1-.195.545-.866.445-.672 1.559-2.239t1.945-2.646 1.806-2.257q.976-1.177 5.462-6.366.112-.118 1.072-1.52m14.684-7.814.489-.033 1.664.246q4.866.628 6.387.932 1.52.303 1.893.44.373.136 1.426.514t1.537.518q.486.141 4.75 2.817m9.347 10.855q1 .985 1.36 1.373t.64.736q.281.349.588.835.307.487 1.02 1.723t4.991 10.299m6.304 14.685q.045.015-.058.098.01.095-.076.266.01.242.692 1.882t1.868 3.84 2.274 3.824q1.087 1.624 1.768 2.586.682.963 2.204 3.463m8.727 6.757q1.987.762 5.684 1.619t5.557 1.207q1.858.35 3.112.549 1.253.199 4.066.532m11.26-6.554q3.995-3.167 5.915-4.888t3.428-3.218q1.509-1.497 3.51-3.781l1.048-1.22m6.431-14.241.126-.424q.125-.616.322-16.821.047-.087-.205-.179-.251-.092-.443-.379m-1.804-14.762q-.427-1.077-1.566-4.99t-4.747-10.872q-.085-.06-.756-1.025m-6.759-9.596q-.202-.291-4.023-4.725-3.821-4.435-7.436-7.676l-1.859-1.635m-15.772-10.25q-.006.753-.411 2.218-.404 1.466-1.444 4.785t-2.66 6.162-2.178 3.32q-.559.478-.937.706t-.919.305-.972.032q-.432-.046-1.759-.429-1.328-.382-2.116-1.222-.788-.841-1.234-1.754-.446-.912-.483-.958-.037-.047-.187-2.226-.151-2.18.12-3.546t.961-2.512 1.131-1.581.756-.696 1.401-.907q1.084-.648 4.884-1.917t4.381-1.437 2.197-.737q1.616-.568 2.621-.86t1.119-.312 1.056-.368q.943-.349 2.541-1.064t3.703-2.01 2.685-1.738 1.202-.928 1.519-1.449 1.319-1.621.72-1.502.341-1.284q.041-.438-.112-1.073-.154-.634-.445-1.091-.29-.457-.473-.627-.184-.17-.216-.231-.032-.06-.769-.433-.736-.373-2.08-.446-1.344-.072-1.817-.01-.473.066-2.284 1.017t-2.749 1.873-1.404 1.517q-.464.596-.578.73-.113.135-.857 1.424-.743 1.289-1.068 1.962t-1.107 2.387-1.44 3.267-1.698 4.242l-1.061 3.004"/>
        <circle cx="-400.71" cy="1309.109" r="2.5" fill="#fff" stroke-width=".1"/>
        <path d="M-392.811 1153.724q.283 1.231.771 2.585t.657 1.703q.169.351 1.894 4.543t2.973 6.713 1.728 3.244q.479.723.801 1.091.294.448 1.271 1.718 1.091 1.247 1.677 2.143t.862 1.355q.275.46.418.746.142.287 1.138 2.225t2.303 3.98l.724 1.385m-8.873-13.375q.136.295.548 1.902t1.229 4.074 2.367 7.216l.24.374.59 1.858m-13.045-35.938.063.374.52 1.445q.119.512 1.637 3.075 1.517 2.562 2.48 3.888.962 1.326 1.43 1.956.469.63.96 1.328t1.099 1.63q.609.931.817 1.201t1.652 2.118"/>
        <path d="m-391.955 1153.393.507 2.694q.187 1.282 3.753 11.486.24.379.714 1.384m-5.63-24.103q-.177.014-.498.762l-.017.059q-.323-.01-.7.095-.377.101-.65.237-.273.137-.569.433-.295.297-.411 1.279t.008 1.687.302.923.178.256.829.42 1.321.411q.492.027.738-.025.247-.051.402-.165t.315-.452q.159-.337.192-.689.034-.352-.036-.587-.069-.235-.199-.404t-.262-.268q-.131-.099-.521-.244-.389-.144-.771-.235l.181.129q.047.014.225-.028.179-.043.499-.27.32-.226.396-.516.075-.289-.005-.669-.079-.38-.067-.423.013-.044-.307-.662-.319-.618-.621-.893-.301-.275-.716-.544t-.918-.418-.732-.204-.856.355q-.627.412-.891.891t-.281.629-.048.548q-.031.397.658 1.437.688 1.04 1.204 1.45.516.411 1.092.656t.97.176.645-.309q.252-.241.406-.601.153-.359.188-.694.036-.336-.01-.434-.045-.098-.512-.549-.467-.45-.733-.702t-.399-.392-1.142-.867q-.591-.1-1.393-.589"/>
        <path d="m-393.339 1158.56-.208.061-.016.186-.268.644q-.056.111-.601.578t-.817.813-.436.905-.069 1.331q.095.774.166.988t.449.715q.378.502.579.704.201.203.756.438.556.235.899.278t.473.079 1.331-.19q1.2-.225 3.792-1.18"/>
    </g>
</svg>
