<svg xmlns="http://www.w3.org/2000/svg" xml:space="preserve" viewBox="0 0 960 480">
    <g fill="none" stroke="#fff" stroke-linecap="round" stroke-linejoin="round" stroke-width="5.994" transform="translate(804.35 -3055.933)scale(1.33333)">
        <path d="M-264.208 2530.294q.249-.197 3.878-4.369 3.63-4.173 6.919-8.039 3.29-3.866 6.11-7.045t5.184-5.704 8.219-8.921 9.167-9.901 4.663-4.847 2.974-2.948q1.621-1.606 2.427-2.4"/>
        <path d="M-262.789 2528.186q.323-.068.778-.14l.625-.213q.619-.256 1.2-.546l1.626-.815q1.044-.524 5.94-3.506 4.895-2.982 7.68-4.718 2.784-1.735 4.363-2.584 1.578-.849 2.775-1.438 1.197-.59 2.58-1.227 1.382-.637 4.461-2.134t4.688-2.29 4.179-1.938 5.884-2.845 4.741-2.516q1.429-.817 2.674-1.517l1.949-1.097q.705-.398 1.08-.596.375-.199 1.511-1.039.189-.183.765-.829"/>
        <circle cx="-238.728" cy="2505.167" r="2.997" fill="#fff" stroke-width=".1"/>
        <path d="m-239.785 2504.91.136.579.121.296q.519.836 1.033 1.692t1.989 3.062l.351.499m23.31-35.591.129.353.128.464.057.476-.081 1.524q-.002.017.048 1.122t.52 2.478q.263.28 1.311.377t2.802.553q.517.228 2.37 5.493.108.158.437.395.33.237.974.771.645.534 1.493 1.394t.966 1.081q.116.221.222.673.105.452.157 1.236.053.785.074 2.191l.076 1.457m-10.07-24.969.609-.164q1.195-.05 3.544-1.674t7.674-5.682q5.326-4.059 9.311-6.868 3.986-2.808 7.543-5.077t9.66-6.013q6.103-3.745 9.204-5.808t4.701-3.122q1.599-1.06 8.198-5.179 6.599-4.12 10.625-6.8t6.202-4.305q2.177-1.625 6.586-4.833t8.099-5.699q3.69-2.49 7.134-4.786 3.445-2.297 6.486-4.501l1.489-1.127m-95.229 95.637q.365-.333 5.375-3.952t9.507-6.762q4.496-3.143 6.707-4.574 2.211-1.43 5.703-3.416 3.492-1.987 9.55-5.601t9.776-5.895 5.415-3.402 6.007-3.845q4.311-2.724 8.23-5.339 3.92-2.614 7.17-4.932 3.251-2.317 5.636-4.009t4.081-2.89q1.695-1.197 4.6-3.131 2.905-1.935 7.703-4.81t7.997-4.698q3.198-1.823 13.564-8.597l.711-.577m-17.288-22.503q.016.392.099 1.065t.362 1.818q.278 1.146.712 2.17.434 1.023 1.047 2.094.614 1.07 1.351 2.075t1.662 2.028q.924 1.022 1.329 1.505t.933 1.17 1.07 1.376 1.224 1.506 1.091 1.231q.407.413.769.728.362.316 1.106.719.743.404 1.435.645t1.467.378 3.551.401m-16.843-21.632q.391.244.772.664 1.127.717 2.023 1.379.897.663 1.784 1.394.888.732 2.038 1.8t2.304 2.282 1.192 1.267q.037.054 1.129 1.169t1.797 1.949 1.09 1.391q.386.558.596.899.209.342.636 1.049t.691 1.15.307.478.959 2.027l.526 1.239m-10-10.306q.358.337.249.489.058-.03 1.67 1.471"/>
        <path d="m-97.241 2400.106-.338-.149-.872-.108"/>
        <circle cx="-207.24" cy="2480.13" r="2.997" fill="#fff" stroke-width=".1"/>
        <path d="M-210.064 2481.674q.428-.168 1.602-.883 1.175-.716 2.165-1.341.991-.626 1.787-1.119.797-.494 3.762-2.543t6.729-4.642 6.866-4.652 5.916-3.9 6.842-4.303q4.029-2.461 6.487-4.005t4.039-2.557q1.582-1.012 3.387-2.105 1.806-1.093 2.141-1.274.336-.18 2.805-1.7 2.468-1.519 4.382-2.786 1.913-1.266 4.272-2.848t4.021-2.672q1.66-1.089 4.781-3.323 3.121-2.232 4.173-3.009t3.38-2.523q2.327-1.746 4.491-3.265 2.165-1.519 3.971-2.741 1.807-1.221 3.11-2.168 1.303-.946 6.042-4.304t7.281-5.227q2.543-1.869 4.138-3.14 1.596-1.271 1.986-1.588m-103.226 81.212q1.471-.674 2.866-1.442 1.395-.769 7.925-4.808 6.529-4.04 8.801-5.54 2.271-1.501 6.144-3.997t6.243-4.049q2.371-1.555 3.818-2.558t5.631-4.001 7.085-5.019 5.356-3.785 6.435-4.514q3.98-2.749 6.362-4.43t4.48-3.167q2.098-1.488 3.633-2.566 1.534-1.079 3.217-2.311 1.682-1.233 6.747-4.902t7.624-5.464q2.559-1.794 3.584-2.502t3.863-2.788q2.839-2.08 6.154-4.717l.582-.514"/>
        <path stroke-width="5" d="M-408.278 2527.887q.242-.629.802-1.246.07-.412 1.768-5.608 1.699-5.197 3.909-10.322t4.991-9.533 5.092-6.675 4.702-2.741q.604.184-.354 11.2-.957 11.017-2.309 18.133t-1.612 10.835q-.261 3.72-.092 5.928.169 2.209.817 4.123t1.387 2.925q.741 1.01 1.291 1.534t1.303.848q.752.323 1.248.216t1.093-.535q.596-.427.899-.731t5.861-7.612q.181.133.732 1.048t.985 1.615q.435.7.819 1.094.385.395 1.115.501.731.107 2.958-2.024 2.227-2.13 4.892-4.324.566.048 1.737 1.12t2.264 2.124 1.959 1.636q.865.583 2.317.844 1.451.261 3.354-.17 1.902-.431 3.988-1.202t3.556-1.206 2.522-.628 1.563-.267 1.692-.101 1.716-.044q.535-.018 1.959-.217t3.494-.857q2.071-.659 4.21-1.386 2.139-.728 3.206-.981 1.068-.254 1.699-.328t1.131-.061q.5.014 2.031.521t2.717.967q1.187.46 2.49.798t2.639.439 1.816.1q.48 0 1.367.06t1.651.185 2.027.674q1.264.548 2.867 1.268 1.604.719 3.383 1.272t3.749.715q1.969.162 5.068-.49 3.099-.653 5.021-1.384 1.923-.731 3.878-1.406 1.954-.675 2.665-1.013t1.065-.578q.355-.239 1.054-.752t2.032-1.583l1.225-.446q1.767-.349 2.197-.496t.652-.248 2.114-1.142 2.769-1.497q.875-.456 1.951-.904"/>
    </g>
</svg>
