<svg xmlns="http://www.w3.org/2000/svg" xml:space="preserve" viewBox="0 0 960 480">
    <g fill="none" stroke="#fff" stroke-linecap="round" stroke-linejoin="round" stroke-width="5" transform="translate(864.872 -2544.142)scale(1.33333)">
        <path d="M-363.904 1983.78q.096.349.167.861.072.513.501 10.277.43 9.764 1.547 23.55 1.117 13.785 1.795 21.86.679 8.076.82 11.668.142 3.591.21 5.936.068 2.346.325 10.686t.799 14.46 1.052 9.873 1.663 11.609 2.274 23.314 1.716 23.932 1.063 14.095.685 9.252q.217 3.629.537 23.719l.023 1.311m142.891-224.153q-.029 1.652-.128 9.547-.098 7.894.161 15.034.26 7.14.744 14.024.485 6.884.67 9.972t.836 19.023q.651 15.936.997 24.532t.76 13.667 1.251 16.632 1.323 17.798 1.59 17.179q1.104 10.941 1.834 17.488t2.903 27.441q.014.089-.026.202t-.271 1.418m-145.005-174.827q-.548.238-1.044.523t-1.003.513q-.506.227-1.02.37-.514.144-1.84.569-1.325.426-4.811 2.388-.738.992-1.223 1.663t-.767 1.245q-.281.575-.571 1.496-.291.921-.432 2.022t.095 2.98.508 2.862.65 1.964q.377.98.686 1.612.308.632.492.965t.749 1.016 1.235 1.156q.671.474 1.592.837.921.364 2.836.761 1.916.396 2.474.419t1.258-.01q.701-.033 1.257-.062t3.934-.502 5.022-.779 3.238-.587q1.596-.281 3.868-.576 2.273-.295 4.152-.476t4.997-.47q3.117-.289 4.611-.385t3.584-.276 4.267-.448 3.555-.436 5.8-.594 10.196-.737 8.881-.461 5.243-.251q2.136-.099 5.736-.317l7.083-.43q3.485-.212 6.832-.428 3.347-.217 4.628-.308 1.28-.091 5.684-.346 4.405-.255 5.349-.342.943-.087 2.614-.363 1.671-.275 2.014-.349.344-.074 2.139-.563t2.793-.976 1.241-.656.611-.584q.369-.416 1.202-2.221.833-1.804.925-2.827t-.131-2.225-.357-1.626-.373-1.088-.824-1.635q-.586-.97-1.059-1.468t-1.019-.883q-.545-.385-2.045-.961t-3.296-.894-3.45-.433q-1.655-.114-3.176-.182t-3.629-.117q-2.107-.05-6.038-.086-3.93-.037-4.774-.061-.845-.024-1.804-.034t-6.101-.165-13.536-.296q-8.395-.14-14.182.01t-7.988.244-4.995.202-6.395.294q-3.602.187-9.987.569-6.386.382-10.714.871t-5.59.706-2.245.433-1.061.241q-.078.026-1.892.426t-5.26 1.422m-38.077 37.986h-.286l-.382-.159q-1.344-.174-1.485-.198t-.885.092q-.744.118-1.115.298t-.655.335-.805.748-.705 1.071q-.183.476-.261 1.2-.078.723.06 1.367.137.644.59 1.337t1.167 1.251.859.63.617.188q.472.117 1.316.06.845-.056 1.602-.407t1.025-.557.463-.415.474-.815q.279-.607.376-.971t.21-.478.076-2.625l-.471-1.873"/>
        <path d="M-375.29 2047.066q.888-.282 2.321-.596.922-.043 2.617-.266 1.695-.222 3.787-.419 2.093-.196 2.892-.195.799 0 2.349-.102 1.551-.105 2.715-.22t3.231-.249q2.066-.135 5.082-.3 3.016-.166 4.265-.25 1.248-.085 4.478-.354t6.159-.419q2.93-.151 5.475-.266t4.092-.223 4.981-.3q3.433-.192 4.683-.308t8.956-.866 13.165-1.357q5.457-.608 8.439-.918t4.079-.42 6.331-.365 9.826-.296 8.527-.11 5.776-.17q1.842-.101 3.341-.167t2.727-.17q1.227-.104 2.013-.197.785-.092 2.81-.266t3.822-.402 3.976-.485q2.18-.256 3.719-.491 1.54-.235 4.869-.613l.989-.147.634-.124q1.004-.139 2.026-.305t3.517-.581m-123.033 42.632-.332.45-1.961 1.241q-.404.316-1.069.857-.664.542-1.084 1.052t-.628.858-.367.778q-.161.43-.317 1.13-.155.701-.22 1.258l-.08.691q-.017.133.169 3.325.185 3.193.404 5.016.218 1.824.415 3.661.198 1.837.502 4.371t.32 2.628q.015.093.467 5.261.451 5.167.882 11.189.43 6.022.619 7.854.188 1.831.346 3.007.158 1.175.718 3.398t2.038 4.992 1.92 3.186.897.644.862.361 1.821.214 2.706 0q1.293-.076 2.511-.159 1.217-.083 1.906-.132.688-.05 3.045-.187 2.356-.138 11.257-.156 8.902-.019 14.235-.028t9.034-.228q3.701-.218 6.259-.365t3.745-.172 3.26 0q2.072.029 3.448-.032t2.408-.214 4.32-.35 5.047-.31q1.761-.112 4.011-.418 2.249-.307 6.79-.774l6.916-.714q2.375-.246 3.264-.374.888-.129 5.516-.491 4.628-.363 7.323-.704t5.567-1.15q2.873-.808 3.33-.986.458-.177 1.409-.667t1.868-1.132q.916-.642 1.911-1.597t1.657-2.099q.661-1.145 1.153-2.412t.878-3.232.501-3.895.132-3.09-.356-7.343q-.373-6.184-.761-9.694-.387-3.51-.877-6.562t-.889-4.838-1.199-4.229q-.799-2.443-1.606-3.869-.806-1.426-1.098-1.824-.291-.399-.993-1.14-.703-.741-1.813-1.808-1.109-1.069-1.754-1.535t-1.062-.774-3.008-1.15-5.705-1.158q-3.116-.316-6.474-.178l-6.624.273q-3.267.135-5.558.185-2.292.051-10.335.133t-13.677.196q-5.635.113-9.736.174t-5.602.061q-1.499 0-3.133-.043-1.634-.044-3.027-.065-1.393-.02-2.845-.01-1.451.014-3.285.069-1.833.055-3.732.143-1.899.087-3.795.155-1.896.069-5.565.175-3.668.105-8.738.368-5.071.263-6.213.336t-2.761.245q-1.619.171-2.484.341t-1.333.287-4.835.863m4.974 117.646.066-.438-.106-2.351q-.074-.344-.27-3.909t-.227-6.537q-.031-2.973.013-3.808.044-.834.093-2.063.05-1.229.058-1.351t.231-1.525q.222-1.405.504-2.404t.716-1.94q.435-.941.537-1.133t1.074-1.43 1.963-2.083q.992-.847 1.728-1.328.736-.48 2.158-1.15 1.423-.67 2.782-1.161t3.832-.969q2.475-.479 6.544-.909t5.444-.619q1.375-.187 2.846-.406 1.47-.218 2.868-.443t2.92-.426 2.891-.332 2.954-.196q1.585-.066 3.808-.061 2.223.01 4.513.023 2.291.018 6.161.063t8.702-.154q4.832-.198 8.685-.388 3.852-.191 8.285-.467 4.433-.275 6.011-.397 1.578-.121 3.52-.181 1.942-.061 4.118-.121t3.301-.109l2.243-.098q1.116-.048 5.751.439 4.634.486 5.363.702t1.584.585q.855.37 1.834.934t1.252.819q.274.254.754.825.481.571.858 1.156t.816 1.545q.44.96 1.099 2.953.66 1.993.822 2.717.162.725.848 4.732t1.111 7.845q.426 3.837.684 7.099.257 3.261.389 5.525.131 2.263.24 3.428.109 1.164.374 4.791"/>
        <path d="M-309.994 2170.926q-.297.074-1.754.374t-2.325.661-1.198.579-.744.736q-.414.52-.559.836t-.267 1.275q-.12.959-.019 1.431t.41.975q.308.504.416.708t.628.671q.521.468.939.73t.984.542q.567.281 1.676.684t1.614.597 1.093.491q.587.298.805.45t.485.508.353.538.134.418q.046.236.042.42t-.122.478-.117.368q.002.074-.571.587-.573.514-1.287.88-.715.366-2.213.887-1.499.522-1.83.575t-.392.079q-.063.026-1.61-.11l-.254-.225-.106-.232-.769-.965m15.231-20.12.055.555q.103 1.859.851 7.072.749 5.212 1.517 10.916.04.386.091 1.513m11.915-3.308q.058-.056.736-.562t1.17-1.002q.492-.495.965-1.181.473-.687.73-1.426.257-.74.271-.999.014-.26-.101-.463t-.246-.29-.41-.224-.574-.137-.594.115-.704.627-.644 1.055q-.241.543-.433 1.208-.191.666-.207 1.531-.015.866.059 1.203.073.338.418.98.344.641.99 1.283t1.327 1.056q.681.416 1.207.58.526.166.924.283.398.118 1.374.059t3.89-.782m7.944-4.111.271-.113.486-.234q.217-.127 1.071-1.001.853-.875 1.218-1.535t.396-.994-.022-.658-.224-.441q-.169-.118-.588-.207-.419-.09-.746-.043t-.784.276-1.045.938-.764 1.391q-.177.68-.034 1.837.144 1.157.386 1.539t.363.534q.122.152 1.023.81t2.267 1.037 2.23.446 5.81-1.266m3.315-10.384.294 1.943q.087.362.32 2.104.233 1.743.611 3.383.378 1.641 1.056 3.755.678 2.115 1.492 5.278.813 3.164 1.176 5.758-.024.278-.175 1.474"/>
        <path d="M-255.227 2174.757q.446-.076.903-.205.457-.13.599-.109t.791.01q.649-.013 2.723.321 2.073.333 3.259 1.243 1.185.909 1.858 2.23t.521 3.07q.034.164-1.117.974t-2.22 1.095q-1.07.286-1.964.356-.488-.164-1.327-.368m-78.451-88.586q.135.203.475.476.573.42.891.687t2.252 2.968 3.342 4.438 2.903 2.602q.274-.098 1.252-.81.977-.711 2.562-1.885.725-.061.86-.044.136.016 1.317-.038 1.18-.055 3.058-1.191.46-1.049.696-2.1.237-1.051.274-1.699t-.038-1.935-.304-2.662q-.228-1.374-.811-4.496m19.932 8.539-.297-.289q-.975-.768-1.069-.807-.095-.038-1.151-.611-1.057-.574-1.916-.792-.86-.218-1.312-.205t-.918.233q-.467.218-1.238 1.343t-.741 1.806q.029.68.029.867t.696 1.084q.695.897 1.888 1.402t2.035.487q.841-.018 1.352-.192t1.031-.533q.518-.358 1.068-.869.55-.51.875-.853.326-.344.87-1.078m7.142-5.625-.027.397q-.001.38.703 4.335t1.502 8.036l.136.938m-.656-7.292q.259-.156.83-.839t1.236-1.213 1.043-.827 1.419-.868 1.396-.616q.354-.045 1.564-.397m6.541-9.34.126.325q.12.432.61 3.38t.807 4.564q.318 1.617.608 2.824.291 1.206 1.764 6.844.218.065.403.4m5.556-12.445q.011 1.267-.187 2.433-.197 1.166-.243 4.488.31.31.645.615.336.306 1.344 1.062t1.663 1.148.761.444q.107.052.5.493t1.548 1.241M-333.824 2018l.255-.298q.011.233 0 .502m11.259-2.787q.192.85.529 1.463"/>
        <circle cx="-310.194" cy="2014.628" r="2.5" fill="#fff" stroke-width=".1"/>
        <path d="m-379.317 2065.734.186.462q.099.517.435 2.822.337 2.305.618 5.18t.481 7.397q.201 4.523.249 6.434.049 1.91.127 4.524l.173 5.792q.094 3.178.078 5.534-.017 2.355-.018 3.298-.002.942-.143 2.971m-7.287-9.659q.448 1.046 2.168 3.89t2.389 3.876 1.61 2.281q.237.153.343.217t.504.451m7.288-14.291q-.112.264-.628 1.503-.515 1.238-.961 2.138t-.78 1.602-.842 1.652-2.92 5.671l-.428.872"/>
    </g>
</svg>
