<?xml version="1.0" encoding="UTF-8" standalone="no"?>
<!-- Generator: Adobe Illustrator 26.1.0, SVG Export Plug-In . SVG Version: 6.00 Build 0)  -->

<svg
   version="1.1"
   id="Layer_1"
   x="0px"
   y="0px"
   viewBox="0 0 960 480"
   style="enable-background:new 0 0 960 480;"
   xml:space="preserve"
   sodipodi:docname="pt2-choice-map.svg"
   inkscape:version="1.2.1 (9c6d41e410, 2022-07-14, custom)"
   xmlns:inkscape="http://www.inkscape.org/namespaces/inkscape"
   xmlns:sodipodi="http://sodipodi.sourceforge.net/DTD/sodipodi-0.dtd"
   xmlns="http://www.w3.org/2000/svg"
   xmlns:svg="http://www.w3.org/2000/svg"><defs
   id="defs1293" /><sodipodi:namedview
   id="namedview1291"
   pagecolor="#505050"
   bordercolor="#eeeeee"
   borderopacity="1"
   inkscape:showpageshadow="0"
   inkscape:pageopacity="0"
   inkscape:pagecheckerboard="0"
   inkscape:deskcolor="#505050"
   showgrid="false"
   inkscape:zoom="1.3882215"
   inkscape:cx="564.03103"
   inkscape:cy="232.31163"
   inkscape:window-width="1902"
   inkscape:window-height="2039"
   inkscape:window-x="1924"
   inkscape:window-y="8"
   inkscape:window-maximized="0"
   inkscape:current-layer="Layer_1" />
<g
   id="Choice_map"
   opacity="1"
   transform="matrix(1.3333333,0,0,1.3333333,-499.04531,-1219.9161)"><path
     id="STROKE_bbca0a8a-8a17-48e8-a3dc-140cddea56ee"
     opacity="1"
     fill="none"
     stroke="#000000"
     stroke-width="2"
     stroke-opacity="1"
     stroke-linecap="round"
     stroke-linejoin="round"
     d="m 388.184,974.014 q -0.034,0.093 -0.317,0.761 -0.282,0.668 -0.805,3.94 -0.523,3.272 -0.683,5.892 -0.16,2.619 -0.158,5.377 10e-4,2.757 0.679,7.62 0.678,4.863 1.635,7.339 0.956,2.476 2.369,4.086 1.412,1.61 3.086,1.914 1.673,0.305 2.807,0.132 1.134,-0.174 3.754,-2.149 2.62,-1.975 4.835,-5.311 2.215,-3.335 3.867,-7.995 1.652,-4.66 1.315,-24.299 -0.475,-0.209 -0.811,2.748 -0.336,2.958 -0.203,5.471 0.133,2.513 0.535,5.68 0.402,3.166 0.803,5.628 0.4,2.462 1.697,7.495 1.296,5.032 2.777,8.949 l 0.492,0.815" /><path
     id="STROKE_f658b552-ae42-42fe-90cf-02c45413fe5f"
     opacity="1"
     fill="none"
     stroke="#000000"
     stroke-width="2"
     stroke-opacity="1"
     stroke-linecap="round"
     stroke-linejoin="round"
     d="m 436.464,993.141 -0.316,-0.376 q -0.743,-1.007 -1.551,-1.957 -0.809,-0.949 -1.58,-1.488 -0.771,-0.538 -1.77,-0.877 -0.998,-0.339 -1.858,-0.361 -0.859,-0.022 -1.72,0.321 -0.861,0.342 -1.549,1.116 -0.688,0.774 -0.912,1.589 -0.225,0.815 -0.175,1.82 0.05,1.006 0.671,2.195 0.622,1.19 1.825,2.101 1.203,0.91 1.864,1.183 0.661,0.273 1.207,0.493 0.546,0.219 1.662,0.501 1.115,0.283 2.889,0.659 1.773,0.376 2.667,0.648 0.894,0.273 1.849,0.688 0.956,0.414 2.535,1.85 1.578,1.436 2.408,3.005 0.83,1.57 0.967,2.233 0.137,0.663 0.072,1.428 -0.065,0.764 -0.368,1.477 -0.304,0.713 -2.076,1.35 -1.773,0.636 -3.276,0.514 -1.503,-0.122 -3.282,-0.931 -1.779,-0.809 -3.229,-1.848 -1.449,-1.038 -3.986,-3.691" /><path
     id="STROKE_cd8203ba-402f-4fdd-83a6-10cd806bbcc0"
     opacity="1"
     fill="none"
     stroke="#000000"
     stroke-width="2"
     stroke-opacity="1"
     stroke-linecap="round"
     stroke-linejoin="round"
     d="m 457.981,1003.411 0.147,-0.165 1.636,-0.803 q 0.214,-0.242 1.174,-0.77 0.959,-0.528 2.272,-1.801 1.314,-1.274 1.888,-2.467 0.573,-1.193 0.591,-2.355 0.017,-1.163 -0.244,-1.698 -0.261,-0.536 -1.375,-1.181 -1.113,-0.645 -2.28,-0.556 -1.168,0.089 -1.718,0.269 -0.551,0.18 -2.09,1.505 -1.539,1.325 -2.488,3.406 -0.949,2.081 -1.098,3.449 -0.149,1.368 0.086,2.986 0.234,1.619 1.157,3.277 0.923,1.658 2.019,2.571 1.095,0.913 2.061,1.329 0.966,0.417 3.048,0.599 2.081,0.182 4.301,-0.467 2.22,-0.649 8.057,-3.82" /><path
     id="STROKE_a6de6fa6-4697-4b94-a6e3-4c8bda5aa706"
     opacity="1"
     fill="none"
     stroke="#000000"
     stroke-width="2"
     stroke-opacity="1"
     stroke-linecap="round"
     stroke-linejoin="round"
     d="m 494.073,982.884 q -0.015,-0.21 -0.519,-1.107 0.077,-0.352 0.008,-1.859 -0.07,-1.508 -0.435,-3.125 -0.366,-1.618 -1.403,-3.612 -1.037,-1.994 -2.29,-3.268 -1.253,-1.275 -2.345,-1.742 -1.092,-0.467 -2.243,-0.352 -1.151,0.114 -2.319,1.758 -1.168,1.644 -1.811,5.087 -0.643,3.443 -0.13,9.693 0.513,6.25 1.683,12.859 1.171,6.608 1.754,9.503 0.583,2.896 0.884,3.835 0.302,0.939 0.374,0.98 0.071,0.041 0.101,-0.246" /><path
     id="STROKE_003ce6d9-a1fd-4ebe-a9a7-1780f3c89cea"
     opacity="1"
     fill="none"
     stroke="#000000"
     stroke-width="2"
     stroke-opacity="1"
     stroke-linecap="round"
     stroke-linejoin="round"
     d="m 479.097,994.795 q 1.023,-0.082 12.115,-2.176" /><path
     id="STROKE_293ab725-f96a-49f4-a8d1-207168b78099"
     opacity="1"
     fill="none"
     stroke="#000000"
     stroke-width="2"
     stroke-opacity="1"
     stroke-linecap="round"
     stroke-linejoin="round"
     d="m 504.53,990.303 q -0.435,1.324 -0.411,1.851 0.023,0.527 0.051,1.885 0.027,1.358 0.316,3.021 0.289,1.663 0.969,2.988 0.679,1.325 1.247,1.912 0.567,0.588 1.264,0.981 0.697,0.394 1.702,0.371 1.006,-0.023 2.035,-0.677 1.028,-0.654 1.628,-1.206 0.6,-0.553 1.768,-2.174 1.167,-1.621 2.665,-4.91 -0.018,0.055 0.348,1.481 0.365,1.426 1.002,3.405 0.637,1.978 1.513,4.002 0.875,2.024 2.505,4.415" /><path
     id="STROKE_29689385-9577-4014-898f-af5680b138d0"
     opacity="1"
     fill="none"
     stroke="#000000"
     stroke-width="2"
     stroke-opacity="1"
     stroke-linecap="round"
     stroke-linejoin="round"
     d="m 530.62,962.625 q -0.476,1.202 -0.89,9.418 -0.414,8.215 0.226,16.582 0.641,8.366 1.259,12.912 0.619,4.546 0.995,5.814 0.151,0.252 0.797,1.354" /><path
     id="STROKE_5b1b26c0-eda3-45db-b1f8-7940a72dd93c"
     opacity="1"
     fill="none"
     stroke="#000000"
     stroke-width="2"
     stroke-opacity="1"
     stroke-linecap="round"
     stroke-linejoin="round"
     d="m 392.811,1085.289 q -0.173,0.967 0.138,7.734 0.311,6.766 0.778,10.228 0.466,3.463 2.191,18.489 0.071,0.107 -0.246,0.365" /><path
     id="STROKE_e7cf1195-2e1b-438e-8ef6-976496ec806b"
     opacity="1"
     fill="none"
     stroke="#000000"
     stroke-width="2"
     stroke-opacity="1"
     stroke-linecap="round"
     stroke-linejoin="round"
     d="m 391.427,1083.965 q 1.299,-0.453 6.021,-0.986 4.722,-0.533 8.197,-0.946 3.474,-0.413 7.772,-1.236" /><path
     id="STROKE_f084c87b-ee6a-4cec-bf77-7abfb2c0086d"
     opacity="1"
     fill="none"
     stroke="#000000"
     stroke-width="2"
     stroke-opacity="1"
     stroke-linecap="round"
     stroke-linejoin="round"
     d="m 394.469,1105.154 q 0.976,0.097 15.906,-2.316" /><path
     id="STROKE_f6b6ce96-b6b8-4c2b-bb38-9ecc6ca1fc1a"
     opacity="1"
     fill="none"
     stroke="#000000"
     stroke-width="2"
     stroke-opacity="1"
     stroke-linecap="round"
     stroke-linejoin="round"
     d="m 423.474,1101.718 q 0.029,0.184 -0.15,0.616 -0.179,0.433 -0.306,1.46 -0.127,1.028 -0.143,1.838 -0.016,0.81 0.134,3.056 0.149,2.245 0.78,4.064 0.631,1.818 1.363,2.674 0.733,0.855 1.274,1.098 0.541,0.243 1.245,0.156 0.703,-0.087 3.344,-2.721 2.64,-2.634 4.24,-5.584 1.601,-2.949 1.891,-3.793 0.29,-0.845 0.219,-0.832 -0.071,0.013 -0.093,0.173 -0.022,0.16 0.015,0.658 0.036,0.497 0.212,1.581 0.176,1.084 1.047,3.256 0.871,2.172 1.686,3.675 0.814,1.503 2.518,3.514" /><path
     id="STROKE_2f481fb2-f4a5-40bb-90b7-e8f01562bc0a"
     opacity="1"
     fill="none"
     stroke="#000000"
     stroke-width="2"
     stroke-opacity="1"
     stroke-linecap="round"
     stroke-linejoin="round"
     d="m 449.636,1098.6 q -0.227,4.732 5.253,19.208 0.076,0 0.273,-0.296 0.196,-0.29 0.849,-1.776 0.653,-1.486 1.308,-2.903 0.654,-1.418 1.535,-2.851 0.881,-1.433 1.996,-2.469 1.114,-1.036 1.872,-1.325 0.757,-0.288 1.838,-0.211 1.08,0.076 1.663,0.409 0.584,0.333 1.822,1.556 1.239,1.222 2.732,4.256 1.494,3.033 1.739,4.708" /><path
     id="STROKE_6fa5aaca-c203-418a-8cc2-7b77d67a99cb"
     opacity="1"
     fill="none"
     stroke="#000000"
     stroke-width="2"
     stroke-opacity="1"
     stroke-linecap="round"
     stroke-linejoin="round"
     d="m 630.549,1017.719 q 0.105,0.8 0.99,4.343 0.884,3.543 2.87,8.442 1.986,4.899 3.133,6.547 1.147,1.649 1.738,2.067 0.59,0.418 0.804,0.451 0.215,0.034 0.392,0 0.177,-0.033 1.508,-4.209 1.331,-4.176 2.89,-7.952 0.039,-0.064 3.125,3.44 3.085,3.504 5.043,5.571 1.958,2.066 2.706,2.59 0.748,0.524 1.45,0.703 0.702,0.179 0.972,0.085 0.269,-0.094 1.19,-2.541 0.921,-2.446 1.08,-4.7 0.16,-2.254 0.087,-4.607 -0.073,-2.353 -0.22,-4.43 -0.148,-2.076 -1.779,-13.323 l -0.231,-2.149" /><path
     id="STROKE_add07000-82be-44e2-bc4d-f1664c695f32"
     opacity="1"
     fill="none"
     stroke="#000000"
     stroke-width="2"
     stroke-opacity="1"
     stroke-linecap="round"
     stroke-linejoin="round"
     d="m 680.214,1036.12 q 0.049,-0.358 -0.135,-2.218 -0.185,-1.86 -0.699,-3.303 -0.514,-1.443 -1.353,-2.213 -0.839,-0.77 -1.236,-0.945 -0.397,-0.176 -1.507,-0.303 -1.111,-0.128 -2.196,0.431 -1.086,0.558 -1.585,1.04 -0.499,0.482 -1.248,1.725 -0.749,1.242 -1.084,3.169 -0.335,1.928 0,3.447 0.336,1.518 1.148,2.593 0.813,1.074 1.852,1.673 1.04,0.599 2.514,0.661 1.474,0.061 3.346,-1.063 1.872,-1.123 5.372,-6.412" /><path
     id="STROKE_42e81c99-de5c-4f9d-b94d-e28da5a47402"
     opacity="1"
     fill="none"
     stroke="#000000"
     stroke-width="2"
     stroke-opacity="1"
     stroke-linecap="round"
     stroke-linejoin="round"
     d="m 687.101,1028.243 -0.003,0.579 q 0.227,0.906 3.707,11.291 0.092,-0.094 0.445,-1.885 0.353,-1.792 0.896,-3.608 0.542,-1.816 0.946,-2.702 0.404,-0.886 1.453,-2.204 1.049,-1.319 2.663,-2.437 1.614,-1.117 4.268,-2.075" /><path
     id="STROKE_3d9fdbb2-57dc-49ab-9d11-5e6565c1bd97"
     opacity="1"
     fill="none"
     stroke="#000000"
     stroke-width="2"
     stroke-opacity="1"
     stroke-linecap="round"
     stroke-linejoin="round"
     d="m 711.533,1010.032 q 0.055,1.349 0.237,5.563 0.181,4.215 0.587,7.793 0.406,3.578 0.88,6.496 0.474,2.918 0.914,5.281 0.44,2.362 0.836,4.226 0.049,0.363 0.718,-0.026" /><path
     id="STROKE_271a9eb8-b128-464c-b095-9717bae9a1b0"
     opacity="1"
     fill="none"
     stroke="#000000"
     stroke-width="2"
     stroke-opacity="1"
     stroke-linecap="round"
     stroke-linejoin="round"
     d="m 724.25,1022.809 q -0.232,0.169 -0.734,0.55 -0.501,0.38 -2.315,2.998 -1.814,2.618 -2.431,3.926 -0.617,1.308 -0.786,2.06 -0.17,0.752 -0.191,1.415 4.148,1.889 6.067,2.258 1.92,0.368 3.143,0.594 1.222,0.226 3.71,0.688 l 1.954,0.146" /><path
     id="STROKE_6bec9030-0359-40e6-90cb-301901fe8ce0"
     opacity="1"
     fill="none"
     stroke="#000000"
     stroke-width="2"
     stroke-opacity="1"
     stroke-linecap="round"
     stroke-linejoin="round"
     d="m 636.382,1072.053 0.027,1.159 q -0.183,1.191 3.392,23.297 0.065,0.097 0.68,1.429" /><path
     id="STROKE_1288b72c-8bc3-4460-9779-64c1f4ff07ae"
     opacity="1"
     fill="none"
     stroke="#000000"
     stroke-width="2"
     stroke-opacity="1"
     stroke-linecap="round"
     stroke-linejoin="round"
     d="m 634.523,1072.982 0.673,-0.452 q 0.264,-0.122 1.388,-0.629 1.124,-0.508 2.285,-0.923 1.16,-0.415 2.29,-0.764 1.129,-0.348 1.901,-0.581 0.771,-0.233 9.937,-1.818" /><path
     id="STROKE_4304268b-103a-4197-a79c-fa5fc013a7f0"
     opacity="1"
     fill="none"
     stroke="#000000"
     stroke-width="2"
     stroke-opacity="1"
     stroke-linecap="round"
     stroke-linejoin="round"
     d="m 639.351,1083.57 q 0.538,-0.164 13.045,-3.436" /><path
     id="STROKE_809a6843-2dba-47d0-b01c-84d98a6131c2"
     opacity="1"
     fill="none"
     stroke="#000000"
     stroke-width="2"
     stroke-opacity="1"
     stroke-linecap="round"
     stroke-linejoin="round"
     d="m 639.752,1094.565 1.415,-0.247 q 1.093,-0.316 16.13,-3.202" /><path
     id="STROKE_a48fb386-a461-4b99-95af-7e883a46061e"
     opacity="1"
     fill="none"
     stroke="#000000"
     stroke-width="2"
     stroke-opacity="1"
     stroke-linecap="round"
     stroke-linejoin="round"
     d="m 661.597,1083.506 q 0.248,0.296 1.842,2.114 1.595,1.818 3.12,3.487 1.524,1.67 3.02,3.212 1.495,1.542 2.063,2.061 0.567,0.52 1.049,0.894 0.481,0.374 2.552,1.671" /><path
     id="STROKE_46df2938-4f3b-4562-b4ce-61bb0437185f"
     opacity="1"
     fill="none"
     stroke="#000000"
     stroke-width="2"
     stroke-opacity="1"
     stroke-linecap="round"
     stroke-linejoin="round"
     d="m 673.785,1083.048 q -0.148,0.216 -1.422,1.341 -1.274,1.125 -9.363,15.928" /><path
     id="STROKE_cc345625-ac28-4efc-af9d-b3957e291729"
     opacity="1"
     fill="none"
     stroke="#000000"
     stroke-width="2"
     stroke-opacity="1"
     stroke-linecap="round"
     stroke-linejoin="round"
     d="m 680.599,1094.501 q 0.386,-0.289 2.775,-2.605 2.389,-2.316 3.404,-3.688 1.016,-1.373 1.303,-2.115 0.287,-0.743 0.292,-1.245 0.005,-0.503 -0.366,-0.838 -0.372,-0.335 -0.662,-0.403 -0.291,-0.069 -0.75,-0.131 -0.459,-0.062 -1.863,0.485 -1.403,0.547 -2.544,1.767 -1.142,1.22 -1.684,2.66 -0.543,1.44 -0.472,2.577 0.072,1.137 0.369,1.827 0.298,0.69 1.62,1.842 1.321,1.151 2.435,1.599 1.114,0.449 2.307,0.572 1.193,0.123 3.092,-0.274 1.899,-0.396 7.232,-3.493" /><path
     id="STROKE_51ddb0ae-8f04-490c-b6b3-89d8d2062d00"
     opacity="1"
     fill="none"
     stroke="#000000"
     stroke-width="2"
     stroke-opacity="1"
     stroke-linecap="round"
     stroke-linejoin="round"
     d="m 698.016,1084.703 q 0.171,0.676 5.61,10.901 0.075,-0.132 0.209,-2.14 0.133,-2.009 0.357,-3.807 0.223,-1.797 0.566,-2.988 0.343,-1.191 0.663,-1.811 0.32,-0.62 1.447,-1.788 1.128,-1.169 7.108,-3" /><path
     id="STROKE_c1148cdc-ca3a-4db5-b44d-75c4a640879b"
     opacity="1"
     fill="none"
     stroke="#000000"
     stroke-width="2"
     stroke-opacity="1"
     stroke-linecap="round"
     stroke-linejoin="round"
     d="m 728.752,1086.153 q -0.149,-0.263 -0.214,-0.442 -0.066,-0.18 -0.282,-0.572 -0.217,-0.393 -0.895,-1.017 -0.678,-0.625 -1.615,-0.963 -0.937,-0.337 -2.025,-0.282 -1.089,0.055 -2.289,0.894 -1.199,0.838 -2.013,2.857 -0.815,2.018 -0.638,3.841 0.176,1.824 0.942,3.065 0.766,1.242 2.542,2.033 1.776,0.792 4.024,0.319 2.248,-0.473 3.906,-1.41 1.659,-0.937 4.442,-3.36" /><path
     id="STROKE_a7ca4249-bf8b-4744-8641-d236f6a41454"
     opacity="1"
     fill="none"
     stroke="#000000"
     stroke-width="2"
     stroke-opacity="1"
     stroke-linecap="round"
     stroke-linejoin="round"
     d="m 740.339,1077.882 q -0.182,0.046 -0.607,0.049 -0.105,0.108 -0.249,1.147" /><path
     id="STROKE_05a6be10-b1e7-4a36-9b4c-615faad387df"
     opacity="1"
     fill="none"
     stroke="#000000"
     stroke-width="2"
     stroke-opacity="1"
     stroke-linecap="round"
     stroke-linejoin="round"
     d="m 741.195,1083.303 q 0.014,0.965 0.146,3.143 0.131,2.178 0.296,3.349 0.166,1.171 0.428,2.308 0.262,1.137 0.861,2.92" /><path
     id="STROKE_b5a32ad9-6447-40d7-821c-db1cf4ffb4cc"
     opacity="1"
     fill="none"
     stroke="#000000"
     stroke-width="2"
     stroke-opacity="1"
     stroke-linecap="round"
     stroke-linejoin="round"
     d="m 758.139,1085.759 -0.044,-0.173 q -0.054,-0.258 -0.302,-0.905 -0.248,-0.647 -0.407,-0.95 -0.16,-0.302 -0.359,-0.535 -0.198,-0.233 -0.662,-0.566 -0.463,-0.333 -0.858,-0.48 -0.395,-0.148 -0.951,-0.17 -0.556,-0.023 -0.834,0.083 -0.279,0.107 -0.576,0.359 -0.297,0.253 -0.443,0.405 -0.145,0.153 -0.343,0.736 -0.198,0.582 -0.162,1.13 0.035,0.547 0.444,1.163 0.409,0.617 0.884,1.053 0.475,0.436 1.203,0.987 0.727,0.551 1.745,1.191 1.018,0.641 1.949,1.321 0.932,0.68 1.769,2.045 0.838,1.366 0.882,2.105 0.044,0.74 -1.408,1.564 -1.452,0.823 -8.072,-0.148 -0.083,-0.046 -0.998,-0.289" /><path
     id="STROKE_882484d2-aa31-45f4-b209-0bb4255286e0"
     opacity="1"
     fill="none"
     stroke="#000000"
     stroke-width="2"
     stroke-opacity="1"
     stroke-linecap="round"
     stroke-linejoin="round"
     d="m 768.542,1092.376 q 0.276,-0.262 0.53,-0.57 0.253,-0.308 1.19,-1.016 0.938,-0.708 2.256,-1.75 1.318,-1.041 2.267,-2.202 0.949,-1.16 1.355,-1.985 0.405,-0.826 0.432,-1.594 0.027,-0.769 -0.136,-1.107 -0.164,-0.337 -1.258,-0.695 -1.094,-0.358 -2.34,-0.034 -1.247,0.325 -2.253,1.317 -1.006,0.993 -1.458,1.976 -0.451,0.983 -0.576,2.458 -0.124,1.474 0.261,2.707 0.386,1.234 1.368,2.312 0.982,1.079 2.816,1.76 1.835,0.681 4.772,0.363 2.938,-0.318 9.576,-3.467" /><path
     id="STROKE_b3912f4e-79d1-4e34-8d30-feecc67a0eb8"
     opacity="1"
     fill="none"
     stroke="#000000"
     stroke-width="2"
     stroke-opacity="1"
     stroke-linecap="round"
     stroke-linejoin="round"
     d="m 636.16,1145.403 -0.073,0.503 q -0.141,0.623 2.484,21.809 l 0.073,0.107 0.559,1.353" /><path
     id="STROKE_778240c7-3b70-46c4-a425-5009602f394f"
     opacity="1"
     fill="none"
     stroke="#000000"
     stroke-width="2"
     stroke-opacity="1"
     stroke-linecap="round"
     stroke-linejoin="round"
     d="m 634.757,1146.141 q 0.806,0.092 14.32,-0.993" /><path
     id="STROKE_8bd4bbf5-644e-4842-a543-6389e9100f2c"
     opacity="1"
     fill="none"
     stroke="#000000"
     stroke-width="2"
     stroke-opacity="1"
     stroke-linecap="round"
     stroke-linejoin="round"
     d="m 639.33,1157.263 1.121,-0.149 q 0.174,-0.065 8.809,-0.653" /><path
     id="STROKE_69caa9b4-968f-467b-9519-e58bece54bb5"
     opacity="1"
     fill="none"
     stroke="#000000"
     stroke-width="2"
     stroke-opacity="1"
     stroke-linecap="round"
     stroke-linejoin="round"
     d="m 659.262,1154.209 -0.058,0.775 0.096,0.742 q 0.101,1.18 1.173,4.104 1.072,2.925 2.091,4.806 0.009,-0.105 0.176,-1.609 0.168,-1.503 0.65,-3.12 0.482,-1.616 0.704,-2.165 0.222,-0.548 1.486,-1.866 1.265,-1.319 8.33,-4.378" /><path
     id="STROKE_5a68d46b-f3b8-4d4f-8f1b-14ddc77ec330"
     opacity="1"
     fill="none"
     stroke="#000000"
     stroke-width="2"
     stroke-opacity="1"
     stroke-linecap="round"
     stroke-linejoin="round"
     d="m 681.38,1150.302 -0.804,0.548 -0.781,0.916" /><path
     id="STROKE_57eb2060-0b79-4878-9ac1-dd7606aef403"
     opacity="1"
     fill="none"
     stroke="#000000"
     stroke-width="2"
     stroke-opacity="1"
     stroke-linecap="round"
     stroke-linejoin="round"
     d="m 681.78,1157.925 q -0.148,1.393 2.442,11.58" /><path
     id="STROKE_d5bcdd72-9ad7-45e2-a58e-a48311bbe6fa"
     opacity="1"
     fill="none"
     stroke="#000000"
     stroke-width="2"
     stroke-opacity="1"
     stroke-linecap="round"
     stroke-linejoin="round"
     d="m 694.424,1162.888 q 0.924,-1.109 1.767,-2.258 0.843,-1.15 1.455,-2.266 0.611,-1.116 0.786,-1.817 0.175,-0.7 0.083,-1.36 -0.093,-0.66 -0.713,-0.951 -0.62,-0.292 -1.352,-0.142 -0.732,0.151 -1.615,1.28 -0.883,1.13 -1.19,2.12 -0.307,0.989 -0.314,2.301 -0.007,1.312 0.607,2.612 0.615,1.299 1.232,1.95 0.617,0.651 1.913,1.229 1.296,0.578 2.895,0.679 1.599,0.101 3.081,-0.181 1.482,-0.282 5.412,-1.478" /><path
     id="STROKE_6f72fee5-7ee2-4f8c-bcb0-09de34adbe92"
     opacity="1"
     fill="none"
     stroke="#000000"
     stroke-width="2"
     stroke-opacity="1"
     stroke-linecap="round"
     stroke-linejoin="round"
     d="m 710.311,1153.751 q 0.444,3.341 1.434,6.478 0.99,3.138 1.526,4.204 0.535,1.066 1.326,2.177 0.162,-0.287 1.025,-2.017 0.862,-1.731 2.354,-3.692 1.491,-1.961 2.208,-2.311 0.716,-0.349 1.245,-0.438 0.528,-0.089 1.166,0.125 0.639,0.213 1.421,0.75 0.781,0.536 1.056,0.793 0.274,0.257 0.745,0.729 0.47,0.473 4.9,7.429" /><path
     id="STROKE_af8e1a36-fb26-43ae-81f5-a79dc98f2787"
     opacity="1"
     fill="none"
     stroke="#000000"
     stroke-width="2"
     stroke-opacity="1"
     stroke-linecap="round"
     stroke-linejoin="round"
     d="m 745.875,1162.354 q -0.035,-0.313 0.047,-0.627 0.083,-0.314 0.021,-1.288 -0.063,-0.975 -0.27,-1.83 -0.208,-0.854 -0.424,-1.357 -0.216,-0.502 -1.037,-1.386 -0.821,-0.884 -1.686,-1.337 -0.864,-0.452 -2.177,-0.588 -1.312,-0.136 -2.398,0.236 -1.085,0.372 -1.938,1.158 -0.854,0.785 -1.334,1.856 -0.481,1.071 -0.601,2.339 -0.121,1.268 0.583,2.813 0.703,1.545 1.487,2.256 0.784,0.712 1.477,1.006 0.693,0.294 1.502,0.34 0.808,0.047 2.239,-0.569 1.431,-0.616 6.294,-5.797" /><path
     id="STROKE_63ed7847-d2bd-4fbb-849e-bada717036e7"
     opacity="1"
     fill="none"
     stroke="#000000"
     stroke-width="2"
     stroke-opacity="1"
     stroke-linecap="round"
     stroke-linejoin="round"
     d="m 742.96,1136.673 -0.033,1.515 0.034,1.165 q -0.049,0.853 1.269,10.127 1.317,9.274 3.825,16.51 0.158,0.216 0.735,0.868" /><path
     id="STROKE_82dfb4c7-512f-4d0d-88b2-2a4166fdefa3"
     opacity="1"
     fill="none"
     stroke="#000000"
     stroke-width="2"
     stroke-opacity="1"
     stroke-linecap="round"
     stroke-linejoin="round"
     d="m 764.349,1151.04 q -0.567,0.221 -0.641,0.245 -0.075,0.023 -0.353,-0.166 -0.279,-0.19 -0.699,-0.374 -0.421,-0.185 -1.536,-0.199 -1.114,-0.014 -2.047,0.345 -0.932,0.359 -1.492,0.802 -0.559,0.443 -0.97,1.233 -0.412,0.79 -0.383,1.468 0.029,0.679 0.452,1.426 0.423,0.748 1.82,1.826 1.397,1.078 2.873,1.75 1.476,0.673 2.735,1.298 1.259,0.626 1.884,0.996 0.625,0.37 1.083,0.766 0.458,0.396 0.859,0.858 0.401,0.462 0.812,1.523 0.41,1.06 0.332,1.539 -0.077,0.478 -0.122,0.719 -0.044,0.24 -0.752,0.76 -0.707,0.52 -3.002,0.679 -2.295,0.159 -3.89,-0.519 -1.596,-0.679 -2.218,-1.255 -0.623,-0.575 -1.041,-1.231 -0.417,-0.657 -1.119,-3.239" /><path
     id="STROKE_3cfedf9a-3b44-4799-a60c-17ccba5087b0"
     opacity="1"
     fill="none"
     stroke="#000000"
     stroke-width="2"
     stroke-opacity="1"
     stroke-linecap="round"
     stroke-linejoin="round"
     d="m 634.34,1201.4 q -0.029,0.643 -0.039,0.995 -0.011,0.351 0.243,1.748 0.254,1.398 0.85,3.561 0.596,2.163 2.086,6.818 1.49,4.656 3.738,9.465 0.332,-0.263 0.407,-0.22 0.076,0.042 0.966,-5.967 0.89,-6.009 2.638,-19.165 0.038,-0.319 0.17,-2.135" /><path
     id="STROKE_d89fe914-5d99-45b8-b4e1-3a97b83f49cd"
     opacity="1"
     fill="none"
     stroke="#000000"
     stroke-width="2"
     stroke-opacity="1"
     stroke-linecap="round"
     stroke-linejoin="round"
     d="m 652.03,1207.686 q -0.097,0.08 -0.278,0.202 -0.182,0.123 -0.14,0.138 0.041,0.014 0.087,-0.038 0.046,-0.053 -0.258,0.177 -0.305,0.23 -0.668,0.641" /><path
     id="STROKE_89777853-09dd-49dd-8853-8e499587385d"
     opacity="1"
     fill="none"
     stroke="#000000"
     stroke-width="2"
     stroke-opacity="1"
     stroke-linecap="round"
     stroke-linejoin="round"
     d="m 652.431,1215.563 q -0.095,0.97 -0.108,1.432 -0.013,0.462 0.013,1.16 0.025,0.698 0.438,3.228 0.412,2.53 0.841,4.832" /><path
     id="STROKE_0768eb6a-1595-4925-84b9-2a29c15079e4"
     opacity="1"
     fill="none"
     stroke="#000000"
     stroke-width="2"
     stroke-opacity="1"
     stroke-linecap="round"
     stroke-linejoin="round"
     d="m 672.618,1215.296 -0.677,-0.195 q -0.492,-0.355 -1.354,-0.839 -0.863,-0.485 -1.249,-0.628 -0.386,-0.144 -1.465,-0.306 -1.078,-0.161 -2.163,-0.049 -1.085,0.113 -1.928,0.523 -0.843,0.411 -1.473,1.036 -0.631,0.626 -1.13,2.543 -0.499,1.917 -0.307,2.955 0.192,1.038 0.348,1.437 0.156,0.4 0.648,0.895 0.491,0.495 1.268,0.785 0.777,0.291 1.935,0.199 1.158,-0.092 5.306,-1.866" /><path
     id="STROKE_5a9b653b-b804-445d-87bf-52e5a9de357e"
     opacity="1"
     fill="none"
     stroke="#000000"
     stroke-width="2"
     stroke-opacity="1"
     stroke-linecap="round"
     stroke-linejoin="round"
     d="m 671.361,1195.24 q -0.191,0.781 -0.372,3.73 -0.181,2.95 0.963,11.067 1.144,8.117 2.671,13.09 0.115,0.025 1.766,-1.277" /><path
     id="STROKE_13da019f-0d9c-48c4-a929-b60ca7cd17f8"
     opacity="1"
     fill="none"
     stroke="#000000"
     stroke-width="2"
     stroke-opacity="1"
     stroke-linecap="round"
     stroke-linejoin="round"
     d="m 680.306,1222.245 q 0.352,-0.234 2.053,-1.83 1.7,-1.597 2.486,-3.113 0.785,-1.516 0.889,-2.657 0.105,-1.141 -0.065,-1.58 -0.17,-0.439 -0.843,-0.845 -0.672,-0.407 -1.289,-0.356 -0.616,0.051 -0.957,0.227 -0.342,0.176 -0.975,0.866 -0.633,0.689 -1.073,2.271 -0.44,1.581 -0.342,2.678 0.097,1.097 0.381,1.774 0.285,0.676 1.03,1.502 0.745,0.825 2.158,1.32 1.413,0.496 3.057,0.174 1.644,-0.323 6.207,-2.938" /><path
     id="STROKE_7689b5e1-fb56-4110-a239-fd50635a2367"
     opacity="1"
     fill="none"
     stroke="#000000"
     stroke-width="2"
     stroke-opacity="1"
     stroke-linecap="round"
     stroke-linejoin="round"
     d="m 700.238,1221.786 q -0.195,-0.158 -0.722,-0.393 -0.527,-0.235 -0.82,-0.538 -0.294,-0.303 -1.078,-2.094 -0.784,-1.792 -0.8,-3.575 -0.017,-1.783 0.262,-2.533 0.279,-0.75 0.565,-1.07 0.287,-0.321 1.017,-0.565 0.729,-0.244 1.887,-0.015 1.159,0.229 2.431,1.509 1.272,1.281 1.761,2.939 0.488,1.658 0.374,2.764 -0.114,1.106 -0.455,1.767 -0.341,0.661 -0.883,1.126 -0.542,0.465 -1.257,0.686 -0.714,0.221 -1.327,0.248 -0.612,0.028 -2.285,0.075" /><path
     id="STROKE_188f0fa9-d066-447e-83e4-d10f9a8776f7"
     opacity="1"
     fill="none"
     stroke="#000000"
     stroke-width="2"
     stroke-opacity="1"
     stroke-linecap="round"
     stroke-linejoin="round"
     d="m 731.228,1216.62 -0.285,-0.291 q -0.313,-0.924 -0.919,-2.135 -0.607,-1.211 -1.573,-2.06 -0.965,-0.849 -1.873,-1.148 -0.907,-0.299 -1.7,-0.232 -0.792,0.068 -1.192,0.298 -0.401,0.23 -0.817,0.547 -0.416,0.317 -1.103,1.808 -0.687,1.491 -0.644,3.112 0.043,1.621 0.514,2.604 0.471,0.982 1.021,1.487 0.549,0.505 0.828,0.652 0.279,0.147 0.507,0.221 0.229,0.074 0.766,0.107 0.537,0.034 0.872,-0.043 0.335,-0.078 1.182,-0.454 0.847,-0.377 1.355,-0.754 0.508,-0.376 0.839,-0.621 0.331,-0.245 1.077,-1.078 -0.039,0.207 0.019,0.212 0.058,0.01 0.303,1.398 0.245,1.392 0.768,3.833 0.523,2.44 1.085,4.63 0.562,2.189 1.448,6.049 0.886,3.861 1.008,5.886 0.122,2.025 -0.04,2.963 -0.162,0.937 -0.463,1.662 -0.3,0.725 -2.016,1.537 -1.716,0.811 -4.211,0.243 -2.495,-0.568 -3.865,-1.451 -1.37,-0.882 -1.841,-1.313 -0.471,-0.432 -1.111,-1.228 -0.639,-0.796 -1.599,-3.408" /><path
     id="STROKE_ecd73a88-e5ce-40ba-a2cc-b647940871e0"
     opacity="1"
     fill="none"
     stroke="#000000"
     stroke-width="2"
     stroke-opacity="1"
     stroke-linecap="round"
     stroke-linejoin="round"
     d="m 744.856,1216.887 q -0.02,-0.142 0.084,-0.456 0.103,-0.313 0.21,-0.57 0.107,-0.257 0.256,-0.608 0.149,-0.351 0.124,-0.486 -0.024,-0.135 -0.077,-0.94 -0.052,-0.805 -0.282,-1.494 -0.23,-0.69 -0.972,-1.42 -0.742,-0.731 -1.851,-0.847 -1.109,-0.116 -1.787,0.178 -0.679,0.294 -1.701,1.854 -1.023,1.559 -1.173,3.409 -0.151,1.849 0.017,2.69 0.169,0.841 0.788,1.79 0.619,0.948 1.547,1.222 0.928,0.275 2.112,-0.256 1.184,-0.531 2.256,-1.664 1.073,-1.133 1.317,-1.551 0.243,-0.419 0.429,-0.845 0.187,-0.425 0.033,-0.606 -0.004,-0.02 0.439,1.597 0.443,1.616 1.468,4.071 l 0.881,1.817" /><path
     id="STROKE_7995395c-08ce-4f56-9a8f-4116315cbbd8"
     opacity="1"
     fill="none"
     stroke="#000000"
     stroke-width="2"
     stroke-opacity="1"
     stroke-linecap="round"
     stroke-linejoin="round"
     d="m 753.747,1208.017 q -0.11,1.081 -0.18,1.392 -0.069,0.311 -0.179,2.414 -0.109,2.104 1.703,9.424 0.193,0.267 0.96,-1.676 0.768,-1.944 1.26,-3.313 0.491,-1.37 0.83,-1.9 0.34,-0.531 0.844,-0.656 0.242,0.052 1.125,1.396 0.884,1.343 2.75,4.566 0.325,-0.547 0.541,-1.122 0.215,-0.574 0.372,-0.983 0.156,-0.409 0.469,-1.115 0.313,-0.706 0.558,-1.055 0.245,-0.348 0.493,-0.479 0.248,-0.132 0.483,-0.126 0.236,0 0.361,0.073 0.126,0.068 0.604,0.493 0.478,0.426 3.112,8.01 0.066,0.055 0.71,1.01" /><path
     id="STROKE_c4a2e1da-6d10-445b-ba96-46f3c9ba9a92"
     opacity="1"
     fill="none"
     stroke="#000000"
     stroke-width="2"
     stroke-opacity="1"
     stroke-linecap="round"
     stroke-linejoin="round"
     d="m 779.162,1217.88 q 0.109,-0.275 0.431,-0.561 0.613,-0.408 1.671,-1.843 1.058,-1.435 1.361,-2.548 0.303,-1.113 0.277,-1.607 -0.025,-0.495 -0.127,-0.824 -0.103,-0.329 -0.561,-0.661 -0.459,-0.332 -1.019,-0.405 -0.559,-0.074 -1.671,0.348 -1.112,0.422 -2.464,2.097 -1.352,1.675 -1.865,3.446 -0.512,1.771 -0.404,2.925 0.108,1.153 0.357,1.786 0.249,0.633 1.267,1.609 1.018,0.977 2.458,1.424 1.44,0.448 3.025,0.432 1.585,-0.016 2.737,-0.431 1.152,-0.415 4.803,-2.935" /><path
     id="STROKE_3288eede-c7f5-4622-a397-f75808044ff3"
     opacity="1"
     fill="none"
     stroke="#000000"
     stroke-width="2"
     stroke-opacity="1"
     stroke-linecap="round"
     stroke-linejoin="round"
     d="m 803.667,1209.544 -1.21,-0.468 q -0.077,-0.09 -0.963,-0.859 -0.886,-0.769 -1.958,-1.295 -1.073,-0.526 -1.808,-0.564 -0.736,-0.038 -1.456,0.164 -0.719,0.202 -1.165,0.642 -0.445,0.441 -0.686,1.117 -0.24,0.677 -0.242,1.152 -0.002,0.475 0.183,1.057 0.184,0.582 0.885,1.361 0.701,0.779 2.107,1.783 1.406,1.003 2.921,1.866 1.516,0.863 2.912,1.612 1.397,0.749 2.137,1.336 0.74,0.588 1.099,1.059 0.358,0.471 0.461,0.662 0.103,0.192 0.386,1.56 0.283,1.368 0.084,2.217 -0.199,0.85 -0.594,1.271 -0.396,0.421 -1.115,0.711 -0.718,0.29 -2.108,0.502 -1.389,0.213 -3.295,-0.154 -1.905,-0.367 -3.339,-1.191 -1.434,-0.824 -2.217,-1.727 -0.784,-0.903 -2.533,-3.951" /><path
     id="STROKE_b4fe552e-a242-4808-9bfc-136f844b57e5"
     opacity="1"
     fill="none"
     stroke="#000000"
     stroke-width="2"
     stroke-opacity="1"
     stroke-linecap="round"
     stroke-linejoin="round"
     d="m 847.229,1104.276 -0.126,0.679 q -0.194,0.7 2.808,25.365 l 0.579,1.24" /><path
     id="STROKE_f5602ea9-6fa7-412a-ad2c-4db7faadfe34"
     opacity="1"
     fill="none"
     stroke="#000000"
     stroke-width="2"
     stroke-opacity="1"
     stroke-linecap="round"
     stroke-linejoin="round"
     d="m 849.032,1120.769 0.482,-0.098 q 0.975,-0.225 11.834,-1.366" /><path
     id="STROKE_e929575f-3fb5-4681-8f66-f49e0e4b557e"
     opacity="1"
     fill="none"
     stroke="#000000"
     stroke-width="2"
     stroke-opacity="1"
     stroke-linecap="round"
     stroke-linejoin="round"
     d="m 861.002,1100.904 q -0.069,0.402 0.117,5.74 0.185,5.339 0.976,10.847 0.791,5.509 1.298,8.54 0.508,3.031 1.053,6.318" /><circle
     id="STROKE_f07cd591-dd64-4b62-9862-977c97178412"
     opacity="1"
     fill="#000000"
     stroke="#000000"
     stroke-width="0.1"
     stroke-opacity="1"
     fill-opacity="1"
     cx="870.22101"
     cy="1112.026"
     r="1" /><path
     id="STROKE_44c81ba2-d623-4505-b116-c3727cd55ddf"
     opacity="1"
     fill="none"
     stroke="#000000"
     stroke-width="2"
     stroke-opacity="1"
     stroke-linecap="round"
     stroke-linejoin="round"
     d="m 871.934,1120.769 q 0.102,0.542 0.02,1.48 -0.082,0.938 0.062,2.441 0.144,1.504 0.251,2.029 0.107,0.524 0.177,0.709 0.07,0.185 0.417,1.538 0.347,1.353 0.731,3.447" /><path
     id="STROKE_624b9fb5-8a4f-410c-bf81-07e5b5b7ab23"
     opacity="1"
     fill="none"
     stroke="#000000"
     stroke-width="2"
     stroke-opacity="1"
     stroke-linecap="round"
     stroke-linejoin="round"
     d="m 877.563,1108.717 0.38,0.882 q 0.025,0.299 0.517,4.422 0.491,4.123 0.858,6.732 0.367,2.61 0.678,4.239 0.311,1.629 0.684,2.923 l 0.327,1.189" /><path
     id="STROKE_8911d94f-9520-4754-affc-bfb97370d0ba"
     opacity="1"
     fill="none"
     stroke="#000000"
     stroke-width="2"
     stroke-opacity="1"
     stroke-linecap="round"
     stroke-linejoin="round"
     d="m 887.238,1115.398 q -0.653,0.887 -0.957,1.563 -0.304,0.677 -0.601,1.362 -0.297,0.685 -0.593,1.721 -0.296,1.036 -0.14,2.587 -0.038,0.51 1.76,1.929 1.799,1.418 3.577,2.314 1.777,0.897 4.824,2.561" /><circle
     id="STROKE_848eb69b-5e5e-4eaa-a510-1cc519bbfbd4"
     opacity="1"
     fill="#000000"
     stroke="#000000"
     stroke-width="0.1"
     stroke-opacity="1"
     fill-opacity="1"
     cx="898.75201"
     cy="1113.744"
     r="1" /><path
     id="STROKE_abaafd72-0cf6-4489-9203-c4ef693dbea8"
     opacity="1"
     fill="none"
     stroke="#000000"
     stroke-width="2"
     stroke-opacity="1"
     stroke-linecap="round"
     stroke-linejoin="round"
     d="m 900.61,1121.1 3.845,9.595" /><path
     id="STROKE_3d22037d-2c64-452b-9b90-b4218d8deb2f"
     opacity="1"
     fill="none"
     stroke="#000000"
     stroke-width="2"
     stroke-opacity="1"
     stroke-linecap="round"
     stroke-linejoin="round"
     d="m 910.084,1112.955 q -0.086,0.36 -0.23,0.906 -0.153,0.868 3.21,11.559 0.097,-0.067 1.209,-1.304 1.113,-1.237 2.287,-2.35 1.174,-1.114 1.525,-1.28 0.352,-0.166 0.83,-0.159 0.477,0.01 2.359,2.226 1.882,2.218 2.33,3.45 0.448,1.233 1.238,2.834" /><path
     id="STROKE_58fddd47-c3b5-4fc0-8712-ca0ae9f07546"
     opacity="1"
     fill="none"
     stroke="#000000"
     stroke-width="2"
     stroke-opacity="1"
     stroke-linecap="round"
     stroke-linejoin="round"
     d="m 943.061,1122.754 q 0.266,-0.276 0.793,-0.011 0.527,0.266 0.503,-0.578 -0.024,-0.844 -0.338,-1.558 -0.313,-0.714 -1.183,-1.591 -0.87,-0.876 -2.332,-1.506 -1.461,-0.631 -2.957,-0.571 -1.497,0.06 -2.296,0.588 -0.8,0.529 -1.273,2.124 -0.474,1.595 -0.313,2.781 0.16,1.186 0.722,2.242 0.562,1.056 1.535,1.915 0.974,0.859 2.039,1.067 1.065,0.209 1.728,0.065 0.664,-0.144 1.623,-0.641 0.958,-0.498 1.713,-1.16 0.755,-0.662 0.977,-0.905 0.222,-0.244 0.405,-0.382 0.184,-0.139 0.182,-0.115 0.057,0.195 0.312,1.128 0.256,0.933 0.533,2.127 0.276,1.195 0.974,3.773 0.698,2.579 1.268,5.233 0.57,2.654 0.677,3.799 0.107,1.146 -0.324,3.48 -0.431,2.335 -1.859,2.925 -1.428,0.59 -2.389,0.472 -0.961,-0.117 -1.652,-0.487 -0.691,-0.37 -1.531,-1.227 -0.839,-0.857 -1.594,-2.35 -0.755,-1.492 -1.974,-5.213" /><path
     id="STROKE_1a2ea8ca-358b-45ab-a72d-6d8b2c48dc2d"
     opacity="1"
     fill="none"
     stroke="#000000"
     stroke-width="2"
     stroke-opacity="1"
     stroke-linecap="round"
     stroke-linejoin="round"
     d="m 878.292,1187.498 -0.044,0.632 q 0.072,2.13 1.238,8.568 1.165,6.439 2.552,12.948 l 0.626,1.624" /><path
     id="STROKE_8ebca09b-3bb7-41c0-8709-02ae4bf67f3f"
     opacity="1"
     fill="none"
     stroke="#000000"
     stroke-width="2"
     stroke-opacity="1"
     stroke-linecap="round"
     stroke-linejoin="round"
     d="m 878.419,1184.456 q 0.593,0.032 1.47,-0.05 0.877,-0.083 2.144,-0.176 1.268,-0.092 2.852,0.14 1.585,0.232 2.146,0.539 0.562,0.307 0.877,0.653 0.316,0.345 0.681,1.104 0.366,0.758 0.456,1.798 0.089,1.041 -0.177,2.314 -0.266,1.273 -0.513,1.937 -0.247,0.665 -0.398,1.105 -0.151,0.441 -0.713,1.563 -0.049,0.219 0.841,-0.021 0.889,-0.24 2.142,-0.367 1.253,-0.126 2.349,0.025 1.096,0.151 1.873,0.469 0.777,0.317 2.306,1.71 1.529,1.394 2.253,3.11 0.725,1.717 0.732,2.514 0.006,0.797 -0.16,1.497 -0.167,0.7 -1.4,1.87 -1.233,1.169 -4.117,2.12 -2.883,0.951 -4.739,1.001 -1.855,0.049 -2.936,-0.191 -1.081,-0.24 -1.324,-0.444 -0.242,-0.203 -1.288,-1.046" /><path
     id="STROKE_04e224df-2bca-4e17-a894-691d2d73d01b"
     opacity="1"
     fill="none"
     stroke="#000000"
     stroke-width="2"
     stroke-opacity="1"
     stroke-linecap="round"
     stroke-linejoin="round"
     d="m 908.353,1205.441 q 0.778,-0.396 3.074,-2.607 2.296,-2.21 3.063,-3.545 0.768,-1.335 0.844,-1.604 0.076,-0.269 0.071,-1.023 -0.005,-0.754 -0.283,-1.133 -0.278,-0.38 -1.219,-0.728 -0.941,-0.349 -2.087,-0.061 -1.147,0.287 -1.967,0.858 -0.82,0.57 -1.837,1.861 -1.017,1.291 -1.298,3.79 -0.281,2.499 1.463,4.091 1.744,1.593 4.263,2.14 2.518,0.546 4.466,0.375 1.949,-0.172 2.514,-0.419 0.564,-0.248 2.233,-0.939" /><path
     id="STROKE_f4412a78-3790-41ea-890c-080849448b93"
     opacity="1"
     fill="none"
     stroke="#000000"
     stroke-width="2"
     stroke-opacity="1"
     stroke-linecap="round"
     stroke-linejoin="round"
     d="m 936.684,1202.196 -0.052,-0.124 q 0.047,-0.583 -0.049,-1.578 -0.096,-0.994 -0.527,-2.321 -0.431,-1.327 -1.151,-2.003 -0.72,-0.676 -1.197,-0.919 -0.477,-0.244 -1.567,-0.459 -1.09,-0.216 -2.351,0.074 -1.262,0.29 -2.266,1.185 -1.003,0.895 -1.283,1.362 -0.279,0.467 -0.575,1.447 -0.295,0.981 -0.203,1.937 0.091,0.957 0.558,1.834 0.466,0.876 1.225,1.426 0.76,0.549 1.673,0.766 0.913,0.216 1.872,0.152 0.959,-0.063 2.463,-0.917 1.504,-0.853 2.75,-2.042 1.247,-1.188 1.772,-1.921 0.043,0.187 0.579,1.278 0.536,1.091 0.967,1.974 0.431,0.883 0.742,1.406 0.31,0.523 0.647,0.967 0.337,0.444 1.475,2.037" /><path
     id="STROKE_a14f4370-7307-42d1-b57f-cf78e4f81833"
     opacity="1"
     fill="none"
     stroke="#000000"
     stroke-width="2"
     stroke-opacity="1"
     stroke-linecap="round"
     stroke-linejoin="round"
     d="m 947.16,1180.091 q -0.45,4.084 -0.391,6.474 0.059,2.391 0.267,3.949 0.208,1.557 1.562,6.379 1.354,4.822 2.415,6.615 1.06,1.793 1.595,2.358 0.535,0.565 0.984,0.776 0.449,0.212 0.913,0.191 0.465,-0.02 0.627,-0.079 0.162,-0.059 0.543,-0.188 0.38,-0.129 5.258,-5.159" /><path
     id="STROKE_c309cb87-0f71-463e-ba33-9426e1e96513"
     opacity="1"
     fill="none"
     stroke="#000000"
     stroke-width="2"
     stroke-opacity="1"
     stroke-linecap="round"
     stroke-linejoin="round"
     d="m 943.315,1196.177 q 1.65,-0.484 8.8,-1.591" /><path
     id="STROKE_4ae8cc02-ded5-40e8-a087-a218d44309a0"
     opacity="1"
     fill="none"
     stroke="#000000"
     stroke-width="2"
     stroke-opacity="1"
     stroke-linecap="round"
     stroke-linejoin="round"
     d="m 981.776,1184.787 q -0.138,-0.271 -0.147,-0.419 -0.009,-0.147 -0.275,-1.105 -0.266,-0.958 -0.668,-1.72 -0.402,-0.762 -0.744,-1.118 -0.342,-0.357 -0.784,-0.694 -0.441,-0.337 -0.939,-0.56 -0.497,-0.224 -1.151,-0.344 -0.653,-0.12 -1.862,0.163 -1.208,0.282 -2.051,1.827 -0.843,1.544 -0.872,2.89 -0.028,1.346 0.457,2.695 0.486,1.35 1.13,2.128 0.643,0.778 1.403,1.409 0.761,0.63 2.887,1.466 2.126,0.835 4.611,1.282 2.485,0.446 5.201,1.092 2.716,0.645 4.045,1.707 1.329,1.062 1.925,3.072 0.596,2.011 0.396,3.077 -0.201,1.066 -1.422,2.24 -1.221,1.175 -3.981,1.886 -2.76,0.711 -4.739,0.525 -1.98,-0.185 -3.477,-0.807 -1.496,-0.621 -2.494,-1.469 -0.998,-0.848 -1.305,-1.366 -0.307,-0.518 -0.471,-0.955 -0.163,-0.437 -0.23,-2.14" /><path
     id="STROKE_c28ab0c5-779c-40fd-ba01-bcd41718c23d"
     opacity="1"
     fill="none"
     stroke="#000000"
     stroke-width="2"
     stroke-opacity="1"
     stroke-linecap="round"
     stroke-linejoin="round"
     d="m 1011.309,1196.838 q 0.21,-0.294 0.37,-0.49 0.16,-0.195 0.183,-0.253 0.023,-0.058 0.139,-0.255 0.054,-0.096 0.044,-0.722 -0.01,-0.626 -0.113,-1.024 -0.102,-0.397 -0.555,-1.001 -0.452,-0.605 -1.643,-1.005 -1.19,-0.4 -2.413,-0.312 -1.224,0.089 -2.106,0.521 -0.881,0.432 -1.595,1.082 -0.714,0.649 -1.363,2.278 -0.648,1.628 -0.196,3.536 0.453,1.907 1.179,2.795 0.727,0.888 1.387,1.328 0.661,0.439 1.57,0.685 0.908,0.246 2.13,-0.031 1.222,-0.277 2.548,-1.142 1.326,-0.865 2.371,-1.809 1.045,-0.943 2.013,-1.876 0.071,-0.093 0.265,0.245 0.193,0.337 0.519,0.869 0.326,0.532 0.384,0.654 0.058,0.123 0.521,0.825 0.464,0.703 1.173,1.195 0.709,0.491 1.48,0.811 0.771,0.319 3.842,0.045" /><path
     id="STROKE_300d2987-433e-4d59-8416-3174efb79e94"
     opacity="1"
     fill="none"
     stroke="#000000"
     stroke-width="2"
     stroke-opacity="1"
     stroke-linecap="round"
     stroke-linejoin="round"
     d="m 1023.297,1175.777 q 0.01,0.151 -0.255,0.926 -0.21,0.724 4.102,25.24 0.108,0.149 0.125,0.711" /><path
     id="STROKE_fd86559e-cfd2-426e-beb9-26da93974200"
     opacity="1"
     fill="none"
     stroke="#000000"
     stroke-width="2"
     stroke-opacity="1"
     stroke-linecap="round"
     stroke-linejoin="round"
     d="m 1026.686,1193.326 q 1.667,-0.307 3.119,-0.284 1.452,0.022 3.496,0.604 2.045,0.583 3.192,2.103 1.148,1.52 1.285,2.743 0.136,1.224 -0.397,2.532 -0.532,1.308 -2.034,2.096 -1.502,0.789 -2.564,0.88 -1.062,0.092 -1.813,-0.069 -0.751,-0.162 -0.958,-0.282 -0.207,-0.12 -0.756,-0.613 -0.548,-0.494 -0.912,-2.163" /><path
     id="STROKE_0cc43c44-9bf0-4b07-aa54-90f37dbfada4"
     opacity="1"
     fill="none"
     stroke="#000000"
     stroke-width="2"
     stroke-opacity="1"
     stroke-linecap="round"
     stroke-linejoin="round"
     d="m 1047.474,1201.802 q 0.13,-0.145 1.527,-0.887 1.398,-0.742 3.088,-2.23 1.689,-1.489 2.424,-2.627 0.735,-1.137 0.914,-1.866 0.179,-0.728 0.18,-0.996 0,-0.269 -0.262,-0.87 -0.263,-0.602 -1.286,-0.965 -1.023,-0.364 -1.799,-0.209 -0.777,0.156 -1.542,0.768 -0.765,0.612 -1.17,1.286 -0.406,0.674 -0.673,1.94 -0.268,1.265 0.042,2.674 0.31,1.409 1.395,2.615 1.085,1.206 2.033,1.707 0.948,0.502 2.547,0.844 1.599,0.342 4.061,0.116 2.461,-0.226 8.853,-3.617" /><path
     id="STROKE_465c1dea-ef1f-4061-a206-9c9fee2f3e59"
     opacity="1"
     fill="none"
     stroke="#000000"
     stroke-width="2"
     stroke-opacity="1"
     stroke-linecap="round"
     stroke-linejoin="round"
     d="m 1065.219,1187.37 q -0.054,0.316 -0.127,1.021 -0.074,0.705 -0.095,1.113 -0.021,0.409 0.033,1.16 0.054,0.751 0.616,3.54 0.562,2.788 1.28,7.509 -0.113,0.086 0.24,-1.935 0.353,-2.021 1.05,-4.116 0.696,-2.095 1.634,-3.457 0.937,-1.361 1.774,-2.012 0.837,-0.651 2.095,-0.932 1.259,-0.28 1.969,-0.21 0.71,0.07 2.072,0.802 1.362,0.731 2.326,1.853 0.965,1.122 2.678,4.203" /><path
     id="STROKE_cb835f94-6d87-4315-a39e-7f7aaa8ee66a"
     opacity="1"
     fill="none"
     stroke="#000000"
     stroke-width="2"
     stroke-opacity="1"
     stroke-linecap="round"
     stroke-linejoin="round"
     d="m 648.271,947.829 q -0.295,-0.335 -0.811,-1.22 -0.516,-0.884 -1.494,-1.843 -0.977,-0.959 -1.594,-1.312 -0.617,-0.353 -1.91,-0.681 -1.293,-0.329 -2.622,-0.074 -1.329,0.255 -2.558,1.028 -1.228,0.772 -3.272,3.309 -2.043,2.537 -3.184,5.851 -1.14,3.314 -1.324,6.331 -0.184,3.016 0.46,6.128 0.645,3.112 1.706,5.175 1.062,2.063 1.847,3.131 0.785,1.068 2.209,2.284 1.423,1.215 3.597,1.878 2.175,0.662 5.657,-0.446 3.483,-1.108 5.299,-2.546 1.816,-1.438 2.46,-2.108 0.644,-0.67 1.367,-1.643 0.723,-0.974 1.837,-3.046" /><path
     id="STROKE_6e08cd19-bd90-4399-af3d-267938d61654"
     opacity="1"
     fill="none"
     stroke="#000000"
     stroke-width="2"
     stroke-opacity="1"
     stroke-linecap="round"
     stroke-linejoin="round"
     d="m 658,952.932 q -0.112,0.626 -0.197,0.864 -0.228,1.256 0.85,7.775 1.079,6.518 2.049,9.621 0.969,3.102 1.368,4.008 0.399,0.906 0.503,1.058 0.103,0.153 0.792,-1.709 0.689,-1.861 1.664,-3.876 0.974,-2.014 1.662,-2.874 0.688,-0.86 1.115,-1.127 0.427,-0.267 0.878,-0.391 0.45,-0.124 0.744,-0.084 0.294,0.04 3.103,2.405 2.808,2.365 3.808,4.127 1,1.763 1.565,3.831 l 0.428,1.862" /><path
     id="STROKE_b3a3d724-283f-4a84-bc88-74a4db0c8fd1"
     opacity="1"
     fill="none"
     stroke="#000000"
     stroke-width="2"
     stroke-opacity="1"
     stroke-linecap="round"
     stroke-linejoin="round"
     d="m 693.363,972.721 q -0.315,-0.103 -1.348,-0.438 -0.242,-0.343 -0.964,-1.002 -0.723,-0.658 -1.869,-2.223 -1.146,-1.564 -1.585,-2.666 -0.439,-1.102 -0.557,-2.435 -0.118,-1.334 0.013,-2.091 0.131,-0.756 0.545,-1.524 0.414,-0.767 1.691,-1.386 1.278,-0.618 2.879,-0.346 1.601,0.273 2.662,1.049 1.061,0.776 1.662,1.54 0.6,0.764 1.324,3.019 0.725,2.255 0.395,4.605 -0.33,2.351 -1.042,3.549 -0.713,1.198 -1.348,1.741 -0.635,0.542 -1.232,0.72 -0.597,0.179 -0.833,0.178 -0.236,0 -0.677,-0.15 -0.441,-0.15 -0.851,-0.43 -0.41,-0.28 -0.845,-0.735 -0.434,-0.455 -2.793,-3.482" /><path
     id="STROKE_6613ecda-11af-43f6-b527-c1475db4040c"
     opacity="1"
     fill="none"
     stroke="#000000"
     stroke-width="2"
     stroke-opacity="1"
     stroke-linecap="round"
     stroke-linejoin="round"
     d="m 702.837,956.241 -0.083,1.099 q 0.143,1.464 1.187,5.2 1.045,3.736 1.507,5.47 0.462,1.734 0.99,4.195 0.528,2.461 0.535,3.86 -0.182,0.088 -0.308,-3.366 -0.126,-3.454 0.379,-6.596 0.505,-3.142 1.151,-4.744 0.647,-1.602 2.065,-3.02 1.417,-1.418 2.875,-2.047 1.458,-0.628 2.842,-0.837 1.384,-0.208 2.564,-0.123 1.179,0.085 3.754,0.782" /><path
     id="STROKE_24632b90-f485-4933-951c-2558ce14bc79"
     opacity="1"
     fill="none"
     stroke="#000000"
     stroke-width="2"
     stroke-opacity="1"
     stroke-linecap="round"
     stroke-linejoin="round"
     d="m 727.469,969.018 q 0.1,-0.041 1.046,0.252 0.567,-0.088 1.75,-0.866 1.183,-0.779 2.326,-2.073 1.142,-1.295 1.877,-2.577 0.735,-1.281 1.089,-2.536 0.355,-1.255 0.334,-2.034 -0.022,-0.779 -0.329,-1.44 -0.306,-0.661 -1.463,-1.194 -1.157,-0.533 -2.191,-0.468 -1.033,0.066 -1.737,0.305 -0.705,0.238 -1.944,1.187 -1.24,0.949 -2.095,2.293 -0.855,1.344 -1.269,3.548 -0.414,2.204 0.288,4.373 0.701,2.168 1.741,3.261 1.041,1.092 1.84,1.561 0.8,0.469 1.807,0.743 1.008,0.275 2.676,0.361 1.668,0.087 11.198,-3.373" /><path
     id="STROKE_4a331102-9735-481a-9539-57a11c44846b"
     opacity="1"
     fill="none"
     stroke="#000000"
     stroke-width="2"
     stroke-opacity="1"
     stroke-linecap="round"
     stroke-linejoin="round"
     d="m 757.785,955.579 -1.115,-0.85 q -0.098,-0.108 -0.681,-1.013 -0.584,-0.904 -1.014,-1.406 -0.429,-0.503 -0.777,-0.812 -0.348,-0.309 -1.267,-0.636 -0.919,-0.326 -1.763,-0.296 -0.844,0.031 -1.624,0.407 -0.779,0.376 -1.624,1.239 -0.845,0.862 -1.374,2.081 -0.529,1.22 -0.527,2.427 0.002,1.208 0.255,1.886 0.253,0.677 0.591,1.144 0.338,0.467 1.239,1.223 0.901,0.755 2.438,1.304 1.536,0.548 3.929,0.798 2.393,0.25 3.76,0.425 1.367,0.175 2.178,0.399 0.811,0.223 1.627,0.688 0.816,0.466 1.749,1.688 0.934,1.222 1.46,3.028 0.527,1.806 0.46,2.936 -0.068,1.13 -0.457,2.219 -0.39,1.089 -1.303,2.178 -0.914,1.09 -1.694,1.546 -0.779,0.456 -2.961,0.863 -2.181,0.406 -4.489,-0.053 -2.308,-0.458 -4.047,-1.407 -1.738,-0.949 -4.683,-4.126" /><path
     id="STROKE_0622be41-fd7a-401e-96bd-d55692e95af5"
     opacity="1"
     fill="none"
     stroke="#666666"
     stroke-width="5"
     stroke-opacity="1"
     stroke-linecap="round"
     stroke-linejoin="round"
     d="m 545.717,987.689 q 0.25,-0.08 6.526,-2.364 6.275,-2.284 10.434,-3.521 4.159,-1.236 6.278,-1.804 2.119,-0.569 4.105,-1.059 1.985,-0.491 6.016,-1.608 4.03,-1.116 8.242,-2.205 4.212,-1.089 8.14,-2.222 3.928,-1.133 7.168,-2.109 3.241,-0.977 4.356,-1.276 1.114,-0.299 2.438,-0.707 1.323,-0.408 7.952,-2.314" /><path
     id="STROKE_21432553-c5be-4ecb-bf12-be67ee4726fc"
     opacity="1"
     fill="none"
     stroke="#666666"
     stroke-width="5"
     stroke-opacity="1"
     stroke-linecap="round"
     stroke-linejoin="round"
     d="m 545.644,989.47 q 0.378,0.209 2.283,1.934 1.904,1.725 3.226,2.973 1.322,1.248 5.611,5.731 4.288,4.483 6.945,7.397 2.656,2.915 3.099,3.382 0.444,0.466 3.671,4.08 3.226,3.614 5.314,6.038 2.088,2.424 5.124,6.075 3.036,3.651 4.48,5.372 1.444,1.722 4.022,4.708 2.579,2.987 6.895,7.839 4.317,4.852 6.08,6.944 1.762,2.092 4.564,5.236 2.802,3.143 5.647,6.226 2.845,3.082 4.53,4.895 1.686,1.813 5.393,5.912" /><path
     id="STROKE_c47bf60b-0fe6-4818-8db7-504ddf08cae0"
     opacity="1"
     fill="none"
     stroke="#666666"
     stroke-width="5"
     stroke-opacity="1"
     stroke-linecap="round"
     stroke-linejoin="round"
     d="m 545.917,989.216 0.595,0.035 q 0.311,0.056 1.929,0.564 1.617,0.509 4.386,1.572 2.768,1.064 6.018,2.364 3.25,1.299 3.931,1.576 0.682,0.277 3.277,1.482 2.594,1.205 4.341,2.049 1.746,0.843 3.688,1.842 1.941,1 4.455,2.393 2.513,1.394 6.352,3.592 3.839,2.199 6.136,3.431 2.297,1.232 3.429,1.802 1.132,0.57 1.348,0.679 0.217,0.109 2.855,1.45 2.639,1.341 6.159,3.217 3.52,1.876 6.031,3.361 2.512,1.484 2.716,1.614 0.204,0.129 0.609,0.489 0.404,0.361 2.271,1.904" /><path
     id="STROKE_1653a2af-f05a-493c-be2f-7cbc9a1d8873"
     opacity="1"
     fill="none"
     stroke="#666666"
     stroke-width="5"
     stroke-opacity="1"
     stroke-linecap="round"
     stroke-linejoin="round"
     d="m 838.004,1119.13 -0.425,0.42 -1.014,0.707 q -0.682,0.446 -5.705,3.569 -5.023,3.123 -9.384,5.788 -4.362,2.665 -6.791,4.235 -2.429,1.569 -4.536,2.897 -2.107,1.328 -4.753,2.929 -2.646,1.601 -4.734,2.865 -2.088,1.265 -3.516,2.166 -1.427,0.901 -2.644,1.638 -1.216,0.738 -2.039,1.177 -0.822,0.439 -2.081,1.149 -1.259,0.71 -3.236,1.84 -1.977,1.13 -2.976,1.689 -1,0.56 -2.953,1.607 -1.953,1.047 -5.995,3.12" /><path
     id="STROKE_8f408348-55a7-4960-a490-8f04c677b904"
     opacity="1"
     fill="none"
     stroke="#666666"
     stroke-width="5"
     stroke-opacity="1"
     stroke-linecap="round"
     stroke-linejoin="round"
     d="m 795.354,1093.106 q 2.112,0.92 2.601,1.138 0.488,0.218 2.342,0.943 1.854,0.724 3.629,1.498 1.776,0.774 2.586,1.19 0.809,0.416 1.521,0.801 0.712,0.386 0.762,0.419 0.05,0.033 0.891,0.472 0.842,0.44 2.979,1.371 2.137,0.932 3.625,1.682 1.488,0.75 2.473,1.217 0.984,0.466 1.112,0.505 0.128,0.04 3.145,1.668 3.017,1.627 3.779,2.079 0.761,0.452 2.813,1.677 2.053,1.226 2.775,1.663 0.723,0.437 1.415,0.89 0.693,0.454 1.754,1.135 1.062,0.682 1.657,1.081 0.595,0.399 2.65,1.948" /><path
     id="STROKE_28b3183f-9824-41c6-8dfb-2129d0854cf1"
     opacity="1"
     fill="none"
     stroke="#666666"
     stroke-width="5"
     stroke-opacity="1"
     stroke-linecap="round"
     stroke-linejoin="round"
     d="m 795.311,1093.591 0.192,0.391 0.284,0.646 q 0.943,1.617 3.011,5.294 2.068,3.676 3.965,6.843 1.897,3.166 3.188,5.334 1.29,2.168 3.151,5.239 1.86,3.072 3.274,5.3 1.414,2.228 3.321,5.238 1.906,3.01 3.51,5.538 1.604,2.529 3.043,4.687 1.438,2.158 3.531,5.321 2.093,3.164 3.058,4.623 0.965,1.459 2.968,4.567 2.003,3.108 3.024,4.704 1.021,1.595 2.353,3.599 1.331,2.003 3.13,4.64 1.799,2.637 4.206,6.205 2.407,3.568 2.944,4.352 0.538,0.784 2.44,3.636 1.902,2.852 2.949,4.409 1.047,1.557 2.49,3.686 1.442,2.129 2.707,4.09 1.266,1.961 2.101,3.248 0.835,1.287 1.482,2.328 0.647,1.041 1.162,1.803 0.092,0.078 0.856,1.596" /><path
     id="STROKE_fc797648-c8a3-4d4a-91b6-9e10efa4a503"
     opacity="1"
     fill="none"
     stroke="#666666"
     stroke-width="5"
     stroke-opacity="1"
     stroke-linecap="round"
     stroke-linejoin="round"
     d="m 814.842,1216.192 0.436,0.013 2.637,-0.393 q 0.926,-0.199 6.392,-1.371 5.467,-1.173 11.479,-2.635 6.011,-1.463 9.286,-2.279 3.274,-0.817 4.68,-1.208 1.406,-0.391 2.382,-0.656 0.975,-0.265 2.068,-0.598 1.092,-0.334 1.531,-0.489 0.439,-0.156 1.233,-0.419 0.793,-0.262 1.928,-0.604 1.134,-0.342 4.556,-1.603" /><path
     id="STROKE_04bc5861-83c1-47e5-a9a4-321edfd1ebb3"
     opacity="1"
     fill="none"
     stroke="#666666"
     stroke-width="5"
     stroke-opacity="1"
     stroke-linecap="round"
     stroke-linejoin="round"
     d="m 480.514,1111.365 1.307,0.827 q 1.053,0.737 7.508,5.02 6.455,4.283 10.142,6.675 3.686,2.392 6.3,4.064 2.614,1.672 7.149,4.602 4.534,2.93 8.805,5.711 4.271,2.781 6.636,4.385 2.365,1.604 3.808,2.57 1.443,0.966 3.987,2.641 2.544,1.675 10.535,7.093 7.991,5.418 12.71,8.524 4.719,3.106 6.686,4.36 1.968,1.254 2.755,1.714 0.788,0.459 4.82,2.861 4.033,2.402 6.321,3.82 2.288,1.418 5.536,3.379 3.248,1.962 12.533,7.399 9.286,5.436 11.526,6.757 2.24,1.321 4.169,2.495 1.929,1.175 3.818,2.296 1.889,1.122 3.976,2.304 l 2.265,1.391" /><path
     id="STROKE_ca009ceb-6e7f-450f-8353-2b757d587e26"
     opacity="1"
     fill="none"
     stroke="#666666"
     stroke-width="5"
     stroke-opacity="1"
     stroke-linecap="round"
     stroke-linejoin="round"
     d="m 479.986,1109.507 q 1.777,0.533 4.25,1.318 2.473,0.786 4.768,1.48 2.294,0.694 5.413,1.603 3.118,0.91 5.369,1.554 2.251,0.644 5.741,1.697 3.49,1.053 6.122,1.983 2.633,0.93 5.786,2.02 3.153,1.089 5.95,2.021 2.798,0.932 5.945,2.067 3.148,1.134 6.597,2.295 3.448,1.162 7.605,2.612 4.157,1.451 6.087,2.136 1.93,0.686 4.295,1.476 2.365,0.789 4.054,1.395 1.688,0.605 6.405,2.258 4.717,1.652 7.513,2.577 2.795,0.926 4.688,1.564 1.892,0.638 3.784,1.293 1.892,0.654 4.162,1.42 2.271,0.766 6.652,2.182 4.38,1.416 6.559,2.118 2.178,0.703 3.158,1.017 0.98,0.314 4.629,1.519 3.649,1.205 11.996,4.09 0.434,0.251 1.734,0.775 1.299,0.523 2.546,1.009 1.246,0.486 3.324,1.439" /><path
     id="STROKE_a07b3569-345c-4cdd-b73f-544ad5401d1c"
     opacity="1"
     fill="none"
     stroke="#000000"
     stroke-width="5"
     stroke-opacity="1"
     stroke-linecap="round"
     stroke-linejoin="round"
     d="m 389.344,1033.406 0.433,-0.397 q 0.154,-0.182 1.592,-2.164 1.438,-1.981 2.502,-2.84 1.064,-0.859 1.712,-1.142 0.647,-0.282 1.219,-0.288 0.573,-0.01 1.675,0.411 1.103,0.418 1.937,0.84 0.834,0.423 1.731,0.824 0.897,0.402 1.583,0.624 0.686,0.222 1.202,0.292 0.516,0.069 1.65,-0.07 1.134,-0.138 1.702,-0.312 0.568,-0.174 1.263,-0.405 0.694,-0.231 2.279,-0.871 1.585,-0.64 2.299,-0.86 0.714,-0.22 2.081,-0.167 1.266,0.561 2.357,1.138 1.092,0.577 1.849,0.913 0.756,0.337 1.113,0.451 0.356,0.114 1.003,0.207 0.648,0.093 1.174,0.083 0.526,-0.01 1.018,-0.089 0.491,-0.081 1.266,-0.364 0.775,-0.283 2.737,-1.228 1.961,-0.944 3.158,-1.337 1.198,-0.393 2.118,-0.439 0.921,-0.045 1.358,0.08 0.437,0.126 0.708,0.21 0.271,0.085 2.715,1.356 2.445,1.272 4.73,2.458 2.284,1.187 3.423,1.462 1.138,0.275 2.15,0.306 1.012,0.032 2.694,-0.578 1.682,-0.609 4.335,-1.91 2.652,-1.3 3.971,-1.714 1.319,-0.414 1.793,-0.409 0.474,0 1.248,0.151 0.774,0.148 2.56,0.921 1.786,0.773 3.272,1.358 1.486,0.586 2.244,0.805 0.757,0.219 1.405,0.322 0.649,0.102 0.793,0.14 0.144,0.037 1.245,0.04 1.101,0 1.724,-0.03 0.624,-0.033 2.336,-0.527 1.712,-0.495 3.15,-1.047 1.438,-0.552 2.645,-1.008 1.207,-0.456 2.169,-0.77 0.961,-0.314 2.349,-0.598 1.388,-0.285 2.856,-0.359 1.467,-0.073 1.756,-0.043 0.289,0.031 0.745,0.164 0.456,0.133 2.103,0.87 1.646,0.737 2.472,1.136 0.826,0.399 1.669,0.786 0.843,0.386 2.397,1.054 1.554,0.668 2.941,1.029 1.386,0.36 2.302,0.375 0.917,0.015 1.505,-0.048 0.588,-0.062 1.816,-0.506 1.228,-0.443 1.377,-0.5 0.149,-0.058 1.78,-1.029 1.631,-0.972 4.11,-2.728 2.479,-1.755 3.575,-2.295 1.096,-0.539 1.509,-0.673 0.413,-0.134 1.582,-0.017 1.169,0.118 1.821,0.341 0.653,0.224 1.368,0.553 0.716,0.329 1.594,0.822 0.879,0.493 1.714,0.839 0.836,0.346 1.501,0.531 0.665,0.186 1.57,0.185 0.905,-10e-4 1.024,0.012 0.119,0.013 1.823,-0.772 1.703,-0.786 4.915,-3.15" /><path
     id="STROKE_a29b7b53-111c-4121-bbdb-29a16b191b8f"
     opacity="1"
     fill="none"
     stroke="#000000"
     stroke-width="5"
     stroke-opacity="1"
     stroke-linecap="round"
     stroke-linejoin="round"
     d="m 387.304,1142.772 0.714,-0.388 q 0.645,-0.657 2.921,-2.738 2.276,-2.081 4.464,-3.093 0.342,-0.148 1.791,0.887 1.448,1.036 2.317,1.773 0.87,0.737 1.341,1.035 0.472,0.297 1.025,0.551 0.554,0.255 1.182,0.29 0.628,0.035 0.984,-0.06 0.357,-0.095 1.314,-0.616 0.957,-0.522 3.252,-2.042 2.295,-1.521 2.636,-1.639 0.341,-0.117 0.821,-0.178 0.479,-0.061 1.327,0.176 0.848,0.236 2.198,0.842 1.351,0.606 2.156,0.944 0.805,0.337 1.594,0.511 0.79,0.173 1.217,0.186 0.427,0.012 1.327,-0.186 0.9,-0.198 1.267,-0.346 0.368,-0.149 0.893,-0.354 0.525,-0.205 2.295,-1.034 1.771,-0.829 2.676,-1.161 0.905,-0.332 1.319,-0.392 0.415,-0.061 0.685,-0.068 0.269,-0.01 1.026,0.073 0.757,0.081 1.807,0.411 1.05,0.329 2.094,0.666 1.044,0.336 1.526,0.456 0.483,0.121 0.86,0.19 0.377,0.069 1.668,0.065 1.291,0 3.314,-0.885 2.022,-0.882 3.508,-1.68 1.486,-0.799 2.362,-1.166 0.877,-0.366 1.814,-0.485 0.936,-0.119 1.783,-0.181 0.847,-0.063 2.113,0.329 1.267,0.391 2.047,0.703 0.78,0.312 1.498,0.576 0.719,0.264 1.411,0.484 0.692,0.219 1.954,0.351 1.263,0.132 2.568,-0.119 1.306,-0.252 2.057,-0.523 0.751,-0.272 3.199,-1.293 2.448,-1.021 3.048,-1.167 0.599,-0.146 0.978,-0.162 0.379,-0.016 1.38,0.163 1,0.179 2.314,0.542 1.314,0.364 1.672,0.454 0.357,0.089 0.906,0.165 0.549,0.075 1.24,0.045 0.69,-0.03 6.323,-2.429" /><path
     id="STROKE_176562be-71ff-4c51-a974-64c96d9d589d"
     opacity="1"
     fill="none"
     stroke="#000000"
     stroke-width="2"
     stroke-opacity="1"
     stroke-linecap="round"
     stroke-linejoin="round"
     d="m 859.832,1041.36 -0.411,-0.057 q -0.701,-0.518 -0.994,-0.669 -0.292,-0.152 -1.415,-0.69 -1.123,-0.538 -2.203,-0.82 -1.08,-0.281 -2.301,-0.241 -1.221,0.039 -2.243,0.414 -1.022,0.375 -2.239,1.359 -1.217,0.985 -1.95,2.135 -0.734,1.15 -1.38,3.815 -0.647,2.665 -0.536,5.658 0.111,2.993 0.776,4.922 0.665,1.93 1.611,3.157 0.946,1.227 1.913,1.785 0.968,0.558 2.172,0.711 1.204,0.154 2.243,-0.192 1.039,-0.346 1.85,-0.854 0.811,-0.508 1.382,-0.958 0.57,-0.451 1.986,-2.353 1.416,-1.902 1.941,-3.761 -0.07,-0.167 -0.172,-0.283 -0.103,-0.115 -0.678,-0.493 l -0.198,-0.248 q -0.059,-0.389 -4.844,-2.221 -0.095,-0.064 -0.742,-0.661" /><path
     id="STROKE_0c55139b-7ea7-4477-aa97-e9905ffd8cf9"
     opacity="1"
     fill="none"
     stroke="#000000"
     stroke-width="2"
     stroke-opacity="1"
     stroke-linecap="round"
     stroke-linejoin="round"
     d="m 866.044,1051.744 -0.019,0.506 q 0.014,0.316 0.301,2.264 0.288,1.948 1.484,4.903 0.239,0.244 1.149,1.592" /><path
     id="STROKE_1c2c7b0a-d41b-4efb-ab25-ca03fc6e8784"
     opacity="1"
     fill="none"
     stroke="#000000"
     stroke-width="2"
     stroke-opacity="1"
     stroke-linecap="round"
     stroke-linejoin="round"
     d="m 873.46,1052.609 q -0.174,0.307 -1.72,3.368 -1.546,3.062 -2.582,5.463 -1.037,2.401 -1.409,3.491 -0.372,1.09 -0.539,1.768 -0.167,0.677 -0.213,1.031 l 0.651,0.761" /><path
     id="STROKE_8d889a5d-12fc-4fb9-9f85-f2af9052d645"
     opacity="1"
     fill="none"
     stroke="#000000"
     stroke-width="2"
     stroke-opacity="1"
     stroke-linecap="round"
     stroke-linejoin="round"
     d="m 878.306,1052.215 0.075,0.176 q 0.075,0.672 1.116,10.268 0.198,-0.18 1.362,-2.081 1.164,-1.901 1.946,-2.897 0.782,-0.996 1.164,-1.232 0.381,-0.236 0.544,-0.257 0.163,-0.021 0.458,0.079 0.295,0.1 0.713,0.537 0.418,0.436 2.056,4.056 -0.011,-0.027 0.874,-1.521 0.885,-1.494 1.651,-2.547 0.767,-1.052 1.153,-1.356 0.387,-0.304 0.671,-0.43 0.284,-0.127 0.891,0.254 0.608,0.381 0.856,0.695 0.248,0.314 0.393,0.561 0.144,0.248 0.385,0.873 0.241,0.624 0.359,1.069 0.117,0.446 0.179,0.648 0.062,0.202 0.476,3.609 0.054,0.079 0.35,0.084" /><path
     id="STROKE_7ff4ed29-ee8f-44f4-b1b7-277fcaff55a4"
     opacity="1"
     fill="none"
     stroke="#666666"
     stroke-width="5"
     stroke-opacity="1"
     stroke-linecap="round"
     stroke-linejoin="round"
     d="m 794.334,1094.376 q 0.436,-0.258 2.889,-2.398 2.453,-2.141 5.354,-4.73 2.9,-2.589 5.849,-5.116 2.949,-2.528 4.37,-3.77 1.42,-1.242 3.076,-2.741 1.656,-1.5 2.801,-2.515 1.144,-1.015 2.301,-1.986 1.157,-0.972 2.204,-1.838 1.047,-0.865 2.083,-1.827 1.036,-0.961 1.976,-1.848 0.939,-0.887 1.303,-1.216 0.365,-0.329 1.669,-1.414 1.304,-1.086 2.38,-2.025 1.076,-0.94 3.467,-3.252" /></g></svg>
