<?xml version="1.0" encoding="UTF-8" standalone="no"?>
<!-- Generator: Adobe Illustrator 26.1.0, SVG Export Plug-In . SVG Version: 6.00 Build 0)  -->

<svg
   version="1.1"
   id="Layer_1"
   x="0px"
   y="0px"
   viewBox="0 0 960 480"
   style="enable-background:new 0 0 960 480;"
   xml:space="preserve"
   sodipodi:docname="pt2-dedicated-time.svg"
   inkscape:version="1.2.1 (9c6d41e410, 2022-07-14, custom)"
   xmlns:inkscape="http://www.inkscape.org/namespaces/inkscape"
   xmlns:sodipodi="http://sodipodi.sourceforge.net/DTD/sodipodi-0.dtd"
   xmlns="http://www.w3.org/2000/svg"
   xmlns:svg="http://www.w3.org/2000/svg"><defs
   id="defs7852" /><sodipodi:namedview
   id="namedview7850"
   pagecolor="#505050"
   bordercolor="#eeeeee"
   borderopacity="1"
   inkscape:showpageshadow="0"
   inkscape:pageopacity="0"
   inkscape:pagecheckerboard="0"
   inkscape:deskcolor="#505050"
   showgrid="false"
   inkscape:zoom="0.49166667"
   inkscape:cx="481.01695"
   inkscape:cy="243.05085"
   inkscape:window-width="2560"
   inkscape:window-height="1381"
   inkscape:window-x="0"
   inkscape:window-y="0"
   inkscape:window-maximized="1"
   inkscape:current-layer="Layer_1" />
<g
   id="Dedicated_tine"
   opacity="1"
   transform="matrix(1.3333333,0,0,1.3333333,-1008.2606,-595.26238)"><path
     id="STROKE_873ed58e-8863-4a72-8891-a61d0a9fb232"
     opacity="1"
     fill="none"
     stroke="#000000"
     stroke-width="5"
     stroke-opacity="1"
     stroke-linecap="round"
     stroke-linejoin="round"
     d="m 861.923,618.748 q 1.317,-0.239 4.377,-0.658 3.059,-0.419 7.274,-0.804 4.215,-0.384 6.41,-0.474 2.196,-0.09 4.131,-0.157 1.936,-0.066 5.34,-0.151 3.404,-0.085 8.592,-0.349 5.187,-0.263 8.619,-0.449 3.431,-0.185 8.182,-0.314 4.75,-0.129 11.401,-0.222 6.651,-0.093 15.147,-0.127 8.495,-0.033 10.501,-0.055 2.006,-0.022 11.601,-0.101 9.596,-0.079 11.846,-0.109 2.251,-0.03 7.19,-0.248 4.939,-0.218 8.973,-0.362 4.034,-0.145 12.831,-0.298 8.797,-0.153 10.848,-0.207 2.051,-0.054 6.587,-0.291 4.535,-0.238 7.584,-0.386 3.049,-0.148 4.296,-0.191 1.246,-0.043 4.438,-0.178 3.192,-0.135 6.99,-0.291 3.797,-0.155 8.949,-0.279 5.152,-0.123 8.849,-0.212 3.698,-0.089 7.987,-0.176 4.289,-0.086 12.838,-0.467 8.55,-0.382 13.287,-0.657 4.737,-0.275 7.385,-0.379 2.648,-0.104 9.384,-0.401 6.736,-0.298 10.138,-0.433 3.403,-0.136 7.042,-0.184 3.639,-0.047 9.418,0.123 5.779,0.171 10.72,0.292 4.941,0.121 8.241,0.043 3.3,-0.078 6.995,-0.179 3.696,-0.102 9.09,-0.25 5.394,-0.148 14.541,-0.216 9.147,-0.067 11.25,-0.074 2.104,-0.007 6.097,-0.028 3.993,-0.021 8.041,-0.077 4.047,-0.055 10.39,-0.332 6.344,-0.277 8.544,-0.32 2.2,-0.042 7.289,-0.131 5.089,-0.089 11.283,-0.254 6.193,-0.164 10.787,-0.188 4.593,-0.025 10.439,-0.052 5.845,-0.027 11.143,-0.141 5.297,-0.114 16.049,-0.208 10.751,-0.093 11.846,-0.101 1.095,-0.007 6.918,-0.171 5.824,-0.165 9.098,-0.404 3.273,-0.24 9.545,-0.31 6.271,-0.069 12.119,-0.17 5.847,-0.1 9.81,-0.161 3.963,-0.06 9.123,-0.077 5.16,-0.017 6.835,-0.119 1.674,-0.103 2.193,-0.138 0.518,-0.035 2.252,-0.486 l 0.3,-0.124 q -0.122,-0.281 -0.378,-0.578 -0.256,-0.298 -0.948,-0.795 -0.693,-0.496 -2.554,-1.457 -1.861,-0.961 -2.965,-1.526 -1.103,-0.565 -3.376,-1.66 -1.288,-0.72 -2.258,-1.175 -0.969,-0.456 -2.722,-1.215 -1.752,-0.759 -2.468,-1.042 -0.715,-0.284 -1.859,-0.752 -1.144,-0.467 -3.08,-1.278 -1.937,-0.811 -2.039,-0.865 -0.101,-0.054 -2.418,-1.003 l -2.035,-0.725" /><path
     id="STROKE_89a16799-5081-41a3-a041-c8093c0b98a1"
     opacity="1"
     fill="none"
     stroke="#000000"
     stroke-width="5"
     stroke-opacity="1"
     stroke-linecap="round"
     stroke-linejoin="round"
     d="m 880.27,599.277 q 0.015,1.252 -0.018,1.47 -0.034,0.217 0.256,7.343 0.29,7.125 0.661,10.921 0.371,3.795 0.568,5.441 0.197,1.646 0.365,2.748 0.169,1.102 0.267,1.856 0.097,0.754 0.32,2.78 0.224,2.025 0.279,2.414 0.056,0.388 0.599,3.497" /><path
     id="STROKE_3e3cbb67-89f9-4e25-aa0c-72145a5fdcf8"
     opacity="1"
     fill="none"
     stroke="#000000"
     stroke-width="5"
     stroke-opacity="1"
     stroke-linecap="round"
     stroke-linejoin="round"
     d="m 1287.838,586.42 0.077,2.795 q 0,0.417 0.311,7.551 0.315,7.134 0.506,11.392 0.191,4.258 0.32,5.884 0.129,1.627 0.454,5.852 0.325,4.225 0.542,6.106 0.217,1.881 0.359,4.056" /><path
     id="STROKE_fe9983c8-c6ef-4f2e-8299-5d187db87ba1"
     opacity="1"
     fill="none"
     stroke="#000000"
     stroke-width="2"
     stroke-opacity="1"
     stroke-linecap="round"
     stroke-linejoin="round"
     d="m 874.292,710.035 q -0.27,-0.654 -0.682,-1.353 -0.412,-0.699 -1.034,-1.38 -0.623,-0.68 -1,-0.977 -0.377,-0.297 -1.011,-0.553 -0.634,-0.257 -1.529,-0.164 -0.894,0.094 -1.416,0.399 -0.523,0.306 -1.026,0.876 -0.503,0.57 -0.769,1.143 -0.267,0.573 -0.32,0.65 -0.053,0.077 -0.263,1.522 -0.209,1.446 -0.103,2.372 0.105,0.927 0.53,2.112 0.425,1.186 0.805,1.759 0.38,0.573 0.884,1.055 0.505,0.481 0.99,0.745 0.486,0.263 1.3,0.215 0.814,-0.048 1.375,-0.348 0.561,-0.301 0.915,-0.633 0.353,-0.332 0.945,-1.168 0.593,-0.835 2.083,-5.216" /><path
     id="STROKE_59c2a7ed-6d24-464a-9e6e-a5572c46fc48"
     opacity="1"
     fill="none"
     stroke="#000000"
     stroke-width="2"
     stroke-opacity="1"
     stroke-linecap="round"
     stroke-linejoin="round"
     d="m 888.338,709.959 q -0.138,-0.014 -0.595,-0.334 -0.457,-0.321 -0.773,-0.596 -0.843,-0.626 -1.577,-0.879 -0.734,-0.254 -1.327,-0.302 -0.592,-0.048 -1.19,0.049 -0.599,0.096 -1.404,0.613 -0.805,0.516 -1.379,1.143 -0.575,0.627 -0.982,1.47 -0.406,0.842 -0.553,1.703 -0.147,0.861 -0.135,1.606 0.013,0.746 0.107,1.327 0.094,0.581 0.424,1.22 0.33,0.638 0.7,1.016 0.371,0.378 0.833,0.653 0.463,0.274 0.987,0.394 0.524,0.119 0.973,0.164 0.45,0.044 1.46,-0.378 1.01,-0.423 1.487,-0.837 0.476,-0.414 0.687,-0.661 0.211,-0.248 0.318,-0.383 0.107,-0.135 0.523,-0.961 0.415,-0.826 0.596,-1.518 0.181,-0.693 0.226,-1.02 0.044,-0.327 -0.007,-4.011" /><circle
     id="STROKE_89684cf9-c050-4781-8f8b-e77af8495ff2"
     opacity="1"
     fill="#000000"
     stroke="#000000"
     stroke-width="0.1"
     stroke-opacity="1"
     fill-opacity="1"
     cx="895.35303"
     cy="708.44397"
     r="1" /><circle
     id="STROKE_6aa86e57-79f2-43d0-8ba9-ec9e97a88222"
     opacity="1"
     fill="#000000"
     stroke="#000000"
     stroke-width="0.1"
     stroke-opacity="1"
     fill-opacity="1"
     cx="894.82397"
     cy="718.49799"
     r="1" /><path
     id="STROKE_9a1eccfd-7a79-4e3e-934f-ccfefc17f29c"
     opacity="1"
     fill="none"
     stroke="#000000"
     stroke-width="2"
     stroke-opacity="1"
     stroke-linecap="round"
     stroke-linejoin="round"
     d="m 914.027,714.527 q -0.41,-1.332 -0.929,-2.617 -0.518,-1.286 -1.305,-2.231 -0.786,-0.945 -1.551,-1.391 -0.765,-0.446 -1.475,-0.523 -0.71,-0.076 -1.395,0.06 -0.684,0.136 -1.897,1.165 -1.213,1.029 -1.71,2.087 -0.497,1.058 -0.606,2.311 -0.108,1.253 0.159,2.155 0.268,0.902 1.377,1.886 1.11,0.983 1.541,1.149 0.432,0.166 0.593,0.178 0.161,0.011 0.594,0.049 0.432,0.037 1.451,-0.448 1.019,-0.484 1.662,-0.967 0.643,-0.482 3.236,-5.37" /><path
     id="STROKE_b3e30dd6-6f9a-4651-888f-63b72db893b2"
     opacity="1"
     fill="none"
     stroke="#000000"
     stroke-width="2"
     stroke-opacity="1"
     stroke-linecap="round"
     stroke-linejoin="round"
     d="m 928.73,711.359 -0.048,-0.152 q -0.019,-0.056 -0.341,-0.941 -0.323,-0.885 -1.117,-1.786 -0.794,-0.902 -1.166,-1.121 -0.371,-0.22 -0.615,-0.357 -0.244,-0.138 -1.031,-0.288 -0.788,-0.151 -1.429,-0.023 -0.642,0.129 -1.53,0.574 -0.888,0.445 -1.924,1.317 -1.036,0.872 -1.581,1.604 -0.545,0.732 -0.71,3.733 -0.166,3 0.473,3.88 0.64,0.88 1.813,1.576 1.173,0.696 2.264,0.814 1.091,0.118 1.98,-0.242 0.889,-0.36 2.332,-1.63 1.444,-1.271 1.768,-1.789 0.324,-0.518 0.425,-0.714 0.102,-0.196 0.451,-1.148 0.349,-0.952 0.314,-5.229" /><path
     id="STROKE_df0d85de-ddee-41e5-9b68-99d6b52ab828"
     opacity="1"
     fill="none"
     stroke="#000000"
     stroke-width="2"
     stroke-opacity="1"
     stroke-linecap="round"
     stroke-linejoin="round"
     d="m 903.199,675.079 -0.121,-0.281 q -0.294,-0.555 -1.511,-2.098 -1.217,-1.542 -2.291,-2.303 -1.074,-0.761 -1.88,-0.912 -0.805,-0.151 -1.221,0.035 -0.415,0.186 -0.794,1.112 -0.379,0.926 0.169,5.254 0.548,4.328 1.248,6.894 0.699,2.566 1.622,4.255 0.104,0.12 0.149,0.252 0.045,0.131 0.13,0.633" /><path
     id="STROKE_559153bf-0979-4b82-8a54-2f7469921e83"
     opacity="1"
     fill="none"
     stroke="#000000"
     stroke-width="2"
     stroke-opacity="1"
     stroke-linecap="round"
     stroke-linejoin="round"
     d="m 892.869,681.557 q 0.986,-0.363 1.37,-0.464 0.385,-0.101 1.836,-0.366 1.451,-0.264 3.554,-0.621" /><path
     id="STROKE_22e43f6e-835e-404e-a948-1264cdfe2dbe"
     opacity="1"
     fill="none"
     stroke="#000000"
     stroke-width="2"
     stroke-opacity="1"
     stroke-linecap="round"
     stroke-linejoin="round"
     d="m 910.359,682.218 0.073,-0.308 0.498,-0.634 q 0.365,-0.565 0.51,-0.85 0.145,-0.285 0.179,-0.325 0.034,-0.039 0.154,-0.415 0.121,-0.376 0.115,-0.608 -0.005,-0.231 -0.031,-0.34 -0.026,-0.108 -0.192,-0.208 -0.166,-0.1 -0.467,-0.113 -0.302,-0.014 -0.631,0.251 -0.329,0.265 -0.589,1.075 -0.261,0.81 -0.109,1.339 0.151,0.529 0.278,0.701 0.128,0.171 0.477,0.609 0.349,0.438 1.173,0.987 0.824,0.548 2.127,0.984 1.303,0.435 3.577,0.77" /><path
     id="STROKE_5c0326d5-b4e7-47aa-8a0c-ef454890ea7d"
     opacity="1"
     fill="none"
     stroke="#000000"
     stroke-width="2"
     stroke-opacity="1"
     stroke-linecap="round"
     stroke-linejoin="round"
     d="m 917.574,669.378 0.285,0.875 0.269,1.081 q 0.165,0.372 2.409,13.065 0.084,0.349 0.08,1.128" /><path
     id="STROKE_aad1faa4-1a0f-4a1f-b1b0-3d6ff0fb8f9c"
     opacity="1"
     fill="none"
     stroke="#000000"
     stroke-width="2"
     stroke-opacity="1"
     stroke-linecap="round"
     stroke-linejoin="round"
     d="m 919.888,679.381 q 1.379,-0.166 2.316,-0.177 0.937,-0.01 1.838,0.121 0.9,0.132 1.194,0.195 0.293,0.063 0.856,0.374 0.563,0.312 1.119,0.872 0.556,0.56 0.83,1.356 0.274,0.797 0.139,1.344 -0.135,0.547 -0.611,1.072 -0.477,0.526 -0.871,0.742 -0.394,0.216 -1.254,0.483 -0.86,0.267 -3.446,0.101 -0.16,-0.073 -1.764,-0.731" /><path
     id="STROKE_6d4d4e15-7944-4b8f-9829-0b0a08c6498e"
     opacity="1"
     fill="none"
     stroke="#000000"
     stroke-width="2"
     stroke-opacity="1"
     stroke-linecap="round"
     stroke-linejoin="round"
     d="m 850.907,676.98 q 0.726,-0.685 0.912,-0.905 0.185,-0.221 0.271,-0.354 0.086,-0.133 0.667,-0.692 0.581,-0.56 1.714,-1.395 1.134,-0.835 1.71,-1.118 0.575,-0.283 1.561,-0.013 0.118,0 0.353,1.205 0.235,1.205 -0.284,3.581 -0.519,2.376 -0.889,4.453 0.009,0.113 0.505,0.253 0.497,0.14 0.988,0.25 0.492,0.109 0.85,0.235 0.358,0.125 0.658,0.319 0.299,0.194 0.52,0.602 0.22,0.408 0.384,0.876 0.164,0.469 0.267,1.656 0.103,1.186 -0.196,2.206 -0.299,1.02 -0.856,1.676 -0.556,0.656 -1.507,1.331 -0.952,0.674 -2.321,1.19 -1.37,0.515 -2.788,0.513 -1.418,-0.002 -2.536,-0.388 -0.211,0.096 -1.295,-0.388" /><path
     id="STROKE_db5930ff-2050-4f67-9eb5-5d7a7d6b30a9"
     opacity="1"
     fill="none"
     stroke="#000000"
     stroke-width="2"
     stroke-opacity="1"
     stroke-linecap="round"
     stroke-linejoin="round"
     d="m 877.598,681.689 q -0.057,-0.253 -0.118,-0.753 -0.061,-0.5 -0.399,-1.56 -0.339,-1.06 -0.539,-1.523 -0.201,-0.464 -0.818,-1.374 -0.618,-0.911 -1.493,-1.684 -0.875,-0.773 -1.748,-1.016 -0.874,-0.244 -1.748,-0.177 -0.874,0.068 -1.832,0.583 -0.957,0.516 -2.157,2.078 -1.2,1.562 -1.661,2.939 -0.461,1.376 -0.577,2.768 -0.117,1.392 0.133,3.091 0.251,1.699 0.395,2.101 0.144,0.402 0.452,0.952 0.309,0.549 1.016,1.298 0.707,0.749 1.11,1.018 0.403,0.269 0.991,0.477 0.588,0.208 1.164,0.267 0.575,0.058 0.971,0.083 0.396,0.025 1.129,-0.214 0.734,-0.239 1.434,-0.749 0.701,-0.509 0.901,-0.678 0.2,-0.169 0.945,-1.196 0.745,-1.026 1.154,-2.051 0.408,-1.025 0.523,-1.59 0.115,-0.565 0.113,-0.63 -0.002,-0.066 0.138,-1.06 0.14,-0.995 0.321,-4.251" /><path
     id="STROKE_1802b235-7f69-4ae5-8884-a2d52c4fe2e7"
     opacity="1"
     fill="none"
     stroke="#000000"
     stroke-width="2"
     stroke-opacity="1"
     stroke-linecap="round"
     stroke-linejoin="round"
     d="m 1262.097,662.295 q 0.469,-0.889 2.606,-3.238 2.138,-2.349 3.295,-3.123 1.158,-0.774 2.206,-1.084 1.048,-0.309 1.489,-0.28 0.441,0.028 0.797,0.205 0.357,0.178 0.721,0.973 0.365,0.795 0.414,0.831 0.049,0.035 0.075,1.206 0.026,1.172 -0.434,2.853 -0.46,1.682 -0.781,2.508 -0.321,0.826 -0.48,1.164 l 0.191,-0.079 q 0.347,-0.046 1.258,-0.232 0.911,-0.187 1.829,-0.188 0.918,-0.001 1.773,0.337 0.855,0.339 1.075,0.555 0.221,0.218 0.517,0.525 0.295,0.307 0.505,0.993 0.209,0.685 0.217,1.275 0.01,0.589 -0.226,1.493 -0.233,0.903 -1.013,2.123 -0.781,1.22 -2.437,2.284 -1.657,1.063 -3.723,1.526 -2.065,0.462 -3.233,0.446 -1.167,-0.015 -3.104,-0.665 -1.936,-0.649 -3.937,-1.349" /><path
     id="STROKE_08a43b35-a1f1-4df7-804c-e2fc54e6cb04"
     opacity="1"
     fill="none"
     stroke="#000000"
     stroke-width="2"
     stroke-opacity="1"
     stroke-linecap="round"
     stroke-linejoin="round"
     d="m 1286.001,650.511 -0.021,0.131 q -0.098,0.233 -0.074,0.399 0.024,0.165 -0.124,0.399 -0.166,0.312 0.239,5.111 0.404,4.8 0.777,7.837 0.374,3.038 0.627,4.793 0.252,1.756 0.456,2.44 0.203,0.685 0.279,0.75 0.077,0.064 0.355,0.448" /><path
     id="STROKE_68d48b47-4960-4d78-bc04-44ffbed1c63a"
     opacity="1"
     fill="none"
     stroke="#000000"
     stroke-width="2"
     stroke-opacity="1"
     stroke-linecap="round"
     stroke-linejoin="round"
     d="m 1312.418,656.734 q -0.172,-0.674 -0.235,-0.874 -0.064,-0.201 -0.201,-0.499 -0.138,-0.298 -0.181,-0.377 -0.043,-0.078 -0.449,-0.641 -0.406,-0.563 -1.004,-1.217 -0.599,-0.654 -1.033,-1.018 -0.433,-0.364 -0.859,-0.628 -0.427,-0.264 -0.673,-0.411 -0.247,-0.148 -1.197,-0.299 -0.951,-0.151 -1.262,-0.089 -0.311,0.062 -0.59,0.27 -0.279,0.207 -0.464,0.499 -0.184,0.292 -0.278,0.584 -0.093,0.292 -0.255,1.185 -0.162,0.892 0.556,3.89 0.717,2.998 1.831,5.803 1.113,2.806 1.635,4.101 0.521,1.296 0.938,2.32 0.417,1.024 0.8,2.397 0,0.237 0.334,1.293" /><path
     id="STROKE_387141a6-f1c6-4653-860d-1c7a11205fd7"
     opacity="1"
     fill="none"
     stroke="#000000"
     stroke-width="2"
     stroke-opacity="1"
     stroke-linecap="round"
     stroke-linejoin="round"
     d="m 1304.274,664.611 0.487,-0.122 q 0.291,-0.017 9.57,-0.604" /><path
     id="STROKE_01410581-7f09-4612-ae71-18db95123a25"
     opacity="1"
     fill="none"
     stroke="#000000"
     stroke-width="2"
     stroke-opacity="1"
     stroke-linecap="round"
     stroke-linejoin="round"
     d="m 1323.605,668.785 0.042,-0.194 q 0.341,-0.317 1.026,-1.033 0.684,-0.715 1.084,-1.32 0.399,-0.604 0.475,-0.759 0.076,-0.154 0.209,-0.761 0.134,-0.606 -0.072,-1.194 -0.205,-0.588 -0.831,-0.895 -0.626,-0.307 -1.948,-0.047 -1.322,0.26 -2.593,1.487 -1.272,1.228 -1.62,2.049 -0.348,0.822 -0.362,1.851 -0.013,1.028 0.648,2.023 0.661,0.995 1.794,1.701 1.133,0.707 3.068,1.167 1.935,0.46 4,0.302 2.065,-0.159 5.41,-1.399" /><path
     id="STROKE_e78f5698-bba0-4396-bba2-6576a20f053c"
     opacity="1"
     fill="none"
     stroke="#000000"
     stroke-width="2"
     stroke-opacity="1"
     stroke-linecap="round"
     stroke-linejoin="round"
     d="m 1334.736,652.101 q 0.1,0.428 2.824,18.924 0.147,0.373 0.363,0.312 l -0.016,0.158" /><path
     id="STROKE_15aaca2a-fbcf-4151-850d-e39e2c863d31"
     opacity="1"
     fill="none"
     stroke="#000000"
     stroke-width="2"
     stroke-opacity="1"
     stroke-linecap="round"
     stroke-linejoin="round"
     d="m 1336.449,663.555 0.977,-0.364 q 0.093,-0.033 1.099,-0.202 1.006,-0.169 2.793,-0.157 1.787,0.013 2.82,0.315 1.032,0.303 1.943,1.073 0.912,0.77 1.239,1.252 0.326,0.483 0.502,1.584 0.175,1.101 0.021,1.558 -0.153,0.457 -0.481,0.921 -0.329,0.464 -0.684,0.782 -0.356,0.319 -0.446,0.511 -0.089,0.191 -9.455,2.92" /><path
     id="STROKE_3d376498-f032-470b-ae2d-73add0d6199a"
     opacity="1"
     fill="none"
     stroke="#000000"
     stroke-width="2"
     stroke-opacity="1"
     stroke-linecap="round"
     stroke-linejoin="round"
     d="m 1280.298,701.427 q -0.015,-0.542 -0.04,-0.855 -0.026,-0.312 -0.114,-0.661 -0.088,-0.349 -0.382,-1.159 -0.294,-0.81 -0.935,-1.727 -0.64,-0.917 -1.429,-1.42 -0.789,-0.504 -1.987,-0.709 -1.198,-0.204 -2.237,0.124 -1.039,0.329 -1.768,0.922 -0.728,0.593 -1.355,1.732 -0.628,1.138 -0.73,2.463 -0.102,1.325 0.33,2.53 0.432,1.204 1.297,2.04 0.866,0.835 1.322,1.018 0.456,0.183 1.376,0.306 0.919,0.123 1.901,-0.166 0.982,-0.288 1.967,-1.005 0.984,-0.717 1.558,-1.506 0.574,-0.788 1.554,-2.665" /><path
     id="STROKE_c3455f1d-3192-46fe-8d80-00c8193cf07e"
     opacity="1"
     fill="none"
     stroke="#000000"
     stroke-width="2"
     stroke-opacity="1"
     stroke-linecap="round"
     stroke-linejoin="round"
     d="m 1296.185,699.238 -0.215,-0.528 q -0.049,-0.121 -0.607,-0.891 -0.557,-0.769 -1.438,-1.288 -0.881,-0.519 -1.573,-0.707 -0.692,-0.189 -1.515,-0.148 -0.823,0.04 -1.442,0.205 -0.62,0.164 -1.629,0.872 -1.008,0.708 -1.936,2.051 -0.928,1.343 -1.102,3.055 -0.175,1.712 0.232,2.895 0.408,1.183 0.913,1.748 0.506,0.565 1.317,0.895 0.81,0.33 1.836,0.242 1.026,-0.088 1.724,-0.385 0.697,-0.296 1.425,-0.676 0.728,-0.379 3.627,-3.166" /><path
     id="STROKE_45b65490-833a-4f75-9332-ca823763baa0"
     opacity="1"
     fill="none"
     stroke="#000000"
     stroke-width="2"
     stroke-opacity="1"
     stroke-linecap="round"
     stroke-linejoin="round"
     d="m 1303.801,697.914 -0.055,-0.127" /><circle
     id="STROKE_52dcaa1b-a7c5-4870-ba93-1e279c98c2f3"
     opacity="1"
     fill="#000000"
     stroke="#000000"
     stroke-width="0.1"
     stroke-opacity="1"
     fill-opacity="1"
     cx="1304.5291"
     cy="706.91101"
     r="1" /><path
     id="STROKE_e7064165-547e-46f5-b517-34d7fb2d117c"
     opacity="1"
     fill="none"
     stroke="#000000"
     stroke-width="2"
     stroke-opacity="1"
     stroke-linecap="round"
     stroke-linejoin="round"
     d="m 1325.918,699.632 -0.084,-0.204 q -0.021,-0.293 -0.46,-1.589 -0.44,-1.296 -0.964,-2.042 -0.523,-0.746 -1.457,-1.253 -0.933,-0.507 -1.961,-0.599 -1.029,-0.092 -2.041,0.211 -1.012,0.302 -2.589,1.687 -1.577,1.385 -2.191,3.391 -0.613,2.005 -0.539,3 0.074,0.996 0.215,1.529 0.14,0.534 0.674,1.527 0.535,0.992 1.087,1.442 0.553,0.451 1.42,0.711 0.867,0.261 2.794,-0.356 1.926,-0.617 2.955,-1.486 1.03,-0.868 1.82,-1.864 0.791,-0.996 1.996,-3.443" /><path
     id="STROKE_bc23e16f-29f5-414f-a31c-c177fffd13bc"
     opacity="1"
     fill="none"
     stroke="#000000"
     stroke-width="2"
     stroke-opacity="1"
     stroke-linecap="round"
     stroke-linejoin="round"
     d="m 1341.55,698.512 q 0.486,-0.392 0.88,-0.767 l 0.077,-0.383 q 0.017,-1.151 -0.183,-1.742 -0.199,-0.59 -0.904,-1.105 -0.706,-0.514 -2.328,-0.614 -1.623,-0.1 -2.536,0.149 -0.914,0.249 -1.979,1.077 -1.066,0.827 -1.46,1.303 -0.393,0.476 -0.99,1.636 -0.597,1.161 -0.787,2.278 -0.189,1.117 -0.033,2.358 0.155,1.241 0.507,1.869 0.352,0.627 1.254,1.273 0.902,0.646 2.396,0.773 1.495,0.127 3.157,-0.828 1.662,-0.955 3.007,-2.519 1.345,-1.564 3.165,-6.412" /><path
     id="STROKE_29f2d112-6c43-44d2-8653-69aece7fd686"
     opacity="1"
     fill="none"
     stroke="#000000"
     stroke-width="2"
     stroke-opacity="1"
     stroke-linecap="round"
     stroke-linejoin="round"
     d="m 955.216,575.78 0.036,0.659 0.167,2.069 q 0.055,1.389 0.404,6.311 0.35,4.922 0.775,9.49 0.425,4.569 0.777,7.947 0.352,3.379 0.485,4.657 0.132,1.278 0.498,3.382 0.365,2.104 0.702,3.688" /><path
     id="STROKE_8c1c102a-747b-4c0c-8aec-71e2179ae896"
     opacity="1"
     fill="none"
     stroke="#000000"
     stroke-width="2"
     stroke-opacity="1"
     stroke-linecap="round"
     stroke-linejoin="round"
     d="m 996.263,573.401 q -0.03,0.256 0.031,6.068 0.061,5.811 0.273,11.55 0.212,5.74 0.373,8.323 0.161,2.583 0.354,4.598 0.194,2.015 0.28,2.678 0.087,0.664 0.547,4.451" /><path
     id="STROKE_7fccad8a-280f-47ab-953b-a231ea5df647"
     opacity="1"
     fill="none"
     stroke="#000000"
     stroke-width="2"
     stroke-opacity="1"
     stroke-linecap="round"
     stroke-linejoin="round"
     d="m 961.829,594.78 0.009,0.254 q 0.022,0.174 -0.1,0.409 -0.145,0.084 -0.721,0.943 -0.575,0.859 -1.598,2.651 -1.024,1.792 -3.547,6.407" /><path
     id="STROKE_d4e92e2e-331f-4f4a-8aaa-75a6bd565820"
     opacity="1"
     fill="none"
     stroke="#000000"
     stroke-width="2"
     stroke-opacity="1"
     stroke-linecap="round"
     stroke-linejoin="round"
     d="m 971.704,595.251 q -0.416,0.403 -2.129,3.114 -1.713,2.711 -3.316,5.465 -1.603,2.754 -4.503,7.936 l -0.783,1.352" /><path
     id="STROKE_ca10f588-3c22-41b7-b05d-254fdbaa55f7"
     opacity="1"
     fill="none"
     stroke="#000000"
     stroke-width="2"
     stroke-opacity="1"
     stroke-linecap="round"
     stroke-linejoin="round"
     d="m 980.649,594.856 q -0.043,0.124 -0.364,0.889 -0.322,0.765 -0.542,1.093 -0.22,0.329 -1.092,1.725 -0.872,1.396 -3.265,6.028 -2.393,4.633 -3.555,6.809" /><path
     id="STROKE_5b8ab1ff-ca81-42eb-8ddf-56f923d5487c"
     opacity="1"
     fill="none"
     stroke="#000000"
     stroke-width="2"
     stroke-opacity="1"
     stroke-linecap="round"
     stroke-linejoin="round"
     d="m 989.048,598.56 q -0.091,0.096 -0.149,0.212 -0.122,0.102 -5.833,10.358 l -0.959,1.481" /><path
     id="STROKE_269d113e-0b9f-45a9-85c4-d4c6f1f998a9"
     opacity="1"
     fill="none"
     stroke="#000000"
     stroke-width="2"
     stroke-opacity="1"
     stroke-linecap="round"
     stroke-linejoin="round"
     d="m 996.136,602.861 q -0.119,0.373 -0.445,1.306 -0.326,0.933 -3.655,7.895" /><path
     id="STROKE_729b5761-971a-4cd7-bf51-01cf953c6ba5"
     opacity="1"
     fill="none"
     stroke="#000000"
     stroke-width="2"
     stroke-opacity="1"
     stroke-linecap="round"
     stroke-linejoin="round"
     d="m 1161.291,573.668 -0.081,0.496 q -0.079,0.423 -0.403,9.986 -0.324,9.563 -0.052,19.834 l 0.01,0.798" /><path
     id="STROKE_bcc65801-9fea-4eed-9d5c-007658f9ea8a"
     opacity="1"
     fill="none"
     stroke="#000000"
     stroke-width="2"
     stroke-opacity="1"
     stroke-linecap="round"
     stroke-linejoin="round"
     d="m 1213.397,572.013 -0.058,1.546 q -0.052,0.674 0.163,9.221 0.215,8.547 0.619,12.683 0.404,4.136 0.626,5.881 0.222,1.746 0.394,2.46 0.171,0.713 0.304,0.973 l 0.266,1.202" /><path
     id="STROKE_6794f356-5b61-4882-9589-3c5f0cbc9c01"
     opacity="1"
     fill="none"
     stroke="#000000"
     stroke-width="2"
     stroke-opacity="1"
     stroke-linecap="round"
     stroke-linejoin="round"
     d="m 1169.034,589.359 -0.177,0.486 q -0.103,0.163 -7.712,11.234" /><path
     id="STROKE_257044b2-2156-48be-9db0-2281b230eb41"
     opacity="1"
     fill="none"
     stroke="#000000"
     stroke-width="2"
     stroke-opacity="1"
     stroke-linecap="round"
     stroke-linejoin="round"
     d="m 1178.435,591.802 -0.623,1 q -1.741,2.249 -9.128,13.761 l -0.452,0.599" /><path
     id="STROKE_12801fe7-aea3-403b-aa50-e6923f128154"
     opacity="1"
     fill="none"
     stroke="#000000"
     stroke-width="2"
     stroke-opacity="1"
     stroke-linecap="round"
     stroke-linejoin="round"
     d="m 1191.607,590.479 -0.142,0.398 q -0.609,0.829 -6.906,14.577 l -0.567,1.645" /><path
     id="STROKE_40e4d087-c602-47a3-a16c-e9e3a90e05a7"
     opacity="1"
     fill="none"
     stroke="#000000"
     stroke-width="2"
     stroke-opacity="1"
     stroke-linecap="round"
     stroke-linejoin="round"
     d="m 1204.397,591.611 q -0.205,0.31 -2.829,4.843 -2.624,4.533 -6.317,10.377" /><path
     id="STROKE_b5f02f99-e858-4696-a903-43fa354cde7f"
     opacity="1"
     fill="none"
     stroke="#000000"
     stroke-width="2"
     stroke-opacity="1"
     stroke-linecap="round"
     stroke-linejoin="round"
     d="m 1213.47,595.518 -0.783,1.769 -5.849,10.677" /><path
     id="STROKE_8484ff42-dcdd-4171-80db-625fb8928726"
     opacity="1"
     fill="none"
     stroke="#000000"
     stroke-width="2"
     stroke-opacity="1"
     stroke-linecap="round"
     stroke-linejoin="round"
     d="m 1360.597,532.676 0.096,0.438 q -0.049,1.105 0.095,8.484 0.144,7.38 0.618,11.191 0.475,3.811 1.166,5.6 0.691,1.789 1.187,2.307 0.495,0.519 1.865,0.949 1.369,0.43 3.01,0.218 1.64,-0.212 9.107,-4.232" /><path
     id="STROKE_94f918f9-bd0b-4310-9467-8c52adbf740b"
     opacity="1"
     fill="none"
     stroke="#000000"
     stroke-width="2"
     stroke-opacity="1"
     stroke-linecap="round"
     stroke-linejoin="round"
     d="m 1354.312,545.656 q 0.106,0.002 4.546,-0.384 4.439,-0.386 14.169,-0.824 l 0.45,-0.084 1.55,-0.171" /></g></svg>
