<svg viewBox="-10 -30 220 60" xmlns="http://www.w3.org/2000/svg">
<path d="M-0.4477414,2.357865 L10.644527,4.4640846 L21.424892,6.285505 L31.907442,7.8286805 L42.144264,8.972194 L52.151237,9.859005 L61.965122,10.500447 L71.62277,10.907925 L81.16117,11.092898 L90.61747,11.0668745 L100.029015,10.841379 L109.433334,10.42794 L118.86818,9.838061 L128.37144,9.083208 L137.98122,8.174793 L147.73566,7.1241746 L157.67302,5.9426556 L167.8316,4.641491 L178.24973,3.2318974 L188.98283,1.8572849 L200.05234,0.3965622 L199.94766,-0.3965622 L188.87967,1.0639651 L178.15028,2.4381025 L167.70589,3.582259 L157.52698,4.6173444 L147.57684,5.5320754 L137.81879,6.315207 L128.21605,6.955542 L118.73182,7.4419384 L109.32916,7.7633095 L99.970985,7.9086204 L90.620026,7.8668756 L81.23883,7.6271014 L71.78973,7.1783257 L62.234875,6.509553 L52.536263,5.6097455 L42.655735,4.467806 L32.555058,3.0725694 L22.175108,1.544495 L11.492972,-0.26033482 L0.4477414,-2.357865 z" fill="black" stroke="none"/>
<g fill="none" stroke="black" stroke-width="1">
<path d="M42.4,6.72 c3.4756024,-6.951205,4.170723,-10.426807,6.951205,-13.90241"/>
<path d="M42.4,6.72 c4.4756093,8.951219,5.3707314,13.426828,8.951219,17.902437"/>
<path d="M47.397655,7.2583594 c3.5975416,-7.195083,4.31705,-10.792624,7.195083,-14.390166"/>
<path d="M47.397655,7.2583594 c4.59756,9.19512,5.5170717,13.79268,9.19512,18.39024"/>
<path d="M52.34375,7.734375 c3.7194657,-7.4389315,4.463359,-11.158397,7.4389315,-14.877863"/>
<path d="M52.34375,7.734375 c4.7195086,9.439017,5.66341,14.158526,9.439017,18.878035"/>
<path d="M57.24297,8.149453 c3.8413603,-7.6827207,4.6096325,-11.524081,7.6827207,-15.365441"/>
<path d="M57.24297,8.149453 c4.841454,9.682908,5.809745,14.524363,9.682908,19.365816"/>
<path d="M62.1,8.505 c3.9632013,-7.9264026,4.7558413,-11.889604,7.9264026,-15.852805"/>
<path d="M62.1,8.505 c4.963392,9.926784,5.95607,14.890175,9.926784,19.853567"/>
<path d="M66.91953,8.802422 c4.0849485,-8.169897,4.901938,-12.254846,8.169897,-16.339794"/>
<path d="M66.91953,8.802422 c5.085314,10.170628,6.1023765,15.25594,10.170628,20.341255"/>
<path d="M71.70625,9.043125 c4.2065396,-8.413079,5.0478473,-12.619618,8.413079,-16.826159"/>
<path d="M71.70625,9.043125 c5.207205,10.41441,6.248646,15.621614,10.41441,20.82882"/>
<path d="M76.46484,9.228516 c4.327879,-8.655758,5.1934543,-12.983636,8.655758,-17.311516"/>
<path d="M76.46484,9.228516 c5.3290396,10.658079,6.3948474,15.987118,10.658079,21.316158"/>
<path d="M81.2,9.36 c4.4488254,-8.897651,5.33859,-13.346476,8.897651,-17.795301"/>
<path d="M81.2,9.36 c5.450773,10.901546,6.5409274,16.35232,10.901546,21.803091"/>
<path d="M85.916405,9.438984 c4.5691757,-9.138351,5.483011,-13.707526,9.138351,-18.276703"/>
<path d="M85.916405,9.438984 c5.572334,11.144668,6.6868005,16.717001,11.144668,22.289335"/>
<path d="M90.61875,9.466875 c4.688642,-9.377284,5.626371,-14.065927,9.377284,-18.754568"/>
<path d="M90.61875,9.466875 c5.693607,11.387214,6.8323283,17.080822,11.387214,22.774427"/>
<path d="M95.31172,9.445078 c4.8068275,-9.613655,5.768193,-14.420483,9.613655,-19.22731"/>
<path d="M95.31172,9.445078 c5.814416,11.628832,6.977299,17.443249,11.628832,23.257664"/>
<path d="M100,9.375 c4.9231896,-9.846379,5.9078274,-14.769569,9.846379,-19.692759"/>
<path d="M100,9.375 c5.9344935,11.868987,7.1213923,17.80348,11.868987,23.737974"/>
<path d="M104.68828,9.258047 c4.9156294,-9.831259,5.898755,-14.746888,9.831259,-19.662518"/>
<path d="M104.68828,9.258047 c5.931644,11.863288,7.117973,17.794933,11.863288,23.726576"/>
<path d="M109.38125,9.095625 c4.783968,-9.567936,5.7407618,-14.351905,9.567936,-19.135872"/>
<path d="M109.38125,9.095625 c5.8055625,11.611125,6.9666753,17.416689,11.611125,23.22225"/>
<path d="M114.083595,8.889141 c4.649075,-9.29815,5.5788903,-13.947226,9.29815,-18.5963"/>
<path d="M114.083595,8.889141 c5.677545,11.35509,6.813054,17.032635,11.35509,22.71018"/>
<path d="M118.8,8.64 c4.510128,-9.020256,5.4121532,-13.530383,9.020256,-18.040512"/>
<path d="M118.8,8.64 c5.5468454,11.093691,6.656214,16.640535,11.093691,22.187382"/>
<path d="M123.53516,8.349609 c4.366159,-8.732318,5.239391,-13.098476,8.732318,-17.464636"/>
<path d="M123.53516,8.349609 c5.412489,10.824978,6.4949865,16.237467,10.824978,21.649956"/>
<path d="M128.29375,8.019375 c4.2160463,-8.432093,5.0592556,-12.648139,8.432093,-16.864185"/>
<path d="M128.29375,8.019375 c5.27322,10.54644,6.327864,15.81966,10.54644,21.09288"/>
<path d="M133.08047,7.650703 c4.0585027,-8.117005,4.8702035,-12.1755085,8.117005,-16.23401"/>
<path d="M133.08047,7.650703 c5.127442,10.254884,6.15293,15.382325,10.254884,20.509768"/>
<path d="M137.9,7.245 c3.892069,-7.784138,4.670483,-11.676208,7.784138,-15.568276"/>
<path d="M137.9,7.245 c4.9731474,9.946295,5.967777,14.919442,9.946295,19.89259"/>
<path d="M142.75703,6.803672 c3.7151113,-7.4302225,4.4581337,-11.145333,7.4302225,-14.860445"/>
<path d="M142.75703,6.803672 c4.807846,9.615692,5.7694154,14.423538,9.615692,19.231384"/>
<path d="M147.65625,6.328125 c3.5258207,-7.0516415,4.2309847,-10.577462,7.0516415,-14.103283"/>
<path d="M147.65625,6.328125 c4.6284776,9.256955,5.554173,13.885433,9.256955,18.51391"/>
<path d="M152.60234,5.8197656 c3.3222213,-6.6444426,3.9866655,-9.966663,6.6444426,-13.288885"/>
<path d="M152.60234,5.8197656 c4.4313245,8.862649,5.3175893,13.293973,8.862649,17.725298"/>
<path d="M157.6,5.28 c3.1021824,-6.204365,3.722619,-9.306547,6.204365,-12.40873"/>
<path d="M157.6,5.28 c4.211915,8.42383,5.054298,12.635745,8.42383,16.84766"/>
<path d="M162.6539,4.710234 c2.8634403,-5.7268806,3.4361284,-8.590321,5.7268806,-11.453761"/>
<path d="M162.6539,4.710234 c3.9649248,7.9298496,4.75791,11.894774,7.9298496,15.859699"/>
<path d="M167.76875,4.111875 c2.6036274,-5.207255,3.124353,-7.810882,5.207255,-10.41451"/>
<path d="M167.76875,4.111875 c3.6840746,7.3681493,4.42089,11.052224,7.3681493,14.736299"/>
<path d="M172.94922,3.4863281 c2.3203146,-4.6406293,2.7843776,-6.960944,4.6406293,-9.281259"/>
<path d="M172.94922,3.4863281 c3.3620312,6.7240624,4.0344377,10.086094,6.7240624,13.448125"/>
<path d="M178.2,2.835 c2.0110652,-4.0221305,2.4132783,-6.033196,4.0221305,-8.044261"/>
<path d="M178.2,2.835 c2.9903119,5.9806237,3.5883741,8.970936,5.9806237,11.961247"/>
<path d="M183.52579,2.159297 c1.6735029,-3.3470058,2.0082035,-5.020509,3.3470058,-6.6940117"/>
<path d="M183.52579,2.159297 c2.5591986,5.118397,3.0710382,7.6775956,5.118397,10.236794"/>
<path d="M188.93124,1.460625 c1.3053962,-2.6107924,1.5664755,-3.9161887,2.6107924,-5.221585"/>
<path d="M188.93124,1.460625 c2.057669,4.115338,2.4692028,6.1730065,4.115338,8.230676"/>
<path d="M194.4211,0.7403906 c0.904763,-1.809526,1.0857155,-2.714289,1.809526,-3.619052"/>
<path d="M194.4211,0.7403906 c1.4733474,2.9466949,1.7680169,4.4200425,2.9466949,5.8933897"/>
<path d="M200,0 c0.46999374,-0.9399875,0.5639925,-1.4099813,0.9399875,-1.879975"/>
<path d="M200,0 c0.7924887,1.5849774,0.95098644,2.3774662,1.5849774,3.1699548"/>
</g>
</svg>
