<svg xmlns="http://www.w3.org/2000/svg" width="293.889" height="640.168" viewBox="-214.092 400.396 220.417 480.126">
    <g fill="none" stroke-linecap="round" stroke-linejoin="round">
        <path stroke="#ffb424" stroke-width="2.5" d="M-198.715 470.394q-.033 1.556-.024 7.646t.097 14.688q.088 8.599.016 12.688-.073 4.09-.237 8.441t-.244 6.751l-.114 3.439q-.034 1.041-.077 2.003t-.161 4.398q-.118 3.435-.162 5.089-.043 1.654-.094 4.904-.05 3.249-.097 5.701-.046 2.451-.159 8.286-.112 5.836-.284 10.384-.173 4.549-.185 4.702t-.184 5.754q-.173 5.6-.21 10.241-.036 4.641-.028 12.697t.052 11.951l.083 7.447q.039 3.551.075 5.902t.083 7.748q.047 5.396.047 12.702-.001 7.307-.031 12.058-.03 4.752-.055 11.139t-.051 11.342-.11 9.403q-.085 4.447-.317 11.399t-.404 13.885-.258 10.541q-.087 3.61-.258 10.26t-.774 19.783-.974 24.266q-.372 11.134-.523 16.082-.15 4.948-.204 8.053t-.192 6.746q-.139 3.641-.406 10.439t-.409 12.638q-.141 5.841-.343 17.541t-.404 14.208-.852 7.084l-.555 1.198m9.929-402.493q3.496.584 5.569.88t6.245.779 7.503.698 12.67.214q9.338-.002 11.137-.086 1.798-.084 4.378-.295t7.554-.661 8.308-.657 8.872-.506q5.539-.299 15.528-.395 9.99-.095 15.29-.112t8.243-.037 9.148-.166q6.205-.145 9.802-.226t4.903-.095 4.498-.087q3.191-.074 8.938-.17t8.295-.111 6.388.025q3.84.038 6.443.097t6.222.329 5.821.441 4.655.411 4.034.532m6.686 2.176q.057.429.266 5.278.208 4.849.185 14.873t-.128 14.772q-.105 4.75-.194 7.544t-.145 6.782-.062 10.283-.178 10.79-.403 8.086q-.233 3.59-.495 7.68-.263 4.089-.401 6.286t-.378 7.289-.516 11.682q-.276 6.591-.469 11.383-.194 4.792-.292 8.002t-.304 11.051-.614 14.522q-.406 6.681-.648 9.928-.241 3.248-.593 8.381-.351 5.133-.757 14.165t-.453 16.526q-.046 7.495-.048 12.763l-.003 11.355q-.002 6.087-.007 9.236-.006 3.15.019 6.408t.119 9.848.219 10.29q.125 3.699.629 11.732t.832 14.317.613 12.186q.285 5.901.488 11.74t.355 12.145q.151 6.306.322 11.945.17 5.64.274 9.685t.158 6.6q.055 2.555.156 5.605t.262 7.126q.159 4.076.136 26.743l-.405 2.172m-201.957.331 1.478-.01.559.085 2.075.187q.128.023 4.891.127 4.763.103 6.79.094t5.612-.091q3.585-.081 5.67-.114t4.481-.062 10.956-.194q8.559-.166 13.608-.194l5.596-.032q.548-.004 6.464.032m4.048.069q3.92.081 5.773.172 1.853.092 7.13.472 5.276.379 11.158.74t10.025.63 6.336.382q2.194.114 4.544.197 2.35.084 10.389.229 8.039.144 12.166.275 4.127.13 5.968.238t3.083.228q1.243.121 3.619.326 2.375.205 9.329.243 6.953.038 10.893-.192 3.939-.23 8.323-.533t6.458-.417 3.944-.231 3.154-.182 3.122-.172 4.388-.19m-133.373-110.365q.022 2.406-.041 5.525t-.193 7.606-.111 10.281.058 8.888.066 5.495q.027 2.403.224 11.348t.313 14.046.148 9.704.087 9.399q.054 4.795.08 6.539.025 1.744.124 4.186t.256 8.217.163 6.755m47.548-108.616q.074 3.331.119 4.812.045 1.48.187 6.626.141 5.145.331 8.463m.729 3.64q3.329.125 9.515.087t7.426-.114q1.241-.075 3.516-.271t2.525-.229q.252-.034 3.92-.371t6.953-.476 4.983-.177 6.889-.1q5.19-.062 7.418-.092t11.262.174 11.676.576m-188.684-177.823q1.062-.41 2.133-.551 1.072-.141 1.423-.206t1.045-.138 4.675-.315 6.868-.336q2.888-.093 4.505-.122t3.907-.088 7.441-.177 9.799-.192 9.101-.134q4.451-.06 6.15-.075t12.543-.12q10.843-.107 12.84-.169t4.588-.224q2.591-.161 10.471-.448 7.88-.286 12.035-.38 4.155-.093 9.203-.188t13.591-.398 12.791-.416q4.25-.113 7.889-.141 3.638-.029 12.913-.004t14.206.224 7.097.329 5.014.63"/>
        <path stroke="#c9cdcb" stroke-width="5" d="m-136.602 792.824-.087.817q-.018.544-.035 3.777-.016 3.233.078 5.801t.188 3.853.136 1.935q.043.651.33 3.467.286 2.815.493 5.896.206 3.081.282 4.245m-56.88 46.742q1.523.114 3.81.117t4.071.021q1.783.017 6.701.031t9.759.099q4.842.085 7.391.199l4.12.186q1.573.071 2.846.135 1.274.063 3.151.268m11.387-266.186q.426.052 5.292.037 4.865-.016 8.295-.123t6.261-.238 6.064-.342 5.517-.424 6.525-.471 9.614-.602 7.852-.521 4.293-.263 3.838-.185 4.675-.224 3.913-.165 5.729-.119"/>
        <path stroke="#ffb424" stroke-width="2.5" d="m-33.373 670.694-.126.533q-.044.345-.128 4.319-.083 3.975-.085 6.907t-.009 4.534.011 8.117.009 7.226m.729.471 2.451.047q1.787.034 2.807.039 1.019.006 1.619-.005.599-.012 4.646.117 4.046.128 5.853.272 1.806.143 2.553.218.746.074 2.189.165m-20.661-33.698.477.124 1.021.093q3.393.192 7.027.309t9.279.31q5.646.193 6.154.233"/>
        <path stroke="#85929c" stroke-width="2.5" d="M-164.422 605.881q.045 3.639.024 12.746t-.074 11.852q-.055 2.745-.087 5.241t-.026 11.259.047 10.817l.123 6.421q.083 4.367.266 9.976m-32.594 2.52q.858-.189 1.149-.179.29.009.475.034.185.024 1.616.059 1.43.035 3.603.067t5.207.084q3.033.052 3.501.057t3.704.118l4.975.173q1.737.062 2.303.076t3.729.173m-26.217-64.609q.128 2.79.285 4.995t.305 4.786.171 2.856q.024.275.125 6.021.1 5.746-.066 11.268-.167 5.522-.301 8.443-.135 2.92-.212 5.08-.076 2.159-.221 4.966-.144 2.807-.27 5.342t-.217 3.7"/>
        <path stroke="#85929c" stroke-width="2.5" d="m-193.099 670.032.999-.246q.663.096 1.508.092l3.072-.01q2.226-.008 4.077.055 1.851.062 4.567.273t7.436 1.147q4.719.936 5.56 1.132m-24.359-59.582.288-.052.849.092 1.626.042q8.215-.065 11.937-.116 3.723-.051 6.609-.129 2.886-.077 5.036-.168m16.804-3.556-.065.353.074 3.044q-.052.2.249 4.941.302 4.74.474 7.784t.298 8.562q.127 5.517.14 7.009t.039 3.739q.025 2.249.015 4.095-.009 1.847-.032 3.89t-.126 9.196-.147 8.391q-.043 1.239-.124 2.689-.08 1.449-.205 2.545t-.316 2.545m1.111.191 3.647-.213q.191-.049 3.752-.106t6.656.107 4.985.363 3.209.398 4.442.647m1.056-71.366q-.066.436-.168 2.186-.101 1.75-.148 3.952t-.042 3.859q.006 1.656.034 3.052t.034 2.32.024 1.404.006 6.595-.217 13.798-.295 11.495q-.091 3.81-.124 5.85t-.107 5.719q-.073 3.68-.254 10.869m40.956 83.275q.441 4.862.692 6.689t.416 3.451.365 4.851l.095 2.091m27.661-16.851q.022.759 1.277 13.987l.066 2.063m14.029-73.479q-.084.411.048 5.632t.263 7.419.302 4.961q.17 2.762.264 4.606.093 1.843.276 5.281.182 3.437.252 5.487.071 2.049.198 16.887t.127 15.196.083 3.5.157 4.305l.162 2.521m-101.917 49.389 1.42.102q1.1.497 1.756.734.657.238 1.208.339.552.101 4.413.46 3.86.359 5.62.427t6.772.052q5.013-.016 7.844-.088t3.759-.124 1.451-.061 3.634-.251m1.384 1.451.262.642q.049.353.429 5.042t.596 7.997q.215 3.309.636 10.241.422 6.933.531 8.383l.206 2.717m10.258-14.89.033.389q-.052.883.884 10.456l.285 1.003m-.146-13.044 1.099-.264.614-.016 1.739.06q.161.008 4.464-.003t7.167-.055q2.863-.045 4.562-.041 1.698.004 4.709.086t3.394.106m.2-.331.05.433.057 1.752q-.05.443.183 6.351t.111 6.824m-23.375-19.801-.064-.55q-.37-1.014-.524-2.122t-.206-2.322.005-2.11.337-1.936q.281-1.04 1.196-2.478.915-1.437 1.668-1.999t1.446-.825 1.313-.325 1.15.027.881.245q.353.154.993.564t1.361 1.185q.72.776.877 1.019.158.244.277.376t1.374 3.057q1.254 2.925 2.219 8.63l.199 2.147m17.09-62.955.076.456q.146 4.486.181 6.097.035 1.61.238 6.975.204 5.365.328 8.487t.199 6.559.12 5.442.11 7.204.11 8.542.057 4.892.167 9.246q.156 7.695.201 10.565t.074 3.659.101 3.572l-.049 2.244m9.474-267.51-.082.936q-.039.68-.018 7.29.02 6.61.465 16.897t.631 14.983.31 7.143.305 6.627.429 8.481m9.602-45.47-.003 1.055q-.05.781-.028 6.403.021 5.623.104 8.223.084 2.6.093 4.357t-.048 3.539q-.056 1.781-.122 2.651-.067.87-.251 2.495m1.184-28.799.467.243q1.603.354 2.572.669.968.316 1.208.423t5.026 1.312m-9.2 25.554q.897-.51 1.426-.807.53-.298 6.262-3.355m-29.351-118.439q-.249 2.026-.415 4.106-.167 2.079-.304 4.864t-.289 9.722q-.152 6.939-.16 11.989t-.009 7.596.044 8.8q.044 6.255.005 9.992-.04 3.737-.178 6.496t-.162 3.016-.13 2.021-.315 3.49m2.788-74.141q1.18.283 1.704.384t2.622.386q2.099.283 3.021.413t2.184.276 2.378.238 2.965.286q.245.067 6.183.187t8.764-.105q2.825-.225 4.941-.538m2.386-36.803-.428.222q-2.908 1.168-4.024 1.6t-2.98 1.194q-1.862.763-3.723 1.523t-2.57 1.087-2.234 1.055m-13.974-10.791.249 4.851q-.024.38.3 4.063.323 3.683.598 6.294.275 2.612.373 4.248t.186 5.703l-.121 2.176M-32 483.823q.993.821 1.471 1.165.479.343 3.43 2.271m-2.915 24.23.35-.282q.768-.53 3.524-3.298 2.755-2.769 4.142-4.17m-2.915-14.952q.067.273.156 1.262t.071 1.173q-.018.183.364 5.649t.411 7.276m-52.99 256.264q.63.078 3.916-.274t5.828-.523 5.492-.267 12.077.001l2.274.197"/>
        <path stroke="#ffb424" stroke-width="2.5" d="m-133.982 760.08 1.115.718q.241.107 2.379.404 2.137.296 3.56.371l2.057.107q.634.033 2.031.094 1.398.062 4.284.084t6.552-.05q3.666-.073 6.722-.073 3.057-.001 5.934.04 2.878.04 3.635.045.757.006 1.667-.04t2.897-.046"/>
        <path stroke="#85929c" stroke-width="2.5" d="M-128.024 704.404q.143.732.132 2.028-.01 1.295.1 6.649.109 5.353.169 7.335l.106 3.524q.046 1.542.319 5.153t.393 5.15.378 4.948.435 5.638.299 4.412.234 6.683l.004 2.565m-1.64-56.401.445.111q5.077.15 6.082.196 1.004.045 1.385.082.382.038 2.405.077t3.081.022q1.057-.017 2.892-.108 1.834-.09 3.987-.176t3.313-.129 7.929-.279m-1.075.739q-.142 1.295-.168 3.056t-.007 3.395q.018 1.633.093 5.057.075 3.423.187 7.152t.471 9.644.637 9.506.547 6.795.422 5.191q.151 1.986.278 3.957m4.427-41.053.386-.025q5.401.935 6.564 1.244t1.45.424 1.301.653 1.507.868.81.549.837.702 1.533 1.892 1.592 2.621.784 1.915.306 1.768-.016 2.284-.591 2.412-.95 1.917-1.587 1.79-2.618 1.905-2.228 1.122-2.59.922q-1.872.637-2.422.759-.55.121-3.267.697"/>
        <path stroke="#85929c" stroke-width="2.5" d="M-85.045 716.723q.007.29-.024 4.646-.031 4.357.201 7.611.232 3.255.542 5.119t.519 2.649.376 1.161.226.982m-46.277-13.362q-.133.15-.563.405-.431.256-1.317.844t-1.009.686-1.549 1.299-2.527 2.532-1.831 2.77q-.732 1.438-.881 1.902t-.385 1.819q-.235 1.356-.169 2.698.067 1.343.443 2.872.151.437.632 1.37.481.932.801 1.378t.719.867q.4.422 1.387 1.158.986.736 1.462.992.475.256.668.378.192.123.973.458t1.908.671 1.783.538q.655.202 3.482.896m-71.236-246.843q.425-.032 1.565-.362 1.162-.162 2.623-.238t3.07-.055 2.982.036 1.566.032 4.284.077q4.091.058 9.558.154 5.468.096 5.768.108t1.898.035 4.49.11 5.975.231 8.663.129 7.328-.083 3.341-.182q1.593-.112 2.824-.219t3.548-.263 4.758-.33 5.24-.253 4.911-.057 3.205.201m3.917 1.12q.04 8.25.04 8.749.001.498.083 6.203.082 5.704.415 12.996t.595 10.914.497 7.082.325 5.208.166 4.145q.074 2.397.223 8.078l-.158 2.227"/>
        <path stroke="#85929c" stroke-width="2.5" d="m-199.279 573.595.403.106 1.68.056q.759-.006 2.463.021 1.704.026 4.245.125t2.86.144q.317.046 1.828.135t11.195.229 16.916.107 11.417-.219q4.185-.188 7.015-.466t5.213-.507q2.382-.228 5.992-.612t8.565-.685 7.439-.465 3.601-.277 2.181-.28 1.47-.251 1.093-.18q.686-.098 1.969-.226m-95.686-55.014q.816-.048 1.436-.098.621-.05 2.192.122 1.571.173 3.546.574t3.57.772q1.595.37 1.731.515 1.022.875 1.681 1.233m1.403 1.922-.238.819q-.032.338-.291 13.49l.128.784m-12.972 2.443q.836.113 1.874.118t2.776-.206 4.72-.757 5.333-1.077m-17.162 8.947q.347-.029 1.526-.897 1.345-.496 2.267-.666.922-.169 1.902-.257.981-.087 1.975-.184t1.799-.154q.804-.058 1.329-.104t1.09-.052l2.086.252m1.858 2.647q-.071.697-.108.913-.038.215-.081 3.943-.044 3.727.002 8.427l.059.83m-14.502 3.894.545-.084q.853.276 3.621.416t8.141-.732q.344-.146 1.467.146m4.5 15.22q.291 2.367.685 8.468.393 6.101 1.218 13.456.038.113.063.367t.02.488m-2.059-125.12-.077.401-.013 2.812q.033.909.197 9.715.163 8.806.221 9.38m-21.116 214.418q.687-.082 1.057-.491t.458-.391.305-.001 1.35-.25q1.132-.23 1.864-.197l.596-.198m-.201 1.197.257.717.176.575q.224 2.101.644 8.22t.509 9.319q.088 3.201.157 6.846l.088 4.784q.02 1.139.081 3.29.061 2.152.113 3.24t.268 6.083q.215 4.995.245 5.979.03.983.076 2.28.047 1.296.044 6.138t-.071 5.216m-10.731.267q.935-.024 1.373.07t1.256.137 3.043-.073 3.328-.07m48.609-120.475.59.337.593.381q.178.078 3.005.586 2.826.509 4.619.73 1.794.222 2.987.373 1.193.152 2.322.221 1.128.069 3.762.064t2.73.013 4.753-.593m94.356 53.55q.002.167-.054.159-.055-.007-.186-.01-.131-.004-.423.059-.292.062-.487.167-.195.104-.29.181-.094.076-.215.32-.12.243-.239.899t-.054 1.011.167.468.411.245l.264.005.286-.122.405-.406q.287-.362.488-.848.2-.485.583-1.059m9.947-1.59q-.279.021-.683.161-.405.141-.727.31t-.649.593-.416.713-.14.47q-.052.18.015.434.068.254.166.333.099.08.358.143.26.062.392-.013.133-.076.252-.221t.198-.291.329-.823q-.09-.079.231-.69m-9.802 11.721.038.048q-.057-.108-.203-.263t-.301-.248-.366-.096-.361.158q-.149.163-.177.414-.029.252.06.337t.424.061.581-.142.594-.729.914-1.398m7.743.14-.057.008-.328-.21q-.426-.12-.763-.158-.336-.038-.647-.003-.31.034-.422.062t-.306.258-.206.408q-.013.177-.011.272.001.095.075.178t.25.152.316.083.378-.02.42-.152q.181-.12.528-.418t.846-.664m-9.875 13.439q-.008.247.076 4.797.085 4.55.44 6.776t.802 3.246q.448 1.02.864 1.531l.405.318q.672.252 2.071.233t2.274-.501q.876-.482 1.413-1.073.537-.59.717-.85t.654-1.348.654-1.863.276-2.034.018-2.25-.431-2.23-.707-2.029-.478-.984-.691-.707-1.246-.905-1.434-.622q-1.57-.344-2.267-.215-.481.219-.955.522-.266.123-2.382 2.707m-84.7 104.861q-.456-.238-1.113-.604-.623-.201-1.587-.43-.965-.228-1.896-.326-.932-.098-1.975-.028t-2.088.292-2.108.748q-1.065.526-1.554 1.015t-1.299 1.751-1.154 2.28-.493 2.496q-.148 1.478.085 3.091.234 1.612.626 2.639.393 1.027 1.101 2.045.707 1.018.931 1.211t1.178.686q.954.492 1.671.739.717.248 2.553.445 1.837.196 3.499-.135 1.662-.332 3.126-1.189 1.464-.856 2.01-1.406t.925-1.134.541-.962.424-1.977.212-2.287-.331-1.859-.543-1.843q-.263-.671-.485-1.14-.223-.469-.621-1.126t-.671-1.064l-1.191-1.78-1.03-1.344m68.612-276.838.866-.067 1.51-.195q3.118-.21 9.54-.807"/>
        <path stroke="#ffb424" stroke-width="2.5" d="M-198.75 407.574q.019.445.04 3.799m.074 10.002.378 6.792m.692 9.982q.246 6.694.221 8.171m-.167 10q-.018 1.094-.097 3.702-.078 2.609-.54 10.112m.583-63.298.698.282 1.417.381q.229.096 1.867.411t3.525.765q1.888.451 3.999.935t4.777.957m9.919 1.599q4.995.628 5.679.722.684.095 4.472.396 3.787.301 4.402.334m10.149.704q3.364.281 7.692.609t8.221.536m9.996.593q4.37.326 10.146.797t7.003.576m10.001.861q3.308.291 4.459.361 1.15.069 4.136.298 2.985.229 5.473.466t5.426.491m9.961.991q1.106.113 6.534.427 5.427.313 7.297.441m9.992.767q1.766.137 4.493.426 2.726.289 4.302.514t6.46.8m9.963 1.118q3.884.407 5.446.585 1.562.179 2.733.334 1.17.156 1.341.18.17.024 2.509.603m1.002-.522q.067.26.165.806.097.545.176 1.923t.133 2.721q.054 1.342.074 2.209m.161 10.041q.08 6.287.093 8.767m.073 10.026q.005.581-.094 3.931l-.453 2.869"/>
        <path stroke="#c9cdcb" stroke-width="5" d="M-137.953 469.994q.328-.034.621.055.292.088 2.73.343 1.695.184 5.127.174t6.446-.106 4.807-.188 3.056-.216 2.703-.235q1.439-.111 2.894-.217 1.454-.106 3.659-.317l.459-.082"/>
        <path stroke="#85929c" stroke-width="2.5" d="m-168.889 476.548.159.969.689 6.74.081 1.034m.401-1.324q2.774-.352 2.813-.367t3.35-.344q3.312-.328 5.862-.551 2.549-.223 3.902-.474t3.604-.516m-.93-5.625q.005.375.149.372.145-.002.135.015t.292 1.985q.303 1.967.426 2.922m119.104 382.169q-.199 3.345-.401 4.835m1.184-5.955q.336.033 1.614-.186t1.814-.338q.535-.12 2.204-.294t3.653-.075 3.488.396q.642.052 3.333 4.744l.383.652"/>
        <path stroke="#85929c" stroke-width="2.5" d="m-23.295 851.769-.021.412q-.051.304.207 8.448l.069 1.206"/>
        <path stroke="#3697bd" stroke-width="5" d="M-181.045 471.185q.728.083 8.328.139t10.945-.021 11.637-.317l2.795-.195m47.752-1.464 14.546-.017q.709.006 3.61-.006 2.901-.011 4.694-.021 1.792-.01 4.795.001l4.348.018q1.346.007 2.996.033t6.651.033q5.001.006 6.49-.014t5.48-.055q3.992-.035 10.288-.118t9.979-.197 7.161-.319"/>
    </g>
</svg>
