<svg xmlns="http://www.w3.org/2000/svg" width="1063.252" height="847.817" viewBox="-214.42 454.723 797.439 635.863">
    <g fill="none" stroke-linecap="round" stroke-linejoin="round" stroke-width="5">
        <path stroke="#ffe15c" d="M.451 468.514q-.014 1.554-.077 4.146-.064 2.592-.074 3.489t-.005 2.598q.003 1.702.062 5.442t.072 6.185l.013 2.546m-.882 50.959q-.015 2.817-.038 9.626l-.03 8.958q-.007 2.15-.078 6.387-.072 4.238-.146 6.949-.074 2.712-.083 3.955t-.043 3.345q-.033 2.102-.077 4.346t-.093 7.442-.095 9.341q-.047 4.145-.113 8.249-.065 4.104-.08 8.102t-.012 6.453q.002 2.455.053 6.197t.084 10.24.026 9.75-.016 5.601-.098 7.399-.184 9.29q-.094 4.242-.199 6.587t-.257 6.639l-.072 8.103.074 5.897.07 4.894-.016.386m1.129 1.399.157.099q.878.741 2.443 2.2t4.912 4.625m45.491 44.474q1.429 1.267 3.019 2.682t4.229 3.645m2.532 1.781q.833-.281 1.159-.306.325-.025 2.391-.237 2.066-.213 4.126-.346t4.219-.223q2.157-.089 2.497-.108.341-.019 1.79-.012t2.54.005 2.609-.032m53.151-1.212q.46.001 2.802.058 2.342.056 7.483.307t6.996.35 2.248.111 2.279.101 8.783.249q6.898.159 8.4.184t3.705.085 4.203.098 2.994.079 4.922.148q3.929.105 5.674.174t9.032.014q7.288-.056 11.533.019 4.244.074 8.842.126t11.492.11 8.346.077 4.101.07 10.694.132 11.792.131q3.747.048 11.938.077t10.071.018 4.88.005l2.143-.048M101.311 469.901q.16 9.73.219 11.534t.218 5.396.428 8.766.41 7.688q.143 2.514.204 3.839.062 1.326.093 1.862.031.537.066.79.035.252.192 3.583t.207 7.541q.051 4.211.049 5.686t-.046 3.654q-.043 2.18-.062 2.645m-1.197 51.806q-.132 4.67-.137 4.966t-.076 2.019q-.07 1.723-.237 3.939-.167 2.215-.347 6.026-.181 3.811-.333 7.425t-.235 9.201q-.081 5.587-.123 10.835-.042 5.247-.095 8.901-.054 3.654-.075 6.628l-.07 10.109q-.048 7.135-.102 8.833t-.081 4.788m199.316 5.039q.064 2.439.14 6.082t.16 5.938.122 3.745.215 3.742m2.145 50.256q-.1 3.228-.196 6.155t-.235 6.811-.235 5.601-.394 4.189l-.392 2.607M.596 469.113q1.104.118 1.968.185.865.067 2.291.048 1.427-.018 4.766-.085t5.423-.153 5.409-.184q3.325-.097 7.172-.227t5.438-.151q1.59-.02 2.748-.009 1.157.012 4.395.006 3.238-.005 9.016-.093 5.777-.088 8.813-.231t3.23-.159 1.628-.068 3.215-.079 2.47-.023.773.02 2.17.011 8.019-.077 7.958-.131 2.115-.053 3.055-.119 7.841-.019m1.258-.064q.314.077 1.245.135.931.057 3.932.086t4.503.035 3.217-.04 5.271-.093q3.555-.045 4.952-.041t4.772.005q3.376.001 5.661.015t5.464.097q3.18.082 7.605.331t5.331.286 1.057.06 3.819.026q3.669.003 5.183-.077 1.514-.079 4.567-.265 3.053-.187 4.241-.247 1.189-.061 3.919-.256t4.231-.267q1.502-.071 2.537-.142 1.035-.072 3.333-.156t3.601-.122l3.545-.101q2.243-.063 5.873-.105t6.45-.055 3.709-.015 3.439-.061 4.155-.131q1.608-.073 1.72-.068.111.006 2.209-.101 2.097-.106 8.586-.188 6.488-.083 9.673.01t6.735.261 4.045.196 4.237.186 5.891.212q2.151.055 4.637.116 2.486.06 3.439.061t1.797.013 2.888-.003q2.045-.015 4.163-.13 2.118-.116 9.768-.387 7.649-.271 8.895-.34 1.246-.068 4.492-.471m-1.13.408q.048 1.34.024 2.822-.025 1.481-.075 3.034t-.159 5.884q-.11 4.332-.15 9.677t-.005 7.995.147 5.788.147 4.198.153 3.139.151 3.036.165 3.697.203 7.69.053 7.941-.046 6.436-.06 14.353q-.029 10.909-.029 15.71t.05 10.094.096 7.746.174 5.89q.13 3.435.311 8.631t.327 9.449.355 9.396.403 9.094.245 4.899.083 1.836q.031.888.179 4.588.147 3.701.251 9.014.103 5.312-.267 22.492l-.266 1.935m-1.257-204.619.522.009q.721.127 1.271.161t1.607.045q1.057.01 1.48.017.422.007 1.214-.029.791-.036 1.772-.15.982-.114 2.573-.206 1.592-.092 3.892-.058t5.716.307 5.02.338 2.934.068 4.712-.205q3.381-.209 4.77-.307 1.388-.097 3.709-.241 2.321-.143 4.481-.268t4.023-.347 3.982-.35 3.855-.136q1.735-.007 3.815.063t4.463.208 5.415.326 6.019.392 4.121.286q1.134.08 1.995.127.861.046 6.593.168 5.732.121 8.081.125t4.456-.029q2.106-.033 9.547-.094t11.335-.119 4.946-.083 2.857-.102 4.699-.183 9.279-.242 11.385-.226 6.402-.123q1.403-.033 3.8-.132 2.396-.098 4.242-.148t10.463-.259 10.568-.311 3.674-.246 3.048-.295 2.566-.194m.728 2.647-.064 3.609q.013.307-.17 6.569-.183 6.263-.381 10.083t-.344 6.463-.249 5.083l-.227 5.434q-.125 2.994-.132 3.344-.006.349-.168 4.451-.163 4.102-.371 8.631t-.345 9.228l-.208 7.144q-.071 2.445-.123 5.434-.051 2.988-.331 25.5l-.075 1.164"/>
        <path stroke="#ffe15c" d="m499.009 569.045.215-.057 8.03-.397q7.023-.515 8.409-.582t2.878-.124 2.78-.114l2.887-.131q1.598-.071 5.284-.108 3.685-.036 4.831-.042t7.587.211q5.746.36 7.361.526 1.616.166 1.935.19.32.024 2.853.429l1.499.242 2.772.555M242.795 771.93l-.101 1.437-.072 5.969.021 3.088q.016 3.473.071 7.121.056 3.648.129 25.551t.073 28.247l.001 8.595q0 2.249-.031 7.7-.032 5.45-.151 10.595-.12 5.145-.206 8.645-.087 3.501-.235 6.991l-.238 5.638q-.09 2.146-.173 4.793-.084 2.647-.154 4.354t-.13 2.741-.182 3.686q-.122 2.651-.163 3.949t-.127 3.186q-.084 1.888-.21 4.582t-.231 6.249q-.106 3.553-.159 6.004-.052 2.451-.108 4.4-.055 1.948-.084 3.939-.03 1.99-.073 4.144t-.102 4.895q-.058 2.741-.031 7.485.026 4.744.058 6.103.033 1.36.082 2.452.05 1.092.173 3.08t.379 6.678q.257 4.69.348 7.237.092 2.547.209 5.686t.149 4.646.466 14.811m92.122 2.165q7.687.271 11.18.356t5.539.122q2.047.039 3.449.061t4.244.132 6.835.212 9.6.177 8.304.1 7.543.028 6.971-.055 2.832-.068 2.798-.156 3.071-.235 2.574-.174 2.089-.119q.494-.036 4.18-.248 3.685-.213 4.981-.285 1.296-.073 5.884-.288 4.589-.216 7.179-.4 2.591-.185 4.978-.382 2.388-.196 3.775-.293t1.833-.115 1.898-.095 1.645-.098q.192-.019 3.138-.132 2.947-.112 5.691-.177t9.94-.142l8.803-.093q1.605-.016 5.654.01t8.13.151 6.802.341 4.262.349 3.47.323 1.969.184 1.562.147 4.582.395 7.725.4 4.695.152 3.041.015q3.012.023 4.973.04t3.202-.031 3.198-.209 5.007-.341 6.77-.469q3.718-.289 5.366-.501 3.188-.533 5.676-.928m-.656-435.975q.093.355.356 8.652t.281 13.523.038 12.871l.028 10.092q.007 2.446.049 4.649.041 2.204.02 4.901t-.036 4.897-.027 2.844-.05 4.202-.056 7.001-.043 6.739q-.023 3.296-.061 7.501t-.057 6.502-.023 3.192-.082 5.645q-.08 4.751-.121 8.158-.04 3.408-.052 6.456t-.012 10.943q-.001 7.896.007 11.09t.016 4.407.025 40.251.032 44.602.002 18.709-.025 15.497-.041 5.343-.025 9.594q.006 6.604.083 11.454t.12 8.044q.043 3.193.097 5.994.053 2.8.1 5.901t.096 5.145.13 5.192.204 6.352.247 6.6.264 8.738.193 7.697q.051 2.355.115 7.9.064 5.544.129 10.292.065 4.747.172 10.199t.128 23.617-.067 21.084-.134 3.83q-.047.91-.585 5.98.009.091-.451 1.048m-319.845 64.376q-.828.126-2.999.379-2.171.252-5.092.494-2.922.243-6.806.538t-9.72.442-8.975.163-5.93.038-4.797-.028-8.798-.117-12.391-.162-8.735-.161q-3.137-.065-4.792-.049-1.654.015-9.496.02t-12.247.03-7.541.109q-3.137.085-7.442.132t-6.356.074-7.179-.015q-5.128-.044-6.95-.076-1.821-.032-3.396-.099-1.574-.066-4.218-.22t-3.364-.2-2.431-.218-2.947-.345-1.774-.275q-.54-.102-2.437-.47m-284.67-499.132q-.057.546-.22 9.513-.163 8.966-.145 17.158.017 8.191.03 9.101t.043 4.053.115 7.15q.086 4.007.123 6.853t.041 7.393-.034 7.792-.202 6.951-.29 7.636q-.126 3.932-.269 9.325t-.253 10.478-.222 12.251-.197 11.52q-.083 4.353-.112 6.255t-.21 8.388-.289 11.583q-.106 5.098-.13 7.549t-.065 6.352-.083 10.201-.059 11.546-.023 12.129q-.005 6.883-.007 12.89l-.004 13.435-.002 13.197-.004 11.938q-.003 6.169-.009 8.562-.006 2.394-.016 5.198t-.177 11.55q-.166 8.745-.319 12.842-.152 4.096-.293 6.64t-.236 8.879-.115 13.687-.027 10.695q-.008 3.344-.04 8.225-.033 4.88-.041 9.916-.008 5.035-.011 9.257t-.003 9.309l.001 9.28.004 9.143q.004 4.95.017 9.489l.026 8.883q.012 4.344.03 8.092t.111 11.542.228 19.995.624 52.079m286.063 1.372-.322.016q-3.115.24-4.938.257-1.824.018-3.421.05t-3.66.06q-3.277.103-7.1.2-3.823.096-4.921.136-1.098.039-3.092.08-1.994.04-4.436.035t-4.437-.096-4.07-.167-4.171-.206-3.246-.183q-1.152-.052-2.194-.085t-7.026-.153-8.433-.164q-2.448-.043-4.695-.129-2.246-.087-3.542-.147t-5.084-.118-4.894-.054q-1.107.004-1.802-.002t-3.195.051q-2.498.058-9.131.394-6.634.336-9.92.541t-6.502.519q-3.217.313-7.156.582-3.94.269-5.787.399-1.848.129-5.421.388-3.574.258-5.563.299-1.99.042-4.182.056t-4.285-.029-3.438-.084-2.882-.157-2.428-.206-2.735-.269-10.626-1.081q-8.784-.902-13.164-1.308-4.379-.405-6.101-.485t-5.307-.152q-3.585-.071-9.606-.16t-11.031-.108q-5.01-.02-11.008.055-5.997.074-9.503.115t-5.043.076-4.991.071q-3.455.036-7.401.074t-5.519.04-4.66-.036-8.211-.113-7.864-.128-3.274-.094l-3.28-.259m2.557-494.536q1.349-.227 1.768-.237.418-.011 1.798.041l1.836-.097 2.767-.219q5.204-.719 6.713-.922t1.905-.239q.395-.035 1.767-.207 1.373-.173 5.381-.556 4.007-.384 9.338-.705t9.628-.45 8.794-.214 8.942-.269 8.948-.361q4.505-.176 12.291-.461t11.879-.35 9.139-.093l10.858-.062q5.813-.034 11.45-.049t7.934-.009q2.298.006 4.345.092t4.436.17q2.391.085 8.227.184t10.868.299 10.454.491q5.424.29 10.107.411 4.684.121 9.471.236"/>
        <path stroke="#ffe15c" d="M-201.026 706.377q.684.005 1.293.184.608.18 1.713.343 5.984.42 9.223.408t6.289-.121q3.051-.109 4.747-.151t3.788-.06q2.093-.02 4.027.002 1.933.023 4.225.098t3.153.103 1.995.112 4.621.273 6.973.444 4.977.363q1.491.106 7.54.29t11.439.155 6.029-.059 2.377-.098m51.386-1.848q4.165-.1 6.118-.123 1.953-.024 5.588-.116 3.634-.093 6.776-.111t4.401-.02 5.193.119 6.025.213 3.93.134q1.84.043 7.34.164t8.597.213 4.401.208 3.968.408m106.146-81.169 1.012-.391 1.621-.285q4.596-.502 8.998-.741 4.402-.24 9.104-.221t6.497.058q1.797.038 2.889.043l8.59.047q7.498.042 10.098.043t7.601.031q5.002.029 10.497.087t9.251.026 6.401-.088 5.433-.206q2.79-.149 5.972-.327 3.181-.178 6.228-.285 3.048-.108 9.185-.397t9.334-.362 7.739-.243q4.541-.169 9.535-.311t8.847-.166 11.597-.001 14.179.288 11.806.752 8.625.992l1.499.265 2.205.54M99.936 668.909q1.536-.081 2.207-.044 2.364-.116 3.266-.141.901-.025 4.263-.213t7.103-.316 4.636-.146 3.435-.122 5.04-.205q2.499-.099 5.242-.154t8.191-.075q5.45-.02 6.457-.017 1.007.004 2.943.043 1.937.04 5.244.085 3.308.046 4.698.075 1.39.03 1.878.044m70.31-.175q.066-.003 4.354-.081 4.288-.077 8.882-.089 4.595-.012 12.285.223 7.691.234 11.236.382t9.336.382 6.547.284 2.83.256 4.786.331 3.192.153 3.597.054M20.026 808.587q.397-.257 1.38-1.187.983-.929 3.367-3.283t3.33-3.296 4.474-4.539 7.119-6.95q3.589-3.355 5.031-4.625t15.016-14.984m-40.792 41.308.253 1.696q.304 4.925.506 12.628t.271 11.487.244 7.583.348 10.739l.266 10.632q.093 3.692.153 6.337t.35 9.591.366 9.988.156 7.1.12 8.605.052 6.655.051 5.026.142 6.902.286 10.005.301 9.995.199 6.863.156 4.923.158 5.147.214 10.265q.129 7.153.188 12.716t-.277 19.397q-.334 13.834-1.162 34.759t-1.009 25.643m220.92-54.711q-.08.669-.098 2.556-.018 1.886.014 5.444.032 3.559.041 8.052.009 4.494.003 8.47t-.087 10.394-.045 18.576l.044 1.521m157.066-55.612q.198.938.464 6.838t.55 11.354.43 8.15.347 5.633.336 4.705q.134 1.769.266 3.719t.243 3.967q.112 2.017.256 4.392t.22 3.577.055 4.461l-.124 1.794m-160.583-1.858.408-.053 5.548.02q5.208.124 7.393.158t14.182.113q11.998.078 13.689.086t6.384.175q4.694.167 8.933.404 4.239.236 4.89.284t7.791.243q7.141.195 19.03-.163t17.825-.677l9.126-.49q3.191-.171 6.844-.353l6.982-.347q3.329-.165 5.513-.289 2.184-.125 4.234-.169 2.051-.043 5.416-.012t4.707.092 2.524.098 4.354.143l2.696.279"/>
        <path stroke="#6dc1b3" d="m510 497.02-.14.667.176 6.33.231 8.372q.071 2.593.14 4.364.069 1.772.189 3.485.12 1.714.204 4.274t.135 3.884q.051 1.322.085 3.36.033 2.037.055 7.704m58.97 57.159q.025.188.017 1.017-.009.83-.084 4.344t-.084 5.385-.027 4.249-.007 8.2.04 6.946.095 12.655l-.005.7m-.401 105.587q-.055 2.871-.103 4.305-.048 1.435-.067 1.704t-.115 4.026-.094 5.475.029 4.626.064 4.266.149 3.825.182 3.879.161 2.824.177 2.473q.084 1.06.185 2.437t.362 3.987m.754 148.499.214.814.093 3.528.022 5.589.041 8.756q.035 7.608.071 10.327t.107 4.492.326 4.767l.055 1.978m-84.594 41.333.696.088 4.599.169q2.164.08 5.038.103t6.237-.046l5.65-.116q2.287-.047 5.059-.147t3.84-.17q1.067-.071 2.866-.219 1.799-.147 3.467-.262 1.667-.115 5.982-.329m-396.858 61.055.214.034.969-.048q1.831-.134 3.45-.193l2.937-.106q1.317-.047 3.482-.064t4.333.084 5.33.164q3.162.061 6.731.008 3.569-.052 6.983-.301 3.413-.248 4.493-.331t5.113-.444m-267.599.733q17.545-.082 24.231-.175 6.686-.094 7.795-.132t2.066-.064q.957-.024 3.086-.136t3.378-.164q1.248-.051 5.01-.322"/>
        <path stroke="#50514f" d="m118.584 966.183-.074.482q-.042.877.186 7.641t.463 13.322.287 11.056.096 7.243.049 3.949.184 6.093.301 7.536.149 4.444-.145 8.682l-.384 2.369m-.401 3.054q.272-.013.895.047 1.104.509 1.399.619t1.117.286 2.211.346q1.387.169 5.12.34t4.608.147q.875-.025 1.544-.016.668.008.74.029t1.385.07 2.37.051 1.153.017q.095.013 1.239.005 1.144-.007 2.014-.046t5.244.02q4.375.059 5.996.128 1.62.07 2.867.106t3.825.073 4.111.039 2.125-.031 2.086-.068 3.588-.046 4.539.001q2.444.013 4.687.073t6.485.103 7.099.027 4.093-.058q1.234-.041 3.974-.08t6.677-.123 7.052-.181 4.606-.145 2.788-.115 4.275-.179l1.392-.115m-113.231-79.244q1.336.132 1.814.129t1.767-.094 3.242-.194 3.836-.182q1.885-.08 4.153-.211t2.364-.139 3.114-.085 4.344-.051q1.325.026 5.292.168t10.581.396q6.615.254 8.11.293 1.496.039 3.176.047 1.68.007 2.686-.006 1.007-.012 1.795-.041.788-.028 2.723-.076 1.935-.047 3.077-.053t1.181-.017 3.973-.022 8.12.107q4.187.117 8.662.193t6.419.089 4.202.02 4.722.006 6.196-.146q3.732-.147 4.429-.216.697-.07 4.51-.577m-313.672-38.216-.021 5.159q-.029 4.174-.048 8.282t-.023 5.256q-.003 1.149-.079 9.801t-.074 18.861q.002 10.21.057 13.692t.102 5.02.077 3.054q.03 1.514.05 3.661t.013 3.811m-117.403 2.38q.463-.013 1.893.029 1.431.041 3.765.025t2.931-.012 1.943-.057 4.082-.121q2.735-.06 4.085-.12 1.35-.061 4.591-.128t7.593-.135 5.194-.077 3.985-.083q3.144-.075 9.15-.054 6.006.022 6.545.032t5.09.198 7.244.282l4.281.149q1.588.057 2.999.117 1.41.061 5.849.237 4.439.175 8.17.3 3.732.124 6.95.147t5.747-.006q2.528-.027 5.237-.141t3.757-.194q1.048-.082 4.409-.452"/>
        <path stroke="#50514f" d="m-197.092 923.004 1.366-.098 2.97.066q2.723.155 2.954.183t1.587.117q1.355.088 2.281.116.925.028 1.038.051.113.024 4.825.115t7.437.05q2.727-.041 3.663-.051.937-.01 5.186-.013 4.25-.002 6.543.035t7.238.111 6.553.107q1.609.033 3.441.112 1.833.079 2.64.124.807.046 1.602.066t4.339.228 6.081.406 7.878.513q5.341.317 8.626.491 3.286.175 5.735.257t24.951.259"/>
        <path stroke="#ffe15c" d="M243.175 1006.7q.389-.074 1.085-.029t2.116.074 2.741.028 3.921-.016q2.6-.017 7.633-.062t6.877-.081q1.845-.035 2.85-.039t2.525.014 2.747.012q1.226-.006 1.687-.025t2.86-.013l.89.073"/>
        <path stroke="#50514f" d="m-137.39 573.226-.107.351-.115.893-.178 3.079q-.043.315-.132 11.8t.03 19.027q.12 7.542.077 14.293t-.081 9.75-.061 6.043q-.022 3.045-.094 10.911t-.169 14.201-.129 10.278q-.033 3.943-.07 7.31t-.119 9.121-.131 6.882-.079 1.423-.081 4.53m19.13-129.816q.133.886.58 31.252l.075 1.645m1.33-1.922q.288.381.972 1.261.483.255 1.318.554.834.298 6.217.872 5.382.573 10.268.598t7.667.009q2.78-.017 4.617-.024 1.836-.006 4.669-.021 2.833-.014 4.394-.051 1.562-.038 4.35-.024t10.149.669m1.257-1.463.206-.621q-.001-.331.196-6.783t.187-10.526-.143-8.783-.3-9.034m-137.809 314.773.286-.012.952.164q2.032.43 3.038.589 1.007.158 1.193.174.187.017 2.352.24t4.872.427 3.813.26q1.107.057 4.391-.068 3.285-.125 4.886-.219 1.601-.093 3.589-.157t3.354-.123 3.84-.142m-31.719-77.92.457-.081.607.174 1.66.156q.332.033 7.376.325 7.045.291 11.221.32 4.176.028 6.548.046 2.373.019 5.162-.011m1.73.33-.074.369q-.016.83-.04 12.025-.023 11.194-.049 17.287-.025 6.093.076 9.28l.249 7.881q.147 4.694.151 7.135t.003 4.654q-.001 2.215-.123 6.872-.122 4.658-.682 12.028l-.312 2.439m-32.917-160.079q.623-.129.756-.146.132-.017 3.479-.302 3.347-.286 5.854-.597t3.964-.585q1.456-.273 1.562-.297.105-.024.911-.141t3.077-.579m.656 2.252q.067.845.163 5.882t.135 10.523.013 10.134-.014 7.325q.01 2.677.056 4.544t-.027 14.996l-.053.681m-20.332.662 1.018.404q.23-.011 2.537.256t4.846.154 4.341-.274 5.131-1.074m355.983-8.903q.159.64.174 1.449.016.809.29 5.659.275 4.851.443 8.239t.115 7.215-.062 5.879-.05 5.79-.063 7.767q-.023 4.031-.059 6.811t-.066 4.256-.108 4.028q-.077 2.554-.099 4.363-.021 1.809-.032 2.005-.011.197-.009 5.78m.856-.598.75.118 1.37.572.79.158q1.798.286 2.058.295t3.615.366 4.981.526 2.931.263 3.316.257q2.011.165 3.597.297t1.682.145 3.767.256 5.657.295 4.122.091l2.677.051q.542.012 16.041-.114m-49.538 22.728q-.087.386-.177 1.799t-.293 14.659q-.202 13.245-.153 17.862t.106 13.864.116 12.123m1.13-1.056.585-.142 1.854-.044q.798.037 3.302-.008t5.539-.074q3.036-.028 5.018-.07 1.982-.041 3.406-.051 1.423-.011 1.76-.025t1.467-.027q1.131-.011 5.109.113 3.978.125 6.108.319 2.131.194 9.614 1.46m-42.432-60.372q.72.079 6.704.017 5.983-.063 8.921-.103t4.828-.045 5.102.051q3.211.055 7.019.054t5.645-.069q1.836-.067 2.933-.104t2.938-.335m-23.576 68.656-.073.534q.066 2.719.165 3.737.1 1.019.935 10.354l.231 2.186m1.402-16.951.85-.06q.21.007 1.441.166 1.231.158 2.996.447 1.765.288 2.127.396t7.801.972l1.073.204m-15.103 12.179q.442.095 1.259.439.678.128 1.515.245t6.555.564 7.633.61M28.428 811.458q.833 1.031 3.026 3.326t6.229 6.396m2.059.331.438-.895q1.334-1.39 5.792-6.298 4.457-4.908 7.267-7.529 2.809-2.621 7.142-6.56 4.332-3.939 6.219-5.673 1.886-1.735 3.169-2.883 1.282-1.148 1.997-1.735.715-.586 2.155-1.921"/>
        <path stroke="#50514f" d="M62.315 777.289q.238.32 1.434 1.566 1.195 1.247 10.5 10.294m-63.531 30.706-.661-.172q-1.597-.133-1.713-.111t-11.884-.134l-1.1-.041"/>
        <path stroke="#50514f" d="m-2.982 818.532.053.838q-.042.527.516 7.197t.76 13.131.214 10.457-.004 5.922q-.016 1.925-.046 3.16t-.102 3.955-1.05 12.751l-.214.975m1.931-2.711.591-.046 1.379.247q.723.291 11.874 1.287l1.57.166m261.995-400.476-.002 4.041q-.028.888.197 14.188t.469 21.794.302 11.999.086 5.594.041 7.446-.198 14.995q-.21 9.636-.28 14.686t-.014 13.002q.056 7.953.103 11.044t.088 4.283.133 5.074.204 6.696m-2.587-85.186q-4.166.127-6.941.152t-3.322.013-1.209-.056-2.557-.03q-1.897.014-2.026.005t-1.523.035-2.319.098q-.926.053-3.264.108-2.338.054-4.352.131-2.014.076-3.236.143t-2.426.12-3.128.145l-3.077.147q-1.153.056-8.841.154-7.689.099-9.185.097t-6.802-.08-13.354-.235-12.642-.253-6.141-.105-6.991-.097q-5.444-.086-13.152-.073t-12.81.023q-5.103.011-11.508.006t-10.019-.032l-5.614-.043q-1.999-.016-3.33-.008t-1.893-.005q-.563-.014-1.434-.106m159.981 8.017-.589-.066q-6.028.784-7.924.995-1.896.212-2.563.305-.666.093-2.445.288-1.779.196-2.774.338t-1.815.252-3.148.538q-.453.115-3.391.621l-.84.305m-1.33.522.286.903q.208 2.138.557 6.534t.522 6.591.466 4.786.468 4.163q.176 1.573.268 2.24t.263 2.419.486 4.408m1.531-.993.935.127q.445.188 1.117.376t.834.267q.163.078 4.132.618 3.969.539 5.947.77t4.739.727q2.761.498 4.136.715t2.846.511m-2.714 11.644q-10.422.325-12.806.326t-4.145-.081q-1.76-.083-2.256-.102t-1.873-.043-3.116-.002l-3.145.038q-1.406.015-3.118-.063t-2.618-.021q-.905.057-1.389.105t-1.966.103-1.984.087q-.503.031-1.48.074-.978.044-3.411.304m-.255.331-.011.632q-.063.617.016 5.129t.243 7.201q.164 2.691.257 4.971.094 2.281.125 3.183.032.903.14 3.061t.615 9.127m85.507 49.55-.127-.421q-.523-.39-.897-.726-.375-.336-.725-.909-.349-.574-.874-1.938-.525-1.365-.527-2.212-.001-.847.154-1.483.156-.636.477-1.163.321-.526.834-1.062t1.04-.916 1.434-.865 2.158-.917 3.305-.732 4.079-.492 3.902-.309 3.938-.207 4.215.036q2.152.127 3.447.299t2.926.677q1.632.505 3.073 1.251 1.339.944 1.765 1.293t.484.377.418.423q.359.396.731 1.093t.312 3.282-.134 2.726-.508.598-.921.729l-.578.324q-.092.051-.855.276t-1.569.352-3.101.355-5.04.387-3.753.211-2.089.173-2.677.268-2.782.255-2.329.18-2.588.128-2.474.046-1.549.002q-.518.011-3.524-.002m-3.371-23.632.448.097q12.013-.053 17.452-.582t9.907-.876 9.64-.337 7.845.311m2.387-5.09q-.041-14.734-.079-18.23t-.112-5.825q-.074-2.327-.371-8.522-.298-6.195-.766-11.262l-.403-2.241m-48.207-3.245q.851.356 1.595.513.745.157 6.122.489t9.078.393 6.327.013 4.994-.17 3.371-.201q1.005-.077 2.296-.155 1.292-.078 2.421-.126t2.197-.068q1.069-.02 2.378.052 1.309.071 3.584.456m5.047-1.654.15-.814q.147-1.359.384-5.212t.363-9.675q.127-5.821.152-15.416t.048-12.886l.034-5.023q.011-1.731.049-3.942.037-2.212.075-3.208.039-.997.072-4.272.033-3.274.04-4.97t-.023-3.199-.16-3.284m.656 5.306 1.41-.047q.681.175.848.175.168 0 .847.101t1.565.114q.886.012 1.288.041.402.028 3.006.041 2.605.012 4.408-.055 1.803-.066 5.918.001 4.115.068 4.214.066.098-.003 3.573.115t4.976.198q1.5.08 5.33.249 3.83.17 8.327.203t5.489 0 3.338-.088 5.799-.172q3.454-.116 3.548-.126.093-.011 3.636-.082t7.587-.116 5.733-.05 4.037-.026 4.399-.028 3.999.016q1.949.024 5.584.135 3.636.111 7.567.124t5.609-.029 6.357-.031q4.677.01 12.836.165l2.208.163m16.866 54.336-.062.834q.066 3.751.146 8.877t.151 9.624q.072 4.498.135 7.143.062 2.645.071 10.141.008 7.495-.091 12.995-.1 5.5-.17 8.13t-.059 6.798q.012 4.167.001 4.312t.386 9.272l.093.991m.856 1.387.256.143.539.343.657.297q.196.049 2.64.567t4.611.727q2.167.21 3.395.217 1.227.006 2.199-.023t1.049-.011 2.469-.032 4.747-.184 5.056-.2q2.698-.066 3.332-.086t2.746.005q2.114.024 3.161.078t2.102.187q1.053.132 3.218.428M249.81 818.09l2.587-.083q.857.04 5.076-.251 4.22-.29 7.156-.497 2.935-.206 4.637-.233t1.945-.049q.244-.021 3.724-.044 3.479-.022 4.643.021t2.326.147q1.162.103 2.608.193l3.842.24q2.395.148 4.059.349 1.663.2 3.539.397l1.993.281m2.332.063-.143.566q-.217 1.209-.548 7.834-.33 6.625-.386 12.443-.057 5.818-.038 13.614.018 7.796.159 14.8.14 7.004.325 15.542t.23 10.685.228 8.607.249 10.332.051 4.673m-51.45-.19q.644.059 2.185.342t3.303.496 2.058.236 2.888.303q2.594.28 3.964.394t7.178-.143 7.908-.348 3.936-.245 3.115-.2 2.585-.1 1.983-.088 1.423-.082 1.679-.02 1.608.092 1.247.134 1.216.08 3.302.001m199.879-101.017-.08.521q.007 1.967.055 4.111.048 2.145.167 4.911.119 2.767.184 3.734t.232 11.323.17 15.704.035 14.093.044 10.689q.014 1.944.122 5.935t.196 5.777.11 2.857.116 3.373q.093 2.301.125 3.315t.148 4.312q.115 3.298.362 8.505m.255-.395q.358.007 1.228.394l2.751.327q1.268.178 2.689.42 1.42.242 9.84.71t9.645.541 3.28.216q2.053.142 3.83.29 1.776.148 1.804.157.028.008 4.211.229 4.183.22 7.154.433t4.764.457m-51.323-103.601q1.434.148 2.673.221 1.238.074 2.489.172t3.434.219 2.773.185 4.114.308 5.021.311q1.498.066 3.682.205t5.28.31 5.093.361 2.968.243 2.979.182 3.105.225 2.369.187 1.927.165 2.887.409M83.459 476.147l-.203.763-.06 2.47q-.012 3.528-.01 4.646.003 1.118.117 6.908.115 5.791.089 10.833-.025 5.043-.08 7.034-.054 1.991-.051 3.724l.007 3.723q.005 1.989.066 4.137t.198 6.08m1.457-1.323.71-.181q1.778-.133 4.132-.369 2.355-.237 3.676-.451 1.322-.213 2.423-.459t2.705-.666M85.517 477.14q.793-.241 1.166-.255t5.721-.865m83.625 182.31.107-.504q-.102-2.099-.136-2.344t-.395-4.714q-.36-4.47-.517-7.29t-.644-8.576m2.26 23.364q.53.038 1.126.176t7.183.288 10.26.216 4.913.096 1.802.065 1.538.065 3.482.079q2.507.049 2.769.044.262-.004 8.375.231m2.915.128q.061-2.016.028-3.806-.034-1.789-.176-4.935t-.244-5.329-.315-5.348q-.214-3.166-.361-5.154-.146-1.988-.59-4.023m-79.399 8.068q-1.058-.373-1.566-.459t-1.674-.144-2.621.072q-1.454.13-3.52.855t-2.562 1.035-.616.417-.645.505-1.931 3.116q-1.404 2.717-1.603 4.512t-.032 2.972q.169 1.177.396 1.783.228.605 1.144 1.814.915 1.208 1.673 1.802.759.595.812.646t1.493.597q1.439.546 4.51.643t5.14-.547 3.013-1.182 1.999-1.504q1.055-.964 1.857-2.079t1.226-2.18q.423-1.065.526-1.572.102-.508.147-1.286.045-.777-.091-1.632-.135-.855-.434-1.617-.3-.761-1.151-1.908-.85-1.148-1.949-2.112t-4.852-3.133"/>
    </g>
</svg>
