<svg xmlns="http://www.w3.org/2000/svg" width="581.865" height="588.431" viewBox="-329.83 492.063 436.399 441.323">
    <path fill="none" stroke="#ffe15c" stroke-linecap="round" stroke-linejoin="round" stroke-width="5" d="m-318.55 567.316.851.172 1.317.098q19.42.446 24.236.437t6.216-.021 5.701-.023 5.385-.006q1.086.008 9.181-.107t11.983-.233q3.888-.119 4.581-.167t4.792-.26 11.981-.341q7.883-.129 10.225-.123t9.802.012 13.284.002 9.409-.064 4.399-.098q.814-.036 4.883-.206 4.069-.171 6.974-.346 2.906-.176 7.866-.458t6.261-.343 3.25-.18 3.388-.214q1.44-.097 5.488-.387 4.049-.29 7.036-.432 2.988-.143 7.286-.201 4.299-.058 7.324-.043t6.193.079 4.734.12 3.087.157 3.215.204q1.693.105 3.202.286 1.51.181 3.258.433m63.057 161.359.792.14q2.049.124 6.629.227t5.661.086 5.31-.211 8.424-.357q4.195-.161 7.588-.3t5.685-.202 6.148-.197 5.941-.204 6.574-.094 8.342.063 3.896.097 4.377.164 6.324.216 7.273.183 7.125.177 3.036.099 5.001.107l7.167.119q3.361.055 9.808.345m-1.257.789q-.34 1.613-.465 2.623-.124 1.01-.305 4.568-.18 3.558-.177 4.191t.285 6.763.569 10.919.401 8.389.154 12.13q.042 8.531.039 9.86-.002 1.328-.039 5.031-.037 3.704-.089 6.463l-.079 4.271q-.027 1.51-.148 4.698m-122.45-79.766-.047.91q-.084.412.017 4.984.101 4.573.222 7.864t.283 16.209m-.484 41.718q.032 1.859.02 1.987-.012.127.189 3.65m2.387 1.655 1.647.043q2.078.098 2.826.158t2.535.173q1.785.113 3.679.243 1.893.131 3.735.224 1.843.093 2.688.122.844.03 3.342.157t7.293.259 7.234.217 3.483.129 3.439.129 6.889.296q4.493.211 7.183.237t3.134.037 6.438-.177 9.734-.302q3.74-.112 6.145-.152 2.406-.04 7.192-.128 4.786-.089 7.107-.142 2.32-.054 5.218-.097t4.713-.085 3.77-.108 5.936-.119l1.77.006m-239.451 1.097.11 2.736.105 1.973q.065.519.292 6.989.227 6.471.314 10.919t.162 6.882q.074 2.434.19 5.29.117 2.857.153 3.529.037.672.168 3.536t.404 10.816l.088 3.069m-39.061-56.795.872-.289q.818-.046 2.256-.166 1.438-.119 3.622-.308 2.184-.188 3.927-.396t3.633-.364q1.889-.155 2.171-.19t2.233-.114 4.174-.039 2.883.094 2.456.112q.124.046 5.806.197m6.158 61.631.956-.217q.97-.119 2.937-.233m45.93-.528q8.325-.206 14.08-.394t8.85-.276 5.844-.113 3.794-.034 6.087.063q5.043.071 7.19.125t6.338.317q4.19.261 7.272.521 3.083.26 5.921.465t5.684.34 11.49.278q8.642.144 9.787.143t3.299.014 3.498.029q1.346.016 4.481-.046t3.74-.085m-100.15-302.356-.047.399q-.052 2.181.018 5.296t.137 4.933.168 5.636.117 7.089-.025 5.463-.034 2.243q.007.049-.045 2.839t-.13 5.033-.056 11.193.095 14.939.025 11.237-.131 9.099q-.084 3.852-.143 20.149-.06 16.298-.049 19.144t.125 9.298.248 11.349q.135 4.898.213 7.543.079 2.645.164 7.246.084 4.6.098 8.145t.007 6.597-.013 25.317.022 29.453.073 9.313.019 2.748m-61.78-.598.556-.142 2.34-.096q.218-.051 2.653-.126t5.138-.04m40.323.532q3.188.14 4.764.192t4.421.202m2.988-65.462.553.038 2.067.017q.274-.028 3.429-.001m41.295.82q1.334.047 1.608.067.273.021 5.396-.024m42.03 65.705-.061.325q-.073 3.332-.075 9.449m1.593 44.206.201 2.09m-159.491-2.54q-.059 11.119-.035 15.822t.066 10.344.04 19.189.111 18.262m-162.736-1.037q.663.07 2.547-.276t3.037-.47q1.154-.122 2.007-.174t3.82-.221 3.542-.207 4.405-.111 5.457-.062 3.771.094 2.877.13 3.43.125 9.297.145 9.942.068 7.196.019 7.76.07 13.59.152 15.497.164 10.708.107 11.033.196q6.139.155 11.233.164t8.497-.029 5.236-.054 4.9-.02 4.973.006 6.013.022q1.071.013 1.655.086m-161.63-75.963q.023 3.629.021 4.885t.035 7.127.046 10.973l.012 6.722q.003 1.619.016 3.427t.06 4.344.079 7.668.027 9.725-.057 10.035-.102 10.522m.433-77.358.392-.047q2.719.183 3.651.233t2.356.161 2.702.161 2.355.147 1.52.106 1.504.058 2.531.075 5.362-.042m-2.2-221.113q-.015 3.636-.093 10.934t-.4 12.785q-.323 5.486-.549 8.169-.226 2.682-.477 6.68-.25 3.998-.489 11.642-.24 7.644-.217 12.256t.223 9.875q.2 5.262.303 10.501t.143 8.273.041 4.412.046 5.942q.044 4.566.145 9.194.102 4.629.284 10.941t.305 11.776.217 12.361q.095 6.897.12 11.675.026 4.777.028 6.794.003 2.018.047 6.365.045 4.348.238 12.056t.372 12.111.389 11.274q.208 6.87.305 9.678.097 2.807.075 3.953m-.054-220.971 1.082.378.583.183q.345.133 3.837.581t5.404.549 3.074.069q1.163-.033 1.58-.054t1.128-.052m1.585-58.386.081.264q-.032.638.142 10.016m.859 42.145q.003 1.186-.028 4.816l-.07 1.68m-37.589-59.18-.055.399q-.091 4.056-.101 10.798-.01 6.741-.003 8.131.008 1.389.112 4.065t.163 5.762.063 4.736-.075 5.709-.123 6.2-.077 5.811q-.032 3.669-.032 7.832m-.2.127q1.48-.025 1.913-.08.432-.056.996-.109.563-.054 1.093-.056.529-.002.719-.03.191-.029.932-.025t1.188.028.729.064q.284.04 1.026.077.741.037 1.402.046.661.008 1.716-.015l2.989-.091m145.952 279.815q.54-.036 2.06.042 1.519.078 3.459.112 1.939.035 4.715.025 2.776-.009 3.78-.021t2.242-.066 2.978-.139 4.268-.234 5.477-.392l1.98-.199q.377-.083 2.779-.277 2.403-.195 5.163-.312t4.395-.173q1.634-.057 2.849-.119t3.646-.099 3.7.007m3.789-36.014.05.438-.006.977q-.093 2.783-.054 9.239t.143 9.685q.103 3.23.152 4.824.049 1.595.081 3.393t.092 3.994q.061 2.196.071 4.05m-220.076-345.991q7.456.02 13.19.059 5.734.04 7.435.057 1.702.017 3.108.014t2.345.018 2.488.097 2.541.116 9.572.129 14.074.032q.417.009 5.747-.204 5.329-.214 7.621-.337t3.579-.215 1.978-.13 2.184-.167 2.48-.253 3.561-.359 5.42-.417q2.844-.181 4.482-.265t4.477-.236q2.838-.153 4.488-.252 1.65-.1 3.449-.224t5.631-.284 5.833-.177q2.001-.016 4.887-.007 2.887.01 5.483.096 2.597.087 5.952.141t4.896.06 7.794-.012q6.252-.018 8.749-.077l7.596-.175q5.099-.117 10.373-.344l11.985-.288q5.085-.147 7.127-.249l4.592-.227q2.549-.125 4.146-.198t3.457-.151q1.861-.077 6.232-.284m-211.211 7.093.429.381q.503.34.631.408.58 1.937 1.6 5.905m211.632-23.772q.336 1.171 1.027 3.1t2.065 5.429 2.005 5.04.869 2.072q.236.531 1.048 2.506m-8.672-18.402q-.081 8.793-.146 11.047m28.677-48.651q-3.567 5.6-5.189 7.995t-2.729 3.94-2.83 3.793-4.152 5.316-4.055 5.189q-1.626 2.119-2.344 3.061-.717.942-2.026 2.779t-3.621 5.061m27.42-36.943.287-.078 2.725-.232q4.075-.243 4.166-.24t3.004-.187 5.01-.242 3.373-.036 4.608-.046 5.711-.138 7.533-.177q5.152-.1 6.416-.139m.601 1.12q.139.533.484 1.423.346.89.719 1.538.374.649.597 1.042t.976 1.768 1.318 2.418 1.349 2.328q.784 1.283 1.426 2.409t1.847 3.112 2.416 3.954m.382 1.527q5.545.031 20.626-.146 15.082-.176 33.505-.302t21.099-.117 7.234.106 9.528.211q4.971.116 11.11.376m3.589.801.093 9.438m.776 36.962q.006.515.046 3.315.041 2.8.024 6.65t-.013 4.889q.005 1.04-.121 5.538t-.241 7.18-.127 5.821.052 6.746.15 10.643.137 11.979.055 7.05.001 13.261q-.002 11.155-.034 14.995-.032 3.841-.051 7.499t-.058 12.143l-.059 12.836q-.02 4.349-.041 6.22-.021 1.872-.045 2.673-.023.802-.067 3.774-.043 2.971-.149 6.595m.783-187.935q.657-.18 3.037-.406 2.379-.225 4.038-.38t2.517-.26 2.082-.217 2.723-.217 2.62-.174M83.622 577.64q.525-.036 3.501-.256t10.4-1.067m1.658-38.661-.149.605q-.014 2.018.035 4.154.049 2.135.052 2.695t-.043 9.62q-.045 9.061-.086 10.449-.042 1.389-.039 3.695t.109 6.546l.194 2.22M-29.81 520.832l.679-.158 1.702-.05q6.406-.04 9.432-.029 3.025.011 5.396.079l3.661.106q1.289.037 5.175.233 3.885.195 7.42.39 3.536.194 6.352.361 7.87.286 8.672.31t3.038.115 3.439.127q1.204.037 4.893.04t5.042-.03 4.345-.12 5.188-.171 2.74-.117 3.229-.129 5.97-.198 4.752-.161q1.469-.06 4.14-.207 2.671-.148 3.785-.231 1.114-.082 6.766-.287m2.387-.534q.032.192.516.604.134.247 2.927 9.996"/>
    <path fill="none" stroke="#6dc1b3" stroke-linecap="round" stroke-linejoin="round" stroke-width="5" d="m-90.333 506.936-.31.605-.281.5q-.977 1.424-2.095 3.096t-2.952 4.287-2.678 3.753q-.845 1.138-1.542 2.068t-3.439 4.951q-2.741 4.02-3.904 5.82l-2.312 3.579q-1.148 1.781-3.06 4.708m28.203-40.647 4.885.11q.1.022 8.919.003 8.818-.019 13.239-.091 4.421-.073 5.882-.111t10.108-.178m-196.984 51.833.293.049 3.792-.063q1.949-.095 5.439-.219t6.5-.331q3.009-.208 4.616-.375 1.607-.168 3.572-.301 1.966-.134 3.318-.259 1.353-.126 3.388-.359m12.717 1.527q.464-.1 1.068-.079t10.05-.106 10.862-.149q1.417-.023 2.549-.067 1.133-.045 3.424-.158 3.186-.091 3.893-.103"/>
    <path fill="none" stroke="#50514f" stroke-linecap="round" stroke-linejoin="round" stroke-width="5" d="M-179.132 575.248q.247 20.698.257 21.126t.165 2.893q.153 2.465.507 6.167m.255 1.527q.37-.055 1.285.026.915.082 2.697.134 1.781.053 3.525.027t4.279-.066 8.119-.308q2.579-.173 3.498-.278.919-.104 2.625-.242 1.706-.139 2.248-.222m.528 1.59q-.103 8.838-.045 15.439t.081 7.79.067 2.145.109 1.94.162 3.728q.098 2.746.145 10.136t-.012 9.879-.125 6.371q-.067 3.883-.101 4.916-.035 1.032-.113 6.469-.077 5.437-.095 5.723m.2 2.188 1.604.011q.181.035 1.443.052 1.261.017 2.287-.003 1.025-.018 3.979-.177 2.954-.158 3.195-.169t1.368.012q1.129.024 2.095.087.966.062 1.926.114t2.315.11 3.991.12q2.637.062 3.847.047 1.21-.016 1.598-.035t1.793-.003q1.404.017 2.542.018 1.139 0 5.48.147m-15.286 7.814.325 12.237q.222 8.299.217 15.607t-.114 10.38-.266 5.172l-.107.89m2.131 2.914.897.133 1.144-.078q2.641-.324 13.866-1.164l1.037-.151m-18.073-45.406q1.073.047 1.643.208.191.029 2.108.085t3.63-.008 2.798-.121q1.087-.057 2.396-.086t4.113-.154m-42.322-86.586q1.679-.077 1.958-.063t18.301.597"/>
    <path fill="none" stroke="#50514f" stroke-linecap="round" stroke-linejoin="round" stroke-width="5" d="M-148.743 645.622q.745-.187 1.131-.312t2.1-.306q1.713-.182 3.431-.289t3.275-.153 9.339.729m-145.024-40.316q.875-.156 2.764-.222 1.888-.065 3.11-.1t2.093-.091 2.334-.1 2.342-.026q.881.016 1.217.003.336-.012 2.195.122 1.859.135 2.994.242 1.136.108 2.209.197 1.072.088 1.809.161t2.18.147 5.015.215 6.006.145l6.479.016q4.044.01 5.428.035t4.569-.025 4.811-.13q1.627-.08 2.047-.08.42-.001 2.624-.086t3.61-.125q1.406-.041 2.455-.047 1.048-.006 3.62.017m2.386-31.98q-.05.205-.105 3.867t-.024 8.309.116 7.326q.084 2.679.196 4.639l.269 4.706q.157 2.747.277 4.125m-96.67 40.507q.857-.048 1.098.038.241.087 1.278.2t3.32.247 4.776.219 5.16.225m-.674 2.316q-.018.433.391 6.082.41 5.648.595 8.626t.291 5.621.217 21.052q.112 18.409.117 20.273t.032 6.245.015 7.578m-17.144 1.45 1.352.038q.495.169 1.276.307t4.159.438q3.378.301 8.461.767l1.568.232m39.634 70.653-.009 6.744q.013 1.296.043 7.018t.024 6.408q-.007.685.398 16.048"/>
    <path fill="none" stroke="#50514f" stroke-linecap="round" stroke-linejoin="round" stroke-width="5" d="m-293.649 834.841.672-.068.518.129q6.866.233 10.397.36t4.602.2 1.411.109 3.619.167 5.807.178 5.399.036 3.649-.02q.78-.008 2.995-.108 2.216-.1 3.433-.193t2.209-.15 1.779-.125q.788-.07 2.575-.19t2.73-.175 3.755-.353m-57.481-35.48 1.098.153.763.217.832.149q2.39.265 8.417.427t8.652.205q2.627.042 3.769.05 1.142.007 2.48.047t3.022.131 5.791.149 6.167.036 5.956-.137 8.02-.243m-54.621-62.548.295.789.17 1.308q.161 1.009.358 2.714.198 1.706.329 2.893t.194 2.276.239 10.203m-.401-21.774q11.65-.018 13.935-.05 2.285-.033 2.469-.024t3.627-.154 5.173-.268 3.331-.224q1.602-.117 4.878-.279 1.543-.05 3.08-.07m.929.535q.179.79.361 4.707t.301 6.533q.12 2.618.216 3.624t.167 2.871.139 4.777m-38.15-.204q.805.204 1.118.304.313.099 1.645.216t2.502.166 2.243.066q1.072.018 1.504.044.433.026 2.783.082 2.35.055 5.112.083t4.794.104 2.782.121l11.05.674 1.561.266m-25.762 23.364-.625-.576-.449-.359q-1.495-.748-2.106-.906-.611-.157-1.153-.188-.541-.03-.926-.029-.384.001-1.176.257t-1.188.612q-.395.356-.558.543-.162.188-.312.581-.149.394-.139 1.104.011.71.419 1.525t.494.932q.086.116.64.464.553.347.747.425t.967.229q.774.151 1.597.052.822-.1 1.236-.204t.753-.262 2.435-1.158m7.816-12.637q.068.165.265.942.198.778.256 1.213.059.436.345 2.379t.868 3.985.862 2.697.672 1.233q.392.576.915 1.076.524.5 1.46.812.936.311 1.894.336.959.024 1.46-.111.502-.135 1.968-.974t1.888-1.252q.423-.413 1.006-1.195.583-.783 1.179-2.294t.961-3.73.41-3.196.024-2.252"/>
    <path fill="none" stroke="#50514f" stroke-linecap="round" stroke-linejoin="round" stroke-width="5" d="M-273.116 776.977q1.228.153 1.867.07.638-.083 1.688-.191t1.631-.16.776-.051q.194 0 2.391-.292 2.198-.293 7.06-.7m-15.413 66.926q.443.66.773 2.07.329 1.411.996 2.991.668 1.58 1.149 2.306t1.001 1.286.997.883.869.448 1.467.244 1.482.098.495-.018q.088.002 1.423-.47 1.335-.473 1.805-.912t.819-.913 1.031-2.029q.682-1.554.969-2.926.288-1.371.448-3.161l.035-2.01"/>
    <path fill="none" stroke="#50514f" stroke-linecap="round" stroke-linejoin="round" stroke-width="5" d="M-271.13 845.493q1.182-.286 1.592-.283.409.002.901-.021t1.733-.186 2.184-.34 1.688-.322 3.817-.706m60.123-231.496-.062 2.137q-.045.262-.125 10.358t0 15.442q.079 5.347.121 7.744t.096 3.7.117 2.636.114 3.911.079 6.704.018 5.415q-.009 1.29-.05 2.431t-.316 8.237l-.193 1.786m-39.936-68.974.381.09q1.691.1 2.018.132.326.033 1.888.113t3.271.117l2.626.057q.916.019 2.407-.027t2.32-.086q.83-.04 2.29-.059l4.904-.062q3.444-.044 4.723-.077 1.28-.032 2.507-.089t3.055-.114 6.818-.529m-41.449 2.189q.064 2.645.299 9.396.236 6.751.311 11.138.075 4.388.042 10.783t-.052 6.738-.095 4.031-.086 6.124.016 6.945.099 7.16.195 4.483m1.713 1.12.452.118q2.292.252 4.558.398t4.394.194 3.198.099 2.006.104 1.958.135q1.022.081 2.197.163t3.096.177 16.227-.554l1.977-.631m-52.306-52.318q-5.592 1.555-7.322 2.448-1.73.892-3.001 2.001t-1.884 2.079-1.146 2.88-.534 2.98q0 1.07.096 1.664t.741 1.921 1.269 2.095q.623.768.99 1.099t.951.708q.584.378 2.425.941 1.84.564 3.492.645t2.789-.099 2.191-.444 2.094-.607 2.077-.713"/>
    <path fill="none" stroke="#50514f" stroke-linecap="round" stroke-linejoin="round" stroke-width="5" d="m-256.901 632.524.227.612q-.006.231 1.442 15.278l.116 1.583m58.205 164.184q.033.29.102 8.264.07 7.974.039 16.485t-.082 13.694-.065 6.38q-.013 1.197-.065 4.25-.051 3.053-.086 4.193-.036 1.139-.203 11.357l-.041 1.717m-118.533 3.767q1.182-.185 2.534-.206 1.352-.022 3.608-.157t3.332-.239 2.299-.235 3.246-.265q2.024-.133 4.902-.281 2.878-.147 3.323-.181t1.837-.104 2.836-.128q1.442-.058 2.59-.133t3.993-.217 6.645-.295 8.478-.401 11.164-.686 9.916-.55q3.432-.112 6.288-.085 2.855.027 3.543.064t7.873.242 11.194.269 6.068.059q2.06-.003 12.222-.117l.697-.057m2.86-36.804q.563.365.713.46t.304.136q.153.04 3.283.995m-6.759 35.874-.184 1.234q-.266 4.47-.345 7.903"/>
    <path fill="none" stroke="#50514f" stroke-linecap="round" stroke-linejoin="round" stroke-width="5" d="m-223.875 880.788-.117.77-.009 1.021.071 4.635m-37.093-4.568.171.572.557 4.989m-19.585-5.027.143 9.942q-.008.27.082 2.935.089 2.665.179 4.506t.219 4.941.262 5.805q.134 2.706.299 6.88"/>
    <circle cx="-232.034" cy="806.888" r="2.5" fill="#50514f" stroke="#50514f" stroke-width=".1"/>
    <circle cx="-224.491" cy="806.417" r="2.5" fill="#50514f" stroke="#50514f" stroke-width=".1"/>
    <circle cx="-215.891" cy="806.15" r="2.5" fill="#50514f" stroke="#50514f" stroke-width=".1"/>
    <circle cx="-207.274" cy="805.819" r="2.5" fill="#50514f" stroke="#50514f" stroke-width=".1"/>
    <path fill="none" stroke="#1c7aa2" stroke-linecap="round" stroke-linejoin="round" stroke-width="5" d="M-107.5 747.967q-.01.554-.074 1.995-.065 1.44-.161 2.888-.097 1.448-.359 6.483t-.372 8.274-.105 8.225.082 6.726.238 5.601q.161 3.859.477 8.191m15.405-42.465q-.057 2.266-.102 10.154t-.006 12.889q.038 5.002.1 7.302.062 2.301.186 5.825M74.125 620.67q-.005.256-.261 6.347t-.504 9.724-.391 5.329-.273 3.09-.302 3.543q-.173 2.147-.361 4.583-.189 2.435-.327 5.626-.139 3.192-.164 4.68l-.048 2.941q-.023 1.454-.022 3.899t.038 5.542.108 7.614.162 7.325q.09 2.808.167 4.479t.265 4.776M-31.29 800.003q.574-.044 4.241-.227 3.667-.184 4.537-.224.87-.039 2.021-.121t2.059-.122 2.007-.118 2.825-.219 1.869-.164q.142-.022 4.49-.205"/>
    <path fill="none" stroke="#50514f" stroke-linecap="round" stroke-linejoin="round" stroke-width="5" d="m-308.689 581.178.419-.284q.589-.327 15.472-.308l1.126.337m.401.128-.201.694q-.097 1.841-.204 4.787-.108 2.946-.157 4.575-.05 1.63-.365 24.843l-.075.911m-18.074-35.48-.065.378q.025 3.393.394 11.452t.786 17.815l.215 2.399m.729 2.647q.529.173 3.746.396t10.228.991m21.076-41.391q-.099 2.844-.139 5.572t-.05 8.575q-.01 5.846.351 13.48l.165 2.495m239.836 128.704.015.82.591 3.807q1.326 4.619 2.131 6.15.806 1.53 2.495 3.571.819.681.882.765t.86.575 1.472.764q.676.274 2.623.878.057-.003 1.848.142 1.792.146 3.393-.119 1.602-.265 2.96-.87 1.359-.604 2.726-1.631 1.464-1.741 2.363-3.472.899-1.732 1.221-2.709t.739-3.844q.417-2.865.485-4.991l-.059-.434m7.433-1.26q.177.775.291 4.663l.059 2.038q-.016.246.177 5.896.193 5.649.327 9.069.135 3.419.265 4.71.131 1.29.193 1.761m.674 2.978q.988-.11 2.063-.154t1.197-.04 2.59-.13 5.369-.333q2.899-.2 4.917-.337 2.017-.138 9.131-.294t9.255-.153 4.523.052 4.059.131 4.728.192q3.049.11 4.791.198t2.878.175 1.252.103 1.681.123 3.374.237 2.039.14 3.294.332q.147.07 1.581.356m-10.858.127.048.742q.046 2.195.067 5.833.022 3.637.026 7.166.005 3.53.031 5.357t.058 2.706.108 4.389.109 6.061l.081 6.28m-15.686-29.066q1.217.186 1.821.238t1.378.097 1.25.083 2.753.082 5.842.429m-13.846.726q.315.947.445 1.934t.326 2.827.559 4.515.802 9.851m.728-.191q2.081-.39 10.258-1.464m-14.576-13.565-.483-.105q-6.719.261-6.78.257-.062-.004-1.463.206t-2.557.572-2.072.842q-.915.481-1.446.868-.531.386-.951.839-.421.453-1.039 1.7t-.709 2.529.026 1.864.373 1.113q.258.532.509.862.252.331.595.619.343.287.95.617t2.094.658 2.165.349 1.491-.103 1.748-.377 3.743-1.325q2.018-.929 2.701-1.214t3.164-1.571M-63.832 519.411l.371 3.782q.008.272.744 5.652.735 5.38.878 8.396t.065 4.338m-1.986-23.033q.797-.169 5.366-.566t6.782-.58 3.397-.244 1.796-.056 1.193.056 1.454.04 3.788-.241m-.528 1.323q.532 6.71.76 9.431t.347 4.009.209 3.043l-.132 2.123m-20.059 1.056 1.527.496 2.39.231q1.091.119 3.354.15 2.263.032 3.922-.102 1.658-.133 2.71-.129t2.088-.034q1.035-.038 1.524-.119t2.289-.493m-54.11 2.978.018 1.294q-.049 1.271.798 13.476l.04 1.391m0-15.958q.26-.05.812-.329.551-.279 2.21-.66 1.658-.382 3.41-.794t2.515-.527 1.212-.134l3.432-.139m2.569-.993.085.593q-.024.934-.097 1.634t-.299 3.28q-.227 2.581-.331 4.994t-.151 4.225-.07 4.726-.025 3.571-.045 1.273-.074 1.633q-.033 1.018-.25 3.595m-14.958-12.306q.087 3.347.152 4.885.065 1.539.45 7.625m1.712.331q.84-.168 7.543-.662m61.452-24.103.082 2.543q.055 2.704.506 9.918.45 7.215.67 11.06.219 3.844.29 5.993.07 2.148.116 3.734.046 1.587.203 6.28.156 4.693.19 6.951t.035 4.854q.001 2.598-.021 4.844-.021 2.246-.011 11.226t.024 10.637.09 3.342q.077 1.685.14 4.352m68.485-89.971.095.441q.106 1.395.016 4.835-.091 3.441-.311 12.28t-.287 13.437-.074 5.945q-.005 1.346 0 10.743t.013 10.852q.009 1.455.068 5.442t.108 13.399q.049 9.411.088 15.37l-.062 2.394m-67.465.725.451.1.696.412q.793.393 2.323.748t4.385.721 4.315.423l1.579.061 4.071.112q3.951.108 7.474.084t5.953-.095 3.507-.147q1.079-.076 2.129-.135l3.222-.184q2.173-.123 4.4-.325 2.228-.203 3.822-.393 1.595-.19 2.841-.326t4.259-.409 3.99-.405 3.548-.509m-65.679-91.219.45-.091.954.006q3.93.15 5.514.146 1.583-.005 2.183-.01t3.434-.106q2.836-.101 8.187-.456t8.129-.57 4.727-.298 6.118-.113 8.323.073q4.154.101 6.919.077t4.11-.052 2.377-.09 1.491-.107 1.776-.109 3.447-.158m-81.33 161.72.09.506q-.054.306 2.297 14.332m-.656-16.416.505-.086q7.129.17 9.677.404t3.762.342q1.215.107 2.392.186t2.905.147q1.729.069 3.62.124t5.667.083 6.869-.053 5.043-.162 5.547-.188q3.598-.106 4.439-.127.84-.022 1.833-.071t9.945-.115 10.224-.06q1.271.005 4.839.098m1.731.865.131 1.339q.055.99.084 1.172.03.183-.173 7.355l-.115 1.117m-75.682 2.392q.938.315 1.654.433.717.118 1.954.242 1.237.125 3.218.183 1.981.059 3.115.036l3.007-.06q1.872-.037 4.107-.208 2.234-.17 10.627-.4t9.48-.241 3.383-.04 3.696-.035 3.183.051 4.599.045 4.122-.063q1.306-.052 2.279-.103.973-.052 2.156-.078t4.029-.017q2.844.009 4.41.053 1.566.045 3.112.103 1.545.059 3.35.226m10.604-29.129q-.323.647-.339.829t-.067 10.017q-.05 9.835.403 20.134l.203 2.183m1.658-34.817q.489.053 7.415 1.056m.456 2.125.203.657q.096 1.37.326 7.683.229 6.312-.141 21.938l-.188 1.231m-7.342-26.011q1.034-.163 3.37-.675m-3.243 8.946 1.222-.297.789-.089 1.56-.339m-2.915 8.666 3.844-.458m-156.537-122.6q.353-.036 2.258.153 1.904.189 3.48.314 1.575.125 2.923.259 1.349.135 2.236.247t2.648.264 3.123.191 2.944.003 2.796-.122 2.226-.153 1.119-.089 9.409-.673m-1.585.993.213.62q.134.465.248 2.987.115 2.522.183 4.293.069 1.771.249 4.558t.308 3.947.397 3.741.353 3.905.376 4.904.414 5.808.242 8.929q.12 6.703.074 11.195-.047 4.493-.186 8.26-.14 3.767-.313 6.366-.174 2.599-.245 3.413-.072.815-.989 11.803l-.194.928m-37.221-2.774q.138.006 1.306-.126.427.044.962.159.536.116 1.226.212.691.097.773.118t3.62.208 6.246.262 5.457.111 4.369.088 2.587.152q.965.1 1.309.107t5.249.363m-28.276-17.154q.249-.09.916.011 1.188.003 6.015-.891 4.827-.893 8.158-1.807t8.759-3.46"/>
    <path fill="none" stroke="#50514f" stroke-linecap="round" stroke-linejoin="round" stroke-width="5" d="M-75.146 663.849q-.494-1.408-1.264-3.454-.179-.413-.778-2.11-.598-1.696-1.437-4.167t-1.374-3.782-.866-2.277-.475-1.481q-.142-.514-.331-.977-.188-.464-.763-1.871m3.644 8.806.124-1.731q.169-3.901.194-10.625t-.016-10.224-.353-14.789l-.19-3.132-.123-1.549-.166-2.803-.338-4.294-.088-1.25-.228-1.83"/>
    <path fill="none" stroke="#50514f" stroke-linecap="round" stroke-linejoin="round" stroke-width="5" d="m-78.517 619.372-.163-.056q-.775-.431-1.258-.826-.483-.396-.744-.841-.262-.445-.339-.728t-.084-.483q-.008-.199.046-.446.053-.247.29-.536t.942-.671 1.692-.526 1.412-.081q.425.064.878.419t.614.604.484 1.351q.324 1.101.343 1.331t-.287 3.004"/>
    <path fill="none" stroke="#ffe15c" stroke-linecap="round" stroke-linejoin="round" stroke-width="5" d="m-96.408 808.173 1.443.328q.59-.085 2.084-.103t2.596-.003 2.294.109"/>
    <path fill="none" stroke="#50514f" stroke-linecap="round" stroke-linejoin="round" stroke-width="5" d="m-141.458 881.843-.062 1.809q-.113.865-.339 18.45m1.713-20.985q.233.062 1.631.199 1.398.136 3.249.269 1.85.134 2.379.153.53.02 2.084.121 1.553.101 2.988.109t2.457-.042 1.95-.176 2.579-.326 2.773-.333 2.622-.227 3.178-.141q1.68-.046 2.59-.028.91.019 2.569.091"/>
    <path fill="none" stroke="#f45e58" stroke-linecap="round" stroke-linejoin="round" stroke-width="5" d="M-1.736 824.258q.114 7.042.153 8.79t.178 4.826.219 4.347.297 4.583q.215 3.313.422 5.658t.439 5.457l.077.495m-84.7-117.434.737-.168q3.142-.033 4.117.006.974.039 3.16.07t4.153.152 2.756.19 3.249.152 3.704.087q1.242.005 4.013-.03m17.946 23.364q.014.401-.169 2.65t-.345 6.855-.15 7.97.069 5.818.139 4.513m-103.575 14.037 4.779.069q4.871.015 6.299.045t2.624.099q1.196.068 2.212.089t1.829.017 1.114.006 7.233-.325m-26.545 60.435.251.043q.411-.011 1.774-.064t2.751-.196 2.177-.173 2.623-.057 3.048.007 1.959.104 2.378.133 3.625.078 3.218-.011 3.616-.119m-163.498-280.49-.083.428q-.022.562-.131 7.229-.109 6.668-.062 10.351t.093 4.9.094 1.972.214 2.766l.203 2.273"/>
    <path fill="none" stroke="#50514f" stroke-linecap="round" stroke-linejoin="round" stroke-width="5" d="m71.103 548.935-.526-.257-.728-.295q-.462-.138-1.91-.344t-2.179-.159-1.251.176-1.095.509-1.267 1.536-.771 2.057.073 1.47.648 1.101 1.057.855 1.404.411q.841.088 2.599-.689 1.757-.777 2.548-1.4t1.123-.999.858-.994m-.856 18.465q-.146-.353-.398-.795-.252-.441-.816-1.038-.563-.598-.876-.803-.312-.205-.33-.229t-.809-.259q-.792-.235-1.775.048t-1.735.954-1.054 1.111-.467 1.294q-.167.853-.112 1.474t.178.952.319.511.524.331.449.213.577.11.987.009 1.264-.353.775-.31q.04.002.932-.507.892-.51 2.294-1.517m13.045-26.151-.07.264q-.086 2.757-.271 12.482t-.188 11.954M57.184 719.13l.408-.1q.653.032 4.639-.892"/>
    <circle cx="-20.411" cy="742.431" r="2.5" fill="#50514f" stroke="#50514f" stroke-width=".1"/>
    <path fill="none" stroke="#50514f" stroke-linecap="round" stroke-linejoin="round" stroke-width="5" d="M-193.91 786.781q.007.648.11 3.32.103 2.673.347 4.555.243 1.883.381 2.866.137.983.565 2.837m-1.075-13.502.614.156q1.974.08 4.081.135t4.502.042 2.775-.013 3.715-.06 7.631-.106l4.961-.052q.664-.007 1.674-.062t1.417-.059 2.239.086l3.339-.003m-.583 2.176q.073 2.168.247 4.426.173 2.258 1.065 8.096"/>
    <g fill="none" stroke-linecap="round" stroke-linejoin="round" stroke-width="1.2">
        <path stroke="#f45e58" d="M-37.172 849.735q.036 0 .401.14v-2.023q.028-1.359.036-.923.187.055.101-.433t.765-2.775 1.554-3.82q.702-1.532 1.833-3.065 1.13-1.533 2.004-2.211t1.534-1.341 1.088-1.001.674-.476q.246-.137.681-.375t.44-.242.003-.012.087-.005 1.201-.591 1.892-1.07 1.114-.584q.333-.109.469-.192t-.03.002.225-.093q.389-.178.678-.319t.213-.106.161-.099q.236-.134 1.218-.657t1.166-.601l.204-.087q.02-.008.137-.044t.043-.03q-.073.004.566-.15.64-.155 1.169-.264.528-.109.518-.146.969-.332.802-.261 1.454-.403 1.016-.286-.438.116.208-.07.645-.186 1.075-.268t.646-.129q.215-.047.067-.013t.84-.089q.989-.123 1.95-.289t1.641-.242.836-.079.693.3m-30.462 25.427q0-.039-.073-.268h-.182q1.282.087.847.096 1.125.601.766.394.115.267 2.35.413 2.235.147 4.074.744t2.828.885q.991.288.92.251t.195.02.581.128.266.058q-.049-.012.036.008.086.02.491.095.406.075.583.116.178.04.1-.021-.077-.062 1.021.068t2.233.407 1.63.4 1.382.31q.888.188.439.052-.449-.137.521.164.971.3 1.587.523.617.223 3.163 1.005t3.985 1.565 4.163.464m-86.158-118.503q.097-.084-1.057.14.382-.301 4.658-7.439t6.817-11.576q2.539-4.439 4.558-7.671m.856.14h-.455q.729.152.629.127.887.159.728.127-.034-.033.627.169l.658.2q.379.11.951.255.572.144 1.049.288t1.282.453q.806.308 1.185.597t.837.867.508.799q.052.222 1.203 2.023t2.01 2.881 1.115 1.674.764 1.673 1.266 2.52 1.168 2.196.484.96.255.679.294.66.491 2.211q.377 2.023.642 4.258h-.546m-12.772 40.048h-.565q-.469-.019-.765.726h1.002q1.823-.84 1.421-.726.287-.826 7.203-5.385t11.229-7.202 7.694-4.3m-26.763 18.147q.129.142-.256-.534h-.072q-.011.129.111 1.894t.742 2.933 1.829 2.536 2.084 2.066 1.127.867l.219.148q-.034-.022.445.311.48.333.959.668.479.334.649.357t.236.174q.065.152 1.564.897t3.27.711 2.671-.257 1.288-.411q.386-.187.819-.14t.472.046.22-.036.571.295 1.055.39q.664.058 2.716.129m-101.243 14.826q.902.281.628.229.631 1.418.392.929.174.5.071 1.002t.574 2.294 3.148 6.313 3.81 7.411 2.135 4.922 3.343 5.227q.275.233-.601-1.781m1.257 2.112q-.183-.317-.208-.35-.024-.034-.194-.488t-.254-.753q.454-.158 1.422.024.969.182 1.962-.123.993-.304 1.363-.621t.462-.354q.093-.038.66-.475t.604-.484q.036-.047.018-.027l.072-.078q.091-.098-.017-.001-.107.096.185-.095t1.521-1.755q1.228-1.564 1.821-2.411.592-.846.82-1.229.227-.382.198-.335-.029.048.157-.291.187-.339.252-.447.064-.109-.006-.001-.071.107.295-.541t.625-1.136q.258-.489.571-1.145.312-.655.315-.641t.059-.214q.054-.229-.015.11t.604-1.373q.672-1.713 1.015-2.898t.447-1.656.125-.56l.096-.427q.076-.34.139-.921t.063-.997v-.724q-.001-.309-.017-.298t-.002-.059.043-.511-.078-.617-1.149-.715m-18.146 31.713q.04-.693.109-.598-.242.548.492-1.26.115.948-3.076 6.633t-5.563 9.591-5.39 8.731q.031.028 1.713-2.112m13.774-21.125q-.242-.665-.201-.49-.027-.064-.328-.172h.492q1.272.711.829.503.516.652.474.592.479.435.455.432.138.232.634.57.496.339 1.114.672t.666.386-.019-.016q-.066-.07 1.02.685t2.431 1.821 2.051 1.828 1.39 1.533q.683.77.92 1.03l.19.209q-.047-.051-.038-.036.008.015.124.145t.369.465q.254.334.306.44t.025.069.266.423.404.585q.11.127.768 1.433.659 1.307 1.075 2.243.416.937.462 1.105.045.169-.006.109-.052-.06.218.211.269.271 1.253 4.35M-278.21 586.667q0-.032-.455-.534.025-.476 1.44.927 1.414 1.403 3.666 3.972t3.694 3.845 1.689 1.35q.246.075 2.949 2.069 2.704 1.994 4.062 3.32 1.358 1.327 1.648 1.424.289.098.89.472t.64.416l-.193-.213q-.231-.257 2.562 2.346m-23.849 9.672v-.471q.112-.365.4.188t2.752.662q2.463.11 3.811.119t2.614-.521 1.332-.604q.067-.074.62-.439.554-.365 1.918-.793t2.881-1.412 2.336-1.924 1.251-1.301.443-.388q.01-.027-.136.107-.146.135.522-.406.668-.542 1.177-1.091t.478-.547q-.03.003-.089.111-.059.109.079-.117.139-.226.658-.781"/>
        <path stroke="#dd70a2" d="m-191.596 579.057-.122.839q.391 8.086.551 15.591.159 7.506.216 11.252t.144 6.343.134 4.796.165 6.405q.118 4.204.217 9.749t.112 8.494q.014 2.949.055 12.689.042 9.74.06 11.005.019 1.265.008 1.832t.321 10.646l-.003 1.377m.929-.128q.768.266 1.526.422.757.157 2.271.239t2.718.138q1.205.056 3.502.09t3.561.02 2.712-.101 3.116-.214 2.128-.147q.458-.02 1.575-.108 1.117-.087 3-.287t2.575-.29 1.46-.151l3.561-.285m-35.418-100.216q2.911-.559 4.288-.798 1.376-.239 3.984-.996m-7.215 13.514q.277-.388 4.755-7.024m-2.897 20.794.554-1.089q.095-.664 5.131-8.646m-6.887 28.531q.357-.354 1.084-1.256.727-.903 1.55-2.063t2.314-3.174 2.44-3.265 2.742-3.49m-9.656 32.973q.75-.651.977-.871.226-.221 1.243-1.567t1.502-2.034 2.095-2.891 3.738-5.097 4.613-6.265 8.077-10.405m-20.933 46.806q.246-.201 1.507-1.7 1.262-1.499 2.947-3.495t5.536-6.753 6.751-8.373 5.931-7.223 4.966-5.895 3.18-3.778 3.287-3.824m-33.377 56.134q.255-.241 3.105-3.788 2.851-3.548 5.891-7.109t4.994-5.805 4.98-5.542 4.927-5.352 2.8-2.991q.9-.936 1.421-1.418t2.417-2.546"/>
        <path stroke="#dd70a2" d="M-175.363 680.609q.471-.412 4.052-4.655t5.682-6.711 3.731-4.3q1.629-1.831 3.952-4.326m-2.059 17.205q1.075-1.079 3.316-2.914"/>
    </g>
</svg>
