<svg xmlns="http://www.w3.org/2000/svg" xml:space="preserve" width="300mm" height="200mm" viewBox="0 0 300 200">
    <g style="opacity:.5;stroke-width:5;stroke-dasharray:none">
        <path d="m65.624 170.828-4.109-5.85-8.957-7.312-27.423-15.822M71.96 172.21l10.735 31.025 6.534 24.736m2.304-50.963 9.56 36.223 12.373 28.14m.018-63.14 7.113 32.452 12.907 20.06m-3.934-56.763 13.194 16.566 22.076 11.423" style="opacity:1;fill:none;stroke:#000;stroke-width:5;stroke-linecap:round;stroke-linejoin:round;stroke-dasharray:none" transform="rotate(90 128.269 136.66)"/>
    </g>
    <g style="display:inline;opacity:.25">
        <g style="display:inline">
            <g transform="rotate(93.531 138.79 156.44)">
                <circle cx="67.837" cy="105.747" r="1" style="display:inline;opacity:.75;fill:#fff;stroke:#000;stroke-width:.264583"/>
                <circle cx="9.088" cy="124.633" r="1" style="display:inline;opacity:.75;fill:#fff;stroke:#000;stroke-width:.264583"/>
                <circle cx="-4.425" cy="131.915" r="1" style="display:inline;opacity:.75;fill:#fff;stroke:#000;stroke-width:.264583"/>
                <circle cx="37.17" cy="108.886" r="1" style="display:inline;opacity:.75;fill:#fff;stroke:#000;stroke-width:.264583"/>
            </g>
            <g transform="rotate(93.531 141.555 147.85)">
                <circle cx="83.742" cy="164.12" r="1" style="display:inline;opacity:.75;fill:#fff;stroke:#000;stroke-width:.264583"/>
                <circle cx="59.264" cy="202.219" r="1" style="display:inline;opacity:.75;fill:#fff;stroke:#000;stroke-width:.264583"/>
                <circle cx="49.41" cy="224.691" r="1" style="display:inline;opacity:.75;fill:#fff;stroke:#000;stroke-width:.264583"/>
                <circle cx="42.565" cy="240.209" r="1" style="display:inline;opacity:.75;fill:#fff;stroke:#000;stroke-width:.264583"/>
            </g>
            <g transform="rotate(93.531 138.39 145.858)">
                <circle cx="106.47" cy="162.036" r="1" style="display:inline;opacity:.75;fill:#fff;stroke:#000;stroke-width:.264583"/>
                <circle cx="94.915" cy="208.441" r="1" style="display:inline;opacity:.75;fill:#fff;stroke:#000;stroke-width:.264583"/>
                <circle cx="88.157" cy="241.918" r="1" style="display:inline;opacity:.75;fill:#fff;stroke:#000;stroke-width:.264583"/>
                <circle cx="84.855" cy="258.743" r="1" style="display:inline;opacity:.75;fill:#fff;stroke:#000;stroke-width:.264583"/>
            </g>
            <g transform="rotate(93.531 136.525 145.194)">
                <circle cx="124.407" cy="155.955" r="1" style="display:inline;opacity:.75;fill:#fff;stroke:#000;stroke-width:.264583"/>
                <circle cx="120.983" cy="200.372" r="1" style="display:inline;opacity:.75;fill:#fff;stroke:#000;stroke-width:.264583"/>
                <circle cx="117.543" cy="234.8" r="1" style="display:inline;opacity:.75;fill:#fff;stroke:#000;stroke-width:.264583"/>
                <circle cx="115.405" cy="248.94" r="1" style="display:inline;opacity:.75;fill:#fff;stroke:#000;stroke-width:.264583"/>
            </g>
            <g transform="rotate(93.531 134.647 145.619)">
                <circle cx="141.671" cy="146.574" r="1" style="display:inline;opacity:.75;fill:#fff;stroke:#000;stroke-width:.264583"/>
                <circle cx="153.914" cy="183.364" r="1" style="display:inline;opacity:.75;fill:#fff;stroke:#000;stroke-width:.264583"/>
                <circle cx="159.359" cy="207.404" r="1" style="display:inline;opacity:.75;fill:#fff;stroke:#000;stroke-width:.264583"/>
                <circle cx="161.507" cy="219.935" r="1" style="display:inline;opacity:.75;fill:#fff;stroke:#000;stroke-width:.264583"/>
            </g>
            <g style="display:inline" transform="rotate(93.531 134.151 147.573)">
                <circle cx="87.736" cy="106.323" r="1" style="display:inline;opacity:.75;fill:#fff;stroke:#000;stroke-width:.264583"/>
                <circle cx="107.023" cy="107.274" r="1" style="display:inline;opacity:.75;fill:#fff;stroke:#000;stroke-width:.264583"/>
                <circle cx="126.538" cy="107.329" r="1" style="display:inline;opacity:.75;fill:#fff;stroke:#000;stroke-width:.264583"/>
                <circle cx="126.069" cy="127.317" r="1" style="display:inline;opacity:.75;fill:#fff;stroke:#000;stroke-width:.264583"/>
                <circle cx="105.349" cy="126.54" r="1" style="display:inline;opacity:.75;fill:#fff;stroke:#000;stroke-width:.264583"/>
            </g>
            <g transform="rotate(93.531 134.324 147.775)">
                <circle cx="116.628" cy="47.082" r="1" style="opacity:.75;fill:#fff;stroke:#000;stroke-width:.264583"/>
                <circle cx="138.888" cy="66.755" r="1" style="display:inline;opacity:.75;fill:#fff;stroke:#000;stroke-width:.264583"/>
                <circle cx="91.697" cy="73.485" r="1" style="display:inline;opacity:.75;fill:#fff;stroke:#000;stroke-width:.264583"/>
                <circle cx="115.008" cy="12.047" r="1" style="display:inline;opacity:.75;fill:#fff;stroke:#000;stroke-width:.264583"/>
            </g>
        </g>
        <path d="m130.906 12.533 1.62 35.035m22.549 101.46 12.243 36.789 5.445 24.04 2.148 12.531m-39.518-65.404-3.424 44.416-3.44 34.429-2.138 14.14m-10.252-89.47-11.555 46.405-6.758 33.477-3.302 16.825m-2.484-99.898-24.48 38.1-9.853 22.472-6.845 15.517m36.78-140.821-30.666 3.14-28.083 15.746-13.512 7.281" style="opacity:1;fill:none;stroke:#0055d4;stroke-width:.264583" transform="rotate(93.531 142.502 140.544)"/>
        <path d="m132.526 47.568 22.26 19.673.289 81.787-19.682 7.956-19.254 3.515-24.1-3.19 11.578-50.112-15.975-14.62 19.953-18.606Z" style="opacity:1;fill:none;stroke:#0055d4;stroke-width:.264583" transform="rotate(93.531 142.502 140.544)"/>
        <path d="m122.903 108.148 19.515.055-.469 19.987-20.72-.777z" style="opacity:1;fill:none;stroke:#0055d4;stroke-width:.264583" transform="rotate(93.531 142.502 140.544)"/>
    </g>
    <g style="display:inline;opacity:.25">
        <g style="display:inline">
            <g transform="rotate(91.69 125.924 133.013)">
                <circle cx="79.449" cy="79.184" r="1" style="display:inline;opacity:.75;fill:#fff;stroke:#000;stroke-width:.264583"/>
                <circle cx="35.264" cy="122.047" r="1" style="display:inline;opacity:.75;fill:#fff;stroke:#000;stroke-width:.264583"/>
                <circle cx="26.565" cy="138.783" r="1" style="display:inline;opacity:.75;fill:#fff;stroke:#000;stroke-width:.264583"/>
                <circle cx="53.784" cy="95.059" r="1" style="display:inline;opacity:.75;fill:#fff;stroke:#000;stroke-width:.264583"/>
            </g>
            <g transform="rotate(91.69 125.924 133.013)">
                <circle cx="93.472" cy="139.509" r="1" style="display:inline;opacity:.75;fill:#fff;stroke:#000;stroke-width:.264583"/>
                <circle cx="81.301" cy="182.901" r="1" style="display:inline;opacity:.75;fill:#fff;stroke:#000;stroke-width:.264583"/>
                <circle cx="78.655" cy="206.449" r="1" style="display:inline;opacity:.75;fill:#fff;stroke:#000;stroke-width:.264583"/>
                <circle cx="77.332" cy="220.736" r="1" style="display:inline;opacity:.75;fill:#fff;stroke:#000;stroke-width:.264583"/>
            </g>
            <g transform="rotate(91.69 125.924 133.013)">
                <circle cx="116.755" cy="138.451" r="1" style="display:inline;opacity:.75;fill:#fff;stroke:#000;stroke-width:.264583"/>
                <circle cx="110.141" cy="186.076" r="1" style="display:inline;opacity:.75;fill:#fff;stroke:#000;stroke-width:.264583"/>
                <circle cx="108.289" cy="219.943" r="1" style="display:inline;opacity:.75;fill:#fff;stroke:#000;stroke-width:.264583"/>
                <circle cx="107.23" cy="235.024" r="1" style="display:inline;opacity:.75;fill:#fff;stroke:#000;stroke-width:.264583"/>
            </g>
            <g transform="rotate(91.69 125.924 133.013)">
                <circle cx="135.011" cy="132.895" r="1" style="display:inline;opacity:.75;fill:#fff;stroke:#000;stroke-width:.264583"/>
                <circle cx="134.747" cy="177.609" r="1" style="display:inline;opacity:.75;fill:#fff;stroke:#000;stroke-width:.264583"/>
                <circle cx="134.218" cy="211.476" r="1" style="display:inline;opacity:.75;fill:#fff;stroke:#000;stroke-width:.264583"/>
                <circle cx="132.895" cy="225.764" r="1" style="display:inline;opacity:.75;fill:#fff;stroke:#000;stroke-width:.264583"/>
            </g>
            <g transform="rotate(91.69 125.924 133.013)">
                <circle cx="152.739" cy="123.37" r="1" style="display:inline;opacity:.75;fill:#fff;stroke:#000;stroke-width:.264583"/>
                <circle cx="163.851" cy="159.618" r="1" style="display:inline;opacity:.75;fill:#fff;stroke:#000;stroke-width:.264583"/>
                <circle cx="168.084" cy="184.224" r="1" style="display:inline;opacity:.75;fill:#fff;stroke:#000;stroke-width:.264583"/>
                <circle cx="169.672" cy="195.336" r="1" style="display:inline;opacity:.75;fill:#fff;stroke:#000;stroke-width:.264583"/>
            </g>
            <g style="display:inline" transform="rotate(91.69 125.924 133.013)">
                <circle cx="98.764" cy="88.18" r="1" style="display:inline;opacity:.75;fill:#fff;stroke:#000;stroke-width:.264583"/>
                <circle cx="118.078" cy="85.799" r="1" style="display:inline;opacity:.75;fill:#fff;stroke:#000;stroke-width:.264583"/>
                <circle cx="137.393" cy="83.153" r="1" style="display:inline;opacity:.75;fill:#fff;stroke:#000;stroke-width:.264583"/>
                <circle cx="137.922" cy="103.526" r="1" style="display:inline;opacity:.75;fill:#fff;stroke:#000;stroke-width:.264583"/>
                <circle cx="117.814" cy="105.114" r="1" style="display:inline;opacity:.75;fill:#fff;stroke:#000;stroke-width:.264583"/>
            </g>
            <g transform="rotate(91.69 125.924 133.013)">
                <circle cx="125.994" cy="23.844" r="1" style="opacity:.75;fill:#fff;stroke:#000;stroke-width:.264583"/>
                <circle cx="147.955" cy="41.552" r="1" style="display:inline;opacity:.75;fill:#fff;stroke:#000;stroke-width:.264583"/>
                <circle cx="100.88" cy="52.726" r="1" style="display:inline;opacity:.75;fill:#fff;stroke:#000;stroke-width:.264583"/>
                <circle cx="125.486" cy="-12.097" r="1" style="display:inline;opacity:.75;fill:#fff;stroke:#000;stroke-width:.264583"/>
            </g>
        </g>
        <path d="m152.739 123.37 11.112 36.248 4.233 24.606 1.588 11.112m-34.661-62.441-.264 44.714-.53 33.867-1.322 14.288m-16.14-87.313-6.614 47.625-1.852 33.867-1.059 15.08M93.472 139.51 81.3 182.9l-2.646 23.548-1.323 14.287m2.118-141.551L53.784 95.06l-18.52 26.988-8.699 16.736m98.921-150.881.508 35.941" style="opacity:1;fill:none;stroke:red;stroke-width:.264583" transform="rotate(91.69 125.924 133.013)"/>
        <path d="m125.994 23.844 21.961 17.708 4.784 81.818-17.728 9.525-18.256 5.556-23.283 1.058 5.292-51.329-19.315-8.996 21.431-26.458z" style="opacity:1;fill:none;stroke:red;stroke-width:.264583" transform="rotate(91.69 125.924 133.013)"/>
        <path d="m118.078 85.799 19.315-2.646.529 20.373-20.108 1.588z" style="opacity:1;fill:none;stroke:red;stroke-width:.264583" transform="rotate(91.69 125.924 133.013)"/>
    </g>
    <g style="display:inline">
        <g style="display:inline">
            <g transform="rotate(91.461 132.165 150.474)">
                <circle cx="67.837" cy="105.747" r="1" style="display:inline;opacity:.75;fill:#fff;stroke:#000;stroke-width:.264583"/>
                <circle cx="41.84" cy="159.378" r="1" style="display:inline;opacity:.75;fill:#fff;stroke:#000;stroke-width:.264583"/>
                <circle cx="43.304" cy="177.65" r="1" style="display:inline;opacity:.75;fill:#fff;stroke:#000;stroke-width:.264583"/>
                <circle cx="46.163" cy="126.503" r="1" style="display:inline;opacity:.75;fill:#fff;stroke:#000;stroke-width:.264583"/>
            </g>
            <g transform="rotate(91.461 132.165 150.474)">
                <circle cx="83.742" cy="164.12" r="1" style="display:inline;opacity:.75;fill:#fff;stroke:#000;stroke-width:.264583"/>
                <circle cx="79" cy="207.633" r="1" style="display:inline;opacity:.75;fill:#fff;stroke:#000;stroke-width:.264583"/>
                <circle cx="80.72" cy="230.772" r="1" style="display:inline;opacity:.75;fill:#fff;stroke:#000;stroke-width:.264583"/>
                <circle cx="81.756" cy="246.997" r="1" style="display:inline;opacity:.75;fill:#fff;stroke:#000;stroke-width:.264583"/>
            </g>
            <g transform="rotate(91.461 132.165 150.474)">
                <circle cx="106.47" cy="162.036" r="1" style="display:inline;opacity:.75;fill:#fff;stroke:#000;stroke-width:.264583"/>
                <circle cx="104.52" cy="209.977" r="1" style="display:inline;opacity:.75;fill:#fff;stroke:#000;stroke-width:.264583"/>
                <circle cx="105.793" cy="243.082" r="1" style="display:inline;opacity:.75;fill:#fff;stroke:#000;stroke-width:.264583"/>
                <circle cx="106.327" cy="259.775" r="1" style="display:inline;opacity:.75;fill:#fff;stroke:#000;stroke-width:.264583"/>
            </g>
            <g transform="rotate(91.461 132.165 150.474)">
                <circle cx="124.407" cy="155.955" r="1" style="display:inline;opacity:.75;fill:#fff;stroke:#000;stroke-width:.264583"/>
                <circle cx="125.602" cy="200.158" r="1" style="display:inline;opacity:.75;fill:#fff;stroke:#000;stroke-width:.264583"/>
                <circle cx="126.848" cy="234.715" r="1" style="display:inline;opacity:.75;fill:#fff;stroke:#000;stroke-width:.264583"/>
                <circle cx="126.087" cy="248.639" r="1" style="display:inline;opacity:.75;fill:#fff;stroke:#000;stroke-width:.264583"/>
            </g>
            <g transform="rotate(91.461 132.165 150.474)">
                <circle cx="141.671" cy="146.574" r="1" style="display:inline;opacity:.75;fill:#fff;stroke:#000;stroke-width:.264583"/>
                <circle cx="151.413" cy="183.129" r="1" style="display:inline;opacity:.75;fill:#fff;stroke:#000;stroke-width:.264583"/>
                <circle cx="155.207" cy="206.982" r="1" style="display:inline;opacity:.75;fill:#fff;stroke:#000;stroke-width:.264583"/>
                <circle cx="156.68" cy="219.076" r="1" style="display:inline;opacity:.75;fill:#fff;stroke:#000;stroke-width:.264583"/>
            </g>
            <g style="display:inline" transform="rotate(91.461 132.165 150.474)">
                <circle cx="87.368" cy="112.96" r="1" style="display:inline;opacity:.75;fill:#fff;stroke:#000;stroke-width:.264583"/>
                <circle cx="107.017" cy="109.686" r="1" style="display:inline;opacity:.75;fill:#fff;stroke:#000;stroke-width:.264583"/>
                <circle cx="126.538" cy="107.329" r="1" style="display:inline;opacity:.75;fill:#fff;stroke:#000;stroke-width:.264583"/>
                <circle cx="126.926" cy="127.23" r="1" style="display:inline;opacity:.75;fill:#fff;stroke:#000;stroke-width:.264583"/>
                <circle cx="106.888" cy="129.187" r="1" style="display:inline;opacity:.75;fill:#fff;stroke:#000;stroke-width:.264583"/>
            </g>
            <g transform="rotate(91.461 132.165 150.474)">
                <circle cx="115.382" cy="47.028" r="1" style="opacity:.75;fill:#fff;stroke:#000;stroke-width:.264583"/>
                <circle cx="136.983" cy="66.429" r="1" style="display:inline;opacity:.75;fill:#fff;stroke:#000;stroke-width:.264583"/>
                <circle cx="90.096" cy="76.953" r="1" style="display:inline;opacity:.75;fill:#fff;stroke:#000;stroke-width:.264583"/>
                <circle cx="115.008" cy="12.047" r="1" style="display:inline;opacity:.75;fill:#fff;stroke:#000;stroke-width:.264583"/>
            </g>
        </g>
        <g style="display:inline;stroke:#ff7f2a">
            <path d="m115.008 12.047.374 34.981M83.742 164.12 79 207.633l1.72 23.139 1.036 16.225m24.714-84.961-1.95 47.941 1.273 33.105.534 16.693m18.08-103.82 1.195 44.203 1.246 34.557-.76 13.924m15.582-102.065 9.743 36.555 3.794 23.853 1.473 12.094M67.837 105.747l-21.674 20.756-4.323 32.875 1.464 18.272" style="opacity:1;fill:none;stroke:#ff7f2a;stroke-width:.264583" transform="rotate(91.461 132.165 150.474)"/>
            <path d="m115.382 47.028 21.6 19.4 4.689 80.146-17.264 9.381-17.937 6.081-22.728 2.084 3.626-51.16-19.531-7.213 22.259-28.794z" style="opacity:1;fill:none;stroke:#ff7f2a;stroke-width:.264583" transform="rotate(91.461 132.165 150.474)"/>
            <path d="m107.017 109.687 19.52-2.358.389 19.9-20.038 1.958z" style="opacity:1;fill:none;stroke:#ff7f2a;stroke-width:.264583" transform="rotate(91.461 132.165 150.474)"/>
        </g>
    </g>
    <g style="display:inline">
        <g style="display:inline">
            <g transform="rotate(90 137.53 150.37)">
                <circle cx="77.132" cy="112.225" r="1" style="display:inline;opacity:.75;fill:#fff;stroke:#000;stroke-width:.264583"/>
                <circle cx="55.994" cy="174.301" r="1" style="display:inline;opacity:.75;fill:#fff;stroke:#000;stroke-width:.264583"/>
                <circle cx="61.176" cy="193.797" r="1" style="display:inline;opacity:.75;fill:#fff;stroke:#000;stroke-width:.264583"/>
                <circle cx="60.796" cy="141.334" r="1" style="display:inline;opacity:.75;fill:#fff;stroke:#000;stroke-width:.264583"/>
            </g>
            <g transform="rotate(90 137.53 150.37)">
                <circle cx="90.398" cy="163.7" r="1" style="display:inline;opacity:.75;fill:#fff;stroke:#000;stroke-width:.264583"/>
                <circle cx="84.11" cy="208.847" r="1" style="display:inline;opacity:.75;fill:#fff;stroke:#000;stroke-width:.264583"/>
                <circle cx="81.99" cy="223.064" r="1" style="display:inline;opacity:.75;fill:#fff;stroke:#000;stroke-width:.264583"/>
                <circle cx="78.247" cy="226.205" r="1" style="display:inline;opacity:.75;fill:#fff;stroke:#000;stroke-width:.264583"/>
            </g>
            <g transform="rotate(90 133.234 155.3)">
                <circle cx="106.47" cy="162.036" r="1" style="display:inline;opacity:.75;fill:#fff;stroke:#000;stroke-width:.264583"/>
                <circle cx="101.853" cy="211.859" r="1" style="display:inline;opacity:.75;fill:#fff;stroke:#000;stroke-width:.264583"/>
                <circle cx="93.809" cy="233.478" r="1" style="display:inline;opacity:.75;fill:#fff;stroke:#000;stroke-width:.264583"/>
                <circle cx="87.418" cy="236.836" r="1" style="display:inline;opacity:.75;fill:#fff;stroke:#000;stroke-width:.264583"/>
            </g>
            <g transform="rotate(90 132.96 155.154)">
                <circle cx="124.407" cy="155.955" r="1" style="display:inline;opacity:.75;fill:#fff;stroke:#000;stroke-width:.264583"/>
                <circle cx="124.487" cy="203.996" r="1" style="display:inline;opacity:.75;fill:#fff;stroke:#000;stroke-width:.264583"/>
                <circle cx="114.951" cy="228.515" r="1" style="display:inline;opacity:.75;fill:#fff;stroke:#000;stroke-width:.264583"/>
                <circle cx="106.794" cy="233.866" r="1" style="display:inline;opacity:.75;fill:#fff;stroke:#000;stroke-width:.264583"/>
            </g>
            <g transform="rotate(90 133.127 153.331)">
                <circle cx="141.671" cy="146.574" r="1" style="display:inline;opacity:.75;fill:#fff;stroke:#000;stroke-width:.264583"/>
                <circle cx="148.331" cy="187.535" r="1" style="display:inline;opacity:.75;fill:#fff;stroke:#000;stroke-width:.264583"/>
                <circle cx="139.853" cy="206.884" r="1" style="display:inline;opacity:.75;fill:#fff;stroke:#000;stroke-width:.264583"/>
                <circle cx="130.952" cy="212.075" r="1" style="display:inline;opacity:.75;fill:#fff;stroke:#000;stroke-width:.264583"/>
            </g>
            <g style="display:inline" transform="rotate(90 137.53 150.37)">
                <circle cx="94.295" cy="112.433" r="1" style="display:inline;opacity:.75;fill:#fff;stroke:#000;stroke-width:.264583"/>
                <circle cx="113.722" cy="107.886" r="1" style="display:inline;opacity:.75;fill:#fff;stroke:#000;stroke-width:.264583"/>
                <circle cx="132.777" cy="107.203" r="1" style="display:inline;opacity:.75;fill:#fff;stroke:#000;stroke-width:.264583"/>
                <circle cx="134.678" cy="127.064" r="1" style="display:inline;opacity:.75;fill:#fff;stroke:#000;stroke-width:.264583"/>
                <circle cx="114.955" cy="127.458" r="1" style="display:inline;opacity:.75;fill:#fff;stroke:#000;stroke-width:.264583"/>
            </g>
            <g transform="rotate(90 130.593 152.438)">
                <circle cx="114.446" cy="46.142" r="1" style="opacity:.75;fill:#fff;stroke:#000;stroke-width:.264583"/>
                <circle cx="134.104" cy="64.711" r="1" style="display:inline;opacity:.75;fill:#fff;stroke:#000;stroke-width:.264583"/>
                <circle cx="88.358" cy="73.954" r="1" style="display:inline;opacity:.75;fill:#fff;stroke:#000;stroke-width:.264583"/>
                <circle cx="115.008" cy="12.047" r="1" style="display:inline;opacity:.75;fill:#fff;stroke:#000;stroke-width:.264583"/>
            </g>
        </g>
        <g style="stroke:#37c871">
            <path d="m124.014 16.914-.562 34.095m25.583 97.005 6.66 40.961-8.477 19.35-8.902 5.19m-4.554-57.774.08 48.04-9.536 24.52-8.157 5.35m-.452-72.251-4.617 49.824-8.045 21.618-6.39 3.358m-6.247-72.5-6.288 45.147-2.12 14.217-3.743 3.14m-1.115-113.979-16.336 29.109-4.802 32.967 5.182 19.496" style="opacity:1;fill:none;stroke:#37c871;stroke-width:.264583" transform="rotate(90 137.53 150.37)"/>
            <path d="m123.452 51.01 19.658 18.568 5.925 78.436-15.273 7.727-18.065 5.66-25.299 2.299 3.897-51.267-17.163-.208 20.231-33.403z" style="opacity:1;fill:none;stroke:#37c871;stroke-width:.264583" transform="rotate(90 137.53 150.37)"/>
            <path d="m132.777 107.203 1.901 19.86-19.723.395-1.233-19.572z" style="opacity:1;fill:none;stroke:#37c871;stroke-width:.264583" transform="rotate(90 137.53 150.37)"/>
        </g>
    </g>
    <g style="display:inline">
        <g style="display:inline">
            <g transform="rotate(89.825 128.05 136.879)">
                <circle cx="79.202" cy="84.148" r="1" style="display:inline;opacity:.75;fill:#fff;stroke:#000;stroke-width:.264583"/>
                <circle cx="54.814" cy="143.715" r="1" style="display:inline;opacity:.75;fill:#fff;stroke:#000;stroke-width:.264583"/>
                <circle cx="60.994" cy="164.774" r="1" style="display:inline;opacity:.75;fill:#fff;stroke:#000;stroke-width:.264583"/>
                <circle cx="63.075" cy="112.741" r="1" style="display:inline;opacity:.75;fill:#fff;stroke:#000;stroke-width:.264583"/>
            </g>
            <g transform="rotate(89.825 128.05 136.879)">
                <circle cx="85.687" cy="130.265" r="1" style="display:inline;opacity:.75;fill:#fff;stroke:#000;stroke-width:.264583"/>
                <circle cx="71.416" cy="172.037" r="1" style="display:inline;opacity:.75;fill:#fff;stroke:#000;stroke-width:.264583"/>
                <circle cx="72.196" cy="182.576" r="1" style="display:inline;opacity:.75;fill:#fff;stroke:#000;stroke-width:.264583"/>
                <circle cx="76.449" cy="179.532" r="1" style="display:inline;opacity:.75;fill:#fff;stroke:#000;stroke-width:.264583"/>
            </g>
            <g transform="rotate(89.825 128.05 136.879)">
                <circle cx="112.677" cy="131.807" r="1" style="display:inline;opacity:.75;fill:#fff;stroke:#000;stroke-width:.264583"/>
                <circle cx="102.618" cy="181.283" r="1" style="display:inline;opacity:.75;fill:#fff;stroke:#000;stroke-width:.264583"/>
                <circle cx="95.111" cy="187.645" r="1" style="display:inline;opacity:.75;fill:#fff;stroke:#000;stroke-width:.264583"/>
                <circle cx="90.975" cy="176.894" r="1" style="display:inline;opacity:.75;fill:#fff;stroke:#000;stroke-width:.264583"/>
            </g>
            <g transform="rotate(89.825 128.05 136.879)">
                <circle cx="131.871" cy="129.72" r="1" style="display:inline;opacity:.75;fill:#fff;stroke:#000;stroke-width:.264583"/>
                <circle cx="124.816" cy="177.155" r="1" style="display:inline;opacity:.75;fill:#fff;stroke:#000;stroke-width:.264583"/>
                <circle cx="117.163" cy="183.325" r="1" style="display:inline;opacity:.75;fill:#fff;stroke:#000;stroke-width:.264583"/>
                <circle cx="112.921" cy="178.185" r="1" style="display:inline;opacity:.75;fill:#fff;stroke:#000;stroke-width:.264583"/>
            </g>
            <g transform="rotate(89.825 128.05 136.879)">
                <circle cx="149.017" cy="125.008" r="1" style="display:inline;opacity:.75;fill:#fff;stroke:#000;stroke-width:.264583"/>
                <circle cx="146.751" cy="166.078" r="1" style="display:inline;opacity:.75;fill:#fff;stroke:#000;stroke-width:.264583"/>
                <circle cx="134.542" cy="175.362" r="1" style="display:inline;opacity:.75;fill:#fff;stroke:#000;stroke-width:.264583"/>
                <circle cx="129.021" cy="173.982" r="1" style="display:inline;opacity:.75;fill:#fff;stroke:#000;stroke-width:.264583"/>
            </g>
            <g style="display:inline" transform="rotate(89.825 137.924 155.261)">
                <circle cx="86.588" cy="111.844" r="1" style="display:inline;opacity:.75;fill:#fff;stroke:#000;stroke-width:.264583"/>
                <circle cx="107.017" cy="109.686" r="1" style="display:inline;opacity:.75;fill:#fff;stroke:#000;stroke-width:.264583"/>
                <circle cx="127.116" cy="110.813" r="1" style="display:inline;opacity:.75;fill:#fff;stroke:#000;stroke-width:.264583"/>
                <circle cx="126.834" cy="130.095" r="1" style="display:inline;opacity:.75;fill:#fff;stroke:#000;stroke-width:.264583"/>
                <circle cx="106.639" cy="127.724" r="1" style="display:inline;opacity:.75;fill:#fff;stroke:#000;stroke-width:.264583"/>
            </g>
            <g transform="rotate(89.825 128.05 136.879)">
                <circle cx="127.827" cy="27.14" r="1" style="opacity:.75;fill:#fff;stroke:#000;stroke-width:.264583"/>
                <circle cx="146.91" cy="46.538" r="1" style="display:inline;opacity:.75;fill:#fff;stroke:#000;stroke-width:.264583"/>
                <circle cx="100.924" cy="52.699" r="1" style="display:inline;opacity:.75;fill:#fff;stroke:#000;stroke-width:.264583"/>
                <circle cx="128.462" cy="-6.055" r="1" style="display:inline;opacity:.75;fill:#fff;stroke:#000;stroke-width:.264583"/>
            </g>
        </g>
        <g style="display:inline;stroke:#c8ab37">
            <path d="m128.462-6.055-.635 33.195m21.19 97.868-2.266 41.07-12.21 9.284-5.52-1.38m2.849-44.262-7.054 47.435-7.653 6.17-4.242-5.14m-.244-46.378-10.059 49.476-7.507 6.362-4.136-10.75m-5.288-46.63-9.238 49.267-4.253 3.044-.78-10.54m7.786-87.888-16.127 28.593-8.26 30.974 6.179 21.059" style="opacity:1;fill:none;stroke:#c8ab37;stroke-width:.264583" transform="rotate(89.825 128.05 136.879)"/>
            <path d="m127.827 27.14 19.083 19.398 2.107 78.47-17.146 4.712-19.194 2.087-26.99-1.542 9.44-46.62-15.925.503 21.722-31.45z" style="opacity:1;fill:none;stroke:#c8ab37;stroke-width:.264583" transform="rotate(89.825 128.05 136.879)"/>
            <path d="m115.556 81.487 20.1 1.126-.283 19.282-20.195-2.37z" style="opacity:1;fill:none;stroke:#c8ab37;stroke-width:.264583" transform="rotate(89.825 128.05 136.879)"/>
        </g>
    </g>
</svg>
