<?xml version="1.0" encoding="UTF-8" standalone="no"?>
<svg
   version="1.1"
   xml:space="preserve"
   x="0px"
   y="0px"
   viewBox="0 0 960 480"
   id="svg1"
   sodipodi:docname="bezier-quadratic-2.svg"
   inkscape:version="1.3.2 (091e20ef0f, 2023-11-25, custom)"
   xmlns:inkscape="http://www.inkscape.org/namespaces/inkscape"
   xmlns:sodipodi="http://sodipodi.sourceforge.net/DTD/sodipodi-0.dtd"
   xmlns="http://www.w3.org/2000/svg"
   xmlns:svg="http://www.w3.org/2000/svg"><defs
   id="defs1" /><sodipodi:namedview
   id="namedview1"
   pagecolor="#505050"
   bordercolor="#eeeeee"
   borderopacity="1"
   inkscape:showpageshadow="0"
   inkscape:pageopacity="0"
   inkscape:pagecheckerboard="0"
   inkscape:deskcolor="#d1d1d1"
   inkscape:zoom="0.98333334"
   inkscape:cx="427.11864"
   inkscape:cy="250.67796"
   inkscape:window-width="2560"
   inkscape:window-height="1600"
   inkscape:window-x="0"
   inkscape:window-y="0"
   inkscape:window-maximized="0"
   inkscape:current-layer="Quadratic_2"
   showgrid="false" />
<g
   id="Quadratic_2"
   opacity="1"
   transform="matrix(0.67778507,0,0,0.67778507,-1823.7752,-327.98207)"><path
     id="STROKE_39bf1555-04ed-41e8-a910-08b3b9fa94e2"
     opacity="0.5"
     fill="none"
     stroke="#f6f7ef"
     stroke-width="2"
     stroke-opacity="1"
     stroke-linecap="round"
     stroke-linejoin="round"
     d="m 2791.1912,863.86218 220.252,-135.045" /><path
     id="STROKE_8923b940-a39a-4270-b0a7-ad2a982e8772"
     opacity="0.5"
     fill="none"
     stroke="#f6f7ef"
     stroke-width="2"
     stroke-opacity="1"
     stroke-linecap="round"
     stroke-linejoin="round"
     d="m 3025.4102,733.10918 86.997,220.495" /><path
     id="STROKE_7e639075-e6a8-4ec0-8a3d-b83d8e6d1833"
     opacity="0.5"
     fill="none"
     stroke="#f6f7ef"
     stroke-width="2"
     stroke-opacity="1"
     stroke-linecap="round"
     stroke-linejoin="round"
     d="m 3246.2723,863.41057 220.251,-135.046" /><path
     id="STROKE_efd783aa-426d-4e46-92de-a97f6f00db1d"
     opacity="0.5"
     fill="none"
     stroke="#f6f7ef"
     stroke-width="2"
     stroke-opacity="1"
     stroke-linecap="round"
     stroke-linejoin="round"
     d="m 3480.4903,732.65757 86.998,220.494" /><path
     id="STROKE_b4e4a7fe-f426-4c81-9af6-5e456dcd466b"
     opacity="0.5"
     fill="none"
     stroke="#f6f7ef"
     stroke-width="2"
     stroke-opacity="1"
     stroke-linecap="round"
     stroke-linejoin="round"
     d="m 3699.9216,867.2248 220.252,-135.046" /><path
     id="STROKE_7daab12d-c94f-4b24-974d-f7a584597af6"
     opacity="0.5"
     fill="none"
     stroke="#f6f7ef"
     stroke-width="2"
     stroke-opacity="1"
     stroke-linecap="round"
     stroke-linejoin="round"
     d="m 3934.1406,736.4718 86.998,220.494" /><path
     id="STROKE_779ea66c-71ea-4bdb-bf6e-d4c8edd5c801"
     opacity="1"
     fill="none"
     stroke="#e66465"
     stroke-width="4"
     stroke-opacity="1"
     stroke-linecap="round"
     stroke-linejoin="round"
     d="m 3934.3086,729.6968 -0.187,-0.545 q -0.038,-0.143 -0.269,-1.739 -0.232,-1.597 -0.583,-2.404 -0.35,-0.808 -1.013,-1.533 -0.664,-0.726 -1.493,-0.987 -0.83,-0.262 -1.763,-0.039 -0.933,0.222 -1.862,0.972 -0.929,0.749 -1.297,1.248 -0.367,0.5 -0.67,1.124 -0.303,0.624 -0.491,1.595 -0.188,0.972 -0.138,1.92 0.051,0.948 0.157,1.317 0.107,0.369 0.276,0.675 0.17,0.306 0.723,0.89 0.553,0.584 1.032,0.826 0.48,0.241 0.759,0.306 0.28,0.065 0.731,0.089 0.451,0.025 1.519,-0.33 1.069,-0.354 3.841,-1.954" /><path
     id="STROKE_d1bded4d-4679-4528-ae24-5bb428ebcfec"
     opacity="1"
     fill="none"
     stroke="#e66465"
     stroke-width="4"
     stroke-opacity="1"
     stroke-linecap="round"
     stroke-linejoin="round"
     d="m 4031.3146,970.1678 -0.377,-0.356 q -0.244,-0.247 -0.737,-1.46 -0.494,-1.213 -0.906,-1.966 -0.411,-0.753 -1.121,-1.441 -0.71,-0.689 -1.927,-1.139 -1.216,-0.449 -2.261,-0.402 -1.044,0.047 -1.941,0.591 -0.898,0.543 -1.199,0.918 -0.302,0.375 -0.56,1.129 -0.259,0.754 -0.306,1.38 -0.046,0.627 0.316,1.813 0.361,1.185 0.926,1.85 0.564,0.664 1.093,1.002 0.53,0.339 1.279,0.532 0.75,0.193 1.659,0.202 0.908,0.01 1.221,-0.07 0.313,-0.08 0.576,-0.133 0.264,-0.054 1.643,-0.878 1.378,-0.825 2.999,-2.914 l 0.982,-1.671" /><path
     id="STROKE_e54dc071-f0e3-40e4-83cb-4ba8e7e72a56"
     opacity="1"
     fill="none"
     stroke="#e66465"
     stroke-width="4"
     stroke-opacity="1"
     stroke-linecap="round"
     stroke-linejoin="round"
     d="m 3694.3716,875.7478 q -0.073,-0.111 -0.401,-1.713 -0.329,-1.601 -0.832,-2.821 -0.502,-1.219 -0.865,-1.756 -0.363,-0.537 -0.668,-0.878 -0.304,-0.341 -0.527,-0.499 -0.222,-0.157 -0.27,-0.225 -0.048,-0.068 -2.901,-0.148 -2.853,-0.079 -3.303,0.27 -0.45,0.349 -0.879,1.004 -0.428,0.656 -0.778,2.042 -0.35,1.386 -0.224,2.28 0.125,0.894 0.36,1.453 0.235,0.559 1.65,1.352 1.415,0.792 2.485,0.952 1.071,0.16 1.624,0.176 0.553,0.015 1.609,-0.096 1.056,-0.111 1.765,-0.324 0.709,-0.212 3.021,-1.289" /><path
     id="STROKE_d37b2ee2-5cba-4df6-ae5d-8e550e57f0d9"
     opacity="1"
     fill="none"
     stroke="#e66465"
     stroke-width="4"
     stroke-opacity="1"
     stroke-linecap="round"
     stroke-linejoin="round"
     d="m 3644.9026,825.0778 -0.418,1.162 -0.091,0.723 q -0.21,0.613 1.682,25.688 l 0.404,-0.374" /><path
     id="STROKE_61c29415-872d-457d-b680-e0e859d3166f"
     opacity="1"
     fill="none"
     stroke="#e66465"
     stroke-width="4"
     stroke-opacity="1"
     stroke-linecap="round"
     stroke-linejoin="round"
     d="m 3644.3906,825.4358 q 0.038,-0.066 0.325,-0.8 1.018,-1.425 1.434,-1.705 0.417,-0.279 1.037,-0.472 0.62,-0.194 1.5,-0.029 0.88,0.166 1.493,0.536 0.612,0.37 1.31,0.94 0.698,0.571 1.535,1.625 0.837,1.054 1.459,2.571 0.621,1.517 0.69,2.778 0.068,1.26 -0.296,2.664 -0.365,1.404 -1.531,3.033 -1.165,1.628 -2.249,2.462 -1.085,0.833 -1.943,1.208 -0.858,0.374 -1.375,0.495 -0.518,0.12 -1.061,0.083 l -0.211,0.124 -0.324,0.226" /><path
     id="STROKE_33fc93a8-d225-486f-bf1e-c9b1f7fc647e"
     opacity="1"
     fill="none"
     stroke="#e66465"
     stroke-width="4"
     stroke-opacity="1"
     stroke-linecap="round"
     stroke-linejoin="round"
     d="m 3669.8246,854.1338 q -0.096,-0.323 -0.301,-0.842 -0.204,-0.519 -0.633,-1.395 -0.429,-0.877 -0.959,-1.609 -0.53,-0.732 -0.764,-0.992 -0.234,-0.26 -0.859,-0.779 -0.626,-0.519 -1.727,-0.83 -1.1,-0.312 -1.949,-0.195 -0.849,0.118 -1.528,0.7 -0.678,0.583 -1.069,1.656 -0.392,1.073 -0.248,1.972 0.145,0.899 0.801,1.611 0.657,0.712 1.394,1.035 0.737,0.323 1.223,0.387 0.487,0.064 1.121,0 0.635,-0.062 0.974,-0.193 0.34,-0.131 4.583,-2.963" /><path
     id="STROKE_8be472d8-bc55-4ec3-8be6-ac4ff38f6eae"
     opacity="1"
     fill="none"
     stroke="#e66465"
     stroke-width="4"
     stroke-opacity="1"
     stroke-linecap="round"
     stroke-linejoin="round"
     d="m 3939.3266,678.6548 0.169,0.768 q -0.029,0.128 0.63,7.588 0.66,7.46 2.15,16.417 0.159,0.315 0.42,1.339" /><path
     id="STROKE_1a74e335-ffd8-4429-9ee4-fe1a0aa8499e"
     opacity="1"
     fill="none"
     stroke="#e66465"
     stroke-width="4"
     stroke-opacity="1"
     stroke-linecap="round"
     stroke-linejoin="round"
     d="m 3939.6026,677.8708 q 0.31,-0.392 0.833,-0.944 0.523,-0.552 1.56,-1.001 1.037,-0.45 1.943,-0.552 0.906,-0.102 1.864,0.02 0.958,0.121 2.483,1.379 1.524,1.258 2.218,2.468 0.694,1.209 1.081,3.315 0.387,2.105 -0.013,4.096 -0.4,1.99 -1.377,3.465 -0.976,1.476 -2.27,2.571 -1.293,1.096 -4.483,2.047 -0.197,-0.02 -1.258,0.168" /><path
     id="STROKE_88a9db56-a64e-4dbb-b81d-43fb55a356d1"
     opacity="1"
     fill="none"
     stroke="#e66465"
     stroke-width="4"
     stroke-opacity="1"
     stroke-linecap="round"
     stroke-linejoin="round"
     d="m 3958.5936,705.0558 q 0.806,-0.689 0.822,-0.732 0.016,-0.042 1.27,-1.655 1.255,-1.614 2.305,-3.024 10e-4,0.04 0.331,1.686 0.33,1.647 1.901,7.305 l 0.74,2.005" /><path
     id="STROKE_a658d05e-5c04-4316-934c-f272ede4e5e1"
     opacity="1"
     fill="none"
     stroke="#e66465"
     stroke-width="4"
     stroke-opacity="1"
     stroke-linecap="round"
     stroke-linejoin="round"
     d="m 4047.2266,980.6638 v 0.564 q -0.229,1.671 0.471,8.141 0.699,6.47 1.763,12.821 1.063,6.35 1.978,11.949 0.086,0.172 0.295,1.236" /><path
     id="STROKE_24baf948-d50a-4828-b104-905baf3e7517"
     opacity="1"
     fill="none"
     stroke="#e66465"
     stroke-width="4"
     stroke-opacity="1"
     stroke-linecap="round"
     stroke-linejoin="round"
     d="m 4048.1526,986.8828 0.339,-0.652 q 0.528,-1.109 1.076,-1.988 0.548,-0.879 1.011,-1.357 0.462,-0.477 1.405,-1.092 0.943,-0.616 2.776,-0.997 1.834,-0.381 2.846,-0.259 1.012,0.122 1.835,0.496 0.824,0.375 1.97,1.424 1.146,1.049 1.927,2.912 0.781,1.862 0.909,2.935 0.129,1.074 0.037,2.501 -0.091,1.427 -0.909,3.413 -0.818,1.987 -2.042,3.387 -1.224,1.4 -2.647,2.061 -1.422,0.661 -2.185,0.766 -0.763,0.106 -1.275,0.06 -0.512,-0.045 -0.956,-0.281 -0.444,-0.235 -1.822,-1.374" /><path
     id="STROKE_1002ffa3-80b8-4a7c-9a10-71d67bd0bd40"
     opacity="1"
     fill="none"
     stroke="#e66465"
     stroke-width="4"
     stroke-opacity="1"
     stroke-linecap="round"
     stroke-linejoin="round"
     d="m 4070.3546,1010.7248 q 0,-0.612 -0.01,-0.75 l 0.349,-0.806 q 0.247,-0.393 1.572,-1.363 1.325,-0.971 2.49,-1.176 1.165,-0.205 1.796,-0.059 0.632,0.147 0.882,0.305 0.25,0.159 0.399,0.389 0.149,0.23 0.442,1.241 0.293,1.01 -0.254,3.327 -0.547,2.317 -1.272,3.964 -0.725,1.646 -1.124,2.559 -0.399,0.913 -0.527,1.283 -0.129,0.37 -0.228,0.595 0.161,0.029 0.45,0.074 0.288,0.045 0.32,0.041 0.032,0 2.62,-0.025 2.587,-0.021 7.865,-0.658 l 2.057,0.07" /><path
     id="STROKE_17791324-259b-48df-9c06-43b8df5f0989"
     opacity="1"
     fill="none"
     stroke="#e66465"
     stroke-width="4"
     stroke-opacity="1"
     stroke-linecap="round"
     stroke-linejoin="round"
     d="m 3026.5012,724.67518 -0.188,-0.545 q -0.037,-0.143 -0.269,-1.739 -0.232,-1.597 -0.582,-2.404 -0.351,-0.808 -1.014,-1.533 -0.664,-0.726 -1.493,-0.987 -0.829,-0.262 -1.762,-0.039 -0.933,0.222 -1.862,0.972 -0.929,0.749 -1.297,1.249 -0.368,0.499 -0.671,1.123 -0.303,0.624 -0.491,1.595 -0.188,0.972 -0.138,1.92 0.051,0.948 0.158,1.317 0.106,0.369 0.276,0.675 0.169,0.306 0.722,0.89 0.553,0.584 1.032,0.826 0.48,0.241 0.759,0.306 0.28,0.065 0.731,0.089 0.451,0.025 1.52,-0.33 1.068,-0.354 3.84,-1.954" /><path
     id="STROKE_b57a32f6-c47f-4659-80ca-15f186d4dfe8"
     opacity="1"
     fill="none"
     stroke="#e66465"
     stroke-width="4"
     stroke-opacity="1"
     stroke-linecap="round"
     stroke-linejoin="round"
     d="m 3123.5062,965.14618 -0.377,-0.356 q -0.243,-0.246 -0.737,-1.46 -0.494,-1.213 -0.906,-1.966 -0.411,-0.753 -1.121,-1.441 -0.71,-0.689 -1.927,-1.138 -1.216,-0.45 -2.26,-0.403 -1.044,0.047 -1.942,0.591 -0.898,0.543 -1.199,0.918 -0.302,0.375 -0.56,1.129 -0.259,0.754 -0.306,1.38 -0.046,0.627 0.316,1.813 0.361,1.185 0.926,1.85 0.564,0.664 1.094,1.002 0.529,0.339 1.279,0.532 0.749,0.193 1.658,0.202 0.908,0.009 1.221,-0.07 0.313,-0.08 0.576,-0.133 0.264,-0.054 1.643,-0.878 1.378,-0.825 2.999,-2.914 l 0.982,-1.671" /><path
     id="STROKE_2384f9f0-8358-48a4-9a5e-34f85228afe0"
     opacity="1"
     fill="none"
     stroke="#e66465"
     stroke-width="4"
     stroke-opacity="1"
     stroke-linecap="round"
     stroke-linejoin="round"
     d="m 2786.5632,870.72618 q -0.072,-0.111 -0.401,-1.713 -0.329,-1.601 -0.832,-2.821 -0.502,-1.219 -0.865,-1.756 -0.363,-0.537 -0.667,-0.878 -0.305,-0.341 -0.528,-0.499 -0.222,-0.157 -0.27,-0.225 -0.048,-0.068 -2.901,-0.148 -2.853,-0.079 -3.303,0.27 -0.45,0.349 -0.879,1.004 -0.428,0.656 -0.778,2.042 -0.35,1.386 -0.224,2.28 0.126,0.894 0.361,1.453 0.235,0.559 1.649,1.352 1.415,0.792 2.485,0.952 1.071,0.16 1.624,0.175 0.553,0.016 1.609,-0.095 1.056,-0.111 1.765,-0.324 0.709,-0.212 3.022,-1.289" /><path
     id="STROKE_649d9cb9-5566-4736-8d7d-11bb8a6fcd35"
     opacity="1"
     fill="none"
     stroke="#e66465"
     stroke-width="4"
     stroke-opacity="1"
     stroke-linecap="round"
     stroke-linejoin="round"
     d="m 2737.0952,820.05618 -0.419,1.161 -0.091,0.724 q -0.21,0.613 1.682,25.688 l 0.404,-0.374" /><path
     id="STROKE_c30db7f6-28fa-4cf2-b9b3-c4af1f5afdae"
     opacity="1"
     fill="none"
     stroke="#e66465"
     stroke-width="4"
     stroke-opacity="1"
     stroke-linecap="round"
     stroke-linejoin="round"
     d="m 2736.5832,820.41418 q 0.037,-0.066 0.324,-0.8 1.018,-1.426 1.435,-1.705 0.416,-0.279 1.036,-0.472 0.62,-0.194 1.5,-0.029 0.88,0.165 1.493,0.536 0.612,0.37 1.31,0.94 0.698,0.571 1.535,1.625 0.838,1.053 1.459,2.571 0.621,1.517 0.69,2.778 0.068,1.26 -0.296,2.664 -0.365,1.404 -1.53,3.033 -1.166,1.628 -2.25,2.462 -1.084,0.833 -1.943,1.208 -0.858,0.374 -1.375,0.495 -0.517,0.12 -1.061,0.083 l -0.21,0.124 -0.324,0.226" /><path
     id="STROKE_9cdb9cfc-1394-4269-9cba-95a831a14ed3"
     opacity="1"
     fill="none"
     stroke="#e66465"
     stroke-width="4"
     stroke-opacity="1"
     stroke-linecap="round"
     stroke-linejoin="round"
     d="m 2762.0162,849.11218 q -0.096,-0.323 -0.3,-0.842 -0.205,-0.519 -0.634,-1.396 -0.429,-0.876 -0.959,-1.608 -0.53,-0.732 -0.764,-0.992 -0.234,-0.26 -0.859,-0.779 -0.626,-0.519 -1.726,-0.83 -1.101,-0.312 -1.95,-0.195 -0.849,0.118 -1.527,0.7 -0.679,0.583 -1.07,1.656 -0.392,1.073 -0.247,1.972 0.144,0.899 0.801,1.611 0.656,0.712 1.393,1.035 0.737,0.323 1.223,0.387 0.487,0.064 1.121,0.002 0.635,-0.062 0.974,-0.193 0.34,-0.131 4.583,-2.963" /><path
     id="STROKE_fb28dd18-de80-4f92-a5eb-b18580e7283e"
     opacity="1"
     fill="none"
     stroke="#e66465"
     stroke-width="4"
     stroke-opacity="1"
     stroke-linecap="round"
     stroke-linejoin="round"
     d="m 3031.5182,673.63318 0.169,0.768 q -0.029,0.128 0.631,7.588 0.659,7.46 2.149,16.416 0.159,0.316 0.42,1.34" /><path
     id="STROKE_27581af2-fd0a-4cbe-b145-799cede71c51"
     opacity="1"
     fill="none"
     stroke="#e66465"
     stroke-width="4"
     stroke-opacity="1"
     stroke-linecap="round"
     stroke-linejoin="round"
     d="m 3031.7942,672.84918 q 0.31,-0.392 0.833,-0.944 0.523,-0.552 1.56,-1.001 1.037,-0.45 1.943,-0.552 0.906,-0.102 1.864,0.02 0.958,0.121 2.483,1.379 1.524,1.258 2.219,2.468 0.694,1.209 1.081,3.315 0.386,2.105 -0.014,4.096 -0.4,1.99 -1.377,3.465 -0.976,1.475 -2.27,2.571 -1.293,1.096 -4.483,2.047 -0.197,-0.02 -1.258,0.168" /><path
     id="STROKE_22115422-ddba-442c-bea0-0a0d2112a967"
     opacity="1"
     fill="none"
     stroke="#e66465"
     stroke-width="4"
     stroke-opacity="1"
     stroke-linecap="round"
     stroke-linejoin="round"
     d="m 3050.7852,700.03418 q 0.806,-0.689 0.822,-0.732 0.017,-0.042 1.271,-1.656 1.254,-1.613 2.305,-3.023 0,0.039 0.33,1.686 0.33,1.647 1.901,7.305 l 0.74,2.005" /><path
     id="STROKE_defa26ab-f1f5-4236-a76c-fd236a06e574"
     opacity="1"
     fill="none"
     stroke="#e66465"
     stroke-width="4"
     stroke-opacity="1"
     stroke-linecap="round"
     stroke-linejoin="round"
     d="m 3139.4182,975.64218 v 0.564 q -0.229,1.671 0.471,8.141 0.699,6.47 1.763,12.82 1.063,6.35102 1.978,11.95002 0.086,0.172 0.296,1.236" /><path
     id="STROKE_609575d0-5355-462e-a4c8-5598bc57ba0f"
     opacity="1"
     fill="none"
     stroke="#e66465"
     stroke-width="4"
     stroke-opacity="1"
     stroke-linecap="round"
     stroke-linejoin="round"
     d="m 3140.3442,981.86018 0.34,-0.651 q 0.527,-1.109 1.075,-1.988 0.548,-0.879 1.011,-1.357 0.462,-0.477 1.405,-1.093 0.943,-0.615 2.777,-0.996 1.833,-0.381 2.845,-0.259 1.012,0.122 1.836,0.496 0.823,0.375 1.969,1.424 1.146,1.049 1.927,2.912 0.781,1.862 0.91,2.935 0.128,1.074 0.036,2.501 -0.091,1.427 -0.909,3.413 -0.817,1.986 -2.042,3.387 -1.224,1.4 -2.647,2.061 -1.422,0.661 -2.185,0.766 -0.763,0.106 -1.275,0.06 -0.512,-0.045 -0.956,-0.281 -0.444,-0.235 -1.822,-1.374" /><path
     id="STROKE_3d88c1ad-2007-4dec-8ba4-a431944dac9a"
     opacity="1"
     fill="none"
     stroke="#e66465"
     stroke-width="4"
     stroke-opacity="1"
     stroke-linecap="round"
     stroke-linejoin="round"
     d="m 3162.5462,1005.7032 q 0,-0.612 -0.01,-0.75 l 0.349,-0.806 q 0.247,-0.393 1.572,-1.363 1.325,-0.971 2.49,-1.176 1.165,-0.205 1.796,-0.059 0.632,0.146 0.882,0.305 0.25,0.159 0.399,0.389 0.149,0.23 0.442,1.241 0.293,1.01 -0.254,3.327 -0.547,2.317 -1.272,3.964 -0.725,1.646 -1.124,2.559 -0.399,0.913 -0.527,1.283 -0.129,0.37 -0.228,0.595 0.161,0.029 0.45,0.074 0.288,0.045 0.32,0.041 0.032,-0 2.62,-0.025 2.587,-0.021 7.865,-0.658 l 2.058,0.07" /><path
     id="STROKE_fc84b67d-9b05-4998-ace9-3185ecc8934f"
     opacity="1"
     fill="none"
     stroke="#e66465"
     stroke-width="4"
     stroke-opacity="1"
     stroke-linecap="round"
     stroke-linejoin="round"
     d="m 3481.6443,726.45257 -0.188,-0.545 q -0.037,-0.143 -0.269,-1.739 -0.232,-1.597 -0.582,-2.404 -0.351,-0.808 -1.014,-1.533 -0.664,-0.726 -1.493,-0.987 -0.829,-0.262 -1.762,-0.039 -0.933,0.222 -1.862,0.972 -0.929,0.749 -1.297,1.248 -0.368,0.5 -0.671,1.124 -0.303,0.624 -0.491,1.595 -0.188,0.972 -0.138,1.92 0.051,0.948 0.158,1.317 0.106,0.369 0.276,0.675 0.169,0.306 0.722,0.89 0.553,0.584 1.032,0.825 0.48,0.242 0.759,0.307 0.28,0.065 0.731,0.089 0.451,0.025 1.52,-0.33 1.068,-0.354 3.84,-1.954" /><path
     id="STROKE_2eab3118-d1bf-4470-9cc9-8e48b72aee3c"
     opacity="1"
     fill="none"
     stroke="#e66465"
     stroke-width="4"
     stroke-opacity="1"
     stroke-linecap="round"
     stroke-linejoin="round"
     d="m 3578.6493,966.92357 -0.377,-0.356 q -0.243,-0.247 -0.737,-1.46 -0.494,-1.213 -0.906,-1.966 -0.411,-0.753 -1.121,-1.441 -0.71,-0.689 -1.927,-1.139 -1.216,-0.449 -2.26,-0.402 -1.044,0.047 -1.942,0.591 -0.898,0.543 -1.199,0.918 -0.302,0.375 -0.56,1.129 -0.259,0.754 -0.306,1.38 -0.046,0.627 0.316,1.813 0.361,1.185 0.926,1.849 0.564,0.665 1.094,1.003 0.529,0.339 1.279,0.532 0.749,0.193 1.658,0.202 0.908,0.009 1.221,-0.071 0.313,-0.079 0.576,-0.132 0.264,-0.054 1.643,-0.878 1.378,-0.825 2.999,-2.914 l 0.982,-1.671" /><path
     id="STROKE_559ea1e9-f610-4624-a4da-7ae081ea1dda"
     opacity="1"
     fill="none"
     stroke="#e66465"
     stroke-width="4"
     stroke-opacity="1"
     stroke-linecap="round"
     stroke-linejoin="round"
     d="m 3241.7063,872.50357 q -0.072,-0.111 -0.401,-1.713 -0.329,-1.601 -0.832,-2.821 -0.502,-1.219 -0.865,-1.756 -0.363,-0.537 -0.667,-0.878 -0.305,-0.341 -0.528,-0.499 -0.222,-0.157 -0.27,-0.225 -0.048,-0.069 -2.901,-0.148 -2.853,-0.079 -3.303,0.27 -0.45,0.349 -0.879,1.004 -0.428,0.656 -0.778,2.042 -0.35,1.386 -0.224,2.28 0.126,0.894 0.361,1.453 0.235,0.559 1.649,1.352 1.415,0.792 2.485,0.952 1.071,0.16 1.624,0.175 0.553,0.016 1.609,-0.095 1.056,-0.111 1.765,-0.324 0.709,-0.212 3.022,-1.289" /><path
     id="STROKE_02cf6e76-13e0-4907-b17c-0d047b7a970d"
     opacity="1"
     fill="none"
     stroke="#e66465"
     stroke-width="4"
     stroke-opacity="1"
     stroke-linecap="round"
     stroke-linejoin="round"
     d="m 3192.2383,821.83357 -0.419,1.161 -0.091,0.724 q -0.21,0.613 1.682,25.688 l 0.404,-0.374" /><path
     id="STROKE_2d46e62d-57af-42e9-ac13-59491b50c1b3"
     opacity="1"
     fill="none"
     stroke="#e66465"
     stroke-width="4"
     stroke-opacity="1"
     stroke-linecap="round"
     stroke-linejoin="round"
     d="m 3191.7263,822.19157 q 0.037,-0.066 0.324,-0.8 1.018,-1.426 1.435,-1.705 0.416,-0.279 1.036,-0.472 0.62,-0.194 1.5,-0.029 0.88,0.165 1.493,0.536 0.612,0.37 1.31,0.94 0.698,0.571 1.535,1.625 0.838,1.053 1.459,2.571 0.621,1.517 0.69,2.778 0.068,1.26 -0.296,2.664 -0.365,1.404 -1.53,3.033 -1.166,1.628 -2.25,2.461 -1.084,0.834 -1.943,1.208 -0.858,0.375 -1.375,0.496 -0.517,0.12 -1.061,0.083 l -0.21,0.124 -0.324,0.226" /><path
     id="STROKE_faad54a8-7b67-40db-8052-e2cf0e46125a"
     opacity="1"
     fill="none"
     stroke="#e66465"
     stroke-width="4"
     stroke-opacity="1"
     stroke-linecap="round"
     stroke-linejoin="round"
     d="m 3217.1593,850.88957 q -0.096,-0.323 -0.3,-0.842 -0.205,-0.519 -0.634,-1.396 -0.429,-0.876 -0.959,-1.608 -0.53,-0.732 -0.764,-0.992 -0.234,-0.26 -0.859,-0.779 -0.626,-0.519 -1.726,-0.83 -1.101,-0.312 -1.95,-0.195 -0.849,0.118 -1.527,0.7 -0.679,0.583 -1.07,1.656 -0.392,1.073 -0.247,1.972 0.144,0.899 0.801,1.611 0.656,0.712 1.393,1.035 0.737,0.323 1.223,0.387 0.487,0.064 1.121,0.002 0.635,-0.062 0.974,-0.193 0.34,-0.131 4.583,-2.963" /><path
     id="STROKE_43bbc2d5-bda1-413d-a026-c2092e0beb1a"
     opacity="1"
     fill="none"
     stroke="#e66465"
     stroke-width="4"
     stroke-opacity="1"
     stroke-linecap="round"
     stroke-linejoin="round"
     d="m 3486.6613,675.41057 0.169,0.768 q -0.029,0.128 0.631,7.588 0.659,7.46 2.149,16.416 0.159,0.316 0.42,1.34" /><path
     id="STROKE_73e549cf-e21a-4252-903d-0e17d615fe72"
     opacity="1"
     fill="none"
     stroke="#e66465"
     stroke-width="4"
     stroke-opacity="1"
     stroke-linecap="round"
     stroke-linejoin="round"
     d="m 3486.9373,674.62657 q 0.31,-0.392 0.833,-0.944 0.523,-0.552 1.56,-1.001 1.037,-0.45 1.943,-0.552 0.906,-0.102 1.864,0.019 0.958,0.122 2.483,1.38 1.524,1.258 2.219,2.467 0.694,1.21 1.081,3.316 0.386,2.105 -0.014,4.096 -0.4,1.99 -1.377,3.465 -0.976,1.475 -2.27,2.571 -1.293,1.096 -4.483,2.046 -0.197,-0.019 -1.258,0.169" /><path
     id="STROKE_ddc85b27-faed-4abb-9a26-597b1aabd8cd"
     opacity="1"
     fill="none"
     stroke="#e66465"
     stroke-width="4"
     stroke-opacity="1"
     stroke-linecap="round"
     stroke-linejoin="round"
     d="m 3505.9283,701.81157 q 0.806,-0.689 0.822,-0.732 0.017,-0.042 1.271,-1.656 1.254,-1.613 2.305,-3.023 0,0.039 0.33,1.686 0.33,1.647 1.901,7.305 l 0.74,2.005" /><path
     id="STROKE_903906f7-875d-402c-a2f5-b410bdd37916"
     opacity="1"
     fill="none"
     stroke="#e66465"
     stroke-width="4"
     stroke-opacity="1"
     stroke-linecap="round"
     stroke-linejoin="round"
     d="m 3594.5613,977.41957 v 0.564 q -0.229,1.67 0.471,8.141 0.699,6.47 1.763,12.82 1.063,6.35103 1.978,11.95003 0.086,0.172 0.296,1.236" /><path
     id="STROKE_5159ca99-eb7f-45d9-a4e7-ece18d1576ef"
     opacity="1"
     fill="none"
     stroke="#e66465"
     stroke-width="4"
     stroke-opacity="1"
     stroke-linecap="round"
     stroke-linejoin="round"
     d="m 3595.4873,983.63757 0.34,-0.651 q 0.527,-1.109 1.075,-1.988 0.548,-0.879 1.011,-1.357 0.462,-0.477 1.405,-1.093 0.943,-0.615 2.777,-0.996 1.833,-0.381 2.845,-0.259 1.012,0.122 1.836,0.496 0.823,0.375 1.969,1.424 1.146,1.049 1.927,2.912 0.781,1.862 0.91,2.935 0.128,1.074 0.036,2.501 -0.091,1.427 -0.909,3.413 -0.817,1.986 -2.042,3.387 -1.224,1.4 -2.647,2.061 -1.422,0.661 -2.185,0.766 -0.763,0.106 -1.275,0.06 -0.512,-0.045 -0.956,-0.281 -0.444,-0.236 -1.822,-1.374" /><path
     id="STROKE_61232078-c2af-4fbc-96ca-6bc903609885"
     opacity="1"
     fill="none"
     stroke="#e66465"
     stroke-width="4"
     stroke-opacity="1"
     stroke-linecap="round"
     stroke-linejoin="round"
     d="m 3617.6893,1007.4796 q 0,-0.611 -0.01,-0.749 l 0.349,-0.806 q 0.247,-0.393 1.572,-1.363 1.325,-0.971 2.49,-1.176 1.165,-0.205 1.796,-0.059 0.632,0.146 0.882,0.305 0.25,0.159 0.399,0.389 0.149,0.23 0.442,1.241 0.293,1.01 -0.254,3.327 -0.547,2.317 -1.272,3.964 -0.725,1.646 -1.124,2.559 -0.399,0.913 -0.527,1.283 -0.129,0.37 -0.228,0.595 0.161,0.029 0.45,0.074 0.288,0.045 0.32,0.041 0.032,0 2.62,-0.025 2.587,-0.021 7.865,-0.658 l 2.058,0.07" /><path
     id="STROKE_4a4809e6-3cb4-4462-9758-8f6859347b08"
     opacity="1"
     fill="none"
     stroke="#9198e5"
     stroke-width="4"
     stroke-opacity="1"
     stroke-linecap="round"
     stroke-linejoin="round"
     d="m 3812.6536,799.9628 q -0.357,-0.355 -0.437,-0.443 -0.08,-0.087 -0.311,-0.375 -0.232,-0.287 -0.43,-0.489 -0.199,-0.202 -0.367,-0.333 -0.168,-0.132 -0.453,-0.278 -0.285,-0.145 -0.694,-0.207 -0.41,-0.063 -0.803,-0.023 -0.394,0.039 -0.843,0.314 -0.449,0.274 -0.759,0.81 -0.311,0.535 -0.235,1.319 0.077,0.783 0.281,1.028 0.205,0.245 1.046,0.56 0.84,0.315 1.627,0.237 0.786,-0.077 1.465,-0.406 0.679,-0.329 1.105,-0.787 0.427,-0.457 0.631,-1.108 0.204,-0.651 -0.162,-1.84" /><path
     id="STROKE_099f9b3f-6c98-49d7-ac25-f5dabe8ecc07"
     opacity="1"
     fill="none"
     stroke="#9198e5"
     stroke-width="4"
     stroke-opacity="1"
     stroke-linecap="round"
     stroke-linejoin="round"
     d="m 3752.5586,837.2848 q -0.057,-0.307 -0.19,-0.634 -0.133,-0.327 -0.319,-0.577 -0.186,-0.249 -0.767,-0.577 -0.582,-0.327 -1.02,-0.347 -0.437,-0.02 -0.604,0.01 -0.166,0.03 -0.419,0.15 -0.253,0.121 -0.584,0.581 -0.332,0.461 -0.396,0.991 -0.063,0.529 0.027,0.832 0.089,0.302 0.242,0.483 0.153,0.181 0.398,0.343 0.246,0.161 0.767,0.235 0.522,0.075 0.939,-0.079 0.417,-0.154 0.797,-0.431 0.381,-0.277 1.79,-2.478" /><path
     id="STROKE_aa29838d-3981-4d3b-aee3-e01a13ee0ea4"
     opacity="1"
     fill="none"
     stroke="#9198e5"
     stroke-width="4"
     stroke-opacity="1"
     stroke-linecap="round"
     stroke-linejoin="round"
     d="m 3870.9276,764.5488 q -0.05,-0.048 -0.106,-0.194 -0.056,-0.145 -0.237,-0.47 -0.18,-0.325 -0.341,-0.523 -0.161,-0.199 -0.434,-0.392 -0.273,-0.193 -0.529,-0.285 -0.256,-0.092 -0.783,-0.125 -0.528,-0.032 -0.62,-0.012 -0.092,0.021 -0.541,0.26 -0.449,0.239 -0.608,0.468 -0.16,0.228 -0.184,0.456 -0.024,0.228 0.025,0.389 0.05,0.161 0.367,0.489 0.318,0.329 0.855,0.456 0.537,0.128 0.813,0.095 0.276,-0.033 0.796,-0.29 0.521,-0.258 2.015,-2.062" /><path
     id="STROKE_95e1e970-a9fb-46dd-af38-c6d2494939c2"
     opacity="1"
     fill="none"
     stroke="#9198e5"
     stroke-width="4"
     stroke-opacity="1"
     stroke-linecap="round"
     stroke-linejoin="round"
     d="m 3979.1006,849.4418 q -0.135,-0.251 -0.294,-0.478 -0.16,-0.227 -0.353,-0.434 -0.193,-0.207 -0.629,-0.511 -0.436,-0.303 -0.989,-0.457 -0.554,-0.153 -0.962,-0.07 -0.408,0.084 -0.57,0.264 -0.161,0.179 -0.255,0.621 -0.095,0.442 0.02,0.712 0.115,0.271 0.617,0.678 0.502,0.407 0.986,0.588 0.484,0.18 1.025,0.194 0.541,0.015 0.969,-0.243 0.427,-0.258 0.725,-0.61 0.298,-0.351 0.873,-1.441" /><path
     id="STROKE_1318d55e-99c1-44ea-b203-7c007836ebaa"
     opacity="1"
     fill="none"
     stroke="#9198e5"
     stroke-width="4"
     stroke-opacity="1"
     stroke-linecap="round"
     stroke-linejoin="round"
     d="m 3954.9626,792.4678 0.017,-0.129 0.032,-0.187 q 0.017,-0.536 0,-0.671 -0.016,-0.135 -0.013,-0.174 0,-0.039 -0.131,-0.524 -0.135,-0.485 -0.326,-0.752 -0.192,-0.268 -0.352,-0.399 -0.161,-0.131 -0.492,-0.126 -0.33,0.01 -0.673,0.388 -0.344,0.383 -0.428,0.785 -0.084,0.402 -0.067,0.636 0.017,0.233 0.145,0.489 0.128,0.256 0.374,0.457 0.247,0.201 0.493,0.276 0.246,0.075 0.368,0.069 0.123,-0.01 0.18,-0.024 0.057,-0.019 0.187,-0.04 0.13,-0.022 1.544,-1.157" /><path
     id="STROKE_c4b9ee59-799b-4050-bba1-2818976d33b0"
     opacity="1"
     fill="none"
     stroke="#9198e5"
     stroke-width="4"
     stroke-opacity="1"
     stroke-linecap="round"
     stroke-linejoin="round"
     d="m 4002.4986,907.6178 -0.092,-0.095 q -0.07,-0.028 -0.354,-0.3 -0.285,-0.272 -0.736,-0.505 -0.452,-0.234 -0.996,-0.326 -0.543,-0.092 -0.904,0.037 -0.362,0.128 -0.56,0.284 -0.199,0.156 -0.334,0.431 -0.135,0.275 -0.124,0.546 0.01,0.271 0.072,0.387 0.062,0.117 0.284,0.381 0.221,0.265 0.507,0.446 0.285,0.18 0.644,0.292 0.359,0.111 0.754,0.127 0.396,0.016 0.79,-0.086 0.393,-0.102 0.668,-0.322 0.274,-0.22 0.42,-0.424 0.145,-0.204 0.308,-0.604 0.163,-0.399 0.201,-0.776 0.038,-0.377 -0.122,-1.475" /><path
     id="STROKE_085a6e80-b273-4157-8a91-068a00d2c1b4"
     opacity="1"
     fill="none"
     stroke="#9198e5"
     stroke-width="4"
     stroke-opacity="1"
     stroke-linecap="round"
     stroke-linejoin="round"
     d="m 3723.0066,855.0298 q -0.024,-0.061 0,-0.185 0.029,-0.125 0.034,-0.254 0.01,-0.13 -10e-4,-0.328 -0.01,-0.199 -0.072,-0.567 -0.065,-0.368 -0.198,-0.673 -0.134,-0.305 -0.453,-0.492 -0.319,-0.187 -0.659,-0.226 -0.34,-0.04 -0.625,0.07 -0.286,0.11 -0.54,0.53 -0.254,0.421 -0.258,0.787 0,0.367 0.131,0.608 0.134,0.241 0.261,0.342 0.128,0.101 0.322,0.197 0.195,0.096 0.712,0.189 0.517,0.094 0.887,0.077 0.37,-0.017 1.128,-0.286" /><path
     id="STROKE_ae6f5ed5-75fe-4e33-a8e3-cd684f913635"
     opacity="1"
     fill="none"
     stroke="#9198e5"
     stroke-width="4"
     stroke-opacity="1"
     stroke-linecap="round"
     stroke-linejoin="round"
     d="m 3783.1606,818.2278 -0.137,-0.201 q -0.44,-0.516 -0.714,-0.717 -0.274,-0.202 -0.747,-0.363 -0.473,-0.162 -0.987,-0.161 -0.514,0 -0.717,0.061 -0.203,0.058 -0.432,0.235 -0.229,0.178 -0.338,0.521 -0.109,0.343 -0.082,0.623 0.027,0.279 0.23,0.543 0.205,0.264 0.652,0.439 0.447,0.175 1.057,0.145 0.61,-0.03 1.049,-0.216 0.44,-0.186 0.746,-0.534 0.306,-0.348 0.524,-0.766 0.219,-0.417 0.433,-1.028" /><path
     id="STROKE_7c230bb5-5c47-4f9b-876d-af3910c52a1e"
     opacity="1"
     fill="none"
     stroke="#9198e5"
     stroke-width="4"
     stroke-opacity="1"
     stroke-linecap="round"
     stroke-linejoin="round"
     d="m 3841.1166,782.4898 0.019,-0.42 -0.02,-0.128 q -0.3,-0.739 -0.394,-0.854 -0.093,-0.115 -0.197,-0.203 -0.104,-0.087 -0.305,-0.184 -0.201,-0.097 -0.425,-0.15 -0.224,-0.053 -0.577,-0.045 -0.353,0.01 -0.607,0.099 -0.254,0.092 -0.555,0.391 -0.301,0.298 -0.348,0.544 -0.047,0.247 -0.01,0.531 0.04,0.285 0.406,0.556 0.366,0.271 0.624,0.32 0.258,0.049 0.449,0.048 0.192,0 0.326,0.01 0.134,0.011 0.918,-0.388 0.785,-0.399 2.003,-2.474" /><path
     id="STROKE_6697e368-9634-4d72-8cc9-f2e315dcf004"
     opacity="1"
     fill="none"
     stroke="#9198e5"
     stroke-width="4"
     stroke-opacity="1"
     stroke-linecap="round"
     stroke-linejoin="round"
     d="m 3898.6426,746.6428 -0.058,-0.031 q -0.071,-0.105 -0.359,-0.491 -0.288,-0.387 -0.323,-0.402 -0.035,-0.015 -0.247,-0.143 -0.212,-0.127 -0.837,-0.235 -0.626,-0.107 -0.987,-0.053 -0.361,0.054 -0.667,0.247 -0.305,0.193 -0.408,0.502 -0.104,0.309 0.113,0.702 0.218,0.393 0.684,0.62 0.467,0.228 0.78,0.253 0.314,0.026 0.683,-0.055 0.369,-0.081 0.594,-0.24 0.225,-0.158 0.291,-0.222 0.065,-0.064 0.307,-0.397 0.242,-0.333 0.469,-0.877 0.227,-0.543 0.453,-2.201" /><path
     id="STROKE_ac5a53a8-cee2-4c26-8186-d5f79b4b3729"
     opacity="1"
     fill="none"
     stroke="#9198e5"
     stroke-width="4"
     stroke-opacity="1"
     stroke-linecap="round"
     stroke-linejoin="round"
     d="m 3943.6196,759.8538 -0.198,-0.416 q -0.035,-0.073 -0.207,-0.311 -0.173,-0.238 -0.285,-0.395 -0.112,-0.158 -0.548,-0.441 -0.437,-0.284 -0.774,-0.388 -0.336,-0.105 -0.798,-0.124 -0.461,-0.018 -0.816,0.172 -0.356,0.19 -0.478,0.465 -0.123,0.274 -0.106,0.583 0.016,0.309 0.289,0.55 0.272,0.242 0.775,0.392 0.503,0.151 0.973,0.152 0.471,10e-4 0.865,-0.099 0.395,-0.1 0.528,-0.169 0.135,-0.069 0.439,-0.331 0.304,-0.261 1.054,-1.025" /><path
     id="STROKE_22dbf297-2d3b-4b71-ad2a-e7f93e370799"
     opacity="1"
     fill="none"
     stroke="#9198e5"
     stroke-width="4"
     stroke-opacity="1"
     stroke-linecap="round"
     stroke-linejoin="round"
     d="m 3966.5206,819.5538 -0.084,-0.09 q -0.362,-0.365 -0.612,-0.549 -0.25,-0.185 -0.65,-0.309 -0.4,-0.124 -0.664,-0.095 -0.263,0.028 -0.364,0.071 -0.1,0.042 -0.212,0.138 -0.113,0.095 -0.18,0.227 -0.067,0.131 -0.088,0.278 -0.021,0.146 0.05,0.359 0.072,0.212 0.391,0.47 0.319,0.259 1.024,0.295 0.706,0.037 1.138,-0.264 0.431,-0.302 0.779,-1.603 -0.084,-0.187 -0.245,-0.845" /><path
     id="STROKE_841c6297-a2ef-48fb-85fc-c2326173c51c"
     opacity="1"
     fill="none"
     stroke="#9198e5"
     stroke-width="4"
     stroke-opacity="1"
     stroke-linecap="round"
     stroke-linejoin="round"
     d="m 3989.8506,876.8388 -0.049,-0.032 -0.259,-0.223 -0.198,-0.131 q -0.187,-0.087 -0.359,-0.14 -0.173,-0.053 -0.402,-0.06 -0.23,-0.01 -0.422,0.042 -0.193,0.048 -0.233,0.09 -0.04,0.042 -0.111,0.244 -0.071,0.203 -0.059,0.341 0.012,0.137 0.107,0.28 0.095,0.142 0.218,0.232 0.123,0.091 0.512,0.144 0.389,0.052 0.677,0.025 0.289,-0.027 0.419,-0.074 0.129,-0.046 1.547,-0.704" /><path
     id="STROKE_175ecf00-be03-4e66-bda9-ac747f79784a"
     opacity="1"
     fill="none"
     stroke="#9198e5"
     stroke-width="4"
     stroke-opacity="1"
     stroke-linecap="round"
     stroke-linejoin="round"
     d="m 4013.3966,934.4368 -0.168,-0.019 q -0.272,-0.025 -0.747,0.057 -0.475,0.082 -0.787,0.24 -0.311,0.157 -0.431,0.262 -0.12,0.105 -0.217,0.26 -0.098,0.156 -0.115,0.339 -0.017,0.182 0.158,0.401 0.175,0.218 0.523,0.27 0.347,0.053 0.453,0.028 0.106,-0.024 0.521,-0.322 0.414,-0.298 1.615,-1.456 l 0.299,-0.237" /><path
     id="STROKE_c8b98928-3be9-44f9-850b-7a8973bde2fc"
     opacity="1"
     fill="none"
     stroke="#9198e5"
     stroke-width="4"
     stroke-opacity="1"
     stroke-linecap="round"
     stroke-linejoin="round"
     d="m 3359.9883,796.71857 q -0.357,-0.355 -0.437,-0.443 -0.08,-0.087 -0.311,-0.375 -0.232,-0.287 -0.43,-0.489 -0.199,-0.202 -0.367,-0.333 -0.168,-0.132 -0.453,-0.278 -0.285,-0.145 -0.694,-0.207 -0.41,-0.063 -0.803,-0.023 -0.394,0.039 -0.843,0.314 -0.449,0.274 -0.759,0.81 -0.311,0.535 -0.235,1.319 0.077,0.783 0.281,1.028 0.205,0.245 1.046,0.56 0.84,0.315 1.627,0.237 0.786,-0.077 1.465,-0.406 0.679,-0.329 1.105,-0.787 0.427,-0.457 0.631,-1.108 0.204,-0.651 -0.162,-1.84" /><path
     id="STROKE_5ac8c77a-3ab2-4487-ad0c-fd2d064ef353"
     opacity="1"
     fill="none"
     stroke="#9198e5"
     stroke-width="4"
     stroke-opacity="1"
     stroke-linecap="round"
     stroke-linejoin="round"
     d="m 3299.8933,834.04057 q -0.057,-0.307 -0.19,-0.634 -0.133,-0.327 -0.319,-0.577 -0.186,-0.249 -0.767,-0.577 -0.582,-0.327 -1.02,-0.347 -0.437,-0.02 -0.604,0.009 -0.166,0.03 -0.419,0.15 -0.253,0.121 -0.584,0.581 -0.332,0.461 -0.396,0.991 -0.063,0.529 0.027,0.832 0.089,0.302 0.242,0.483 0.153,0.181 0.398,0.343 0.246,0.161 0.768,0.235 0.521,0.075 0.938,-0.079 0.417,-0.154 0.797,-0.431 0.381,-0.277 1.79,-2.478" /><path
     id="STROKE_403a8c2b-8746-44ea-9ee3-f63997322cb1"
     opacity="1"
     fill="none"
     stroke="#9198e5"
     stroke-width="4"
     stroke-opacity="1"
     stroke-linecap="round"
     stroke-linejoin="round"
     d="m 3418.2623,761.30457 q -0.05,-0.048 -0.106,-0.194 -0.056,-0.146 -0.237,-0.47 -0.18,-0.325 -0.341,-0.523 -0.161,-0.199 -0.434,-0.392 -0.273,-0.193 -0.529,-0.285 -0.256,-0.092 -0.783,-0.125 -0.528,-0.033 -0.62,-0.012 -0.092,0.021 -0.541,0.26 -0.449,0.239 -0.608,0.468 -0.159,0.228 -0.184,0.456 -0.024,0.227 0.025,0.389 0.05,0.161 0.367,0.489 0.318,0.329 0.855,0.456 0.537,0.128 0.813,0.095 0.276,-0.033 0.796,-0.29 0.521,-0.258 2.015,-2.062" /><path
     id="STROKE_73ed882b-08c0-4ae6-8804-83f13e7cefc9"
     opacity="1"
     fill="none"
     stroke="#9198e5"
     stroke-width="4"
     stroke-opacity="1"
     stroke-linecap="round"
     stroke-linejoin="round"
     d="m 3526.4353,846.19757 q -0.135,-0.251 -0.294,-0.478 -0.16,-0.227 -0.353,-0.434 -0.193,-0.207 -0.629,-0.511 -0.436,-0.303 -0.989,-0.457 -0.554,-0.153 -0.962,-0.07 -0.408,0.084 -0.57,0.264 -0.161,0.179 -0.255,0.621 -0.095,0.442 0.02,0.712 0.115,0.271 0.617,0.678 0.502,0.407 0.986,0.587 0.484,0.181 1.025,0.195 0.541,0.015 0.969,-0.243 0.427,-0.258 0.725,-0.61 0.298,-0.351 0.873,-1.441" /><path
     id="STROKE_6c2c8398-e685-4810-abf2-60cfd165db7d"
     opacity="1"
     fill="none"
     stroke="#9198e5"
     stroke-width="4"
     stroke-opacity="1"
     stroke-linecap="round"
     stroke-linejoin="round"
     d="m 3502.2973,789.22357 0.017,-0.129 0.032,-0.187 q 0.017,-0.536 0,-0.671 -0.016,-0.135 -0.013,-0.174 0,-0.039 -0.131,-0.524 -0.135,-0.485 -0.326,-0.752 -0.192,-0.268 -0.352,-0.399 -0.161,-0.131 -0.492,-0.126 -0.33,0.006 -0.673,0.388 -0.344,0.382 -0.428,0.785 -0.084,0.402 -0.067,0.635 0.017,0.234 0.145,0.49 0.128,0.256 0.374,0.457 0.247,0.201 0.493,0.276 0.246,0.075 0.368,0.069 0.123,-0.005 0.18,-0.024 0.057,-0.019 0.187,-0.041 0.13,-0.021 1.544,-1.156" /><path
     id="STROKE_eacf565a-022f-4143-8ca8-e5efe1aa1931"
     opacity="1"
     fill="none"
     stroke="#9198e5"
     stroke-width="4"
     stroke-opacity="1"
     stroke-linecap="round"
     stroke-linejoin="round"
     d="m 3549.8333,904.37357 -0.092,-0.095 q -0.07,-0.028 -0.354,-0.3 -0.285,-0.272 -0.736,-0.505 -0.452,-0.234 -0.996,-0.326 -0.543,-0.092 -0.904,0.037 -0.362,0.128 -0.56,0.284 -0.199,0.156 -0.334,0.431 -0.135,0.275 -0.124,0.546 0.01,0.271 0.072,0.387 0.062,0.117 0.284,0.381 0.221,0.265 0.507,0.445 0.285,0.181 0.644,0.293 0.359,0.111 0.754,0.127 0.396,0.016 0.79,-0.086 0.393,-0.103 0.668,-0.322 0.274,-0.22 0.42,-0.424 0.145,-0.204 0.308,-0.604 0.163,-0.399 0.201,-0.776 0.038,-0.377 -0.122,-1.476" /><path
     id="STROKE_3c7da916-99c4-472c-977a-79f778de78db"
     opacity="1"
     fill="none"
     stroke="#9198e5"
     stroke-width="4"
     stroke-opacity="1"
     stroke-linecap="round"
     stroke-linejoin="round"
     d="m 2904.8452,794.94118 q -0.357,-0.355 -0.437,-0.443 -0.08,-0.087 -0.311,-0.375 -0.232,-0.287 -0.43,-0.489 -0.199,-0.202 -0.367,-0.334 -0.168,-0.131 -0.453,-0.277 -0.285,-0.145 -0.694,-0.207 -0.41,-0.063 -0.803,-0.023 -0.394,0.039 -0.843,0.314 -0.449,0.274 -0.759,0.81 -0.311,0.535 -0.235,1.319 0.077,0.783 0.281,1.028 0.205,0.245 1.046,0.56 0.84,0.315 1.627,0.237 0.786,-0.077 1.465,-0.406 0.679,-0.329 1.105,-0.787 0.427,-0.457 0.631,-1.108 0.204,-0.651 -0.162,-1.84" /><path
     id="STROKE_859a9ba3-be29-49fc-93ec-fce2d999e3e5"
     opacity="1"
     fill="none"
     stroke="#9198e5"
     stroke-width="4"
     stroke-opacity="1"
     stroke-linecap="round"
     stroke-linejoin="round"
     d="m 3071.2922,844.42018 q -0.135,-0.251 -0.294,-0.478 -0.16,-0.227 -0.353,-0.434 -0.193,-0.208 -0.629,-0.511 -0.436,-0.303 -0.989,-0.457 -0.554,-0.153 -0.962,-0.07 -0.408,0.084 -0.57,0.264 -0.161,0.179 -0.255,0.621 -0.095,0.442 0.02,0.712 0.115,0.271 0.617,0.678 0.502,0.407 0.986,0.587 0.484,0.181 1.025,0.195 0.541,0.015 0.969,-0.243 0.427,-0.258 0.725,-0.61 0.298,-0.351 0.873,-1.441" /></g></svg>
