<?xml version="1.0" encoding="UTF-8" standalone="no"?>
<svg
   version="1.1"
   xml:space="preserve"
   x="0px"
   y="0px"
   viewBox="0 0 960 480"
   id="svg1"
   sodipodi:docname="bezier-quadratic-3.svg"
   inkscape:version="1.3.2 (091e20ef0f, 2023-11-25, custom)"
   xmlns:inkscape="http://www.inkscape.org/namespaces/inkscape"
   xmlns:sodipodi="http://sodipodi.sourceforge.net/DTD/sodipodi-0.dtd"
   xmlns="http://www.w3.org/2000/svg"
   xmlns:svg="http://www.w3.org/2000/svg"><defs
   id="defs1" /><sodipodi:namedview
   id="namedview1"
   pagecolor="#505050"
   bordercolor="#eeeeee"
   borderopacity="1"
   inkscape:showpageshadow="0"
   inkscape:pageopacity="0"
   inkscape:pagecheckerboard="0"
   inkscape:deskcolor="#d1d1d1"
   inkscape:zoom="0.89692984"
   inkscape:cx="419.20782"
   inkscape:cy="245.83863"
   inkscape:window-width="2560"
   inkscape:window-height="1600"
   inkscape:window-x="0"
   inkscape:window-y="0"
   inkscape:window-maximized="0"
   inkscape:current-layer="Quadratic_3"
   showgrid="false" />
<g
   id="Quadratic_3"
   opacity="1"
   transform="matrix(2,0,0,2,-6049.471,-1428.3413)"><path
     id="STROKE_0e7c0b5a-b995-4693-a575-68848d77df5a"
     opacity="0.5"
     fill="none"
     stroke="#f6f7ef"
     stroke-width="0.753959"
     stroke-opacity="1"
     stroke-linecap="round"
     stroke-linejoin="round"
     d="m 3349.8928,849.59412 89.7088,-54.68619" /><path
     id="STROKE_7e5d575a-304a-477c-b4ff-248a24bf0834"
     opacity="0.5"
     fill="none"
     stroke="#f6f7ef"
     stroke-width="0.753959"
     stroke-opacity="1"
     stroke-linecap="round"
     stroke-linejoin="round"
     d="m 3361.1973,843.06634 83.4878,-36.23868" /><path
     id="STROKE_cf6ee94c-b6b9-4ca3-89c5-c98acb11668f"
     opacity="0.5"
     fill="none"
     stroke="#f6f7ef"
     stroke-width="0.753959"
     stroke-opacity="1"
     stroke-linecap="round"
     stroke-linejoin="round"
     d="m 3372.7733,836.53818 76.6656,-17.42664" /><path
     id="STROKE_6df5b6d8-3858-476e-8eec-c94dc6302372"
     opacity="0.5"
     fill="none"
     stroke="#f6f7ef"
     stroke-width="0.753959"
     stroke-opacity="1"
     stroke-linecap="round"
     stroke-linejoin="round"
     d="m 3385.4499,828.9443 68.046,0.63861" /><path
     id="STROKE_c832c367-d883-4ba9-ae32-71d367c1fbf5"
     opacity="0.5"
     fill="none"
     stroke="#f6f7ef"
     stroke-width="0.753959"
     stroke-opacity="1"
     stroke-linecap="round"
     stroke-linejoin="round"
     d="m 3395.1911,822.80255 62.7502,17.67545" /><path
     id="STROKE_86f3d6fc-2379-4f57-9eea-2ac9947b3e5a"
     opacity="0.5"
     fill="none"
     stroke="#f6f7ef"
     stroke-width="0.753959"
     stroke-opacity="1"
     stroke-linecap="round"
     stroke-linejoin="round"
     d="m 3406.9212,816.38975 56.0448,35.05723" /><path
     id="STROKE_c1e17b5e-6d1d-42da-8e09-a3182d50894d"
     opacity="0.5"
     fill="none"
     stroke="#f6f7ef"
     stroke-width="0.753959"
     stroke-opacity="1"
     stroke-linecap="round"
     stroke-linejoin="round"
     d="m 3418.093,809.62749 48.9142,52.94871" /><path
     id="STROKE_b3babad1-eb4d-4c17-8f73-3c06070157b8"
     opacity="0.5"
     fill="none"
     stroke="#f6f7ef"
     stroke-width="0.753959"
     stroke-opacity="1"
     stroke-linecap="round"
     stroke-linejoin="round"
     d="m 3427.7757,802.63527 43.2513,70.17853" /><path
     id="STROKE_6fbb9b79-b86f-40c5-97ef-3b3d317d24d7"
     opacity="0.5"
     fill="none"
     stroke="#f6f7ef"
     stroke-width="0.753959"
     stroke-opacity="1"
     stroke-linecap="round"
     stroke-linejoin="round"
     d="m 3440.181,794.50344 36.0038,91.23246" /><path
     id="STROKE_cc5cccf4-53bd-4419-a318-cba0686aa2f8"
     opacity="0.5"
     fill="none"
     stroke="#f6f7ef"
     stroke-width="0.753959"
     stroke-opacity="1"
     stroke-linecap="round"
     stroke-linejoin="round"
     d="m 3048.477,846.14623 89.7087,-54.68619" /><path
     id="STROKE_e013b43d-eace-44ed-8b9d-5da82070d545"
     opacity="0.5"
     fill="none"
     stroke="#f6f7ef"
     stroke-width="0.753959"
     stroke-opacity="1"
     stroke-linecap="round"
     stroke-linejoin="round"
     d="m 3093.7752,819.35466 62.7502,17.67544" /><path
     id="STROKE_9eb94b4a-5f51-4eb4-a7bd-7009694bc42a"
     opacity="0.5"
     fill="none"
     stroke="#f6f7ef"
     stroke-width="0.753959"
     stroke-opacity="1"
     stroke-linecap="round"
     stroke-linejoin="round"
     d="m 3138.7655,791.05517 36.0035,91.23286" /><path
     id="STROKE_7cc05d37-8df4-4590-a810-bff4c616d782"
     opacity="0.5"
     fill="none"
     stroke="#f6f7ef"
     stroke-width="0.753959"
     stroke-opacity="1"
     stroke-linecap="round"
     stroke-linejoin="round"
     d="m 3209.0312,850.78476 89.7087,-54.68619" /><path
     id="STROKE_db60ed7c-0ab8-4b48-ae5d-d117f2fe1f68"
     opacity="0.5"
     fill="none"
     stroke="#f6f7ef"
     stroke-width="0.753959"
     stroke-opacity="1"
     stroke-linecap="round"
     stroke-linejoin="round"
     d="m 3231.9116,837.72882 76.6656,-17.42702" /><path
     id="STROKE_bf8b45ec-1132-42bb-87c6-a3ad44fd1978"
     opacity="0.5"
     fill="none"
     stroke="#f6f7ef"
     stroke-width="0.753959"
     stroke-opacity="1"
     stroke-linecap="round"
     stroke-linejoin="round"
     d="m 3254.3294,823.99319 62.7502,17.67544" /><path
     id="STROKE_3b90229d-6be7-4e38-bbae-49540e487051"
     opacity="0.5"
     fill="none"
     stroke="#f6f7ef"
     stroke-width="0.753959"
     stroke-opacity="1"
     stroke-linecap="round"
     stroke-linejoin="round"
     d="m 3277.2313,810.81812 48.9143,52.94831" /><path
     id="STROKE_ff482475-b848-44d9-9c1d-7242a703196f"
     opacity="0.5"
     fill="none"
     stroke="#f6f7ef"
     stroke-width="0.753959"
     stroke-opacity="1"
     stroke-linecap="round"
     stroke-linejoin="round"
     d="m 3299.3197,795.6937 36.0035,91.23286" /><path
     id="STROKE_ca088ac6-fc78-455f-8100-0da0cb9830ea"
     opacity="1"
     fill="none"
     stroke="#e66465"
     stroke-width="1.50792"
     stroke-opacity="1"
     stroke-linecap="round"
     stroke-linejoin="round"
     d="m 3441.8167,795.65398 -0.071,-0.20546 q -0.014,-0.0539 -0.1014,-0.65594 -0.087,-0.60166 -0.2194,-0.90626 -0.1323,-0.30422 -0.3822,-0.57791 -0.25,-0.27331 -0.5629,-0.37208 -0.3125,-0.0984 -0.6642,-0.0147 -0.3517,0.0841 -0.7019,0.36642 -0.3502,0.28236 -0.489,0.47085 -0.1387,0.18811 -0.2529,0.42335 -0.1139,0.23523 -0.1851,0.60166 -0.071,0.36605 -0.052,0.7238 0.019,0.35738 0.059,0.4961 0.04,0.13911 0.1041,0.25447 0.064,0.11573 0.2721,0.33551 0.2085,0.22015 0.3895,0.31138 0.1805,0.0909 0.2861,0.11536 0.1052,0.0245 0.2752,0.0339 0.17,0.009 0.573,-0.12441 0.4026,-0.13382 1.4476,-0.73699" /><path
     id="STROKE_034162dd-54c4-4961-a7a2-0444afecb18d"
     opacity="1"
     fill="none"
     stroke="#e66465"
     stroke-width="1.50792"
     stroke-opacity="1"
     stroke-linecap="round"
     stroke-linejoin="round"
     d="m 3478.3856,886.3063 -0.1421,-0.1342 q -0.092,-0.093 -0.2778,-0.55 -0.1863,-0.4577 -0.3412,-0.7415 -0.1553,-0.2839 -0.423,-0.5433 -0.2676,-0.2593 -0.726,-0.429 -0.4588,-0.1696 -0.8524,-0.1519 -0.3935,0.018 -0.7321,0.2228 -0.3381,0.2051 -0.452,0.3464 -0.1138,0.1414 -0.2111,0.4253 -0.098,0.2842 -0.115,0.5206 -0.018,0.236 0.1188,0.6831 0.1365,0.4471 0.3491,0.6974 0.2126,0.2503 0.4124,0.3777 0.1994,0.1278 0.4821,0.2006 0.2828,0.073 0.6251,0.076 0.3427,0 0.4603,-0.026 0.118,-0.03 0.2175,-0.05 0.099,-0.02 0.619,-0.331 0.5198,-0.3106 1.1306,-1.0981 l 0.3705,-0.63" /><path
     id="STROKE_dce41e74-5418-4683-aa97-f01d9a3c010f"
     opacity="1"
     fill="none"
     stroke="#e66465"
     stroke-width="1.50792"
     stroke-opacity="1"
     stroke-linecap="round"
     stroke-linejoin="round"
     d="m 3351.365,850.71187 q -0.027,-0.0419 -0.1512,-0.64577 -0.124,-0.60354 -0.3137,-1.06308 -0.1892,-0.45992 -0.3261,-0.66236 -0.1368,-0.20243 -0.2514,-0.33098 -0.115,-0.12855 -0.199,-0.18774 -0.084,-0.0596 -0.1018,-0.0852 -0.018,-0.0256 -1.0933,-0.0558 -1.0759,-0.0298 -1.2455,0.10178 -0.1697,0.13157 -0.3314,0.37887 -0.1613,0.24692 -0.2933,0.76941 -0.1319,0.5225 -0.084,0.85952 0.048,0.33702 0.1361,0.54813 0.089,0.21073 0.6216,0.5093 0.5334,0.29856 0.9372,0.35888 0.4034,0.0603 0.6118,0.0663 0.2085,0.006 0.6066,-0.0362 0.3981,-0.0419 0.6654,-0.12177 0.2672,-0.0803 1.1392,-0.4863" /><path
     id="STROKE_c16ed66d-ee0b-4a86-a39e-00832fba233e"
     opacity="1"
     fill="none"
     stroke="#e66465"
     stroke-width="1.50792"
     stroke-opacity="1"
     stroke-linecap="round"
     stroke-linejoin="round"
     d="m 3332.7165,831.6103 -0.1579,0.43805 -0.034,0.27256 q -0.079,0.23109 0.634,9.68386 l 0.1523,-0.14099" /><path
     id="STROKE_efc5903f-156a-494e-8b75-80e9b285d84d"
     opacity="1"
     fill="none"
     stroke="#e66465"
     stroke-width="1.50792"
     stroke-opacity="1"
     stroke-linecap="round"
     stroke-linejoin="round"
     d="m 3332.5235,831.74526 q 0.014,-0.0249 0.1225,-0.30158 0.3834,-0.5372 0.5406,-0.64237 0.1568,-0.10518 0.3906,-0.17832 0.2337,-0.0731 0.5654,-0.0106 0.3318,0.0622 0.5629,0.20168 0.2307,0.13948 0.4938,0.35474 0.2631,0.21488 0.5787,0.61222 0.3159,0.39733 0.55,0.96921 0.2345,0.57188 0.2601,1.04725 0.026,0.47537 -0.1116,1.00427 -0.1376,0.52928 -0.5768,1.14338 -0.4395,0.6141 -0.8482,0.92813 -0.4086,0.31402 -0.7321,0.45539 -0.3238,0.14137 -0.5187,0.1866 -0.1949,0.0456 -0.4,0.0313 l -0.079,0.0471 -0.1222,0.0848" /><path
     id="STROKE_4603ce68-d031-4616-941b-8e09301d52fc"
     opacity="1"
     fill="none"
     stroke="#e66465"
     stroke-width="1.50792"
     stroke-opacity="1"
     stroke-linecap="round"
     stroke-linejoin="round"
     d="m 3342.1112,842.5642 q -0.036,-0.12176 -0.1131,-0.31779 -0.077,-0.19565 -0.239,-0.52589 -0.1617,-0.33023 -0.3615,-0.60618 -0.1998,-0.27595 -0.288,-0.37396 -0.088,-0.098 -0.3238,-0.29367 -0.236,-0.19565 -0.6507,-0.31327 -0.4151,-0.11762 -0.7351,-0.0731 -0.3201,0.0441 -0.5757,0.26389 -0.2559,0.2194 -0.4033,0.6239 -0.1474,0.40488 -0.093,0.74378 0.054,0.33891 0.3019,0.60732 0.2473,0.26803 0.5252,0.38979 0.2778,0.12177 0.461,0.14589 0.1836,0.0241 0.4226,0 0.2394,-0.0234 0.3675,-0.0727 0.1278,-0.0494 1.7274,-1.11662" /><path
     id="STROKE_112dd924-d63f-4034-b5d3-59b394c76a8b"
     opacity="1"
     fill="none"
     stroke="#e66465"
     stroke-width="1.50792"
     stroke-opacity="1"
     stroke-linecap="round"
     stroke-linejoin="round"
     d="m 3443.708,776.4118 0.064,0.28952 q -0.011,0.0486 0.2379,2.8609 0.2484,2.81189 0.8101,6.1885 0.06,0.11913 0.1587,0.50478" /><path
     id="STROKE_fe326d88-ac09-40f5-9a45-936b0bdee032"
     opacity="1"
     fill="none"
     stroke="#e66465"
     stroke-width="1.50792"
     stroke-opacity="1"
     stroke-linecap="round"
     stroke-linejoin="round"
     d="m 3443.8121,776.11625 q 0.1168,-0.1474 0.314,-0.35549 0.1971,-0.2081 0.5881,-0.37774 0.3909,-0.16926 0.7324,-0.20771 0.3416,-0.0385 0.7027,0.007 0.3612,0.0456 0.9361,0.51986 0.5749,0.47424 0.8365,0.93038 0.2616,0.45615 0.4075,1.24969 0.1455,0.79392 -0.01,1.54411 -0.1508,0.75019 -0.5187,1.30661 -0.3679,0.55605 -0.8557,0.96922 -0.4878,0.41279 -1.6904,0.7713 -0.074,-0.008 -0.4743,0.0633" /><path
     id="STROKE_b81024c1-4b53-43f9-9d9c-08b01b297161"
     opacity="1"
     fill="none"
     stroke="#e66465"
     stroke-width="1.50792"
     stroke-opacity="1"
     stroke-linecap="round"
     stroke-linejoin="round"
     d="m 3450.9717,786.36444 q 0.3034,-0.25974 0.3095,-0.27595 0.01,-0.0158 0.4791,-0.6239 0.4727,-0.60807 0.8689,-1.13998 4e-4,0.0151 0.1248,0.63558 0.124,0.62089 0.7163,2.75384 l 0.279,0.75622" /><path
     id="STROKE_bb1adc8b-0346-407c-993c-d18866e2926e"
     opacity="1"
     fill="none"
     stroke="#e66465"
     stroke-width="1.50792"
     stroke-opacity="1"
     stroke-linecap="round"
     stroke-linejoin="round"
     d="m 3484.3841,890.2631 v 0.213 q -0.086,0.6295 0.1776,3.0686 0.2635,2.4394 0.6646,4.8332 0.4011,2.3939 0.7457,4.5046 0.032,0.065 0.1116,0.4659" /><path
     id="STROKE_d222e363-3df2-4f7f-aba2-6cd1886bab40"
     opacity="1"
     fill="none"
     stroke="#e66465"
     stroke-width="1.50792"
     stroke-opacity="1"
     stroke-linecap="round"
     stroke-linejoin="round"
     d="m 3484.7332,892.6075 0.1282,-0.2458 q 0.199,-0.4181 0.4052,-0.7494 0.2066,-0.3314 0.3812,-0.5112 0.1745,-0.1802 0.5296,-0.412 0.3555,-0.2319 1.0469,-0.3755 0.691,-0.1436 1.0725,-0.098 0.3815,0.046 0.6921,0.1873 0.3103,0.141 0.7423,0.5365 0.432,0.3958 0.7265,1.0977 0.2944,0.7024 0.343,1.1068 0.048,0.4045 0.014,0.9425 -0.034,0.5379 -0.3427,1.287 -0.308,0.7487 -0.7698,1.2765 -0.4614,0.5281 -0.9979,0.7769 -0.536,0.2492 -0.8237,0.2892 -0.2876,0.04 -0.4806,0.023 -0.193,-0.017 -0.3604,-0.106 -0.1674,-0.089 -0.6869,-0.5183" /><path
     id="STROKE_ea6cfa29-963e-4d7f-b4ff-a19b26623bb6"
     opacity="1"
     fill="none"
     stroke="#e66465"
     stroke-width="1.50792"
     stroke-opacity="1"
     stroke-linecap="round"
     stroke-linejoin="round"
     d="m 3493.1033,901.5955 q 0,-0.2308 0,-0.2824 l 0.132,-0.3042 q 0.093,-0.1478 0.5922,-0.5138 0.4999,-0.3657 0.9387,-0.4434 0.4392,-0.077 0.677,-0.022 0.2383,0.055 0.3325,0.1149 0.094,0.06 0.1504,0.1467 0.056,0.087 0.1667,0.4674 0.1108,0.3812 -0.096,1.2546 -0.2062,0.8735 -0.4795,1.494 -0.2733,0.6205 -0.4237,0.9647 -0.1504,0.3442 -0.1987,0.4837 -0.049,0.1394 -0.086,0.2243 0.06,0.011 0.1693,0.028 0.1086,0.017 0.1206,0.015 0.012,0 0.9877,-0.01 0.9753,-0.01 2.965,-0.2481 l 0.7758,0.026" /><path
     id="STROKE_03f2afc6-b1c7-4f7e-8428-3936d520cd93"
     opacity="1"
     fill="none"
     stroke="#e66465"
     stroke-width="1.50792"
     stroke-opacity="1"
     stroke-linecap="round"
     stroke-linejoin="round"
     d="m 3140.4008,792.20571 -0.071,-0.20546 q -0.014,-0.0539 -0.1014,-0.65556 -0.088,-0.60204 -0.2194,-0.90626 -0.1324,-0.3046 -0.3823,-0.57791 -0.2499,-0.27369 -0.5628,-0.37208 -0.3125,-0.0984 -0.6643,-0.0147 -0.3517,0.0837 -0.7019,0.36642 -0.3502,0.28236 -0.4889,0.47085 -0.1388,0.18811 -0.253,0.42335 -0.1138,0.23523 -0.1851,0.60166 -0.071,0.36604 -0.052,0.72342 0.019,0.35738 0.059,0.49648 0.04,0.13911 0.1041,0.25446 0.064,0.11536 0.2722,0.33551 0.2084,0.22016 0.389,0.31139 0.181,0.0908 0.2865,0.11536 0.1052,0.0245 0.2752,0.0335 0.17,0.009 0.573,-0.12441 0.4026,-0.13345 1.4476,-0.73661" /><path
     id="STROKE_0d2d6cf7-2af1-47f0-89bf-1ecc7ac5e59a"
     opacity="1"
     fill="none"
     stroke="#e66465"
     stroke-width="1.50792"
     stroke-opacity="1"
     stroke-linecap="round"
     stroke-linejoin="round"
     d="m 3176.9698,882.8584 -0.1422,-0.13421 q -0.092,-0.0927 -0.2778,-0.55039 -0.1862,-0.45727 -0.3412,-0.74114 -0.1553,-0.28386 -0.4229,-0.54323 -0.2677,-0.25974 -0.7261,-0.429 -0.4588,-0.16964 -0.8523,-0.15192 -0.3936,0.0177 -0.7321,0.22279 -0.3386,0.2047 -0.452,0.34607 -0.1139,0.14137 -0.2111,0.42561 -0.098,0.28424 -0.1154,0.52023 -0.017,0.23637 0.1191,0.68347 0.1365,0.44709 0.3491,0.69741 0.2126,0.25031 0.4124,0.37773 0.1994,0.1278 0.4822,0.20056 0.2827,0.0727 0.625,0.0761 0.3427,0.003 0.4603,-0.0264 0.118,-0.0302 0.2175,-0.0501 0.099,-0.0204 0.619,-0.33099 0.5199,-0.31063 1.1306,-1.09852 l 0.3706,-0.62993" /><path
     id="STROKE_265a07b2-caf5-4b9c-9370-35de3bac1d21"
     opacity="1"
     fill="none"
     stroke="#e66465"
     stroke-width="1.50792"
     stroke-opacity="1"
     stroke-linecap="round"
     stroke-linejoin="round"
     d="m 3049.9491,847.26397 q -0.027,-0.0418 -0.1512,-0.64576 -0.124,-0.60355 -0.3133,-1.06346 -0.1896,-0.45954 -0.3264,-0.66198 -0.1369,-0.20244 -0.2515,-0.33099 -0.1149,-0.12855 -0.1986,-0.18811 -0.084,-0.0592 -0.1022,-0.0848 -0.018,-0.0256 -1.0932,-0.0558 -1.0756,-0.0298 -1.2456,0.10178 -0.1696,0.13157 -0.331,0.37849 -0.1617,0.2473 -0.2936,0.76979 -0.132,0.52249 -0.084,0.85951 0.048,0.33702 0.1361,0.54776 0.089,0.21073 0.622,0.50967 0.5331,0.29857 0.9368,0.35889 0.4034,0.0603 0.6119,0.066 0.2084,0.006 0.6065,-0.0358 0.3981,-0.0418 0.6654,-0.12215 0.2673,-0.0799 1.1392,-0.48592" /><path
     id="STROKE_8fa42ec0-6654-45a6-a4cb-344a50f4d400"
     opacity="1"
     fill="none"
     stroke="#e66465"
     stroke-width="1.50792"
     stroke-opacity="1"
     stroke-linecap="round"
     stroke-linejoin="round"
     d="m 3031.3006,828.16241 -0.1579,0.43805 -0.034,0.27256 q -0.079,0.23109 0.6341,9.68385 l 0.1523,-0.14099" /><path
     id="STROKE_aefe1c0d-5a68-4d8d-ad1b-511b68680609"
     opacity="1"
     fill="none"
     stroke="#e66465"
     stroke-width="1.50792"
     stroke-opacity="1"
     stroke-linecap="round"
     stroke-linejoin="round"
     d="m 3031.1076,828.29737 q 0.014,-0.0249 0.1226,-0.30158 0.3833,-0.53758 0.5405,-0.64276 0.1569,-0.10517 0.3906,-0.17793 0.2337,-0.0731 0.5655,-0.0109 0.3317,0.0626 0.5628,0.20206 0.2307,0.13948 0.4938,0.35436 0.2632,0.21526 0.5787,0.61259 0.3159,0.39734 0.55,0.96922 0.2341,0.57188 0.2601,1.04725 0.026,0.47499 -0.1116,1.00427 -0.1376,0.52928 -0.5767,1.14338 -0.4396,0.61372 -0.8482,0.92812 -0.4087,0.31403 -0.7321,0.4554 -0.3239,0.14099 -0.5188,0.1866 -0.1949,0.0456 -0.3999,0.0313 l -0.079,0.0467 -0.1221,0.0852" /><path
     id="STROKE_25e02e21-dd21-42b9-b1c9-be59366c04a8"
     opacity="1"
     fill="none"
     stroke="#e66465"
     stroke-width="1.50792"
     stroke-opacity="1"
     stroke-linecap="round"
     stroke-linejoin="round"
     d="m 3040.6954,839.11593 q -0.036,-0.12176 -0.1131,-0.31741 -0.077,-0.19566 -0.239,-0.52589 -0.1618,-0.33061 -0.3616,-0.60656 -0.1998,-0.27595 -0.288,-0.37396 -0.088,-0.098 -0.3238,-0.29367 -0.2356,-0.19565 -0.6507,-0.3129 -0.415,-0.11761 -0.7351,-0.0735 -0.32,0.0445 -0.5756,0.26389 -0.256,0.21978 -0.4034,0.62428 -0.1474,0.4045 -0.093,0.7434 0.054,0.33891 0.302,0.60732 0.2473,0.26841 0.5251,0.39017 0.2778,0.12176 0.4614,0.14589 0.1832,0.0241 0.4222,7.6e-4 0.2394,-0.0234 0.3676,-0.0728 0.1278,-0.0494 1.7273,-1.11699" /><path
     id="STROKE_93f77449-d179-4fb8-a1a1-60c8f1cd1015"
     opacity="1"
     fill="none"
     stroke="#e66465"
     stroke-width="1.50792"
     stroke-opacity="1"
     stroke-linecap="round"
     stroke-linejoin="round"
     d="m 3142.2925,772.96391 0.063,0.28952 q -0.011,0.0482 0.2378,2.86052 0.2485,2.81227 0.8102,6.18888 0.06,0.11875 0.1587,0.50477" /><path
     id="STROKE_0255822e-3dc7-48b1-97ee-1fc55bafb6a6"
     opacity="1"
     fill="none"
     stroke="#e66465"
     stroke-width="1.50792"
     stroke-opacity="1"
     stroke-linecap="round"
     stroke-linejoin="round"
     d="m 3142.3966,772.66836 q 0.1165,-0.14778 0.3136,-0.35587 0.1972,-0.2081 0.5881,-0.37736 0.3913,-0.16964 0.7325,-0.20809 0.3415,-0.0385 0.7027,0.008 0.3611,0.0456 0.936,0.51985 0.5749,0.47424 0.8365,0.93039 0.2617,0.45577 0.4075,1.24969 0.1459,0.79354 -0.01,1.54411 -0.1508,0.75018 -0.5188,1.30623 -0.3679,0.55642 -0.8557,0.96921 -0.4878,0.41317 -1.6904,0.77168 -0.074,-0.008 -0.4738,0.0633" /><path
     id="STROKE_6e0e703f-696a-4618-bca0-ed0dab63614f"
     opacity="1"
     fill="none"
     stroke="#e66465"
     stroke-width="1.50792"
     stroke-opacity="1"
     stroke-linecap="round"
     stroke-linejoin="round"
     d="m 3149.5558,782.91655 q 0.3035,-0.25974 0.3095,-0.27595 0.01,-0.0158 0.4791,-0.6239 0.4728,-0.60845 0.869,-1.13999 4e-4,0.0147 0.1248,0.63559 0.124,0.62089 0.7166,2.75384 l 0.2786,0.75584" /><path
     id="STROKE_aa27ab49-6e6c-4f12-b415-2eb69b96291a"
     opacity="1"
     fill="none"
     stroke="#e66465"
     stroke-width="1.50792"
     stroke-opacity="1"
     stroke-linecap="round"
     stroke-linejoin="round"
     d="m 3182.9683,886.81518 v 0.21261 q -0.086,0.62994 0.1775,3.069 0.2635,2.43905 0.6646,4.83325 0.4011,2.39382 0.7457,4.50453 0.032,0.0648 0.1116,0.46595" /><path
     id="STROKE_0102b9ca-668f-4330-9e41-7e5aeb64b292"
     opacity="1"
     fill="none"
     stroke="#e66465"
     stroke-width="1.50792"
     stroke-opacity="1"
     stroke-linecap="round"
     stroke-linejoin="round"
     d="m 3183.3173,889.15961 0.1282,-0.24579 q 0.1991,-0.41807 0.4053,-0.74943 0.2066,-0.33137 0.3811,-0.51156 0.1745,-0.17982 0.5297,-0.41167 0.3554,-0.23222 1.0468,-0.37584 0.691,-0.14363 1.0725,-0.0976 0.3815,0.046 0.6922,0.18698 0.3102,0.14137 0.7422,0.53682 0.4321,0.39545 0.7265,1.09776 0.2944,0.70194 0.343,1.10644 0.048,0.40488 0.014,0.94283 -0.035,0.53795 -0.3431,1.28663 -0.308,0.74906 -0.7698,1.27683 -0.4614,0.52777 -0.9975,0.77695 -0.5364,0.24919 -0.824,0.28877 -0.2877,0.04 -0.4807,0.0226 -0.193,-0.017 -0.3604,-0.10593 -0.1674,-0.0886 -0.6868,-0.51797" /><path
     id="STROKE_7a94db42-87b1-4959-8627-67b01b095109"
     opacity="1"
     fill="none"
     stroke="#e66465"
     stroke-width="1.50792"
     stroke-opacity="1"
     stroke-linecap="round"
     stroke-linejoin="round"
     d="m 3191.687,898.14756 q 0,-0.23071 0,-0.28273 l 0.1319,-0.30385 q 0.093,-0.14815 0.5926,-0.51382 0.4995,-0.36605 0.9383,-0.44333 0.4392,-0.0773 0.6771,-0.0222 0.2382,0.0554 0.3325,0.11498 0.094,0.0599 0.1504,0.14664 0.056,0.0871 0.1666,0.46784 0.1109,0.38075 -0.096,1.25421 -0.2062,0.87346 -0.4795,1.49435 -0.2734,0.6205 -0.4238,0.96469 -0.15,0.34418 -0.1986,0.48366 -0.049,0.13948 -0.086,0.2243 0.061,0.0109 0.1693,0.0279 0.1085,0.017 0.121,0.0155 0.012,-0.002 0.9873,-0.009 0.9756,-0.008 2.9649,-0.24805 l 0.7758,0.0264" /><path
     id="STROKE_ddab75a7-a927-41ee-8928-4cdb516bbabd"
     opacity="1"
     fill="none"
     stroke="#e66465"
     stroke-width="1.50792"
     stroke-opacity="1"
     stroke-linecap="round"
     stroke-linejoin="round"
     d="m 3300.955,796.84424 -0.071,-0.20546 q -0.014,-0.0539 -0.1014,-0.65556 -0.088,-0.60204 -0.2194,-0.90626 -0.1324,-0.3046 -0.3823,-0.57791 -0.2499,-0.27369 -0.5628,-0.37208 -0.3125,-0.0984 -0.6643,-0.0147 -0.3517,0.0837 -0.7019,0.36642 -0.3502,0.28236 -0.4889,0.47085 -0.1388,0.18811 -0.253,0.42335 -0.1138,0.23523 -0.1851,0.60166 -0.071,0.36604 -0.052,0.72342 0.019,0.35738 0.059,0.49648 0.04,0.13911 0.1041,0.25446 0.064,0.11536 0.2722,0.33552 0.2084,0.22015 0.389,0.31138 0.181,0.0908 0.2865,0.11536 0.1052,0.0245 0.2752,0.0335 0.17,0.009 0.573,-0.12441 0.4026,-0.13345 1.4476,-0.73661" /><path
     id="STROKE_db185dda-2f20-44ef-8bf2-0c5ad6d43a5b"
     opacity="1"
     fill="none"
     stroke="#e66465"
     stroke-width="1.50792"
     stroke-opacity="1"
     stroke-linecap="round"
     stroke-linejoin="round"
     d="m 3337.524,887.49693 -0.1422,-0.13421 q -0.092,-0.0927 -0.2778,-0.55039 -0.1862,-0.45727 -0.3412,-0.74114 -0.1553,-0.28386 -0.4229,-0.54323 -0.2677,-0.25974 -0.7261,-0.429 -0.4588,-0.16964 -0.8523,-0.15192 -0.3936,0.0177 -0.7321,0.22279 -0.3386,0.2047 -0.452,0.34607 -0.1139,0.14137 -0.2111,0.42561 -0.098,0.28424 -0.1154,0.52023 -0.017,0.23637 0.1191,0.68347 0.1365,0.44709 0.3491,0.69741 0.2126,0.25031 0.4124,0.37773 0.1994,0.1278 0.4822,0.20056 0.2827,0.0727 0.625,0.0761 0.3427,0.003 0.4603,-0.0264 0.118,-0.0302 0.2175,-0.0501 0.099,-0.0204 0.619,-0.33099 0.5199,-0.31063 1.1306,-1.09852 l 0.3706,-0.62993" /><path
     id="STROKE_2eb07de4-3d05-449e-857b-c2d1fd234657"
     opacity="1"
     fill="none"
     stroke="#e66465"
     stroke-width="1.50792"
     stroke-opacity="1"
     stroke-linecap="round"
     stroke-linejoin="round"
     d="m 3210.5033,851.9025 q -0.027,-0.0418 -0.1512,-0.64576 -0.124,-0.60355 -0.3133,-1.06346 -0.1896,-0.45954 -0.3264,-0.66198 -0.1369,-0.20244 -0.2515,-0.33099 -0.1149,-0.12855 -0.1986,-0.18811 -0.084,-0.0592 -0.1022,-0.0848 -0.018,-0.0256 -1.0932,-0.0558 -1.0756,-0.0298 -1.2456,0.10178 -0.1696,0.13157 -0.331,0.37849 -0.1617,0.2473 -0.2936,0.76979 -0.132,0.52249 -0.084,0.85951 0.048,0.33702 0.1361,0.54776 0.089,0.2111 0.622,0.50967 0.5331,0.29857 0.9368,0.35889 0.4034,0.0603 0.6119,0.0664 0.2084,0.006 0.6065,-0.0362 0.3981,-0.0418 0.6654,-0.12215 0.2673,-0.0799 1.1392,-0.48592" /><path
     id="STROKE_79d4f05f-b99b-4bea-b5e7-364cd902fc74"
     opacity="1"
     fill="none"
     stroke="#e66465"
     stroke-width="1.50792"
     stroke-opacity="1"
     stroke-linecap="round"
     stroke-linejoin="round"
     d="m 3191.8548,832.80094 -0.1579,0.43805 -0.034,0.27256 q -0.079,0.23109 0.6341,9.68385 l 0.1523,-0.14099" /><path
     id="STROKE_658acf79-924b-4e72-94f4-b5cbf36cb43b"
     opacity="1"
     fill="none"
     stroke="#e66465"
     stroke-width="1.50792"
     stroke-opacity="1"
     stroke-linecap="round"
     stroke-linejoin="round"
     d="m 3191.6618,832.9359 q 0.014,-0.0249 0.1226,-0.30158 0.3833,-0.5372 0.5405,-0.64238 0.1569,-0.10555 0.3906,-0.17831 0.2337,-0.0731 0.5655,-0.0109 0.3317,0.0626 0.5628,0.20206 0.2307,0.13948 0.4938,0.35436 0.2632,0.21526 0.5787,0.61259 0.3159,0.39734 0.55,0.96922 0.2341,0.57188 0.2601,1.04725 0.026,0.47499 -0.1116,1.00427 -0.1376,0.52928 -0.5767,1.14338 -0.4396,0.61372 -0.8482,0.92812 -0.4087,0.31403 -0.7321,0.4554 -0.3239,0.14099 -0.5188,0.1866 -0.1949,0.0456 -0.3999,0.0313 l -0.079,0.0467 -0.1221,0.0852" /><path
     id="STROKE_dc9c5b8c-610c-4a75-942e-754146c2214b"
     opacity="1"
     fill="none"
     stroke="#e66465"
     stroke-width="1.50792"
     stroke-opacity="1"
     stroke-linecap="round"
     stroke-linejoin="round"
     d="m 3201.2496,843.75446 q -0.036,-0.12176 -0.1131,-0.31741 -0.077,-0.19566 -0.239,-0.52589 -0.1618,-0.33061 -0.3616,-0.60656 -0.1998,-0.27595 -0.288,-0.37396 -0.088,-0.098 -0.3238,-0.29367 -0.2356,-0.19565 -0.6507,-0.31289 -0.415,-0.11762 -0.7351,-0.0735 -0.32,0.0445 -0.5756,0.26389 -0.256,0.21978 -0.4034,0.62428 -0.1474,0.4045 -0.093,0.7434 0.054,0.33891 0.302,0.60732 0.2473,0.26841 0.5251,0.39017 0.2778,0.12177 0.4614,0.14589 0.1832,0.0241 0.4222,7.6e-4 0.2394,-0.0234 0.3676,-0.0728 0.1278,-0.0494 1.7273,-1.11699" /><path
     id="STROKE_976dd984-d165-46f2-ac7a-92c0bbd22c5e"
     opacity="1"
     fill="none"
     stroke="#e66465"
     stroke-width="1.50792"
     stroke-opacity="1"
     stroke-linecap="round"
     stroke-linejoin="round"
     d="m 3302.8467,777.60244 0.063,0.28952 q -0.011,0.0486 0.2378,2.86052 0.2485,2.81227 0.8102,6.18888 0.06,0.11875 0.1587,0.50477" /><path
     id="STROKE_ca63e9b0-084b-4175-8ea4-b73cfe23ac45"
     opacity="1"
     fill="none"
     stroke="#e66465"
     stroke-width="1.50792"
     stroke-opacity="1"
     stroke-linecap="round"
     stroke-linejoin="round"
     d="m 3302.9508,777.30689 q 0.1165,-0.14778 0.3136,-0.35587 0.1972,-0.2081 0.5881,-0.37736 0.3913,-0.16964 0.7325,-0.20809 0.3415,-0.0385 0.7027,0.008 0.3611,0.0456 0.936,0.51985 0.5749,0.47424 0.8365,0.93039 0.2617,0.45577 0.4075,1.24969 0.1459,0.79354 -0.01,1.54411 -0.1508,0.75019 -0.5188,1.30623 -0.3679,0.55642 -0.8557,0.96922 -0.4878,0.41316 -1.6904,0.77167 -0.074,-0.008 -0.4738,0.0633" /><path
     id="STROKE_b83a60bf-e3c5-4e53-bd36-4ec662adeac5"
     opacity="1"
     fill="none"
     stroke="#e66465"
     stroke-width="1.50792"
     stroke-opacity="1"
     stroke-linecap="round"
     stroke-linejoin="round"
     d="m 3310.11,787.55508 q 0.3035,-0.25974 0.3095,-0.27595 0.01,-0.0158 0.4791,-0.6239 0.4728,-0.60845 0.869,-1.13999 4e-4,0.0151 0.1248,0.63559 0.124,0.62089 0.7166,2.75384 l 0.2786,0.75584" /><path
     id="STROKE_b101d5e8-05c7-40ec-b195-f6bc75d9046e"
     opacity="1"
     fill="none"
     stroke="#e66465"
     stroke-width="1.50792"
     stroke-opacity="1"
     stroke-linecap="round"
     stroke-linejoin="round"
     d="m 3343.5225,891.45371 v 0.21299 q -0.086,0.62956 0.1775,3.06862 0.2635,2.43905 0.6646,4.83325 0.4011,2.39382 0.7457,4.50453 0.032,0.0648 0.1116,0.46595" /><path
     id="STROKE_dd77ffbd-ae74-4721-91f9-b0476197a8ae"
     opacity="1"
     fill="none"
     stroke="#e66465"
     stroke-width="1.50792"
     stroke-opacity="1"
     stroke-linecap="round"
     stroke-linejoin="round"
     d="m 3343.8715,893.79814 0.1282,-0.24579 q 0.1991,-0.41807 0.4053,-0.74943 0.2066,-0.33137 0.3811,-0.51156 0.1745,-0.17982 0.5297,-0.41167 0.3554,-0.23221 1.0468,-0.37584 0.691,-0.14363 1.0725,-0.0976 0.3815,0.046 0.6922,0.18698 0.3102,0.14137 0.7422,0.53682 0.4321,0.39545 0.7265,1.09776 0.2944,0.70194 0.343,1.10682 0.048,0.4045 0.014,0.94245 -0.035,0.53795 -0.3431,1.28663 -0.308,0.74906 -0.7698,1.27683 -0.4614,0.52777 -0.9975,0.77695 -0.5364,0.24919 -0.824,0.28877 -0.2877,0.04 -0.4807,0.0226 -0.193,-0.017 -0.3604,-0.10593 -0.1674,-0.0886 -0.6868,-0.51797" /><path
     id="STROKE_02cac1db-dfaa-442a-b03d-90158b123f99"
     opacity="1"
     fill="none"
     stroke="#e66465"
     stroke-width="1.50792"
     stroke-opacity="1"
     stroke-linecap="round"
     stroke-linejoin="round"
     d="m 3352.2412,902.7861 q 0,-0.23072 0,-0.28274 l 0.1319,-0.30385 q 0.093,-0.14815 0.5926,-0.51382 0.4995,-0.36605 0.9383,-0.44333 0.4392,-0.0773 0.6771,-0.0222 0.2382,0.0554 0.3325,0.11498 0.094,0.0599 0.1504,0.14665 0.056,0.0871 0.1666,0.46783 0.1109,0.38075 -0.096,1.25421 -0.2062,0.87346 -0.4795,1.49435 -0.2734,0.6205 -0.4238,0.96469 -0.15,0.34418 -0.1986,0.48366 -0.049,0.13948 -0.086,0.22431 0.061,0.0109 0.1693,0.0279 0.1085,0.017 0.121,0.0155 0.012,0 0.9873,-0.009 0.9756,-0.008 2.9649,-0.24805 l 0.7758,0.0264" /><path
     id="STROKE_22174ed8-3ae5-44bf-8007-88da907a76a4"
     opacity="1"
     fill="none"
     stroke="#9198e5"
     stroke-width="1.50792"
     stroke-opacity="1"
     stroke-linecap="round"
     stroke-linejoin="round"
     d="m 3050.3781,846.46515 -0.021,-0.28499 q -0.1293,-0.50855 -0.2473,-0.73134 -0.118,-0.22242 -0.2646,-0.39659 -0.1467,-0.17378 -0.6213,-0.4716 -0.475,-0.29781 -0.9545,-0.37019 -0.4795,-0.0728 -0.812,-0.0155 -0.3325,0.0573 -0.5768,0.22091 -0.2443,0.16323 -0.4437,0.55039 -0.1998,0.38716 -0.2066,0.71928 -0.01,0.33174 0.027,0.55114 0.034,0.21903 0.3597,0.70194 0.3253,0.48253 1.0521,0.84556 0.7268,0.36341 1.3402,0.34193 0.6133,-0.0219 0.8863,-0.17605 0.2725,-0.15457 0.5044,-0.58621 0.2318,-0.43164 0.1945,-0.78675 -0.038,-0.3555 -0.1361,-0.52589 -0.098,-0.17077 -0.1945,-0.29141 -0.097,-0.12063 -0.4984,-0.35963 -0.4015,-0.23863 -0.9032,-0.2899 -0.5022,-0.0509 -0.7137,0.0132 -0.2111,0.0637 -0.3159,0.13873 -0.1044,0.075 -0.2028,0.21827 -0.098,0.14288 -0.1093,0.29065 -0.011,0.14778 0.021,0.27972 0.032,0.13232 0.3996,0.40299 0.3675,0.27105 0.5779,0.32647 0.21,0.0558 0.492,0.0611 0.2816,0.006 0.4429,-0.12817 0.1617,-0.13421 0.2345,-0.23976 0.073,-0.10593 0.1006,-0.17945 0.028,-0.0735 0.067,-0.20922 0.039,-0.13534 0.027,-0.26539 -0.013,-0.12968 -0.097,-0.20885 l -0.029,-0.11196" /><path
     id="STROKE_b0f69a13-d8ed-48b1-834f-c978337dc0da"
     opacity="1"
     fill="none"
     stroke="#9198e5"
     stroke-width="1.50792"
     stroke-opacity="1"
     stroke-linecap="round"
     stroke-linejoin="round"
     d="m 3127.5816,828.9601 -0.01,-0.18397 q 0,-0.0418 -0.1067,-0.27896 -0.1052,-0.23674 -0.3438,-0.39734 -0.2386,-0.16021 -0.5345,-0.1915 -0.296,-0.0313 -0.4814,0.0799 -0.1851,0.1112 -0.3499,0.44936 -0.1647,0.33815 -0.1481,0.54775 0.016,0.2096 0.097,0.35775 0.08,0.14778 0.5982,0.3472 0.5188,0.19942 0.8901,0.15343 0.3717,-0.0464 0.4923,-0.11536 0.1207,-0.069 0.2394,-0.21224 0.1188,-0.14362 0.1655,-0.38074 0.047,-0.23713 0.012,-0.42071 -0.034,-0.18322 -0.2752,-0.45653 -0.2412,-0.27368 -0.6118,-0.37924 -0.3706,-0.10593 -0.5877,-0.0622 -0.2171,0.0437 -0.3227,0.1278 -0.1056,0.0841 -0.1368,0.13759 -0.031,0.0535 -0.045,0.11498 -0.014,0.0618 -0.026,0.118 -0.013,0.0562 0.057,0.21224 0.07,0.15607 0.1726,0.21978 0.1029,0.0637 0.1885,0.0675 0.085,0.004 0.1399,-0.008 0.054,-0.0117 0.1591,-0.10932 0.1048,-0.0976 0.1466,-0.19829 0.042,-0.10066 0.053,-0.19076 0.012,-0.0901 -0.041,-0.20017 -0.053,-0.11008 -0.079,-0.1327 -0.027,-0.0226 -0.1994,-0.14137 -0.1719,-0.11912 -0.6266,-0.1063 -0.041,0.055 -0.046,0.26803 -0.01,0.21261 0.025,0.33174 0.031,0.1195 0.1723,0.35813 0.1414,0.23863 0.9926,0.98882" /><path
     id="STROKE_f53fec6e-1b68-4891-b534-9a82af528f5b"
     opacity="1"
     fill="none"
     stroke="#9198e5"
     stroke-width="1.50792"
     stroke-opacity="1"
     stroke-linecap="round"
     stroke-linejoin="round"
     d="m 3176.2218,884.18386 q 0.118,-0.29291 0.1569,-0.41656 0.039,-0.12365 0.06,-0.47198 0.02,-0.34871 -0.1643,-0.95263 -0.1848,-0.6043 -0.6337,-1.00578 -0.449,-0.40149 -0.8705,-0.47877 -0.4215,-0.0773 -0.5364,-0.0569 -0.1154,0.0204 -0.2918,0.11799 -0.1768,0.098 -0.4113,0.44597 -0.2349,0.34833 -0.2639,0.75924 -0.029,0.41053 0,0.57715 0.028,0.16625 0.2956,0.52665 0.2676,0.36001 0.873,0.53531 0.6059,0.17529 0.9319,0.12742 0.3258,-0.0479 0.5829,-0.20207 0.2574,-0.1538 0.441,-0.5093 0.1832,-0.35511 0.1813,-0.65669 0,-0.30196 -0.084,-0.49536 -0.082,-0.19376 -0.3325,-0.40336 -0.2503,-0.20923 -0.4923,-0.2571 -0.2417,-0.0479 -0.4562,-0.0139 -0.2141,0.0339 -0.3834,0.26728 -0.1689,0.23372 -0.1937,0.47725 -0.024,0.24391 0,0.4422 0.025,0.19867 0.1986,0.45954 0.1738,0.26125 0.3891,0.35888 0.2149,0.0976 0.4475,0.11724 0.2322,0.0196 0.3856,-0.10216 0.1534,-0.12214 0.2228,-0.28839 0.069,-0.16662 0.052,-0.27406 -0.017,-0.10782 -0.077,-0.15494 -0.059,-0.0471 -0.1033,-0.0648 -0.045,-0.0177 -0.1252,0.0728 -0.08,0.0901 -0.1081,0.17341 -0.028,0.0833 -0.044,0.19452 l 0.028,0.28575" /><path
     id="STROKE_22670cca-935e-4326-bc65-b27f9c39470a"
     opacity="1"
     fill="none"
     stroke="#9198e5"
     stroke-width="1.50792"
     stroke-opacity="1"
     stroke-linecap="round"
     stroke-linejoin="round"
     d="m 3210.55,850.99474 -0.06,-0.26653 -0.164,-0.33249 q -0.097,-0.20094 -0.5835,-0.60619 -0.4871,-0.40525 -0.8298,-0.5142 -0.3426,-0.10857 -0.6782,-0.092 -0.3358,0.017 -0.5228,0.0735 -0.1874,0.0566 -0.4501,0.27972 -0.2632,0.22279 -0.3416,0.33777 -0.079,0.11536 -0.1655,0.48178 -0.087,0.36605 0,0.68422 0.083,0.31817 0.5802,0.73323 0.4972,0.41543 1.1283,0.44144 0.6307,0.026 0.9812,-0.10932 0.3506,-0.13534 0.5904,-0.357 0.2394,-0.22205 0.3461,-0.46595 0.1066,-0.24428 0.089,-0.44333 -0.018,-0.19905 -0.099,-0.3095 -0.082,-0.11083 -0.1222,-0.14137 -0.04,-0.0305 -0.3498,-0.14476 -0.3095,-0.11385 -0.6492,-0.0961 -0.34,0.0181 -0.6646,0.18397 -0.3249,0.16549 -0.3788,0.3291 -0.054,0.16361 -0.036,0.34795 0.017,0.18435 0.2409,0.42863 0.2231,0.24391 0.4437,0.34004 0.2205,0.0961 0.4237,0.0905 0.2036,-0.006 0.3087,-0.0637 0.1056,-0.0577 0.1919,-0.16625 0.087,-0.10819 0.1308,-0.20997 0.044,-0.10179 0.045,-0.23373 0,-0.13232 -0.067,-0.22204 -0.069,-0.0901 -0.1688,-0.1229 -0.027,0.0328 -0.02,0.0724 0.01,0.04 0.069,0.18623" /><path
     id="STROKE_1d2f023e-6992-4639-8d77-6f2eaf766637"
     opacity="1"
     fill="none"
     stroke="#9198e5"
     stroke-width="1.50792"
     stroke-opacity="1"
     stroke-linecap="round"
     stroke-linejoin="round"
     d="m 3287.4237,833.34718 -0.021,-0.0335 q -0.022,-0.10631 -0.034,-0.12176 -0.011,-0.0155 -0.096,-0.20169 -0.085,-0.18622 -0.1568,-0.29668 -0.072,-0.11045 -0.3724,-0.28386 -0.3001,-0.17379 -0.6239,-0.18058 -0.3242,-0.007 -0.5014,0.0679 -0.1772,0.0743 -0.3646,0.2997 -0.1873,0.22581 -0.2175,0.47876 -0.03,0.25296 0.033,0.4275 0.063,0.17492 0.2115,0.3012 0.1489,0.12667 0.5462,0.2179 0.3974,0.0916 0.6616,0.0615 0.2643,-0.0305 0.4747,-0.13308 0.2107,-0.10254 0.3238,-0.23863 0.1131,-0.13609 0.1425,-0.2669 0.029,-0.13043 0,-0.31968 -0.034,-0.18886 -0.3665,-0.41618 -0.3328,-0.22732 -0.6838,-0.26615 -0.3506,-0.0388 -0.5184,0.008 -0.1673,0.0464 -0.2318,0.21299 -0.065,0.16663 -0.01,0.32232 0.057,0.15569 0.1486,0.25258 0.091,0.0969 0.2017,0.17303 0.11,0.0758 0.3992,0.10706 0.2891,0.0313 0.377,-0.004 0.087,-0.0354 0.1402,-0.0769 0.053,-0.0415 0.1056,-0.11762 0.053,-0.0761 0.055,-0.17793 0,-0.10178 -0.1229,-0.18246 -0.01,0.005 -0.1569,0.18774" /><path
     id="STROKE_3ed0c4aa-2d8b-4811-8687-9a2b613903ad"
     opacity="1"
     fill="none"
     stroke="#9198e5"
     stroke-width="1.50792"
     stroke-opacity="1"
     stroke-linecap="round"
     stroke-linejoin="round"
     d="m 3255.385,833.10026 -0.1233,-0.0509 -0.256,-0.22807 q -0.1002,-0.0777 -0.4007,-0.18736 -0.3001,-0.1097 -0.4893,-0.1146 -0.1889,-0.005 -0.4098,0.10027 -0.2209,0.10556 -0.3023,0.23411 -0.081,0.12817 -0.1026,0.22279 -0.021,0.0946 -0.01,0.22883 0.015,0.13383 0.1455,0.24956 0.13,0.11573 0.3298,0.17567 0.2002,0.0603 0.4064,0.0415 0.2058,-0.0192 0.3242,-0.0814 0.118,-0.0622 0.1727,-0.15041 0.055,-0.0882 0.078,-0.19905 0.023,-0.11083 0.022,-0.18849 0,-0.0777 -0.04,-0.17906 -0.039,-0.10141 -0.2695,-0.31553 -0.2304,-0.21413 -0.9692,-0.24466 -0.1154,0.28386 -0.072,0.4716 0.043,0.18811 0.136,0.29178 0.093,0.10329 0.2138,0.15607 0.121,0.0524 0.2262,0.0441 0.1052,-0.008 0.1376,-0.0211 0.032,-0.0128 0.076,-0.0803 0.044,-0.0675 0.054,-0.11498 0.01,-0.0471 -0.01,-0.10254 -0.019,-0.0554 -0.093,-0.0924 -0.074,-0.0373 -0.156,-0.0422 -0.082,-0.005 -0.1802,0.0611 -0.098,0.066 -0.253,0.45162" /><path
     id="STROKE_b687df4a-5fc1-4950-9d71-cf7980010585"
     opacity="1"
     fill="none"
     stroke="#9198e5"
     stroke-width="1.50792"
     stroke-opacity="1"
     stroke-linecap="round"
     stroke-linejoin="round"
     d="m 3313.4983,850.17518 q 0.051,-0.10216 0.1308,-0.30837 0.079,-0.20658 0.088,-0.22317 0.01,-0.017 0.027,-0.19641 0.019,-0.17944 0.01,-0.29291 -0.013,-0.11309 -0.037,-0.2375 -0.024,-0.12402 -0.1044,-0.2767 -0.081,-0.1523 -0.2534,-0.28349 -0.1722,-0.13119 -0.3242,-0.1195 -0.1519,0.0117 -0.3283,0.15343 -0.1764,0.14137 -0.2413,0.25371 -0.064,0.11234 -0.083,0.22882 -0.019,0.11649 -0.01,0.24278 0.011,0.12629 0.2247,0.33136 0.2137,0.20508 0.6548,0.23486 0.022,0.007 0.076,-0.13684 0.053,-0.14401 0.022,-0.3144 -0.031,-0.1704 -0.098,-0.26426 -0.067,-0.0935 -0.1915,-0.11084 -0.1244,-0.0177 -0.2122,0.13345 -0.088,0.15155 -0.096,0.27105 -0.01,0.1195 0.01,0.21714 0.014,0.0973 0.1021,0.20546 0.089,0.10857 0.2583,0.18547 0.1692,0.0769 0.2989,-0.0117 l 0.1433,-0.032" /><path
     id="STROKE_86e35d8d-56d9-45ea-bed5-46d388d41f07"
     opacity="1"
     fill="none"
     stroke="#9198e5"
     stroke-width="1.50792"
     stroke-opacity="1"
     stroke-linecap="round"
     stroke-linejoin="round"
     d="m 3336.0752,887.64357 q 0.038,-0.14249 0.063,-0.47084 0.026,-0.32873 0.017,-0.43089 -0.01,-0.10254 -0.053,-0.27821 -0.045,-0.17568 -0.3129,-0.45313 -0.2673,-0.27746 -0.4935,-0.3619 -0.2262,-0.0848 -0.4392,-0.0788 -0.2126,0.006 -0.3879,0.15305 -0.1757,0.14665 -0.2639,0.37095 -0.088,0.2243 -0.076,0.44634 0.012,0.22204 0.044,0.3046 0.032,0.0822 0.2522,0.28764 0.2201,0.20545 0.6243,0.30724 0.4045,0.10216 0.642,0.0486 0.2371,-0.0535 0.2966,-0.11121 0.06,-0.0577 0.1022,-0.22732 0.043,-0.16964 0.028,-0.2243 -0.014,-0.055 -0.1331,-0.23524 -0.1187,-0.18057 -0.3125,-0.25446 -0.1938,-0.0735 -0.2997,-0.0682 -0.1056,0.005 -0.1844,0.02 -0.078,0.0151 -0.1749,0.14966 -0.096,0.13496 -0.1048,0.27821 -0.01,0.14287 0.016,0.22996 0.024,0.0875 0.087,0.14664 0.063,0.0596 0.2028,0.0939 0.1399,0.0343 0.2345,0.0102 0.095,-0.0241 0.1813,-0.0958 0.086,-0.0712 0.1256,-0.15532 0.039,-0.0841 0.03,-0.19264 l 0.044,-0.0516" /><path
     id="STROKE_e83ddd70-d973-4a45-8bce-283aeaaefc05"
     opacity="1"
     fill="none"
     stroke="#9198e5"
     stroke-width="1.50792"
     stroke-opacity="1"
     stroke-linecap="round"
     stroke-linejoin="round"
     d="m 3350.8191,850.37183 q -0.01,-0.0268 -0.141,-0.13647 -0.1606,-0.39696 -0.3336,-0.668 -0.1731,-0.27143 -0.4207,-0.47688 -0.2477,-0.20546 -0.5003,-0.29556 -0.2522,-0.0897 -0.4509,-0.10065 -0.1986,-0.0109 -0.3264,0.032 -0.1278,0.0426 -0.2398,0.14288 -0.1119,0.10028 -0.1994,0.39244 -0.088,0.29253 -0.067,0.47612 0.021,0.18397 0.127,0.37736 0.1063,0.19301 0.2756,0.32684 0.1696,0.1342 0.55,0.21488 0.3807,0.0807 0.6469,0.0366 0.2665,-0.0437 0.5357,-0.25031 0.2691,-0.20621 0.3332,-0.36831 0.064,-0.1621 0.069,-0.34456 0.01,-0.18283 -0.1791,-0.36077 -0.1843,-0.17831 -0.4561,-0.24428 -0.2718,-0.066 -0.4087,-0.0524 -0.1364,0.0136 -0.2258,0.0844 -0.089,0.0713 -0.098,0.12064 -0.01,0.0494 -0.017,0.0531 -0.01,0.004 0.017,0.19226 0.025,0.18849 0.2036,0.32269 0.1783,0.13459 0.3487,0.16512 0.1697,0.0305 0.2473,0.0302 0.078,-3.8e-4 0.1674,-0.0592 0.089,-0.0592 0.1312,-0.14853 0.041,-0.0897 0.038,-0.11422 0,-0.0245 -0.032,-0.0946 -0.029,-0.0705 -0.096,-0.0833 0.045,0.16324 0.1599,0.23222 0.1146,0.0686 0.4361,0.27218" /><path
     id="STROKE_c46de307-b5b0-4f3f-a7eb-17ecd544726d"
     opacity="1"
     fill="none"
     stroke="#9198e5"
     stroke-width="1.50792"
     stroke-opacity="1"
     stroke-linecap="round"
     stroke-linejoin="round"
     d="m 3427.7486,831.9624 -0.022,-0.0332 q 0,-0.0664 -0.061,-0.2326 -0.057,-0.16587 -0.1636,-0.3012 -0.1071,-0.13534 -0.3095,-0.26464 -0.2025,-0.12931 -0.4185,-0.16022 -0.2164,-0.0305 -0.3253,-0.0158 -0.1086,0.0151 -0.2092,0.0622 -0.1007,0.0471 -0.1369,0.0769 -0.036,0.0302 -0.095,0.10065 -0.059,0.0705 -0.091,0.14363 -0.032,0.0731 -0.044,0.2473 -0.012,0.17417 0.029,0.28575 0.041,0.11197 0.1055,0.19603 0.064,0.0841 0.2285,0.19113 0.1639,0.10669 0.3675,0.15117 0.2032,0.0441 0.3532,0.0332 0.1501,-0.0109 0.2221,-0.0377 0.072,-0.0268 0.1319,-0.063 0.06,-0.0366 0.097,-0.0792 0.037,-0.0422 0.064,-0.11461 0.026,-0.072 -0.1384,-0.29404 l -0.018,0.008 -0.066,-0.005" /><path
     id="STROKE_c059da0a-ba30-439b-a059-9b44015e3582"
     opacity="1"
     fill="none"
     stroke="#9198e5"
     stroke-width="1.50792"
     stroke-opacity="1"
     stroke-linecap="round"
     stroke-linejoin="round"
     d="m 3396.1298,832.1377 q 0,-0.0117 0.01,-0.0652 0.01,-0.0531 -0.01,-0.19264 -0.017,-0.1391 -0.029,-0.18622 -0.012,-0.0471 -0.027,-0.095 -0.014,-0.0479 -0.098,-0.14212 -0.084,-0.0939 -0.1697,-0.14439 -0.086,-0.0505 -0.1296,-0.0626 -0.044,-0.0121 -0.1712,-0.007 -0.1267,0.005 -0.2341,0.0954 -0.1071,0.0905 -0.1659,0.22995 -0.059,0.13911 -0.055,0.22883 0,0.0897 0.078,0.20395 0.074,0.11422 0.1561,0.16436 0.082,0.0501 0.1964,0.052 0.1146,0 0.1941,-0.11158 0.079,-0.11347 0.084,-0.30422 0,-0.19076 -0.051,-0.28953 -0.056,-0.0984 -0.17,-0.16021 -0.1138,-0.0622 -0.2088,-0.0671 -0.095,-0.005 -0.152,0.017 -0.057,0.0215 -0.097,0.0777 -0.039,0.0558 -0.047,0.14287 -0.01,0.0867 0.027,0.1704 0.034,0.0833 0.097,0.13609 0.063,0.0528 0.1082,0.0682 0.046,0.0158 0.097,0.0189 0.051,0.004 0.2541,-0.0132" /><path
     id="STROKE_89192dc5-ed58-47d8-af9a-60b6cc491876"
     opacity="1"
     fill="none"
     stroke="#9198e5"
     stroke-width="1.50792"
     stroke-opacity="1"
     stroke-linecap="round"
     stroke-linejoin="round"
     d="m 3454.222,848.90123 0.021,-0.11912 q -0.01,-0.0931 -0.021,-0.17681 -0.014,-0.0833 -0.064,-0.18622 -0.049,-0.1033 -0.1832,-0.20282 -0.1339,-0.0995 -0.2296,-0.11385 -0.096,-0.0143 -0.161,3.8e-4 -0.065,0.0147 -0.098,0.10442 -0.033,0.0893 -0.026,0.18246 0.01,0.0931 0.055,0.17303 0.048,0.0803 0.1078,0.12478 0.059,0.0449 0.1485,0.0735 0.089,0.0283 0.1512,0.008 0.062,-0.0204 0.094,-0.0694 0.032,-0.049 0.036,-0.0652 0,-0.0162 0.01,-0.026 0.01,-0.009 -0.02,-0.0912 -0.026,-0.0818 -0.1459,-0.14514 -0.022,0.0102 -0.078,0.10329" /><path
     id="STROKE_2db397c8-1112-4fc8-b819-4d95d43ce4a3"
     opacity="1"
     fill="none"
     stroke="#9198e5"
     stroke-width="1.50792"
     stroke-opacity="1"
     stroke-linecap="round"
     stroke-linejoin="round"
     d="m 3465.3572,864.38 0.018,-0.043 q 0.064,-0.2337 0.084,-0.3536 0.02,-0.1195 0,-0.2442 -0.016,-0.1244 -0.097,-0.2654 -0.081,-0.141 -0.2149,-0.2104 -0.1334,-0.069 -0.2179,-0.073 -0.084,0 -0.164,0.029 -0.08,0.033 -0.1455,0.092 -0.066,0.058 -0.1006,0.1903 -0.035,0.1324 0.051,0.3683 0.086,0.2364 0.1806,0.3329 0.095,0.097 0.1553,0.1286 0.06,0.032 0.1734,0.042 0.1131,0.01 0.2123,-0.038 0.099,-0.048 0.1361,-0.086 0.037,-0.038 0.078,-0.1353 0.041,-0.098 0.038,-0.2013 0,-0.1033 -0.046,-0.1855 -0.042,-0.082 -0.095,-0.1165 -0.053,-0.035 -0.071,-0.04 -0.018,-0.01 -0.072,-0.01 -0.054,0 -0.097,0.02 -0.043,0.022 -0.059,0.041 -0.017,0.018 -0.041,0.066 -0.025,0.048 -0.038,0.1018 -0.013,0.054 -0.097,0.3073" /><path
     id="STROKE_66f1e6e4-3b89-47d6-9b1b-f970ef358259"
     opacity="1"
     fill="none"
     stroke="#9198e5"
     stroke-width="1.50792"
     stroke-opacity="1"
     stroke-linecap="round"
     stroke-linejoin="round"
     d="m 3442.6381,839.50275 q -0.01,-0.0109 0.023,-0.11875 v -0.11535 q -0.011,-0.0517 -0.057,-0.16851 -0.046,-0.11724 -0.1515,-0.21413 -0.1056,-0.0973 -0.2262,-0.13156 -0.1206,-0.0339 -0.2066,-0.009 -0.086,0.0249 -0.1304,0.0596 -0.044,0.0351 -0.075,0.0916 -0.031,0.0569 -0.02,0.12704 0.01,0.0705 0.037,0.12705 0.026,0.0562 0.1727,0.18208 0.1459,0.12628 0.2303,0.15946 0.084,0.0332 0.1693,0.0392 0.085,0.006 0.15,-0.029 0.065,-0.0347 0.1033,-0.0811 0.038,-0.0467 0.046,-0.2032 0.01,-0.15644 -0.072,-0.33098 -0.08,-0.17455 -0.1595,-0.2507 -0.079,-0.0761 -0.1658,-0.12025 -0.087,-0.0441 -0.1708,-0.007 -0.084,0.0369 -0.1316,0.098 -0.047,0.0607 -0.06,0.13383 -0.013,0.0731 0.022,0.17077 0.034,0.098 0.088,0.16022 0.054,0.0626 0.1017,0.092 0.048,0.0298 0.092,0.043 0.044,0.0132 0.08,0 0.035,-0.0147 0.064,-0.0358 0.029,-0.0211 0.049,-0.0818 0.02,-0.0603 0.042,-0.26841" /><path
     id="STROKE_09966e09-10b0-499c-8249-4ada1b7ae5d4"
     opacity="1"
     fill="none"
     stroke="#9198e5"
     stroke-width="1.50792"
     stroke-opacity="1"
     stroke-linecap="round"
     stroke-linejoin="round"
     d="m 3413.1859,829.64285 -0.024,-0.009 q -0.022,-0.0162 -0.086,-0.0995 -0.064,-0.0833 -0.1052,-0.13081 -0.041,-0.0479 -0.1263,-0.10254 -0.085,-0.0547 -0.222,-0.078 -0.1369,-0.023 -0.233,0.007 -0.096,0.0294 -0.1485,0.0999 -0.052,0.0709 -0.057,0.12968 0,0.0584 0.024,0.13345 0.029,0.0746 0.112,0.13684 0.083,0.0618 0.2326,0.092 0.1496,0.0298 0.2352,0.0154 0.086,-0.0143 0.1508,-0.0607 0.065,-0.0467 0.087,-0.10367 0.023,-0.0573 0.021,-0.0954 0,-0.0381 -0.024,-0.0841 -0.022,-0.046 -0.046,-0.0739 -0.024,-0.0279 -0.097,-0.0777 -0.073,-0.0494 -0.1229,-0.0705 -0.049,-0.0211 -0.2062,-0.075" /><path
     id="STROKE_9d41112c-35ae-4588-8da0-a2be5a7b1fee"
     opacity="1"
     fill="none"
     stroke="#9198e5"
     stroke-width="1.50792"
     stroke-opacity="1"
     stroke-linecap="round"
     stroke-linejoin="round"
     d="m 3371.2141,838.43288 q 3e-4,0 0,-0.004 0,0 0,-0.005 0,-0.004 -0.019,-0.0271 -0.02,-0.0234 -0.071,-0.0479 -0.05,-0.0249 -0.1568,-0.0192 -0.1063,0.006 -0.2161,0.0498 -0.1097,0.0441 -0.1805,0.098 -0.071,0.0539 -0.092,0.0814 -0.021,0.0279 -0.045,0.0758 -0.024,0.0479 -0.026,0.10518 0,0.0573 0.033,0.13647 0.035,0.0792 0.1048,0.12892 0.069,0.0498 0.1783,0.0814 0.1093,0.0317 0.2364,0.0207 0.127,-0.0113 0.2337,-0.0599 0.1067,-0.0486 0.1734,-0.12554 0.067,-0.0769 0.078,-0.1376 0.011,-0.0603 0,-0.10857 -0.01,-0.0479 -0.061,-0.0814 -0.051,-0.0332 -0.3906,-0.0547" /><path
     id="STROKE_bfb5a765-a7d4-4508-865c-f7f5b248616b"
     opacity="1"
     fill="none"
     stroke="#e66465"
     stroke-width="1.50792"
     stroke-opacity="1"
     stroke-linecap="round"
     stroke-linejoin="round"
     d="m 3337.524,887.49693 -0.1422,-0.13421 q -0.092,-0.0927 -0.2778,-0.55039 -0.1862,-0.45727 -0.3412,-0.74114 -0.1553,-0.28386 -0.4229,-0.54323 -0.2677,-0.25974 -0.7261,-0.429 -0.4588,-0.16964 -0.8523,-0.15192 -0.3936,0.0177 -0.7321,0.22279 -0.3386,0.2047 -0.452,0.34607 -0.1139,0.14137 -0.2111,0.42561 -0.098,0.28424 -0.1154,0.52023 -0.017,0.23637 0.1191,0.68347 0.1365,0.44709 0.3491,0.69741 0.2126,0.25031 0.4124,0.37773 0.1994,0.1278 0.4822,0.20056 0.2827,0.0727 0.625,0.0761 0.3427,0.003 0.4603,-0.0264 0.118,-0.0302 0.2175,-0.0501 0.099,-0.0204 0.619,-0.33099 0.5199,-0.31063 1.1306,-1.09852 l 0.3706,-0.62993" /><path
     id="STROKE_82cbc3cb-08b1-4954-9641-39cc1813650f"
     opacity="1"
     fill="none"
     stroke="#9198e5"
     stroke-width="1.50792"
     stroke-opacity="1"
     stroke-linecap="round"
     stroke-linejoin="round"
     d="m 3336.0752,887.64357 q 0.038,-0.14249 0.063,-0.47084 0.026,-0.32873 0.017,-0.43089 -0.01,-0.10254 -0.053,-0.27821 -0.045,-0.17568 -0.3129,-0.45313 -0.2673,-0.27746 -0.4935,-0.3619 -0.2262,-0.0848 -0.4392,-0.0788 -0.2126,0.006 -0.3879,0.15305 -0.1757,0.14665 -0.2639,0.37095 -0.088,0.2243 -0.076,0.44634 0.012,0.22204 0.044,0.3046 0.032,0.0822 0.2522,0.28764 0.2201,0.20545 0.6243,0.30724 0.4045,0.10216 0.642,0.0486 0.2371,-0.0535 0.2966,-0.11121 0.06,-0.0577 0.1022,-0.22732 0.043,-0.16964 0.028,-0.2243 -0.014,-0.055 -0.1331,-0.23524 -0.1187,-0.18057 -0.3125,-0.25446 -0.1938,-0.0735 -0.2997,-0.0682 -0.1056,0.005 -0.1844,0.02 -0.078,0.0151 -0.1749,0.14966 -0.096,0.13496 -0.1048,0.27821 -0.01,0.14287 0.016,0.22996 0.024,0.0875 0.087,0.14664 0.063,0.0596 0.2028,0.0939 0.1399,0.0343 0.2345,0.0102 0.095,-0.0241 0.1813,-0.0958 0.086,-0.0712 0.1256,-0.15532 0.039,-0.0841 0.03,-0.19264 l 0.044,-0.0516" /><path
     id="STROKE_45dc9f0b-bb73-4c49-8f47-38e9ee88e358"
     opacity="1"
     fill="none"
     stroke="#9198e5"
     stroke-width="1.50792"
     stroke-opacity="1"
     stroke-linecap="round"
     stroke-linejoin="round"
     d="m 3476.8596,886.5886 q 0.038,-0.1424 0.063,-0.4708 0.026,-0.3287 0.018,-0.4313 -0.01,-0.1021 -0.054,-0.2778 -0.046,-0.1757 -0.3129,-0.4531 -0.2677,-0.2775 -0.4939,-0.3619 -0.2262,-0.085 -0.4388,-0.079 -0.2126,0.01 -0.3883,0.153 -0.1753,0.1467 -0.2635,0.371 -0.088,0.2243 -0.076,0.4463 0.012,0.2221 0.044,0.3046 0.032,0.082 0.2522,0.2877 0.2205,0.2054 0.6247,0.3072 0.4041,0.1022 0.6416,0.049 0.2375,-0.053 0.297,-0.1112 0.06,-0.058 0.1018,-0.2273 0.043,-0.1696 0.029,-0.2243 -0.014,-0.055 -0.1331,-0.2356 -0.1191,-0.1802 -0.3125,-0.2541 -0.1942,-0.073 -0.2997,-0.068 -0.106,0 -0.1844,0.02 -0.079,0.015 -0.1753,0.1496 -0.096,0.135 -0.1044,0.2782 -0.01,0.1429 0.015,0.23 0.024,0.087 0.087,0.1466 0.063,0.06 0.2032,0.094 0.1395,0.034 0.2345,0.01 0.095,-0.024 0.181,-0.096 0.087,-0.071 0.1255,-0.1553 0.039,-0.084 0.03,-0.1926 l 0.044,-0.052" /></g></svg>
