<?xml version="1.0" encoding="UTF-8" standalone="no"?>
<svg
   version="1.1"
   xml:space="preserve"
   x="0px"
   y="0px"
   viewBox="0 0 960 480"
   id="svg1"
   sodipodi:docname="bezier-cubic-4.svg"
   inkscape:version="1.3.2 (091e20ef0f, 2023-11-25, custom)"
   xmlns:inkscape="http://www.inkscape.org/namespaces/inkscape"
   xmlns:sodipodi="http://sodipodi.sourceforge.net/DTD/sodipodi-0.dtd"
   xmlns="http://www.w3.org/2000/svg"
   xmlns:svg="http://www.w3.org/2000/svg"><defs
   id="defs1" /><sodipodi:namedview
   id="namedview1"
   pagecolor="#505050"
   bordercolor="#eeeeee"
   borderopacity="1"
   inkscape:showpageshadow="0"
   inkscape:pageopacity="0"
   inkscape:pagecheckerboard="0"
   inkscape:deskcolor="#d1d1d1"
   inkscape:zoom="0.98333334"
   inkscape:cx="494.23729"
   inkscape:cy="304.57627"
   inkscape:window-width="2560"
   inkscape:window-height="1600"
   inkscape:window-x="0"
   inkscape:window-y="0"
   inkscape:window-maximized="0"
   inkscape:current-layer="Cubic_4"
   showgrid="false" />
<g
   id="Cubic_4"
   opacity="1"
   transform="matrix(0.71189255,0,0,0.71189255,-4603.2692,-1226.3443)"><path
     id="STROKE_a04e70b2-823d-4f43-a0a8-23092afa5181"
     opacity="0.5"
     fill="none"
     stroke="#f6f7ef"
     stroke-width="2"
     stroke-opacity="1"
     stroke-linecap="round"
     stroke-linejoin="round"
     d="m 6610.7276,1874.4426 -2.395,384.812" /><path
     id="STROKE_199a4e7e-2064-4670-80d9-c2d20f3886d3"
     opacity="0.5"
     fill="none"
     stroke="#f6f7ef"
     stroke-width="2"
     stroke-opacity="1"
     stroke-linecap="round"
     stroke-linejoin="round"
     d="m 6616.9576,2168.3296 78.968,-285.561" /><path
     id="STROKE_8f42cc6a-bb89-43aa-856a-d80e7c53e510"
     opacity="0.5"
     fill="none"
     stroke="#f6f7ef"
     stroke-width="2"
     stroke-opacity="1"
     stroke-linecap="round"
     stroke-linejoin="round"
     d="m 6634.5336,2091.3346 144.922,-191.231" /><path
     id="STROKE_4b0a93b4-cc63-4558-825f-e273489d3943"
     opacity="0.5"
     fill="none"
     stroke="#f6f7ef"
     stroke-width="2"
     stroke-opacity="1"
     stroke-linecap="round"
     stroke-linejoin="round"
     d="m 6669.5196,2017.1306 180.135,-86.14" /><path
     id="STROKE_430d9820-c7d6-436c-a764-d280cf06a4c5"
     opacity="0.5"
     fill="none"
     stroke="#f6f7ef"
     stroke-width="2"
     stroke-opacity="1"
     stroke-linecap="round"
     stroke-linejoin="round"
     d="m 6707.4156,1972.1886 191.554,0.252" /><path
     id="STROKE_3fd53d88-0b2c-4e6a-964c-5fa6296b90db"
     opacity="0.5"
     fill="none"
     stroke="#f6f7ef"
     stroke-width="2"
     stroke-opacity="1"
     stroke-linecap="round"
     stroke-linejoin="round"
     d="m 6754.0566,1933.3326 181.333,83.724" /><path
     id="STROKE_bad30172-fc59-4758-8145-043ded236efe"
     opacity="0.5"
     fill="none"
     stroke="#f6f7ef"
     stroke-width="2"
     stroke-opacity="1"
     stroke-linecap="round"
     stroke-linejoin="round"
     d="m 6824.6566,1900.6476 144.735,189.043" /><path
     id="STROKE_ba8122dc-8f43-4a22-b4ae-3045dbee108f"
     opacity="0.5"
     fill="none"
     stroke="#f6f7ef"
     stroke-width="2"
     stroke-opacity="1"
     stroke-linecap="round"
     stroke-linejoin="round"
     d="m 6907.2666,1884.2026 82.217,285.232" /><path
     id="STROKE_4c116a74-9781-4180-8f77-ea43492b2b48"
     opacity="0.5"
     fill="none"
     stroke="#f6f7ef"
     stroke-width="2"
     stroke-opacity="1"
     stroke-linecap="round"
     stroke-linejoin="round"
     d="m 6992.1516,1871.2906 3.574,391.23" /><path
     id="STROKE_ac5f34f7-4c57-451b-888a-17fed545af44"
     opacity="0.5"
     fill="none"
     stroke="#f6f7ef"
     stroke-width="2"
     stroke-opacity="1"
     stroke-linecap="round"
     stroke-linejoin="round"
     d="m 7295.0533,1869.8235 -1.93,387.733" /><path
     id="STROKE_2b5f348c-7ec2-4790-b4cc-e6518068c4e8"
     opacity="0.5"
     fill="none"
     stroke="#f6f7ef"
     stroke-width="2"
     stroke-opacity="1"
     stroke-linecap="round"
     stroke-linejoin="round"
     d="m 7388.3883,1951.4155 -85.219,223.899" /><path
     id="STROKE_937e0619-c04e-482f-bcfb-4aa0e6e1c9ba"
     opacity="0.5"
     fill="none"
     stroke="#f6f7ef"
     stroke-width="2"
     stroke-opacity="1"
     stroke-linecap="round"
     stroke-linejoin="round"
     d="m 7318.7983,2113.6775 149.103,-100.411" /><path
     id="STROKE_f12bfe61-19d7-4e3f-8f82-c68dec629f57"
     opacity="0.5"
     fill="none"
     stroke="#f6f7ef"
     stroke-width="2"
     stroke-opacity="1"
     stroke-linecap="round"
     stroke-linejoin="round"
     d="m 7353.4283,2078.7015 188.576,-22.16" /><path
     id="STROKE_7d3d9d54-145b-4c3e-a68b-c8b910b47048"
     opacity="0.5"
     fill="none"
     stroke="#f6f7ef"
     stroke-width="2"
     stroke-opacity="1"
     stroke-linecap="round"
     stroke-linejoin="round"
     d="m 7391.7463,2064.7325 192.431,-1.184" /><path
     id="STROKE_592ed3c6-e616-4354-8935-12e19f4ac2d7"
     opacity="0.5"
     fill="none"
     stroke="#f6f7ef"
     stroke-width="2"
     stroke-opacity="1"
     stroke-linecap="round"
     stroke-linejoin="round"
     d="m 7441.5303,2075.0205 180.717,-17.469" /><path
     id="STROKE_b4b3a6d5-e046-4290-b8d5-e01577a4baef"
     opacity="0.5"
     fill="none"
     stroke="#f6f7ef"
     stroke-width="2"
     stroke-opacity="1"
     stroke-linecap="round"
     stroke-linejoin="round"
     d="m 7658.3383,2016.8215 -145.557,96.618" /><path
     id="STROKE_e4f78311-10fe-4fdc-95c6-7b5a47f969a3"
     opacity="0.5"
     fill="none"
     stroke="#f6f7ef"
     stroke-width="2"
     stroke-opacity="1"
     stroke-linecap="round"
     stroke-linejoin="round"
     d="m 7675.8133,1953.6015 -81.681,221.175" /><path
     id="STROKE_72b8ab7e-07b8-4f85-8714-4340b8acc484"
     opacity="0.5"
     fill="none"
     stroke="#f6f7ef"
     stroke-width="2"
     stroke-opacity="1"
     stroke-linecap="round"
     stroke-linejoin="round"
     d="m 7682.7043,1868.5015 -1.903,387.211" /><path
     id="STROKE_cab5b0d4-7e34-43d2-a909-df6b2dfd0d6e"
     opacity="1"
     fill="none"
     stroke="#e66465"
     stroke-width="4"
     stroke-opacity="1"
     stroke-linecap="round"
     stroke-linejoin="round"
     d="m 6612.4536,1872.8296 -0.168,-0.072 q -1.368,-0.832 -1.76,-0.965 -0.392,-0.133 -1.01,-0.351 -0.617,-0.219 -1.69,-0.369 -1.074,-0.151 -2.212,0.144 -1.139,0.296 -1.567,0.566 -0.429,0.271 -0.82,0.761 -0.391,0.489 -0.571,0.762 -0.18,0.273 -0.328,1.154 -0.149,0.881 -0.023,1.505 0.126,0.623 0.55,1.313 0.424,0.689 0.926,1.185 0.502,0.495 1.206,0.88 0.704,0.386 1.567,0.581 0.864,0.195 1.88,0.259 1.016,0.063 1.938,-0.097 0.921,-0.16 1.423,-0.392 0.502,-0.232 1.22,-0.772 0.719,-0.54 1.089,-1.092 0.371,-0.551 0.456,-0.761 0.086,-0.209 0.304,-0.355 0.219,-0.145 0.815,-4.402" /><path
     id="STROKE_81be1306-0d5e-452d-ad87-7b64e8a64fbb"
     opacity="1"
     fill="none"
     stroke="#e66465"
     stroke-width="4"
     stroke-opacity="1"
     stroke-linecap="round"
     stroke-linejoin="round"
     d="m 6613.9086,2261.4906 q -0.683,-1.004 -1.654,-1.947 -0.972,-0.942 -2.407,-1.94 -1.435,-0.999 -1.557,-1.117 -0.122,-0.117 -1.935,-0.519 -1.813,-0.402 -3.069,-0.211 -1.256,0.192 -1.498,0.299 -0.241,0.108 -0.824,0.76 -0.583,0.653 -0.834,1.308 -0.252,0.656 -0.269,1.25 -0.017,0.594 -0.016,0.827 0,0.234 0.405,1.207 0.403,0.973 1.199,1.839 0.797,0.867 1.673,1.353 0.876,0.486 1.767,0.704 0.892,0.219 1.743,0.35 0.851,0.132 2.887,-0.212 2.036,-0.344 3.136,-0.845 1.1,-0.501 1.907,-1.237 0.808,-0.737 3.6,-5.099" /><path
     id="STROKE_d6f9e0d6-5d20-403e-a658-efaec7240d8c"
     opacity="1"
     fill="none"
     stroke="#e66465"
     stroke-width="4"
     stroke-opacity="1"
     stroke-linecap="round"
     stroke-linejoin="round"
     d="m 6998.6126,1875.6206 q -0.301,-0.409 -0.948,-1.884 -0.647,-1.476 -1.105,-2.296 -0.457,-0.82 -0.682,-1.096 -0.225,-0.277 -1.188,-1.263 -0.963,-0.986 -1.581,-1.238 -0.619,-0.252 -1.071,-0.286 -0.452,-0.035 -0.863,0.034 -0.412,0.07 -1.314,1.086 -0.903,1.016 -1.185,1.768 -0.283,0.752 -0.33,1.26 -0.047,0.508 0.125,1.649 0.172,1.141 0.347,1.498 0.176,0.358 0.536,0.794 0.36,0.437 1.557,1.339 1.196,0.902 2.827,1.372 1.631,0.47 2.024,0.533 0.392,0.063 1.047,0.068 0.655,0.01 3.346,-0.228" /><path
     id="STROKE_698b3ce8-b2fc-4d0e-853b-ed8e97c15d80"
     opacity="1"
     fill="none"
     stroke="#e66465"
     stroke-width="4"
     stroke-opacity="1"
     stroke-linecap="round"
     stroke-linejoin="round"
     d="m 7001.4096,2262.4076 -0.901,-0.881 -0.172,-0.636 q -0.084,-0.234 -1.021,-1.921 -0.936,-1.687 -1.949,-2.702 -1.014,-1.014 -1.422,-1.265 -0.409,-0.251 -0.719,-0.364 -0.309,-0.112 -1.648,-0.22 -1.338,-0.109 -2.19,0.299 -0.853,0.408 -0.898,0.485 l -1.214,1.632 q -0.095,0.076 -0.487,2.415 -0.392,2.338 0,3.65 0.395,1.313 0.734,1.795 0.34,0.481 0.884,0.978 0.545,0.496 1.515,1.026 0.969,0.529 2.42,0.657 1.451,0.128 2.282,-0.01 0.832,-0.138 2.031,-0.917 1.199,-0.778 4.294,-4.122" /><path
     id="STROKE_c777f241-a589-419e-b456-f93c08552d44"
     opacity="1"
     fill="none"
     stroke="#e66465"
     stroke-width="4"
     stroke-opacity="1"
     stroke-linecap="round"
     stroke-linejoin="round"
     d="m 7299.3963,1869.9055 -0.168,-0.072 q -1.368,-0.832 -1.76,-0.965 -0.392,-0.133 -1.01,-0.351 -0.617,-0.219 -1.69,-0.37 -1.074,-0.15 -2.212,0.145 -1.139,0.296 -1.567,0.566 -0.429,0.271 -0.82,0.761 -0.391,0.489 -0.571,0.762 -0.18,0.273 -0.328,1.154 -0.149,0.881 -0.023,1.505 0.126,0.623 0.55,1.313 0.424,0.689 0.926,1.185 0.502,0.495 1.206,0.88 0.704,0.386 1.567,0.581 0.864,0.195 1.88,0.259 1.016,0.063 1.938,-0.097 0.921,-0.16 1.423,-0.392 0.502,-0.232 1.22,-0.772 0.719,-0.54 1.089,-1.092 0.371,-0.551 0.456,-0.761 0.086,-0.209 0.304,-0.355 0.219,-0.145 0.815,-4.402" /><path
     id="STROKE_17f5f0bf-2a89-4a08-8981-d7fbb9206e6b"
     opacity="1"
     fill="none"
     stroke="#e66465"
     stroke-width="4"
     stroke-opacity="1"
     stroke-linecap="round"
     stroke-linejoin="round"
     d="m 7300.8513,2258.5665 q -0.683,-1.004 -1.654,-1.947 -0.972,-0.942 -2.407,-1.941 -1.435,-0.998 -1.557,-1.116 -0.122,-0.117 -1.935,-0.519 -1.813,-0.402 -3.069,-0.211 -1.256,0.192 -1.498,0.299 -0.241,0.108 -0.824,0.76 -0.583,0.653 -0.834,1.308 -0.252,0.656 -0.269,1.25 -0.017,0.594 -0.016,0.827 0,0.234 0.405,1.207 0.403,0.973 1.199,1.839 0.797,0.867 1.673,1.353 0.876,0.486 1.767,0.704 0.892,0.219 1.743,0.35 0.851,0.131 2.887,-0.212 2.036,-0.344 3.136,-0.845 1.1,-0.501 1.907,-1.238 0.808,-0.736 3.6,-5.098" /><path
     id="STROKE_e58f0f22-eefe-4b1f-8b66-19ea44f89796"
     opacity="1"
     fill="none"
     stroke="#e66465"
     stroke-width="4"
     stroke-opacity="1"
     stroke-linecap="round"
     stroke-linejoin="round"
     d="m 7685.5553,1872.6965 q -0.301,-0.409 -0.948,-1.884 -0.647,-1.476 -1.105,-2.296 -0.457,-0.82 -0.682,-1.096 -0.225,-0.277 -1.188,-1.263 -0.963,-0.986 -1.581,-1.238 -0.619,-0.252 -1.071,-0.286 -0.452,-0.035 -0.863,0.034 -0.412,0.07 -1.314,1.086 -0.903,1.016 -1.185,1.768 -0.283,0.752 -0.33,1.26 -0.047,0.508 0.125,1.649 0.172,1.141 0.347,1.498 0.176,0.358 0.536,0.794 0.36,0.436 1.557,1.339 1.196,0.902 2.827,1.372 1.631,0.47 2.024,0.533 0.392,0.063 1.047,0.068 0.655,0.01 3.346,-0.228" /><path
     id="STROKE_4f72de90-71d2-4eb7-a09b-ac47dd469bb6"
     opacity="1"
     fill="none"
     stroke="#e66465"
     stroke-width="4"
     stroke-opacity="1"
     stroke-linecap="round"
     stroke-linejoin="round"
     d="m 7688.3523,2259.4835 -0.901,-0.881 -0.172,-0.636 q -0.084,-0.234 -1.021,-1.921 -0.936,-1.687 -1.949,-2.702 -1.014,-1.014 -1.422,-1.265 -0.409,-0.251 -0.719,-0.364 -0.309,-0.112 -1.648,-0.221 -1.338,-0.108 -2.19,0.3 -0.853,0.408 -0.898,0.485 l -1.214,1.632 q -0.095,0.076 -0.487,2.415 -0.392,2.338 0,3.65 0.395,1.313 0.734,1.795 0.34,0.481 0.884,0.978 0.545,0.496 1.515,1.026 0.969,0.529 2.42,0.657 1.451,0.128 2.282,-0.01 0.832,-0.137 2.031,-0.916 1.199,-0.778 4.294,-4.122" /><path
     id="STROKE_2d256ab5-c545-4173-8784-0a748cd5f3a4"
     opacity="1"
     fill="none"
     stroke="#e66465"
     stroke-width="4"
     stroke-opacity="1"
     stroke-linecap="round"
     stroke-linejoin="round"
     d="m 6534.1846,2238.5576 -0.018,0.477 q -0.066,0.629 1.678,7.214 1.742,6.585 2.968,10.697 1.225,4.111 2.166,7.862 0.941,3.752 2.747,12.04 0.084,0.119 0.408,1.025" /><path
     id="STROKE_d4313d57-9b93-4034-9ae6-3a56e79cc84a"
     opacity="1"
     fill="none"
     stroke="#e66465"
     stroke-width="4"
     stroke-opacity="1"
     stroke-linecap="round"
     stroke-linejoin="round"
     d="m 6531.0086,2242.4546 q 1.032,-2.952 2.677,-5.276 1.645,-2.324 4.053,-4.277 2.408,-1.953 4.224,-2.634 1.817,-0.682 3.035,-0.802 1.218,-0.12 2.226,0.016 1.008,0.135 5.277,4.018 4.268,3.883 4.763,5.728 0.496,1.845 0.46,3.038 -0.036,1.193 -0.909,3.371 -0.874,2.178 -3.184,5.018 -2.31,2.84 -3.625,4.14 -1.316,1.299 -2.284,2.057 -0.968,0.759 -1.661,1.141 -0.098,0.011 0.238,0.687" /><path
     id="STROKE_c20ad612-acdc-4889-8dcb-3a78b7b87a4d"
     opacity="1"
     fill="none"
     stroke="#e66465"
     stroke-width="4"
     stroke-opacity="1"
     stroke-linecap="round"
     stroke-linejoin="round"
     d="m 6565.0636,2279.1756 q -0.673,-0.785 -1.666,-1.503 -0.992,-0.718 -1.518,-1.188 -0.527,-0.471 -1.399,-1.569 -0.871,-1.099 -1.376,-2.536 -0.505,-1.437 -0.499,-2.388 0.01,-0.951 0.33,-1.904 0.325,-0.954 1.37,-1.83 1.046,-0.876 2.165,-1.138 1.118,-0.262 2.196,-0.13 1.078,0.132 1.978,0.77 0.9,0.639 1.657,1.834 0.757,1.194 1.066,2.186 0.309,0.991 0.397,2 0.089,1.009 -0.095,2.321 -0.185,1.313 -0.6,2.148 -0.415,0.836 -1.163,1.76 -0.748,0.924 -5.722,2.887" /><path
     id="STROKE_ab2d357a-fba6-46aa-8071-0afc60dbb9f4"
     opacity="1"
     fill="none"
     stroke="#e66465"
     stroke-width="4"
     stroke-opacity="1"
     stroke-linecap="round"
     stroke-linejoin="round"
     d="m 6529.8556,1840.4316 0.04,0.386 q 0.036,0.553 2.52,7.425 2.483,6.872 3.975,10.909 1.492,4.037 2.654,7.498 1.162,3.46 2.998,10.319 0.091,0.028 -1.662,-1.993" /><path
     id="STROKE_c690d001-833f-47b8-8352-e3f6f61eee1d"
     opacity="1"
     fill="none"
     stroke="#e66465"
     stroke-width="4"
     stroke-opacity="1"
     stroke-linecap="round"
     stroke-linejoin="round"
     d="m 6526.3806,1844.0366 q 0.032,-0.107 0.21,-1.393 0.178,-1.285 0.535,-2.396 0.356,-1.11 1.68,-2.994 1.324,-1.883 3.058,-3.161 1.735,-1.278 3.338,-1.845 1.603,-0.567 3.244,-0.708 1.64,-0.141 2.968,0.069 1.328,0.21 2.685,0.916 1.357,0.706 2.817,2.616 1.459,1.91 2.334,5.662 0.874,3.752 0.745,5.971 -0.128,2.219 -0.836,4.449 -0.709,2.23 -2.403,4.328 -1.695,2.099 -3.222,3.005 -1.528,0.905 -2.489,1.136 -0.962,0.23 -3.682,0.141" /><path
     id="STROKE_b1b6ab62-c9ad-4043-bf6d-1f4303228ed1"
     opacity="1"
     fill="none"
     stroke="#e66465"
     stroke-width="4"
     stroke-opacity="1"
     stroke-linecap="round"
     stroke-linejoin="round"
     d="m 6563.0376,1877.7216 q 2.649,-8.094 3.019,-9.918 0.37,-1.823 0.474,-2.458 0.104,-0.636 -0.352,-0.725 -0.218,0.557 0.08,2.52 0.297,1.963 0.827,3.588 0.53,1.626 1.468,3.681 0.937,2.055 2.476,4.199 0.344,0.226 1.044,1.054" /><path
     id="STROKE_7e918c0e-610e-43e3-9d6a-1d6ee341eda8"
     opacity="1"
     fill="none"
     stroke="#e66465"
     stroke-width="4"
     stroke-opacity="1"
     stroke-linecap="round"
     stroke-linejoin="round"
     d="m 7024.2806,1809.8176 q 0.053,0.104 0.043,0.754 0.011,1.066 1.397,5.17 1.387,4.104 3.583,10.403 2.196,6.298 3.967,13.555 1.771,7.256 2.748,12.821 0.086,0.101 -1.133,-3.831" /><path
     id="STROKE_f9253315-a6f4-469e-b86b-4330c8015ebb"
     opacity="1"
     fill="none"
     stroke="#e66465"
     stroke-width="4"
     stroke-opacity="1"
     stroke-linecap="round"
     stroke-linejoin="round"
     d="m 7023.4066,1814.0756 q 0.105,-0.143 0.777,-1.986 0.672,-1.842 1.234,-2.85 0.561,-1.007 0.933,-1.524 0.372,-0.516 1.872,-1.815 1.5,-1.3 3.421,-2.083 1.922,-0.783 3.096,-0.94 1.173,-0.157 2.573,-0.084 1.399,0.073 2.197,0.241 0.798,0.169 3.596,1.748 2.799,1.579 4.455,3.363 1.656,1.783 2.762,3.848 1.106,2.065 1.526,4.775 0.421,2.71 0.204,4.373 -0.217,1.664 -1.167,3.685 -0.95,2.021 -3.139,3.87 -2.19,1.849 -3.884,2.44 -1.694,0.59 -2.562,0.663 -0.869,0.073 -1.526,-0.025 -0.658,-0.098 -0.979,-0.254 -0.322,-0.156 -0.606,-0.392 -0.283,-0.235 -0.455,-0.477 -0.171,-0.242 -0.547,-0.85" /><path
     id="STROKE_39f18530-67ae-439d-8d38-aefa54da58cd"
     opacity="1"
     fill="none"
     stroke="#e66465"
     stroke-width="4"
     stroke-opacity="1"
     stroke-linecap="round"
     stroke-linejoin="round"
     d="m 7060.8006,1852.3776 q 0.144,-0.303 -0.252,-1.2 0.248,-1.696 1.053,-2.929 0.806,-1.233 1.724,-1.836 0.918,-0.603 1.669,-0.664 0.75,-0.061 1.048,-0.047 0.297,0.013 1.067,0.478 0.771,0.465 1.522,1.789 0.751,1.324 1.038,3.41 0.287,2.087 -0.314,5.637 -0.601,3.551 -0.999,5.828 -0.399,2.278 -0.215,3.681 0.53,0.171 4.105,0.068 3.575,-0.104 14.527,-1.665" /><path
     id="STROKE_c14164a9-e01c-4606-a040-f588c27ac17e"
     opacity="1"
     fill="none"
     stroke="#e66465"
     stroke-width="4"
     stroke-opacity="1"
     stroke-linecap="round"
     stroke-linejoin="round"
     d="m 7032.8466,2222.9946 -0.102,0.726 q -0.06,0.317 2.814,14.756 2.875,14.439 7.901,29.774 0.157,0.06 -0.068,-0.103" /><path
     id="STROKE_a94cfe6d-d06f-4159-9d16-c280c8f0eff0"
     opacity="1"
     fill="none"
     stroke="#e66465"
     stroke-width="4"
     stroke-opacity="1"
     stroke-linecap="round"
     stroke-linejoin="round"
     d="m 7034.1576,2226.8916 q 0.073,-0.166 0.179,-1.174 0.106,-1.009 0.436,-1.981 0.329,-0.973 0.551,-1.444 0.222,-0.471 0.627,-1.037 0.405,-0.566 0.987,-1.126 0.582,-0.56 1.108,-0.909 0.525,-0.349 0.946,-0.62 0.422,-0.271 2.965,-0.743 2.542,-0.471 4.243,-0.276 1.7,0.195 3.393,0.928 1.693,0.733 3.004,1.783 1.311,1.05 2.395,2.864 1.085,1.814 1.508,4.333 0.423,2.518 0.099,4.783 -0.324,2.266 -1.674,4.787 -1.351,2.52 -3.129,4.2 -1.779,1.68 -3.668,2.549 -1.889,0.868 -3.352,1.044 -1.463,0.175 -2.437,-0.069 -0.974,-0.243 -1.99,-0.949 l -0.849,-0.427" /><path
     id="STROKE_37a40c77-a215-4277-9358-9aa126c5b236"
     opacity="1"
     fill="none"
     stroke="#e66465"
     stroke-width="4"
     stroke-opacity="1"
     stroke-linecap="round"
     stroke-linejoin="round"
     d="m 7072.6816,2252.3516 q 0.152,-0.093 0.489,-0.63 0.336,-0.537 1.415,-1.597 1.078,-1.059 2.513,-2.027 1.436,-0.968 2.88,-1.421 1.444,-0.453 2.614,-0.354 1.17,0.1 1.737,0.326 0.566,0.225 1.159,0.773 0.593,0.548 1.116,1.94 0.523,1.393 0.472,2.956 -0.051,1.564 -0.554,2.943 -0.502,1.379 -0.804,1.953 -0.302,0.573 -0.553,0.7 0.156,-0.136 0.444,-0.262 0.288,-0.126 0.845,-0.176 0.558,-0.05 1.809,0.053 1.252,0.103 3.05,0.737 1.799,0.633 2.931,1.37 1.133,0.736 1.881,1.65 0.748,0.915 1.006,1.511 0.257,0.596 0.29,1.253 0.033,0.656 -0.18,1.412 -0.213,0.756 -0.716,1.566 -0.503,0.809 -1.825,1.876 -1.322,1.067 -3.476,1.856 -2.153,0.788 -4.2,0.923 -2.046,0.135 -3.362,-0.128 -1.316,-0.262 -2.182,-0.68 -0.865,-0.417 -1.692,-1.039 -0.827,-0.622 -1.997,-2.262 l -0.701,-1.076" /><path
     id="STROKE_745d87eb-9813-49af-a2e6-b7f6c001194b"
     opacity="1"
     fill="none"
     stroke="#e66465"
     stroke-width="4"
     stroke-opacity="1"
     stroke-linecap="round"
     stroke-linejoin="round"
     d="m 7223.0393,2247.0935 -0.05,1.066 q 0.159,0.965 1.012,4.324 0.854,3.36 1.862,7.101 1.008,3.741 2.565,9.078 1.557,5.337 2.497,8.138 0.941,2.8 1.785,4.848 0.845,2.048 1.275,2.93 0.431,0.883 0.95,1.717 0.125,0.02 -1.49,-2.411" /><path
     id="STROKE_0bcf0a47-b831-48ea-a776-9b9230ffca48"
     opacity="1"
     fill="none"
     stroke="#e66465"
     stroke-width="4"
     stroke-opacity="1"
     stroke-linecap="round"
     stroke-linejoin="round"
     d="m 7223.2583,2250.1305 q 0.045,-1.219 1.093,-4.187 1.048,-2.969 2.192,-4.457 1.144,-1.487 2.011,-2.035 0.867,-0.548 1.6,-0.743 0.732,-0.195 2.719,0.197 1.987,0.391 4.298,2.066 2.312,1.676 3.412,3.076 1.1,1.4 1.794,3.028 0.694,1.628 0.861,3.49 0.167,1.862 -0.586,4.215 -0.752,2.353 -2.477,4.385 -1.725,2.031 -3.256,2.965 -1.531,0.933 -2.769,1.225 -1.238,0.291 -1.934,0.242 -0.695,-0.049 -1.211,-0.167 -0.516,-0.119 -1.064,-0.467 -0.548,-0.348 -0.88,-0.635 -0.332,-0.286 -0.739,-0.66" /><path
     id="STROKE_57a5b0aa-b9f8-4875-86e4-e16bd25e8703"
     opacity="1"
     fill="none"
     stroke="#e66465"
     stroke-width="4"
     stroke-opacity="1"
     stroke-linecap="round"
     stroke-linejoin="round"
     d="m 7266.3503,2279.8485 q -0.071,-0.833 -0.695,-2.453 -0.624,-1.62 -1.697,-3.061 -1.072,-1.44 -2.447,-2.314 -1.376,-0.874 -3.635,-0.846 -2.258,0.029 -2.983,0.641 -0.724,0.612 -1.229,2.441 -0.505,1.828 -0.247,3.578 0.258,1.75 1.416,3.545 1.159,1.795 2.494,2.681 1.334,0.886 2.817,1.126 1.483,0.24 2.741,-0.081 1.257,-0.32 2.612,-1.509 1.354,-1.188 4.308,-8.074" /><path
     id="STROKE_b84421c3-a45d-4802-a900-835eae479fdc"
     opacity="1"
     fill="none"
     stroke="#e66465"
     stroke-width="4"
     stroke-opacity="1"
     stroke-linecap="round"
     stroke-linejoin="round"
     d="m 7228.5283,1850.2195 q 0.159,0.735 0.493,2.089 0.333,1.353 0.952,3.032 0.62,1.68 1.178,2.855 0.558,1.175 2.252,4.552 1.695,3.377 3.851,8.348 2.156,4.971 3.203,7.917 1.048,2.946 2.387,8.042 0.064,0.014 -0.674,-1.487" /><path
     id="STROKE_92f2569a-dcbc-4877-b64e-5868f5bdfb24"
     opacity="1"
     fill="none"
     stroke="#e66465"
     stroke-width="4"
     stroke-opacity="1"
     stroke-linecap="round"
     stroke-linejoin="round"
     d="m 7228.9653,1852.0915 q 0.317,-0.572 1.09,-2.034 0.773,-1.462 1.798,-2.509 1.024,-1.048 2.451,-1.849 1.426,-0.801 3.407,-1.094 1.982,-0.293 3.473,-0.027 1.491,0.265 2.698,1.037 1.208,0.772 2.351,2.109 1.142,1.337 2.18,4.367 1.039,3.029 1.126,5.6 0.088,2.571 -0.445,4.957 -0.533,2.386 -1.829,4.552 -1.296,2.165 -2.185,3.12 -0.889,0.955 -2.182,1.77 -1.293,0.814 -2.963,1.2 -0.319,-0.062 -1.736,-0.065" /><path
     id="STROKE_8439907d-17b6-4e40-a599-fe2f5b92c416"
     opacity="1"
     fill="none"
     stroke="#e66465"
     stroke-width="4"
     stroke-opacity="1"
     stroke-linecap="round"
     stroke-linejoin="round"
     d="m 7259.2883,1884.5555 q 0.166,-0.592 0.696,-2.338 0.531,-1.745 0.793,-3.065 0.262,-1.32 0.353,-2.01 0.092,-0.69 0.114,-0.993 0.022,-0.302 -0.013,-0.493 -0.035,-0.19 -0.086,-0.179 -0.051,0.011 0.183,0.989 0.234,0.979 1.408,3.448 1.174,2.47 7.156,11.783" /><path
     id="STROKE_a8e54f1b-3ad1-4ac5-a891-ce1389ebe7cd"
     opacity="1"
     fill="none"
     stroke="#e66465"
     stroke-width="4"
     stroke-opacity="1"
     stroke-linecap="round"
     stroke-linejoin="round"
     d="m 7715.5243,2258.3055 q 0.051,0.507 0.379,1.684 0.328,1.176 0.957,2.738 0.629,1.562 2.04,4.968 1.41,3.407 3.982,11.273 2.573,7.865 3.647,12.071 1.074,4.206 1.687,7.334 0.053,0 -1.572,-1.835" /><path
     id="STROKE_f0192c4b-5ba0-4b05-ab7c-24d169433111"
     opacity="1"
     fill="none"
     stroke="#e66465"
     stroke-width="4"
     stroke-opacity="1"
     stroke-linecap="round"
     stroke-linejoin="round"
     d="m 7716.2593,2264.7955 q 0.332,-1.624 0.779,-3.007 0.446,-1.383 1.296,-2.654 0.85,-1.272 2,-2.165 1.151,-0.893 2.612,-1.294 1.462,-0.4 3.476,-0.11 2.014,0.289 3.854,1.566 1.841,1.277 2.594,2.155 0.752,0.878 1.56,2.248 0.808,1.37 1.469,3.891 0.662,2.521 0.548,5.163 -0.114,2.642 -0.809,4.58 -0.695,1.937 -1.538,3.157 -0.843,1.22 -1.781,2.001 -0.938,0.781 -1.676,1.126 -0.737,0.344 -1.189,0.459 -0.453,0.115 -0.959,0 l -0.561,0.056" /><path
     id="STROKE_0a9c49dd-bfde-4428-9c6c-96ed04b203d5"
     opacity="1"
     fill="none"
     stroke="#e66465"
     stroke-width="4"
     stroke-opacity="1"
     stroke-linecap="round"
     stroke-linejoin="round"
     d="m 7747.1383,2289.9655 0.44,-0.043 q 1.523,-0.281 2.078,-0.306 0.555,-0.026 1.322,0.102 0.767,0.127 1.259,0.481 0.491,0.355 0.676,0.592 0.184,0.237 0.571,1.035 0.387,0.798 0.781,2.849 0.393,2.05 0.405,4.688 0.013,2.637 0.289,4.19 0.07,0.043 3.718,-0.691 3.648,-0.734 11.337,-3.439" /><path
     id="STROKE_a113a7e1-89e7-4eb9-9f04-9f46b0d3c8f6"
     opacity="1"
     fill="none"
     stroke="#e66465"
     stroke-width="4"
     stroke-opacity="1"
     stroke-linecap="round"
     stroke-linejoin="round"
     d="m 7705.4963,1836.5775 0.317,0.388 q 0.908,1.312 4.432,8.836 3.523,7.525 5.043,12.143 1.521,4.617 2.059,7.164 0.537,2.547 0.795,5.084 0.257,2.537 0.286,7.411 -0.063,-0.12 -0.58,-0.769" /><path
     id="STROKE_ff271cf7-4680-4b22-9236-4bf022cdc5b5"
     opacity="1"
     fill="none"
     stroke="#e66465"
     stroke-width="4"
     stroke-opacity="1"
     stroke-linecap="round"
     stroke-linejoin="round"
     d="m 7706.4293,1841.4865 q 0.253,-1.627 0.669,-2.726 0.417,-1.099 0.782,-1.646 0.366,-0.547 1.596,-1.457 1.229,-0.91 3.511,-1.402 2.282,-0.493 5.034,-0.052 2.753,0.441 5.162,1.748 2.409,1.308 4.074,3.062 1.665,1.754 2.531,4.148 0.864,2.394 0.768,4.859 -0.097,2.466 -0.829,4.277 -0.732,1.812 -2.246,3.505 -1.513,1.694 -4.427,3.04 -2.913,1.347 -6.517,2.045" /><path
     id="STROKE_c6b8d0d6-e14a-40fd-8c79-6331c3fe3ed2"
     opacity="1"
     fill="none"
     stroke="#e66465"
     stroke-width="4"
     stroke-opacity="1"
     stroke-linecap="round"
     stroke-linejoin="round"
     d="m 7742.5893,1873.2985 q 0.319,-0.876 0.522,-1.336 0.202,-0.46 0.53,-0.97 0.328,-0.509 0.681,-0.869 0.353,-0.359 0.638,-0.677 0.286,-0.318 2.255,-1.654 1.97,-1.336 3.814,-1.663 1.843,-0.327 2.825,-0.096 0.982,0.232 1.427,0.492 0.444,0.261 1.09,1.391 0.645,1.131 0.865,2.168 0.219,1.037 0.21,2.385 -0.011,1.349 -0.064,2.248 -0.054,0.899 -0.129,1.542 0.304,0.117 1.744,0.675 1.441,0.559 2.551,1.053 1.111,0.494 1.703,1.018 0.593,0.524 0.831,0.962 0.239,0.437 0.332,1.017 0.093,0.579 -0.092,1.471 -0.185,0.893 -1.809,2.162 -1.623,1.269 -4.408,1.93 -2.786,0.662 -5.091,0.437 -2.305,-0.224 -4.22,-0.904 -1.914,-0.68 -3.464,-1.816 l -1.151,-1.009" /><path
     id="STROKE_bc5b50f8-3378-473f-8083-6bba81c89224"
     opacity="1"
     fill="none"
     stroke="#e66465"
     stroke-width="4"
     stroke-opacity="1"
     stroke-linecap="round"
     stroke-linejoin="round"
     d="m 6612.4536,1872.8296 -0.168,-0.072 q -1.368,-0.832 -1.76,-0.965 -0.392,-0.133 -1.01,-0.351 -0.617,-0.219 -1.69,-0.369 -1.074,-0.151 -2.212,0.144 -1.139,0.296 -1.567,0.566 -0.429,0.271 -0.82,0.761 -0.391,0.489 -0.571,0.762 -0.18,0.273 -0.328,1.154 -0.149,0.881 -0.023,1.505 0.126,0.623 0.55,1.313 0.424,0.689 0.926,1.185 0.502,0.495 1.206,0.88 0.704,0.386 1.567,0.581 0.864,0.195 1.88,0.259 1.016,0.063 1.938,-0.097 0.921,-0.16 1.423,-0.392 0.502,-0.232 1.22,-0.772 0.719,-0.54 1.089,-1.092 0.371,-0.551 0.456,-0.761 0.086,-0.209 0.304,-0.355 0.219,-0.145 0.815,-4.402" /><path
     id="STROKE_6527751f-27fc-4a1e-9f70-d43c65e6762e"
     opacity="1"
     fill="none"
     stroke="#e66465"
     stroke-width="4"
     stroke-opacity="1"
     stroke-linecap="round"
     stroke-linejoin="round"
     d="m 6613.9086,2261.4906 q -0.683,-1.004 -1.654,-1.947 -0.972,-0.942 -2.407,-1.94 -1.435,-0.999 -1.557,-1.117 -0.122,-0.117 -1.935,-0.519 -1.813,-0.402 -3.069,-0.211 -1.256,0.192 -1.498,0.299 -0.241,0.108 -0.824,0.76 -0.583,0.653 -0.834,1.308 -0.252,0.656 -0.269,1.25 -0.017,0.594 -0.016,0.827 0,0.234 0.405,1.207 0.403,0.973 1.199,1.839 0.797,0.867 1.673,1.353 0.876,0.486 1.767,0.704 0.892,0.219 1.743,0.35 0.851,0.132 2.887,-0.212 2.036,-0.344 3.136,-0.845 1.1,-0.501 1.907,-1.237 0.808,-0.737 3.6,-5.099" /><path
     id="STROKE_9626846b-83fc-453b-a133-8f1d9e7d1982"
     opacity="1"
     fill="none"
     stroke="#e66465"
     stroke-width="4"
     stroke-opacity="1"
     stroke-linecap="round"
     stroke-linejoin="round"
     d="m 6998.6126,1875.6206 q -0.301,-0.409 -0.948,-1.884 -0.647,-1.476 -1.105,-2.296 -0.457,-0.82 -0.682,-1.096 -0.225,-0.277 -1.188,-1.263 -0.963,-0.986 -1.581,-1.238 -0.619,-0.252 -1.071,-0.286 -0.452,-0.035 -0.863,0.034 -0.412,0.07 -1.314,1.086 -0.903,1.016 -1.185,1.768 -0.283,0.752 -0.33,1.26 -0.047,0.508 0.125,1.649 0.172,1.141 0.347,1.498 0.176,0.358 0.536,0.794 0.36,0.437 1.557,1.339 1.196,0.902 2.827,1.372 1.631,0.47 2.024,0.533 0.392,0.063 1.047,0.068 0.655,0.01 3.346,-0.228" /><path
     id="STROKE_aae9d72b-0152-48fd-9dc6-37bc387b923c"
     opacity="1"
     fill="none"
     stroke="#e66465"
     stroke-width="4"
     stroke-opacity="1"
     stroke-linecap="round"
     stroke-linejoin="round"
     d="m 7001.4096,2262.4076 -0.901,-0.881 -0.172,-0.636 q -0.084,-0.234 -1.021,-1.921 -0.936,-1.687 -1.949,-2.702 -1.014,-1.014 -1.422,-1.265 -0.409,-0.251 -0.719,-0.364 -0.309,-0.112 -1.648,-0.22 -1.338,-0.109 -2.19,0.299 -0.853,0.408 -0.898,0.485 l -1.214,1.632 q -0.095,0.076 -0.487,2.415 -0.392,2.338 0,3.65 0.395,1.313 0.734,1.795 0.34,0.481 0.884,0.978 0.545,0.496 1.515,1.026 0.969,0.529 2.42,0.657 1.451,0.128 2.282,-0.01 0.832,-0.138 2.031,-0.917 1.199,-0.778 4.294,-4.122" /><path
     id="STROKE_e8fce245-9a82-492b-9795-82927f1ced5d"
     opacity="1"
     fill="none"
     stroke="#e66465"
     stroke-width="4"
     stroke-opacity="1"
     stroke-linecap="round"
     stroke-linejoin="round"
     d="m 7299.3963,1869.9055 -0.168,-0.072 q -1.368,-0.832 -1.76,-0.965 -0.392,-0.133 -1.01,-0.351 -0.617,-0.219 -1.69,-0.37 -1.074,-0.15 -2.212,0.145 -1.139,0.296 -1.567,0.566 -0.429,0.271 -0.82,0.761 -0.391,0.489 -0.571,0.762 -0.18,0.273 -0.328,1.154 -0.149,0.881 -0.023,1.505 0.126,0.623 0.55,1.313 0.424,0.689 0.926,1.185 0.502,0.495 1.206,0.88 0.704,0.386 1.567,0.581 0.864,0.195 1.88,0.259 1.016,0.063 1.938,-0.097 0.921,-0.16 1.423,-0.392 0.502,-0.232 1.22,-0.772 0.719,-0.54 1.089,-1.092 0.371,-0.551 0.456,-0.761 0.086,-0.209 0.304,-0.355 0.219,-0.145 0.815,-4.402" /><path
     id="STROKE_cc198440-b82e-4741-ba67-4960d349df4f"
     opacity="1"
     fill="none"
     stroke="#e66465"
     stroke-width="4"
     stroke-opacity="1"
     stroke-linecap="round"
     stroke-linejoin="round"
     d="m 7300.8513,2258.5665 q -0.683,-1.004 -1.654,-1.947 -0.972,-0.942 -2.407,-1.941 -1.435,-0.998 -1.557,-1.116 -0.122,-0.117 -1.935,-0.519 -1.813,-0.402 -3.069,-0.211 -1.256,0.192 -1.498,0.299 -0.241,0.108 -0.824,0.76 -0.583,0.653 -0.834,1.308 -0.252,0.656 -0.269,1.25 -0.017,0.594 -0.016,0.827 0,0.234 0.405,1.207 0.403,0.973 1.199,1.839 0.797,0.867 1.673,1.353 0.876,0.486 1.767,0.704 0.892,0.219 1.743,0.35 0.851,0.131 2.887,-0.212 2.036,-0.344 3.136,-0.845 1.1,-0.501 1.907,-1.238 0.808,-0.736 3.6,-5.098" /><path
     id="STROKE_38ea1d0e-897c-4ecd-8560-502c1cb3cef6"
     opacity="1"
     fill="none"
     stroke="#e66465"
     stroke-width="4"
     stroke-opacity="1"
     stroke-linecap="round"
     stroke-linejoin="round"
     d="m 7685.5553,1872.6965 q -0.301,-0.409 -0.948,-1.884 -0.647,-1.476 -1.105,-2.296 -0.457,-0.82 -0.682,-1.096 -0.225,-0.277 -1.188,-1.263 -0.963,-0.986 -1.581,-1.238 -0.619,-0.252 -1.071,-0.286 -0.452,-0.035 -0.863,0.034 -0.412,0.07 -1.314,1.086 -0.903,1.016 -1.185,1.768 -0.283,0.752 -0.33,1.26 -0.047,0.508 0.125,1.649 0.172,1.141 0.347,1.498 0.176,0.358 0.536,0.794 0.36,0.436 1.557,1.339 1.196,0.902 2.827,1.372 1.631,0.47 2.024,0.533 0.392,0.063 1.047,0.068 0.655,0.01 3.346,-0.228" /><path
     id="STROKE_95e8f09b-7ce8-4e7f-b549-b46388ee2961"
     opacity="1"
     fill="none"
     stroke="#e66465"
     stroke-width="4"
     stroke-opacity="1"
     stroke-linecap="round"
     stroke-linejoin="round"
     d="m 7688.3523,2259.4835 -0.901,-0.881 -0.172,-0.636 q -0.084,-0.234 -1.021,-1.921 -0.936,-1.687 -1.949,-2.702 -1.014,-1.014 -1.422,-1.265 -0.409,-0.251 -0.719,-0.364 -0.309,-0.112 -1.648,-0.221 -1.338,-0.108 -2.19,0.3 -0.853,0.408 -0.898,0.485 l -1.214,1.632 q -0.095,0.076 -0.487,2.415 -0.392,2.338 0,3.65 0.395,1.313 0.734,1.795 0.34,0.481 0.884,0.978 0.545,0.496 1.515,1.026 0.969,0.529 2.42,0.657 1.451,0.128 2.282,-0.01 0.832,-0.137 2.031,-0.916 1.199,-0.778 4.294,-4.122" /><path
     id="STROKE_9b0de886-778f-4989-a987-d81d19b54db5"
     opacity="1"
     fill="none"
     stroke="#e66465"
     stroke-width="4"
     stroke-opacity="1"
     stroke-linecap="round"
     stroke-linejoin="round"
     d="m 6534.1846,2238.5576 -0.018,0.477 q -0.066,0.629 1.678,7.214 1.742,6.585 2.968,10.697 1.225,4.111 2.166,7.862 0.941,3.752 2.747,12.04 0.084,0.119 0.408,1.025" /><path
     id="STROKE_de683a9b-04a9-4bf0-bac6-2a4c140c9058"
     opacity="1"
     fill="none"
     stroke="#e66465"
     stroke-width="4"
     stroke-opacity="1"
     stroke-linecap="round"
     stroke-linejoin="round"
     d="m 6531.0086,2242.4546 q 1.032,-2.952 2.677,-5.276 1.645,-2.324 4.053,-4.277 2.408,-1.953 4.224,-2.634 1.817,-0.682 3.035,-0.802 1.218,-0.12 2.226,0.016 1.008,0.135 5.277,4.018 4.268,3.883 4.763,5.728 0.496,1.845 0.46,3.038 -0.036,1.193 -0.909,3.371 -0.874,2.178 -3.184,5.018 -2.31,2.84 -3.625,4.14 -1.316,1.299 -2.284,2.057 -0.968,0.759 -1.661,1.141 -0.098,0.011 0.238,0.687" /><path
     id="STROKE_4923832e-122e-4386-8f2c-04794f5fe07c"
     opacity="1"
     fill="none"
     stroke="#e66465"
     stroke-width="4"
     stroke-opacity="1"
     stroke-linecap="round"
     stroke-linejoin="round"
     d="m 6565.0636,2279.1756 q -0.673,-0.785 -1.666,-1.503 -0.992,-0.718 -1.518,-1.188 -0.527,-0.471 -1.399,-1.569 -0.871,-1.099 -1.376,-2.536 -0.505,-1.437 -0.499,-2.388 0.01,-0.951 0.33,-1.904 0.325,-0.954 1.37,-1.83 1.046,-0.876 2.165,-1.138 1.118,-0.262 2.196,-0.13 1.078,0.132 1.978,0.77 0.9,0.639 1.657,1.834 0.757,1.194 1.066,2.186 0.309,0.991 0.397,2 0.089,1.009 -0.095,2.321 -0.185,1.313 -0.6,2.148 -0.415,0.836 -1.163,1.76 -0.748,0.924 -5.722,2.887" /><path
     id="STROKE_fabb0e15-596e-4ec1-9052-a4c7a6f5d18b"
     opacity="1"
     fill="none"
     stroke="#e66465"
     stroke-width="4"
     stroke-opacity="1"
     stroke-linecap="round"
     stroke-linejoin="round"
     d="m 6529.8556,1840.4316 0.04,0.386 q 0.036,0.553 2.52,7.425 2.483,6.872 3.975,10.909 1.492,4.037 2.654,7.498 1.162,3.46 2.998,10.319 0.091,0.028 -1.662,-1.993" /><path
     id="STROKE_59340fff-12b8-4229-836c-a098e4a80130"
     opacity="1"
     fill="none"
     stroke="#e66465"
     stroke-width="4"
     stroke-opacity="1"
     stroke-linecap="round"
     stroke-linejoin="round"
     d="m 6526.3806,1844.0366 q 0.032,-0.107 0.21,-1.393 0.178,-1.285 0.535,-2.396 0.356,-1.11 1.68,-2.994 1.324,-1.883 3.058,-3.161 1.735,-1.278 3.338,-1.845 1.603,-0.567 3.244,-0.708 1.64,-0.141 2.968,0.069 1.328,0.21 2.685,0.916 1.357,0.706 2.817,2.616 1.459,1.91 2.334,5.662 0.874,3.752 0.745,5.971 -0.128,2.219 -0.836,4.449 -0.709,2.23 -2.403,4.328 -1.695,2.099 -3.222,3.005 -1.528,0.905 -2.489,1.136 -0.962,0.23 -3.682,0.141" /><path
     id="STROKE_ef2b64f1-8532-44bf-be7f-bf1d1aa11474"
     opacity="1"
     fill="none"
     stroke="#e66465"
     stroke-width="4"
     stroke-opacity="1"
     stroke-linecap="round"
     stroke-linejoin="round"
     d="m 6563.0376,1877.7216 q 2.649,-8.094 3.019,-9.918 0.37,-1.823 0.474,-2.458 0.104,-0.636 -0.352,-0.725 -0.218,0.557 0.08,2.52 0.297,1.963 0.827,3.588 0.53,1.626 1.468,3.681 0.937,2.055 2.476,4.199 0.344,0.226 1.044,1.054" /><path
     id="STROKE_a920c7fd-2ae0-469e-a83b-258d8e7e7ea9"
     opacity="1"
     fill="none"
     stroke="#e66465"
     stroke-width="4"
     stroke-opacity="1"
     stroke-linecap="round"
     stroke-linejoin="round"
     d="m 7024.2806,1809.8176 q 0.053,0.104 0.043,0.754 0.011,1.066 1.397,5.17 1.387,4.104 3.583,10.403 2.196,6.298 3.967,13.555 1.771,7.256 2.748,12.821 0.086,0.101 -1.133,-3.831" /><path
     id="STROKE_18cfc733-00f1-48bd-9f44-6d643680427e"
     opacity="1"
     fill="none"
     stroke="#e66465"
     stroke-width="4"
     stroke-opacity="1"
     stroke-linecap="round"
     stroke-linejoin="round"
     d="m 7023.4066,1814.0756 q 0.105,-0.143 0.777,-1.986 0.672,-1.842 1.234,-2.85 0.561,-1.007 0.933,-1.524 0.372,-0.516 1.872,-1.815 1.5,-1.3 3.421,-2.083 1.922,-0.783 3.096,-0.94 1.173,-0.157 2.573,-0.084 1.399,0.073 2.197,0.241 0.798,0.169 3.596,1.748 2.799,1.579 4.455,3.363 1.656,1.783 2.762,3.848 1.106,2.065 1.526,4.775 0.421,2.71 0.204,4.373 -0.217,1.664 -1.167,3.685 -0.95,2.021 -3.139,3.87 -2.19,1.849 -3.884,2.44 -1.694,0.59 -2.562,0.663 -0.869,0.073 -1.526,-0.025 -0.658,-0.098 -0.979,-0.254 -0.322,-0.156 -0.606,-0.392 -0.283,-0.235 -0.455,-0.477 -0.171,-0.242 -0.547,-0.85" /><path
     id="STROKE_a2eef1cf-7d39-47ac-9fab-721ab3b6a76c"
     opacity="1"
     fill="none"
     stroke="#e66465"
     stroke-width="4"
     stroke-opacity="1"
     stroke-linecap="round"
     stroke-linejoin="round"
     d="m 7060.8006,1852.3776 q 0.144,-0.303 -0.252,-1.2 0.248,-1.696 1.053,-2.929 0.806,-1.233 1.724,-1.836 0.918,-0.603 1.669,-0.664 0.75,-0.061 1.048,-0.047 0.297,0.013 1.067,0.478 0.771,0.465 1.522,1.789 0.751,1.324 1.038,3.41 0.287,2.087 -0.314,5.637 -0.601,3.551 -0.999,5.828 -0.399,2.278 -0.215,3.681 0.53,0.171 4.105,0.068 3.575,-0.104 14.527,-1.665" /><path
     id="STROKE_1893fa7e-f209-486a-a3a4-479c89867923"
     opacity="1"
     fill="none"
     stroke="#e66465"
     stroke-width="4"
     stroke-opacity="1"
     stroke-linecap="round"
     stroke-linejoin="round"
     d="m 7032.8466,2222.9946 -0.102,0.726 q -0.06,0.317 2.814,14.756 2.875,14.439 7.901,29.774 0.157,0.06 -0.068,-0.103" /><path
     id="STROKE_c71616f7-b6a7-41a7-a69b-0039603cffde"
     opacity="1"
     fill="none"
     stroke="#e66465"
     stroke-width="4"
     stroke-opacity="1"
     stroke-linecap="round"
     stroke-linejoin="round"
     d="m 7034.1576,2226.8916 q 0.073,-0.166 0.179,-1.174 0.106,-1.009 0.436,-1.981 0.329,-0.973 0.551,-1.444 0.222,-0.471 0.627,-1.037 0.405,-0.566 0.987,-1.126 0.582,-0.56 1.108,-0.909 0.525,-0.349 0.946,-0.62 0.422,-0.271 2.965,-0.743 2.542,-0.471 4.243,-0.276 1.7,0.195 3.393,0.928 1.693,0.733 3.004,1.783 1.311,1.05 2.395,2.864 1.085,1.814 1.508,4.333 0.423,2.518 0.099,4.783 -0.324,2.266 -1.674,4.787 -1.351,2.52 -3.129,4.2 -1.779,1.68 -3.668,2.549 -1.889,0.868 -3.352,1.044 -1.463,0.175 -2.437,-0.069 -0.974,-0.243 -1.99,-0.949 l -0.849,-0.427" /><path
     id="STROKE_6b02fbfe-b002-4f2a-9d7e-3668d147b708"
     opacity="1"
     fill="none"
     stroke="#e66465"
     stroke-width="4"
     stroke-opacity="1"
     stroke-linecap="round"
     stroke-linejoin="round"
     d="m 7072.6816,2252.3516 q 0.152,-0.093 0.489,-0.63 0.336,-0.537 1.415,-1.597 1.078,-1.059 2.513,-2.027 1.436,-0.968 2.88,-1.421 1.444,-0.453 2.614,-0.354 1.17,0.1 1.737,0.326 0.566,0.225 1.159,0.773 0.593,0.548 1.116,1.94 0.523,1.393 0.472,2.956 -0.051,1.564 -0.554,2.943 -0.502,1.379 -0.804,1.953 -0.302,0.573 -0.553,0.7 0.156,-0.136 0.444,-0.262 0.288,-0.126 0.845,-0.176 0.558,-0.05 1.809,0.053 1.252,0.103 3.05,0.737 1.799,0.633 2.931,1.37 1.133,0.736 1.881,1.65 0.748,0.915 1.006,1.511 0.257,0.596 0.29,1.253 0.033,0.656 -0.18,1.412 -0.213,0.756 -0.716,1.566 -0.503,0.809 -1.825,1.876 -1.322,1.067 -3.476,1.856 -2.153,0.788 -4.2,0.923 -2.046,0.135 -3.362,-0.128 -1.316,-0.262 -2.182,-0.68 -0.865,-0.417 -1.692,-1.039 -0.827,-0.622 -1.997,-2.262 l -0.701,-1.076" /><path
     id="STROKE_866e028c-bd9c-431c-b693-eefacba6fa58"
     opacity="1"
     fill="none"
     stroke="#e66465"
     stroke-width="4"
     stroke-opacity="1"
     stroke-linecap="round"
     stroke-linejoin="round"
     d="m 7223.0393,2247.0935 -0.05,1.066 q 0.159,0.965 1.012,4.324 0.854,3.36 1.862,7.101 1.008,3.741 2.565,9.078 1.557,5.337 2.497,8.138 0.941,2.8 1.785,4.848 0.845,2.048 1.275,2.93 0.431,0.883 0.95,1.717 0.125,0.02 -1.49,-2.411" /><path
     id="STROKE_ec77ae01-d452-4b7b-a0b8-910ee240418e"
     opacity="1"
     fill="none"
     stroke="#e66465"
     stroke-width="4"
     stroke-opacity="1"
     stroke-linecap="round"
     stroke-linejoin="round"
     d="m 7223.2583,2250.1305 q 0.045,-1.219 1.093,-4.187 1.048,-2.969 2.192,-4.457 1.144,-1.487 2.011,-2.035 0.867,-0.548 1.6,-0.743 0.732,-0.195 2.719,0.197 1.987,0.391 4.298,2.066 2.312,1.676 3.412,3.076 1.1,1.4 1.794,3.028 0.694,1.628 0.861,3.49 0.167,1.862 -0.586,4.215 -0.752,2.353 -2.477,4.385 -1.725,2.031 -3.256,2.965 -1.531,0.933 -2.769,1.225 -1.238,0.291 -1.934,0.242 -0.695,-0.049 -1.211,-0.167 -0.516,-0.119 -1.064,-0.467 -0.548,-0.348 -0.88,-0.635 -0.332,-0.286 -0.739,-0.66" /><path
     id="STROKE_d8d98c40-3007-4abb-8173-82ddbbec120e"
     opacity="1"
     fill="none"
     stroke="#e66465"
     stroke-width="4"
     stroke-opacity="1"
     stroke-linecap="round"
     stroke-linejoin="round"
     d="m 7266.3503,2279.8485 q -0.071,-0.833 -0.695,-2.453 -0.624,-1.62 -1.697,-3.061 -1.072,-1.44 -2.447,-2.314 -1.376,-0.874 -3.635,-0.846 -2.258,0.029 -2.983,0.641 -0.724,0.612 -1.229,2.441 -0.505,1.828 -0.247,3.578 0.258,1.75 1.416,3.545 1.159,1.795 2.494,2.681 1.334,0.886 2.817,1.126 1.483,0.24 2.741,-0.081 1.257,-0.32 2.612,-1.509 1.354,-1.188 4.308,-8.074" /><path
     id="STROKE_952a291c-7003-4d42-8bea-49838da36571"
     opacity="1"
     fill="none"
     stroke="#e66465"
     stroke-width="4"
     stroke-opacity="1"
     stroke-linecap="round"
     stroke-linejoin="round"
     d="m 7228.5283,1850.2195 q 0.159,0.735 0.493,2.089 0.333,1.353 0.952,3.032 0.62,1.68 1.178,2.855 0.558,1.175 2.252,4.552 1.695,3.377 3.851,8.348 2.156,4.971 3.203,7.917 1.048,2.946 2.387,8.042 0.064,0.014 -0.674,-1.487" /><path
     id="STROKE_bc1a0f78-4454-475b-b3c3-22b0083377d9"
     opacity="1"
     fill="none"
     stroke="#e66465"
     stroke-width="4"
     stroke-opacity="1"
     stroke-linecap="round"
     stroke-linejoin="round"
     d="m 7228.9653,1852.0915 q 0.317,-0.572 1.09,-2.034 0.773,-1.462 1.798,-2.509 1.024,-1.048 2.451,-1.849 1.426,-0.801 3.407,-1.094 1.982,-0.293 3.473,-0.027 1.491,0.265 2.698,1.037 1.208,0.772 2.351,2.109 1.142,1.337 2.18,4.367 1.039,3.029 1.126,5.6 0.088,2.571 -0.445,4.957 -0.533,2.386 -1.829,4.552 -1.296,2.165 -2.185,3.12 -0.889,0.955 -2.182,1.77 -1.293,0.814 -2.963,1.2 -0.319,-0.062 -1.736,-0.065" /><path
     id="STROKE_73e2bb50-3dee-4947-9325-5005f0051716"
     opacity="1"
     fill="none"
     stroke="#e66465"
     stroke-width="4"
     stroke-opacity="1"
     stroke-linecap="round"
     stroke-linejoin="round"
     d="m 7259.2883,1884.5555 q 0.166,-0.592 0.696,-2.338 0.531,-1.745 0.793,-3.065 0.262,-1.32 0.353,-2.01 0.092,-0.69 0.114,-0.993 0.022,-0.302 -0.013,-0.493 -0.035,-0.19 -0.086,-0.179 -0.051,0.011 0.183,0.989 0.234,0.979 1.408,3.448 1.174,2.47 7.156,11.783" /><path
     id="STROKE_89df947c-2404-461a-a3e4-af423da65455"
     opacity="1"
     fill="none"
     stroke="#e66465"
     stroke-width="4"
     stroke-opacity="1"
     stroke-linecap="round"
     stroke-linejoin="round"
     d="m 7715.5243,2258.3055 q 0.051,0.507 0.379,1.684 0.328,1.176 0.957,2.738 0.629,1.562 2.04,4.968 1.41,3.407 3.982,11.273 2.573,7.865 3.647,12.071 1.074,4.206 1.687,7.334 0.053,0 -1.572,-1.835" /><path
     id="STROKE_e70ee5b5-bcfc-4ac1-9fd0-23bbf0b32a31"
     opacity="1"
     fill="none"
     stroke="#e66465"
     stroke-width="4"
     stroke-opacity="1"
     stroke-linecap="round"
     stroke-linejoin="round"
     d="m 7716.2593,2264.7955 q 0.332,-1.624 0.779,-3.007 0.446,-1.383 1.296,-2.654 0.85,-1.272 2,-2.165 1.151,-0.893 2.612,-1.294 1.462,-0.4 3.476,-0.11 2.014,0.289 3.854,1.566 1.841,1.277 2.594,2.155 0.752,0.878 1.56,2.248 0.808,1.37 1.469,3.891 0.662,2.521 0.548,5.163 -0.114,2.642 -0.809,4.58 -0.695,1.937 -1.538,3.157 -0.843,1.22 -1.781,2.001 -0.938,0.781 -1.676,1.126 -0.737,0.344 -1.189,0.459 -0.453,0.115 -0.959,0 l -0.561,0.056" /><path
     id="STROKE_fc25e46d-1a0c-45e8-b84b-35554cb33a39"
     opacity="1"
     fill="none"
     stroke="#e66465"
     stroke-width="4"
     stroke-opacity="1"
     stroke-linecap="round"
     stroke-linejoin="round"
     d="m 7747.1383,2289.9655 0.44,-0.043 q 1.523,-0.281 2.078,-0.306 0.555,-0.026 1.322,0.102 0.767,0.127 1.259,0.481 0.491,0.355 0.676,0.592 0.184,0.237 0.571,1.035 0.387,0.798 0.781,2.849 0.393,2.05 0.405,4.688 0.013,2.637 0.289,4.19 0.07,0.043 3.718,-0.691 3.648,-0.734 11.337,-3.439" /><path
     id="STROKE_69129e11-e896-46ed-ab48-5d0d2312a16d"
     opacity="1"
     fill="none"
     stroke="#e66465"
     stroke-width="4"
     stroke-opacity="1"
     stroke-linecap="round"
     stroke-linejoin="round"
     d="m 7705.4963,1836.5775 0.317,0.388 q 0.908,1.312 4.432,8.836 3.523,7.525 5.043,12.143 1.521,4.617 2.059,7.164 0.537,2.547 0.795,5.084 0.257,2.537 0.286,7.411 -0.063,-0.12 -0.58,-0.769" /><path
     id="STROKE_6adb5ab0-b578-4c4c-9ac4-2c5f877fd501"
     opacity="1"
     fill="none"
     stroke="#e66465"
     stroke-width="4"
     stroke-opacity="1"
     stroke-linecap="round"
     stroke-linejoin="round"
     d="m 7706.4293,1841.4865 q 0.253,-1.627 0.669,-2.726 0.417,-1.099 0.782,-1.646 0.366,-0.547 1.596,-1.457 1.229,-0.91 3.511,-1.402 2.282,-0.493 5.034,-0.052 2.753,0.441 5.162,1.748 2.409,1.308 4.074,3.062 1.665,1.754 2.531,4.148 0.864,2.394 0.768,4.859 -0.097,2.466 -0.829,4.277 -0.732,1.812 -2.246,3.505 -1.513,1.694 -4.427,3.04 -2.913,1.347 -6.517,2.045" /><path
     id="STROKE_be1a65d8-ebb2-4dc3-b549-ce809152dff8"
     opacity="1"
     fill="none"
     stroke="#e66465"
     stroke-width="4"
     stroke-opacity="1"
     stroke-linecap="round"
     stroke-linejoin="round"
     d="m 7742.5893,1873.2985 q 0.319,-0.876 0.522,-1.336 0.202,-0.46 0.53,-0.97 0.328,-0.509 0.681,-0.869 0.353,-0.359 0.638,-0.677 0.286,-0.318 2.255,-1.654 1.97,-1.336 3.814,-1.663 1.843,-0.327 2.825,-0.096 0.982,0.232 1.427,0.492 0.444,0.261 1.09,1.391 0.645,1.131 0.865,2.168 0.219,1.037 0.21,2.385 -0.011,1.349 -0.064,2.248 -0.054,0.899 -0.129,1.542 0.304,0.117 1.744,0.675 1.441,0.559 2.551,1.053 1.111,0.494 1.703,1.018 0.593,0.524 0.831,0.962 0.239,0.437 0.332,1.017 0.093,0.579 -0.092,1.471 -0.185,0.893 -1.809,2.162 -1.623,1.269 -4.408,1.93 -2.786,0.662 -5.091,0.437 -2.305,-0.224 -4.22,-0.904 -1.914,-0.68 -3.464,-1.816 l -1.151,-1.009" /><path
     id="STROKE_48f3dea3-adcf-4f72-8c88-b40aa8187531"
     opacity="1"
     fill="none"
     stroke="#9198e5"
     stroke-width="4"
     stroke-opacity="1"
     stroke-linecap="round"
     stroke-linejoin="round"
     d="m 6611.6656,2260.8726 q -0.132,-0.13 -0.186,-0.168 -0.054,-0.039 -0.313,-0.316 -0.259,-0.277 -0.847,-0.74 -0.589,-0.463 -1.296,-0.804 -0.708,-0.341 -1.304,-0.441 -0.596,-0.1 -1.055,-0.038 -0.458,0.062 -0.648,0.274 -0.189,0.213 -0.207,0.37 -0.018,0.157 0,0.505 0.014,0.348 0.337,0.738 0.324,0.39 0.778,0.62 0.454,0.23 0.862,0.332 0.409,0.102 1.088,0.103 0.68,0 0.964,-0.064 0.283,-0.065 0.504,-0.202 0.219,-0.138 0.561,-0.529 0.342,-0.39 1.095,-1.789" /><path
     id="STROKE_78c42b16-fa52-495b-8288-1a7dadd342ca"
     opacity="1"
     fill="none"
     stroke="#f6f7ef"
     stroke-width="4"
     stroke-opacity="1"
     stroke-linecap="round"
     stroke-linejoin="round"
     d="m 6708.5006,1972.1196 -0.131,-0.012 q -0.017,-0.019 -0.111,-0.229 -0.095,-0.211 -0.269,-0.505 -0.174,-0.294 -0.309,-0.4 -0.135,-0.105 -0.254,-0.133 -0.119,-0.028 -0.286,-0.069 -0.167,-0.04 -0.459,0.02 -0.291,0.059 -0.387,0.153 -0.097,0.095 -0.191,0.257 -0.093,0.163 -0.088,0.409 0.01,0.246 0.019,0.327 0.013,0.082 0.083,0.152 0.07,0.071 0.235,0.151 0.166,0.081 0.398,0.112 0.232,0.031 0.472,0.04 0.241,0.01 0.415,-0.096 0.175,-0.104 0.564,-0.428 l 0.168,-0.206 0.657,-0.691" /><path
     id="STROKE_14de353e-c32c-4618-9951-52d368c2f6f5"
     opacity="1"
     fill="none"
     stroke="#f6f7ef"
     stroke-width="4"
     stroke-opacity="1"
     stroke-linecap="round"
     stroke-linejoin="round"
     d="m 6898.9866,1971.8816 q -0.192,-0.099 -0.365,-0.218 -0.172,-0.118 -0.374,-0.24 -0.201,-0.122 -0.394,-0.166 -0.193,-0.045 -0.392,-0.047 -0.2,-0 -0.329,0.023 -0.13,0.026 -0.39,0.226 -0.259,0.2 -0.291,0.326 -0.032,0.127 -0.023,0.215 0.01,0.089 0.12,0.231 0.109,0.143 0.184,0.203 0.076,0.059 0.085,0.093 0.01,0.034 0.752,0.205 0.11,-0.01 1.417,-0.704" /><path
     id="STROKE_26278b63-7c99-48ff-bf44-f39fe54be342"
     opacity="1"
     fill="none"
     stroke="#f6f7ef"
     stroke-width="4"
     stroke-opacity="1"
     stroke-linecap="round"
     stroke-linejoin="round"
     d="m 6995.4916,1874.3716 -0.144,-0.354 q -0.091,-0.167 -0.672,-0.502 -0.581,-0.335 -0.997,-0.432 -0.415,-0.096 -0.779,-0.069 -0.364,0.027 -0.529,0.051 -0.165,0.025 -0.346,0.267 -0.181,0.243 -0.141,0.705 0.039,0.463 0.211,0.666 0.171,0.203 0.701,0.395 0.53,0.191 1.429,0.112 0.899,-0.079 3.424,-2.078" /><path
     id="STROKE_f811c1ba-59df-485d-a8c5-64a44a7ba764"
     opacity="1"
     fill="none"
     stroke="#f6f7ef"
     stroke-width="4"
     stroke-opacity="1"
     stroke-linecap="round"
     stroke-linejoin="round"
     d="m 6610.7976,1877.1456 -0.029,-0.439 -0.165,-0.622 q -0.079,-0.31 -0.518,-0.842 -0.439,-0.532 -0.909,-0.847 -0.471,-0.314 -1.052,-0.424 -0.581,-0.11 -0.872,-0.042 -0.291,0.067 -0.481,0.266 -0.189,0.198 -0.253,0.638 -0.064,0.44 -0.047,0.593 0.017,0.153 0.303,0.538 0.287,0.384 0.577,0.531 0.29,0.146 0.655,0.24 0.365,0.093 0.934,0.087 0.569,-0.01 1.208,-0.253 0.639,-0.247 2.517,-1.628" /><path
     id="STROKE_a4c12218-9c3b-481c-bfa3-ec39c7fdca56"
     opacity="1"
     fill="none"
     stroke="#9198e5"
     stroke-width="4"
     stroke-opacity="1"
     stroke-linecap="round"
     stroke-linejoin="round"
     d="m 6999.8846,2263.4536 q -0.105,-0.227 -0.442,-0.681 -0.337,-0.454 -0.505,-0.677 -0.168,-0.223 -0.704,-0.576 -0.536,-0.352 -1.214,-0.495 -0.677,-0.144 -1.116,-0.087 -0.439,0.057 -0.601,0.206 -0.162,0.148 -0.277,0.754 -0.115,0.605 0.08,1.054 0.195,0.448 0.518,0.741 0.324,0.292 0.688,0.428 0.365,0.135 0.736,0.151 0.371,0.016 0.71,-0.05 0.339,-0.066 0.796,-0.299 0.457,-0.234 0.825,-0.54 0.368,-0.306 1.085,-0.976" /><path
     id="STROKE_326c2073-50bd-4a8a-8ece-1666dcaa7ef7"
     opacity="1"
     fill="none"
     stroke="#f6f7ef"
     stroke-width="4"
     stroke-opacity="1"
     stroke-linecap="round"
     stroke-linejoin="round"
     d="m 6827.1926,1901.8876 q -0.066,-0.026 -0.091,-0.224 -0.025,-0.199 -0.052,-0.348 -0.028,-0.148 -0.095,-0.328 -0.068,-0.179 -0.516,-0.46 -0.448,-0.28 -1.432,-0.355 -0.053,0.162 -0.031,0.283 0.022,0.122 0.304,0.264 0.282,0.143 0.505,0.182 0.223,0.039 0.362,0.035 0.14,-0.01 0.207,-0.088 0.067,-0.084 0.082,-0.207 0.016,-0.123 -0.01,-0.232 -0.025,-0.109 -0.099,-0.246 -0.073,-0.138 -0.388,-0.212 -0.315,-0.075 -0.938,0.114 -0.624,0.188 -0.81,0.356 l -0.538,0.704" /><path
     id="STROKE_db3a2796-4928-49b6-985f-ceaad79a011c"
     opacity="1"
     fill="none"
     stroke="#f6f7ef"
     stroke-width="4"
     stroke-opacity="1"
     stroke-linecap="round"
     stroke-linejoin="round"
     d="m 6635.9046,2090.3216 q -0.356,-0.079 -0.424,-0.087 -0.068,-0.01 -0.214,0.01 -0.145,0.017 -0.316,0.048 -0.17,0.032 -0.301,0.183 -0.132,0.151 -0.177,0.262 -0.044,0.112 -0.108,0.246 -0.064,0.135 0,0.232 0.063,0.098 0.154,0.137 0.091,0.039 0.124,0.037 0.033,-0 0.086,0.017 0.053,0.018 0.111,-0.041 0.057,-0.059 0.085,-0.143 0.028,-0.083 0.032,-0.193 0,-0.109 -0.016,-0.149 -0.02,-0.04 -0.138,-0.067 -0.119,-0.028 -0.21,-0.02 -0.092,0.01 -0.153,0.043 -0.062,0.035 -0.224,0.689 l 0.01,0.175" /><path
     id="STROKE_b83a851d-a565-44c1-83e8-8ee81b340a1b"
     opacity="1"
     fill="none"
     stroke="#f6f7ef"
     stroke-width="4"
     stroke-opacity="1"
     stroke-linecap="round"
     stroke-linejoin="round"
     d="m 6618.1106,2166.7066 q -0.285,0.342 -0.437,0.324 -0.153,-0.018 -0.311,-0.01 -0.159,0.01 -0.196,0.013 -0.037,0 -0.275,0.079 -0.238,0.075 -0.43,0.315 -0.192,0.24 -0.346,0.677 -0.154,0.436 -0.135,0.856 -0.051,0.111 1.111,0.196 0.117,-0.286 0.137,-0.677 0.021,-0.391 -0.05,-0.704 -0.07,-0.312 -0.539,-0.817 -0.468,-0.505 -0.581,-0.776" /><path
     id="STROKE_3f9c92ce-4f3b-41dc-a657-248381274a96"
     opacity="1"
     fill="none"
     stroke="#f6f7ef"
     stroke-width="4"
     stroke-opacity="1"
     stroke-linecap="round"
     stroke-linejoin="round"
     d="m 6991.0466,2167.7176 -0.297,0.372 q -0.278,-0.04 -0.422,-0.059 -0.145,-0.019 -0.301,0.01 -0.156,0.025 -0.344,0.136 -0.188,0.111 -0.294,0.248 -0.106,0.138 -0.116,0.137 -0.01,-0 -0.07,0.276 -0.061,0.276 0.07,0.576 0.132,0.3 0.16,0.323 0.03,0.022 0.131,0.021 0.101,-0 0.119,-0.014 0.019,-0.012 0.177,-0.322 0.158,-0.309 0.132,-0.947 l -0.089,-0.469" /><path
     id="STROKE_b882fb62-1233-470e-9bfd-f8e31c43a2de"
     opacity="1"
     fill="none"
     stroke="#f6f7ef"
     stroke-width="4"
     stroke-opacity="1"
     stroke-linecap="round"
     stroke-linejoin="round"
     d="m 6970.3066,2088.5026 0.069,0.31 -0.107,-0.176 q 0.012,-0.01 -0.124,-0.03 -0.136,-0.022 -0.299,0.024 -0.163,0.045 -0.215,0.125 -0.053,0.079 -0.077,0.171 -0.026,0.091 -0.021,0.249 0.01,0.157 0.064,0.294 0.06,0.137 0.26,0.241 0.2,0.104 0.322,0.098 0.121,-0.01 0.206,-0.079 0.084,-0.073 0.101,-0.253 0.016,-0.179 -0.01,-0.296 -0.024,-0.117 -0.263,-0.262 -0.239,-0.145 -0.397,-0.181 -0.159,-0.037 -0.274,-0.045 -0.116,-0.01 -0.179,0.042 -0.064,0.05 -0.308,0.053" /><path
     id="STROKE_b85b4349-3edd-4a5c-8e65-0c8ae108e292"
     opacity="1"
     fill="none"
     stroke="#f6f7ef"
     stroke-width="4"
     stroke-opacity="1"
     stroke-linecap="round"
     stroke-linejoin="round"
     d="m 6781.6886,1900.0236 -0.098,0.061 q -0.06,-0.131 -0.113,-0.203 -0.051,-0.071 -0.119,-0.125 -0.067,-0.054 -0.34,-0.148 -0.272,-0.094 -0.451,-0.112 -0.179,-0.019 -0.327,-0.012 -0.148,0.01 -0.277,0.08 -0.128,0.073 -0.197,0.155 -0.067,0.081 -0.119,0.179 -0.051,0.098 -0.066,0.2 -0.015,0.102 0,0.204 0.01,0.102 0.841,0.384 0.091,-0.294 0.025,-0.563 -0.067,-0.268 -0.255,-0.4 -0.187,-0.132 -0.261,-0.155 -0.075,-0.023 -0.271,-0.044 -0.197,-0.021 -0.598,-0.171" /><path
     id="STROKE_f76c2e29-e59f-48b8-86dd-683436f5b6ed"
     opacity="1"
     fill="none"
     stroke="#f6f7ef"
     stroke-width="4"
     stroke-opacity="1"
     stroke-linecap="round"
     stroke-linejoin="round"
     d="m 6909.4026,1884.0706 -0.226,-0.173 -0.217,-0.13 q -0.387,-0.193 -0.76,-0.286 -0.374,-0.094 -0.498,-0.114 -0.124,-0.021 -0.279,-0 -0.156,0.019 -0.26,0.121 -0.104,0.103 -0.116,0.138 -0.012,0.035 0.012,0.093 0.024,0.057 0.302,0.047 0.277,-0.01 0.523,-0.083 0.244,-0.074 0.386,-0.115 0.141,-0.041 0.312,-0.211 0.171,-0.169 0.299,-0.519 0.128,-0.349 0.146,-0.533 0.017,-0.184 0.01,-0.319 -0.01,-0.134 -0.112,-0.294 -0.102,-0.16 -0.217,-0.229 -0.114,-0.07 -0.277,-0.103 -0.163,-0.034 -0.289,0.013 -0.125,0.046 -0.179,0.085 -0.053,0.039 -0.08,0.109 -0.028,0.07 0.059,0.232 0.087,0.163 0.328,0.238 l 0.014,-0.057 q 0.01,-0.095 -0.057,-0.107 -0.063,-0.012 -0.017,0.142" /><path
     id="STROKE_395311ae-4a1d-4b53-9547-aad10e4a39e0"
     opacity="1"
     fill="none"
     stroke="#f6f7ef"
     stroke-width="4"
     stroke-opacity="1"
     stroke-linecap="round"
     stroke-linejoin="round"
     d="m 6698.9386,1881.3976 v 0.043 l -0.19,-0.043 q -0.215,-0 -0.492,0.063 -0.276,0.067 -0.384,0.215 -0.108,0.149 -0.16,0.35 -0.052,0.202 0.01,0.224 0.057,0.022 0.212,0.033 0.155,0.011 0.327,-0.11 0.171,-0.121 0.2,-0.164 0.029,-0.044 0.047,-0.162 0.017,-0.118 -0.01,-0.161 -0.022,-0.043 -0.197,-0.2 -0.177,-0.157 -0.497,-0.165 -0.093,0.25 0.046,0.5" /><path
     id="STROKE_5a6a00e0-8cde-435d-b184-6474c705069e"
     opacity="1"
     fill="none"
     stroke="#f6f7ef"
     stroke-width="4"
     stroke-opacity="1"
     stroke-linecap="round"
     stroke-linejoin="round"
     d="m 6671.9396,2016.6456 q -0.203,-0.067 -0.435,-0.097 -0.232,-0.03 -0.631,-0.02 -0.4,0.01 -0.673,0.087 -0.274,0.079 -0.477,0.235 -0.202,0.156 -0.254,0.261 -0.052,0.105 -0.06,0.169 -0.01,0.064 0.052,0.117 0.059,0.053 0.279,0.049 0.219,-0 0.279,-0.063 0.06,-0.059 0.065,-0.168 0.01,-0.109 -0.01,-0.195 -0.01,-0.086 -0.09,-0.185 -0.081,-0.1 -0.074,-0.105 0.01,-0.01 -0.123,-0.103 -0.13,-0.098 -0.289,-0.125 -0.16,-0.027 -0.207,-0.01 -0.048,0.018 -0.087,0.08 -0.038,0.062 -0.029,0.092 0.01,0.03 0,0.04 -0.01,0.01 0.186,-0.021 0.192,-0.031 0.223,-0.156 0.03,-0.125 -0.437,-0.468 -0.057,0.039 0.062,-0.032" /><path
     id="STROKE_10b4544c-eda1-4822-91fe-b16f9f2ece1a"
     opacity="1"
     fill="none"
     stroke="#f6f7ef"
     stroke-width="4"
     stroke-opacity="1"
     stroke-linecap="round"
     stroke-linejoin="round"
     d="m 6756.4506,1932.9946 -0.607,-0.41 -0.342,-0.164 q -0.332,-0.068 -0.726,-0.037 -0.394,0.03 -0.71,0.234 -0.316,0.203 -0.486,0.592 -0.169,0.389 -0.104,0.617 0.066,0.229 0.231,0.36 0.165,0.131 0.456,0.235 0.291,0.105 0.562,0.01 0.27,-0.097 0.363,-0.182 0.092,-0.084 0.175,-0.245 0.083,-0.16 0.067,-0.299 -0.015,-0.139 -0.109,-0.218 -0.094,-0.078 -0.309,-0.183 -0.215,-0.104 -0.423,-0.113 l -0.05,0.064 q -0.027,0.094 -0.145,0.073" /><path
     id="STROKE_3d874335-0fd5-4dfc-99b5-5d7e02649c8a"
     opacity="1"
     fill="none"
     stroke="#f6f7ef"
     stroke-width="4"
     stroke-opacity="1"
     stroke-linecap="round"
     stroke-linejoin="round"
     d="m 6850.7096,1931.7326 -0.19,-0.249 -0.102,0.01 q -0.377,-0.463 -1.855,-0.845 -0.034,0.018 -0.076,0.139 -0.042,0.121 -0.016,0.212 0.027,0.091 0.127,0.171 0.101,0.08 0.363,0.093 0.262,0.013 0.449,-0.083 0.188,-0.095 0.265,-0.18 0.077,-0.085 0.147,-0.206 0.069,-0.121 0.017,-0.282 -0.053,-0.161 -0.201,-0.295 -0.147,-0.133 -0.202,-0.136 -0.055,-0 -0.039,0.165 0.015,0.167 0.353,0.58" /><path
     id="STROKE_d254b79a-7fcf-4060-9bff-773162209267"
     opacity="1"
     fill="none"
     stroke="#f6f7ef"
     stroke-width="4"
     stroke-opacity="1"
     stroke-linecap="round"
     stroke-linejoin="round"
     d="m 6936.1676,2017.7256 -0.017,-0.156 -0.03,-0.298 q -0.096,-0.353 -0.276,-0.559 -0.18,-0.206 -0.393,-0.343 -0.213,-0.136 -0.433,-0.22 -0.22,-0.083 -0.376,-0.099 -0.155,-0.016 -0.197,0.028 -0.041,0.044 -0.073,0.18 -0.032,0.136 -0.017,0.237 0.016,0.102 0.102,0.187 0.086,0.085 0.339,0.115 0.254,0.029 0.392,0.016 0.138,-0.013 0.255,-0.127 0.117,-0.113 0.135,-0.13 0.019,-0.016 -0.345,-0.33 -0.365,-0.313 -0.717,-0.363 -0.351,-0.049 -0.434,0.08 -0.084,0.13 -0.255,0.927" /><path
     id="STROKE_d3c73bb2-f0bc-4b9c-865f-85db0d935067"
     opacity="1"
     fill="none"
     stroke="#f6f7ef"
     stroke-width="4"
     stroke-opacity="1"
     stroke-linecap="round"
     stroke-linejoin="round"
     d="m 7395.2283,2064.2535 q -0.491,-0.222 -1.014,-0.3 -0.523,-0.077 -0.827,-0.046 -0.305,0.031 -0.441,0.045 -0.137,0.014 -0.251,0.073 -0.115,0.059 -0.218,0.147 -0.103,0.088 -0.127,0.164 -0.024,0.075 0.025,0.252 0.049,0.176 0.117,0.276 0.067,0.1 0.202,0.227 0.135,0.128 0.302,0.197 0.168,0.069 0.44,0.099 0.272,0.029 0.352,-0.018 0.079,-0.048 0.127,-0.102 0.049,-0.053 0.118,-0.193 0.068,-0.138 0.055,-0.21 -0.012,-0.072 -0.07,-0.13 -0.057,-0.059 -0.284,-0.143 -0.227,-0.084 -0.313,0.061 -0.085,0.145 -0.109,0.291 -0.024,0.146 0.01,0.192 0.03,0.046 0.235,0.168 0.206,0.121 1.061,0.136 -0.01,0.037 0.019,-0.185 0.027,-0.222 -0.234,-0.397 -0.262,-0.175 -0.533,-0.181 -0.271,-0.01 -0.512,0.103 -0.24,0.11 -1.519,2.192" /><path
     id="STROKE_a9419ff5-c488-432f-9ef9-61f289236fe6"
     opacity="1"
     fill="none"
     stroke="#9198e5"
     stroke-width="4"
     stroke-opacity="1"
     stroke-linecap="round"
     stroke-linejoin="round"
     d="m 7296.0393,2256.9295 -0.05,-0.021 -0.051,-0.049 q -0.138,-0.153 -0.204,-0.23 -0.067,-0.076 -0.238,-0.144 -0.169,-0.069 -0.605,-0.106 -0.437,-0.038 -0.891,0.052 -0.454,0.091 -0.683,0.33 -0.23,0.239 -0.334,0.942 -0.104,0.703 0,1.148 0.103,0.444 0.375,0.765 0.271,0.321 0.475,0.366 0.204,0.044 0.629,-0.049 0.426,-0.093 0.93,-0.456 0.504,-0.362 0.664,-0.536 0.159,-0.173 0.27,-0.387 0.109,-0.213 0.112,-0.507 0,-0.294 -0.089,-0.525 -0.093,-0.231 -0.126,-0.264 -0.033,-0.033 -0.262,-0.294 -0.229,-0.26 -0.792,-0.504 -0.562,-0.245 -0.91,-0.224 -0.347,0.021 -0.463,0.316 -0.115,0.294 -0.01,0.595 0.107,0.302 0.248,0.484 0.14,0.182 0.35,0.291 0.211,0.109 0.418,0.138 0.208,0.029 0.277,-0.059 0.068,-0.088 0.062,-0.285 -0.01,-0.197 -0.419,-0.422 -0.414,-0.224 -0.641,-0.23 -0.227,-0.01 -1.343,0.012" /><path
     id="STROKE_158b2f9f-45c7-4bcd-9ef9-4660616b4080"
     opacity="1"
     fill="none"
     stroke="#f6f7ef"
     stroke-width="4"
     stroke-opacity="1"
     stroke-linecap="round"
     stroke-linejoin="round"
     d="m 7683.7453,2257.7475 -0.082,-0.047 q -0.445,-0.197 -1.004,-0.473 -0.56,-0.276 -1.323,-0.446 -0.763,-0.169 -1.011,-0.142 -0.248,0.027 -0.476,0.117 -0.228,0.089 -0.275,0.221 -0.048,0.132 -0.106,0.422 -0.058,0.291 0.056,0.673 0.113,0.382 0.465,0.773 0.351,0.392 0.6,0.522 0.249,0.13 0.727,0.2 0.477,0.071 0.959,-0.027 0.481,-0.098 0.791,-0.318 0.311,-0.221 0.462,-0.423 0.15,-0.203 0.218,-0.73 0.068,-0.526 -0.273,-0.8 -0.34,-0.274 -0.729,-0.344 -0.39,-0.07 -0.709,0.019 -0.319,0.088 -0.388,0.279 -0.068,0.191 -0.086,0.561 -0.018,0.371 0.104,0.647 0.122,0.277 0.291,0.455 0.17,0.177 0.64,0.367 0.47,0.19 2.202,0.11" /><path
     id="STROKE_2654e932-46b1-4d5d-9c5b-1dea53083ffe"
     opacity="1"
     fill="none"
     stroke="#f6f7ef"
     stroke-width="4"
     stroke-opacity="1"
     stroke-linecap="round"
     stroke-linejoin="round"
     d="m 7299.3933,1873.2485 q 0,-0.371 -0.03,-0.784 -0.033,-0.412 -0.157,-0.696 -0.124,-0.284 -0.607,-0.719 -0.484,-0.435 -0.797,-0.551 -0.312,-0.116 -0.722,-0.172 -0.41,-0.055 -0.914,0 -0.503,0.06 -1.015,0.351 -0.511,0.291 -0.758,0.92 -0.247,0.628 -0.219,0.927 0.028,0.299 0.168,0.665 0.14,0.365 1.238,0.75 1.096,0.385 1.791,0.335 0.693,-0.051 1.142,-0.207 0.449,-0.156 0.776,-0.375 0.328,-0.22 0.535,-0.492 0.208,-0.272 0.259,-0.615 0.053,-0.342 -0.256,-0.868 -0.309,-0.527 -2.989,-1.051 -0.478,0.673 2.306,1.999" /><path
     id="STROKE_7f527edf-3957-41a0-8bd4-0f379838b1f7"
     opacity="1"
     fill="none"
     stroke="#9198e5"
     stroke-width="4"
     stroke-opacity="1"
     stroke-linecap="round"
     stroke-linejoin="round"
     d="m 7683.1663,1872.5315 q -0.082,-0.101 -0.618,-1.611 -0.042,-0.034 -0.471,-0.551 -0.43,-0.518 -0.682,-0.641 -0.253,-0.122 -0.447,-0.163 -0.195,-0.041 -0.351,0.047 -0.156,0.088 -0.326,0.595 -0.17,0.508 -0.129,0.853 0.04,0.345 0.128,0.625 0.088,0.28 0.244,0.458 0.156,0.177 0.69,0.296 0.533,0.12 0.905,0.074 0.372,-0.046 0.842,-0.346 0.47,-0.3 0.742,-0.905 0.272,-0.604 0.288,-1.228 0.017,-0.624 -0.195,-1.034 -0.212,-0.409 -0.412,-0.573 -0.199,-0.164 -0.343,-0.193 -0.145,-0.029 -0.237,-0.01 -0.092,0.02 -0.17,0.106 -0.077,0.085 -0.132,0.23 -0.055,0.145 -0.08,0.561 -0.027,0.416 0.055,0.765 0.083,0.349 0.792,1.395" /><circle
     id="STROKE_2f5f6cd7-925d-4461-9346-867a3408b388"
     opacity="1"
     fill="#f6f7ef"
     stroke="#f6f7ef"
     stroke-width="0.1"
     stroke-opacity="1"
     fill-opacity="1"
     cx="7320.9497"
     cy="2110.3584"
     r="2" /><path
     id="STROKE_45b9b8c0-217a-46f4-bfa0-9a339ba15f21"
     opacity="1"
     fill="none"
     stroke="#f6f7ef"
     stroke-width="4"
     stroke-opacity="1"
     stroke-linecap="round"
     stroke-linejoin="round"
     d="m 7321.1853,2112.1215 q -0.377,-0.434 -0.66,-0.617 -0.283,-0.183 -0.435,-0.211 -0.153,-0.028 -0.288,-0.012 -0.136,0.016 -0.172,0.032 -0.036,0.015 -0.147,0.206 -0.112,0.191 -0.111,0.34 0,0.15 0.088,0.221 0.087,0.071 0.153,0.091 0.066,0.019 0.204,0.01 0.137,-0.011 0.181,-0.033 0.045,-0.021 0.115,-0.113 0.071,-0.091 0.076,-0.228 0.01,-0.137 0.025,-0.198 0.019,-0.061 -0.075,-0.203 -0.095,-0.143 -0.202,-0.247 -0.107,-0.104 -0.282,-0.125 -0.175,-0.021 -0.26,0.023 -0.085,0.045 -0.146,0.097 -0.062,0.051 -0.457,0.013" /><path
     id="STROKE_591d688a-a89a-4a07-8b81-ef0bc226fcbe"
     opacity="1"
     fill="none"
     stroke="#f6f7ef"
     stroke-width="4"
     stroke-opacity="1"
     stroke-linecap="round"
     stroke-linejoin="round"
     d="m 7515.3413,2112.2225 -0.16,-0.088 q -0.189,-0.126 -0.459,-0.24 -0.27,-0.115 -0.573,-0.212 -0.303,-0.098 -0.612,-0.143 -0.31,-0.045 -0.756,0 -0.447,0.041 -0.554,0.261 -0.107,0.219 -0.106,0.477 0,0.259 0.172,0.335 0.171,0.076 0.543,0.096 0.372,0.019 0.576,-0.019 0.204,-0.039 0.342,-0.185 0.139,-0.146 0.208,-0.31 0.07,-0.163 0.056,-0.307 -0.014,-0.143 -0.015,-0.143 0,0 -0.275,-0.269 -0.275,-0.268 -0.82,-0.461 -0.106,-0.01 -0.526,-0.082" /><path
     id="STROKE_73d2a2e6-0815-47c7-b06a-bf525ea8ab9c"
     opacity="1"
     fill="none"
     stroke="#f6f7ef"
     stroke-width="4"
     stroke-opacity="1"
     stroke-linecap="round"
     stroke-linejoin="round"
     d="m 7469.1223,2013.5955 -0.232,0.028 -0.148,0.113 q -0.052,0.031 -0.459,0.011 -0.407,-0.019 -0.662,0 -0.256,0.023 -0.534,0.134 -0.278,0.111 -0.424,0.24 -0.146,0.129 -0.209,0.476 -0.063,0.347 0,0.543 0.067,0.195 0.215,0.374 0.148,0.178 0.3,0.272 0.152,0.094 0.166,0.115 0.014,0.022 0.451,0.065 0.436,0.044 0.937,-0.144 0.177,-0.251 0.338,-0.713 0.161,-0.462 0.233,-0.982 0.072,-0.519 0.024,-2.162" /><path
     id="STROKE_a66e2352-36fc-4a7b-b2bb-cc4846063553"
     opacity="1"
     fill="none"
     stroke="#f6f7ef"
     stroke-width="4"
     stroke-opacity="1"
     stroke-linecap="round"
     stroke-linejoin="round"
     d="m 7586.7093,2063.9985 -0.204,-0.173 -0.259,-0.221 q -0.647,-0.455 -0.982,-0.626 -0.335,-0.172 -0.647,-0.279 -0.312,-0.106 -0.828,-0.184 -0.514,-0.078 -1.082,0.053 -0.568,0.131 -0.874,0.487 -0.306,0.356 -0.372,0.552 -0.066,0.196 -0.071,0.35 0,0.153 0,0.317 0,0.164 0.192,0.459 0.191,0.294 0.323,0.41 0.132,0.116 0.458,0.302 0.326,0.187 0.571,0.245 0.245,0.057 0.755,0.065 0.511,0.01 1.083,-0.167 0.571,-0.175 1.128,-0.735 0.558,-0.559 0.939,-1.366 0.382,-0.807 0.783,-2.309" /><path
     id="STROKE_d5529623-2bd4-41e8-9099-6b67560787a4"
     opacity="1"
     fill="none"
     stroke="#f6f7ef"
     stroke-width="4"
     stroke-opacity="1"
     stroke-linecap="round"
     stroke-linejoin="round"
     d="m 7659.0693,2018.1875 q -0.417,-0.51 -0.845,-0.836 -0.429,-0.325 -0.667,-0.453 -0.238,-0.127 -0.466,-0.209 -0.227,-0.081 -0.468,-0.071 -0.24,0.011 -0.449,0.203 -0.209,0.193 -0.331,0.45 -0.122,0.258 -0.122,0.444 0,0.187 0.048,0.29 0.049,0.104 0.114,0.165 0.065,0.062 0.346,0.214 0.282,0.151 0.654,0.165 0.372,0.013 0.514,-0.06 0.142,-0.073 0.39,-0.295 0.248,-0.222 0.775,-1.242 l 0.362,-0.822" /><path
     id="STROKE_37cb5718-412d-42f1-9ca2-3c841260f1a7"
     opacity="1"
     fill="none"
     stroke="#f6f7ef"
     stroke-width="4"
     stroke-opacity="1"
     stroke-linecap="round"
     stroke-linejoin="round"
     d="m 7593.6993,2175.0675 q -0.528,-0.01 -1.075,0.121 -0.547,0.128 -0.66,0.189 -0.113,0.062 -0.22,0.255 -0.108,0.193 0.011,0.384 0.12,0.191 0.25,0.238 0.13,0.046 0.248,0.015 0.119,-0.031 0.257,-0.129 0.139,-0.097 0.203,-0.186 0.065,-0.089 0.115,-0.234 0.05,-0.144 0.065,-0.325 0.015,-0.182 0.015,-0.234 0,-0.051 -0.099,-0.469 -0.097,-0.418 -0.254,-1.104" /><path
     id="STROKE_52658393-de5b-4b5c-a788-4786c20917b7"
     opacity="1"
     fill="none"
     stroke="#f6f7ef"
     stroke-width="4"
     stroke-opacity="1"
     stroke-linecap="round"
     stroke-linejoin="round"
     d="m 7389.5483,1951.8165 q -0.171,0.172 -0.199,0.197 -0.029,0.026 -0.2,0.096 -0.171,0.071 -0.197,0.104 -0.028,0.033 -0.26,0 -0.232,-0.033 -0.544,-0.012 -0.312,0.021 -0.739,0.127 -0.428,0.106 -0.586,0.161 -0.158,0.055 -0.245,0.127 -0.088,0.072 -0.113,0.254 -0.025,0.182 0.045,0.307 0.07,0.125 0.257,0.257 0.186,0.132 0.333,0.172 0.147,0.04 0.355,0.013 0.209,-0.027 0.305,-0.139 0.097,-0.112 0.202,-0.325 0.105,-0.213 0.122,-0.656 -0.084,-0.133 -0.62,-0.692 l -0.059,-0.23" /><path
     id="STROKE_bc6b9070-23a2-4acc-9fb7-a66c01908746"
     opacity="1"
     fill="none"
     stroke="#f6f7ef"
     stroke-width="4"
     stroke-opacity="1"
     stroke-linecap="round"
     stroke-linejoin="round"
     d="m 7303.8923,2173.7355 -0.184,-0.04 q -0.08,0.098 -0.351,0.107 -0.271,0.01 -0.547,0.063 -0.276,0.054 -0.496,0.188 -0.221,0.133 -0.379,0.418 -0.158,0.285 -0.248,0.489 -0.09,0.205 0.028,0.505 0.118,0.3 0.286,0.408 0.167,0.107 0.426,0.091 0.259,-0.015 0.341,-0.121 0.082,-0.105 0.104,-0.291 0.022,-0.185 0,-0.424 -0.019,-0.239 -0.108,-0.466 -0.089,-0.227 -0.543,-0.927" /><path
     id="STROKE_7a82c3b5-926b-45e8-84b4-106406159571"
     opacity="1"
     fill="none"
     stroke="#f6f7ef"
     stroke-width="4"
     stroke-opacity="1"
     stroke-linecap="round"
     stroke-linejoin="round"
     d="m 7675.9223,1954.3975 q -0.181,-0.143 -0.397,-0.45 -0.216,-0.307 -0.422,-0.532 -0.205,-0.226 -0.317,-0.324 -0.113,-0.098 -0.332,-0.193 -0.219,-0.096 -0.342,-0.077 -0.124,0.019 -0.233,0.193 -0.109,0.175 -0.01,0.366 0.101,0.191 0.228,0.247 0.127,0.055 0.276,0.058 0.15,0 0.228,-0.025 0.078,-0.028 0.188,-0.054 0.112,-0.027 0.275,-0.528 0.163,-0.5 0.125,-0.642 -0.039,-0.142 0.06,-0.813" /><path
     id="STROKE_799c6ed0-42ed-453e-8d56-f4421e94ca02"
     opacity="1"
     fill="none"
     stroke="#f6f7ef"
     stroke-width="4"
     stroke-opacity="1"
     stroke-linecap="round"
     stroke-linejoin="round"
     d="m 7543.6583,2056.2045 q 0,-0.028 -0.086,-0.202 l -0.076,0.097 q -0.049,-0.087 -0.318,-0.125 -0.269,-0.037 -0.52,0.032 -0.252,0.068 -0.303,0.224 -0.051,0.157 -0.026,0.256 0.025,0.099 0.151,0.178 0.126,0.08 0.163,0.11 0.036,0.031 0.564,0.171 0.529,0.139 0.938,0.136 0.41,0 0.555,-0.071 0.145,-0.069 0.246,-0.19 0.1,-0.122 0.147,-0.222 0.048,-0.1 -0.25,-0.461 -0.297,-0.36 -0.423,-0.649" /><path
     id="STROKE_f1f554c9-7dec-4f46-9f53-849b0a5dc1f5"
     opacity="1"
     fill="none"
     stroke="#f6f7ef"
     stroke-width="4"
     stroke-opacity="1"
     stroke-linecap="round"
     stroke-linejoin="round"
     d="m 7624.1053,2058.3085 q -0.03,0 -0.283,-0.218 -0.284,-0.117 -0.841,-0.275 -0.557,-0.157 -0.842,-0.178 -0.286,-0.021 -0.415,0 -0.129,0.026 -0.246,0.096 -0.117,0.071 -0.152,0.31 -0.035,0.238 0.25,0.312 0.285,0.073 0.537,0.071 0.252,0 0.465,-0.041 0.212,-0.039 0.362,-0.152 0.15,-0.114 0.187,-0.172 0.037,-0.057 0.107,-0.246 0.071,-0.189 0.047,-0.356 -0.023,-0.167 -0.099,-0.264 -0.077,-0.098 -0.15,-0.15 -0.074,-0.052 -0.32,-0.119 -0.245,-0.067 -0.403,-0.063 -0.159,0.01 -0.292,0.048 -0.134,0.043 -0.397,0.29" /><path
     id="STROKE_972ba8b1-9c03-482b-b95e-1d1c40ae1fda"
     opacity="1"
     fill="none"
     stroke="#f6f7ef"
     stroke-width="4"
     stroke-opacity="1"
     stroke-linecap="round"
     stroke-linejoin="round"
     d="m 7441.8393,2074.2615 q -0.299,-0.166 -0.721,-0.33 -0.423,-0.164 -0.641,-0.234 -0.219,-0.071 -0.4,-0.104 -0.182,-0.033 -0.376,-0.045 -0.195,-0.013 -0.354,0.099 -0.16,0.113 -0.218,0.348 -0.058,0.235 0.042,0.306 0.1,0.072 0.24,0.116 0.139,0.044 0.311,0.035 0.171,-0.01 0.246,-0.01 0.074,0 0.186,-0.061 0.113,-0.061 0.202,-0.147 0.089,-0.086 0.154,-0.188 0.065,-0.102 0,-0.366 -0.063,-0.264 -0.235,-0.515 -0.171,-0.251 -0.484,-0.4 -0.051,0 -0.479,-0.132" /><path
     id="STROKE_128c5724-c6cc-418d-8e3d-226a45e3e455"
     opacity="1"
     fill="none"
     stroke="#f6f7ef"
     stroke-width="4"
     stroke-opacity="1"
     stroke-linecap="round"
     stroke-linejoin="round"
     d="m 7354.1843,2075.9325 q 0.059,0.05 0.215,-0.01 l -0.133,-0.212 q -0.326,-0.103 -0.615,-0.062 -0.29,0.041 -0.526,0.154 -0.235,0.113 -0.483,0.428 -0.247,0.316 -0.287,0.705 -0.041,0.39 0.095,0.638 0.134,0.248 0.225,0.32 0.09,0.073 0.182,0.116 0.091,0.044 0.478,0.057 0.388,0.013 0.57,-0.093 0.181,-0.106 0.305,-0.279 0.123,-0.172 0.138,-0.379 0.015,-0.206 -0.028,-0.351 -0.042,-0.145 -0.523,-0.48 -0.48,-0.335 -1.622,-0.532 -0.069,0.017 -0.2,-0.022" /><path
     id="STROKE_41c83a1d-74a5-4d03-95bc-be2860544698"
     opacity="1"
     fill="none"
     stroke="#9198e5"
     stroke-width="4"
     stroke-opacity="1"
     stroke-linecap="round"
     stroke-linejoin="round"
     d="m 6677.0816,2039.6966 -0.109,-0.055 q -0.176,-0.123 -0.327,-0.191 -0.15,-0.068 -0.491,-0.145 -0.341,-0.077 -0.715,-0.047 -0.373,0.03 -0.512,0.081 -0.14,0.051 -0.364,0.267 -0.223,0.217 -0.305,0.519 -0.081,0.302 -0.045,0.532 0.037,0.23 0.097,0.324 0.06,0.095 0.133,0.163 0.073,0.067 0.177,0.124 0.105,0.057 0.438,0.103 0.334,0.047 0.605,-0.133 0.271,-0.18 0.4,-0.401 0.13,-0.222 0.154,-0.376 0.023,-0.154 -0.021,-0.238 -0.045,-0.084 -0.184,-0.221 -0.139,-0.137 -0.336,-0.245 -0.198,-0.108 -0.502,-0.204 -0.086,0.078 -0.501,0.011" /><path
     id="STROKE_361d5606-4d58-4730-9135-74933770b35b"
     opacity="1"
     fill="none"
     stroke="#9198e5"
     stroke-width="4"
     stroke-opacity="1"
     stroke-linecap="round"
     stroke-linejoin="round"
     d="m 6741.6516,1985.4946 q -0.225,-0.282 -0.323,-0.384 l -0.118,-0.126 q -0.536,-0.376 -0.85,-0.496 -0.315,-0.119 -0.979,-0.151 -0.664,-0.032 -0.92,0.1 -0.255,0.131 -0.436,0.328 -0.181,0.197 -0.273,0.516 -0.091,0.319 -0.064,0.562 0.028,0.244 0.151,0.413 0.123,0.169 0.551,0.254 0.428,0.084 0.806,0.022 0.378,-0.062 0.766,-0.354 0.387,-0.292 0.529,-0.557 0.142,-0.264 0.184,-0.445 0.042,-0.182 -0.116,-0.567 -0.158,-0.385 -0.435,-0.552 -0.278,-0.167 -0.445,-0.191 -0.166,-0.025 -0.303,0.01 -0.137,0.034 -0.948,0.59" /><path
     id="STROKE_2341d4b5-7dc9-45da-ab08-cdd1a3321943"
     opacity="1"
     fill="none"
     stroke="#9198e5"
     stroke-width="4"
     stroke-opacity="1"
     stroke-linecap="round"
     stroke-linejoin="round"
     d="m 6801.5466,1971.3726 -0.036,-0.218 -0.025,-0.132 -0.105,-0.192 q -0.066,-0.161 -0.387,-0.462 -0.322,-0.302 -0.735,-0.373 -0.414,-0.07 -0.818,-0.04 -0.404,0.031 -0.924,0.52 -0.521,0.49 -0.689,0.822 -0.169,0.333 -0.224,0.648 -0.055,0.315 -0.01,0.793 0.046,0.477 0.151,0.694 0.105,0.216 0.252,0.352 0.146,0.136 0.767,0.364 0.622,0.228 1.166,0.214 0.545,-0.015 0.816,-0.082 0.271,-0.068 0.736,-0.38 0.465,-0.312 0.674,-1.098 0.208,-0.786 0.044,-1.142 -0.165,-0.355 -1.175,-0.677 -1.01,-0.322 -1.369,0.134" /><path
     id="STROKE_82e6dd76-7394-4287-8fcd-15fefdd4eaea"
     opacity="1"
     fill="none"
     stroke="#9198e5"
     stroke-width="4"
     stroke-opacity="1"
     stroke-linecap="round"
     stroke-linejoin="round"
     d="m 6867.2266,1985.0076 -0.11,-0.147 -0.134,-0.117 q -0.775,-0.429 -0.998,-0.469 -0.223,-0.04 -0.399,-0.012 -0.177,0.029 -0.287,0.212 -0.11,0.183 -0.095,0.369 0.015,0.185 0.082,0.334 0.068,0.149 0.205,0.27 0.136,0.121 0.641,0.241 0.504,0.12 0.713,0.128 0.209,0.01 0.272,-0.016 0.063,-0.022 0.145,-0.081 0.082,-0.058 0.165,-0.216 0.188,-0.066 -1.02,-1.227 -0.01,-0.096 -0.337,-0.555" /><path
     id="STROKE_84426559-f3b3-4023-892a-4f3462e30df3"
     opacity="1"
     fill="none"
     stroke="#9198e5"
     stroke-width="4"
     stroke-opacity="1"
     stroke-linecap="round"
     stroke-linejoin="round"
     d="m 6932.8246,2041.1876 q -0.153,-0.16 -0.412,-0.581 -0.26,-0.42 -0.343,-0.525 -0.083,-0.106 -0.309,-0.278 -0.227,-0.172 -0.434,-0.212 -0.207,-0.041 -0.271,-0.033 -0.064,0.01 -0.171,0.095 -0.109,0.086 -0.167,0.403 -0.059,0.317 -0.014,0.556 0.045,0.24 0.107,0.346 0.062,0.106 0.177,0.223 0.116,0.117 0.119,0.136 0,0.02 0.285,0.155 0.282,0.135 0.67,0.158 0.388,0.024 0.546,-0.052 0.158,-0.076 0.248,-0.144 0.089,-0.069 0.172,-0.158 0.084,-0.088 0.705,-0.864" /><path
     id="STROKE_18a6b624-4a5c-465e-bd26-9a753a3ccc92"
     opacity="1"
     fill="none"
     stroke="#9198e5"
     stroke-width="4"
     stroke-opacity="1"
     stroke-linecap="round"
     stroke-linejoin="round"
     d="m 6979.8526,2130.1266 q -0.018,-0.01 -0.182,-0.4 l -0.144,-0.235 -0.249,-0.296 q -1.542,-1.019 -1.95,-1.082 -0.408,-0.064 -0.595,-0.034 -0.187,0.03 -0.31,0.087 -0.124,0.056 -0.291,0.232 -0.168,0.176 -0.264,0.352 -0.095,0.176 -0.15,0.395 -0.056,0.219 0,0.772 0.052,0.553 0.15,0.704 0.097,0.151 0.364,0.476 0.267,0.325 0.873,0.553 0.607,0.227 1.105,0.179 0.497,-0.047 0.777,-0.149 0.28,-0.102 0.529,-0.264 0.249,-0.161 0.465,-0.496 0.217,-0.335 0.4,-1.294 l 0.16,-1" /><path
     id="STROKE_fc33cf6d-9926-4a40-adce-8faccca25a58"
     opacity="1"
     fill="none"
     stroke="#9198e5"
     stroke-width="4"
     stroke-opacity="1"
     stroke-linecap="round"
     stroke-linejoin="round"
     d="m 6630.9136,2129.5666 -0.169,-0.034 q -0.16,-0.113 -0.358,-0.302 -0.2,-0.188 -0.572,-0.422 -0.371,-0.234 -0.643,-0.324 -0.271,-0.091 -0.715,-0.121 -0.443,-0.031 -0.804,0.141 -0.362,0.171 -0.626,0.811 -0.265,0.641 -0.243,1.132 0.022,0.492 0.13,0.703 0.108,0.21 0.355,0.333 0.248,0.123 0.466,0.133 0.218,0.01 0.318,0.017 0.1,0.01 0.369,-0.188 0.269,-0.196 0.473,-0.441 0.205,-0.245 1.382,-2.205" /><path
     id="STROKE_3a7e9ddc-52f5-4a99-863c-44b9962549e1"
     opacity="1"
     fill="none"
     stroke="#9198e5"
     stroke-width="4"
     stroke-opacity="1"
     stroke-linecap="round"
     stroke-linejoin="round"
     d="m 7321.0123,2139.4545 q -1.308,-0.619 -1.458,-0.683 -0.149,-0.064 -0.827,-0.18 -0.678,-0.116 -1.289,0.014 -0.61,0.13 -0.813,0.23 -0.202,0.1 -0.68,0.544 -0.477,0.443 -0.73,0.905 -0.253,0.461 -0.329,1.114 -0.076,0.653 0.039,1.133 0.114,0.48 0.429,0.863 0.315,0.384 1.029,0.567 0.713,0.183 1.241,0.1 0.528,-0.082 1.007,-0.458 0.479,-0.375 0.734,-0.808 0.255,-0.434 0.336,-0.749 0.08,-0.316 0.115,-0.402 0.034,-0.086 0.029,-0.62 -0.01,-0.534 -0.089,-0.851 -0.084,-0.316 -0.225,-0.631 -0.141,-0.316 -0.373,-0.663 -0.232,-0.347 -0.763,-0.796 l -0.847,-0.84" /><path
     id="STROKE_93ab01c0-f63c-479c-b8e5-53560edb4c2e"
     opacity="1"
     fill="none"
     stroke="#9198e5"
     stroke-width="4"
     stroke-opacity="1"
     stroke-linecap="round"
     stroke-linejoin="round"
     d="m 7360.9943,2089.1755 -0.302,-0.408 q -1.01,-0.757 -1.42,-0.947 -0.409,-0.189 -0.816,-0.254 -0.407,-0.064 -0.817,-0.029 -0.41,0.035 -0.814,0.23 -0.405,0.194 -0.698,0.457 -0.293,0.264 -0.472,1.139 -0.18,0.875 -0.117,1.369 0.062,0.494 0.296,0.788 0.236,0.294 0.497,0.429 0.261,0.134 0.605,0.178 0.344,0.045 0.793,-0.078 0.449,-0.122 0.853,-0.469 0.406,-0.347 0.566,-0.79 0.16,-0.442 0.188,-0.78 0.028,-0.338 -0.101,-0.672 -0.129,-0.334 -0.29,-0.517 -0.161,-0.184 -0.32,-0.336 -0.157,-0.151 -0.434,-0.261 -0.277,-0.11 -0.462,-0.17 -0.185,-0.059 -0.443,-0.018 -0.259,0.041 -0.345,0.117 -0.085,0.077 -0.846,0.397" /><path
     id="STROKE_3c28b56c-cae7-46b4-b25b-1efc31540e76"
     opacity="1"
     fill="none"
     stroke="#9198e5"
     stroke-width="4"
     stroke-opacity="1"
     stroke-linecap="round"
     stroke-linejoin="round"
     d="m 7423.4363,2072.6665 q -0.563,-0.415 -0.802,-0.522 -0.239,-0.108 -0.648,-0.183 -0.41,-0.075 -0.539,-0.081 -0.129,-0.01 -0.271,0.067 -0.141,0.073 -0.213,0.186 -0.071,0.112 -0.12,0.333 -0.049,0.222 0.012,0.387 0.061,0.164 0.201,0.266 0.139,0.102 0.31,0.158 0.17,0.056 0.548,0.02 0.378,-0.036 0.51,-0.193 0.132,-0.157 0.222,-0.331 0.09,-0.173 0.119,-0.417 0.028,-0.242 -0.021,-0.369 -0.05,-0.127 -0.361,-0.472 -0.31,-0.346 -1.084,-0.617 -0.165,0.087 -0.645,0.122" /><path
     id="STROKE_fc43ca5c-47d1-4977-9e50-4b86c240d5d0"
     opacity="1"
     fill="none"
     stroke="#9198e5"
     stroke-width="4"
     stroke-opacity="1"
     stroke-linecap="round"
     stroke-linejoin="round"
     d="m 7487.4833,2063.3865 -0.208,0.042 q -0.01,-0.052 -0.146,-0.316 -0.138,-0.264 -0.238,-0.409 -0.099,-0.145 -0.179,-0.201 -0.08,-0.056 -0.243,-0.119 -0.164,-0.063 -0.396,-0.062 -0.232,0 -0.374,0.244 -0.142,0.244 -0.168,0.479 -0.025,0.235 0.01,0.497 0.032,0.262 0.128,0.391 0.098,0.13 0.292,0.251 0.196,0.12 0.41,0.189 0.214,0.069 0.526,0.108 0.313,0.04 0.459,-0.075 0.145,-0.115 0.207,-0.214 0.061,-0.098 0.13,-0.298 0.069,-0.2 0.064,-0.318 -0.01,-0.118 -0.092,-0.239 -0.086,-0.121 -0.086,-0.142 0,-0.022 -0.157,-0.093 -0.155,-0.07 -0.353,-0.068 -0.198,0 -0.301,0.141 -0.102,0.139 -0.474,0.469" /><path
     id="STROKE_2fd3e3f5-35ae-41bf-9124-bdebce530874"
     opacity="1"
     fill="none"
     stroke="#9198e5"
     stroke-width="4"
     stroke-opacity="1"
     stroke-linecap="round"
     stroke-linejoin="round"
     d="m 7554.3983,2066.5785 q -0.707,-1.005 -0.898,-1.25 -0.19,-0.245 -0.34,-0.377 -0.151,-0.133 -0.4,-0.304 -0.249,-0.172 -0.468,-0.283 -0.218,-0.11 -0.671,-0.233 -0.452,-0.122 -0.733,-0.122 -0.282,0 -0.411,0.062 -0.128,0.063 -0.242,0.421 -0.113,0.359 -0.089,0.502 0.024,0.143 0.225,0.409 0.201,0.267 0.791,0.463 0.59,0.196 0.937,0.144 0.347,-0.052 0.489,-0.185 0.142,-0.132 0.219,-0.264 0.077,-0.131 0.12,-0.258 0.043,-0.128 0.049,-0.322 0.01,-0.194 -0.11,-0.375 -0.117,-0.181 -0.37,-0.313 -0.252,-0.132 -0.513,-0.143 -0.261,-0.01 -0.46,0.071 -0.199,0.081 -0.439,0.232 -0.239,0.151 -1.214,0.688" /><path
     id="STROKE_7cd7f349-97f0-40a9-9e43-3b88c5c9d429"
     opacity="1"
     fill="none"
     stroke="#9198e5"
     stroke-width="4"
     stroke-opacity="1"
     stroke-linecap="round"
     stroke-linejoin="round"
     d="m 7622.8333,2042.9015 -0.136,-0.121 q -0.314,-0.519 -0.506,-0.818 -0.193,-0.298 -0.355,-0.418 -0.163,-0.12 -0.333,-0.21 -0.171,-0.091 -0.317,-0.132 -0.146,-0.041 -0.366,-0.039 -0.221,0 -0.34,0.134 -0.118,0.131 -0.122,0.173 0,0.041 -0.035,0.166 -0.032,0.124 0.11,0.259 0.143,0.136 0.273,0.205 0.13,0.07 0.29,0.113 0.161,0.042 0.384,0.03 0.224,-0.013 0.337,-0.091 0.113,-0.078 0.176,-0.162 0.064,-0.084 0.093,-0.156 0.028,-0.073 0.041,-0.173 0.013,-0.101 0,-0.208 -0.017,-0.107 -0.136,-0.227 -0.12,-0.121 -0.278,-0.162 -0.159,-0.04 -0.236,-0.027 -0.076,0.012 -0.188,0.082 -0.112,0.071 -0.195,0.21 -0.084,0.139 -0.192,0.315 -0.109,0.176 -0.147,1.103 l 0.378,0.779" /><path
     id="STROKE_dfbd4e56-4fc1-40dd-9626-1fb126e1333a"
     opacity="1"
     fill="none"
     stroke="#9198e5"
     stroke-width="4"
     stroke-opacity="1"
     stroke-linecap="round"
     stroke-linejoin="round"
     d="m 7667.7913,1980.9175 q -0.123,-0.18 -0.21,-0.728 -0.065,-0.079 -0.355,-0.678 -0.289,-0.598 -0.736,-1.026 -0.448,-0.427 -0.538,-0.482 -0.091,-0.054 -0.269,-0.117 -0.179,-0.062 -0.609,-0.069 -0.43,-0.01 -0.884,0.523 -0.455,0.529 -0.576,0.947 -0.122,0.418 -0.084,0.887 0.038,0.47 0.116,0.739 0.079,0.27 0.287,0.474 0.209,0.204 0.828,0.317 0.619,0.112 1.05,0.016 0.431,-0.096 0.835,-0.373 0.405,-0.276 0.645,-0.525 0.241,-0.249 0.533,-0.91 0.291,-0.662 0.312,-1.268 0.022,-0.606 -0.165,-0.901 -0.186,-0.295 -0.632,-0.52 -0.446,-0.224 -0.788,-0.201 -0.343,0.024 -0.688,0.291 -0.346,0.268 -0.598,0.977" /></g></svg>
