<?xml version="1.0" encoding="UTF-8" standalone="no"?>
<svg
   version="1.1"
   xml:space="preserve"
   x="0px"
   y="0px"
   viewBox="0 0 960 480"
   id="svg1"
   sodipodi:docname="bezier-cubic-2.svg"
   inkscape:version="1.3.2 (091e20ef0f, 2023-11-25, custom)"
   xmlns:inkscape="http://www.inkscape.org/namespaces/inkscape"
   xmlns:sodipodi="http://sodipodi.sourceforge.net/DTD/sodipodi-0.dtd"
   xmlns="http://www.w3.org/2000/svg"
   xmlns:svg="http://www.w3.org/2000/svg"><defs
   id="defs1" /><sodipodi:namedview
   id="namedview1"
   pagecolor="#505050"
   bordercolor="#eeeeee"
   borderopacity="1"
   inkscape:showpageshadow="0"
   inkscape:pageopacity="0"
   inkscape:pagecheckerboard="0"
   inkscape:deskcolor="#d1d1d1"
   inkscape:zoom="1.3091813"
   inkscape:cx="504.13184"
   inkscape:cy="247.86482"
   inkscape:window-width="2560"
   inkscape:window-height="1600"
   inkscape:window-x="0"
   inkscape:window-y="0"
   inkscape:window-maximized="0"
   inkscape:current-layer="Cubic_2" />
<g
   id="Cubic_2"
   opacity="1"
   transform="matrix(0.72802981,0,0,0.72802981,-3759.6459,-144.47022)"><path
     id="STROKE_608be55e-0161-4837-95a7-5d9496a57c4c"
     opacity="0.5"
     fill="none"
     stroke="#f6f7ef"
     stroke-width="2"
     stroke-opacity="1"
     stroke-linecap="round"
     stroke-linejoin="round"
     d="m 5314.7884,726.66246 -0.506,-386.67" /><path
     id="STROKE_f2db39fd-32d3-4a37-9ee0-5fcb348214eb"
     opacity="0.5"
     fill="none"
     stroke="#f6f7ef"
     stroke-width="2"
     stroke-opacity="1"
     stroke-linecap="round"
     stroke-linejoin="round"
     d="m 5314.5754,340.38346 384.914,0.671" /><path
     id="STROKE_914e2781-c797-4b14-af2c-845f34f9a8d7"
     opacity="0.5"
     fill="none"
     stroke="#f6f7ef"
     stroke-width="2"
     stroke-opacity="1"
     stroke-linecap="round"
     stroke-linejoin="round"
     d="m 5700.0754,338.53946 3.122,388.309" /><path
     id="STROKE_8287b9fc-727d-48e7-9ba5-55a7d6456108"
     opacity="0.5"
     fill="none"
     stroke="#f6f7ef"
     stroke-width="2"
     stroke-opacity="1"
     stroke-linecap="round"
     stroke-linejoin="round"
     d="m 5954.1885,721.56152 1.36,-388.197" /><path
     id="STROKE_b39efec0-e9d7-40c5-8482-5a2ef62923e4"
     opacity="0.5"
     fill="none"
     stroke="#f6f7ef"
     stroke-width="2"
     stroke-opacity="1"
     stroke-linecap="round"
     stroke-linejoin="round"
     d="m 5956.7225,329.58252 384.62,388.98" /><path
     id="STROKE_51143536-05b8-4dee-97d4-0abd8e94822f"
     opacity="0.5"
     fill="none"
     stroke="#f6f7ef"
     stroke-width="2"
     stroke-opacity="1"
     stroke-linecap="round"
     stroke-linejoin="round"
     d="m 6339.3955,716.83052 1.174,-386.577" /><path
     id="STROKE_999ed83b-9509-4a37-8afc-da884dfb8f12"
     opacity="0.5"
     fill="none"
     stroke="#f6f7ef"
     stroke-width="2"
     stroke-opacity="1"
     stroke-linecap="round"
     stroke-linejoin="round"
     d="m 5314.7884,726.66246 -0.506,-386.67" /><path
     id="STROKE_950a4dd1-7b89-428c-8602-67c2ca93c031"
     opacity="0.5"
     fill="none"
     stroke="#f6f7ef"
     stroke-width="2"
     stroke-opacity="1"
     stroke-linecap="round"
     stroke-linejoin="round"
     d="m 5314.5754,340.38346 384.914,0.671" /><path
     id="STROKE_d8cf7833-7081-41a4-926f-a7efce420e26"
     opacity="0.5"
     fill="none"
     stroke="#f6f7ef"
     stroke-width="2"
     stroke-opacity="1"
     stroke-linecap="round"
     stroke-linejoin="round"
     d="m 5700.0754,338.53946 3.122,388.309" /><path
     id="STROKE_ed5c76ef-f830-4494-bd42-95e63dacbac6"
     opacity="0.5"
     fill="none"
     stroke="#f6f7ef"
     stroke-width="2"
     stroke-opacity="1"
     stroke-linecap="round"
     stroke-linejoin="round"
     d="m 5954.1885,721.56152 1.36,-388.197" /><path
     id="STROKE_b128f832-28d1-4eae-b608-a59f151e5cd8"
     opacity="0.5"
     fill="none"
     stroke="#f6f7ef"
     stroke-width="2"
     stroke-opacity="1"
     stroke-linecap="round"
     stroke-linejoin="round"
     d="m 5956.7225,329.58252 384.62,388.98" /><path
     id="STROKE_407cf150-2481-4771-8595-bfddede30ddd"
     opacity="0.5"
     fill="none"
     stroke="#f6f7ef"
     stroke-width="2"
     stroke-opacity="1"
     stroke-linecap="round"
     stroke-linejoin="round"
     d="m 6339.3955,716.83052 1.174,-386.577" /><path
     id="STROKE_2c3ae8c2-f2fe-4a26-9597-1aeb8cc82da0"
     opacity="1"
     fill="none"
     stroke="#e66465"
     stroke-width="4"
     stroke-opacity="1"
     stroke-linecap="round"
     stroke-linejoin="round"
     d="m 5318.4284,337.88046 -0.168,-0.072 q -1.367,-0.832 -1.76,-0.965 -0.392,-0.132 -1.009,-0.351 -0.617,-0.219 -1.691,-0.369 -1.073,-0.151 -2.212,0.144 -1.138,0.296 -1.567,0.566 -0.428,0.271 -0.819,0.761 -0.392,0.489 -0.572,0.762 -0.179,0.273 -0.328,1.154 -0.148,0.882 -0.022,1.505 0.126,0.624 0.55,1.313 0.423,0.689 0.926,1.185 0.502,0.495 1.206,0.881 0.704,0.385 1.567,0.58 0.863,0.195 1.879,0.259 1.016,0.064 1.938,-0.096 0.922,-0.16 1.424,-0.393 0.502,-0.232 1.22,-0.772 0.718,-0.54 1.089,-1.092 0.371,-0.551 0.456,-0.761 0.086,-0.209 0.304,-0.354 0.218,-0.145 0.815,-4.403" /><path
     id="STROKE_2a0eee86-3145-4a5c-a997-075aae38a70a"
     opacity="1"
     fill="none"
     stroke="#e66465"
     stroke-width="4"
     stroke-opacity="1"
     stroke-linecap="round"
     stroke-linejoin="round"
     d="m 5319.8834,726.54146 q -0.682,-1.004 -1.654,-1.946 -0.972,-0.943 -2.406,-1.941 -1.435,-0.999 -1.557,-1.116 -0.122,-0.118 -1.935,-0.52 -1.814,-0.402 -3.07,-0.21 -1.256,0.191 -1.497,0.299 -0.242,0.107 -0.825,0.76 -0.583,0.652 -0.834,1.308 -0.251,0.655 -0.269,1.249 -0.017,0.594 -0.016,0.828 0,0.233 0.405,1.206 0.403,0.973 1.2,1.84 0.796,0.866 1.672,1.352 0.876,0.486 1.768,0.704 0.891,0.219 1.742,0.35 0.851,0.132 2.888,-0.212 2.036,-0.343 3.136,-0.845 1.1,-0.501 1.907,-1.237 0.807,-0.736 3.599,-5.099" /><path
     id="STROKE_582a7bb9-5303-4357-bed8-2b69febe50c6"
     opacity="1"
     fill="none"
     stroke="#e66465"
     stroke-width="4"
     stroke-opacity="1"
     stroke-linecap="round"
     stroke-linejoin="round"
     d="m 5704.5874,340.67146 q -0.3,-0.408 -0.947,-1.884 -0.647,-1.476 -1.105,-2.296 -0.457,-0.82 -0.682,-1.096 -0.226,-0.276 -1.188,-1.263 -0.963,-0.986 -1.582,-1.238 -0.619,-0.252 -1.071,-0.286 -0.452,-0.034 -0.863,0.035 -0.411,0.069 -1.314,1.085 -0.902,1.017 -1.185,1.768 -0.282,0.752 -0.33,1.26 -0.047,0.508 0.125,1.649 0.173,1.141 0.348,1.498 0.175,0.358 0.536,0.794 0.36,0.437 1.556,1.339 1.197,0.903 2.827,1.372 1.631,0.47 2.024,0.533 0.392,0.063 1.048,0.068 0.655,0.005 3.345,-0.228" /><path
     id="STROKE_e7f88b71-e001-472c-b275-41e2b54d637e"
     opacity="1"
     fill="none"
     stroke="#e66465"
     stroke-width="4"
     stroke-opacity="1"
     stroke-linecap="round"
     stroke-linejoin="round"
     d="m 5707.3854,727.45846 -0.901,-0.881 -0.172,-0.636 q -0.085,-0.234 -1.021,-1.921 -0.936,-1.687 -1.95,-2.701 -1.013,-1.015 -1.422,-1.266 -0.409,-0.251 -0.718,-0.363 -0.309,-0.113 -1.648,-0.221 -1.339,-0.109 -2.191,0.299 -0.852,0.408 -0.898,0.485 l -1.214,1.632 q -0.094,0.077 -0.486,2.415 -0.392,2.338 0,3.651 0.395,1.312 0.734,1.794 0.339,0.482 0.884,0.978 0.544,0.496 1.514,1.026 0.97,0.53 2.42,0.657 1.451,0.128 2.283,-0.009 0.831,-0.138 2.03,-0.916 1.2,-0.779 4.294,-4.123" /><path
     id="STROKE_4c570df2-4807-4258-b1f6-2ad072f3e0bf"
     opacity="1"
     fill="none"
     stroke="#e66465"
     stroke-width="4"
     stroke-opacity="1"
     stroke-linecap="round"
     stroke-linejoin="round"
     d="m 5959.3425,331.26252 -0.168,-0.072 q -1.367,-0.832 -1.76,-0.965 -0.392,-0.132 -1.009,-0.351 -0.617,-0.219 -1.691,-0.369 -1.073,-0.151 -2.212,0.144 -1.138,0.296 -1.567,0.566 -0.428,0.271 -0.819,0.761 -0.392,0.489 -0.572,0.762 -0.179,0.273 -0.328,1.154 -0.148,0.881 -0.022,1.505 0.126,0.623 0.55,1.313 0.423,0.689 0.926,1.185 0.502,0.495 1.206,0.881 0.704,0.385 1.567,0.58 0.863,0.195 1.879,0.259 1.016,0.064 1.938,-0.096 0.922,-0.16 1.424,-0.393 0.502,-0.232 1.22,-0.772 0.718,-0.54 1.089,-1.092 0.371,-0.551 0.456,-0.761 0.086,-0.209 0.304,-0.354 0.218,-0.145 0.815,-4.403" /><path
     id="STROKE_c67427b8-53b0-4e6a-9eca-5ac2d10b4632"
     opacity="1"
     fill="none"
     stroke="#e66465"
     stroke-width="4"
     stroke-opacity="1"
     stroke-linecap="round"
     stroke-linejoin="round"
     d="m 5960.7975,719.92352 q -0.682,-1.004 -1.654,-1.947 -0.972,-0.942 -2.406,-1.94 -1.435,-0.999 -1.557,-1.116 -0.122,-0.118 -1.935,-0.52 -1.814,-0.402 -3.07,-0.21 -1.256,0.191 -1.497,0.298 -0.242,0.108 -0.825,0.76 -0.583,0.653 -0.834,1.309 -0.251,0.655 -0.269,1.249 -0.017,0.594 -0.016,0.828 0,0.233 0.405,1.206 0.403,0.973 1.2,1.84 0.796,0.866 1.672,1.352 0.876,0.486 1.768,0.704 0.891,0.219 1.742,0.35 0.851,0.132 2.888,-0.212 2.036,-0.343 3.136,-0.845 1.1,-0.501 1.907,-1.237 0.807,-0.736 3.599,-5.098" /><path
     id="STROKE_6b9a8078-98ca-45a0-b145-7cf1182075df"
     opacity="1"
     fill="none"
     stroke="#e66465"
     stroke-width="4"
     stroke-opacity="1"
     stroke-linecap="round"
     stroke-linejoin="round"
     d="m 6345.5015,334.05352 q -0.3,-0.408 -0.947,-1.884 -0.647,-1.476 -1.105,-2.296 -0.457,-0.82 -0.682,-1.096 -0.226,-0.277 -1.188,-1.263 -0.963,-0.986 -1.582,-1.238 -0.619,-0.252 -1.071,-0.286 -0.452,-0.035 -0.863,0.035 -0.411,0.069 -1.314,1.085 -0.902,1.017 -1.185,1.768 -0.282,0.752 -0.33,1.26 -0.047,0.508 0.125,1.649 0.173,1.141 0.348,1.498 0.175,0.358 0.536,0.794 0.36,0.437 1.556,1.339 1.197,0.902 2.827,1.372 1.631,0.47 2.024,0.533 0.392,0.063 1.048,0.068 0.655,0.005 3.345,-0.228" /><path
     id="STROKE_758de799-fc9c-427c-bc01-20514c31aa30"
     opacity="1"
     fill="none"
     stroke="#e66465"
     stroke-width="4"
     stroke-opacity="1"
     stroke-linecap="round"
     stroke-linejoin="round"
     d="m 6348.2995,720.84052 -0.901,-0.881 -0.172,-0.636 q -0.085,-0.234 -1.021,-1.921 -0.936,-1.687 -1.95,-2.701 -1.013,-1.015 -1.422,-1.266 -0.409,-0.251 -0.718,-0.363 -0.309,-0.113 -1.648,-0.221 -1.339,-0.109 -2.191,0.299 -0.852,0.408 -0.898,0.485 l -1.214,1.632 q -0.094,0.077 -0.486,2.415 -0.392,2.338 0,3.651 0.395,1.312 0.734,1.794 0.339,0.482 0.884,0.978 0.544,0.496 1.514,1.026 0.97,0.53 2.42,0.657 1.451,0.128 2.283,-0.01 0.831,-0.138 2.03,-0.916 1.2,-0.779 4.294,-4.123" /><path
     id="STROKE_46972bec-6d21-4ae6-96e1-8bcf04b5d3ca"
     opacity="1"
     fill="none"
     stroke="#e66465"
     stroke-width="4"
     stroke-opacity="1"
     stroke-linecap="round"
     stroke-linejoin="round"
     d="m 5240.1604,703.60846 -0.019,0.478 q -0.065,0.628 1.678,7.213 1.743,6.586 2.969,10.697 1.225,4.111 2.166,7.862 0.941,3.752 2.747,12.041 0.084,0.118 0.408,1.024" /><path
     id="STROKE_aac72d50-7197-4abe-a662-7a4c9f243b7b"
     opacity="1"
     fill="none"
     stroke="#e66465"
     stroke-width="4"
     stroke-opacity="1"
     stroke-linecap="round"
     stroke-linejoin="round"
     d="m 5236.9834,707.50546 q 1.032,-2.952 2.677,-5.276 1.645,-2.324 4.053,-4.277 2.409,-1.953 4.225,-2.634 1.816,-0.682 3.035,-0.802 1.218,-0.12 2.226,0.016 1.008,0.135 5.276,4.018 4.269,3.883 4.764,5.728 0.496,1.845 0.46,3.039 -0.036,1.192 -0.91,3.37 -0.873,2.178 -3.184,5.018 -2.31,2.841 -3.625,4.14 -1.315,1.299 -2.283,2.058 -0.968,0.758 -1.661,1.14 -0.099,0.011 0.238,0.687" /><path
     id="STROKE_110dd87f-1d2e-4efd-b0f6-91956e87c017"
     opacity="1"
     fill="none"
     stroke="#e66465"
     stroke-width="4"
     stroke-opacity="1"
     stroke-linecap="round"
     stroke-linejoin="round"
     d="m 5271.0394,744.22646 q -0.673,-0.785 -1.666,-1.503 -0.993,-0.718 -1.519,-1.188 -0.526,-0.471 -1.398,-1.569 -0.872,-1.098 -1.376,-2.536 -0.505,-1.437 -0.499,-2.388 0.01,-0.951 0.33,-1.904 0.325,-0.953 1.37,-1.83 1.046,-0.876 2.164,-1.138 1.119,-0.262 2.197,-0.13 1.077,0.132 1.977,0.77 0.9,0.639 1.657,1.834 0.758,1.194 1.066,2.186 0.309,0.992 0.398,2 0.089,1.009 -0.096,2.322 -0.185,1.312 -0.6,2.147 -0.415,0.836 -1.162,1.76 -0.748,0.924 -5.722,2.887" /><path
     id="STROKE_c3bbda8d-0b60-49cb-b7af-a7c90f425c8a"
     opacity="1"
     fill="none"
     stroke="#e66465"
     stroke-width="4"
     stroke-opacity="1"
     stroke-linecap="round"
     stroke-linejoin="round"
     d="m 5235.8314,305.48246 0.04,0.386 q 0.036,0.553 2.519,7.425 2.484,6.872 3.976,10.909 1.492,4.038 2.654,7.498 1.161,3.46 2.998,10.319 0.091,0.028 -1.662,-1.993" /><path
     id="STROKE_b4a88faf-d682-41cd-9912-0b098f284dcc"
     opacity="1"
     fill="none"
     stroke="#e66465"
     stroke-width="4"
     stroke-opacity="1"
     stroke-linecap="round"
     stroke-linejoin="round"
     d="m 5232.3564,309.08846 q 0.031,-0.108 0.209,-1.393 0.179,-1.286 0.535,-2.397 0.357,-1.11 1.68,-2.994 1.324,-1.883 3.059,-3.161 1.735,-1.278 3.338,-1.845 1.603,-0.567 3.243,-0.708 1.641,-0.141 2.969,0.069 1.328,0.21 2.685,0.916 1.357,0.707 2.817,2.617 1.459,1.91 2.333,5.662 0.874,3.752 0.746,5.971 -0.129,2.219 -0.837,4.448 -0.708,2.23 -2.403,4.328 -1.694,2.099 -3.222,3.005 -1.527,0.905 -2.489,1.136 -0.962,0.231 -3.682,0.141" /><path
     id="STROKE_22856b8d-ed0e-4ee0-8018-f1b941259c6d"
     opacity="1"
     fill="none"
     stroke="#e66465"
     stroke-width="4"
     stroke-opacity="1"
     stroke-linecap="round"
     stroke-linejoin="round"
     d="m 5269.0134,342.77246 q 2.649,-8.094 3.019,-9.918 0.37,-1.823 0.473,-2.458 0.104,-0.636 -0.351,-0.725 -0.218,0.557 0.079,2.52 0.298,1.963 0.828,3.589 0.529,1.625 1.467,3.68 0.937,2.056 2.476,4.199 0.344,0.227 1.044,1.055" /><path
     id="STROKE_a92f1754-3c66-4058-b999-4bdbebf551bd"
     opacity="1"
     fill="none"
     stroke="#e66465"
     stroke-width="4"
     stroke-opacity="1"
     stroke-linecap="round"
     stroke-linejoin="round"
     d="m 5730.2554,274.86946 q 0.054,0.103 0.043,0.753 0.011,1.066 1.398,5.17 1.387,4.104 3.583,10.403 2.196,6.299 3.967,13.555 1.771,7.256 2.748,12.821 0.086,0.101 -1.134,-3.831" /><path
     id="STROKE_f9591616-92b7-4142-b1d6-03f7980dbb12"
     opacity="1"
     fill="none"
     stroke="#e66465"
     stroke-width="4"
     stroke-opacity="1"
     stroke-linecap="round"
     stroke-linejoin="round"
     d="m 5729.3814,279.12646 q 0.106,-0.143 0.778,-1.985 0.672,-1.843 1.233,-2.851 0.562,-1.007 0.934,-1.523 0.372,-0.517 1.872,-1.816 1.5,-1.3 3.421,-2.083 1.922,-0.783 3.095,-0.94 1.174,-0.157 2.574,-0.084 1.399,0.073 2.197,0.241 0.798,0.169 3.596,1.748 2.798,1.58 4.455,3.363 1.656,1.783 2.761,3.848 1.106,2.065 1.527,4.775 0.421,2.71 0.203,4.373 -0.217,1.664 -1.167,3.685 -0.949,2.021 -3.139,3.87 -2.189,1.85 -3.883,2.44 -1.694,0.59 -2.563,0.663 -0.868,0.073 -1.526,-0.025 -0.658,-0.098 -0.979,-0.254 -0.321,-0.156 -0.605,-0.391 -0.284,-0.236 -0.455,-0.478 -0.171,-0.242 -0.547,-0.85" /><path
     id="STROKE_56b02fc7-55db-49b1-8061-6b040b300477"
     opacity="1"
     fill="none"
     stroke="#e66465"
     stroke-width="4"
     stroke-opacity="1"
     stroke-linecap="round"
     stroke-linejoin="round"
     d="m 5766.7754,317.42946 q 0.144,-0.303 -0.251,-1.201 0.247,-1.696 1.053,-2.929 0.805,-1.233 1.723,-1.836 0.918,-0.602 1.669,-0.664 0.751,-0.061 1.048,-0.047 0.297,0.014 1.067,0.478 0.771,0.465 1.522,1.789 0.752,1.324 1.039,3.411 0.286,2.086 -0.314,5.637 -0.601,3.55 -0.999,5.828 -0.399,2.277 -0.215,3.68 0.53,0.171 4.105,0.068 3.574,-0.103 14.527,-1.664" /><path
     id="STROKE_9ce18ebb-1dce-4eaa-9c73-24c0345c4447"
     opacity="1"
     fill="none"
     stroke="#e66465"
     stroke-width="4"
     stroke-opacity="1"
     stroke-linecap="round"
     stroke-linejoin="round"
     d="m 5738.8224,688.04546 -0.103,0.726 q -0.059,0.317 2.815,14.756 2.875,14.439 7.901,29.774 0.157,0.06 -0.068,-0.103" /><path
     id="STROKE_4aca1570-4fa7-4ed8-9aa0-015f9bac6568"
     opacity="1"
     fill="none"
     stroke="#e66465"
     stroke-width="4"
     stroke-opacity="1"
     stroke-linecap="round"
     stroke-linejoin="round"
     d="m 5740.1324,691.94246 q 0.074,-0.166 0.18,-1.174 0.105,-1.009 0.435,-1.981 0.33,-0.972 0.552,-1.444 0.222,-0.471 0.627,-1.037 0.405,-0.565 0.987,-1.126 0.582,-0.56 1.107,-0.909 0.525,-0.349 0.947,-0.62 0.421,-0.271 2.964,-0.743 2.543,-0.471 4.243,-0.276 1.701,0.195 3.394,0.928 1.693,0.733 3.004,1.783 1.31,1.051 2.395,2.865 1.084,1.814 1.508,4.332 0.423,2.518 0.099,4.784 -0.324,2.265 -1.675,4.786 -1.351,2.521 -3.129,4.2 -1.778,1.68 -3.667,2.549 -1.89,0.869 -3.353,1.044 -1.462,0.175 -2.437,-0.068 -0.974,-0.244 -1.989,-0.95 l -0.85,-0.427" /><path
     id="STROKE_a5e4649d-4c91-4700-83a0-9682c82d49b7"
     opacity="1"
     fill="none"
     stroke="#e66465"
     stroke-width="4"
     stroke-opacity="1"
     stroke-linecap="round"
     stroke-linejoin="round"
     d="m 5778.6574,717.40346 q 0.152,-0.094 0.489,-0.631 0.336,-0.537 1.415,-1.596 1.078,-1.06 2.513,-2.028 1.435,-0.968 2.879,-1.421 1.444,-0.453 2.614,-0.353 1.171,0.099 1.737,0.325 0.567,0.225 1.159,0.773 0.593,0.548 1.117,1.941 0.523,1.392 0.472,2.956 -0.052,1.563 -0.554,2.942 -0.502,1.379 -0.805,1.953 -0.302,0.573 -0.552,0.7 0.155,-0.136 0.443,-0.262 0.289,-0.125 0.846,-0.176 0.558,-0.05 1.809,0.053 1.252,0.103 3.05,0.737 1.798,0.633 2.931,1.37 1.133,0.736 1.881,1.651 0.748,0.914 1.005,1.51 0.258,0.597 0.291,1.253 0.033,0.656 -0.18,1.412 -0.214,0.756 -0.717,1.566 -0.502,0.809 -1.825,1.876 -1.322,1.067 -3.475,1.856 -2.154,0.789 -4.2,0.923 -2.046,0.135 -3.362,-0.127 -1.316,-0.263 -2.182,-0.68 -0.866,-0.418 -1.693,-1.04 -0.827,-0.621 -1.996,-2.262 l -0.702,-1.076" /><path
     id="STROKE_49d7806b-96c4-43cc-9cfa-590db5cb8fb6"
     opacity="1"
     fill="none"
     stroke="#e66465"
     stroke-width="4"
     stroke-opacity="1"
     stroke-linecap="round"
     stroke-linejoin="round"
     d="m 5882.9865,708.45052 -0.05,1.066 q 0.159,0.965 1.012,4.325 0.853,3.359 1.862,7.1 1.008,3.741 2.564,9.078 1.557,5.337 2.498,8.138 0.94,2.801 1.785,4.849 0.844,2.047 1.275,2.93 0.431,0.882 0.95,1.717 0.125,0.019 -1.491,-2.412" /><path
     id="STROKE_80738587-18a8-441a-9e72-78594770b533"
     opacity="1"
     fill="none"
     stroke="#e66465"
     stroke-width="4"
     stroke-opacity="1"
     stroke-linecap="round"
     stroke-linejoin="round"
     d="m 5883.2055,711.48752 q 0.044,-1.219 1.092,-4.187 1.048,-2.969 2.193,-4.457 1.144,-1.487 2.011,-2.035 0.867,-0.548 1.599,-0.743 0.732,-0.195 2.719,0.197 1.987,0.391 4.299,2.067 2.312,1.675 3.412,3.075 1.099,1.401 1.793,3.029 0.694,1.628 0.861,3.49 0.167,1.861 -0.585,4.214 -0.753,2.354 -2.477,4.385 -1.725,2.032 -3.256,2.965 -1.532,0.933 -2.77,1.225 -1.238,0.292 -1.933,0.243 -0.695,-0.049 -1.211,-0.168 -0.517,-0.119 -1.065,-0.467 -0.548,-0.348 -0.88,-0.635 -0.332,-0.286 -0.739,-0.66" /><path
     id="STROKE_884586b9-d985-492a-9dc3-4036036ece2b"
     opacity="1"
     fill="none"
     stroke="#e66465"
     stroke-width="4"
     stroke-opacity="1"
     stroke-linecap="round"
     stroke-linejoin="round"
     d="m 5926.2965,741.20552 q -0.071,-0.833 -0.695,-2.453 -0.624,-1.62 -1.696,-3.06 -1.073,-1.441 -2.448,-2.315 -1.376,-0.874 -3.634,-0.846 -2.259,0.029 -2.983,0.641 -0.724,0.612 -1.229,2.441 -0.505,1.828 -0.247,3.578 0.258,1.75 1.416,3.545 1.159,1.795 2.493,2.681 1.335,0.886 2.818,1.126 1.483,0.24 2.74,-0.08 1.258,-0.321 2.613,-1.509 1.354,-1.189 4.307,-8.075" /><path
     id="STROKE_d0f9a4de-db35-471d-8a7a-680000b2f410"
     opacity="1"
     fill="none"
     stroke="#e66465"
     stroke-width="4"
     stroke-opacity="1"
     stroke-linecap="round"
     stroke-linejoin="round"
     d="m 5888.4745,311.57652 q 0.16,0.736 0.493,2.089 0.333,1.353 0.953,3.032 0.619,1.68 1.178,2.855 0.558,1.175 2.252,4.552 1.694,3.377 3.851,8.349 2.156,4.971 3.203,7.916 1.048,2.946 2.386,8.042 0.064,0.014 -0.673,-1.486" /><path
     id="STROKE_7a1b9d1d-5fa8-4086-8efe-2700204c0aca"
     opacity="1"
     fill="none"
     stroke="#e66465"
     stroke-width="4"
     stroke-opacity="1"
     stroke-linecap="round"
     stroke-linejoin="round"
     d="m 5888.9125,313.44852 q 0.317,-0.572 1.09,-2.034 0.773,-1.462 1.797,-2.509 1.025,-1.047 2.451,-1.848 1.426,-0.802 3.408,-1.094 1.981,-0.293 3.472,-0.028 1.492,0.265 2.699,1.037 1.208,0.772 2.35,2.109 1.143,1.337 2.181,4.367 1.038,3.03 1.126,5.6 0.088,2.571 -0.446,4.957 -0.533,2.386 -1.829,4.552 -1.296,2.166 -2.184,3.12 -0.889,0.955 -2.182,1.77 -1.293,0.814 -2.963,1.2 -0.319,-0.062 -1.737,-0.065" /><path
     id="STROKE_2d03d2fe-85bc-4313-87af-afad951634c6"
     opacity="1"
     fill="none"
     stroke="#e66465"
     stroke-width="4"
     stroke-opacity="1"
     stroke-linecap="round"
     stroke-linejoin="round"
     d="m 5919.2355,345.91252 q 0.166,-0.592 0.696,-2.338 0.53,-1.745 0.793,-3.065 0.262,-1.32 0.353,-2.01 0.091,-0.69 0.113,-0.992 0.022,-0.303 -0.012,-0.493 -0.035,-0.191 -0.086,-0.18 -0.052,0.011 0.183,0.989 0.234,0.979 1.408,3.449 1.173,2.469 7.155,11.782" /><path
     id="STROKE_b4defbff-38c9-4645-9ae1-eb9e13fc2011"
     opacity="1"
     fill="none"
     stroke="#e66465"
     stroke-width="4"
     stroke-opacity="1"
     stroke-linecap="round"
     stroke-linejoin="round"
     d="m 6375.4705,719.66352 q 0.051,0.506 0.38,1.683 0.328,1.177 0.957,2.738 0.629,1.562 2.039,4.969 1.41,3.406 3.983,11.272 2.573,7.866 3.647,12.071 1.074,4.206 1.687,7.334 0.052,0 -1.573,-1.835" /><path
     id="STROKE_1f64d586-2c72-47eb-bed5-6f92766f353f"
     opacity="1"
     fill="none"
     stroke="#e66465"
     stroke-width="4"
     stroke-opacity="1"
     stroke-linecap="round"
     stroke-linejoin="round"
     d="m 6376.2065,726.15352 q 0.332,-1.625 0.778,-3.008 0.446,-1.383 1.297,-2.654 0.85,-1.271 2,-2.165 1.15,-0.893 2.612,-1.294 1.461,-0.4 3.475,-0.11 2.014,0.29 3.855,1.567 1.84,1.277 2.593,2.154 0.753,0.878 1.56,2.248 0.808,1.37 1.47,3.891 0.661,2.521 0.547,5.163 -0.113,2.642 -0.808,4.58 -0.695,1.937 -1.538,3.157 -0.843,1.221 -1.781,2.001 -0.938,0.781 -1.676,1.126 -0.738,0.345 -1.19,0.459 -0.452,0.115 -0.959,0 l -0.56,0.057" /><path
     id="STROKE_22d9408e-4793-489c-9048-f3ab9fecafad"
     opacity="1"
     fill="none"
     stroke="#e66465"
     stroke-width="4"
     stroke-opacity="1"
     stroke-linecap="round"
     stroke-linejoin="round"
     d="m 6407.0845,751.32252 0.441,-0.042 q 1.522,-0.282 2.077,-0.307 0.556,-0.026 1.323,0.102 0.767,0.127 1.258,0.482 0.491,0.354 0.676,0.591 0.184,0.238 0.572,1.036 0.387,0.797 0.78,2.848 0.394,2.05 0.406,4.688 0.012,2.638 0.289,4.191 0.07,0.042 3.717,-0.692 3.648,-0.733 11.337,-3.439" /><path
     id="STROKE_a91a13ae-887d-440a-bd92-2810ef9d0a3f"
     opacity="1"
     fill="none"
     stroke="#e66465"
     stroke-width="4"
     stroke-opacity="1"
     stroke-linecap="round"
     stroke-linejoin="round"
     d="m 6365.4425,297.93452 0.318,0.388 q 0.907,1.312 4.431,8.837 3.523,7.524 5.044,12.142 1.521,4.617 2.058,7.164 0.537,2.547 0.795,5.084 0.258,2.537 0.286,7.412 -0.063,-0.12 -0.58,-0.769" /><path
     id="STROKE_c46620c1-f3e6-460f-8ad9-bed6ddfff308"
     opacity="1"
     fill="none"
     stroke="#e66465"
     stroke-width="4"
     stroke-opacity="1"
     stroke-linecap="round"
     stroke-linejoin="round"
     d="m 6366.3755,302.84352 q 0.253,-1.627 0.67,-2.726 0.416,-1.099 0.782,-1.646 0.366,-0.547 1.595,-1.457 1.23,-0.909 3.512,-1.402 2.281,-0.492 5.034,-0.052 2.752,0.441 5.161,1.748 2.41,1.308 4.075,3.062 1.665,1.754 2.53,4.148 0.865,2.394 0.768,4.859 -0.096,2.466 -0.828,4.278 -0.732,1.811 -2.246,3.505 -1.514,1.693 -4.427,3.04 -2.914,1.346 -6.518,2.044" /><path
     id="STROKE_11cf749a-a8ee-4cc2-bdfe-e838478e31ab"
     opacity="1"
     fill="none"
     stroke="#e66465"
     stroke-width="4"
     stroke-opacity="1"
     stroke-linecap="round"
     stroke-linejoin="round"
     d="m 6402.5365,334.65552 q 0.319,-0.876 0.521,-1.336 0.202,-0.46 0.53,-0.97 0.328,-0.509 0.681,-0.869 0.354,-0.359 0.639,-0.677 0.285,-0.318 2.255,-1.654 1.97,-1.336 3.814,-1.663 1.843,-0.327 2.825,-0.096 0.982,0.232 1.426,0.493 0.445,0.26 1.09,1.391 0.645,1.13 0.865,2.167 0.22,1.037 0.21,2.386 -0.01,1.348 -0.063,2.247 -0.054,0.899 -0.129,1.542 0.303,0.117 1.744,0.676 1.44,0.558 2.551,1.052 1.111,0.494 1.703,1.018 0.592,0.525 0.831,0.962 0.239,0.438 0.332,1.017 0.093,0.579 -0.093,1.471 -0.185,0.893 -1.808,2.162 -1.624,1.269 -4.409,1.931 -2.785,0.661 -5.09,0.437 -2.305,-0.225 -4.22,-0.905 -1.914,-0.68 -3.465,-1.816 l -1.151,-1.009" /><path
     id="STROKE_3a9e1d2f-4f1b-420c-93e8-4188a3c19f40"
     opacity="1"
     fill="none"
     stroke="#e66465"
     stroke-width="4"
     stroke-opacity="1"
     stroke-linecap="round"
     stroke-linejoin="round"
     d="m 5318.4284,337.88046 -0.168,-0.072 q -1.367,-0.832 -1.76,-0.965 -0.392,-0.132 -1.009,-0.351 -0.617,-0.219 -1.691,-0.369 -1.073,-0.151 -2.212,0.144 -1.138,0.296 -1.567,0.566 -0.428,0.271 -0.819,0.761 -0.392,0.489 -0.572,0.762 -0.179,0.273 -0.328,1.154 -0.148,0.882 -0.022,1.505 0.126,0.624 0.55,1.313 0.423,0.689 0.926,1.185 0.502,0.495 1.206,0.881 0.704,0.385 1.567,0.58 0.863,0.195 1.879,0.259 1.016,0.064 1.938,-0.096 0.922,-0.16 1.424,-0.393 0.502,-0.232 1.22,-0.772 0.718,-0.54 1.089,-1.092 0.371,-0.551 0.456,-0.761 0.086,-0.209 0.304,-0.354 0.218,-0.145 0.815,-4.403" /><path
     id="STROKE_ab566a1e-872e-4653-a018-fe697782b21b"
     opacity="1"
     fill="none"
     stroke="#e66465"
     stroke-width="4"
     stroke-opacity="1"
     stroke-linecap="round"
     stroke-linejoin="round"
     d="m 5319.8834,726.54146 q -0.682,-1.004 -1.654,-1.946 -0.972,-0.943 -2.406,-1.941 -1.435,-0.999 -1.557,-1.116 -0.122,-0.118 -1.935,-0.52 -1.814,-0.402 -3.07,-0.21 -1.256,0.191 -1.497,0.299 -0.242,0.107 -0.825,0.76 -0.583,0.652 -0.834,1.308 -0.251,0.655 -0.269,1.249 -0.017,0.594 -0.016,0.828 0,0.233 0.405,1.206 0.403,0.973 1.2,1.84 0.796,0.866 1.672,1.352 0.876,0.486 1.768,0.704 0.891,0.219 1.742,0.35 0.851,0.132 2.888,-0.212 2.036,-0.343 3.136,-0.845 1.1,-0.501 1.907,-1.237 0.807,-0.736 3.599,-5.099" /><path
     id="STROKE_40b6d1c3-ff88-437e-9b96-6eebda364b94"
     opacity="1"
     fill="none"
     stroke="#e66465"
     stroke-width="4"
     stroke-opacity="1"
     stroke-linecap="round"
     stroke-linejoin="round"
     d="m 5704.5874,340.67146 q -0.3,-0.408 -0.947,-1.884 -0.647,-1.476 -1.105,-2.296 -0.457,-0.82 -0.682,-1.096 -0.226,-0.276 -1.188,-1.263 -0.963,-0.986 -1.582,-1.238 -0.619,-0.252 -1.071,-0.286 -0.452,-0.034 -0.863,0.035 -0.411,0.069 -1.314,1.085 -0.902,1.017 -1.185,1.768 -0.282,0.752 -0.33,1.26 -0.047,0.508 0.125,1.649 0.173,1.141 0.348,1.498 0.175,0.358 0.536,0.794 0.36,0.437 1.556,1.339 1.197,0.903 2.827,1.372 1.631,0.47 2.024,0.533 0.392,0.063 1.048,0.068 0.655,0.005 3.345,-0.228" /><path
     id="STROKE_b60f80c8-cbb3-4607-8a6f-beda6c666c4c"
     opacity="1"
     fill="none"
     stroke="#e66465"
     stroke-width="4"
     stroke-opacity="1"
     stroke-linecap="round"
     stroke-linejoin="round"
     d="m 5707.3854,727.45846 -0.901,-0.881 -0.172,-0.636 q -0.085,-0.234 -1.021,-1.921 -0.936,-1.687 -1.95,-2.701 -1.013,-1.015 -1.422,-1.266 -0.409,-0.251 -0.718,-0.363 -0.309,-0.113 -1.648,-0.221 -1.339,-0.109 -2.191,0.299 -0.852,0.408 -0.898,0.485 l -1.214,1.632 q -0.094,0.077 -0.486,2.415 -0.392,2.338 0,3.651 0.395,1.312 0.734,1.794 0.339,0.482 0.884,0.978 0.544,0.496 1.514,1.026 0.97,0.53 2.42,0.657 1.451,0.128 2.283,-0.009 0.831,-0.138 2.03,-0.916 1.2,-0.779 4.294,-4.123" /><path
     id="STROKE_00c5bdc7-6e14-47b7-a30e-9b45a2f6d17f"
     opacity="1"
     fill="none"
     stroke="#e66465"
     stroke-width="4"
     stroke-opacity="1"
     stroke-linecap="round"
     stroke-linejoin="round"
     d="m 5959.3425,331.26252 -0.168,-0.072 q -1.367,-0.832 -1.76,-0.965 -0.392,-0.132 -1.009,-0.351 -0.617,-0.219 -1.691,-0.369 -1.073,-0.151 -2.212,0.144 -1.138,0.296 -1.567,0.566 -0.428,0.271 -0.819,0.761 -0.392,0.489 -0.572,0.762 -0.179,0.273 -0.328,1.154 -0.148,0.881 -0.022,1.505 0.126,0.623 0.55,1.313 0.423,0.689 0.926,1.185 0.502,0.495 1.206,0.881 0.704,0.385 1.567,0.58 0.863,0.195 1.879,0.259 1.016,0.064 1.938,-0.096 0.922,-0.16 1.424,-0.393 0.502,-0.232 1.22,-0.772 0.718,-0.54 1.089,-1.092 0.371,-0.551 0.456,-0.761 0.086,-0.209 0.304,-0.354 0.218,-0.145 0.815,-4.403" /><path
     id="STROKE_4474c570-3382-4b74-8ced-681a55986f91"
     opacity="1"
     fill="none"
     stroke="#e66465"
     stroke-width="4"
     stroke-opacity="1"
     stroke-linecap="round"
     stroke-linejoin="round"
     d="m 5960.7975,719.92352 q -0.682,-1.004 -1.654,-1.947 -0.972,-0.942 -2.406,-1.94 -1.435,-0.999 -1.557,-1.116 -0.122,-0.118 -1.935,-0.52 -1.814,-0.402 -3.07,-0.21 -1.256,0.191 -1.497,0.298 -0.242,0.108 -0.825,0.76 -0.583,0.653 -0.834,1.309 -0.251,0.655 -0.269,1.249 -0.017,0.594 -0.016,0.828 0,0.233 0.405,1.206 0.403,0.973 1.2,1.84 0.796,0.866 1.672,1.352 0.876,0.486 1.768,0.704 0.891,0.219 1.742,0.35 0.851,0.132 2.888,-0.212 2.036,-0.343 3.136,-0.845 1.1,-0.501 1.907,-1.237 0.807,-0.736 3.599,-5.098" /><path
     id="STROKE_31d4d8d7-c5c0-4a24-9bd5-fd3f9a1be1ec"
     opacity="1"
     fill="none"
     stroke="#e66465"
     stroke-width="4"
     stroke-opacity="1"
     stroke-linecap="round"
     stroke-linejoin="round"
     d="m 6345.5015,334.05352 q -0.3,-0.408 -0.947,-1.884 -0.647,-1.476 -1.105,-2.296 -0.457,-0.82 -0.682,-1.096 -0.226,-0.277 -1.188,-1.263 -0.963,-0.986 -1.582,-1.238 -0.619,-0.252 -1.071,-0.286 -0.452,-0.035 -0.863,0.035 -0.411,0.069 -1.314,1.085 -0.902,1.017 -1.185,1.768 -0.282,0.752 -0.33,1.26 -0.047,0.508 0.125,1.649 0.173,1.141 0.348,1.498 0.175,0.358 0.536,0.794 0.36,0.437 1.556,1.339 1.197,0.902 2.827,1.372 1.631,0.47 2.024,0.533 0.392,0.063 1.048,0.068 0.655,0.005 3.345,-0.228" /><path
     id="STROKE_c620e507-ae1b-4c09-bb16-57614522edff"
     opacity="1"
     fill="none"
     stroke="#e66465"
     stroke-width="4"
     stroke-opacity="1"
     stroke-linecap="round"
     stroke-linejoin="round"
     d="m 6348.2995,720.84052 -0.901,-0.881 -0.172,-0.636 q -0.085,-0.234 -1.021,-1.921 -0.936,-1.687 -1.95,-2.701 -1.013,-1.015 -1.422,-1.266 -0.409,-0.251 -0.718,-0.363 -0.309,-0.113 -1.648,-0.221 -1.339,-0.109 -2.191,0.299 -0.852,0.408 -0.898,0.485 l -1.214,1.632 q -0.094,0.077 -0.486,2.415 -0.392,2.338 0,3.651 0.395,1.312 0.734,1.794 0.339,0.482 0.884,0.978 0.544,0.496 1.514,1.026 0.97,0.53 2.42,0.657 1.451,0.128 2.283,-0.01 0.831,-0.138 2.03,-0.916 1.2,-0.779 4.294,-4.123" /><path
     id="STROKE_067913b0-c617-4acf-83ba-d11719adb341"
     opacity="1"
     fill="none"
     stroke="#e66465"
     stroke-width="4"
     stroke-opacity="1"
     stroke-linecap="round"
     stroke-linejoin="round"
     d="m 5240.1604,703.60846 -0.019,0.478 q -0.065,0.628 1.678,7.213 1.743,6.586 2.969,10.697 1.225,4.111 2.166,7.862 0.941,3.752 2.747,12.041 0.084,0.118 0.408,1.024" /><path
     id="STROKE_1c3e1c01-564c-45bc-9e3b-3c5609ab90c9"
     opacity="1"
     fill="none"
     stroke="#e66465"
     stroke-width="4"
     stroke-opacity="1"
     stroke-linecap="round"
     stroke-linejoin="round"
     d="m 5236.9834,707.50546 q 1.032,-2.952 2.677,-5.276 1.645,-2.324 4.053,-4.277 2.409,-1.953 4.225,-2.634 1.816,-0.682 3.035,-0.802 1.218,-0.12 2.226,0.016 1.008,0.135 5.276,4.018 4.269,3.883 4.764,5.728 0.496,1.845 0.46,3.039 -0.036,1.192 -0.91,3.37 -0.873,2.178 -3.184,5.018 -2.31,2.841 -3.625,4.14 -1.315,1.299 -2.283,2.058 -0.968,0.758 -1.661,1.14 -0.099,0.011 0.238,0.687" /><path
     id="STROKE_423ea9b3-99b9-449e-8472-dd787c82dc84"
     opacity="1"
     fill="none"
     stroke="#e66465"
     stroke-width="4"
     stroke-opacity="1"
     stroke-linecap="round"
     stroke-linejoin="round"
     d="m 5271.0394,744.22646 q -0.673,-0.785 -1.666,-1.503 -0.993,-0.718 -1.519,-1.188 -0.526,-0.471 -1.398,-1.569 -0.872,-1.098 -1.376,-2.536 -0.505,-1.437 -0.499,-2.388 0.01,-0.951 0.33,-1.904 0.325,-0.953 1.37,-1.83 1.046,-0.876 2.164,-1.138 1.119,-0.262 2.197,-0.13 1.077,0.132 1.977,0.77 0.9,0.639 1.657,1.834 0.758,1.194 1.066,2.186 0.309,0.992 0.398,2 0.089,1.009 -0.096,2.322 -0.185,1.312 -0.6,2.147 -0.415,0.836 -1.162,1.76 -0.748,0.924 -5.722,2.887" /><path
     id="STROKE_b13a6474-7fe4-43d8-8079-bcc406ad34c0"
     opacity="1"
     fill="none"
     stroke="#e66465"
     stroke-width="4"
     stroke-opacity="1"
     stroke-linecap="round"
     stroke-linejoin="round"
     d="m 5235.8314,305.48246 0.04,0.386 q 0.036,0.553 2.519,7.425 2.484,6.872 3.976,10.909 1.492,4.038 2.654,7.498 1.161,3.46 2.998,10.319 0.091,0.028 -1.662,-1.993" /><path
     id="STROKE_1a4e0885-8508-45a8-9c98-af23532a3708"
     opacity="1"
     fill="none"
     stroke="#e66465"
     stroke-width="4"
     stroke-opacity="1"
     stroke-linecap="round"
     stroke-linejoin="round"
     d="m 5232.3564,309.08846 q 0.031,-0.108 0.209,-1.393 0.179,-1.286 0.535,-2.397 0.357,-1.11 1.68,-2.994 1.324,-1.883 3.059,-3.161 1.735,-1.278 3.338,-1.845 1.603,-0.567 3.243,-0.708 1.641,-0.141 2.969,0.069 1.328,0.21 2.685,0.916 1.357,0.707 2.817,2.617 1.459,1.91 2.333,5.662 0.874,3.752 0.746,5.971 -0.129,2.219 -0.837,4.448 -0.708,2.23 -2.403,4.328 -1.694,2.099 -3.222,3.005 -1.527,0.905 -2.489,1.136 -0.962,0.231 -3.682,0.141" /><path
     id="STROKE_a18b1e0e-28a1-46cd-9a64-e5fd1ce11831"
     opacity="1"
     fill="none"
     stroke="#e66465"
     stroke-width="4"
     stroke-opacity="1"
     stroke-linecap="round"
     stroke-linejoin="round"
     d="m 5269.0134,342.77246 q 2.649,-8.094 3.019,-9.918 0.37,-1.823 0.473,-2.458 0.104,-0.636 -0.351,-0.725 -0.218,0.557 0.079,2.52 0.298,1.963 0.828,3.589 0.529,1.625 1.467,3.68 0.937,2.056 2.476,4.199 0.344,0.227 1.044,1.055" /><path
     id="STROKE_4e53d75e-5ab1-4b9c-9730-e11ff15d2ce4"
     opacity="1"
     fill="none"
     stroke="#e66465"
     stroke-width="4"
     stroke-opacity="1"
     stroke-linecap="round"
     stroke-linejoin="round"
     d="m 5730.2554,274.86946 q 0.054,0.103 0.043,0.753 0.011,1.066 1.398,5.17 1.387,4.104 3.583,10.403 2.196,6.299 3.967,13.555 1.771,7.256 2.748,12.821 0.086,0.101 -1.134,-3.831" /><path
     id="STROKE_e6673075-b436-4d48-99f1-bc5fb4853de1"
     opacity="1"
     fill="none"
     stroke="#e66465"
     stroke-width="4"
     stroke-opacity="1"
     stroke-linecap="round"
     stroke-linejoin="round"
     d="m 5729.3814,279.12646 q 0.106,-0.143 0.778,-1.985 0.672,-1.843 1.233,-2.851 0.562,-1.007 0.934,-1.523 0.372,-0.517 1.872,-1.816 1.5,-1.3 3.421,-2.083 1.922,-0.783 3.095,-0.94 1.174,-0.157 2.574,-0.084 1.399,0.073 2.197,0.241 0.798,0.169 3.596,1.748 2.798,1.58 4.455,3.363 1.656,1.783 2.761,3.848 1.106,2.065 1.527,4.775 0.421,2.71 0.203,4.373 -0.217,1.664 -1.167,3.685 -0.949,2.021 -3.139,3.87 -2.189,1.85 -3.883,2.44 -1.694,0.59 -2.563,0.663 -0.868,0.073 -1.526,-0.025 -0.658,-0.098 -0.979,-0.254 -0.321,-0.156 -0.605,-0.391 -0.284,-0.236 -0.455,-0.478 -0.171,-0.242 -0.547,-0.85" /><path
     id="STROKE_595831fd-76fa-40f5-b986-7a19596e06f6"
     opacity="1"
     fill="none"
     stroke="#e66465"
     stroke-width="4"
     stroke-opacity="1"
     stroke-linecap="round"
     stroke-linejoin="round"
     d="m 5766.7754,317.42946 q 0.144,-0.303 -0.251,-1.201 0.247,-1.696 1.053,-2.929 0.805,-1.233 1.723,-1.836 0.918,-0.602 1.669,-0.664 0.751,-0.061 1.048,-0.047 0.297,0.014 1.067,0.478 0.771,0.465 1.522,1.789 0.752,1.324 1.039,3.411 0.286,2.086 -0.314,5.637 -0.601,3.55 -0.999,5.828 -0.399,2.277 -0.215,3.68 0.53,0.171 4.105,0.068 3.574,-0.103 14.527,-1.664" /><path
     id="STROKE_39bce50e-c275-4070-9e19-49bcf1832f97"
     opacity="1"
     fill="none"
     stroke="#e66465"
     stroke-width="4"
     stroke-opacity="1"
     stroke-linecap="round"
     stroke-linejoin="round"
     d="m 5738.8224,688.04546 -0.103,0.726 q -0.059,0.317 2.815,14.756 2.875,14.439 7.901,29.774 0.157,0.06 -0.068,-0.103" /><path
     id="STROKE_41e69fd8-74e0-4683-9061-96620103d568"
     opacity="1"
     fill="none"
     stroke="#e66465"
     stroke-width="4"
     stroke-opacity="1"
     stroke-linecap="round"
     stroke-linejoin="round"
     d="m 5740.1324,691.94246 q 0.074,-0.166 0.18,-1.174 0.105,-1.009 0.435,-1.981 0.33,-0.972 0.552,-1.444 0.222,-0.471 0.627,-1.037 0.405,-0.565 0.987,-1.126 0.582,-0.56 1.107,-0.909 0.525,-0.349 0.947,-0.62 0.421,-0.271 2.964,-0.743 2.543,-0.471 4.243,-0.276 1.701,0.195 3.394,0.928 1.693,0.733 3.004,1.783 1.31,1.051 2.395,2.865 1.084,1.814 1.508,4.332 0.423,2.518 0.099,4.784 -0.324,2.265 -1.675,4.786 -1.351,2.521 -3.129,4.2 -1.778,1.68 -3.667,2.549 -1.89,0.869 -3.353,1.044 -1.462,0.175 -2.437,-0.068 -0.974,-0.244 -1.989,-0.95 l -0.85,-0.427" /><path
     id="STROKE_9385be38-b6ef-4f2a-a4bc-8067484e7bdc"
     opacity="1"
     fill="none"
     stroke="#e66465"
     stroke-width="4"
     stroke-opacity="1"
     stroke-linecap="round"
     stroke-linejoin="round"
     d="m 5778.6574,717.40346 q 0.152,-0.094 0.489,-0.631 0.336,-0.537 1.415,-1.596 1.078,-1.06 2.513,-2.028 1.435,-0.968 2.879,-1.421 1.444,-0.453 2.614,-0.353 1.171,0.099 1.737,0.325 0.567,0.225 1.159,0.773 0.593,0.548 1.117,1.941 0.523,1.392 0.472,2.956 -0.052,1.563 -0.554,2.942 -0.502,1.379 -0.805,1.953 -0.302,0.573 -0.552,0.7 0.155,-0.136 0.443,-0.262 0.289,-0.125 0.846,-0.176 0.558,-0.05 1.809,0.053 1.252,0.103 3.05,0.737 1.798,0.633 2.931,1.37 1.133,0.736 1.881,1.651 0.748,0.914 1.005,1.51 0.258,0.597 0.291,1.253 0.033,0.656 -0.18,1.412 -0.214,0.756 -0.717,1.566 -0.502,0.809 -1.825,1.876 -1.322,1.067 -3.475,1.856 -2.154,0.789 -4.2,0.923 -2.046,0.135 -3.362,-0.127 -1.316,-0.263 -2.182,-0.68 -0.866,-0.418 -1.693,-1.04 -0.827,-0.621 -1.996,-2.262 l -0.702,-1.076" /><path
     id="STROKE_937573a7-7edd-4217-8946-c7180596d925"
     opacity="1"
     fill="none"
     stroke="#e66465"
     stroke-width="4"
     stroke-opacity="1"
     stroke-linecap="round"
     stroke-linejoin="round"
     d="m 5882.9865,708.45052 -0.05,1.066 q 0.159,0.965 1.012,4.325 0.853,3.359 1.862,7.1 1.008,3.741 2.564,9.078 1.557,5.337 2.498,8.138 0.94,2.801 1.785,4.849 0.844,2.047 1.275,2.93 0.431,0.882 0.95,1.717 0.125,0.019 -1.491,-2.412" /><path
     id="STROKE_080d6737-03c7-4ecb-a359-c6396155c74b"
     opacity="1"
     fill="none"
     stroke="#e66465"
     stroke-width="4"
     stroke-opacity="1"
     stroke-linecap="round"
     stroke-linejoin="round"
     d="m 5883.2055,711.48752 q 0.044,-1.219 1.092,-4.187 1.048,-2.969 2.193,-4.457 1.144,-1.487 2.011,-2.035 0.867,-0.548 1.599,-0.743 0.732,-0.195 2.719,0.197 1.987,0.391 4.299,2.067 2.312,1.675 3.412,3.075 1.099,1.401 1.793,3.029 0.694,1.628 0.861,3.49 0.167,1.861 -0.585,4.214 -0.753,2.354 -2.477,4.385 -1.725,2.032 -3.256,2.965 -1.532,0.933 -2.77,1.225 -1.238,0.292 -1.933,0.243 -0.695,-0.049 -1.211,-0.168 -0.517,-0.119 -1.065,-0.467 -0.548,-0.348 -0.88,-0.635 -0.332,-0.286 -0.739,-0.66" /><path
     id="STROKE_8400ba9e-57e3-46ba-b770-7464eea684a7"
     opacity="1"
     fill="none"
     stroke="#e66465"
     stroke-width="4"
     stroke-opacity="1"
     stroke-linecap="round"
     stroke-linejoin="round"
     d="m 5926.2965,741.20552 q -0.071,-0.833 -0.695,-2.453 -0.624,-1.62 -1.696,-3.06 -1.073,-1.441 -2.448,-2.315 -1.376,-0.874 -3.634,-0.846 -2.259,0.029 -2.983,0.641 -0.724,0.612 -1.229,2.441 -0.505,1.828 -0.247,3.578 0.258,1.75 1.416,3.545 1.159,1.795 2.493,2.681 1.335,0.886 2.818,1.126 1.483,0.24 2.74,-0.08 1.258,-0.321 2.613,-1.509 1.354,-1.189 4.307,-8.075" /><path
     id="STROKE_dab68188-30f5-4a2f-8530-5dfd89b7813e"
     opacity="1"
     fill="none"
     stroke="#e66465"
     stroke-width="4"
     stroke-opacity="1"
     stroke-linecap="round"
     stroke-linejoin="round"
     d="m 5888.4745,311.57652 q 0.16,0.736 0.493,2.089 0.333,1.353 0.953,3.032 0.619,1.68 1.178,2.855 0.558,1.175 2.252,4.552 1.694,3.377 3.851,8.349 2.156,4.971 3.203,7.916 1.048,2.946 2.386,8.042 0.064,0.014 -0.673,-1.486" /><path
     id="STROKE_54459dd2-90f7-4d92-a31d-25c239d17a79"
     opacity="1"
     fill="none"
     stroke="#e66465"
     stroke-width="4"
     stroke-opacity="1"
     stroke-linecap="round"
     stroke-linejoin="round"
     d="m 5888.9125,313.44852 q 0.317,-0.572 1.09,-2.034 0.773,-1.462 1.797,-2.509 1.025,-1.047 2.451,-1.848 1.426,-0.802 3.408,-1.094 1.981,-0.293 3.472,-0.028 1.492,0.265 2.699,1.037 1.208,0.772 2.35,2.109 1.143,1.337 2.181,4.367 1.038,3.03 1.126,5.6 0.088,2.571 -0.446,4.957 -0.533,2.386 -1.829,4.552 -1.296,2.166 -2.184,3.12 -0.889,0.955 -2.182,1.77 -1.293,0.814 -2.963,1.2 -0.319,-0.062 -1.737,-0.065" /><path
     id="STROKE_427a5837-09d0-4d38-9ca7-2fc74e5c122f"
     opacity="1"
     fill="none"
     stroke="#e66465"
     stroke-width="4"
     stroke-opacity="1"
     stroke-linecap="round"
     stroke-linejoin="round"
     d="m 5919.2355,345.91252 q 0.166,-0.592 0.696,-2.338 0.53,-1.745 0.793,-3.065 0.262,-1.32 0.353,-2.01 0.091,-0.69 0.113,-0.992 0.022,-0.303 -0.012,-0.493 -0.035,-0.191 -0.086,-0.18 -0.052,0.011 0.183,0.989 0.234,0.979 1.408,3.449 1.173,2.469 7.155,11.782" /><path
     id="STROKE_f30fa1e9-bf4e-4a44-ac45-18beafed0bfd"
     opacity="1"
     fill="none"
     stroke="#e66465"
     stroke-width="4"
     stroke-opacity="1"
     stroke-linecap="round"
     stroke-linejoin="round"
     d="m 6375.4705,719.66352 q 0.051,0.506 0.38,1.683 0.328,1.177 0.957,2.738 0.629,1.562 2.039,4.969 1.41,3.406 3.983,11.272 2.573,7.866 3.647,12.071 1.074,4.206 1.687,7.334 0.052,0 -1.573,-1.835" /><path
     id="STROKE_2d4f9f7b-73f7-4046-81ec-b5be88f6e822"
     opacity="1"
     fill="none"
     stroke="#e66465"
     stroke-width="4"
     stroke-opacity="1"
     stroke-linecap="round"
     stroke-linejoin="round"
     d="m 6376.2065,726.15352 q 0.332,-1.625 0.778,-3.008 0.446,-1.383 1.297,-2.654 0.85,-1.271 2,-2.165 1.15,-0.893 2.612,-1.294 1.461,-0.4 3.475,-0.11 2.014,0.29 3.855,1.567 1.84,1.277 2.593,2.154 0.753,0.878 1.56,2.248 0.808,1.37 1.47,3.891 0.661,2.521 0.547,5.163 -0.113,2.642 -0.808,4.58 -0.695,1.937 -1.538,3.157 -0.843,1.221 -1.781,2.001 -0.938,0.781 -1.676,1.126 -0.738,0.345 -1.19,0.459 -0.452,0.115 -0.959,0 l -0.56,0.057" /><path
     id="STROKE_f5935249-3dbc-4083-9b15-6f3175f5fd64"
     opacity="1"
     fill="none"
     stroke="#e66465"
     stroke-width="4"
     stroke-opacity="1"
     stroke-linecap="round"
     stroke-linejoin="round"
     d="m 6407.0845,751.32252 0.441,-0.042 q 1.522,-0.282 2.077,-0.307 0.556,-0.026 1.323,0.102 0.767,0.127 1.258,0.482 0.491,0.354 0.676,0.591 0.184,0.238 0.572,1.036 0.387,0.797 0.78,2.848 0.394,2.05 0.406,4.688 0.012,2.638 0.289,4.191 0.07,0.042 3.717,-0.692 3.648,-0.733 11.337,-3.439" /><path
     id="STROKE_24bca700-1c9f-41fe-9ce4-b33fbf191794"
     opacity="1"
     fill="none"
     stroke="#e66465"
     stroke-width="4"
     stroke-opacity="1"
     stroke-linecap="round"
     stroke-linejoin="round"
     d="m 6365.4425,297.93452 0.318,0.388 q 0.907,1.312 4.431,8.837 3.523,7.524 5.044,12.142 1.521,4.617 2.058,7.164 0.537,2.547 0.795,5.084 0.258,2.537 0.286,7.412 -0.063,-0.12 -0.58,-0.769" /><path
     id="STROKE_3b0376c7-7c5a-4d83-8391-ee67d5dc5d80"
     opacity="1"
     fill="none"
     stroke="#e66465"
     stroke-width="4"
     stroke-opacity="1"
     stroke-linecap="round"
     stroke-linejoin="round"
     d="m 6366.3755,302.84352 q 0.253,-1.627 0.67,-2.726 0.416,-1.099 0.782,-1.646 0.366,-0.547 1.595,-1.457 1.23,-0.909 3.512,-1.402 2.281,-0.492 5.034,-0.052 2.752,0.441 5.161,1.748 2.41,1.308 4.075,3.062 1.665,1.754 2.53,4.148 0.865,2.394 0.768,4.859 -0.096,2.466 -0.828,4.278 -0.732,1.811 -2.246,3.505 -1.514,1.693 -4.427,3.04 -2.914,1.346 -6.518,2.044" /><path
     id="STROKE_ff542443-a941-415e-a1ee-c1be56aaf9c9"
     opacity="1"
     fill="none"
     stroke="#e66465"
     stroke-width="4"
     stroke-opacity="1"
     stroke-linecap="round"
     stroke-linejoin="round"
     d="m 6402.5365,334.65552 q 0.319,-0.876 0.521,-1.336 0.202,-0.46 0.53,-0.97 0.328,-0.509 0.681,-0.869 0.354,-0.359 0.639,-0.677 0.285,-0.318 2.255,-1.654 1.97,-1.336 3.814,-1.663 1.843,-0.327 2.825,-0.096 0.982,0.232 1.426,0.493 0.445,0.26 1.09,1.391 0.645,1.13 0.865,2.167 0.22,1.037 0.21,2.386 -0.01,1.348 -0.063,2.247 -0.054,0.899 -0.129,1.542 0.303,0.117 1.744,0.676 1.44,0.558 2.551,1.052 1.111,0.494 1.703,1.018 0.592,0.525 0.831,0.962 0.239,0.438 0.332,1.017 0.093,0.579 -0.093,1.471 -0.185,0.893 -1.808,2.162 -1.624,1.269 -4.409,1.931 -2.785,0.661 -5.09,0.437 -2.305,-0.225 -4.22,-0.905 -1.914,-0.68 -3.465,-1.816 l -1.151,-1.009" /><path
     id="STROKE_7fcef0af-2872-4b57-891d-fc17ad9b8c8f"
     opacity="1"
     fill="none"
     stroke="#f6f7ef"
     stroke-width="4"
     stroke-opacity="1"
     stroke-linecap="round"
     stroke-linejoin="round"
     d="m 5317.5954,532.35246 q -0.276,-0.032 -0.513,-0.072 -0.237,-0.04 -0.527,-0.064 -0.29,-0.025 -0.461,-0.01 -0.17,0.016 -0.589,0.102 -0.419,0.085 -0.884,0.285 -0.465,0.2 -0.779,0.485 -0.314,0.286 -0.438,0.519 -0.124,0.233 -0.153,0.618 -0.028,0.384 0.037,0.666 0.065,0.282 0.368,0.595 0.302,0.313 0.589,0.429 0.286,0.117 0.627,0.151 0.34,0.034 0.755,0.006 0.415,-0.029 0.929,-0.365 0.513,-0.337 0.786,-0.626 0.272,-0.289 0.527,-0.744 0.254,-0.455 0.379,-0.787 0.124,-0.332 0.131,-0.412 0.01,-0.08 0.267,-0.916" /><path
     id="STROKE_f63912d5-df65-48ce-8486-d3996365c418"
     opacity="1"
     fill="none"
     stroke="#f6f7ef"
     stroke-width="4"
     stroke-opacity="1"
     stroke-linecap="round"
     stroke-linejoin="round"
     d="m 5318.6464,482.24546 q -0.428,0.112 -0.505,0.101 -0.077,-0.011 -0.492,-0.15 -0.416,-0.139 -0.87,-0.182 -0.454,-0.042 -0.897,0.028 -0.442,0.07 -0.603,0.104 -0.161,0.033 -0.7,0.403 -0.54,0.37 -0.815,0.812 -0.275,0.443 -0.348,0.836 -0.072,0.393 0.03,0.745 0.102,0.351 0.431,0.629 0.33,0.278 0.83,0.459 0.499,0.181 0.828,0.17 0.328,-0.011 0.7,-0.157 0.371,-0.147 1.86,-2.068" /><path
     id="STROKE_5ac49e5c-f32f-4049-b4f8-e714cf190634"
     opacity="1"
     fill="none"
     stroke="#f6f7ef"
     stroke-width="4"
     stroke-opacity="1"
     stroke-linecap="round"
     stroke-linejoin="round"
     d="m 5317.2824,437.64446 q -0.191,-0.213 -0.747,-0.765 l -0.172,-0.143 q -0.401,-0.22 -0.774,-0.365 -0.372,-0.146 -0.657,-0.146 -0.286,-10e-4 -0.505,0.038 -0.219,0.039 -0.569,0.326 -0.351,0.287 -0.481,0.551 -0.13,0.264 -0.144,0.468 -0.014,0.204 0.676,0.808 0.689,0.604 0.893,0.677 0.204,0.072 0.355,0.094 0.152,0.022 0.429,0.022 0.278,-10e-4 2.559,-2.203" /><path
     id="STROKE_4aa7df43-4694-4c29-85f0-539ac54c2033"
     opacity="1"
     fill="none"
     stroke="#f6f7ef"
     stroke-width="4"
     stroke-opacity="1"
     stroke-linecap="round"
     stroke-linejoin="round"
     d="m 5317.7324,386.13946 q -0.032,-0.011 -0.726,0.472 -0.067,0.057 -0.457,-0.016 -0.391,-0.073 -0.567,-0.068 -0.176,0.004 -0.518,0.116 -0.341,0.111 -0.529,0.221 -0.188,0.11 -0.527,0.422 -0.339,0.312 -0.541,0.671 -0.203,0.359 -0.255,0.776 -0.052,0.417 0.064,0.768 0.116,0.352 0.282,0.541 0.165,0.19 0.5,0.385 0.337,0.196 0.696,0.259 0.358,0.064 0.931,-0.031 0.573,-0.094 2.235,-1.702" /><path
     id="STROKE_03bd2ae9-22e2-4189-8d0d-facee6d24a70"
     opacity="1"
     fill="none"
     stroke="#f6f7ef"
     stroke-width="4"
     stroke-opacity="1"
     stroke-linecap="round"
     stroke-linejoin="round"
     d="m 5317.0444,580.72846 q -0.117,-0.165 -0.218,-0.306 -0.13,-0.147 -0.357,-0.296 -0.226,-0.149 -0.699,-0.239 -0.473,-0.089 -0.936,-0.044 -0.463,0.046 -0.83,0.419 -0.367,0.374 -0.385,0.387 -0.018,0.012 -0.097,0.294 -0.079,0.282 -0.027,0.596 0.052,0.314 0.322,0.585 0.27,0.271 0.475,0.356 0.204,0.085 0.4,0.121 0.196,0.036 0.543,0.013 0.348,-0.024 0.497,-0.072 0.149,-0.048 0.461,-0.23 0.311,-0.182 1.677,-1.496" /><path
     id="STROKE_26db600f-887e-4c56-b381-99f66f03e3d2"
     opacity="1"
     fill="none"
     stroke="#f6f7ef"
     stroke-width="4"
     stroke-opacity="1"
     stroke-linecap="round"
     stroke-linejoin="round"
     d="m 5318.0954,627.41846 -0.302,-0.176 q -0.506,-0.211 -1.407,-0.518 -0.902,-0.307 -1.786,-0.378 -0.884,-0.071 -1.49,0.127 -0.606,0.198 -1.15,1.025 -0.544,0.827 -0.537,1.395 0.01,0.569 0.158,0.876 0.149,0.308 0.734,0.766 0.585,0.458 1.19,0.595 0.605,0.137 1.05,0.063 0.444,-0.073 0.842,-0.371 0.398,-0.297 2.06,-2.495" /><path
     id="STROKE_fee6341f-1cc2-4eb4-9509-90f00bef3221"
     opacity="1"
     fill="none"
     stroke="#f6f7ef"
     stroke-width="4"
     stroke-opacity="1"
     stroke-linecap="round"
     stroke-linejoin="round"
     d="m 5319.2854,676.06546 q -0.143,-0.108 -0.778,-0.819 -0.635,-0.711 -1.082,-1.075 -0.447,-0.364 -0.818,-0.525 -0.37,-0.16 -0.592,-0.215 -0.223,-0.055 -0.787,-0.047 -0.564,0.009 -0.939,0.177 -0.375,0.169 -0.514,0.288 -0.14,0.12 -0.247,0.203 -0.108,0.082 -0.318,0.514 -0.209,0.432 -0.264,0.721 -0.055,0.289 -0.021,0.683 0.035,0.395 0.117,0.633 0.082,0.239 0.394,0.655 0.312,0.416 0.786,0.695 0.473,0.279 0.968,0.36 0.495,0.08 0.844,0.03 0.349,-0.05 2.386,-1.553" /><path
     id="STROKE_42d0955d-1172-47c1-93e8-602df268abf4"
     opacity="1"
     fill="none"
     stroke="#f6f7ef"
     stroke-width="4"
     stroke-opacity="1"
     stroke-linecap="round"
     stroke-linejoin="round"
     d="m 5509.5224,340.89446 q -0.104,-0.124 -0.265,-0.69 -0.161,-0.566 -0.291,-0.925 -0.129,-0.359 -0.606,-0.841 -0.477,-0.483 -0.881,-0.655 -0.404,-0.171 -0.803,-0.153 -0.398,0.019 -0.977,0.641 -0.578,0.622 -0.754,1.223 -0.176,0.602 -0.161,0.912 0.016,0.31 0.1,0.486 0.085,0.177 0.381,0.482 0.296,0.305 0.628,0.465 0.332,0.16 0.682,0.176 0.35,0.016 1.545,0.103" /><path
     id="STROKE_1e9c0a38-7f33-4e1e-a818-7de1f1c94c43"
     opacity="1"
     fill="none"
     stroke="#f6f7ef"
     stroke-width="4"
     stroke-opacity="1"
     stroke-linecap="round"
     stroke-linejoin="round"
     d="m 5462.1254,340.85146 -0.131,-0.139 q -0.347,-0.274 -0.559,-0.479 -0.212,-0.206 -0.54,-0.426 -0.328,-0.22 -0.663,-0.342 -0.336,-0.123 -0.994,-0.173 -0.658,-0.049 -1.289,0.378 -0.632,0.427 -0.874,0.805 -0.243,0.378 -0.319,0.733 -0.076,0.355 -0.023,0.686 0.053,0.331 0.28,0.528 0.227,0.197 0.7,0.386 0.474,0.189 0.774,0.225 0.301,0.036 0.847,-0.019 0.547,-0.056 1.159,-0.445 0.612,-0.389 2.271,-1.998" /><path
     id="STROKE_9796fbcb-311c-4244-a992-bc1b069bf3a4"
     opacity="1"
     fill="none"
     stroke="#f6f7ef"
     stroke-width="4"
     stroke-opacity="1"
     stroke-linecap="round"
     stroke-linejoin="round"
     d="m 5415.3684,340.75546 -0.174,-0.211 -0.239,-0.267 q -0.678,-0.524 -0.973,-0.715 -0.295,-0.192 -0.758,-0.535 -0.464,-0.344 -0.995,-0.667 -0.532,-0.324 -1.218,-0.566 -0.686,-0.242 -1.624,-0.247 -0.938,-0.006 -1.28,0.105 -0.341,0.111 -0.889,0.525 -0.547,0.414 -0.676,0.661 -0.13,0.247 -0.199,0.595 -0.068,0.348 0.093,0.709 0.161,0.361 0.856,0.894 0.696,0.533 1.622,0.715 0.926,0.182 1.641,0.078 0.715,-0.104 1.643,-0.669 0.928,-0.566 2.757,-2.407" /><path
     id="STROKE_07e76c5d-142a-4ad0-b0ba-ef8bd004d686"
     opacity="1"
     fill="none"
     stroke="#f6f7ef"
     stroke-width="4"
     stroke-opacity="1"
     stroke-linecap="round"
     stroke-linejoin="round"
     d="m 5364.1044,340.48446 -0.096,-0.288 q -0.097,-0.051 -0.458,-0.529 -0.36,-0.478 -0.57,-0.744 -0.209,-0.266 -0.551,-0.526 -0.342,-0.261 -0.789,-0.365 -0.447,-0.104 -0.852,-0.025 -0.405,0.08 -0.663,0.308 -0.259,0.228 -0.378,0.466 -0.121,0.237 -0.172,0.655 -0.052,0.418 0.011,0.799 0.062,0.381 0.327,0.757 0.263,0.377 0.461,0.519 0.196,0.142 0.637,0.269 0.442,0.126 1.615,-0.14 1.173,-0.267 3.744,-1.698" /><path
     id="STROKE_c200cf80-5e38-4fb0-8998-4065eb4ee2a1"
     opacity="1"
     fill="none"
     stroke="#f6f7ef"
     stroke-width="4"
     stroke-opacity="1"
     stroke-linecap="round"
     stroke-linejoin="round"
     d="m 5557.2434,340.30046 -0.121,-0.137 q -0.583,-0.567 -0.733,-0.667 -0.15,-0.099 -0.197,-0.148 -0.047,-0.049 -1.043,-0.429 -0.996,-0.379 -1.833,-0.355 -0.837,0.024 -1.139,0.154 -0.301,0.13 -0.432,0.27 -0.132,0.14 -0.174,0.197 -0.042,0.058 -0.214,0.718 -0.171,0.659 -0.01,1.156 0.164,0.497 0.423,0.764 0.258,0.266 0.685,0.451 0.426,0.184 0.764,0.222 0.339,0.038 0.824,0.015 0.485,-0.024 1.258,-0.453 0.774,-0.429 2.302,-1.985" /><path
     id="STROKE_ddc5414a-15f4-45d9-ac3a-bf180f11471a"
     opacity="1"
     fill="none"
     stroke="#f6f7ef"
     stroke-width="4"
     stroke-opacity="1"
     stroke-linecap="round"
     stroke-linejoin="round"
     d="m 5605.3664,340.25646 q -0.119,-0.314 -0.177,-0.317 l -0.193,-0.14 -0.497,-0.371 q -0.151,-0.141 -1.034,-0.267 -0.882,-0.126 -1.476,-0.031 -0.594,0.095 -1.099,0.357 -0.504,0.261 -0.57,0.331 -0.067,0.07 -0.236,0.255 -0.168,0.185 -0.26,0.488 -0.091,0.302 0.072,0.662 0.163,0.359 0.693,0.731 0.53,0.372 1.304,0.521 0.773,0.149 1.276,0.103 0.502,-0.045 1.152,-0.25 0.65,-0.206 2.596,-1.477" /><path
     id="STROKE_974e7dea-249f-4fb4-a776-5c0907cef852"
     opacity="1"
     fill="none"
     stroke="#f6f7ef"
     stroke-width="4"
     stroke-opacity="1"
     stroke-linecap="round"
     stroke-linejoin="round"
     d="m 5652.8994,341.93546 q -0.31,-0.745 -0.578,-1.193 -0.268,-0.449 -0.519,-0.73 -0.25,-0.28 -0.506,-0.484 -0.256,-0.203 -0.895,-0.394 -0.639,-0.19 -1.103,-0.076 -0.464,0.115 -0.655,0.329 -0.192,0.214 -0.255,0.383 -0.062,0.17 -0.053,0.201 0.01,0.032 -0.01,0.203 -0.018,0.171 0.339,0.566 0.357,0.395 0.989,0.634 0.633,0.24 1.22,0.198 0.588,-0.042 3.024,-1.316" /><path
     id="STROKE_877f1ad9-29df-4267-b62c-486e66e8c535"
     opacity="1"
     fill="none"
     stroke="#f6f7ef"
     stroke-width="4"
     stroke-opacity="1"
     stroke-linecap="round"
     stroke-linejoin="round"
     d="m 5702.7124,385.50646 -0.336,0.074 q -0.163,0.061 -0.616,0.055 -0.454,-0.005 -1.052,0.023 -0.599,0.028 -1.483,0.21 -0.884,0.182 -1.51,0.494 -0.627,0.312 -1.021,0.966 -0.394,0.655 -0.432,1.458 -0.038,0.804 0.256,1.331 0.294,0.527 0.786,0.656 0.492,0.128 0.984,0.079 0.492,-0.05 1.109,-0.39 0.618,-0.34 0.999,-0.69 0.381,-0.349 1.315,-1.854" /><path
     id="STROKE_bab072fa-7ee9-40b1-8213-1b737231e22d"
     opacity="1"
     fill="none"
     stroke="#f6f7ef"
     stroke-width="4"
     stroke-opacity="1"
     stroke-linecap="round"
     stroke-linejoin="round"
     d="m 5703.4384,437.70246 q -0.449,-0.434 -0.726,-0.651 -0.277,-0.217 -0.569,-0.389 -0.291,-0.172 -0.755,-0.372 -0.464,-0.2 -0.715,-0.274 -0.252,-0.073 -0.843,-0.151 -0.592,-0.078 -1.056,-10e-4 -0.465,0.078 -0.602,0.19 -0.136,0.112 -0.247,0.253 -0.111,0.14 -0.174,0.463 -0.063,0.323 0.01,0.628 0.068,0.305 0.474,0.629 0.407,0.324 0.605,0.378 0.199,0.053 0.98,0.187 0.781,0.134 1.708,-0.014 0.927,-0.149 2.504,-0.876" /><path
     id="STROKE_2a1f01ec-18d4-4e8c-a335-25c9e7e32042"
     opacity="1"
     fill="none"
     stroke="#f6f7ef"
     stroke-width="4"
     stroke-opacity="1"
     stroke-linecap="round"
     stroke-linejoin="round"
     d="m 5703.2504,483.85046 q -0.156,-0.311 -0.479,-0.827 -0.091,-0.059 -0.342,-0.277 -0.252,-0.219 -0.604,-0.5 -0.352,-0.28 -0.845,-0.489 -0.493,-0.208 -0.929,-0.21 -0.435,-10e-4 -0.815,0.174 -0.379,0.176 -0.643,0.452 -0.263,0.277 -0.376,0.844 -0.113,0.567 0.031,0.997 0.143,0.429 0.441,0.749 0.297,0.32 0.606,0.452 0.309,0.133 1.005,0.178 0.695,0.046 3.188,-0.451" /><path
     id="STROKE_8fb3b9c5-2aa1-4423-a48a-bf09eda7d96a"
     opacity="1"
     fill="none"
     stroke="#f6f7ef"
     stroke-width="4"
     stroke-opacity="1"
     stroke-linecap="round"
     stroke-linejoin="round"
     d="m 5703.4884,530.63546 -0.437,0.062 -0.43,-0.057 q -0.611,-0.222 -1.456,-0.362 -0.846,-0.14 -1.549,-0.067 -0.703,0.072 -1.275,0.3 -0.571,0.228 -0.877,0.779 -0.304,0.551 -0.285,0.959 0.019,0.408 0.169,0.744 0.15,0.336 0.517,0.563 0.368,0.227 0.877,0.309 0.508,0.082 0.972,0.017 0.463,-0.064 0.806,-0.224 0.342,-0.159 2.33,-1.572" /><path
     id="STROKE_9c4f1646-e0e3-4bf8-a0ac-35a561466ebf"
     opacity="1"
     fill="none"
     stroke="#f6f7ef"
     stroke-width="4"
     stroke-opacity="1"
     stroke-linecap="round"
     stroke-linejoin="round"
     d="m 5704.3524,580.33146 q -0.063,-0.063 -0.324,-0.217 -0.26,-0.155 -1.338,-0.816 -1.077,-0.66 -1.933,-0.814 -0.855,-0.155 -1.472,-0.038 -0.618,0.116 -1.017,0.49 -0.399,0.375 -0.473,0.987 -0.073,0.613 0.084,1.016 0.158,0.402 0.329,0.593 0.172,0.191 0.375,0.342 0.204,0.15 0.594,0.289 0.39,0.138 0.942,0.177 0.552,0.04 1.01,-0.013 0.458,-0.052 2.81,-0.999" /><path
     id="STROKE_0faf8fcb-1b64-419f-a841-996c0a7a0c71"
     opacity="1"
     fill="none"
     stroke="#f6f7ef"
     stroke-width="4"
     stroke-opacity="1"
     stroke-linecap="round"
     stroke-linejoin="round"
     d="m 5704.3014,628.07046 q -0.149,-0.035 -0.911,-0.514 -0.761,-0.479 -1.906,-0.734 -1.145,-0.255 -1.688,-0.187 -0.542,0.067 -0.852,0.188 -0.31,0.122 -0.662,0.452 -0.353,0.331 -0.448,0.781 -0.094,0.45 -0.024,0.739 0.07,0.289 0.544,0.704 0.473,0.415 0.997,0.549 0.524,0.134 0.89,0.151 0.366,0.017 0.886,-0.181 0.519,-0.198 1.898,-0.908" /><path
     id="STROKE_83f192ec-4907-434d-abe1-b2d3ae385721"
     opacity="1"
     fill="none"
     stroke="#f6f7ef"
     stroke-width="4"
     stroke-opacity="1"
     stroke-linecap="round"
     stroke-linejoin="round"
     d="m 5704.7154,675.17046 q -0.085,-0.101 -0.318,-0.454 -0.233,-0.352 -0.581,-0.656 -0.347,-0.304 -1.59,-0.752 -1.243,-0.447 -1.893,-0.463 -0.651,-0.016 -1.498,0.308 -0.846,0.324 -1.032,1.701 -0.186,1.378 0.098,1.801 0.285,0.423 0.944,0.688 0.659,0.265 1.174,0.299 0.514,0.034 1.425,-0.291 0.91,-0.325 2.908,-1.543" /><path
     id="STROKE_66d4c069-6e91-4e10-a094-36d56bc5584f"
     opacity="1"
     fill="none"
     stroke="#f6f7ef"
     stroke-width="4"
     stroke-opacity="1"
     stroke-linecap="round"
     stroke-linejoin="round"
     d="m 5956.7815,384.34052 q -0.566,-1.378 -0.84,-1.85 -0.274,-0.472 -0.688,-0.795 -0.414,-0.323 -0.782,-0.434 -0.368,-0.111 -0.662,-0.113 -0.294,0 -0.565,0.082 -0.27,0.085 -0.547,0.307 -0.277,0.221 -0.438,0.698 -0.161,0.476 0.024,1.15 0.185,0.673 0.833,1.304 0.648,0.63 1.145,0.782 0.498,0.153 0.693,0.157 0.195,0 0.567,-0.111 0.372,-0.115 0.563,-0.246 0.191,-0.131 0.353,-0.244 0.161,-0.113 0.884,-0.687" /><path
     id="STROKE_b998a66c-c9a6-490b-88bf-f2ffc13a9a1e"
     opacity="1"
     fill="none"
     stroke="#f6f7ef"
     stroke-width="4"
     stroke-opacity="1"
     stroke-linecap="round"
     stroke-linejoin="round"
     d="m 5957.9365,432.31052 q -0.058,-0.042 -0.357,-0.26 -0.778,-1.4 -0.998,-1.69 -0.22,-0.29 -0.327,-0.366 -0.107,-0.076 -0.336,-0.14 -0.228,-0.063 -0.553,-0.035 -0.325,0.029 -0.555,0.215 -0.231,0.187 -0.438,0.82 -0.206,0.634 -0.161,1.006 0.045,0.372 0.131,0.62 0.087,0.248 0.397,0.53 0.31,0.282 0.697,0.397 0.387,0.116 0.619,0.083 0.233,-0.033 0.369,-0.099 0.136,-0.066 0.361,-0.242 0.225,-0.176 2.03,-2.881" /><path
     id="STROKE_8a1bea0f-9462-4974-a93b-7965e80058b7"
     opacity="1"
     fill="none"
     stroke="#f6f7ef"
     stroke-width="4"
     stroke-opacity="1"
     stroke-linecap="round"
     stroke-linejoin="round"
     d="m 5958.3605,479.70352 -0.061,-0.012 q -0.289,-0.089 -0.74,-0.416 -0.452,-0.326 -0.875,-0.556 -0.423,-0.229 -0.568,-0.288 -0.145,-0.06 -0.528,-0.105 -0.383,-0.045 -0.704,0.04 -0.321,0.085 -0.516,0.222 -0.196,0.136 -0.331,0.433 -0.135,0.297 -0.122,0.473 0.013,0.176 0.164,0.407 0.151,0.231 0.559,0.384 0.408,0.153 0.793,0.18 0.384,0.026 0.704,0.016 0.32,-0.01 1.949,-0.741" /><path
     id="STROKE_0f21b0d0-b6d0-43cd-8ae5-e3a20af0948e"
     opacity="1"
     fill="none"
     stroke="#f6f7ef"
     stroke-width="4"
     stroke-opacity="1"
     stroke-linecap="round"
     stroke-linejoin="round"
     d="m 5958.3175,525.86052 q -0.262,0.001 -0.405,-0.027 -0.143,-0.028 -0.444,-0.05 -0.301,-0.021 -0.715,0.039 -0.413,0.06 -0.614,0.156 -0.202,0.095 -0.333,0.206 -0.131,0.111 -0.231,0.226 -0.1,0.115 -0.209,0.295 -0.109,0.179 -0.172,0.619 -0.062,0.44 0.034,0.621 0.096,0.18 0.358,0.311 0.262,0.13 0.535,0.086 0.272,-0.045 1.741,-1.638" /><path
     id="STROKE_7459c41e-2883-46d0-afc1-8c6873846f3e"
     opacity="1"
     fill="none"
     stroke="#f6f7ef"
     stroke-width="4"
     stroke-opacity="1"
     stroke-linecap="round"
     stroke-linejoin="round"
     d="m 5957.3215,574.71152 -0.644,-0.14 q -0.456,-0.233 -0.599,-0.276 -0.143,-0.043 -0.488,-0.039 -0.344,0 -0.597,0.105 -0.253,0.1 -0.473,0.399 -0.22,0.299 -0.241,0.627 -0.02,0.327 0.102,0.568 0.123,0.241 0.472,0.467 0.35,0.226 0.654,0.248 0.305,0.023 0.537,-0.067 0.231,-0.09 1.5,-2.011" /><path
     id="STROKE_82646d67-1649-43b4-a736-93df976e1571"
     opacity="1"
     fill="none"
     stroke="#f6f7ef"
     stroke-width="4"
     stroke-opacity="1"
     stroke-linecap="round"
     stroke-linejoin="round"
     d="m 5957.4705,623.40652 q -0.051,0 -0.219,-0.01 -0.187,-0.228 -0.534,-0.495 -0.346,-0.267 -0.57,-0.336 -0.223,-0.069 -0.499,-0.052 -0.276,0.018 -0.508,0.176 -0.232,0.157 -0.351,0.381 -0.118,0.225 -0.118,0.58 0,0.356 0.077,0.486 0.077,0.129 0.382,0.301 0.306,0.171 0.647,0.201 0.341,0.03 0.679,-0.064 0.338,-0.094 1.48,-0.514" /><path
     id="STROKE_d56643fd-e41e-4774-a2c2-3cb1a01c7255"
     opacity="1"
     fill="none"
     stroke="#f6f7ef"
     stroke-width="4"
     stroke-opacity="1"
     stroke-linecap="round"
     stroke-linejoin="round"
     d="m 5957.3215,670.10352 -0.21,0.012 q -0.849,-0.564 -1.011,-0.641 -0.163,-0.078 -0.26,-0.107 -0.096,-0.029 -0.355,-0.045 -0.26,-0.015 -0.527,0.064 -0.267,0.078 -0.477,0.286 -0.211,0.207 -0.292,0.46 -0.081,0.253 -0.023,0.521 0.059,0.268 0.366,0.476 0.307,0.207 0.601,0.282 0.295,0.074 0.506,0.074 0.211,0.001 0.582,-0.107 0.372,-0.108 2.404,-2.925" /><path
     id="STROKE_2a36af22-d18d-4b4f-960f-784d1ccbaba6"
     opacity="1"
     fill="none"
     stroke="#f6f7ef"
     stroke-width="4"
     stroke-opacity="1"
     stroke-linecap="round"
     stroke-linejoin="round"
     d="m 6006.3445,381.64752 q 0,-0.01 -0.221,-0.258 l -0.017,-0.031 -0.076,-0.084 q -0.164,-0.127 -0.345,-0.139 -0.182,-0.011 -0.596,0.288 -0.413,0.298 -0.514,0.614 -0.102,0.316 -0.086,0.575 0.015,0.26 0.182,0.444 0.166,0.184 0.48,0.306 0.313,0.123 0.564,0.118 0.252,0 0.408,-0.084 0.157,-0.079 1.768,-3.518" /><path
     id="STROKE_ab666baf-a452-4056-9cc2-675d4c62a03b"
     opacity="1"
     fill="none"
     stroke="#f6f7ef"
     stroke-width="4"
     stroke-opacity="1"
     stroke-linecap="round"
     stroke-linejoin="round"
     d="m 6055.2615,431.11952 q -0.076,-0.207 -0.363,-1.12 -0.287,-0.912 -0.41,-1.121 -0.122,-0.209 -0.383,-0.426 -0.261,-0.217 -0.483,-0.289 -0.221,-0.071 -0.561,-0.058 -0.339,0.013 -0.507,0.267 -0.168,0.255 -0.17,0.393 0,0.138 -0.01,0.228 -0.01,0.089 0.162,0.42 0.168,0.332 0.628,0.61 0.461,0.278 0.753,0.339 0.292,0.061 0.641,0.053 0.35,-0.01 2.046,-0.798" /><path
     id="STROKE_4de323f9-febf-466d-88bb-ea913f6c6b59"
     opacity="1"
     fill="none"
     stroke="#f6f7ef"
     stroke-width="4"
     stroke-opacity="1"
     stroke-linecap="round"
     stroke-linejoin="round"
     d="m 6103.4475,478.08352 -0.119,-0.102 -0.568,-0.394 q -0.805,-0.365 -1.602,-0.511 -0.797,-0.146 -1.354,-0.039 -0.557,0.106 -1.017,0.509 -0.46,0.403 -0.557,0.843 -0.097,0.441 -0.032,0.826 0.065,0.385 0.339,0.761 0.273,0.376 0.61,0.607 0.337,0.232 0.798,0.321 0.462,0.088 0.743,0.045 0.282,-0.044 0.621,-0.21 0.338,-0.167 0.861,-0.803 0.524,-0.635 0.69,-1.389 0.167,-0.754 0.099,-1.085 -0.067,-0.331 -0.138,-0.472 -0.07,-0.142 -0.394,-0.413 -0.325,-0.27 -0.53,-0.334 -0.205,-0.063 -1.068,-0.048" /><path
     id="STROKE_61d33b07-2d0e-4ffd-ab61-5067021b2b54"
     opacity="1"
     fill="none"
     stroke="#f6f7ef"
     stroke-width="4"
     stroke-opacity="1"
     stroke-linecap="round"
     stroke-linejoin="round"
     d="m 6150.6255,527.85852 q -0.161,-0.715 -0.227,-1.112 l -0.074,-0.284 -0.153,-0.369 q -0.268,-0.527 -0.632,-0.899 -0.364,-0.372 -0.822,-0.577 -0.458,-0.205 -1.117,-0.222 -0.659,-0.016 -1.249,0.353 -0.589,0.37 -0.769,0.736 -0.179,0.366 -0.182,0.626 0,0.259 0.249,0.595 0.251,0.335 0.681,0.502 0.43,0.167 1.113,0.24 0.683,0.073 1.051,0.041 0.367,-0.033 0.83,-0.149 0.463,-0.117 0.96,-0.299 0.496,-0.181 2.429,-1.335" /><path
     id="STROKE_80fa3b49-0107-4465-aafb-1ece35ad8549"
     opacity="1"
     fill="none"
     stroke="#f6f7ef"
     stroke-width="4"
     stroke-opacity="1"
     stroke-linecap="round"
     stroke-linejoin="round"
     d="m 6199.1615,574.17152 -0.043,-0.149 -0.134,-0.408 q -0.382,-0.714 -0.747,-1.051 -0.366,-0.337 -0.651,-0.511 -0.284,-0.174 -0.742,-0.336 -0.457,-0.162 -1.092,-0.158 -0.634,0 -0.928,0.085 -0.294,0.08 -0.6,0.308 -0.307,0.229 -0.466,0.52 -0.159,0.291 -0.19,0.88 -0.03,0.589 0.352,1.19 0.383,0.602 1.346,0.898 0.963,0.297 1.853,0.174 0.889,-0.122 1.89,-0.62 1.001,-0.497 2.112,-1.362" /><path
     id="STROKE_5fc81965-9d28-494f-a0a6-9e86a55dad62"
     opacity="1"
     fill="none"
     stroke="#f6f7ef"
     stroke-width="4"
     stroke-opacity="1"
     stroke-linecap="round"
     stroke-linejoin="round"
     d="m 6246.5805,622.25652 q -0.056,-0.037 -0.208,-0.226 l -0.141,-0.151 q -0.367,-0.295 -0.827,-0.527 -0.461,-0.232 -1.071,-0.307 -0.609,-0.076 -1.078,0.025 -0.469,0.1 -0.806,0.417 -0.338,0.317 -0.453,0.89 -0.116,0.573 -0.042,0.892 0.073,0.319 0.415,0.642 0.341,0.323 0.96,0.465 0.618,0.143 1.328,0 0.711,-0.143 1.539,-0.838 0.828,-0.694 2.122,-2.71" /><path
     id="STROKE_afa1ef4d-3350-4dcf-8178-bbc9eace42d6"
     opacity="1"
     fill="none"
     stroke="#f6f7ef"
     stroke-width="4"
     stroke-opacity="1"
     stroke-linecap="round"
     stroke-linejoin="round"
     d="m 6294.9985,668.83552 -0.899,0.18 q -0.046,0.011 -0.24,-0.101 -0.193,-0.112 -0.407,-0.192 -0.215,-0.08 -0.444,-0.123 -0.228,-0.044 -0.7,-0.013 -0.472,0.03 -0.928,0.303 -0.455,0.272 -0.671,0.727 -0.214,0.455 -0.204,0.849 0.011,0.394 0.048,0.52 0.037,0.126 0.305,0.494 0.268,0.367 0.772,0.549 0.504,0.181 1.087,0.184 0.584,0 1.663,-0.461 1.079,-0.465 2.621,-1.954" /><path
     id="STROKE_db9cb4b3-5f82-4bcf-befd-bfae678b3c66"
     opacity="1"
     fill="none"
     stroke="#f6f7ef"
     stroke-width="4"
     stroke-opacity="1"
     stroke-linecap="round"
     stroke-linejoin="round"
     d="m 6342.1465,671.56652 q -0.373,-0.555 -0.685,-0.957 -0.312,-0.401 -0.748,-0.544 -0.435,-0.142 -0.667,-0.131 -0.232,0.011 -0.332,0.087 -0.1,0.076 -0.142,0.264 -0.042,0.187 0.01,0.345 0.051,0.158 0.252,0.317 0.201,0.16 0.555,0.226 0.354,0.066 0.582,0.058 0.229,-0.01 0.722,-0.161 0.493,-0.154 1.493,-0.622" /><path
     id="STROKE_0e47cc3f-571b-4488-94ea-20f90a9f4e3f"
     opacity="1"
     fill="none"
     stroke="#f6f7ef"
     stroke-width="4"
     stroke-opacity="1"
     stroke-linecap="round"
     stroke-linejoin="round"
     d="m 6342.2945,622.48552 -0.401,0.301 q -0.233,-0.132 -0.428,-0.194 -0.195,-0.062 -0.402,-0.047 -0.208,0.015 -0.418,0.093 -0.21,0.079 -0.297,0.15 -0.087,0.072 -0.285,0.397 -0.198,0.325 -0.289,0.64 -0.09,0.316 -0.11,0.692 -0.02,0.377 0.126,0.839 0.147,0.463 0.455,0.693 0.308,0.23 0.564,0.231 0.256,0 0.5,-0.145 0.245,-0.144 1.791,-2.495" /><path
     id="STROKE_19be9a5c-d1e5-4f71-9d98-5510fa087d2e"
     opacity="1"
     fill="none"
     stroke="#f6f7ef"
     stroke-width="4"
     stroke-opacity="1"
     stroke-linecap="round"
     stroke-linejoin="round"
     d="m 6342.9095,573.82752 q -0.302,0.154 -0.566,-0.128 -0.263,-0.281 -0.416,-0.326 -0.153,-0.046 -0.272,-0.056 -0.119,-0.011 -0.296,0.024 -0.177,0.036 -0.299,0.1 -0.123,0.064 -0.229,0.199 -0.105,0.135 -0.15,0.249 -0.044,0.115 -0.058,0.2 -0.013,0.085 -0.034,0.318 -0.021,0.233 0.115,0.483 0.134,0.25 0.291,0.385 0.156,0.134 0.361,0.219 0.205,0.084 0.36,0.071 0.154,-0.013 1.278,-0.199" /><path
     id="STROKE_5d9d1db0-ac1f-47b8-83b5-5534ea222c95"
     opacity="1"
     fill="none"
     stroke="#f6f7ef"
     stroke-width="4"
     stroke-opacity="1"
     stroke-linecap="round"
     stroke-linejoin="round"
     d="m 6342.9095,527.51552 q 0.045,-0.25 0.053,-0.495 0.01,-0.246 -0.13,-0.941 -0.138,-0.695 -0.351,-0.984 -0.212,-0.289 -0.301,-0.366 -0.089,-0.076 -0.505,-0.207 -0.416,-0.13 -0.717,-0.094 -0.301,0.037 -0.463,0.151 -0.164,0.115 -0.335,0.621 -0.172,0.507 -0.051,1.008 0.121,0.501 0.4,0.88 0.28,0.379 0.668,0.586 0.388,0.207 0.707,0.208 0.319,0 0.627,-0.142 0.307,-0.142 1.67,-1.232" /><path
     id="STROKE_a07a3219-708e-4e45-bf37-34db4b745483"
     opacity="1"
     fill="none"
     stroke="#f6f7ef"
     stroke-width="4"
     stroke-opacity="1"
     stroke-linecap="round"
     stroke-linejoin="round"
     d="m 6343.3015,479.71752 q -0.041,-0.059 -0.109,-0.182 -0.068,-0.123 -0.153,-0.239 -0.084,-0.117 -0.1,-0.145 -0.015,-0.028 -0.188,-0.181 -0.173,-0.153 -0.526,-0.314 -0.353,-0.162 -1.079,-0.241 -0.726,-0.079 -1.127,0.013 -0.401,0.092 -0.695,0.34 -0.294,0.248 -0.387,0.561 -0.092,0.312 0.023,0.65 0.116,0.337 0.206,0.437 0.09,0.099 0.313,0.242 0.223,0.144 0.422,0.205 0.199,0.061 0.688,0.073 0.489,0.012 0.782,-0.074 0.292,-0.086 0.831,-0.493 0.538,-0.407 1.915,-2.88" /><path
     id="STROKE_5024cd9e-e3de-4c39-b355-8e6e777fffe3"
     opacity="1"
     fill="none"
     stroke="#f6f7ef"
     stroke-width="4"
     stroke-opacity="1"
     stroke-linecap="round"
     stroke-linejoin="round"
     d="m 6344.6155,431.79152 -0.184,-0.324 -0.185,-0.244 q -0.361,-0.388 -0.779,-0.769 -0.418,-0.381 -1.287,-0.783 -0.87,-0.401 -1.593,-0.414 -0.722,-0.013 -1.08,0.098 -0.357,0.112 -0.576,0.327 -0.219,0.216 -0.311,0.373 -0.093,0.156 -0.175,0.767 -0.083,0.611 0.065,1.034 0.148,0.423 0.566,0.729 0.418,0.306 1.074,0.392 0.656,0.086 1.315,-0.134 0.659,-0.22 1.173,-0.684 0.513,-0.464 1.394,-1.752" /><path
     id="STROKE_89efc2f3-6a4f-427e-b787-2d17d8f5d925"
     opacity="1"
     fill="none"
     stroke="#f6f7ef"
     stroke-width="4"
     stroke-opacity="1"
     stroke-linecap="round"
     stroke-linejoin="round"
     d="m 6344.3085,383.43652 q -0.062,-0.065 -0.095,-0.292 -0.032,-0.227 -0.066,-0.393 -0.034,-0.165 -0.283,-0.591 -0.248,-0.426 -0.565,-0.721 -0.316,-0.295 -0.901,-0.486 -0.585,-0.191 -1.212,-0.141 -0.627,0.05 -1.054,0.344 -0.426,0.293 -0.575,0.497 -0.148,0.204 -0.195,0.338 -0.048,0.134 0.022,0.714 0.07,0.579 1.054,0.965 0.985,0.387 1.764,0.32 0.779,-0.066 1.42,-0.292 0.642,-0.226 2.339,-1.994" /></g></svg>
