<?xml version="1.0" encoding="UTF-8" standalone="no"?>
<svg
   version="1.1"
   xml:space="preserve"
   x="0px"
   y="0px"
   viewBox="0 0 960 480"
   id="svg1"
   sodipodi:docname="bezier-quadratic-1.svg"
   inkscape:version="1.3.2 (091e20ef0f, 2023-11-25, custom)"
   xmlns:inkscape="http://www.inkscape.org/namespaces/inkscape"
   xmlns:sodipodi="http://sodipodi.sourceforge.net/DTD/sodipodi-0.dtd"
   xmlns="http://www.w3.org/2000/svg"
   xmlns:svg="http://www.w3.org/2000/svg"><defs
   id="defs1" /><sodipodi:namedview
   id="namedview1"
   pagecolor="#505050"
   bordercolor="#eeeeee"
   borderopacity="1"
   inkscape:showpageshadow="0"
   inkscape:pageopacity="0"
   inkscape:pagecheckerboard="0"
   inkscape:deskcolor="#d1d1d1"
   inkscape:zoom="0.98333334"
   inkscape:cx="374.23729"
   inkscape:cy="644.23728"
   inkscape:window-width="2560"
   inkscape:window-height="1600"
   inkscape:window-x="0"
   inkscape:window-y="0"
   inkscape:window-maximized="0"
   inkscape:current-layer="Quadratic_1"
   showgrid="false" />
<g
   id="Quadratic_1"
   opacity="1"
   transform="matrix(0.72886669,0,0,0.72886669,-1646.0459,238.1165)"><path
     id="STROKE_3b91fad5-47d9-4946-ab79-6bd044a91a8d"
     opacity="0.5"
     fill="none"
     stroke="#f6f7ef"
     stroke-width="2"
     stroke-opacity="1"
     stroke-linecap="round"
     stroke-linejoin="round"
     d="M 2328.827,35.020199 2549.079,-100.0258" /><path
     id="STROKE_5e32cec4-5b02-4814-8703-d4f4713a3823"
     opacity="0.5"
     fill="none"
     stroke="#f6f7ef"
     stroke-width="2"
     stroke-opacity="1"
     stroke-linecap="round"
     stroke-linejoin="round"
     d="M 2563.046,-95.732801 2650.044,124.7612" /><path
     id="STROKE_fe9bd977-3367-4c21-9bf1-d761c65c8d60"
     opacity="0.5"
     fill="none"
     stroke="#f6f7ef"
     stroke-width="2"
     stroke-opacity="1"
     stroke-linecap="round"
     stroke-linejoin="round"
     d="M 2758.5555,32.595202 2978.8065,-102.4508" /><path
     id="STROKE_c6bbd5d3-4786-4f4f-934a-38f48e410847"
     opacity="0.5"
     fill="none"
     stroke="#f6f7ef"
     stroke-width="2"
     stroke-opacity="1"
     stroke-linecap="round"
     stroke-linejoin="round"
     d="m 2992.7745,-98.158798 86.997,220.494998" /><path
     id="STROKE_d671b320-e535-4649-b3ea-05b59ac28e4f"
     opacity="0.5"
     fill="none"
     stroke="#f6f7ef"
     stroke-width="2"
     stroke-opacity="1"
     stroke-linecap="round"
     stroke-linejoin="round"
     d="m 3161.7544,17.415306 220.252,-135.044996" /><path
     id="STROKE_79692844-87d5-4cf4-861e-af508ad8784e"
     opacity="0.5"
     fill="none"
     stroke="#f6f7ef"
     stroke-width="2"
     stroke-opacity="1"
     stroke-linecap="round"
     stroke-linejoin="round"
     d="m 3395.9734,-113.33769 86.998,220.495" /><path
     id="STROKE_e75c299e-620c-464d-b731-803813bc91e8"
     opacity="1"
     fill="none"
     stroke="#e66465"
     stroke-width="4"
     stroke-opacity="1"
     stroke-linecap="round"
     stroke-linejoin="round"
     d="m 2564.329,-102.9538 -0.188,-0.545 q -0.037,-0.143 -0.269,-1.74 -0.232,-1.596 -0.582,-2.404 -0.351,-0.807 -1.014,-1.533 -0.663,-0.725 -1.493,-0.987 -0.829,-0.261 -1.762,-0.039 -0.933,0.223 -1.862,0.972 -0.929,0.75 -1.297,1.249 -0.368,0.499 -0.671,1.123 -0.302,0.624 -0.49,1.596 -0.189,0.972 -0.138,1.92 0.05,0.948 0.157,1.316 0.106,0.369 0.276,0.675 0.169,0.307 0.722,0.891 0.553,0.583999 1.033,0.824999 0.479,0.241 0.759,0.306 0.279,0.065 0.73,0.09 0.451,0.024 1.52,-0.33 1.068,-0.355 3.84,-1.954999" /><path
     id="STROKE_a4943510-2a32-44f9-909b-1311529e3698"
     opacity="1"
     fill="none"
     stroke="#e66465"
     stroke-width="4"
     stroke-opacity="1"
     stroke-linecap="round"
     stroke-linejoin="round"
     d="m 2661.334,137.5172 -0.377,-0.357 q -0.243,-0.246 -0.737,-1.459 -0.494,-1.214 -0.905,-1.967 -0.412,-0.753 -1.122,-1.441 -0.71,-0.688 -1.926,-1.138 -1.217,-0.45 -2.261,-0.403 -1.044,0.047 -1.942,0.591 -0.897,0.544 -1.199,0.919 -0.301,0.375 -0.56,1.128 -0.259,0.754 -0.305,1.381 -0.047,0.626 0.315,1.812 0.362,1.186 0.926,1.85 0.564,0.664 1.094,1.003 0.529,0.338 1.279,0.531 0.75,0.193 1.658,0.202 0.909,0.009 1.221,-0.07 0.313,-0.079 0.577,-0.133 0.264,-0.053 1.642,-0.878 1.379,-0.824 2.999,-2.913 l 0.983,-1.671" /><path
     id="STROKE_ac456b97-bfbd-46bd-b22c-6f1a59a1795e"
     opacity="1"
     fill="none"
     stroke="#e66465"
     stroke-width="4"
     stroke-opacity="1"
     stroke-linecap="round"
     stroke-linejoin="round"
     d="m 2324.391,43.096199 q -0.072,-0.111 -0.401,-1.713 -0.329,-1.601 -0.831,-2.82 -0.503,-1.22 -0.866,-1.757 -0.363,-0.537 -0.667,-0.878 -0.305,-0.341 -0.528,-0.498 -0.222,-0.158 -0.27,-0.226 -0.047,-0.068 -2.9,-0.148 -2.853,-0.079 -3.304,0.27 -0.45,0.349 -0.879,1.005 -0.428,0.655 -0.778,2.041 -0.35,1.386 -0.224,2.28 0.126,0.894 0.361,1.454 0.235,0.559 1.649,1.351 1.415,0.792 2.486,0.952 1.07,0.16 1.623,0.176 0.553,0.016 1.609,-0.096 1.056,-0.111 1.765,-0.324 0.709,-0.212 3.022,-1.289" /><path
     id="STROKE_3d85b522-931a-4105-9e39-94a083eec25c"
     opacity="1"
     fill="none"
     stroke="#e66465"
     stroke-width="4"
     stroke-opacity="1"
     stroke-linecap="round"
     stroke-linejoin="round"
     d="m 2274.923,-7.5738006 -0.419,1.162 -0.091,0.723 q -0.21,0.613 1.682,25.6879996 l 0.404,-0.374" /><path
     id="STROKE_dd91d62b-6b03-4437-be96-58875246c11c"
     opacity="1"
     fill="none"
     stroke="#e66465"
     stroke-width="4"
     stroke-opacity="1"
     stroke-linecap="round"
     stroke-linejoin="round"
     d="m 2274.411,-7.2158006 q 0.037,-0.066 0.325,-0.8 1.017,-1.425 1.434,-1.704 0.416,-0.279 1.036,-0.4730004 0.62,-0.194 1.5,-0.028 0.88,0.165 1.493,0.5350004 0.612,0.37 1.31,0.941 0.698,0.57 1.536,1.624 0.837,1.054 1.458,2.571 0.622,1.517 0.69,2.778 0.069,1.26100002 -0.296,2.66400002 -0.365,1.40399998 -1.53,3.03299998 -1.166,1.629 -2.25,2.462 -1.084,0.833 -1.942,1.208 -0.859,0.375 -1.376,0.495 -0.517,0.121 -1.061,0.083 l -0.21,0.125 -0.324,0.225" /><path
     id="STROKE_4dc2449f-0ded-4a0a-9d6d-e9593db4bd14"
     opacity="1"
     fill="none"
     stroke="#e66465"
     stroke-width="4"
     stroke-opacity="1"
     stroke-linecap="round"
     stroke-linejoin="round"
     d="m 2299.844,21.483199 q -0.096,-0.323 -0.3,-0.843 -0.205,-0.519 -0.634,-1.395 -0.429,-0.876 -0.959,-1.608 -0.53,-0.732 -0.764,-0.992 -0.234,-0.26 -0.859,-0.779 -0.626,-0.519 -1.726,-0.831 -1.101,-0.312 -1.95,-0.194 -0.849,0.117 -1.527,0.7 -0.679,0.582 -1.07,1.655 -0.391,1.074 -0.247,1.973 0.144,0.899 0.801,1.611 0.656,0.712 1.393,1.034 0.737,0.323 1.223,0.387 0.487,0.064 1.122,0.002 0.634,-0.062 0.974,-0.193 0.339,-0.131 4.582,-2.962" /><path
     id="STROKE_f53ce225-7052-4f9d-bc7e-4125b0b79806"
     opacity="1"
     fill="none"
     stroke="#e66465"
     stroke-width="4"
     stroke-opacity="1"
     stroke-linecap="round"
     stroke-linejoin="round"
     d="m 2569.347,-153.9968 0.168,0.769 q -0.029,0.128 0.631,7.588 0.659,7.459 2.149,16.416 0.159,0.316 0.421,1.339" /><path
     id="STROKE_5d35359c-08c0-492d-875c-d23625c6e948"
     opacity="1"
     fill="none"
     stroke="#e66465"
     stroke-width="4"
     stroke-opacity="1"
     stroke-linecap="round"
     stroke-linejoin="round"
     d="m 2569.622,-154.7808 q 0.31,-0.391 0.833,-0.943 0.523,-0.552 1.56,-1.002 1.038,-0.449 1.943,-0.551 0.906,-0.102 1.864,0.019 0.958,0.121 2.483,1.379 1.525,1.258 2.219,2.468 0.694,1.21 1.081,3.315 0.387,2.106 -0.014,4.096 -0.4,1.99 -1.376,3.466 -0.976,1.475 -2.27,2.57 -1.294,1.096 -4.484,2.047 -0.197,-0.02 -1.258,0.168" /><path
     id="STROKE_d01d5ca4-1b7d-4cf2-a3da-3b13a4cfa12c"
     opacity="1"
     fill="none"
     stroke="#e66465"
     stroke-width="4"
     stroke-opacity="1"
     stroke-linecap="round"
     stroke-linejoin="round"
     d="m 2588.614,-127.5958 q 0.805,-0.689 0.821,-0.731 0.017,-0.043 1.271,-1.656 1.254,-1.613 2.305,-3.024 0,0.04 0.331,1.686 0.329,1.647 1.901,7.305 l 0.739,2.006" /><path
     id="STROKE_f973d1f1-3f3c-4d86-81d6-ddd02f843742"
     opacity="1"
     fill="none"
     stroke="#e66465"
     stroke-width="4"
     stroke-opacity="1"
     stroke-linecap="round"
     stroke-linejoin="round"
     d="m 2677.246,148.0122 v 0.565 q -0.228,1.67 0.471,8.14 0.699,6.471 1.763,12.821 1.064,6.35 1.978,11.949 0.086,0.172 0.296,1.236" /><path
     id="STROKE_4eec9a64-f706-4241-83f2-f38220b61e63"
     opacity="1"
     fill="none"
     stroke="#e66465"
     stroke-width="4"
     stroke-opacity="1"
     stroke-linecap="round"
     stroke-linejoin="round"
     d="m 2678.172,154.2312 0.34,-0.652 q 0.528,-1.109 1.075,-1.988 0.548,-0.879 1.011,-1.356 0.463,-0.478 1.405,-1.093 0.943,-0.615 2.777,-0.996 1.833,-0.381 2.845,-0.26 1.012,0.122 1.836,0.497 0.823,0.374 1.969,1.423 1.146,1.05 1.927,2.912 0.781,1.863 0.91,2.936 0.128,1.073 0.037,2.5 -0.092,1.427 -0.91,3.414 -0.817,1.986 -2.042,3.386 -1.224,1.401 -2.647,2.061 -1.422,0.661 -2.185,0.767 -0.763,0.105 -1.275,0.06 -0.512,-0.046 -0.956,-0.281 -0.444,-0.236 -1.822,-1.375" /><path
     id="STROKE_baabadeb-95fe-4e82-856c-6517c3c8ea4b"
     opacity="1"
     fill="none"
     stroke="#e66465"
     stroke-width="4"
     stroke-opacity="1"
     stroke-linecap="round"
     stroke-linejoin="round"
     d="m 2700.375,178.0732 q 0,-0.612 -0.01,-0.749 l 0.35,-0.807 q 0.246,-0.393 1.571,-1.363 1.326,-0.97 2.49,-1.176 1.165,-0.205 1.797,-0.058 0.631,0.146 0.881,0.305 0.25,0.159 0.399,0.389 0.149,0.23 0.442,1.24 0.294,1.01 -0.254,3.328 -0.547,2.317 -1.272,3.963 -0.725,1.646 -1.124,2.559 -0.399,0.913 -0.527,1.283 -0.129,0.37 -0.227,0.595 0.161,0.029 0.449,0.074 0.288,0.045 0.32,0.041 0.033,-0.004 2.62,-0.025 2.587,-0.02 7.865,-0.658 l 2.058,0.07" /><path
     id="STROKE_66537dcf-5919-4eba-a9fc-489b32d90a74"
     opacity="1"
     fill="none"
     stroke="#e66465"
     stroke-width="4"
     stroke-opacity="1"
     stroke-linecap="round"
     stroke-linejoin="round"
     d="m 2994.0565,-105.3798 -0.187,-0.545 q -0.038,-0.142 -0.269,-1.739 -0.232,-1.597 -0.583,-2.404 -0.35,-0.808 -1.014,-1.533 -0.663,-0.726 -1.492,-0.987 -0.83,-0.261 -1.763,-0.039 -0.933,0.222 -1.862,0.972 -0.929,0.749 -1.296,1.249 -0.368,0.499 -0.671,1.123 -0.303,0.624 -0.491,1.596 -0.188,0.971 -0.138,1.919 0.051,0.949 0.157,1.317 0.107,0.369 0.276,0.675 0.17,0.306 0.723,0.89 0.553,0.584 1.032,0.826 0.48,0.241 0.759,0.306 0.28,0.065 0.731,0.089 0.451,0.025 1.52,-0.33 1.068,-0.354 3.84,-1.954" /><path
     id="STROKE_bd1a9861-b27c-42a1-8189-342f8fc12cac"
     opacity="1"
     fill="none"
     stroke="#e66465"
     stroke-width="4"
     stroke-opacity="1"
     stroke-linecap="round"
     stroke-linejoin="round"
     d="m 3091.0625,135.0912 -0.377,-0.356 q -0.244,-0.246 -0.737,-1.46 -0.494,-1.213 -0.906,-1.966 -0.411,-0.753 -1.121,-1.441 -0.71,-0.688 -1.927,-1.138 -1.216,-0.45 -2.261,-0.403 -1.044,0.047 -1.941,0.591 -0.898,0.544 -1.199,0.919 -0.302,0.375 -0.56,1.128 -0.259,0.754 -0.306,1.38 -0.047,0.627 0.315,1.813 0.362,1.186 0.927,1.85 0.564,0.664 1.093,1.002 0.53,0.339 1.28,0.532 0.749,0.193 1.658,0.202 0.908,0.009 1.221,-0.07 0.312,-0.08 0.576,-0.133 0.264,-0.054 1.643,-0.878 1.378,-0.824 2.999,-2.914 l 0.982,-1.671" /><path
     id="STROKE_aea484fb-fd52-4a9f-927c-3b2037dc2efd"
     opacity="1"
     fill="none"
     stroke="#e66465"
     stroke-width="4"
     stroke-opacity="1"
     stroke-linecap="round"
     stroke-linejoin="round"
     d="m 2754.1195,40.671202 q -0.072,-0.111 -0.401,-1.713 -0.329,-1.601 -0.831,-2.821 -0.503,-1.219 -0.866,-1.756 -0.363,-0.537 -0.667,-0.878 -0.305,-0.341 -0.528,-0.499 -0.222,-0.157 -0.27,-0.225 -0.048,-0.068 -2.901,-0.148 -2.853,-0.079 -3.303,0.27 -0.45,0.349 -0.879,1.004 -0.428,0.656 -0.778,2.042 -0.35,1.386 -0.225,2.28 0.126,0.894 0.361,1.453 0.235,0.559 1.65,1.352 1.415,0.792 2.486,0.952 1.07,0.16 1.623,0.176 0.553,0.015 1.609,-0.096 1.056,-0.111 1.765,-0.324 0.709,-0.212 3.022,-1.289" /><path
     id="STROKE_4087d35b-beba-4a68-8291-cc3b4592032d"
     opacity="1"
     fill="none"
     stroke="#e66465"
     stroke-width="4"
     stroke-opacity="1"
     stroke-linecap="round"
     stroke-linejoin="round"
     d="m 2704.6515,-9.9987975 -0.419,1.162 -0.091,0.723 q -0.21,0.613 1.682,25.6879995 l 0.404,-0.374" /><path
     id="STROKE_8b2b6d8d-b12b-45fc-ad78-21dad71fc442"
     opacity="1"
     fill="none"
     stroke="#e66465"
     stroke-width="4"
     stroke-opacity="1"
     stroke-linecap="round"
     stroke-linejoin="round"
     d="m 2704.1385,-9.6407975 q 0.038,-0.066 0.325,-0.8000005 1.018,-1.426 1.434,-1.705 0.417,-0.279 1.037,-0.472 0.62,-0.194 1.5,-0.029 0.88,0.166 1.493,0.536 0.612,0.37 1.31,0.94 0.698,0.571 1.535,1.6250005 0.838,1.054 1.459,2.571 0.621,1.517 0.69,2.778 0.068,1.26 -0.296,2.664 -0.365,1.40399998 -1.53,3.033 -1.166,1.628 -2.25,2.462 -1.084,0.833 -1.943,1.208 -0.858,0.374 -1.375,0.495 -0.517,0.12 -1.061,0.083 l -0.21,0.124 -0.325,0.226" /><path
     id="STROKE_c6b1cf33-aaea-426e-b78d-80a424c61ba7"
     opacity="1"
     fill="none"
     stroke="#e66465"
     stroke-width="4"
     stroke-opacity="1"
     stroke-linecap="round"
     stroke-linejoin="round"
     d="m 2729.5725,19.057202 q -0.096,-0.323 -0.3,-0.842 -0.205,-0.519 -0.634,-1.396 -0.429,-0.876 -0.959,-1.608 -0.53,-0.732 -0.764,-0.992 -0.234,-0.26 -0.86,-0.779 -0.625,-0.519 -1.726,-0.83 -1.1,-0.312 -1.949,-0.195 -0.849,0.118 -1.527,0.7 -0.679,0.583 -1.07,1.656 -0.392,1.073 -0.247,1.972 0.144,0.899 0.8,1.611 0.657,0.712 1.394,1.035 0.737,0.323 1.223,0.387 0.487,0.064 1.121,0.002 0.635,-0.062 0.974,-0.193 0.34,-0.131 4.583,-2.963" /><path
     id="STROKE_6a2de3f8-fdfd-4b15-8f25-774d0ee2d0e7"
     opacity="1"
     fill="none"
     stroke="#e66465"
     stroke-width="4"
     stroke-opacity="1"
     stroke-linecap="round"
     stroke-linejoin="round"
     d="m 2999.0745,-156.4218 0.169,0.768 q -0.029,0.128 0.63,7.588 0.66,7.46 2.149,16.417 0.16,0.315 0.421,1.339" /><path
     id="STROKE_c12fde2a-eedb-4699-8fca-6ee453a53264"
     opacity="1"
     fill="none"
     stroke="#e66465"
     stroke-width="4"
     stroke-opacity="1"
     stroke-linecap="round"
     stroke-linejoin="round"
     d="m 2999.3505,-157.2058 q 0.31,-0.392 0.833,-0.944 0.523,-0.552 1.56,-1.001 1.037,-0.45 1.943,-0.552 0.906,-0.102 1.864,0.02 0.958,0.121 2.483,1.379 1.524,1.258 2.218,2.468 0.695,1.209 1.081,3.315 0.387,2.105 -0.013,4.096 -0.4,1.99 -1.376,3.465 -0.977,1.476 -2.271,2.571 -1.294,1.096 -4.483,2.047 -0.197,-0.02 -1.258,0.168" /><path
     id="STROKE_2af0f49a-dbee-4aa3-ab5f-9fdef40702ae"
     opacity="1"
     fill="none"
     stroke="#e66465"
     stroke-width="4"
     stroke-opacity="1"
     stroke-linecap="round"
     stroke-linejoin="round"
     d="m 3018.3415,-130.0208 q 0.806,-0.689 0.822,-0.732 0.016,-0.042 1.271,-1.655 1.254,-1.614 2.305,-3.024 10e-4,0.04 0.33,1.686 0.33,1.647 1.901,7.305 l 0.74,2.005" /><path
     id="STROKE_c7b6824b-2897-49d2-a12b-81a9f8c6d4bd"
     opacity="1"
     fill="none"
     stroke="#e66465"
     stroke-width="4"
     stroke-opacity="1"
     stroke-linecap="round"
     stroke-linejoin="round"
     d="m 3106.9745,145.5872 v 0.564 q -0.229,1.671 0.471,8.141 0.699,6.47 1.763,12.821 1.063,6.35 1.978,11.949 0.086,0.172 0.296,1.236" /><path
     id="STROKE_72c5b853-fac3-482e-8674-5e8a20efcd6c"
     opacity="1"
     fill="none"
     stroke="#e66465"
     stroke-width="4"
     stroke-opacity="1"
     stroke-linecap="round"
     stroke-linejoin="round"
     d="m 3107.9005,151.8062 0.34,-0.652 q 0.527,-1.109 1.075,-1.988 0.548,-0.879 1.011,-1.357 0.462,-0.477 1.405,-1.092 0.943,-0.616 2.777,-0.997 1.833,-0.381 2.845,-0.259 1.012,0.122 1.836,0.496 0.823,0.375 1.969,1.424 1.146,1.049 1.927,2.912 0.781,1.862 0.909,2.935 0.129,1.074 0.038,2.501 -0.092,1.427 -0.91,3.413 -0.818,1.987 -2.042,3.387 -1.224,1.4 -2.647,2.061 -1.422,0.661 -2.185,0.766 -0.763,0.106 -1.275,0.06 -0.512,-0.045 -0.956,-0.281 -0.444,-0.235 -1.822,-1.374" /><path
     id="STROKE_ca452d40-b6fd-450c-83c6-9c6a93815ccb"
     opacity="1"
     fill="none"
     stroke="#e66465"
     stroke-width="4"
     stroke-opacity="1"
     stroke-linecap="round"
     stroke-linejoin="round"
     d="m 3130.1025,175.6482 q 0,-0.612 -0.01,-0.75 l 0.349,-0.806 q 0.247,-0.393 1.572,-1.363 1.325,-0.971 2.49,-1.176 1.164,-0.205 1.796,-0.059 0.632,0.147 0.882,0.305 0.25,0.159 0.399,0.389 0.149,0.23 0.442,1.241 0.293,1.01 -0.254,3.327 -0.547,2.317 -1.272,3.964 -0.725,1.646 -1.124,2.559 -0.399,0.913 -0.528,1.283 -0.128,0.37 -0.227,0.595 0.161,0.029 0.45,0.074 0.288,0.045 0.32,0.041 0.032,0 2.62,-0.025 2.587,-0.021 7.865,-0.658 l 2.057,0.07" /><path
     id="STROKE_afce47c7-17a1-44f8-a939-2ee657782805"
     opacity="1"
     fill="none"
     stroke="#e66465"
     stroke-width="4"
     stroke-opacity="1"
     stroke-linecap="round"
     stroke-linejoin="round"
     d="m 3397.2564,-120.55869 -0.187,-0.545 q -0.038,-0.143 -0.27,-1.739 -0.231,-1.597 -0.582,-2.404 -0.351,-0.808 -1.014,-1.533 -0.663,-0.726 -1.493,-0.987 -0.829,-0.261 -1.762,-0.039 -0.933,0.222 -1.862,0.972 -0.929,0.749 -1.297,1.248 -0.368,0.5 -0.67,1.124 -0.303,0.624 -0.491,1.595 -0.189,0.972 -0.138,1.92 0.05,0.948 0.157,1.317 0.107,0.369 0.276,0.675 0.169,0.306 0.722,0.89 0.553,0.584 1.033,0.826 0.479,0.241 0.759,0.306 0.279,0.065 0.73,0.089 0.452,0.025 1.52,-0.33 1.069,-0.354 3.841,-1.954" /><path
     id="STROKE_2d73b4bd-1c52-4c32-9c15-4328457baffc"
     opacity="1"
     fill="none"
     stroke="#e66465"
     stroke-width="4"
     stroke-opacity="1"
     stroke-linecap="round"
     stroke-linejoin="round"
     d="m 3494.2614,119.91231 -0.377,-0.356 q -0.243,-0.246 -0.737,-1.46 -0.494,-1.213 -0.905,-1.966 -0.412,-0.753 -1.121,-1.441 -0.71,-0.689 -1.927,-1.139 -1.217,-0.449 -2.261,-0.402 -1.044,0.047 -1.942,0.591 -0.897,0.543 -1.199,0.918 -0.301,0.375 -0.56,1.129 -0.258,0.754 -0.305,1.38 -0.047,0.627 0.315,1.813 0.362,1.185 0.926,1.85 0.565,0.664 1.094,1.002 0.529,0.339 1.279,0.532 0.75,0.193 1.658,0.202 0.909,0.01 1.221,-0.07 0.313,-0.08 0.577,-0.133 0.264,-0.054 1.642,-0.878 1.379,-0.825 2.999,-2.914 l 0.983,-1.671" /><path
     id="STROKE_77accd97-b6de-4ef0-8a3f-e5184ed6fdf7"
     opacity="1"
     fill="none"
     stroke="#e66465"
     stroke-width="4"
     stroke-opacity="1"
     stroke-linecap="round"
     stroke-linejoin="round"
     d="m 3157.3184,25.492306 q -0.072,-0.111 -0.401,-1.713 -0.329,-1.601 -0.831,-2.821 -0.503,-1.219 -0.866,-1.756 -0.363,-0.537 -0.667,-0.878 -0.305,-0.342 -0.527,-0.499 -0.223,-0.157 -0.27,-0.225 -0.048,-0.069 -2.901,-0.148 -2.853,-0.079 -3.303,0.27 -0.451,0.349 -0.879,1.004 -0.429,0.656 -0.779,2.042 -0.35,1.386 -0.224,2.28 0.126,0.894 0.361,1.453 0.235,0.559 1.65,1.352 1.415,0.792 2.485,0.952 1.07,0.16 1.623,0.175 0.553,0.016 1.609,-0.095 1.057,-0.111 1.766,-0.324 0.708,-0.212 3.021,-1.29" /><path
     id="STROKE_73190c5b-03be-4449-b60a-83750e7c8110"
     opacity="1"
     fill="none"
     stroke="#e66465"
     stroke-width="4"
     stroke-opacity="1"
     stroke-linecap="round"
     stroke-linejoin="round"
     d="m 3107.8504,-25.177694 -0.419,1.161 -0.091,0.724 q -0.21,0.613 1.682,25.6880003 l 0.404,-0.374" /><path
     id="STROKE_4e24e976-3545-437a-ad1b-37d2769081eb"
     opacity="1"
     fill="none"
     stroke="#e66465"
     stroke-width="4"
     stroke-opacity="1"
     stroke-linecap="round"
     stroke-linejoin="round"
     d="m 3107.3384,-24.819694 q 0.037,-0.066 0.325,-0.8 1.017,-1.426 1.434,-1.705 0.417,-0.279 1.036,-0.472 0.62,-0.194 1.5,-0.029 0.881,0.165 1.493,0.536 0.613,0.37 1.31,0.94 0.698,0.571 1.536,1.625 0.837,1.053 1.458,2.571 0.622,1.517 0.69,2.778 0.069,1.26 -0.296,2.664 -0.365,1.404 -1.53,3.033 -1.166,1.628 -2.25,2.461 -1.084,0.834 -1.942,1.208 -0.858,0.3750003 -1.376,0.4960003 -0.517,0.12 -1.061,0.083 l -0.21,0.124 -0.324,0.226" /><path
     id="STROKE_20aa4f34-d63d-4980-b71b-465d8e929f07"
     opacity="1"
     fill="none"
     stroke="#e66465"
     stroke-width="4"
     stroke-opacity="1"
     stroke-linecap="round"
     stroke-linejoin="round"
     d="m 3132.7714,3.8783063 q -0.096,-0.323 -0.3,-0.842 -0.204,-0.519 -0.634,-1.396 -0.429,-0.87599995 -0.959,-1.60799995 -0.529,-0.732 -0.764,-0.992 -0.234,-0.26000005 -0.859,-0.77900005 -0.625,-0.519 -1.726,-0.83 -1.101,-0.312 -1.95,-0.195 -0.849,0.117 -1.527,0.7 -0.679,0.583 -1.07,1.65600005 -0.391,1.073 -0.247,1.97199995 0.144,0.899 0.801,1.611 0.656,0.712 1.393,1.035 0.737,0.323 1.224,0.387 0.486,0.064 1.121,0 0.634,-0.062 0.974,-0.193 0.339,-0.131 4.582,-2.963" /><path
     id="STROKE_2791ab44-ae94-40d0-a781-d0ebe9bd08b4"
     opacity="1"
     fill="none"
     stroke="#e66465"
     stroke-width="4"
     stroke-opacity="1"
     stroke-linecap="round"
     stroke-linejoin="round"
     d="m 3402.2744,-171.60069 0.168,0.768 q -0.028,0.128 0.631,7.588 0.659,7.46 2.149,16.416 0.159,0.316 0.421,1.34" /><path
     id="STROKE_426cb8ab-f436-4231-bea2-e601e6c8efbd"
     opacity="1"
     fill="none"
     stroke="#e66465"
     stroke-width="4"
     stroke-opacity="1"
     stroke-linecap="round"
     stroke-linejoin="round"
     d="m 3402.5504,-172.38469 q 0.309,-0.392 0.832,-0.944 0.523,-0.552 1.561,-1.001 1.037,-0.45 1.943,-0.552 0.905,-0.102 1.863,0.019 0.958,0.122 2.483,1.38 1.525,1.258 2.219,2.467 0.694,1.21 1.081,3.316 0.387,2.105 -0.014,4.096 -0.4,1.99 -1.376,3.465 -0.976,1.475 -2.27,2.571 -1.294,1.096 -4.484,2.046 -0.197,-0.019 -1.257,0.169" /><path
     id="STROKE_7a48d7ef-eabb-49bc-9cf1-8eaa66eb9e76"
     opacity="1"
     fill="none"
     stroke="#e66465"
     stroke-width="4"
     stroke-opacity="1"
     stroke-linecap="round"
     stroke-linejoin="round"
     d="m 3421.5414,-145.19969 q 0.805,-0.689 0.821,-0.732 0.017,-0.042 1.271,-1.656 1.254,-1.613 2.305,-3.024 0,0.04 0.331,1.687 0.33,1.647 1.901,7.305 l 0.739,2.005" /><path
     id="STROKE_27a682c6-8bba-4481-ac86-b9823f5b999d"
     opacity="1"
     fill="none"
     stroke="#e66465"
     stroke-width="4"
     stroke-opacity="1"
     stroke-linecap="round"
     stroke-linejoin="round"
     d="m 3510.1734,130.40831 0.01,0.564 q -0.229,1.671 0.47,8.141 0.7,6.47 1.763,12.82 1.064,6.351 1.979,11.95 0.086,0.172 0.295,1.236" /><path
     id="STROKE_deee290f-a95f-4d7b-b6a2-4ba6a5eccd9b"
     opacity="1"
     fill="none"
     stroke="#e66465"
     stroke-width="4"
     stroke-opacity="1"
     stroke-linecap="round"
     stroke-linejoin="round"
     d="m 3511.1004,136.62631 0.339,-0.651 q 0.528,-1.109 1.076,-1.988 0.547,-0.88 1.01,-1.357 0.463,-0.477 1.406,-1.093 0.942,-0.615 2.776,-0.996 1.833,-0.381 2.845,-0.259 1.012,0.122 1.836,0.496 0.823,0.375 1.969,1.424 1.146,1.049 1.927,2.912 0.781,1.862 0.91,2.935 0.129,1.074 0.037,2.501 -0.092,1.427 -0.91,3.413 -0.817,1.986 -2.042,3.387 -1.224,1.4 -2.646,2.061 -1.423,0.661 -2.186,0.766 -0.763,0.106 -1.275,0.06 -0.512,-0.045 -0.956,-0.281 -0.444,-0.235 -1.822,-1.374" /><path
     id="STROKE_1b260f8c-1056-4c9e-8f04-4c25ded1d846"
     opacity="1"
     fill="none"
     stroke="#e66465"
     stroke-width="4"
     stroke-opacity="1"
     stroke-linecap="round"
     stroke-linejoin="round"
     d="m 3533.3024,160.46831 q 0,-0.611 -0.01,-0.749 l 0.35,-0.806 q 0.247,-0.393 1.572,-1.363 1.325,-0.971 2.49,-1.176 1.164,-0.205 1.796,-0.059 0.631,0.146 0.881,0.305 0.25,0.159 0.399,0.389 0.149,0.23 0.443,1.241 0.293,1.01 -0.254,3.327 -0.548,2.317 -1.273,3.963 -0.724,1.647 -1.123,2.56 -0.399,0.913 -0.528,1.283 -0.129,0.37 -0.227,0.595 0.161,0.029 0.449,0.074 0.289,0.045 0.321,0.04 0.032,0 2.619,-0.024 2.588,-0.021 7.865,-0.659 l 2.058,0.071" /></g></svg>
