<?xml version="1.0" encoding="UTF-8" standalone="no"?>
<svg
   version="1.1"
   xml:space="preserve"
   x="0px"
   y="0px"
   viewBox="0 0 960 480"
   id="svg1"
   sodipodi:docname="bezier-cubic-1.svg"
   inkscape:version="1.3.2 (091e20ef0f, 2023-11-25, custom)"
   xmlns:inkscape="http://www.inkscape.org/namespaces/inkscape"
   xmlns:sodipodi="http://sodipodi.sourceforge.net/DTD/sodipodi-0.dtd"
   xmlns="http://www.w3.org/2000/svg"
   xmlns:svg="http://www.w3.org/2000/svg"><defs
   id="defs1" /><sodipodi:namedview
   id="namedview1"
   pagecolor="#505050"
   bordercolor="#eeeeee"
   borderopacity="1"
   inkscape:showpageshadow="0"
   inkscape:pageopacity="0"
   inkscape:pagecheckerboard="0"
   inkscape:deskcolor="#d1d1d1"
   inkscape:zoom="1.9666667"
   inkscape:cx="448.22034"
   inkscape:cy="221.44068"
   inkscape:window-width="2560"
   inkscape:window-height="1600"
   inkscape:window-x="0"
   inkscape:window-y="0"
   inkscape:window-maximized="0"
   inkscape:current-layer="Cubic_1"
   showgrid="false" />
<g
   id="Cubic_1"
   opacity="1"
   transform="matrix(2,0,0,2,-9293.796,-1445.7375)"><path
     id="STROKE_75dd7ae3-b30f-4e55-a123-56bdc538369b"
     opacity="0.5"
     fill="none"
     stroke="#f6f7ef"
     stroke-width="0.670569"
     stroke-opacity="1"
     stroke-linecap="round"
     stroke-linejoin="round"
     d="m 4710.2099,907.38168 -0.1696,-129.64446" /><path
     id="STROKE_1b5bb7aa-3940-41b0-a258-88147255b1ec"
     opacity="0.5"
     fill="none"
     stroke="#f6f7ef"
     stroke-width="0.670569"
     stroke-opacity="1"
     stroke-linecap="round"
     stroke-linejoin="round"
     d="m 4710.1385,777.86832 129.0557,0.22497" /><path
     id="STROKE_948ab578-f655-47fd-ac12-742ffe03d88a"
     opacity="0.5"
     fill="none"
     stroke="#f6f7ef"
     stroke-width="0.670569"
     stroke-opacity="1"
     stroke-linecap="round"
     stroke-linejoin="round"
     d="m 4839.3907,777.25005 1.0468,130.19399" /><path
     id="STROKE_67a4206c-1a62-45e1-8a50-8460321a974b"
     opacity="0.5"
     fill="none"
     stroke="#f6f7ef"
     stroke-width="0.670569"
     stroke-opacity="1"
     stroke-linecap="round"
     stroke-linejoin="round"
     d="M 4932.3476,906.82843 4932.8039,776.672" /><path
     id="STROKE_c844a4b7-2b33-4faf-b5b7-c84aa936c0bb"
     opacity="0.5"
     fill="none"
     stroke="#f6f7ef"
     stroke-width="0.670569"
     stroke-opacity="1"
     stroke-linecap="round"
     stroke-linejoin="round"
     d="m 4933.1976,775.40395 128.9571,130.41896" /><path
     id="STROKE_8bc79bd7-c647-4396-9205-4d441ea53629"
     opacity="0.5"
     fill="none"
     stroke="#f6f7ef"
     stroke-width="0.670569"
     stroke-opacity="1"
     stroke-linecap="round"
     stroke-linejoin="round"
     d="m 5061.5016,905.2422 0.3936,-129.61327" /><path
     id="STROKE_78fe22d5-cce7-4daa-a547-28b764b1c08c"
     opacity="0.5"
     fill="none"
     stroke="#f6f7ef"
     stroke-width="0.670569"
     stroke-opacity="1"
     stroke-linecap="round"
     stroke-linejoin="round"
     d="m 4710.2099,907.38168 -0.1696,-129.64446" /><path
     id="STROKE_2640efbc-eacf-49ae-9cba-59fd50dcb5e9"
     opacity="0.5"
     fill="none"
     stroke="#f6f7ef"
     stroke-width="0.670569"
     stroke-opacity="1"
     stroke-linecap="round"
     stroke-linejoin="round"
     d="m 4710.1385,777.86832 129.0557,0.22497" /><path
     id="STROKE_cf1fd4a7-2b55-488f-9f1c-4bb91aaeaa32"
     opacity="0.5"
     fill="none"
     stroke="#f6f7ef"
     stroke-width="0.670569"
     stroke-opacity="1"
     stroke-linecap="round"
     stroke-linejoin="round"
     d="m 4839.3907,777.25005 1.0468,130.19399" /><path
     id="STROKE_cdf9812d-7e7d-4140-b09e-1e36a07c2782"
     opacity="0.5"
     fill="none"
     stroke="#f6f7ef"
     stroke-width="0.670569"
     stroke-opacity="1"
     stroke-linecap="round"
     stroke-linejoin="round"
     d="M 4932.3476,906.82843 4932.8039,776.672" /><path
     id="STROKE_43c87f76-6026-41a6-988e-e8d19971fb20"
     opacity="0.5"
     fill="none"
     stroke="#f6f7ef"
     stroke-width="0.670569"
     stroke-opacity="1"
     stroke-linecap="round"
     stroke-linejoin="round"
     d="m 4933.1976,775.40395 128.9571,130.41896" /><path
     id="STROKE_cbb6ece4-0c2a-478f-8416-612fd9fa309b"
     opacity="0.5"
     fill="none"
     stroke="#f6f7ef"
     stroke-width="0.670569"
     stroke-opacity="1"
     stroke-linecap="round"
     stroke-linejoin="round"
     d="m 5061.5016,905.2422 0.3936,-129.61327" /><path
     id="STROKE_463a9eac-51f5-439f-9fd5-0319d9b65947"
     opacity="1"
     fill="none"
     stroke="#e66465"
     stroke-width="1.34114"
     stroke-opacity="1"
     stroke-linecap="round"
     stroke-linejoin="round"
     d="m 4711.4307,777.0291 -0.056,-0.0241 q -0.4584,-0.27896 -0.5901,-0.32355 -0.1318,-0.0443 -0.3387,-0.11768 -0.2068,-0.0734 -0.5666,-0.12372 -0.3597,-0.0506 -0.7416,0.0483 -0.3819,0.0992 -0.5254,0.18977 -0.1435,0.0909 -0.275,0.25515 -0.1311,0.16395 -0.1914,0.25549 -0.06,0.0915 -0.11,0.38692 -0.05,0.29572 -0.01,0.5046 0.042,0.20922 0.1844,0.44023 0.1422,0.23101 0.3105,0.39731 0.1686,0.16597 0.4043,0.29539 0.2361,0.12908 0.5254,0.19446 0.2897,0.0654 0.6304,0.0868 0.3406,0.0215 0.6497,-0.0322 0.3092,-0.0536 0.4772,-0.13177 0.1683,-0.0778 0.4093,-0.25884 0.2408,-0.18105 0.3652,-0.36613 0.124,-0.18474 0.1529,-0.25515 0.029,-0.0701 0.1015,-0.11869 0.074,-0.0486 0.2733,-1.47626" /><path
     id="STROKE_cfdb7133-ecf3-4ebf-af1f-3bd6424832e7"
     opacity="1"
     fill="none"
     stroke="#e66465"
     stroke-width="1.34114"
     stroke-opacity="1"
     stroke-linecap="round"
     stroke-linejoin="round"
     d="m 4711.9185,907.34111 q -0.2289,-0.33663 -0.5548,-0.65247 -0.3256,-0.31617 -0.8067,-0.65078 -0.4808,-0.33495 -0.5217,-0.37418 -0.041,-0.0396 -0.6492,-0.17435 -0.6078,-0.13478 -1.0289,-0.0704 -0.4212,0.064 -0.5023,0.10025 -0.081,0.0359 -0.2766,0.25482 -0.1955,0.2186 -0.2796,0.43855 -0.084,0.21961 -0.09,0.41877 -0.01,0.19916 -0.01,0.27762 4e-4,0.0781 0.1358,0.40435 0.1352,0.32623 0.402,0.61692 0.2673,0.29036 0.561,0.45331 0.2937,0.16295 0.5924,0.23604 0.2991,0.0734 0.5844,0.11735 0.2853,0.0442 0.968,-0.0711 0.6826,-0.11501 1.0514,-0.28332 0.3689,-0.16798 0.6398,-0.41475 0.2705,-0.24677 1.2067,-1.70961" /><path
     id="STROKE_e98fe2c7-29ed-4bd7-83ef-227375badc00"
     opacity="1"
     fill="none"
     stroke="#e66465"
     stroke-width="1.34114"
     stroke-opacity="1"
     stroke-linecap="round"
     stroke-linejoin="round"
     d="m 4840.9038,777.96488 q -0.1009,-0.1368 -0.3178,-0.63168 -0.2169,-0.49488 -0.3702,-0.76981 -0.1535,-0.27493 -0.229,-0.36747 -0.075,-0.0925 -0.3983,-0.42346 -0.3229,-0.33059 -0.5304,-0.41509 -0.2072,-0.0845 -0.3588,-0.0959 -0.1515,-0.0114 -0.2896,0.0117 -0.1378,0.0231 -0.4403,0.36378 -0.3024,0.34098 -0.3973,0.59278 -0.095,0.25214 -0.1106,0.42246 -0.016,0.17033 0.042,0.55289 0.058,0.38256 0.1163,0.50225 0.059,0.12003 0.1797,0.26622 0.1207,0.14652 0.5221,0.44894 0.401,0.30277 0.9478,0.46001 0.5469,0.15759 0.6783,0.17871 0.1318,0.0211 0.3514,0.0228 0.2196,0.002 1.1218,-0.0764" /><path
     id="STROKE_add35ab6-49be-4edd-b8b4-8f56c55c5114"
     opacity="1"
     fill="none"
     stroke="#e66465"
     stroke-width="1.34114"
     stroke-opacity="1"
     stroke-linecap="round"
     stroke-linejoin="round"
     d="m 4841.842,907.64856 -0.3025,-0.29538 -0.058,-0.21324 q -0.028,-0.0785 -0.3424,-0.64408 -0.3138,-0.56563 -0.6534,-0.90561 -0.34,-0.34031 -0.4771,-0.42447 -0.1368,-0.0842 -0.2404,-0.12171 -0.1036,-0.0379 -0.5526,-0.0741 -0.4489,-0.0365 -0.7346,0.10025 -0.2857,0.13679 -0.3011,0.16261 l -0.407,0.54718 q -0.032,0.0258 -0.1633,0.80971 -0.1314,0.7839 0,1.22413 0.1324,0.43989 0.2461,0.6015 0.114,0.16161 0.2964,0.32791 0.1827,0.1663 0.5076,0.344 0.3252,0.1777 0.8117,0.22028 0.4862,0.0429 0.7652,-0.003 0.2789,-0.0463 0.6809,-0.30712 0.402,-0.26118 1.4397,-1.38238" /><path
     id="STROKE_6d37edfc-0950-4633-89ad-8b4641e9353f"
     opacity="1"
     fill="none"
     stroke="#e66465"
     stroke-width="1.34114"
     stroke-opacity="1"
     stroke-linecap="round"
     stroke-linejoin="round"
     d="m 4934.076,775.96723 -0.056,-0.0241 q -0.4584,-0.27896 -0.5901,-0.32355 -0.1318,-0.0443 -0.3387,-0.11769 -0.2068,-0.0734 -0.5666,-0.12372 -0.3597,-0.0506 -0.7416,0.0483 -0.3819,0.0992 -0.5254,0.18977 -0.1435,0.0909 -0.275,0.25515 -0.1311,0.16395 -0.1914,0.25549 -0.06,0.0915 -0.11,0.38691 -0.05,0.29539 -0.01,0.50461 0.042,0.20888 0.1844,0.44023 0.1422,0.23101 0.3105,0.39731 0.1686,0.16596 0.4043,0.29538 0.2361,0.12909 0.5254,0.19447 0.2897,0.0654 0.6304,0.0868 0.3406,0.0215 0.6497,-0.0322 0.3092,-0.0537 0.4772,-0.13177 0.1683,-0.0778 0.4093,-0.25884 0.2408,-0.18105 0.3652,-0.36613 0.124,-0.18474 0.1529,-0.25515 0.029,-0.0701 0.1015,-0.11869 0.074,-0.0486 0.2733,-1.47626" /><path
     id="STROKE_66eef4a9-b4d1-4b96-a20b-c5f0d3fa8a2f"
     opacity="1"
     fill="none"
     stroke="#e66465"
     stroke-width="1.34114"
     stroke-opacity="1"
     stroke-linecap="round"
     stroke-linejoin="round"
     d="m 4934.5638,906.27924 q -0.2289,-0.33663 -0.5548,-0.6528 -0.3256,-0.31584 -0.8067,-0.65046 -0.4808,-0.33494 -0.5217,-0.37417 -0.041,-0.0396 -0.6492,-0.17435 -0.6078,-0.13479 -1.0289,-0.0704 -0.4212,0.064 -0.5023,0.0999 -0.081,0.0362 -0.2766,0.25482 -0.1955,0.21894 -0.2796,0.43889 -0.084,0.21961 -0.09,0.41877 -0.01,0.19916 -0.01,0.27761 4e-4,0.0781 0.1358,0.40436 0.1352,0.32623 0.402,0.61692 0.2673,0.29036 0.561,0.4533 0.2937,0.16295 0.5924,0.23605 0.2991,0.0734 0.5844,0.11734 0.2853,0.0443 0.968,-0.0711 0.6826,-0.115 1.0514,-0.28331 0.3689,-0.16798 0.6398,-0.41475 0.2705,-0.24677 1.2067,-1.70928" /><path
     id="STROKE_9aa695f4-801c-4f95-bb05-90a6b33df24d"
     opacity="1"
     fill="none"
     stroke="#e66465"
     stroke-width="1.34114"
     stroke-opacity="1"
     stroke-linecap="round"
     stroke-linejoin="round"
     d="m 5063.5491,776.90301 q -0.1009,-0.1368 -0.3178,-0.63168 -0.2169,-0.49488 -0.3702,-0.76981 -0.1535,-0.27493 -0.229,-0.36747 -0.075,-0.0929 -0.3983,-0.42347 -0.3229,-0.33059 -0.5304,-0.41508 -0.2072,-0.0845 -0.3588,-0.0959 -0.1515,-0.0117 -0.2896,0.0117 -0.1378,0.0231 -0.4403,0.36379 -0.3024,0.34098 -0.3973,0.59278 -0.095,0.25214 -0.1106,0.42246 -0.016,0.17032 0.042,0.55288 0.058,0.38256 0.1163,0.50226 0.059,0.12003 0.1797,0.26622 0.1207,0.14652 0.5221,0.44894 0.401,0.30243 0.9478,0.46001 0.5469,0.15759 0.6783,0.17871 0.1318,0.0211 0.3514,0.0228 0.2196,0.002 1.1218,-0.0765" /><path
     id="STROKE_bc2f6f89-fc16-4348-8e5c-3d608a189d4e"
     opacity="1"
     fill="none"
     stroke="#e66465"
     stroke-width="1.34114"
     stroke-opacity="1"
     stroke-linecap="round"
     stroke-linejoin="round"
     d="m 5064.4873,906.58669 -0.3025,-0.29538 -0.058,-0.21325 q -0.028,-0.0785 -0.3424,-0.64408 -0.3138,-0.56562 -0.6534,-0.9056 -0.34,-0.34031 -0.4771,-0.42447 -0.1368,-0.0842 -0.2404,-0.12171 -0.1036,-0.0379 -0.5526,-0.0741 -0.4489,-0.0365 -0.7346,0.10025 -0.2857,0.1368 -0.3011,0.16262 l -0.407,0.54718 q -0.032,0.0258 -0.1633,0.80971 -0.1314,0.7839 0,1.22413 0.1324,0.43989 0.2461,0.6015 0.114,0.1616 0.2964,0.32791 0.1827,0.1663 0.5076,0.344 0.3252,0.1777 0.8117,0.22028 0.4862,0.0429 0.7652,-0.003 0.2789,-0.0463 0.6809,-0.30712 0.402,-0.26119 1.4397,-1.38238" /><path
     id="STROKE_084a263a-2dc1-4b98-9659-1b883c890a17"
     opacity="1"
     fill="none"
     stroke="#e66465"
     stroke-width="1.34114"
     stroke-opacity="1"
     stroke-linecap="round"
     stroke-linejoin="round"
     d="m 4685.1883,899.65203 -0.01,0.16026 q -0.022,0.21056 0.5623,2.41841 0.5844,2.20818 0.9954,3.58654 0.4111,1.37835 0.7266,2.63601 0.3155,1.25798 0.9207,4.03716 0.028,0.0396 0.1368,0.34333" /><path
     id="STROKE_669c89a9-0c25-45ae-b8fb-56144a19a289"
     opacity="1"
     fill="none"
     stroke="#e66465"
     stroke-width="1.34114"
     stroke-opacity="1"
     stroke-linecap="round"
     stroke-linejoin="round"
     d="m 4684.1231,900.95863 q 0.3464,-0.98976 0.8979,-1.76896 0.5516,-0.7792 1.3589,-1.43401 0.8074,-0.65481 1.4163,-0.88314 0.6092,-0.22866 1.0176,-0.2689 0.4083,-0.0402 0.7463,0.005 0.338,0.0453 1.7693,1.34717 1.431,1.30191 1.5973,1.92051 0.166,0.6186 0.1539,1.01893 -0.012,0.39966 -0.3048,1.12991 -0.293,0.73025 -1.0675,1.68245 -0.7745,0.95255 -1.2158,1.38808 -0.4409,0.43554 -0.7654,0.69002 -0.3246,0.25414 -0.5569,0.38222 -0.033,0.004 0.08,0.23034" /><path
     id="STROKE_85274667-c8d2-44cc-8854-8ddd61f5c0eb"
     opacity="1"
     fill="none"
     stroke="#e66465"
     stroke-width="1.34114"
     stroke-opacity="1"
     stroke-linecap="round"
     stroke-linejoin="round"
     d="m 4695.5416,913.27061 q -0.2257,-0.26319 -0.5583,-0.50393 -0.3329,-0.24073 -0.5096,-0.39832 -0.1764,-0.15792 -0.4684,-0.52606 -0.2924,-0.36814 -0.4617,-0.85028 -0.1693,-0.4818 -0.1673,-0.80066 0,-0.31885 0.111,-0.63838 0.1086,-0.31953 0.4593,-0.61357 0.3504,-0.29371 0.7256,-0.38156 0.3748,-0.0878 0.7363,-0.0436 0.3614,0.0443 0.6632,0.25817 0.3017,0.21424 0.5555,0.61491 0.2538,0.40033 0.3574,0.73293 0.1033,0.3326 0.1332,0.67057 0.03,0.3383 -0.032,0.77853 -0.062,0.43989 -0.2012,0.71986 -0.1391,0.28029 -0.3899,0.5901 -0.2505,0.3098 -1.9185,0.96796" /><path
     id="STROKE_3a791cb6-dc82-4870-a77e-522e43cf2c48"
     opacity="1"
     fill="none"
     stroke="#e66465"
     stroke-width="1.34114"
     stroke-opacity="1"
     stroke-linecap="round"
     stroke-linejoin="round"
     d="m 4683.7369,766.16655 0.013,0.12942 q 0.012,0.18542 0.8449,2.48949 0.8325,2.30408 1.3328,3.65762 0.5002,1.35388 0.8898,2.51396 0.3896,1.16009 1.0055,3.4598 0.03,0.009 -0.5575,-0.66822" /><path
     id="STROKE_9428834c-ab32-49ad-af8c-59d92f24c584"
     opacity="1"
     fill="none"
     stroke="#e66465"
     stroke-width="1.34114"
     stroke-opacity="1"
     stroke-linecap="round"
     stroke-linejoin="round"
     d="m 4682.5718,767.37559 q 0.011,-0.0362 0.07,-0.46705 0.06,-0.43118 0.1794,-0.80368 0.1193,-0.37216 0.5632,-1.00384 0.4436,-0.63134 1.0253,-1.05983 0.5818,-0.4285 1.1192,-0.6186 0.5375,-0.19011 1.0877,-0.23738 0.5502,-0.0473 0.9954,0.0231 0.4453,0.0704 0.9003,0.30712 0.455,0.23705 0.9441,0.87744 0.4896,0.64039 0.7826,1.89838 0.293,1.25799 0.2498,2.00198 -0.043,0.744 -0.2803,1.49135 -0.2374,0.74768 -0.8057,1.45111 -0.5683,0.70376 -1.0803,1.00753 -0.5123,0.30343 -0.8345,0.38088 -0.3226,0.0774 -1.2345,0.0473" /><path
     id="STROKE_ba8d19df-2a4f-4f0f-acaf-eeac470a3f25"
     opacity="1"
     fill="none"
     stroke="#e66465"
     stroke-width="1.34114"
     stroke-opacity="1"
     stroke-linecap="round"
     stroke-linejoin="round"
     d="m 4694.8626,778.66931 q 0.8879,-2.71379 1.0119,-3.32535 0.1241,-0.61122 0.1589,-0.82413 0.035,-0.21324 -0.118,-0.24308 -0.073,0.18675 0.027,0.84492 0.1,0.65816 0.2773,1.20333 0.1777,0.54484 0.4919,1.23385 0.3145,0.68935 0.8305,1.40786 0.1153,0.0761 0.35,0.35373" /><path
     id="STROKE_cb98cb2b-15dc-44a3-813e-6a008377beec"
     opacity="1"
     fill="none"
     stroke="#e66465"
     stroke-width="1.34114"
     stroke-opacity="1"
     stroke-linecap="round"
     stroke-linejoin="round"
     d="m 4849.5099,755.90249 q 0.018,0.0345 0.014,0.25247 0,0.35741 0.4684,1.73342 0.4651,1.37601 1.2014,3.48797 0.7366,2.11195 1.3304,4.54478 0.5937,2.43282 0.921,4.29868 0.029,0.0339 -0.3802,-1.28448" /><path
     id="STROKE_c05073f5-c0ff-446a-80c6-18b85f204cb4"
     opacity="1"
     fill="none"
     stroke="#e66465"
     stroke-width="1.34114"
     stroke-opacity="1"
     stroke-linecap="round"
     stroke-linejoin="round"
     d="m 4849.2169,757.3298 q 0.035,-0.048 0.2605,-0.66554 0.2253,-0.61793 0.4137,-0.9559 0.1881,-0.33763 0.3129,-0.51064 0.1247,-0.17334 0.6276,-0.60887 0.5029,-0.43587 1.1474,-0.6984 0.644,-0.26253 1.0377,-0.31517 0.3936,-0.0526 0.8626,-0.0282 0.4691,0.0245 0.7367,0.0808 0.2675,0.0567 1.206,0.58608 0.9381,0.52975 1.4933,1.12756 0.5553,0.59781 0.9261,1.29017 0.3705,0.69237 0.5116,1.60099 0.1412,0.90862 0.068,1.4662 -0.073,0.55791 -0.3912,1.23552 -0.3186,0.67761 -1.0525,1.29755 -0.7343,0.62028 -1.3022,0.8181 -0.5677,0.19781 -0.859,0.22229 -0.2914,0.0245 -0.5117,-0.008 -0.2206,-0.0329 -0.3286,-0.0852 -0.1076,-0.0523 -0.2025,-0.13109 -0.095,-0.0791 -0.1529,-0.16027 -0.057,-0.0811 -0.1834,-0.28499" /><path
     id="STROKE_4fb9c0f3-c644-4f33-9350-18c5732c2577"
     opacity="1"
     fill="none"
     stroke="#e66465"
     stroke-width="1.34114"
     stroke-opacity="1"
     stroke-linecap="round"
     stroke-linejoin="round"
     d="m 4861.7542,770.1722 q 0.049,-0.10159 -0.084,-0.40268 0.083,-0.56864 0.3531,-0.98205 0.2702,-0.4134 0.578,-0.61558 0.3078,-0.20184 0.5596,-0.22263 0.2518,-0.0204 0.3514,-0.0158 0.099,0.005 0.3577,0.16027 0.2582,0.15591 0.5103,0.59982 0.2518,0.44392 0.348,1.14366 0.096,0.6994 -0.1052,1.89 -0.2015,1.19026 -0.335,1.95404 -0.1334,0.76344 -0.072,1.23384 0.1777,0.0573 1.3764,0.0228 1.1986,-0.0345 4.8707,-0.55791" /><path
     id="STROKE_917a6862-5453-419e-bd1c-666b0481b927"
     opacity="1"
     fill="none"
     stroke="#e66465"
     stroke-width="1.34114"
     stroke-opacity="1"
     stroke-linecap="round"
     stroke-linejoin="round"
     d="m 4852.382,894.434 -0.034,0.24341 q -0.02,0.10629 0.9438,4.94746 0.9636,4.84117 2.6491,9.98276 0.053,0.0201 -0.023,-0.0345" /><path
     id="STROKE_42fe1a9b-8b47-4e8d-b0cd-5012e924e4a1"
     opacity="1"
     fill="none"
     stroke="#e66465"
     stroke-width="1.34114"
     stroke-opacity="1"
     stroke-linecap="round"
     stroke-linejoin="round"
     d="m 4852.8215,895.7406 q 0.025,-0.0557 0.06,-0.39362 0.036,-0.33831 0.1462,-0.6642 0.1103,-0.3259 0.1848,-0.48415 0.074,-0.15792 0.2102,-0.34769 0.1358,-0.18944 0.3309,-0.37753 0.1951,-0.18776 0.3712,-0.30478 0.1763,-0.11701 0.3175,-0.20787 0.1415,-0.0909 0.9941,-0.24912 0.8526,-0.15792 1.4226,-0.0925 0.57,0.0654 1.1376,0.31114 0.568,0.24577 1.0072,0.59782 0.4396,0.35238 0.803,0.96059 0.3638,0.6082 0.5056,1.45245 0.1419,0.84425 0.033,1.604 -0.1086,0.75942 -0.5616,1.60467 -0.4526,0.84525 -1.0491,1.4082 -0.5961,0.56327 -1.2295,0.85464 -0.6333,0.29136 -1.1238,0.35003 -0.4905,0.0587 -0.8171,-0.0228 -0.3266,-0.0818 -0.6672,-0.31852 l -0.2847,-0.14316" /><path
     id="STROKE_87ef9c33-7cba-4609-bb90-4c9f5a315dd6"
     opacity="1"
     fill="none"
     stroke="#e66465"
     stroke-width="1.34114"
     stroke-opacity="1"
     stroke-linecap="round"
     stroke-linejoin="round"
     d="m 4865.738,904.27728 q 0.051,-0.0315 0.164,-0.21157 0.1126,-0.18004 0.4744,-0.53511 0.3618,-0.3554 0.8429,-0.67996 0.4811,-0.32455 0.9653,-0.47644 0.4838,-0.15188 0.8764,-0.11835 0.3923,0.0332 0.5824,0.10896 0.1898,0.0754 0.3886,0.25918 0.1988,0.18374 0.3742,0.65079 0.1757,0.46671 0.1582,0.9911 -0.017,0.52405 -0.1854,0.9864 -0.1686,0.46236 -0.2699,0.65482 -0.1012,0.19211 -0.1851,0.23469 0.052,-0.0456 0.1486,-0.0878 0.096,-0.0419 0.2836,-0.059 0.1868,-0.0168 0.6066,0.0178 0.4194,0.0345 1.0226,0.2471 0.6028,0.21224 0.9827,0.45934 0.3799,0.24677 0.6307,0.55356 0.2508,0.30645 0.3369,0.50628 0.086,0.20016 0.097,0.42011 0.011,0.21995 -0.06,0.47342 -0.071,0.25348 -0.2401,0.52506 -0.1686,0.27124 -0.6118,0.62899 -0.4433,0.35775 -1.1655,0.62229 -0.7219,0.26454 -1.4082,0.30947 -0.686,0.0453 -1.1272,-0.0426 -0.4413,-0.0882 -0.7313,-0.228 -0.2903,-0.14015 -0.5676,-0.34869 -0.2773,-0.20822 -0.6692,-0.75842 l -0.2357,-0.36076" /><path
     id="STROKE_f2bd3661-bf5e-4885-84f7-2886782a68bd"
     opacity="1"
     fill="none"
     stroke="#e66465"
     stroke-width="1.34114"
     stroke-opacity="1"
     stroke-linecap="round"
     stroke-linejoin="round"
     d="m 4908.4747,902.43252 -0.017,0.35741 q 0.054,0.32355 0.3397,1.4501 0.286,1.12623 0.6239,2.38052 0.338,1.2543 0.86,3.04372 0.5221,1.78941 0.8372,2.72854 0.3152,0.93913 0.5985,1.6258 0.2833,0.68632 0.4279,0.98238 0.1441,0.29572 0.3185,0.57568 0.042,0.006 -0.4999,-0.8087" /><path
     id="STROKE_023705f5-1edf-4962-b8e4-8a476ecfa417"
     opacity="1"
     fill="none"
     stroke="#e66465"
     stroke-width="1.34114"
     stroke-opacity="1"
     stroke-linecap="round"
     stroke-linejoin="round"
     d="m 4908.5481,903.45078 q 0.015,-0.40872 0.3665,-1.40384 0.3514,-0.99546 0.7349,-1.49436 0.3839,-0.49857 0.6743,-0.68231 0.2907,-0.18373 0.5364,-0.24911 0.2455,-0.0654 0.9117,0.0661 0.6662,0.13109 1.4414,0.69303 0.7751,0.5616 1.1436,1.031 0.3688,0.46973 0.6015,1.01558 0.2327,0.54584 0.2884,1.17014 0.056,0.62396 -0.1962,1.41289 -0.2521,0.78926 -0.8305,1.47022 -0.5783,0.6813 -1.0917,0.99412 -0.5133,0.31282 -0.9284,0.41072 -0.4154,0.0979 -0.6481,0.0815 -0.233,-0.0164 -0.4063,-0.0563 -0.1734,-0.0399 -0.3568,-0.15658 -0.1837,-0.11668 -0.295,-0.2129 -0.1113,-0.0959 -0.2481,-0.22129" /><path
     id="STROKE_bfdf4cb0-4ca3-4e02-8ae3-beff8d81e4c7"
     opacity="1"
     fill="none"
     stroke="#e66465"
     stroke-width="1.34114"
     stroke-opacity="1"
     stroke-linecap="round"
     stroke-linejoin="round"
     d="m 4922.9962,913.41476 q -0.024,-0.27929 -0.2334,-0.82245 -0.2092,-0.54316 -0.5686,-1.02597 -0.3594,-0.48315 -0.8208,-0.77619 -0.461,-0.29304 -1.2184,-0.28365 -0.7574,0.01 -1.0002,0.21492 -0.2427,0.20519 -0.412,0.81843 -0.1693,0.6129 -0.083,1.19965 0.087,0.58674 0.4751,1.18858 0.3882,0.60184 0.8358,0.8989 0.4473,0.29706 0.9445,0.37753 0.4973,0.0805 0.919,-0.0268 0.4218,-0.10763 0.8758,-0.50595 0.4543,-0.39865 1.4444,-2.70742" /><path
     id="STROKE_c2b06d2a-5ef7-40f1-a64d-aa58c6ace61a"
     opacity="1"
     fill="none"
     stroke="#e66465"
     stroke-width="1.34114"
     stroke-opacity="1"
     stroke-linecap="round"
     stroke-linejoin="round"
     d="m 4910.3151,769.36682 q 0.054,0.24677 0.1653,0.70041 0.1116,0.45364 0.3192,1.01658 0.2078,0.56328 0.3949,0.95724 0.1871,0.39396 0.7554,1.52621 0.568,1.13226 1.2909,2.79929 0.7228,1.6667 1.0742,2.65412 0.3511,0.98774 0.8,2.69635 0.021,0.005 -0.226,-0.49823" /><path
     id="STROKE_8f4d9af7-d5cc-431d-aa90-b8251cc00595"
     opacity="1"
     fill="none"
     stroke="#e66465"
     stroke-width="1.34114"
     stroke-opacity="1"
     stroke-linecap="round"
     stroke-linejoin="round"
     d="m 4910.4616,769.99447 q 0.1063,-0.19178 0.3654,-0.68197 0.2592,-0.49018 0.6029,-0.84123 0.3433,-0.35104 0.8214,-0.6196 0.4785,-0.2689 1.1427,-0.3668 0.6645,-0.0982 1.1644,-0.009 0.4999,0.0888 0.905,0.34769 0.4047,0.25884 0.7879,0.70711 0.3829,0.44828 0.7309,1.46419 0.348,1.01591 0.3775,1.8776 0.03,0.86201 -0.1492,1.662 -0.1787,0.79999 -0.6132,1.52622 -0.4345,0.72622 -0.7326,1.04608 -0.2977,0.3202 -0.7313,0.59346 -0.4335,0.27292 -0.9934,0.40234 -0.1073,-0.0208 -0.5827,-0.0218" /><path
     id="STROKE_c7665a0e-dadd-4c8c-a1e6-3d6d9a26db7f"
     opacity="1"
     fill="none"
     stroke="#e66465"
     stroke-width="1.34114"
     stroke-opacity="1"
     stroke-linecap="round"
     stroke-linejoin="round"
     d="m 4920.6284,780.87915 q 0.056,-0.19849 0.2337,-0.7839 0.1777,-0.58507 0.2656,-1.02764 0.088,-0.44258 0.1186,-0.67393 0.031,-0.23134 0.038,-0.3326 0.01,-0.10159 0,-0.16529 -0.012,-0.064 -0.029,-0.0604 -0.017,0.004 0.061,0.3316 0.079,0.32824 0.4721,1.1564 0.3933,0.82781 2.3993,3.95032" /><path
     id="STROKE_c6f5e5e0-cb9a-4a52-a9ed-16619ff23b67"
     opacity="1"
     fill="none"
     stroke="#e66465"
     stroke-width="1.34114"
     stroke-opacity="1"
     stroke-linecap="round"
     stroke-linejoin="round"
     d="m 5073.5973,906.19206 q 0.017,0.16966 0.127,0.56429 0.1104,0.39462 0.3213,0.918 0.2105,0.52372 0.6836,1.66603 0.4727,1.14198 1.3354,3.77933 0.8624,2.63735 1.2225,4.04722 0.3604,1.41021 0.5656,2.45897 0.018,0 -0.5271,-0.61524" /><path
     id="STROKE_902a3f2c-39c6-4815-9935-d59d5b7608c4"
     opacity="1"
     fill="none"
     stroke="#e66465"
     stroke-width="1.34114"
     stroke-opacity="1"
     stroke-linecap="round"
     stroke-linejoin="round"
     d="m 5073.8437,908.36806 q 0.1113,-0.54484 0.2609,-1.00854 0.1498,-0.4637 0.4348,-0.88984 0.2854,-0.42615 0.6709,-0.72589 0.3856,-0.29941 0.8755,-0.43386 0.4898,-0.13412 1.1654,-0.0369 0.6753,0.0972 1.2922,0.52539 0.6169,0.42816 0.8694,0.7222 0.2525,0.29438 0.5234,0.75372 0.2705,0.45934 0.4925,1.30459 0.222,0.84525 0.1837,1.73108 -0.038,0.88582 -0.2712,1.5356 -0.2327,0.64944 -0.5157,1.05849 -0.2826,0.40938 -0.5971,0.67091 -0.3145,0.26185 -0.562,0.37753 -0.2474,0.11567 -0.3989,0.15389 -0.1516,0.0386 -0.3216,0 l -0.1874,0.0191" /><path
     id="STROKE_75a5fce3-e948-4f88-a471-21d98593a613"
     opacity="1"
     fill="none"
     stroke="#e66465"
     stroke-width="1.34114"
     stroke-opacity="1"
     stroke-linecap="round"
     stroke-linejoin="round"
     d="m 5084.197,916.80683 0.1475,-0.0141 q 0.5106,-0.0945 0.6967,-0.10293 0.1861,-0.009 0.4433,0.0342 0.2571,0.0426 0.4221,0.1616 0.1646,0.1187 0.2263,0.19816 0.062,0.0798 0.1918,0.34735 0.1297,0.26722 0.2618,0.95489 0.1318,0.68734 0.1362,1.57182 0,0.88448 0.096,1.40517 0.024,0.0141 1.2466,-0.23201 1.2228,-0.24577 3.8011,-1.15305" /><path
     id="STROKE_2f140ee9-12f9-4dd6-9d55-3b4f1af1844c"
     opacity="1"
     fill="none"
     stroke="#e66465"
     stroke-width="1.34114"
     stroke-opacity="1"
     stroke-linecap="round"
     stroke-linejoin="round"
     d="m 5070.2347,764.79287 0.107,0.13009 q 0.3041,0.43989 1.4853,2.96291 1.1815,2.52268 1.6915,4.07102 0.51,1.54801 0.69,2.40198 0.18,0.85397 0.2666,1.70459 0.086,0.85061 0.096,2.48513 -0.021,-0.0402 -0.1944,-0.25784" /><path
     id="STROKE_e6e39b4c-4c77-4dab-8fc9-e635f79968c9"
     opacity="1"
     fill="none"
     stroke="#e66465"
     stroke-width="1.34114"
     stroke-opacity="1"
     stroke-linecap="round"
     stroke-linejoin="round"
     d="m 5070.5479,766.43878 q 0.085,-0.54551 0.2243,-0.91399 0.1398,-0.36847 0.2625,-0.55187 0.1224,-0.1834 0.5348,-0.48851 0.412,-0.30478 1.1772,-0.47007 0.7651,-0.16496 1.6878,-0.0174 0.923,0.14786 1.7307,0.58608 0.8077,0.43855 1.366,1.02664 0.5582,0.58809 0.8482,1.39076 0.2904,0.80267 0.2579,1.62915 -0.033,0.82681 -0.278,1.43435 -0.2454,0.6072 -0.7527,1.17517 -0.5076,0.56763 -1.4846,1.01926 -0.9767,0.4513 -2.1854,0.68532" /><path
     id="STROKE_dd4cdd37-d7b4-4a40-af83-e00bb322becc"
     opacity="1"
     fill="none"
     stroke="#e66465"
     stroke-width="1.34114"
     stroke-opacity="1"
     stroke-linecap="round"
     stroke-linejoin="round"
     d="m 5082.6718,777.10485 q 0.1069,-0.29371 0.175,-0.44794 0.068,-0.15423 0.1777,-0.32523 0.1099,-0.17066 0.2283,-0.29136 0.1184,-0.12037 0.2139,-0.22699 0.096,-0.10662 0.7564,-0.55456 0.6605,-0.44794 1.2785,-0.55757 0.6179,-0.10964 0.9471,-0.0322 0.3293,0.0778 0.4785,0.16529 0.1492,0.0872 0.3654,0.46638 0.2163,0.37888 0.2901,0.72657 0.073,0.34769 0.07,0.79998 0,0.45197 -0.021,0.75339 -0.018,0.30142 -0.043,0.51701 0.1019,0.0392 0.5847,0.22665 0.4831,0.18709 0.8556,0.35272 0.3722,0.16563 0.571,0.34132 0.1985,0.17602 0.2787,0.32254 0.08,0.14686 0.1109,0.34099 0.031,0.19413 -0.031,0.4932 -0.062,0.29941 -0.6065,0.72489 -0.5442,0.42547 -1.478,0.64743 -0.9337,0.22162 -1.7069,0.14652 -0.7728,-0.0754 -1.4146,-0.30343 -0.642,-0.228 -1.1621,-0.60888 l -0.3855,-0.3383" /><path
     id="STROKE_028b0c4e-4e5f-435c-b09e-3100ea8b7da9"
     opacity="1"
     fill="none"
     stroke="#e66465"
     stroke-width="1.34114"
     stroke-opacity="1"
     stroke-linecap="round"
     stroke-linejoin="round"
     d="m 4711.4307,777.0291 -0.056,-0.0241 q -0.4584,-0.27896 -0.5901,-0.32355 -0.1318,-0.0443 -0.3387,-0.11768 -0.2068,-0.0734 -0.5666,-0.12372 -0.3597,-0.0506 -0.7416,0.0483 -0.3819,0.0992 -0.5254,0.18977 -0.1435,0.0909 -0.275,0.25515 -0.1311,0.16395 -0.1914,0.25549 -0.06,0.0915 -0.11,0.38692 -0.05,0.29572 -0.01,0.5046 0.042,0.20922 0.1844,0.44023 0.1422,0.23101 0.3105,0.39731 0.1686,0.16597 0.4043,0.29539 0.2361,0.12908 0.5254,0.19446 0.2897,0.0654 0.6304,0.0868 0.3406,0.0215 0.6497,-0.0322 0.3092,-0.0536 0.4772,-0.13177 0.1683,-0.0778 0.4093,-0.25884 0.2408,-0.18105 0.3652,-0.36613 0.124,-0.18474 0.1529,-0.25515 0.029,-0.0701 0.1015,-0.11869 0.074,-0.0486 0.2733,-1.47626" /><path
     id="STROKE_b796c49b-c67e-447e-b87e-1826e771d7bd"
     opacity="1"
     fill="none"
     stroke="#e66465"
     stroke-width="1.34114"
     stroke-opacity="1"
     stroke-linecap="round"
     stroke-linejoin="round"
     d="m 4711.9185,907.34111 q -0.2289,-0.33663 -0.5548,-0.65247 -0.3256,-0.31617 -0.8067,-0.65078 -0.4808,-0.33495 -0.5217,-0.37418 -0.041,-0.0396 -0.6492,-0.17435 -0.6078,-0.13478 -1.0289,-0.0704 -0.4212,0.064 -0.5023,0.10025 -0.081,0.0359 -0.2766,0.25482 -0.1955,0.2186 -0.2796,0.43855 -0.084,0.21961 -0.09,0.41877 -0.01,0.19916 -0.01,0.27762 4e-4,0.0781 0.1358,0.40435 0.1352,0.32623 0.402,0.61692 0.2673,0.29036 0.561,0.45331 0.2937,0.16295 0.5924,0.23604 0.2991,0.0734 0.5844,0.11735 0.2853,0.0442 0.968,-0.0711 0.6826,-0.11501 1.0514,-0.28332 0.3689,-0.16798 0.6398,-0.41475 0.2705,-0.24677 1.2067,-1.70961" /><path
     id="STROKE_dfa73718-44ce-412d-bd97-ffa63a183638"
     opacity="1"
     fill="none"
     stroke="#e66465"
     stroke-width="1.34114"
     stroke-opacity="1"
     stroke-linecap="round"
     stroke-linejoin="round"
     d="m 4840.9038,777.96488 q -0.1009,-0.1368 -0.3178,-0.63168 -0.2169,-0.49488 -0.3702,-0.76981 -0.1535,-0.27493 -0.229,-0.36747 -0.075,-0.0925 -0.3983,-0.42346 -0.3229,-0.33059 -0.5304,-0.41509 -0.2072,-0.0845 -0.3588,-0.0959 -0.1515,-0.0114 -0.2896,0.0117 -0.1378,0.0231 -0.4403,0.36378 -0.3024,0.34098 -0.3973,0.59278 -0.095,0.25214 -0.1106,0.42246 -0.016,0.17033 0.042,0.55289 0.058,0.38256 0.1163,0.50225 0.059,0.12003 0.1797,0.26622 0.1207,0.14652 0.5221,0.44894 0.401,0.30277 0.9478,0.46001 0.5469,0.15759 0.6783,0.17871 0.1318,0.0211 0.3514,0.0228 0.2196,0.002 1.1218,-0.0764" /><path
     id="STROKE_2a30d960-0277-4ec5-9fce-85b6be0c617e"
     opacity="1"
     fill="none"
     stroke="#e66465"
     stroke-width="1.34114"
     stroke-opacity="1"
     stroke-linecap="round"
     stroke-linejoin="round"
     d="m 4841.842,907.64856 -0.3025,-0.29538 -0.058,-0.21324 q -0.028,-0.0785 -0.3424,-0.64408 -0.3138,-0.56563 -0.6534,-0.90561 -0.34,-0.34031 -0.4771,-0.42447 -0.1368,-0.0842 -0.2404,-0.12171 -0.1036,-0.0379 -0.5526,-0.0741 -0.4489,-0.0365 -0.7346,0.10025 -0.2857,0.13679 -0.3011,0.16261 l -0.407,0.54718 q -0.032,0.0258 -0.1633,0.80971 -0.1314,0.7839 0,1.22413 0.1324,0.43989 0.2461,0.6015 0.114,0.16161 0.2964,0.32791 0.1827,0.1663 0.5076,0.344 0.3252,0.1777 0.8117,0.22028 0.4862,0.0429 0.7652,-0.003 0.2789,-0.0463 0.6809,-0.30712 0.402,-0.26118 1.4397,-1.38238" /><path
     id="STROKE_13cda5c5-870d-467c-856f-69bb6b2bf8d8"
     opacity="1"
     fill="none"
     stroke="#e66465"
     stroke-width="1.34114"
     stroke-opacity="1"
     stroke-linecap="round"
     stroke-linejoin="round"
     d="m 4934.076,775.96723 -0.056,-0.0241 q -0.4584,-0.27896 -0.5901,-0.32355 -0.1318,-0.0443 -0.3387,-0.11769 -0.2068,-0.0734 -0.5666,-0.12372 -0.3597,-0.0506 -0.7416,0.0483 -0.3819,0.0992 -0.5254,0.18977 -0.1435,0.0909 -0.275,0.25515 -0.1311,0.16395 -0.1914,0.25549 -0.06,0.0915 -0.11,0.38691 -0.05,0.29539 -0.01,0.50461 0.042,0.20888 0.1844,0.44023 0.1422,0.23101 0.3105,0.39731 0.1686,0.16596 0.4043,0.29538 0.2361,0.12909 0.5254,0.19447 0.2897,0.0654 0.6304,0.0868 0.3406,0.0215 0.6497,-0.0322 0.3092,-0.0537 0.4772,-0.13177 0.1683,-0.0778 0.4093,-0.25884 0.2408,-0.18105 0.3652,-0.36613 0.124,-0.18474 0.1529,-0.25515 0.029,-0.0701 0.1015,-0.11869 0.074,-0.0486 0.2733,-1.47626" /><path
     id="STROKE_428232dd-5146-4c8d-a0d8-8eb170a2c053"
     opacity="1"
     fill="none"
     stroke="#e66465"
     stroke-width="1.34114"
     stroke-opacity="1"
     stroke-linecap="round"
     stroke-linejoin="round"
     d="m 4934.5638,906.27924 q -0.2289,-0.33663 -0.5548,-0.6528 -0.3256,-0.31584 -0.8067,-0.65046 -0.4808,-0.33494 -0.5217,-0.37417 -0.041,-0.0396 -0.6492,-0.17435 -0.6078,-0.13479 -1.0289,-0.0704 -0.4212,0.064 -0.5023,0.0999 -0.081,0.0362 -0.2766,0.25482 -0.1955,0.21894 -0.2796,0.43889 -0.084,0.21961 -0.09,0.41877 -0.01,0.19916 -0.01,0.27761 4e-4,0.0781 0.1358,0.40436 0.1352,0.32623 0.402,0.61692 0.2673,0.29036 0.561,0.4533 0.2937,0.16295 0.5924,0.23605 0.2991,0.0734 0.5844,0.11734 0.2853,0.0443 0.968,-0.0711 0.6826,-0.115 1.0514,-0.28331 0.3689,-0.16798 0.6398,-0.41475 0.2705,-0.24677 1.2067,-1.70928" /><path
     id="STROKE_f7b972ff-2560-47e0-b414-d79083a82fb3"
     opacity="1"
     fill="none"
     stroke="#e66465"
     stroke-width="1.34114"
     stroke-opacity="1"
     stroke-linecap="round"
     stroke-linejoin="round"
     d="m 5063.5491,776.90301 q -0.1009,-0.1368 -0.3178,-0.63168 -0.2169,-0.49488 -0.3702,-0.76981 -0.1535,-0.27493 -0.229,-0.36747 -0.075,-0.0929 -0.3983,-0.42347 -0.3229,-0.33059 -0.5304,-0.41508 -0.2072,-0.0845 -0.3588,-0.0959 -0.1515,-0.0117 -0.2896,0.0117 -0.1378,0.0231 -0.4403,0.36379 -0.3024,0.34098 -0.3973,0.59278 -0.095,0.25214 -0.1106,0.42246 -0.016,0.17032 0.042,0.55288 0.058,0.38256 0.1163,0.50226 0.059,0.12003 0.1797,0.26622 0.1207,0.14652 0.5221,0.44894 0.401,0.30243 0.9478,0.46001 0.5469,0.15759 0.6783,0.17871 0.1318,0.0211 0.3514,0.0228 0.2196,0.002 1.1218,-0.0765" /><path
     id="STROKE_e00cead9-190d-44cf-88b0-b8746d7723cd"
     opacity="1"
     fill="none"
     stroke="#e66465"
     stroke-width="1.34114"
     stroke-opacity="1"
     stroke-linecap="round"
     stroke-linejoin="round"
     d="m 5064.4873,906.58669 -0.3025,-0.29538 -0.058,-0.21325 q -0.028,-0.0785 -0.3424,-0.64408 -0.3138,-0.56562 -0.6534,-0.9056 -0.34,-0.34031 -0.4771,-0.42447 -0.1368,-0.0842 -0.2404,-0.12171 -0.1036,-0.0379 -0.5526,-0.0741 -0.4489,-0.0365 -0.7346,0.10025 -0.2857,0.1368 -0.3011,0.16262 l -0.407,0.54718 q -0.032,0.0258 -0.1633,0.80971 -0.1314,0.7839 0,1.22413 0.1324,0.43989 0.2461,0.6015 0.114,0.1616 0.2964,0.32791 0.1827,0.1663 0.5076,0.344 0.3252,0.1777 0.8117,0.22028 0.4862,0.0429 0.7652,-0.003 0.2789,-0.0463 0.6809,-0.30712 0.402,-0.26119 1.4397,-1.38238" /><path
     id="STROKE_3f989288-cf7b-4aa1-9bac-3de737dba772"
     opacity="1"
     fill="none"
     stroke="#e66465"
     stroke-width="1.34114"
     stroke-opacity="1"
     stroke-linecap="round"
     stroke-linejoin="round"
     d="m 4685.1883,899.65203 -0.01,0.16026 q -0.022,0.21056 0.5623,2.41841 0.5844,2.20818 0.9954,3.58654 0.4111,1.37835 0.7266,2.63601 0.3155,1.25798 0.9207,4.03716 0.028,0.0396 0.1368,0.34333" /><path
     id="STROKE_6fdd0de8-c951-4541-8890-45075086ec76"
     opacity="1"
     fill="none"
     stroke="#e66465"
     stroke-width="1.34114"
     stroke-opacity="1"
     stroke-linecap="round"
     stroke-linejoin="round"
     d="m 4684.1231,900.95863 q 0.3464,-0.98976 0.8979,-1.76896 0.5516,-0.7792 1.3589,-1.43401 0.8074,-0.65481 1.4163,-0.88314 0.6092,-0.22866 1.0176,-0.2689 0.4083,-0.0402 0.7463,0.005 0.338,0.0453 1.7693,1.34717 1.431,1.30191 1.5973,1.92051 0.166,0.6186 0.1539,1.01893 -0.012,0.39966 -0.3048,1.12991 -0.293,0.73025 -1.0675,1.68245 -0.7745,0.95255 -1.2158,1.38808 -0.4409,0.43554 -0.7654,0.69002 -0.3246,0.25414 -0.5569,0.38222 -0.033,0.004 0.08,0.23034" /><path
     id="STROKE_534ac1f1-9284-402e-a14f-a1556a0d47d2"
     opacity="1"
     fill="none"
     stroke="#e66465"
     stroke-width="1.34114"
     stroke-opacity="1"
     stroke-linecap="round"
     stroke-linejoin="round"
     d="m 4695.5416,913.27061 q -0.2257,-0.26319 -0.5583,-0.50393 -0.3329,-0.24073 -0.5096,-0.39832 -0.1764,-0.15792 -0.4684,-0.52606 -0.2924,-0.36814 -0.4617,-0.85028 -0.1693,-0.4818 -0.1673,-0.80066 0,-0.31885 0.111,-0.63838 0.1086,-0.31953 0.4593,-0.61357 0.3504,-0.29371 0.7256,-0.38156 0.3748,-0.0878 0.7363,-0.0436 0.3614,0.0443 0.6632,0.25817 0.3017,0.21424 0.5555,0.61491 0.2538,0.40033 0.3574,0.73293 0.1033,0.3326 0.1332,0.67057 0.03,0.3383 -0.032,0.77853 -0.062,0.43989 -0.2012,0.71986 -0.1391,0.28029 -0.3899,0.5901 -0.2505,0.3098 -1.9185,0.96796" /><path
     id="STROKE_83f2df5f-78ae-43e2-b7a7-02c003b8771b"
     opacity="1"
     fill="none"
     stroke="#e66465"
     stroke-width="1.34114"
     stroke-opacity="1"
     stroke-linecap="round"
     stroke-linejoin="round"
     d="m 4683.7369,766.16655 0.013,0.12942 q 0.012,0.18542 0.8449,2.48949 0.8325,2.30408 1.3328,3.65762 0.5002,1.35388 0.8898,2.51396 0.3896,1.16009 1.0055,3.4598 0.03,0.009 -0.5575,-0.66822" /><path
     id="STROKE_f58ef484-4947-4ee2-8b3c-a921ee27598e"
     opacity="1"
     fill="none"
     stroke="#e66465"
     stroke-width="1.34114"
     stroke-opacity="1"
     stroke-linecap="round"
     stroke-linejoin="round"
     d="m 4682.5718,767.37559 q 0.011,-0.0362 0.07,-0.46705 0.06,-0.43118 0.1794,-0.80368 0.1193,-0.37216 0.5632,-1.00384 0.4436,-0.63134 1.0253,-1.05983 0.5818,-0.4285 1.1192,-0.6186 0.5375,-0.19011 1.0877,-0.23738 0.5502,-0.0473 0.9954,0.0231 0.4453,0.0704 0.9003,0.30712 0.455,0.23705 0.9441,0.87744 0.4896,0.64039 0.7826,1.89838 0.293,1.25799 0.2498,2.00198 -0.043,0.744 -0.2803,1.49135 -0.2374,0.74768 -0.8057,1.45111 -0.5683,0.70376 -1.0803,1.00753 -0.5123,0.30343 -0.8345,0.38088 -0.3226,0.0774 -1.2345,0.0473" /><path
     id="STROKE_a0c4a86d-b506-49c7-b826-61041e00d5ed"
     opacity="1"
     fill="none"
     stroke="#e66465"
     stroke-width="1.34114"
     stroke-opacity="1"
     stroke-linecap="round"
     stroke-linejoin="round"
     d="m 4694.8626,778.66931 q 0.8879,-2.71379 1.0119,-3.32535 0.1241,-0.61122 0.1589,-0.82413 0.035,-0.21324 -0.118,-0.24308 -0.073,0.18675 0.027,0.84492 0.1,0.65816 0.2773,1.20333 0.1777,0.54484 0.4919,1.23385 0.3145,0.68935 0.8305,1.40786 0.1153,0.0761 0.35,0.35373" /><path
     id="STROKE_850bf3dc-73dc-436f-bfd5-57e16a05f80b"
     opacity="1"
     fill="none"
     stroke="#e66465"
     stroke-width="1.34114"
     stroke-opacity="1"
     stroke-linecap="round"
     stroke-linejoin="round"
     d="m 4849.5099,755.90249 q 0.018,0.0345 0.014,0.25247 0,0.35741 0.4684,1.73342 0.4651,1.37601 1.2014,3.48797 0.7366,2.11195 1.3304,4.54478 0.5937,2.43282 0.921,4.29868 0.029,0.0339 -0.3802,-1.28448" /><path
     id="STROKE_c4aaf8cb-871f-42d4-9e80-ab99c0390988"
     opacity="1"
     fill="none"
     stroke="#e66465"
     stroke-width="1.34114"
     stroke-opacity="1"
     stroke-linecap="round"
     stroke-linejoin="round"
     d="m 4849.2169,757.3298 q 0.035,-0.048 0.2605,-0.66554 0.2253,-0.61793 0.4137,-0.9559 0.1881,-0.33763 0.3129,-0.51064 0.1247,-0.17334 0.6276,-0.60887 0.5029,-0.43587 1.1474,-0.6984 0.644,-0.26253 1.0377,-0.31517 0.3936,-0.0526 0.8626,-0.0282 0.4691,0.0245 0.7367,0.0808 0.2675,0.0567 1.206,0.58608 0.9381,0.52975 1.4933,1.12756 0.5553,0.59781 0.9261,1.29017 0.3705,0.69237 0.5116,1.60099 0.1412,0.90862 0.068,1.4662 -0.073,0.55791 -0.3912,1.23552 -0.3186,0.67761 -1.0525,1.29755 -0.7343,0.62028 -1.3022,0.8181 -0.5677,0.19781 -0.859,0.22229 -0.2914,0.0245 -0.5117,-0.008 -0.2206,-0.0329 -0.3286,-0.0852 -0.1076,-0.0523 -0.2025,-0.13109 -0.095,-0.0791 -0.1529,-0.16027 -0.057,-0.0811 -0.1834,-0.28499" /><path
     id="STROKE_88d23b8c-67f1-40a1-835d-8c1f0994778c"
     opacity="1"
     fill="none"
     stroke="#e66465"
     stroke-width="1.34114"
     stroke-opacity="1"
     stroke-linecap="round"
     stroke-linejoin="round"
     d="m 4861.7542,770.1722 q 0.049,-0.10159 -0.084,-0.40268 0.083,-0.56864 0.3531,-0.98205 0.2702,-0.4134 0.578,-0.61558 0.3078,-0.20184 0.5596,-0.22263 0.2518,-0.0204 0.3514,-0.0158 0.099,0.005 0.3577,0.16027 0.2582,0.15591 0.5103,0.59982 0.2518,0.44392 0.348,1.14366 0.096,0.6994 -0.1052,1.89 -0.2015,1.19026 -0.335,1.95404 -0.1334,0.76344 -0.072,1.23384 0.1777,0.0573 1.3764,0.0228 1.1986,-0.0345 4.8707,-0.55791" /><path
     id="STROKE_c80d78fa-209d-4dc3-8959-63e6d38face6"
     opacity="1"
     fill="none"
     stroke="#e66465"
     stroke-width="1.34114"
     stroke-opacity="1"
     stroke-linecap="round"
     stroke-linejoin="round"
     d="m 4852.382,894.434 -0.034,0.24341 q -0.02,0.10629 0.9438,4.94746 0.9636,4.84117 2.6491,9.98276 0.053,0.0201 -0.023,-0.0345" /><path
     id="STROKE_aa818e40-01f0-40ec-89be-2437d1bfcf84"
     opacity="1"
     fill="none"
     stroke="#e66465"
     stroke-width="1.34114"
     stroke-opacity="1"
     stroke-linecap="round"
     stroke-linejoin="round"
     d="m 4852.8215,895.7406 q 0.025,-0.0557 0.06,-0.39362 0.036,-0.33831 0.1462,-0.6642 0.1103,-0.3259 0.1848,-0.48415 0.074,-0.15792 0.2102,-0.34769 0.1358,-0.18944 0.3309,-0.37753 0.1951,-0.18776 0.3712,-0.30478 0.1763,-0.11701 0.3175,-0.20787 0.1415,-0.0909 0.9941,-0.24912 0.8526,-0.15792 1.4226,-0.0925 0.57,0.0654 1.1376,0.31114 0.568,0.24577 1.0072,0.59782 0.4396,0.35238 0.803,0.96059 0.3638,0.6082 0.5056,1.45245 0.1419,0.84425 0.033,1.604 -0.1086,0.75942 -0.5616,1.60467 -0.4526,0.84525 -1.0491,1.4082 -0.5961,0.56327 -1.2295,0.85464 -0.6333,0.29136 -1.1238,0.35003 -0.4905,0.0587 -0.8171,-0.0228 -0.3266,-0.0818 -0.6672,-0.31852 l -0.2847,-0.14316" /><path
     id="STROKE_2adf652a-2adb-4a0c-a9da-268ee60c1f0f"
     opacity="1"
     fill="none"
     stroke="#e66465"
     stroke-width="1.34114"
     stroke-opacity="1"
     stroke-linecap="round"
     stroke-linejoin="round"
     d="m 4865.738,904.27728 q 0.051,-0.0315 0.164,-0.21157 0.1126,-0.18004 0.4744,-0.53511 0.3618,-0.3554 0.8429,-0.67996 0.4811,-0.32455 0.9653,-0.47644 0.4838,-0.15188 0.8764,-0.11835 0.3923,0.0332 0.5824,0.10896 0.1898,0.0754 0.3886,0.25918 0.1988,0.18374 0.3742,0.65079 0.1757,0.46671 0.1582,0.9911 -0.017,0.52405 -0.1854,0.9864 -0.1686,0.46236 -0.2699,0.65482 -0.1012,0.19211 -0.1851,0.23469 0.052,-0.0456 0.1486,-0.0878 0.096,-0.0419 0.2836,-0.059 0.1868,-0.0168 0.6066,0.0178 0.4194,0.0345 1.0226,0.2471 0.6028,0.21224 0.9827,0.45934 0.3799,0.24677 0.6307,0.55356 0.2508,0.30645 0.3369,0.50628 0.086,0.20016 0.097,0.42011 0.011,0.21995 -0.06,0.47342 -0.071,0.25348 -0.2401,0.52506 -0.1686,0.27124 -0.6118,0.62899 -0.4433,0.35775 -1.1655,0.62229 -0.7219,0.26454 -1.4082,0.30947 -0.686,0.0453 -1.1272,-0.0426 -0.4413,-0.0882 -0.7313,-0.228 -0.2903,-0.14015 -0.5676,-0.34869 -0.2773,-0.20822 -0.6692,-0.75842 l -0.2357,-0.36076" /><path
     id="STROKE_2af60c41-3e04-4a05-8dab-d145cfb39f22"
     opacity="1"
     fill="none"
     stroke="#e66465"
     stroke-width="1.34114"
     stroke-opacity="1"
     stroke-linecap="round"
     stroke-linejoin="round"
     d="m 4908.4747,902.43252 -0.017,0.35741 q 0.054,0.32355 0.3397,1.4501 0.286,1.12623 0.6239,2.38052 0.338,1.2543 0.86,3.04372 0.5221,1.78941 0.8372,2.72854 0.3152,0.93913 0.5985,1.6258 0.2833,0.68632 0.4279,0.98238 0.1441,0.29572 0.3185,0.57568 0.042,0.006 -0.4999,-0.8087" /><path
     id="STROKE_eab39eb2-a32d-4092-bded-2c80e463399f"
     opacity="1"
     fill="none"
     stroke="#e66465"
     stroke-width="1.34114"
     stroke-opacity="1"
     stroke-linecap="round"
     stroke-linejoin="round"
     d="m 4908.5481,903.45078 q 0.015,-0.40872 0.3665,-1.40384 0.3514,-0.99546 0.7349,-1.49436 0.3839,-0.49857 0.6743,-0.68231 0.2907,-0.18373 0.5364,-0.24911 0.2455,-0.0654 0.9117,0.0661 0.6662,0.13109 1.4414,0.69303 0.7751,0.5616 1.1436,1.031 0.3688,0.46973 0.6015,1.01558 0.2327,0.54584 0.2884,1.17014 0.056,0.62396 -0.1962,1.41289 -0.2521,0.78926 -0.8305,1.47022 -0.5783,0.6813 -1.0917,0.99412 -0.5133,0.31282 -0.9284,0.41072 -0.4154,0.0979 -0.6481,0.0815 -0.233,-0.0164 -0.4063,-0.0563 -0.1734,-0.0399 -0.3568,-0.15658 -0.1837,-0.11668 -0.295,-0.2129 -0.1113,-0.0959 -0.2481,-0.22129" /><path
     id="STROKE_07cf0213-0e71-40b3-a2c7-a096c22d483c"
     opacity="1"
     fill="none"
     stroke="#e66465"
     stroke-width="1.34114"
     stroke-opacity="1"
     stroke-linecap="round"
     stroke-linejoin="round"
     d="m 4922.9962,913.41476 q -0.024,-0.27929 -0.2334,-0.82245 -0.2092,-0.54316 -0.5686,-1.02597 -0.3594,-0.48315 -0.8208,-0.77619 -0.461,-0.29304 -1.2184,-0.28365 -0.7574,0.01 -1.0002,0.21492 -0.2427,0.20519 -0.412,0.81843 -0.1693,0.6129 -0.083,1.19965 0.087,0.58674 0.4751,1.18858 0.3882,0.60184 0.8358,0.8989 0.4473,0.29706 0.9445,0.37753 0.4973,0.0805 0.919,-0.0268 0.4218,-0.10763 0.8758,-0.50595 0.4543,-0.39865 1.4444,-2.70742" /><path
     id="STROKE_67d780bf-7249-4abd-ae03-8d213ba6a055"
     opacity="1"
     fill="none"
     stroke="#e66465"
     stroke-width="1.34114"
     stroke-opacity="1"
     stroke-linecap="round"
     stroke-linejoin="round"
     d="m 4910.3151,769.36682 q 0.054,0.24677 0.1653,0.70041 0.1116,0.45364 0.3192,1.01658 0.2078,0.56328 0.3949,0.95724 0.1871,0.39396 0.7554,1.52621 0.568,1.13226 1.2909,2.79929 0.7228,1.6667 1.0742,2.65412 0.3511,0.98774 0.8,2.69635 0.021,0.005 -0.226,-0.49823" /><path
     id="STROKE_445e910a-e170-4521-9801-d1dac0e3926a"
     opacity="1"
     fill="none"
     stroke="#e66465"
     stroke-width="1.34114"
     stroke-opacity="1"
     stroke-linecap="round"
     stroke-linejoin="round"
     d="m 4910.4616,769.99447 q 0.1063,-0.19178 0.3654,-0.68197 0.2592,-0.49018 0.6029,-0.84123 0.3433,-0.35104 0.8214,-0.6196 0.4785,-0.2689 1.1427,-0.3668 0.6645,-0.0982 1.1644,-0.009 0.4999,0.0888 0.905,0.34769 0.4047,0.25884 0.7879,0.70711 0.3829,0.44828 0.7309,1.46419 0.348,1.01591 0.3775,1.8776 0.03,0.86201 -0.1492,1.662 -0.1787,0.79999 -0.6132,1.52622 -0.4345,0.72622 -0.7326,1.04608 -0.2977,0.3202 -0.7313,0.59346 -0.4335,0.27292 -0.9934,0.40234 -0.1073,-0.0208 -0.5827,-0.0218" /><path
     id="STROKE_289e32fc-1962-4aae-bd75-9680deb89ea5"
     opacity="1"
     fill="none"
     stroke="#e66465"
     stroke-width="1.34114"
     stroke-opacity="1"
     stroke-linecap="round"
     stroke-linejoin="round"
     d="m 4920.6284,780.87915 q 0.056,-0.19849 0.2337,-0.7839 0.1777,-0.58507 0.2656,-1.02764 0.088,-0.44258 0.1186,-0.67393 0.031,-0.23134 0.038,-0.3326 0.01,-0.10159 0,-0.16529 -0.012,-0.064 -0.029,-0.0604 -0.017,0.004 0.061,0.3316 0.079,0.32824 0.4721,1.1564 0.3933,0.82781 2.3993,3.95032" /><path
     id="STROKE_1144e0ca-efd3-4ac9-8a13-2e8eadfcd043"
     opacity="1"
     fill="none"
     stroke="#e66465"
     stroke-width="1.34114"
     stroke-opacity="1"
     stroke-linecap="round"
     stroke-linejoin="round"
     d="m 5073.5973,906.19206 q 0.017,0.16966 0.127,0.56429 0.1104,0.39462 0.3213,0.918 0.2105,0.52372 0.6836,1.66603 0.4727,1.14198 1.3354,3.77933 0.8624,2.63735 1.2225,4.04722 0.3604,1.41021 0.5656,2.45897 0.018,0 -0.5271,-0.61524" /><path
     id="STROKE_21a61894-0bd0-4c38-b45b-4064a77be9c5"
     opacity="1"
     fill="none"
     stroke="#e66465"
     stroke-width="1.34114"
     stroke-opacity="1"
     stroke-linecap="round"
     stroke-linejoin="round"
     d="m 5073.8437,908.36806 q 0.1113,-0.54484 0.2609,-1.00854 0.1498,-0.4637 0.4348,-0.88984 0.2854,-0.42615 0.6709,-0.72589 0.3856,-0.29941 0.8755,-0.43386 0.4898,-0.13412 1.1654,-0.0369 0.6753,0.0972 1.2922,0.52539 0.6169,0.42816 0.8694,0.7222 0.2525,0.29438 0.5234,0.75372 0.2705,0.45934 0.4925,1.30459 0.222,0.84525 0.1837,1.73108 -0.038,0.88582 -0.2712,1.5356 -0.2327,0.64944 -0.5157,1.05849 -0.2826,0.40938 -0.5971,0.67091 -0.3145,0.26185 -0.562,0.37753 -0.2474,0.11567 -0.3989,0.15389 -0.1516,0.0386 -0.3216,0 l -0.1874,0.0191" /><path
     id="STROKE_2287df6e-b812-4f1a-b326-27210ba37228"
     opacity="1"
     fill="none"
     stroke="#e66465"
     stroke-width="1.34114"
     stroke-opacity="1"
     stroke-linecap="round"
     stroke-linejoin="round"
     d="m 5084.197,916.80683 0.1475,-0.0141 q 0.5106,-0.0945 0.6967,-0.10293 0.1861,-0.009 0.4433,0.0342 0.2571,0.0426 0.4221,0.1616 0.1646,0.1187 0.2263,0.19816 0.062,0.0798 0.1918,0.34735 0.1297,0.26722 0.2618,0.95489 0.1318,0.68734 0.1362,1.57182 0,0.88448 0.096,1.40517 0.024,0.0141 1.2466,-0.23201 1.2228,-0.24577 3.8011,-1.15305" /><path
     id="STROKE_107a159c-820b-4b5e-86c8-e2f04ed2e72e"
     opacity="1"
     fill="none"
     stroke="#e66465"
     stroke-width="1.34114"
     stroke-opacity="1"
     stroke-linecap="round"
     stroke-linejoin="round"
     d="m 5070.2347,764.79287 0.107,0.13009 q 0.3041,0.43989 1.4853,2.96291 1.1815,2.52268 1.6915,4.07102 0.51,1.54801 0.69,2.40198 0.18,0.85397 0.2666,1.70459 0.086,0.85061 0.096,2.48513 -0.021,-0.0402 -0.1944,-0.25784" /><path
     id="STROKE_71a5ecbe-4ea9-489f-971f-f14e6c1c7526"
     opacity="1"
     fill="none"
     stroke="#e66465"
     stroke-width="1.34114"
     stroke-opacity="1"
     stroke-linecap="round"
     stroke-linejoin="round"
     d="m 5070.5479,766.43878 q 0.085,-0.54551 0.2243,-0.91399 0.1398,-0.36847 0.2625,-0.55187 0.1224,-0.1834 0.5348,-0.48851 0.412,-0.30478 1.1772,-0.47007 0.7651,-0.16496 1.6878,-0.0174 0.923,0.14786 1.7307,0.58608 0.8077,0.43855 1.366,1.02664 0.5582,0.58809 0.8482,1.39076 0.2904,0.80267 0.2579,1.62915 -0.033,0.82681 -0.278,1.43435 -0.2454,0.6072 -0.7527,1.17517 -0.5076,0.56763 -1.4846,1.01926 -0.9767,0.4513 -2.1854,0.68532" /><path
     id="STROKE_5600f7fb-ff40-4bb2-b9fd-8523b40f1d18"
     opacity="1"
     fill="none"
     stroke="#e66465"
     stroke-width="1.34114"
     stroke-opacity="1"
     stroke-linecap="round"
     stroke-linejoin="round"
     d="m 5082.6718,777.10485 q 0.1069,-0.29371 0.175,-0.44794 0.068,-0.15423 0.1777,-0.32523 0.1099,-0.17066 0.2283,-0.29136 0.1184,-0.12037 0.2139,-0.22699 0.096,-0.10662 0.7564,-0.55456 0.6605,-0.44794 1.2785,-0.55757 0.6179,-0.10964 0.9471,-0.0322 0.3293,0.0778 0.4785,0.16529 0.1492,0.0872 0.3654,0.46638 0.2163,0.37888 0.2901,0.72657 0.073,0.34769 0.07,0.79998 0,0.45197 -0.021,0.75339 -0.018,0.30142 -0.043,0.51701 0.1019,0.0392 0.5847,0.22665 0.4831,0.18709 0.8556,0.35272 0.3722,0.16563 0.571,0.34132 0.1985,0.17602 0.2787,0.32254 0.08,0.14686 0.1109,0.34099 0.031,0.19413 -0.031,0.4932 -0.062,0.29941 -0.6065,0.72489 -0.5442,0.42547 -1.478,0.64743 -0.9337,0.22162 -1.7069,0.14652 -0.7728,-0.0754 -1.4146,-0.30343 -0.642,-0.228 -1.1621,-0.60888 l -0.3855,-0.3383" /></g></svg>
