<?xml version="1.0" encoding="UTF-8" standalone="no"?>
<svg
   version="1.1"
   xml:space="preserve"
   x="0px"
   y="0px"
   viewBox="0 0 960 480"
   id="svg1"
   sodipodi:docname="bezier-quadratic-4.svg"
   inkscape:version="1.3.2 (091e20ef0f, 2023-11-25, custom)"
   xmlns:inkscape="http://www.inkscape.org/namespaces/inkscape"
   xmlns:sodipodi="http://sodipodi.sourceforge.net/DTD/sodipodi-0.dtd"
   xmlns="http://www.w3.org/2000/svg"
   xmlns:svg="http://www.w3.org/2000/svg"><defs
   id="defs1" /><sodipodi:namedview
   id="namedview1"
   pagecolor="#505050"
   bordercolor="#eeeeee"
   borderopacity="1"
   inkscape:showpageshadow="0"
   inkscape:pageopacity="0"
   inkscape:pagecheckerboard="0"
   inkscape:deskcolor="#d1d1d1"
   inkscape:zoom="1.3906433"
   inkscape:cx="392.62403"
   inkscape:cy="132.67241"
   inkscape:window-width="2560"
   inkscape:window-height="1600"
   inkscape:window-x="0"
   inkscape:window-y="0"
   inkscape:window-maximized="0"
   inkscape:current-layer="Quadratic_4" />
<g
   id="Quadratic_4"
   opacity="1"
   transform="matrix(0.77292774,0,0,0.77292774,-2656.7933,-456.91901)"><path
     id="STROKE_12b441b5-c60b-4d87-8ac0-f84aec9da48c"
     opacity="1"
     fill="none"
     stroke="#e66465"
     stroke-width="3.69222"
     stroke-opacity="1"
     stroke-linecap="round"
     stroke-linejoin="round"
     d="m 4519.7066,774.09593 -0.1726,-0.5031 q -0.035,-0.132 -0.2483,-1.6052 -0.2141,-1.4741 -0.5381,-2.219 -0.3231,-0.7458 -0.936,-1.415 -0.612,-0.6702 -1.3772,-0.9111 -0.7661,-0.2418 -1.6273,-0.036 -0.8613,0.2049 -1.7188,0.8963 -0.8575,0.6923 -1.1972,1.1529 -0.3387,0.4615 -0.6184,1.0375 -0.2797,0.576 -0.4532,1.4723 -0.1736,0.8972 -0.1274,1.7722 0.047,0.8751 0.1449,1.2157 0.099,0.3397 0.2548,0.6231 0.1569,0.2824 0.6673,0.8215 0.5105,0.5391 0.9526,0.7615 0.4431,0.2234 0.7006,0.2834 0.2585,0.06 0.6748,0.082 0.4163,0.023 1.4021,-0.3046 0.9867,-0.3277 3.5454,-1.8036" /><path
     id="STROKE_d5e76f1b-e58e-4121-8a97-94dfabcf4106"
     opacity="1"
     fill="none"
     stroke="#e66465"
     stroke-width="3.69222"
     stroke-opacity="1"
     stroke-linecap="round"
     stroke-linejoin="round"
     d="m 4609.2484,996.06363 -0.348,-0.3295 q -0.2252,-0.2271 -0.6803,-1.3467 -0.456,-1.1197 -0.8363,-1.8148 -0.3793,-0.695 -1.0347,-1.331 -0.6554,-0.6351 -1.7787,-1.0505 -1.1225,-0.4153 -2.0871,-0.3719 -0.9636,0.044 -1.7916,0.5455 -0.8289,0.5021 -1.1068,0.8483 -0.2787,0.3461 -0.5169,1.0421 -0.239,0.6951 -0.2824,1.2738 -0.043,0.5788 0.2917,1.6735 0.3332,1.0938 0.8547,1.7067 0.5206,0.6129 1.0089,0.9259 0.4892,0.3119 1.1806,0.491 0.6923,0.1782 1.5313,0.1865 0.8382,0.01 1.1271,-0.066 0.288,-0.073 0.5317,-0.1227 0.2437,-0.049 1.5166,-0.8095 1.2719,-0.7616 2.7682,-2.6898 l 0.9064,-1.5424" /><path
     id="STROKE_8d8c9c5b-c859-4b19-9fb5-c65aa123ed51"
     opacity="1"
     fill="none"
     stroke="#e66465"
     stroke-width="3.69222"
     stroke-opacity="1"
     stroke-linecap="round"
     stroke-linejoin="round"
     d="m 4298.2318,908.90793 q -0.067,-0.1024 -0.3711,-1.5802 -0.3036,-1.4788 -0.767,-2.604 -0.4634,-1.1252 -0.7985,-1.6209 -0.335,-0.4956 -0.6166,-0.8104 -0.2806,-0.3157 -0.4864,-0.4606 -0.2058,-0.1449 -0.2492,-0.2086 -0.044,-0.063 -2.6778,-0.1357 -2.6335,-0.074 -3.0489,0.2492 -0.4153,0.3222 -0.8113,0.9268 -0.396,0.6046 -0.7191,1.8848 -0.3221,1.2794 -0.2067,2.1046 0.1163,0.8252 0.3332,1.3412 0.2169,0.516 1.523,1.2471 1.3061,0.7319 2.2938,0.8796 0.9886,0.1477 1.499,0.1616 0.5105,0.015 1.4852,-0.088 0.9748,-0.1034 1.6292,-0.2991 0.6545,-0.1966 2.7886,-1.1907" /><path
     id="STROKE_9719fce4-efbb-440a-b202-63b8fb74c0e2"
     opacity="1"
     fill="none"
     stroke="#e66465"
     stroke-width="3.69222"
     stroke-opacity="1"
     stroke-linecap="round"
     stroke-linejoin="round"
     d="m 4252.5692,862.13773 -0.3867,1.0717 -0.083,0.6683 q -0.1948,0.5658 1.5526,23.7105 l 0.3729,-0.3443" /><path
     id="STROKE_e0b8c138-b5a2-4a69-8a46-6088a6d361ec"
     opacity="1"
     fill="none"
     stroke="#e66465"
     stroke-width="3.69222"
     stroke-opacity="1"
     stroke-linecap="round"
     stroke-linejoin="round"
     d="m 4252.0966,862.46723 q 0.035,-0.06 0.3,-0.7375 0.9388,-1.3163 1.3237,-1.5738 0.3849,-0.2575 0.9572,-0.4366 0.5723,-0.1781 1.3846,-0.026 0.8123,0.1523 1.3772,0.4938 0.5658,0.3424 1.2101,0.8686 0.6443,0.5271 1.4169,1.499 0.7726,0.9729 1.3467,2.3732 0.5732,1.4012 0.636,2.5642 0.064,1.164 -0.2723,2.46 -0.3369,1.296 -1.4132,2.7987 -1.0753,1.5036 -2.0759,2.2725 -1.0015,0.7699 -1.7935,1.1151 -0.792,0.3461 -1.2692,0.4578 -0.4782,0.1108 -0.9794,0.077 l -0.1947,0.1145 -0.2991,0.2077" /><path
     id="STROKE_ba67e602-9bb9-4218-940c-99fa741d0e58"
     opacity="1"
     fill="none"
     stroke="#e66465"
     stroke-width="3.69222"
     stroke-opacity="1"
     stroke-linecap="round"
     stroke-linejoin="round"
     d="m 4275.5736,888.95803 q -0.089,-0.2982 -0.2778,-0.7772 -0.1883,-0.48 -0.5843,-1.2886 -0.3969,-0.8086 -0.8852,-1.4843 -0.4893,-0.6757 -0.7053,-0.9157 -0.2159,-0.24 -0.7938,-0.719 -0.5769,-0.4791 -1.5932,-0.7671 -1.0153,-0.2871 -1.799,-0.1791 -0.7837,0.108 -1.4104,0.6462 -0.6259,0.5381 -0.9868,1.5286 -0.3618,0.9904 -0.2289,1.8202 0.1339,0.8298 0.7394,1.4871 0.6055,0.6572 1.2867,0.9553 0.6803,0.2982 1.1289,0.3563 0.4486,0.059 1.0347,0 0.5853,-0.057 0.8991,-0.1781 0.3138,-0.121 4.2304,-2.7341" /><path
     id="STROKE_29a1662e-b086-4574-9c81-e7c96e8666d7"
     opacity="1"
     fill="none"
     stroke="#e66465"
     stroke-width="3.69222"
     stroke-opacity="1"
     stroke-linecap="round"
     stroke-linejoin="round"
     d="m 4524.3385,726.98143 0.1551,0.7089 q -0.026,0.1181 0.5824,7.0041 0.6092,6.886 1.9837,15.1529 0.1467,0.2916 0.3886,1.2369" /><path
     id="STROKE_1d66d6c8-741f-4062-9997-c3ec545f9442"
     opacity="1"
     fill="none"
     stroke="#e66465"
     stroke-width="3.69222"
     stroke-opacity="1"
     stroke-linecap="round"
     stroke-linejoin="round"
     d="m 4524.5933,726.25683 q 0.2852,-0.3609 0.7689,-0.8705 0.4827,-0.5095 1.4399,-0.9239 0.9572,-0.4154 1.7935,-0.5096 0.8363,-0.094 1.7206,0.018 0.8843,0.1117 2.2919,1.2738 1.4068,1.1612 2.0474,2.2772 0.6406,1.1169 0.9978,3.0608 0.3572,1.943 -0.012,3.7799 -0.3701,1.8378 -1.271,3.1993 -0.9009,1.3615 -2.0954,2.3732 -1.1944,1.0117 -4.138,1.8886 -0.1828,-0.018 -1.1612,0.155" /><path
     id="STROKE_8046a25a-d701-4f27-a38a-6939481ca041"
     opacity="1"
     fill="none"
     stroke="#e66465"
     stroke-width="3.69222"
     stroke-opacity="1"
     stroke-linecap="round"
     stroke-linejoin="round"
     d="m 4542.123,751.35093 q 0.744,-0.6369 0.7587,-0.6757 0.015,-0.039 1.1723,-1.5285 1.1585,-1.4889 2.1277,-2.7914 9e-4,0.037 0.3055,1.5572 0.3046,1.5194 1.7547,6.743 l 0.6831,1.8507" /><path
     id="STROKE_26f42ce3-cd2a-4c15-ae81-71e6b4e02524"
     opacity="1"
     fill="none"
     stroke="#e66465"
     stroke-width="3.69222"
     stroke-opacity="1"
     stroke-linecap="round"
     stroke-linejoin="round"
     d="m 4623.936,1005.752 v 0.5206 q -0.2113,1.5415 0.4348,7.5146 0.6452,5.9721 1.6264,11.8335 0.9821,5.8614 1.8267,11.0305 0.079,0.1579 0.2723,1.14" /><path
     id="STROKE_7c1454da-70bc-4603-9e30-1093351f50b9"
     opacity="1"
     fill="none"
     stroke="#e66465"
     stroke-width="3.69222"
     stroke-opacity="1"
     stroke-linecap="round"
     stroke-linejoin="round"
     d="m 4624.7908,1011.4915 0.3129,-0.6018 q 0.4874,-1.0227 0.9932,-1.8341 0.5058,-0.8123 0.9323,-1.2526 0.4274,-0.4412 1.2978,-1.0089 0.8704,-0.5677 2.5624,-0.9193 1.6929,-0.3517 2.627,-0.2391 0.9341,0.1117 1.6938,0.4578 0.7606,0.3462 1.8184,1.3145 1.0569,0.9682 1.7788,2.6879 0.7209,1.7187 0.839,2.7091 0.1191,0.9905 0.034,2.3086 -0.085,1.3172 -0.8391,3.1504 -0.755,1.8332 -1.8849,3.1264 -1.1298,1.2922 -2.4433,1.9024 -1.3126,0.6092 -2.0169,0.707 -0.7043,0.098 -1.1769,0.055 -0.4735,-0.042 -0.8824,-0.2593 -0.4098,-0.2179 -1.6818,-1.2683" /><path
     id="STROKE_12489ea9-0c9c-4967-bd5b-30f170845e8a"
     opacity="1"
     fill="none"
     stroke="#e66465"
     stroke-width="3.69222"
     stroke-opacity="1"
     stroke-linecap="round"
     stroke-linejoin="round"
     d="m 4645.2844,1033.499 q 0,-0.564 -0.01,-0.6914 l 0.3221,-0.744 q 0.228,-0.3627 1.4511,-1.2581 1.223,-0.8963 2.2984,-1.0855 1.0744,-0.1892 1.6578,-0.054 0.5834,0.1347 0.8141,0.2815 0.2299,0.1467 0.3674,0.3591 0.1375,0.2123 0.4089,1.1455 0.2705,0.9322 -0.2344,3.071 -0.5059,2.1387 -1.1742,3.658 -0.6692,1.5203 -1.0375,2.363 -0.3683,0.8428 -0.4873,1.1843 -0.1182,0.3406 -0.2096,0.5483 0.1486,0.027 0.4145,0.069 0.2667,0.042 0.2963,0.037 0.03,0 2.4184,-0.023 2.3879,-0.019 7.2598,-0.6074 l 1.8987,0.066" /><path
     id="STROKE_538c8d20-b3bb-4e85-aa83-76153edbc489"
     opacity="1"
     fill="none"
     stroke="#e66465"
     stroke-width="3.69222"
     stroke-opacity="1"
     stroke-linecap="round"
     stroke-linejoin="round"
     d="m 3727.2007,766.00447 -0.1726,-0.50307 q -0.035,-0.13199 -0.2483,-1.60611 -0.2141,-1.4732 -0.5381,-2.21902 -0.3231,-0.74491 -0.936,-1.41504 -0.612,-0.66922 -1.3772,-0.91106 -0.7661,-0.24092 -1.6273,-0.036 -0.8613,0.20584 -1.7188,0.89721 -0.8575,0.69229 -1.1962,1.15289 -0.3397,0.46061 -0.6194,1.03659 -0.2797,0.57599 -0.4532,1.4732 -0.1736,0.89721 -0.1274,1.77226 0.047,0.87506 0.1449,1.21474 0.099,0.34061 0.2548,0.62306 0.1569,0.28338 0.6673,0.82244 0.5105,0.53907 0.9526,0.76152 0.4431,0.22338 0.7006,0.28246 0.2585,0.06 0.6748,0.0831 0.4163,0.0222 1.403,-0.3046 0.9858,-0.32769 3.5445,-1.80458" /><path
     id="STROKE_6e084a64-21a2-458d-9dd9-158f0c69162a"
     opacity="1"
     fill="none"
     stroke="#e66465"
     stroke-width="3.69222"
     stroke-opacity="1"
     stroke-linecap="round"
     stroke-linejoin="round"
     d="m 3816.7425,987.97219 -0.348,-0.32953 q -0.2243,-0.22707 -0.6803,-1.34673 -0.456,-1.12059 -0.8363,-1.81565 -0.3793,-0.69506 -1.0347,-1.33012 -0.6554,-0.63506 -1.7787,-1.05044 -1.1225,-0.41537 -2.0871,-0.37199 -0.9636,0.0434 -1.7916,0.54553 -0.8289,0.50214 -1.1067,0.84828 -0.2788,0.34615 -0.517,1.04121 -0.239,0.69598 -0.2824,1.27474 -0.043,0.57783 0.2908,1.67257 0.335,1.09474 0.8556,1.70765 0.5206,0.61291 1.0089,0.92582 0.4892,0.312 1.1815,0.49014 0.6923,0.17815 1.5305,0.18646 0.8381,0.008 1.127,-0.0646 0.288,-0.0729 0.5317,-0.12277 0.2437,-0.0489 1.5166,-0.81044 1.2728,-0.7606 2.7682,-2.68886 l 0.9064,-1.54242" /><path
     id="STROKE_3c74e845-b2dd-4d9f-9847-1286ca56a4c0"
     opacity="1"
     fill="none"
     stroke="#e66465"
     stroke-width="3.69222"
     stroke-opacity="1"
     stroke-linecap="round"
     stroke-linejoin="round"
     d="m 3505.7259,900.81651 q -0.066,-0.10246 -0.3701,-1.58027 -0.3037,-1.47873 -0.768,-2.60394 -0.4634,-1.1252 -0.7985,-1.6218 -0.335,-0.49568 -0.6166,-0.81044 -0.2806,-0.31476 -0.4864,-0.45968 -0.2058,-0.14585 -0.2492,-0.20861 -0.044,-0.0628 -2.6778,-0.13662 -2.6335,-0.0729 -3.0489,0.24923 -0.4153,0.32307 -0.8113,0.92767 -0.3951,0.6046 -0.7182,1.88395 -0.323,1.27935 -0.2076,2.10549 0.1163,0.82428 0.3332,1.34119 0.2169,0.51599 1.523,1.24705 1.3061,0.73106 2.2947,0.87875 0.9877,0.14769 1.4981,0.16246 0.5105,0.0148 1.4852,-0.0886 0.9748,-0.10246 1.6292,-0.29814 0.6545,-0.19661 2.7895,-1.19074" /><path
     id="STROKE_1f95842c-d13f-49d7-af0e-f08c7fc15522"
     opacity="1"
     fill="none"
     stroke="#e66465"
     stroke-width="3.69222"
     stroke-opacity="1"
     stroke-linecap="round"
     stroke-linejoin="round"
     d="m 3460.0643,854.04536 -0.3868,1.07259 -0.084,0.66829 q -0.1938,0.56491 1.5526,23.71049 l 0.3729,-0.34522" /><path
     id="STROKE_6c5059fa-5dea-4e37-a7e4-6a704714aa27"
     opacity="1"
     fill="none"
     stroke="#e66465"
     stroke-width="3.69222"
     stroke-opacity="1"
     stroke-linecap="round"
     stroke-linejoin="round"
     d="m 3459.5907,854.37581 q 0.035,-0.0609 0.3,-0.73844 0.9388,-1.31535 1.3237,-1.57288 0.3849,-0.25754 0.9572,-0.43661 0.5723,-0.17815 1.3846,-0.0258 0.8123,0.1523 1.3772,0.49383 0.5658,0.34153 1.2101,0.86859 0.6443,0.52615 1.4169,1.49904 0.7735,0.9729 1.3467,2.37318 0.5733,1.40027 0.6369,2.56424 0.063,1.16397 -0.2732,2.45994 -0.3369,1.29504 -1.4132,2.7987 -1.0753,1.50365 -2.0759,2.27256 -1.0015,0.7689 -1.7935,1.11505 -0.792,0.34614 -1.2692,0.45691 -0.4772,0.11169 -0.9794,0.0766 l -0.1938,0.11538 -0.3,0.20769" /><path
     id="STROKE_4f550814-56de-4263-830e-26595822496a"
     opacity="1"
     fill="none"
     stroke="#e66465"
     stroke-width="3.69222"
     stroke-opacity="1"
     stroke-linecap="round"
     stroke-linejoin="round"
     d="m 3483.0677,880.86654 q -0.089,-0.29815 -0.2778,-0.77813 -0.1883,-0.47907 -0.5843,-1.28766 -0.3969,-0.8086 -0.8852,-1.48427 -0.4893,-0.67568 -0.7052,-0.91567 -0.216,-0.24 -0.7939,-0.71906 -0.5769,-0.47907 -1.5932,-0.76706 -1.0153,-0.28799 -1.799,-0.17907 -0.7837,0.10799 -1.4095,0.64613 -0.6268,0.53814 -0.9877,1.52858 -0.3618,0.99044 -0.228,1.82026 0.133,0.82983 0.7385,1.48704 0.6064,0.65722 1.2867,0.95444 0.6803,0.29815 1.1289,0.35722 0.4495,0.0591 1.0348,0.002 0.5852,-0.0572 0.899,-0.17815 0.3138,-0.12092 4.2304,-2.73409" /><path
     id="STROKE_9b3e0eac-cd6e-4f3f-874d-054ae0bc7683"
     opacity="1"
     fill="none"
     stroke="#e66465"
     stroke-width="3.69222"
     stroke-opacity="1"
     stroke-linecap="round"
     stroke-linejoin="round"
     d="m 3731.8326,718.88902 0.156,0.70983 q -0.027,0.11815 0.5815,7.00413 0.6092,6.88506 1.9837,15.15286 0.1477,0.29168 0.3886,1.23597" /><path
     id="STROKE_7f158e63-afce-4604-8c48-890e467b8558"
     opacity="1"
     fill="none"
     stroke="#e66465"
     stroke-width="3.69222"
     stroke-opacity="1"
     stroke-linecap="round"
     stroke-linejoin="round"
     d="m 3732.0874,718.16535 q 0.2861,-0.36092 0.7689,-0.87044 0.4827,-0.50953 1.4399,-0.9249 0.9573,-0.41445 1.7935,-0.50861 0.8363,-0.0942 1.7206,0.0175 0.8843,0.11169 2.292,1.27289 1.4067,1.16121 2.0473,2.2781 0.6415,1.1169 0.9978,3.05992 0.3572,1.94396 -0.012,3.78083 -0.3692,1.83688 -1.2701,3.19931 -0.9018,1.3615 -2.0963,2.37317 -1.1944,1.01075 -4.138,1.88857 -0.1819,-0.0185 -1.1612,0.15507" /><path
     id="STROKE_3713731a-4ae6-4038-a766-b507611b4b02"
     opacity="1"
     fill="none"
     stroke="#e66465"
     stroke-width="3.69222"
     stroke-opacity="1"
     stroke-linecap="round"
     stroke-linejoin="round"
     d="m 3749.6171,743.25857 q 0.744,-0.63598 0.7587,-0.67475 0.015,-0.0397 1.1732,-1.52858 1.1576,-1.48889 2.1277,-2.79132 0,0.0369 0.3046,1.5572 0.3046,1.51934 1.7547,6.74198 l 0.6831,1.85165" /><path
     id="STROKE_103bf9e9-83ed-4610-bee2-4abf43f3dce7"
     opacity="1"
     fill="none"
     stroke="#e66465"
     stroke-width="3.69222"
     stroke-opacity="1"
     stroke-linecap="round"
     stroke-linejoin="round"
     d="m 3831.4301,997.65964 v 0.52153 q -0.2113,1.5415 0.4348,7.51363 0.6452,5.9731 1.6273,11.8345 0.9813,5.8614 1.8258,11.0296 0.079,0.1587 0.2733,1.1409" /><path
     id="STROKE_63e638a4-8ab4-4950-a375-2c20fdeefdf1"
     opacity="1"
     fill="none"
     stroke="#e66465"
     stroke-width="3.69222"
     stroke-opacity="1"
     stroke-linecap="round"
     stroke-linejoin="round"
     d="m 3832.2849,1003.4001 0.3129,-0.6018 q 0.4874,-1.0237 0.9932,-1.8351 0.5058,-0.8113 0.9332,-1.25161 0.4265,-0.44122 1.2969,-1.00889 0.8704,-0.56768 2.5633,-0.91937 1.692,-0.35168 2.6261,-0.23999 0.9341,0.11261 1.6938,0.45876 0.7606,0.34522 1.8184,1.3135 1.0579,0.9692 1.7788,2.6879 0.7209,1.7197 0.839,2.7101 0.1191,0.9905 0.034,2.3077 -0.084,1.3172 -0.8391,3.1513 -0.755,1.8331 -1.8849,3.1254 -1.1298,1.2932 -2.4433,1.9024 -1.3126,0.6102 -2.0169,0.708 -0.7042,0.097 -1.1768,0.055 -0.4727,-0.043 -0.8825,-0.2594 -0.4098,-0.2178 -1.6818,-1.2692" /><path
     id="STROKE_bbaaf886-54e2-4f36-93f6-62e17a2d6c4e"
     opacity="1"
     fill="none"
     stroke="#e66465"
     stroke-width="3.69222"
     stroke-opacity="1"
     stroke-linecap="round"
     stroke-linejoin="round"
     d="m 3852.7785,1025.4076 q 0,-0.5649 -0.01,-0.6914 l 0.3222,-0.7449 q 0.2279,-0.3618 1.451,-1.2581 1.223,-0.8954 2.2984,-1.0846 1.0744,-0.1902 1.6578,-0.054 0.5834,0.1347 0.8141,0.2815 0.2308,0.1468 0.3683,0.3591 0.1366,0.2123 0.408,1.1446 0.2705,0.9332 -0.2344,3.0719 -0.5049,2.1387 -1.1742,3.6581 -0.6692,1.5193 -1.0375,2.3621 -0.3683,0.8427 -0.4873,1.1842 -0.1182,0.3416 -0.2096,0.5492 0.1486,0.027 0.4154,0.068 0.2658,0.042 0.2954,0.038 0.03,-0 2.4184,-0.023 2.3879,-0.019 7.2598,-0.6073 l 1.8987,0.065" /><path
     id="STROKE_5bfbe673-9917-4a4a-9ff2-593f759b551b"
     opacity="1"
     fill="none"
     stroke="#e66465"
     stroke-width="3.69222"
     stroke-opacity="1"
     stroke-linecap="round"
     stroke-linejoin="round"
     d="m 4116.0134,764.68976 -0.1726,-0.50306 q -0.035,-0.132 -0.2483,-1.60612 -0.2141,-1.47319 -0.5381,-2.21902 -0.3231,-0.74491 -0.936,-1.41504 -0.612,-0.66922 -1.3772,-0.91106 -0.7661,-0.24091 -1.6273,-0.036 -0.8613,0.20585 -1.7188,0.89721 -0.8575,0.69229 -1.1962,1.1529 -0.3397,0.4606 -0.6194,1.03659 -0.2797,0.57598 -0.4532,1.47319 -0.1736,0.89721 -0.1274,1.77226 0.047,0.87506 0.1449,1.21567 0.099,0.33968 0.2548,0.62214 0.1569,0.28337 0.6673,0.82244 0.5105,0.53906 0.9526,0.76152 0.4431,0.22245 0.7006,0.28245 0.2585,0.06 0.6748,0.0831 0.4163,0.0222 1.403,-0.30461 0.9858,-0.32769 3.5445,-1.80457" /><path
     id="STROKE_f8cb5124-5600-497c-b428-c0bdefde3e2d"
     opacity="1"
     fill="none"
     stroke="#e66465"
     stroke-width="3.69222"
     stroke-opacity="1"
     stroke-linecap="round"
     stroke-linejoin="round"
     d="m 4205.5552,986.65748 -0.348,-0.32953 q -0.2243,-0.22707 -0.6803,-1.34673 -0.456,-1.12059 -0.8363,-1.81565 -0.3793,-0.69506 -1.0347,-1.33012 -0.6554,-0.63506 -1.7787,-1.05044 -1.1225,-0.41537 -2.0871,-0.37199 -0.9636,0.0434 -1.7916,0.54553 -0.8289,0.50214 -1.1067,0.84829 -0.2788,0.34614 -0.517,1.0412 -0.239,0.69598 -0.2824,1.27474 -0.043,0.57783 0.2908,1.67257 0.335,1.09474 0.8556,1.70765 0.5206,0.61291 1.0089,0.92583 0.4892,0.31199 1.1815,0.49014 0.6923,0.17815 1.5305,0.18645 0.8381,0.008 1.127,-0.0646 0.288,-0.0729 0.5317,-0.12277 0.2437,-0.0489 1.5166,-0.81044 1.2728,-0.76059 2.7682,-2.68885 l 0.9064,-1.54243" /><path
     id="STROKE_6523d72a-0bec-4c80-af7e-8362cfaafd9c"
     opacity="1"
     fill="none"
     stroke="#e66465"
     stroke-width="3.69222"
     stroke-opacity="1"
     stroke-linecap="round"
     stroke-linejoin="round"
     d="m 3894.5386,899.5018 q -0.066,-0.10246 -0.3701,-1.58027 -0.3037,-1.47873 -0.768,-2.60393 -0.4634,-1.12521 -0.7985,-1.62089 -0.335,-0.4966 -0.6166,-0.81136 -0.2806,-0.31476 -0.4864,-0.45968 -0.2058,-0.14584 -0.2492,-0.20861 -0.044,-0.0628 -2.6778,-0.13569 -2.6335,-0.0738 -3.0489,0.2483 -0.4153,0.32307 -0.8113,0.92767 -0.3951,0.6046 -0.7182,1.88395 -0.323,1.28028 -0.2076,2.10549 0.1163,0.82521 0.3332,1.3412 0.2169,0.51598 1.523,1.24704 1.3061,0.73106 2.2947,0.87875 0.9877,0.14769 1.4981,0.16246 0.5105,0.0148 1.4852,-0.0886 0.9748,-0.10245 1.6292,-0.29814 0.6545,-0.19661 2.7895,-1.19074" /><path
     id="STROKE_595173a4-04a0-4f7a-93a0-31f68f028902"
     opacity="1"
     fill="none"
     stroke="#e66465"
     stroke-width="3.69222"
     stroke-opacity="1"
     stroke-linecap="round"
     stroke-linejoin="round"
     d="m 3848.877,852.73158 -0.3868,1.07166 -0.084,0.66829 q -0.1938,0.56491 1.5526,23.71049 l 0.3729,-0.3443" /><path
     id="STROKE_c8136faa-3290-4cc3-afb1-1cfa6b28d0a1"
     opacity="1"
     fill="none"
     stroke="#e66465"
     stroke-width="3.69222"
     stroke-opacity="1"
     stroke-linecap="round"
     stroke-linejoin="round"
     d="m 3848.4034,853.06111 q 0.035,-0.0609 0.3,-0.73845 0.9388,-1.31535 1.3237,-1.57288 0.3849,-0.25753 0.9572,-0.43661 0.5723,-0.17814 1.3846,-0.0258 0.8123,0.1523 1.3772,0.49383 0.5658,0.34153 1.2101,0.8686 0.6443,0.52614 1.4169,1.49904 0.7735,0.9729 1.3467,2.37317 0.5733,1.40119 0.6369,2.56424 0.063,1.16397 -0.2732,2.45994 -0.3369,1.29505 -1.4132,2.7987 -1.0753,1.50366 -2.0759,2.27256 -1.0015,0.7689 -1.7935,1.11505 -0.792,0.34614 -1.2692,0.45691 -0.4772,0.11169 -0.9794,0.0766 l -0.1938,0.11539 -0.3,0.20768" /><path
     id="STROKE_45d45278-5d49-4f3c-83fe-c07270ddc317"
     opacity="1"
     fill="none"
     stroke="#e66465"
     stroke-width="3.69222"
     stroke-opacity="1"
     stroke-linecap="round"
     stroke-linejoin="round"
     d="m 3871.8804,879.55183 q -0.089,-0.29814 -0.2778,-0.77813 -0.1883,-0.47907 -0.5843,-1.28766 -0.3969,-0.8086 -0.8852,-1.48427 -0.4893,-0.67568 -0.7052,-0.91567 -0.216,-0.24 -0.7939,-0.71906 -0.5769,-0.47907 -1.5932,-0.76706 -1.0153,-0.28799 -1.799,-0.17907 -0.7837,0.108 -1.4095,0.64614 -0.6268,0.53814 -0.9877,1.52857 -0.3618,0.99044 -0.228,1.82027 0.133,0.82982 0.7385,1.48704 0.6064,0.65721 1.2867,0.95443 0.6803,0.29815 1.1289,0.35723 0.4495,0.0591 1.0348,0.002 0.5852,-0.0572 0.899,-0.17815 0.3138,-0.12092 4.2304,-2.73408" /><path
     id="STROKE_2e4c3207-784d-4cfd-a77e-6dab25d80740"
     opacity="1"
     fill="none"
     stroke="#e66465"
     stroke-width="3.69222"
     stroke-opacity="1"
     stroke-linecap="round"
     stroke-linejoin="round"
     d="m 4120.6453,717.57431 0.156,0.70983 q -0.027,0.11815 0.5815,7.00414 0.6092,6.88506 1.9837,15.15285 0.1477,0.29169 0.3886,1.23597" /><path
     id="STROKE_f9163749-70fb-42b0-843b-ae3b4b765c7a"
     opacity="1"
     fill="none"
     stroke="#e66465"
     stroke-width="3.69222"
     stroke-opacity="1"
     stroke-linecap="round"
     stroke-linejoin="round"
     d="m 4120.9001,716.85064 q 0.2861,-0.36092 0.7689,-0.87044 0.4827,-0.50953 1.4399,-0.9249 0.9573,-0.41445 1.7935,-0.5086 0.8363,-0.0942 1.7206,0.0175 0.8843,0.11169 2.292,1.2729 1.4067,1.1612 2.0473,2.27809 0.6415,1.1169 0.9978,3.05993 0.3572,1.94395 -0.012,3.78083 -0.3692,1.83687 -1.2701,3.1993 -0.9018,1.36151 -2.0963,2.37317 -1.1944,1.01075 -4.138,1.88857 -0.1819,-0.0185 -1.1612,0.15508" /><path
     id="STROKE_de0ff4cb-d34a-49ed-b623-4c402309438e"
     opacity="1"
     fill="none"
     stroke="#e66465"
     stroke-width="3.69222"
     stroke-opacity="1"
     stroke-linecap="round"
     stroke-linejoin="round"
     d="m 4138.4298,741.94386 q 0.744,-0.63598 0.7587,-0.67475 0.015,-0.0397 1.1732,-1.52858 1.1576,-1.48888 2.1277,-2.79131 0,0.0369 0.3046,1.55719 0.3046,1.51935 1.7547,6.74199 l 0.6831,1.85164" /><path
     id="STROKE_886737db-b945-4f6a-adbf-ad3b4a46527d"
     opacity="1"
     fill="none"
     stroke="#e66465"
     stroke-width="3.69222"
     stroke-opacity="1"
     stroke-linecap="round"
     stroke-linejoin="round"
     d="m 4220.2428,996.34494 v 0.52152 q -0.2113,1.5415 0.4348,7.51364 0.6452,5.9731 1.6273,11.8345 0.9813,5.8614 1.8258,11.0296 0.079,0.1587 0.2733,1.1409" /><path
     id="STROKE_1b586a88-4424-496f-9489-45c47622ca1b"
     opacity="1"
     fill="none"
     stroke="#e66465"
     stroke-width="3.69222"
     stroke-opacity="1"
     stroke-linecap="round"
     stroke-linejoin="round"
     d="m 4221.0976,1002.0854 0.3129,-0.6018 q 0.4874,-1.0228 0.9932,-1.83505 0.5058,-0.81137 0.9332,-1.25166 0.4265,-0.44122 1.2969,-1.0089 0.8704,-0.56768 2.5633,-0.91936 1.692,-0.35169 2.6261,-0.24 0.9341,0.11261 1.6938,0.45876 0.7606,0.34522 1.8184,1.31443 1.0579,0.96828 1.7788,2.68698 0.7209,1.7197 0.839,2.7101 0.1191,0.9904 0.034,2.3076 -0.084,1.3172 -0.8391,3.1514 -0.755,1.8331 -1.8849,3.1254 -1.1298,1.2932 -2.4433,1.9024 -1.3126,0.6102 -2.0169,0.708 -0.7042,0.097 -1.1768,0.055 -0.4727,-0.043 -0.8825,-0.2594 -0.4098,-0.2178 -1.6818,-1.2692" /><path
     id="STROKE_fc162bdb-ce45-47ae-9364-870160bb6bb9"
     opacity="1"
     fill="none"
     stroke="#e66465"
     stroke-width="3.69222"
     stroke-opacity="1"
     stroke-linecap="round"
     stroke-linejoin="round"
     d="m 4241.5912,1024.0929 q 0,-0.564 -0.01,-0.6914 l 0.3222,-0.7449 q 0.2279,-0.3619 1.451,-1.2581 1.223,-0.8954 2.2984,-1.0846 1.0744,-0.1902 1.6578,-0.054 0.5834,0.1347 0.8141,0.2815 0.2308,0.1468 0.3683,0.3591 0.1366,0.2123 0.408,1.1446 0.2705,0.9332 -0.2344,3.0719 -0.5049,2.1387 -1.1742,3.658 -0.6692,1.5194 -1.0375,2.3621 -0.3683,0.8428 -0.4873,1.1843 -0.1182,0.3416 -0.2096,0.5492 0.1486,0.027 0.4154,0.068 0.2658,0.042 0.2954,0.038 0.03,0 2.4184,-0.023 2.3879,-0.018 7.2598,-0.6073 l 1.8987,0.065" /><path
     id="STROKE_9f79e44c-8687-42ed-841b-27585aec479a"
     opacity="1"
     fill="none"
     stroke="#9198e5"
     stroke-width="3.69222"
     stroke-opacity="1"
     stroke-linecap="round"
     stroke-linejoin="round"
     d="m 3506.7754,898.86056 -0.052,-0.69783 q -0.3175,-1.24428 -0.6064,-1.7898 -0.2889,-0.54553 -0.6471,-0.97106 -0.359,-0.42552 -1.5212,-1.15474 -1.163,-0.72921 -2.3371,-0.90736 -1.1751,-0.17815 -1.9892,-0.0378 -0.8142,0.1403 -1.4123,0.5409 -0.5972,0.40061 -1.0864,1.34859 -0.4883,0.94797 -0.5059,1.76026 -0.017,0.81229 0.067,1.34951 0.084,0.53721 0.8806,1.71872 0.7957,1.18151 2.5753,2.07134 1.7797,0.8889 3.2824,0.83628 1.5018,-0.0526 2.1692,-0.43106 0.6674,-0.37846 1.236,-1.43535 0.5676,-1.0569 0.4753,-1.92642 -0.092,-0.86951 -0.3332,-1.28766 -0.24,-0.41814 -0.4763,-0.71259 -0.2363,-0.29538 -1.2193,-0.8806 -0.9831,-0.58521 -2.2126,-0.70983 -1.2286,-0.12553 -1.7464,0.0314 -0.5178,0.15692 -0.7735,0.3406 -0.2566,0.18277 -0.4966,0.53353 -0.241,0.35076 -0.2677,0.7126 -0.028,0.36183 0.052,0.6849 0.08,0.32307 0.9793,0.98675 0.8991,0.66275 1.4141,0.79936 0.5151,0.13569 1.2046,0.14954 0.6896,0.0129 1.0855,-0.31476 0.3951,-0.32769 0.5742,-0.58707 0.1791,-0.25845 0.2455,-0.43937 0.067,-0.18 0.1634,-0.51137 0.096,-0.3323 0.066,-0.64983 -0.03,-0.31846 -0.2353,-0.5123 l -0.07,-0.27322" /><path
     id="STROKE_424cf7e0-1c96-4a89-9e15-2a701661533e"
     opacity="1"
     fill="none"
     stroke="#9198e5"
     stroke-width="3.69222"
     stroke-opacity="1"
     stroke-linecap="round"
     stroke-linejoin="round"
     d="m 3695.8132,855.99854 -0.019,-0.44952 q 0,-0.10339 -0.2603,-0.68306 -0.2575,-0.58061 -0.8418,-0.9729 -0.5843,-0.3923 -1.3089,-0.46984 -0.7246,-0.0766 -1.1787,0.19569 -0.4542,0.2723 -0.8566,1.10028 -0.4034,0.82798 -0.3637,1.34212 0.041,0.51322 0.2363,0.87506 0.1966,0.36276 1.4658,0.85105 1.2692,0.4883 2.1793,0.37476 0.9092,-0.11353 1.2046,-0.28153 0.2963,-0.16892 0.5871,-0.5206 0.2898,-0.35169 0.4052,-0.93229 0.1144,-0.5806 0.03,-1.0292 -0.084,-0.44953 -0.6748,-1.11874 -0.5898,-0.66922 -1.4972,-0.9286 -0.9083,-0.25845 -1.439,-0.15138 -0.5317,0.10615 -0.7902,0.312 -0.2593,0.20584 -0.336,0.33691 -0.076,0.132 -0.1089,0.28245 -0.033,0.15046 -0.064,0.288 -0.03,0.13753 0.1413,0.51968 0.1707,0.38214 0.4227,0.53814 0.2511,0.15599 0.4606,0.16522 0.2095,0.009 0.3425,-0.0194 0.1338,-0.0295 0.3904,-0.26861 0.2566,-0.23907 0.3591,-0.4846 0.1015,-0.24646 0.1301,-0.46707 0.028,-0.22153 -0.1006,-0.49106 -0.1283,-0.26953 -0.1947,-0.32492 -0.066,-0.0554 -0.4874,-0.34614 -0.4209,-0.29169 -1.535,-0.2603 -0.1007,0.13569 -0.1136,0.65629 -0.013,0.5206 0.062,0.81321 0.074,0.29168 0.4209,0.87598 0.347,0.58429 2.4304,2.42209" /><path
     id="STROKE_f1831278-9aab-4c44-914b-40644a5b9574"
     opacity="1"
     fill="none"
     stroke="#9198e5"
     stroke-width="3.69222"
     stroke-opacity="1"
     stroke-linecap="round"
     stroke-linejoin="round"
     d="m 3814.9112,991.21765 q 0.288,-0.71814 0.384,-1.0209 0.095,-0.30184 0.1449,-1.15566 0.05,-0.8529 -0.4016,-2.33256 -0.4522,-1.47873 -1.5516,-2.46271 -1.0994,-0.98305 -2.1313,-1.17228 -1.0329,-0.18922 -1.3145,-0.13938 -0.2815,0.0508 -0.7144,0.28984 -0.432,0.23907 -1.0071,1.09198 -0.5741,0.8529 -0.6452,1.8581 -0.071,1.00613 0,1.4132 0.069,0.40799 0.7246,1.28951 0.6545,0.88243 2.1378,1.31165 1.4824,0.42923 2.2809,0.312 0.7984,-0.11815 1.4279,-0.49476 0.6296,-0.37753 1.0791,-1.24705 0.4495,-0.87044 0.444,-1.60888 0,-0.73844 -0.2068,-1.21289 -0.2012,-0.47445 -0.8141,-0.98675 -0.6129,-0.51321 -1.2046,-0.63044 -0.5926,-0.11723 -1.1169,-0.0342 -0.5243,0.0831 -0.9387,0.65537 -0.4145,0.5723 -0.4745,1.16859 -0.061,0.59629 0,1.08182 0.06,0.48645 0.4865,1.12612 0.4255,0.63968 0.9516,0.87783 0.5262,0.23907 1.0957,0.28707 0.5695,0.048 0.9443,-0.25015 0.3757,-0.29815 0.5455,-0.70614 0.1698,-0.40706 0.1274,-0.67106 -0.043,-0.26307 -0.1865,-0.37937 -0.1449,-0.11538 -0.2538,-0.15877 -0.1089,-0.0425 -0.3055,0.17815 -0.1976,0.22154 -0.2659,0.42553 -0.068,0.204 -0.1089,0.4763 l 0.068,0.69875" /><path
     id="STROKE_5126703d-0f91-4c4f-952b-60c21103f7a8"
     opacity="1"
     fill="none"
     stroke="#9198e5"
     stroke-width="3.69222"
     stroke-opacity="1"
     stroke-linecap="round"
     stroke-linejoin="round"
     d="m 3894.6521,897.27909 -0.1476,-0.65168 -0.4016,-0.81413 q -0.2372,-0.49199 -1.4289,-1.48427 -1.1916,-0.99321 -2.0307,-1.25905 -0.839,-0.26676 -1.6615,-0.22523 -0.8224,0.0406 -1.2802,0.17908 -0.4579,0.13938 -1.1013,0.6849 -0.6442,0.54553 -0.8362,0.82798 -0.193,0.28153 -0.4062,1.17874 -0.2132,0.89721 -0.011,1.67535 0.2031,0.77905 1.4206,1.79626 1.2185,1.01628 2.7627,1.07997 1.5452,0.0646 2.4037,-0.26676 0.8584,-0.3323 1.4455,-0.87506 0.5861,-0.54275 0.8473,-1.14089 0.2612,-0.59722 0.2179,-1.08459 -0.043,-0.48737 -0.2437,-0.75875 -0.1994,-0.27045 -0.2991,-0.34614 -0.099,-0.0748 -0.8557,-0.35353 -0.7578,-0.27969 -1.5904,-0.23538 -0.8317,0.0434 -1.6273,0.44952 -0.7957,0.40615 -0.9277,0.80675 -0.1311,0.39969 -0.089,0.85106 0.043,0.4523 0.5898,1.04951 0.5474,0.59814 1.0874,0.8326 0.539,0.23538 1.0375,0.22153 0.4975,-0.0138 0.756,-0.15507 0.2584,-0.14215 0.4698,-0.40707 0.2114,-0.26584 0.3194,-0.51506 0.108,-0.24923 0.1117,-0.5723 0,-0.32307 -0.1643,-0.54368 -0.168,-0.21968 -0.4126,-0.30091 -0.066,0.0803 -0.048,0.17815 0.018,0.0978 0.168,0.45506" /><path
     id="STROKE_ab3fe744-c6b1-443b-acaa-f5edc755d33c"
     opacity="1"
     fill="none"
     stroke="#9198e5"
     stroke-width="3.69222"
     stroke-opacity="1"
     stroke-linecap="round"
     stroke-linejoin="round"
     d="m 4082.8813,854.06908 -0.052,-0.0821 q -0.055,-0.2603 -0.083,-0.29815 -0.027,-0.0378 -0.2345,-0.49475 -0.2068,-0.45599 -0.384,-0.72645 -0.1763,-0.26953 -0.911,-0.69506 -0.7357,-0.4246 -1.5286,-0.44122 -0.7929,-0.0166 -1.2268,0.16523 -0.4338,0.18184 -0.8926,0.73475 -0.4587,0.55199 -0.5326,1.17136 -0.074,0.61937 0.08,1.04766 0.1532,0.42738 0.5178,0.73752 0.3637,0.30923 1.3366,0.53353 0.9738,0.2243 1.6209,0.14953 0.647,-0.0738 1.1621,-0.32584 0.515,-0.25107 0.792,-0.58429 0.2769,-0.33322 0.3489,-0.6526 0.072,-0.3203 -0.01,-0.78275 -0.083,-0.46337 -0.8981,-1.01997 -0.8141,-0.55568 -1.6735,-0.65168 -0.8594,-0.0951 -1.2692,0.0185 -0.4098,0.11446 -0.5677,0.52153 -0.1588,0.40799 -0.018,0.78921 0.1403,0.38122 0.3636,0.61937 0.2243,0.23722 0.4939,0.42276 0.2704,0.18553 0.9784,0.26214 0.7071,0.0766 0.9221,-0.0101 0.2151,-0.0858 0.3443,-0.1883 0.1293,-0.10154 0.2576,-0.28799 0.1292,-0.18646 0.1357,-0.43569 0.01,-0.2483 -0.3,-0.44675 -0.023,0.0111 -0.384,0.45968" /><path
     id="STROKE_e4f39a28-c9ca-4583-89f7-fb7647d21d31"
     opacity="1"
     fill="none"
     stroke="#9198e5"
     stroke-width="3.69222"
     stroke-opacity="1"
     stroke-linecap="round"
     stroke-linejoin="round"
     d="m 4004.4337,853.46448 -0.3027,-0.12461 -0.6268,-0.55937 q -0.2455,-0.19015 -0.9803,-0.45876 -0.7356,-0.26861 -1.1981,-0.28061 -0.4634,-0.012 -1.0043,0.24646 -0.54,0.25845 -0.7393,0.57229 -0.1994,0.31476 -0.2511,0.54553 -0.052,0.23168 -0.013,0.56029 0.038,0.32861 0.3563,0.61106 0.3184,0.28338 0.8076,0.43107 0.4902,0.14676 0.9942,0.10061 0.5049,-0.0462 0.7938,-0.19938 0.2898,-0.1523 0.4237,-0.3683 0.1338,-0.21599 0.191,-0.48737 0.056,-0.27046 0.054,-0.4606 0,-0.19015 -0.099,-0.43846 -0.095,-0.2483 -0.659,-0.77351 -0.564,-0.5243 -2.3732,-0.59814 -0.2825,0.69413 -0.1763,1.15474 0.1061,0.45968 0.3323,0.71352 0.2271,0.25384 0.5234,0.38214 0.2972,0.12831 0.5547,0.108 0.2575,-0.0203 0.336,-0.0517 0.079,-0.0314 0.1874,-0.19661 0.108,-0.16523 0.1311,-0.28061 0.023,-0.11631 -0.024,-0.25199 -0.047,-0.13477 -0.229,-0.22615 -0.1809,-0.0905 -0.3812,-0.10246 -0.2012,-0.012 -0.4412,0.14953 -0.24,0.16061 -0.6203,1.10582" /><path
     id="STROKE_06f99576-f6c6-41ea-a819-c7b0d4e5dbcb"
     opacity="1"
     fill="none"
     stroke="#9198e5"
     stroke-width="3.69222"
     stroke-opacity="1"
     stroke-linecap="round"
     stroke-linejoin="round"
     d="m 4146.7271,895.27329 q 0.1256,-0.25015 0.3194,-0.75598 0.1948,-0.50491 0.2151,-0.54645 0.021,-0.0406 0.066,-0.47999 0.046,-0.44029 0.014,-0.71721 -0.031,-0.27784 -0.09,-0.58152 -0.058,-0.30461 -0.2557,-0.67753 -0.1975,-0.37291 -0.6193,-0.69506 -0.4219,-0.32122 -0.7939,-0.2926 -0.372,0.0286 -0.8049,0.37568 -0.432,0.34707 -0.5898,0.62214 -0.1588,0.27507 -0.2049,0.56029 -0.046,0.28523 -0.019,0.59353 0.028,0.30922 0.5501,0.81228 0.5234,0.50214 1.6034,0.57507 0.054,0.0166 0.1855,-0.336 0.1311,-0.3526 0.054,-0.76982 -0.077,-0.41722 -0.241,-0.64614 -0.1643,-0.22892 -0.4689,-0.2723 -0.3037,-0.0425 -0.5187,0.32768 -0.2151,0.37015 -0.2345,0.66275 -0.019,0.29354 0.014,0.53168 0.033,0.23907 0.2501,0.50399 0.2169,0.26492 0.6314,0.45322 0.4154,0.1883 0.732,-0.0286 l 0.3516,-0.0785" /><path
     id="STROKE_ab2c8a22-938e-44bc-a7da-5f22d9813c3d"
     opacity="1"
     fill="none"
     stroke="#9198e5"
     stroke-width="3.69222"
     stroke-opacity="1"
     stroke-linecap="round"
     stroke-linejoin="round"
     d="m 4202.0079,987.01563 q 0.092,-0.34799 0.1542,-1.15289 0.063,-0.80398 0.043,-1.05506 -0.02,-0.25107 -0.131,-0.68121 -0.1117,-0.43014 -0.7662,-1.10951 -0.6553,-0.67845 -1.2092,-0.88613 -0.5538,-0.20769 -1.0744,-0.19292 -0.5206,0.0157 -0.9507,0.37476 -0.4293,0.35907 -0.6453,0.90828 -0.216,0.54922 -0.1864,1.0929 0.029,0.5446 0.1071,0.74583 0.078,0.20215 0.6175,0.70521 0.54,0.50307 1.5295,0.75229 0.9895,0.24922 1.571,0.11815 0.5815,-0.13015 0.7274,-0.27138 0.1458,-0.14215 0.2501,-0.5566 0.1034,-0.41537 0.069,-0.55014 -0.035,-0.13384 -0.3259,-0.57598 -0.2907,-0.44215 -0.7652,-0.62214 -0.4754,-0.18092 -0.7338,-0.168 -0.2594,0.0129 -0.4514,0.0489 -0.1929,0.0369 -0.4283,0.36738 -0.2363,0.33045 -0.2566,0.68029 -0.021,0.34984 0.038,0.56399 0.059,0.21322 0.2142,0.35906 0.1551,0.14585 0.4975,0.22984 0.3416,0.084 0.5742,0.0249 0.2316,-0.06 0.443,-0.23446 0.2123,-0.17538 0.3074,-0.38122 0.096,-0.20584 0.074,-0.47076 l 0.108,-0.12738" /><path
     id="STROKE_65c5576f-6834-41bd-9195-4172f74685fe"
     opacity="1"
     fill="none"
     stroke="#9198e5"
     stroke-width="3.69222"
     stroke-opacity="1"
     stroke-linecap="round"
     stroke-linejoin="round"
     d="m 4296.8952,908.07633 q -0.017,-0.066 -0.3452,-0.3351 -0.3932,-0.9711 -0.8169,-1.6357 -0.4246,-0.6636 -1.0311,-1.1667 -0.6064,-0.5031 -1.2239,-0.7237 -0.6185,-0.2206 -1.1049,-0.2474 -0.4855,-0.026 -0.7985,0.079 -0.3129,0.1043 -0.587,0.3498 -0.2751,0.2456 -0.4892,0.9609 -0.2142,0.7163 -0.1634,1.1668 0.051,0.4504 0.3111,0.923 0.2603,0.4726 0.6756,0.8012 0.4145,0.3277 1.3468,0.5253 0.9313,0.1975 1.5839,0.09 0.6526,-0.108 1.3117,-0.6129 0.659,-0.5058 0.816,-0.9018 0.1569,-0.3969 0.1698,-0.8446 0.013,-0.4468 -0.4384,-0.8834 -0.4523,-0.4356 -1.1179,-0.5972 -0.6655,-0.1615 -0.9996,-0.1283 -0.3351,0.033 -0.5539,0.2068 -0.2187,0.1735 -0.24,0.2944 -0.022,0.1219 -0.041,0.1311 -0.02,0.01 0.041,0.4698 0.061,0.4616 0.4985,0.7911 0.4375,0.3295 0.8538,0.4034 0.4163,0.075 0.6064,0.075 0.1893,-9e-4 0.409,-0.1458 0.2196,-0.1449 0.3212,-0.3637 0.1015,-0.2187 0.094,-0.2787 -0.01,-0.06 -0.077,-0.2327 -0.07,-0.1716 -0.2354,-0.204 0.1099,0.4007 0.3905,0.5687 0.2806,0.1679 1.068,0.6673" /><path
     id="STROKE_da00fd79-e178-4877-bfa4-f890ed97a02f"
     opacity="1"
     fill="none"
     stroke="#9198e5"
     stroke-width="3.69222"
     stroke-opacity="1"
     stroke-linecap="round"
     stroke-linejoin="round"
     d="m 4485.261,862.99893 -0.055,-0.08 q -0.012,-0.1634 -0.1495,-0.5695 -0.1385,-0.4071 -0.4006,-0.7385 -0.2622,-0.3313 -0.7578,-0.6479 -0.4957,-0.3157 -1.0255,-0.3914 -0.529,-0.076 -0.7957,-0.039 -0.2668,0.036 -0.5132,0.1514 -0.2465,0.1154 -0.3342,0.1892 -0.089,0.073 -0.2335,0.2456 -0.1449,0.1726 -0.2234,0.3516 -0.077,0.1791 -0.108,0.6056 -0.03,0.4264 0.07,0.7006 0.1006,0.2732 0.2593,0.479 0.1579,0.2068 0.5594,0.468 0.4015,0.2622 0.8991,0.3702 0.4984,0.1089 0.8649,0.082 0.3673,-0.027 0.5436,-0.092 0.1763,-0.065 0.324,-0.1551 0.1468,-0.089 0.2373,-0.1929 0.091,-0.1043 0.156,-0.2815 0.066,-0.1763 -0.3379,-0.72 l -0.043,0.021 -0.1606,-0.013" /><path
     id="STROKE_e0dc201f-e7f5-4881-93a6-cc3084ff8b1d"
     opacity="1"
     fill="none"
     stroke="#9198e5"
     stroke-width="3.69222"
     stroke-opacity="1"
     stroke-linecap="round"
     stroke-linejoin="round"
     d="m 4407.8399,863.42813 q 0,-0.029 0.016,-0.1587 0.017,-0.1302 -0.023,-0.4717 -0.04,-0.3415 -0.071,-0.4569 -0.03,-0.1154 -0.065,-0.2326 -0.035,-0.1173 -0.2419,-0.3471 -0.2067,-0.2308 -0.4153,-0.3535 -0.2086,-0.1237 -0.3176,-0.1533 -0.1089,-0.03 -0.419,-0.018 -0.3102,0.012 -0.5723,0.2335 -0.2622,0.2225 -0.4062,0.5631 -0.144,0.3415 -0.1347,0.5612 0.01,0.2197 0.191,0.4994 0.1819,0.2797 0.3822,0.4024 0.2012,0.1219 0.4818,0.1265 0.2806,0 0.4745,-0.2732 0.1947,-0.2779 0.2058,-0.7449 0.012,-0.4671 -0.1246,-0.708 -0.1375,-0.2409 -0.4163,-0.3933 -0.2788,-0.1513 -0.5114,-0.1633 -0.2326,-0.012 -0.3729,0.041 -0.1394,0.053 -0.2363,0.1901 -0.096,0.1376 -0.1135,0.3499 -0.018,0.2123 0.066,0.4172 0.083,0.2049 0.2363,0.3341 0.1542,0.1293 0.2659,0.1671 0.1116,0.038 0.2363,0.045 0.1246,0.01 0.623,-0.031" /><path
     id="STROKE_c4aadb06-874e-435a-a367-1fdf5381e905"
     opacity="1"
     fill="none"
     stroke="#9198e5"
     stroke-width="3.69222"
     stroke-opacity="1"
     stroke-linecap="round"
     stroke-linejoin="round"
     d="m 4550.0825,904.47543 0.053,-0.2926 q -0.017,-0.228 -0.053,-0.432 -0.035,-0.204 -0.156,-0.4569 -0.1209,-0.2529 -0.4486,-0.4966 -0.3277,-0.2437 -0.5631,-0.2778 -0.2344,-0.035 -0.3941,0 -0.1597,0.036 -0.24,0.2557 -0.081,0.2196 -0.066,0.4476 0.017,0.2271 0.1339,0.4237 0.1181,0.1957 0.264,0.3046 0.1458,0.1099 0.3637,0.18 0.2178,0.07 0.3701,0.02 0.1523,-0.05 0.2308,-0.1698 0.078,-0.12 0.088,-0.1597 0.01,-0.04 0.025,-0.063 0.015,-0.023 -0.049,-0.2233 -0.065,-0.2003 -0.3582,-0.3563 -0.053,0.026 -0.1911,0.2538" /><path
     id="STROKE_f31003ba-01cf-4bde-9789-ecc9d2610ad1"
     opacity="1"
     fill="none"
     stroke="#9198e5"
     stroke-width="3.69222"
     stroke-opacity="1"
     stroke-linecap="round"
     stroke-linejoin="round"
     d="m 4577.3477,942.37603 0.044,-0.1061 q 0.1569,-0.5723 0.2049,-0.8649 0.049,-0.2926 0.01,-0.5982 -0.039,-0.3055 -0.2381,-0.6507 -0.1994,-0.3452 -0.5271,-0.5142 -0.3267,-0.1698 -0.5335,-0.179 -0.2058,-0.01 -0.4015,0.072 -0.1948,0.081 -0.3563,0.2243 -0.1606,0.143 -0.2465,0.467 -0.085,0.3231 0.1246,0.9019 0.2105,0.5778 0.4431,0.815 0.2326,0.2363 0.3803,0.3148 0.1477,0.077 0.4246,0.1015 0.2769,0.024 0.5187,-0.094 0.2428,-0.1182 0.3342,-0.2105 0.091,-0.092 0.192,-0.3314 0.1015,-0.2381 0.091,-0.492 -0.01,-0.2538 -0.1117,-0.455 -0.1025,-0.2013 -0.2326,-0.2853 -0.1302,-0.084 -0.1736,-0.099 -0.043,-0.014 -0.1763,-0.018 -0.132,0 -0.2381,0.051 -0.1052,0.054 -0.1459,0.099 -0.041,0.045 -0.1006,0.1624 -0.06,0.1172 -0.092,0.2502 -0.032,0.132 -0.2381,0.7522" /><path
     id="STROKE_f5d93c23-b0e8-493b-827a-7c1da74aba7a"
     opacity="1"
     fill="none"
     stroke="#9198e5"
     stroke-width="3.69222"
     stroke-opacity="1"
     stroke-linecap="round"
     stroke-linejoin="round"
     d="m 4521.7189,881.46183 q -0.018,-0.026 0.056,-0.2907 l -0.01,-0.2815 q -0.026,-0.1265 -0.1394,-0.4136 -0.1145,-0.2861 -0.372,-0.5243 -0.2575,-0.2372 -0.5529,-0.3212 -0.2963,-0.084 -0.5068,-0.023 -0.2104,0.061 -0.3184,0.1459 -0.109,0.085 -0.1837,0.2233 -0.075,0.1394 -0.049,0.312 0.027,0.1727 0.09,0.3102 0.065,0.1375 0.4228,0.4467 0.3581,0.3083 0.564,0.3896 0.2067,0.081 0.4144,0.096 0.2086,0.015 0.3674,-0.07 0.1588,-0.085 0.2529,-0.1994 0.094,-0.1135 0.1135,-0.4966 0.019,-0.384 -0.1772,-0.8113 -0.1966,-0.4274 -0.3895,-0.6129 -0.1939,-0.1865 -0.4062,-0.2954 -0.2132,-0.108 -0.4181,-0.017 -0.2058,0.091 -0.3222,0.2399 -0.1163,0.1496 -0.1476,0.3287 -0.031,0.1781 0.053,0.4181 0.085,0.2391 0.2169,0.3923 0.132,0.1523 0.2492,0.2252 0.1173,0.072 0.2243,0.1043 0.108,0.032 0.1948,0 0.087,-0.035 0.1569,-0.087 0.07,-0.052 0.1191,-0.2003 0.049,-0.1487 0.1034,-0.6573" /><path
     id="STROKE_f5880166-313a-45b4-a246-15574a436d7d"
     opacity="1"
     fill="none"
     stroke="#9198e5"
     stroke-width="3.69222"
     stroke-opacity="1"
     stroke-linecap="round"
     stroke-linejoin="round"
     d="m 4449.6025,857.31943 -0.059,-0.022 q -0.053,-0.04 -0.2104,-0.2437 -0.1579,-0.2049 -0.2585,-0.3212 -0.1006,-0.1163 -0.3092,-0.2511 -0.2077,-0.1338 -0.5437,-0.1901 -0.335,-0.056 -0.5704,0.016 -0.2354,0.072 -0.3637,0.2455 -0.1283,0.1735 -0.1394,0.3166 -0.011,0.144 0.059,0.3268 0.071,0.1837 0.2741,0.335 0.204,0.1523 0.5705,0.2253 0.3664,0.073 0.576,0.039 0.2086,-0.035 0.3683,-0.1495 0.1606,-0.1145 0.215,-0.2538 0.055,-0.1394 0.051,-0.2336 -0.01,-0.093 -0.059,-0.2058 -0.054,-0.1126 -0.1126,-0.1809 -0.059,-0.068 -0.2381,-0.1893 -0.1791,-0.1218 -0.3,-0.1726 -0.1209,-0.052 -0.5059,-0.1846" /><path
     id="STROKE_b0b58540-abb7-4f9d-be7f-6068e3c7ee4d"
     opacity="1"
     fill="none"
     stroke="#9198e5"
     stroke-width="3.69222"
     stroke-opacity="1"
     stroke-linecap="round"
     stroke-linejoin="round"
     d="m 4346.8324,878.84223 q 0,0 0.01,-0.01 0.01,0 0.01,-0.012 0,-0.01 -0.047,-0.066 -0.049,-0.056 -0.1726,-0.1172 -0.1237,-0.061 -0.384,-0.046 -0.2603,0.014 -0.5289,0.121 -0.2686,0.108 -0.4421,0.24 -0.1736,0.1329 -0.2252,0.2003 -0.051,0.067 -0.109,0.1846 -0.058,0.1181 -0.064,0.2584 -0.01,0.1403 0.08,0.3342 0.087,0.1938 0.2567,0.3147 0.1689,0.1219 0.4366,0.1994 0.2676,0.078 0.5778,0.051 0.3111,-0.028 0.5732,-0.1468 0.2612,-0.1191 0.4246,-0.3074 0.1625,-0.1883 0.1902,-0.336 0.029,-0.1486 0,-0.2658 -0.026,-0.1181 -0.1496,-0.1994 -0.1227,-0.081 -0.9553,-0.1347" /><path
     id="STROKE_0b9ac956-f261-442d-bab9-052b442481d7"
     opacity="1"
     fill="none"
     stroke="#9198e5"
     stroke-width="1.84611"
     stroke-opacity="1"
     stroke-linecap="round"
     stroke-linejoin="round"
     d="m 3699.6476,862.16547 102.7266,115.49436" /><path
     id="STROKE_7f1c6847-98c2-4e24-923c-96299f6fbe2a"
     opacity="1"
     fill="none"
     stroke="#9198e5"
     stroke-width="1.84611"
     stroke-opacity="1"
     stroke-linecap="round"
     stroke-linejoin="round"
     d="m 3685.2461,855.47517 -171.4388,40.53592" /><path
     id="STROKE_33d62190-2aee-4b8f-942f-2f1d7c8e39cc"
     opacity="1"
     fill="none"
     stroke="#9198e5"
     stroke-width="1.84611"
     stroke-opacity="1"
     stroke-linecap="round"
     stroke-linejoin="round"
     d="m 3897.6687,892.1386 95.3127,-36.30372" /><path
     id="STROKE_adc9e687-8891-4b03-9eab-bdfe9a87ca53"
     opacity="1"
     fill="none"
     stroke="#9198e5"
     stroke-width="1.84611"
     stroke-opacity="1"
     stroke-linecap="round"
     stroke-linejoin="round"
     d="m 4010.2388,850.63717 62.2757,0.60275" /><path
     id="STROKE_c1c494dc-0200-47d1-8ee4-0f6636ccf3d7"
     opacity="1"
     fill="none"
     stroke="#9198e5"
     stroke-width="1.84611"
     stroke-opacity="1"
     stroke-linecap="round"
     stroke-linejoin="round"
     d="m 4088.8655,854.70691 51.9162,32.34843" /><path
     id="STROKE_338cfffb-3edc-41e8-a2ea-247d49fa9416"
     opacity="1"
     fill="none"
     stroke="#9198e5"
     stroke-width="1.84611"
     stroke-opacity="1"
     stroke-linecap="round"
     stroke-linejoin="round"
     d="m 4150.6953,898.42275 45.1328,76.55072" /><path
     id="STROKE_275b4cdb-b864-46ed-b86d-7a1074163ab1"
     opacity="1"
     fill="none"
     stroke="#9198e5"
     stroke-width="1.84611"
     stroke-opacity="1"
     stroke-linecap="round"
     stroke-linejoin="round"
     d="m 4302.5379,900.45183 36.3064,-19.6749" /><path
     id="STROKE_bfd3f028-b056-47a8-a9c3-69e62439e2d0"
     opacity="1"
     fill="none"
     stroke="#9198e5"
     stroke-width="1.84611"
     stroke-opacity="1"
     stroke-linecap="round"
     stroke-linejoin="round"
     d="m 4353.5246,876.08783 44.6278,-13.1738" /><path
     id="STROKE_908782df-acd7-49d9-949f-a98e4f25798a"
     opacity="1"
     fill="none"
     stroke="#9198e5"
     stroke-width="1.84611"
     stroke-opacity="1"
     stroke-linecap="round"
     stroke-linejoin="round"
     d="m 4414.4646,860.21133 26.284,-3.7033" /><path
     id="STROKE_672c2e57-dfbf-46be-96ca-794916e1258a"
     opacity="1"
     fill="none"
     stroke="#9198e5"
     stroke-width="1.84611"
     stroke-opacity="1"
     stroke-linecap="round"
     stroke-linejoin="round"
     d="m 4456.1442,856.21823 19.2494,2.9316" /><path
     id="STROKE_74a78ff7-e8ba-426a-8609-4bbd62458edc"
     opacity="1"
     fill="none"
     stroke="#9198e5"
     stroke-width="1.84611"
     stroke-opacity="1"
     stroke-linecap="round"
     stroke-linejoin="round"
     d="m 4492.2107,864.63463 23.1816,11.2372" /><path
     id="STROKE_f375463c-f3a6-4ab3-9c59-90c4ff13e072"
     opacity="1"
     fill="none"
     stroke="#9198e5"
     stroke-width="1.84611"
     stroke-opacity="1"
     stroke-linecap="round"
     stroke-linejoin="round"
     d="m 4528.0741,883.55353 16.8227,14.1929" /><path
     id="STROKE_e10e96d0-8481-4b26-ae90-af97f22c0de3"
     opacity="1"
     fill="none"
     stroke="#9198e5"
     stroke-width="1.84611"
     stroke-opacity="1"
     stroke-linecap="round"
     stroke-linejoin="round"
     d="m 4554.755,908.69293 18.8921,25.6562" /><path
     id="STROKE_4575568a-f7b6-49dd-848a-c68b5f5fd797"
     opacity="1"
     fill="none"
     stroke="#9198e5"
     stroke-width="1.84611"
     stroke-opacity="1"
     stroke-linecap="round"
     stroke-linejoin="round"
     d="m 4581.6592,947.07253 17.3248,36.721" /><path
     id="STROKE_859def99-ee77-4d49-888d-d954f876743c"
     opacity="1"
     fill="none"
     stroke="#9198e5"
     stroke-width="3.69222"
     stroke-opacity="1"
     stroke-linecap="round"
     stroke-linejoin="round"
     d="m 4607.2472,996.41163 q 0.092,-0.3489 0.1551,-1.1529 0.063,-0.8049 0.043,-1.055 -0.019,-0.2511 -0.1311,-0.6813 -0.1108,-0.4301 -0.7652,-1.1095 -0.6554,-0.6793 -1.2092,-0.8861 -0.5539,-0.2077 -1.0745,-0.1929 -0.5215,0.015 -0.9507,0.3747 -0.4292,0.3591 -0.6452,0.9083 -0.2169,0.5492 -0.1874,1.0929 0.03,0.5437 0.108,0.7459 0.077,0.2012 0.6175,0.7042 0.5391,0.5031 1.5295,0.7523 0.9895,0.2502 1.5711,0.1191 0.5806,-0.1311 0.7273,-0.2723 0.1459,-0.1412 0.2492,-0.5566 0.1043,-0.4154 0.069,-0.5492 -0.034,-0.1348 -0.3259,-0.576 -0.2907,-0.4421 -0.7652,-0.6231 -0.4744,-0.18 -0.7338,-0.167 -0.2585,0.012 -0.4514,0.049 -0.192,0.037 -0.4283,0.3674 -0.2354,0.3295 -0.2566,0.6803 -0.02,0.3498 0.039,0.563 0.059,0.2142 0.2141,0.3591 0.1551,0.1458 0.4966,0.2298 0.3425,0.084 0.5742,0.025 0.2326,-0.059 0.444,-0.2336 0.2113,-0.1754 0.3073,-0.3812 0.096,-0.2058 0.074,-0.4717 l 0.1071,-0.1264" /></g></svg>
