<svg xmlns="http://www.w3.org/2000/svg" xml:space="preserve" viewBox="0 0 960 480">
    <g fill="none" stroke-linecap="round" stroke-linejoin="round">
        <path stroke="#e66465" stroke-width="2.854" d="m836.613 141.401-.133-.389q-.027-.102-.192-1.24-.166-1.14-.416-1.715-.25-.577-.723-1.094t-1.065-.704-1.258-.028q-.665.158-1.328.693t-.926.89-.477.803-.35 1.138-.1 1.37q.037.676.113.939t.197.482.515.635.737.588q.342.173.541.22.2.046.522.063t1.084-.236 2.74-1.394m69.729 170.544-.27-.254q-.173-.176-.525-1.041-.353-.866-.647-1.403-.293-.537-.8-1.029-.506-.49-1.374-.812-.868-.32-1.613-.287t-1.385.421-.856.656-.4.806-.217.984.225 1.294q.258.845.66 1.319.403.473.78.715.379.241.913.38.535.138 1.184.144.648.008.87-.051.223-.056.412-.095.188-.038 1.172-.626.983-.588 2.14-2.079l.7-1.192M665.43 245.601q-.052-.079-.288-1.221-.234-1.143-.592-2.013-.359-.87-.618-1.253-.258-.383-.476-.626-.217-.244-.376-.356-.16-.112-.193-.161-.034-.05-2.07-.105-2.035-.057-2.356.192-.321.25-.627.717t-.556 1.456-.16 1.627.258 1.037 1.177.964 1.773.68 1.159.125q.394.011 1.148-.068.753-.08 1.259-.232t2.155-.92m-35.912-35.993-.298.829-.065.516q-.15.437 1.2 18.327l.289-.267"/>
        <path stroke="#e66465" stroke-width="2.854" d="M629.77 209.706q.027-.047.232-.57.726-1.018 1.023-1.217.298-.199.74-.337t1.07-.02 1.065.381q.437.265.935.672t1.095 1.158 1.041 1.835q.443 1.083.492 1.982.05.9-.21 1.901-.261 1.002-1.093 2.163-.831 1.162-1.605 1.757t-1.386.862-.98.354q-.37.085-.758.059l-.15.089-.232.16m16.867 9.246q-.069-.23-.215-.6-.145-.371-.451-.996t-.684-1.148q-.379-.522-.546-.707-.166-.186-.613-.556t-1.232-.593-1.39-.139-1.09.5-.763 1.181q-.28.766-.177 1.407.104.642.572 1.15t.994.738.873.276q.347.045.8 0 .452-.045.694-.138.243-.094 3.27-2.113m192.235-123.458.12.548q-.02.091.45 5.414t1.534 11.712q.113.225.3.956m-2.207-19.19q.22-.279.595-.673.373-.394 1.113-.714.74-.321 1.386-.394.646-.072 1.33.014.683.086 1.771.985 1.088.897 1.583 1.76t.771 2.366q.276 1.501-.01 2.921-.285 1.42-.982 2.473-.696 1.052-1.62 1.834-.922.782-3.198 1.46-.141-.014-.897.12m11.708 7.244q.575-.492.586-.522t.906-1.182q.896-1.15 1.645-2.157 0 .028.236 1.203.235 1.175 1.356 5.212l.528 1.43m57.978 192.65v.402q-.163 1.191.336 5.808.499 4.616 1.257 9.147.76 4.53 1.412 8.525.061.123.21.882m-2.554-20.329.242-.464q.376-.79.767-1.418t.72-.968q.331-.341 1.004-.78t1.98-.71q1.31-.272 2.031-.185.722.086 1.31.354.587.267 1.405 1.016.817.748 1.375 2.077.557 1.329.648 2.094.092.766.026 1.784-.065 1.019-.648 2.435-.584 1.417-1.457 2.417t-1.889 1.47q-1.014.471-1.558.547-.545.076-.91.042-.366-.032-.682-.2t-1.3-.98m12.776 8.48q0-.436-.008-.534l.25-.575q.175-.28 1.12-.973t1.777-.839 1.282-.042q.45.105.629.218.177.113.284.278.106.164.316.885.209.72-.181 2.374-.391 1.653-.908 2.827l-.802 1.826q-.285.652-.376.916-.092.263-.162.424.114.02.32.053.206.032.229.028l1.87-.017q1.845-.015 5.61-.47l1.468.051m-722.33-213.184-.134-.389q-.027-.102-.192-1.241t-.416-1.715-.723-1.094-1.065-.704-1.257-.028q-.666.16-1.329.693-.663.536-.925.892t-.478.8q-.216.446-.35 1.14-.135.693-.099 1.37.036.676.112.938.076.263.197.482t.516.635.736.589q.342.173.541.218.2.047.522.065.322.017 1.084-.236t2.74-1.395m69.729 170.545-.27-.255q-.172-.175-.525-1.04-.352-.867-.646-1.404t-.8-1.028q-.507-.49-1.375-.812-.868-.32-1.613-.287t-1.385.421-.855.656q-.216.267-.4.805t-.218.985q-.033.447.225 1.293.259.846.661 1.32.402.473.78.715.378.241.913.38.535.137 1.183.143t.871-.05.411-.095q.188-.037 1.172-.626.984-.588 2.14-2.078l.7-1.193M52.88 239.347q-.052-.08-.287-1.221-.234-1.143-.593-2.013-.358-.87-.617-1.254-.26-.383-.477-.626t-.376-.355q-.159-.113-.193-.162-.034-.048-2.07-.105t-2.356.193-.627.717q-.305.467-.555 1.456t-.16 1.627q.09.637.257 1.037.168.399 1.177.964t1.774.679q.763.114 1.158.125.394.012 1.148-.068t1.259-.23q.506-.152 2.156-.92m-35.912-35.995-.299.83-.065.516q-.15.437 1.2 18.326l.289-.266"/>
        <path stroke="#e66465" stroke-width="2.854" d="M17.22 203.452q.027-.047.232-.571.726-1.017 1.023-1.216.298-.199.74-.337.443-.138 1.07-.02.628.118 1.065.382t.935.67 1.095 1.16q.598.752 1.041 1.834t.493 1.982q.048.9-.212 1.901T23.61 211.4q-.831 1.163-1.604 1.757-.775.594-1.387.862-.612.267-.98.353-.37.086-.758.06l-.15.088-.231.16m16.866 9.247q-.068-.23-.214-.601-.146-.37-.452-.996-.307-.625-.684-1.147t-.545-.708-.614-.555-1.231-.593-1.39-.139q-.607.084-1.09.5-.485.416-.764 1.181-.28.766-.176 1.407.103.642.57 1.15.47.508.995.737.526.23.873.276t.8.002.695-.138q.242-.093 3.27-2.113M227.644 98.73l.12.549q-.02.091.45 5.414.47 5.321 1.533 11.712.114.225.3.955m-2.207-19.19q.222-.278.595-.672t1.113-.715 1.386-.393 1.33.014q.683.086 1.772.984 1.087.897 1.582 1.76.496.864.771 2.365.276 1.503-.01 2.923-.284 1.42-.98 2.473-.698 1.052-1.621 1.834-.923.781-3.198 1.46-.141-.015-.898.12m11.708 7.243q.575-.491.586-.521t.907-1.182 1.645-2.157q0 .028.235 1.203t1.356 5.211l.528 1.432M304.625 314.2v.403q-.163 1.191.336 5.807.5 4.617 1.258 9.148.759 4.53 1.411 8.525.061.122.212.882m-2.556-20.328.242-.465q.377-.792.768-1.419.39-.627.72-.967.33-.341 1.003-.78t1.981-.71 2.03-.186q.722.087 1.31.354.587.267 1.405 1.016t1.375 2.077.648 2.095.027 1.784-.649 2.435q-.584 1.417-1.457 2.416-.873 1-1.888 1.47-1.015.472-1.56.548-.544.075-.909.042t-.682-.2-1.3-.981m12.776 8.481q0-.437-.008-.534l.25-.576q.176-.28 1.12-.973.946-.692 1.777-.838.83-.147 1.282-.042.45.104.629.218.178.113.285.277.105.165.315.885.21.721-.181 2.375-.39 1.653-.908 2.827-.517 1.174-.802 1.826-.284.651-.376.915t-.162.424q.115.021.32.053.206.033.23.03l1.868-.018q1.846-.015 5.612-.47l1.467.05M524.588 134.13l-.134-.388q-.027-.102-.192-1.241t-.416-1.715-.723-1.094-1.065-.704-1.257-.028-1.329.693-.924.891q-.263.356-.48.802-.215.445-.35 1.138-.134.694-.098 1.37t.112.94q.077.262.197.48.121.22.516.636.394.417.736.589.343.172.542.218.2.047.521.064.322.018 1.085-.235t2.74-1.395m69.728 170.545-.269-.255q-.173-.175-.526-1.04-.352-.867-.646-1.404-.293-.537-.8-1.028t-1.375-.812q-.867-.321-1.613-.288-.745.034-1.385.422t-.855.656-.4.805-.218.985q-.033.446.225 1.293.259.846.661 1.32.402.473.78.715.378.241.913.379t1.183.144.871-.05.411-.095 1.172-.626 2.14-2.079l.7-1.192M353.404 238.33q-.051-.078-.286-1.22-.235-1.144-.594-2.013-.358-.87-.617-1.253-.26-.384-.477-.627t-.376-.355-.192-.162q-.034-.048-2.07-.105t-2.357.192q-.32.25-.627.717-.305.468-.555 1.457t-.16 1.627.257 1.037q.168.398 1.177.963t1.774.68q.763.114 1.158.125.394.012 1.148-.068t1.26-.23q.505-.153 2.155-.921M318.11 202.18l-.298.83-.065.516q-.15.436 1.2 18.326l.288-.266"/>
        <path stroke="#e66465" stroke-width="2.854" d="M317.744 202.436q.027-.047.232-.571.726-1.017 1.023-1.216.298-.199.74-.337.443-.138 1.07-.02.628.117 1.065.381t.935.672 1.095 1.158q.598.752 1.041 1.835t.493 1.982q.048.9-.212 1.901t-1.092 2.163-1.604 1.757q-.774.594-1.387.862-.612.267-.98.353-.37.086-.758.059l-.15.09-.231.16m16.866 9.246q-.068-.23-.214-.601-.146-.37-.452-.996-.307-.625-.684-1.147t-.545-.708-.614-.555-1.231-.593-1.39-.139q-.606.084-1.09.5t-.764 1.181-.176 1.407.571 1.15q.469.507.995.737.525.23.872.276.348.046.8.002t.695-.138q.242-.093 3.27-2.113m192.235-123.46.12.549q-.02.091.45 5.413t1.533 11.712q.114.226.3.956m-2.206-19.189q.22-.28.594-.673.373-.394 1.113-.715t1.386-.393 1.33.013q.684.087 1.772.984 1.087.898 1.582 1.761t.771 2.365-.009 2.923-.982 2.472-1.62 1.835q-.923.78-3.198 1.46-.14-.015-.898.12m11.708 7.243q.575-.492.586-.522t.907-1.181q.895-1.15 1.645-2.158 0 .029.235 1.204.236 1.174 1.356 5.211l.528 1.431m57.979 192.649v.403q-.164 1.191.335 5.807.5 4.617 1.258 9.147.759 4.53 1.411 8.526.062.122.212.881m-2.556-20.328.242-.465q.377-.79.768-1.418.39-.627.72-.967.33-.341 1.003-.78t1.982-.71q1.307-.273 2.03-.186.721.087 1.309.354.587.267 1.405 1.016t1.375 2.077q.557 1.33.648 2.095.092.765.027 1.783-.065 1.019-.649 2.436-.583 1.417-1.457 2.416-.873 1-1.888 1.47-1.015.472-1.56.548-.543.075-.909.042-.365-.033-.682-.2-.317-.169-1.3-.981m12.776 8.48q0-.435-.008-.534l.25-.575q.176-.28 1.121-.973.945-.692 1.777-.838.83-.147 1.28-.042.452.104.63.218.179.113.285.277t.315.885-.181 2.374-.908 2.828l-.802 1.825q-.284.652-.376.916t-.162.424q.115.021.32.053t.23.03l1.868-.019q1.846-.013 5.612-.469l1.467.05"/>
        <path stroke="#9198e5" stroke-width="2.854" d="m53.69 237.835-.04-.54q-.245-.96-.468-1.383-.224-.421-.5-.75-.278-.329-1.176-.893-.9-.563-1.807-.7-.908-.139-1.537-.03-.63.108-1.092.418-.461.31-.84 1.042-.377.733-.39 1.36-.014.629.051 1.044t.681 1.328 1.99 1.601 2.538.647q1.16-.04 1.676-.333t.956-1.11.367-1.489-.258-.995-.368-.55q-.182-.23-.942-.682t-1.71-.548q-.95-.097-1.35.024t-.598.263-.384.413-.207.55.04.53q.062.25.757.763.695.512 1.093.617t.931.116.84-.243.443-.454q.139-.2.19-.34.052-.139.126-.395.074-.257.051-.502-.023-.246-.182-.396l-.054-.211m147.286-31.301-.014-.347q0-.08-.202-.528-.199-.45-.65-.752-.452-.304-1.012-.364-.56-.059-.911.152-.351.21-.662.85t-.281 1.038q.031.396.182.676.152.28 1.133.658.981.377 1.685.29.703-.088.93-.218.23-.13.455-.403.224-.271.313-.72.088-.449.023-.796t-.522-.864q-.455-.518-1.157-.718t-1.112-.117-.61.241q-.201.16-.26.26-.06.102-.085.219-.025.116-.05.222-.022.107.11.402t.327.416q.194.12.356.128.162.007.265-.015.103-.023.301-.208.199-.185.278-.375.078-.19.1-.36.022-.172-.077-.38-.1-.208-.15-.251-.052-.043-.378-.268-.325-.225-1.186-.201-.078.105-.088.507-.01.403.048.629.057.225.325.677.269.452 1.879 1.872m92.751 103.162q.223-.554.297-.788t.112-.894-.31-1.803q-.35-1.143-1.2-1.903t-1.647-.906-1.016-.108q-.217.04-.552.224-.334.185-.778.844-.444.66-.5 1.436-.054.778 0 1.093t.56.996 1.653 1.014 1.763.241 1.104-.382.834-.964q.347-.673.343-1.244 0-.57-.16-.937-.155-.367-.629-.763t-.931-.487q-.458-.09-.863-.026-.406.064-.726.506t-.367.903 0 .836.376.87q.33.495.736.68.407.184.847.221t.73-.193.421-.546q.132-.314.099-.519-.033-.203-.144-.293-.112-.089-.196-.122-.085-.033-.237.137-.152.171-.205.33-.053.157-.084.367l.052.54m62.252-70.967-.114-.504-.31-.63q-.183-.38-1.105-1.146-.92-.768-1.57-.973-.648-.207-1.283-.175-.636.032-.99.139t-.851.53q-.498.42-.646.64-.15.217-.314.91-.165.694-.009 1.295.157.602 1.098 1.389.942.785 2.135.834 1.195.05 1.858-.206.664-.257 1.118-.676.453-.42.655-.882.201-.462.168-.838-.033-.377-.188-.587t-.232-.267-.661-.274-1.23-.182q-.642.034-1.257.348t-.717.623-.069.658.456.811q.423.463.84.644.417.182.802.171t.585-.12.363-.314.247-.398.086-.443q0-.25-.127-.42-.13-.17-.319-.233-.05.063-.037.138t.13.352m146.976-33.612-.04-.064q-.043-.201-.064-.23-.021-.03-.182-.383-.16-.352-.296-.561-.137-.208-.705-.537t-1.181-.341q-.613-.013-.948.127-.336.14-.69.568-.355.427-.412.906-.057.478.062.81.118.33.4.57.281.238 1.033.412.753.173 1.253.115t.898-.251.612-.452.27-.505-.008-.605-.694-.788q-.629-.43-1.293-.504-.665-.073-.981.015-.317.088-.44.403-.122.315-.013.61.108.294.281.479.173.183.382.326t.756.203.713-.008q.166-.066.266-.145t.199-.223q.1-.144.105-.337.008-.192-.232-.345-.018.009-.297.355m-59.388-.088-.234-.096-.485-.432q-.19-.147-.758-.355t-.926-.217-.776.19-.571.443-.194.422-.01.433q.029.254.275.472.246.22.624.333.38.114.769.078.39-.036.613-.154.224-.118.328-.285.103-.167.147-.376.044-.21.042-.356 0-.147-.076-.34-.074-.191-.51-.597t-1.834-.463q-.218.537-.136.893.082.355.256.551.176.197.405.296t.429.083q.199-.015.26-.04.06-.024.144-.152.084-.127.102-.216.017-.09-.019-.195-.036-.104-.177-.175t-.295-.08-.34.116q-.186.124-.48.855m113.409 31.68q.097-.194.247-.585t.166-.422.051-.371.011-.554-.07-.45-.197-.524-.479-.537-.613-.226-.623.29q-.333.269-.455.481-.123.213-.159.433-.035.22-.014.459t.425.628 1.239.444q.042.013.143-.26.102-.272.042-.594-.06-.323-.186-.5-.127-.177-.363-.21-.234-.033-.4.253-.167.286-.182.512t.011.411.193.39.488.35.566-.022l.272-.06m42.615 71.574q.071-.27.12-.891.048-.622.033-.816-.016-.194-.102-.526-.086-.333-.592-.858t-.935-.685-.83-.149-.735.29q-.332.277-.499.702t-.144.844q.023.421.083.577t.477.545 1.183.581q.764.193 1.214.092.45-.1.562-.21t.193-.43.054-.425-.252-.446-.592-.48-.567-.13-.349.038q-.149.028-.33.283-.183.256-.199.526t.03.436.165.278.384.177.444.02.343-.182.237-.294.057-.364l.084-.099m73.804-59.419q-.013-.05-.267-.259-.304-.75-.631-1.264-.328-.513-.797-.902t-.946-.56-.854-.19q-.375-.02-.617.06-.242.081-.454.271t-.378.743-.126.902.24.713.522.62q.32.253 1.041.405t1.225.07 1.013-.474.631-.697.131-.653q.01-.345-.338-.682-.35-.337-.865-.462-.514-.125-.772-.1-.26.026-.428.16-.17.135-.186.228-.017.094-.031.102-.016.007.031.363t.386.611.66.312.468.058q.146 0 .316-.113.17-.112.249-.28.078-.17.072-.216-.008-.047-.06-.18-.053-.133-.181-.158.085.31.302.44t.825.516m145.413-34.225-.043-.062q-.01-.126-.116-.44-.107-.315-.31-.571-.202-.256-.585-.5-.383-.245-.793-.303-.409-.06-.615-.03-.206.027-.396.117-.19.089-.259.146t-.18.19-.173.271-.083.468q-.024.33.054.542.078.211.2.37.122.16.433.362.31.203.695.286.385.084.668.063.284-.02.42-.07t.25-.12.184-.15.12-.217q.052-.136-.26-.557l-.034.017-.124-.01m-58.895.53q0-.023.013-.123t-.018-.365-.055-.353q-.023-.09-.05-.18t-.187-.268-.321-.273q-.161-.096-.246-.119t-.323-.014q-.24.01-.443.18-.202.173-.314.436-.111.264-.104.434t.148.386.295.31q.156.095.373.099.216 0 .366-.211.15-.215.16-.576.009-.361-.097-.547t-.322-.304q-.215-.117-.395-.127t-.288.032-.183.147-.088.27.052.323.182.258q.12.1.206.13t.182.034q.097.008.482-.024m110.919 32.171.04-.226q-.012-.176-.04-.334-.027-.158-.12-.353-.094-.196-.348-.384-.253-.188-.435-.215-.181-.027-.304 0-.124.028-.186.198-.063.17-.051.346t.104.327q.09.152.204.236.112.085.28.139t.287.015.178-.13q.06-.094.068-.124.008-.031.02-.049.011-.018-.038-.172-.05-.155-.277-.276-.041.02-.148.196m21.84 30.101.034-.082q.121-.443.158-.669t.008-.462-.184-.503-.408-.398q-.252-.13-.412-.138t-.31.056q-.15.062-.276.173-.124.11-.19.36t.096.698.343.63.294.243.328.079.4-.073.259-.163q.07-.07.148-.256.079-.184.07-.38-.007-.196-.086-.352t-.18-.22-.134-.077q-.033-.01-.136-.014-.102 0-.184.04-.081.041-.113.076-.031.035-.077.126-.047.09-.072.193-.024.102-.184.582m-42.189-46.552q-.014-.02.043-.224l-.008-.218q-.02-.098-.108-.32-.088-.22-.287-.405-.2-.183-.427-.248-.23-.065-.392-.018-.163.047-.246.113-.084.066-.142.172-.058.108-.038.242.02.133.07.24t.326.345.436.3.32.075q.162.012.284-.054.123-.066.196-.154t.088-.384q.014-.297-.137-.627t-.301-.474-.314-.228q-.165-.084-.323-.013-.16.07-.25.185-.09.116-.114.254t.041.323.168.303.193.175.173.08.15 0q.068-.027.122-.067t.092-.155.08-.508m-55.436-17.37-.046-.017q-.04-.031-.162-.188-.122-.159-.2-.249t-.24-.194q-.16-.103-.42-.147-.258-.043-.44.013t-.281.19q-.1.134-.108.244-.009.111.046.253.054.142.211.259.158.117.441.174t.446.03q.16-.027.284-.116.124-.088.166-.196t.04-.18q-.008-.072-.046-.16-.042-.086-.087-.14-.045-.052-.184-.146-.138-.094-.232-.133-.093-.04-.39-.143m-78.232 17.482.008-.008q.008 0 .008-.01 0-.007-.037-.05-.038-.044-.133-.091-.096-.047-.297-.036t-.409.094-.342.185-.174.155q-.039.052-.084.143t-.05.2q-.007.108.063.258.067.15.198.243.13.094.337.154t.447.04q.24-.022.443-.114.202-.092.328-.237.126-.146.147-.26.023-.115 0-.205-.02-.092-.115-.155-.095-.062-.739-.104"/>
        <path stroke="#9198e5" stroke-width="1.427" d="m202.767 209.473 79.4 89.268m-90.531-94.44-132.51 31.332m296.697-2.993 73.67-28.06m13.339-4.018 48.134.466m12.638 2.68 40.128 25.003m7.662 8.786 34.885 59.168m82.479-57.6 28.062-15.207m11.347-3.624 34.494-10.183m12.608-2.089 20.315-2.862m11.9-.224 14.879 2.266m12.998 4.239 17.918 8.686m9.801 5.937 13.004 10.97m7.619 8.461 14.602 19.83m6.193 9.835 13.391 28.382"/>
        <path stroke="#9198e5" stroke-width="2.854" d="M904.276 313.235q.071-.27.12-.89.048-.623.033-.816-.015-.194-.101-.527-.086-.332-.592-.858-.506-.525-.934-.684-.429-.161-.83-.15-.404.012-.736.29t-.498.702-.145.845.083.576.477.545 1.183.581q.764.194 1.214.092.449-.101.562-.21.113-.11.193-.43.08-.322.053-.425-.026-.104-.252-.445-.224-.342-.591-.482t-.567-.129-.35.038q-.148.029-.33.284t-.199.526.03.435q.046.166.166.278t.384.177.444.02.343-.181.237-.295.057-.364l.083-.098"/>
    </g>
</svg>
