<?xml version="1.0" encoding="UTF-8" standalone="no"?>
<svg
   version="1.1"
   xml:space="preserve"
   x="0px"
   y="0px"
   viewBox="0 0 960 480"
   id="svg1"
   sodipodi:docname="bezier-cubic-3.svg"
   inkscape:version="1.3.2 (091e20ef0f, 2023-11-25, custom)"
   xmlns:inkscape="http://www.inkscape.org/namespaces/inkscape"
   xmlns:sodipodi="http://sodipodi.sourceforge.net/DTD/sodipodi-0.dtd"
   xmlns="http://www.w3.org/2000/svg"
   xmlns:svg="http://www.w3.org/2000/svg"><defs
   id="defs1" /><sodipodi:namedview
   id="namedview1"
   pagecolor="#505050"
   bordercolor="#eeeeee"
   borderopacity="1"
   inkscape:showpageshadow="0"
   inkscape:pageopacity="0"
   inkscape:pagecheckerboard="0"
   inkscape:deskcolor="#d1d1d1"
   inkscape:zoom="1.3906433"
   inkscape:cx="481.7914"
   inkscape:cy="216.08704"
   inkscape:window-width="2560"
   inkscape:window-height="1600"
   inkscape:window-x="0"
   inkscape:window-y="0"
   inkscape:window-maximized="0"
   inkscape:current-layer="Cubic_3"
   showgrid="false" />
<g
   id="Cubic_3"
   opacity="1"
   transform="matrix(0.72188163,0,0,0.72188163,-4084.343,-1165.3594)"><path
     id="STROKE_125539a5-a51d-452a-b8fc-fa930dc25895"
     opacity="0.5"
     fill="none"
     stroke="#f6f7ef"
     stroke-width="2"
     stroke-opacity="1"
     stroke-linecap="round"
     stroke-linejoin="round"
     d="m 5801.2462,2148.1299 -0.506,-386.67" /><path
     id="STROKE_51a42f2e-8ddb-4641-a58c-84c67994eea1"
     opacity="0.5"
     fill="none"
     stroke="#f6f7ef"
     stroke-width="2"
     stroke-opacity="1"
     stroke-linecap="round"
     stroke-linejoin="round"
     d="m 6186.5332,1760.0069 3.122,388.31" /><path
     id="STROKE_a6a64e7b-6849-4080-8218-51cb31101579"
     opacity="0.5"
     fill="none"
     stroke="#f6f7ef"
     stroke-width="2"
     stroke-opacity="1"
     stroke-linecap="round"
     stroke-linejoin="round"
     d="m 6477.0868,2141.6495 1.36,-388.198" /><path
     id="STROKE_d60df52c-9ba5-43ba-a3e9-9dcec3fd78be"
     opacity="0.5"
     fill="none"
     stroke="#f6f7ef"
     stroke-width="2"
     stroke-opacity="1"
     stroke-linecap="round"
     stroke-linejoin="round"
     d="m 6479.6208,1749.6695 384.62,388.981" /><path
     id="STROKE_f24674c7-3490-4f9b-9537-1b95ce31572a"
     opacity="0.5"
     fill="none"
     stroke="#f6f7ef"
     stroke-width="2"
     stroke-opacity="1"
     stroke-linecap="round"
     stroke-linejoin="round"
     d="m 6862.2938,2136.9175 1.174,-386.577" /><path
     id="STROKE_bc6cb3c6-37a9-4b2e-a884-944a5c00c4c6"
     opacity="0.5"
     fill="none"
     stroke="#f6f7ef"
     stroke-width="2"
     stroke-opacity="1"
     stroke-linecap="round"
     stroke-linejoin="round"
     d="m 5801.2462,2148.1299 -0.506,-386.67" /><path
     id="STROKE_114912b0-0b6d-420a-a8ab-b6d289fdee0c"
     opacity="0.5"
     fill="none"
     stroke="#f6f7ef"
     stroke-width="2"
     stroke-opacity="1"
     stroke-linecap="round"
     stroke-linejoin="round"
     d="m 6186.5332,1760.0069 3.122,388.31" /><path
     id="STROKE_c1a021c9-c502-4da8-9549-397418fde1cb"
     opacity="0.5"
     fill="none"
     stroke="#f6f7ef"
     stroke-width="2"
     stroke-opacity="1"
     stroke-linecap="round"
     stroke-linejoin="round"
     d="m 6477.0868,2141.6495 1.36,-388.198" /><path
     id="STROKE_84535bff-c7ac-4cf4-9cf6-339f264ee5ae"
     opacity="0.5"
     fill="none"
     stroke="#f6f7ef"
     stroke-width="2"
     stroke-opacity="1"
     stroke-linecap="round"
     stroke-linejoin="round"
     d="m 6479.6208,1749.6695 384.62,388.981" /><path
     id="STROKE_516e8beb-7ac8-411a-a349-27591ee45fab"
     opacity="0.5"
     fill="none"
     stroke="#f6f7ef"
     stroke-width="2"
     stroke-opacity="1"
     stroke-linecap="round"
     stroke-linejoin="round"
     d="m 6862.2938,2136.9175 1.174,-386.577" /><path
     id="STROKE_86a8e59d-5186-4f61-bc01-a3215a431051"
     opacity="0.5"
     fill="none"
     stroke="#f6f7ef"
     stroke-width="2"
     stroke-opacity="1"
     stroke-linecap="round"
     stroke-linejoin="round"
     d="m 5849.3422,1759.9849 -47.769,338.987" /><path
     id="STROKE_e43dcc79-dba2-4780-afd0-7beb047be417"
     opacity="0.5"
     fill="none"
     stroke="#f6f7ef"
     stroke-width="2"
     stroke-opacity="1"
     stroke-linecap="round"
     stroke-linejoin="round"
     d="m 5898.6702,1760.4139 -98.242,291.063" /><path
     id="STROKE_bdabfb97-23c9-4c03-9911-eff44d94d78e"
     opacity="0.5"
     fill="none"
     stroke="#f6f7ef"
     stroke-width="2"
     stroke-opacity="1"
     stroke-linecap="round"
     stroke-linejoin="round"
     d="m 5946.2392,1762.3369 -144.782,238.749" /><path
     id="STROKE_8195eb91-9aa3-46de-a2e4-f2aae2b6b55f"
     opacity="0.5"
     fill="none"
     stroke="#f6f7ef"
     stroke-width="2"
     stroke-opacity="1"
     stroke-linecap="round"
     stroke-linejoin="round"
     d="m 5994.9042,1762.1629 -193.447,190.941" /><path
     id="STROKE_da904e2a-b40d-4a2b-91f1-0809ba7a9c69"
     opacity="0.5"
     fill="none"
     stroke="#f6f7ef"
     stroke-width="2"
     stroke-opacity="1"
     stroke-linecap="round"
     stroke-linejoin="round"
     d="m 6041.5932,1759.2669 -240.8,147.072" /><path
     id="STROKE_0f2a5b46-c81e-44b8-b669-7cf67a126432"
     opacity="0.5"
     fill="none"
     stroke="#f6f7ef"
     stroke-width="2"
     stroke-opacity="1"
     stroke-linecap="round"
     stroke-linejoin="round"
     d="m 5802.9012,1856.6079 286.377,-95.059" /><path
     id="STROKE_dafea8f5-2289-4a51-8716-ab9c6215327f"
     opacity="0.5"
     fill="none"
     stroke="#f6f7ef"
     stroke-width="2"
     stroke-opacity="1"
     stroke-linecap="round"
     stroke-linejoin="round"
     d="m 5800.7272,1811.8249 338.726,-49.789" /><path
     id="STROKE_f22d2e21-8032-4f55-b106-76e102d110c0"
     opacity="0.5"
     fill="none"
     stroke="#f6f7ef"
     stroke-width="2"
     stroke-opacity="1"
     stroke-linecap="round"
     stroke-linejoin="round"
     d="m 6138.5262,1757.5499 49.825,342.544" /><path
     id="STROKE_a0bc9b96-bcf2-4207-9c11-7e67a345e962"
     opacity="0.5"
     fill="none"
     stroke="#f6f7ef"
     stroke-width="2"
     stroke-opacity="1"
     stroke-linecap="round"
     stroke-linejoin="round"
     d="m 6088.8492,1759.1139 98.889,291.191" /><path
     id="STROKE_75f79cd5-da1a-4cdf-b616-a5ad143ba82c"
     opacity="0.5"
     fill="none"
     stroke="#f6f7ef"
     stroke-width="2"
     stroke-opacity="1"
     stroke-linecap="round"
     stroke-linejoin="round"
     d="m 6040.9652,1758.2799 147.204,244.472" /><path
     id="STROKE_cdaf8510-3073-4ba6-8686-59237607ee22"
     opacity="0.5"
     fill="none"
     stroke="#f6f7ef"
     stroke-width="2"
     stroke-opacity="1"
     stroke-linecap="round"
     stroke-linejoin="round"
     d="m 5991.2052,1758.1529 197.146,196.977" /><path
     id="STROKE_b268e4b8-7f21-40c1-8e9b-e6bc6c8e4211"
     opacity="0.5"
     fill="none"
     stroke="#f6f7ef"
     stroke-width="2"
     stroke-opacity="1"
     stroke-linecap="round"
     stroke-linejoin="round"
     d="m 5945.4942,1758.3379 242.493,147.131" /><path
     id="STROKE_e384b123-868b-4943-ac02-560c871e2350"
     opacity="0.5"
     fill="none"
     stroke="#f6f7ef"
     stroke-width="2"
     stroke-opacity="1"
     stroke-linecap="round"
     stroke-linejoin="round"
     d="m 5893.9932,1758.3959 295.321,98.732" /><path
     id="STROKE_a1ca7eb9-25f5-47a6-bfe8-ed7b60d4b5f9"
     opacity="0.5"
     fill="none"
     stroke="#f6f7ef"
     stroke-width="2"
     stroke-opacity="1"
     stroke-linecap="round"
     stroke-linejoin="round"
     d="m 5845.6932,1758.8129 343.074,52.802" /><path
     id="STROKE_b0e7e4f9-bcf3-4811-9e14-b13089d1a263"
     opacity="0.5"
     fill="none"
     stroke="#f6f7ef"
     stroke-width="2"
     stroke-opacity="1"
     stroke-linecap="round"
     stroke-linejoin="round"
     d="m 6528.4348,1797.5415 -51.703,296.332" /><path
     id="STROKE_3e4b0c70-4cb9-453e-855e-50ab234679e0"
     opacity="0.5"
     fill="none"
     stroke="#f6f7ef"
     stroke-width="2"
     stroke-opacity="1"
     stroke-linecap="round"
     stroke-linejoin="round"
     d="m 6576.8168,1847.8585 -101.033,194.931" /><path
     id="STROKE_e6f47200-d932-4477-813b-d2379a8f39aa"
     opacity="0.5"
     fill="none"
     stroke="#f6f7ef"
     stroke-width="2"
     stroke-opacity="1"
     stroke-linecap="round"
     stroke-linejoin="round"
     d="m 6624.2028,1896.3015 -147.421,99.439" /><path
     id="STROKE_14f474d2-4f13-448e-a5fe-3b084de7373c"
     opacity="0.5"
     fill="none"
     stroke="#f6f7ef"
     stroke-width="2"
     stroke-opacity="1"
     stroke-linecap="round"
     stroke-linejoin="round"
     d="m 6675.2188,1946.4355 -199.023,-0.183" /><path
     id="STROKE_b71023f8-c6dc-4997-a4fa-4c35729b2b75"
     opacity="0.5"
     fill="none"
     stroke="#f6f7ef"
     stroke-width="2"
     stroke-opacity="1"
     stroke-linecap="round"
     stroke-linejoin="round"
     d="m 6723.7128,1993.7305 -246.321,-96.678" /><path
     id="STROKE_0a433008-bb7f-4644-a35a-c3745fc17cad"
     opacity="0.5"
     fill="none"
     stroke="#f6f7ef"
     stroke-width="2"
     stroke-opacity="1"
     stroke-linecap="round"
     stroke-linejoin="round"
     d="m 6770.1008,2042.4525 -293.433,-194.845" /><path
     id="STROKE_1a461a0f-7370-4357-9177-847ac2d7d95f"
     opacity="0.5"
     fill="none"
     stroke="#f6f7ef"
     stroke-width="2"
     stroke-opacity="1"
     stroke-linecap="round"
     stroke-linejoin="round"
     d="m 6477.8038,1799.8785 337.511,289.03" /><path
     id="STROKE_6b9b0c11-58f5-4ce5-8e98-776e64f7d44a"
     opacity="0.5"
     fill="none"
     stroke="#f6f7ef"
     stroke-width="2"
     stroke-opacity="1"
     stroke-linecap="round"
     stroke-linejoin="round"
     d="m 5800.0462,1761.2519 385.363,-0.857" /><path
     id="STROKE_56ad8c3f-db84-4ded-a390-695556088ee0"
     opacity="0.5"
     fill="none"
     stroke="#f6f7ef"
     stroke-width="2"
     stroke-opacity="1"
     stroke-linecap="round"
     stroke-linejoin="round"
     d="m 6864.0778,1797.4735 -47.185,291.469" /><path
     id="STROKE_2ae72f84-94fb-4994-a0eb-2c707dcb0e0d"
     opacity="0.5"
     fill="none"
     stroke="#f6f7ef"
     stroke-width="2"
     stroke-opacity="1"
     stroke-linecap="round"
     stroke-linejoin="round"
     d="m 6865.8178,1849.0165 -96.571,193.842" /><path
     id="STROKE_26375c24-1aae-44d0-a4ba-d22f1a195eb6"
     opacity="0.5"
     fill="none"
     stroke="#f6f7ef"
     stroke-width="2"
     stroke-opacity="1"
     stroke-linecap="round"
     stroke-linejoin="round"
     d="m 6865.9158,1896.3845 -143.292,98.136" /><path
     id="STROKE_f1a4a80c-fe99-4fe7-9438-e1ef09b72edb"
     opacity="0.5"
     fill="none"
     stroke="#f6f7ef"
     stroke-width="2"
     stroke-opacity="1"
     stroke-linecap="round"
     stroke-linejoin="round"
     d="m 6864.3238,1945.3095 -190.127,0.741" /><path
     id="STROKE_361a3caf-5c9f-4def-8947-a4a343f11ebf"
     opacity="0.5"
     fill="none"
     stroke="#f6f7ef"
     stroke-width="2"
     stroke-opacity="1"
     stroke-linecap="round"
     stroke-linejoin="round"
     d="m 6863.6218,1994.6355 -240.609,-98.986" /><path
     id="STROKE_7e72bfd0-1b70-4e7b-9bc7-f3df752abbcf"
     opacity="0.5"
     fill="none"
     stroke="#f6f7ef"
     stroke-width="2"
     stroke-opacity="1"
     stroke-linecap="round"
     stroke-linejoin="round"
     d="m 6862.4288,2044.1615 -285.462,-196.683" /><path
     id="STROKE_55eda9b3-532c-43a5-817a-cae929a8182e"
     opacity="0.5"
     fill="none"
     stroke="#f6f7ef"
     stroke-width="2"
     stroke-opacity="1"
     stroke-linecap="round"
     stroke-linejoin="round"
     d="m 6862.0028,2089.7415 -335.179,-291.995" /><path
     id="STROKE_24aaa283-0b69-4a79-b8d9-80aef284be59"
     opacity="1"
     fill="none"
     stroke="#e66465"
     stroke-width="4"
     stroke-opacity="1"
     stroke-linecap="round"
     stroke-linejoin="round"
     d="m 5804.8872,1759.3489 -0.168,-0.073 q -1.368,-0.832 -1.761,-0.964 -0.392,-0.133 -1.009,-0.352 -0.617,-0.218 -1.691,-0.369 -1.073,-0.15 -2.212,0.145 -1.138,0.295 -1.567,0.566 -0.428,0.271 -0.819,0.76 -0.392,0.49 -0.571,0.763 -0.18,0.273 -0.329,1.154 -0.148,0.881 -0.022,1.504 0.126,0.624 0.55,1.313 0.424,0.69 0.926,1.185 0.502,0.496 1.206,0.881 0.704,0.386 1.567,0.58 0.864,0.195 1.88,0.259 1.016,0.064 1.937,-0.096 0.922,-0.16 1.424,-0.392 0.502,-0.233 1.22,-0.773 0.718,-0.539 1.09,-1.091 0.37,-0.552 0.456,-0.761 0.085,-0.21 0.303,-0.355 0.219,-0.145 0.815,-4.403" /><path
     id="STROKE_15de991c-8663-4fe8-a160-776afcc9a5ee"
     opacity="1"
     fill="none"
     stroke="#e66465"
     stroke-width="4"
     stroke-opacity="1"
     stroke-linecap="round"
     stroke-linejoin="round"
     d="m 5806.3422,2148.0089 q -0.683,-1.004 -1.655,-1.946 -0.972,-0.942 -2.406,-1.941 -1.435,-0.998 -1.557,-1.116 -0.122,-0.118 -1.936,-0.519 -1.812,-0.402 -3.068,-0.211 -1.256,0.191 -1.498,0.299 -0.242,0.108 -0.825,0.76 -0.583,0.652 -0.834,1.308 -0.251,0.656 -0.269,1.25 -0.017,0.594 -0.015,0.827 0,0.234 0.404,1.206 0.404,0.973 1.2,1.84 0.797,0.867 1.673,1.353 0.876,0.485 1.767,0.704 0.891,0.218 1.742,0.35 0.851,0.131 2.888,-0.212 2.036,-0.344 3.136,-0.845 1.1,-0.502 1.908,-1.238 0.807,-0.736 3.599,-5.098" /><path
     id="STROKE_798698b8-179d-41fa-9aa2-471116cd9215"
     opacity="1"
     fill="none"
     stroke="#e66465"
     stroke-width="4"
     stroke-opacity="1"
     stroke-linecap="round"
     stroke-linejoin="round"
     d="m 6191.0462,1762.1399 q -0.301,-0.409 -0.948,-1.885 -0.647,-1.475 -1.105,-2.295 -0.457,-0.82 -0.682,-1.097 -0.225,-0.276 -1.188,-1.262 -0.963,-0.987 -1.582,-1.239 -0.618,-0.252 -1.07,-0.286 -0.453,-0.034 -0.864,0.035 -0.411,0.069 -1.314,1.086 -0.902,1.016 -1.185,1.768 -0.282,0.751 -0.329,1.259 -0.048,0.508 0.125,1.649 0.172,1.141 0.347,1.499 0.176,0.357 0.536,0.794 0.36,0.436 1.556,1.339 1.197,0.902 2.828,1.372 1.631,0.469 2.023,0.532 0.392,0.064 1.048,0.069 0.655,0 3.345,-0.229" /><path
     id="STROKE_4427429c-3fb4-4386-8ad7-c2e738713f8f"
     opacity="1"
     fill="none"
     stroke="#e66465"
     stroke-width="4"
     stroke-opacity="1"
     stroke-linecap="round"
     stroke-linejoin="round"
     d="m 6193.8432,2148.9259 -0.901,-0.881 -0.172,-0.636 q -0.085,-0.233 -1.021,-1.92 -0.936,-1.687 -1.95,-2.702 -1.013,-1.014 -1.422,-1.265 -0.408,-0.252 -0.717,-0.364 -0.31,-0.112 -1.649,-0.221 -1.339,-0.108 -2.191,0.3 -0.852,0.407 -0.898,0.484 l -1.213,1.633 q -0.095,0.076 -0.487,2.414 -0.392,2.339 0,3.651 0.395,1.313 0.734,1.794 0.339,0.482 0.884,0.978 0.545,0.497 1.514,1.026 0.97,0.53 2.421,0.658 1.45,0.128 2.282,-0.01 0.832,-0.137 2.031,-0.916 1.199,-0.778 4.294,-4.122" /><path
     id="STROKE_7ea501be-5a42-4bb6-b631-f1d99713e15f"
     opacity="1"
     fill="none"
     stroke="#e66465"
     stroke-width="4"
     stroke-opacity="1"
     stroke-linecap="round"
     stroke-linejoin="round"
     d="m 6482.2418,1751.3505 -0.168,-0.073 q -1.368,-0.832 -1.761,-0.964 -0.392,-0.133 -1.009,-0.352 -0.617,-0.218 -1.691,-0.369 -1.073,-0.15 -2.212,0.145 -1.138,0.295 -1.567,0.566 -0.428,0.271 -0.819,0.76 -0.392,0.49 -0.571,0.763 -0.18,0.272 -0.329,1.154 -0.148,0.881 -0.022,1.504 0.126,0.624 0.55,1.313 0.424,0.69 0.926,1.185 0.502,0.496 1.206,0.881 0.704,0.386 1.567,0.58 0.864,0.195 1.88,0.259 1.016,0.064 1.937,-0.096 0.922,-0.16 1.424,-0.392 0.502,-0.233 1.22,-0.773 0.718,-0.539 1.09,-1.091 0.37,-0.552 0.456,-0.761 0.085,-0.21 0.303,-0.355 0.219,-0.145 0.815,-4.403" /><path
     id="STROKE_e694ad4f-e7f8-421c-a63f-245826608149"
     opacity="1"
     fill="none"
     stroke="#e66465"
     stroke-width="4"
     stroke-opacity="1"
     stroke-linecap="round"
     stroke-linejoin="round"
     d="m 6483.6968,2140.0105 q -0.683,-1.004 -1.655,-1.946 -0.972,-0.942 -2.406,-1.941 -1.435,-0.998 -1.557,-1.116 -0.122,-0.118 -1.936,-0.519 -1.812,-0.402 -3.068,-0.211 -1.256,0.191 -1.498,0.299 -0.242,0.108 -0.825,0.76 -0.583,0.652 -0.834,1.308 -0.251,0.656 -0.269,1.25 -0.017,0.594 -0.015,0.827 0,0.234 0.404,1.206 0.404,0.973 1.2,1.84 0.797,0.867 1.673,1.352 0.876,0.486 1.767,0.705 0.891,0.218 1.742,0.35 0.851,0.131 2.888,-0.212 2.036,-0.344 3.136,-0.845 1.1,-0.502 1.908,-1.238 0.807,-0.736 3.599,-5.098" /><path
     id="STROKE_794e2cc7-ad71-4dfd-9122-f91ab7b4d8fd"
     opacity="1"
     fill="none"
     stroke="#e66465"
     stroke-width="4"
     stroke-opacity="1"
     stroke-linecap="round"
     stroke-linejoin="round"
     d="m 6868.4008,1754.1415 q -0.301,-0.409 -0.948,-1.885 -0.647,-1.475 -1.105,-2.295 -0.457,-0.82 -0.682,-1.097 -0.225,-0.276 -1.188,-1.262 -0.963,-0.987 -1.582,-1.239 -0.618,-0.252 -1.07,-0.286 -0.453,-0.034 -0.864,0.035 -0.411,0.069 -1.314,1.086 -0.902,1.016 -1.185,1.768 -0.282,0.751 -0.329,1.259 -0.048,0.508 0.125,1.649 0.172,1.141 0.347,1.499 0.176,0.357 0.536,0.794 0.36,0.436 1.556,1.339 1.197,0.902 2.828,1.372 1.631,0.469 2.023,0.532 0.392,0.063 1.048,0.069 0.655,0.01 3.345,-0.229" /><path
     id="STROKE_15313e62-8411-455e-9e5f-8ad35023f02c"
     opacity="1"
     fill="none"
     stroke="#e66465"
     stroke-width="4"
     stroke-opacity="1"
     stroke-linecap="round"
     stroke-linejoin="round"
     d="m 6871.1978,2140.9275 -0.901,-0.881 -0.172,-0.636 q -0.085,-0.233 -1.021,-1.92 -0.936,-1.688 -1.95,-2.702 -1.013,-1.014 -1.422,-1.266 -0.408,-0.251 -0.717,-0.363 -0.31,-0.113 -1.649,-0.221 -1.339,-0.108 -2.191,0.3 -0.852,0.407 -0.898,0.484 l -1.213,1.633 q -0.095,0.076 -0.487,2.414 -0.392,2.339 0,3.651 0.395,1.313 0.734,1.794 0.339,0.482 0.884,0.978 0.545,0.497 1.514,1.026 0.97,0.53 2.421,0.658 1.45,0.128 2.282,-0.01 0.832,-0.138 2.031,-0.916 1.199,-0.778 4.294,-4.122" /><path
     id="STROKE_4ccfb6bd-9347-4fa6-91ad-b0e65c2e77c9"
     opacity="1"
     fill="none"
     stroke="#e66465"
     stroke-width="4"
     stroke-opacity="1"
     stroke-linecap="round"
     stroke-linejoin="round"
     d="m 5726.6182,2125.0759 -0.018,0.478 q -0.066,0.629 1.677,7.214 1.743,6.585 2.969,10.696 1.225,4.112 2.166,7.863 0.941,3.751 2.747,12.04 0.084,0.118 0.408,1.024" /><path
     id="STROKE_d9e4ad28-9f0d-421f-b752-26b6d41c464b"
     opacity="1"
     fill="none"
     stroke="#e66465"
     stroke-width="4"
     stroke-opacity="1"
     stroke-linecap="round"
     stroke-linejoin="round"
     d="m 5723.4412,2128.9729 q 1.033,-2.952 2.678,-5.276 1.645,-2.323 4.052,-4.276 2.409,-1.953 4.225,-2.635 1.816,-0.681 3.035,-0.801 1.218,-0.12 2.226,0.015 1.008,0.136 5.276,4.019 4.269,3.883 4.764,5.728 0.496,1.845 0.46,3.038 -0.036,1.193 -0.91,3.371 -0.873,2.178 -3.183,5.018 -2.31,2.84 -3.626,4.139 -1.315,1.3 -2.283,2.058 -0.968,0.758 -1.661,1.141 -0.099,0.01 0.238,0.686" /><path
     id="STROKE_21a45d0e-3d1d-45a3-a66c-04f1feb2e525"
     opacity="1"
     fill="none"
     stroke="#e66465"
     stroke-width="4"
     stroke-opacity="1"
     stroke-linecap="round"
     stroke-linejoin="round"
     d="m 5757.4972,2165.6949 q -0.673,-0.786 -1.666,-1.503 -0.992,-0.718 -1.519,-1.189 -0.526,-0.47 -1.398,-1.569 -0.871,-1.098 -1.376,-2.535 -0.505,-1.438 -0.5,-2.389 0.01,-0.95 0.331,-1.904 0.325,-0.953 1.37,-1.829 1.046,-0.877 2.164,-1.139 1.119,-0.262 2.197,-0.13 1.078,0.132 1.978,0.771 0.899,0.638 1.657,1.833 0.757,1.195 1.066,2.187 0.308,0.991 0.397,2 0.089,1.009 -0.096,2.321 -0.184,1.312 -0.6,2.148 -0.415,0.835 -1.162,1.759 -0.748,0.924 -5.722,2.887" /><path
     id="STROKE_51ab34c8-4925-4588-b140-4e65ec73f8da"
     opacity="1"
     fill="none"
     stroke="#e66465"
     stroke-width="4"
     stroke-opacity="1"
     stroke-linecap="round"
     stroke-linejoin="round"
     d="m 5722.2882,1726.9499 0.041,0.387 q 0.036,0.552 2.519,7.425 2.483,6.872 3.976,10.909 1.492,4.037 2.654,7.498 1.162,3.46 2.998,10.319 0.091,0.028 -1.662,-1.993" /><path
     id="STROKE_d723002c-a4d3-4797-8d36-be7de66e845d"
     opacity="1"
     fill="none"
     stroke="#e66465"
     stroke-width="4"
     stroke-opacity="1"
     stroke-linecap="round"
     stroke-linejoin="round"
     d="m 5718.8142,1730.5559 q 0.032,-0.107 0.21,-1.393 0.178,-1.286 0.534,-2.396 0.357,-1.111 1.681,-2.994 1.323,-1.884 3.058,-3.162 1.735,-1.278 3.338,-1.845 1.603,-0.566 3.243,-0.707 1.641,-0.141 2.969,0.069 1.328,0.209 2.685,0.916 1.357,0.706 2.817,2.616 1.459,1.91 2.333,5.662 0.875,3.752 0.746,5.971 -0.128,2.219 -0.837,4.449 -0.708,2.229 -2.402,4.328 -1.695,2.099 -3.223,3.004 -1.527,0.906 -2.489,1.136 -0.961,0.231 -3.681,0.141" /><path
     id="STROKE_cedf48db-9950-4029-a88d-a0b6754cd5b3"
     opacity="1"
     fill="none"
     stroke="#e66465"
     stroke-width="4"
     stroke-opacity="1"
     stroke-linecap="round"
     stroke-linejoin="round"
     d="m 5755.4712,1764.2399 q 2.649,-8.094 3.019,-9.917 0.37,-1.824 0.473,-2.459 0.104,-0.635 -0.351,-0.724 -0.218,0.556 0.08,2.52 0.297,1.963 0.827,3.588 0.529,1.625 1.467,3.681 0.938,2.055 2.476,4.198 0.345,0.227 1.045,1.055" /><path
     id="STROKE_74d9f1b6-17c4-4797-9c04-f353c0b4027c"
     opacity="1"
     fill="none"
     stroke="#e66465"
     stroke-width="4"
     stroke-opacity="1"
     stroke-linecap="round"
     stroke-linejoin="round"
     d="m 6216.7142,1696.3369 q 0.053,0.103 0.043,0.754 0.011,1.065 1.397,5.169 1.386,4.104 3.583,10.403 2.196,6.299 3.967,13.555 1.771,7.256 2.748,12.822 0.086,0.1 -1.134,-3.832" /><path
     id="STROKE_7f77ea22-8f2e-4be2-ba7e-3374c9b9e6f3"
     opacity="1"
     fill="none"
     stroke="#e66465"
     stroke-width="4"
     stroke-opacity="1"
     stroke-linecap="round"
     stroke-linejoin="round"
     d="m 6215.8402,1700.5939 q 0.105,-0.142 0.777,-1.985 0.672,-1.843 1.233,-2.85 0.562,-1.008 0.934,-1.524 0.372,-0.516 1.872,-1.816 1.5,-1.299 3.422,-2.082 1.921,-0.784 3.094,-0.941 1.174,-0.156 2.574,-0.083 1.399,0.072 2.197,0.241 0.798,0.168 3.596,1.748 2.798,1.579 4.455,3.362 1.656,1.784 2.761,3.849 1.106,2.064 1.527,4.774 0.421,2.71 0.204,4.374 -0.218,1.663 -1.167,3.684 -0.95,2.021 -3.139,3.871 -2.19,1.849 -3.884,2.439 -1.694,0.59 -2.562,0.663 -0.869,0.073 -1.527,-0.024 -0.657,-0.098 -0.979,-0.255 -0.321,-0.156 -0.605,-0.391 -0.284,-0.235 -0.455,-0.477 -0.171,-0.243 -0.547,-0.851" /><path
     id="STROKE_b9a2616c-fb6c-4660-a2f9-2a66e91be0c2"
     opacity="1"
     fill="none"
     stroke="#e66465"
     stroke-width="4"
     stroke-opacity="1"
     stroke-linecap="round"
     stroke-linejoin="round"
     d="m 6253.2332,1738.8969 q 0.145,-0.303 -0.251,-1.2 0.247,-1.696 1.053,-2.93 0.805,-1.233 1.723,-1.835 0.919,-0.603 1.669,-0.664 0.751,-0.061 1.048,-0.048 0.297,0.014 1.068,0.479 0.77,0.464 1.522,1.789 0.751,1.324 1.038,3.41 0.287,2.086 -0.315,5.637 -0.6,3.551 -0.999,5.828 -0.398,2.277 -0.214,3.68 0.53,0.172 4.105,0.068 3.575,-0.103 14.526,-1.664" /><path
     id="STROKE_66747131-2ba4-4bc3-9520-7abdfcfc6d78"
     opacity="1"
     fill="none"
     stroke="#e66465"
     stroke-width="4"
     stroke-opacity="1"
     stroke-linecap="round"
     stroke-linejoin="round"
     d="m 6225.2802,2109.5129 -0.102,0.726 q -0.06,0.318 2.814,14.757 2.875,14.439 7.901,29.774 0.157,0.059 -0.068,-0.104" /><path
     id="STROKE_da9d37ca-93d3-4cac-b9d9-32c6a0d76eab"
     opacity="1"
     fill="none"
     stroke="#e66465"
     stroke-width="4"
     stroke-opacity="1"
     stroke-linecap="round"
     stroke-linejoin="round"
     d="m 6226.5912,2113.4099 q 0.073,-0.165 0.179,-1.174 0.106,-1.008 0.435,-1.981 0.33,-0.972 0.552,-1.443 0.222,-0.471 0.627,-1.037 0.404,-0.566 0.987,-1.126 0.582,-0.561 1.107,-0.909 0.526,-0.349 0.947,-0.62 0.422,-0.272 2.964,-0.743 2.543,-0.472 4.243,-0.276 1.7,0.195 3.394,0.928 1.693,0.733 3.004,1.783 1.311,1.05 2.395,2.864 1.085,1.814 1.508,4.332 0.423,2.519 0.099,4.784 -0.324,2.266 -1.675,4.786 -1.35,2.521 -3.129,4.201 -1.778,1.68 -3.667,2.548 -1.889,0.869 -3.353,1.044 -1.462,0.176 -2.436,-0.068 -0.974,-0.244 -1.99,-0.95 l -0.849,-0.426" /><path
     id="STROKE_400e4faa-fb29-4531-bf04-d6b90a33e75c"
     opacity="1"
     fill="none"
     stroke="#e66465"
     stroke-width="4"
     stroke-opacity="1"
     stroke-linecap="round"
     stroke-linejoin="round"
     d="m 6265.1152,2138.8709 q 0.152,-0.093 0.488,-0.63 0.337,-0.538 1.415,-1.597 1.079,-1.06 2.515,-2.027 1.435,-0.969 2.879,-1.421 1.443,-0.453 2.614,-0.354 1.17,0.099 1.737,0.325 0.566,0.226 1.159,0.774 0.593,0.547 1.116,1.94 0.523,1.393 0.472,2.956 -0.051,1.563 -0.554,2.943 -0.502,1.379 -0.804,1.952 -0.302,0.574 -0.553,0.7 0.156,-0.135 0.443,-0.261 0.288,-0.126 0.846,-0.176 0.558,-0.051 1.809,0.053 1.252,0.103 3.05,0.736 1.798,0.634 2.931,1.37 1.133,0.737 1.881,1.651 0.748,0.914 1.005,1.511 0.258,0.596 0.291,1.252 0.033,0.656 -0.18,1.412 -0.213,0.757 -0.716,1.566 -0.503,0.81 -1.825,1.877 -1.323,1.067 -3.476,1.855 -2.153,0.789 -4.2,0.924 -2.046,0.135 -3.362,-0.128 -1.316,-0.262 -2.182,-0.68 -0.866,-0.417 -1.693,-1.039 -0.827,-0.622 -1.996,-2.263 l -0.702,-1.076" /><path
     id="STROKE_41294b93-85f2-47d7-a867-e0c5860cb2da"
     opacity="1"
     fill="none"
     stroke="#e66465"
     stroke-width="4"
     stroke-opacity="1"
     stroke-linecap="round"
     stroke-linejoin="round"
     d="m 6405.8848,2128.5385 -0.05,1.065 q 0.159,0.965 1.013,4.325 0.853,3.36 1.861,7.101 1.008,3.74 2.564,9.078 1.558,5.337 2.498,8.137 0.94,2.801 1.785,4.849 0.844,2.048 1.275,2.93 0.431,0.882 0.95,1.717 0.125,0.02 -1.491,-2.412" /><path
     id="STROKE_ddae5dea-e1b5-486a-8c3c-67847833610d"
     opacity="1"
     fill="none"
     stroke="#e66465"
     stroke-width="4"
     stroke-opacity="1"
     stroke-linecap="round"
     stroke-linejoin="round"
     d="m 6406.1038,2131.5755 q 0.044,-1.219 1.092,-4.188 1.049,-2.968 2.193,-4.456 1.144,-1.488 2.011,-2.036 0.867,-0.547 1.599,-0.742 0.733,-0.195 2.72,0.196 1.987,0.392 4.299,2.067 2.311,1.675 3.411,3.076 1.1,1.4 1.794,3.028 0.693,1.628 0.86,3.49 0.167,1.862 -0.585,4.215 -0.752,2.353 -2.478,4.384 -1.724,2.032 -3.255,2.965 -1.532,0.933 -2.77,1.225 -1.238,0.292 -1.933,0.243 -0.695,-0.049 -1.211,-0.168 -0.517,-0.118 -1.064,-0.466 -0.548,-0.349 -0.88,-0.635 -0.332,-0.287 -0.74,-0.661" /><path
     id="STROKE_f8d0505a-fdb2-44b1-ac9c-5604718a7506"
     opacity="1"
     fill="none"
     stroke="#e66465"
     stroke-width="4"
     stroke-opacity="1"
     stroke-linecap="round"
     stroke-linejoin="round"
     d="m 6449.1948,2161.2935 q -0.071,-0.833 -0.695,-2.453 -0.624,-1.62 -1.696,-3.061 -1.072,-1.441 -2.448,-2.315 -1.375,-0.874 -3.634,-0.845 -2.259,0.029 -2.983,0.641 -0.724,0.612 -1.229,2.44 -0.505,1.829 -0.247,3.579 0.257,1.75 1.416,3.545 1.159,1.794 2.493,2.68 1.335,0.886 2.818,1.126 1.483,0.241 2.74,-0.08 1.258,-0.32 2.613,-1.509 1.354,-1.189 4.307,-8.075" /><path
     id="STROKE_f3fa970e-15f9-437c-92e7-a6dd559e1d48"
     opacity="1"
     fill="none"
     stroke="#e66465"
     stroke-width="4"
     stroke-opacity="1"
     stroke-linecap="round"
     stroke-linejoin="round"
     d="m 6411.3728,1731.6635 q 0.16,0.736 0.493,2.089 0.334,1.353 0.953,3.033 0.619,1.679 1.178,2.854 0.558,1.175 2.252,4.553 1.694,3.377 3.851,8.348 2.156,4.971 3.203,7.917 1.048,2.946 2.387,8.042 0.063,0.013 -0.674,-1.487" /><path
     id="STROKE_bace2af6-9c1f-47cc-b46f-f7e24bb3aa27"
     opacity="1"
     fill="none"
     stroke="#e66465"
     stroke-width="4"
     stroke-opacity="1"
     stroke-linecap="round"
     stroke-linejoin="round"
     d="m 6411.8108,1733.5365 q 0.317,-0.573 1.09,-2.035 0.773,-1.461 1.797,-2.509 1.025,-1.047 2.451,-1.848 1.427,-0.801 3.408,-1.094 1.982,-0.293 3.472,-0.027 1.491,0.265 2.699,1.037 1.208,0.771 2.351,2.108 1.142,1.338 2.18,4.367 1.038,3.03 1.126,5.601 0.088,2.571 -0.446,4.957 -0.532,2.386 -1.829,4.551 -1.296,2.166 -2.184,3.121 -0.889,0.955 -2.182,1.769 -1.293,0.815 -2.963,1.201 -0.319,-0.062 -1.737,-0.065" /><path
     id="STROKE_30c49f63-3e58-4945-857b-951915fd72b5"
     opacity="1"
     fill="none"
     stroke="#e66465"
     stroke-width="4"
     stroke-opacity="1"
     stroke-linecap="round"
     stroke-linejoin="round"
     d="m 6442.1338,1766.0005 q 0.166,-0.593 0.696,-2.338 0.53,-1.746 0.793,-3.066 0.262,-1.319 0.354,-2.009 0.09,-0.69 0.113,-0.993 0.022,-0.303 -0.013,-0.493 -0.035,-0.19 -0.086,-0.179 -0.052,0.01 0.183,0.989 0.234,0.978 1.408,3.448 1.173,2.47 7.156,11.783" /><path
     id="STROKE_e524bb17-8a5c-407a-9b5b-5e8a5eb1229e"
     opacity="1"
     fill="none"
     stroke="#e66465"
     stroke-width="4"
     stroke-opacity="1"
     stroke-linecap="round"
     stroke-linejoin="round"
     d="m 6898.3698,2139.7505 q 0.05,0.507 0.379,1.683 0.328,1.177 0.957,2.739 0.629,1.561 2.039,4.968 1.411,3.407 3.983,11.272 2.573,7.866 3.647,12.072 1.074,4.205 1.686,7.333 0.054,0 -1.571,-1.834" /><path
     id="STROKE_ae388121-bda1-4fea-a74b-e45f5d388622"
     opacity="1"
     fill="none"
     stroke="#e66465"
     stroke-width="4"
     stroke-opacity="1"
     stroke-linecap="round"
     stroke-linejoin="round"
     d="m 6899.1038,2146.2405 q 0.332,-1.624 0.779,-3.007 0.447,-1.383 1.297,-2.655 0.85,-1.271 2.001,-2.164 1.15,-0.894 2.611,-1.294 1.461,-0.401 3.476,-0.111 2.014,0.29 3.854,1.567 1.84,1.277 2.593,2.155 0.753,0.878 1.561,2.248 0.807,1.369 1.469,3.891 0.662,2.521 0.548,5.163 -0.114,2.642 -0.809,4.579 -0.695,1.938 -1.538,3.158 -0.844,1.22 -1.782,2.001 -0.937,0.78 -1.675,1.125 -0.738,0.345 -1.19,0.46 -0.452,0.114 -0.959,0 l -0.56,0.056" /><path
     id="STROKE_88da1758-1bc3-424e-8a86-e639fafd2f91"
     opacity="1"
     fill="none"
     stroke="#e66465"
     stroke-width="4"
     stroke-opacity="1"
     stroke-linecap="round"
     stroke-linejoin="round"
     d="m 6929.9828,2171.4105 0.441,-0.043 q 1.523,-0.282 2.078,-0.307 0.555,-0.025 1.322,0.102 0.767,0.127 1.258,0.482 0.492,0.355 0.676,0.592 0.185,0.237 0.572,1.035 0.387,0.798 0.78,2.848 0.394,2.051 0.406,4.688 0.012,2.638 0.289,4.191 0.07,0.043 3.717,-0.691 3.648,-0.734 11.337,-3.44" /><path
     id="STROKE_34edc2e9-da28-42df-ad7f-13acaec4d0cd"
     opacity="1"
     fill="none"
     stroke="#e66465"
     stroke-width="4"
     stroke-opacity="1"
     stroke-linecap="round"
     stroke-linejoin="round"
     d="m 6888.3408,1718.0215 0.318,0.388 q 0.908,1.312 4.431,8.837 3.524,7.525 5.045,12.142 1.52,4.618 2.057,7.165 0.537,2.546 0.795,5.083 0.258,2.537 0.287,7.412 -0.064,-0.12 -0.581,-0.769" /><path
     id="STROKE_1ec691d2-d77d-477b-9d1f-5743c294be02"
     opacity="1"
     fill="none"
     stroke="#e66465"
     stroke-width="4"
     stroke-opacity="1"
     stroke-linecap="round"
     stroke-linejoin="round"
     d="m 6889.2748,1722.9305 q 0.253,-1.626 0.669,-2.725 0.416,-1.099 0.783,-1.647 0.365,-0.547 1.594,-1.456 1.23,-0.91 3.512,-1.402 2.282,-0.493 5.034,-0.052 2.753,0.44 5.161,1.748 2.409,1.307 4.074,3.062 1.666,1.754 2.531,4.148 0.865,2.393 0.768,4.859 -0.096,2.465 -0.828,4.277 -0.732,1.812 -2.246,3.505 -1.514,1.694 -4.427,3.04 -2.913,1.347 -6.518,2.044" /><path
     id="STROKE_a0a85e3f-e269-42bb-9e9c-baca0abce1ca"
     opacity="1"
     fill="none"
     stroke="#e66465"
     stroke-width="4"
     stroke-opacity="1"
     stroke-linecap="round"
     stroke-linejoin="round"
     d="m 6925.4348,1754.7435 q 0.319,-0.877 0.521,-1.337 0.203,-0.46 0.531,-0.969 0.328,-0.51 0.681,-0.869 0.353,-0.36 0.638,-0.677 0.285,-0.318 2.255,-1.654 1.97,-1.337 3.813,-1.664 1.844,-0.326 2.826,-0.095 0.982,0.231 1.427,0.492 0.444,0.261 1.089,1.391 0.645,1.13 0.865,2.167 0.22,1.038 0.21,2.386 -0.01,1.348 -0.064,2.248 -0.053,0.899 -0.128,1.542 0.304,0.116 1.744,0.675 1.441,0.559 2.551,1.053 1.111,0.493 1.704,1.018 0.592,0.524 0.831,0.962 0.238,0.437 0.331,1.016 0.092,0.58 -0.093,1.472 -0.185,0.892 -1.808,2.161 -1.623,1.269 -4.409,1.931 -2.785,0.662 -5.09,0.437 -2.305,-0.224 -4.22,-0.905 -1.914,-0.68 -3.465,-1.816 l -1.151,-1.008" /><path
     id="STROKE_ee168b08-b924-404b-8937-f8eb40782d15"
     opacity="1"
     fill="none"
     stroke="#e66465"
     stroke-width="4"
     stroke-opacity="1"
     stroke-linecap="round"
     stroke-linejoin="round"
     d="m 5804.8872,1759.3489 -0.168,-0.073 q -1.368,-0.832 -1.761,-0.964 -0.392,-0.133 -1.009,-0.352 -0.617,-0.218 -1.691,-0.369 -1.073,-0.15 -2.212,0.145 -1.138,0.295 -1.567,0.566 -0.428,0.271 -0.819,0.76 -0.392,0.49 -0.571,0.763 -0.18,0.273 -0.329,1.154 -0.148,0.881 -0.022,1.504 0.126,0.624 0.55,1.313 0.424,0.69 0.926,1.185 0.502,0.496 1.206,0.881 0.704,0.386 1.567,0.58 0.864,0.195 1.88,0.259 1.016,0.064 1.937,-0.096 0.922,-0.16 1.424,-0.392 0.502,-0.233 1.22,-0.773 0.718,-0.539 1.09,-1.091 0.37,-0.552 0.456,-0.761 0.085,-0.21 0.303,-0.355 0.219,-0.145 0.815,-4.403" /><path
     id="STROKE_4db7e906-2983-4423-901c-dad3b7e66a5c"
     opacity="1"
     fill="none"
     stroke="#e66465"
     stroke-width="4"
     stroke-opacity="1"
     stroke-linecap="round"
     stroke-linejoin="round"
     d="m 5806.3422,2148.0089 q -0.683,-1.004 -1.655,-1.946 -0.972,-0.942 -2.406,-1.941 -1.435,-0.998 -1.557,-1.116 -0.122,-0.118 -1.936,-0.519 -1.812,-0.402 -3.068,-0.211 -1.256,0.191 -1.498,0.299 -0.242,0.108 -0.825,0.76 -0.583,0.652 -0.834,1.308 -0.251,0.656 -0.269,1.25 -0.017,0.594 -0.015,0.827 0,0.234 0.404,1.206 0.404,0.973 1.2,1.84 0.797,0.867 1.673,1.353 0.876,0.485 1.767,0.704 0.891,0.218 1.742,0.35 0.851,0.131 2.888,-0.212 2.036,-0.344 3.136,-0.845 1.1,-0.502 1.908,-1.238 0.807,-0.736 3.599,-5.098" /><path
     id="STROKE_632c3ba5-580f-40e4-9567-19056ae82ce1"
     opacity="1"
     fill="none"
     stroke="#e66465"
     stroke-width="4"
     stroke-opacity="1"
     stroke-linecap="round"
     stroke-linejoin="round"
     d="m 6191.0462,1762.1399 q -0.301,-0.409 -0.948,-1.885 -0.647,-1.475 -1.105,-2.295 -0.457,-0.82 -0.682,-1.097 -0.225,-0.276 -1.188,-1.262 -0.963,-0.987 -1.582,-1.239 -0.618,-0.252 -1.07,-0.286 -0.453,-0.034 -0.864,0.035 -0.411,0.069 -1.314,1.086 -0.902,1.016 -1.185,1.768 -0.282,0.751 -0.329,1.259 -0.048,0.508 0.125,1.649 0.172,1.141 0.347,1.499 0.176,0.357 0.536,0.794 0.36,0.436 1.556,1.339 1.197,0.902 2.828,1.372 1.631,0.469 2.023,0.532 0.392,0.064 1.048,0.069 0.655,0 3.345,-0.229" /><path
     id="STROKE_54ef178d-9bf9-4418-8a27-9d1edaf6bdac"
     opacity="1"
     fill="none"
     stroke="#e66465"
     stroke-width="4"
     stroke-opacity="1"
     stroke-linecap="round"
     stroke-linejoin="round"
     d="m 6193.8432,2148.9259 -0.901,-0.881 -0.172,-0.636 q -0.085,-0.233 -1.021,-1.92 -0.936,-1.687 -1.95,-2.702 -1.013,-1.014 -1.422,-1.265 -0.408,-0.252 -0.717,-0.364 -0.31,-0.112 -1.649,-0.221 -1.339,-0.108 -2.191,0.3 -0.852,0.407 -0.898,0.484 l -1.213,1.633 q -0.095,0.076 -0.487,2.414 -0.392,2.339 0,3.651 0.395,1.313 0.734,1.794 0.339,0.482 0.884,0.978 0.545,0.497 1.514,1.026 0.97,0.53 2.421,0.658 1.45,0.128 2.282,-0.01 0.832,-0.137 2.031,-0.916 1.199,-0.778 4.294,-4.122" /><path
     id="STROKE_26ea51bd-c44c-4ec6-a444-f55a4c7a2e4f"
     opacity="1"
     fill="none"
     stroke="#e66465"
     stroke-width="4"
     stroke-opacity="1"
     stroke-linecap="round"
     stroke-linejoin="round"
     d="m 6482.2418,1751.3505 -0.168,-0.073 q -1.368,-0.832 -1.761,-0.964 -0.392,-0.133 -1.009,-0.352 -0.617,-0.218 -1.691,-0.369 -1.073,-0.15 -2.212,0.145 -1.138,0.295 -1.567,0.566 -0.428,0.271 -0.819,0.76 -0.392,0.49 -0.571,0.763 -0.18,0.272 -0.329,1.154 -0.148,0.881 -0.022,1.504 0.126,0.624 0.55,1.313 0.424,0.69 0.926,1.185 0.502,0.496 1.206,0.881 0.704,0.386 1.567,0.58 0.864,0.195 1.88,0.259 1.016,0.064 1.937,-0.096 0.922,-0.16 1.424,-0.392 0.502,-0.233 1.22,-0.773 0.718,-0.539 1.09,-1.091 0.37,-0.552 0.456,-0.761 0.085,-0.21 0.303,-0.355 0.219,-0.145 0.815,-4.403" /><path
     id="STROKE_2f41dc3b-9706-4eb7-af47-0b8bfe927c0a"
     opacity="1"
     fill="none"
     stroke="#e66465"
     stroke-width="4"
     stroke-opacity="1"
     stroke-linecap="round"
     stroke-linejoin="round"
     d="m 6483.6968,2140.0105 q -0.683,-1.004 -1.655,-1.946 -0.972,-0.942 -2.406,-1.941 -1.435,-0.998 -1.557,-1.116 -0.122,-0.118 -1.936,-0.519 -1.812,-0.402 -3.068,-0.211 -1.256,0.191 -1.498,0.299 -0.242,0.108 -0.825,0.76 -0.583,0.652 -0.834,1.308 -0.251,0.656 -0.269,1.25 -0.017,0.594 -0.015,0.827 0,0.234 0.404,1.206 0.404,0.973 1.2,1.84 0.797,0.867 1.673,1.352 0.876,0.486 1.767,0.705 0.891,0.218 1.742,0.35 0.851,0.131 2.888,-0.212 2.036,-0.344 3.136,-0.845 1.1,-0.502 1.908,-1.238 0.807,-0.736 3.599,-5.098" /><path
     id="STROKE_6309b832-167b-41ea-96bd-272bb49bea14"
     opacity="1"
     fill="none"
     stroke="#e66465"
     stroke-width="4"
     stroke-opacity="1"
     stroke-linecap="round"
     stroke-linejoin="round"
     d="m 6868.4008,1754.1415 q -0.301,-0.409 -0.948,-1.885 -0.647,-1.475 -1.105,-2.295 -0.457,-0.82 -0.682,-1.097 -0.225,-0.276 -1.188,-1.262 -0.963,-0.987 -1.582,-1.239 -0.618,-0.252 -1.07,-0.286 -0.453,-0.034 -0.864,0.035 -0.411,0.069 -1.314,1.086 -0.902,1.016 -1.185,1.768 -0.282,0.751 -0.329,1.259 -0.048,0.508 0.125,1.649 0.172,1.141 0.347,1.499 0.176,0.357 0.536,0.794 0.36,0.436 1.556,1.339 1.197,0.902 2.828,1.372 1.631,0.469 2.023,0.532 0.392,0.063 1.048,0.069 0.655,0.01 3.345,-0.229" /><path
     id="STROKE_d13e0338-1740-4b7d-9fba-a36dd37f3880"
     opacity="1"
     fill="none"
     stroke="#e66465"
     stroke-width="4"
     stroke-opacity="1"
     stroke-linecap="round"
     stroke-linejoin="round"
     d="m 6871.1978,2140.9275 -0.901,-0.881 -0.172,-0.636 q -0.085,-0.233 -1.021,-1.92 -0.936,-1.688 -1.95,-2.702 -1.013,-1.014 -1.422,-1.266 -0.408,-0.251 -0.717,-0.363 -0.31,-0.113 -1.649,-0.221 -1.339,-0.108 -2.191,0.3 -0.852,0.407 -0.898,0.484 l -1.213,1.633 q -0.095,0.076 -0.487,2.414 -0.392,2.339 0,3.651 0.395,1.313 0.734,1.794 0.339,0.482 0.884,0.978 0.545,0.497 1.514,1.026 0.97,0.53 2.421,0.658 1.45,0.128 2.282,-0.01 0.832,-0.138 2.031,-0.916 1.199,-0.778 4.294,-4.122" /><path
     id="STROKE_eddfc51e-0b57-4ee6-a4f2-ce31ea62f580"
     opacity="1"
     fill="none"
     stroke="#e66465"
     stroke-width="4"
     stroke-opacity="1"
     stroke-linecap="round"
     stroke-linejoin="round"
     d="m 5726.6182,2125.0759 -0.018,0.478 q -0.066,0.629 1.677,7.214 1.743,6.585 2.969,10.696 1.225,4.112 2.166,7.863 0.941,3.751 2.747,12.04 0.084,0.118 0.408,1.024" /><path
     id="STROKE_50a3016d-b329-4097-b993-7873acffe33b"
     opacity="1"
     fill="none"
     stroke="#e66465"
     stroke-width="4"
     stroke-opacity="1"
     stroke-linecap="round"
     stroke-linejoin="round"
     d="m 5723.4412,2128.9729 q 1.033,-2.952 2.678,-5.276 1.645,-2.323 4.052,-4.276 2.409,-1.953 4.225,-2.635 1.816,-0.681 3.035,-0.801 1.218,-0.12 2.226,0.015 1.008,0.136 5.276,4.019 4.269,3.883 4.764,5.728 0.496,1.845 0.46,3.038 -0.036,1.193 -0.91,3.371 -0.873,2.178 -3.183,5.018 -2.31,2.84 -3.626,4.139 -1.315,1.3 -2.283,2.058 -0.968,0.758 -1.661,1.141 -0.099,0.01 0.238,0.686" /><path
     id="STROKE_2e618efb-f8e8-42a9-b603-409d16a4b66c"
     opacity="1"
     fill="none"
     stroke="#e66465"
     stroke-width="4"
     stroke-opacity="1"
     stroke-linecap="round"
     stroke-linejoin="round"
     d="m 5757.4972,2165.6949 q -0.673,-0.786 -1.666,-1.503 -0.992,-0.718 -1.519,-1.189 -0.526,-0.47 -1.398,-1.569 -0.871,-1.098 -1.376,-2.535 -0.505,-1.438 -0.5,-2.389 0.01,-0.95 0.331,-1.904 0.325,-0.953 1.37,-1.829 1.046,-0.877 2.164,-1.139 1.119,-0.262 2.197,-0.13 1.078,0.132 1.978,0.771 0.899,0.638 1.657,1.833 0.757,1.195 1.066,2.187 0.308,0.991 0.397,2 0.089,1.009 -0.096,2.321 -0.184,1.312 -0.6,2.148 -0.415,0.835 -1.162,1.759 -0.748,0.924 -5.722,2.887" /><path
     id="STROKE_6d9df3f3-45a9-4948-84e5-c998b3fbf024"
     opacity="1"
     fill="none"
     stroke="#e66465"
     stroke-width="4"
     stroke-opacity="1"
     stroke-linecap="round"
     stroke-linejoin="round"
     d="m 5722.2882,1726.9499 0.041,0.387 q 0.036,0.552 2.519,7.425 2.483,6.872 3.976,10.909 1.492,4.037 2.654,7.498 1.162,3.46 2.998,10.319 0.091,0.028 -1.662,-1.993" /><path
     id="STROKE_d79fcfa2-816b-42a4-91a0-cb698b3d2e72"
     opacity="1"
     fill="none"
     stroke="#e66465"
     stroke-width="4"
     stroke-opacity="1"
     stroke-linecap="round"
     stroke-linejoin="round"
     d="m 5718.8142,1730.5559 q 0.032,-0.107 0.21,-1.393 0.178,-1.286 0.534,-2.396 0.357,-1.111 1.681,-2.994 1.323,-1.884 3.058,-3.162 1.735,-1.278 3.338,-1.845 1.603,-0.566 3.243,-0.707 1.641,-0.141 2.969,0.069 1.328,0.209 2.685,0.916 1.357,0.706 2.817,2.616 1.459,1.91 2.333,5.662 0.875,3.752 0.746,5.971 -0.128,2.219 -0.837,4.449 -0.708,2.229 -2.402,4.328 -1.695,2.099 -3.223,3.004 -1.527,0.906 -2.489,1.136 -0.961,0.231 -3.681,0.141" /><path
     id="STROKE_fd662e1a-77ab-4e24-a0f1-b5d60426e1ec"
     opacity="1"
     fill="none"
     stroke="#e66465"
     stroke-width="4"
     stroke-opacity="1"
     stroke-linecap="round"
     stroke-linejoin="round"
     d="m 5755.4712,1764.2399 q 2.649,-8.094 3.019,-9.917 0.37,-1.824 0.473,-2.459 0.104,-0.635 -0.351,-0.724 -0.218,0.556 0.08,2.52 0.297,1.963 0.827,3.588 0.529,1.625 1.467,3.681 0.938,2.055 2.476,4.198 0.345,0.227 1.045,1.055" /><path
     id="STROKE_0cee0240-1e95-4ed4-a1b7-7e8141fb7704"
     opacity="1"
     fill="none"
     stroke="#e66465"
     stroke-width="4"
     stroke-opacity="1"
     stroke-linecap="round"
     stroke-linejoin="round"
     d="m 6216.7142,1696.3369 q 0.053,0.103 0.043,0.754 0.011,1.065 1.397,5.169 1.386,4.104 3.583,10.403 2.196,6.299 3.967,13.555 1.771,7.256 2.748,12.822 0.086,0.1 -1.134,-3.832" /><path
     id="STROKE_6013c62a-dec3-41ab-b7f1-15a62005042b"
     opacity="1"
     fill="none"
     stroke="#e66465"
     stroke-width="4"
     stroke-opacity="1"
     stroke-linecap="round"
     stroke-linejoin="round"
     d="m 6215.8402,1700.5939 q 0.105,-0.142 0.777,-1.985 0.672,-1.843 1.233,-2.85 0.562,-1.008 0.934,-1.524 0.372,-0.516 1.872,-1.816 1.5,-1.299 3.422,-2.082 1.921,-0.784 3.094,-0.941 1.174,-0.156 2.574,-0.083 1.399,0.072 2.197,0.241 0.798,0.168 3.596,1.748 2.798,1.579 4.455,3.362 1.656,1.784 2.761,3.849 1.106,2.064 1.527,4.774 0.421,2.71 0.204,4.374 -0.218,1.663 -1.167,3.684 -0.95,2.021 -3.139,3.871 -2.19,1.849 -3.884,2.439 -1.694,0.59 -2.562,0.663 -0.869,0.073 -1.527,-0.024 -0.657,-0.098 -0.979,-0.255 -0.321,-0.156 -0.605,-0.391 -0.284,-0.235 -0.455,-0.477 -0.171,-0.243 -0.547,-0.851" /><path
     id="STROKE_0d2025b1-122d-4a56-bfe8-476cb705c205"
     opacity="1"
     fill="none"
     stroke="#e66465"
     stroke-width="4"
     stroke-opacity="1"
     stroke-linecap="round"
     stroke-linejoin="round"
     d="m 6253.2332,1738.8969 q 0.145,-0.303 -0.251,-1.2 0.247,-1.696 1.053,-2.93 0.805,-1.233 1.723,-1.835 0.919,-0.603 1.669,-0.664 0.751,-0.061 1.048,-0.048 0.297,0.014 1.068,0.479 0.77,0.464 1.522,1.789 0.751,1.324 1.038,3.41 0.287,2.086 -0.315,5.637 -0.6,3.551 -0.999,5.828 -0.398,2.277 -0.214,3.68 0.53,0.172 4.105,0.068 3.575,-0.103 14.526,-1.664" /><path
     id="STROKE_e8041530-df38-4a10-83db-d8d4a83facaf"
     opacity="1"
     fill="none"
     stroke="#e66465"
     stroke-width="4"
     stroke-opacity="1"
     stroke-linecap="round"
     stroke-linejoin="round"
     d="m 6225.2802,2109.5129 -0.102,0.726 q -0.06,0.318 2.814,14.757 2.875,14.439 7.901,29.774 0.157,0.059 -0.068,-0.104" /><path
     id="STROKE_c84d4c23-682c-4eb5-8032-97af6f2d2ccc"
     opacity="1"
     fill="none"
     stroke="#e66465"
     stroke-width="4"
     stroke-opacity="1"
     stroke-linecap="round"
     stroke-linejoin="round"
     d="m 6226.5912,2113.4099 q 0.073,-0.165 0.179,-1.174 0.106,-1.008 0.435,-1.981 0.33,-0.972 0.552,-1.443 0.222,-0.471 0.627,-1.037 0.404,-0.566 0.987,-1.126 0.582,-0.561 1.107,-0.909 0.526,-0.349 0.947,-0.62 0.422,-0.272 2.964,-0.743 2.543,-0.472 4.243,-0.276 1.7,0.195 3.394,0.928 1.693,0.733 3.004,1.783 1.311,1.05 2.395,2.864 1.085,1.814 1.508,4.332 0.423,2.519 0.099,4.784 -0.324,2.266 -1.675,4.786 -1.35,2.521 -3.129,4.201 -1.778,1.68 -3.667,2.548 -1.889,0.869 -3.353,1.044 -1.462,0.176 -2.436,-0.068 -0.974,-0.244 -1.99,-0.95 l -0.849,-0.426" /><path
     id="STROKE_21eb81f5-eb9d-4382-b9e3-0851effc7f9b"
     opacity="1"
     fill="none"
     stroke="#e66465"
     stroke-width="4"
     stroke-opacity="1"
     stroke-linecap="round"
     stroke-linejoin="round"
     d="m 6265.1152,2138.8709 q 0.152,-0.093 0.488,-0.63 0.337,-0.538 1.415,-1.597 1.079,-1.06 2.515,-2.027 1.435,-0.969 2.879,-1.421 1.443,-0.453 2.614,-0.354 1.17,0.099 1.737,0.325 0.566,0.226 1.159,0.774 0.593,0.547 1.116,1.94 0.523,1.393 0.472,2.956 -0.051,1.563 -0.554,2.943 -0.502,1.379 -0.804,1.952 -0.302,0.574 -0.553,0.7 0.156,-0.135 0.443,-0.261 0.288,-0.126 0.846,-0.176 0.558,-0.051 1.809,0.053 1.252,0.103 3.05,0.736 1.798,0.634 2.931,1.37 1.133,0.737 1.881,1.651 0.748,0.914 1.005,1.511 0.258,0.596 0.291,1.252 0.033,0.656 -0.18,1.412 -0.213,0.757 -0.716,1.566 -0.503,0.81 -1.825,1.877 -1.323,1.067 -3.476,1.855 -2.153,0.789 -4.2,0.924 -2.046,0.135 -3.362,-0.128 -1.316,-0.262 -2.182,-0.68 -0.866,-0.417 -1.693,-1.039 -0.827,-0.622 -1.996,-2.263 l -0.702,-1.076" /><path
     id="STROKE_546591e6-4f3a-40d9-b71d-e003ea351eeb"
     opacity="1"
     fill="none"
     stroke="#e66465"
     stroke-width="4"
     stroke-opacity="1"
     stroke-linecap="round"
     stroke-linejoin="round"
     d="m 6405.8848,2128.5385 -0.05,1.065 q 0.159,0.965 1.013,4.325 0.853,3.36 1.861,7.101 1.008,3.74 2.564,9.078 1.558,5.337 2.498,8.137 0.94,2.801 1.785,4.849 0.844,2.048 1.275,2.93 0.431,0.882 0.95,1.717 0.125,0.02 -1.491,-2.412" /><path
     id="STROKE_c559428b-c4fa-4eab-b8d5-27180b9b9267"
     opacity="1"
     fill="none"
     stroke="#e66465"
     stroke-width="4"
     stroke-opacity="1"
     stroke-linecap="round"
     stroke-linejoin="round"
     d="m 6406.1038,2131.5755 q 0.044,-1.219 1.092,-4.188 1.049,-2.968 2.193,-4.456 1.144,-1.488 2.011,-2.036 0.867,-0.547 1.599,-0.742 0.733,-0.195 2.72,0.196 1.987,0.392 4.299,2.067 2.311,1.675 3.411,3.076 1.1,1.4 1.794,3.028 0.693,1.628 0.86,3.49 0.167,1.862 -0.585,4.215 -0.752,2.353 -2.478,4.384 -1.724,2.032 -3.255,2.965 -1.532,0.933 -2.77,1.225 -1.238,0.292 -1.933,0.243 -0.695,-0.049 -1.211,-0.168 -0.517,-0.118 -1.064,-0.466 -0.548,-0.349 -0.88,-0.635 -0.332,-0.287 -0.74,-0.661" /><path
     id="STROKE_182e20de-85f9-4e1b-a111-47c274088c93"
     opacity="1"
     fill="none"
     stroke="#e66465"
     stroke-width="4"
     stroke-opacity="1"
     stroke-linecap="round"
     stroke-linejoin="round"
     d="m 6449.1948,2161.2935 q -0.071,-0.833 -0.695,-2.453 -0.624,-1.62 -1.696,-3.061 -1.072,-1.441 -2.448,-2.315 -1.375,-0.874 -3.634,-0.845 -2.259,0.029 -2.983,0.641 -0.724,0.612 -1.229,2.44 -0.505,1.829 -0.247,3.579 0.257,1.75 1.416,3.545 1.159,1.794 2.493,2.68 1.335,0.886 2.818,1.126 1.483,0.241 2.74,-0.08 1.258,-0.32 2.613,-1.509 1.354,-1.189 4.307,-8.075" /><path
     id="STROKE_0d973033-e3ee-49e3-9fe3-5a326802f37e"
     opacity="1"
     fill="none"
     stroke="#e66465"
     stroke-width="4"
     stroke-opacity="1"
     stroke-linecap="round"
     stroke-linejoin="round"
     d="m 6411.3728,1731.6635 q 0.16,0.736 0.493,2.089 0.334,1.353 0.953,3.033 0.619,1.679 1.178,2.854 0.558,1.175 2.252,4.553 1.694,3.377 3.851,8.348 2.156,4.971 3.203,7.917 1.048,2.946 2.387,8.042 0.063,0.013 -0.674,-1.487" /><path
     id="STROKE_4acf9f6d-daaf-4e95-9900-4a1d6bc37b7d"
     opacity="1"
     fill="none"
     stroke="#e66465"
     stroke-width="4"
     stroke-opacity="1"
     stroke-linecap="round"
     stroke-linejoin="round"
     d="m 6411.8108,1733.5365 q 0.317,-0.573 1.09,-2.035 0.773,-1.461 1.797,-2.509 1.025,-1.047 2.451,-1.848 1.427,-0.801 3.408,-1.094 1.982,-0.293 3.472,-0.027 1.491,0.265 2.699,1.037 1.208,0.771 2.351,2.108 1.142,1.338 2.18,4.367 1.038,3.03 1.126,5.601 0.088,2.571 -0.446,4.957 -0.532,2.386 -1.829,4.551 -1.296,2.166 -2.184,3.121 -0.889,0.955 -2.182,1.769 -1.293,0.815 -2.963,1.201 -0.319,-0.062 -1.737,-0.065" /><path
     id="STROKE_3e6add82-933f-4408-abdb-29b7c9a47ff8"
     opacity="1"
     fill="none"
     stroke="#e66465"
     stroke-width="4"
     stroke-opacity="1"
     stroke-linecap="round"
     stroke-linejoin="round"
     d="m 6442.1338,1766.0005 q 0.166,-0.593 0.696,-2.338 0.53,-1.746 0.793,-3.066 0.262,-1.319 0.354,-2.009 0.09,-0.69 0.113,-0.993 0.022,-0.303 -0.013,-0.493 -0.035,-0.19 -0.086,-0.179 -0.052,0.01 0.183,0.989 0.234,0.978 1.408,3.448 1.173,2.47 7.156,11.783" /><path
     id="STROKE_689d9fc2-1605-4ec4-ba42-bf337875d449"
     opacity="1"
     fill="none"
     stroke="#e66465"
     stroke-width="4"
     stroke-opacity="1"
     stroke-linecap="round"
     stroke-linejoin="round"
     d="m 6898.3698,2139.7505 q 0.05,0.507 0.379,1.683 0.328,1.177 0.957,2.739 0.629,1.561 2.039,4.968 1.411,3.407 3.983,11.272 2.573,7.866 3.647,12.072 1.074,4.205 1.686,7.333 0.054,0 -1.571,-1.834" /><path
     id="STROKE_1d3e5cb0-c9b5-44ad-8e5b-d25c1b68e9b5"
     opacity="1"
     fill="none"
     stroke="#e66465"
     stroke-width="4"
     stroke-opacity="1"
     stroke-linecap="round"
     stroke-linejoin="round"
     d="m 6899.1038,2146.2405 q 0.332,-1.624 0.779,-3.007 0.447,-1.383 1.297,-2.655 0.85,-1.271 2.001,-2.164 1.15,-0.894 2.611,-1.294 1.461,-0.401 3.476,-0.111 2.014,0.29 3.854,1.567 1.84,1.277 2.593,2.155 0.753,0.878 1.561,2.248 0.807,1.369 1.469,3.891 0.662,2.521 0.548,5.163 -0.114,2.642 -0.809,4.579 -0.695,1.938 -1.538,3.158 -0.844,1.22 -1.782,2.001 -0.937,0.78 -1.675,1.125 -0.738,0.345 -1.19,0.46 -0.452,0.114 -0.959,0 l -0.56,0.056" /><path
     id="STROKE_e8e10865-3bb8-47c3-b691-652e0feecf7a"
     opacity="1"
     fill="none"
     stroke="#e66465"
     stroke-width="4"
     stroke-opacity="1"
     stroke-linecap="round"
     stroke-linejoin="round"
     d="m 6929.9828,2171.4105 0.441,-0.043 q 1.523,-0.282 2.078,-0.307 0.555,-0.025 1.322,0.102 0.767,0.127 1.258,0.482 0.492,0.355 0.676,0.592 0.185,0.237 0.572,1.035 0.387,0.798 0.78,2.848 0.394,2.051 0.406,4.688 0.012,2.638 0.289,4.191 0.07,0.043 3.717,-0.691 3.648,-0.734 11.337,-3.44" /><path
     id="STROKE_c1e33ee9-035f-4be0-aa5f-db1195e32c80"
     opacity="1"
     fill="none"
     stroke="#e66465"
     stroke-width="4"
     stroke-opacity="1"
     stroke-linecap="round"
     stroke-linejoin="round"
     d="m 6888.3408,1718.0215 0.318,0.388 q 0.908,1.312 4.431,8.837 3.524,7.525 5.045,12.142 1.52,4.618 2.057,7.165 0.537,2.546 0.795,5.083 0.258,2.537 0.287,7.412 -0.064,-0.12 -0.581,-0.769" /><path
     id="STROKE_2b697ac9-eaf4-42ee-9fd4-a08effe39e8f"
     opacity="1"
     fill="none"
     stroke="#e66465"
     stroke-width="4"
     stroke-opacity="1"
     stroke-linecap="round"
     stroke-linejoin="round"
     d="m 6889.2748,1722.9305 q 0.253,-1.626 0.669,-2.725 0.416,-1.099 0.783,-1.647 0.365,-0.547 1.594,-1.456 1.23,-0.91 3.512,-1.402 2.282,-0.493 5.034,-0.052 2.753,0.44 5.161,1.748 2.409,1.307 4.074,3.062 1.666,1.754 2.531,4.148 0.865,2.393 0.768,4.859 -0.096,2.465 -0.828,4.277 -0.732,1.812 -2.246,3.505 -1.514,1.694 -4.427,3.04 -2.913,1.347 -6.518,2.044" /><path
     id="STROKE_8bb72902-207e-4c99-a0b5-036f9004df1d"
     opacity="1"
     fill="none"
     stroke="#e66465"
     stroke-width="4"
     stroke-opacity="1"
     stroke-linecap="round"
     stroke-linejoin="round"
     d="m 6925.4348,1754.7435 q 0.319,-0.877 0.521,-1.337 0.203,-0.46 0.531,-0.969 0.328,-0.51 0.681,-0.869 0.353,-0.36 0.638,-0.677 0.285,-0.318 2.255,-1.654 1.97,-1.337 3.813,-1.664 1.844,-0.326 2.826,-0.095 0.982,0.231 1.427,0.492 0.444,0.261 1.089,1.391 0.645,1.13 0.865,2.167 0.22,1.038 0.21,2.386 -0.01,1.348 -0.064,2.248 -0.053,0.899 -0.128,1.542 0.304,0.116 1.744,0.675 1.441,0.559 2.551,1.053 1.111,0.493 1.704,1.018 0.592,0.524 0.831,0.962 0.238,0.437 0.331,1.016 0.092,0.58 -0.093,1.472 -0.185,0.892 -1.808,2.161 -1.623,1.269 -4.409,1.931 -2.785,0.662 -5.09,0.437 -2.305,-0.224 -4.22,-0.905 -1.914,-0.68 -3.465,-1.816 l -1.151,-1.008" /><path
     id="STROKE_0178632f-84dd-42c7-a80d-36dcd835117e"
     opacity="1"
     fill="none"
     stroke="#9198e5"
     stroke-width="4"
     stroke-opacity="1"
     stroke-linecap="round"
     stroke-linejoin="round"
     d="m 5804.0992,2147.3919 q -0.132,-0.13 -0.186,-0.169 -0.055,-0.039 -0.313,-0.316 -0.259,-0.277 -0.848,-0.74 -0.588,-0.463 -1.296,-0.804 -0.707,-0.341 -1.303,-0.441 -0.596,-0.1 -1.055,-0.038 -0.458,0.062 -0.647,0.275 -0.19,0.213 -0.208,0.37 -0.018,0.157 0,0.505 0.014,0.348 0.337,0.738 0.323,0.39 0.778,0.62 0.454,0.23 0.862,0.332 0.408,0.102 1.088,0.102 0.679,0 0.963,-0.064 0.284,-0.064 0.504,-0.202 0.22,-0.137 0.562,-0.528 0.342,-0.391 1.095,-1.789" /><path
     id="STROKE_2dabb6ae-6e6b-4bef-a4fb-fd886e6c71d0"
     opacity="1"
     fill="none"
     stroke="#9198e5"
     stroke-width="4"
     stroke-opacity="1"
     stroke-linecap="round"
     stroke-linejoin="round"
     d="m 5900.9342,1858.6389 -0.131,-0.012 q -0.017,-0.019 -0.112,-0.23 -0.094,-0.21 -0.268,-0.504 -0.174,-0.294 -0.309,-0.4 -0.136,-0.106 -0.254,-0.134 -0.119,-0.028 -0.286,-0.068 -0.167,-0.04 -0.459,0.019 -0.291,0.06 -0.388,0.154 -0.096,0.094 -0.19,0.257 -0.094,0.163 -0.087,0.408 0.01,0.246 0.018,0.328 0.012,0.081 0.083,0.152 0.07,0.07 0.236,0.151 0.165,0.081 0.397,0.112 0.232,0.031 0.472,0.04 0.24,0.01 0.415,-0.096 0.175,-0.105 0.564,-0.429 l 0.168,-0.205 0.656,-0.691" /><path
     id="STROKE_e79a7348-5ece-466d-bb65-041f4debf4e1"
     opacity="1"
     fill="none"
     stroke="#9198e5"
     stroke-width="4"
     stroke-opacity="1"
     stroke-linecap="round"
     stroke-linejoin="round"
     d="m 6091.4192,1858.3999 q -0.192,-0.099 -0.364,-0.217 -0.172,-0.119 -0.374,-0.24 -0.202,-0.122 -0.394,-0.167 -0.193,-0.044 -0.393,-0.047 -0.199,0 -0.329,0.023 -0.13,0.026 -0.389,0.226 -0.26,0.2 -0.292,0.327 -0.032,0.126 -0.022,0.215 0.01,0.089 0.119,0.231 0.109,0.142 0.185,0.202 0.076,0.06 0.085,0.094 0.01,0.034 0.751,0.204 0.111,-0.01 1.417,-0.704" /><path
     id="STROKE_53209ef6-76b9-48b7-aee0-e34312f9401d"
     opacity="1"
     fill="none"
     stroke="#9198e5"
     stroke-width="4"
     stroke-opacity="1"
     stroke-linecap="round"
     stroke-linejoin="round"
     d="m 6187.9252,1760.8909 -0.144,-0.354 q -0.091,-0.167 -0.672,-0.502 -0.582,-0.336 -0.997,-0.432 -0.415,-0.096 -0.779,-0.07 -0.364,0.027 -0.529,0.052 -0.165,0.024 -0.347,0.267 -0.181,0.243 -0.141,0.705 0.04,0.463 0.211,0.666 0.172,0.203 0.702,0.394 0.53,0.192 1.429,0.113 0.899,-0.08 3.424,-2.079" /><path
     id="STROKE_89a52dc3-3c9f-4a28-bb05-d6ef2b5d2acd"
     opacity="1"
     fill="none"
     stroke="#9198e5"
     stroke-width="4"
     stroke-opacity="1"
     stroke-linecap="round"
     stroke-linejoin="round"
     d="m 5803.2312,1763.6649 -0.029,-0.439 -0.165,-0.622 q -0.08,-0.311 -0.519,-0.843 -0.438,-0.532 -0.909,-0.846 -0.47,-0.314 -1.051,-0.424 -0.581,-0.11 -0.872,-0.043 -0.291,0.068 -0.481,0.266 -0.189,0.199 -0.253,0.639 -0.064,0.44 -0.047,0.593 0.016,0.153 0.303,0.537 0.287,0.385 0.577,0.532 0.29,0.146 0.655,0.239 0.365,0.094 0.933,0.087 0.57,-0.01 1.209,-0.253 0.639,-0.247 2.517,-1.628" /><path
     id="STROKE_40780a87-f52a-4b67-a58c-b35b40436383"
     opacity="1"
     fill="none"
     stroke="#9198e5"
     stroke-width="4"
     stroke-opacity="1"
     stroke-linecap="round"
     stroke-linejoin="round"
     d="m 6192.3182,2149.9729 q -0.106,-0.228 -0.443,-0.681 -0.337,-0.454 -0.504,-0.678 -0.168,-0.223 -0.705,-0.575 -0.536,-0.352 -1.213,-0.495 -0.678,-0.144 -1.117,-0.087 -0.439,0.057 -0.6,0.205 -0.162,0.149 -0.277,0.754 -0.115,0.606 0.079,1.054 0.195,0.449 0.519,0.741 0.324,0.293 0.689,0.428 0.364,0.136 0.735,0.152 0.371,0.016 0.71,-0.05 0.339,-0.066 0.796,-0.3 0.457,-0.233 0.825,-0.539 0.368,-0.306 1.084,-0.976" /><path
     id="STROKE_a713e8c0-9283-466e-b81b-745b68491a19"
     opacity="1"
     fill="none"
     stroke="#9198e5"
     stroke-width="4"
     stroke-opacity="1"
     stroke-linecap="round"
     stroke-linejoin="round"
     d="m 6019.6252,1788.4069 q -0.066,-0.026 -0.09,-0.225 -0.025,-0.198 -0.052,-0.347 -0.028,-0.149 -0.096,-0.328 -0.067,-0.18 -0.515,-0.46 -0.448,-0.281 -1.432,-0.355 -0.053,0.161 -0.031,0.283 0.022,0.122 0.304,0.264 0.282,0.142 0.505,0.181 0.222,0.04 0.362,0.035 0.14,0 0.207,-0.088 0.066,-0.083 0.083,-0.206 0.015,-0.124 -0.01,-0.232 -0.025,-0.109 -0.098,-0.246 -0.073,-0.138 -0.389,-0.213 -0.314,-0.075 -0.938,0.114 -0.623,0.189 -0.81,0.357 l -0.537,0.704" /><path
     id="STROKE_535a9368-ed0f-48bf-ac86-d2e6875b407e"
     opacity="1"
     fill="none"
     stroke="#9198e5"
     stroke-width="4"
     stroke-opacity="1"
     stroke-linecap="round"
     stroke-linejoin="round"
     d="m 5828.3372,1976.8399 q -0.356,-0.078 -0.423,-0.087 -0.068,-0.01 -0.214,0.01 -0.145,0.016 -0.316,0.048 -0.17,0.032 -0.302,0.183 -0.131,0.15 -0.175,0.262 -0.045,0.112 -0.109,0.246 -0.064,0.134 0,0.232 0.064,0.098 0.155,0.137 0.09,0.039 0.124,0.037 0.033,0 0.086,0.016 0.053,0.018 0.11,-0.04 0.058,-0.059 0.086,-0.143 0.028,-0.084 0.032,-0.193 0,-0.11 -0.017,-0.149 -0.019,-0.04 -0.137,-0.068 -0.119,-0.027 -0.21,-0.019 -0.092,0.01 -0.154,0.043 -0.061,0.035 -0.224,0.689 l 0.01,0.175" /><path
     id="STROKE_21c381f0-f43e-4692-97c3-158bc835780c"
     opacity="1"
     fill="none"
     stroke="#9198e5"
     stroke-width="4"
     stroke-opacity="1"
     stroke-linecap="round"
     stroke-linejoin="round"
     d="m 5810.5432,2053.2259 q -0.284,0.342 -0.437,0.324 -0.152,-0.018 -0.311,-0.01 -0.158,0.01 -0.195,0.012 -0.037,0 -0.275,0.079 -0.238,0.076 -0.43,0.316 -0.192,0.24 -0.346,0.676 -0.155,0.437 -0.135,0.857 -0.051,0.111 1.11,0.195 0.118,-0.285 0.139,-0.676 0.02,-0.391 -0.051,-0.704 -0.071,-0.313 -0.539,-0.818 -0.469,-0.505 -0.581,-0.776" /><path
     id="STROKE_9377c962-c869-44d5-beef-2215fa17cf42"
     opacity="1"
     fill="none"
     stroke="#9198e5"
     stroke-width="4"
     stroke-opacity="1"
     stroke-linecap="round"
     stroke-linejoin="round"
     d="m 6183.4802,2054.2359 -0.297,0.372 q -0.278,-0.039 -0.423,-0.058 -0.144,-0.019 -0.301,0.01 -0.155,0.025 -0.343,0.136 -0.188,0.11 -0.294,0.248 -0.106,0.138 -0.116,0.137 -0.01,0 -0.071,0.275 -0.06,0.276 0.071,0.576 0.131,0.3 0.161,0.323 0.028,0.023 0.13,0.021 0.101,0 0.12,-0.014 0.018,-0.012 0.176,-0.321 0.158,-0.309 0.132,-0.947 l -0.09,-0.469" /><path
     id="STROKE_98610f7a-9446-4bb9-baae-765c0324d808"
     opacity="1"
     fill="none"
     stroke="#9198e5"
     stroke-width="4"
     stroke-opacity="1"
     stroke-linecap="round"
     stroke-linejoin="round"
     d="m 6162.7402,1975.0219 0.069,0.309 -0.107,-0.176 q 0.012,-0.01 -0.124,-0.029 -0.136,-0.022 -0.299,0.023 -0.163,0.046 -0.216,0.125 -0.052,0.08 -0.077,0.171 -0.025,0.092 -0.02,0.25 0.01,0.157 0.065,0.294 0.059,0.137 0.259,0.241 0.2,0.104 0.321,0.098 0.121,-0.01 0.206,-0.079 0.085,-0.073 0.101,-0.253 0.017,-0.18 -0.01,-0.296 -0.024,-0.117 -0.263,-0.262 -0.239,-0.145 -0.398,-0.181 -0.158,-0.037 -0.273,-0.045 -0.116,-0.01 -0.18,0.041 -0.063,0.05 -0.307,0.054" /><path
     id="STROKE_5e5ca8bc-2e15-4603-9361-030f9941a5db"
     opacity="1"
     fill="none"
     stroke="#9198e5"
     stroke-width="4"
     stroke-opacity="1"
     stroke-linecap="round"
     stroke-linejoin="round"
     d="m 5974.1222,1786.5429 -0.099,0.06 q -0.06,-0.13 -0.111,-0.202 -0.053,-0.071 -0.12,-0.126 -0.067,-0.054 -0.339,-0.147 -0.273,-0.094 -0.452,-0.113 -0.179,-0.018 -0.327,-0.011 -0.149,0.01 -0.277,0.08 -0.129,0.073 -0.196,0.154 -0.069,0.082 -0.12,0.18 -0.051,0.098 -0.066,0.2 -0.015,0.102 -0.01,0.204 0.01,0.101 0.841,0.384 0.091,-0.294 0.024,-0.563 -0.066,-0.269 -0.253,-0.401 -0.188,-0.132 -0.263,-0.155 -0.074,-0.023 -0.271,-0.044 -0.196,-0.02 -0.597,-0.171" /><path
     id="STROKE_f6d8cd6f-2dac-4799-b981-de2f28311af6"
     opacity="1"
     fill="none"
     stroke="#9198e5"
     stroke-width="4"
     stroke-opacity="1"
     stroke-linecap="round"
     stroke-linejoin="round"
     d="m 6101.8362,1770.5899 -0.226,-0.173 -0.217,-0.13 q -0.387,-0.193 -0.761,-0.287 -0.373,-0.093 -0.497,-0.114 -0.124,-0.02 -0.28,0 -0.155,0.019 -0.259,0.122 -0.104,0.102 -0.116,0.138 -0.012,0.035 0.012,0.092 0.024,0.058 0.301,0.048 0.278,-0.01 0.523,-0.084 0.245,-0.073 0.387,-0.114 0.141,-0.041 0.312,-0.211 0.171,-0.17 0.299,-0.519 0.128,-0.349 0.145,-0.533 0.018,-0.184 0.01,-0.319 -0.011,-0.135 -0.112,-0.294 -0.102,-0.16 -0.217,-0.23 -0.115,-0.069 -0.277,-0.103 -0.163,-0.033 -0.288,0.013 -0.126,0.047 -0.18,0.086 -0.054,0.039 -0.081,0.109 -0.027,0.07 0.06,0.232 0.086,0.163 0.328,0.238 l 0.014,-0.057 q 0.01,-0.095 -0.056,-0.107 -0.064,-0.012 -0.018,0.141" /><path
     id="STROKE_8d57616d-fd2b-4c67-8177-a0f917db3356"
     opacity="1"
     fill="none"
     stroke="#9198e5"
     stroke-width="4"
     stroke-opacity="1"
     stroke-linecap="round"
     stroke-linejoin="round"
     d="m 5891.3722,1767.9169 v 0.042 l -0.19,-0.042 q -0.216,0 -0.492,0.063 -0.276,0.066 -0.384,0.215 -0.108,0.148 -0.16,0.35 -0.052,0.201 0,0.224 0.057,0.022 0.212,0.033 0.155,0.01 0.326,-0.11 0.172,-0.121 0.201,-0.165 0.028,-0.043 0.046,-0.161 0.018,-0.118 0,-0.161 -0.022,-0.043 -0.198,-0.2 -0.176,-0.157 -0.496,-0.166 -0.093,0.251 0.046,0.5" /><path
     id="STROKE_170336d0-e17c-4d5d-a2b1-206501dc4065"
     opacity="1"
     fill="none"
     stroke="#9198e5"
     stroke-width="4"
     stroke-opacity="1"
     stroke-linecap="round"
     stroke-linejoin="round"
     d="m 5864.3722,1903.1639 q -0.203,-0.066 -0.435,-0.096 -0.232,-0.03 -0.631,-0.021 -0.399,0.01 -0.673,0.088 -0.273,0.078 -0.476,0.234 -0.202,0.157 -0.254,0.261 -0.052,0.105 -0.06,0.169 -0.01,0.064 0.052,0.118 0.059,0.053 0.278,0.048 0.22,0 0.28,-0.063 0.06,-0.058 0.065,-0.167 0,-0.109 -0.01,-0.195 -0.011,-0.086 -0.091,-0.186 -0.08,-0.099 -0.074,-0.104 0.01,-0.01 -0.123,-0.103 -0.129,-0.098 -0.289,-0.125 -0.159,-0.027 -0.207,-0.01 -0.047,0.019 -0.086,0.081 -0.039,0.061 -0.029,0.092 0.01,0.03 0,0.04 -0.01,0.01 0.185,-0.021 0.193,-0.031 0.223,-0.156 0.031,-0.125 -0.436,-0.469 -0.057,0.04 0.062,-0.031" /><path
     id="STROKE_bdd5d5ff-a310-4289-ac32-3dca75f7194d"
     opacity="1"
     fill="none"
     stroke="#9198e5"
     stroke-width="4"
     stroke-opacity="1"
     stroke-linecap="round"
     stroke-linejoin="round"
     d="m 5948.8842,1819.5139 -0.607,-0.41 -0.343,-0.164 q -0.332,-0.069 -0.726,-0.038 -0.393,0.031 -0.71,0.234 -0.315,0.203 -0.485,0.592 -0.169,0.39 -0.103,0.618 0.065,0.228 0.23,0.36 0.165,0.131 0.456,0.235 0.291,0.104 0.562,0.01 0.27,-0.098 0.363,-0.182 0.092,-0.084 0.175,-0.245 0.082,-0.161 0.067,-0.3 -0.016,-0.139 -0.109,-0.217 -0.095,-0.079 -0.31,-0.183 -0.215,-0.105 -0.423,-0.113 l -0.049,0.064 q -0.027,0.093 -0.145,0.073" /><path
     id="STROKE_178a14dd-f6b1-47d9-b7c9-ed505b7c8d19"
     opacity="1"
     fill="none"
     stroke="#9198e5"
     stroke-width="4"
     stroke-opacity="1"
     stroke-linecap="round"
     stroke-linejoin="round"
     d="m 6043.1432,1818.2519 -0.19,-0.249 -0.102,0.01 q -0.377,-0.463 -1.855,-0.845 -0.034,0.018 -0.076,0.139 -0.042,0.121 -0.015,0.212 0.026,0.091 0.127,0.171 0.1,0.079 0.362,0.092 0.262,0.013 0.449,-0.082 0.188,-0.095 0.265,-0.181 0.076,-0.085 0.146,-0.205 0.07,-0.121 0.018,-0.282 -0.053,-0.162 -0.2,-0.295 -0.148,-0.133 -0.203,-0.136 -0.055,0 -0.039,0.164 0.015,0.168 0.353,0.581" /><path
     id="STROKE_140804aa-4303-4199-a742-a345a62fbffe"
     opacity="1"
     fill="none"
     stroke="#9198e5"
     stroke-width="4"
     stroke-opacity="1"
     stroke-linecap="round"
     stroke-linejoin="round"
     d="m 6128.6012,1904.2439 -0.018,-0.155 -0.029,-0.299 q -0.096,-0.352 -0.276,-0.558 -0.18,-0.207 -0.393,-0.343 -0.213,-0.136 -0.433,-0.22 -0.22,-0.084 -0.375,-0.099 -0.156,-0.016 -0.198,0.028 -0.042,0.043 -0.074,0.18 -0.032,0.136 -0.016,0.237 0.016,0.101 0.102,0.187 0.085,0.085 0.339,0.114 0.253,0.03 0.392,0.017 0.138,-0.014 0.255,-0.127 0.117,-0.113 0.135,-0.13 0.019,-0.017 -0.346,-0.33 -0.364,-0.313 -0.715,-0.363 -0.352,-0.05 -0.436,0.08 -0.083,0.129 -0.254,0.927" /><path
     id="STROKE_0b4108fd-fa1d-4af3-9b6c-d74791459b72"
     opacity="1"
     fill="none"
     stroke="#9198e5"
     stroke-width="4"
     stroke-opacity="1"
     stroke-linecap="round"
     stroke-linejoin="round"
     d="m 6578.0738,1945.6975 q -0.491,-0.222 -1.014,-0.299 -0.523,-0.077 -0.828,-0.046 -0.304,0.031 -0.441,0.045 -0.136,0.014 -0.251,0.073 -0.114,0.058 -0.217,0.146 -0.103,0.089 -0.127,0.164 -0.024,0.076 0.025,0.252 0.048,0.177 0.116,0.277 0.068,0.1 0.203,0.227 0.135,0.127 0.302,0.197 0.168,0.069 0.44,0.098 0.272,0.03 0.351,-0.018 0.08,-0.047 0.128,-0.101 0.049,-0.054 0.117,-0.193 0.069,-0.139 0.056,-0.211 -0.013,-0.072 -0.07,-0.13 -0.057,-0.058 -0.284,-0.142 -0.227,-0.084 -0.312,0.061 -0.086,0.145 -0.11,0.291 -0.024,0.146 0.01,0.192 0.029,0.046 0.235,0.167 0.206,0.121 1.06,0.136 -0.01,0.038 0.019,-0.185 0.028,-0.222 -0.234,-0.397 -0.261,-0.174 -0.532,-0.181 -0.272,-0.01 -0.512,0.104 -0.241,0.109 -1.519,2.192" /><path
     id="STROKE_6eb1d7b3-3744-4171-810a-03629ab2c9db"
     opacity="1"
     fill="none"
     stroke="#9198e5"
     stroke-width="4"
     stroke-opacity="1"
     stroke-linecap="round"
     stroke-linejoin="round"
     d="m 6478.8848,2138.3745 -0.051,-0.021 -0.05,-0.049 q -0.138,-0.153 -0.205,-0.23 -0.066,-0.077 -0.236,-0.145 -0.171,-0.068 -0.607,-0.106 -0.436,-0.038 -0.89,0.053 -0.454,0.091 -0.684,0.33 -0.229,0.239 -0.333,0.942 -0.104,0.702 -0,1.147 0.103,0.445 0.374,0.766 0.272,0.321 0.476,0.365 0.203,0.045 0.629,-0.048 0.426,-0.093 0.93,-0.456 0.504,-0.363 0.663,-0.536 0.16,-0.174 0.27,-0.387 0.11,-0.213 0.113,-0.507 0,-0.295 -0.09,-0.526 -0.092,-0.231 -0.125,-0.264 -0.033,-0.033 -0.262,-0.293 -0.229,-0.26 -0.791,-0.505 -0.563,-0.244 -0.911,-0.223 -0.348,0.021 -0.463,0.315 -0.116,0.295 -0.01,0.596 0.107,0.302 0.247,0.483 0.141,0.182 0.351,0.292 0.21,0.109 0.418,0.138 0.208,0.028 0.277,-0.06 0.068,-0.087 0.062,-0.284 -0.01,-0.197 -0.42,-0.422 -0.413,-0.225 -0.64,-0.23 -0.227,-0.01 -1.343,0.012" /><path
     id="STROKE_8991fd72-9735-4b63-99c9-3f55f9ee6524"
     opacity="1"
     fill="none"
     stroke="#9198e5"
     stroke-width="4"
     stroke-opacity="1"
     stroke-linecap="round"
     stroke-linejoin="round"
     d="m 6866.5908,2139.1915 -0.082,-0.046 q -0.446,-0.197 -1.005,-0.473 -0.559,-0.276 -1.322,-0.446 -0.763,-0.17 -1.011,-0.142 -0.249,0.027 -0.476,0.117 -0.228,0.089 -0.275,0.221 -0.048,0.132 -0.106,0.422 -0.058,0.29 0.055,0.673 0.114,0.382 0.465,0.773 0.351,0.391 0.601,0.522 0.249,0.13 0.727,0.2 0.477,0.07 0.958,-0.027 0.482,-0.098 0.792,-0.318 0.311,-0.221 0.461,-0.424 0.151,-0.203 0.219,-0.729 0.068,-0.527 -0.273,-0.801 -0.341,-0.274 -0.73,-0.343 -0.389,-0.07 -0.708,0.018 -0.32,0.089 -0.388,0.28 -0.069,0.191 -0.086,0.561 -0.018,0.37 0.104,0.647 0.122,0.277 0.292,0.454 0.169,0.178 0.639,0.368 0.47,0.19 2.201,0.11" /><path
     id="STROKE_3f171397-2c80-4cfd-998f-6a2b7e6bfc14"
     opacity="1"
     fill="none"
     stroke="#9198e5"
     stroke-width="4"
     stroke-opacity="1"
     stroke-linecap="round"
     stroke-linejoin="round"
     d="m 6482.2388,1754.6925 q 0,-0.371 -0.03,-0.783 -0.033,-0.412 -0.157,-0.696 -0.124,-0.284 -0.608,-0.719 -0.484,-0.435 -0.796,-0.551 -0.313,-0.116 -0.722,-0.172 -0.41,-0.056 -0.914,0 -0.504,0.059 -1.015,0.351 -0.512,0.291 -0.759,0.919 -0.246,0.629 -0.219,0.928 0.029,0.299 0.169,0.664 0.14,0.366 1.237,0.751 1.097,0.385 1.791,0.335 0.694,-0.051 1.143,-0.207 0.449,-0.156 0.776,-0.375 0.327,-0.22 0.535,-0.492 0.207,-0.273 0.26,-0.615 0.051,-0.343 -0.257,-0.869 -0.309,-0.526 -2.989,-1.051 -0.478,0.674 2.306,2" /><path
     id="STROKE_b2f4f85d-ae99-433d-9cde-04d2e624bd06"
     opacity="1"
     fill="none"
     stroke="#9198e5"
     stroke-width="4"
     stroke-opacity="1"
     stroke-linecap="round"
     stroke-linejoin="round"
     d="m 6866.0118,1753.9765 q -0.082,-0.102 -0.619,-1.611 -0.041,-0.034 -0.471,-0.552 -0.429,-0.517 -0.682,-0.64 -0.252,-0.123 -0.447,-0.163 -0.194,-0.041 -0.35,0.047 -0.156,0.088 -0.326,0.595 -0.17,0.507 -0.13,0.852 0.041,0.346 0.129,0.626 0.088,0.28 0.244,0.457 0.156,0.178 0.689,0.297 0.534,0.119 0.906,0.074 0.372,-0.046 0.842,-0.346 0.47,-0.301 0.742,-0.905 0.271,-0.604 0.288,-1.228 0.017,-0.624 -0.195,-1.034 -0.212,-0.409 -0.411,-0.573 -0.2,-0.164 -0.345,-0.193 -0.144,-0.029 -0.236,-0.01 -0.092,0.02 -0.17,0.105 -0.077,0.086 -0.132,0.231 -0.055,0.145 -0.081,0.561 -0.026,0.416 0.056,0.765 0.082,0.348 0.792,1.395" /><circle
     id="STROKE_13eb2e5d-d195-48c8-97c9-ac702acb6a1c"
     opacity="1"
     fill="#9198e5"
     stroke="#9198e5"
     stroke-width="0.1"
     stroke-opacity="1"
     fill-opacity="1"
     cx="6503.7944"
     cy="1991.8025"
     r="2" /><path
     id="STROKE_a024ae95-67d0-47df-86e4-21255f1b1a84"
     opacity="1"
     fill="none"
     stroke="#9198e5"
     stroke-width="4"
     stroke-opacity="1"
     stroke-linecap="round"
     stroke-linejoin="round"
     d="m 6504.0308,1993.5665 q -0.377,-0.434 -0.66,-0.617 -0.283,-0.183 -0.436,-0.211 -0.152,-0.028 -0.288,-0.012 -0.135,0.016 -0.171,0.031 -0.036,0.015 -0.147,0.207 -0.112,0.191 -0.111,0.34 0,0.149 0.088,0.221 0.087,0.071 0.153,0.09 0.066,0.02 0.204,0.01 0.137,-0.01 0.182,-0.032 0.044,-0.022 0.114,-0.113 0.07,-0.091 0.076,-0.228 0.01,-0.137 0.025,-0.198 0.019,-0.061 -0.076,-0.204 -0.094,-0.142 -0.201,-0.246 -0.108,-0.104 -0.282,-0.126 -0.175,-0.021 -0.26,0.024 -0.085,0.045 -0.146,0.096 -0.062,0.052 -0.457,0.014" /><path
     id="STROKE_951a8c03-ad05-416c-afb7-b060402e8238"
     opacity="1"
     fill="none"
     stroke="#9198e5"
     stroke-width="4"
     stroke-opacity="1"
     stroke-linecap="round"
     stroke-linejoin="round"
     d="m 6698.1858,1993.6675 -0.16,-0.089 q -0.189,-0.125 -0.459,-0.24 -0.27,-0.114 -0.572,-0.212 -0.303,-0.097 -0.613,-0.142 -0.309,-0.046 -0.756,-0.01 -0.446,0.041 -0.553,0.26 -0.107,0.22 -0.106,0.478 0,0.259 0.172,0.335 0.171,0.076 0.543,0.095 0.372,0.02 0.576,-0.019 0.204,-0.038 0.343,-0.184 0.138,-0.146 0.208,-0.31 0.069,-0.164 0.055,-0.307 -0.014,-0.144 -0.015,-0.143 0,0 -0.276,-0.269 -0.274,-0.269 -0.819,-0.461 -0.106,-0.01 -0.527,-0.082" /><path
     id="STROKE_2ba101fb-fca2-49d3-b4f5-d3193f8b2087"
     opacity="1"
     fill="none"
     stroke="#9198e5"
     stroke-width="4"
     stroke-opacity="1"
     stroke-linecap="round"
     stroke-linejoin="round"
     d="m 6651.9678,1895.0405 -0.232,0.027 -0.149,0.113 q -0.051,0.031 -0.458,0.012 -0.407,-0.019 -0.663,0 -0.256,0.023 -0.533,0.133 -0.278,0.111 -0.424,0.241 -0.146,0.129 -0.209,0.476 -0.064,0.347 0,0.542 0.067,0.196 0.215,0.374 0.147,0.179 0.3,0.273 0.152,0.094 0.166,0.115 0.014,0.021 0.451,0.065 0.436,0.044 0.937,-0.144 0.176,-0.251 0.337,-0.714 0.162,-0.462 0.233,-0.981 0.073,-0.52 0.025,-2.162" /><path
     id="STROKE_9a9573da-6991-48fc-a33b-b2854058eb81"
     opacity="1"
     fill="none"
     stroke="#9198e5"
     stroke-width="4"
     stroke-opacity="1"
     stroke-linecap="round"
     stroke-linejoin="round"
     d="m 6769.5548,1945.4435 -0.204,-0.173 -0.259,-0.221 q -0.648,-0.455 -0.983,-0.627 -0.334,-0.172 -0.646,-0.278 -0.313,-0.106 -0.827,-0.184 -0.515,-0.079 -1.083,0.053 -0.568,0.131 -0.874,0.487 -0.306,0.356 -0.372,0.552 -0.066,0.196 -0.071,0.349 -0.01,0.154 -0.01,0.318 0,0.164 0.192,0.458 0.192,0.295 0.324,0.411 0.131,0.115 0.458,0.302 0.326,0.187 0.57,0.244 0.245,0.058 0.756,0.066 0.511,0.01 1.082,-0.168 0.572,-0.175 1.129,-0.734 0.558,-0.559 0.94,-1.366 0.381,-0.807 0.781,-2.309" /><path
     id="STROKE_87813aa4-3f55-49db-bc5a-62e109f8ed0b"
     opacity="1"
     fill="none"
     stroke="#9198e5"
     stroke-width="4"
     stroke-opacity="1"
     stroke-linecap="round"
     stroke-linejoin="round"
     d="m 6841.9138,1899.6325 q -0.416,-0.511 -0.845,-0.836 -0.428,-0.326 -0.667,-0.453 -0.238,-0.128 -0.465,-0.209 -0.228,-0.082 -0.468,-0.071 -0.241,0.011 -0.45,0.203 -0.208,0.192 -0.331,0.45 -0.122,0.257 -0.122,0.444 0,0.187 0.049,0.29 0.049,0.103 0.113,0.165 0.065,0.062 0.347,0.213 0.281,0.152 0.653,0.165 0.373,0.014 0.515,-0.059 0.142,-0.073 0.39,-0.295 0.247,-0.223 0.775,-1.242 l 0.361,-0.823" /><path
     id="STROKE_96c53e5b-e7ff-4bfa-8733-30fc763719c7"
     opacity="1"
     fill="none"
     stroke="#9198e5"
     stroke-width="4"
     stroke-opacity="1"
     stroke-linecap="round"
     stroke-linejoin="round"
     d="m 6776.5438,2056.5125 q -0.527,-0.01 -1.074,0.12 -0.547,0.128 -0.66,0.19 -0.113,0.062 -0.221,0.255 -0.108,0.193 0.013,0.384 0.119,0.191 0.249,0.237 0.129,0.047 0.248,0.016 0.119,-0.031 0.257,-0.129 0.139,-0.097 0.203,-0.186 0.064,-0.089 0.115,-0.234 0.05,-0.144 0.065,-0.326 0.015,-0.181 0.014,-0.233 -0,-0.052 -0.098,-0.469 -0.097,-0.418 -0.255,-1.104" /><path
     id="STROKE_f55d9d10-46a4-41d6-ac7f-b6877c21d468"
     opacity="1"
     fill="none"
     stroke="#9198e5"
     stroke-width="4"
     stroke-opacity="1"
     stroke-linecap="round"
     stroke-linejoin="round"
     d="m 6572.3938,1833.2615 q -0.171,0.172 -0.2,0.197 -0.028,0.025 -0.199,0.096 -0.171,0.07 -0.198,0.104 -0.027,0.033 -0.259,0 -0.232,-0.033 -0.544,-0.012 -0.312,0.02 -0.739,0.127 -0.428,0.106 -0.586,0.161 -0.158,0.055 -0.246,0.127 -0.087,0.072 -0.112,0.254 -0.025,0.181 0.045,0.306 0.07,0.125 0.256,0.258 0.187,0.132 0.334,0.172 0.147,0.04 0.355,0.013 0.209,-0.028 0.305,-0.139 0.097,-0.112 0.202,-0.325 0.105,-0.213 0.122,-0.657 -0.084,-0.133 -0.62,-0.692 l -0.06,-0.229" /><path
     id="STROKE_8c25e7dc-044e-4a29-b6ed-f6470c39b3a3"
     opacity="1"
     fill="none"
     stroke="#9198e5"
     stroke-width="4"
     stroke-opacity="1"
     stroke-linecap="round"
     stroke-linejoin="round"
     d="m 6486.7378,2055.1805 -0.184,-0.04 q -0.08,0.098 -0.351,0.106 -0.271,0.01 -0.547,0.063 -0.276,0.055 -0.497,0.188 -0.22,0.134 -0.378,0.419 -0.158,0.284 -0.248,0.489 -0.09,0.204 0.028,0.505 0.118,0.3 0.286,0.407 0.167,0.108 0.426,0.092 0.259,-0.016 0.341,-0.121 0.082,-0.106 0.104,-0.291 0.022,-0.186 0,-0.425 -0.02,-0.239 -0.11,-0.466 -0.089,-0.227 -0.543,-0.926" /><path
     id="STROKE_d89f3bc8-a3be-4f75-a937-7a28120b5ed2"
     opacity="1"
     fill="none"
     stroke="#9198e5"
     stroke-width="4"
     stroke-opacity="1"
     stroke-linecap="round"
     stroke-linejoin="round"
     d="m 6858.7678,1835.8425 q -0.182,-0.144 -0.398,-0.45 -0.216,-0.307 -0.421,-0.533 -0.205,-0.225 -0.318,-0.323 -0.112,-0.098 -0.331,-0.193 -0.219,-0.096 -0.343,-0.077 -0.124,0.018 -0.232,0.193 -0.109,0.174 -0.01,0.366 0.1,0.191 0.227,0.246 0.128,0.056 0.278,0.059 0.149,0 0.227,-0.025 0.077,-0.028 0.189,-0.055 0.11,-0.026 0.274,-0.527 0.163,-0.501 0.125,-0.643 -0.039,-0.142 0.06,-0.812" /><path
     id="STROKE_9d86565e-ca9a-45a1-9457-89df1689b577"
     opacity="1"
     fill="none"
     stroke="#9198e5"
     stroke-width="4"
     stroke-opacity="1"
     stroke-linecap="round"
     stroke-linejoin="round"
     d="m 6726.5028,1937.6495 q 0,-0.029 -0.086,-0.203 l -0.076,0.097 q -0.049,-0.086 -0.318,-0.124 -0.268,-0.038 -0.52,0.031 -0.252,0.069 -0.303,0.225 -0.051,0.156 -0.025,0.256 0.025,0.099 0.151,0.178 0.126,0.079 0.162,0.11 0.037,0.031 0.565,0.17 0.528,0.14 0.938,0.137 0.41,0 0.555,-0.071 0.145,-0.069 0.245,-0.19 0.101,-0.122 0.148,-0.222 0.047,-0.101 -0.25,-0.461 -0.297,-0.36 -0.423,-0.649" /><path
     id="STROKE_f206f2d8-8097-4acf-9a36-fcfaa959c9ea"
     opacity="1"
     fill="none"
     stroke="#9198e5"
     stroke-width="4"
     stroke-opacity="1"
     stroke-linecap="round"
     stroke-linejoin="round"
     d="m 6806.9508,1939.7525 q -0.03,0 -0.283,-0.217 -0.284,-0.118 -0.841,-0.275 -0.557,-0.157 -0.843,-0.178 -0.285,-0.021 -0.415,0 -0.129,0.025 -0.245,0.096 -0.117,0.071 -0.152,0.309 -0.035,0.239 0.25,0.312 0.284,0.073 0.537,0.072 0.252,0 0.465,-0.041 0.212,-0.039 0.362,-0.153 0.15,-0.114 0.187,-0.171 0.037,-0.058 0.107,-0.246 0.07,-0.189 0.047,-0.356 -0.024,-0.167 -0.1,-0.265 -0.076,-0.097 -0.149,-0.149 -0.074,-0.053 -0.319,-0.12 -0.247,-0.067 -0.405,-0.062 -0.158,0.01 -0.292,0.048 -0.134,0.043 -0.397,0.29" /><path
     id="STROKE_313d1c92-26b9-4c03-8fd1-c19e4badc57e"
     opacity="1"
     fill="none"
     stroke="#9198e5"
     stroke-width="4"
     stroke-opacity="1"
     stroke-linecap="round"
     stroke-linejoin="round"
     d="m 6624.6848,1955.7055 q -0.299,-0.166 -0.721,-0.329 -0.423,-0.164 -0.642,-0.235 -0.218,-0.07 -0.4,-0.103 -0.181,-0.033 -0.376,-0.045 -0.194,-0.013 -0.354,0.099 -0.159,0.112 -0.217,0.347 -0.058,0.235 0.042,0.307 0.1,0.071 0.239,0.115 0.139,0.044 0.311,0.036 0.172,-0.01 0.246,-0.01 0.075,0 0.187,-0.061 0.112,-0.061 0.202,-0.147 0.089,-0.087 0.153,-0.188 0.065,-0.102 0,-0.366 -0.064,-0.264 -0.235,-0.515 -0.171,-0.251 -0.484,-0.4 -0.052,-0.01 -0.479,-0.132" /><path
     id="STROKE_1d786508-03ce-42fa-a56d-1069d0555369"
     opacity="1"
     fill="none"
     stroke="#9198e5"
     stroke-width="4"
     stroke-opacity="1"
     stroke-linecap="round"
     stroke-linejoin="round"
     d="m 6537.0298,1957.3775 q 0.059,0.05 0.215,-0.01 l -0.133,-0.211 q -0.326,-0.103 -0.616,-0.062 -0.289,0.041 -0.525,0.154 -0.236,0.113 -0.483,0.428 -0.247,0.316 -0.288,0.705 -0.04,0.389 0.095,0.637 0.135,0.249 0.225,0.321 0.091,0.072 0.182,0.116 0.092,0.043 0.479,0.057 0.387,0.013 0.569,-0.093 0.182,-0.107 0.306,-0.279 0.123,-0.173 0.138,-0.379 0.014,-0.206 -0.028,-0.351 -0.043,-0.145 -0.523,-0.48 -0.48,-0.335 -1.623,-0.532 -0.068,0.016 -0.2,-0.022" /></g></svg>
