<?xml version="1.0" encoding="UTF-8" standalone="no"?>
<svg
   version="1.1"
   xml:space="preserve"
   x="0px"
   y="0px"
   viewBox="0 0 960 480"
   id="svg1"
   sodipodi:docname="bezier-cubic-5.svg"
   inkscape:version="1.3.2 (091e20ef0f, 2023-11-25, custom)"
   xmlns:inkscape="http://www.inkscape.org/namespaces/inkscape"
   xmlns:sodipodi="http://sodipodi.sourceforge.net/DTD/sodipodi-0.dtd"
   xmlns="http://www.w3.org/2000/svg"
   xmlns:svg="http://www.w3.org/2000/svg"><defs
   id="defs1" /><sodipodi:namedview
   id="namedview1"
   pagecolor="#505050"
   bordercolor="#eeeeee"
   borderopacity="1"
   inkscape:showpageshadow="0"
   inkscape:pageopacity="0"
   inkscape:pagecheckerboard="0"
   inkscape:deskcolor="#d1d1d1"
   inkscape:zoom="0.98333334"
   inkscape:cx="493.22034"
   inkscape:cy="260.84746"
   inkscape:window-width="2560"
   inkscape:window-height="1600"
   inkscape:window-x="0"
   inkscape:window-y="0"
   inkscape:window-maximized="0"
   inkscape:current-layer="Cubic_5"
   showgrid="false" />
<g
   id="Cubic_5"
   opacity="1"
   transform="matrix(0.73018513,0,0,0.73018513,-5229.2168,-1106.2375)"><path
     id="STROKE_529263a8-7a66-4caa-91b2-0231c83ae380"
     opacity="1"
     fill="none"
     stroke="#e66465"
     stroke-width="4"
     stroke-opacity="1"
     stroke-linecap="round"
     stroke-linejoin="round"
     d="m 7281.2579,1662.2682 -0.168,-0.072 q -1.368,-0.832 -1.76,-0.965 -0.392,-0.133 -1.01,-0.351 -0.617,-0.219 -1.69,-0.369 -1.074,-0.151 -2.212,0.144 -1.139,0.296 -1.567,0.566 -0.429,0.271 -0.82,0.761 -0.391,0.489 -0.571,0.762 -0.18,0.273 -0.328,1.154 -0.149,0.881 -0.023,1.505 0.126,0.623 0.55,1.313 0.424,0.689 0.926,1.185 0.502,0.495 1.206,0.88 0.704,0.386 1.567,0.581 0.864,0.195 1.88,0.259 1.016,0.063 1.938,-0.097 0.921,-0.16 1.423,-0.392 0.502,-0.232 1.22,-0.772 0.719,-0.54 1.089,-1.092 0.371,-0.551 0.456,-0.761 0.086,-0.209 0.304,-0.355 0.219,-0.145 0.815,-4.402" /><path
     id="STROKE_ae50237a-74ad-41a7-b9db-1ef69e7f5621"
     opacity="1"
     fill="none"
     stroke="#e66465"
     stroke-width="4"
     stroke-opacity="1"
     stroke-linecap="round"
     stroke-linejoin="round"
     d="m 7282.7129,2050.9292 q -0.683,-1.004 -1.654,-1.947 -0.972,-0.942 -2.407,-1.94 -1.435,-0.999 -1.557,-1.117 -0.122,-0.117 -1.935,-0.519 -1.813,-0.402 -3.069,-0.211 -1.256,0.192 -1.498,0.299 -0.241,0.108 -0.824,0.76 -0.583,0.653 -0.834,1.308 -0.252,0.656 -0.269,1.25 -0.017,0.594 -0.016,0.827 0,0.234 0.405,1.207 0.403,0.973 1.199,1.839 0.797,0.867 1.673,1.353 0.876,0.486 1.767,0.704 0.892,0.219 1.743,0.35 0.851,0.132 2.887,-0.212 2.036,-0.344 3.136,-0.845 1.1,-0.501 1.907,-1.237 0.808,-0.737 3.6,-5.099" /><path
     id="STROKE_9db00f40-2f15-46de-98b3-2f5640c6a960"
     opacity="1"
     fill="none"
     stroke="#e66465"
     stroke-width="4"
     stroke-opacity="1"
     stroke-linecap="round"
     stroke-linejoin="round"
     d="m 7667.4169,1665.0592 q -0.301,-0.409 -0.948,-1.884 -0.647,-1.476 -1.105,-2.296 -0.457,-0.82 -0.682,-1.096 -0.225,-0.277 -1.188,-1.263 -0.963,-0.986 -1.581,-1.238 -0.619,-0.252 -1.071,-0.286 -0.452,-0.035 -0.863,0.034 -0.412,0.07 -1.314,1.086 -0.903,1.016 -1.185,1.768 -0.283,0.752 -0.33,1.26 -0.047,0.508 0.125,1.649 0.172,1.141 0.347,1.498 0.176,0.358 0.536,0.794 0.36,0.437 1.557,1.339 1.196,0.902 2.827,1.372 1.631,0.47 2.024,0.533 0.392,0.063 1.047,0.068 0.655,0 3.346,-0.228" /><path
     id="STROKE_e9093fba-3b4c-4d89-b4f4-fdce77317600"
     opacity="1"
     fill="none"
     stroke="#e66465"
     stroke-width="4"
     stroke-opacity="1"
     stroke-linecap="round"
     stroke-linejoin="round"
     d="m 7670.2139,2051.8462 -0.901,-0.881 -0.172,-0.636 q -0.084,-0.234 -1.021,-1.921 -0.936,-1.687 -1.949,-2.702 -1.014,-1.014 -1.422,-1.265 -0.409,-0.251 -0.719,-0.364 -0.309,-0.112 -1.648,-0.22 -1.338,-0.109 -2.19,0.299 -0.853,0.408 -0.898,0.485 l -1.214,1.632 q -0.095,0.076 -0.487,2.415 -0.392,2.338 0,3.65 0.395,1.313 0.734,1.795 0.34,0.481 0.884,0.978 0.545,0.496 1.515,1.026 0.969,0.529 2.42,0.657 1.451,0.128 2.282,-0.01 0.832,-0.138 2.031,-0.917 1.199,-0.778 4.294,-4.122" /><path
     id="STROKE_ec90d9df-261d-4714-a7c5-560d16859667"
     opacity="1"
     fill="none"
     stroke="#e66465"
     stroke-width="4"
     stroke-opacity="1"
     stroke-linecap="round"
     stroke-linejoin="round"
     d="m 7982.9969,1654.3455 -0.168,-0.072 q -1.368,-0.832 -1.76,-0.965 -0.392,-0.133 -1.01,-0.351 -0.617,-0.219 -1.69,-0.37 -1.074,-0.15 -2.212,0.145 -1.139,0.296 -1.567,0.566 -0.429,0.271 -0.82,0.761 -0.391,0.489 -0.571,0.762 -0.18,0.273 -0.328,1.154 -0.149,0.881 -0.023,1.505 0.126,0.623 0.55,1.313 0.424,0.689 0.926,1.185 0.502,0.495 1.206,0.88 0.704,0.386 1.567,0.581 0.864,0.195 1.88,0.259 1.016,0.063 1.938,-0.097 0.921,-0.16 1.423,-0.392 0.502,-0.232 1.22,-0.772 0.719,-0.54 1.089,-1.092 0.371,-0.551 0.456,-0.761 0.086,-0.209 0.304,-0.355 0.219,-0.145 0.815,-4.402" /><path
     id="STROKE_5d936c06-8c4b-4a49-891e-b09b189a9347"
     opacity="1"
     fill="none"
     stroke="#e66465"
     stroke-width="4"
     stroke-opacity="1"
     stroke-linecap="round"
     stroke-linejoin="round"
     d="m 7984.4519,2043.0065 q -0.683,-1.004 -1.654,-1.947 -0.972,-0.942 -2.407,-1.941 -1.435,-0.998 -1.557,-1.116 -0.122,-0.117 -1.935,-0.519 -1.813,-0.402 -3.069,-0.211 -1.256,0.192 -1.498,0.299 -0.241,0.108 -0.824,0.76 -0.583,0.653 -0.834,1.308 -0.252,0.656 -0.269,1.25 -0.017,0.594 -0.016,0.827 0,0.234 0.405,1.207 0.403,0.973 1.199,1.839 0.797,0.867 1.673,1.353 0.876,0.486 1.767,0.704 0.892,0.219 1.743,0.35 0.851,0.131 2.887,-0.212 2.036,-0.344 3.136,-0.845 1.1,-0.501 1.907,-1.238 0.808,-0.736 3.6,-5.098" /><path
     id="STROKE_f53a6752-9637-4387-9d22-293163b04b95"
     opacity="1"
     fill="none"
     stroke="#e66465"
     stroke-width="4"
     stroke-opacity="1"
     stroke-linecap="round"
     stroke-linejoin="round"
     d="m 8369.1559,1657.1365 q -0.301,-0.409 -0.948,-1.884 -0.647,-1.476 -1.105,-2.296 -0.457,-0.82 -0.682,-1.096 -0.225,-0.277 -1.188,-1.263 -0.963,-0.986 -1.581,-1.238 -0.619,-0.252 -1.071,-0.286 -0.452,-0.035 -0.863,0.034 -0.412,0.07 -1.314,1.086 -0.903,1.016 -1.185,1.768 -0.283,0.752 -0.33,1.26 -0.047,0.508 0.125,1.649 0.172,1.141 0.347,1.498 0.176,0.358 0.536,0.794 0.36,0.436 1.557,1.339 1.196,0.902 2.827,1.372 1.631,0.47 2.024,0.533 0.392,0.063 1.047,0.068 0.655,0 3.346,-0.228" /><path
     id="STROKE_3cfa91d8-61ff-430f-a522-651dd567aaab"
     opacity="1"
     fill="none"
     stroke="#e66465"
     stroke-width="4"
     stroke-opacity="1"
     stroke-linecap="round"
     stroke-linejoin="round"
     d="m 8371.9529,2043.9235 -0.901,-0.881 -0.172,-0.636 q -0.084,-0.234 -1.021,-1.921 -0.936,-1.687 -1.949,-2.702 -1.014,-1.014 -1.422,-1.265 -0.409,-0.251 -0.719,-0.364 -0.309,-0.112 -1.648,-0.221 -1.338,-0.108 -2.19,0.3 -0.853,0.408 -0.898,0.485 l -1.214,1.632 q -0.095,0.076 -0.487,2.415 -0.392,2.338 0,3.65 0.395,1.313 0.734,1.795 0.34,0.481 0.884,0.978 0.545,0.496 1.515,1.026 0.969,0.529 2.42,0.657 1.451,0.128 2.282,-0.01 0.832,-0.137 2.031,-0.916 1.199,-0.778 4.294,-4.122" /><path
     id="STROKE_bc475fc9-4109-449e-af6b-d935f2e2aa3c"
     opacity="1"
     fill="none"
     stroke="#e66465"
     stroke-width="4"
     stroke-opacity="1"
     stroke-linecap="round"
     stroke-linejoin="round"
     d="m 7202.9889,2027.9962 -0.018,0.477 q -0.066,0.629 1.678,7.214 1.742,6.585 2.968,10.697 1.225,4.111 2.166,7.862 0.941,3.752 2.747,12.04 0.084,0.119 0.408,1.025" /><path
     id="STROKE_cd978114-bac7-4100-8b18-8faa9dd78bb6"
     opacity="1"
     fill="none"
     stroke="#e66465"
     stroke-width="4"
     stroke-opacity="1"
     stroke-linecap="round"
     stroke-linejoin="round"
     d="m 7199.8129,2031.8932 q 1.032,-2.952 2.677,-5.276 1.645,-2.324 4.053,-4.277 2.408,-1.953 4.224,-2.634 1.817,-0.682 3.035,-0.802 1.218,-0.12 2.226,0.016 1.008,0.135 5.277,4.018 4.268,3.883 4.763,5.728 0.496,1.845 0.46,3.038 -0.036,1.193 -0.909,3.371 -0.874,2.178 -3.184,5.018 -2.31,2.84 -3.625,4.14 -1.316,1.299 -2.284,2.057 -0.968,0.759 -1.661,1.141 -0.098,0.011 0.238,0.687" /><path
     id="STROKE_a0c2585c-d7a1-4f42-8273-e9c1811451a3"
     opacity="1"
     fill="none"
     stroke="#e66465"
     stroke-width="4"
     stroke-opacity="1"
     stroke-linecap="round"
     stroke-linejoin="round"
     d="m 7233.8679,2068.6142 q -0.673,-0.785 -1.666,-1.503 -0.992,-0.718 -1.518,-1.188 -0.527,-0.471 -1.399,-1.569 -0.871,-1.099 -1.376,-2.536 -0.505,-1.437 -0.499,-2.388 0.01,-0.951 0.33,-1.904 0.325,-0.954 1.37,-1.83 1.046,-0.876 2.165,-1.138 1.118,-0.262 2.196,-0.13 1.078,0.132 1.978,0.77 0.9,0.639 1.657,1.834 0.757,1.194 1.066,2.186 0.309,0.991 0.397,2 0.089,1.009 -0.095,2.321 -0.185,1.313 -0.6,2.148 -0.415,0.836 -1.163,1.76 -0.748,0.924 -5.722,2.887" /><path
     id="STROKE_554d7445-4083-4f48-b176-cf9df7553ca3"
     opacity="1"
     fill="none"
     stroke="#e66465"
     stroke-width="4"
     stroke-opacity="1"
     stroke-linecap="round"
     stroke-linejoin="round"
     d="m 7198.6599,1629.8702 0.04,0.386 q 0.036,0.553 2.52,7.425 2.483,6.872 3.975,10.909 1.492,4.037 2.654,7.498 1.162,3.46 2.998,10.319 0.091,0.028 -1.662,-1.993" /><path
     id="STROKE_a47ebd03-8750-4a38-8a20-f4b557794d12"
     opacity="1"
     fill="none"
     stroke="#e66465"
     stroke-width="4"
     stroke-opacity="1"
     stroke-linecap="round"
     stroke-linejoin="round"
     d="m 7195.1849,1633.4752 q 0.032,-0.107 0.21,-1.393 0.178,-1.285 0.535,-2.396 0.356,-1.11 1.68,-2.994 1.324,-1.883 3.058,-3.161 1.735,-1.278 3.338,-1.845 1.603,-0.567 3.244,-0.708 1.64,-0.141 2.968,0.069 1.328,0.21 2.685,0.916 1.357,0.706 2.817,2.616 1.459,1.91 2.334,5.662 0.874,3.752 0.745,5.971 -0.128,2.219 -0.836,4.449 -0.709,2.23 -2.403,4.328 -1.695,2.099 -3.222,3.005 -1.528,0.905 -2.489,1.136 -0.962,0.23 -3.682,0.141" /><path
     id="STROKE_34006a85-22b0-482e-9c76-999068755773"
     opacity="1"
     fill="none"
     stroke="#e66465"
     stroke-width="4"
     stroke-opacity="1"
     stroke-linecap="round"
     stroke-linejoin="round"
     d="m 7231.8419,1667.1602 q 2.649,-8.094 3.019,-9.918 0.37,-1.823 0.474,-2.458 0.104,-0.636 -0.352,-0.725 -0.218,0.557 0.08,2.52 0.297,1.963 0.827,3.588 0.53,1.626 1.468,3.681 0.937,2.055 2.476,4.199 0.344,0.226 1.044,1.054" /><path
     id="STROKE_740efbf8-6427-4094-a36c-6c2bdfa54fb8"
     opacity="1"
     fill="none"
     stroke="#e66465"
     stroke-width="4"
     stroke-opacity="1"
     stroke-linecap="round"
     stroke-linejoin="round"
     d="m 7693.0849,1599.2562 q 0.053,0.104 0.043,0.754 0.011,1.066 1.397,5.17 1.387,4.104 3.583,10.403 2.196,6.298 3.967,13.555 1.771,7.256 2.748,12.821 0.086,0.101 -1.133,-3.831" /><path
     id="STROKE_3da2943b-d17f-4071-bf46-25922b0d280c"
     opacity="1"
     fill="none"
     stroke="#e66465"
     stroke-width="4"
     stroke-opacity="1"
     stroke-linecap="round"
     stroke-linejoin="round"
     d="m 7692.2109,1603.5142 q 0.105,-0.143 0.777,-1.986 0.672,-1.842 1.234,-2.85 0.561,-1.007 0.933,-1.524 0.372,-0.516 1.872,-1.815 1.5,-1.3 3.421,-2.083 1.922,-0.783 3.096,-0.94 1.173,-0.157 2.573,-0.084 1.399,0.073 2.197,0.241 0.798,0.169 3.596,1.748 2.799,1.579 4.455,3.363 1.656,1.783 2.762,3.848 1.106,2.065 1.526,4.775 0.421,2.71 0.204,4.373 -0.217,1.664 -1.167,3.685 -0.95,2.021 -3.139,3.87 -2.19,1.849 -3.884,2.44 -1.694,0.59 -2.562,0.663 -0.869,0.073 -1.526,-0.025 -0.658,-0.098 -0.979,-0.254 -0.322,-0.156 -0.606,-0.392 -0.283,-0.235 -0.455,-0.477 -0.171,-0.242 -0.547,-0.85" /><path
     id="STROKE_b6cf77bc-3ac5-4d97-80f9-d323f3857212"
     opacity="1"
     fill="none"
     stroke="#e66465"
     stroke-width="4"
     stroke-opacity="1"
     stroke-linecap="round"
     stroke-linejoin="round"
     d="m 7729.6049,1641.8162 q 0.144,-0.303 -0.252,-1.2 0.248,-1.696 1.053,-2.929 0.806,-1.233 1.724,-1.836 0.918,-0.603 1.669,-0.664 0.75,-0.061 1.048,-0.047 0.297,0.013 1.067,0.478 0.771,0.465 1.522,1.789 0.751,1.324 1.038,3.41 0.287,2.087 -0.314,5.637 -0.601,3.551 -0.999,5.828 -0.399,2.278 -0.215,3.681 0.53,0.171 4.105,0.068 3.575,-0.104 14.527,-1.665" /><path
     id="STROKE_c831c4ff-35f3-4e32-bc74-83e9ea5d2700"
     opacity="1"
     fill="none"
     stroke="#e66465"
     stroke-width="4"
     stroke-opacity="1"
     stroke-linecap="round"
     stroke-linejoin="round"
     d="m 7701.6509,2012.4332 -0.102,0.726 q -0.06,0.317 2.814,14.756 2.875,14.439 7.901,29.774 0.157,0.06 -0.068,-0.103" /><path
     id="STROKE_ea533264-c547-4cbf-8c3b-5bd916442fbe"
     opacity="1"
     fill="none"
     stroke="#e66465"
     stroke-width="4"
     stroke-opacity="1"
     stroke-linecap="round"
     stroke-linejoin="round"
     d="m 7702.9619,2016.3302 q 0.073,-0.166 0.179,-1.174 0.106,-1.009 0.436,-1.981 0.329,-0.973 0.551,-1.444 0.222,-0.471 0.627,-1.037 0.405,-0.566 0.987,-1.126 0.582,-0.56 1.108,-0.909 0.525,-0.349 0.946,-0.62 0.422,-0.271 2.965,-0.743 2.542,-0.471 4.243,-0.276 1.7,0.195 3.393,0.928 1.693,0.733 3.004,1.783 1.311,1.05 2.395,2.864 1.085,1.814 1.508,4.333 0.423,2.518 0.099,4.783 -0.324,2.266 -1.674,4.787 -1.351,2.52 -3.129,4.2 -1.779,1.68 -3.668,2.549 -1.889,0.868 -3.352,1.044 -1.463,0.175 -2.437,-0.069 -0.974,-0.243 -1.99,-0.949 l -0.849,-0.427" /><path
     id="STROKE_ea2a09ed-3591-4d7d-8c75-c71b1699993f"
     opacity="1"
     fill="none"
     stroke="#e66465"
     stroke-width="4"
     stroke-opacity="1"
     stroke-linecap="round"
     stroke-linejoin="round"
     d="m 7741.4859,2041.7902 q 0.152,-0.093 0.489,-0.63 0.336,-0.537 1.415,-1.597 1.078,-1.059 2.513,-2.027 1.436,-0.968 2.88,-1.421 1.444,-0.453 2.614,-0.354 1.17,0.1 1.737,0.326 0.566,0.225 1.159,0.773 0.593,0.548 1.116,1.94 0.523,1.393 0.472,2.956 -0.051,1.564 -0.554,2.943 -0.502,1.379 -0.804,1.953 -0.302,0.573 -0.553,0.7 0.156,-0.136 0.444,-0.262 0.288,-0.126 0.845,-0.176 0.558,-0.05 1.809,0.053 1.252,0.103 3.05,0.737 1.799,0.633 2.931,1.37 1.133,0.736 1.881,1.65 0.748,0.915 1.006,1.511 0.257,0.596 0.29,1.253 0.033,0.656 -0.18,1.412 -0.213,0.756 -0.716,1.566 -0.503,0.809 -1.825,1.876 -1.322,1.067 -3.476,1.856 -2.153,0.788 -4.2,0.923 -2.046,0.135 -3.362,-0.128 -1.316,-0.262 -2.182,-0.68 -0.865,-0.417 -1.692,-1.039 -0.827,-0.622 -1.997,-2.262 l -0.701,-1.076" /><path
     id="STROKE_4d492333-6c58-4571-93c8-afed9f4d5c8f"
     opacity="1"
     fill="none"
     stroke="#e66465"
     stroke-width="4"
     stroke-opacity="1"
     stroke-linecap="round"
     stroke-linejoin="round"
     d="m 7906.6399,2031.5335 -0.05,1.066 q 0.159,0.965 1.012,4.324 0.854,3.36 1.862,7.101 1.008,3.741 2.565,9.078 1.557,5.337 2.497,8.138 0.941,2.8 1.785,4.848 0.845,2.048 1.275,2.93 0.431,0.883 0.95,1.717 0.125,0.02 -1.49,-2.411" /><path
     id="STROKE_32cedb32-9149-4506-9a70-93ed9ef4969b"
     opacity="1"
     fill="none"
     stroke="#e66465"
     stroke-width="4"
     stroke-opacity="1"
     stroke-linecap="round"
     stroke-linejoin="round"
     d="m 7906.8589,2034.5705 q 0.045,-1.219 1.093,-4.187 1.048,-2.969 2.192,-4.457 1.144,-1.487 2.011,-2.035 0.867,-0.548 1.6,-0.743 0.732,-0.195 2.719,0.197 1.987,0.391 4.298,2.066 2.312,1.676 3.412,3.076 1.1,1.4 1.794,3.028 0.694,1.628 0.861,3.49 0.167,1.862 -0.586,4.215 -0.752,2.353 -2.477,4.385 -1.725,2.031 -3.256,2.965 -1.531,0.933 -2.769,1.225 -1.238,0.291 -1.934,0.242 -0.695,-0.049 -1.211,-0.167 -0.516,-0.119 -1.064,-0.467 -0.548,-0.348 -0.88,-0.635 -0.332,-0.286 -0.739,-0.66" /><path
     id="STROKE_faebe629-99b0-4e5d-8577-e2622c948747"
     opacity="1"
     fill="none"
     stroke="#e66465"
     stroke-width="4"
     stroke-opacity="1"
     stroke-linecap="round"
     stroke-linejoin="round"
     d="m 7949.9509,2064.2885 q -0.071,-0.833 -0.695,-2.453 -0.624,-1.62 -1.697,-3.061 -1.072,-1.44 -2.447,-2.314 -1.376,-0.874 -3.635,-0.846 -2.258,0.029 -2.983,0.641 -0.724,0.612 -1.229,2.441 -0.505,1.828 -0.247,3.578 0.258,1.75 1.416,3.545 1.159,1.795 2.494,2.681 1.334,0.886 2.817,1.126 1.483,0.24 2.741,-0.081 1.257,-0.32 2.612,-1.509 1.354,-1.188 4.308,-8.074" /><path
     id="STROKE_3d363ffb-209a-4e6f-bcd0-4b502ead5fc4"
     opacity="1"
     fill="none"
     stroke="#e66465"
     stroke-width="4"
     stroke-opacity="1"
     stroke-linecap="round"
     stroke-linejoin="round"
     d="m 7912.1289,1634.6595 q 0.159,0.735 0.493,2.089 0.333,1.353 0.952,3.032 0.62,1.68 1.178,2.855 0.558,1.175 2.252,4.552 1.695,3.377 3.851,8.348 2.156,4.971 3.203,7.917 1.048,2.946 2.387,8.042 0.064,0.014 -0.674,-1.487" /><path
     id="STROKE_337f144f-e615-4fa4-b495-528a97b05522"
     opacity="1"
     fill="none"
     stroke="#e66465"
     stroke-width="4"
     stroke-opacity="1"
     stroke-linecap="round"
     stroke-linejoin="round"
     d="m 7912.5659,1636.5315 q 0.317,-0.572 1.09,-2.034 0.773,-1.462 1.798,-2.509 1.024,-1.048 2.451,-1.849 1.426,-0.801 3.407,-1.094 1.982,-0.293 3.473,-0.027 1.491,0.265 2.698,1.037 1.208,0.772 2.351,2.109 1.142,1.337 2.18,4.367 1.039,3.029 1.126,5.6 0.088,2.571 -0.445,4.957 -0.533,2.386 -1.829,4.552 -1.296,2.165 -2.185,3.12 -0.889,0.955 -2.182,1.77 -1.293,0.814 -2.963,1.2 -0.319,-0.062 -1.736,-0.065" /><path
     id="STROKE_cd718d2c-ae06-4be5-9a70-76a8e3dba4a8"
     opacity="1"
     fill="none"
     stroke="#e66465"
     stroke-width="4"
     stroke-opacity="1"
     stroke-linecap="round"
     stroke-linejoin="round"
     d="m 7942.8889,1668.9955 q 0.166,-0.592 0.696,-2.338 0.531,-1.745 0.793,-3.065 0.262,-1.32 0.353,-2.01 0.092,-0.69 0.114,-0.993 0.022,-0.302 -0.013,-0.493 -0.035,-0.19 -0.086,-0.179 -0.051,0.011 0.183,0.989 0.234,0.979 1.408,3.448 1.174,2.47 7.156,11.783" /><path
     id="STROKE_76752578-d484-4234-81f3-ddde840650b7"
     opacity="1"
     fill="none"
     stroke="#e66465"
     stroke-width="4"
     stroke-opacity="1"
     stroke-linecap="round"
     stroke-linejoin="round"
     d="m 8399.1249,2042.7455 q 0.051,0.507 0.379,1.684 0.328,1.176 0.957,2.738 0.629,1.562 2.04,4.968 1.41,3.407 3.982,11.273 2.573,7.865 3.647,12.071 1.074,4.206 1.687,7.334 0.053,0 -1.572,-1.835" /><path
     id="STROKE_f2bc862c-a8c4-4719-95ea-68a3503c3a4a"
     opacity="1"
     fill="none"
     stroke="#e66465"
     stroke-width="4"
     stroke-opacity="1"
     stroke-linecap="round"
     stroke-linejoin="round"
     d="m 8399.8599,2049.2355 q 0.332,-1.624 0.779,-3.007 0.446,-1.383 1.296,-2.654 0.85,-1.272 2,-2.165 1.151,-0.893 2.612,-1.294 1.462,-0.4 3.476,-0.11 2.014,0.289 3.854,1.566 1.841,1.277 2.594,2.155 0.752,0.878 1.56,2.248 0.808,1.37 1.469,3.891 0.662,2.521 0.548,5.163 -0.114,2.642 -0.809,4.58 -0.695,1.937 -1.538,3.157 -0.843,1.22 -1.781,2.001 -0.938,0.781 -1.676,1.126 -0.737,0.344 -1.189,0.459 -0.453,0.115 -0.959,0 l -0.561,0.056" /><path
     id="STROKE_7da7d700-0765-4ad2-b2be-3547e3973426"
     opacity="1"
     fill="none"
     stroke="#e66465"
     stroke-width="4"
     stroke-opacity="1"
     stroke-linecap="round"
     stroke-linejoin="round"
     d="m 8430.7389,2074.4055 0.44,-0.043 q 1.523,-0.281 2.078,-0.306 0.555,-0.026 1.322,0.102 0.767,0.127 1.259,0.481 0.491,0.355 0.676,0.592 0.184,0.237 0.571,1.035 0.387,0.798 0.781,2.849 0.393,2.05 0.405,4.688 0.013,2.637 0.289,4.19 0.07,0.043 3.718,-0.691 3.648,-0.734 11.337,-3.439" /><path
     id="STROKE_a8433719-5121-4ffc-a224-bb6738fdd5e7"
     opacity="1"
     fill="none"
     stroke="#e66465"
     stroke-width="4"
     stroke-opacity="1"
     stroke-linecap="round"
     stroke-linejoin="round"
     d="m 8389.0969,1621.0175 0.317,0.388 q 0.908,1.312 4.432,8.836 3.523,7.525 5.043,12.143 1.521,4.617 2.059,7.164 0.537,2.547 0.795,5.084 0.257,2.537 0.286,7.411 -0.063,-0.12 -0.58,-0.769" /><path
     id="STROKE_eed1798a-ed9b-4d61-b405-c57960f433ed"
     opacity="1"
     fill="none"
     stroke="#e66465"
     stroke-width="4"
     stroke-opacity="1"
     stroke-linecap="round"
     stroke-linejoin="round"
     d="m 8390.0299,1625.9265 q 0.253,-1.627 0.669,-2.726 0.417,-1.099 0.782,-1.646 0.366,-0.547 1.596,-1.457 1.229,-0.91 3.511,-1.402 2.282,-0.493 5.034,-0.052 2.753,0.441 5.162,1.748 2.409,1.308 4.074,3.062 1.665,1.754 2.531,4.148 0.864,2.394 0.768,4.859 -0.097,2.466 -0.829,4.277 -0.732,1.812 -2.246,3.505 -1.513,1.694 -4.427,3.04 -2.913,1.347 -6.517,2.045" /><path
     id="STROKE_b4c7eeaf-adb1-42f7-aa59-71b5faf87bbb"
     opacity="1"
     fill="none"
     stroke="#e66465"
     stroke-width="4"
     stroke-opacity="1"
     stroke-linecap="round"
     stroke-linejoin="round"
     d="m 8426.1899,1657.7385 q 0.319,-0.876 0.522,-1.336 0.202,-0.46 0.53,-0.97 0.328,-0.509 0.681,-0.869 0.353,-0.359 0.638,-0.677 0.286,-0.318 2.255,-1.654 1.97,-1.336 3.814,-1.663 1.843,-0.327 2.825,-0.096 0.982,0.232 1.427,0.492 0.444,0.261 1.09,1.391 0.645,1.131 0.865,2.168 0.219,1.037 0.21,2.385 -0.011,1.349 -0.064,2.248 -0.054,0.899 -0.129,1.542 0.304,0.117 1.744,0.675 1.441,0.559 2.551,1.053 1.111,0.494 1.703,1.018 0.593,0.524 0.831,0.962 0.239,0.437 0.332,1.017 0.093,0.579 -0.092,1.471 -0.185,0.893 -1.809,2.162 -1.623,1.269 -4.408,1.93 -2.786,0.662 -5.091,0.437 -2.305,-0.224 -4.22,-0.904 -1.914,-0.68 -3.464,-1.816 l -1.151,-1.009" /><path
     id="STROKE_0c627d50-9ba7-4a9c-b703-5acfbec139ba"
     opacity="1"
     fill="none"
     stroke="#e66465"
     stroke-width="4"
     stroke-opacity="1"
     stroke-linecap="round"
     stroke-linejoin="round"
     d="m 7281.2579,1662.2682 -0.168,-0.072 q -1.368,-0.832 -1.76,-0.965 -0.392,-0.133 -1.01,-0.351 -0.617,-0.219 -1.69,-0.369 -1.074,-0.151 -2.212,0.144 -1.139,0.296 -1.567,0.566 -0.429,0.271 -0.82,0.761 -0.391,0.489 -0.571,0.762 -0.18,0.273 -0.328,1.154 -0.149,0.881 -0.023,1.505 0.126,0.623 0.55,1.313 0.424,0.689 0.926,1.185 0.502,0.495 1.206,0.88 0.704,0.386 1.567,0.581 0.864,0.195 1.88,0.259 1.016,0.063 1.938,-0.097 0.921,-0.16 1.423,-0.392 0.502,-0.232 1.22,-0.772 0.719,-0.54 1.089,-1.092 0.371,-0.551 0.456,-0.761 0.086,-0.209 0.304,-0.355 0.219,-0.145 0.815,-4.402" /><path
     id="STROKE_7ebb5569-e756-4d66-a3d3-4dcba9e4cc0a"
     opacity="1"
     fill="none"
     stroke="#e66465"
     stroke-width="4"
     stroke-opacity="1"
     stroke-linecap="round"
     stroke-linejoin="round"
     d="m 7282.7129,2050.9292 q -0.683,-1.004 -1.654,-1.947 -0.972,-0.942 -2.407,-1.94 -1.435,-0.999 -1.557,-1.117 -0.122,-0.117 -1.935,-0.519 -1.813,-0.402 -3.069,-0.211 -1.256,0.192 -1.498,0.299 -0.241,0.108 -0.824,0.76 -0.583,0.653 -0.834,1.308 -0.252,0.656 -0.269,1.25 -0.017,0.594 -0.016,0.827 0,0.234 0.405,1.207 0.403,0.973 1.199,1.839 0.797,0.867 1.673,1.353 0.876,0.486 1.767,0.704 0.892,0.219 1.743,0.35 0.851,0.132 2.887,-0.212 2.036,-0.344 3.136,-0.845 1.1,-0.501 1.907,-1.237 0.808,-0.737 3.6,-5.099" /><path
     id="STROKE_900a83e9-1f26-4d4c-9e32-34b2ab2a01fe"
     opacity="1"
     fill="none"
     stroke="#e66465"
     stroke-width="4"
     stroke-opacity="1"
     stroke-linecap="round"
     stroke-linejoin="round"
     d="m 7667.4169,1665.0592 q -0.301,-0.409 -0.948,-1.884 -0.647,-1.476 -1.105,-2.296 -0.457,-0.82 -0.682,-1.096 -0.225,-0.277 -1.188,-1.263 -0.963,-0.986 -1.581,-1.238 -0.619,-0.252 -1.071,-0.286 -0.452,-0.035 -0.863,0.034 -0.412,0.07 -1.314,1.086 -0.903,1.016 -1.185,1.768 -0.283,0.752 -0.33,1.26 -0.047,0.508 0.125,1.649 0.172,1.141 0.347,1.498 0.176,0.358 0.536,0.794 0.36,0.437 1.557,1.339 1.196,0.902 2.827,1.372 1.631,0.47 2.024,0.533 0.392,0.063 1.047,0.068 0.655,0 3.346,-0.228" /><path
     id="STROKE_3ffd9601-7fe1-4eb8-a266-1bee60238254"
     opacity="1"
     fill="none"
     stroke="#e66465"
     stroke-width="4"
     stroke-opacity="1"
     stroke-linecap="round"
     stroke-linejoin="round"
     d="m 7670.2139,2051.8462 -0.901,-0.881 -0.172,-0.636 q -0.084,-0.234 -1.021,-1.921 -0.936,-1.687 -1.949,-2.702 -1.014,-1.014 -1.422,-1.265 -0.409,-0.251 -0.719,-0.364 -0.309,-0.112 -1.648,-0.22 -1.338,-0.109 -2.19,0.299 -0.853,0.408 -0.898,0.485 l -1.214,1.632 q -0.095,0.076 -0.487,2.415 -0.392,2.338 0,3.65 0.395,1.313 0.734,1.795 0.34,0.481 0.884,0.978 0.545,0.496 1.515,1.026 0.969,0.529 2.42,0.657 1.451,0.128 2.282,-0.01 0.832,-0.138 2.031,-0.917 1.199,-0.778 4.294,-4.122" /><path
     id="STROKE_088b7dbb-5259-4bf2-b0c6-0be43029cafd"
     opacity="1"
     fill="none"
     stroke="#e66465"
     stroke-width="4"
     stroke-opacity="1"
     stroke-linecap="round"
     stroke-linejoin="round"
     d="m 7982.9969,1654.3455 -0.168,-0.072 q -1.368,-0.832 -1.76,-0.965 -0.392,-0.133 -1.01,-0.351 -0.617,-0.219 -1.69,-0.37 -1.074,-0.15 -2.212,0.145 -1.139,0.296 -1.567,0.566 -0.429,0.271 -0.82,0.761 -0.391,0.489 -0.571,0.762 -0.18,0.273 -0.328,1.154 -0.149,0.881 -0.023,1.505 0.126,0.623 0.55,1.313 0.424,0.689 0.926,1.185 0.502,0.495 1.206,0.88 0.704,0.386 1.567,0.581 0.864,0.195 1.88,0.259 1.016,0.063 1.938,-0.097 0.921,-0.16 1.423,-0.392 0.502,-0.232 1.22,-0.772 0.719,-0.54 1.089,-1.092 0.371,-0.551 0.456,-0.761 0.086,-0.209 0.304,-0.355 0.219,-0.145 0.815,-4.402" /><path
     id="STROKE_9ce78288-a9b2-48ad-9bef-9c43d86039da"
     opacity="1"
     fill="none"
     stroke="#e66465"
     stroke-width="4"
     stroke-opacity="1"
     stroke-linecap="round"
     stroke-linejoin="round"
     d="m 7984.4519,2043.0065 q -0.683,-1.004 -1.654,-1.947 -0.972,-0.942 -2.407,-1.941 -1.435,-0.998 -1.557,-1.116 -0.122,-0.117 -1.935,-0.519 -1.813,-0.402 -3.069,-0.211 -1.256,0.192 -1.498,0.299 -0.241,0.108 -0.824,0.76 -0.583,0.653 -0.834,1.308 -0.252,0.656 -0.269,1.25 -0.017,0.594 -0.016,0.827 0,0.234 0.405,1.207 0.403,0.973 1.199,1.839 0.797,0.867 1.673,1.353 0.876,0.486 1.767,0.704 0.892,0.219 1.743,0.35 0.851,0.131 2.887,-0.212 2.036,-0.344 3.136,-0.845 1.1,-0.501 1.907,-1.238 0.808,-0.736 3.6,-5.098" /><path
     id="STROKE_f62223fc-7e97-427d-8e3d-4252e17808ee"
     opacity="1"
     fill="none"
     stroke="#e66465"
     stroke-width="4"
     stroke-opacity="1"
     stroke-linecap="round"
     stroke-linejoin="round"
     d="m 8369.1559,1657.1365 q -0.301,-0.409 -0.948,-1.884 -0.647,-1.476 -1.105,-2.296 -0.457,-0.82 -0.682,-1.096 -0.225,-0.277 -1.188,-1.263 -0.963,-0.986 -1.581,-1.238 -0.619,-0.252 -1.071,-0.286 -0.452,-0.035 -0.863,0.034 -0.412,0.07 -1.314,1.086 -0.903,1.016 -1.185,1.768 -0.283,0.752 -0.33,1.26 -0.047,0.508 0.125,1.649 0.172,1.141 0.347,1.498 0.176,0.358 0.536,0.794 0.36,0.436 1.557,1.339 1.196,0.902 2.827,1.372 1.631,0.47 2.024,0.533 0.392,0.063 1.047,0.068 0.655,0 3.346,-0.228" /><path
     id="STROKE_39b024fe-f31d-4dff-8e59-5f8dcdb142d6"
     opacity="1"
     fill="none"
     stroke="#e66465"
     stroke-width="4"
     stroke-opacity="1"
     stroke-linecap="round"
     stroke-linejoin="round"
     d="m 8371.9529,2043.9235 -0.901,-0.881 -0.172,-0.636 q -0.084,-0.234 -1.021,-1.921 -0.936,-1.687 -1.949,-2.702 -1.014,-1.014 -1.422,-1.265 -0.409,-0.251 -0.719,-0.364 -0.309,-0.112 -1.648,-0.221 -1.338,-0.108 -2.19,0.3 -0.853,0.408 -0.898,0.485 l -1.214,1.632 q -0.095,0.076 -0.487,2.415 -0.392,2.338 0,3.65 0.395,1.313 0.734,1.795 0.34,0.481 0.884,0.978 0.545,0.496 1.515,1.026 0.969,0.529 2.42,0.657 1.451,0.128 2.282,-0.01 0.832,-0.137 2.031,-0.916 1.199,-0.778 4.294,-4.122" /><path
     id="STROKE_58dc3a20-d335-49d4-abac-1e2c8d9d4de7"
     opacity="1"
     fill="none"
     stroke="#e66465"
     stroke-width="4"
     stroke-opacity="1"
     stroke-linecap="round"
     stroke-linejoin="round"
     d="m 7202.9889,2027.9962 -0.018,0.477 q -0.066,0.629 1.678,7.214 1.742,6.585 2.968,10.697 1.225,4.111 2.166,7.862 0.941,3.752 2.747,12.04 0.084,0.119 0.408,1.025" /><path
     id="STROKE_828f641c-7bff-4b99-9808-918a7d2ce1fd"
     opacity="1"
     fill="none"
     stroke="#e66465"
     stroke-width="4"
     stroke-opacity="1"
     stroke-linecap="round"
     stroke-linejoin="round"
     d="m 7199.8129,2031.8932 q 1.032,-2.952 2.677,-5.276 1.645,-2.324 4.053,-4.277 2.408,-1.953 4.224,-2.634 1.817,-0.682 3.035,-0.802 1.218,-0.12 2.226,0.016 1.008,0.135 5.277,4.018 4.268,3.883 4.763,5.728 0.496,1.845 0.46,3.038 -0.036,1.193 -0.909,3.371 -0.874,2.178 -3.184,5.018 -2.31,2.84 -3.625,4.14 -1.316,1.299 -2.284,2.057 -0.968,0.759 -1.661,1.141 -0.098,0.011 0.238,0.687" /><path
     id="STROKE_47adc023-0bee-49a5-b3a6-5265dfd07bcc"
     opacity="1"
     fill="none"
     stroke="#e66465"
     stroke-width="4"
     stroke-opacity="1"
     stroke-linecap="round"
     stroke-linejoin="round"
     d="m 7233.8679,2068.6142 q -0.673,-0.785 -1.666,-1.503 -0.992,-0.718 -1.518,-1.188 -0.527,-0.471 -1.399,-1.569 -0.871,-1.099 -1.376,-2.536 -0.505,-1.437 -0.499,-2.388 0.01,-0.951 0.33,-1.904 0.325,-0.954 1.37,-1.83 1.046,-0.876 2.165,-1.138 1.118,-0.262 2.196,-0.13 1.078,0.132 1.978,0.77 0.9,0.639 1.657,1.834 0.757,1.194 1.066,2.186 0.309,0.991 0.397,2 0.089,1.009 -0.095,2.321 -0.185,1.313 -0.6,2.148 -0.415,0.836 -1.163,1.76 -0.748,0.924 -5.722,2.887" /><path
     id="STROKE_8e244a28-53dc-4dc6-83c1-7c224822fd20"
     opacity="1"
     fill="none"
     stroke="#e66465"
     stroke-width="4"
     stroke-opacity="1"
     stroke-linecap="round"
     stroke-linejoin="round"
     d="m 7198.6599,1629.8702 0.04,0.386 q 0.036,0.553 2.52,7.425 2.483,6.872 3.975,10.909 1.492,4.037 2.654,7.498 1.162,3.46 2.998,10.319 0.091,0.028 -1.662,-1.993" /><path
     id="STROKE_824cc034-9617-4ed1-82b6-2b89701f4c6c"
     opacity="1"
     fill="none"
     stroke="#e66465"
     stroke-width="4"
     stroke-opacity="1"
     stroke-linecap="round"
     stroke-linejoin="round"
     d="m 7195.1849,1633.4752 q 0.032,-0.107 0.21,-1.393 0.178,-1.285 0.535,-2.396 0.356,-1.11 1.68,-2.994 1.324,-1.883 3.058,-3.161 1.735,-1.278 3.338,-1.845 1.603,-0.567 3.244,-0.708 1.64,-0.141 2.968,0.069 1.328,0.21 2.685,0.916 1.357,0.706 2.817,2.616 1.459,1.91 2.334,5.662 0.874,3.752 0.745,5.971 -0.128,2.219 -0.836,4.449 -0.709,2.23 -2.403,4.328 -1.695,2.099 -3.222,3.005 -1.528,0.905 -2.489,1.136 -0.962,0.23 -3.682,0.141" /><path
     id="STROKE_706e887d-e9c1-42ba-bcfe-bfc5742dc23d"
     opacity="1"
     fill="none"
     stroke="#e66465"
     stroke-width="4"
     stroke-opacity="1"
     stroke-linecap="round"
     stroke-linejoin="round"
     d="m 7231.8419,1667.1602 q 2.649,-8.094 3.019,-9.918 0.37,-1.823 0.474,-2.458 0.104,-0.636 -0.352,-0.725 -0.218,0.557 0.08,2.52 0.297,1.963 0.827,3.588 0.53,1.626 1.468,3.681 0.937,2.055 2.476,4.199 0.344,0.226 1.044,1.054" /><path
     id="STROKE_4dd87104-e1bc-4176-bd0a-7bff66fff027"
     opacity="1"
     fill="none"
     stroke="#e66465"
     stroke-width="4"
     stroke-opacity="1"
     stroke-linecap="round"
     stroke-linejoin="round"
     d="m 7693.0849,1599.2562 q 0.053,0.104 0.043,0.754 0.011,1.066 1.397,5.17 1.387,4.104 3.583,10.403 2.196,6.298 3.967,13.555 1.771,7.256 2.748,12.821 0.086,0.101 -1.133,-3.831" /><path
     id="STROKE_f571952e-fccd-46c6-8dbb-67cd3cd0f9fe"
     opacity="1"
     fill="none"
     stroke="#e66465"
     stroke-width="4"
     stroke-opacity="1"
     stroke-linecap="round"
     stroke-linejoin="round"
     d="m 7692.2109,1603.5142 q 0.105,-0.143 0.777,-1.986 0.672,-1.842 1.234,-2.85 0.561,-1.007 0.933,-1.524 0.372,-0.516 1.872,-1.815 1.5,-1.3 3.421,-2.083 1.922,-0.783 3.096,-0.94 1.173,-0.157 2.573,-0.084 1.399,0.073 2.197,0.241 0.798,0.169 3.596,1.748 2.799,1.579 4.455,3.363 1.656,1.783 2.762,3.848 1.106,2.065 1.526,4.775 0.421,2.71 0.204,4.373 -0.217,1.664 -1.167,3.685 -0.95,2.021 -3.139,3.87 -2.19,1.849 -3.884,2.44 -1.694,0.59 -2.562,0.663 -0.869,0.073 -1.526,-0.025 -0.658,-0.098 -0.979,-0.254 -0.322,-0.156 -0.606,-0.392 -0.283,-0.235 -0.455,-0.477 -0.171,-0.242 -0.547,-0.85" /><path
     id="STROKE_aff997e2-15f0-41d2-a6af-31a207a552f9"
     opacity="1"
     fill="none"
     stroke="#e66465"
     stroke-width="4"
     stroke-opacity="1"
     stroke-linecap="round"
     stroke-linejoin="round"
     d="m 7729.6049,1641.8162 q 0.144,-0.303 -0.252,-1.2 0.248,-1.696 1.053,-2.929 0.806,-1.233 1.724,-1.836 0.918,-0.603 1.669,-0.664 0.75,-0.061 1.048,-0.047 0.297,0.013 1.067,0.478 0.771,0.465 1.522,1.789 0.751,1.324 1.038,3.41 0.287,2.087 -0.314,5.637 -0.601,3.551 -0.999,5.828 -0.399,2.278 -0.215,3.681 0.53,0.171 4.105,0.068 3.575,-0.104 14.527,-1.665" /><path
     id="STROKE_6dc8dd92-8e72-4a6c-bfd1-708f153e80b6"
     opacity="1"
     fill="none"
     stroke="#e66465"
     stroke-width="4"
     stroke-opacity="1"
     stroke-linecap="round"
     stroke-linejoin="round"
     d="m 7701.6509,2012.4332 -0.102,0.726 q -0.06,0.317 2.814,14.756 2.875,14.439 7.901,29.774 0.157,0.06 -0.068,-0.103" /><path
     id="STROKE_d78ffe58-4c07-4fd1-92d5-86915b075b1c"
     opacity="1"
     fill="none"
     stroke="#e66465"
     stroke-width="4"
     stroke-opacity="1"
     stroke-linecap="round"
     stroke-linejoin="round"
     d="m 7702.9619,2016.3302 q 0.073,-0.166 0.179,-1.174 0.106,-1.009 0.436,-1.981 0.329,-0.973 0.551,-1.444 0.222,-0.471 0.627,-1.037 0.405,-0.566 0.987,-1.126 0.582,-0.56 1.108,-0.909 0.525,-0.349 0.946,-0.62 0.422,-0.271 2.965,-0.743 2.542,-0.471 4.243,-0.276 1.7,0.195 3.393,0.928 1.693,0.733 3.004,1.783 1.311,1.05 2.395,2.864 1.085,1.814 1.508,4.333 0.423,2.518 0.099,4.783 -0.324,2.266 -1.674,4.787 -1.351,2.52 -3.129,4.2 -1.779,1.68 -3.668,2.549 -1.889,0.868 -3.352,1.044 -1.463,0.175 -2.437,-0.069 -0.974,-0.243 -1.99,-0.949 l -0.849,-0.427" /><path
     id="STROKE_eaee1145-eebc-48a5-82d6-23032952e200"
     opacity="1"
     fill="none"
     stroke="#e66465"
     stroke-width="4"
     stroke-opacity="1"
     stroke-linecap="round"
     stroke-linejoin="round"
     d="m 7741.4859,2041.7902 q 0.152,-0.093 0.489,-0.63 0.336,-0.537 1.415,-1.597 1.078,-1.059 2.513,-2.027 1.436,-0.968 2.88,-1.421 1.444,-0.453 2.614,-0.354 1.17,0.1 1.737,0.326 0.566,0.225 1.159,0.773 0.593,0.548 1.116,1.94 0.523,1.393 0.472,2.956 -0.051,1.564 -0.554,2.943 -0.502,1.379 -0.804,1.953 -0.302,0.573 -0.553,0.7 0.156,-0.136 0.444,-0.262 0.288,-0.126 0.845,-0.176 0.558,-0.05 1.809,0.053 1.252,0.103 3.05,0.737 1.799,0.633 2.931,1.37 1.133,0.736 1.881,1.65 0.748,0.915 1.006,1.511 0.257,0.596 0.29,1.253 0.033,0.656 -0.18,1.412 -0.213,0.756 -0.716,1.566 -0.503,0.809 -1.825,1.876 -1.322,1.067 -3.476,1.856 -2.153,0.788 -4.2,0.923 -2.046,0.135 -3.362,-0.128 -1.316,-0.262 -2.182,-0.68 -0.865,-0.417 -1.692,-1.039 -0.827,-0.622 -1.997,-2.262 l -0.701,-1.076" /><path
     id="STROKE_f4e29675-7996-4c86-81e1-36a0873e60d5"
     opacity="1"
     fill="none"
     stroke="#e66465"
     stroke-width="4"
     stroke-opacity="1"
     stroke-linecap="round"
     stroke-linejoin="round"
     d="m 7906.6399,2031.5335 -0.05,1.066 q 0.159,0.965 1.012,4.324 0.854,3.36 1.862,7.101 1.008,3.741 2.565,9.078 1.557,5.337 2.497,8.138 0.941,2.8 1.785,4.848 0.845,2.048 1.275,2.93 0.431,0.883 0.95,1.717 0.125,0.02 -1.49,-2.411" /><path
     id="STROKE_88a77d70-d04b-4270-987a-066016eecea8"
     opacity="1"
     fill="none"
     stroke="#e66465"
     stroke-width="4"
     stroke-opacity="1"
     stroke-linecap="round"
     stroke-linejoin="round"
     d="m 7906.8589,2034.5705 q 0.045,-1.219 1.093,-4.187 1.048,-2.969 2.192,-4.457 1.144,-1.487 2.011,-2.035 0.867,-0.548 1.6,-0.743 0.732,-0.195 2.719,0.197 1.987,0.391 4.298,2.066 2.312,1.676 3.412,3.076 1.1,1.4 1.794,3.028 0.694,1.628 0.861,3.49 0.167,1.862 -0.586,4.215 -0.752,2.353 -2.477,4.385 -1.725,2.031 -3.256,2.965 -1.531,0.933 -2.769,1.225 -1.238,0.291 -1.934,0.242 -0.695,-0.049 -1.211,-0.167 -0.516,-0.119 -1.064,-0.467 -0.548,-0.348 -0.88,-0.635 -0.332,-0.286 -0.739,-0.66" /><path
     id="STROKE_913d033c-6501-4b99-b794-c1369c3c3929"
     opacity="1"
     fill="none"
     stroke="#e66465"
     stroke-width="4"
     stroke-opacity="1"
     stroke-linecap="round"
     stroke-linejoin="round"
     d="m 7949.9509,2064.2885 q -0.071,-0.833 -0.695,-2.453 -0.624,-1.62 -1.697,-3.061 -1.072,-1.44 -2.447,-2.314 -1.376,-0.874 -3.635,-0.846 -2.258,0.029 -2.983,0.641 -0.724,0.612 -1.229,2.441 -0.505,1.828 -0.247,3.578 0.258,1.75 1.416,3.545 1.159,1.795 2.494,2.681 1.334,0.886 2.817,1.126 1.483,0.24 2.741,-0.081 1.257,-0.32 2.612,-1.509 1.354,-1.188 4.308,-8.074" /><path
     id="STROKE_6be06cc4-fa29-4b36-8d09-5914ec7b85b7"
     opacity="1"
     fill="none"
     stroke="#e66465"
     stroke-width="4"
     stroke-opacity="1"
     stroke-linecap="round"
     stroke-linejoin="round"
     d="m 7912.1289,1634.6595 q 0.159,0.735 0.493,2.089 0.333,1.353 0.952,3.032 0.62,1.68 1.178,2.855 0.558,1.175 2.252,4.552 1.695,3.377 3.851,8.348 2.156,4.971 3.203,7.917 1.048,2.946 2.387,8.042 0.064,0.014 -0.674,-1.487" /><path
     id="STROKE_08f2c0b7-85c2-44d1-85ab-8b74decf63ce"
     opacity="1"
     fill="none"
     stroke="#e66465"
     stroke-width="4"
     stroke-opacity="1"
     stroke-linecap="round"
     stroke-linejoin="round"
     d="m 7912.5659,1636.5315 q 0.317,-0.572 1.09,-2.034 0.773,-1.462 1.798,-2.509 1.024,-1.048 2.451,-1.849 1.426,-0.801 3.407,-1.094 1.982,-0.293 3.473,-0.027 1.491,0.265 2.698,1.037 1.208,0.772 2.351,2.109 1.142,1.337 2.18,4.367 1.039,3.029 1.126,5.6 0.088,2.571 -0.445,4.957 -0.533,2.386 -1.829,4.552 -1.296,2.165 -2.185,3.12 -0.889,0.955 -2.182,1.77 -1.293,0.814 -2.963,1.2 -0.319,-0.062 -1.736,-0.065" /><path
     id="STROKE_c285300c-b75f-41ce-9c97-3199b1e818bc"
     opacity="1"
     fill="none"
     stroke="#e66465"
     stroke-width="4"
     stroke-opacity="1"
     stroke-linecap="round"
     stroke-linejoin="round"
     d="m 7942.8889,1668.9955 q 0.166,-0.592 0.696,-2.338 0.531,-1.745 0.793,-3.065 0.262,-1.32 0.353,-2.01 0.092,-0.69 0.114,-0.993 0.022,-0.302 -0.013,-0.493 -0.035,-0.19 -0.086,-0.179 -0.051,0.011 0.183,0.989 0.234,0.979 1.408,3.448 1.174,2.47 7.156,11.783" /><path
     id="STROKE_e87469db-0675-47b2-9bbf-55ec3fa1a2bb"
     opacity="1"
     fill="none"
     stroke="#e66465"
     stroke-width="4"
     stroke-opacity="1"
     stroke-linecap="round"
     stroke-linejoin="round"
     d="m 8399.1249,2042.7455 q 0.051,0.507 0.379,1.684 0.328,1.176 0.957,2.738 0.629,1.562 2.04,4.968 1.41,3.407 3.982,11.273 2.573,7.865 3.647,12.071 1.074,4.206 1.687,7.334 0.053,0 -1.572,-1.835" /><path
     id="STROKE_b8246975-e7e8-4303-a8aa-c01a65679f8e"
     opacity="1"
     fill="none"
     stroke="#e66465"
     stroke-width="4"
     stroke-opacity="1"
     stroke-linecap="round"
     stroke-linejoin="round"
     d="m 8399.8599,2049.2355 q 0.332,-1.624 0.779,-3.007 0.446,-1.383 1.296,-2.654 0.85,-1.272 2,-2.165 1.151,-0.893 2.612,-1.294 1.462,-0.4 3.476,-0.11 2.014,0.289 3.854,1.566 1.841,1.277 2.594,2.155 0.752,0.878 1.56,2.248 0.808,1.37 1.469,3.891 0.662,2.521 0.548,5.163 -0.114,2.642 -0.809,4.58 -0.695,1.937 -1.538,3.157 -0.843,1.22 -1.781,2.001 -0.938,0.781 -1.676,1.126 -0.737,0.344 -1.189,0.459 -0.453,0.115 -0.959,0 l -0.561,0.056" /><path
     id="STROKE_07bed0e1-93af-4179-8bc4-2f44eec7a28b"
     opacity="1"
     fill="none"
     stroke="#e66465"
     stroke-width="4"
     stroke-opacity="1"
     stroke-linecap="round"
     stroke-linejoin="round"
     d="m 8430.7389,2074.4055 0.44,-0.043 q 1.523,-0.281 2.078,-0.306 0.555,-0.026 1.322,0.102 0.767,0.127 1.259,0.481 0.491,0.355 0.676,0.592 0.184,0.237 0.571,1.035 0.387,0.798 0.781,2.849 0.393,2.05 0.405,4.688 0.013,2.637 0.289,4.19 0.07,0.043 3.718,-0.691 3.648,-0.734 11.337,-3.439" /><path
     id="STROKE_1dfdd373-fe8d-40e4-bb80-06044f821958"
     opacity="1"
     fill="none"
     stroke="#e66465"
     stroke-width="4"
     stroke-opacity="1"
     stroke-linecap="round"
     stroke-linejoin="round"
     d="m 8389.0969,1621.0175 0.317,0.388 q 0.908,1.312 4.432,8.836 3.523,7.525 5.043,12.143 1.521,4.617 2.059,7.164 0.537,2.547 0.795,5.084 0.257,2.537 0.286,7.411 -0.063,-0.12 -0.58,-0.769" /><path
     id="STROKE_c8876f94-989d-4caf-a17b-0f56f2f41472"
     opacity="1"
     fill="none"
     stroke="#e66465"
     stroke-width="4"
     stroke-opacity="1"
     stroke-linecap="round"
     stroke-linejoin="round"
     d="m 8390.0299,1625.9265 q 0.253,-1.627 0.669,-2.726 0.417,-1.099 0.782,-1.646 0.366,-0.547 1.596,-1.457 1.229,-0.91 3.511,-1.402 2.282,-0.493 5.034,-0.052 2.753,0.441 5.162,1.748 2.409,1.308 4.074,3.062 1.665,1.754 2.531,4.148 0.864,2.394 0.768,4.859 -0.097,2.466 -0.829,4.277 -0.732,1.812 -2.246,3.505 -1.513,1.694 -4.427,3.04 -2.913,1.347 -6.517,2.045" /><path
     id="STROKE_8a002cbf-9b68-4236-a624-3d312311177a"
     opacity="1"
     fill="none"
     stroke="#e66465"
     stroke-width="4"
     stroke-opacity="1"
     stroke-linecap="round"
     stroke-linejoin="round"
     d="m 8426.1899,1657.7385 q 0.319,-0.876 0.522,-1.336 0.202,-0.46 0.53,-0.97 0.328,-0.509 0.681,-0.869 0.353,-0.359 0.638,-0.677 0.286,-0.318 2.255,-1.654 1.97,-1.336 3.814,-1.663 1.843,-0.327 2.825,-0.096 0.982,0.232 1.427,0.492 0.444,0.261 1.09,1.391 0.645,1.131 0.865,2.168 0.219,1.037 0.21,2.385 -0.011,1.349 -0.064,2.248 -0.054,0.899 -0.129,1.542 0.304,0.117 1.744,0.675 1.441,0.559 2.551,1.053 1.111,0.494 1.703,1.018 0.593,0.524 0.831,0.962 0.239,0.437 0.332,1.017 0.093,0.579 -0.092,1.471 -0.185,0.893 -1.809,2.162 -1.623,1.269 -4.408,1.93 -2.786,0.662 -5.091,0.437 -2.305,-0.224 -4.22,-0.904 -1.914,-0.68 -3.464,-1.816 l -1.151,-1.009" /><path
     id="STROKE_3e574f01-855f-4a72-91ec-d5dc01983562"
     opacity="1"
     fill="none"
     stroke="#9198e5"
     stroke-width="4"
     stroke-opacity="1"
     stroke-linecap="round"
     stroke-linejoin="round"
     d="m 7280.4699,2050.3112 q -0.132,-0.13 -0.186,-0.168 -0.054,-0.039 -0.313,-0.316 -0.259,-0.277 -0.847,-0.74 -0.589,-0.463 -1.296,-0.804 -0.708,-0.341 -1.304,-0.441 -0.596,-0.1 -1.055,-0.038 -0.458,0.062 -0.648,0.274 -0.189,0.213 -0.207,0.37 -0.018,0.157 0,0.505 0.014,0.348 0.337,0.738 0.324,0.39 0.778,0.62 0.454,0.23 0.862,0.332 0.409,0.102 1.088,0.103 0.68,0 0.964,-0.064 0.283,-0.065 0.504,-0.202 0.219,-0.138 0.561,-0.529 0.342,-0.39 1.095,-1.789" /><path
     id="STROKE_b9e74c08-a7da-4341-89dd-e0e99548d64c"
     opacity="1"
     fill="none"
     stroke="#9198e5"
     stroke-width="4"
     stroke-opacity="1"
     stroke-linecap="round"
     stroke-linejoin="round"
     d="m 7668.6889,2052.8922 q -0.105,-0.227 -0.442,-0.681 -0.337,-0.454 -0.505,-0.677 -0.168,-0.223 -0.704,-0.576 -0.536,-0.352 -1.214,-0.495 -0.677,-0.144 -1.116,-0.087 -0.439,0.057 -0.601,0.206 -0.162,0.148 -0.277,0.754 -0.115,0.605 0.08,1.054 0.195,0.448 0.518,0.741 0.324,0.292 0.688,0.428 0.365,0.135 0.736,0.151 0.371,0.016 0.71,-0.05 0.339,-0.066 0.796,-0.299 0.457,-0.234 0.825,-0.54 0.368,-0.306 1.085,-0.976" /><path
     id="STROKE_a2101516-6869-4533-831b-6a28d7076c96"
     opacity="1"
     fill="none"
     stroke="#9198e5"
     stroke-width="4"
     stroke-opacity="1"
     stroke-linecap="round"
     stroke-linejoin="round"
     d="m 7979.6399,2041.3695 -0.05,-0.021 -0.051,-0.049 q -0.138,-0.153 -0.204,-0.23 -0.067,-0.076 -0.238,-0.144 -0.169,-0.069 -0.605,-0.106 -0.437,-0.038 -0.891,0.052 -0.454,0.091 -0.683,0.33 -0.23,0.239 -0.334,0.942 -0.104,0.703 0,1.148 0.103,0.444 0.375,0.765 0.271,0.321 0.475,0.366 0.204,0.044 0.629,-0.049 0.426,-0.093 0.93,-0.456 0.504,-0.362 0.664,-0.536 0.159,-0.173 0.27,-0.387 0.109,-0.213 0.112,-0.507 0,-0.294 -0.089,-0.525 -0.093,-0.231 -0.126,-0.264 -0.033,-0.033 -0.262,-0.294 -0.229,-0.26 -0.792,-0.504 -0.562,-0.245 -0.91,-0.224 -0.347,0.021 -0.463,0.316 -0.115,0.294 -0.01,0.595 0.107,0.302 0.248,0.484 0.14,0.182 0.35,0.291 0.211,0.109 0.418,0.138 0.208,0.029 0.277,-0.059 0.068,-0.088 0.062,-0.285 -0.01,-0.197 -0.419,-0.422 -0.414,-0.224 -0.641,-0.23 -0.227,-0.01 -1.343,0.012" /><path
     id="STROKE_b2ec0fde-0d88-433f-a4d7-e8ed02cd2806"
     opacity="1"
     fill="none"
     stroke="#9198e5"
     stroke-width="4"
     stroke-opacity="1"
     stroke-linecap="round"
     stroke-linejoin="round"
     d="m 8366.7669,1656.9715 q -0.082,-0.101 -0.618,-1.611 -0.042,-0.034 -0.471,-0.551 -0.43,-0.518 -0.682,-0.641 -0.253,-0.122 -0.447,-0.163 -0.195,-0.041 -0.351,0.047 -0.156,0.088 -0.326,0.595 -0.17,0.508 -0.129,0.853 0.04,0.345 0.128,0.625 0.088,0.28 0.244,0.458 0.156,0.177 0.69,0.296 0.533,0.12 0.905,0.074 0.372,-0.046 0.842,-0.346 0.47,-0.3 0.742,-0.905 0.272,-0.604 0.288,-1.228 0.017,-0.624 -0.195,-1.034 -0.212,-0.409 -0.412,-0.573 -0.199,-0.164 -0.343,-0.193 -0.145,-0.029 -0.237,-0.01 -0.092,0.02 -0.17,0.106 -0.077,0.085 -0.132,0.23 -0.055,0.145 -0.08,0.561 -0.027,0.416 0.055,0.765 0.083,0.349 0.792,1.395" /><path
     id="STROKE_af48056a-108e-40c3-9e9e-8e80728b77ee"
     opacity="1"
     fill="none"
     stroke="#9198e5"
     stroke-width="4"
     stroke-opacity="1"
     stroke-linecap="round"
     stroke-linejoin="round"
     d="m 7345.8859,1829.1352 -0.109,-0.055 q -0.176,-0.123 -0.327,-0.191 -0.15,-0.068 -0.491,-0.145 -0.341,-0.077 -0.715,-0.047 -0.373,0.03 -0.512,0.081 -0.14,0.051 -0.364,0.267 -0.223,0.217 -0.305,0.519 -0.081,0.302 -0.045,0.532 0.037,0.23 0.097,0.324 0.06,0.095 0.133,0.163 0.073,0.067 0.177,0.124 0.105,0.057 0.438,0.103 0.334,0.047 0.605,-0.133 0.271,-0.18 0.4,-0.401 0.13,-0.222 0.154,-0.376 0.023,-0.154 -0.021,-0.238 -0.045,-0.084 -0.184,-0.221 -0.139,-0.137 -0.336,-0.245 -0.198,-0.108 -0.502,-0.204 -0.086,0.078 -0.501,0.011" /><path
     id="STROKE_47a1fd58-ff9f-4dba-9ca1-b64e44cee9cc"
     opacity="1"
     fill="none"
     stroke="#9198e5"
     stroke-width="4"
     stroke-opacity="1"
     stroke-linecap="round"
     stroke-linejoin="round"
     d="m 7410.4559,1774.9332 q -0.225,-0.282 -0.323,-0.384 l -0.118,-0.126 q -0.536,-0.376 -0.85,-0.496 -0.315,-0.119 -0.979,-0.151 -0.664,-0.032 -0.92,0.1 -0.255,0.131 -0.436,0.328 -0.181,0.197 -0.273,0.516 -0.091,0.319 -0.064,0.562 0.028,0.244 0.151,0.413 0.123,0.169 0.551,0.254 0.428,0.084 0.806,0.022 0.378,-0.062 0.766,-0.354 0.387,-0.292 0.529,-0.557 0.142,-0.264 0.184,-0.445 0.042,-0.182 -0.116,-0.567 -0.158,-0.385 -0.435,-0.552 -0.278,-0.167 -0.445,-0.191 -0.166,-0.025 -0.303,0.01 -0.137,0.034 -0.948,0.59" /><path
     id="STROKE_786e8538-98e9-4cb1-a069-4ebde580457d"
     opacity="1"
     fill="none"
     stroke="#9198e5"
     stroke-width="4"
     stroke-opacity="1"
     stroke-linecap="round"
     stroke-linejoin="round"
     d="m 7470.3509,1760.8112 -0.036,-0.218 -0.025,-0.132 -0.105,-0.192 q -0.066,-0.161 -0.387,-0.462 -0.322,-0.302 -0.735,-0.373 -0.414,-0.07 -0.818,-0.04 -0.404,0.031 -0.924,0.52 -0.521,0.49 -0.689,0.822 -0.169,0.333 -0.224,0.648 -0.055,0.315 -0.01,0.793 0.046,0.477 0.151,0.694 0.105,0.216 0.252,0.352 0.146,0.136 0.767,0.364 0.622,0.228 1.166,0.214 0.545,-0.015 0.816,-0.082 0.271,-0.068 0.736,-0.38 0.465,-0.312 0.674,-1.098 0.208,-0.786 0.044,-1.142 -0.165,-0.355 -1.175,-0.677 -1.01,-0.322 -1.369,0.134" /><path
     id="STROKE_7b85e797-76da-4f79-9825-ff707ec6a05f"
     opacity="1"
     fill="none"
     stroke="#9198e5"
     stroke-width="4"
     stroke-opacity="1"
     stroke-linecap="round"
     stroke-linejoin="round"
     d="m 7536.0309,1774.4462 -0.11,-0.147 -0.134,-0.117 q -0.775,-0.429 -0.998,-0.469 -0.223,-0.04 -0.399,-0.012 -0.177,0.029 -0.287,0.212 -0.11,0.183 -0.095,0.369 0.015,0.185 0.082,0.334 0.068,0.149 0.205,0.27 0.136,0.121 0.641,0.241 0.504,0.12 0.713,0.128 0.209,0.01 0.272,-0.016 0.063,-0.022 0.145,-0.081 0.082,-0.058 0.165,-0.216 0.188,-0.066 -1.02,-1.227 -0.01,-0.096 -0.337,-0.555" /><path
     id="STROKE_fc1fa724-e7df-471e-b697-6595679374e0"
     opacity="1"
     fill="none"
     stroke="#9198e5"
     stroke-width="4"
     stroke-opacity="1"
     stroke-linecap="round"
     stroke-linejoin="round"
     d="m 7601.6289,1830.6262 q -0.153,-0.16 -0.412,-0.581 -0.26,-0.42 -0.343,-0.525 -0.083,-0.106 -0.309,-0.278 -0.227,-0.172 -0.434,-0.212 -0.207,-0.041 -0.271,-0.033 -0.064,0.01 -0.171,0.095 -0.109,0.086 -0.167,0.403 -0.059,0.317 -0.014,0.556 0.045,0.24 0.107,0.346 0.062,0.106 0.177,0.223 0.116,0.117 0.119,0.136 0,0.02 0.285,0.155 0.282,0.135 0.67,0.158 0.388,0.024 0.546,-0.052 0.158,-0.076 0.248,-0.144 0.089,-0.069 0.172,-0.158 0.084,-0.088 0.705,-0.864" /><path
     id="STROKE_e6e9de5f-dec8-4983-9fdf-0f8aff7291ba"
     opacity="1"
     fill="none"
     stroke="#9198e5"
     stroke-width="4"
     stroke-opacity="1"
     stroke-linecap="round"
     stroke-linejoin="round"
     d="m 7648.6569,1919.5652 q -0.018,-0.01 -0.182,-0.4 l -0.144,-0.235 -0.249,-0.296 q -1.542,-1.019 -1.95,-1.082 -0.408,-0.064 -0.595,-0.034 -0.187,0.03 -0.31,0.087 -0.124,0.056 -0.291,0.232 -0.168,0.176 -0.264,0.352 -0.095,0.176 -0.15,0.395 -0.056,0.219 0,0.772 0.052,0.553 0.15,0.704 0.097,0.151 0.364,0.476 0.267,0.325 0.873,0.553 0.607,0.227 1.105,0.179 0.497,-0.047 0.777,-0.149 0.28,-0.102 0.529,-0.264 0.249,-0.161 0.465,-0.496 0.217,-0.335 0.4,-1.294 l 0.16,-1" /><path
     id="STROKE_f03622ec-5616-4738-b126-aa251f7f9295"
     opacity="1"
     fill="none"
     stroke="#9198e5"
     stroke-width="4"
     stroke-opacity="1"
     stroke-linecap="round"
     stroke-linejoin="round"
     d="m 7299.7179,1919.0052 -0.169,-0.034 q -0.16,-0.113 -0.358,-0.302 -0.2,-0.188 -0.572,-0.422 -0.371,-0.234 -0.643,-0.324 -0.271,-0.091 -0.715,-0.121 -0.443,-0.031 -0.804,0.141 -0.362,0.171 -0.626,0.811 -0.265,0.641 -0.243,1.132 0.022,0.492 0.13,0.703 0.108,0.21 0.355,0.333 0.248,0.123 0.466,0.133 0.218,0.01 0.318,0.017 0.1,0.01 0.369,-0.188 0.269,-0.196 0.473,-0.441 0.205,-0.245 1.382,-2.205" /><path
     id="STROKE_a2047773-a019-4bad-9441-b00084cfe592"
     opacity="1"
     fill="none"
     stroke="#9198e5"
     stroke-width="4"
     stroke-opacity="1"
     stroke-linecap="round"
     stroke-linejoin="round"
     d="m 8004.6129,1923.8945 q -1.308,-0.619 -1.458,-0.683 -0.149,-0.064 -0.827,-0.18 -0.678,-0.116 -1.289,0.014 -0.61,0.13 -0.813,0.23 -0.202,0.1 -0.68,0.544 -0.477,0.443 -0.73,0.905 -0.253,0.461 -0.329,1.114 -0.076,0.653 0.039,1.133 0.114,0.48 0.429,0.863 0.315,0.384 1.029,0.567 0.713,0.183 1.241,0.1 0.528,-0.082 1.007,-0.458 0.479,-0.375 0.734,-0.808 0.255,-0.434 0.336,-0.749 0.08,-0.316 0.115,-0.402 0.034,-0.086 0.029,-0.62 -0.01,-0.534 -0.089,-0.851 -0.084,-0.316 -0.225,-0.631 -0.141,-0.316 -0.373,-0.663 -0.232,-0.347 -0.763,-0.796 l -0.847,-0.84" /><path
     id="STROKE_b3acf486-4a61-4a6c-a869-610248b36a3c"
     opacity="1"
     fill="none"
     stroke="#9198e5"
     stroke-width="4"
     stroke-opacity="1"
     stroke-linecap="round"
     stroke-linejoin="round"
     d="m 8044.5949,1873.6155 -0.302,-0.408 q -1.01,-0.757 -1.42,-0.947 -0.409,-0.189 -0.816,-0.254 -0.407,-0.064 -0.817,-0.029 -0.41,0.035 -0.814,0.23 -0.405,0.194 -0.698,0.457 -0.293,0.264 -0.472,1.139 -0.18,0.875 -0.117,1.369 0.062,0.494 0.296,0.788 0.236,0.294 0.497,0.429 0.261,0.134 0.605,0.178 0.344,0.045 0.793,-0.078 0.449,-0.122 0.853,-0.469 0.406,-0.347 0.566,-0.79 0.16,-0.442 0.188,-0.78 0.028,-0.338 -0.101,-0.672 -0.129,-0.334 -0.29,-0.517 -0.161,-0.184 -0.32,-0.336 -0.157,-0.151 -0.434,-0.261 -0.277,-0.11 -0.462,-0.17 -0.185,-0.059 -0.443,-0.018 -0.259,0.041 -0.345,0.117 -0.085,0.077 -0.846,0.397" /><path
     id="STROKE_55d71ad2-e7bd-4b84-aa42-b5c9f9ac0bd5"
     opacity="1"
     fill="none"
     stroke="#9198e5"
     stroke-width="4"
     stroke-opacity="1"
     stroke-linecap="round"
     stroke-linejoin="round"
     d="m 8107.0369,1857.1065 q -0.563,-0.415 -0.802,-0.522 -0.239,-0.108 -0.648,-0.183 -0.41,-0.075 -0.539,-0.081 -0.129,-0.01 -0.271,0.067 -0.141,0.073 -0.213,0.186 -0.071,0.112 -0.12,0.333 -0.049,0.222 0.012,0.387 0.061,0.164 0.201,0.266 0.139,0.102 0.31,0.158 0.17,0.056 0.548,0.02 0.378,-0.036 0.51,-0.193 0.132,-0.157 0.222,-0.331 0.09,-0.173 0.119,-0.417 0.028,-0.242 -0.021,-0.369 -0.05,-0.127 -0.361,-0.472 -0.31,-0.346 -1.084,-0.617 -0.165,0.087 -0.645,0.122" /><path
     id="STROKE_3fd3949c-6610-48bc-b11d-a6c045c3bbc1"
     opacity="1"
     fill="none"
     stroke="#9198e5"
     stroke-width="4"
     stroke-opacity="1"
     stroke-linecap="round"
     stroke-linejoin="round"
     d="m 8171.0839,1847.8265 -0.208,0.042 q -0.01,-0.052 -0.146,-0.316 -0.138,-0.264 -0.238,-0.409 -0.099,-0.145 -0.179,-0.201 -0.08,-0.056 -0.243,-0.119 -0.164,-0.063 -0.396,-0.062 -0.232,10e-4 -0.374,0.244 -0.142,0.244 -0.168,0.479 -0.025,0.235 0.01,0.497 0.032,0.262 0.128,0.391 0.098,0.13 0.292,0.251 0.196,0.12 0.41,0.189 0.214,0.069 0.526,0.108 0.313,0.04 0.459,-0.075 0.145,-0.115 0.207,-0.214 0.061,-0.098 0.13,-0.298 0.069,-0.2 0.064,-0.318 -0.01,-0.118 -0.092,-0.239 -0.086,-0.121 -0.086,-0.142 0,-0.022 -0.157,-0.093 -0.155,-0.07 -0.353,-0.068 -0.198,0 -0.301,0.141 -0.102,0.139 -0.474,0.469" /><path
     id="STROKE_f712a10c-0fd3-47f1-97f5-94fb6f5de9ec"
     opacity="1"
     fill="none"
     stroke="#9198e5"
     stroke-width="4"
     stroke-opacity="1"
     stroke-linecap="round"
     stroke-linejoin="round"
     d="m 8237.9989,1851.0185 q -0.707,-1.005 -0.898,-1.25 -0.19,-0.245 -0.34,-0.377 -0.151,-0.133 -0.4,-0.304 -0.249,-0.172 -0.468,-0.283 -0.218,-0.11 -0.671,-0.233 -0.452,-0.122 -0.733,-0.122 -0.282,0 -0.411,0.062 -0.128,0.063 -0.242,0.421 -0.113,0.359 -0.089,0.502 0.024,0.143 0.225,0.409 0.201,0.267 0.791,0.463 0.59,0.196 0.937,0.144 0.347,-0.052 0.489,-0.185 0.142,-0.132 0.219,-0.264 0.077,-0.131 0.12,-0.258 0.043,-0.128 0.049,-0.322 0.01,-0.194 -0.11,-0.375 -0.117,-0.181 -0.37,-0.313 -0.252,-0.132 -0.513,-0.143 -0.261,-0.01 -0.46,0.071 -0.199,0.081 -0.439,0.232 -0.239,0.151 -1.214,0.688" /><path
     id="STROKE_e2994a02-bb0f-41c8-b43a-568411b356ef"
     opacity="1"
     fill="none"
     stroke="#9198e5"
     stroke-width="4"
     stroke-opacity="1"
     stroke-linecap="round"
     stroke-linejoin="round"
     d="m 8306.4339,1827.3415 -0.136,-0.121 q -0.314,-0.519 -0.506,-0.818 -0.193,-0.298 -0.355,-0.418 -0.163,-0.12 -0.333,-0.21 -0.171,-0.091 -0.317,-0.132 -0.146,-0.041 -0.366,-0.039 -0.221,0 -0.34,0.134 -0.118,0.131 -0.122,0.173 0,0.041 -0.035,0.166 -0.032,0.124 0.11,0.259 0.143,0.136 0.273,0.205 0.13,0.07 0.29,0.113 0.161,0.042 0.384,0.03 0.224,-0.013 0.337,-0.091 0.113,-0.078 0.176,-0.162 0.064,-0.084 0.093,-0.156 0.028,-0.073 0.041,-0.173 0.013,-0.101 0,-0.208 -0.017,-0.107 -0.136,-0.227 -0.12,-0.121 -0.278,-0.162 -0.159,-0.04 -0.236,-0.027 -0.076,0.012 -0.188,0.082 -0.112,0.071 -0.195,0.21 -0.084,0.139 -0.192,0.315 -0.109,0.176 -0.147,1.103 l 0.378,0.779" /><path
     id="STROKE_e9ca0240-f041-4197-a415-5d8f5cbc5494"
     opacity="1"
     fill="none"
     stroke="#9198e5"
     stroke-width="4"
     stroke-opacity="1"
     stroke-linecap="round"
     stroke-linejoin="round"
     d="m 8351.3919,1765.3575 q -0.123,-0.18 -0.21,-0.728 -0.065,-0.079 -0.355,-0.678 -0.289,-0.598 -0.736,-1.026 -0.448,-0.427 -0.538,-0.482 -0.091,-0.054 -0.269,-0.117 -0.179,-0.062 -0.609,-0.069 -0.43,-0.01 -0.884,0.523 -0.455,0.529 -0.576,0.947 -0.122,0.418 -0.084,0.887 0.038,0.47 0.116,0.739 0.079,0.27 0.287,0.474 0.209,0.204 0.828,0.317 0.619,0.112 1.05,0.016 0.431,-0.096 0.835,-0.373 0.405,-0.276 0.645,-0.525 0.241,-0.249 0.533,-0.91 0.291,-0.662 0.312,-1.268 0.022,-0.606 -0.165,-0.901 -0.186,-0.295 -0.632,-0.52 -0.446,-0.224 -0.788,-0.201 -0.343,0.024 -0.688,0.291 -0.346,0.268 -0.598,0.977" /><path
     id="STROKE_b4f77b51-d345-416d-9f2b-b154d255bca3"
     opacity="1"
     fill="none"
     stroke="#9198e5"
     stroke-width="2"
     stroke-opacity="1"
     stroke-linecap="round"
     stroke-linejoin="round"
     d="m 7279.3149,2041.7842 14.48,-116.55" /><path
     id="STROKE_18b3a51a-75f3-4500-8482-2d0b8f7833eb"
     opacity="1"
     fill="none"
     stroke="#9198e5"
     stroke-width="2"
     stroke-opacity="1"
     stroke-linecap="round"
     stroke-linejoin="round"
     d="m 7298.3919,1911.9542 40.697,-76.492" /><path
     id="STROKE_8c391fb4-a3f5-47b9-ab0f-32da92335d26"
     opacity="1"
     fill="none"
     stroke="#9198e5"
     stroke-width="2"
     stroke-opacity="1"
     stroke-linecap="round"
     stroke-linejoin="round"
     d="m 7347.2459,1823.1942 54.031,-45.189" /><path
     id="STROKE_53f2eaa3-d6e2-42a7-96e0-3407ddc9b134"
     opacity="1"
     fill="none"
     stroke="#9198e5"
     stroke-width="2"
     stroke-opacity="1"
     stroke-linecap="round"
     stroke-linejoin="round"
     d="m 7416.1419,1771.1632 44.728,-10.474" /><path
     id="STROKE_053c52c1-5433-4578-b402-a3eab716e191"
     opacity="1"
     fill="none"
     stroke="#9198e5"
     stroke-width="2"
     stroke-opacity="1"
     stroke-linecap="round"
     stroke-linejoin="round"
     d="m 7479.0289,1761.2112 50.17,8.898" /><path
     id="STROKE_5e6cf4be-83f2-46cf-9e3c-16f3943b668b"
     opacity="1"
     fill="none"
     stroke="#9198e5"
     stroke-width="2"
     stroke-opacity="1"
     stroke-linecap="round"
     stroke-linejoin="round"
     d="m 7540.7329,1777.9122 55.516,46.857" /><path
     id="STROKE_41ea7ef0-b485-4c43-a13a-78f2e8be5ad2"
     opacity="1"
     fill="none"
     stroke="#9198e5"
     stroke-width="2"
     stroke-opacity="1"
     stroke-linecap="round"
     stroke-linejoin="round"
     d="m 7606.4689,1836.0772 37.368,74.908" /><path
     id="STROKE_855967e3-26f5-4fdd-9a85-30c682acd71d"
     opacity="1"
     fill="none"
     stroke="#9198e5"
     stroke-width="2"
     stroke-opacity="1"
     stroke-linecap="round"
     stroke-linejoin="round"
     d="m 7648.6499,1927.0292 15.578,111.511" /><path
     id="STROKE_a21b7423-0463-4757-99b2-61bc1ed7a4a0"
     opacity="1"
     fill="none"
     stroke="#9198e5"
     stroke-width="2"
     stroke-opacity="1"
     stroke-linecap="round"
     stroke-linejoin="round"
     d="m 7979.4399,2033.2955 16.557,-100.236" /><path
     id="STROKE_a79bc1e8-4ce4-4b7d-9ebe-ea03ec0a928d"
     opacity="1"
     fill="none"
     stroke="#9198e5"
     stroke-width="2"
     stroke-opacity="1"
     stroke-linecap="round"
     stroke-linejoin="round"
     d="m 8006.0999,1915.0645 28.64,-34.725" /><path
     id="STROKE_abecdc3b-6f1f-450d-a071-6605d69bf75b"
     opacity="1"
     fill="none"
     stroke="#9198e5"
     stroke-width="2"
     stroke-opacity="1"
     stroke-linecap="round"
     stroke-linejoin="round"
     d="m 8050.8569,1868.9665 45.417,-11.843" /><path
     id="STROKE_36cbcd8c-9c89-4afc-b777-b4f7777594bf"
     opacity="1"
     fill="none"
     stroke="#9198e5"
     stroke-width="2"
     stroke-opacity="1"
     stroke-linecap="round"
     stroke-linejoin="round"
     d="m 8113.2979,1855.3355 47.059,-6.197" /><path
     id="STROKE_284535de-c184-409b-a277-0d1878ac6bc5"
     opacity="1"
     fill="none"
     stroke="#9198e5"
     stroke-width="2"
     stroke-opacity="1"
     stroke-linecap="round"
     stroke-linejoin="round"
     d="m 8177.2779,1848.0085 49.788,1.13" /><path
     id="STROKE_b456745d-2c29-4676-a799-d513e67a2a91"
     opacity="1"
     fill="none"
     stroke="#9198e5"
     stroke-width="2"
     stroke-opacity="1"
     stroke-linecap="round"
     stroke-linejoin="round"
     d="m 8245.4609,1848.4785 54.2,-17.389" /><path
     id="STROKE_65cb75e6-a8b1-4d96-a5f4-ca3a595dd640"
     opacity="1"
     fill="none"
     stroke="#9198e5"
     stroke-width="2"
     stroke-opacity="1"
     stroke-linecap="round"
     stroke-linejoin="round"
     d="m 8312.3509,1820.0955 30.282,-46.143" /><path
     id="STROKE_fb83cd8a-4e91-48d4-9412-d82f1580f7b9"
     opacity="1"
     fill="none"
     stroke="#9198e5"
     stroke-width="2"
     stroke-opacity="1"
     stroke-linecap="round"
     stroke-linejoin="round"
     d="m 8363.6889,1666.3425 -12.224,87.914" /></g></svg>
