<?xml version="1.0" encoding="UTF-8" standalone="no"?>
<svg
   version="1.1"
   xml:space="preserve"
   x="0px"
   y="0px"
   viewBox="0 0 960 480"
   id="svg1"
   sodipodi:docname="bezier-derivative.svg"
   inkscape:version="1.3.2 (091e20ef0f, 2023-11-25, custom)"
   xmlns:inkscape="http://www.inkscape.org/namespaces/inkscape"
   xmlns:sodipodi="http://sodipodi.sourceforge.net/DTD/sodipodi-0.dtd"
   xmlns="http://www.w3.org/2000/svg"
   xmlns:svg="http://www.w3.org/2000/svg"><defs
   id="defs1" /><sodipodi:namedview
   id="namedview1"
   pagecolor="#505050"
   bordercolor="#eeeeee"
   borderopacity="1"
   inkscape:showpageshadow="0"
   inkscape:pageopacity="0"
   inkscape:pagecheckerboard="0"
   inkscape:deskcolor="#d1d1d1"
   inkscape:zoom="1.3906433"
   inkscape:cx="416.35406"
   inkscape:cy="274.33346"
   inkscape:window-width="2560"
   inkscape:window-height="1600"
   inkscape:window-x="0"
   inkscape:window-y="0"
   inkscape:window-maximized="0"
   inkscape:current-layer="svg1"
   showgrid="false" />
<g
   id="Derivative"
   opacity="1"
   transform="matrix(0.47867127,0,0,0.47867127,-1027.6628,-1060.7662)"><path
     id="STROKE_ec599dc8-190d-4b53-b15e-1e5a423cbdd6"
     opacity="1"
     fill="none"
     stroke="#e66465"
     stroke-width="4"
     stroke-opacity="1"
     stroke-linecap="round"
     stroke-linejoin="round"
     d="m 2552.883,2709.194 -0.895,-0.194 q -0.226,-0.067 -2.587,-1.067 -2.362,-1.001 -3.749,-1.19 -1.387,-0.188 -2.92,0.116 -1.533,0.304 -2.572,1.216 -1.039,0.913 -1.505,2.364 -0.467,1.453 -0.213,3.333 0.253,1.881 0.629,2.792 0.377,0.912 0.975,1.838 0.599,0.926 1.766,1.982 1.166,1.057 2.496,1.77 1.331,0.712 1.92,0.871 0.589,0.159 1.146,0.181 0.556,0.022 1.805,-0.249 1.25,-0.27 1.973,-0.724 0.723,-0.453 1.042,-0.779 0.319,-0.327 0.724,-0.92 0.405,-0.593 0.803,-2.338 0.398,-1.745 0.507,-6.833" /><path
     id="STROKE_11ab6083-cd7a-4188-b0fa-630b9d026e7b"
     opacity="1"
     fill="none"
     stroke="#e66465"
     stroke-width="4"
     stroke-opacity="1"
     stroke-linecap="round"
     stroke-linejoin="round"
     d="m 2959.794,2775.442 -0.795,0.219 q -0.535,0.128 -2.592,-0.201 -2.056,-0.328 -3.419,-0.389 -1.363,-0.061 -2.884,0.337 -1.521,0.398 -3.135,1.682 -1.615,1.284 -2.411,2.743 -0.796,1.458 -0.797,3.126 0,1.669 0.262,2.388 0.261,0.719 1.073,1.692 0.811,0.972 1.625,1.552 0.814,0.58 2.724,1.065 1.911,0.485 3.279,0.265 1.368,-0.22 2.264,-0.661 0.897,-0.441 1.777,-1.302 0.881,-0.86 1.641,-2.088 0.761,-1.228 0.911,-1.718 0.15,-0.491 0.294,-0.893 0.145,-0.403 0.16,-2.957 0.015,-2.554 -1.491,-6.478 l -1.462,-2.713" /><path
     id="STROKE_cb0d178e-a272-414a-9afb-c05d6940df89"
     opacity="1"
     fill="none"
     stroke="#e66465"
     stroke-width="4"
     stroke-opacity="1"
     stroke-linecap="round"
     stroke-linejoin="round"
     d="m 2553.763,3155.794 q -0.211,0.01 -2.659,-0.866 -2.449,-0.872 -4.521,-1.194 -2.072,-0.322 -3.101,-0.271 -1.029,0.052 -1.744,0.184 -0.715,0.133 -1.113,0.307 -0.397,0.173 -0.529,0.181 -0.132,0.01 -2.591,3.823 -2.459,3.814 -2.355,4.714 0.104,0.9 0.642,2.022 0.538,1.123 2.134,2.741 1.597,1.618 2.916,2.184 1.319,0.565 2.273,0.707 0.954,0.141 3.197,-1.13 2.243,-1.271 3.343,-2.595 1.099,-1.324 1.576,-2.062 0.477,-0.739 1.196,-2.267 0.719,-1.528 1.015,-2.667 0.295,-1.139 0.736,-5.171" /><path
     id="STROKE_9b968b73-4eb0-4c49-a23f-184966bfc856"
     opacity="1"
     fill="none"
     stroke="#e66465"
     stroke-width="4"
     stroke-opacity="1"
     stroke-linecap="round"
     stroke-linejoin="round"
     d="m 2570.639,3092.431 -0.763,1.809 -0.205,1.141 q -0.385,0.955 0.503,40.926 l 0.673,-0.559" /><path
     id="STROKE_b8164636-ee63-4b63-8a97-19ac04572757"
     opacity="1"
     fill="none"
     stroke="#e66465"
     stroke-width="4"
     stroke-opacity="1"
     stroke-linecap="round"
     stroke-linejoin="round"
     d="m 2569.796,3092.956 q 0.065,-0.102 0.583,-1.243 1.735,-2.177 2.421,-2.585 0.685,-0.408 1.686,-0.663 1,-0.255 2.383,0.081 1.383,0.337 2.325,0.976 0.941,0.639 2.001,1.604 1.06,0.965 2.301,2.709 1.24,1.744 2.099,4.205 0.858,2.461 0.861,4.468 0,2.008 -0.695,4.206 -0.698,2.198 -2.686,4.685 -1.988,2.488 -3.779,3.72 -1.792,1.231 -3.186,1.754 -1.394,0.522 -2.226,0.67 -0.831,0.148 -1.691,0.042 l -0.344,0.18 -0.534,0.33" /><path
     id="STROKE_fb45b112-f263-41c4-a191-179887a9e4ba"
     opacity="1"
     fill="none"
     stroke="#e66465"
     stroke-width="4"
     stroke-opacity="1"
     stroke-linecap="round"
     stroke-linejoin="round"
     d="m 2607.755,3140.666 q -0.125,-0.521 -0.405,-1.363 -0.281,-0.842 -0.889,-2.269 -0.607,-1.427 -1.387,-2.634 -0.779,-1.207 -1.129,-1.64 -0.349,-0.432 -1.299,-1.309 -0.949,-0.877 -2.67,-1.464 -1.721,-0.588 -3.079,-0.473 -1.357,0.114 -2.484,0.982 -1.126,0.868 -1.838,2.539 -0.712,1.67 -0.559,3.11 0.153,1.44 1.135,2.626 0.982,1.185 2.125,1.76 1.143,0.574 1.911,0.717 0.767,0.143 1.779,0.098 1.013,-0.045 1.563,-0.225 0.55,-0.179 7.526,-4.317" /><path
     id="STROKE_3b982fcb-11c2-4029-8b0b-e06932dfa97b"
     opacity="1"
     fill="none"
     stroke="#e66465"
     stroke-width="4"
     stroke-opacity="1"
     stroke-linecap="round"
     stroke-linejoin="round"
     d="m 2570.016,2650.681 0.164,1.239 q -0.063,0.2 -0.018,12.106 0.045,11.907 1.204,26.297 0.21,0.521 0.487,2.178" /><path
     id="STROKE_e2d13f05-d2fc-46ad-b665-26ac8be91162"
     opacity="1"
     fill="none"
     stroke="#e66465"
     stroke-width="4"
     stroke-opacity="1"
     stroke-linecap="round"
     stroke-linejoin="round"
     d="m 2570.558,2649.475 q 0.543,-0.579 1.445,-1.383 0.903,-0.804 2.607,-1.377 1.703,-0.573 3.152,-0.613 1.449,-0.04 2.95,0.28 1.502,0.32 3.749,2.518 2.247,2.197 3.184,4.207 0.938,2.009 1.268,5.397 0.331,3.388 -0.57,6.487 -0.901,3.1 -2.645,5.306 -1.745,2.206 -3.942,3.769 -2.196,1.562 -7.377,2.641 -0.31,-0.058 -2.015,0.097" /><path
     id="STROKE_53655a04-4104-4897-9818-a0513e6a0eca"
     opacity="1"
     fill="none"
     stroke="#e66465"
     stroke-width="4"
     stroke-opacity="1"
     stroke-linecap="round"
     stroke-linejoin="round"
     d="m 2597.001,2695.09 q 1.368,-0.984 1.4,-1.049 0.032,-0.065 2.235,-2.453 2.203,-2.388 4.057,-4.482 0,0.064 0.298,2.717 0.301,2.652 2.032,11.827 l 0.903,3.277" /><path
     id="STROKE_c1694219-1c0f-438f-b567-97d780360fa5"
     opacity="1"
     fill="none"
     stroke="#e66465"
     stroke-width="4"
     stroke-opacity="1"
     stroke-linecap="round"
     stroke-linejoin="round"
     d="m 2973.833,2709.819 -0.127,0.889 q -0.752,2.572 -1.175,12.911 -0.423,10.339 -0.245,20.574 0.178,10.235 0.299,19.255 0.094,0.29 0.174,2.012" /><path
     id="STROKE_f778942e-fa9b-492c-b20e-63b3687dd409"
     opacity="1"
     fill="none"
     stroke="#e66465"
     stroke-width="4"
     stroke-opacity="1"
     stroke-linecap="round"
     stroke-linejoin="round"
     d="m 2973.826,2719.815 0.687,-0.945 q 1.091,-1.619 2.159,-2.873 1.068,-1.253 1.908,-1.895 0.84,-0.642 2.467,-1.387 1.628,-0.746 4.6,-0.913 2.973,-0.168 4.536,0.261 1.562,0.43 2.769,1.212 1.207,0.783 2.762,2.703 1.555,1.919 2.345,5.032 0.789,3.112 0.739,4.83 -0.05,1.717 -0.53,3.94 -0.48,2.222 -2.233,5.153 -1.754,2.931 -4.008,4.845 -2.255,1.914 -4.647,2.618 -2.392,0.704 -3.617,0.691 -1.224,-0.014 -2.019,-0.206 -0.795,-0.192 -1.437,-0.667 -0.642,-0.475 -2.542,-2.589" /><path
     id="STROKE_808df257-8a7a-42c2-a38a-1f8b0617071f"
     opacity="1"
     fill="none"
     stroke="#e66465"
     stroke-width="4"
     stroke-opacity="1"
     stroke-linecap="round"
     stroke-linejoin="round"
     d="m 3003.126,2762.529 q 0.141,-0.962 0.164,-1.18 l 0.739,-1.186 q 0.48,-0.559 2.792,-1.773 2.312,-1.214 4.192,-1.263 1.879,-0.048 2.838,0.33 0.959,0.379 1.315,0.688 0.355,0.308 0.535,0.705 0.18,0.397 0.404,2.055 0.223,1.657 -1.183,5.172 -1.405,3.515 -2.932,5.933 -1.527,2.418 -2.37,3.76 -0.842,1.341 -1.131,1.893 -0.289,0.551 -0.498,0.882 0.247,0.083 0.69,0.222 0.442,0.139 0.494,0.139 0.052,0 4.125,0.578 4.073,0.577 12.522,0.816 l 3.219,0.595" /><path
     id="STROKE_cb724114-fd7b-4cbd-ae59-ad1a408da605"
     opacity="1"
     fill="none"
     stroke="#9198e5"
     stroke-width="4"
     stroke-opacity="1"
     stroke-linecap="round"
     stroke-linejoin="round"
     d="m 2551.344,3157.02 q -0.113,-0.033 -0.801,0.21 -1.783,-0.288 -3.139,-0.257 -1.357,0.032 -2.639,0.476 -1.283,0.445 -2.159,1.158 -0.876,0.714 -1.349,1.406 -0.474,0.693 -0.599,1.247 -0.126,0.554 -0.01,1.178 0.117,0.623 0.98,1.577 0.863,0.955 1.572,1.282 0.709,0.328 1.638,0.366 0.929,0.038 1.782,-0.28 0.854,-0.318 1.977,-1.514 1.123,-1.196 1.547,-2.253 0.423,-1.057 0.268,-2.479 -0.156,-1.422 -0.601,-2.008 -0.444,-0.585 -1.091,-1.003 -0.647,-0.418 -1.693,-0.143 -1.046,0.276 -1.878,1.112 -0.832,0.837 -1.082,1.359 -0.25,0.523 -0.189,1 0.061,0.477 0.22,0.618 0.159,0.141 0.155,0.178 0,0.036 0.729,0.358 0.735,0.323 1.61,-0.028 0.876,-0.35 1.357,-0.897 0.482,-0.546 0.65,-0.827 0.169,-0.28 0.151,-0.732 -0.017,-0.453 -0.249,-0.798 -0.232,-0.346 -0.327,-0.388 -0.094,-0.042 -0.41,-0.094 -0.316,-0.051 -0.511,0.165 0.688,0.195 1.186,-0.069 0.499,-0.263 1.937,-0.977" /><path
     id="STROKE_d13e568f-5e41-4bec-bb94-38519182a11c"
     opacity="1"
     fill="none"
     stroke="#9198e5"
     stroke-width="4"
     stroke-opacity="1"
     stroke-linecap="round"
     stroke-linejoin="round"
     d="m 2653.095,2839.3 -0.168,0.01 q -0.251,-0.128 -0.973,-0.287 -0.722,-0.159 -1.444,-0.069 -0.723,0.091 -1.631,0.538 -0.909,0.448 -1.493,1.16 -0.583,0.713 -0.767,1.138 -0.185,0.425 -0.235,0.891 -0.05,0.466 -0.02,0.662 0.029,0.195 0.154,0.563 0.125,0.367 0.319,0.642 0.194,0.276 0.795,0.701 0.602,0.424 1.095,0.521 0.492,0.096 0.937,0.047 0.445,-0.048 1.189,-0.407 0.744,-0.358 1.348,-0.994 0.604,-0.637 0.892,-1.202 0.289,-0.565 0.349,-0.883 0.061,-0.318 0.061,-0.614 10e-4,-0.297 -0.072,-0.523 -0.072,-0.227 -0.275,-0.481 -0.202,-0.254 -1.362,-0.144 l -0.01,0.082 -0.163,0.225" /><path
     id="STROKE_bc9fcb8d-24bf-4ec3-b782-1ecc45ef0331"
     opacity="1"
     fill="none"
     stroke="#9198e5"
     stroke-width="4"
     stroke-opacity="1"
     stroke-linecap="round"
     stroke-linejoin="round"
     d="m 2584.614,2953.731 q -0.044,-0.023 -0.22,-0.165 -0.177,-0.142 -0.716,-0.387 -0.538,-0.245 -0.735,-0.303 -0.198,-0.058 -0.401,-0.111 -0.203,-0.054 -0.728,0.045 -0.524,0.099 -0.892,0.296 -0.368,0.197 -0.509,0.331 -0.141,0.134 -0.4,0.601 -0.26,0.468 -0.167,1.052 0.092,0.585 0.466,1.101 0.375,0.517 0.707,0.699 0.332,0.182 0.906,0.164 0.574,-0.018 0.934,-0.204 0.359,-0.186 0.616,-0.595 0.258,-0.41 0.022,-0.944 -0.236,-0.534 -0.914,-0.968 -0.678,-0.434 -1.155,-0.448 -0.477,-0.014 -0.95,0.262 -0.472,0.276 -0.698,0.607 -0.226,0.332 -0.272,0.586 -0.046,0.253 0.07,0.517 0.115,0.265 0.413,0.48 0.297,0.216 0.673,0.276 0.376,0.06 0.703,-0.05 0.327,-0.111 0.483,-0.242 0.156,-0.131 0.278,-0.308 0.123,-0.176 0.51,-0.946" /><path
     id="STROKE_cc9ddcbc-ca9d-40eb-8ae3-30b7420d57c3"
     opacity="1"
     fill="none"
     stroke="#9198e5"
     stroke-width="4"
     stroke-opacity="1"
     stroke-linecap="round"
     stroke-linejoin="round"
     d="m 2772.059,2780.838 -0.384,-0.338 q -0.351,-0.178 -0.683,-0.309 -0.332,-0.13 -0.812,-0.178 -0.48,-0.047 -1.131,0.218 -0.652,0.266 -0.913,0.581 -0.261,0.314 -0.351,0.581 -0.09,0.267 0.161,0.582 0.252,0.315 0.601,0.495 0.35,0.179 0.744,0.181 0.394,0 0.685,-0.116 0.292,-0.117 0.589,-0.376 0.298,-0.258 0.361,-0.527 0.063,-0.268 -0.044,-0.491 -0.108,-0.222 -0.157,-0.271 -0.05,-0.05 -0.071,-0.093 -0.021,-0.043 -0.373,-0.128 -0.353,-0.084 -0.843,0.21 -0.011,0.102 0.202,0.508" /><path
     id="STROKE_fa436904-3656-42cc-ad3d-84baabed0acc"
     opacity="1"
     fill="none"
     stroke="#9198e5"
     stroke-width="4"
     stroke-opacity="1"
     stroke-linecap="round"
     stroke-linejoin="round"
     d="m 2852.229,2774.508 -0.115,-0.159 q -0.704,-0.743 -1.092,-1.076 -0.387,-0.333 -0.872,-0.548 -0.485,-0.215 -1.171,-0.23 -0.687,-0.014 -1.228,0.317 -0.541,0.33 -0.74,0.626 -0.198,0.295 -0.252,0.656 -0.055,0.361 0.012,0.725 0.068,0.365 0.468,0.78 0.4,0.415 1.439,0.621 1.04,0.207 1.596,0.076 0.557,-0.132 0.803,-0.28 0.247,-0.147 0.529,-0.534 0.283,-0.386 0.326,-0.849 0.042,-0.463 -0.013,-0.679 -0.055,-0.217 -0.316,-0.579 -0.261,-0.362 -0.644,-0.574 -0.382,-0.213 -0.77,-0.241 -0.387,-0.029 -0.628,0.087 -0.24,0.117 -0.3,0.168 -0.06,0.051 -0.184,0.242 -0.125,0.192 -0.139,0.396 -0.014,0.205 0.016,0.304 0.03,0.099 0.15,0.293 0.119,0.194 0.286,0.359 0.166,0.166 0.895,1.023" /><path
     id="STROKE_7b7faba8-6b7a-4587-bb51-30a4fdb3d1de"
     opacity="1"
     fill="none"
     stroke="#9198e5"
     stroke-width="4"
     stroke-opacity="1"
     stroke-linecap="round"
     stroke-linejoin="round"
     d="m 2712.838,2802.077 q -0.055,0 -0.378,-0.343 l -0.419,-0.246 q -0.21,-0.074 -0.733,-0.162 -0.524,-0.088 -1.104,0.079 -0.58,0.168 -0.968,0.528 -0.387,0.361 -0.486,0.725 -0.098,0.364 -0.069,0.6 0.028,0.236 0.166,0.471 0.137,0.234 0.415,0.35 0.278,0.115 0.538,0.143 0.261,0.028 1.035,-0.224 0.774,-0.252 1.078,-0.483 0.304,-0.232 0.511,-0.525 0.207,-0.293 0.224,-0.604 0.017,-0.31 -0.067,-0.55 -0.084,-0.241 -0.631,-0.611 -0.547,-0.371 -1.352,-0.463 -0.805,-0.092 -1.253,0.027 -0.447,0.119 -0.796,0.336 -0.349,0.216 -0.4,0.6 -0.05,0.384 0.066,0.688 0.116,0.304 0.352,0.51 0.236,0.206 0.664,0.295 0.429,0.089 0.771,0.031 0.343,-0.058 0.555,-0.166 0.211,-0.109 0.355,-0.238 0.143,-0.13 0.168,-0.29 0.025,-0.159 0.011,-0.309 -0.013,-0.149 -0.188,-0.354 -0.175,-0.204 -0.876,-0.738" /><path
     id="STROKE_e3bca0c4-a151-4b53-bc34-80a1a68406d4"
     opacity="1"
     fill="none"
     stroke="#9198e5"
     stroke-width="4"
     stroke-opacity="1"
     stroke-linecap="round"
     stroke-linejoin="round"
     d="m 2612.897,2886.758 -0.086,0.066 q -0.106,0.044 -0.548,0.094 -0.441,0.049 -0.702,0.093 -0.262,0.044 -0.646,0.232 -0.384,0.187 -0.766,0.631 -0.382,0.443 -0.486,0.854 -0.104,0.411 0.037,0.755 0.141,0.343 0.342,0.488 0.202,0.145 0.534,0.205 0.333,0.06 0.739,-0.104 0.405,-0.165 0.84,-0.639 0.435,-0.475 0.571,-0.814 0.135,-0.34 0.109,-0.677 -0.025,-0.338 -0.182,-0.543 -0.157,-0.206 -0.298,-0.283 -0.142,-0.077 -0.356,-0.098 -0.215,-0.02 -0.368,0.01 -0.153,0.026 -0.491,0.181 -0.338,0.155 -0.523,0.288 -0.184,0.132 -0.722,0.58" /><path
     id="STROKE_c7e88ee3-b084-48f7-8f98-694a907c7d8f"
     opacity="1"
     fill="none"
     stroke="#9198e5"
     stroke-width="4"
     stroke-opacity="1"
     stroke-linecap="round"
     stroke-linejoin="round"
     d="m 2552.859,3057.36 q 0,-0.01 -10e-4,-0.016 0,-0.011 -0.01,-0.022 -0.013,-0.012 -0.14,0.01 -0.126,0.021 -0.326,0.149 -0.2,0.128 -0.412,0.524 -0.212,0.397 -0.293,0.888 -0.082,0.492 -0.042,0.866 0.04,0.374 0.094,0.509 0.054,0.136 0.175,0.327 0.121,0.19 0.323,0.324 0.202,0.133 0.565,0.179 0.362,0.046 0.693,-0.095 0.331,-0.142 0.684,-0.466 0.353,-0.324 0.59,-0.807 0.237,-0.483 0.295,-0.974 0.058,-0.492 -0.074,-0.9 -0.131,-0.408 -0.325,-0.582 -0.194,-0.173 -0.39,-0.24 -0.196,-0.067 -0.426,0.042 -0.23,0.109 -1.052,1.288" /><path
     id="STROKE_1e35aacd-1442-48d0-930b-35eb0f9d9346"
     opacity="1"
     fill="none"
     stroke="#9198e5"
     stroke-width="2"
     stroke-opacity="1"
     stroke-linecap="round"
     stroke-linejoin="round"
     d="m 2545.15,3141.9 3.428,-71.046" /><path
     id="STROKE_c72d322d-223c-474a-a899-444fcf47dede"
     opacity="1"
     fill="none"
     stroke="#9198e5"
     stroke-width="2"
     stroke-opacity="1"
     stroke-linecap="round"
     stroke-linejoin="round"
     d="m 2554.776,3045.043 20.433,-77.501" /><path
     id="STROKE_1acd5be6-c49f-4c5a-89f4-191bb37114b1"
     opacity="1"
     fill="none"
     stroke="#9198e5"
     stroke-width="2"
     stroke-opacity="1"
     stroke-linecap="round"
     stroke-linejoin="round"
     d="m 2585.789,2941.099 18.009,-42.023" /><path
     id="STROKE_ef233ca6-af94-4685-b8cd-11b8dbee7965"
     opacity="1"
     fill="none"
     stroke="#9198e5"
     stroke-width="2"
     stroke-opacity="1"
     stroke-linecap="round"
     stroke-linejoin="round"
     d="m 2617.115,2876.137 21.501,-25.739" /><path
     id="STROKE_eac797e6-8d6b-49ef-90af-3234bdf54671"
     opacity="1"
     fill="none"
     stroke="#9198e5"
     stroke-width="2"
     stroke-opacity="1"
     stroke-linecap="round"
     stroke-linejoin="round"
     d="m 2661.709,2830.522 37.248,-24.117" /><path
     id="STROKE_c1824f73-4828-4114-8e0e-6198901295b7"
     opacity="1"
     fill="none"
     stroke="#9198e5"
     stroke-width="2"
     stroke-opacity="1"
     stroke-linecap="round"
     stroke-linejoin="round"
     d="m 2721.594,2794.581 35.924,-12.112" /><path
     id="STROKE_6efce320-ff16-4936-ae84-a0381dcff882"
     opacity="1"
     fill="none"
     stroke="#9198e5"
     stroke-width="2"
     stroke-opacity="1"
     stroke-linecap="round"
     stroke-linejoin="round"
     d="m 2782.444,2777.719 54.659,-4.927" /><path
     id="STROKE_64af87bd-ed04-4aa0-984b-b76f196e4e06"
     opacity="1"
     fill="none"
     stroke="#9198e5"
     stroke-width="2"
     stroke-opacity="1"
     stroke-linecap="round"
     stroke-linejoin="round"
     d="m 2862.998,2772.349 69.559,7.259" /><path
     id="STROKE_ab895c7b-f70d-45ee-9cdd-04ecd50cfaa9"
     opacity="1"
     fill="none"
     stroke="#9198e5"
     stroke-width="4"
     stroke-opacity="1"
     stroke-linecap="round"
     stroke-linejoin="round"
     d="m 2958.521,2778.7 q -0.431,-0.448 -1.56,-1.258 -1.13,-0.81 -1.517,-1.004 -0.387,-0.195 -1.12,-0.416 -0.733,-0.22 -2.318,0.139 -1.584,0.359 -2.385,0.989 -0.8,0.631 -1.243,1.412 -0.443,0.78 -0.297,1.734 0.146,0.953 0.762,1.762 0.616,0.808 1.444,1.25 0.827,0.442 1.194,0.507 0.367,0.066 1.59,-0.28 1.222,-0.346 2.473,-1.581 1.251,-1.235 1.578,-2.208 0.326,-0.974 0.248,-1.315 -0.078,-0.341 -0.597,-0.865 -0.519,-0.524 -0.748,-0.592 -0.228,-0.069 -1.139,-0.035 -0.911,0.034 -1.6,0.572 -0.69,0.538 -0.902,0.931 -0.213,0.393 -0.331,0.709 -0.118,0.316 0.158,0.959 0.276,0.642 0.773,0.985 0.498,0.343 0.865,0.447 0.368,0.103 0.72,0.01 0.353,-0.098 0.783,-0.527 0.429,-0.429 0.548,-0.824 0.12,-0.395 0.052,-0.863 -0.069,-0.467 -0.287,-0.792 -0.218,-0.325 -0.629,-0.529 l -0.09,-0.272" /><path
     id="STROKE_728ddf25-beb2-4b84-9583-7fcf1c8502f0"
     opacity="1"
     fill="none"
     stroke="#f6f7ef"
     stroke-width="2"
     stroke-opacity="1"
     stroke-linecap="round"
     stroke-linejoin="round"
     d="m 2542.484,2260.729 0.593,897.978" /><path
     id="STROKE_e053bad5-7580-4530-82d0-4af6839b33bd"
     opacity="1"
     fill="none"
     stroke="#f6f7ef"
     stroke-width="2"
     stroke-opacity="1"
     stroke-linecap="round"
     stroke-linejoin="round"
     d="m 2523.05,2316.473 18.796,-55.873" /><path
     id="STROKE_d9457b54-d93d-4eee-a3ee-987431870ed5"
     opacity="1"
     fill="none"
     stroke="#f6f7ef"
     stroke-width="2"
     stroke-opacity="1"
     stroke-linecap="round"
     stroke-linejoin="round"
     d="m 2541.754,2258.213 21.1,55.432" /><path
     id="STROKE_3201e312-706d-4286-86be-2b27206f4b20"
     opacity="1"
     fill="none"
     stroke="#f6f7ef"
     stroke-width="2"
     stroke-opacity="1"
     stroke-linecap="round"
     stroke-linejoin="round"
     d="M 2648.942,2842.432 3047.38,2466.611" /><path
     id="STROKE_eae92661-b99a-4e99-a4d0-d5cb5e70146d"
     opacity="1"
     fill="none"
     stroke="#f6f7ef"
     stroke-width="2"
     stroke-opacity="1"
     stroke-linecap="round"
     stroke-linejoin="round"
     d="m 3012.95,2481.856 32.644,-13.953" /><path
     id="STROKE_d67b9ff6-0ccb-46cd-8360-b9c128b68dd1"
     opacity="1"
     fill="none"
     stroke="#f6f7ef"
     stroke-width="2"
     stroke-opacity="1"
     stroke-linecap="round"
     stroke-linejoin="round"
     d="m 3030.018,2500.057 17.312,-30.427" /><path
     id="STROKE_96a1ab85-bb6e-411b-9240-9707ffa3f154"
     opacity="1"
     fill="none"
     stroke="#f6f7ef"
     stroke-width="2"
     stroke-opacity="1"
     stroke-linecap="round"
     stroke-linejoin="round"
     d="M 3761.125,2931.145 2957.067,2782.513" /><path
     id="STROKE_b2ab741e-58c8-48e4-b04b-659e9f07d41c"
     opacity="1"
     fill="none"
     stroke="#f6f7ef"
     stroke-width="2"
     stroke-opacity="1"
     stroke-linecap="round"
     stroke-linejoin="round"
     d="m 3722.032,2931.361 40.039,0.079" /><path
     id="STROKE_cba1c869-a029-430b-9624-aabfe1dfa80c"
     opacity="1"
     fill="none"
     stroke="#f6f7ef"
     stroke-width="2"
     stroke-opacity="1"
     stroke-linecap="round"
     stroke-linejoin="round"
     d="m 3724.216,2914.688 38.226,16.14" /></g></svg>
