<svg xmlns="http://www.w3.org/2000/svg" xml:space="preserve" viewBox="0 0 960 480">
    <g fill="none" stroke-linecap="round" stroke-linejoin="round">
        <path stroke="#f6f7ef" stroke-width="1.456" d="m109.678 384.562-.368-281.508m.213.286 280.23.488m.426-1.831 2.273 282.7m182.728-3.849.99-282.619m.856-2.753L857.04 378.665m-1.417-1.261.855-281.44m-746.8 288.598-.368-281.508m.213.286 280.23.488m.426-1.831 2.273 282.7m182.728-3.849.99-282.619m.856-2.753L857.04 378.665m-1.417-1.261.855-281.44" opacity=".5"/>
        <path stroke="#e66465" stroke-width="2.912" d="m112.329 101.517-.123-.053q-.995-.605-1.281-.702t-.735-.256-1.23-.268q-.782-.11-1.611.105t-1.141.412-.596.554q-.286.356-.417.554-.13.2-.239.84-.107.643-.016 1.096.092.454.4.956t.675.863.878.641 1.14.422q.63.142 1.369.189.74.047 1.41-.07.672-.116 1.037-.286.366-.169.889-.562.522-.393.792-.795.27-.401.332-.554.063-.152.222-.258.159-.105.593-3.205m-1.289 283.334q-.497-.731-1.204-1.417-.708-.687-1.752-1.413-1.045-.728-1.134-.813-.088-.086-1.408-.378t-2.235-.153-1.09.218-.6.553-.608.952q-.183.477-.196.91-.012.432-.011.602 0 .17.294.878.294.709.874 1.34.58.63 1.217.984t1.287.513 1.269.254q.62.097 2.102-.154 1.482-.25 2.283-.615t1.389-.9q.587-.537 2.62-3.713m276.979-278.573q-.219-.297-.69-1.372-.47-1.074-.804-1.671-.333-.597-.497-.798t-.865-.92q-.7-.718-1.151-.901-.45-.184-.78-.208-.33-.025-.628.025-.3.05-.957.79t-.863 1.287q-.205.548-.24.918-.034.37.091 1.2.126.83.253 1.09.128.261.39.579.263.318 1.133.975.872.657 2.059.998 1.187.343 1.473.388.286.046.763.05t2.435-.166m.914 279.328-.655-.641-.125-.463q-.062-.17-.744-1.399-.681-1.228-1.42-1.966-.737-.74-1.035-.922t-.522-.264-1.2-.161-1.595.218-.654.353l-.884 1.188q-.068.056-.354 1.758-.285 1.702 0 2.658.288.955.535 1.306t.643.712 1.103.747q.706.386 1.761.479 1.057.093 1.662-.007t1.478-.667 3.127-3.002M578.933 96.699l-.122-.053q-.995-.605-1.282-.702-.285-.096-.734-.256-.45-.16-1.231-.268-.781-.11-1.61.104-.83.216-1.141.413t-.597.554q-.285.356-.416.554-.13.2-.239.84-.108.642-.016 1.096t.4.956.675.863.878.641 1.14.422 1.368.189 1.411-.07 1.037-.286.888-.562.793-.795q.27-.401.332-.554.063-.152.221-.258.16-.105.594-3.205m-1.29 283.334q-.496-.731-1.204-1.418-.707-.686-1.751-1.412-1.045-.728-1.134-.813-.089-.086-1.409-.378t-2.235-.153q-.914.139-1.09.217t-.6.553-.607.953-.196.91-.012.602q0 .17.295.878.293.709.874 1.34.58.63 1.217.984t1.287.513 1.268.254q.62.096 2.103-.154 1.482-.25 2.283-.615t1.388-.9q.588-.537 2.62-3.712M860.068 98.73q-.218-.296-.69-1.37-.47-1.075-.804-1.672-.332-.597-.496-.798-.165-.202-.865-.92-.701-.718-1.152-.901t-.78-.208-.628.025-.956.79-.863 1.287-.24.917.09 1.201.254 1.09.39.579q.262.318 1.133.974.872.657 2.058 1 1.188.341 1.474.387.285.046.763.05.477.004 2.435-.166m.914 279.328-.656-.641-.125-.463q-.062-.17-.743-1.399-.682-1.228-1.42-1.966-.737-.74-1.035-.922t-.523-.264-1.2-.161-1.595.218-.653.353l-.884 1.188q-.069.056-.354 1.758t0 2.658q.287.955.534 1.306t.644.712 1.102.747 1.762.478q1.056.094 1.662-.007.605-.1 1.478-.667.874-.567 3.126-3.001M55.347 367.778l-.014.348q-.047.457 1.222 5.251t2.161 7.788 1.577 5.723q.685 2.732 2 8.767.061.086.297.745"/>
        <path stroke="#e66465" stroke-width="2.912" d="M53.034 370.615q.751-2.15 1.95-3.841 1.197-1.692 2.95-3.114t3.076-1.918 2.21-.584 1.62.012 3.84 2.925q3.109 2.827 3.47 4.17.36 1.344.334 2.213-.026.868-.662 2.453-.636 1.586-2.318 3.654t-2.64 3.014q-.957.945-1.662 1.498-.704.552-1.209.83-.072.008.173.5m13.662 14.922q-.49-.572-1.213-1.094t-1.106-.865-1.018-1.143-1.001-1.846q-.368-1.046-.364-1.738.008-.693.24-1.387.237-.693.998-1.332.761-.638 1.575-.828.815-.191 1.6-.095.784.096 1.44.56.654.466 1.206 1.336t.776 1.591q.225.722.29 1.456.064.735-.07 1.69-.135.956-.437 1.564t-.846 1.281-4.166 2.102M52.195 77.93l.03.281q.026.403 1.833 5.406 1.809 5.003 2.895 7.942t1.932 5.459 2.183 7.512q.066.02-1.21-1.45"/>
        <path stroke="#e66465" stroke-width="2.912" d="M49.666 80.555q.022-.078.152-1.014t.39-1.745 1.222-2.18 2.227-2.3 2.43-1.344q1.168-.413 2.361-.516 1.195-.102 2.162.05.967.154 1.955.668t2.05 1.905q1.063 1.39 1.7 4.122.635 2.732.542 4.347-.094 1.616-.61 3.238-.515 1.624-1.749 3.151-1.233 1.528-2.345 2.188-1.112.659-1.812.827t-2.681.103m18.693 13.023q1.928-5.892 2.198-7.22t.344-1.79q.076-.463-.255-.528-.159.406.057 1.835.217 1.43.603 2.613.385 1.183 1.068 2.68.682 1.496 1.803 3.056.25.165.76.768M412.15 55.643q.04.075.032.548.008.776 1.018 3.764t2.608 7.574q1.6 4.586 2.889 9.868 1.289 5.283 2 9.334.063.074-.825-2.789"/>
        <path stroke="#e66465" stroke-width="2.912" d="M411.515 58.742q.077-.104.566-1.445.49-1.342.898-2.076.409-.733.68-1.108.27-.377 1.362-1.322 1.093-.947 2.491-1.517 1.4-.57 2.253-.684.855-.115 1.874-.061 1.019.053 1.6.175.58.123 2.618 1.273t3.243 2.448 2.01 2.801 1.112 3.477q.306 1.973.148 3.183-.158 1.212-.85 2.683-.69 1.472-2.285 2.818-1.594 1.347-2.827 1.776t-1.866.483q-.632.053-1.111-.018-.48-.072-.713-.185-.233-.114-.44-.285-.207-.172-.332-.348-.124-.176-.398-.619m17.19 16.437q.105-.22-.182-.874.18-1.235.766-2.133t1.255-1.337q.668-.438 1.215-.483t.763-.034.777.348 1.108 1.302q.547.964.756 2.484.208 1.518-.228 4.103-.438 2.585-.728 4.243t-.156 2.68q.386.124 2.988.05 2.602-.076 10.576-1.212m-39.26 260.682-.075.529q-.043.23 2.05 10.743t5.751 21.676q.115.044-.049-.075m-6.723-30.035q.053-.121.13-.855.077-.735.317-1.442.24-.708.402-1.052.162-.343.457-.755.295-.411.718-.82.424-.407.806-.661t.69-.452q.306-.197 2.158-.54 1.85-.343 3.089-.201t2.47.675q1.233.534 2.187 1.298.954.765 1.744 2.086t1.098 3.154.072 3.483-1.22 3.484-2.277 3.058-2.67 1.856q-1.376.632-2.441.76-1.065.127-1.774-.05t-1.448-.691l-.62-.311m24.159 6.511q.11-.068.356-.459.245-.39 1.03-1.161.785-.772 1.83-1.477t2.096-1.034q1.05-.33 1.903-.257.852.072 1.264.236t.844.563.813 1.413q.381 1.013.344 2.152-.038 1.138-.403 2.142t-.586 1.422-.402.51q.113-.1.322-.191t.616-.128 1.317.038q.912.075 2.22.537 1.31.46 2.134.997.825.536 1.37 1.202.544.666.732 1.1t.211.912q.024.477-.13 1.028-.156.55-.523 1.14-.365.589-1.328 1.366-.963.776-2.53 1.35-1.568.575-3.058.673t-2.448-.093-1.588-.495-1.233-.757q-.602-.452-1.453-1.647l-.51-.783m72.745-16.816-.037.776q.116.703.737 3.149.621 2.445 1.356 5.169.733 2.723 1.866 6.609 1.134 3.885 1.819 5.924.684 2.04 1.3 3.53.614 1.491.928 2.134.313.642.691 1.25.091.014-1.085-1.756"/>
        <path stroke="#e66465" stroke-width="2.912" d="M523.503 373.514q.032-.888.795-3.048.763-2.162 1.597-3.245.833-1.083 1.464-1.482.63-.399 1.164-.54.533-.143 1.98.143 1.446.284 3.13 1.505 1.682 1.22 2.483 2.238.8 1.02 1.306 2.206.505 1.185.626 2.54.122 1.355-.426 3.068t-1.803 3.193-2.37 2.158-2.017.892-1.407.177-.882-.122-.775-.34-.64-.463q-.243-.208-.539-.48m27.686 13.236q-.052-.607-.506-1.786-.455-1.18-1.235-2.228-.781-1.05-1.782-1.686-1.002-.636-2.646-.615-1.645.02-2.172.466t-.894 1.777-.18 2.605 1.03 2.581q.844 1.307 1.816 1.952t2.051.82 1.995-.059q.916-.233 1.902-1.098T557.39 392M527.34 82.367q.116.536.358 1.52.242.986.694 2.208.45 1.223.857 2.079.407.855 1.64 3.314t2.804 6.078 2.331 5.763q.763 2.145 1.738 5.855.046.01-.49-1.082"/>
        <path stroke="#e66465" stroke-width="2.912" d="M527.658 83.73q.23-.417.794-1.481.562-1.065 1.308-1.827t1.784-1.345 2.481-.797 2.528-.02q1.086.193 1.965.755.88.562 1.71 1.535.833.974 1.589 3.18.755 2.206.82 4.077t-.325 3.608q-.388 1.738-1.332 3.314-.943 1.577-1.59 2.272t-1.588 1.289q-.942.592-2.158.873-.232-.045-1.264-.047m15.354 8.248q.12-.43.507-1.702.386-1.27.577-2.231t.257-1.463q.066-.503.082-.723t-.008-.359-.063-.13q-.038.007.133.72.17.712 1.025 2.51t5.21 8.578m324.433 266.902q.037.369.276 1.226.24.856.697 1.993.458 1.137 1.485 3.617 1.026 2.48 2.9 8.207 1.872 5.727 2.654 8.788t1.229 5.34q.037 0-1.146-1.337"/>
        <path stroke="#e66465" stroke-width="2.912" d="M882.423 384.191q.241-1.183.566-2.19t.944-1.932 1.456-1.576 1.902-.942q1.063-.291 2.53-.08t2.806 1.14 1.888 1.569 1.136 1.636 1.07 2.833q.481 1.835.398 3.759t-.588 3.334-1.12 2.299q-.613.889-1.296 1.456-.683.57-1.22.82-.538.251-.867.334t-.698 0l-.408.042m13.981 5.822.32-.03q1.109-.206 1.513-.224.405-.019.963.074t.916.351.492.43q.134.174.416.755.282.58.568 2.073.287 1.492.296 3.413t.21 3.051q.051.03 2.706-.504 2.656-.533 8.254-2.503M874.586 72.435l.232.282q.66.956 3.225 6.434t3.673 8.84q1.107 3.361 1.498 5.215.39 1.855.579 3.702.187 1.847.208 5.396-.046-.087-.422-.56"/>
        <path stroke="#e66465" stroke-width="2.912" d="M875.265 76.009q.184-1.185.488-1.985.303-.8.57-1.198t1.16-1.06q.896-.663 2.557-1.021 1.661-.359 3.665-.038 2.004.32 3.758 1.272 1.754.953 2.966 2.23 1.213 1.276 1.842 3.02.63 1.742.56 3.537t-.603 3.114-1.636 2.552-3.223 2.213-4.745 1.488m18.968 9.036q.232-.638.379-.973t.386-.706q.238-.37.495-.633.258-.26.466-.492.207-.232 1.641-1.205 1.435-.972 2.777-1.21t2.057-.07 1.038.359q.324.189.794 1.012t.63 1.578.152 1.737-.046 1.636q-.039.655-.094 1.123l1.27.492q1.048.406 1.857.766.81.36 1.24.74.431.383.605.701.174.32.242.74.067.422-.068 1.072t-1.316 1.574q-1.183.923-3.21 1.405t-3.706.319-3.072-.66-2.523-1.321l-.838-.735m-790.419-4.901-.123-.053q-.995-.605-1.281-.702t-.735-.256-1.23-.268q-.782-.11-1.611.105t-1.141.412-.596.554q-.286.356-.417.554-.13.2-.239.84-.107.643-.016 1.096.092.454.4.956t.675.863.878.641 1.14.422q.63.142 1.369.189.74.047 1.41-.07.672-.116 1.037-.286.366-.169.889-.562.522-.393.792-.795.27-.401.332-.554.063-.152.222-.258.159-.105.593-3.205m-1.289 283.334q-.497-.731-1.204-1.417-.708-.687-1.752-1.413-1.045-.728-1.134-.813-.088-.086-1.408-.378t-2.235-.153-1.09.218-.6.553-.608.952q-.183.477-.196.91-.012.432-.011.602 0 .17.294.878.294.709.874 1.34.58.63 1.217.984t1.287.513 1.269.254q.62.097 2.102-.154 1.482-.25 2.283-.615t1.389-.9q.587-.537 2.62-3.713m276.979-278.573q-.219-.297-.69-1.372-.47-1.074-.804-1.671-.333-.597-.497-.798t-.865-.92q-.7-.718-1.151-.901-.45-.184-.78-.208-.33-.025-.628.025-.3.05-.957.79t-.863 1.287q-.205.548-.24.918-.034.37.091 1.2.126.83.253 1.09.128.261.39.579.263.318 1.133.975.872.657 2.059.998 1.187.343 1.473.388.286.046.763.05t2.435-.166m.914 279.328-.655-.641-.125-.463q-.062-.17-.744-1.399-.681-1.228-1.42-1.966-.737-.74-1.035-.922t-.522-.264-1.2-.161-1.595.218-.654.353l-.884 1.188q-.068.056-.354 1.758-.285 1.702 0 2.658.288.955.535 1.306t.643.712 1.103.747q.706.386 1.761.479 1.057.093 1.662-.007t1.478-.667 3.127-3.002M578.933 96.699l-.122-.053q-.995-.605-1.282-.702-.285-.096-.734-.256-.45-.16-1.231-.268-.781-.11-1.61.104-.83.216-1.141.413t-.597.554q-.285.356-.416.554-.13.2-.239.84-.108.642-.016 1.096t.4.956.675.863.878.641 1.14.422 1.368.189 1.411-.07 1.037-.286.888-.562.793-.795q.27-.401.332-.554.063-.152.221-.258.16-.105.594-3.205m-1.29 283.334q-.496-.731-1.204-1.418-.707-.686-1.751-1.412-1.045-.728-1.134-.813-.089-.086-1.409-.378t-2.235-.153q-.914.139-1.09.217t-.6.553-.607.953-.196.91-.012.602q0 .17.295.878.293.709.874 1.34.58.63 1.217.984t1.287.513 1.268.254q.62.096 2.103-.154 1.482-.25 2.283-.615t1.388-.9q.588-.537 2.62-3.712M860.068 98.73q-.218-.296-.69-1.37-.47-1.075-.804-1.672-.332-.597-.496-.798-.165-.202-.865-.92-.701-.718-1.152-.901t-.78-.208-.628.025-.956.79-.863 1.287-.24.917.09 1.201.254 1.09.39.579q.262.318 1.133.974.872.657 2.058 1 1.188.341 1.474.387.285.046.763.05.477.004 2.435-.166m.914 279.328-.656-.641-.125-.463q-.062-.17-.743-1.399-.682-1.228-1.42-1.966-.737-.74-1.035-.922t-.523-.264-1.2-.161-1.595.218-.653.353l-.884 1.188q-.069.056-.354 1.758t0 2.658q.287.955.534 1.306t.644.712 1.102.747 1.762.478q1.056.094 1.662-.007.605-.1 1.478-.667.874-.567 3.126-3.001M55.347 367.778l-.014.348q-.047.457 1.222 5.251t2.161 7.788 1.577 5.723q.685 2.732 2 8.767.061.086.297.745"/>
        <path stroke="#e66465" stroke-width="2.912" d="M53.034 370.615q.751-2.15 1.95-3.841 1.197-1.692 2.95-3.114t3.076-1.918 2.21-.584 1.62.012 3.84 2.925q3.109 2.827 3.47 4.17.36 1.344.334 2.213-.026.868-.662 2.453-.636 1.586-2.318 3.654t-2.64 3.014q-.957.945-1.662 1.498-.704.552-1.209.83-.072.008.173.5m13.662 14.922q-.49-.572-1.213-1.094t-1.106-.865-1.018-1.143-1.001-1.846q-.368-1.046-.364-1.738.008-.693.24-1.387.237-.693.998-1.332.761-.638 1.575-.828.815-.191 1.6-.095.784.096 1.44.56.654.466 1.206 1.336t.776 1.591q.225.722.29 1.456.064.735-.07 1.69-.135.956-.437 1.564t-.846 1.281-4.166 2.102M52.195 77.93l.03.281q.026.403 1.833 5.406 1.809 5.003 2.895 7.942t1.932 5.459 2.183 7.512q.066.02-1.21-1.45"/>
        <path stroke="#e66465" stroke-width="2.912" d="M49.666 80.555q.022-.078.152-1.014t.39-1.745 1.222-2.18 2.227-2.3 2.43-1.344q1.168-.413 2.361-.516 1.195-.102 2.162.05.967.154 1.955.668t2.05 1.905q1.063 1.39 1.7 4.122.635 2.732.542 4.347-.094 1.616-.61 3.238-.515 1.624-1.749 3.151-1.233 1.528-2.345 2.188-1.112.659-1.812.827t-2.681.103m18.693 13.023q1.928-5.892 2.198-7.22t.344-1.79q.076-.463-.255-.528-.159.406.057 1.835.217 1.43.603 2.613.385 1.183 1.068 2.68.682 1.496 1.803 3.056.25.165.76.768M412.15 55.643q.04.075.032.548.008.776 1.018 3.764t2.608 7.574q1.6 4.586 2.889 9.868 1.289 5.283 2 9.334.063.074-.825-2.789"/>
        <path stroke="#e66465" stroke-width="2.912" d="M411.515 58.742q.077-.104.566-1.445.49-1.342.898-2.076.409-.733.68-1.108.27-.377 1.362-1.322 1.093-.947 2.491-1.517 1.4-.57 2.253-.684.855-.115 1.874-.061 1.019.053 1.6.175.58.123 2.618 1.273t3.243 2.448 2.01 2.801 1.112 3.477q.306 1.973.148 3.183-.158 1.212-.85 2.683-.69 1.472-2.285 2.818-1.594 1.347-2.827 1.776t-1.866.483q-.632.053-1.111-.018-.48-.072-.713-.185-.233-.114-.44-.285-.207-.172-.332-.348-.124-.176-.398-.619m17.19 16.437q.105-.22-.182-.874.18-1.235.766-2.133t1.255-1.337q.668-.438 1.215-.483t.763-.034.777.348 1.108 1.302q.547.964.756 2.484.208 1.518-.228 4.103-.438 2.585-.728 4.243t-.156 2.68q.386.124 2.988.05 2.602-.076 10.576-1.212m-39.26 260.682-.075.529q-.043.23 2.05 10.743t5.751 21.676q.115.044-.049-.075m-6.723-30.035q.053-.121.13-.855.077-.735.317-1.442.24-.708.402-1.052.162-.343.457-.755.295-.411.718-.82.424-.407.806-.661t.69-.452q.306-.197 2.158-.54 1.85-.343 3.089-.201t2.47.675q1.233.534 2.187 1.298.954.765 1.744 2.086t1.098 3.154.072 3.483-1.22 3.484-2.277 3.058-2.67 1.856q-1.376.632-2.441.76-1.065.127-1.774-.05t-1.448-.691l-.62-.311m24.159 6.511q.11-.068.356-.459.245-.39 1.03-1.161.785-.772 1.83-1.477t2.096-1.034q1.05-.33 1.903-.257.852.072 1.264.236t.844.563.813 1.413q.381 1.013.344 2.152-.038 1.138-.403 2.142t-.586 1.422-.402.51q.113-.1.322-.191t.616-.128 1.317.038q.912.075 2.22.537 1.31.46 2.134.997.825.536 1.37 1.202.544.666.732 1.1t.211.912q.024.477-.13 1.028-.156.55-.523 1.14-.365.589-1.328 1.366-.963.776-2.53 1.35-1.568.575-3.058.673t-2.448-.093-1.588-.495-1.233-.757q-.602-.452-1.453-1.647l-.51-.783m72.745-16.816-.037.776q.116.703.737 3.149.621 2.445 1.356 5.169.733 2.723 1.866 6.609 1.134 3.885 1.819 5.924.684 2.04 1.3 3.53.614 1.491.928 2.134.313.642.691 1.25.091.014-1.085-1.756"/>
        <path stroke="#e66465" stroke-width="2.912" d="M523.503 373.514q.032-.888.795-3.048.763-2.162 1.597-3.245.833-1.083 1.464-1.482.63-.399 1.164-.54.533-.143 1.98.143 1.446.284 3.13 1.505 1.682 1.22 2.483 2.238.8 1.02 1.306 2.206.505 1.185.626 2.54.122 1.355-.426 3.068t-1.803 3.193-2.37 2.158-2.017.892-1.407.177-.882-.122-.775-.34-.64-.463q-.243-.208-.539-.48m27.686 13.236q-.052-.607-.506-1.786-.455-1.18-1.235-2.228-.781-1.05-1.782-1.686-1.002-.636-2.646-.615-1.645.02-2.172.466t-.894 1.777-.18 2.605 1.03 2.581q.844 1.307 1.816 1.952t2.051.82 1.995-.059q.916-.233 1.902-1.098T557.39 392M527.34 82.367q.116.536.358 1.52.242.986.694 2.208.45 1.223.857 2.079.407.855 1.64 3.314t2.804 6.078 2.331 5.763q.763 2.145 1.738 5.855.046.01-.49-1.082"/>
        <path stroke="#e66465" stroke-width="2.912" d="M527.658 83.73q.23-.417.794-1.481.562-1.065 1.308-1.827t1.784-1.345 2.481-.797 2.528-.02q1.086.193 1.965.755.88.562 1.71 1.535.833.974 1.589 3.18.755 2.206.82 4.077t-.325 3.608q-.388 1.738-1.332 3.314-.943 1.577-1.59 2.272t-1.588 1.289q-.942.592-2.158.873-.232-.045-1.264-.047m15.354 8.248q.12-.43.507-1.702.386-1.27.577-2.231t.257-1.463q.066-.503.082-.723t-.008-.359-.063-.13q-.038.007.133.72.17.712 1.025 2.51t5.21 8.578m324.433 266.902q.037.369.276 1.226.24.856.697 1.993.458 1.137 1.485 3.617 1.026 2.48 2.9 8.207 1.872 5.727 2.654 8.788t1.229 5.34q.037 0-1.146-1.337"/>
        <path stroke="#e66465" stroke-width="2.912" d="M882.423 384.191q.241-1.183.566-2.19t.944-1.932 1.456-1.576 1.902-.942q1.063-.291 2.53-.08t2.806 1.14 1.888 1.569 1.136 1.636 1.07 2.833q.481 1.835.398 3.759t-.588 3.334-1.12 2.299q-.613.889-1.296 1.456-.683.57-1.22.82-.538.251-.867.334t-.698 0l-.408.042m13.981 5.822.32-.03q1.109-.206 1.513-.224.405-.019.963.074t.916.351.492.43q.134.174.416.755.282.58.568 2.073.287 1.492.296 3.413t.21 3.051q.051.03 2.706-.504 2.656-.533 8.254-2.503M874.586 72.435l.232.282q.66.956 3.225 6.434t3.673 8.84q1.107 3.361 1.498 5.215.39 1.855.579 3.702.187 1.847.208 5.396-.046-.087-.422-.56"/>
        <path stroke="#e66465" stroke-width="2.912" d="M875.265 76.009q.184-1.185.488-1.985.303-.8.57-1.198t1.16-1.06q.896-.663 2.557-1.021 1.661-.359 3.665-.038 2.004.32 3.758 1.272 1.754.953 2.966 2.23 1.213 1.276 1.842 3.02.63 1.742.56 3.537t-.603 3.114-1.636 2.552-3.223 2.213-4.745 1.488m18.968 9.036q.232-.638.379-.973t.386-.706q.238-.37.495-.633.258-.26.466-.492.207-.232 1.641-1.205 1.435-.972 2.777-1.21t2.057-.07 1.038.359q.324.189.794 1.012t.63 1.578.152 1.737-.046 1.636q-.039.655-.094 1.123l1.27.492q1.048.406 1.857.766.81.36 1.24.74.431.383.605.701.174.32.242.74.067.422-.068 1.072t-1.316 1.574q-1.183.923-3.21 1.405t-3.706.319-3.072-.66-2.523-1.321l-.838-.735"/>
        <path stroke="#f6f7ef" stroke-width="2.912" d="M111.722 243.098q-.2-.023-.373-.052-.173-.03-.384-.047t-.336-.007q-.123.012-.429.074-.305.062-.643.208-.339.145-.567.353-.229.208-.32.378-.09.17-.11.45t.026.484q.048.206.268.434.22.227.43.312.207.085.456.11.247.025.55.004.301-.02.676-.265.373-.246.572-.456t.384-.542.275-.573q.09-.242.096-.3t.194-.667m0-36.377q-.311.081-.367.073t-.359-.109-.633-.132-.653.02q-.322.051-.439.076-.117.024-.51.293-.393.27-.593.591-.2.323-.253.609t.021.542.314.458q.24.203.605.334.363.132.602.124.24-.008.51-.114t1.354-1.506m-.592-33.73q-.139-.155-.544-.557l-.125-.104q-.292-.16-.563-.266t-.479-.106-.367.028-.415.237-.35.401-.105.34q-.01.15.493.589.501.44.65.493.148.052.258.068t.312.016q.203 0 1.863-1.603m-.3-37.034q-.023-.007-.529.344-.049.042-.332-.011-.285-.053-.413-.05t-.377.085-.385.16q-.137.08-.384.308t-.394.488-.186.565.047.56q.084.256.205.393.12.139.364.28.246.143.507.19.26.046.678-.023.417-.069 1.627-1.24m-.93 139.618q-.084-.12-.158-.222-.094-.107-.26-.216-.164-.108-.509-.174-.344-.065-.681-.032-.337.034-.604.305-.267.272-.28.282t-.071.214-.02.434q.038.228.235.426t.345.259.292.088.395.01.362-.053.335-.167 1.221-1.09m.164 33.929-.22-.129q-.368-.154-1.024-.377-.657-.224-1.3-.275-.644-.052-1.085.092t-.837.746-.391 1.016q.007.414.115.638t.534.557.866.434.765.045q.323-.053.613-.27.29-.216 1.5-1.816m1.33 34.755q-.104-.079-.566-.597-.462-.517-.788-.782-.325-.265-.595-.383-.27-.116-.431-.156-.163-.04-.573-.034t-.684.129-.374.21q-.102.087-.18.147t-.231.374-.193.525-.015.497q.026.288.085.461t.287.477q.227.303.572.506t.705.262q.36.058.615.022.254-.036 1.737-1.13M251.45 103.711q-.075-.09-.192-.502t-.212-.674-.441-.612-.642-.477q-.294-.124-.584-.111-.29.014-.712.466-.42.453-.549.89-.128.44-.117.665.012.226.073.354.062.129.277.35.216.223.458.34.241.116.496.127.255.012 1.125.075m-33.486-.922-.095-.101q-.253-.2-.407-.35t-.393-.31q-.24-.16-.483-.248-.245-.09-.724-.126t-.938.275q-.46.31-.636.586-.177.275-.233.534-.055.258-.016.5.038.24.204.384.165.143.51.28.344.138.563.164.219.027.616-.013.399-.041.844-.324.446-.284 1.653-1.455m-34.505.134-.127-.154-.174-.194q-.494-.382-.708-.52-.215-.14-.552-.39t-.725-.486-.886-.412-1.183-.18-.931.077-.648.382-.492.481q-.095.18-.145.433-.05.254.068.517.117.262.623.65.507.389 1.181.521.674.133 1.195.057.52-.076 1.196-.487.675-.412 2.007-1.753m-37.021 1.261-.07-.21q-.07-.037-.333-.385-.262-.348-.415-.542-.152-.193-.401-.383t-.575-.266-.62-.018-.483.225-.275.339q-.088.172-.125.477-.038.304.008.581.045.278.238.551.191.275.335.378.143.104.464.196t1.176-.102 2.726-1.236m138.961.261-.088-.1q-.425-.413-.534-.486-.109-.072-.143-.107t-.76-.313-1.334-.258q-.61.017-.83.112-.218.095-.314.196t-.126.144-.156.523-.008.841q.12.362.308.556t.5.329.555.161q.247.028.6.011t.916-.33q.564-.312 1.676-1.445m34.773.134q-.087-.229-.129-.231l-.14-.102-.362-.27q-.11-.103-.753-.195-.642-.091-1.075-.022t-.8.26q-.367.19-.415.24l-.172.186q-.122.135-.189.356-.066.22.053.482.118.261.504.532.386.27.95.38.562.108.928.074.366-.033.84-.182.472-.15 1.89-1.075m33.475.789q-.225-.542-.42-.869-.196-.326-.378-.531-.182-.204-.369-.352-.186-.148-.651-.287t-.803-.056-.477.24-.186.279q-.045.124-.038.146.007.023-.008.148-.013.124.247.412t.72.462.888.144 2.202-.958m35.539 32.943-.245.054q-.119.044-.448.04-.33-.004-.766.017-.436.02-1.08.153-.643.132-1.1.36-.456.226-.743.702-.286.477-.314 1.062t.186.969.573.478.716.057q.358-.036.807-.284t.728-.502.957-1.35m1.257 36.244q-.327-.316-.528-.474-.202-.158-.415-.283-.211-.125-.55-.27-.337-.146-.52-.2-.183-.053-.613-.11-.431-.057-.77 0-.338.056-.438.137t-.18.185-.126.337q-.046.235.007.457.05.222.345.458.297.236.44.275.146.039.714.136.569.098 1.244-.01.675-.109 1.823-.638m-.57 33.597q-.113-.226-.348-.602-.067-.043-.25-.201-.183-.16-.439-.364t-.615-.356q-.36-.152-.677-.153-.316-.001-.593.126-.276.128-.468.33-.192.201-.274.614t.023.726.32.545.442.33.732.129q.506.033 2.32-.329m.001 33.266-.318.045-.314-.041q-.444-.162-1.06-.264-.615-.102-1.127-.048-.512.052-.928.218t-.639.567q-.221.401-.207.698.013.297.123.542.109.245.376.41.268.165.638.225t.708.012q.337-.046.587-.163.249-.116 1.696-1.144m1.094 35.123q-.046-.045-.236-.158-.19-.112-.974-.594-.784-.48-1.408-.592-.622-.113-1.071-.028-.45.084-.74.357-.291.273-.345.718-.053.447.061.74.115.293.24.432t.273.249q.148.109.432.21t.686.129q.402.03.735-.01.334-.037 2.046-.727m.264 34.03q-.109-.026-.664-.374-.554-.35-1.387-.535-.834-.185-1.23-.136-.394.049-.62.137t-.481.329q-.257.241-.327.569-.068.327-.017.538.05.21.396.512.344.302.726.4.381.097.648.11.266.012.645-.132.378-.144 1.382-.661m1.23 33.533q-.062-.074-.232-.33-.17-.257-.423-.478-.252-.221-1.157-.548-.905-.325-1.378-.337-.474-.011-1.09.225-.617.235-.752 1.238-.136 1.003.071 1.311t.687.501.855.218 1.038-.212 2.117-1.124m183.776-212.197q-.412-1.003-.612-1.347-.2-.343-.5-.579-.302-.235-.57-.315t-.482-.083q-.214 0-.411.06-.197.062-.399.223-.201.161-.319.509-.117.346.018.837.135.49.606.95.472.458.834.569.363.11.504.114.142 0 .413-.081.271-.084.41-.18.14-.094.257-.177t.644-.5m.448 34.924q-.043-.03-.26-.19-.567-1.019-.727-1.23t-.238-.266-.245-.102-.402-.026-.404.157-.32.597q-.15.461-.116.732.032.27.095.451t.289.386.507.29.451.06.269-.072.263-.176q.163-.129 1.477-2.098m-.331 35.99-.044-.008q-.21-.065-.539-.303t-.637-.405-.414-.21-.384-.076-.512.029-.376.161-.241.316-.089.344.12.296.406.28.578.131q.28.019.512.012.233-.008 1.42-.54m.169 33.577q-.19 0-.295-.02t-.323-.036q-.22-.015-.52.028-.301.044-.448.114-.147.069-.242.15-.096.08-.168.164t-.153.215-.125.45.025.453q.07.13.26.226.191.095.39.063.198-.033 1.268-1.193m-.394 34.951-.47-.102q-.331-.17-.435-.201t-.355-.028q-.25 0-.435.076-.184.073-.344.29-.16.218-.176.457-.014.238.074.414.09.175.344.34.255.164.476.18.222.017.391-.049.168-.065 1.092-1.464m-.054 35.538q-.037 0-.16-.007-.135-.166-.388-.36-.252-.195-.415-.245t-.363-.038-.37.128-.256.278-.086.422.057.354.278.219.47.146.495-.046q.246-.069 1.077-.375m-.447 33.521-.153.009q-.618-.41-.736-.467-.119-.057-.19-.078-.07-.02-.258-.032-.19-.011-.384.046t-.347.208-.212.335-.017.38q.043.195.266.346t.438.205.368.054.424-.078 1.75-2.13m34.741-208.803q0-.007-.16-.187l-.013-.023-.056-.061q-.12-.092-.25-.101-.133-.008-.435.21-.3.216-.374.446t-.063.42.133.322q.12.134.35.223.227.09.41.086.183 0 .297-.061.114-.058 1.287-2.561m34.487 37.305q-.055-.151-.264-.816t-.299-.816-.279-.31-.351-.21-.409-.043q-.246.01-.369.195-.122.185-.124.286 0 .1-.007.166-.007.065.118.306.122.241.457.444.336.202.549.247.212.044.466.038.255-.007 1.49-.58m34.103 35.284-.087-.074-.413-.287q-.586-.266-1.167-.372-.58-.107-.985-.029-.406.077-.74.37-.336.294-.406.615-.07.32-.024.601.048.28.247.554t.444.442q.246.169.581.234.337.064.541.032t.452-.153q.246-.121.627-.584.382-.462.502-1.011.122-.55.073-.79-.05-.241-.1-.344-.052-.103-.288-.3t-.386-.244q-.149-.046-.777-.035m36.253 37.613q-.117-.521-.165-.81l-.054-.207-.112-.268q-.195-.384-.46-.655-.265-.27-.598-.42-.334-.15-.813-.162-.48-.011-.91.257-.429.27-.56.536-.13.267-.132.456 0 .188.181.433.183.244.496.366.313.121.81.174t.765.03.605-.108q.337-.086.699-.218.36-.132 1.768-.972m33.815 35.285-.03-.109-.098-.297q-.278-.52-.544-.765-.267-.245-.474-.372t-.54-.245-.795-.115q-.462 0-.676.062-.214.059-.437.225t-.34.378q-.115.212-.137.64-.022.43.256.867.279.438.98.654.7.216 1.349.127.647-.09 1.376-.452t1.537-.991m33.095 35.4q-.04-.027-.15-.164l-.103-.11q-.267-.215-.602-.384-.336-.169-.78-.224-.443-.055-.785.019-.341.072-.587.303t-.33.648-.03.65q.053.232.302.467.248.235.7.338.449.105.966 0 .518-.104 1.12-.61.603-.505 1.545-1.973m33.984 34.951-.654.131q-.033.008-.175-.074-.14-.081-.296-.14-.156-.058-.323-.089-.166-.032-.51-.01-.343.023-.675.221t-.489.53q-.156.33-.148.618.008.287.035.378t.222.36q.195.267.562.4.367.131.791.134.425 0 1.21-.336.786-.339 1.909-1.423m32.867 1.288q-.272-.404-.499-.696t-.544-.397-.486-.095q-.169.008-.242.063-.073.056-.103.193-.03.136.007.25.037.116.184.232.146.116.404.164.257.048.423.042.167-.007.526-.117.359-.112 1.087-.453m-.649-34.918-.292.219q-.17-.096-.312-.141t-.293-.035-.304.068-.216.11-.208.288q-.144.237-.21.466t-.08.504.092.611q.107.337.33.504.225.168.411.169.187 0 .364-.106.179-.105 1.304-1.816m-.139-36.266q-.22.112-.412-.093-.191-.204-.303-.237-.111-.034-.198-.041-.086-.008-.215.017-.129.027-.218.073-.09.047-.167.145-.076.098-.109.181-.032.084-.042.146t-.025.232.084.351.212.28.263.16.262.052.93-.145m-.062-34.837q.033-.182.039-.36.007-.18-.095-.686-.1-.506-.255-.716t-.22-.266-.367-.151q-.303-.095-.522-.069-.22.027-.337.11-.12.084-.244.452-.125.37-.037.734.088.365.291.64.204.277.486.428t.515.151.457-.103q.223-.104 1.215-.897m-.64-34.066q-.03-.043-.08-.132t-.111-.174-.073-.106q-.01-.02-.137-.131-.126-.112-.383-.229t-.785-.175-.82.009-.507.248q-.214.18-.281.408t.016.473q.085.246.15.318.066.072.228.177.163.104.307.149.145.044.501.053t.57-.054q.212-.063.605-.359.391-.296 1.394-2.097m.362-33.269-.134-.236-.134-.178q-.263-.282-.567-.56-.305-.277-.937-.57-.634-.291-1.16-.3t-.786.07-.42.238q-.16.158-.226.272-.068.114-.128.558t.048.753.412.53q.304.224.782.286.477.063.957-.097t.854-.498 1.015-1.276m.201-34.196q-.045-.047-.07-.213-.023-.165-.047-.286-.025-.12-.206-.43t-.412-.525-.656-.354-.882-.102-.767.25-.42.362-.141.246q-.035.098.016.52.051.421.767.702.717.282 1.285.233.567-.048 1.033-.212.468-.165 1.703-1.452"/>
    </g>
</svg>
