<svg xmlns="http://www.w3.org/2000/svg" xml:space="preserve" viewBox="0 0 960 480">
    <g fill="none" stroke-linecap="round" stroke-linejoin="round">
        <path stroke="#f6f7ef" stroke-width="3.144" d="m390.59 228.37-4.674 3.87m-32.262-50.37-5.772 4.318m82.272 89.779-6.3 4.936m-91.267-123.936-5.438 4.263m45.167 44.807-4.996 3.876m44.336 42.621-6.692 4.838m42.686 39.604-6.163 5.533" opacity=".5"/>
        <path stroke="#f6f7ef" stroke-width="1.572" d="m327.26 164.93-52.115 120.548m70.446-94.866-70.871 96.5m89.005-72.864-88.221 72.44m106.633-52.976-106.89 52.649m125.457-27.914-125.349 28.081m146.155-7.108-145.712 6.99m163.18 14.012-163.687-13.94" opacity=".5"/>
        <path stroke="#e66465" stroke-width="3.144" d="m39.443 284.11 36.54-150.473M40 283.93l188.822 37.227M67.87 148.879l8.644-15.99m.163.326-.581 16.731m135.579 162.488 17.626 8.26m-.127.341-18.458.822M54.915 134.562q-.416.666-1.113 2.784-.696 2.117-1.378 4.714l-1.123 4.293q-.443 1.696-2.067 7.406t-2.495 9.153q-.015-.003.086-.234m8.818-29.293.085.494q.11.262.826 6.672.715 6.41 1.104 10.213t.683 5.396.496 2.357.377 1.143q.175.377.34.616.041.226.16.689"/>
        <path stroke="#e66465" stroke-width="3.144" d="m49.967 153.225.83-.546q.337-.027 8.19-2.251M189.794 322.42q-.085.176-.452.673-.046.092-.134 2.16-.087 2.068-.112 5.884-.024 3.815-.279 10.6.008.007-.573-.935"/>
        <path stroke="#e66465" stroke-width="3.144" d="m188.004 324.938.45-.173q.268-.084 2.929-.61 2.66-.528 4.252-.46t2.273.256 1.067.396.794.753.527.877q.118.333.161.962.042.628-.015.961-.057.334-.274.887-.216.553-1.263 1.883t-1.823 2.072-1.427 1.494q-.016.059 1.36.284 1.374.224 2.801.444 1.428.218 2.555.594 1.126.375 2.071 1.043t1.409 1.395.494 1.292-.215 1.11q-.247.544-1.19 1.186-.941.642-2.448 1.022t-2.868.469q-1.362.088-8.797-.164-.023.027.422-.122"/>
        <path stroke="#9198e5" stroke-width="3.144" d="M81.927 139.603 222.394 310.89"/>
        <path stroke="#e66465" stroke-width="3.144" d="m274.346 286.607 36.539-150.472m-35.982 150.292 188.821 37.228M302.773 151.376l8.644-15.989m.163.326-.582 16.73m135.579 162.489 17.627 8.26m-.127.341-18.46.821m-155.8-187.294q-.415.666-1.112 2.783t-1.378 4.714l-1.124 4.294q-.442 1.695-2.066 7.406t-2.495 9.152q-.016-.003.085-.233m8.818-29.293.085.493q.111.263.826 6.673.716 6.41 1.105 10.212.388 3.804.683 5.396.294 1.593.496 2.358t.377 1.143.339.616q.041.225.162.688"/>
        <path stroke="#e66465" stroke-width="3.144" d="m284.87 155.722.829-.545q.338-.027 8.19-2.251m130.807 171.991q-.083.177-.452.674-.046.092-.133 2.16t-.112 5.883q-.024 3.816-.28 10.602.01.006-.572-.936"/>
        <path stroke="#e66465" stroke-width="3.144" d="m422.906 327.435.45-.172q.27-.085 2.93-.611 2.66-.528 4.252-.46 1.591.07 2.272.256.68.188 1.068.397.386.208.794.752.407.545.526.878t.161.962q.043.628-.015.961t-.273.887q-.217.553-1.264 1.883t-1.823 2.072-1.426 1.494q-.016.059 1.358.283 1.375.225 2.803.444t2.554.595 2.072 1.043 1.408 1.394.495 1.292q.031.566-.216 1.11t-1.188 1.186-2.449 1.023q-1.507.38-2.869.469-1.361.088-8.796-.164-.024.027.422-.123"/>
        <path stroke="#9198e5" stroke-width="3.144" d="m316.915 141.654 140.488 173.022m-248.759-13.15 13.58 9.65m-5.544-15.29 6.108 15.553m13.152-41.157q-1.933-1.566-2.504-1.895-.57-.33-.904-.492t-1.2-.451-2.073-.372-2.27.167-2.236 1.277q-1.173 1.03-2.237 3.226-1.062 2.197-1.364 4.304-.301 2.107-.14 3.59.161 1.48.712 2.786t1.519 2.439q.968 1.132 2.125 1.875t2.52 1.096 2.915.309q1.554-.044 2.485-.303.932-.258 1.93-.793.998-.534 1.785-1.342.789-.808 1.645-2.514.04-.183.17-.41"/>
        <path stroke="#e66465" stroke-width="3.144" d="m520.972 291.92 36.54-150.472M521.53 291.739l188.821 37.228M549.4 156.688l8.643-15.989m.163.326-.581 16.731m135.579 162.488 17.626 8.26m-.127.341-18.459.822m-155.8-187.295q-.415.666-1.113 2.783-.697 2.118-1.378 4.715l-1.123 4.293q-.442 1.696-2.066 7.406-1.625 5.71-2.495 9.152-.016-.002.085-.233m8.818-29.293.084.494q.112.262.827 6.672.716 6.41 1.104 10.213t.683 5.395.496 2.358q.202.765.377 1.143.176.378.34.616.041.226.16.688"/>
        <path stroke="#e66465" stroke-width="3.144" d="m531.495 161.034.83-.545q.338-.026 8.191-2.25M671.322 330.23q-.083.176-.451.673-.047.092-.134 2.16t-.111 5.884-.28 10.601q.008.006-.572-.936"/>
        <path stroke="#e66465" stroke-width="3.144" d="m669.533 332.747.45-.172q.268-.084 2.93-.611 2.66-.527 4.252-.459 1.59.068 2.271.256.682.188 1.069.396.386.21.794.753.407.544.525.877.12.333.162.962.043.628-.015.962t-.274.886q-.217.554-1.263 1.884-1.047 1.33-1.823 2.072-.777.742-1.427 1.493-.015.06 1.36.284 1.374.225 2.802.443 1.427.22 2.554.595t2.072 1.043 1.408 1.394q.464.727.495 1.293.03.565-.217 1.11-.246.543-1.188 1.186t-2.449 1.023-2.868.468-8.797-.163q-.023.026.423-.123"/>
        <path stroke="#9198e5" stroke-width="1.572" d="M573.887 170.243 521.77 290.79m70.447-94.865-70.87 96.5m89.004-72.865L522.13 292m106.633-52.976-106.89 52.649m125.458-27.913-125.35 28.08m146.156-7.108-145.712 6.99m163.18 14.012-163.688-13.94m44.885-114.916 7.427-7.284m.217.625-1.17 9.955m11.253 20.866 8.071-5.444m.743-.215-4.253 10.58m12.377 16.404 9.122-3.107m.434.504-5.902 8.116m15.117 11.892 8.222-.835m.526-.097-6.356 6.683m15.2 15.765 8.98 2.571m.799.09-7.143 5.13m18.572 11.891 9.038 3.86m-9.28 3.798 9.28-3.24m10.464 15.869 6.75 4.51m-8.675 3.025 8.98-2.859"/>
        <path stroke="#9198e5" stroke-width="3.144" d="M580.207 162.656q-.254-.06-.422-.091t-.524.013-.66.216-.467.369q-.163.196-.227.418-.063.222-.048.41.016.19.136.36t.338.26.411.077q.195-.015.315-.077t.18-.106l.14-.101q.082-.058.588-.732l.31-.494m17.693 27.157q-.013-.149-.023-.224-.009-.074-.011-.08 0-.005-.092-.193-.088-.188-.198-.298t-.245-.148-.322-.027-.37.142-.24.287q-.057.155-.042.359t.185.478.24.314q.072.042.33.109t.456.062q.198-.006.277-.024t.104-.022.107-.055.435-.202m18.795 22.242q-.123.068-.14.06l-.143-.07q-.128-.06-.258-.072-.131-.013-.259.004-.126.018-.262.095-.135.075-.276.274t-.2.376q-.059.176-.037.324.023.149.096.242t.178.188.208.146.17.062q.067.013.12 0 .05-.012.089-.036t.097-.039q.06-.014.574-.688l.131-.093m18.248 21.987q-.053-.093-.15-.219-.096-.125-.208-.226-.112-.1-.17-.141-.06-.041-.349-.12-.29-.08-.429-.043-.14.035-.308.257-.17.22-.18.381-.011.16 0 .228.012.068.086.153t.176.142.249.08.277-.009.261-.15.204-.202q.075-.083.088-.133t.014-.115q0-.065-.013-.148t-.022-.103 0-.16m20.592 26.483q-.092-.058-.309-.386-.216-.328-.374-.45t-.31-.177-.283-.027-.308.263-.234.417-.031.385q.024.203.099.313.074.11.148.161.073.053.184.074.113.02.128.017.017-.005.366-.134.35-.129.932-.814l.175-.213m19.892 24.323.008-.323q-.07-.274-.182-.452t-.315-.364-.38-.27-.299-.107-.282-.006-.264.07q-.103.054-.352.35-.248.296-.292.491-.045.196.008.386.05.19.122.283t.15.158q.08.067.195.13.116.063.404.125t.574.04q.286-.023.428-.064.141-.042.81-.386l.355-.176m17.005 21.125-.016-.04-.026-.082q-.085-.215-.282-.416t-.356-.3q-.16-.102-.318-.132-.159-.029-.227-.016-.07.014-.137.058-.069.044-.164.272-.096.228-.084.387t.05.25.25.21q.211.119.32.138t.181.015.234-.089q.162-.083.239-.172t.108-.146q.032-.059.297-.508m23.89 23.981-.07-.019q-.328-.142-.507-.201-.18-.06-.612-.102-.433-.042-.655-.007-.221.036-.287.044-.065.007-.165.101-.101.094-.14.174-.04.081-.059.228-.018.146-.011.211.008.065.111.17.106.104.204.146.099.042.154.062.056.02.21.035.155.015.28-.004.125-.02.396-.142t.436-.211.572-.667l.326-.437M562.513 136.888q-.114-.155-.263-.31-.148-.156-.2-.199t-.198-.116-.48-.132q-.336-.06-.528-.023t-.315.112-.24.254q-.12.179-.149.307-.029.127-.026.203.008.074.015.16.01.085.086.18t.306.205.462.155.412.042.273-.009q.095-.007.224-.057.131-.05.286-.158.155-.11.186-.146.032-.036.057-.09.025-.053.022-.146 0-.094.02-.254"/>
        <path stroke="#e66465" stroke-width="3.144" d="m754.938 286.612 36.539-150.472m-35.982 150.29 188.822 37.23M783.366 151.38l8.643-15.989m.163.327-.581 16.73M927.17 314.936l17.626 8.26m-.127.341-18.459.822m-155.8-187.295q-.416.667-1.113 2.783-.697 2.118-1.378 4.715l-1.123 4.293q-.443 1.696-2.066 7.406-1.625 5.71-2.495 9.152-.016-.002.085-.233m8.818-29.293.084.494q.112.262.827 6.672t1.104 10.213.683 5.395q.295 1.594.496 2.358.202.765.377 1.143t.34.617q.041.225.16.687"/>
        <path stroke="#e66465" stroke-width="3.144" d="m765.461 155.726.83-.545q.338-.026 8.19-2.25m130.807 171.991q-.083.177-.451.673-.047.092-.134 2.16t-.111 5.884-.28 10.601q.008.007-.573-.935"/>
        <path stroke="#e66465" stroke-width="3.144" d="m903.499 327.44.45-.173q.268-.084 2.93-.611 2.66-.527 4.252-.459 1.59.068 2.271.256.682.188 1.068.397.387.208.794.752t.526.877.162.962-.015.962-.274.886q-.217.554-1.263 1.884-1.047 1.33-1.823 2.072-.777.742-1.427 1.493-.015.06 1.36.284 1.374.225 2.802.443 1.427.22 2.554.595t2.071 1.043 1.409 1.395.494 1.292q.031.565-.216 1.11-.247.543-1.188 1.186-.942.642-2.449 1.023t-2.868.468-8.797-.163q-.023.027.422-.123"/>
        <path stroke="#f6f7ef" stroke-width="1.572" d="m792.525 134.508.61.747m2.346 2.876.28.343m2.334 2.862.58.71m2.34 2.868.368.452m2.335 2.863.491.602m2.335 2.861.482.591m2.344 2.873.244.3m2.336 2.863.824 1.01m2.36 2.892.232.286m2.34 2.868.687.843m2.338 2.865.63.772m2.339 2.866 1.188 1.458m2.345 2.875.776.95m2.335 2.862.918 1.127m2.335 2.862.507.62m2.335 2.863.622.763m2.334 2.861.734.9m2.339 2.868.64.782m2.338 2.867 1.301 1.596m2.337 2.864 1.038 1.273m2.335 2.861 1.06 1.3m2.334 2.861.968 1.187m2.335 2.86 1.13 1.386m2.334 2.861.98 1.202m2.334 2.86.88 1.08m2.335 2.862.597.733m2.338 2.865.956 1.172m2.339 2.866.926 1.136m2.334 2.861.81.993m2.343 2.873 1.23 1.506m2.339 2.868 1.297 1.591m2.344 2.872.581.714m2.337 2.865.721.882m2.335 2.862.742.911m2.339 2.866.9 1.105m2.338 2.866 1.272 1.557m2.335 2.864 1.088 1.332m2.336 2.863.925 1.135m2.341 2.87 1.197 1.467m2.334 2.861 1.013 1.241m2.368 2.904.93 1.138m2.348 2.881.91 1.113m2.343 2.875.865 1.058m2.362 2.898 1.095 1.34m2.345 2.876.685.84m2.343 2.87.932 1.144m2.334 2.86.549.673m2.337 2.866.83 1.016m2.348 2.879.732.898m-81.2-159.919-.11.078q-.259.188-3.877 3.466t-5.592 5.21-2.845 2.852q-.871.922-1.33 1.384t-2.428 2.572l-.539.13m17.764-15.538q.18-.022.626-.073.072-.007 1.948.91 1.876.918 2.975 1.921t1.609 1.805.658 1.48-.014 1.247q-.165.569-.444.945-.279.377-.883.79-.603.413-1.16.618t-1.83.365-2.189.145q-.916-.013-4.791-.314.05.242.617.749.567.506 1.247 1.107.68.602 1.533 1.67.853 1.066 1.265 1.933t.543 1.759-.231 2.266q-.363 1.375-.72 2.126-.357.753-.73 1.408-.372.655-.817 1.223t-1.106 1.048-1.78.703-2.444.063-2.575-.641q-1.248-.481-3.045-2.14-1.797-1.657-4.685-5.714.01-.02-.055.016m9.981 17.075.268-.062q.323-.026.8-.011.476.013 1.699.079 1.221.065 1.994.108.772.044.975.01.203-.032.19-.051t-.173.074-1.08.778-2.295 1.96q-1.375 1.274-1.985 1.97-.612.695-.76.911-.147.216-.186.246t-.073.315q.083.103.078.027m35.212-11.034q-.333-.07-.696-.077t-1.243.077-2.162.358-2.708.729-3.381 1.251-3.961 2.053-2.912 2.016q-.905.76-1.407 1.275t-1.49 1.894-1.592 2.62q-.603 1.238-.894 2.205-.292.969-.294 1.668.04.04.04.157m25.628-3.079q-.071.03-.357.02-.126.03-1.65.7-1.523.671-14.544 7.243-.104.014 1.34-.711m16.211-7.352q-.14.178-.274.265-.136.088-.998 1.389-.861 1.3-1.25 2.126-.388.826-1.071 2.335-.684 1.509-1.639 3.39t-4.59 7.4q-.041.084-.528.603"/>
        <path stroke="#f6f7ef" stroke-width="1.572" d="M885.03 210.324q.04.02.438.093.397.074.56.14t.359.17.787.491q.59.386 1.312 1.018.723.63 1.164 1.087.441.458 1.024 1.124.583.665 1.886 2.094m-2.547 16.119q.063.311.087.385t.042.232q.016.157.027.633.01.475-.065 1.034-.075.558-.866 2.223m24.92-10.892q-.327.138-.6.432-.274.296-.528.535t-1.526 1.426-2.274 2.106-2.98 2.71q-1.98 1.791-6.094 5.736 0 .04 1.192-1.492"/>
        <path stroke="#f6f7ef" stroke-width="1.572" d="M912.638 226.855q.11 0 .372-.01.262-.013.56.058.3.07 1.02.385t1.794 1.03 1.923 1.703 1.129 1.628.303 1.175-.323 1.219-.915 1.133q-.567.451-1.602.798-1.036.346-2.409.417-1.373.073-2.576-.145-1.202-.218-1.75-.376-.547-.158-.627-.209t.363.28q.443.33 1.416 1.326.972.997 1.823 2.276.85 1.28 1.188 2.3t.373 1.387q.037.366-.043 1.068t-.799 1.682-1.428 1.458-1.562.775q-.852.295-2.251-.05-1.4-.343-3.145-1.7-1.747-1.356-2.624-2.324t-1.23-1.487q-.023-.108-.378-.27m28.045-8.052q-.05.324-.636 1.754t-.835 2.105-.56 1.529l-.624 1.717q-.313.863-.922 2.298-.61 1.435-1.295 2.646t-1.906 2.666-2.336 2.44q-1.116.986-1.792 1.512-.676.524-1.579 1.159t-1.754 1.175q-.85.54-3.272 1.648t-4.141 1.598l-.356-.035"/>
    </g>
</svg>
