<?xml version="1.0" encoding="UTF-8" standalone="no"?>
<svg
   version="1.1"
   xml:space="preserve"
   x="0px"
   y="0px"
   viewBox="0 0 960 480"
   id="svg1"
   sodipodi:docname="stroke-expansion-4.svg"
   inkscape:version="1.3.2 (091e20ef0f, 2023-11-25, custom)"
   xmlns:inkscape="http://www.inkscape.org/namespaces/inkscape"
   xmlns:sodipodi="http://sodipodi.sourceforge.net/DTD/sodipodi-0.dtd"
   xmlns="http://www.w3.org/2000/svg"
   xmlns:svg="http://www.w3.org/2000/svg"><defs
   id="defs1" /><sodipodi:namedview
   id="namedview1"
   pagecolor="#505050"
   bordercolor="#eeeeee"
   borderopacity="1"
   inkscape:showpageshadow="0"
   inkscape:pageopacity="0"
   inkscape:pagecheckerboard="0"
   inkscape:deskcolor="#d1d1d1"
   inkscape:zoom="1.3906433"
   inkscape:cx="404.1295"
   inkscape:cy="292.31075"
   inkscape:window-width="2560"
   inkscape:window-height="1600"
   inkscape:window-x="0"
   inkscape:window-y="0"
   inkscape:window-maximized="0"
   inkscape:current-layer="svg1" />
<g
   id="Stroke_4"
   opacity="1"
   transform="matrix(0.62764626,0,0,0.62764626,-2675.1797,-2051.9937)"><path
     id="STROKE_09859c26-3b34-4974-92b7-0085e360c546"
     opacity="1"
     fill="none"
     stroke="#e66465"
     stroke-width="4"
     stroke-opacity="1"
     stroke-linecap="round"
     stroke-linejoin="round"
     d="m 4605.501,3887.155 q 2.264,-2.908 6.559,-7.674 4.295,-4.765 14.622,-15.468 10.327,-10.702 13,-13.354 2.672,-2.651 8.506,-8.231 5.834,-5.581 13.131,-11.995 7.297,-6.414 16.805,-14.386 9.507,-7.971 14.55,-12.079 5.042,-4.109 10.351,-8.204 5.31,-4.096 8.513,-6.499 3.202,-2.403 12.326,-9.066 9.125,-6.662 14.405,-10.373 5.28,-3.711 11.88,-8.126 6.601,-4.414 12.441,-8.222 5.84,-3.809 19.096,-11.926 13.255,-8.117 22.816,-13.714 9.562,-5.596 14.102,-8.21 4.539,-2.614 15.881,-8.874 11.343,-6.261 17.614,-9.673 6.272,-3.413 21.655,-11.506 15.384,-8.094 21.881,-11.433 6.497,-3.339 24.067,-11.858 17.57,-8.518 32.351,-15.237 14.781,-6.719 24.487,-10.89 9.706,-4.171 19.527,-8.112 9.821,-3.941 24.087,-9.29 14.266,-5.349 21.85,-8.022 7.583,-2.672 20.084,-6.924 12.501,-4.251 22.196,-7.379 9.695,-3.127 21.69,-6.834 11.993,-3.706 19.704,-5.984 7.711,-2.277 28.379,-8.199 20.667,-5.923 33.95,-9.597 13.283,-3.674 20.024,-5.501 6.741,-1.826 27.639,-7.165 20.898,-5.339 53.786,-12.379 32.889,-7.041 49.434,-10.091 16.544,-3.051 23.746,-4.294 7.201,-1.244 19.484,-3.268 12.282,-2.023 27.932,-4.389 15.65,-2.366 24.143,-3.575 8.494,-1.209 12.958,-1.819 4.463,-0.609 21.259,-2.937 16.795,-2.328 37.077,-5.186" /><path
     id="STROKE_88c9ee83-d3d2-49b7-a588-0bc712a1ac3d"
     opacity="1"
     fill="none"
     stroke="#f6f7ef"
     stroke-width="2"
     stroke-opacity="1"
     stroke-linecap="round"
     stroke-linejoin="round"
     d="m 4799.623,3736.456 q 0.041,-0.681 -0.106,-1.692 -0.147,-1.011 -0.388,-1.917 -0.241,-0.906 -0.56,-1.777 -0.318,-0.87 -0.872,-1.79 -0.553,-0.919 -1.374,-1.702 -0.821,-0.784 -2.076,-1.206 -1.255,-0.422 -2.365,-0.386 -1.11,0.035 -2.316,0.626 -1.205,0.592 -1.816,1.143 -0.611,0.552 -1.392,1.739 -0.779,1.187 -1.223,2.489 -0.444,1.301 -0.373,3.564 0.071,2.263 0.486,3.133 0.415,0.869 1.403,1.79 0.989,0.92 2.161,1.374 1.171,0.454 2.184,0.496 1.014,0.042 1.716,-0.08 0.702,-0.122 1.935,-0.757 1.235,-0.635 2.613,-2.091 1.377,-1.456 3.655,-7.646" /><path
     id="STROKE_4fe57dac-d50b-41e3-998d-87960b55676e"
     opacity="1"
     fill="none"
     stroke="#f6f7ef"
     stroke-width="2"
     stroke-opacity="1"
     stroke-linecap="round"
     stroke-linejoin="round"
     d="m 5157.296,3583.224 0.01,-0.497 -0.077,-0.478 q -0.217,-0.994 -0.253,-1.183 -0.036,-0.19 -0.465,-1.601 -0.429,-1.412 -0.727,-2.076 -0.299,-0.664 -0.852,-1.479 -0.555,-0.815 -1.694,-1.788 -1.139,-0.973 -2.328,-1.348 -1.189,-0.375 -2.017,-0.331 -0.829,0.044 -1.551,0.273 -0.721,0.229 -2.572,2.318 -1.852,2.089 -2.505,4.255 -0.654,2.166 -0.716,3.17 -0.063,1.005 0.109,1.913 0.172,0.907 0.631,1.789 0.459,0.882 1.057,1.603 0.597,0.721 1.275,1.234 0.678,0.512 1.142,0.741 0.465,0.23 1.727,0.434 1.263,0.204 2.211,0.072 0.947,-0.132 2.577,-0.968 1.631,-0.837 2.828,-2.013 1.196,-1.176 1.869,-2.121 0.673,-0.945 1.692,-2.568" /><path
     id="STROKE_c4aec474-c515-4108-a298-e7b5bd5ad8f9"
     opacity="1"
     fill="none"
     stroke="#f6f7ef"
     stroke-width="2"
     stroke-opacity="1"
     stroke-linecap="round"
     stroke-linejoin="round"
     d="M 4791.996,3730.95 4656.504,3503.597" /><path
     id="STROKE_a215106d-0872-47d7-8c22-d9bba0d61a25"
     opacity="1"
     fill="none"
     stroke="#f6f7ef"
     stroke-width="2"
     stroke-opacity="1"
     stroke-linecap="round"
     stroke-linejoin="round"
     d="m 4664.984,3537.155 -8.717,-33.423" /><path
     id="STROKE_8c7f1dc4-1218-475a-99d7-0149a757bff2"
     opacity="1"
     fill="none"
     stroke="#f6f7ef"
     stroke-width="2"
     stroke-opacity="1"
     stroke-linecap="round"
     stroke-linejoin="round"
     d="m 4655.062,3502.4 24.592,20.121" /><path
     id="STROKE_71d0550a-a5c1-4bf8-95e2-4f7b975a179d"
     opacity="1"
     fill="none"
     stroke="#f6f7ef"
     stroke-width="2"
     stroke-opacity="1"
     stroke-linecap="round"
     stroke-linejoin="round"
     d="m 4797.575,3740.12 135.408,227.403" /><path
     id="STROKE_ada92ede-5ccd-4cd3-8264-67b540733d80"
     opacity="1"
     fill="none"
     stroke="#f6f7ef"
     stroke-width="2"
     stroke-opacity="1"
     stroke-linecap="round"
     stroke-linejoin="round"
     d="m 4924.515,3933.962 8.705,33.427" /><path
     id="STROKE_a1a4b18d-5945-4f79-907c-f653d518b68d"
     opacity="1"
     fill="none"
     stroke="#f6f7ef"
     stroke-width="2"
     stroke-opacity="1"
     stroke-linecap="round"
     stroke-linejoin="round"
     d="m 4934.425,3968.721 -24.585,-20.13" /><path
     id="STROKE_4eca427c-4470-4d3c-a352-69e67f9018c0"
     opacity="1"
     fill="none"
     stroke="#f6f7ef"
     stroke-width="2"
     stroke-opacity="1"
     stroke-linecap="round"
     stroke-linejoin="round"
     d="m 5147.657,3576.493 -74.996,-253.817" /><path
     id="STROKE_5823602f-ba72-475b-8b04-9b054cbea2d1"
     opacity="1"
     fill="none"
     stroke="#f6f7ef"
     stroke-width="2"
     stroke-opacity="1"
     stroke-linecap="round"
     stroke-linejoin="round"
     d="m 5072.571,3357.288 -0.173,-34.54" /><path
     id="STROKE_e49bf350-6014-4cf1-b2a5-c4e17520bd7a"
     opacity="1"
     fill="none"
     stroke="#f6f7ef"
     stroke-width="2"
     stroke-opacity="1"
     stroke-linecap="round"
     stroke-linejoin="round"
     d="m 5071.561,3321.159 18.845,25.582" /><path
     id="STROKE_d99f11fd-8cc8-4c38-85b9-ad59c9f25d3a"
     opacity="1"
     fill="none"
     stroke="#f6f7ef"
     stroke-width="2"
     stroke-opacity="1"
     stroke-linecap="round"
     stroke-linejoin="round"
     d="m 5150.354,3582.055 75.446,253.684" /><path
     id="STROKE_189f2b66-9adb-412a-8570-0ae71b3ba019"
     opacity="1"
     fill="none"
     stroke="#f6f7ef"
     stroke-width="2"
     stroke-opacity="1"
     stroke-linecap="round"
     stroke-linejoin="round"
     d="m 5225.827,3801.128 0.234,34.54" /><path
     id="STROKE_d9bbedfb-ec80-4ab4-a7c4-269ea96b5aba"
     opacity="1"
     fill="none"
     stroke="#f6f7ef"
     stroke-width="2"
     stroke-opacity="1"
     stroke-linecap="round"
     stroke-linejoin="round"
     d="m 5226.902,3837.255 -18.891,-25.549" /><path
     id="STROKE_87ff9604-cc27-455f-bd19-3c173579ef35"
     opacity="1"
     fill="none"
     stroke="#9198e5"
     stroke-width="4"
     stroke-opacity="1"
     stroke-linecap="round"
     stroke-linejoin="round"
     d="m 4659.798,3500.331 -0.972,-1 -1.173,-2.331 q -0.286,-0.445 -1.059,-1.667 -0.773,-1.222 -2.615,-1.979 -1.841,-0.756 -3.142,-0.737 -1.301,0.02 -2.861,0.801 -1.561,0.781 -2.024,1.498 -0.462,0.716 -0.636,1.355 -0.173,0.64 0.083,1.695 0.257,1.056 0.641,1.558 0.383,0.502 0.618,0.78 0.235,0.278 1.575,1.185 1.342,0.906 2.852,1.323 1.511,0.416 2.554,0.362 1.043,-0.054 1.419,-0.183 0.376,-0.129 1.158,-1.011 0.783,-0.881 1.006,-1.822 0.223,-0.94 0.255,-1.449 0.031,-0.508 -0.168,-0.935 -0.201,-0.427 -0.541,-0.795 -0.341,-0.368 -0.678,-0.487 -0.337,-0.119 -0.544,-0.146 -0.208,-0.026 -0.666,0.134 -0.458,0.16 -0.834,0.479 -0.376,0.32 -0.47,0.556 -0.094,0.236 -0.076,0.418 0.017,0.182 0.11,0.402 0.094,0.22 0.341,0.594 0.248,0.374 0.203,0.483 -0.044,0.109 1.958,1.671 l 0.472,0.164" /><path
     id="STROKE_d2087f98-2dd5-4931-b5b0-00c261bc729c"
     opacity="1"
     fill="none"
     stroke="#9198e5"
     stroke-width="4"
     stroke-opacity="1"
     stroke-linecap="round"
     stroke-linejoin="round"
     d="m 5074.583,3321.063 q -0.119,-0.157 -0.487,-0.594 -0.367,-0.438 -0.93,-1.05 -0.563,-0.611 -1.07,-0.96 -0.507,-0.348 -2.363,-1.121 -1.855,-0.772 -3.185,-0.852 -1.33,-0.08 -1.952,0.087 -0.622,0.167 -1.263,0.546 -0.641,0.378 -1.176,1.154 -0.534,0.776 -0.586,1.248 -0.05,0.471 -0.06,0.838 -0.011,0.367 0.651,1.137 0.662,0.771 1.365,1.226 0.704,0.455 3.497,0.933 2.794,0.478 3.603,0.231 0.808,-0.246 1.337,-0.842 0.53,-0.596 0.681,-0.991 0.151,-0.395 0.094,-0.685 -0.057,-0.289 -0.147,-0.487 -0.091,-0.198 -0.364,-0.444 -0.274,-0.247 -0.677,-0.471 -0.403,-0.223 -1,-0.171 -0.597,0.052 -0.891,0.267 -0.293,0.216 -0.384,0.403 -0.09,0.187 -0.047,0.393 0.042,0.206 0.512,0.548 0.47,0.342 3.059,0.981 0.354,-0.142 1.304,-0.036" /><path
     id="STROKE_68d310c1-dfd8-4cbf-93b9-302640e05812"
     opacity="1"
     fill="none"
     stroke="#9198e5"
     stroke-width="4"
     stroke-opacity="1"
     stroke-linecap="round"
     stroke-linejoin="round"
     d="m 4944.798,3977.242 q -0.253,-0.426 -0.986,-1.84 -0.732,-1.413 -1.515,-2.537 -0.782,-1.124 -1.739,-1.767 -0.958,-0.643 -1.829,-0.778 -0.872,-0.134 -1.578,0.295 -0.706,0.43 -1.068,1.269 -0.363,0.84 -0.358,1.429 0,0.59 0.285,1.166 0.282,0.576 1.287,1.163 1.005,0.587 1.895,0.716 0.89,0.13 1.348,-0.041 0.458,-0.171 1.006,-0.548 0.549,-0.378 0.853,-0.705 0.304,-0.327 1.523,-1.206" /><path
     id="STROKE_5cd90cbb-1372-484a-86a6-9f4f449b1e45"
     opacity="1"
     fill="none"
     stroke="#9198e5"
     stroke-width="4"
     stroke-opacity="1"
     stroke-linecap="round"
     stroke-linejoin="round"
     d="m 5233.302,3848.938 q -0.074,-0.209 -0.063,-0.692 0.012,-0.484 -0.121,-1.578 -0.132,-1.094 -0.306,-1.676 -0.173,-0.582 -0.325,-0.901 -0.151,-0.319 -0.581,-0.715 -0.43,-0.396 -0.689,-0.552 -0.259,-0.155 -0.797,-0.346 -0.539,-0.191 -1.232,-0.195 -0.695,0 -1.063,0.101 -0.368,0.104 -0.81,0.507 -0.441,0.402 -0.757,1.148 -0.317,0.745 -0.347,1.526 -0.029,0.78 0.185,1.386 0.213,0.605 0.7,1.055 0.486,0.45 0.943,0.626 0.456,0.176 0.803,0.164 0.346,-0.011 0.686,-0.183 0.34,-0.171 0.865,-0.856 0.525,-0.684 0.85,-1.759 0.074,-0.151 0.158,-0.848" /><path
     id="STROKE_a7316b90-a2f1-4716-9366-57b0ff039dd2"
     opacity="1"
     fill="none"
     stroke="#9198e5"
     stroke-width="4"
     stroke-opacity="1"
     stroke-linecap="round"
     stroke-linejoin="round"
     d="m 4948.32,3971.346 270.557,-122.538" /><path
     id="STROKE_e586d60b-a58a-4580-8ef9-9a6122dbf9ad"
     opacity="1"
     fill="none"
     stroke="#9198e5"
     stroke-width="4"
     stroke-opacity="1"
     stroke-linecap="round"
     stroke-linejoin="round"
     d="m 4665.052,3492.216 391.207,-169.924" /><path
     id="STROKE_d4e94412-b8ba-4f52-ae94-0a9ccdd2a482"
     opacity="1"
     fill="none"
     stroke="#9198e5"
     stroke-width="4"
     stroke-opacity="1"
     stroke-linecap="round"
     stroke-linejoin="round"
     d="m 5080.271,3315.974 108.894,-31.594" /><path
     id="STROKE_4915057c-4b48-4d8e-b14e-239c2d275e01"
     opacity="1"
     fill="none"
     stroke="#9198e5"
     stroke-width="4"
     stroke-opacity="1"
     stroke-linecap="round"
     stroke-linejoin="round"
     d="m 5241.825,3840.427 88.514,-28.489" /><path
     id="STROKE_5952f78e-baaf-4445-827f-c1c7fc0ef36b"
     opacity="1"
     fill="none"
     stroke="#9198e5"
     stroke-width="4"
     stroke-opacity="1"
     stroke-linecap="round"
     stroke-linejoin="round"
     d="m 4639.848,3507.121 -56.318,41.901" /><path
     id="STROKE_0bb7e884-5e61-43c0-b142-d0bfffe4d057"
     opacity="1"
     fill="none"
     stroke="#9198e5"
     stroke-width="4"
     stroke-opacity="1"
     stroke-linecap="round"
     stroke-linejoin="round"
     d="m 4931.454,3981.101 -48.231,31.036" /><path
     id="STROKE_609529c1-65a5-4eea-ba1e-208aa60995ad"
     opacity="1"
     fill="none"
     stroke="#f6f7ef"
     stroke-width="2"
     stroke-opacity="1"
     stroke-linecap="round"
     stroke-linejoin="round"
     d="m 4750.011,3788.05 q -0.231,0.397 -0.526,1.045 -0.12,0.389 0.525,11.697 0.644,11.308 1.619,18.184 0.975,6.876 1.441,9.375 0.466,2.499 0.804,3.783 0.338,1.284 0.888,3.105" /><path
     id="STROKE_e46e491c-ac4d-4d79-81a7-2808eb61844f"
     opacity="1"
     fill="none"
     stroke="#f6f7ef"
     stroke-width="2"
     stroke-opacity="1"
     stroke-linecap="round"
     stroke-linejoin="round"
     d="m 4749.913,3788.24 1.288,-1.397 q 2.028,-1.172 5.287,-2.045 3.26,-0.874 6.302,-0.348 3.043,0.526 4.548,1.195 1.506,0.669 3.74,2.336 2.234,1.666 3.696,3.598 1.462,1.931 2.078,3.918 0.615,1.988 0.535,4.39 -0.081,2.402 -1.136,4.541 -1.055,2.14 -4.33,4.965 -3.275,2.825 -13.862,6.024 l -2.654,0.677" /><path
     id="STROKE_e73077e6-efa2-4d89-a8a3-2ad9489cf673"
     opacity="1"
     fill="none"
     stroke="#f6f7ef"
     stroke-width="2"
     stroke-opacity="1"
     stroke-linecap="round"
     stroke-linejoin="round"
     d="m 4781.83,3824.906 q 0.094,0.336 -0.544,1.424 -0.166,0.395 4.991,16.433 0.158,0.011 1.053,-1.913 0.896,-1.925 1.581,-3.401 0.685,-1.476 1.458,-2.378 0.773,-0.902 1.652,-1.373 0.88,-0.471 1.727,-0.508 0.848,-0.038 1.35,0.078 0.503,0.115 1.039,0.387 0.536,0.272 2.306,2.891 1.771,2.618 3.448,8.499 l 0.624,1.978" /><path
     id="STROKE_75694446-9db0-4226-a661-b867d2f8ae2d"
     opacity="1"
     fill="none"
     stroke="#f6f7ef"
     stroke-width="2"
     stroke-opacity="1"
     stroke-linecap="round"
     stroke-linejoin="round"
     d="m 5195.153,3585.457 q 0.024,0.802 0.927,8.659 0.903,7.858 3.564,25.702 0.05,0.065 -0.086,0.525" /><path
     id="STROKE_911ad3c0-2c07-4002-a128-99d02757994d"
     opacity="1"
     fill="none"
     stroke="#f6f7ef"
     stroke-width="2"
     stroke-opacity="1"
     stroke-linecap="round"
     stroke-linejoin="round"
     d="m 5195.5,3586.891 q 0.208,-0.097 1.614,-1.24 1.407,-1.143 4.516,-2.479 3.108,-1.337 5.17,-1.641 2.062,-0.305 3.817,-0.073 1.755,0.233 2.581,0.582 0.826,0.349 2.105,1.881 1.279,1.532 1.833,4.263 0.553,2.732 -0.022,5.412 -0.574,2.68 -1.281,4.172 -0.707,1.491 -2.423,3.696 -1.717,2.206 -3.553,3.651 -1.835,1.446 -4.115,2.365 -2.279,0.919 -3.503,1.031 -1.223,0.111 -1.744,0.116 -0.52,0.01 -0.995,-0.176 -0.475,-0.181 -0.848,-0.409 -0.373,-0.23 -1.519,-0.831" /><path
     id="STROKE_c5138b65-1560-4a85-962e-90f11ef0e4b4"
     opacity="1"
     fill="none"
     stroke="#f6f7ef"
     stroke-width="2"
     stroke-opacity="1"
     stroke-linecap="round"
     stroke-linejoin="round"
     d="m 5220.144,3614.935 q 0.148,0.352 0.127,0.642 -0.02,0.29 0,0.319 0.018,0.029 0.111,0.951 0.093,0.921 1.004,3.104 0.911,2.182 1.568,3.291 0.656,1.109 1.099,1.73 0.443,0.621 0.948,1.089 0.209,-0.172 0.977,-1.616 0.766,-1.445 1.378,-2.501 0.612,-1.056 1.269,-1.792 0.656,-0.735 1.735,-1.184 1.08,-0.448 1.69,-0.441 0.61,0.01 0.972,10e-4 0.362,-0.01 1.411,0.496 1.049,0.502 1.65,1.03 0.601,0.527 1.123,1.154 0.522,0.628 0.752,0.988 0.23,0.36 0.482,0.757 0.252,0.396 1.063,2.859 0.81,2.464 1.053,3.688" /><path
     id="STROKE_2c21f71e-eb56-4bea-af97-02be130e4f57"
     opacity="1"
     fill="none"
     stroke="#f6f7ef"
     stroke-width="2"
     stroke-opacity="1"
     stroke-linecap="round"
     stroke-linejoin="round"
     d="m 5248.474,3621.69 q 0.886,-0.607 9.971,-3.248" /><path
     id="STROKE_8748391c-64d5-4a38-b7a9-2f00f3e4049d"
     opacity="1"
     fill="none"
     stroke="#f6f7ef"
     stroke-width="2"
     stroke-opacity="1"
     stroke-linecap="round"
     stroke-linejoin="round"
     d="m 5251.344,3615.125 q 0.478,0.956 3.414,12.665" /><path
     id="STROKE_bd23d3e0-aa88-4090-ab2a-b6a6cc272b83"
     opacity="1"
     fill="none"
     stroke="#f6f7ef"
     stroke-width="2"
     stroke-opacity="1"
     stroke-linecap="round"
     stroke-linejoin="round"
     d="m 5274.107,3620.343 0.269,-0.614 0.409,-0.668 q 0.17,-0.154 1.205,-1.735 1.036,-1.581 1.777,-2.511 0.118,0.505 0.217,1.004 0.099,0.5 0.589,3.518 0.489,3.018 1.928,8.801 l 0.534,1.898" /></g></svg>
