<svg xmlns="http://www.w3.org/2000/svg" xml:space="preserve" viewBox="0 0 960 480">
    <g fill="none" stroke-linecap="round" stroke-linejoin="round">
        <path stroke="#e66465" stroke-width="2.313" d="M64.597 419.472q1.31-1.682 3.793-4.438t8.455-8.944q5.972-6.19 7.517-7.722 1.546-1.533 4.919-4.76 3.374-3.227 7.593-6.936 4.22-3.71 9.717-8.319t8.414-6.985q2.916-2.375 5.986-4.743t4.922-3.758 7.128-5.243q5.276-3.852 8.33-5.998 3.053-2.146 6.87-4.699 3.816-2.552 7.193-4.755t11.042-6.895q7.665-4.695 13.194-7.93 5.53-3.237 8.154-4.748 2.625-1.512 9.184-5.131t10.185-5.594q3.627-1.973 12.522-6.653 8.896-4.68 12.653-6.611t13.916-6.857 18.708-8.811 14.159-6.297 11.292-4.691 13.928-5.372q8.25-3.093 12.634-4.639 4.386-1.545 11.614-4.004 7.23-2.458 12.836-4.267 5.605-1.808 12.541-3.951t11.394-3.46q4.46-1.317 16.41-4.742 11.951-3.425 19.632-5.55 7.68-2.124 11.58-3.18 3.897-1.056 15.982-4.143 12.084-3.088 31.101-7.158 19.019-4.072 28.585-5.836t13.731-2.483 11.268-1.89 16.151-2.537 13.962-2.068q4.91-.7 7.492-1.051 2.58-.353 12.293-1.699t21.44-2.998"/>
        <path stroke="#f6f7ef" stroke-width="1.157" d="M176.848 332.33q.024-.394-.06-.979-.086-.584-.225-1.108-.14-.524-.324-1.028-.184-.503-.504-1.035t-.795-.984q-.474-.453-1.2-.697t-1.368-.224-1.339.362q-.697.343-1.05.662t-.804 1.006q-.451.686-.708 1.438-.257.753-.216 2.061.04 1.309.28 1.812.241.502.813 1.035.571.532 1.249.794.677.263 1.263.287t.992-.046 1.12-.438q.713-.367 1.51-1.209.796-.842 2.113-4.421m206.079-85.895.005-.287-.045-.277q-.125-.574-.145-.684-.022-.11-.27-.926-.247-.816-.42-1.2t-.493-.855q-.32-.472-.979-1.034t-1.346-.78q-.688-.216-1.167-.191t-.896.158-1.488 1.34-1.448 2.46-.414 1.834.063 1.106.365 1.034.611.927.737.713q.392.297.66.43.269.132 1 .25.73.118 1.278.042.547-.076 1.49-.56t1.635-1.164 1.081-1.226.978-1.485m-212.028 85.798 407.283-223.647m10.881-5.975 12.507-6.867m11.627-6.386 10.876-5.972m10.808-5.934 16.288-8.944M378.954 241.386l433.53-118.452m11.892-3.248 19.528-5.336m12.263-3.35 17.82-4.87m11.368-3.105 22.14-6.05M634.833 69.769l18.884-5.48m.203.949-12.985 14.336m251.483 14.541 14.597 2.06m.737-.365-11.784 12.688M148.16 362.164q-.133.23-.304.604-.07.225.304 6.764.372 6.539.936 10.515t.833 5.421.465 2.188.514 1.795"/>
        <path stroke="#f6f7ef" stroke-width="1.157" d="m148.103 362.274.745-.808q1.173-.678 3.058-1.182 1.884-.506 3.644-.202 1.76.305 2.63.691.87.387 2.162 1.351t2.138 2.08 1.2 2.266q.357 1.15.31 2.539t-.656 2.626q-.61 1.237-2.504 2.87t-8.016 3.484l-1.535.392m15.281 5.095q.054.194-.315.824-.096.228 2.886 9.502.091.006.61-1.106l.913-1.967q.396-.853.843-1.375t.956-.794.998-.294.781.045.6.224q.31.158 1.334 1.672t1.994 4.915l.36 1.143m227.045-151.251q.013.464.536 5.007.522 4.544 2.06 14.863.03.037-.05.303"/>
        <path stroke="#f6f7ef" stroke-width="1.157" d="M405.765 245.844q.12-.057.934-.718.813-.66 2.61-1.433 1.798-.773 2.99-.949t2.208-.042q1.014.135 1.492.336.478.202 1.217 1.088t1.06 2.465-.013 3.13-.74 2.412q-.41.862-1.401 2.138-.993 1.275-2.055 2.111-1.061.836-2.379 1.367-1.318.532-2.026.596-.707.065-1.008.067-.301.006-.576-.101-.274-.105-.49-.237t-.879-.48m13.307 4.466q.085.204.074.371-.013.168 0 .185.01.016.064.55.054.532.58 1.795.528 1.261.908 1.903.379.64.635 1 .256.359.548.63.121-.1.565-.935t.797-1.446q.354-.61.733-1.036.38-.425 1.005-.685.624-.259.976-.255.353.006.562 0t.816.287q.607.29.955.596.346.304.648.667t.436.571l.278.438q.146.229.615 1.653.469 1.425.609 2.133m4.577-4.516q.513-.35 5.766-1.878"/>
        <path stroke="#f6f7ef" stroke-width="1.157" d="M438.057 262.17q.276.552 1.974 7.323m11.189-4.306.155-.355.237-.386q.098-.09.697-1.003.599-.915 1.027-1.452.068.292.126.58.057.29.34 2.034.283 1.746 1.115 5.09l.309 1.097"/>
    </g>
</svg>
