<?xml version="1.0" encoding="UTF-8" standalone="no"?>
<svg
   version="1.1"
   xml:space="preserve"
   x="0px"
   y="0px"
   viewBox="0 0 960 480"
   id="svg1"
   sodipodi:docname="stroke-expansion-3.svg"
   inkscape:version="1.3.2 (091e20ef0f, 2023-11-25, custom)"
   xmlns:inkscape="http://www.inkscape.org/namespaces/inkscape"
   xmlns:sodipodi="http://sodipodi.sourceforge.net/DTD/sodipodi-0.dtd"
   xmlns="http://www.w3.org/2000/svg"
   xmlns:svg="http://www.w3.org/2000/svg"><defs
   id="defs1" /><sodipodi:namedview
   id="namedview1"
   pagecolor="#505050"
   bordercolor="#eeeeee"
   borderopacity="1"
   inkscape:showpageshadow="0"
   inkscape:pageopacity="0"
   inkscape:pagecheckerboard="0"
   inkscape:deskcolor="#d1d1d1"
   inkscape:zoom="0.98333334"
   inkscape:cx="499.32203"
   inkscape:cy="262.88135"
   inkscape:window-width="2560"
   inkscape:window-height="1600"
   inkscape:window-x="0"
   inkscape:window-y="0"
   inkscape:window-maximized="0"
   inkscape:current-layer="svg1"
   showgrid="false" />
<g
   id="Stroke_3"
   opacity="1"
   transform="matrix(0.96043622,0,0,0.96043622,-4377.8278,-2844.5782)"><path
     id="STROKE_e7ef62fb-fa2e-48e7-9957-0d63691052c3"
     opacity="1"
     fill="none"
     stroke="#e66465"
     stroke-width="4"
     stroke-opacity="1"
     stroke-linecap="round"
     stroke-linejoin="round"
     d="m 4605.501,3406.482 q 2.264,-2.908 6.559,-7.674 4.295,-4.765 14.622,-15.468 10.327,-10.702 13,-13.353 2.672,-2.652 8.506,-8.232 5.834,-5.581 13.131,-11.995 7.297,-6.415 16.805,-14.386 9.507,-7.971 14.55,-12.08 5.042,-4.108 10.351,-8.204 5.31,-4.095 8.513,-6.498 3.202,-2.404 12.326,-9.066 9.125,-6.662 14.405,-10.373 5.28,-3.712 11.88,-8.126 6.601,-4.414 12.441,-8.223 5.84,-3.808 19.096,-11.925 13.255,-8.118 22.816,-13.713 9.562,-5.597 14.102,-8.211 4.539,-2.614 15.881,-8.874 11.343,-6.261 17.614,-9.673 6.272,-3.413 21.655,-11.506 15.384,-8.094 21.881,-11.433 6.497,-3.339 24.067,-11.858 17.57,-8.518 32.351,-15.237 14.781,-6.719 24.487,-10.89 9.706,-4.171 19.527,-8.112 9.821,-3.941 24.087,-9.29 14.266,-5.349 21.85,-8.022 7.583,-2.672 20.084,-6.924 12.501,-4.251 22.196,-7.379 9.695,-3.127 21.69,-6.834 11.993,-3.707 19.704,-5.984 7.711,-2.277 28.379,-8.199 20.667,-5.923 33.95,-9.597 13.283,-3.674 20.024,-5.5 6.741,-1.827 27.639,-7.166 20.898,-5.339 53.786,-12.379 32.889,-7.041 49.434,-10.091 16.544,-3.05 23.746,-4.294 7.201,-1.244 19.484,-3.268 12.282,-2.023 27.932,-4.389 15.65,-2.366 24.143,-3.576 8.494,-1.209 12.958,-1.818 4.463,-0.609 21.259,-2.937 16.795,-2.329 37.077,-5.186" /><path
     id="STROKE_ef71af6a-5b45-4096-aa15-49dbe606ea8c"
     opacity="1"
     fill="none"
     stroke="#f6f7ef"
     stroke-width="2"
     stroke-opacity="1"
     stroke-linecap="round"
     stroke-linejoin="round"
     d="m 4799.623,3255.783 q 0.041,-0.681 -0.106,-1.692 -0.147,-1.011 -0.388,-1.917 -0.241,-0.906 -0.56,-1.777 -0.318,-0.87 -0.872,-1.79 -0.553,-0.919 -1.374,-1.702 -0.821,-0.783 -2.076,-1.206 -1.255,-0.422 -2.365,-0.387 -1.11,0.036 -2.316,0.627 -1.205,0.592 -1.816,1.144 -0.611,0.551 -1.392,1.738 -0.779,1.187 -1.223,2.489 -0.444,1.301 -0.373,3.564 0.071,2.263 0.486,3.133 0.415,0.869 1.403,1.79 0.989,0.92 2.161,1.374 1.171,0.454 2.184,0.496 1.014,0.042 1.716,-0.08 0.702,-0.122 1.935,-0.757 1.235,-0.635 2.613,-2.091 1.377,-1.456 3.655,-7.646" /><path
     id="STROKE_5a5b2ec8-b9ad-4633-84d7-426aad922387"
     opacity="1"
     fill="none"
     stroke="#f6f7ef"
     stroke-width="2"
     stroke-opacity="1"
     stroke-linecap="round"
     stroke-linejoin="round"
     d="m 5157.296,3102.551 0.01,-0.497 -0.077,-0.479 q -0.217,-0.993 -0.253,-1.182 -0.036,-0.189 -0.465,-1.601 -0.429,-1.412 -0.727,-2.076 -0.299,-0.664 -0.852,-1.479 -0.555,-0.815 -1.694,-1.788 -1.139,-0.973 -2.328,-1.348 -1.189,-0.375 -2.017,-0.331 -0.829,0.044 -1.551,0.273 -0.721,0.229 -2.572,2.318 -1.852,2.089 -2.505,4.255 -0.654,2.165 -0.716,3.17 -0.063,1.005 0.109,1.913 0.172,0.907 0.631,1.789 0.459,0.882 1.057,1.603 0.597,0.721 1.275,1.234 0.678,0.512 1.142,0.741 0.465,0.23 1.727,0.434 1.263,0.204 2.211,0.072 0.947,-0.132 2.577,-0.968 1.631,-0.836 2.828,-2.012 1.196,-1.176 1.869,-2.122 0.673,-0.945 1.692,-2.568" /><path
     id="STROKE_20fd351a-a184-48dd-9dc3-1f072aadcab6"
     opacity="1"
     fill="none"
     stroke="#f6f7ef"
     stroke-width="2"
     stroke-opacity="1"
     stroke-linecap="round"
     stroke-linejoin="round"
     d="M 4791.996,3250.277 5038.93,3113.789" /><path
     id="STROKE_dc040c15-6c8a-4028-97e8-39f76db1aa8b"
     opacity="1"
     fill="none"
     stroke="#f6f7ef"
     stroke-width="2"
     stroke-opacity="1"
     stroke-linecap="round"
     stroke-linejoin="round"
     d="m 5150.566,3097.756 272.446,-73.338" /><path
     id="STROKE_07ff6ea9-c50c-4a88-81eb-8228074162df"
     opacity="1"
     fill="none"
     stroke="#f6f7ef"
     stroke-width="2"
     stroke-opacity="1"
     stroke-linecap="round"
     stroke-linejoin="round"
     d="m 5004.995,3120.525 33.647,-7.806" /><path
     id="STROKE_5d4af647-7522-42a8-9afd-02661a6779d8"
     opacity="1"
     fill="none"
     stroke="#f6f7ef"
     stroke-width="2"
     stroke-opacity="1"
     stroke-linecap="round"
     stroke-linejoin="round"
     d="m 5040.006,3111.551 -20.782,24.036" /><path
     id="STROKE_90ec6748-3e2a-49ad-b775-52cb326355c2"
     opacity="1"
     fill="none"
     stroke="#f6f7ef"
     stroke-width="2"
     stroke-opacity="1"
     stroke-linecap="round"
     stroke-linejoin="round"
     d="m 5391.234,3023.916 31.123,-0.054" /><path
     id="STROKE_56fcf4e7-8675-4de1-a380-cb1f589de484"
     opacity="1"
     fill="none"
     stroke="#f6f7ef"
     stroke-width="2"
     stroke-opacity="1"
     stroke-linecap="round"
     stroke-linejoin="round"
     d="m 5423.722,3024.707 -25.792,14.172" /><path
     id="STROKE_b20b86a8-0f2f-4652-b00f-4580edd13e4c"
     opacity="1"
     fill="none"
     stroke="#f6f7ef"
     stroke-width="2"
     stroke-opacity="1"
     stroke-linecap="round"
     stroke-linejoin="round"
     d="m 4750.011,3307.377 q -0.231,0.397 -0.526,1.045 -0.12,0.389 0.525,11.697 0.644,11.308 1.619,18.184 0.975,6.876 1.441,9.375 0.466,2.499 0.804,3.783 0.338,1.284 0.888,3.104" /><path
     id="STROKE_6bb02d08-6e0d-4816-9644-0d6c4c352bdf"
     opacity="1"
     fill="none"
     stroke="#f6f7ef"
     stroke-width="2"
     stroke-opacity="1"
     stroke-linecap="round"
     stroke-linejoin="round"
     d="m 4749.913,3307.567 1.288,-1.398 q 2.028,-1.171 5.287,-2.044 3.26,-0.874 6.302,-0.348 3.043,0.526 4.548,1.195 1.506,0.669 3.74,2.336 2.234,1.667 3.696,3.598 1.462,1.931 2.078,3.918 0.615,1.988 0.535,4.39 -0.081,2.402 -1.136,4.541 -1.055,2.14 -4.33,4.965 -3.275,2.825 -13.862,6.024 l -2.654,0.677" /><path
     id="STROKE_ede244d5-115c-4221-903c-883dff1d3cdf"
     opacity="1"
     fill="none"
     stroke="#f6f7ef"
     stroke-width="2"
     stroke-opacity="1"
     stroke-linecap="round"
     stroke-linejoin="round"
     d="m 4781.83,3344.233 q 0.094,0.336 -0.544,1.424 -0.166,0.395 4.991,16.433 0.158,0.012 1.053,-1.913 0.896,-1.925 1.581,-3.401 0.685,-1.476 1.458,-2.378 0.773,-0.902 1.652,-1.373 0.88,-0.471 1.727,-0.508 0.848,-0.038 1.35,0.078 0.503,0.115 1.039,0.387 0.536,0.272 2.306,2.891 1.771,2.618 3.448,8.499 l 0.624,1.978" /><path
     id="STROKE_18fe1f8c-8a76-4009-92c8-3cf3c5ba4789"
     opacity="1"
     fill="none"
     stroke="#f6f7ef"
     stroke-width="2"
     stroke-opacity="1"
     stroke-linecap="round"
     stroke-linejoin="round"
     d="m 5195.153,3104.784 q 0.024,0.802 0.927,8.659 0.903,7.858 3.564,25.702 0.05,0.065 -0.086,0.525" /><path
     id="STROKE_1ac28160-5ce5-4c29-9bde-a50d0d27ad2d"
     opacity="1"
     fill="none"
     stroke="#f6f7ef"
     stroke-width="2"
     stroke-opacity="1"
     stroke-linecap="round"
     stroke-linejoin="round"
     d="m 5195.5,3106.218 q 0.208,-0.097 1.614,-1.24 1.407,-1.143 4.516,-2.479 3.108,-1.337 5.17,-1.642 2.062,-0.304 3.817,-0.072 1.755,0.233 2.581,0.582 0.826,0.349 2.105,1.881 1.279,1.532 1.833,4.263 0.553,2.732 -0.022,5.412 -0.574,2.68 -1.281,4.171 -0.707,1.492 -2.423,3.698 -1.717,2.205 -3.553,3.651 -1.835,1.445 -4.115,2.364 -2.279,0.92 -3.503,1.031 -1.223,0.111 -1.744,0.116 -0.52,0 -0.995,-0.176 -0.475,-0.181 -0.848,-0.41 -0.373,-0.228 -1.519,-0.83" /><path
     id="STROKE_d8b1fda6-86d4-44cb-b310-01584bf401b2"
     opacity="1"
     fill="none"
     stroke="#f6f7ef"
     stroke-width="2"
     stroke-opacity="1"
     stroke-linecap="round"
     stroke-linejoin="round"
     d="m 5220.144,3134.262 q 0.148,0.352 0.127,0.642 -0.02,0.29 0,0.319 0.018,0.029 0.111,0.95 0.093,0.922 1.004,3.105 0.911,2.182 1.568,3.291 0.656,1.109 1.099,1.73 0.443,0.621 0.948,1.088 0.209,-0.171 0.977,-1.615 0.766,-1.444 1.378,-2.501 0.612,-1.056 1.269,-1.792 0.656,-0.735 1.735,-1.184 1.08,-0.448 1.69,-0.441 0.61,0.01 0.972,0 0.362,-0.01 1.411,0.496 1.049,0.503 1.65,1.03 0.601,0.527 1.123,1.155 0.522,0.627 0.752,0.987 0.23,0.36 0.482,0.756 0.252,0.397 1.063,2.86 0.81,2.464 1.053,3.689" /><path
     id="STROKE_87705d00-dcd9-4a08-9a17-211ef9b3235a"
     opacity="1"
     fill="none"
     stroke="#f6f7ef"
     stroke-width="2"
     stroke-opacity="1"
     stroke-linecap="round"
     stroke-linejoin="round"
     d="m 5248.474,3141.018 q 0.886,-0.608 9.971,-3.249" /><path
     id="STROKE_b08863ef-3835-4de1-9646-f6af5c6eb2a9"
     opacity="1"
     fill="none"
     stroke="#f6f7ef"
     stroke-width="2"
     stroke-opacity="1"
     stroke-linecap="round"
     stroke-linejoin="round"
     d="m 5251.344,3134.452 q 0.478,0.956 3.414,12.665" /><path
     id="STROKE_f08da67e-a5ac-4915-9d3c-bec1fb846106"
     opacity="1"
     fill="none"
     stroke="#f6f7ef"
     stroke-width="2"
     stroke-opacity="1"
     stroke-linecap="round"
     stroke-linejoin="round"
     d="m 5274.107,3139.67 0.269,-0.614 0.409,-0.668 q 0.17,-0.154 1.205,-1.735 1.036,-1.581 1.777,-2.51 0.118,0.504 0.217,1.003 0.099,0.5 0.589,3.518 0.489,3.019 1.928,8.801 l 0.534,1.898" /></g></svg>
