<?xml version="1.0" encoding="UTF-8" standalone="no"?>
<svg
   version="1.1"
   xml:space="preserve"
   x="0px"
   y="0px"
   viewBox="0 0 960 480"
   id="svg1"
   sodipodi:docname="stroke-expansion-2.svg"
   inkscape:version="1.3.2 (091e20ef0f, 2023-11-25, custom)"
   xmlns:inkscape="http://www.inkscape.org/namespaces/inkscape"
   xmlns:sodipodi="http://sodipodi.sourceforge.net/DTD/sodipodi-0.dtd"
   xmlns="http://www.w3.org/2000/svg"
   xmlns:svg="http://www.w3.org/2000/svg"><defs
   id="defs1" /><sodipodi:namedview
   id="namedview1"
   pagecolor="#505050"
   bordercolor="#eeeeee"
   borderopacity="1"
   inkscape:showpageshadow="0"
   inkscape:pageopacity="0"
   inkscape:pagecheckerboard="0"
   inkscape:deskcolor="#d1d1d1"
   inkscape:zoom="0.98333334"
   inkscape:cx="388.47457"
   inkscape:cy="270"
   inkscape:window-width="2560"
   inkscape:window-height="1600"
   inkscape:window-x="0"
   inkscape:window-y="0"
   inkscape:window-maximized="0"
   inkscape:current-layer="svg1" />
<g
   id="Stroke_2"
   opacity="1"
   transform="matrix(0.57825178,0,0,0.57825178,-2602.4839,-1273.0909)"><path
     id="STROKE_6710d1fa-ab86-483e-b0db-c271ba796105"
     opacity="1"
     fill="none"
     stroke="#e66465"
     stroke-width="4"
     stroke-opacity="1"
     stroke-linecap="round"
     stroke-linejoin="round"
     d="m 4612.318,2927.034 q 2.264,-2.908 6.559,-7.674 4.295,-4.765 14.622,-15.468 10.327,-10.703 13,-13.354 2.672,-2.651 8.506,-8.231 5.834,-5.581 13.131,-11.995 7.297,-6.415 16.804,-14.386 9.508,-7.971 14.55,-12.08 5.043,-4.108 10.353,-8.203 5.309,-4.096 8.511,-6.499 3.203,-2.404 12.328,-9.066 9.124,-6.662 14.404,-10.373 5.28,-3.711 11.88,-8.126 6.6,-4.414 12.441,-8.223 5.84,-3.808 19.095,-11.925 13.256,-8.118 22.817,-13.714 9.562,-5.596 14.101,-8.21 4.54,-2.614 15.882,-8.874 11.343,-6.261 17.614,-9.673 6.272,-3.413 21.655,-11.506 15.384,-8.094 21.881,-11.433 6.497,-3.339 24.067,-11.858 17.57,-8.518 32.351,-15.237 14.781,-6.719 24.486,-10.89 9.706,-4.171 19.528,-8.112 9.821,-3.941 24.087,-9.29 14.266,-5.349 21.849,-8.022 7.584,-2.673 20.085,-6.924 12.501,-4.251 22.197,-7.379 9.694,-3.127 21.688,-6.834 11.994,-3.706 19.705,-5.984 7.711,-2.277 28.379,-8.199 20.667,-5.923 33.95,-9.597 13.282,-3.674 20.024,-5.501 6.741,-1.826 27.639,-7.165 20.898,-5.339 53.786,-12.379 32.889,-7.041 49.433,-10.091 16.545,-3.051 23.746,-4.294 7.202,-1.244 19.485,-3.268 12.282,-2.023 27.932,-4.389 15.65,-2.366 24.144,-3.575 8.493,-1.21 12.957,-1.819 4.463,-0.609 21.259,-2.937 16.795,-2.329 37.077,-5.186" /><path
     id="STROKE_18c134ab-7434-49a2-834d-d732cb52b4df"
     opacity="1"
     fill="none"
     stroke="#f6f7ef"
     stroke-width="2"
     stroke-opacity="1"
     stroke-linecap="round"
     stroke-linejoin="round"
     d="m 4806.439,2776.335 q 0.042,-0.681 -0.105,-1.692 -0.147,-1.011 -0.388,-1.917 -0.241,-0.906 -0.56,-1.777 -0.318,-0.87 -0.871,-1.79 -0.554,-0.919 -1.375,-1.702 -0.821,-0.783 -2.076,-1.206 -1.255,-0.422 -2.365,-0.386 -1.11,0.035 -2.316,0.626 -1.205,0.592 -1.817,1.144 -0.61,0.551 -1.39,1.739 -0.78,1.187 -1.224,2.488 -0.444,1.301 -0.373,3.564 0.07,2.263 0.485,3.133 0.416,0.869 1.405,1.79 0.988,0.92 2.159,1.374 1.172,0.454 2.185,0.496 1.014,0.042 1.715,-0.08 0.702,-0.122 1.937,-0.757 1.234,-0.635 2.611,-2.091 1.378,-1.456 3.655,-7.646" /><path
     id="STROKE_2fa2a00e-b175-4a37-bb9e-e6d0d31354d5"
     opacity="1"
     fill="none"
     stroke="#f6f7ef"
     stroke-width="2"
     stroke-opacity="1"
     stroke-linecap="round"
     stroke-linejoin="round"
     d="m 5164.113,2623.103 0.01,-0.497 -0.078,-0.479 q -0.216,-0.993 -0.252,-1.182 -0.037,-0.19 -0.465,-1.601 -0.429,-1.412 -0.727,-2.076 -0.299,-0.664 -0.853,-1.479 -0.554,-0.815 -1.693,-1.788 -1.139,-0.973 -2.328,-1.348 -1.189,-0.375 -2.018,-0.331 -0.829,0.044 -1.55,0.273 -0.721,0.229 -2.573,2.318 -1.851,2.089 -2.504,4.255 -0.654,2.165 -0.716,3.17 -0.063,1.005 0.109,1.913 0.172,0.907 0.631,1.789 0.459,0.882 1.057,1.603 0.597,0.722 1.275,1.233 0.678,0.513 1.142,0.742 0.464,0.23 1.728,0.434 1.262,0.204 2.21,0.072 0.947,-0.132 2.578,-0.968 1.63,-0.837 2.826,-2.013 1.197,-1.176 1.87,-2.121 0.673,-0.945 1.691,-2.568" /><path
     id="STROKE_4ade18d4-51cd-41f6-92ed-4a53a7e393c9"
     opacity="1"
     fill="none"
     stroke="#f6f7ef"
     stroke-width="2"
     stroke-opacity="1"
     stroke-linecap="round"
     stroke-linejoin="round"
     d="m 4798.813,2770.829 704.335,-386.764" /><path
     id="STROKE_a1a32be5-aa28-42fe-af43-d59dd14f047f"
     opacity="1"
     fill="none"
     stroke="#f6f7ef"
     stroke-width="2"
     stroke-opacity="1"
     stroke-linecap="round"
     stroke-linejoin="round"
     d="m 5521.964,2373.732 21.629,-11.876" /><path
     id="STROKE_2865ef8a-a4f2-4957-ad05-7b16d1a080a1"
     opacity="1"
     fill="none"
     stroke="#f6f7ef"
     stroke-width="2"
     stroke-opacity="1"
     stroke-linecap="round"
     stroke-linejoin="round"
     d="m 5563.701,2350.814 18.808,-10.328" /><path
     id="STROKE_108df6c9-a520-4e7c-be66-91a92455ee8e"
     opacity="1"
     fill="none"
     stroke="#f6f7ef"
     stroke-width="2"
     stroke-opacity="1"
     stroke-linecap="round"
     stroke-linejoin="round"
     d="m 5601.2,2330.223 28.168,-15.467" /><path
     id="STROKE_7816bc17-f957-43fd-bcaf-b1798737bc5a"
     opacity="1"
     fill="none"
     stroke="#f6f7ef"
     stroke-width="2"
     stroke-opacity="1"
     stroke-linecap="round"
     stroke-linejoin="round"
     d="m 5155.951,2619.062 749.727,-204.845" /><path
     id="STROKE_52599b2d-5757-41f9-a302-28aac082f56f"
     opacity="1"
     fill="none"
     stroke="#f6f7ef"
     stroke-width="2"
     stroke-opacity="1"
     stroke-linecap="round"
     stroke-linejoin="round"
     d="m 5926.241,2408.599 33.771,-9.227" /><path
     id="STROKE_afad426b-9c8a-450d-8b5b-46f8b98c715d"
     opacity="1"
     fill="none"
     stroke="#f6f7ef"
     stroke-width="2"
     stroke-opacity="1"
     stroke-linecap="round"
     stroke-linejoin="round"
     d="m 5981.219,2393.578 30.819,-8.421" /><path
     id="STROKE_f296c711-9924-4d8c-b508-d5895d4e2c66"
     opacity="1"
     fill="none"
     stroke="#f6f7ef"
     stroke-width="2"
     stroke-opacity="1"
     stroke-linecap="round"
     stroke-linejoin="round"
     d="m 6031.696,2379.786 38.287,-10.461" /><path
     id="STROKE_5bc2ab99-8ca9-4147-a6b0-5bf336d4d117"
     opacity="1"
     fill="none"
     stroke="#f6f7ef"
     stroke-width="2"
     stroke-opacity="1"
     stroke-linecap="round"
     stroke-linejoin="round"
     d="m 5598.456,2322.275 32.656,-9.478" /><path
     id="STROKE_49f7b6dc-0ff5-45cc-b505-b57522378419"
     opacity="1"
     fill="none"
     stroke="#f6f7ef"
     stroke-width="2"
     stroke-opacity="1"
     stroke-linecap="round"
     stroke-linejoin="round"
     d="m 5631.465,2314.44 -22.457,24.791" /><path
     id="STROKE_524bf8da-e218-459e-a089-b2624d6dd159"
     opacity="1"
     fill="none"
     stroke="#f6f7ef"
     stroke-width="2"
     stroke-opacity="1"
     stroke-linecap="round"
     stroke-linejoin="round"
     d="m 6043.911,2364.378 25.242,3.562" /><path
     id="STROKE_d5f86a53-acd8-478c-96ce-8d00a7bac114"
     opacity="1"
     fill="none"
     stroke="#f6f7ef"
     stroke-width="2"
     stroke-opacity="1"
     stroke-linecap="round"
     stroke-linejoin="round"
     d="m 6070.428,2367.31 -20.379,21.942" /><path
     id="STROKE_b811d349-d060-4133-92c8-46e129bac857"
     opacity="1"
     fill="none"
     stroke="#f6f7ef"
     stroke-width="2"
     stroke-opacity="1"
     stroke-linecap="round"
     stroke-linejoin="round"
     d="m 4756.828,2827.929 q -0.231,0.397 -0.526,1.045 -0.12,0.389 0.525,11.697 0.644,11.308 1.619,18.184 0.975,6.876 1.441,9.375 0.466,2.499 0.804,3.783 0.338,1.284 0.888,3.105" /><path
     id="STROKE_de70f06a-c22c-4e91-8ba0-4a38cd3e8ecb"
     opacity="1"
     fill="none"
     stroke="#f6f7ef"
     stroke-width="2"
     stroke-opacity="1"
     stroke-linecap="round"
     stroke-linejoin="round"
     d="m 4756.729,2828.119 1.289,-1.397 q 2.028,-1.172 5.287,-2.045 3.259,-0.874 6.302,-0.348 3.043,0.526 4.548,1.195 1.506,0.669 3.74,2.336 2.234,1.666 3.696,3.598 1.462,1.931 2.077,3.918 0.616,1.988 0.535,4.39 -0.08,2.402 -1.135,4.541 -1.055,2.14 -4.33,4.965 -3.275,2.825 -13.862,6.024 l -2.654,0.677" /><path
     id="STROKE_a220a1ba-6710-40e5-a788-a88714327999"
     opacity="1"
     fill="none"
     stroke="#f6f7ef"
     stroke-width="2"
     stroke-opacity="1"
     stroke-linecap="round"
     stroke-linejoin="round"
     d="m 4788.647,2864.785 q 0.094,0.336 -0.544,1.424 -0.166,0.395 4.991,16.433 0.157,0.011 1.053,-1.913 0.895,-1.925 1.581,-3.401 0.685,-1.476 1.458,-2.378 0.772,-0.902 1.652,-1.373 0.88,-0.471 1.727,-0.508 0.848,-0.038 1.35,0.078 0.502,0.115 1.039,0.387 0.536,0.272 2.306,2.891 1.771,2.618 3.448,8.499 l 0.624,1.978" /><path
     id="STROKE_9c68c4d9-c3f5-4e8a-9b0d-c38f24eda6cd"
     opacity="1"
     fill="none"
     stroke="#f6f7ef"
     stroke-width="2"
     stroke-opacity="1"
     stroke-linecap="round"
     stroke-linejoin="round"
     d="m 5201.97,2625.336 q 0.024,0.802 0.927,8.659 0.903,7.858 3.563,25.702 0.051,0.065 -0.085,0.525" /><path
     id="STROKE_d1957812-d598-4802-997e-03313b5e59d8"
     opacity="1"
     fill="none"
     stroke="#f6f7ef"
     stroke-width="2"
     stroke-opacity="1"
     stroke-linecap="round"
     stroke-linejoin="round"
     d="m 5202.316,2626.77 q 0.208,-0.097 1.616,-1.24 1.406,-1.143 4.515,-2.479 3.108,-1.337 5.17,-1.641 2.062,-0.305 3.817,-0.073 1.754,0.233 2.581,0.582 0.826,0.349 2.105,1.881 1.279,1.532 1.832,4.263 0.554,2.731 -0.021,5.412 -0.575,2.68 -1.281,4.171 -0.707,1.492 -2.423,3.698 -1.717,2.205 -3.553,3.651 -1.835,1.445 -4.114,2.364 -2.28,0.92 -3.504,1.031 -1.223,0.111 -1.744,0.116 -0.52,0.01 -0.996,-0.176 -0.474,-0.181 -0.847,-0.41 -0.373,-0.228 -1.519,-0.83" /><path
     id="STROKE_0a851ede-d448-4d51-9f2d-c1c6ca2ab192"
     opacity="1"
     fill="none"
     stroke="#f6f7ef"
     stroke-width="2"
     stroke-opacity="1"
     stroke-linecap="round"
     stroke-linejoin="round"
     d="m 5226.961,2654.813 q 0.148,0.353 0.128,0.643 -0.021,0.29 0,0.319 0.019,0.029 0.112,0.951 0.093,0.921 1.004,3.104 0.911,2.182 1.568,3.291 0.656,1.109 1.099,1.73 0.442,0.621 0.948,1.088 0.209,-0.171 0.976,-1.615 0.767,-1.444 1.379,-2.501 0.612,-1.056 1.268,-1.792 0.657,-0.735 1.737,-1.184 1.079,-0.448 1.689,-0.441 0.61,0.01 0.972,0 0.362,-0.01 1.411,0.496 1.049,0.502 1.65,1.03 0.6,0.527 1.122,1.155 0.523,0.627 0.753,0.987 0.23,0.36 0.482,0.757 0.252,0.396 1.062,2.859 0.811,2.464 1.054,3.688" /><path
     id="STROKE_4608cfc2-7a30-4531-8241-11745278bcea"
     opacity="1"
     fill="none"
     stroke="#f6f7ef"
     stroke-width="2"
     stroke-opacity="1"
     stroke-linecap="round"
     stroke-linejoin="round"
     d="m 5255.291,2661.569 q 0.886,-0.607 9.971,-3.248" /><path
     id="STROKE_8acdf6e7-51c0-4379-9b2f-f3925d2c4005"
     opacity="1"
     fill="none"
     stroke="#f6f7ef"
     stroke-width="2"
     stroke-opacity="1"
     stroke-linecap="round"
     stroke-linejoin="round"
     d="m 5258.161,2655.003 q 0.478,0.956 3.414,12.666" /><path
     id="STROKE_5ec41085-e3e8-4f80-b680-8569194439ea"
     opacity="1"
     fill="none"
     stroke="#f6f7ef"
     stroke-width="2"
     stroke-opacity="1"
     stroke-linecap="round"
     stroke-linejoin="round"
     d="m 5280.924,2660.222 0.269,-0.614 0.409,-0.668 q 0.169,-0.154 1.206,-1.735 1.035,-1.581 1.775,-2.511 0.119,0.505 0.218,1.005 0.099,0.499 0.589,3.517 0.489,3.019 1.928,8.801 l 0.534,1.898" /></g></svg>
