<svg xmlns="http://www.w3.org/2000/svg" width="24" height="24" viewBox="0 0 24 24">
    <path fill="currentColor" d="m6.914 2.741 15.557 15.556-4.243 4.243L2.672 6.983zm-.707-.707L4.174 0 0 4.243l1.965 2.034zm12.821 21.119L24 24l-.918-4.901zM14.461 7.459l.389-.388.707.707.707-.707-.707-.707.707-.707.707.707.708-.708-.707-.706 2.121-2.121 2.121 2.121-4.631 4.631 1.393 1.393L24 4.95 19.092 0l-6.045 6.045zm-4.949 9.193L4.95 21.213l-2.121-2.121.707-.708.707.707.707-.707-.707-.707.707-.707.707.707.707-.707-.707-.707.707-.707.707.707.707-.707-.707-.706.319-.319-1.415-1.415L0 19.092 4.95 24l5.955-5.955zm9.934-11.349a.5.5 0 1 0-.708-.707.5.5 0 0 0 .708.707"/>
</svg>
