<svg xmlns="http://www.w3.org/2000/svg" xml:space="preserve" viewBox="0 0 960 480">
    <g fill="none" stroke="#FFF" stroke-linecap="round" stroke-linejoin="round" stroke-width="6.667">
        <path d="m416.336 272.095-.425-.389q-.45-.392-2.627-1.303-2.176-.909-3.808-1.986-1.633-1.079-2.306-1.646-.674-.568-2.563-2.901-1.89-2.335-3.913-6.656-2.026-4.323-2.846-7.319-.818-2.997-.932-5.601-.112-2.604.828-5.553.127-.239.663-1.223.536-.983 1.625-2.099 1.088-1.114 1.824-1.465.736-.35 1.662-.51.925-.158.997-.223.072-.067 1.265.073 1.195.139 2.56-.05-.017-.037-.546-2.318-.531-2.281-1.036-3.979-.506-1.697-.951-3.505-.447-1.81-.69-3.063t-.643-4.017q-.403-2.764-.023-6.79.379-4.026.812-5.306.432-1.279.988-2.376.556-1.099 1.117-1.873.56-.775.86-1.084t.988-.766q.687-.454 2.551-1.166 1.864-.714 3.119-.784t1.89-.058q.635.014 1.798.343 1.162.33 4.328 1.755 3.164 1.425 4.882 2.113 1.719.69 2.995.984.176-.07.508-.503t1.456-2.57q1.124-2.136 2.296-4.244 1.17-2.108 1.99-3.383.817-1.273 1.898-2.719t4.268-4.357q3.187-2.913 4.933-3.884 1.746-.97 3.523-1.437t3.424-.462q1.645.007 2.547.258.901.25 2.233.958 1.33.708 2.299 1.431l2.28 1.699q1.312.977 2.83 1.756.114-.042 1.574-1.639 1.461-1.599 3.818-4.679 2.358-3.078 4.646-5.432 2.289-2.353 4.165-3.577 1.876-1.225 4.797-1.88 2.92-.656 5.072-.304 2.152.35 4.047 1.44t4.039 3.357 3.656 4.518q1.512 2.252 3.354 8.21.816-.621 1.72-1.38.904-.757 2.216-1.889t2.915-2.419q1.603-1.285 5.232-3.349t6.553-2.665q2.926-.6 4.427-.366 1.501.235 4.553 2.251t4.59 3.975 2.244 4.089q.705 2.132.668 4.368-.039 2.236-.491 4.147-.453 1.912-1.08 3.689-.627 1.779-1.123 2.977-.497 1.2-.678 1.856-.183.658-.175.894.007.236.144.668.077.464 2.147.817t3.7.507q1.632.154 3.557.65 1.927.496 3.863 2.012 1.934 1.516 3.389 3.45 1.455 1.933 2.879 4.705 1.424 2.77 3.146 7.608 1.724 4.837 2.078 7.31.354 2.475.044 4.434-.311 1.96-1.655 3.577-1.344 1.619-11.36 6.643.139.341.663 1.223.524.881.977 1.66t.748 1.377q.296.597.412.887.116.288.453 1.33.336 1.043.775 7.262t-.119 9.477q-.557 3.26-1.741 5.573t-1.823 3.003q-.637.69-1.148 1.203-.51.512-1.869 1.17-1.359.66-3.37.984-2.013.326-4.29.64-2.277.316-4.91.708-.36.252-1.034 2.807-.675 2.553-1.288 6.033-.613 3.479-2.499 8.018-1.886 4.537-3.493 6.458-1.608 1.922-2.55 2.628-.94.707-1.895 1.087t-1.968.567q-1.012.186-3.934-.008-2.92-.195-6.26-1.491-3.338-1.296-6.109-2.784t-5.359-2.887l-.318.147q-.987 1.027-2.764 3.196-1.779 2.168-4.18 4.644-2.403 2.476-3.262 3.052-.857.577-1.598 1.036-.74.459-2.843 1.241-2.101.783-4.477.983-2.375.201-5.15-.492-2.774-.693-5.984-2.423t-5.858-3.618q-2.65-1.888-5.852-4.235-3.204-2.347-4.784-3.125-1.58-.779-3.859-1.599-.233.167-2.67 2.45-2.434 2.283-4.614 4.606-2.179 2.321-3.992 3.648-1.812 1.325-4.185 1.717t-5.166-.925q-2.793-1.316-4.874-3.433-2.082-2.118-3.155-3.824-1.075-1.707-2.24-6.182-1.167-4.474-1.288-5.833-.123-1.359-.324-3.512-.203-2.153-.217-3.852-.016-1.699.358-4.813l.45-2.366.709-4.06"/>
        <path d="m456.686 229.2.205-.55.037-.232-.145-.392q-.07-1.079.527-3.936.598-2.857 1.772-5.108 1.174-2.252 2.434-3.708t1.8-1.896 2.751-1.596 5.859-1.607q3.645-.45 5.658-.133 2.012.317 3.339.817t2.188 1.062 1.875 1.445q1.014.881 1.529 1.419.513.537 1.15 1.457.635.921 1.371 2.548.735 1.627.995 3.01.261 1.383.259 1.967t-.144 1.527q-.143.941-.216 1.63-.072.687-1.176 3.24-1.104 2.551-1.904 3.753t-1.64 2.185-1.404 1.552q-.564.57-2.366 2.432-1.8 1.864-3.009 3.267-1.21 1.404-2.188 2.922-.98 1.519-1.74 3.195-.761 1.676-.797 1.728t-.291 1.579q-.253 1.525-.125 2.873.129 1.35.236 1.767.105.417.396 1.057t.701 1.163 1.161 1.278q.752.758 1.486 1.359l.501.557m6.996 20.294q-.483-.478-.868-.852-.619-.25-1.29-.656-.674-.407-1.29-.642-.615-.236-1.437-.346-.823-.111-1.958.069-1.134.179-1.549.461t-.597.523q-.184.243-.328.567t-.236 1.908q-.026.08.18.638t.588 1.04 1.194 1.056q.814.574 1.375.858.563.284 1.71.386l.6-.045.73-.285.737-.595.491-.239q.581-.7 2.021-1.997"/>
    </g>
</svg>
