<svg xmlns="http://www.w3.org/2000/svg" xml:space="preserve" viewBox="0 0 960 480">
    <g fill="none" stroke="#fff" stroke-linecap="round" stroke-linejoin="round" stroke-width="5" transform="translate(-502.384 -878.183)scale(1.01873)">
        <path d="M732.94 1135.272q-.487-.727-.684-.978-.196-.25-.804-.827-.608-.576-.73-.714-.123-.138-3.189-2.415t-5.603-3.588-5.569-2.37-5.897-1.802q-2.866-.741-7.448-1.675-4.583-.933-8.61-1.366t-8.974-.306-10.083 1.054-8.74 1.888-6.16 1.787q-2.557.827-6.136 2.213t-8.371 3.766q-4.793 2.378-10.676 6.695-5.884 4.316-8.819 6.995-2.935 2.678-4.487 4.229-1.551 1.55-5.071 5.613t-7.534 10.011q-4.015 5.946-5.951 9.382t-2.67 4.84q-.734 1.405-3.094 6.888-2.361 5.483-3.914 11.416t-2.01 11.812-.335 9.192 1.007 8.314 1.997 8.271 1.782 4.749 2.686 5.118 5.111 8.019 4.927 6.535 4.008 4.324q2.176 2.168 5.912 5.084t7.377 5.04q3.641 2.125 5.836 3.172t5.67 2.653 6.62 2.88 5.885 2.031 6.2 1.235q3.459.478 8.245.831 4.786.354 10.687.964 5.9.611 11.359.924 5.46.313 11.099-.078t10.992-1.304q5.351-.912 9.129-2.02 3.777-1.107 5.766-1.942 1.989-.834 5.275-2.798t5.465-3.725 4.218-3.773 3.949-4.166q1.909-2.153 5.763-7.361t6.293-9.139 3.574-6.082 2.241-4.491 2.383-5.879 2.255-7.579 1.305-7.231q.329-3.19.387-5.272.059-2.082-.028-5.929-.086-3.846-.699-7.776-.614-3.931-1.561-7.626t-1.951-7.501-1.751-6.24q-.749-2.433-1.652-5.169t-1.563-4.59-1.391-3.529-1.523-3.271q-.79-1.596-1.442-2.82-.651-1.225-1.448-2.541t-2.035-3.087q-1.24-1.773-2.36-3.243-1.12-1.471-2.312-2.832t-2.509-2.827-3.213-3.228-6.807-6.644m280.79 27.671q-.463-.133-4.761-.467-4.297-.334-7.516-.311t-4.915.162-4.623.753-7.494 2.317q-4.568 1.705-7.99 3.563-3.421 1.858-5.312 3.14-1.891 1.281-4.998 3.82-3.106 2.539-7.255 6.877t-6.675 7.708-3.548 5.051-1.685 2.929q-.663 1.25-1.566 3.263t-2.433 8.037q-1.531 6.023-2.29 10.739t-.982 6.819-.288 3.34-.076 2.912.041 2.696.097 2.243q.046 1.222.942 5.202t1.579 5.914 1.443 3.641q.759 1.705 2.286 4.283 1.527 2.577 2.112 3.479t1.235 1.895 1.44 2.063q.791 1.069 3.019 3.589t2.804 3.123 2.186 2.052 4.074 3.31 4.974 3.464 4.481 2.512 3.361 1.347 6.195 1.432q4.805.993 9.897 1.781t8.524 1.014q3.432.227 5.798.228 2.367 0 5.102-.205 2.734-.206 9.176-1.177t10.831-1.95q4.387-.977 8.465-2.52 4.077-1.542 10.548-6.028 6.47-4.487 9.497-7.225t5.599-5.478q2.573-2.74 4.368-5.153 1.794-2.413 3.094-4.563t3.266-6.646 2.957-9.15 1.056-9.637-.176-7.344-.796-4.709q-.553-2.347-1.719-4.951-1.167-2.605-3.197-6.294-2.031-3.69-3.451-5.832t-2.158-3.139-1.958-2.608q-1.219-1.611-1.235-1.651t-1.114-1.349q-1.097-1.309-2.081-2.344-.985-1.034-2.578-2.498-1.594-1.464-3.568-3.158t-2.689-2.283-2.357-1.687-3.665-2.316-3.831-2.338q-1.806-1.119-5.406-2.95t-5.904-2.79-4.223-1.638-3.585-1.224q-1.665-.545-3.141-1.008-1.475-.464-2.485-.807t-5.051-2.186m-230.91 51.062q.861-.239 3.776-.675t6.09-.733 4.913-.456q1.736-.159 4.262-.267t6.21-.212 8.426-.183 6.098-.145 5.093-.135q3.738-.07 6.182-.093t6.047-.087q3.601-.065 6.196-.121t7.317-.334 7.023-.354 7.48-.319 8.108-.394 5.008-.348q2.081-.198 6.811-.37t9.966-.259q5.237-.086 10.681-.131t6.892-.083 6.59-.145 5.402-.105q.26 0 4.551-.274"/>
        <path d="M931.013 1207.515q.743-1.387.787-1.548t.241-.747.466-1.48q.269-.896.727-2.12.459-1.225 1.555-4.224t2.029-5.34 1.552-3.666 1.171-2.377 1.136-2.192q.584-1.139 1.359-2.583.775-1.443 1.668-2.939.894-1.497 1.09-1.839.197-.343 1.659-2.526 1.463-2.183 3.668-4.901t2.824-3.433q.621-.715 2.359-2.406t2.478-2.331q.741-.64 4.075-3.136t7.539-4.932q4.204-2.434 6.503-3.472 2.298-1.038 3.76-1.627 1.463-.589 2.498-.946t1.745-.56q.711-.203 2.943-.835 2.231-.633 4.074-.996 1.843-.364 2.418-.425t1.946-.266 2.545-.366 2.952-.29 3.201-.168 1.715-.054 2.268.024 5.089.343 3.645.4q.531.098 2.905.594 2.375.496 4.812 1.158 2.436.662 4.036 1.155 1.601.494 2.592.841t3.415 1.359 4.633 2.14q2.21 1.127 5.899 3.295t4.95 2.966 2.184 1.403 4.251 2.697 5.403 3.478 5.368 3.799 4.985 3.863q1.691 1.449 3.574 3.277t3.215 3.36q1.333 1.533 2.678 3.306t1.482 1.974q.139.201 1.3 1.85t1.916 2.754 1.276 1.978 1.549 2.624q1.029 1.752 1.664 2.967t.708 1.382.569 1.135 1.226 2.67q.729 1.702 1.245 3.076t1.608 3.482l.811 2.086m-315.991 3.576q.049-.214.252-.719t.36-1.805q.156-1.3.229-2.837t.021-4.041-.375-4.175-.647-3.213l-.631-3.009q-.308-1.468-.456-2.336t-.385-1.762-.37-1.519-.443-1.818q-.31-1.195-.929-4.252-.619-3.058-1.272-6.166t-.971-4.572-.56-2.372q-.243-.906-.471-1.878t-.805-3.088-1.209-4.041-1.031-2.946q-.401-1.021-1.347-3.316t-2.199-4.945-1.721-3.537q-.468-.886-1.165-2.193-.697-1.308-1.389-2.464-.691-1.157-1.445-2.367t-1.506-2.259-1.595-2.197q-.842-1.148-1.501-1.946t-.937-1.144-1.499-1.689-1.857-1.96-2.954-2.502-3.059-2.39q-.74-.504-2.208-1.485-1.468-.98-2.134-1.42t-4.365-2.508-4.584-2.52-3.276-1.37q-2.391-.919-5.028-1.759-2.638-.84-3.684-1.119t-1.857-.531-6.505-1.405-12.836-1.81-10.175-.703q-3.034-.046-4.233-.001-1.199.044-2.187.072t-7.675.778-10.454 1.468-5.075 1.03-3.097.764q-1.787.452-4.84 1.475t-5.39 1.999q-2.336.975-4.182 1.857-1.845.883-4.646 2.382t-4.277 2.326-2.489 1.456q-1.012.63-3.501 2.348t-5.094 3.794q-2.605 2.075-5.48 4.731t-4.297 4.171q-1.42 1.515-3.271 3.788t-3.035 3.796l-1.352 1.74q-.169.215-1.506 2.107-1.338 1.891-2.852 4.245t-2.3 3.631-2.149 3.737q-1.362 2.46-2.81 5.252-1.447 2.793-3.162 6.556t-4.063 9.765-3.518 9.547-1.821 5.841q-.649 2.296-1.142 4.378t-1.214 5.99q-.722 3.907-1.057 6.518t-.504 4.471-.208 2.367-.47 4.959m-1.658 1.997-1.081-.188-.797.126q-.321.101-.957.21-.637.109-.893.111-.257 0-3.027.125-2.771.122-4.132.196-1.362.073-2.71.109t-1.748.073q-.401.036-.884.104-.482.069-2.524.159t-2.91.095m-3.443 1.858q.057-.466-.096-4.133-.154-3.667-.549-7.572t-.732-6.684-.777-5.774q-.439-2.996-.58-4.093-.142-1.098-.494-4.317t-.672-6.248-.572-5.61q-.252-2.582-.311-3.127-.058-.546-.57-5.003t-.744-7.391-.273-4.53-.059-4.279-.011-3.985.318-6.876.404-8.169.116-4.441q.023-1.848-.03-5.925t-.206-6.313-.318-4.126-.334-4.528-.355-4.872q-.184-2.232-.541-7.902l-.53-8.414q-.174-2.745-.289-3.918-.116-1.172-.189-2.427t-.333-3.794m.383-1.056.806-.337 1.079-.317.93-.201q2.032-.514 4.62-1.095 2.587-.58 6.896-.59t7.984.228 7.032.321q3.357.084 8.391-.331 5.034-.414 8.758-.763 3.725-.348 8.752-.629 5.027-.28 7.516-.426 2.49-.146 3.426-.23.937-.083 3.478-.214t8.763-.675 9.459-.796 4.341-.317 3.335-.214l3.976-.265q1.746-.116 12.282-.689 10.535-.572 16.129-.839 5.593-.267 8.44-.294 2.848-.028 5.942-.035 3.094-.01 8.138.081 5.044.088 13.849.1t13.594-.029 16.194-.183 18.208-.261 9.796-.22q2.992-.101 12.792-.31 9.8-.21 15.293-.321 5.494-.112 8.442-.126 2.948-.015 10.295-.127t9.495-.177q2.15-.066 9.541-.372 7.392-.306 11.94-.408l6.95-.156 7.593-.168q5.192-.115 8.333-.264t7.282-.286 8.131-.23q3.989-.091 6.383-.164 2.393-.072 3.348-.134.955-.061 4.545-.15l8.882-.219 7.988-.196q2.696-.065 4.948-.148t10.239-.311q7.986-.228 15.849-.27 7.863-.041 11.702-.053t6.343-.01h9.207q3.391.001 7.593-.015 4.201-.016 8.087-.116t5.195-.116 8.754-.218 11.841-.253 10.095-.08 8.948-.065l10.649-.115q7.399-.081 11.15-.105 3.751-.025 8.554.028t8.693.05h5.641q1.752.001 5.048-.045 3.296-.045 5.493-.083 2.196-.037 4.747-.043 2.55-.01 5.59 0t10.547.166q7.507.16 16.609.544l2.248.32m.455.795q.106.645.212 4.208.105 3.563.228 5.897t.235 3.908.267 4.745q.155 3.172.339 8.808t.176 8.174q-.01 2.538-.18 6.424-.172 3.887-.441 10.83-.268 6.942-.393 11.587t-.257 7.429-.232 14.082-.034 14.196.259 6.928q.192 4.03.42 6.984t.483 5.283.558 5.073q.303 2.743.422 3.657.118.914.281 2.047t.555 4.532l.017.776m-31.846 6.554.598.085q.138-.018 1.4-.199t3.153-.247 3.703-.116q1.811-.05 7.089-.176l6.199-.149q.92-.022 1.516-.03.597-.01 3.116-.293.633-.139 1.322-.389.688-.25 1.639-.714l1.528-.623"/>
        <path d="M635.013 1152.449q-.133.088-1.166.797t-2.304 1.758q-1.272 1.049-2.86 2.405-1.587 1.357-1.982 1.705-.396.348-2.323 2.336t-2.487 2.586-.637.664-1.14 1.388-2.322 2.945-1.922 2.451-2.155 3.036q-1.493 2.207-2.048 3.131t-.594 1.01-.765 1.38l-1.347 2.403q-.62 1.108-.933 1.66-.314.553-.942 1.825t-1.082 2.348q-.455 1.077-1.094 2.87t-1.263 4.853q-.625 3.059-.835 4.576t-.319 2.947q-.11 1.43-.183 2.955-.074 1.524.164 7.106t.402 6.496.568 2.833.654 2.904 1.007 3.039 1.178 2.979 1.868 3.403q1.448 2.478 2.355 3.667t1.655 2.152q.748.962 1.574 1.9.826.939 1.634 1.898.808.96.934 1.098.127.138 1.116 1.077t1.737 1.732 1.155 1.238 1.265 1.235q.858.791 1.949 1.664 1.09.873 1.204.994t2.704 1.611q2.591 1.489 3.046 1.742t3.51 2.085 4.743 2.728q1.687.897 2.98 1.588 1.294.691 2.668 1.326 1.373.634 1.859.879.485.244 1.248.557.764.313 2.533.868l3.256 1.022q1.486.467 3.045.87t2.736.715 2.664.697 2.898.655 2.56.517 2.26.506l1.354.315q.241.057 2.111.367 1.869.311 3.363.523t2.537.37 2.479.323q1.435.167 2.11.253t1.486.211 2.173.244 4.163.183q2.802.064 3.44.066.638 0 2.164-.067 1.526-.07 2.597-.185 1.071-.116 2.043-.211l1.567-.156q.593-.06 1.756-.238 1.162-.178 2.175-.385t1.913-.388 3.032-.869q2.131-.689 3.785-1.406 1.653-.717 2.555-1.187.901-.47 3.701-2.332t3.692-2.573q.893-.711 1.887-1.583.994-.871 2.763-2.455t3.348-3.215 2.347-2.535 2.459-3.209 2.633-3.808q.941-1.504 2.305-4.103 1.363-2.599 3.24-7.337 1.876-4.739 2.328-6.108.452-1.37.552-1.682t.848-3.268q.749-2.957 1.064-4.809t.56-5.06.254-5.859-.009-3.347-.144-2.475-.323-3.409q-.198-1.632-.586-3.84t-.993-4.572-.981-3.658-.831-2.626q-.457-1.331-1.023-2.837-.567-1.505-1.226-3.296t-1.529-3.78-1.929-4.27-1.635-3.345-1.612-2.899q-1.037-1.836-3.555-5.439t-4.067-5.534q-1.548-1.933-2.264-2.723t-2.096-2.066-2.459-2.141-2.072-1.623-4.084-2.721-4.549-2.753-2.269-1.183-2.295-.944-2.333-.847-1.095-.39-3.344-.997-5.491-1.289q-2.395-.387-7.444-.634-5.048-.246-8.533.092t-5.733.67q-2.25.333-6.335 1.289t-5.753 1.438-3.508 1.13-3.903 1.454-3.642 1.537q-1.577.732-3.675 1.872-2.099 1.141-2.284 1.228t-1.59.939q-1.404.853-3.247 2.089-1.843 1.237-3.389 2.307t-4.109 2.821"/>
        <path d="M682.018 1204.027q-.428-.066-1.343-.554t-2.714-.829-2.954-.285-2.267.349q-1.111.295-2.002.829-.892.534-1.345.883-.454.349-1.093 1.209-.639.859-1.067 1.885t-.546 2.289q-.117 1.262.077 2.142.195.879.539 1.524.344.644.677 1.061t1.026.938q.692.52 1.381.786.69.267 1.467.387.778.121 1.86.082 1.083-.04 1.979-.343t2.417-1.401 1.834-1.468.483-.629q.171-.26.576-1.237t.501-2.033q.097-1.054.057-1.581-.04-.528-.111-.943t-.361-2.4"/>
        <circle cx="673.218" cy="1191.835" r="2.5" fill="#fff" stroke-width=".1"/>
        <path d="m673.619 1227.595-.13-.221-.271.284"/>
        <circle cx="689.779" cy="1201.57" r="2.5" fill="#fff" stroke-width=".1"/>
        <circle cx="690.308" cy="1216.727" r="2.5" fill="#fff" stroke-width=".1"/>
        <path d="m657.586 1201.838-.492-.532q-.078.06.083.207-.219-.287-.575-.401"/>
        <circle cx="657.714" cy="1214.945" r="2.5" fill="#fff" stroke-width=".1"/>
        <path d="M1009.98 1230.511q-.98-1.527-1.192-1.818-.211-.29-1.415-1.224t-2.394-1.508-3.032-.72q-1.842-.144-3.612.839-1.77.982-2.629 2.214-.859 1.233-1.145 2.666-.285 1.433.089 2.774t1.05 2.062 1.167 1.036q.49.315 1.56.635t2.164.324q1.094.01 1.679-.055.586-.061 1.177-.303t1.455-.748 1.528-1.019.989-.808q.323-.296.761-.833.438-.538.772-1.057.335-.52 1.629-2.584"/>
        <circle cx="1000.451" cy="1215.355" r="2.5" fill="#fff" stroke-width=".1"/>
        <circle cx="1015.938" cy="1223.626" r="2.5" fill="#fff" stroke-width=".1"/>
        <path d="m1016.94 1237.663.128-.222-.329-.045"/>
        <circle cx="1002.237" cy="1248.658" r="2.5" fill="#fff" stroke-width=".1"/>
        <circle cx="983.562" cy="1242.435" r="2.5" fill="#fff" stroke-width=".1"/>
        <path d="M980.447 1227.597q.038-.212.266-.576l-.063.156q-.029-.061.599-1.234"/>
        <path d="m973.833 1200.86-.106.234-.423.625q-.797 1.052-2.83 4.03t-3.097 5.228q-1.065 2.249-1.414 3.091-.349.841-.837 2.372t-1.12 4.393-.746 3.634-.195 1.551-.295 4.65q-.213 3.873-.096 6.411.118 2.538.343 4.207t.525 2.858.743 2.241.469 1.154.449.888 1.739 2.365 3.173 3.3l1.459 1.089q.817.589 1.909 1.221 1.092.631 2.356 1.135t2.702.947 2.355.755q.917.311 2.369.7 1.452.39 2.534.717t1.553.424 1.686.437 2.362.63q1.147.292 2.296.54 1.149.247 2.27.41t3.269.445 3.313.418 1.888.24 2.811.319q2.088.213 3.368.263 1.279.049 3.514-.113 2.234-.163 3.482-.297 1.247-.134 3.416-.436 2.168-.301 3.308-.547 1.14-.245 2.066-.472t1.99-.578 2.955-1.266 2.519-1.279q.628-.365 2.064-1.238t2.355-1.51 1.075-.731 2.274-2.057q2.119-1.963 3.659-3.876t2.935-4.207q1.395-2.293 1.9-3.384.504-1.092 1.104-3.069t.963-3.901q.364-1.924.47-7.763.106-5.838-.12-7.31t-.442-2.362-.278-1.119q-.061-.23-1.3-4.154t-1.695-4.953-.727-1.517-.878-1.348-1.043-1.447-1.696-1.811-2.181-2.018-1.889-1.617-2.272-1.895l-1.377-1.132q-.072-.061-1.112-.667-1.039-.606-2.622-1.38-1.582-.775-2.787-1.292-1.206-.516-1.918-.826-.711-.31-2.04-.785-1.329-.474-3.385-1.229t-3.498-1.171q-1.44-.415-2.376-.695t-1.927-.583-1.792-.478-1.997-.296q-1.197-.123-1.582-.139-.384-.016-2.505-.074t-4.723.183-5.314.784q-2.712.545-4.475 1.047-1.763.503-3.971 1.488-2.207.986-3.269 1.562t-1.675.986-1.67 1.172-1.528 1.114-1.503 1.345q-1.032.994-1.145 1.119-.113.124-.456.391-.342.268-.748.712t-2.113 2.332m-466.353 110.696q15.156-1.626 19.578-1.879t6.568-.276 4.84-.078q2.694-.056 12.377-.502t14.682-.655 11.545-.282q6.548-.074 11.799-.01 5.252.064 8.048.096 2.797.031 9.45.058 6.654.027 10.018.019 3.365-.01 8.663-.034 5.298-.027 13.618-.066t14.867-.02q6.547.021 13.709.142 7.163.121 12.973.205 5.81.085 10.449.085t7.862-.133q3.221-.134 7.302-.43 4.081-.295 11.428-.77t14.506-.788q7.157-.312 10.691-.327t8.556.206 7.746.327 8.067.054 7.8-.116l3.778-.099q1.322-.034 6.219.046 4.897.081 9.269.195 4.373.114 8.372.136 3.999.021 9.903.013 5.904-.01 10.688-.207 4.784-.2 11.587-.395 6.803-.196 11.581-.339t9.806-.304q5.027-.159 10.126-.291t10.268-.238 9.044-.204q3.874-.099 7.742-.236 3.869-.137 10.704-.227 6.836-.089 10.285-.157 3.449-.067 7.686-.266t6.83-.304q2.594-.106 6.941-.321 4.348-.216 7.671-.434 3.324-.217 7.541-.39t10.435-.376q6.218-.201 9.902-.327 3.683-.125 5.406-.199t2.666-.128q.942-.054 2.203-.107 1.262-.053 5.693-.219l5.835-.219q1.403-.052 3.649-.153t2.548-.12 2.898-.1q2.595-.08 5.043-.168 2.447-.087 10.09-.29l12.088-.321q4.446-.119 7.892-.264 3.445-.145 7.591-.25t6.295-.18 5.388-.228q3.238-.151 8.733-.355t10.637-.332 9.33-.331q4.189-.202 9.084-.336 4.896-.134 5.338-.131.442 0 8.239-.189 7.797-.192 17.736-.515 9.939-.322 14.947-.47t9.322-.213 8.079-.135q3.766-.07 6.613-.1t5.558-.073q2.711-.042 5.663-.119t5.017-.119 7.729-.208 14.178-.262q8.512-.097 17.129-.256t14.029-.306 11.21-.281 8.215-.171l10.542-.166q8.125-.128 14.702-.199 6.577-.07 7.135-.066.559.01 9.989-.064l.814.03m-571.384-8.741-1.675.056-4.23.615-1.511.24q-2.078.394-7.973 1.265t-10.808 1.565-6.192.854-6.035.89l-6.441.989q-1.685.258-3.649.586t-5.027.713-5.103.623q-2.041.237-3.531.357t-2.679.198q-1.188.077-1.478.108-.289.032-4.572.099-4.284.068-6.839-.011t-6.331-.205-5.979-.256q-2.204-.132-3.17-.212t-4.916-.313-8.562-.271-7.774.075-6.307.246-5.949.258-7.099.265-5.264.153-3.84.032-7.96.051-9.868.035q-4.78.01-11.423-.029-6.642-.035-11.859-.036t-6.924.042-3.526.153q-1.818.109-4.034.187-2.216.077-2.837.113-.62.037-2.802.127-2.183.091-3.794.106t-2.143.022q-.532.01-1.857 0-1.326-.01-3.11 0-1.785.011-2.505.087-.721.076-1.037.126t-1.184.448l-.106.183"/>
        <path d="M712.626 1285.201q.296-.236.495-.296.199-.059 1.554-.411 1.354-.351 2.56-.49 1.207-.139 2.483-.264t1.97-.195 1.603-.227 2.114-.362q1.204-.205 2.289-.436 1.085-.232 2.558-.612 1.473-.381 3.148-.812l2.695-.782q1.135-.329 2.176-.567t2.425-.441 2.899-.377 3.411-.325l3.489-.059q2.087.059 4.203.14t4.966.299 4.524.441q1.777.294 2.798.491 1.022.198 2.819.393 1.798.195 3.704.37t3.042.214q1.135.04 1.431.042.295 0 1.84.11 1.545.108 2.772.237 1.228.129 2.12.266t6.857 1.229l1.971.385q.857.146 2.17.26t3.992.014q2.679-.102 3.69-.093 1.012.01 2.389.109 1.376.102 3.14.027 1.763-.076 3.759-.26 1.997-.184 2.811-.273t2.42-.244 3.482-.322 2.846-.241 2.212-.094 2.238.074 1.373.11q.379.015 1.936.17 1.556.154 2.586.242 1.029.087 1.557.093.529.01 1.189-.014.66-.021 1.555-.077t3.315-.138q2.421-.083 3.541-.141 1.12-.059 3.95-.051l.847.033q2.22.202 2.947.288.727.087.823.097t1.021.085 2.191.106 1.687.05q.419.019 1.385-.067t1.841-.156 1.815-.098 1.003-.039 1.547-.04 3.358-.035q1.874-.01 2.449 0t1.585 0q1.01-.014 2.374.001t2.758.072 2.647.018q1.252-.038 2.321-.143 1.068-.104 1.63-.189t2.49-.291 2.994-.288 1.784-.152q.72-.068 3.139-.16 2.419-.091 2.462-.104t1.307-.022q1.264-.01 4.224.158 2.961.167 5.5.196 1.632-.036 3.585-.248 1.953-.213 3.398-.333t3.099-.221 4.144-.163 3.464-.056q.973.01 2.851.133 1.877.127 3.105.104t2.254-.078 2.591-.116q1.564-.06 4.526-.166 2.963-.106 3.396-.13t2.166-.182 2.959-.251q1.225-.095 2.535-.157t1.423-.047 2.47-.122 5.932-.353m89.47-4.283 1.349-.227q2.37-.164 4.181-.326 1.811-.161 3.472-.349t2.636-.324q.975-.138 1.836-.253.862-.116 1.214-.177.353-.062.861-.222.507-.16 1.15-.381.642-.222.947-.349t1.302-.461 1.537-.453 4.504 1.221q.843.157 2.338-.072 1.494-.229 2.335-.383t1.69-.207 1.777.014.995.084 1.855.125 3.983.01 2.768-.183q.572-.084 1.02-.156.447-.073 2.202-.28.957.023 1.665-.072t.937-.159.561-.211 1.198-.678q.865-.532 2.57-1.856 1.705-1.323 3.81-2.486.353.032 1.253.593t1.805 1.226 1.31.944.787.417.642.179q.26.04.789.045.528.01.757.012.228.01.66.08.432.073 1.062.275.629.202.995.283.366.082.858.046.491-.035.801-.112t.66-.254 1.253-.796q.901-.621 2.545-1.739t3.006-1.6q.664.523 1.187 1.118.522.596 1.465 1.8t1.246 1.489q.302.286.558.444t1.808.837l.664.208q1.695.31 2.247.327.552.016 1.568-.05 1.017-.065 2.795-.354t2.008-.344 1.511-.16q.439.052 1.333.084t2.088-.047 1.9-.15q.705-.07.863-.103.159-.034 2.026-.307t4.187-.244q.651.144 1.621.39t1.738.36 1.76.104 1.531.014 1.239-.01q.702-.031 1.31-.158.607-.128 1.516-.459t3.257-1.412 3.458-1.462 1.797-.457 2.317.303q.309-.015 7.238 4.843 1.124.334 1.604.379l1.063.1q.583.055 2.871.152 2.288.098 2.718.134.429.035 1.302.171.873.137 1.239.153.365.017.974-.06.608-.078 1.576-.319t2.514-.683 2.42-.669 1.318-.321.81-.136q.367-.041.973-.015.607.027 1.359.047.752.021 1.274.01t1.22-.04q.699-.027 1.623-.139.923-.111 1.541-.238.617-.126 1.572-.357l2.122-.513q1.168-.281 2.154-.438.987-.157 1.486-.175t1.303 0q.804.02 1.126.061t2.362.382 3.616.524 2.084.176q.507-.01 1.278-.075.772-.068 2.122-.299 1.351-.231 3.564-.656t2.756-.51q.542-.086 1.378-.114.836-.027 1.549-.036.712-.01 1.587.217.875.225 1.493.387t1.435.447q.815.284 1.763.68.948.395 1.477.567.529.173 1.019.265l.575.107q.084.015.636-.023.553-.038.798-.013t1.958-.777q1.713-.801 2.985-1.685 1.273-.884 2.252-1.504.98-.62 1.695-.966.715-.345 1.284-.511.568-.165 1.098-.193.529-.028.976.04t1.303.333q.856.264 1.566.647.709.382 1.641.964t1.713.97 1.39.552q.607.164.958.232.351.069 1.263-.042t2.045-.501 2.234-.807 1.91-.668q.808-.25 1.628-.309 1.102.261 2.226.55 1.125.289 1.469.387t.743.144 2.679-.265m-439.275-138.932-.081-.394q-.178-.812-.204-.922-.025-.111-.802-1.147-.778-1.036-1.516-1.943t-1.154-1.234q-.415-.326-.891-.559-.476-.232-1.6-.445t-1.258-.208q-.135.01-.99-.01-.856-.015-2.624.752-1.767.766-2.624 1.516t-1.296 1.347q-.438.597-.681 1.062-.242.467-.325.61-.082.144-.393 1.513-.311 1.37-.164 2.589.148 1.219.512 1.978.365.76 1.027 1.531t1.379 1.322 1.759.933 2.038.447 1.121.065.901-.155 1.325-.427.785-.437q.237-.166.5-.341.263-.174.598-.462t.619-.643.902-1.238.794-1.256q.178-.374 1.013-2.584m2.113-.865q.667-.018 9.101-.812 8.434-.795 14.611-1.115t9.575-.433 9.61-.154 10.659-.113 6.072-.124 2.892-.113q1.266-.062 4.489-.147l1.403-.031"/>
        <path d="m907.932 1120.072.907-.08q.302.061 3.057.549t5.127 1.219q2.37.731 4.184 1.668 1.813.936 2.404 1.38.592.443.837.695.246.252.44.578-.028.117-2.018 1.628-1.991 1.512-3.748 2.316-1.758.805-5.296 2.166-.662.327-1.98.831t-1.673.692m194.191 138.606.426.101q.299.191 1.243.408.944.218 1.885.343t1.329.156.637.016l.706-.041q.458-.027 1.523-.49t1.913-.973 2.381-1.569m54.11 1.922q1.297.051 2.702.309 1.406.257 1.933.328t1.113.045q.584-.026.857-.083t.971-.268 4.339-1.655m81.239.127q.245-.168.378-.265.568.169 1.155.317.587.149.595.156.01.01.75.061.4.02 3.553-3.437m-695.04-274.959q.066-.102 5.422-6.465 5.356-6.364 12.269-14.514 6.914-8.151 10.615-12.813t10.179-12.794q6.476-8.132 9.943-12.262 3.467-4.129 4.942-5.83t3.834-4.544 6.975-8.433 9.824-11.769q5.208-6.177 7.355-8.708 2.148-2.53 3.416-4.054t3.023-3.331 3.244-2.793m2.058 3.055.608-.037q.577-.107 6.705.357 6.129.465 12.921 1.909 6.793 1.445 8.68 1.921 1.888.476 4.122 1.149 2.235.674 4.829 1.376 2.595.702 4.782 1.217 2.186.514 5.775 1.368t6.028 1.385 7.11 1.615 9.52 2.279 7.432 1.791 4.95 1.198q2.366.602 5.971 1.46t10.407 2.491q6.804 1.632 8.202 1.976l4.154 1.02q2.755.676 5.576 1.3 2.821.625 3.626.84.806.216 1.97.424 1.164.209 1.503.255.338.045 1.939.4 1.6.354 2.625.591t2.129.479 3.39.72 4.468.899 3.094.615q.912.192 1.879.411.968.218 2.113.441t1.424.304 6.347 1.136m-156.21-33.43q-.316.75-1.667 11.773t-2.112 17.717-1.357 11.954-1.46 10.821-1.21 7.991-1.106 8.725-1.309 10.403q-.549 4.106-.827 6.114t-.608 5.358-.856 6.899-.862 5.491q-.334 1.942-.549 3.424-.214 1.483-.915 6.57l-.448 1.687"/>
        <path d="m665.848 884.763.569.423q.642.638 2.929 3.431t5.317 6.176q3.031 3.382 4.695 5.201t3.535 3.883 4.756 5.235q2.887 3.171 7.448 8.004t6.888 7.363 4.972 5.652 4.426 5.207q1.782 2.084 3.029 3.458 1.248 1.375 5.593 6.116 4.346 4.741 7.723 8.466 3.377 3.726 7.168 7.7t5.509 5.923 3.077 3.814l1.017 1.667m-171.295 24.09q.133.052 2.182.56t3.518.815 4.053.682 3.7.605 1.21.261q.092.03 1.713.348t2.883.507 2.341.359 1.199.198q.122.027 1.688.24 1.567.213 4.166.437 2.599.223 5.038.447 2.44.223 4.417.356 1.977.134 3.157.247 1.181.114 2.311.254 1.131.14 2.711.313t3.24.32 3.365.326q1.704.179 1.841.187.138.01 1.577.18 1.439.171 3.682.5 2.243.33 4.143.583 1.901.254 1.925.266.024.011 4.593.604m7.743.14q2.008-.548 3.015-.903 1.007-.356 1.786-.656.781-.3 1.86-.727 1.079-.428 2.894-1.022 1.815-.593 2.851-.878t1.885-.538q.848-.251 1.067-.351t4.228-1.259 6.679-1.95 3.973-1.285 2.684-.932 2.818-.833 1.575-.41 3.504-1.222q3.366-1.205 4.273-1.487.907-.281 4.637-1.929 1.903-.714 1.972-.724.068-.009 1.37-.483 1.303-.475 2.256-.861t2.172-.83q1.22-.443 2.595-.952t2.061-.744q.685-.235.775-.246.091-.01 1.153-.374t2.099-.785q1.037-.422 1.224-.481t1.576-.554 2.257-.815 1.354-.516 1.92-.679q1.433-.482 2.511-.777t2.089-.551q1.01-.255 2.454-.697t2.227-.699 2.339-.725q1.555-.467 2.294-.719.738-.251 1.188-.389t4.814-1.666m-.328.331q1.914-.944 2.505-1.265.59-.322 1.288-.772t1.851-1.241 2.599-1.801 2.445-1.701 1.546-1.049 3.68-2.512 7.176-5.21q4.042-3.057 8.332-6.046 4.289-2.989 6.084-4.251 1.796-1.261 4.869-3.485t4.512-3.206 4.971-3.232 6.836-4.334q3.303-2.085 5.383-3.424t3.292-2.079 8.735-4.779l1.236-.516m-121.12 68.452.445.656q.12.254 1.586 4.109t2.185 5.916l1.318 3.785q.599 1.724 1.302 3.987.702 2.264 1.239 3.928.537 1.663 1.567 4.631t1.418 4.11 1.694 4.858 2.847 7.942 2.512 6.953q.969 2.727 1.638 4.696.669 1.97 1.336 3.768.666 1.798 1.514 4.256t1.578 4.619l1.146 3.39q.416 1.228 1.551 4.363.062.145.416 1.483m-18.947-80.428.508 1.944q.038.179 2.19 6.253t3.583 9.947q1.432 3.874 2.098 5.705.666 1.832 1.461 3.873.794 2.041 1.209 3.309t1.119 3.302q.705 2.033 1.964 5.77t2.083 6.151q.825 2.416 1.51 4.392t1.573 4.365q.887 2.389 1.449 3.865t1.086 2.921 1.222 3.428 1.353 3.924 1.694 4.963l1.511 4.401q.472 1.378 1.337 3.696"/>
        <circle cx="1127.492" cy="1107.845" r="2.5" fill="#fff" stroke-width=".1"/>
        <path d="M1129.222 1107.705q.354.164 2.487.636 2.133.473 5.825 2.1.733 1.024.997 1.606.264.581.896 4.704.631 4.122.61 10.785t-.085 10.789-.082 5.609-.131 4.368-.222 4.041-.553 3.725-.722 3.486q-.28.916-1.286 3.092-3.465 2.166-4.895 2.688-1.431.522-3.179 1.148l-2.247.805m287.856-174.159q-1.694-1.038-1.79-1.085t-1.571-.776-2.545-1.082q-1.069-.353-1.975-.54-.906-.186-2.849-.299-1.942-.112-3.733-.011t-3.05.257q-1.259.157-4.386 1.493-3.127 1.335-4.524 2.06-1.396.725-2.26 1.283t-2.114 1.776q-1.25 1.219-2.237 2.323-.987 1.105-1.831 2.196-.843 1.092-1.319 1.924t-.757 1.463-.782 2.25-.709 2.851-.286 2.642.038 2.971.312 2.505.405 1.607 1.226 2.812q1.017 2.148 2.07 3.627t1.952 2.338 3.265 2.351 3.48 1.977 3.396 1.026 5.878.616 4.703-.079l1.508-.212q.4-.058 1.854-.47t2.67-1.034q1.215-.621 2.559-1.516 1.344-.894 1.828-1.317t1.608-1.66 1.742-2.056 1.164-1.601q.546-.781 1.12-1.703t1.308-2.416q.733-1.494 1.463-3.752.729-2.257.953-3.325t.326-2.131q.102-1.064.055-2.318t-.18-2.217-.598-2.266-.709-1.795q-.243-.491-.478-.847-.236-.355-.543-.794-.306-.439-.502-.682-.194-.242-.736-.711-.542-.47-.929-.81-.387-.339-1.011-.856t-2.625-2.065m-18.729 44.68q-.001.113-.231 2.705t-.947 8.278-1.222 9.08q-.506 3.395-.861 5.563-.355 2.169-.629 3.905-.273 1.735-.707 4.292t-1.509 8.351-1.615 8.86q-.542 3.066-1.096 6.765t-1.878 12.452-2.033 13.126-1.058 6.293q-.351 1.92-.946 5.129-.594 3.209-.833 4.424-.238 1.215-.503 2.669-.266 1.455-.735 4.134t-.504 2.802-.601 3.525-.965 5.956-.851 5.055q-.451 2.503-.601 3.414t-.249 1.667-.687 4.222m0 2.189q1.389 2.339 1.42 2.415.031.075 1.641 2.796t3.137 5.109 3.418 5.596 2.834 4.782q.943 1.575 1.601 2.619.659 1.044 1.195 1.934.537.89 1.525 2.559t1.468 2.444q.481.774 1.531 2.619 1.051 1.844 1.828 3.151t1.163 1.998.41.766q.023.075 2.104 3.574l.687 1.389m.2 3.042-.376.622q-.623.715-.86 1.029t-1.091 1.519-5.082 7.738q-4.228 6.531-6.932 10.887-2.703 4.355-3.959 6.415t-2.219 3.581-1.312 2.037-1.014 1.549q-.665 1.034-1.248 1.992-.583.959-4.656 7.26m.728-89.169q-.167.326-.45.61-.2.141-3.257 4.713-3.057 4.571-5.797 8.863-2.741 4.292-4.454 6.908-1.713 2.615-2.975 4.447t-3.47 5.211q-2.209 3.381-3.385 5.136t-1.824 2.672q-.647.918-1.831 2.643t-2.345 3.337m-2.842 2.787q-.979.531-1.461.617l-.839.294q-2.844 1.288-5.05 2.269t-5.36 2.949q-3.156 1.969-8.099 5.108t-6.562 4.341q-1.621 1.202-2.728 2.014-1.106.811-3.022 2.004t-3.142 2.042-1.857 1.318-4.232 2.967q-3.603 2.498-6.615 4.672-3.013 2.175-4.207 3.041-1.195.866-1.666 1.205-.472.339-1.221.92-.749.582-1.544 1.24t-3.192 2.78"/>
        <path d="m1374.614 1072.117 1.533-.53q1.258-.565 2.584-1.137t7.696-3.343q6.371-2.77 9.373-4.045t5.135-1.956 2.97-.9q.837-.221 5.471-1.133m1.986 3.118q0 .134.943 7.009.947 6.875 1.889 15.367.942 8.491 1.347 12.409.404 3.918.886 7.831.483 3.914.594 4.743.111.828.239 1.968t.445 3.876q.316 2.737.46 4.129t.264 2.389.302 2.879.314 3.759q.13 1.878.156 2.179.025.302.031 2.09m3.644-66.403q-.108.415-.705 8.579-.598 8.164-.78 14.471t-.191 9.11q-.01 2.804-.017 4.138-.01 1.333.01 6.414l.017 7.354q.01 2.275.018 5.404.013 3.13-.01 4.698-.022 1.568-.039 2.096t-.212 2.358m-48.284-56.732q.057.55-.396 4.915-.452 4.364-.723 7.362-.272 2.997-.56 6.205t-.451 5.641-.419 5.566-.936 9.687q-.681 6.555-.836 8.081-.156 1.526-.201 1.875-.045.348-.248 2.187t-.364 3.365q-.16 1.528-.382 3.366t-.476 4.083q-.253 2.244-.273 2.334t-.23 2.462q-.211 2.373-.247 2.665t-.4 2.552m14.958-67.459q-.183.361-1.223 4.268t-1.813 6.886-1.164 4.55l-1.096 4.408q-.704 2.839-1.433 5.802t-1.851 8.83-1.574 8.672-.935 5.581q-.481 2.776-1.006 5.734t-.821 4.547-.785 3.676"/>
        <path d="M1377.329 1081.713q-.749-.061-7.032.671-6.284.733-13.633 2.025-7.349 1.293-10.93 1.907-3.582.615-6.538.988-2.956.374-9.05 1.384t-10.616 1.639-6.896.798-11.619 1.544q-9.244 1.373-13.849 2.223l-6.956 1.281q-2.351.432-3.119.633-.768.2-7.334 1.405t-13.113 2.363q-6.547 1.157-9.328 1.715-2.78.557-4.216.813t-6.069 1.221-8.319 1.638-5.86 1.021l-3.695.591q-1.521.244-4.386.708-2.865.465-4.441.678t-6.553 1.02-7.667 1.351q-2.691.545-5.617 1.229-2.925.683-4.372 1.023-1.446.34-4.611 1.038-3.165.697-8.802 1.874l-8.167 1.705q-2.53.529-4.541 1.019t-3.292.776-4.02.96-4.349 1.112-3.025.736-2.372.454-4.392.821m280.482-56.528-1.77.529q-7.109 2.342-12.916 4.345-5.806 2.003-8.788 3.03-2.981 1.026-7.271 2.531-4.29 1.504-6.552 2.277t-6.064 2.317"/>
        <path d="M1418.303 1067.88q-.433-.047-.906.063-2.156.373-3.174.49t-8.273 1.644-13.167 2.855-8.583 1.872-4.005.874-3.933.767-4.512.701-3.142.496-3.392.556-4.31.687-3.573.638-1.671.31-4.558.871-8.077 1.484-5.138.855-3.413.475q-2.041.269-2.712.336t-1.928.213-3.784.487-2.677.349q-.15.01-2.803.383-2.653.375-6.637 1.046t-7.446 1.187-5.388.782-5.281.712-5.523.817q-2.168.37-5.214.908t-8.601 1.635-8.728 1.738q-3.175.642-8.38 1.607-5.204.965-6.984 1.241t-5.993 1.012-7.195 1.405q-2.983.668-4.42 1.025t-4.206 1.028-5.39 1.277-5.777 1.401q-3.157.795-4.603 1.148t-3.01.69-4.713 1.098-7.997 1.926-8.559 1.934q-3.712.767-6.307 1.256-2.595.488-4.192.875t-3.624.861-3.543.784-3.171.688-2.963.653q-1.306.275-3.636.8t-3.87.891-2.67.667q-1.131.302-3.823 1.014-2.693.711-4.385 1.181t-2.425.678-1.616.433-1.821.449q-.936.225-1.393.358t-3.412 1.064"/>
        <path d="m1139.662 1123.491-.035-.028.308-.333q.107-.166.195-.46t.036-.608-.17-.453q-.118-.138-.39-.255t-.851-.082-.909.292q-.33.258-.625.728-.294.471-.316.478-.021.01-.166.385-.145.377-.194.946-.05.568 1.858.785l.182-.474q.063-.066-.03-1.092-.644-.167-1.003-.103-.36.065-.552.173-.191.109-.475.371l-.507.316"/>
        <circle cx="1389.116" cy="1009.557" r="1" fill="#fff" stroke-width=".1"/>
        <circle cx="1410.159" cy="1010.092" r="1" fill="#fff" stroke-width=".1"/>
    </g>
</svg>
