<svg xmlns="http://www.w3.org/2000/svg" xml:space="preserve" viewBox="0 0 960 480">
    <g fill="none" stroke="#fff" stroke-linecap="round" stroke-linejoin="round" stroke-width="5">
        <path stroke-width="6.667" d="m364.58 186.246.105 1.743.086 3.093q-.12 1.22 2.566 22.076t4.281 31.591q1.597 10.733 2.295 15.795t1.413 11.408 1.103 9.456 1.078 8.424q.044.228.07 2.158m-12.024-106.965.417-.05q1.559-.358 6.155-.67t10.536-.433q5.938-.122 14.877-.402t14.53-.485 10.453-.243 10.386.067 10.098.333q4.57.228 7.822.296 3.254.068 7.744.079 4.49.012 10.442.13m-78.999 22.385q.03.793-.653 7.517t-1.676 14.295q-.994 7.57-1.323 9.941-.328 2.37-1.121 8.577-.794 6.207-1.228 9.626-.435 3.418-.814 7.036t-.872 9.425-.874 9.173q-.383 3.367-.647 5.626-.264 2.258-.363 2.928-.097.669-.174.901-.079.232-.579 3.305"/>
        <path stroke-width="6.667" d="M389.845 207.965q.941.18 1.84.245.898.066 1.97-.06 1.071-.125 7.294-.302 6.221-.178 9.408-.3 3.188-.122 9.218-.231 6.032-.11 9.427-.147 3.396-.036 9.733-.133l9.206-.141q2.868-.044 7.986-.047t7.642.007q2.524.008 9.514.2 6.991.192 10.466.33 3.474.139 7.752.414l2.121.168q2.05.092 5.104.354m-117.559 86.799.832-.17 6.691-.58q2.477-.257 5.047-.477 2.57-.218 4.477-.396 1.908-.177 2.507-.254.597-.078 2.364-.222 1.766-.142 2.037-.145.272-.003 8.168-.29 7.896-.29 12.077-.4 4.18-.111 6.582-.254 2.401-.143 4.842-.23 2.443-.087 6.968-.158 4.524-.072 6.292-.11 1.768-.037 7.496.02t8.827.11q3.097.055 4.412-.004 1.313-.057 6.781-.02l3.464.135m15.984-80.851.008 1.325q-.158 1.67-.16 1.932-.001.264-.669 5.056-.67 4.792-1.785 10.782m-7.871 39.634q-.433 2.251-.852 4.519-.417 2.268-.563 3.113t-2.22 10.932l-.122.386M469.34 183.897l.49 1.321.353 1.98q.015.268.52 2.748.504 2.482 1.132 5.394t1.32 6.305m-69.669 37.16q.31-1.757.708-4.408.399-2.652 3.237-12.967.106.174.372 1.811t.846 5.052q.578 3.415.81 3.979.231.564.628.812.398.246 1.738-1.152 1.34-1.399 3.613-2.91.519.286.624.232.105-.052.857.554.751.605 1.495 1.196.744.589 1.199.845.454.256.828.356.372.1.794.101t.986-.378q.561-.38 1.654-1.514 1.094-1.133 1.552-1.477.46-.345.81-.535.349-.188.786-.309.439-.121.828.123.391.242.703.564.313.322.635.754.322.431.534.768.212.336.451.755.237.417 1.532 1.95l.327.051.492-.232q.282.218 1.001-.728.719-.944 1.312-1.59.592-.647 1.036-.983t1.23-.456q.745.528 1.689 1.519.942.99 1.718 1.648.775.657 1.512.808.34-.15.947-.548.608-.4.77-.56l1.171-1.144q1.008-.986 1.527-1.45.517-.464.87-.737.353-.275 1.205-.776.053.013.858.65.807.635 1.486 1.369.678.733 1.04.984.361.25.693.448.333.197 2.54 1.433"/>
        <path stroke-width="6.667" d="M495.14 227.861q-.309.21-.667.501t-2.41 1.647l-1.006.481q-1.776.683-2.812 1.002t-3.103.837q-.15.023-1.625.54-1.478.517-2.764 1.143-1.287.625-2.075 1.229-.788.603-1.975 1.943-1.185 1.34-2.464 3.386-1.713 4.944-1.861 6.022-.15 1.076.121 5.244l.72 2.61q.274.543.711 1.218t1.908 2.4q2.179 1.936 4.427 3.601 1.441.93 2.709 1.839l.685.91 1.638 3.082q.272.746 1.364 3.616m48.101-79.419q-.21.953-.736 2.985-.524 2.032-1.685 6.464-1.16 4.431-2.176 8.764-1.016 4.334-1.751 7.142-.736 2.809-1.727 5.97-.992 3.162-1.57 4.454-.578 1.29-.66 1.514t-1.518 2.367q-1.434 2.144-1.924 2.475-.488.329-1.089.76-.603.429-1.627.981-1.025.553-2.214 1.117-1.19.566-3.511 1.742-1.83 1.085-4.188 3.1l-1.705 2.202q-1.187 2.556-1.547 4.704l.967 5.463q.258.628.909 1.592.65.964 1.27 1.6t1.762 1.676 2.147 2.024l1.173 1.368q1.632 2.659 2.399 4.547l.54 3.313q-.214 4.364-.878 8.961-.776 3.706-1.028 4.942t-.93 3.953l-.93 3.727m23.831-100.602q.405.044 1.495-.036 1.088-.078 4.86-.508 3.772-.429 6.092-.581t5.076-.305q2.754-.154 4.597-.195 1.843-.04 3.11-.012 1.266.03 1.382.039t3.932-.016q3.817-.027 5.541-.051 1.723-.025 7.786.155m1.846.713q3.156 6.456 3.848 7.767.694 1.31 2.464 4.59 1.771 3.282 2.423 4.41t1.755 3.133q1.102 2.007 1.628 2.67l1.218 1.88m.001 2.817q-.653 5.062-1.53 10.46-.877 5.396-2.587 14.976-1.709 9.58-2.208 12.26-.497 2.678-1.193 6.148t-.97 4.962q-.275 1.494-1.253 6.18-.977 4.688-1.66 8.131-.681 3.443-.773 3.957-.09.515-1.596 7.468l-.761 3.451-.118.296m-68.066-1.663 1.562-.326.771.117 1.08.03q2.585.01 5.288.035t4.475.102q1.773.074 3.738.262t4.334.378q2.366.189 2.417.181t1.556.136 3.383.361 3.248.354q1.369.134 3.898.434 2.531.3 4.403.427 1.872.128 4.033.29 2.16.165 5.034.25 2.873.087 4.972.067 2.097-.022 4.024-.01 1.925.012 2.02.032t5.888.054m-.632-107.238q-.371 2.139-1.128 7.467-.758 5.33-1.035 7.021-.279 1.692-.657 4.295-.38 2.601-.8 4.684m-.777 2.036q2.65.056 6.131.265 3.482.208 4.494.279 1.013.07 3.261.361 1.404.372 2.175.528.769.158 5.485.858"/>
        <path stroke-width="2.667" d="M538.797 212.834q.536-.332 1.078-.785.544-.453 1.652-1.699t1.81-1.97q.701-.726 1.329-1.236t1.043-.706q.413-.194 3.254 2.88 1.071.183 4.784-.712.106-.026 3.17 3.819.424.497 4.877-.377l1.42 1.19q.384.138 3.033-.048m-28.689 19.072.436-.15q.197-.284 3.76-2.591l2.59.452q.251.044.894-.11.641-.155 1.18-.375.539-.222.855-.316t.81-.136.915.046q.419.09 1.065.156t1.21.05 2.194-.136q.83.301 1.059.404.23.101.75.213.522.112 1.347.183.824.07 1.271.12.448.05 1.883-.004 2.181.86 3.034.956.854.094 1.211.076t.953-.11.79-.164 4.8-.973q2.286.536 2.894.465.607-.07 1.212-.233.604-.161 1.286-.383.682-.22 4.428-1.156m-48.292 23.568.742.152.534-.146q.466.117 4.005-.34 1.201.332 1.739.472.538.141 1.448.174.91.035.957.062t.87.005 4.425-.557q1.812.65 2.352.822.54.174 1.336.255.797.083.961.059.165-.024.844-.026t6.005-1.678q.732.216 1.591.436.86.22 1.257.265.399.045.792.039.395-.006 1.03-.151.634-.145 4.61-1.077l.647.356q.176.048 2.544 1.278.784.354 6.461-1.565l2.267-.413m-49.361 24.621q2.182-.37 2.974-.408t2.099.205 2.359.204q1.052-.037 2.286-.277 1.236-.24 4.362-.933 2.385.83 3.09 1.01.704.182 1.864.198 1.159.016 1.512-.016.355-.031 4.53-.911l3.176 1.937q.48.051.673.151t4.616-.532q.133.03.725.405.594.376 1.172.654.579.277 1.018.364.44.085.624.14.185.054.601.07.415.015.79-.052.373-.066 2.218-.173"/>
    </g>
</svg>
