<svg xmlns="http://www.w3.org/2000/svg" xml:space="preserve" viewBox="0 0 960 480">
    <g fill="none" stroke="#fff" stroke-linecap="round" stroke-linejoin="round" stroke-width="2" transform="translate(-29.205 -600.855)scale(1.24137)">
        <path stroke-width="5" d="m274.822 525.322-.993-.637-2.486-.893q-4.802-1.233-6.65-1.386-1.848-.154-3.731.116-1.883.271-3.216.637t-3.311 1.21q-1.979.844-3.024 1.484-1.045.639-2.107 1.424t-2.467 1.988q-1.404 1.204-2.68 2.618t-2.187 2.811q-.91 1.398-1.55 2.919-.639 1.52-1.037 3.056-.398 1.535-.518 4.27-.119 2.735-.005 3.579t.228 1.369q.114.524.129.679t.932 2.478q.918 2.323 2.534 4.701t2.837 3.53q1.22 1.152 2.721 2.169 1.501 1.016 3.373 1.953 1.871.937 3.404 1.49 1.534.553 4.608 1.182t6.449.808 5.561-.07 3.92-.742 3.558-1.275 2.561-1.205 2.704-1.887 2.836-2.365 1.735-2.002 1.493-2.06 1.184-2.18 1.032-2.956.654-3.83q.179-2.096.094-3.46t-.408-2.874q-.322-1.511-.752-2.685t-1.064-2.355-1.039-1.759-.961-1.209q-.555-.632-.904-.952-.348-.32-.759-.71-.41-.391-1.359-1.087-.949-.695-3.102-1.821t-3.328-1.527q-1.174-.4-1.648-.535-.475-.135-3.589-1.271M168.15 665.739q-3.144-2.655-4.04-3.228t-2.427-1.227-2.262-.875q-.73-.22-2.538-.428t-3.58.134q-1.771.342-2.406.532t-2.574 1.446-3.096 2.616-1.859 2.537q-.7 1.176-1.592 3.848-.891 2.672-1.025 3.897-.134 1.226-.012 2.763.121 1.538.198 1.859t.178.823q.101.503.632 1.46.532.957 2.291 2.649 1.76 1.691 2.532 2.121t2.515.98l1.94.614q.198.062 1.187.197.989.136 1.689.159.7.024 1.662-.043.962-.068 1.521-.163t2.55-.868 2.839-1.22 1.994-1.262 2.042-1.781q.895-.968 1.315-1.585t.801-1.345q.38-.728.68-1.504t.712-2.761.453-2.619.007-1.03.003-.506-.8-4.141m119.061 29.714q-.282-.382-.602-.827-.319-.446-1.929-1.788t-4.308-2.67q-2.698-1.326-4.428-1.791t-3.93-.52-4.436.748-4.2 1.998-3.285 2.365-1.71 1.665-1.181 1.82q-.791 1.325-1.553 4.374-.761 3.05-.755 4.781.005 1.732.391 3.632.385 1.9.83 2.992t1.066 2.118q.622 1.027 1.347 1.867.726.841 1.616 1.615t1.03.863q.14.088 1.892 1.135t3.343 1.43q1.59.383 2.543.398.953.014 1.255.014.303 0 3.163-.622 2.861-.622 4.862-1.498t3.295-1.706q1.295-.83 2.065-1.424.77-.595 1.4-1.197.63-.601.725-.678.096-.077.599-.657.503-.579 1.172-1.694t.906-1.671.696-3.126.425-3.42-.495-3.221l-.552-2.581M404.6 651.428q-.623-.481-.868-.656-.245-.174-1.19-.546-.945-.371-2.796-.652t-3.424-.17-3.021.525-4.298 2.09q-2.849 1.678-4.29 3.026-1.442 1.349-2.251 2.395-.809 1.045-1.474 2.329t-1.052 2.962-.349 3.826.051 2.274.279 1.174q.266 1.05.705 2.002t.793 1.471 1.181 1.43 2.056 1.772q1.228.861 3.307 1.733 2.08.872 5.383 1.376t5.295.287 2.793-.42 1.523-.495 1.228-.561 1.408-.915q.902-.647 1.583-1.304.681-.658 1.569-1.853.889-1.196 1.544-2.631.656-1.435.896-2.294t.375-2.66.142-1.865q.007-.066-.272-1.8-.28-1.735-.605-2.634t-1.794-3.249q-.749-.958-2.861-2.735l-2.222-1.782m-167.896-77.093-.288.523q-1.466 1.644-1.506 1.709-.04.064-9.921 10.614t-12.827 14.13-5.683 7.026q-2.738 3.446-4.225 5.259-1.488 1.813-4.075 5.166-2.587 3.352-4.189 5.475-1.603 2.123-3.273 4.291-1.669 2.168-3.155 4.011t-4.502 5.294-4.41 4.936-2.019 2.179q-.626.695-3.766 4.063m96.014-67.854-.177.946.022 3.107q.058.276.428 7.252t.537 10.746q.168 3.77.31 5.961t.22 3.73.324 6.984q.247 5.446.429 8.538t.343 7.688l.244 6.937q.082 2.343.116 3.985t.135 4.515.283 6.663.245 6.132.126 3.771q.065 1.429.101 2.659t.213 5.384m24.405-108.036.654.845q.266.22 2.596 2.393t3.661 3.363 2.719 2.371q1.389 1.18 2.196 1.796.807.615 4.863 3.999t6.606 5.544 5.436 4.511q2.884 2.35 5.021 4.351t7.708 7.294 8.447 7.921 4.139 3.768q1.265 1.139 2.63 2.289 1.365 1.149 2.425 2.066t3.786 3.368 4.029 3.64 1.783 1.655 2.203 2.109l2.683 2.559q.962.916 3.268 3.155t2.995 2.972l.735.925m118.082-55.176-.622-.388q-1.57-.638-3.151-1.197t-2.738-.741-2.87.075q-1.714.256-2.677.763t-1.281.8-.657.75-.704 2.947-.275 3.039 1.394 2.913q1.19 1.335 2.066 1.977t2.088.953q1.214.31 2.209.296.996-.013 1.465-.114t1.061-.361 1.781-1.207q1.189-.949 2.11-2.311.949-2.739 1.094-3.624t.363-2.585m-77.413 61.631q1.113-1.067 1.422-1.309.309-.241 4.347-3.77t6.407-5.657q2.369-2.126 4.185-3.765t5.798-5.021 6.272-5.368 4.014-3.573q1.726-1.588 2.343-2.044t2.285-1.809q1.668-1.355 2.805-2.314 1.136-.958 1.337-1.139t.932-.691 1.371-1.036q.639-.527 1.762-1.373 1.122-.845 1.571-1.205.449-.359.661-.538.213-.178 5.542-4.335m33.432-28.468q.793-.749 1.961-2.249t1.967-2.475 1.428-1.724 1.283-1.496 3.112-3.661q2.459-2.916 5.094-6.037 2.634-3.121 3.969-4.611t4.346-4.959q3.013-3.468 5.978-6.719t4.33-4.709 2.06-2.238q.696-.78 1.619-1.856t1.236-1.46 1.273-1.418 1.594-1.668 1.613-1.675 1.7-1.86l1.331-1.488"/>
        <circle cx="560.289" cy="514.33" r="2.5" fill="#fff" stroke-width=".1"/>
        <circle cx="559.232" cy="593.306" r="2.5" fill="#fff" stroke-width=".1"/>
        <circle cx="556.699" cy="664.736" r="2.5" fill="#fff" stroke-width=".1"/>
        <path stroke-width="5" d="m506.522 591.596.495-.112q.259.012 3.898-.527 3.639-.54 5.988-.716 2.348-.176 8.876-.186t7.237.033q.709.045 1.622.085t2.708.206l8.238.682m-45.892 13.24q.074.076 2.275 2.989t4.459 5.781q2.259 2.869 4.516 5.443 2.256 2.574 3.746 4.247 1.489 1.673 3.578 4.072t2.334 2.709 2.451 2.814 4.184 4.696l2.987 3.308q1.008 1.116 1.627 1.673.62.556 1.131.974t1.072.934 1.573 1.543 1.881 1.817 1.292 1.159.826.749.913.83l1.714 1.508q1.205 1.058 2.202 2.069.998 1.011 1.547 1.541.548.529 1.972 1.829"/>
        <path d="m297.506 489.954.006.563q-.069.805.313 5.548.381 4.744.818 7.9t.713 6.714.441 5.412.41 3.013q.087.174.241.705m6.687-18.071q-.122.414-.168 2.277t.917 6.213 2.1 7.725q.058-.071.29-2.012t.511-3.748q.28-1.806.667-2.857.386-1.051.914-1.854.528-.802 1.27-1.433.742-.632 1.4-.884.657-.253 1.228-.29.57-.037 1.301.214.732.252 2.059 2.279t3.185 10.077q.027.052.085.512m18.911-8.972q-1.113-2.042-1.71-2.793-.598-.751-1.374-1.304-.776-.554-1.667-.756-.891-.203-1.069-.22t-1.355.242-2.37 1.122-1.911 1.78-1.15 2.112-.526 2.281.171 2.461.796 2.328q.529.954 1.254 1.626.725.673 1.258.898.533.226 1.249.298t1.362-.067 2.056-1.14 4.057-5.228m-1.029-23.199q.034.178.898 5.479.863 5.301 1.235 8.066.371 2.765.513 4.097t.325 3.114l.324 3.156q.142 1.375.201 1.805.059.431.036.473t-.317.884m10.194-3.213q.062-.042.654-.338.593-.295 1.352-.863t1.508-1.426q.748-.857 1.195-1.788.447-.932.582-1.965t-.053-1.795q-.189-.762-.473-1.219t-.778-.83q-.493-.372-.902-.543t-1.266-.228q-.855-.057-1.788.323-.932.379-1.555.917-.622.537-.97.972t-1.026 1.848-.839 2.883-.041 2.401.916 2.484q.798 1.553 1.605 2.358.808.805 1.749 1.312t2.239.716 2.667.001q1.369-.206 2.979-1.038t2.803-1.884 2.551-2.661m.537-9.933q.495.996 2.114 2.781 1.619 1.784 2.979 3.127t2.993 2.812 2.528 2.128 1.351.73q.457.069.532-.049t.066-.304q-.009-.184-.056-.433"/>
        <path d="M378.289 500.084q-.821.802-1.591 1.88t-1.241 1.803-.97 1.505q-.498.778-6.927 12.817-.04.043-.33.625m59.97 151.488q.021.528.343 5.338.321 4.81.817 8.814t.8 6.06.491 5.24"/>
        <path d="M426.371 670.769q.295-.256.464-.391.168-.136.358-.256.19-.121.483-.248.292-.127.95-.317t1.796-.254q1.139-.065 2.266.292 1.126.358 1.84.945.715.588 1.039 1.095t.488.961q.165.454.234.932.07.477.046 1.099-.023.621-.197 1.243t-.633 1.288-.857 1.054q-.398.387-.704.628-.306.24-1.941 1.13-1.634.891-2.489 1.126m11.287-13.343-.04.512q.014.495.667 3.035t1.94 6.422q.039.017.028-.834-.011-.85.066-1.947.078-1.096.31-2.123.231-1.026.812-2.136t1.475-1.946 1.422-1.108q.527-.272 1.189-.351.199.069 1.104.444m12.981 3.34.222-.144.094-.065q.357-.337.353-.451-.003-.113.026-.273.029-.159-.138-.726-.166-.567-.574-1.085t-.953-.85-1.176-.447-1.297-.006q-.664.109-1.822 1.065-1.157.957-1.744 2.125t-.695 2.181q-.107 1.012-.016 1.567.09.554.201.89.11.335.64 1.135t1.139 1.229 1.287.583q.678.155 1.403-.043.724-.199 1.437-.822t2.178-5.099m12.279-.299q-.041-.119-.281-.902-.239-.782-.888-1.668-.648-.885-1.178-1.243t-1.39-.498-1.375.017q-.515.156-1.179.613-.665.457-1.438 1.542t-.986 1.703-.288 1.393.072 1.505q.148.729.688 1.572t1.111 1.289 1.265.596 1.493-.025 1.878-1.156 1.48-1.69.527-1.083q.125-.375.082-.422t-.062-.037-.046.094-.002.819.329 2.456 1.129 4.228q.826 2.506 1.485 4.615.658 2.108.9 4.456.243 2.347.017 3.688t-.559 2.011-.924 1.257-1.93.948q-1.339.359-2.668.065-1.33-.295-2.187-.866t-1.412-1.525-.486-3.028 1.266-5.6"/>
        <path stroke-width="5" d="M413.016 686.406q.078.087.641 1.111.562 1.025 1.976 3.221 1.415 2.196 2.154 3.281t1.609 2.453 2.046 3.312 2.484 4.072q1.309 2.128 1.996 3.2.687 1.071 2.077 3.117t2.563 3.817 2.04 3.17 2.89 4.554 3.521 5.399q1.498 2.242 2.246 3.332.749 1.09 2.155 3.149 1.407 2.059 2.709 3.905 1.302 1.847 2.374 3.336t1.167 1.641m18.825 6.463q-.16-.094-.49-.397t-.622-.541q-.292-.237-.413-.315t-.727-.394q-.606-.317-1.543-.574t-1.637-.287-1.255.053-1.324.388q-.768.306-1.208.58t-.826.59-.527.455-.788.979-.993 1.454-.514 1.139-.303 1.592-.059 1.824q.075.759.312 1.493t.435 1.135.456.789.483.642.692.64.771.574.724.415.469.256.419.175.803.232 1.121.115 1.44-.1 1.24-.279.843-.27.884-.377q.528-.255 1.182-.64t1.115-.761 1.028-1.056.804-1.077q.238-.395.429-.871.192-.476.298-.959t.171-.967.054-1.533q-.121-.564-.293-1.015-.173-.45-.792-1.911"/>
        <path d="M429.902 780.137q.034.162.205 1.837.172 1.675.69 4.349.517 2.674.907 4.273.389 1.598 1.498 7.724.058.252.043.454"/>
        <path d="M428.909 780.9q.103-.071.384-.334.066-.012 1.067-.439t1.487-.535 1.055-.1 1.251.318 1.584 1.195q.903.883 1.359 1.861t.523 1.825q.068.846-.085 1.405-.152.558-1.073 1.466t-1.794 1.227q-.872.32-1.554.294-.681-.025-.808-.131t-.194-.235-.259-.671m8.28-8.635q.059.141.948 2.723.89 2.581 1.448 4.149.049.054.07-.906t.161-1.963q.14-1.002.371-1.693t.538-1.146.624-.747q.316-.293.763-.497t.838-.269.61-.047q.217.019 1.144.294"/>
        <circle cx="451.191" cy="776.828" r="1" fill="#fff" stroke-width=".1"/>
        <path d="m451.656 781.326.167.595q.141.945.715 5.832l.047.394m3.835-10.193q.012.368.435 2.421t1.083 4.275q.013.008.02-.445.008-.452.175-1.409.167-.956.506-1.781t.916-1.509 1.122-1.036q.544-.353.942-.459t1.298.083q.902.189 2.576 6.643m9.638-4.995q-.165-.189-.375-.418t-.641-.596-.908-.574-.943-.261q-.468-.054-.955.058-.487.113-1.066.69t-.821 1.57q-.241.992-.144 1.822.097.829.488 1.581.39.752 1.04 1.276.65.523 1.154.67t1.092.152q.589.005 1.012-.117t.895-.349 2.057-1.304"/>
        <circle cx="480.587" cy="775.269" r="1" fill="#fff" stroke-width=".1"/>
        <path d="M481.553 779.806q.151.442.3 2.041.15 1.598 1.028 5.002l.193.471m3.644-9.57-.023.354q-.05.311.659 4.997t1.915 12.459"/>
        <path d="M486.654 778.018q.161-.047.469-.151.309-.103 1.039-.154.731-.051 1.45.081.719.131 1.439.649.72.519 1.154 1.173t.597 1.686-.145 1.828-.776 1.217-.935.585-.772.217-.697.013q-.392-.041-.773-.094m6.887-14.037q-.094.466 1.569 14.324.014-.01.089-.72m6.713-1.253q.431-.22.885-.478t.672-.404.592-.528q.372-.382.626-1.043t.281-1.051q.026-.39-.066-.8-.092-.409-.278-.674t-.428-.396-.445-.162q-.203-.03-.587.097t-1.063.911-.996 1.881-.246 1.959.249 1.298.61.899q.434.462.637.592t1.035.339 1.185.228 4.361-1.148m6.486-7.546-.383.007-.204-.032q-.595-.121-1-.136t-.852.064-1.065.51q-.619.433-.747.661t-.186.382q-.057.154-.062.43-.004.277.054.461.058.185.147.278t.367.346.903.573.99.471.977.38.831.327.567.301q.347.203.605.463.258.261.674.877.416.617.57 1.289.155.672.146.937t-.207.713-.673.859-.856.565-1.011.196-1.096-.054q-.464-.097-1.039-.542-.574-.444-1.012-1.208-.439-.763-.674-2.596m-76.781-225.604.031.194q-.009.316 1.155 3.695 1.165 3.379 2.035 5.41.87 2.03 1.2 2.719t.503.978.37.511.279.339l.37-1.168q-.006-.358.63-4.664.636-4.305 1.03-6.506.393-2.201.502-2.92t.132-1.037.119-.948l-.006-.046q-.006-.037-.169-.394m4.235 8.768-.08.38-.058.422q-.068.86.028 2.258t.349 2.03.463.859q.209.229.431.314.221.084.523-.01t.562-.296q.261-.202.816-.935.556-.734.956-1.646t.65-1.843q-.056.085.099 1.873.156 1.788.83 4.574l.225.725m2.815-17.377q-.062.395.066 2.053.127 1.659.246 2.898.118 1.239.382 4.284t.625 5.287q.063.122.166.144m4.108-10.988.12.4q.057.828.152 4.05t.121 4.638q.025 1.417.134 2.339.038.132-.026.452m5.246-8.438-.299.108q-.492.339-1.311 1.02-.818.681-1.221 1.168-.403.488-.717 1.391.193.382.271.469t.871.857q.794.772 1.859 1.461 1.064.688 2.17 1.478.109.149.754.625m8.882-5.695q-.511-.567-.765-.787-.254-.219-.569-.437l-.44-.306q-.124-.088-.698-.3-.574-.211-1.077-.214t-.826.146-.571.37q-.248.223-.552.752-.304.53-.393.907-.089.378-.077.986t.094 1.026.328.792q.247.376.402.524.154.148.438.309t.596.249q.311.089.729.071.418-.017.753-.14.334-.124.816-.497.482-.374.832-.768.351-.394.633-.891t.468-.937q.185-.441.169-.479-.008.061.104 1 .113.939.588 3.009l.175.814m2.377-7.947q.023.257.659 2.719t1.453 4.195l.071-.107q.043-.03.329-1.033t.805-2.09.981-1.617q.463-.53 1.022-.882.56-.352 1.138-.385.579-.033.964.117t.771.468.803 1.118.718 2.251q.3 1.451.502 3.052.042.13-.177.434"/>
        <circle cx="556.316" cy="715.35" r="2.5" fill="#fff" stroke-width=".1"/>
        <circle cx="556.188" cy="769.6" r="2.5" fill="#fff" stroke-width=".1"/>
        <path stroke-width="5" d="m479.14 746.993.22-.134.372-.216q.293-.182 1.45-.926 1.158-.745 2.618-1.528 1.461-.783 2.438-1.275t1.434-.726q.456-.233.966-.471.51-.239 2.184-.949 1.673-.71 3.677-1.548 2.005-.837 4.884-1.981t4.796-1.87 4.293-1.581q2.378-.855 5.367-1.916 2.99-1.062 7.998-2.802 5.007-1.741 7.474-2.553l3.652-1.203q1.185-.39 2.972-1.029 1.786-.64 2.997-1.1t2.61-1.01 1.891-.733 2.022-.712l.768-.252m-67.247 37.701q.402-.079 1.099-.097.696-.018 1.402-.015.705.002 1.12-.001.416-.002 1.473.057 1.057.058 1.133.057t1.146.073q1.07.075 2.006.195.937.121 1.664.213.727.093 1.286.157.56.064 1.096.135.536.07 3.33.428t4.657.667q1.863.308 3.472.673t3.054.734 2.267.555q.822.187 2.06.495t2.278.573l4.407 1.131q3.367.866 5.419 1.415t5.052 1.318 4.835 1.219 2.506.575 1.616.331q.947.206 2.15.415t1.966.318 1.292.169 2.25.168l1.274.061"/>
        <path d="m568.913 703.779.189.672q.197 1.059.232 1.225t.236 1.477q.2 1.312.584 5.044.385 3.732.645 5.815t.36 2.619.241 1.619m-1.23-19.763.228.022q.227.01 1.48-.209 1.252-.218 2.064-.232.812-.013 1.629.084t1.792.455q.974.357 2.587 1.756 1.612 1.4 2.532 2.825t1.487 3.127q.568 1.702.657 2.891t-.105 2.263q-.194 1.073-.266 1.25-.072.176-.406.776-.335.6-.881 1.153-.546.554-1.027.902t-.781.508-.838.365-1.75.677-2.193.744q-.981.271-1.274.285t-.317-.005-.346-.306m15.459-19.725q-.094.483.228 3.575t.606 5.287.484 4.134q.202 1.938.374 3.737.088.029.194-.12m-1.622-16.117q.584-.354 1.642-1.013 1.059-.66 1.73-.934.67-.274 1.197-.419.526-.144 1.235-.178.709-.033 1.266.067t1.473.687 1.621 1.759q.704 1.172.839 2.26t.023 1.908-.49 1.586-.732 1.216-.69.792-.675.638q-.341.297-.883.812t-1.224 1.27q.263.363.799.694.536.332 1.978 1.11t3.891 2.22 3.845 2.41l.372.225m1.13-20.451q.134.351 2.695 3.827t4.915 6.143q.142.04.597.224m5.43-11.059-.132.247q-.178.377-1.494 5.408t-2.156 8.348-1.308 4.798-.718 2.249q-.086.173-.314.698m-42.874-218.656q.135.257.231.483.132.884.501 3.049t1.047 4.829 1.504 4.828 1.385 3.13 1.053 1.416l.317-.403.15-.256q.199-.315 1.175-4.398.976-4.084 1.585-7.042.61-2.958 1.35-5.861.029-.16.016-.339t.016-.995m6.122 17.282q1.069-1.091 1.522-1.681.453-.589.698-1.048t.417-1.065.025-1.197-.533-.985q-.385-.393-.776-.502-.392-.108-.886-.002-.495.107-.886.448-.392.342-.827 1.153-.435.812-.546 1.648-.112.837.074 1.695t.414 1.249q.227.391.368.588t.7.664 1.052.688 1.325.381 1.805.084q.974-.077 2.913-.629m1.786-7.846.141.301.821 2.57q.6 1.882.896 2.862.295.981.475 1.453.03-.03.082-.251t.231-1.058.514-1.82q.336-.981 1.061-2.035t1.452-1.518 1.3-.598 1.11-.13 1.09.027m3.935-6.923-.077.341q-.044.28.276 4.584t.806 6.368.851 2.736q.363.672.629.91t.999.312 1.531-.274 1.263-.688q.465-.341 1.374-1.245"/>
        <path d="m609.108 514.315.453-.251q.364-.047 8.821-2.332m5.693 5.86.073-.07.136-.055q.845-.451 1.356-.95.51-.498.931-1.395t.41-1.308q-.01-.411-.054-.647t-.27-.51-.681-.325-.702.022q-.248.072-1.043.734-.794.663-1.185 1.471-.39.808-.487 1.479t.152 1.431.616 1.228q.367.469.736.774t1.371.64q1.001.333 2.408.175 1.406-.158 2.667-.634 1.261-.475 3.559-1.761m-1.357-6.388.129.18q.128.099 1.575 1.906t2.243 2.858 1.076 1.351.506.5.331.232q.104.03.235.012t.728-.32"/>
        <path d="M639.306 509.613q-.313.393-1.077 2.092t-1.237 2.866q-.474 1.168-.768 1.862t-.573 1.367-1.556 3.418q-.09.163-.118-.018m22.382-21.812-.102.268q-.267.778-.337 4.571t.37 7.006.639 4.866q.201 1.654.133 2.552-.012.014-.475-.626"/>
        <path d="M656.159 512.101q.611-.198.839-.248t.653-.051q.425-.002 1.245.039t2.041.493 1.836 1.006q.617.555.915 1.113.297.559.328 1.028.03.47-.192.982t-1.228 1.305-2.341 1.107q-1.335.315-2.038.291t-.841-.063-.314-.127q-.176-.09-1.067-.722m12.544-7.279q.039.227-.05 1.127-.09.899.05 2.148.139 1.249.351 1.864.212.616.599 1.114t.568.612.5.181q.318.067 1.052-.398t1.379-1.565.796-1.626q.15-.525.17-.758-.08-.064-.126.133t.004.878q.05.68.601 2.208t1.49 3.2l.168.216m10.594-13.406-.198-.342q-.079-.425-.309-1.469t-.909-2.194-1.255-1.718-1.033-.837-1.013-.413q-.555-.143-1.395.051t-1.378 1.565-.501 2.642.433 2.782 1.225 3.7 1.373 3.978q.542 1.79.803 4.148t.242 3.398-.2 1.843q-.034-.021.535-4.428"/>
        <path d="M678.14 513.259q.351-.153 6.158-1.527m12.553-3.671-.008-.256q.027-.11-.009-1.439t-.373-2.758-.783-2.201-.682-1.003-.696-.387-.854.238-.66 1.59q-.268 1.195-.231 2.243t.541 3.564 1.374 6.524q.872 4.008 1.303 8.02.019.052-.279-.894"/>
        <path d="m690.693 514.678.918-.263q.15-.003 8.319-2.085m2.642 5.924.192-.064.347-.134.493-.235q.451-.242 1.49-1.045 1.038-.804 1.552-1.542t.634-1.125.149-.857-.167-.985q-.194-.515-.618-.84-.423-.325-1.117-.331t-1.345.504q-.65.511-1.112 1.325t-.626 1.781.068 1.962 1.203 2.029q.969 1.033 1.999 1.494t1.849.564 1.678-.064 2.805-1.209m1.193-6.954q.024.436.605 2.45.582 2.014.88 3.211t.368 1.625.072.51-.014.092-.133-1.057q-.116-1.067-.162-2.509t.118-2.464q.163-1.023.335-1.497.171-.475.714-1.237t1.374-1.208 1.415-.536 1.158-.025 1.178.308.879.439q.274.195.449.341l.229.169m-133.553 78.423q-.087-.297-.594-1.329-.506-1.032-1.359-1.943-.853-.912-1.603-1.387-.75-.476-1.696-.719t-1.817-.143-2.403 1.175-2.181 1.875q-.647.8-1.236 2.082-.589 1.283-.791 2.232t-.123 2.721q.08 1.772.575 3.391t.746 2.118.935 1.247 2.226 1.095 2.531.192q.988-.154 1.61-.406.622-.253.807-.342t1.208-1.136 1.725-2.385.929-2.005.457-1.977q.232-1.311.445-4.592"/>
        <path d="M584.113 597.007q.227.222 2.053 1.576t3.097 2.243 1.901 1.235 1.156.506q.169.007 1.103.135m3.735-8.443.162.361q.071.193.297 1.713t.563 2.346.658 1.22q.323.394.844.629t.8.221.764-.205.858-.487.995-1.075.934-1.549.412-1.167.096-.7q-.005-.304-.157-.267-.048 1.24 1.235 6.519l.248.585m4.573-3.048.418-.188q.666-.264 1.665-.799 1-.536 1.622-1.123t.824-1.023.215-.658-.044-.431-.237-.354-.683-.238-1.311.319-1.344 1.08q-.536.667-.715 1.282-.179.614-.067 1.315.113.701.793 1.301.681.599 1.853.869t1.871.263q.7-.008 1.388-.193t1.16-.384q.472-.198 1.792-1.006m5.402-5.097q-.167.567-.204 1.219-.038.652.234 1.975.272 1.324.786 2.238t1.174 1.433q.659.519 1.071.661t1.072.079 1.85-1.028 1.814-2.137q.622-1.173.801-1.956t.172-1.191-.134-.551-.266-.126q-.139.019-.232.196-.092.177-.114.515-.021.339.2 1.494.222 1.155.687 2.559.465 1.403 1.159 2.576.041.032.789.819m5.821-3.939q.342-.288.486-.34.615-.347 1.757-1.118t1.735-1.426.887-1.22q.293-.564.321-1.197.028-.632-.271-1.054t-.681-.581-.952-.131q-.57.026-1.816.932t-1.782 1.795q-.536.89-.724 1.818t.001 1.66 1.489 1.896q1.301 1.166 2.975 1.657t2.928.457 2.071-.182 3.464-1.445m-82.013 55.109q-.001.516 1.195 13.716.035-.005.162-1.105m-1.549-14.596q.331-.036 2.035.084 1.704.121 2.533.297.83.175 1.729.614.899.438 1.574.999.674.56 1.346 1.659t.849 3.095-.358 3.222-2.425 2.921q-1.888 1.696-2.955 2.355-1.067.658-1.514 1.022-.447.365-.992.848m14.466-6.592q.215-.021.393-.032t.696-.192 1.281-.801q.764-.62 1.072-1.168.307-.549.346-.863t.001-.517-.127-.385-.619-.427-1.036-.199q-.504.047-1.177.43-.674.382-1.301 1.319t-.772 1.949q-.144 1.013-.084 1.491t.44 1.245q.38.766 1.057 1.298.678.532 1.234.776.557.243 2.238.436 1.682.192 3.101.081t3.086-.432m-30.08 95.871q.107.913.472 5.258t.999 8.99q.074.085.087.221m-1.458-14.564q.075-.033.385-.303.311-.27.45-.399.14-.129.388-.267t.54-.269.86-.272 1.374-.176 1.658.203 1.811 1.039 1.44 1.807.534 2.228-.331 2.242q-.382 1.02-1.043 1.803t-1.633 1.295-3.326.209l-.82-.404m16.889 1.883.146-.296q.047-.097.092-.212t.086-.727q.04-.612-.115-1.231-.154-.618-.816-1.256t-1.331-.849-1.24-.169q-.569.042-1.047.291-.479.249-.859.615-.381.365-.817 1.302-.437.938-.514 1.635t.069 1.511q.147.814.624 1.439t1.368.899 1.599.167 1.108-.296q.4-.188.72-.373.32-.186 2.18-2.969.046.084.218.611.172.528.39 1.267t.893 2.009l.024.075m5.894-13.636q.159.491.292 1.649.133 1.159.548 3.41.414 2.251.912 4.124t.84 2.569q.34.697.706 1.096t.881.503 1.962-.364 2.595-1.337"/>
        <path d="M594.16 771.461q.516-.11 1.515-.182 1-.073 1.554-.049t1.383.034 1.527-.013 2.566-.255m5.065-7.744q.05.669.141 2.269t.444 3.644q.354 2.042.643 2.97.289.927.775 1.901.487.973.864 1.397.376.424.652.612.275.188.736.306t.985.055.872-.209.751-.376.953-.721"/>
        <path d="M606.312 770.366q1.41-.232 2.211-.332.801-.099 5.706-.794m6.95 5.892q.035-.039.83-.403t1.296-.643.803-.567.474-.574.211-.453.069-.465-.179-.717q-.209-.421-.589-.608-.379-.187-.837-.157-.457.031-.845.27t-.896.988q-.509.749-.625 1.702t.218 1.713q.335.76 1.188 1.494.853.733 1.706 1.041.852.309 1.731.377.878.068 1.952-.113 1.074-.18 3.523-1.46m.437-4.899q-.025.403.292 1.824.318 1.422.35 1.586t1.083 2.397q.102-.076.457-1.135.355-1.06.625-1.922.269-.862.644-1.569.374-.707.995-1.283.621-.575.825-.676.204-.1.712-.22.508-.121.912.02.404.142 1.641.978m6.287-2.905-.036.276-.001.447q-.045.267.21 2.809t.403 4.072.127 2.731q-.032.017.065-1.187t.512-2.539q.416-1.336.855-2.035.438-.699 1.033-1.112t1.229-.524 1.824.435 2.16 1.574 1.501 2.095q.532 1.068.633 2.648-.059.233-.349.841m9.629-9.869q-.475-.129-.767-.092-.291.037-.609.105-.318.069-1.059.391-.74.321-1.268.876-.529.555-.677.915t-.155.669.147.701.692.725 1.463.608q.925.277 1.603.502t1.203.544 1.025 1.215.525 1.544-.088 1.007q-.112.357-.454.749-.343.392-.648.591-.306.199-1.131.394t-2.109-.061q-1.284-.255-2.569-.916t-2.603-1.661m-60.951-120.017q.05.359.861 2.555t1.812 4.155 1.56 2.652.84.807q.051-.042.245-1.139t.382-2.55.352-2.333q.162-.88.368-1.836t.213-1.661q-.065-.358-.047-.485m5.465-.102q.01-.493.064-.757m.829 4.9.023.321q.072.772.265 2.02t.688 2.534l.381.616m10.094-5.956q-.161-.442-.249-.602-.089-.161-.109-.206t-.277-.322-.765-.621-1.083-.471q-.575-.125-1.124.076t-.884.516-.753 1.028-.519 1.382q-.1.667-.08 1.117t.447 1.34 1.312 1.619 1.689.968 1.801.267 2.716-.466m6.459-2.946q.279-.186 1.281-1.395t1.338-1.865.434-1.14-.016-.969-.528-.72-1.1-.266q-.684-.032-1.683.604t-1.544 1.444-.694 1.728q-.15.919-.023 1.756.126.837.626 1.782.499.946.939 1.383t.948.765 1.856.613 2.594.162 4.572-1.63m-457.732 4.838.126.366q.085.785.243 1.985.158 1.199.643 3.71.486 2.511 1.198 9.756.017-.008-.224-.527"/>
        <path d="M181.477 673.235q.092-.044.344-.322.253-.279.592-.582.34-.304.63-.487.291-.182 1.05-.516.758-.334 1.552-.444.793-.11 1.418-.002t1.02.345.828.749.783 1.511q.349.999.346 1.744t-.119 1.266q-.115.521-.446.949-.332.427-1.376 1.039t-3.603 1.486q-.134.001-.669-.017m11.359-18.866-.071.29-.071.497-.019.689q-.022.137.5 5.721.521 5.583 1.624 8.754.065-.043.374-.856t.709-1.761.661-1.361q.261-.415.845-.975.585-.56 1.266-.768.682-.207 1.033-.181.352.027.599.1t.511.24.843.748 2.385 4.859l.171.484"/>
        <circle cx="212.267" cy="664.46" r="1" fill="#fff" stroke-width=".1"/>
        <path d="m212.667 671.014.217.399q.136.547.332 1.497t.382 2.062.347 1.752q.028.031.116.481m6.349-23.269q-.204.548-.195.703t-.019.238q-.027.082-.026 2.969 0 2.886.256 6.13t.412 4.904q.155 1.661.26 2.719t.626 3.669q.024.041.08.582m78.626 27.12q.006.305.452 3.098t1.395 5.105q.034-.208.046-.553t.144-1.346.426-2.11q.295-1.11 1.198-2.444t1.765-1.869 1.443-.622.927-.026.619.277q.271.216.567.601.295.386.491.796t.733 2.398 1.308 4.69v-1.48q.001-1.486.229-3.032.227-1.547.527-2.325.299-.778.715-1.306.415-.529.848-.795t1.044-.323q.612-.056.939-.007.327.05.899.446t1.331 1.768 1.473 6.57q.029.087-.152.665m11.296-4.009.308-.613.054-.335q.02-.337-.004-1.197-.023-.86-.407-1.617-.383-.756-.891-1.152t-1.331-.528-1.856.394-2.058 1.869-1.401 2.475q-.376 1.13-.391 2.245t.305 1.938.886 1.391 1.22.782q.656.213 1.407.152.752-.062 1.99-.951 1.238-.888 1.878-1.861t1.018-1.933q.377-.959.391-1.501.436 1.625.778 2.68.343 1.056.729 1.965t.846 1.69m3.243-17.969q.055.375.635 4.789.58 4.415 1.041 6.45.46 2.034.836 2.778.375.743.732 1.075t1.03.506 1.542.049 2.055-.78q1.187-.654 3.288-2.625"/>
        <path d="M335.265 703.434q.198-.076 1.342-.291t5.909-.835m7.315-11.88-.039.394q-.065 1.081.655 4.256t1.4 5.029 1.199 3.383.876 2.666.693 2.006q.001-.019.458-1.018.458-.998 1.322-2.302t1.568-1.94 1.135-.873.962-.392 1.043-.184q.511-.03 1.308.216.797.245 1.803 1.105 1.007.859 1.811 2.424.803 1.566 1.07 2.978.267 1.411.445 2.474"/>
        <path stroke-width="5" d="m280.913 731.669.106.416q1.832 5.742 3.036 9.184 1.205 3.441 2.259 6.187t1.506 4.013.719 2.149q.268.883 1.005 3.294t1.173 3.783q.436 1.371.476 1.49.041.119.603 2.114t1.064 3.769.553 1.964q.049.188.264.906t.349 1.208.165.564q.03.076.067.497"/>
        <circle cx="296.909" cy="783.47" r="2.5" fill="#fff" stroke-width=".1"/>
        <path d="M269.075 800.936q-.062.884.094 3.538.155 2.654.57 4.901.416 2.248.613 3.221.198.974.277 1.515.078.541.168 1.288"/>
        <path d="m269.841 809.577.331-.165q.211-.172 5.025-1.324m-.592-7.247q.124.652.126.836t.515 3.294q.512 3.109 1.819 8.806l.391.795m8.572-2.781.007-.186q.054-.246-.011-.919-.064-.673-.193-1.033-.128-.36-.37-.634-.242-.275-.513-.385-.271-.111-.62-.079-.35.032-1.188.939t-.932 1.554-.055 1.012.194.745.316.589.303.324.419.216q.278.101.475.078.198-.024.498-.2t.522-.399.274-.323.346-.433m3.407-3.576-.003.285.032.443.069.484q.114.323 1.313 4.045.14-.153.421-.756.281-.604.703-1.335.422-.73.734-1.097.311-.367.564-.567.253-.201.533-.3.279-.099.532-.042.252.058.275.068t.412.435q.389.426 1.306 1.733.691-1.152 1.183-1.851t.915-.897.715-.184q.293.013.428.092t.175.117.235.368.255.492.232.996q.171.833.238 1.52.05.018-.072-.079m8.837-1.521-.055-.157q-.016-.125-.249-.659-.233-.535-.498-.863t-.561-.53q-.296-.203-.55-.288t-.679-.053-.944.534q-.519.503-.787 1.085t-.289 1.245.256 1.199q.278.536.457.704.18.167.281.25t.405.165.593.082.311.004.452-.158.685-.371.423-.395.619-1.168l.007-.06.223-.731m9.273-.929-.259-.075-.029-.081q-.138-.304-.633-.723t-1.127-.599q-.631-.181-1.044-.15-.412.032-.64.077t-.688.34-.832.895q-.371.599-.475 1.081-.104.481-.086.87.018.388.135.738t.332.626.365.405.55.302q.4.171 1.045.177t1.24-.262q.597-.266.823-.426t.31-.213.428-.334q.346-.282.54-.467l-.017.04q-.003.295.072.969.075.675.5 2.053.426 1.378.899 3.159t.61 3.699-.004 2.454-.285.796-.262.353-.195.129-.317.147-1.646-.076q-1.406-.185-3.522-.985-.073-.225-.424-1.048m9.401-12.28q.267-.309.884-.636.617-.328 1.12-.673t.908-.845q.405-.498.521-.974.117-.477.045-.738-.072-.262-.189-.373-.118-.112-.316-.182t-.55-.077-1.096.477-1.112 1.02-.509 1.101q-.141.566-.069.845t.817 1.015 1.345 1.048q.6.314 1.611.468 1.01.154 2.08-.28 1.069-.434 3.018-1.992m1.885-4.829q-.218.599-.197.729-.175.547.642 3.663.818 3.115 1.232 1.92t.841-2.36.915-1.856.973-1.016q.486-.324.992-.378t.861.01 1.38.929 2.118 4.338q-.012.078.273-.354m9.237-1.922-.046-.131-.105-.258q-.084-.162-.215-.443t-.478-.729q-.347-.447-.979-.941t-1.24-.681q-.607-.189-1.046-.17t-.883.22q-.443.201-.838.77t-.499 1.171q-.106.602.04 1.153t.366.881.659.734.947.631 1.111.243.913-.14 1.737-2.011m3.344-5.427q.034.483.034.523-.001.04.217.954.219.914.625 2.022.405 1.108.675 1.694t1.441 1.8q.206.133 1.1-.606.893-.739 1.426-1.851.532-1.111.716-1.593t.298-.96l-.032-.017q.039-.063.081.341t.384 1.687.804 2.935l.174.712m5.566-8.004-.041.019q-.096.046-.508.321t-.711.636q-.298.362-.457.695t-.081.961q.012.12.85.628.838.509 1.39.753t1.204.688 1.047.904q.394.462.524.765.129.305.152.505t-.162.483q-.185.284-.347.407-.161.124-1.026.376-.865.251-4.849-.429m-90.357 15.818-.187-.25q-.617-.513-.856-.652-.239-.14-.568-.249-.33-.109-.987-.064t-1.311.509-1.04 1.339-.226 1.792.611 1.343q.452.427 1.469.764 1.016.337 1.783.382.766.046 1.742-.124.977-.17 3.35-1.246m6.814-.929-.087-.209q-.469-.858-.932-1.331-.462-.473-.737-.636-.276-.164-.942-.31-.666-.145-1.308.008-.641.153-1.187.558t-.871.936-.386 1.05q-.06.518-.021.803.039.284.122.497t.343.54q.26.325.806.57.545.244 1.33.112.785-.133 1.443-.579t2.035-2.142m8.244.235-.044-.343q-.021-.083-.173-.501-.152-.419-.537-.918t-.628-.663q-.244-.164-.72-.388-.476-.225-1.028-.262-.553-.037-.93.043-.377.081-.678.295-.302.215-.492.445t-.308.458-.203.5q-.085.274-.119.886-.033.613.107 1.004.141.392.514.824.372.433.948.648t1.208.17 1.232-.408 1.35-1.695m5.001-3.041.042.167q.054.727 1.297 4.73.048.029-.135-.32-.184-.349-.246-1.117t.033-1.41.302-1.193q.206-.551.742-1.041.535-.489 1.013-.657t.705-.212.358-.039q.129.006.528.098.399.091 1.483.759m7.552 1.527q-.129-.092-.156-.1-.026-.007-.515-.457-.488-.45-1.38-.705-.893-.256-1.424-.186-.532.07-.93.325-.398.256-.696.909-.297.654-.163 1.352t.461 1.063.728.474q.401.108.947-.023.546-.13 2.964-2.722"/>
        <path d="M310.332 821.094q-.009.255.454 3.887t1.277 6.518q.057.062.283.323m2.587-6.49q-.041.066.148-.319.078-.042-.021.051m1.266 3.977.155.222q.028.345.165 1.008t.969 1.986l.433.653m3.106-6.751-.025.363q.016.334.55 1.721t1.314 2.24q.097-.093.255-.326.159-.232.588-1.011.43-.779 1.046-1.555.615-.776.98-.921.366-.145.603-.122t.847.607.952 1.277q.341.694.756 2.629-.023.06.014.926m9.037-3.678-.037-.116q.019-.239-.055-.394-.029-.213-.18-.686-.152-.473-.43-.886-.279-.412-.63-.659-.351-.246-.721-.348-.369-.102-.597-.1t-.546.073-.77.386q-.451.316-.783.868-.332.551-.459 1.402t.07 1.521.617 1.107.809.527q.389.088.753.053.365-.035 1.069-.423.705-.388 1.254-.957t1.2-1.359q.133.115.735.89.601.776 1.899 2.372l.482.636m3.471-12.477q-.003.263-.032.418-.04.413.161 2.791.2 2.378.619 3.631t.643 1.675q.225.421.481.72t.465.464q.208.164.784.301t1.229-.083.879-.359.441-.326.307-.324q.093-.135.718-.929"/>
        <path d="M343.309 826.324q.333-.131 5.229-1.291m10.594 2.647q.174-.146.431-.262.081-.034.412-.388.331-.353.503-.733.172-.379.209-.744t-.053-.712-.515-.713q-.424-.365-.957-.505t-.996-.109-.874.168-1 .641q-.587.503-.945 1.345-.358.841-.362 1.38-.003.539.304 1.212t.804 1.133 1.247.832q.75.373 1.874.524t1.922.018 2.897-1.166m6.094-3.245q-.02-.327-.065-.538-.045-.21-.077-.321-.032-.11-.126-.266-.093-.156-.139-.203-.046-.046-.43-.248-.385-.202-1.007-.269-.623-.067-.898-.018-.276.05-.687.354-.411.305-.519.556t-.065.649q.042.396.365.732.324.335 1.168.677.845.342 1.759.592.915.249 1.356.42t.763.413.598.658.338.564q.061.148.184.541.122.393.111.821t-.085.63-.429.457-.716.354-.88.1-1.1-.155-.903-.3-.935-.544q-.613-.398-.691-.48t-.167-.217-.631-.721"/>
        <path stroke="#999" d="m574.357 530.972 5.678-.209q5.588-.206 9.432-.282t5.591-.1 3.186-.118 4.351-.212 6.336-.104q3.424.015 6.949-.014t7.093-.026q3.567.002 6.016.036 2.45.034 3.279.039t2.35.027q1.521.021 3.398.053t3.979.035 6.448-.109 8.045-.173q3.699-.06 6.494-.077t5.872-.032q3.078-.014 9.698-.222 6.619-.209 10.384-.46 3.765-.252 6.012-.364t4.215-.152q1.97-.04 4.796-.111t12.384-.235 12.502-.136M268.423 843.854q.95-.209 1.671-.388t1.16-.281.701-.17 1.863-.404q1.602-.334 2.926-.499t2.234-.258q.911-.092 1.557-.127.647-.034 1.879-.026t1.973.015 1.289-.005 1.064-.015q.518-.004 1.415-.048.898-.043 1.987-.115 1.089-.071 3.131-.167t3.915-.16q1.872-.064 3.019-.088t2.245-.066 2.021-.057 1.921-.018 2.073-.013 1.801-.021 1.692-.035 1.62-.029 1.851-.054l3.144-.126q1.947-.079 3.14-.111t3.459-.166 5.889-.27 5.521-.196q1.898-.059 3.171-.087 1.274-.027 1.847-.046l1.699-.051q1.127-.032 3.322-.136 2.195-.103 2.468-.109l3.169-.076q2.896-.071 3.917-.092 1.022-.022 2.195-.072 1.174-.05 5.871-.211t7.077-.227 3.6-.081q1.222-.016 1.774-.016t1.986.006q1.435.006 2.469.038 1.035.031 1.899.127m-4.593-12.463.091.383-.014.704q-.05.223.036 3.961.087 3.737.121 3.756.035.018.154.262.119.243.322.19.202-.052.214-.062l1.807-1.29q1.796-1.28 2.953-2.255 1.158-.975 2.035-1.876l.625-.559"/>
        <path stroke-width="5" d="M153.472 699.668q-.186.628-.315 4.952t-.014 6.781q.115 2.459.169 3.535t.163 3.672.145 3.398.161 6.725q.124 5.922.154 8.944t.056 6.182.032 3.478.012 1.042q.005.724.047 1.634.041.909.155 6.955"/>
        <circle cx="152.88" cy="767.687" r="2.5" fill="#fff" stroke-width=".1"/>
        <path d="m127.372 787.641-.297-.229q-.561-.858-.758-1.137-.196-.28-.487-.568t-.59-.524-.775-.45-1.224-.297-1.314.095q-.565.18-.818.328t-.445.268-1.002 1.046q-.81.925-1.285 2.82-.476 1.895-.34 3.415.136 1.519.548 2.345t.862 1.385q.451.559.918.881t1.447.483q.981.161 1.675.048t1.082-.307.695-.432.631-.676q.325-.439.349-.465t.249-.55.854-4.872l-.039-1.086m10.858 3.047-.193-.088q-.3-.112-.514-.207t-.825-.19-1.136-.065q-.526.031-.919.133-.392.102-1.005.534t-.981 1.093-.431 1.188.183 1.111q.246.585.721 1.09.476.504 1.034.822.559.318 1.034.418.474.1.969.131.495.032 1.535.018m10.695-5.027-.429-.215-.302-.122q-.659-.196-1.111-.227-.452-.03-.913.028-.46.058-.754.164-.293.106-.646.338-.353.231-.576.47t-.461.727-.325 1.046-.042 1.054.182.921q.139.426.418.795.28.369.459.516.178.148.262.202t.614.265 1.303.289q.772.077 1.223-.006.451-.084 2.291-.62m10.822-3.875q-.825-.975-1.441-1.47-.615-.495-1.084-.71-.468-.215-1.233-.312t-1.549.224-1.584 1.219-1.013 1.726.114 1.88.715 1.543q.387.491.758.715t.683.301.767.069.846-.138q.39-.129.899-.454.509-.324 1.067-.829.559-.506 1.839-2.044.052-.052.245.512t.878 2.585q.047.021.323.216m3.279-7.845.141.351q.025 1.046 1.253 6.196.072-.051.333-.744.26-.693.605-1.505.344-.812.849-1.575t1.244-1.357q.738-.594 1.183-.735.445-.14.75-.127t.569.088q.265.075.843.887.577.812 1.134 2.471.558 1.658.822 2.528.117-.139.435-1.283.151-.395.561-1.213.411-.817.871-1.306.461-.489.573-.557t.478-.204q.366-.134.615-.131.248.004.462.053t.495.252q.28.203.544.516.263.314.776 1.544.512 1.229.616 1.699t.134.543q.031.073.102.595m3.106-14.297q.054.206.144 1.402.089 1.195.849 4.521m8.545-.96-.122.012q-.3.02-.841.237-.542.217-.779.458-.238.241-.417.566t-.223.549-.032.412.019.227.261.409.617.835q.462.564.966 1.127.503.563 1.025 1.045.522.481.74.864t.362.863.176.79-.027.611-.227.476q-.169.174-.408.293-.238.12-.784.173-.547.053-1.069-.095-.522-.147-2.009-1.14-.147-.338-.471-.67m-70.988 13.54q-.09.385-.035 2.461t.387 4.162.637 3.243.785 2.79l-.031-.104q.013.028.029-1.159.017-1.187.112-2.127t.225-1.525q.131-.585.7-1.973.569-1.387.967-2.049t.601-.907 1.04-.779q.837-.532 1.28-.728l.868-.384q.425-.188.639-.291t.696-.229m9.701 7.248-.058-.296q-.107-.403-.26-.851t-.492-1.032-.836-1.057q-.496-.473-.952-.687-.455-.213-1.238-.232t-1.3.186-1.327 1.074q-.809.867-1.145 2.362-.336 1.494-.078 2.568t.68 1.656q.421.583.92.911t1.241.458 1.463-.128q.722-.257 1.398-.829.677-.572 1.259-1.514.583-.941 1.134-2.297.037.014.2.787l.345 1.635q.182.862.406 1.504.224.643.643 1.26.052.034.247.344m3.243-8.997q.071-.018.305-.13.614-.29.653-.316.038-.026 1.109-.444 1.071-.419 2.494-.475t2.308.545q.07.316.069.493t-.842 1.858q-.84 1.681-1.641 3.062-.801 1.382-.877 1.812t.2.519q.429.101 2.15-.083 1.721-.183 2.504-.339.784-.157 1.407-.265t1.094-.177q.472-.068.64.013-.007-.04.088-.449m10.694-4.174q.06-.166.202-.545l.074-.392q.028-.295.028-.648.001-.353-.052-1.013-.052-.659-.4-1.417-.347-.758-.912-1.273-.564-.515-.91-.68t-.831-.226-1.102.116q-.619.178-1.424 1.334t-.985 2.372q-.179 1.216-.121 1.795.059.578.382 1.444.323.867.841 1.494.518.628.976.876t.756.317q.299.069.748.032.448-.037.902-.312.453-.274.513-.314.059-.039.341-.353.283-.313.419-.589.136-.277.219-.556.083-.28.2-1.659m5.365-5.128.055.174q.03.244 1.615 7.632-.003-.049.022-.542.026-.492.191-1.389t.583-1.818 1.369-1.97 1.781-1.466q.83-.418 1.154-.446.325-.028.672.02t.926.547.975 1.238l.359.603"/>
        <path stroke="#999" d="M117.718 834.058q1-.069 2.707-.313t3.011-.347q1.305-.104 2.2-.146.896-.043 1.419-.066t1.416-.035q.893-.01 2.814-.062 1.921-.053 2.416-.076t2.037-.109 2.391-.129 1.975-.073q1.126-.032 4.4-.076 3.275-.045 5.793-.006t3.986.073q1.469.035 2.159.036t.712-.005q.023-.004 2.34.061t3.414.086 2.197.037q1.101.015 2.723.04t2.151.026q.53.001 7.951-.029 7.42-.029 8.136-.07.716-.04 3.379-.217 2.663-.178 4.156-.238 1.494-.061 2.429-.084t1.677-.047 1.824-.019m366.912-99.967q.698-.233 1.598-.421t3.194-.329 5.28-.175 4.383-.086 4.664-.269q3.265-.217 5.155-.304 1.89-.088 3.066-.111 1.177-.024 5.172-.113 3.996-.09 6.039-.197 2.043-.106 4.325-.303 2.281-.196 9.362-.663.195.071 1.162.191m-41.191 4.427q-.757.457-1.565 1.125t-1.393 1.186-1.854 1.534q-1.269 1.014-2.839 2.088t-2.721 1.929-2.483 1.887-4.829 3.314q-3.497 2.281-5.151 3.374-1.654 1.094-2.263 1.549-.609.456-1.085.855-.477.399-1.525 1.439-1.048 1.039-2.209 2.318-1.16 1.279-1.862 2.261-.702.981-1.432 2.027-.731 1.047-1.111 1.67-.379.624-1.328 2.767-.948 2.144-1.437 3.494t-.686 1.945q-.195.593-.701 2.082-.505 1.488-.995 2.905-.491 1.416-1.011 2.952t-.828 2.408-1.07 3.07-1.259 3.659q-.496 1.463-1.062 2.962t-1.198 2.988-1.243 2.771q-.611 1.283-2.173 4.01t-1.973 3.375-.719 1.104-.677 1.007q-.369.552-2.022 2.528t-3.075 3.282q-1.422 1.305-2.661 2.26t-2.708 1.983q-1.469 1.029-4.056 2.774t-6.797 4.091q-4.209 2.344-6.665 3.571-2.456 1.226-5.641 2.685-3.185 1.458-4.907 2.188-1.723.729-5.7 2.298t-6.312 2.387-9.048 2.775-10.217 2.894-5.209 1.331-5.579 1.281-8.658 2.047q-4.784 1.159-9.49 2.092-4.705.933-8.859 1.809t-6.578 1.36-4.427.793-10.81 1.722-13.659 2.25-7.08 1.284-3.337.717-4.267.887-5.061.893-3.64.438q-1.736.163-6.003.626t-7.288.902-4.775.684-5.035.568-7.424.52q-4.143.195-7.458.414-3.314.218-4.636.313-1.322.096-1.692.13-.369.035-3.888.189t-5.673.176q-2.153.023-3.649.025t-6.52.057-8.062.067-6.075-.203-5.48-.356q-2.443-.14-4.839-.183t-5.463-.089q-3.067-.045-6.186-.236-3.12-.19-8.258-.506-5.138-.315-8.194-.602-3.056-.288-4.646-.491t-4.413-.587q-2.822-.385-5.967-.933-3.145-.547-4.703-.903-1.558-.355-3.832-.905t-4.721-1.064-3.969-.921q-1.522-.406-2.662-.854t-2.567-1.051q-1.428-.603-2.539-1.046t-2.452-1.155q-1.341-.713-1.984-1.109-.642-.397-2.002-1.207-1.361-.809-1.993-1.201-.632-.391-1.907-1.529t-1.906-1.847q-.632-.71-1.062-1.3-.431-.589-.602-.86-.171-.27-.827-1.328t-.962-1.607-1.081-2.345l-.389-1.035"/>
        <path stroke="#999" d="M183.537 843.831q-.028-.108.093-.509.038-.126.161-2.651.122-2.526 1.141-4.559.048-.014 1.212.507 1.165.521 1.848 1.071l1.078.868q.394.316.728.559t.447.291.443.319m245.616-7.994q.201.855.556 1.63t.773 1.442 1.086 1.505 1.154 1.413q-.011-.01.089-1.031.101-1.022.155-1.8.054-.777.232-1.442t.352-.932.366-.532 2.837-1.644q.185.003.507.035m4.765 3.64q.223-.269.605-.89.381-.622.572-1.149.191-.528.228-1.042t-.068-.748-.242-.36-.376-.174-.491-.02-.812.568-.779 1.213q-.22.673-.214 1.084t.319 1.062q.313.649 1.527 1.208t2.899.553 3.719-.478m-3.107-11.453.075.264.193.459q.422.592 4.041 10.423.02.017-.237.04m9-4.696.015-.144.031-.241q-.001-.518-.317-1.26-.317-.742-.831-1.147-.514-.406-1.043-.522-.53-.117-1.091-.051-.56.065-1.441.745t-1.188 1.538-.296 1.261.331 1.027q.318.625.898 1.066.579.44 1.195.531.615.091 1.125-.053.509-.144 1.206-.759.697-.614.914-.94t.342-.53q.126-.205.553-1.057-.02-.018.052.2t.216.591q.143.373.432.819l.606.929q.317.482 1.079 1.401m-.137-13.235q.031.365.62 2.247t.899 2.782 1.115 2.555q.807 1.654 1.136 1.94.33.285.745.428.415.142 1.13.095.715-.048 1.084-.219.37-.172.566-.317.196-.144.281-.225t.157-.223.548-.791"/>
        <path stroke="#999" d="m468.743 826.636.368-.338q.146-.026 6.819-3.136m3.872 3.111.354-.359q.13-.154.498-.329t1.145-.727 1.242-1.017q.464-.465.776-.88.311-.415.574-.959.263-.543.264-.875t-.052-.579q-.053-.248-.491-.512-.438-.263-1.146-.253-.709.011-1.595.475-.886.465-1.619 1.437-.732.971-.915 1.887-.182.916-.013 1.54t.565 1.031 1.279.786 2.375.364q1.493-.015 2.503-.316t1.826-.658 3.124-2.245m3.38-2.214q-.086-.072-.306-.614t-.476-.939q-.256-.398-.6-.701-.345-.303-.815-.487t-.861-.211-.922.192-.828.595q-.298.376-.428 1.039t.013 1.127.76 1.009 1.394.742 1.29.19 2.143-.949m-3.142-11.155-.023.456.072.519q.2 1.088 1.019 3.693t1.299 3.753.798 1.736q.318.59.619 1.055.301.466.555.719.253.252.22.26t-.023-.343m-10.329-125.992q.802.358 1.633.546.832.189 1.616.261t1.855.05q1.07-.023 1.823-.06-.014.003-.765-.697t-1.336-1.214-1.006-1.06-.528-.845q-.107-.301-.201-.614t.415-3.253q.114-.145.336-.381m5.783-1.579q-.078-.341-.34-1.021-.263-.68-.567-1.152t-.689-.814q-.386-.341-.636-.4t-.433-.026q-.184.034-.367.194t-.313.378-.041.99.491 1.355.733.828q.33.245 1.037.39t1.887-.48 2.198-1.97q1.017-1.343 1.876-3.245m-10.989-4.479.255.101.482.125q.728.023 10.738 3.111.025-.006-.112.212m1.727-10.003-.106-.099-.172-.171q-.413-.314-1.194-.512-.782-.199-1.416-.036-.634.162-1.048.513-.414.35-.703.835-.288.486-.281 1.598t.501 1.878q.496.766.823 1t1.017.36 1.392-.067 1.148-.627.64-.927q.195-.492.129-1.419t-.193-1.297-.214-.594-.505-1.081q-.026.006.191.08.217.075.6.188.384.112.914.153t1.106.081q.576.041 1.768-.007m-10.603-7.921q.308.197 2.162.87 1.853.674 2.757.974.903.3 2.707.663 1.805.363 2.231.274.427-.089.793-.332.365-.244.761-.841t.483-.995q.088-.398.092-.641.004-.244-.009-.361t-.082-.259-.296-.916"/>
        <path stroke="#999" d="m500.934 668.685-.045-.497q.068-.132 1.644-7.324m4.823-1.19-.071-.5q-.043-.197.041-.596t.116-1.351q.033-.952-.055-1.604-.088-.651-.228-1.15t-.414-1.038-.535-.741q-.263-.202-.493-.31-.229-.109-.704.08-.476.188-.897.758-.421.569-.59 1.555t.16 2.158q.328 1.172.945 1.873.617.7 1.216.945.598.245 1.163.177.564-.069 1.4-.541.837-.472 1.731-1.667.893-1.196 1.267-2.181t.585-1.851.111-3.846m.29-4.029q-.109.024-.674-.13-.564-.154-1.035-.191-.472-.038-.921.052t-.881.352-.691.556-.407.849q-.147.556-.029 1.02.118.465.566.971.448.505.904.673t1.263.008q.808-.16 1.436-.658.628-.497.934-.91.306-.412.545-2.28m-10.773-4.269.349.295.455.257q.987.501 3.554 1.431 2.568.93 3.771 1.244 1.204.314 1.865.419t1.214.148.908-.005.341-.017-.287-.19"/>
        <path stroke="#f2f2f2" stroke-width="5" d="m134.817 694.234-.305.218-.218.186q-.117.169-2.326 2.991t-3.702 4.962q-1.494 2.139-3.29 4.788-1.797 2.648-2.847 4.071l-2.832 3.839q-1.783 2.416-3.636 5.018t-3.043 4.175-1.949 2.538q-.76.963-2.427 3.037t-3.163 4.05q-1.496 1.977-2.584 3.461-1.089 1.485-1.83 2.612l-.519.885m70.226-45.476q.575.836 1.057 1.47t.943 1.28 1.083 1.54 1.434 1.96 1.449 1.89q.636.823 1.462 2.019t1.299 1.859.986 1.326 1.177 1.66.681 1.012q.016.017.982 1.478t1.525 2.338q.559.876.938 1.429.38.552 1.291 1.859.912 1.307 1.285 1.799t.578.738 1.746 2.269 2.455 3.182 1.837 2.27 2.561 3.119 3.156 3.727q1.516 1.718 2.296 2.605.78.886 2.51 3.182t2.166 2.949q.437.653.965 1.603l.179.379m47.187-15.093q-.016.645-1.091 3.808t-3.091 8.416q-2.016 5.255-3.022 7.901t-1.827 4.95-1.668 4.762-1.255 3.587l-.57 1.574q-.161.444-.829 2.135t-1.162 2.92q-.495 1.229-1.153 2.764-.657 1.536-1.203 2.723-.545 1.187-1.131 2.385-.585 1.198-1.279 2.455-.695 1.258-1.204 2.077-.509.82-1.105 1.589m63.891-60.582.446.16q.903.371 2.626 1.101 1.723.729 4.217 2.319 2.495 1.591 3.995 2.704t2.999 2.298 2.478 1.871 2.856 1.961q1.877 1.274 3.42 2.282t2.376 1.516l2.856 1.751q2.025 1.241 3.823 2.328t3.337 2.056q1.538.971 3.374 2.085 1.836 1.115 2.147 1.315.311.201 2.418 1.408t3.034 1.707 2.316 1.401 6.151 3.775q.039.05.58.487m161.603-179.301.064-.066q.852-.701 4.765-2.932 3.912-2.232 6.743-3.695 2.831-1.464 4.562-2.417 1.731-.954 2.779-1.575t2.428-1.407q1.38-.787 2.505-1.46t2.25-1.414 2.376-1.427q1.253-.687 2.044-1.102t2.203-1.235q1.411-.821 3.242-1.982l.823-.604m-41.448 42.765 1.743.4q.683.157 2.175.721 1.491.565 1.734.669.243.103 1.442.753 1.2.65 2.145 1.298t1.339.913 1.033.676q.639.41 1.343.88.704.469 2.542 1.746t2.393 1.656.98.635 2.467 1.604q2.041 1.347 4.8 3.092t4.286 2.622 2.573 1.433q1.047.556 1.797.961t5.001 2.77l.699.504"/>
        <path stroke="#999" d="M591.726 531.175q-.257.195-.439.32-.182.124-.533.513-.351.388-.921 1.056-.569.668-.982 1.15t-1.918 2.256-2.863 3.354q-1.359 1.579-2.921 3.224t-2.595 2.695-2.083 2.112-1.656 1.626-3.061 2.8q-2.453 2.236-3.895 3.539-1.441 1.302-2.364 2.07t-1.481 1.231-2.055 1.658q-1.496 1.197-2.5 1.981t-2.898 2.407-3.125 2.789-2.487 2.422-1.885 1.906-1.135 1.207-1.284 1.461-.846.988-.906 1.09q-.838 1.007-1.523 1.864-.684.856-1.457 1.974-.774 1.117-1.156 1.738l-.769 1.249q-.387.628-1.64 3.296t-1.991 4.575-1.071 2.823-1.373 4.231-1.936 6.953-1.884 7.896-1.981 8.107-1.41 5.397q-.417 1.55-1.037 3.832-.621 2.283-1.444 5.041-.823 2.757-1.423 4.581-.6 1.823-1.16 3.563-.56 1.739-1.013 3.294t-1.191 3.942-1.231 3.932q-.493 1.546-1.702 4.988-1.208 3.442-2.249 6.127l-1.681 4.332q-.64 1.648-.964 2.407t-.989 2.373q-.666 1.615-2.284 5.236-1.617 3.622-3.246 6.546t-2.481 4.272-1.698 2.583q-.847 1.235-1.994 2.779t-2.47 3.233q-1.324 1.689-4.589 5.235t-5.242 5.443q-1.977 1.895-4.208 3.695t-3.328 2.623-2.828 2.13-3.021 2.201q-1.289.892-2.404 1.6-1.116.707-3.281 2.054t-4.841 2.915q-2.677 1.568-4.012 2.298-1.336.73-2.144 1.178-.809.447-1.576.857-.766.411-3.514 1.958-2.749 1.547-4.256 2.429-1.508.883-3.214 1.877-1.707.994-2.662 1.587t-1.262.796-2.021 1.375-3.423 2.496-2.932 2.43q-1.222 1.104-1.493 1.359t-1.703 1.748-2.949 3.221-3.064 3.714-3.123 4.235-2.704 4.017q-1.127 1.77-1.57 2.488-.443.717-1.587 2.877t-1.691 3.308-1.38 2.967-1.38 3.08l-.775 1.785q-.229.524-.886 2.066-.657 1.543-1.308 3.055-.652 1.512-.908 2.08-.257.567-.909 1.948-.653 1.381-1.603 3.251-.949 1.87-1.469 2.867-.519.996-1.487 2.747t-1.581 2.809-1.889 3.119q-1.274 2.061-2.625 4.166t-1.959 3.079-1.408 2.24q-.799 1.266-1.26 2.013t-.921 1.482q-.459.736-1.768 3.008t-1.84 3.219-1.002 1.803-1.07 2.015-1.51 3.086-1.176 2.473q-.082.088-.387.633"/>
        <path stroke="#f2f2f2" stroke-width="5" d="M558.394 628.055q.049-.115-.004-.152t.014-.119l.012.072q.027-.028-.021-.135-.049-.107.035-.398"/>
        <circle cx="559.523" cy="555.531" r="2.5" fill="#f2f2f2" stroke="#f2f2f2" stroke-width=".1"/>
        <path stroke="#f2f2f2" stroke-width="5" d="M360.782 764.842q-.402.172-1.285.789"/>
        <circle cx="229.97" cy="796.351" r="2.5" fill="#f2f2f2" stroke="#f2f2f2" stroke-width=".1"/>
        <circle cx="214.247" cy="754.413" r="2.5" fill="#f2f2f2" stroke="#f2f2f2" stroke-width=".1"/>
        <circle cx="93.099" cy="749.317" r="2.5" fill="#f2f2f2" stroke="#f2f2f2" stroke-width=".1"/>
        <path stroke="#f2f2f2" stroke-width="5" d="M282.007 579.207q.108.149 2.032 4.805 1.924 4.657 3.178 7.72 1.253 3.062 1.776 4.419.522 1.357.835 2.293t.67 1.943.702 2.147q.344 1.142.796 2.684t1.06 3.194.927 2.513q.319.859.647 1.858t.582 1.723.626 1.584q.373.859.756 1.767.384.908.781 1.953t.804 2.241 1.426 3.977 1.524 4.102.99 2.751 1.281 3.611q.797 2.181 1.196 3.301t.675 2.001.414 1.359.112.559q-.024.081.013.868m10.418 10.577q-.079-.07-.552-.453t-1.486-.928q-1.011-.546-1.736-.763-.724-.217-1.81-.283t-2.864.701-2.305 1.182-1.464 1.522-1.395 2.2-.552 1.974q-.095.881-.021 1.587.073.706.32 1.439.247.732.973 1.79t1.521 1.678 1.256.847.973.377 1.392.213 1.588-.028 1.249-.256q.54-.166 1.612-.795 1.072-.628 1.311-.826.24-.197.44-.397.199-.201.603-.71t.862-1.39q.46-.881.676-1.525t.278-1.013.083-.461q.021-.094.044-.625.023-.532-.02-1.072l-.147-1.802m-92.024-99.867q-.186.036-1.59.636-1.403.601-3.835 1.609t-4.104 1.622-3.033 1.038-3.098.852-5.356 1.3q-3.618.874-7.836 2.019-4.218 1.144-7.488 1.988t-5.39 1.334q-2.121.488-4.418.973t-6.107 1.187q-3.809.702-6.568 1.178-2.759.475-4.161.718t-5.51 1.076q-4.109.833-10.322 2.084-.103.051-.883.08m-9.766 4.174q-.117-.802-.274-1.457t-.467-1.405-.568-1.22-1.345-1.768-2.031-1.838q-.944-.542-1.587-.741-.642-.198-1.942-.422t-2.179-.227q-.88-.004-1.552.141t-1.904.851-2.556 1.953-1.487 1.477-.461.753q-.297.522-.924 2.215t-.674 1.919-.083.317q-.037.09-.026 2.094.012 2.003.269 3.022.258 1.02.442 1.446t.425.794q.24.368.682.863.443.494.932.95.488.457 1.074.869.585.413 1.094.671t.874.383 1.294.332q.928.208 1.39.276t1.173.109q.711.04 1.509.011.799-.029 2.337-.277 1.537-.247 1.77-.302t.757-.278q.525-.222.891-.456t.472-.305q.106-.072.591-.521.486-.449.741-.763.254-.314.492-.716.237-.402.57-1.328.333-.927.365-.994.033-.067.155-1.195t.093-1.964-.091-1.226q-.063-.391-.377-1.814m259.56 110.404q-.12.639-.104 3.116t.372 7.499.569 8.06.402 5.126.32 3.514q.131 1.427.249 3.297t.213 3.171.104 2.492q.008 1.19-.139 1.725m3.571 13.209q-.202-.333-.31-.464-.108-.132-.226-.29t-.392-.407-.949-.686q-.674-.437-1.335-.669t-1.136-.299-1.07-.03q-.595.036-1.252.299t-1.737 1.163-1.559 1.585q-.48.687-.59.959t-.158.337-.284 1.421-.072 2.489q.165 1.132.563 2.005.399.873.802 1.343.402.471.748.751.345.28 1.142.717.798.438 1.34.583t.948.142.502 0q.095.001.696-.19t1.365-.66 1.579-1.269q1.301-2.107 1.422-2.451t.224-.78q.102-.438.203-2.125"/>
        <path stroke="#999" d="m392.15 838.742.064.291q-.013.141.704 3.2.718 3.06 1.448 6.288l.134.714m2.45-8.374q-.947 1.876-1.109 2.278t-.244.638q-.081.237-.156.869-.074.633-.037.817.037.185 1.11.632t2.115.825q1.043.378 1.526.533t1.195.49"/>
        <circle cx="400.758" cy="839.073" r="1" fill="#999" stroke="#999" stroke-width=".1"/>
        <path stroke="#999" d="M401.893 842.829q.061.274.923 4.931l.106.732m2.5-7.764q.024.078.054.387t.435 1.733.803 2.1q.398.675.786-.243.389-.919.635-1.663.245-.744.5-1.208.254-.464.481-.644t.475-.185.407.103q.16.106.307.212t1.205 3.208l.143.634m6.686-4.301q-.072-.049-.656-.729t-1.001-.962-.589-.346q-.171-.064-.607-.07t-.947.437q-.51.442-.672.876-.162.433-.153.825t.293.746q.283.354.454.449.17.095.535.147t.631.007.469-.168q.202-.124 1.378-1.046"/>
        <path stroke="#999" d="M417.11 834.008q.057.796.453 3.709t1.046 5.347q.096.2.022-.116m7.652-2.984q-.105-.096-.338-.563t-.516-.878q-.282-.411-.371-.489-.088-.079-.147-.148t-.403-.274q-.345-.206-.802-.171t-.895.501-.606.912q-.167.445-.185.826-.019.381.023.682t.259.698q.218.397.432.611.215.214.54.362t.954-.19 1.066-.756q.437-.42.782-.826l.008.028q.057.083.2.335.143.253.245.529t.449.719l.362.644"/>
    </g>
</svg>
