<svg xmlns="http://www.w3.org/2000/svg" xml:space="preserve" viewBox="0 0 960 480">
    <g fill="none" stroke="#FFF" stroke-linecap="round" stroke-linejoin="round" stroke-width="2" transform="translate(957.96 -1958.98)scale(1.33333)">
        <path stroke-width="5" d="M-512.194 1772.529q.041-.412.011-2.122-.031-1.711-.242-4.71-.211-3-.472-6.353-.262-3.352-.496-7.273t-.543-11.334-.765-11.523-.978-9.371-.963-9.98-1.021-9.364-.982-10.358q-.402-5.711-.506-8.812t-.368-7.821q-.263-4.72-.405-11.803t-.261-10.87-.433-7.441-.495-5.639-.28-4.071-.182-6.166q-.085-4.079-.147-5.917-.063-1.839-.213-4.172-.151-2.332-.394-6.22t-.382-5.963-.212-2.808-.045-4.625.662-7.231 1.332-4.929q.698-1.589 1.296-2.483l.693-1.036q.095-.141.715-.802.62-.662 1.479-1.37t4.045-1.853 6.659-1.355q3.475-.21 8.099-.1 4.625.111 7.513.095 2.889-.017 4.486-.064 1.596-.046 3.14-.135 1.543-.088 2.037-.133.493-.045 4.027-.212 3.534-.168 9.576-.46t12.276-.367q6.235-.074 14.079-.047 7.845.028 11.243.103t7.812.298 6.905.233 7.172-.082q4.681-.09 11.727.018t15.237.189q8.19.081 12.64.061l6.305-.03q1.855-.01 3.711-.045 1.855-.037 5.197-.072t20.89-.032q17.548 0 19.593.032 2.046.029 5.591.031 3.546 0 6.244-.025 2.699-.028 8.31-.051t8.307-.031q2.696-.01 11.439.093 8.743.101 13.489.191t6.049.072q1.302-.019 5.141-.06 3.838-.042 5.892-.047 2.054 0 13.258.088 11.205.092 14.3.368t4.146.446 2.465.54q1.415.368 2.672.884 1.256.517 2.114 1.016.858.5 1.458.971.601.471 1.139 1.018.539.548.794.884.256.337.872 1.396t.654 1.106q.039.047.458 1.153t1.076 5.765q.656 4.658.688 10.785.033 6.128.003 8.57-.029 2.443.051 6.293.081 3.85.232 15.503.15 11.654.159 16.703.008 5.049 0 6.693-.008 1.645-.129 15.145-.122 13.499-.069 21.448t.114 11.696q.062 3.747.107 5.892t.089 4.893.101 5.296.161 4.94.272 8.295.274 8.837.157 5.587.134 5.46q.085 2.808.254 14.035-.063.462-.189 1.273"/>
        <path d="m-495.249 1688.048.016.622q-.028.528.4 7.579.427 7.051.502 12.601-.007 0-.153-.186m6.787-21.576-.092.485q-.072 1.112-.118 2.264-.047 1.151-.049 2.774-.002 1.624.627 18.216l.06.223"/>
        <path d="M-500.186 1695.627q.22.062 2.719.223 2.499.162 5.251.236t5.25.019 4.604-.034l.586.084m-17.08 6.687.205-.013.196.068q.228.077 3.399.038 3.172-.039 5.336-.079 2.165-.041 3.571-.01 1.407.032 2.834.14l.683-.081"/>
        <circle cx="-451.16" cy="1706.699" r="1" fill="#FFF" stroke-width=".1"/>
        <circle cx="-440.867" cy="1707.126" r="1" fill="#FFF" stroke-width=".1"/>
        <path d="M-429.407 1707.788q-.12.015-.295-.024.007.095-.005.221"/>
        <circle cx="-491.213" cy="1742.012" r="1" fill="#FFF" stroke-width=".1"/>
        <circle cx="-480.91" cy="1742.21" r="1" fill="#FFF" stroke-width=".1"/>
        <circle cx="-469.196" cy="1742.674" r="1" fill="#FFF" stroke-width=".1"/>
        <path d="M-465.103 1698.727q-.037-.18-.097-1.841-.059-1.661-.103-3.172t-.039-2.276.078-1.722.286-1.81.415-1.286.45-.782q.248-.351.407-.519t.438-.378.962-.462.942-.319q.258-.067.704-.141t1.476-.112 2.17-.035q1.139 0 2.614.01 1.475 0 2.484-.019 1.01-.021 2.052-.107t1.559-.116 1.394-.052q.875-.021 2.786-.061 1.911-.041 1.973-.041h4.749q4.688 0 7.856.112 3.167.115 4.492.227t2.138.217 1.462.23 1.332.312 1.061.304.52.158.728.308 1.043.597.633.487q.175.158.517.727.342.57.568 1.319l.25.831q.025.084.066.484.042.399.124 2.357.083 1.957.094 3.284.012 1.327.048 2.716t.046 1.916.039 1.172.068 2.109.055 2.348-.003 2.247q-.018 1.363-.107 2.222-.09.858-.327 1.824t-.282 1.096-.315.597-.445.68-.361.382-.229.236q-.041.067-1.138.585t-2.208.717-1.865.268q-.755.069-.805.083t-1.353 0q-1.302-.017-2.247-.051t-1.585-.026q-.639.01-1.172.036-.532.028-.927.04-.396.012-1.706.03-1.31.019-2.525.054t-3.103.082-4.358.151-2.501.11l-3.368.08q-3.335.075-4.992.075t-2.59-.014-3.771-.433-3.007-.481-.769-.409q-.6-.349-.96-.75t-1.16-5.151-.87-5.713-.098-1.297q-.028-.332-.085-1.264-.057-.933-.145-1.882m-32.602 41.526-.06-.584-.068-1.927q.018-.094.08-2.025t.285-2.847q.222-.917.386-1.248.163-.33.318-.513t.619-.46.529-.311q.065-.035.864-.187.8-.152 1.481-.138.681.015 1.029.059.348.043.676.079l.393.042q.065.01.827.011t2.293.012q1.53.01 2.196-.011t2.121-.043 2.948-.069 2.466-.063 2.142-.012h1.938q.769-.01 1.735-.049.967-.041 1.887-.065.919-.024 2.481-.001 1.563.023 3.531.266 1.968.242 2.068.266t2.109.862q.303.292.617.634t.677 1.346.46 1.968.118 2.077-.026 2.954-.141 3.018q-.092 1.177-.248 2.143t-.377 1.663-.375.988-.318.448-.657.466q-.493.311-1.343.611-.85.299-1.82.506-.97.206-1.172.242t-.451.054-1.269.126-1.721.199q-.7.091-1.327.19-.628.098-.917.148-.29.051-1.142.181-.851.129-2.135.254-1.284.124-1.58.144t-2.189.129q-1.892.109-2.642.126t-2.495.033-4.455-.053-4.942-.356-3.121-.64q-.89-.353-1.127-.518-.238-.165-.444-.464t-.337-.576q-.132-.277-.287-.833t-.212-1.015q-.056-.459-.1-1.069-.043-.61-.035-2.103.008-1.492.004-1.569-.003-.078.155-2.091m84.182-50.256.758.051q.265.065 3.95.261 3.685.198 5.693.255 2.009.057 4.002.246t5.282.325 8.231.063q4.943-.074 9.267-.02 4.325.053 6.016.143 1.691.091 2.543.133.852.041 1.3.061.447.019.674.022.227 0 .764.128l.984.152m9.702-8.405q.204.916.502 3.782.297 2.867.7 7.938.071.12.018.166m.164-3.379.625-.247q.606-.094 2.276-.297 1.67-.204 3.407-.588.085-.011.379.01"/>
        <path d="m-347.215 1684.253-.114.689q-.059.602-.07 1.409t.01 1.623.183 2.328.284 3.211.131 3.032l-.096.981m6.723-3.207q.122-.03.753-.245.632-.215 1.103-.494.47-.28.708-.558.238-.277.303-.433t.091-.339q.025-.185-.166-.379t-.367-.273q-.175-.079-.511-.095-.337-.016-.446.014-.11.03-.314.203t-.462.553q-.259.379-.47.907t-.256.989.086 1.018q.132.557.566 1.167.434.611.729.862t.8.431.97.189.725-.026.734-.104 1.318-.345m8.18-2.482q-.204-.492-.351-.805-.146-.313-.235-.466-.088-.153-.257-.379-.168-.225-.302-.345t-.356-.272q-.223-.154-.798-.334-.574-.181-1.315-.07t-1.466.824-.813 1.411q-.087.696.07 1.101.158.404.466.771.307.367.624.574.317.208.62.314.304.106.787.102.484 0 .974-.183.49-.181.616-.25.126-.07 1.399-.835m.993-4.435-.051.18q-.168 1.306-.261 3.51-.093 2.205-.152 2.998m9.902-4.601q-.977-.655-1.045-.657-.765-.263-1.689-.293t-1.329.058-.608.191-.659.465q-.456.36-.758.915-.303.554-.331 1.113-.028.56.156.969.184.41.373.618.188.208.347.322.159.113.763.279.603.167.968.176.366.01 2.882-.949"/>
        <path d="M-315.532 1683.661q-.043.152-.128.901t-.175 1.94q-.089 1.192-.164 2.394l-.163 2.556q-.087 1.355-.152 2.4-.066 1.046-.087 2.119t.053 1.339.124.846"/>
        <circle cx="-311.132" cy="1690.546" r="1" fill="#FFF" stroke-width=".1"/>
        <path d="M-311.032 1693.988q.092 1.317.201 2.726t.1 1.97m5.028-8.208q-.077.425 1.06 5.44.022-.046.423-.76.401-.713.929-1.396.527-.684.915-.997.388-.314.846-.425t.958-.01q.5.105.867.475.366.37.56.78.193.411.294.75t.304 2.958l-.096.727m9.893-1.879-.032-.325q-.076-.418-.474-1.25-.399-.831-.734-1.209t-.725-.652q-.39-.275-.821-.409t-1.069-.04-1.257.551q-.62.459-.935 1.048-.314.59-.381 1.277-.066.687.149 1.233.215.545.471.848t.869.575.92.286.665-.061.663-.194.891-.442.941-.514q0 .099.019.222.02.122.172 1.13.153 1.009.461 4.862.307 3.854.181 4.603-.125.749-.159.888-.033.14-.202.559-.168.42-.289.593-.12.172-.284.289-.165.116-.817.321t-1.092.177-.904-.23-.995-.776-.762-1.04-.368-1.081-.161-1.08.338-2.282m-163.763 33.247q1.518 0 3.142-.01 1.624-.013 2.65-.034t1.377-.024q.352 0 1.873-.066 1.521-.062 2.519-.116.998-.053 2.446-.107 1.448-.053 3.537-.159t3.289-.14 4.747-.034 5.478.01 3.475.01q1.546 0 5.235-.039 3.689-.04 5.455-.062t2.503-.033 2.109-.031q1.372-.018 2.305-.035t2.125-.05m28.248-4.215q-.132-.203-.175-.31-.044-.106-.256-.432-.213-.327-.357-.521-.145-.193-.255-.352t-.903-.989q-.792-.83-1.323-1.172t-1.347-.561-1.561-.133q-.745.087-1.053.21t-1.258.78-1.452 1.239-1.092 1.867-.72 3.42.439 3.994q.568 1.857 1.178 2.737t1.026 1.235 1.265.651q.849.295 2.572-.1 1.724-.396 2.999-1.255t2.596-2.433l.333-.659m12.289.235q-.049-.072-.636-.727-.587-.654-1.214-1.02-.628-.365-1.294-.438-.665-.073-1.397.297-.733.37-1.175.907-.441.538-.66 1.245-.218.708-.093 1.426t.534 1.18 1.021.716 1.179.252q.566 0 1.069-.197.503-.198.766-.423.264-.225.445-.432.181-.208.425-.551.245-.344 1.194-1.605m2.715-3.379.124.227.134.298.093.333q.147.636.445 1.997t.66 1.995q.252-.26.543-.785.292-.526.566-.916.275-.391.736-.708t1.002-.411.784-.038.497.23q.256.173.83 1.29t.891 2.586l.079.043q.056.024.158.248m6.923-13.038q-.02.126-.103.376-.082.249-.101 1.36-.018 1.11.315 3.872.334 2.763 1.87 8.219.667.203 1.609-.199.941-.401 1.816-1.33l.424-.647"/>
        <path d="m-348.939 1737.492.218-.062q2.931-.438 4.676-.566t3.648-.076l.367.011m7.051 4.632.33-.157.33-.091q.782-.282 1.318-.684.535-.403.684-.617.15-.215.202-.409t.043-.508-.279-.6q-.268-.287-.39-.342-.123-.055-.703-.059-.58 0-1.294.689-.715.692-.918 1.209t-.242.989.032.843q.071.37.237.699t.512.744.755.676.739.388 1.051.258 1.797-.01q1.076-.139 3.147-1.232m3.043-7.017-.203.47q-.079.268.041 2.282t.535 3.588q.068.051.452-.463t.865-1.336q.482-.823.629-1.044t.645-.749.971-.654.994.032q.521.159 1.221 1.639.699 1.481.888 2.456.188.975.106 1.119-.082.143-.193.474m6.03-12.115q.212.222.388.439.051.058.493 2.225.442 2.166.707 3.687t.52 2.182.654 1.131.684.634.461.224.581.103q.407.044 2.961-.906l.822-.416"/>
        <path d="m-310.369 1736.468.236.022.261.014.473-.015q.805-.058 7.474-.518"/>
        <path stroke-width="5" d="M-500.159 1526.665q-.274 1.074.039 7.21.313 6.135.797 14.121.483 7.987 1.033 13.802.077.147.444 1.149"/>
        <path stroke-width="5" d="m-500.287 1526.729.299 1.101q.168.474 1.308 3.915t2.835 7.789 3.335 7.66 3.127 5.855 2.834 4.605 2.406 3.321q.214-.153.315-.304.101-.15.34-3.503.239-3.352-.411-13.267t-.965-16.733q.031-.126-.265-1.228m27.347 22.843-.494-.773-.49-.64q-.119-.171-1.327-1.158-1.209-.988-2.086-1.327-.876-.34-1.972-.42t-2.52.726-2.236 1.694q-.811.887-1.53 2.172-.72 1.285-.922 1.921t-.363 1.765q-.16 1.128-.048 2.163.111 1.035 1.266 2.742 1.154 1.708 2.071 2.411t1.802.961q.885.256 1.796.182t2.144-.601 2.796-1.811 2.721-2.218l.538.615q.079.25 2.527 5.851l.171.303m8.399-21.316-.073.613q.016 1.185-.01 1.452t.273 5.396q.299 5.13 1.201 8.284l.172-.361q.126-.658 1.054-3.374.929-2.716 2.438-5.107 1.508-2.39 2.236-3.008.727-.617 1.443-.832.715-.215 1.136-.083t.689.328q.269.196 1.489 2.073 1.219 1.876 1.945 4.514.727 2.637.873 3.786t.209.765q.064-.384.438-2.249.375-1.865 1.25-3.975.874-2.109 1.906-3.506t1.666-1.807 1.169-.546.888-.14q.354-.01.906.244.552.248 1.427 1.168t1.419 1.849q.545.928 1.341 3.793.797 2.865.958 4.105t.507 2.768m15.486-2.711q.126-.179.496-.372.454-.197 2.263-1.779t2.96-3.087 1.523-2.319q.371-.814.437-1.718.065-.903-.004-1.245-.07-.341-.571-.909-.501-.567-.742-.695t-1.1-.274q-.86-.145-1.879.066-1.019.212-2.061.948t-1.478 1.221q-.435.485-.944 1.173t-1.233 2.42-.918 2.971q-.193 1.241-.028 2.51.166 1.269.441 1.925.274.657.635 1.217.361.561 1.026 1.211t1.107.923q.441.274 1.272.551.831.278 1.695.361t1.457.035 2.032-.527 3.207-1.446q1.767-.967 4.782-3.428"/>
        <path d="M-504.337 1603.678q.225-.079 3.09-.372 2.865-.294 6.283-.593.374.09.793.036m11.514-9.035q-.023.156.114 2.592.136 2.436 1.82 11.562.052.05.074-.516t.206-1.445.425-1.501.905-1.413 1.166-1.033.838-.266q.335-.023.55.073.215.097.704.583.49.487 1.294 1.99.805 1.504 1.16 2.861t.519 1.873m6.121-14.666q-.007.177.159 3.52.167 3.344.571 5.5t.815 2.983.635 1.056.48.37q.257.142.499.185.242.042.811-.037.568-.079 2.689-.966"/>
        <path d="M-469.339 1602.387q.625-.036 5.457-1.095m7.816-7.444q-.075.548-.035 1.503t.23 2.931q.189 1.977.53 3.74.342 1.763.645 2.517.304.753.733 1.257t.635.565.495.122q.289.06 1.089-.158t2.237-.96"/>
        <path d="M-458.453 1600.529q.386-.109.729-.191.342-.083.617-.127.274-.045.904-.12.631-.075 4.309-.453m7.452.725q-.093 1.079 2.013 15.825"/>
        <path d="M-444.706 1600.993q.504-.302.69-.397t.255-.125.585-.158 1.301-.147q.787-.02 1.385.105.599.124 1.066.378.467.253.88.685t.643 1.31.174 1.308-.216.869q-.159.44-1.143.98t-4.6 1.186m15.695-6.885-.234-.051q-.631-.069-1.145-.071-.514 0-1.378.182-.864.186-1.435.592t-.791.745-.278.673-.002.6.189.445.326.334q.195.154.36.249.165.094.664.279t1.269.31 1.363.213.904.19.444.164q.132.063.45.286.319.223.628.516t.444.658.119.645q-.015.28-.158.446-.142.166-.328.252t-1.095.263-4.268-.394q-.123-.065-.548-.278"/>
        <circle cx="-421.404" cy="1599.74" r="1" fill="#FFF" stroke-width=".1"/>
        <circle cx="-420.84" cy="1606.79" r="1" fill="#FFF" stroke-width=".1"/>
        <path d="M-409.68 1593.052q-.223.456-.942 2.525-.72 2.069-1.338 3.951-.617 1.882-.996 3.028-.378 1.147-2.736 8.552l-.083.18m12.025-17.211-.137.227q-.45.985-1.04 2.371t-1.917 4.492-2.013 4.875q-.687 1.771-1.43 4.194-.022.034-.159.493"/>
        <circle cx="-399.286" cy="1606.822" r="1" fill="#FFF" stroke-width=".1"/>
        <circle cx="-392.035" cy="1607.248" r="1" fill="#FFF" stroke-width=".1"/>
        <circle cx="-384.256" cy="1607.413" r="1" fill="#FFF" stroke-width=".1"/>
        <path d="M-505.203 1634.526q.43-.033 2.343-.27 1.912-.236 3.228-.334t1.967-.119q.652-.022 1.181-.022t.635-.017 1.099.057q.994.072 1.399.043"/>
        <circle cx="-480.206" cy="1638.102" r="1" fill="#FFF" stroke-width=".1"/>
        <circle cx="-470.769" cy="1639.024" r="1" fill="#FFF" stroke-width=".1"/>
        <circle cx="-461.459" cy="1638.528" r="1" fill="#FFF" stroke-width=".1"/>
        <path d="M-504.739 1671.244q1.5-.148 5.507-.279t6.275-.164q2.269-.033 9.038-.649 6.77-.617 12.366-1.138 5.596-.522 9.99-.69t8.064-.378 7.6-.538 8.752-.462 7.991-.118 7.472.071 8.795-.065q4.49-.121 6.861-.242t4.044-.174 3.75-.095 4.997-.046q2.919 0 9.621-.176 6.702-.173 10.172-.309 3.47-.137 11.839-.183t10.945-.044 11.774-.321 13.813-.492q4.614-.169 8.266-.196 3.652-.028 6.025 0 2.373.031 8.697.139 6.323.107 10.047.025 3.724-.083 9.394-.285 5.671-.202 8.514-.22 2.844-.018 8.039-.221 5.194-.203 8.716-.343 3.522-.139 8.718-.135 5.196 0 7.918.048 2.721.045 5.968.095t4.88.141q1.635.092 2.552.183.917.09 2.215.259 1.298.168 4.262.329t4.546.217q1.581.055 2.598.143l2.12.185q1.102.096 3.933.241l.834.094m-304.859-49.71v-.67q.019-.19-.128-3.331-.148-3.142-.326-5.224t-.231-3.044-.057-.984.025-2.037.249-3.277.373-1.689.642-1.334.783-1.293.668-.735 1.147-.844 1.836-.925q1.065-.43 1.729-.588.663-.157.995-.211.332-.055 1.239-.164.906-.11 1.708-.122.802-.013 1.713.014.91.027 1.527.041.617.013 1.214.023t1.141.029 2.314.04q1.771.021 3.884-.01 2.113-.027 2.208-.022.095.01 1.933-.125 1.838-.13 4.354-.294 2.515-.165 3.71-.246t3.136-.152 2.493-.104 1.346-.054 3.217-.101 3.644-.14 3.641-.119 4.275-.096 2.881-.049l2.225-.023q1.2-.013 2.241-.036 1.041-.024 4.069-.03 3.027-.01 3.701 0 .674 0 1.672.018.999.014 2.298.047 1.3.034 3.6.08t4.577.073l3.4.041q1.123.013 1.845.017.721 0 4.598.028l7.053.045q3.175.022 5.702.019 2.527 0 3.478-.012.951-.01 6-.023 5.05-.014 7.871-.01 2.822.01 4.096.01h3.018q1.745 0 3.129.029 1.385.026 2.61.09 1.226.065 1.616.101t.9.126.73.135.833.235q.613.188 1.043.392t.65.348.422.31.444.436q.243.271.496.683.254.411.516 1.179.263.768.375 1.686.111.919.088 2.469-.024 1.551-.053 2.263l-.103 2.569q-.075 1.857-.122 2.929-.046 1.073-.064 1.716t-.025 1.296-.048 2.547.022 4.815.143 4.317.296 3.758.33 3.782.184 2.368.135 1.741.342 3.934q.277 3.143.332 4.324.056 1.18-.016 2.704-.071 1.523-.243 2.295-.172.773-.319 1.127-.146.354-.235.484-.088.13-.286.333-.199.203-.217.238t-.435.346-.849.509-1.379.497-1.519.401-.897.127-.925.03q-.599 0-1.804.027-1.204.022-2.979.1-1.774.078-2.755.115-.982.038-1.605.053t-2.658.027-5.874.385-5.991.615q-2.153.242-3.296.322t-4.015.171-6.313.182q-3.439.09-5.927.098-2.488.01-3.855.029-1.367.021-2.915.167t-6.172.318-8.123.128q-3.5-.044-5.073-.113t-2.344-.088q-.769-.02-1.969-.03-1.2-.011-3.923 0-2.724.01-4.351.012-1.628 0-3.87.023-2.242.02-3.768-.013t-3.297-.048-4.645-.01q-2.873.01-4.651.022-1.778.013-3.149.034t-6.049.036-7.02.054q-2.344.039-4.737.128t-4.08.117-2.844.01q-1.156-.02-2.12-.085-.963-.064-1.601-.131-.639-.066-1.526-.343-.887-.276-1.075-.347t-.584-.42-.721-.832-.451-.759q-.125-.276-.358-1.066-.233-.791-.546-5.541t-.337-5.154-.062-1.649-.067-2.342-.074-2.169-.071-1.979-.089-2.918l-.093-2.99q-.03-.978-.029-1.152t-.166-3.229m146.344-16.839q.205.023 2.347-.127 2.142-.149 3.676-.209t2.267-.036 1.972.022q1.239 0 1.959-.01t1.236 0q.516 0 1.255.013.739.011 1.388.01.65 0 1.901-.015 1.251-.012 1.409-.012t.839-.025 4.484-.4m9.164-8.876q.007.528.223 5.385t.616 7.337 1.114 3.7q.236.132.658.222.108.08 1.746.26 1.637.179 2.426.232.79.052 1.955.225l2.021.301.4.25m3.872-13.242q-.083-.04-.108.111.03-.055.007-.084-.024-.029-.191.272m.793 5.593q.007.209.602 5.136l.063.756m11.286-9.9q-.535-.231-.683-.28-.147-.049-.343-.078-.195-.029-.813-.035-.618-.01-1.36.336-.741.342-.966.569t-.386.543-.159.651.024.441.13.302.286.391q.176.196.358.377.181.181.732.52t1.798.927q1.249.587 1.595.777t.491.301.332.395.363.792.174.827q-.001.321-.035.519-.035.198-.151.389t-.241.332-.196.186q-.069.044-.12.101t-1.626.172q-1.577.115-3.689-.154-.176-.061-.616-.196m12.753-14.832q-.038 1.145.342 4.859.381 3.714.865 5.315.484 1.6.898 2.317t.759 1.017.864.477q.519.176.956.187.437.01.775-.074.337-.084.591-.191t.417-.199 1.24-.664"/>
        <path d="M-299.867 1600.317q.262-.05.903-.165.64-.114 1.713-.253t1.87-.23 2.738-.383m24.332-.229q-.099-.168-.345-.53-.246-.361-.542-.655t-.453-.41-.766-.444q-.609-.329-1.085-.446-.477-.118-1.037-.122-.56 0-1.199.194-.64.198-1.245.707t-1.012 1.374-.47 1.713.136 1.589q.201.74.529 1.273.327.533.838 1t1.302.711 1.555.07q.762-.173 1.396-.573t.964-.712q.331-.312.728-.82t.635-1.056.499-2.303m9.902-5.027q.016-.465-.051-1.15-.068-.686-.398-1.427-.331-.741-.671-1.13t-.665-.576-.582-.236-.651-.016q-.393.033-1.026.443t-.959.823q-.325.411-.538 1.095-.212.683-.121 2.518.092 1.834.608 4.477t.854 4.012.619 2.074q.282.707.465 1.24"/>
        <path d="M-265.169 1599.75q.365-.072 2.068-.324t4.555-.802m-75.418 23.537q.002.055.117.666t.194.96q.079.348.222 1.021.143.674 1.837 6.603l-.049-.083q-.044-.04-.095-1.016-.05-.975.073-1.995.123-1.019.591-1.925t1.645-2.055 1.486-1.303.713-.166.981.062q.579.075 1.935.057.256-.057.38-.063m2.614 6.02q1.03-.123 2.138-.479 1.109-.356 2.226-1.164 1.118-.807 1.501-1.341t.465-.787q.082-.255.079-.539t-.133-.522-.61-.445-.883-.189q-.404.016-.918.212-.513.195-.993.53-.479.334-1.216 1.24-.738.906-.962 1.785t-.189 1.382.517 1.289.996 1.141.799.461.926.198q.64.091 1.129.059.489-.031 1.346-.26t3.056-1.413m9.929-9.895q-.767-.551-.913-.672t-.78-.692-1.168-.896q-.533-.326-1.124-.451-.59-.126-1.027.034t-.849.864-.538 1.627.419 3.408 2.23 7.812q.049.093.207.617"/>
        <path d="M-309.996 1625.667q.912-.143 1.008-.169t4.986-.06m6.486 2.876q.189-.112.433-.194.243-.082 1.093-.585.85-.504 1.332-.995t.692-.913.176-.983-.72-.929-1.214-.351-.932.139-.985.587q-.581.464-.88 1.096-.3.631-.371 1.244t.485 1.756q.556 1.142 1.192 1.788.637.646 1.368.994t1.667.496 2.076-.035 1.794-.403q.653-.221 2.067-.956m1.886-8.106.031.25q-.021.249.534 2.341.554 2.093.881 3.102.327 1.01.414 1.291t.217.612q.01-.083-.11-.713-.119-.629-.12-1.169 0-.54.143-1.452t.893-1.967 3.087-2.521l.625-.271m4.199 5.892q.621-.173 1.947-1.21t1.866-1.732q.541-.696.698-1.078t.182-.591q.024-.209.007-.378t-.056-.286-.471-.399-1.088-.302-1.13.117q-.473.139-1.107.671-.633.532-1.052 1.27t-.521 1.655q-.103.917.245 1.826t.948 1.479 1.472.856q.871.287 1.755.246t1.737-.293 1.596-.582 1.617-.842m4.3-6.319q-.177.861.207 2.88t.819 3.435.548 1.708.121.233-.004-.077.011-1.485.22-2.703.519-1.986.699-1.128q.378-.379 1.285-.64.907-.26 1.335-.222t1.218.406 1.483 1.592 1.423 4.698l.246.403m10.767-4.734-.111-.257q-.617-1.67-.939-2.083-.323-.413-.627-.602-.303-.19-.786-.31t-1.029-.01q-.545.112-1.167.596-.622.483-1.184 1.453-.563.97-.662 1.963-.098.993.089 1.694t.639 1.446q.453.744 1.275 1.319.822.576 2.083.567t4.605-1.769m4.337.167q.171-.177.503-.488t.646-.582.429-.394q.114-.124.686-.877t.808-1.614.187-1.294q-.05-.432-.233-.795t-.601-.619q-.419-.255-.77-.3-.35-.046-.775.015-.424.061-1.345.611-.921.549-1.622 1.512-.7.962-.902 1.922-.202.959.069 1.746t1.192 1.689 2.244 1.343 2.802.411q1.478-.031 4.989-1.529m9.802-8.902q-.11.018-.633.024-.327-.091-.919-.203-.591-.112-1.536-.085-.944.028-1.542.205-.597.177-1.023.464t-.704.724-.327.832.105.759q.155.363.289.492.135.13.287.29.152.161.697.501.546.34 2.211.914t2.452.886q.787.313 1.209.599t.642.725.262.897q.041.459.004.674t-.168.529q-.13.312-.352.596-.221.285-.656.452t-.858.255q-.422.088-2.187-.133-1.764-.22-2.676-.596-.912-.375-1.503-.848-.138-.072-.298-1.043"/>
    </g>
</svg>
