<svg xmlns="http://www.w3.org/2000/svg" xml:space="preserve" viewBox="0 0 960 480">
    <g fill="none" stroke-linecap="round" stroke-linejoin="round">
        <path stroke="#f6f7ef" stroke-width="1.458" d="m51.359 263.642 160.534-98.431m10.18 3.129 63.41 160.71m79.09-67.176 160.534-98.43m10.181 3.128 63.409 160.711m59.755-76.473 160.534-98.43m10.18 3.128 63.41 160.712" opacity=".5"/>
        <path stroke="#e66465" stroke-width="2.915" d="m223.008 163.077-.137-.397q-.027-.105-.196-1.269-.17-1.163-.424-1.752-.256-.588-.74-1.117-.483-.529-1.087-.72-.605-.19-1.285-.028-.68.163-1.357.709t-.945.91-.49.818q-.22.455-.356 1.164-.138.708-.101 1.4.036.69.114.958.078.27.202.492.123.224.526.65.403.425.753.601.349.176.553.223.203.047.532.066.329.017 1.108-.24.778-.26 2.799-1.426m71.235 174.229-.275-.26q-.177-.18-.537-1.063-.36-.885-.66-1.434t-.818-1.05q-.517-.502-1.403-.83-.887-.328-1.648-.294t-1.416.431-.874.67-.408.822q-.189.55-.222 1.007-.034.456.23 1.32.263.865.674 1.349t.798.73.932.388 1.208.147q.663.007.89-.05.228-.058.42-.098.193-.038 1.198-.64 1.005-.6 2.186-2.123l.716-1.218M48.125 269.528q-.052-.081-.292-1.249-.24-1.167-.606-2.055-.366-.89-.63-1.28-.265-.392-.487-.64-.222-.25-.385-.364-.162-.115-.197-.164-.034-.05-2.113-.108t-2.409.197-.64.732-.567 1.488-.164 1.662.264 1.06q.17.407 1.201.984t1.812.694 1.183.128 1.173-.07 1.287-.236q.516-.154 2.202-.94M12.07 232.596l-.306.847-.066.527q-.153.447 1.226 18.723l.294-.272"/>
        <path stroke="#e66465" stroke-width="2.915" d="M11.697 232.857q.026-.048.236-.583.742-1.039 1.046-1.242.303-.203.755-.345t1.093-.02q.641.12 1.088.39.446.27.955.686.509.415 1.12 1.183.61.769 1.062 1.874.454 1.106.503 2.025.05.92-.216 1.942-.266 1.023-1.115 2.21-.85 1.188-1.64 1.795t-1.415.88-1.003.361-.773.06l-.153.092-.237.164m17.231 9.446q-.07-.236-.219-.615-.15-.378-.462-1.016-.313-.639-.699-1.172-.386-.534-.557-.723-.17-.19-.626-.568t-1.258-.606-1.421-.141q-.619.085-1.113.51-.495.424-.78 1.206-.285.783-.18 1.438.105.656.584 1.174.478.52 1.015.754.537.236.891.282.355.047.818.002.462-.046.71-.141t3.34-2.159m196.389-126.127.122.56q-.021.094.46 5.532.48 5.436 1.566 11.965.116.23.307.976m-2.255-19.604q.226-.285.607-.687t1.137-.73q.757-.328 1.416-.402.66-.075 1.359.014.698.088 1.81 1.005 1.111.917 1.617 1.798.506.882.788 2.417t-.01 2.985-1.003 2.526q-.712 1.075-1.655 1.874-.943.798-3.268 1.492-.143-.015-.917.122m11.962 7.4q.586-.502.598-.533t.926-1.207q.914-1.175 1.68-2.204 0 .03.242 1.23.24 1.2 1.385 5.324l.539 1.462m59.231 196.81v.411q-.167 1.218.343 5.933.51 4.717 1.285 9.345t1.442 8.71q.062.125.215.9m-2.611-20.767.248-.475q.385-.808.784-1.449.4-.64.737-.988t1.024-.797 2.024-.726 2.073-.19q.738.09 1.339.363.6.273 1.435 1.037.835.766 1.404 2.123.57 1.358.664 2.14.093.782.027 1.822-.068 1.04-.664 2.488-.595 1.448-1.488 2.468-.892 1.021-1.93 1.502-1.036.482-1.592.56-.556.076-.93.043-.372-.033-.696-.205t-1.328-1.002m13.052 8.664q0-.446-.007-.546l.255-.588q.18-.286 1.145-.993.967-.707 1.815-.858.85-.149 1.31-.042t.642.222.291.284.322.904-.185 2.425-.927 2.889q-.529 1.2-.82 1.865-.29.666-.383.935-.095.27-.166.434.117.021.327.054t.234.03 1.91-.018 5.732-.48l1.5.05m201.06-213.166-.136-.398q-.028-.103-.196-1.267-.17-1.164-.425-1.752-.255-.59-.74-1.118-.482-.529-1.087-.719t-1.285-.028-1.357.708-.944.91q-.269.364-.49.819t-.357 1.163-.101 1.399q.037.692.114.96.078.269.202.492t.527.648.752.603q.35.175.553.223.204.047.533.064.329.019 1.108-.24.778-.258 2.799-1.424m71.235 174.228-.275-.26q-.178-.179-.537-1.064-.36-.884-.66-1.433-.3-.548-.818-1.05-.517-.501-1.404-.83-.887-.327-1.648-.293t-1.415.43q-.655.397-.874.67-.22.274-.408.823-.189.55-.223 1.006-.034.457.23 1.32.263.865.675 1.35.411.483.797.73t.933.387q.546.141 1.208.148.662.006.89-.051.228-.059.42-.097.192-.04 1.198-.64 1.004-.6 2.185-2.124l.716-1.218M361.34 267.76q-.052-.08-.292-1.248t-.606-2.056q-.367-.889-.631-1.28-.265-.392-.486-.64-.223-.249-.385-.364t-.197-.164-2.114-.108q-2.08-.057-2.408.197t-.64.732-.568 1.488-.164 1.662.264 1.06q.17.407 1.202.985 1.032.577 1.812.693.78.117 1.183.129.403.01 1.173-.07.77-.081 1.286-.236.517-.155 2.203-.94m-36.688-36.771-.305.847-.066.527q-.153.446 1.226 18.723l.294-.273"/>
        <path stroke="#e66465" stroke-width="2.915" d="M324.91 231.09q.028-.048.237-.583.742-1.04 1.046-1.243t.755-.344 1.094-.021 1.088.39.955.685q.509.417 1.119 1.185t1.063 1.874q.453 1.105.503 2.025.05.918-.216 1.941t-1.115 2.21q-.85 1.188-1.64 1.795-.79.608-1.416.88-.625.273-1.002.362-.377.087-.774.06l-.153.09-.237.165m17.232 9.446q-.07-.236-.22-.614-.149-.378-.461-1.018-.313-.638-.7-1.172-.385-.533-.556-.723-.17-.19-.627-.567-.455-.379-1.258-.605-.802-.228-1.42-.142-.62.086-1.113.51-.495.425-.78 1.207t-.18 1.437.583 1.174q.479.52 1.016.755t.891.282q.355.046.817.001.463-.045.71-.14.248-.096 3.34-2.16M539.88 124.106l.123.56q-.021.093.459 5.53t1.566 11.966q.117.23.307.976m-2.255-19.604q.227-.285.608-.688t1.137-.73 1.416-.402q.66-.074 1.359.015.698.088 1.81 1.005 1.11.917 1.616 1.799.507.881.788 2.416t-.01 2.986-1.002 2.525-1.656 1.874-3.267 1.492q-.144-.015-.917.122m11.961 7.401q.587-.503.599-.534.011-.03.926-1.206.914-1.177 1.68-2.204.001.029.24 1.229.241 1.2 1.386 5.324l.54 1.461m59.23 196.811v.411q-.167 1.218.344 5.934.51 4.716 1.285 9.345.774 4.628 1.441 8.709.063.125.216.9m-2.61-20.766.247-.475q.384-.809.784-1.45.399-.64.736-.988t1.025-.796q.687-.45 2.024-.727 1.336-.278 2.073-.189.738.09 1.338.362.6.273 1.436 1.038.835.764 1.404 2.122.57 1.357.663 2.14.094.782.027 1.822t-.663 2.488-1.488 2.469-1.93 1.502-1.592.558-.93.044-.696-.205-1.328-1.001m13.052 8.663q0-.445-.008-.546l.255-.587q.18-.287 1.145-.994t1.815-.857 1.31-.043.642.222.291.284.322.904-.185 2.425-.927 2.89-.82 1.865-.384.935-.166.433q.118.022.328.054.21.033.234.03l1.91-.018q1.885-.015 5.732-.48l1.5.051m181.725-222.463-.136-.397q-.028-.104-.197-1.267-.168-1.164-.424-1.753t-.74-1.117-1.087-.72-1.285-.028q-.68.162-1.357.709t-.945.91-.489.819q-.22.454-.357 1.162-.138.709-.101 1.4.036.69.114.96.078.268.202.491.123.223.526.65.403.425.753.601.349.176.553.223.203.048.532.065.33.018 1.108-.24.78-.259 2.8-1.425m71.234 174.229-.275-.26q-.177-.18-.537-1.064t-.66-1.433-.817-1.05-1.404-.83-1.648-.293q-.761.034-1.416.43t-.874.67-.408.822-.222 1.006q-.034.457.23 1.322.263.863.674 1.348.412.484.798.73.385.247.932.388.547.14 1.208.147.663.008.89-.05.229-.06.421-.098t1.197-.64q1.005-.6 2.186-2.124l.716-1.217m-246.578-66.624q-.052-.08-.292-1.249-.24-1.166-.606-2.056-.366-.888-.63-1.28-.265-.391-.487-.64t-.384-.363-.197-.164-2.114-.108-2.408.197q-.329.254-.64.731-.313.479-.568 1.489t-.164 1.662q.092.651.264 1.059.17.407 1.202.985 1.032.577 1.811.694.78.117 1.183.128t1.173-.07 1.287-.236q.516-.154 2.202-.94m-36.687-36.771-.306.847-.066.527q-.153.447 1.226 18.723l.294-.272"/>
        <path stroke="#e66465" stroke-width="2.915" d="M618.79 220.026q.027-.048.236-.583.742-1.04 1.046-1.243t.755-.344 1.093-.02 1.088.39.955.685 1.12 1.184 1.062 1.874q.454 1.106.503 2.025.05.919-.216 1.942t-1.115 2.21-1.64 1.794q-.79.608-1.415.88-.625.274-1.003.362t-.773.06l-.153.091-.237.165m17.231 9.445q-.07-.235-.219-.613-.149-.379-.462-1.018-.313-.638-.699-1.172t-.557-.723-.626-.568-1.258-.605-1.421-.142-1.113.51-.78 1.207-.18 1.438.584 1.174 1.015.754.892.282q.354.047.817 0 .462-.045.71-.14t3.34-2.16m196.389-126.125.122.56q-.02.094.46 5.53.48 5.438 1.566 11.966.116.23.307.977m-2.254-19.604q.225-.286.606-.688t1.138-.73 1.416-.402 1.358.014 1.81 1.006 1.617 1.798q.506.882.788 2.417t-.01 2.985-1.003 2.526-1.655 1.874-3.268 1.49q-.143-.013-.916.124m11.961 7.4q.586-.502.598-.533.012-.03.926-1.207.914-1.176 1.68-2.204 0 .029.242 1.23.24 1.2 1.385 5.324l.539 1.461m59.231 196.811.007.41q-.167 1.219.342 5.935.51 4.715 1.285 9.344.776 4.629 1.443 8.71.063.125.215.9m-2.617-20.767.247-.475q.385-.808.785-1.449.398-.641.736-.989.337-.347 1.025-.796.686-.449 2.023-.726 1.336-.278 2.073-.19.738.09 1.339.362.6.274 1.435 1.038.835.765 1.404 2.123.57 1.357.664 2.139.094.783.027 1.823t-.664 2.488q-.595 1.447-1.488 2.468-.892 1.02-1.929 1.502t-1.593.559-.93.043-.696-.204-1.328-1.002m13.052 8.664q0-.446-.007-.546l.255-.588q.18-.286 1.146-.993t1.815-.857q.848-.15 1.309-.043.46.106.642.222t.291.283.323.905q.213.736-.185 2.425-.4 1.689-.928 2.888-.528 1.2-.819 1.866t-.384.935-.166.434q.117.021.327.054t.234.03l1.91-.018q1.886-.016 5.732-.48l1.5.051"/>
    </g>
</svg>
