<svg xmlns="http://www.w3.org/2000/svg" xml:space="preserve" viewBox="0 0 960 480">
    <g fill="none" stroke-linecap="round" stroke-linejoin="round" transform="translate(-4084.343 -1165.36)scale(.72188)">
        <path stroke="#f6f7ef" stroke-width="2" d="m5801.246 2148.13-.506-386.67m385.793-1.453 3.122 388.31m287.432-6.667 1.36-388.199m1.173-3.781 384.62 388.98m-1.946-1.732 1.174-386.578m-1062.222 397.79-.506-386.67m385.793-1.453 3.122 388.31m287.432-6.667 1.36-388.199m1.173-3.781 384.62 388.98m-1.946-1.732 1.174-386.578m-1014.126 9.645-47.769 338.987m97.097-338.558-98.242 291.063m145.812-289.14-144.783 238.749m193.447-238.923-193.447 190.94m240.136-193.836-240.8 147.072m2.108-49.731 286.377-95.06m-288.551 50.277 338.726-49.79m-.927-4.485 49.825 342.544m-99.501-340.98 98.888 291.19m-146.773-292.024 147.204 244.472m-196.964-244.599 197.146 196.977m-242.857-196.792 242.493 147.13m-293.994-147.072 295.321 98.732m-343.621-98.315 343.074 52.802m339.668-14.073-51.703 296.332m100.085-246.015-101.033 194.93m148.419-146.487-147.421 99.439m198.437-49.305-199.023-.183m247.517 47.477-246.321-96.678m292.708 145.401-293.432-194.845m1.136-47.729 337.51 289.03m-1015.268-327.657 385.363-.857m678.669 37.079-47.185 291.469m48.925-239.926-96.571 193.841m96.669-146.473-143.292 98.135m141.7-49.21-190.127.74m189.425 48.586-240.61-98.986m239.417 148.512-285.462-196.684m285.036 242.264-335.18-291.996" opacity=".5"/>
        <path stroke="#e66465" stroke-width="4" d="m5804.887 1759.349-.168-.073q-1.368-.832-1.76-.964-.393-.133-1.01-.352t-1.69-.37q-1.074-.15-2.213.146-1.138.295-1.567.566-.428.27-.819.76-.392.49-.57.763-.18.273-.33 1.154-.148.88-.022 1.504t.55 1.313.926 1.185 1.206.88q.704.387 1.567.58.864.196 1.88.26t1.937-.096q.922-.16 1.424-.392.502-.233 1.22-.773t1.09-1.091q.37-.552.456-.761.085-.21.303-.355.22-.145.815-4.403m-1.77 389.179q-.683-1.004-1.655-1.946t-2.406-1.941q-1.435-.998-1.557-1.116t-1.936-.52q-1.812-.401-3.068-.21-1.256.19-1.498.299t-.825.76-.834 1.308-.269 1.25q-.017.594-.015.827 0 .234.404 1.206.404.973 1.2 1.84.797.867 1.673 1.353.876.485 1.767.704t1.742.35 2.888-.212q2.036-.344 3.136-.845 1.1-.502 1.908-1.238t3.6-5.098m380.449-382.64q-.3-.41-.948-1.885t-1.105-2.295-.682-1.097-1.188-1.262q-.963-.987-1.582-1.24-.618-.251-1.07-.285t-.864.035q-.41.069-1.314 1.086-.902 1.016-1.185 1.768-.282.75-.329 1.259t.125 1.649.347 1.499q.176.357.536.794.36.436 1.556 1.339 1.197.902 2.828 1.372 1.631.469 2.023.532t1.048.069q.655 0 3.345-.23m1.256 383.678-.9-.881-.173-.636q-.085-.233-1.02-1.92-.937-1.687-1.95-2.702-1.014-1.014-1.423-1.265-.408-.252-.717-.364-.31-.112-1.649-.221-1.339-.108-2.19.3-.853.407-.899.484l-1.213 1.633q-.095.076-.487 2.414t0 3.65q.395 1.314.734 1.795.34.482.884.978.545.497 1.514 1.026.97.53 2.421.658t2.282-.01q.832-.137 2.031-.916 1.2-.778 4.294-4.122m286.86-397.477-.168-.072q-1.368-.833-1.761-.965-.392-.133-1.01-.352-.616-.218-1.69-.369-1.073-.15-2.212.145-1.138.295-1.567.566-.428.271-.82.76-.391.49-.57.763-.18.272-.33 1.154-.147.881-.021 1.504.126.624.55 1.313.424.69.926 1.185t1.206.881 1.567.58q.864.195 1.88.26 1.016.063 1.937-.097.922-.16 1.424-.392.502-.233 1.22-.773.718-.539 1.09-1.09.37-.553.456-.762.085-.21.303-.354.219-.145.815-4.403m-1.77 389.178q-.683-1.004-1.655-1.946-.972-.941-2.406-1.94-1.435-.998-1.557-1.116t-1.936-.52q-1.812-.401-3.068-.21-1.256.19-1.498.299t-.825.76-.834 1.308-.27 1.25q-.016.594-.014.827 0 .234.404 1.206.404.973 1.2 1.84.797.867 1.673 1.352t1.767.705q.89.218 1.742.35.85.13 2.888-.212 2.036-.344 3.136-.845 1.1-.502 1.908-1.238t3.599-5.098m380.449-382.64q-.3-.41-.947-1.886t-1.105-2.295-.682-1.097-1.188-1.262q-.963-.987-1.582-1.239-.618-.252-1.07-.286t-.864.035q-.411.07-1.314 1.086-.902 1.016-1.185 1.768-.282.752-.33 1.26-.047.507.126 1.648.172 1.141.347 1.5.176.356.536.793t1.556 1.34q1.197.901 2.828 1.371t2.023.533 1.048.068q.655.01 3.345-.229m1.256 383.678-.901-.882-.172-.635q-.085-.234-1.021-1.92-.936-1.689-1.95-2.703t-1.422-1.266q-.408-.25-.717-.363-.31-.113-1.65-.22-1.338-.109-2.19.3-.852.406-.898.483l-1.213 1.633q-.095.076-.487 2.414-.392 2.34 0 3.652.395 1.312.734 1.793.339.482.884.978.545.497 1.514 1.026.97.53 2.42.658t2.283-.01q.832-.138 2.03-.916 1.2-.778 4.295-4.122m-1146.119-15.752-.018.478q-.066.629 1.677 7.214t2.97 10.696q1.224 4.112 2.165 7.863.941 3.75 2.747 12.04.084.118.408 1.024"/>
        <path stroke="#e66465" stroke-width="4" d="M5723.441 2128.973q1.033-2.952 2.678-5.276t4.052-4.276q2.41-1.953 4.225-2.635 1.816-.681 3.035-.801 1.218-.12 2.226.015 1.008.136 5.276 4.019 4.27 3.883 4.764 5.728.496 1.845.46 3.038t-.91 3.37q-.873 2.179-3.183 5.019t-3.626 4.139q-1.315 1.3-2.283 2.058t-1.66 1.14q-.1.01.237.687m18.765 20.497q-.673-.786-1.666-1.503-.992-.718-1.519-1.19-.526-.47-1.398-1.568-.87-1.098-1.376-2.535t-.5-2.39q.01-.95.331-1.903.325-.953 1.37-1.83 1.046-.876 2.164-1.138 1.12-.262 2.197-.13 1.078.132 1.978.77.9.639 1.657 1.834t1.066 2.187q.308.99.397 2 .09 1.009-.096 2.32-.184 1.313-.6 2.149-.415.835-1.162 1.759-.748.924-5.722 2.887m-32.33-440.464.041.387q.036.552 2.52 7.425 2.482 6.872 3.975 10.909t2.654 7.498q1.162 3.46 2.998 10.319.091.028-1.662-1.993"/>
        <path stroke="#e66465" stroke-width="4" d="M5718.814 1730.556q.032-.107.21-1.393t.534-2.396q.357-1.111 1.681-2.994 1.323-1.884 3.058-3.162t3.338-1.845 3.243-.707 2.97.069q1.327.209 2.684.916 1.357.706 2.817 2.616t2.333 5.662q.875 3.752.746 5.97-.128 2.22-.837 4.45-.708 2.229-2.402 4.328t-3.223 3.004q-1.527.906-2.489 1.136-.96.23-3.68.14m25.674 17.89q2.65-8.094 3.02-9.917t.472-2.46q.104-.634-.35-.723-.219.556.08 2.52.296 1.963.826 3.588t1.467 3.68q.938 2.056 2.476 4.199.345.227 1.045 1.055m452.207-69.845q.053.103.043.754.011 1.065 1.397 5.169t3.583 10.403q2.196 6.299 3.967 13.555t2.748 12.822q.086.1-1.134-3.832"/>
        <path stroke="#e66465" stroke-width="4" d="M6215.84 1700.594q.105-.142.777-1.985t1.233-2.85q.562-1.008.934-1.524t1.872-1.816 3.422-2.082q1.921-.784 3.094-.941 1.174-.156 2.574-.083 1.4.072 2.197.24.798.169 3.596 1.749 2.798 1.579 4.455 3.362 1.656 1.784 2.761 3.849 1.106 2.064 1.527 4.774t.204 4.374q-.218 1.663-1.167 3.684t-3.139 3.87-3.884 2.44-2.562.663q-.869.073-1.527-.024-.657-.098-.979-.255-.32-.156-.605-.391-.284-.235-.455-.477-.17-.243-.547-.851m23.612 22.577q.145-.303-.25-1.2.246-1.696 1.052-2.93.805-1.233 1.723-1.835.92-.603 1.67-.664t1.047-.048 1.068.479q.77.464 1.522 1.789.751 1.324 1.038 3.41t-.315 5.637q-.6 3.55-.999 5.828-.398 2.277-.214 3.68.53.172 4.105.068t14.526-1.664m-53.926 358.066-.102.726q-.06.318 2.814 14.757t7.901 29.774q.157.059-.068-.104m-9.234-41.256q.073-.165.18-1.174.105-1.008.434-1.981.33-.972.552-1.443t.627-1.037q.404-.566.987-1.126.582-.561 1.107-.91.526-.348.947-.62.422-.271 2.964-.742 2.543-.472 4.243-.276t3.394.928q1.693.733 3.004 1.783t2.395 2.864 1.508 4.332q.423 2.519.1 4.784-.325 2.266-1.676 4.786t-3.129 4.2-3.667 2.549-3.353 1.044q-1.462.176-2.436-.068t-1.99-.95l-.849-.426m33.182 8.943q.152-.092.488-.63.337-.537 1.415-1.596 1.08-1.06 2.515-2.027 1.435-.97 2.88-1.421 1.442-.453 2.613-.354 1.17.099 1.737.325.566.226 1.16.774.592.547 1.115 1.94t.472 2.956q-.05 1.563-.554 2.943-.502 1.379-.804 1.952-.302.574-.553.7.156-.135.443-.261t.846-.176 1.81.053 3.05.736q1.797.634 2.93 1.37t1.881 1.65 1.005 1.512.291 1.252-.18 1.412q-.213.757-.716 1.566-.503.81-1.825 1.877t-3.476 1.855q-2.153.789-4.2.924-2.046.135-3.362-.128-1.316-.262-2.182-.68-.866-.417-1.693-1.04-.827-.621-1.996-2.262l-.702-1.076m136.362-24.477-.05 1.064q.159.966 1.013 4.326t1.86 7.1q1.009 3.74 2.565 9.079 1.558 5.336 2.498 8.136.94 2.802 1.785 4.85.844 2.048 1.275 2.93t.95 1.717q.125.02-1.491-2.412"/>
        <path stroke="#e66465" stroke-width="4" d="M6406.104 2131.576q.044-1.22 1.092-4.189 1.049-2.968 2.193-4.456t2.01-2.036q.868-.547 1.6-.742t2.72.196q1.987.392 4.299 2.067 2.31 1.675 3.41 3.076 1.1 1.4 1.795 3.028.693 1.628.86 3.49t-.585 4.215-2.478 4.384q-1.724 2.032-3.255 2.965-1.532.933-2.77 1.225t-1.933.243-1.211-.168q-.517-.118-1.064-.466-.548-.349-.88-.635t-.74-.66m38.028 18.181q-.071-.833-.695-2.453t-1.696-3.061-2.448-2.316q-1.375-.873-3.634-.844t-2.983.64-1.23 2.44q-.504 1.83-.246 3.58.257 1.75 1.416 3.545t2.493 2.68q1.335.886 2.818 1.126t2.74-.08q1.258-.32 2.613-1.51 1.354-1.188 4.307-8.074m-41.277-425.303q.16.736.493 2.089.334 1.353.953 3.033.619 1.678 1.178 2.853t2.252 4.554q1.694 3.377 3.85 8.348 2.157 4.97 3.204 7.917 1.048 2.945 2.387 8.041.063.013-.674-1.487"/>
        <path stroke="#e66465" stroke-width="4" d="M6411.81 1733.537q.318-.574 1.09-2.036.774-1.46 1.798-2.509 1.025-1.047 2.45-1.848 1.428-.8 3.409-1.094 1.982-.293 3.472-.027t2.699 1.037q1.208.771 2.35 2.108t2.18 4.367q1.039 3.03 1.127 5.601t-.446 4.957q-.532 2.386-1.83 4.551-1.295 2.166-2.183 3.121-.89.955-2.182 1.77-1.293.814-2.963 1.2-.32-.061-1.737-.064m21.09 11.329q.166-.592.696-2.337t.793-3.066q.262-1.32.354-2.01.09-.69.113-.992.022-.303-.013-.493t-.086-.18.183.99 1.408 3.448q1.173 2.47 7.156 11.783m445.632 366.607q.05.508.379 1.684.328 1.176.957 2.738t2.039 4.969q1.41 3.406 3.983 11.271 2.573 7.867 3.647 12.073 1.074 4.204 1.686 7.332.054 0-1.571-1.833"/>
        <path stroke="#e66465" stroke-width="4" d="M6899.104 2146.24q.332-1.623.779-3.006.447-1.384 1.297-2.656.85-1.27 2-2.164t2.612-1.294 3.476-.11 3.854 1.566 2.593 2.155 1.56 2.248 1.47 3.892q.662 2.52.548 5.162t-.81 4.58q-.694 1.938-1.537 3.158-.844 1.22-1.782 2-.937.78-1.675 1.126t-1.19.46-.96 0l-.56.056m19.204 7.997.44-.042q1.524-.283 2.079-.308.555-.024 1.322.103.767.126 1.258.481.492.356.676.593.185.236.572 1.034t.78 2.848q.394 2.051.406 4.688.012 2.639.289 4.192.07.042 3.717-.692 3.648-.733 11.337-3.44m-64.519-462.845.319.388q.908 1.311 4.43 8.836 3.525 7.525 5.046 12.142 1.52 4.619 2.057 7.166.537 2.545.795 5.082t.287 7.413q-.064-.12-.581-.77"/>
        <path stroke="#e66465" stroke-width="4" d="M6889.275 1722.93q.253-1.626.669-2.725.416-1.098.783-1.646.365-.547 1.594-1.456 1.23-.91 3.512-1.402 2.282-.493 5.034-.052 2.753.44 5.16 1.748 2.41 1.307 4.075 3.062t2.53 4.148q.866 2.393.769 4.859-.096 2.465-.828 4.277t-2.246 3.505-4.427 3.04-6.518 2.044m26.053 12.412q.319-.877.52-1.337.204-.46.532-.97t.68-.868.639-.677 2.255-1.654 3.813-1.664q1.844-.326 2.826-.095.982.23 1.427.492.444.26 1.089 1.39t.865 2.168.21 2.386-.064 2.248q-.053.899-.128 1.542.304.116 1.744.675 1.44.558 2.55 1.052 1.112.494 1.705 1.019.592.524.83.962.239.437.332 1.016.092.58-.093 1.472t-1.808 2.16-4.41 1.932q-2.784.662-5.09.437-2.304-.224-4.22-.905-1.913-.68-3.464-1.816l-1.151-1.008m-1122.137-5.352-.168-.073q-1.368-.832-1.76-.964-.393-.133-1.01-.352t-1.69-.37q-1.074-.15-2.213.146-1.138.295-1.567.566-.428.27-.819.76-.392.49-.57.763-.18.273-.33 1.154-.148.88-.022 1.504t.55 1.313.926 1.185 1.206.88q.704.387 1.567.58.864.196 1.88.26t1.937-.096q.922-.16 1.424-.392.502-.233 1.22-.773t1.09-1.091q.37-.552.456-.761.085-.21.303-.355.22-.145.815-4.403m-1.77 389.179q-.683-1.004-1.655-1.946t-2.406-1.941q-1.435-.998-1.557-1.116t-1.936-.52q-1.812-.401-3.068-.21-1.256.19-1.498.299t-.825.76-.834 1.308-.269 1.25q-.017.594-.015.827 0 .234.404 1.206.404.973 1.2 1.84.797.867 1.673 1.353.876.485 1.767.704t1.742.35 2.888-.212q2.036-.344 3.136-.845 1.1-.502 1.908-1.238t3.6-5.098m380.449-382.64q-.3-.41-.948-1.885t-1.105-2.295-.682-1.097-1.188-1.262q-.963-.987-1.582-1.24-.618-.251-1.07-.285t-.864.035q-.41.069-1.314 1.086-.902 1.016-1.185 1.768-.282.75-.329 1.259t.125 1.649.347 1.499q.176.357.536.794.36.436 1.556 1.339 1.197.902 2.828 1.372 1.631.469 2.023.532t1.048.069q.655 0 3.345-.23m1.256 383.678-.9-.881-.173-.636q-.085-.233-1.02-1.92-.937-1.687-1.95-2.702-1.014-1.014-1.423-1.265-.408-.252-.717-.364-.31-.112-1.649-.221-1.339-.108-2.19.3-.853.407-.899.484l-1.213 1.633q-.095.076-.487 2.414t0 3.65q.395 1.314.734 1.795.34.482.884.978.545.497 1.514 1.026.97.53 2.421.658t2.282-.01q.832-.137 2.031-.916 1.2-.778 4.294-4.122m286.86-397.477-.168-.072q-1.368-.833-1.761-.965-.392-.133-1.01-.352-.616-.218-1.69-.369-1.073-.15-2.212.145-1.138.295-1.567.566-.428.271-.82.76-.391.49-.57.763-.18.272-.33 1.154-.147.881-.021 1.504.126.624.55 1.313.424.69.926 1.185t1.206.881 1.567.58q.864.195 1.88.26 1.016.063 1.937-.097.922-.16 1.424-.392.502-.233 1.22-.773.718-.539 1.09-1.09.37-.553.456-.762.085-.21.303-.354.219-.145.815-4.403m-1.77 389.178q-.683-1.004-1.655-1.946-.972-.941-2.406-1.94-1.435-.998-1.557-1.116t-1.936-.52q-1.812-.401-3.068-.21-1.256.19-1.498.299t-.825.76-.834 1.308-.27 1.25q-.016.594-.014.827 0 .234.404 1.206.404.973 1.2 1.84.797.867 1.673 1.352t1.767.705q.89.218 1.742.35.85.13 2.888-.212 2.036-.344 3.136-.845 1.1-.502 1.908-1.238t3.599-5.098m380.449-382.64q-.3-.41-.947-1.886t-1.105-2.295-.682-1.097-1.188-1.262q-.963-.987-1.582-1.239-.618-.252-1.07-.286t-.864.035q-.411.07-1.314 1.086-.902 1.016-1.185 1.768-.282.752-.33 1.26-.047.507.126 1.648.172 1.141.347 1.5.176.356.536.793t1.556 1.34q1.197.901 2.828 1.371t2.023.533 1.048.068q.655.01 3.345-.229m1.256 383.678-.901-.882-.172-.635q-.085-.234-1.021-1.92-.936-1.689-1.95-2.703t-1.422-1.266q-.408-.25-.717-.363-.31-.113-1.65-.22-1.338-.109-2.19.3-.852.406-.898.483l-1.213 1.633q-.095.076-.487 2.414-.392 2.34 0 3.652.395 1.312.734 1.793.339.482.884.978.545.497 1.514 1.026.97.53 2.42.658t2.283-.01q.832-.138 2.03-.916 1.2-.778 4.295-4.122m-1146.119-15.752-.018.478q-.066.629 1.677 7.214t2.97 10.696q1.224 4.112 2.165 7.863.941 3.75 2.747 12.04.084.118.408 1.024"/>
        <path stroke="#e66465" stroke-width="4" d="M5723.441 2128.973q1.033-2.952 2.678-5.276t4.052-4.276q2.41-1.953 4.225-2.635 1.816-.681 3.035-.801 1.218-.12 2.226.015 1.008.136 5.276 4.019 4.27 3.883 4.764 5.728.496 1.845.46 3.038t-.91 3.37q-.873 2.179-3.183 5.019t-3.626 4.139q-1.315 1.3-2.283 2.058t-1.66 1.14q-.1.01.237.687m18.765 20.497q-.673-.786-1.666-1.503-.992-.718-1.519-1.19-.526-.47-1.398-1.568-.87-1.098-1.376-2.535t-.5-2.39q.01-.95.331-1.903.325-.953 1.37-1.83 1.046-.876 2.164-1.138 1.12-.262 2.197-.13 1.078.132 1.978.77.9.639 1.657 1.834t1.066 2.187q.308.99.397 2 .09 1.009-.096 2.32-.184 1.313-.6 2.149-.415.835-1.162 1.759-.748.924-5.722 2.887m-32.33-440.464.041.387q.036.552 2.52 7.425 2.482 6.872 3.975 10.909t2.654 7.498q1.162 3.46 2.998 10.319.091.028-1.662-1.993"/>
        <path stroke="#e66465" stroke-width="4" d="M5718.814 1730.556q.032-.107.21-1.393t.534-2.396q.357-1.111 1.681-2.994 1.323-1.884 3.058-3.162t3.338-1.845 3.243-.707 2.97.069q1.327.209 2.684.916 1.357.706 2.817 2.616t2.333 5.662q.875 3.752.746 5.97-.128 2.22-.837 4.45-.708 2.229-2.402 4.328t-3.223 3.004q-1.527.906-2.489 1.136-.96.23-3.68.14m25.674 17.89q2.65-8.094 3.02-9.917t.472-2.46q.104-.634-.35-.723-.219.556.08 2.52.296 1.963.826 3.588t1.467 3.68q.938 2.056 2.476 4.199.345.227 1.045 1.055m452.207-69.845q.053.103.043.754.011 1.065 1.397 5.169t3.583 10.403q2.196 6.299 3.967 13.555t2.748 12.822q.086.1-1.134-3.832"/>
        <path stroke="#e66465" stroke-width="4" d="M6215.84 1700.594q.105-.142.777-1.985t1.233-2.85q.562-1.008.934-1.524t1.872-1.816 3.422-2.082q1.921-.784 3.094-.941 1.174-.156 2.574-.083 1.4.072 2.197.24.798.169 3.596 1.749 2.798 1.579 4.455 3.362 1.656 1.784 2.761 3.849 1.106 2.064 1.527 4.774t.204 4.374q-.218 1.663-1.167 3.684t-3.139 3.87-3.884 2.44-2.562.663q-.869.073-1.527-.024-.657-.098-.979-.255-.32-.156-.605-.391-.284-.235-.455-.477-.17-.243-.547-.851m23.612 22.577q.145-.303-.25-1.2.246-1.696 1.052-2.93.805-1.233 1.723-1.835.92-.603 1.67-.664t1.047-.048 1.068.479q.77.464 1.522 1.789.751 1.324 1.038 3.41t-.315 5.637q-.6 3.55-.999 5.828-.398 2.277-.214 3.68.53.172 4.105.068t14.526-1.664m-53.926 358.066-.102.726q-.06.318 2.814 14.757t7.901 29.774q.157.059-.068-.104m-9.234-41.256q.073-.165.18-1.174.105-1.008.434-1.981.33-.972.552-1.443t.627-1.037q.404-.566.987-1.126.582-.561 1.107-.91.526-.348.947-.62.422-.271 2.964-.742 2.543-.472 4.243-.276t3.394.928q1.693.733 3.004 1.783t2.395 2.864 1.508 4.332q.423 2.519.1 4.784-.325 2.266-1.676 4.786t-3.129 4.2-3.667 2.549-3.353 1.044q-1.462.176-2.436-.068t-1.99-.95l-.849-.426m33.182 8.943q.152-.092.488-.63.337-.537 1.415-1.596 1.08-1.06 2.515-2.027 1.435-.97 2.88-1.421 1.442-.453 2.613-.354 1.17.099 1.737.325.566.226 1.16.774.592.547 1.115 1.94t.472 2.956q-.05 1.563-.554 2.943-.502 1.379-.804 1.952-.302.574-.553.7.156-.135.443-.261t.846-.176 1.81.053 3.05.736q1.797.634 2.93 1.37t1.881 1.65 1.005 1.512.291 1.252-.18 1.412q-.213.757-.716 1.566-.503.81-1.825 1.877t-3.476 1.855q-2.153.789-4.2.924-2.046.135-3.362-.128-1.316-.262-2.182-.68-.866-.417-1.693-1.04-.827-.621-1.996-2.262l-.702-1.076m136.362-24.477-.05 1.064q.159.966 1.013 4.326t1.86 7.1q1.009 3.74 2.565 9.079 1.558 5.336 2.498 8.136.94 2.802 1.785 4.85.844 2.048 1.275 2.93t.95 1.717q.125.02-1.491-2.412"/>
        <path stroke="#e66465" stroke-width="4" d="M6406.104 2131.576q.044-1.22 1.092-4.189 1.049-2.968 2.193-4.456t2.01-2.036q.868-.547 1.6-.742t2.72.196q1.987.392 4.299 2.067 2.31 1.675 3.41 3.076 1.1 1.4 1.795 3.028.693 1.628.86 3.49t-.585 4.215-2.478 4.384q-1.724 2.032-3.255 2.965-1.532.933-2.77 1.225t-1.933.243-1.211-.168q-.517-.118-1.064-.466-.548-.349-.88-.635t-.74-.66m38.028 18.181q-.071-.833-.695-2.453t-1.696-3.061-2.448-2.316q-1.375-.873-3.634-.844t-2.983.64-1.23 2.44q-.504 1.83-.246 3.58.257 1.75 1.416 3.545t2.493 2.68q1.335.886 2.818 1.126t2.74-.08q1.258-.32 2.613-1.51 1.354-1.188 4.307-8.074m-41.277-425.303q.16.736.493 2.089.334 1.353.953 3.033.619 1.678 1.178 2.853t2.252 4.554q1.694 3.377 3.85 8.348 2.157 4.97 3.204 7.917 1.048 2.945 2.387 8.041.063.013-.674-1.487"/>
        <path stroke="#e66465" stroke-width="4" d="M6411.81 1733.537q.318-.574 1.09-2.036.774-1.46 1.798-2.509 1.025-1.047 2.45-1.848 1.428-.8 3.409-1.094 1.982-.293 3.472-.027t2.699 1.037q1.208.771 2.35 2.108t2.18 4.367q1.039 3.03 1.127 5.601t-.446 4.957q-.532 2.386-1.83 4.551-1.295 2.166-2.183 3.121-.89.955-2.182 1.77-1.293.814-2.963 1.2-.32-.061-1.737-.064m21.09 11.329q.166-.592.696-2.337t.793-3.066q.262-1.32.354-2.01.09-.69.113-.992.022-.303-.013-.493t-.086-.18.183.99 1.408 3.448q1.173 2.47 7.156 11.783m445.632 366.607q.05.508.379 1.684.328 1.176.957 2.738t2.039 4.969q1.41 3.406 3.983 11.271 2.573 7.867 3.647 12.073 1.074 4.204 1.686 7.332.054 0-1.571-1.833"/>
        <path stroke="#e66465" stroke-width="4" d="M6899.104 2146.24q.332-1.623.779-3.006.447-1.384 1.297-2.656.85-1.27 2-2.164t2.612-1.294 3.476-.11 3.854 1.566 2.593 2.155 1.56 2.248 1.47 3.892q.662 2.52.548 5.162t-.81 4.58q-.694 1.938-1.537 3.158-.844 1.22-1.782 2-.937.78-1.675 1.126t-1.19.46-.96 0l-.56.056m19.204 7.997.44-.042q1.524-.283 2.079-.308.555-.024 1.322.103.767.126 1.258.481.492.356.676.593.185.236.572 1.034t.78 2.848q.394 2.051.406 4.688.012 2.639.289 4.192.07.042 3.717-.692 3.648-.733 11.337-3.44m-64.519-462.845.319.388q.908 1.311 4.43 8.836 3.525 7.525 5.046 12.142 1.52 4.619 2.057 7.166.537 2.545.795 5.082t.287 7.413q-.064-.12-.581-.77"/>
        <path stroke="#e66465" stroke-width="4" d="M6889.275 1722.93q.253-1.626.669-2.725.416-1.098.783-1.646.365-.547 1.594-1.456 1.23-.91 3.512-1.402 2.282-.493 5.034-.052 2.753.44 5.16 1.748 2.41 1.307 4.075 3.062t2.53 4.148q.866 2.393.769 4.859-.096 2.465-.828 4.277t-2.246 3.505-4.427 3.04-6.518 2.044m26.053 12.412q.319-.877.52-1.337.204-.46.532-.97t.68-.868.639-.677 2.255-1.654 3.813-1.664q1.844-.326 2.826-.095.982.23 1.427.492.444.26 1.089 1.39t.865 2.168.21 2.386-.064 2.248q-.053.899-.128 1.542.304.116 1.744.675 1.44.558 2.55 1.052 1.112.494 1.705 1.019.592.524.83.962.239.437.332 1.016.092.58-.093 1.472t-1.808 2.16-4.41 1.932q-2.784.662-5.09.437-2.304-.224-4.22-.905-1.913-.68-3.464-1.816l-1.151-1.008"/>
        <path stroke="#9198e5" stroke-width="4" d="M5804.1 2147.392q-.133-.13-.187-.17-.055-.038-.313-.315-.259-.277-.848-.74-.588-.463-1.296-.804-.707-.341-1.303-.441t-1.055-.038q-.458.062-.647.275-.19.213-.208.37t0 .505q.014.348.337.738t.778.62q.454.23.862.332t1.088.102.963-.064.504-.202q.22-.137.562-.528t1.095-1.79m96.502-286.603-.13-.012q-.018-.02-.113-.23-.094-.21-.268-.504t-.309-.4q-.136-.106-.254-.134l-.286-.068q-.167-.04-.459.019-.29.06-.388.154-.096.094-.19.257t-.087.408q.01.246.018.328.012.08.083.152.07.07.236.15.165.082.397.113.232.03.472.04t.415-.096.564-.43l.168-.204.656-.691m189.961.909q-.193-.1-.365-.217-.172-.12-.374-.24-.202-.122-.394-.167-.193-.044-.393-.047-.199 0-.329.023-.13.026-.389.226-.26.2-.292.327-.032.126-.022.215t.12.23.184.203.085.094q.01.034.751.204.111-.01 1.417-.704m96.506-97.657-.144-.353q-.09-.167-.672-.502-.582-.336-.997-.432t-.779-.07-.529.052q-.165.024-.347.267-.18.243-.14.705.04.463.21.666.172.203.702.394.53.192 1.43.113.898-.08 3.423-2.08m-386.851 4.015-.029-.44-.165-.621q-.08-.311-.519-.843-.438-.532-.909-.846-.47-.314-1.05-.424-.582-.11-.873-.043-.29.068-.48.266-.19.199-.254.639t-.047.593.303.537q.287.385.577.532.29.146.655.239.365.094.933.087.57-.01 1.21-.253.638-.247 2.516-1.628m387.219 388.513q-.106-.228-.443-.681l-.504-.678q-.168-.223-.705-.575t-1.213-.495q-.678-.144-1.117-.087t-.6.205q-.162.149-.277.754-.115.606.08 1.054.194.449.518.74.324.294.69.429.363.136.734.152t.71-.05q.34-.066.796-.3.457-.233.825-.54.368-.305 1.084-.975m-173.271-360.519q-.066-.026-.09-.225-.025-.198-.052-.347-.028-.15-.096-.328-.067-.18-.515-.46-.448-.281-1.432-.355-.053.16-.03.283.021.122.303.264t.505.18.362.036q.14 0 .207-.088.066-.083.083-.206.015-.124-.01-.232-.025-.11-.098-.246-.073-.138-.389-.213-.314-.075-.938.114t-.81.357l-.537.704m-187.751 189.195q-.356-.078-.423-.087-.068-.01-.214.01-.145.016-.316.048-.17.032-.302.183-.13.15-.175.262t-.109.246 0 .232.155.137.124.037q.033 0 .086.016.053.018.11-.04.058-.06.086-.143.028-.084.032-.193 0-.11-.017-.15-.019-.04-.137-.067t-.21-.02-.154.044q-.06.035-.224.689l.01.175m-16.116 75.007q-.284.342-.437.324-.152-.018-.31-.01l-.196.012q-.037 0-.275.079-.238.076-.43.316t-.346.676q-.155.437-.135.857-.05.11 1.11.195.118-.285.14-.676.02-.391-.052-.704-.07-.313-.539-.818t-.58-.776m374.987 1.535-.297.372q-.278-.04-.423-.058-.144-.02-.3.01-.156.025-.344.136-.188.11-.294.248t-.116.137-.07.275.07.576.161.323q.028.023.13.02.101 0 .12-.013t.176-.321q.158-.31.132-.947l-.09-.47m-19.595-79.502.07.309-.108-.176q.012-.01-.124-.03-.136-.021-.299.024-.163.046-.216.125-.052.08-.077.17-.025.093-.02.25.01.158.065.295.06.137.26.24.2.105.32.099.121-.01.206-.08.085-.072.101-.252.017-.18-.01-.296-.024-.117-.263-.262t-.398-.181q-.158-.037-.273-.045-.116-.01-.18.04t-.307.055m-187.365-188.764-.099.06q-.06-.13-.11-.202-.054-.071-.12-.126-.068-.054-.34-.147-.273-.094-.452-.113-.179-.018-.327-.011-.149.01-.277.08-.129.073-.196.154-.069.082-.12.18t-.066.2-.01.204q.01.1.841.384.091-.294.024-.563-.066-.27-.253-.401-.188-.132-.263-.155-.074-.023-.27-.044-.197-.02-.598-.171m130.35-15.282-.226-.173-.217-.13q-.387-.193-.76-.287-.374-.093-.498-.114-.124-.02-.28 0-.155.019-.259.122-.104.102-.116.138-.012.035.012.092.024.058.301.048.278-.01.523-.084l.387-.114q.141-.041.312-.211t.3-.52.144-.532.01-.32q-.01-.134-.112-.293-.102-.16-.217-.23t-.277-.103-.288.013-.18.086-.08.109q-.028.07.06.232.085.163.327.238l.014-.057q.01-.095-.056-.107-.064-.012-.018.14m-209.27-.616v.042l-.19-.042q-.216 0-.492.063-.276.066-.384.215-.108.148-.16.35-.052.2 0 .224.057.022.212.033.155.01.326-.11.172-.121.201-.165.028-.043.046-.161t0-.161q-.022-.043-.198-.2t-.496-.166q-.093.25.046.5m-25.911 134.825q-.203-.066-.435-.096t-.63-.021-.674.088-.476.234q-.202.157-.254.26-.052.106-.06.17-.01.064.052.118.06.053.278.048.22 0 .28-.063.06-.058.065-.167 0-.11-.01-.195t-.09-.186-.075-.104q.01-.01-.123-.103-.129-.098-.289-.125t-.207-.01q-.047.019-.086.08-.039.062-.029.093.01.03 0 .04t.185-.021q.193-.031.223-.156.031-.125-.436-.47-.057.04.062-.03m87.241-83.034-.607-.41-.343-.164q-.332-.07-.726-.038-.393.03-.71.234-.315.203-.485.592-.169.39-.103.618.065.228.23.36.165.13.456.235t.562.01q.27-.098.363-.182t.175-.245.067-.3-.109-.217q-.095-.08-.31-.183-.215-.105-.423-.113l-.049.064q-.027.093-.145.073m96.416-1.596-.19-.25-.102.01q-.377-.462-1.855-.844-.034.018-.076.139-.042.12-.015.212.026.09.127.17.1.08.362.093t.45-.082.264-.181.146-.205q.07-.121.018-.282-.053-.162-.2-.295t-.203-.136q-.055 0-.039.164.015.168.353.58m86.418 86.899-.018-.155-.029-.3q-.096-.351-.276-.557t-.393-.343-.433-.22-.375-.1q-.156-.015-.198.029-.042.043-.074.18-.032.136-.016.237t.102.187.34.114q.252.03.391.017.138-.014.255-.127l.135-.13q.02-.017-.346-.33-.364-.313-.715-.363-.352-.05-.436.08-.083.129-.254.927m451.813 42.308q-.491-.223-1.014-.3t-.828-.045l-.441.044q-.136.015-.251.074t-.217.146q-.103.089-.127.164t.025.252q.048.177.116.277t.203.227.302.197q.168.069.44.098.272.03.35-.019.08-.047.129-.1.049-.055.117-.194.069-.139.056-.21-.013-.073-.07-.13-.057-.059-.284-.143t-.312.061q-.086.145-.11.291t.01.192q.029.046.235.167t1.06.136q-.01.038.019-.185.028-.222-.234-.397-.261-.174-.532-.18-.272-.01-.512.103-.241.11-1.52 2.192m-95.799 189.959-.051-.022-.05-.049q-.138-.153-.205-.23t-.236-.145q-.171-.068-.607-.106t-.89.053-.684.33-.333.942q-.104.702 0 1.147.103.445.374.766.272.321.476.365.203.045.629-.048t.93-.456.663-.536q.16-.174.27-.387t.113-.507q0-.295-.09-.526-.092-.23-.125-.264-.033-.033-.262-.293-.23-.26-.791-.505-.563-.244-.911-.223t-.463.315q-.116.295-.01.596.107.302.247.483.14.182.35.292t.419.138.277-.06.062-.284q-.01-.197-.42-.422-.413-.225-.64-.23-.227-.01-1.343.012m391.006.671-.081-.047q-.446-.196-1.005-.472-.56-.276-1.322-.446-.763-.17-1.011-.142-.25.027-.476.117-.228.089-.275.22-.048.133-.106.423t.055.673.465.773q.35.39.6.522.25.13.728.2.477.07.958-.027.482-.098.792-.318.31-.222.46-.425.152-.202.22-.728.068-.527-.273-.801t-.73-.343q-.39-.07-.708.018-.32.089-.388.28-.07.19-.086.56-.018.37.104.648.122.277.292.454.169.178.639.368t2.2.11m-385.403-386.116q0-.371-.03-.783-.033-.412-.157-.696t-.608-.72q-.484-.434-.796-.55t-.722-.172-.914 0q-.504.059-1.015.35-.512.292-.76.92-.245.629-.218.928.029.299.169.664t1.237.75 1.79.336q.695-.051 1.144-.207t.776-.375q.327-.22.535-.492.207-.273.26-.615.05-.343-.257-.87-.31-.525-2.99-1.05-.477.674 2.307 2m384.022-.134q-.082-.103-.62-1.612-.04-.034-.47-.552-.43-.517-.682-.64t-.447-.163q-.194-.04-.35.047-.156.088-.326.595t-.13.852q.04.347.129.627.088.28.244.456.156.179.689.298.534.119.906.074.372-.046.842-.346.47-.301.742-.905.27-.604.288-1.228t-.195-1.034-.411-.573q-.2-.165-.345-.194t-.236-.01q-.092.02-.17.105-.077.087-.132.232-.055.144-.081.56t.056.765.792 1.396"/>
        <circle cx="6503.794" cy="1991.803" r="2" fill="#9198e5" stroke="#9198e5" stroke-width=".1"/>
        <path stroke="#9198e5" stroke-width="4" d="M6504.03 1993.567q-.376-.435-.66-.618-.282-.183-.435-.21-.152-.029-.288-.013t-.171.031-.147.207-.111.34q0 .15.088.221.087.071.153.09t.204.01q.137-.01.182-.032t.114-.113q.07-.09.076-.228.01-.137.025-.198.019-.06-.076-.204-.094-.142-.201-.246t-.282-.126q-.175-.02-.26.024-.085.045-.146.096-.062.052-.457.014m196.548 1.056-.16-.09q-.19-.124-.46-.24-.27-.113-.571-.211-.303-.097-.613-.142-.31-.046-.756-.01-.446.04-.553.26t-.106.478q0 .259.172.335.17.076.543.095.372.02.576-.02.204-.037.343-.183.138-.146.208-.31t.055-.307-.015-.143l-.276-.27q-.274-.268-.82-.46-.105-.01-.526-.082m-43.259-97.328-.232.028-.15.113q-.05.03-.457.012-.407-.02-.663 0-.256.023-.533.133-.278.11-.424.24t-.21.477q-.063.347 0 .542.068.196.216.374.147.179.3.273.152.094.166.115.014.02.45.065.437.044.938-.144.176-.251.337-.714t.233-.981q.073-.52.025-2.162m117.591 52.033-.204-.173-.26-.221q-.647-.455-.982-.627t-.646-.278q-.313-.106-.827-.184-.515-.08-1.083.053-.568.13-.874.487-.306.356-.372.552t-.071.349q-.01.154-.01.318t.192.458.324.41q.13.116.458.303.326.187.57.244.245.058.756.066.51.01 1.082-.168.572-.175 1.129-.734.558-.56.94-1.366.38-.807.78-2.31m71.457-42.99q-.416-.512-.845-.837-.428-.326-.667-.453-.238-.128-.465-.209-.228-.082-.468-.07-.241.01-.45.202-.208.192-.331.45-.122.258-.122.445 0 .186.049.29.049.102.113.164.065.062.347.213.28.152.653.165t.515-.059q.142-.073.39-.295.247-.223.775-1.242l.36-.823m-65.224 158.938q-.527-.01-1.074.12-.547.128-.66.19t-.221.255.013.384q.119.192.249.238.129.046.248.015.119-.03.257-.128.139-.097.203-.186.064-.09.115-.235.05-.143.065-.325t.014-.234-.098-.469l-.255-1.104m-203.006-221.771q-.171.172-.2.197-.028.024-.2.095-.17.07-.197.104t-.26 0q-.231-.032-.543-.011-.312.02-.74.127-.427.106-.585.16-.158.056-.246.128-.087.072-.112.254-.025.18.045.305t.256.258.334.173.355.013q.209-.029.305-.14.097-.111.202-.324t.122-.658q-.084-.132-.62-.691l-.06-.23m-83.512 222.158-.184-.04q-.08.099-.351.107-.271.01-.547.063-.276.055-.497.188-.22.134-.378.419-.158.284-.248.489-.09.204.028.505.118.3.286.407.167.108.426.092t.34-.121q.083-.106.105-.291.022-.186 0-.425-.02-.24-.11-.466t-.543-.926m373.703-219.338q-.182-.145-.398-.45-.216-.308-.421-.534-.205-.224-.318-.322-.112-.099-.331-.194-.22-.096-.343-.077-.124.018-.232.193-.11.174-.01.366.1.191.227.246.128.057.278.06.149 0 .227-.026.077-.028.189-.055.11-.026.274-.527.163-.5.125-.643-.04-.142.06-.812m-131.592 104.582q0-.03-.086-.204l-.076.098q-.05-.087-.318-.125t-.52.031-.303.225-.025.256.15.178q.127.08.163.11.037.031.565.17.528.14.938.138.41 0 .555-.072.145-.068.245-.19t.148-.222q.047-.1-.25-.46t-.423-.65m79.684 2.82q-.03 0-.282-.217-.284-.119-.841-.276t-.843-.178-.415 0q-.13.025-.245.096-.117.071-.152.31-.035.238.25.311.284.073.537.072.252 0 .465-.04.212-.04.362-.154t.187-.17.107-.247.047-.356q-.024-.167-.1-.265-.076-.097-.15-.149-.073-.053-.318-.12-.247-.067-.405-.062-.158.01-.292.048-.134.043-.397.29m-179.78 17.06q-.3-.166-.721-.33-.423-.163-.642-.234-.218-.07-.4-.103-.181-.033-.376-.045-.194-.013-.354.099-.16.111-.217.346-.058.235.042.307.1.071.239.115t.31.036q.173-.01.247-.01t.187-.06.202-.147.153-.188q.065-.102 0-.366-.064-.264-.235-.515-.171-.252-.484-.4-.052-.01-.48-.133m-85.126 3.3q.059.05.215-.01l-.133-.211q-.326-.103-.616-.062t-.525.154q-.236.113-.483.428-.247.316-.288.705t.095.637.225.32.182.117.479.057.569-.093.306-.28.138-.379-.028-.35-.523-.48q-.48-.336-1.623-.533-.068.017-.2-.021"/>
    </g>
</svg>
