<svg xmlns="http://www.w3.org/2000/svg" xml:space="preserve" viewBox="0 0 960 480">
    <g fill="none" stroke-linecap="round" stroke-linejoin="round">
        <path stroke="#f6f7ef" stroke-width="1.342" d="m126.624 369.026-.34-259.29m.197.264 258.111.45m.393-1.687 2.094 260.388M570.9 367.92l.912-260.313m.788-2.537 257.913 260.838m-1.306-1.161.787-259.227m-703.37 263.506-.34-259.29m.197.264 258.111.45m.393-1.687 2.094 260.388M570.9 367.92l.912-260.313m.788-2.537 257.913 260.838m-1.306-1.161.787-259.227" opacity=".5"/>
        <path stroke="#e66465" stroke-width="2.682" d="m129.065 108.32-.112-.048q-.916-.557-1.18-.647-.263-.088-.677-.235t-1.133-.247q-.72-.102-1.484.096-.763.199-1.05.38-.287.182-.55.51t-.383.511-.22.774-.02 1.01q.084.418.369.88.284.462.62.794.338.332.81.59.471.26 1.05.39t1.26.173 1.3-.064.955-.264q.336-.155.818-.517t.73-.732q.249-.37.306-.51.058-.14.203-.238.148-.097.547-2.953m-1.183 260.972q-.458-.674-1.11-1.305-.65-.633-1.613-1.302-.962-.67-1.043-.748-.082-.08-1.299-.349-1.215-.27-2.058-.14-.842.127-1.004.2-.162.072-.553.51-.391.437-.56.877-.168.439-.18.837-.02.398-.02.555.001.157.272.81.27.652.804 1.233.535.58 1.122.907.587.325 1.185.472t1.169.234q.57.089 1.936-.142 1.365-.23 2.102-.567.738-.335 1.28-.829.541-.494 2.413-3.42m255.128-256.586q-.202-.273-.636-1.263t-.74-1.54-.458-.735q-.15-.185-.797-.847-.646-.66-1.06-.83t-.718-.192-.58.024-.88.727-.795 1.186-.221.845q-.032.34.084 1.106.116.765.233 1.004.118.24.359.533t1.044.897 1.896.92 1.356.358q.264.042.703.046.44.004 2.244-.153m.842 257.282-.605-.591-.116-.427q-.056-.157-.685-1.288-.627-1.131-1.307-1.811t-.954-.849-.48-.243q-.208-.076-1.106-.149t-1.469.2q-.571.275-.602.326l-.814 1.095q-.064.051-.327 1.619t0 2.448q.265.88.492 1.203.228.323.593.656.366.333 1.015.688.65.355 1.624.44.972.086 1.53-.005.558-.093 1.362-.615t2.88-2.764m183.437-263.296-.112-.048q-.917-.558-1.18-.647-.264-.089-.678-.236-.413-.147-1.133-.247-.72-.101-1.483.096-.764.199-1.05.38-.288.182-.55.51t-.384.511-.22.774q-.1.59-.02 1.01.084.417.37.88.284.462.62.794.337.332.809.591t1.05.39 1.261.173 1.3-.065.954-.263.819-.518.73-.732.306-.51.203-.238q.148-.097.547-2.952m-1.183 260.971q-.458-.673-1.11-1.306-.651-.631-1.613-1.3-.962-.67-1.044-.749-.082-.08-1.298-.349-1.216-.27-2.058-.14-.842.128-1.005.2t-.553.51-.559.877-.18.837q-.02.399-.02.556 0 .156.272.808.27.653.804 1.234.534.58 1.122.907.587.326 1.184.472.599.147 1.17.235.57.088 1.935-.143t2.103-.566q.738-.336 1.28-.83.54-.493 2.413-3.418m255.127-256.587q-.202-.274-.635-1.264-.434-.99-.74-1.54-.308-.55-.459-.734-.15-.186-.796-.847-.646-.662-1.061-.83-.415-.17-.718-.192-.303-.024-.579.023-.276.046-.88.728-.605.682-.795 1.185-.19.505-.221.845-.032.34.084 1.106.116.765.232 1.004.118.24.36.533.241.293 1.044.898.802.605 1.895.92 1.094.315 1.357.357.264.042.703.046t2.243-.153m.843 257.282-.605-.59-.116-.427q-.056-.157-.685-1.289-.628-1.13-1.307-1.81-.68-.681-.954-.85t-.481-.243-1.105-.148-1.47.2-.602.325l-.814 1.095q-.064.051-.326 1.62-.263 1.567 0 2.447.265.88.492 1.203.228.324.593.656.365.333 1.015.688.65.356 1.623.44.973.087 1.53-.005.559-.093 1.363-.614.804-.523 2.879-2.765M76.58 353.567l-.02.32q-.043.421 1.125 4.837 1.169 4.416 1.991 7.173t1.453 5.272q.631 2.516 1.842 8.074.056.08.273.687"/>
        <path stroke="#e66465" stroke-width="2.682" d="M74.45 356.18q.693-1.98 1.796-3.538 1.103-1.559 2.718-2.868 1.615-1.31 2.832-1.766 1.219-.458 2.036-.538.816-.08 1.492.01t3.539 2.694 3.194 3.841.308 2.038q-.024.8-.61 2.26-.585 1.46-2.134 3.365-1.55 1.905-2.432 2.776t-1.53 1.38-1.115.764q-.066.008.16.461m12.583 13.745q-.451-.527-1.116-1.008-.666-.482-1.02-.797-.352-.316-.936-1.052t-.924-1.7-.334-1.602q0-.637.222-1.277.217-.639.918-1.227.701-.587 1.451-.763.75-.175 1.473-.087.723.089 1.326.516.604.429 1.111 1.23.508.8.715 1.466t.267 1.341q.06.677-.064 1.557t-.403 1.44-.78 1.18-3.837 1.936M73.678 86.596l.026.258q.024.371 1.69 4.98 1.665 4.608 2.665 7.315t1.78 5.028 2.01 6.92q.06.017-1.114-1.337"/>
        <path stroke="#e66465" stroke-width="2.682" d="M71.348 89.014q.022-.073.14-.934.12-.863.358-1.608.239-.744 1.127-2.007.887-1.263 2.05-2.12 1.164-.857 2.239-1.237t2.175-.475 1.991.046q.89.14 1.8.614t1.889 1.755 1.565 3.797.5 4.004-.561 2.983-1.611 2.902-2.161 2.015-1.669.762q-.645.155-2.469.094m17.219 11.996q1.775-5.427 2.023-6.65t.318-1.649-.236-.486q-.146.374.054 1.69t.554 2.407q.356 1.09.984 2.467.63 1.379 1.661 2.816.23.152.7.707m303.236-46.836q.036.07.028.505 0 .715.937 3.467.93 2.752 2.402 6.976 1.474 4.224 2.661 9.09t1.842 8.597q.058.068-.76-2.569"/>
        <path stroke="#e66465" stroke-width="2.682" d="M404.638 68.922q.07-.096.52-1.331.451-1.236.828-1.912t.626-1.021q.25-.347 1.255-1.218 1.006-.872 2.295-1.397t2.075-.63q.788-.105 1.726-.056t1.473.161q.535.114 2.412 1.172 1.876 1.06 2.987 2.256 1.11 1.195 1.852 2.58.74 1.385 1.023 3.202t.136 2.932-.782 2.471q-.638 1.356-2.105 2.595-1.469 1.241-2.605 1.637t-1.718.444-1.023-.016-.657-.17-.405-.262q-.19-.159-.306-.32-.114-.163-.367-.57m15.834 15.138q.098-.203-.168-.805.166-1.138.707-1.965.54-.826 1.156-1.23t1.119-.446.703-.032q.198.01.715.321.516.312 1.02 1.2t.697 2.287-.21 3.78q-.404 2.38-.67 3.908-.268 1.527-.145 2.468.356.114 2.753.045t9.741-1.116M410.968 343.13l-.068.487q-.04.213 1.888 9.895t5.298 19.966q.106.04-.046-.07m-6.193-27.664q.05-.112.12-.788.072-.676.292-1.328.221-.652.37-.968.148-.316.42-.696.272-.378.662-.755.39-.375.743-.61.352-.233.635-.415t1.988-.498 2.845-.185 2.275.622 2.015 1.196 1.606 1.92 1.01 2.906.067 3.208q-.217 1.519-1.123 3.21-.906 1.69-2.099 2.816-1.192 1.126-2.459 1.709-1.266.583-2.247.7t-1.634-.046-1.335-.637l-.57-.286m22.252 5.998q.102-.063.328-.423.225-.36.949-1.07.723-.711 1.686-1.36.962-.65 1.93-.953.968-.304 1.753-.237t1.165.218.777.518.748 1.302.317 1.982-.371 1.973q-.337.925-.54 1.31-.202.384-.37.47.104-.092.297-.177.192-.083.567-.118.374-.033 1.214.036.838.07 2.045.494 1.205.425 1.965.919t1.262 1.107.673 1.013.194.84q.022.44-.12.947t-.48 1.05q-.337.542-1.223 1.258-.887.715-2.331 1.244-1.444.53-2.817.62-1.372.09-2.254-.086-.883-.176-1.463-.456t-1.135-.697-1.338-1.517l-.472-.722m82.517-13.174-.034.714q.108.647.68 2.9t1.248 4.762 1.72 6.087 1.674 5.457 1.197 3.252.856 1.964.637 1.152q.084.012-1-1.618"/>
        <path stroke="#e66465" stroke-width="2.682" d="M523.3 361.164q.03-.817.733-2.808t1.47-2.988 1.349-1.365 1.072-.498 1.824.132q1.332.262 2.883 1.386t2.287 2.062q.737.94 1.203 2.031.465 1.092.577 2.34t-.393 2.826-1.66 2.94q-1.157 1.363-2.184 1.989t-1.857.821-1.296.163-.813-.112-.713-.313q-.368-.234-.59-.426-.223-.192-.497-.443m25.501 12.191q-.048-.559-.466-1.645t-1.138-2.052-1.641-1.552q-.922-.586-2.437-.568-1.515.02-2 .43t-.824 1.637-.166 2.4.95 2.377q.776 1.203 1.671 1.797.895.595 1.89.756.994.16 1.837-.054.844-.215 1.752-1.012.909-.797 2.889-5.415M526.834 92.996q.108.494.33 1.401.224.907.64 2.033.415 1.127.789 1.915t1.51 3.052 2.583 5.599 2.148 5.308 1.6 5.393q.042.01-.452-.997"/>
        <path stroke="#e66465" stroke-width="2.682" d="M527.127 94.251q.213-.383.731-1.364.518-.98 1.206-1.682.686-.702 1.643-1.24.957-.537 2.285-.733t2.329-.018 1.81.696 1.576 1.414q.765.896 1.461 2.928t.755 3.755q.06 1.724-.298 3.324-.357 1.6-1.226 3.053-.87 1.452-1.466 2.092-.595.64-1.462 1.187-.867.546-1.987.805-.215-.042-1.165-.044m14.141 7.596q.113-.396.468-1.567t.531-2.055.238-1.348.076-.665q.02-.204 0-.33-.024-.129-.058-.122t.122.663q.158.657.944 2.313t4.798 7.9m298.82 245.838q.034.339.254 1.128.22.79.642 1.836.421 1.048 1.367 3.332t2.671 7.559 2.445 8.094 1.131 4.918q.036 0-1.054-1.23"/>
        <path stroke="#e66465" stroke-width="2.682" d="M853.891 370.999q.223-1.09.522-2.017.3-.928.87-1.78t1.342-1.452q.77-.599 1.75-.868.98-.268 2.331-.073 1.351.194 2.585 1.05t1.739 1.445 1.046 1.507.985 2.61.368 3.462-.543 3.07-1.031 2.118-1.194 1.342-1.124.755q-.495.23-.798.307-.303.078-.643 0l-.375.039m12.877 5.362.295-.028q1.021-.189 1.393-.206.373-.018.887.069.514.085.844.323.33.237.453.396.124.16.383.695.26.534.524 1.91.264 1.374.272 3.143 0 1.77.192 2.81.048.029 2.494-.464 2.445-.491 7.602-2.306m-43.264-310.37.214.26q.609.88 2.971 5.926t3.383 8.142q1.02 3.096 1.38 4.804t.533 3.41q.172 1.7.192 4.97-.042-.08-.389-.516"/>
        <path stroke="#e66465" stroke-width="2.682" d="M847.3 87.14q.17-1.091.448-1.828.28-.737.525-1.104.245-.366 1.07-.977.824-.61 2.354-.94t3.376-.035 3.461 1.173 2.732 2.053q1.117 1.176 1.697 2.781t.516 3.259q-.066 1.653-.556 2.868t-1.506 2.35-2.969 2.04q-1.953.902-4.37 1.37m17.47 8.322q.213-.587.35-.896.136-.308.355-.65.22-.341.457-.583.236-.24.427-.454.192-.213 1.513-1.109t2.557-1.115 1.894-.064.957.33.731.933.58 1.453.14 1.6q0 .904-.042 1.507-.036.603-.086 1.034l1.17.453q.966.374 1.711.705.744.332 1.142.683t.557.645.222.682-.062.987-1.213 1.45-2.956 1.294-3.414.293-2.829-.607-2.324-1.217l-.771-.677m-743.549-6.829-.112-.048q-.916-.557-1.18-.647-.263-.088-.677-.235t-1.133-.247q-.72-.102-1.484.096-.763.199-1.05.38-.287.182-.55.51t-.383.511-.22.774-.02 1.01q.084.418.369.88.284.462.62.794.338.332.81.59.471.26 1.05.39t1.26.173 1.3-.064.955-.264q.336-.155.818-.517t.73-.732q.249-.37.306-.51.058-.14.203-.238.148-.097.547-2.953m-1.183 260.972q-.458-.674-1.11-1.305-.65-.633-1.613-1.302-.962-.67-1.043-.748-.082-.08-1.299-.349-1.215-.27-2.058-.14-.842.127-1.004.2-.162.072-.553.51-.391.437-.56.877-.168.439-.18.837-.02.398-.02.555.001.157.272.81.27.652.804 1.233.535.58 1.122.907.587.325 1.185.472t1.169.234q.57.089 1.936-.142 1.365-.23 2.102-.567.738-.335 1.28-.829.541-.494 2.413-3.42m255.128-256.586q-.202-.273-.636-1.263t-.74-1.54-.458-.735q-.15-.185-.797-.847-.646-.66-1.06-.83t-.718-.192-.58.024-.88.727-.795 1.186-.221.845q-.032.34.084 1.106.116.765.233 1.004.118.24.359.533t1.044.897 1.896.92 1.356.358q.264.042.703.046.44.004 2.244-.153m.842 257.282-.605-.591-.116-.427q-.056-.157-.685-1.288-.627-1.131-1.307-1.811t-.954-.849-.48-.243q-.208-.076-1.106-.149t-1.469.2q-.571.275-.602.326l-.814 1.095q-.064.051-.327 1.619t0 2.448q.265.88.492 1.203.228.323.593.656.366.333 1.015.688.65.355 1.624.44.972.086 1.53-.005.558-.093 1.362-.615t2.88-2.764m183.437-263.296-.112-.048q-.917-.558-1.18-.647-.264-.089-.678-.236-.413-.147-1.133-.247-.72-.101-1.483.096-.764.199-1.05.38-.288.182-.55.51t-.384.511-.22.774q-.1.59-.02 1.01.084.417.37.88.284.462.62.794.337.332.809.591t1.05.39 1.261.173 1.3-.065.954-.263.819-.518.73-.732.306-.51.203-.238q.148-.097.547-2.952m-1.183 260.971q-.458-.673-1.11-1.306-.651-.631-1.613-1.3-.962-.67-1.044-.749-.082-.08-1.298-.349-1.216-.27-2.058-.14-.842.128-1.005.2t-.553.51-.559.877-.18.837q-.02.399-.02.556 0 .156.272.808.27.653.804 1.234.534.58 1.122.907.587.326 1.184.472.599.147 1.17.235.57.088 1.935-.143t2.103-.566q.738-.336 1.28-.83.54-.493 2.413-3.418m255.127-256.587q-.202-.274-.635-1.264-.434-.99-.74-1.54-.308-.55-.459-.734-.15-.186-.796-.847-.646-.662-1.061-.83-.415-.17-.718-.192-.303-.024-.579.023-.276.046-.88.728-.605.682-.795 1.185-.19.505-.221.845-.032.34.084 1.106.116.765.232 1.004.118.24.36.533.241.293 1.044.898.802.605 1.895.92 1.094.315 1.357.357.264.042.703.046t2.243-.153m.843 257.282-.605-.59-.116-.427q-.056-.157-.685-1.289-.628-1.13-1.307-1.81-.68-.681-.954-.85t-.481-.243-1.105-.148-1.47.2-.602.325l-.814 1.095q-.064.051-.326 1.62-.263 1.567 0 2.447.265.88.492 1.203.228.324.593.656.365.333 1.015.688.65.356 1.623.44.973.087 1.53-.005.559-.093 1.363-.614.804-.523 2.879-2.765M76.58 353.567l-.02.32q-.043.421 1.125 4.837 1.169 4.416 1.991 7.173t1.453 5.272q.631 2.516 1.842 8.074.056.08.273.687"/>
        <path stroke="#e66465" stroke-width="2.682" d="M74.45 356.18q.693-1.98 1.796-3.538 1.103-1.559 2.718-2.868 1.615-1.31 2.832-1.766 1.219-.458 2.036-.538.816-.08 1.492.01t3.539 2.694 3.194 3.841.308 2.038q-.024.8-.61 2.26-.585 1.46-2.134 3.365-1.55 1.905-2.432 2.776t-1.53 1.38-1.115.764q-.066.008.16.461m12.583 13.745q-.451-.527-1.116-1.008-.666-.482-1.02-.797-.352-.316-.936-1.052t-.924-1.7-.334-1.602q0-.637.222-1.277.217-.639.918-1.227.701-.587 1.451-.763.75-.175 1.473-.087.723.089 1.326.516.604.429 1.111 1.23.508.8.715 1.466t.267 1.341q.06.677-.064 1.557t-.403 1.44-.78 1.18-3.837 1.936M73.678 86.596l.026.258q.024.371 1.69 4.98 1.665 4.608 2.665 7.315t1.78 5.028 2.01 6.92q.06.017-1.114-1.337"/>
        <path stroke="#e66465" stroke-width="2.682" d="M71.348 89.014q.022-.073.14-.934.12-.863.358-1.608.239-.744 1.127-2.007.887-1.263 2.05-2.12 1.164-.857 2.239-1.237t2.175-.475 1.991.046q.89.14 1.8.614t1.889 1.755 1.565 3.797.5 4.004-.561 2.983-1.611 2.902-2.161 2.015-1.669.762q-.645.155-2.469.094m17.219 11.996q1.775-5.427 2.023-6.65t.318-1.649-.236-.486q-.146.374.054 1.69t.554 2.407q.356 1.09.984 2.467.63 1.379 1.661 2.816.23.152.7.707m303.236-46.836q.036.07.028.505 0 .715.937 3.467.93 2.752 2.402 6.976 1.474 4.224 2.661 9.09t1.842 8.597q.058.068-.76-2.569"/>
        <path stroke="#e66465" stroke-width="2.682" d="M404.638 68.922q.07-.096.52-1.331.451-1.236.828-1.912t.626-1.021q.25-.347 1.255-1.218 1.006-.872 2.295-1.397t2.075-.63q.788-.105 1.726-.056t1.473.161q.535.114 2.412 1.172 1.876 1.06 2.987 2.256 1.11 1.195 1.852 2.58.74 1.385 1.023 3.202t.136 2.932-.782 2.471q-.638 1.356-2.105 2.595-1.469 1.241-2.605 1.637t-1.718.444-1.023-.016-.657-.17-.405-.262q-.19-.159-.306-.32-.114-.163-.367-.57m15.834 15.138q.098-.203-.168-.805.166-1.138.707-1.965.54-.826 1.156-1.23t1.119-.446.703-.032q.198.01.715.321.516.312 1.02 1.2t.697 2.287-.21 3.78q-.404 2.38-.67 3.908-.268 1.527-.145 2.468.356.114 2.753.045t9.741-1.116M410.968 343.13l-.068.487q-.04.213 1.888 9.895t5.298 19.966q.106.04-.046-.07m-6.193-27.664q.05-.112.12-.788.072-.676.292-1.328.221-.652.37-.968.148-.316.42-.696.272-.378.662-.755.39-.375.743-.61.352-.233.635-.415t1.988-.498 2.845-.185 2.275.622 2.015 1.196 1.606 1.92 1.01 2.906.067 3.208q-.217 1.519-1.123 3.21-.906 1.69-2.099 2.816-1.192 1.126-2.459 1.709-1.266.583-2.247.7t-1.634-.046-1.335-.637l-.57-.286m22.252 5.998q.102-.063.328-.423.225-.36.949-1.07.723-.711 1.686-1.36.962-.65 1.93-.953.968-.304 1.753-.237t1.165.218.777.518.748 1.302.317 1.982-.371 1.973q-.337.925-.54 1.31-.202.384-.37.47.104-.092.297-.177.192-.083.567-.118.374-.033 1.214.036.838.07 2.045.494 1.205.425 1.965.919t1.262 1.107.673 1.013.194.84q.022.44-.12.947t-.48 1.05q-.337.542-1.223 1.258-.887.715-2.331 1.244-1.444.53-2.817.62-1.372.09-2.254-.086-.883-.176-1.463-.456t-1.135-.697-1.338-1.517l-.472-.722m82.517-13.174-.034.714q.108.647.68 2.9t1.248 4.762 1.72 6.087 1.674 5.457 1.197 3.252.856 1.964.637 1.152q.084.012-1-1.618"/>
        <path stroke="#e66465" stroke-width="2.682" d="M523.3 361.164q.03-.817.733-2.808t1.47-2.988 1.349-1.365 1.072-.498 1.824.132q1.332.262 2.883 1.386t2.287 2.062q.737.94 1.203 2.031.465 1.092.577 2.34t-.393 2.826-1.66 2.94q-1.157 1.363-2.184 1.989t-1.857.821-1.296.163-.813-.112-.713-.313q-.368-.234-.59-.426-.223-.192-.497-.443m25.501 12.191q-.048-.559-.466-1.645t-1.138-2.052-1.641-1.552q-.922-.586-2.437-.568-1.515.02-2 .43t-.824 1.637-.166 2.4.95 2.377q.776 1.203 1.671 1.797.895.595 1.89.756.994.16 1.837-.054.844-.215 1.752-1.012.909-.797 2.889-5.415M526.834 92.996q.108.494.33 1.401.224.907.64 2.033.415 1.127.789 1.915t1.51 3.052 2.583 5.599 2.148 5.308 1.6 5.393q.042.01-.452-.997"/>
        <path stroke="#e66465" stroke-width="2.682" d="M527.127 94.251q.213-.383.731-1.364.518-.98 1.206-1.682.686-.702 1.643-1.24.957-.537 2.285-.733t2.329-.018 1.81.696 1.576 1.414q.765.896 1.461 2.928t.755 3.755q.06 1.724-.298 3.324-.357 1.6-1.226 3.053-.87 1.452-1.466 2.092-.595.64-1.462 1.187-.867.546-1.987.805-.215-.042-1.165-.044m14.141 7.596q.113-.396.468-1.567t.531-2.055.238-1.348.076-.665q.02-.204 0-.33-.024-.129-.058-.122t.122.663q.158.657.944 2.313t4.798 7.9m298.82 245.838q.034.339.254 1.128.22.79.642 1.836.421 1.048 1.367 3.332t2.671 7.559 2.445 8.094 1.131 4.918q.036 0-1.054-1.23"/>
        <path stroke="#e66465" stroke-width="2.682" d="M853.891 370.999q.223-1.09.522-2.017.3-.928.87-1.78t1.342-1.452q.77-.599 1.75-.868.98-.268 2.331-.073 1.351.194 2.585 1.05t1.739 1.445 1.046 1.507.985 2.61.368 3.462-.543 3.07-1.031 2.118-1.194 1.342-1.124.755q-.495.23-.798.307-.303.078-.643 0l-.375.039m12.877 5.362.295-.028q1.021-.189 1.393-.206.373-.018.887.069.514.085.844.323.33.237.453.396.124.16.383.695.26.534.524 1.91.264 1.374.272 3.143 0 1.77.192 2.81.048.029 2.494-.464 2.445-.491 7.602-2.306m-43.264-310.37.214.26q.609.88 2.971 5.926t3.383 8.142q1.02 3.096 1.38 4.804t.533 3.41q.172 1.7.192 4.97-.042-.08-.389-.516"/>
        <path stroke="#e66465" stroke-width="2.682" d="M847.3 87.14q.17-1.091.448-1.828.28-.737.525-1.104.245-.366 1.07-.977.824-.61 2.354-.94t3.376-.035 3.461 1.173 2.732 2.053q1.117 1.176 1.697 2.781t.516 3.259q-.066 1.653-.556 2.868t-1.506 2.35-2.969 2.04q-1.953.902-4.37 1.37m17.47 8.322q.213-.587.35-.896.136-.308.355-.65.22-.341.457-.583.236-.24.427-.454.192-.213 1.513-1.109t2.557-1.115 1.894-.064.957.33.731.933.58 1.453.14 1.6q0 .904-.042 1.507-.036.603-.086 1.034l1.17.453q.966.374 1.711.705.744.332 1.142.683t.557.645.222.682-.062.987-1.213 1.45-2.956 1.294-3.414.293-2.829-.607-2.324-1.217l-.771-.677"/>
    </g>
</svg>
