<svg xmlns="http://www.w3.org/2000/svg" xml:space="preserve" viewBox="0 0 960 480">
    <g fill="none" stroke-linecap="round" stroke-linejoin="round">
        <path stroke="#e66465" stroke-width="2.511" d="M215.446 387.765q1.42-1.826 4.117-4.817 2.695-2.99 9.177-9.708 6.482-6.717 8.16-8.382 1.676-1.664 5.338-5.166t8.242-7.529q4.58-4.025 10.547-9.03 5.967-5.002 9.133-7.58 3.164-2.58 6.496-5.15t5.344-4.079q2.01-1.508 7.736-5.69 5.727-4.181 9.041-6.51 3.314-2.33 7.457-5.1 4.143-2.771 7.808-5.161 3.666-2.391 11.986-7.486t14.32-8.607q6.002-3.512 8.851-5.153t9.968-5.57q7.12-3.93 11.055-6.071 3.937-2.142 13.592-7.222t13.733-7.176q4.078-2.095 15.106-7.442t20.305-9.564 15.369-6.835 12.256-5.091 15.118-5.831 13.714-5.035 12.606-4.346 13.931-4.631 13.614-4.29q7.527-2.326 12.367-3.755 4.84-1.43 17.812-5.147 12.971-3.717 21.308-6.023t12.568-3.453 17.348-4.497 33.759-7.77 31.027-6.333q10.383-1.915 14.904-2.695 4.52-.78 12.229-2.051 7.709-1.27 17.531-2.755 9.823-1.485 15.153-2.244 5.332-.759 8.134-1.142 2.8-.382 13.343-1.843 10.541-1.461 23.27-3.255"/>
        <path stroke="#f6f7ef" stroke-width="1.255" d="M337.286 293.179q.025-.427-.067-1.062t-.243-1.203-.352-1.116q-.2-.546-.547-1.123t-.863-1.068q-.515-.492-1.303-.757t-1.484-.243-1.454.393q-.756.372-1.14.718t-.873 1.091-.768 1.562-.234 2.237.305 1.967q.26.545.88 1.123.622.578 1.357.863t1.371.311 1.077-.05 1.215-.475q.775-.399 1.64-1.313t2.294-4.799m223.681-93.232.006-.311-.048-.3q-.136-.624-.159-.743-.023-.12-.292-1.005-.27-.886-.456-1.303-.188-.417-.535-.928t-1.063-1.122-1.461-.846q-.747-.236-1.266-.208-.52.027-.974.171-.452.144-1.614 1.455t-1.572 2.67-.45 1.99.069 1.201q.108.57.396 1.123t.663 1.006q.375.452.8.774t.717.466 1.084.272q.793.128 1.388.045t1.617-.607q1.024-.526 1.775-1.264t1.173-1.331 1.062-1.612m-230.139 93.127-85.041-142.697m5.322 21.062-5.471-20.977m-.756-.836 15.435 12.628M336 295.479l84.989 142.728m-5.315-21.064 5.463 20.98m.757.837-15.431-12.635m149.265-233.546L508.657 33.47m-.057 21.726-.108-21.68m-.525-.996 11.828 16.056M557.42 196.27l47.354 159.224m.017-21.724.147 21.679m.528.996-11.857-16.036"/>
        <path stroke="#9198e5" stroke-width="2.511" d="m249.525 144.976-.61-.628-.736-1.463q-.18-.279-.665-1.046t-1.641-1.242-1.972-.463q-.817.013-1.796.503t-1.27.94q-.29.45-.4.85-.108.402.053 1.065.16.662.402.977.24.316.388.49.147.175.988.744.843.568 1.79.83.949.261 1.603.227.655-.034.891-.115.236-.08.727-.634.491-.553.631-1.144t.16-.91-.105-.586-.34-.499q-.214-.23-.425-.306-.212-.074-.342-.091t-.418.084q-.287.1-.523.3-.236.201-.295.35-.06.148-.048.262.01.114.07.252.058.138.213.373.156.235.128.303-.028.069 1.229 1.049l.296.103M509.863 32.46q-.074-.1-.305-.374-.23-.275-.584-.659-.353-.383-.672-.602-.318-.219-1.483-.704-1.164-.484-1.999-.535-.835-.05-1.225.055t-.793.343q-.402.237-.738.724t-.368.783-.037.526q-.007.23.408.714.416.484.857.77.442.285 2.195.585 1.754.3 2.261.145.508-.154.84-.529.332-.374.427-.622.095-.247.059-.43-.036-.18-.092-.305-.057-.124-.229-.279t-.425-.295-.627-.108-.56.168q-.183.135-.24.253t-.03.246q.026.13.321.344.295.215 1.92.616.222-.09.819-.023m-81.159 411.04q-.159-.267-.619-1.155-.459-.886-.95-1.592-.491-.705-1.092-1.109-.601-.403-1.148-.488t-.99.185-.67.796q-.229.528-.225.897 0 .37.179.732.177.362.807.73.631.369 1.19.45t.846-.026q.287-.108.631-.344.345-.237.536-.443.19-.205.955-.757m181.629-78.405q-.047-.131-.04-.434.008-.304-.076-.99-.083-.688-.192-1.053-.108-.365-.204-.565t-.364-.45q-.27-.248-.433-.346t-.5-.217q-.338-.12-.773-.122-.437 0-.668.063-.23.066-.508.318-.277.253-.475.721-.2.468-.218.958t.116.87.44.662.591.393.504.103.431-.115.543-.537.533-1.104q.047-.095.1-.533m-177.675 79.207 169.814-76.91M252.823 139.883 498.363 33.23m15.07-3.965 68.347-19.83m33.052 349.001 55.556-17.881M237.004 149.238l-35.348 26.299M420.029 446.73l-30.272 19.48"/>
        <path stroke="#f6f7ef" stroke-width="1.255" d="M306.147 325.562q-.145.249-.33.656-.076.244.33 7.341.404 7.098 1.015 11.413.612 4.316.905 5.884.292 1.569.505 2.375.212.806.557 1.949"/>
        <path stroke="#f6f7ef" stroke-width="1.255" d="m306.085 325.681.809-.877q1.273-.735 3.318-1.283 2.046-.549 3.956-.219t2.854.75 2.348 1.466 2.32 2.259 1.304 2.459.335 2.755-.713 2.85-2.717 3.117-8.7 3.78l-1.667.425m16.586 5.531q.059.211-.341.894-.105.248 3.132 10.314.1.007.661-1.2l.992-2.135q.43-.927.915-1.493t1.037-.861q.553-.296 1.084-.32.533-.023.848.05.315.072.652.243.336.17 1.447 1.814 1.112 1.643 2.164 5.334l.392 1.242m246.438-164.171q.015.503.581 5.435.567 4.932 2.237 16.132.032.04-.054.329"/>
        <path stroke="#f6f7ef" stroke-width="1.255" d="M585.756 199.305q.131-.06 1.013-.778.884-.718 2.835-1.556 1.95-.84 3.245-1.03 1.294-.192 2.396-.046t1.62.365 1.32 1.18 1.151 2.677-.014 3.396q-.36 1.682-.804 2.619-.443.936-1.52 2.32-1.078 1.384-2.23 2.291-1.152.908-2.583 1.485-1.43.576-2.199.647-.767.07-1.094.073-.327.006-.625-.11-.298-.115-.532-.258t-.954-.521m14.443 4.848q.093.22.08.403-.013.182 0 .2.011.018.07.597.058.578.63 1.948.571 1.37.984 2.066.412.696.69 1.085.278.39.595.684.13-.108.613-1.014.48-.907.865-1.57.384-.663.796-1.125t1.09-.743 1.06-.277q.383.007.61 0 .227-.005.886.312.658.315 1.035.647.377.33.705.724t.472.62l.303.475q.158.249.667 1.795.508 1.546.66 2.314m4.97-4.902q.556-.38 6.259-2.038"/>
        <path stroke="#f6f7ef" stroke-width="1.255" d="M620.807 217.026q.3.6 2.143 7.95m12.144-4.675.169-.385.256-.42q.107-.096.757-1.089.65-.992 1.115-1.576.074.317.136.63.062.314.37 2.209.307 1.894 1.21 5.524l.335 1.19"/>
    </g>
</svg>
