<svg xmlns="http://www.w3.org/2000/svg" xml:space="preserve" viewBox="0 0 960 480">
    <g fill="none" stroke-linecap="round" stroke-linejoin="round">
        <path stroke="#f6f7ef" stroke-width=".786" d="m80.24 227.716 8.456-.112m5.224-.07 4.677-.062m5.233-.07 3.299-.044m5.298-.071 5.397-.072m5.135 5.391.007 2.207m.018 5.264.012 3.5m.018 5.257.016 4.657m.018 5.213.05 14.828m.019 5.228.016 4.751m.018 5.226.011 3.243m.018 5.225.034 9.856m55.534-36.947.056 3.287m.09 5.217.057 3.28m.09 5.222.072 4.196m.09 5.216.204 11.803m-5.379-42.981-5.317.083m-5.237.081-4.246.066m-5.221.081-5.88.091m-5.241.082-7.422.115m-5.254.082-14.526.225m-5.228.082-4.53.07m-5.207.081-5.398.084m-5.241.081-9.255.144m327.143-155.658 8.456-.112m34.49 71.5.028 7.957m56.003-9.695.19 10.969m-89.328-41.677-9.255.144m294.798-41.553 8.457-.113m34.49 71.501.027 7.957m56.004-9.695.19 10.968m-89.328-41.676-9.255.144m133.103-77.189-7-.008m-4.49-.006-6.118-.008m-4.637-.005-6.755-.009m-4.671-.005-6.818-.009m-4.563-.006-6.593-.007m-4.546-.006-6.423-.008m-4.579-.006-7.74-.01m-4.609-.005-8.334-.01m-4.602-.006-7.373-.009m-4.6-.006-7.65-.01m-4.589-.005-4.245-.005m-4.577-.005-6.555-.009m135.758 117.448.009-7.541m.005-4.622.004-3.528m.005-4.561.006-5.386m.005-4.622.007-6.008m.005-4.648.01-8.443m.005-4.595.007-6.779m.006-4.626.007-6.176m.005-4.586.006-5.741m.005-4.586.006-5.043m.005-4.591.007-6.081m.006-4.595.007-6.807M408.28 363.387l8.458-.113m34.483 69.601.034 9.857m55.989-10.53.204 11.803m-89.328-41.677-9.254.144m56.304-178.549-4.62-.045m-4.25-.042-2.953-.029m-4.259-.041-5.51-.054m-4.269-.042-5.054-.05m-4.25-.04-6.554-.065m-4.305-.042-10.657-.105m61.449-3.572.007-3.377m.009-4.259.012-5.543m.009-4.261.012-5.661m.009-4.254.022-10.16m337.645 149.755-.025 5.901m-.02 4.906-.028 6.871m-.022 5.158-.03 7.141m-.021 5.024-.024 5.785m-.019 4.65-.044 10.412m-4.376-61.349-7.097.034m-4.355.021-5.384.024m-4.414.021-10.589.05m-4.359.021-9.108.043m-4.419.021-10.286.048m-4.383.021-12.07.056" opacity=".5"/>
        <path stroke="#e66465" stroke-width="1.573" d="m124.53 228.144.026-.194q.022-.166.02-.346-.003-.18-.009-.258t-.09-.314q-.083-.237-.247-.485-.164-.247-.362-.424-.197-.178-.45-.297-.253-.12-.705-.147-.452-.028-.75.064-.297.092-.569.282t-.398.345q-.127.154-.216.325-.089.17-.145.34-.056.167-.086.6t.018.699.124.437q.076.17.122.238.046.07.266.304.22.235.44.386.218.151.563.237.344.087.546.07.201-.016.307-.041t.55-.348.484-.373l.111-.136q.072-.087.584-2.062m56.305 39.004q-.016-.036-.03-.172t-.073-.542-.146-.665-.173-.395-.206-.269-.297-.241-.261-.13q-.084-.024-.325-.064t-.549-.006-.683.245-.568.507q-.195.295-.24.447t-.057.54.078.656.3.525.5.434q.293.178.603.229.31.05.503.022l.213-.032q.02-.004.152-.062.13-.059.417-.395.287-.337.64-.997m-93.765 36.751 87.135-34.065m-86.481 34.194 31.89-69.947m-7.956 9.36 7.92-9.154m.185.018-1.906 11.363m46.796 23.695 9.702.226m.433.317-6.632 5.786m284.17-162.657.025-.194q.022-.166.02-.346t-.008-.258-.09-.314-.247-.485-.362-.424q-.198-.178-.45-.297-.253-.12-.705-.147-.453-.028-.75.064-.297.091-.569.282t-.398.345-.216.325q-.089.17-.146.339-.056.168-.085.6-.03.433.018.7.047.266.123.437.077.17.123.238.046.07.266.304.22.235.439.386.219.15.563.237.345.086.546.07t.308-.041.55-.348.483-.373l.112-.136q.071-.087.583-2.062m56.305 39.004q-.016-.036-.03-.172t-.072-.542q-.06-.407-.147-.665-.088-.258-.172-.395-.084-.136-.206-.269t-.298-.241-.26-.131-.326-.063-.548-.006-.683.245q-.375.21-.569.507-.194.295-.24.447t-.057.54.079.656.3.525q.208.255.5.434.292.178.602.229.31.05.503.022l.214-.032q.02-.004.152-.063.13-.058.417-.394.287-.337.64-.997m-93.765 36.751 87.135-34.065m-86.481 34.194 31.89-69.947m-7.956 9.36 7.92-9.155m.185.019-1.907 11.363m46.796 23.694 9.702.227m.433.316-6.631 5.787"/>
        <path stroke="#9198e5" stroke-width="1.573" d="m454.278 113.931 3.993 2.623m3.691 2.424 4.776 3.137m3.673 2.412 3.6 2.364m3.761 2.469 4.595 3.02m3.679 2.415 3.551 2.332m3.673 2.413 9.351 6.141m-6.773-1.304 6.956 1.524m-4.472-6.118 4.758 6.171"/>
        <path stroke="#e66465" stroke-width="1.573" d="m130.862 212.637-.104.293-.155.412q-.153.439-.557 1.895-.405 1.457-.777 3.229-.372 1.771-.788 4.4-.004.087-.011.34"/>
        <path stroke="#e66465" stroke-width="1.573" d="m130.694 212.81.262.208q.01.035.31.642.3.606.617 1.473t.704 2.084.71 2.036.575 1.278q.252.46.418.68.165.219.22.288.056.068.086.115.028.046.016.084-.011.039-.013.016t-.037-.174"/>
        <path stroke="#e66465" stroke-width="1.573" d="m129.83 219.339.13.041q.17.06 4.887-.078m51.663 33.388.205.291q.075.409.407 2.156t.495 2.9q.162 1.156.223 2.304.006 0 .009-1.162"/>
        <path stroke="#e66465" stroke-width="1.573" d="M186.49 252.996q.348-.255.695-.53.347-.276.385-.295.037-.02.5-.243.463-.222 1.256-.434.793-.211 1.236-.218t.732.07.417.155q.125.077.302.508.177.432.1.875-.079.442-.606 1.346-.526.905-1.103 1.743.201.038.374.039.173 0 .303-.024t.459-.068q.33-.043 1.162-.024.832.02 1.458.226.626.205 1.036.506.409.301.607.642.198.34.24.72t-.066.752-.293.614q-.186.242-.289.334t-.357.272-1.336.569-2.387.653q-1.305.262-2.098.319-.012.028 1.43-.447M458.59 96.064l-.104.294-.155.411q-.153.44-.558 1.896-.404 1.457-.776 3.229-.372 1.771-.788 4.4-.004.087-.011.34"/>
        <path stroke="#e66465" stroke-width="1.573" d="m458.421 96.237.263.209q.01.035.31.642.3.606.617 1.473t.703 2.084q.388 1.217.711 2.036.323.82.575 1.278.252.46.417.68.165.219.221.288t.085.115.017.084-.013.016q-.002-.022-.037-.175"/>
        <path stroke="#e66465" stroke-width="1.573" d="m457.557 102.766.131.042q.17.06 4.886-.078m51.664 33.388.205.291q.075.409.407 2.156t.494 2.9q.163 1.156.224 2.304.006 0 .009-1.162"/>
        <path stroke="#e66465" stroke-width="1.573" d="M514.217 136.424q.349-.255.696-.53.347-.276.384-.295.038-.02.5-.243.464-.223 1.257-.434t1.235-.218.733.07q.29.078.416.155t.303.508.099.875-.605 1.346-1.103 1.743q.2.038.373.039.173 0 .303-.024t.46-.068q.33-.043 1.161-.024.833.02 1.459.226.626.205 1.035.506.41.301.608.642.198.34.24.72.04.38-.066.752t-.294.614q-.186.242-.288.334-.103.093-.358.272-.254.179-1.335.569-1.082.39-2.387.653-1.305.262-2.098.319-.013.028 1.43-.447"/>
        <path stroke="#9198e5" stroke-width="1.573" d="m471.51 130.463-.147-.227q-.137-.21-.304-.405-.167-.194-.452-.404-.284-.208-.672-.348t-.777-.164q-.39-.023-.795.053-.406.077-.824.308-.417.232-1.066.967-.65.736-.95 1.365t-.375 1.049.061 1.415.434 1.692.527 1.024.43.532.638.49 1.199.57 1.197.37.844.088.774-.1.586-.228 1.758-1.745m-19.318-22.834 3.993 2.623m3.691 2.424 4.776 3.137m3.673 2.412 3.6 2.364m3.761 2.469 4.595 3.02m3.679 2.415 3.551 2.332m3.673 2.413 9.351 6.141m-4.289-5.898 4.758 6.171"/>
        <path stroke="#e66465" stroke-width="1.573" d="m514.238 136.118.205.291q.075.409.407 2.156t.494 2.9q.163 1.156.224 2.304.006 0 .009-1.162"/>
        <path stroke="#e66465" stroke-width="1.573" d="M514.217 136.424q.349-.255.696-.53.347-.276.384-.295.038-.02.5-.243.464-.223 1.257-.434t1.235-.218.733.07q.29.078.416.155t.303.508.099.875-.605 1.346-1.103 1.743q.2.038.373.039.173 0 .303-.024t.46-.068q.33-.043 1.161-.024.833.02 1.459.226.626.205 1.035.506.41.301.608.642.198.34.24.72.04.38-.066.752t-.294.614q-.186.242-.288.334-.103.093-.358.272-.254.179-1.335.569-1.082.39-2.387.653-1.305.262-2.098.319-.013.028 1.43-.447"/>
        <path stroke="#9198e5" stroke-width="1.573" d="m471.51 130.463-.147-.227q-.137-.21-.304-.405-.167-.194-.452-.404-.284-.208-.672-.348t-.777-.164q-.39-.023-.795.053-.406.077-.824.308-.417.232-1.066.967-.65.736-.95 1.365t-.375 1.049.061 1.415.434 1.692.527 1.024.43.532.638.49 1.199.57 1.197.37.844.088.774-.1.586-.228 1.758-1.745m-19.318-22.834 3.993 2.623m3.691 2.424 4.776 3.137m3.673 2.412 3.6 2.364m3.761 2.469 4.595 3.02m3.679 2.415 3.551 2.332m3.673 2.413 9.351 6.141m-6.773-1.304 6.956 1.524m-4.472-6.118 4.758 6.171"/>
        <path stroke="#9198e5" stroke-width="1.573" d="m471.51 130.463-.147-.227q-.137-.21-.304-.405-.167-.194-.452-.404-.284-.208-.672-.348t-.777-.164q-.39-.023-.795.053-.406.077-.824.308-.417.232-1.066.967-.65.736-.95 1.365t-.375 1.049.061 1.415.434 1.692.527 1.024.43.532.638.49 1.199.57 1.197.37.844.088.774-.1.586-.228 1.758-1.745m-19.318-22.834 3.993 2.623m3.691 2.424 4.776 3.137m3.673 2.412 3.6 2.364m3.761 2.469 4.595 3.02m3.679 2.415 3.551 2.332m3.673 2.413 9.351 6.141m-4.289-5.898 4.758 6.171"/>
        <path stroke="#9198e5" stroke-width="1.573" d="m471.51 130.463-.147-.227q-.137-.21-.304-.405-.167-.194-.452-.404-.284-.208-.672-.348t-.777-.164q-.39-.023-.795.053-.406.077-.824.308-.417.232-1.066.967-.65.736-.95 1.365t-.375 1.049.061 1.415.434 1.692.527 1.024.43.532.638.49 1.199.57 1.197.37.844.088.774-.1.586-.228 1.758-1.745m-57.783 51.93 48.342 31.75m-6.772-1.304 6.956 1.524m-4.473-6.118 4.758 6.171m-28.606-13.472q-.009-.016-.146-.227-.137-.21-.304-.405t-.451-.404-.673-.348-.778-.164-.794.053-.823.308-1.067.967q-.65.736-.95 1.365t-.375 1.049q-.076.42.06 1.415.138.995.435 1.691t.527 1.025.43.532.638.49 1.199.57q.757.286 1.197.37t.845.088.774-.1.585-.228 1.758-1.745m-22.292-24.853 48.342 31.75m-4.289-5.898 4.758 6.171"/>
        <path stroke="#9198e5" stroke-width="1.573" d="M436.018 207.246q-.009-.016-.146-.227-.137-.21-.304-.405t-.451-.404-.673-.348-.778-.164-.794.053-.823.308-1.067.967q-.65.736-.95 1.365t-.375 1.049q-.076.42.06 1.415.138.995.435 1.691t.527 1.025.43.532.638.49 1.199.57q.757.286 1.197.37t.845.088.774-.1.585-.228 1.758-1.745m-22.292-24.853 48.342 31.75m-6.772-1.304 6.956 1.524m-4.473-6.118 4.758 6.171"/>
        <path stroke="#9198e5" stroke-width="1.573" d="M436.018 207.246q-.009-.016-.146-.227-.137-.21-.304-.405t-.451-.404-.673-.348-.778-.164-.794.053-.823.308-1.067.967q-.65.736-.95 1.365t-.375 1.049q-.076.42.06 1.415.138.995.435 1.691t.527 1.025.43.532.638.49 1.199.57q.757.286 1.197.37t.845.088.774-.1.585-.228 1.758-1.745m-22.292-24.853 48.342 31.75m-4.289-5.898 4.758 6.171"/>
        <path stroke="#9198e5" stroke-width="1.573" d="M436.018 207.246q-.009-.016-.146-.227-.137-.21-.304-.405t-.451-.404-.673-.348-.778-.164-.794.053-.823.308-1.067.967q-.65.736-.95 1.365t-.375 1.049q-.076.42.06 1.415.138.995.435 1.691t.527 1.025.43.532.638.49 1.199.57q.757.286 1.197.37t.845.088.774-.1.585-.228 1.758-1.745m33.415 11.146-.023-.102q.043-.357.056-.669t-.03-.559-.15-.472q-.11-.225-.185-.306-.074-.081-.322-.243-.247-.161-.88-.085-.632.075-.975.23-.344.156-.506.253-.162.098-.337.238t-.277.268-.273.569-.17.82q.003.377.053.547.05.169.13.31.082.14.405.388.322.248.68.353.357.105.99.067.635-.036.846-.122t1.036-1.485"/>
        <path stroke="#e66465" stroke-width="1.573" d="m747.641 109.104.025-.193q.022-.167.02-.347 0-.18-.009-.257-.006-.078-.09-.315-.083-.236-.247-.484t-.361-.425-.45-.296q-.254-.12-.706-.148t-.75.064-.568.282q-.272.19-.399.345-.126.155-.216.326-.089.17-.145.339-.056.168-.086.6-.029.433.018.7.048.266.124.436.077.17.122.24.046.068.266.303t.44.386q.218.15.563.237.344.086.546.07.201-.016.308-.041.105-.026.549-.349t.484-.372l.111-.137q.072-.086.584-2.06m56.305 39.002q-.016-.036-.03-.171-.013-.136-.072-.542-.06-.407-.147-.665-.088-.259-.172-.395t-.206-.27q-.122-.132-.298-.24t-.26-.13q-.085-.024-.326-.064-.24-.04-.549-.006-.307.034-.682.245t-.57.506q-.194.296-.239.448t-.057.54.079.656.299.525.5.433q.293.179.603.23.31.05.503.022l.213-.032q.021-.004.152-.062.13-.059.418-.395.286-.337.64-.997m-93.766 36.751 87.135-34.065m-86.481 34.194 31.89-69.947m-7.956 9.359 7.92-9.154m.185.018-1.906 11.364m46.796 23.694 9.702.227m.433.317-6.631 5.786"/>
        <path stroke="#9198e5" stroke-width="1.573" d="M843.41 70.815q-.025-.145-.056-.448-.03-.302-.086-.524-.055-.221-.099-.339-.043-.118-.206-.383t-.336-.41-.391-.227-.537-.106l-.356-.025q-.036 0-.286.057-.25.06-.361.115-.112.055-.456.282-.345.225-.424.303-.08.079-.136.147t-.178.288-.195.694-.036.737.158.542.542.647.71.467.385.111.316-.007.333-.054q.115-.036.22-.088.107-.054.303-.192.195-.138.31-.248.116-.11.264-.339.148-.228.191-.298l.333-.536M710.092 183.198 838.162 73.75m-9.344 4.771 9.41-4.891m-.112.143-6.052 8.255"/>
        <path stroke="#e66465" stroke-width="1.573" d="m739.855 91.733-.104.293-.155.411q-.153.44-.558 1.896-.404 1.457-.776 3.229-.372 1.771-.789 4.4-.004.088-.01.34"/>
        <path stroke="#e66465" stroke-width="1.573" d="m739.687 91.906.262.208q.01.035.31.642.3.606.617 1.473.316.867.704 2.084.386 1.217.71 2.036.324.82.575 1.279.252.459.417.679.165.219.221.288t.085.115.017.085-.014.015q0-.023-.036-.174"/>
        <path stroke="#e66465" stroke-width="1.573" d="m738.822 98.435.131.041q.17.06 4.886-.078m65.781 35.253.206.29q.074.41.406 2.156.333 1.747.495 2.902.162 1.154.223 2.303.007 0 .009-1.163"/>
        <path stroke="#e66465" stroke-width="1.573" d="M809.6 133.956q.348-.254.696-.53.347-.275.384-.295t.5-.242q.464-.223 1.256-.434.793-.211 1.236-.219.442-.007.733.07.29.079.416.156.126.076.303.508.176.432.098.874-.077.443-.604 1.347t-1.103 1.742q.2.04.373.04t.303-.024.46-.068q.329-.044 1.161-.024t1.458.225q.627.206 1.036.507.409.3.607.642.198.34.24.72t-.066.751q-.107.373-.293.615t-.289.334-.357.271-1.336.57-2.387.653-2.097.319q-.013.028 1.43-.448"/>
        <path stroke="#9198e5" stroke-width="1.573" d="M848.48 57.143v.157l.005.198q-.011.083.116 1.1.129 1.016.273 2.03.144 1.015.227 1.548t.21 1.115.382 1.11q-.017.025.038-.187m-.9-7.016.138-.073q.39-.246.602-.35t.372-.162.48-.132.887-.098q.569-.024.933.022.365.045.878.205.512.16.88.377.366.217.596.446.23.227.36.416t.248.43.219.946q.1.703.037 1.21-.063.508-.229.968t-.354.766-.79.924-1.388 1.135-1.303.755-.905.348h-.04l-.315.093"/>
        <path stroke="#e66465" stroke-width="1.573" d="m809.62 133.651.206.29q.074.41.406 2.156.333 1.747.495 2.902.162 1.154.223 2.303.007 0 .009-1.163"/>
        <path stroke="#e66465" stroke-width="1.573" d="M809.6 133.956q.348-.254.696-.53.347-.275.384-.295t.5-.242q.464-.223 1.256-.434.793-.211 1.236-.219.442-.007.733.07.29.079.416.156.126.076.303.508.176.432.098.874-.077.443-.604 1.347t-1.103 1.742q.2.04.373.04t.303-.024.46-.068q.329-.044 1.161-.024t1.458.225q.627.206 1.036.507.409.3.607.642.198.34.24.72t-.066.751q-.107.373-.293.615t-.289.334-.357.271-1.336.57-2.387.653-2.097.319q-.013.028 1.43-.448"/>
        <path stroke="#e66465" stroke-width=".786" d="m750.467 105.35 7.27-2.821m4.258-1.653 8.152-3.164m4.205-1.632 6.593-2.558m4.327-1.678 5.384-2.09m4.29-1.664 9.117-3.539m4.331-1.681 7.367-2.858m4.153-1.612 16.08-6.24m-9.464 1.61 9.269-1.57m.153-.05-8.167 5.19"/>
        <path stroke="#e66465" stroke-width="1.573" d="m782.099 78.017.205.291q.075.409.406 2.156.333 1.747.495 2.901.162 1.155.223 2.303.007 0 .009-1.162"/>
        <path stroke="#e66465" stroke-width="1.573" d="M782.077 78.323q.35-.255.697-.53t.384-.295.5-.243q.464-.223 1.256-.434.793-.21 1.236-.218t.733.07.416.155.303.508q.176.432.099.875-.078.443-.605 1.346-.527.905-1.103 1.743.2.038.373.04.173 0 .303-.025.13-.024.46-.068.329-.043 1.161-.024.832.02 1.459.226.626.205 1.035.506t.607.642.24.72-.066.752-.293.614-.289.335-.357.27-1.336.57-2.386.653q-1.306.262-2.098.319-.013.028 1.43-.447"/>
        <path stroke="#e66465" stroke-width="1.573" d="m782.099 78.017.205.291q.075.409.406 2.156.333 1.747.495 2.901.162 1.155.223 2.303.007 0 .009-1.162"/>
        <path stroke="#e66465" stroke-width="1.573" d="M782.077 78.323q.35-.255.697-.53t.384-.295.5-.243q.464-.223 1.256-.434.793-.21 1.236-.218t.733.07.416.155.303.508q.176.432.099.875-.078.443-.605 1.346-.527.905-1.103 1.743.2.038.373.04.173 0 .303-.025.13-.024.46-.068.329-.043 1.161-.024.832.02 1.459.226.626.205 1.035.506t.607.642.24.72-.066.752-.293.614-.289.335-.357.27-1.336.57-2.386.653q-1.306.262-2.098.319-.013.028 1.43-.447M452.572 363.814l.025-.193q.022-.167.02-.347-.003-.18-.009-.258-.006-.077-.09-.314-.083-.236-.247-.484t-.361-.425-.451-.297-.705-.147-.75.064-.568.282-.399.345-.215.325q-.09.17-.146.34-.056.168-.086.6-.03.433.018.7t.124.436.122.239.266.304.44.386.563.237.546.07.308-.042.55-.348q.443-.322.482-.372l.112-.137q.072-.086.584-2.061m56.305 39.003q-.016-.036-.03-.171-.013-.136-.073-.543-.059-.406-.146-.664-.088-.259-.172-.395-.085-.137-.206-.27-.122-.133-.298-.24-.176-.109-.26-.131t-.326-.064q-.24-.04-.549-.006-.308.035-.682.246-.375.21-.57.506-.194.295-.239.448t-.057.54.079.656.3.525q.208.254.5.433.291.179.602.23.31.05.503.022t.213-.033.152-.062q.13-.058.418-.395.286-.336.64-.996m-70.025-46.696-.105.294-.154.411q-.154.44-.558 1.896-.405 1.457-.777 3.228-.372 1.773-.788 4.402l-.01.34"/>
        <path stroke="#e66465" stroke-width="1.573" d="m438.615 354.834.262.208q.01.035.31.642.301.606.618 1.473.316.867.703 2.084t.71 2.036.576 1.279.417.678.22.289q.057.069.086.115t.017.085-.014.015q-.001-.023-.037-.174"/>
        <path stroke="#e66465" stroke-width="1.573" d="m437.75 361.363.132.041q.169.06 4.886-.078m51.266 25.579.205.29q.075.41.407 2.156t.495 2.902q.162 1.154.223 2.302.006 0 .009-1.162"/>
        <path stroke="#e66465" stroke-width="1.573" d="M494.013 387.21q.35-.254.696-.53.348-.275.385-.295t.5-.242q.463-.223 1.256-.434t1.236-.219.732.07.417.155.302.509q.177.431.1.874-.079.443-.606 1.347-.526.904-1.102 1.742.2.039.373.04.173 0 .303-.024.13-.025.459-.068.33-.044 1.162-.024t1.459.225q.625.205 1.035.507.409.3.607.64.198.342.24.721.042.38-.066.752-.107.372-.293.614-.186.243-.289.335t-.357.271-1.336.57-2.387.652-2.098.32q-.012.027 1.43-.448"/>
        <path stroke="#9198e5" stroke-width="1.573" d="M462.87 420.368q.015-.282.019-.466t-.082-.534-.17-.54q-.086-.19-.213-.36t-.249-.288-.366-.254-.532-.194q-.287-.057-.652-.022-.365.033-.46.07-.097.037-.2.101-.104.065-.304.259t-.32.437-.142.488l-.023.27q-.002.023.067.278.07.255.242.525t.37.452q.199.18.355.26.155.078.3.12.146.042.18.046l.347.032q.311.027 1.266-.292m10.112-95.123q.022-.424-.041-.926-.063-.5-.145-.777t-.219-.498-.216-.296-.192-.175-.496-.266-.666-.19q-.282-.026-.786.103-.504.13-.748.396-.245.267-.386.577t-.157.94.061.862.136.345q.06.115.223.306.163.19.318.3.154.109.73.26.576.15.89.118t.72-.187 1.557-1.096m-58.589 112.887 53.746-110.208M414.34 438.692l43.287-17.714m-7.893 1.364 7.989-1.503m.081.104-6.28 4.47m12.239-92.643 4.51-4.747m.186.131-1.064 5.977m18.333-22.433q.036-.032.099-.19.063-.159.706-.78.642-.623 1.181-.989t.859-.514.728-.246q.408-.096.673-.075.263.021.452.11.189.09.386.604.197.515.184.927t-.075.704-.399.97-.64 1.105-.64.911q.513-.15.892-.24.378-.092.82-.12.44-.029 1.021.15.58.178.9.382.32.203.54.407t.403.466.287.614.094.858-.185.954q-.174.448-.354.713t-.32.423-.577.49-.607.416-.67.259q-.5.171-1.13.21-.63.04-1.34-.123-.71-.162-1.083-.334-.373-.17-.65-.35-.278-.18-.524-.408-.245-.229-.346-.375-.1-.145-.117-.208-.017-.061-.011-.093.006-.03.025-.05.02-.018.022-.024.003-.006.08-.011.078-.005.166.132m-2.816 6.7-.277-.031q.006.015.442-.064.103-.013 3.012-.217 2.91-.203 4.327-.315 1.416-.11 2.576-.21l1.932-.17q.773-.07 1.08-.125.49-.05.743-.068m-10.355 7.324-.018-.069-.064-.207q-.012-.209.006-.597.017-.389.136-.737.118-.347.31-.616.19-.268.923-.703.732-.434 1.665-.669.932-.234 1.702-.265.771-.03 1.188.054.417.085.64.188.224.104.458.328t.408.733.15 1.01-.135.87-.438.878q-.328.51-1.995 1.692-1.667 1.184-2.581 1.747t-1.273.858-.495.507-.113.442q.033.021.794.14t1.69.095l2.344-.062q1.414-.038 2.003-.078.588-.039.838-.07.25-.033.424-.104l.05-.017.095-.04m12.637-20.79q-.02.043-.061.107-.02.054-.182.877l-.35 1.76q-.186.939-.379 1.863t-.749 3.095q-.557 2.172-1.189 4.262-.633 2.09-1.199 3.898-.015-.004-.093-.523m4.589-15.147q.015.116.02.194.007.079.172.708.166.63.288 1.033.121.404.312.983t.305.882.361.82q.247.515.397.808l.295.574q.145.283.505 1.162.36.88.53 1.37.173.49.39.996.216.506.667 1.333.45.828.79 1.511.341.684.584 1.262v.038q-.002.017.01.158"/>
        <path stroke="#9198e5" stroke-width="1.573" d="m506.984 324.197.057.004.039.025.141.048q.08.033.87.063.789.03 1.552-.046.763-.077 1.213-.152.45-.076 1.104-.39-.002-.025-.014-.05-.01-.027-.029-.056m-41.234 86.65.043-.087q.015-.04.43-.568.417-.529.785-1.002.368-.474.623-.813t1.813-2.509q.01.042.005.27-.005.227-.229 1.77-.224 1.541-.435 2.867-.212 1.326-.353 2.32t-.296 1.938q-.003.013-.017.025-.013.012-.03.022t-.118.133m-3.793 3.834q.023-.004.148.018.1.02 2.026-.145t3.13-.28q1.207-.117 1.796-.125t.9.013q.31.022.533.066t.275.074.053.036v-.035q-.003-.011-.013-.022-.01-.012-.158.004m-6.903 5.464q.018-.11.063-.257.044-.148.19-.411.148-.264.348-.495t.532-.46q.33-.229.663-.336.332-.107.701-.126.37-.02.882.126.513.145.791.33.279.183.455.422.177.24.226.531t-.038.647-.295.71q-.208.356-.702.863-.494.508-.846.81-.353.302-.688.596-.335.295-.609.545t-.43.403q-.155.153-.72.867.023.014.405.056.383.043 1.535.018 1.153-.025 1.81-.01.655.015 1.665.061l.055.031.197-.024m6.383-15.756q-.06.207-.092.374-.032.166-.043.95-.011.785.093 1.685.105.9.2 1.679.094.779.153 1.371.06.593.097 1.111.037.519.085 1.274l.084 1.307q.036.554.017 1.341-.014.02-.14-.02"/>
        <path stroke="#9198e5" stroke-width="1.573" d="M483.38 413.55q.195-.275.254-.339.06-.064.245-.217.186-.153.495-.316.31-.163.822-.246.513-.083.906-.026.393.056.675.219.282.162.394.275.11.113.26.381t.212.713.036.713q-.024.267-.17.725-.145.458-.405.886-.26.427-.814.956-.555.529-1.237 1.016-.037.036.573-.128.204-.072.958-.221.753-.15 1.435-.156.681-.005.989.044.308.05.59.142.282.093.522.226.24.132.386.245.146.114.3.32.154.205.233.374.08.17.17.526t.117.579.02.7q-.007.479-.137.895t-.353.744q-.223.327-.46.529-.237.2-.407.296-.17.094-.612.24-.443.145-4.179.14-.042.012.162-.215l.048-.033"/>
        <path stroke="#e66465" stroke-width="1.573" d="m809.619 327.419.024-.194q.022-.166.02-.346-.003-.18-.008-.258-.006-.078-.09-.314-.084-.237-.247-.485-.164-.247-.362-.425-.197-.177-.45-.296-.253-.12-.705-.148t-.75.064-.569.283-.398.344q-.127.155-.216.326-.089.17-.145.339-.056.168-.086.6-.03.433.018.7.047.266.124.437.076.17.122.238.046.07.266.304.22.235.44.386.218.15.563.237.344.086.546.07.201-.016.307-.041t.55-.348.483-.373l.112-.136q.072-.087.584-2.062m-75.245 57.441 69.36-53.784m-11.357 4.041 11.383-4.118m.153.107-7.216 8.983m16.883-26.604-.104.294-.155.41q-.153.44-.558 1.897-.404 1.456-.776 3.228t-.788 4.401l-.012.34"/>
        <path stroke="#e66465" stroke-width="1.573" d="m813.545 312.56.262.208q.01.036.31.642.3.607.617 1.474.316.867.704 2.084t.71 2.036q.324.819.575 1.278.252.46.417.679t.221.288.085.115.017.085-.013.016-.037-.175"/>
        <path stroke="#e66465" stroke-width="1.573" d="m812.68 319.09.131.04q.17.06 4.886-.078"/>
        <path stroke="#f6f7ef" stroke-width=".786" d="m85.306 151.552.453 169.842m-19.303-18.376 188.005-.051M82.02 159.418l3.298-7.86m.138.364 2.374 7.094M413.033 34.98l.231 195.366m-19.081-43.9 188.006-.051M409.748 42.846l3.298-7.86m.138.364 2.373 7.094"/>
        <path stroke="#f6f7ef" stroke-width="1.573" d="M408.152 195.59q.085-.246.094-.833t-.084-1.077-.409-1.039-.684-.845-.694-.425q-.326-.127-.877-.063-.55.063-.84.173-.291.11-.534.222t-.675.39-.609.448-.361.467-.372 1.33q-.186 1.033-.107 1.724t.29 1.242q.21.55.506 1.001.298.45.546.71.248.258.365.364.117.107.43.31t.744.313.679.097q.246-.012.373-.054.125-.043.675-.467t.7-.625.33-.568.25-.56.144-.533-.341-2.524m-4.731-79.774q-.073.21-.422 6.371.098.012.526-.023.43-.034.63-.087t.536-.167.526-.191.257-.116q.066-.038.228-.186.031-.03.33-.267m1.045-5.098q-.05.164-.102.608-.053.444-.161 1.466-.11 1.022-.285 2.261t-.408 2.965-.376 2.683q.005.085-.23-.181m-2.351 32.602q-.002-.058-.144-.07l.044-.232q-.01-.062.322-.575.333-.512.77-.876.435-.362.91-.572.474-.21 1.02-.177.546.034.802.234.257.2.493.596t.285 2.19-.291 2.448-.585.953-1.015.927-1.289 1.104-.549.666q.092.054.15.065.057.01.3-.002.14.013.245-.007.106-.02.782-.11t4.083-.215q.027-.027-.684-.358m8.872-141.916q.461.463 1.305 1.359.844.897 1.548 1.575.705.68 1.21.988.04.007.037-.025-.001-.033-.061-.08m2.578-4.683q-.148.315-.47 1.135-.324.82-.68 1.795t-.807 2.35q-.452 1.374-1.355 3.52l-.033.042q-.015.058-.118.246m76.421 161.872.004.063q.015.335.046 1.63.032 1.294.38 2.104.122.046.158.05.035.005.255-.024t.639-.111.916-.1.76.05.44.183.378.645.111 1.112-.249.926-.26.48q-.099.136-.466.41-.366.274-.927.446-.562.172-.91.186-.347.013-.846-.129l-.04-.04q-.034-.056-.27-.293m-.495-8.143.196.046q.259.08 3.87-.156m-60.705 3.884q.04-.265.05-.323.009-.058.226-.543.218-.486.586-1 .37-.514.796-.904t.777-.587q.351-.198.751-.276t.565-.058.272.058.266.137.294.246.15.156q.018.01.192.407t.175 1.125q-.001.729-.506 1.806-.504 1.077-.96 1.742l-.59.857q-.133.192-.26.396-.128.204-.19.338-.061.133-.085.214.018.002.477-.003.46-.005 1.26-.086.799-.08 2.495-.263l.012-.013-.018-.023q.004-.019-.217-.026m141.568-24.312q.243.433 1.698 2.033t2.516 2.696 1.507 1.595q.446.5.564.607.119.109.144.136t-.36.008"/>
        <path stroke="#f6f7ef" stroke-width="1.573" d="M593.922 173.162q-.12.196-.214.346-.093.151-1.401 2.026l-2.122 3.043q-.814 1.167-1.24 1.855-.428.689-.77 1.447.002.08-.145.266M80.424 312.162q.085-.246.094-.833.01-.587-.083-1.077t-.41-1.039-.684-.845-.693-.425q-.327-.127-.877-.063-.55.063-.841.174t-.534.221q-.243.112-.675.39-.431.277-.608.449-.177.17-.362.466-.184.295-.371 1.329t-.108 1.725q.08.69.29 1.242.21.55.507 1.001t.545.71.366.364.43.31.744.313q.431.11.678.097t.373-.055.675-.465q.55-.425.7-.626.15-.202.331-.568.18-.367.25-.56.068-.191.143-.533.075-.34-.34-2.524m-4.731-79.774q-.073.21-.423 6.371.098.012.527-.023.429-.034.629-.087t.536-.167q.337-.115.526-.191.19-.077.257-.116.067-.038.229-.186.03-.03.33-.267m1.044-5.099q-.05.165-.101.609-.053.444-.162 1.466t-.284 2.262-.408 2.964q-.234 1.726-.376 2.683.004.085-.23-.181m-2.351 32.602q-.002-.058-.144-.07l.044-.232q-.011-.062.322-.574.332-.513.769-.876.436-.363.91-.573t1.02-.177.803.234.493.596.284 2.19q.049 1.794-.291 2.448t-.585.953-1.015.927-1.288 1.104-.55.667q.092.053.15.064.057.01.301-.002.138.013.244-.007t.783-.11q.675-.09 4.083-.215.027-.027-.684-.358m8.871-141.916q.462.463 1.305 1.36.845.896 1.549 1.575t1.21.987q.039.007.037-.025-.002-.033-.062-.08m2.579-4.682q-.149.314-.471 1.134-.323.82-.68 1.795-.355.976-.807 2.35t-1.355 3.52l-.033.042q-.015.058-.118.246m76.421 161.872.004.064q.015.334.047 1.629.031 1.295.379 2.104.123.046.158.05t.255-.024q.22-.03.64-.111.42-.082.916-.1t.76.05q.262.069.44.183.177.114.378.645.2.53.11 1.112-.088.581-.248.926-.162.345-.26.48-.1.136-.466.41-.367.274-.928.446-.562.172-.91.186-.347.013-.846-.129l-.04-.04q-.033-.056-.27-.293m-.494-8.143.195.046q.26.08 4.148-.174m-60.982 3.903.049-.324q.01-.058.227-.543t.586-1 .796-.904.777-.587.75-.276.566-.058.272.058.266.137.293.246q.134.145.151.156.017.01.192.408.174.396.174 1.124t-.506 1.806q-.504 1.077-.96 1.742t-.59.857-.26.396q-.127.205-.189.338t-.086.214q.018.004.478-.004.46-.006 1.259-.086.799-.081 2.496-.264l.012-.012-.019-.024q.004-.018-.217-.025m141.568-24.311q.243.433 1.698 2.033t2.517 2.696 1.506 1.595q.446.5.565.608t.143.136-.36.007"/>
        <path stroke="#f6f7ef" stroke-width="1.573" d="m266.194 289.734-.213.347q-.094.15-1.402 2.026l-2.122 3.042q-.813 1.167-1.24 1.855-.428.69-.77 1.447.003.08-.145.266"/>
        <path stroke="#f6f7ef" stroke-width=".786" d="m708.416 32.513.453 169.841m-19.304-18.376 188.007-.05M705.13 40.378l3.298-7.858m.139.363 2.373 7.094"/>
        <path stroke="#f6f7ef" stroke-width="1.573" d="M703.535 193.123q.084-.247.093-.834.01-.587-.083-1.076-.092-.49-.41-1.039-.316-.548-.683-.845t-.694-.425q-.327-.127-.877-.064-.55.064-.841.174t-.534.222-.674.39-.609.448-.362.466-.37 1.33q-.188 1.033-.108 1.725.078.69.288 1.242.211.55.508 1.001t.545.709.366.365.43.31q.312.202.744.313.431.11.678.097t.373-.055.676-.466.7-.626q.15-.201.33-.568t.25-.558q.069-.193.144-.534.074-.34-.341-2.524m-4.731-79.774q-.073.21-.422 6.371.097.011.526-.023t.629-.087.537-.168.526-.19q.19-.077.256-.116.067-.039.229-.186.031-.03.33-.267m1.045-5.099q-.05.165-.102.609-.053.443-.162 1.466-.109 1.021-.284 2.261t-.408 2.965-.376 2.683q.004.085-.23-.182m-2.351 32.603q0-.058-.144-.07l.044-.232q-.01-.062.322-.575t.769-.875.91-.574 1.02-.176.803.234.493.596.284 2.19-.29 2.448-.586.952q-.245.299-1.014.927-.77.63-1.289 1.105t-.55.667q.093.053.15.064.058.01.301 0 .138.013.245-.007t.782-.11 4.083-.216q.027-.027-.684-.357m-.321-87.674q-.37.016-1.07.257-.7.24-1.18.552-.479.31-.875.76-.396.448-.632 1.085-.236.636-.296 1.11t.055 1.43.366 1.55.404.795.354.377.683.304q.482.126.747.104t.32-.033.357-.212q.302-.2.514-.631.21-.43.246-.745.035-.314 0-.593t-.186-.554q-.149-.275-.338-.44-.188-.167-.465-.324-.277-.158-.38-.189-.101-.03-.273-.004-.17.028-.807.36l-.322.2m11.97-59.403q.462.462 1.306 1.36.844.896 1.548 1.574.705.679 1.21.988.039.007.037-.026 0-.032-.061-.079m2.578-4.683q-.149.315-.471 1.135-.323.82-.68 1.795-.355.975-.807 2.35-.451 1.374-1.355 3.52l-.033.042q-.015.057-.118.246m76.421 161.872.004.063q.016.335.048 1.63.031 1.294.378 2.104.124.045.159.05.035.004.255-.025t.64-.11.915-.1q.497-.019.76.05.263.068.44.183.178.114.378.644t.112 1.112q-.09.582-.25.927t-.26.48q-.099.136-.465.41-.367.274-.929.446-.561.172-.909.185-.347.014-.846-.128l-.04-.04q-.034-.056-.27-.294m-.495-8.141.195.045q.26.08 3.87-.156m-60.704 3.884.049-.323q.01-.058.227-.543t.586-1 .796-.904.777-.587.75-.276q.402-.078.566-.058.165.02.272.057t.266.138.293.245.151.156.192.409.174 1.124q0 .729-.505 1.806t-.96 1.742l-.59.857q-.133.191-.26.396-.128.204-.19.337t-.086.215q.019.004.478-.004.46-.005 1.26-.086.798-.08 2.495-.263l.012-.013-.019-.023q.005-.02-.217-.026m141.568-24.311q.243.433 1.698 2.033t2.517 2.696q1.06 1.095 1.507 1.595t.564.607.144.136q.025.028-.36.008"/>
        <path stroke="#f6f7ef" stroke-width="1.573" d="m889.304 170.695-.213.346q-.094.151-1.401 2.027l-2.122 3.042q-.814 1.166-1.241 1.855t-.77 1.447q0 .079-.145.266m-51.423 8.916.194-.142q.037-.009 1.735-.193t3.494-.28q.069.007.058.204l.021.335q.024.07-1.832 5.855l-.234-.016"/>
        <path stroke="#f6f7ef" stroke-width="1.573" d="M833.549 191.917q.108.013.295-.012t1.28-.119q1.091-.094 1.81-.16.717-.068 1.797-.272m-376.804-.236.068-.06q.012-.012.107-.08l.28-.2q.188-.132.483-.3.296-.169.617-.243.32-.074.571-.03.251.045.429.227.177.182.226.341t.03.421-.244.82-.4 1.372q.19.119.343.193t.41.228q.255.155.51.417.252.262.358.414.105.15.173.435.068.284.024.533t-.127.38-.13.203-.328.256-.959.301-1.215.059-.919-.19-.657-.28-.464-.297q-.186-.147-.234-.256-.015-.062-.064-.198m-65.24 21.398 3.008-.163q.061-.04.428-.212m2.603-2.405.066-.135q.016-.027.158-.214.143-.188.416-.407.273-.22.445-.316.173-.096.519-.133.345-.036.605.12t.44.435.249.562q.068.283.043.878-.026.594-.298 1.331-.273.738-.708 1.427-.436.689-.723 1.105t-.461 1.048q.063.022.127.04t.232.042q.167.025.437.017.27-.007 1.111-.098.841-.09 2.019-.085l.38.044"/>
        <path stroke="#f6f7ef" stroke-width=".786" d="m413.347 287.222.453 169.842m-19.304-18.376 188.007-.051M410.062 295.088l3.297-7.859m.139.363 2.373 7.094"/>
        <path stroke="#f6f7ef" stroke-width="1.573" d="M408.466 447.832q.085-.246.093-.833.01-.587-.083-1.077-.092-.49-.41-1.038-.316-.549-.683-.846t-.694-.424q-.327-.128-.877-.064-.551.064-.841.174t-.534.222-.674.39-.609.448-.362.466-.37 1.33q-.188 1.033-.109 1.725.079.69.29 1.241t.507 1.002.545.708.366.366.43.31q.312.202.744.313.431.11.678.097t.373-.055.676-.466.7-.626.33-.568.25-.559.143-.533q.075-.341-.34-2.525m-4.731-79.774q-.073.21-.422 6.372.097.011.526-.023t.63-.087.535-.168.527-.19q.189-.078.256-.116t.23-.186q.03-.03.329-.268m1.045-5.098q-.05.165-.103.608-.052.444-.16 1.466-.11 1.022-.285 2.262t-.408 2.965-.376 2.682q.005.085-.23-.18m-2.351 32.601q-.002-.058-.145-.07l.045-.231q-.01-.062.322-.575t.769-.876.91-.573 1.02-.176.803.233.493.597.284 2.19-.29 2.447-.586.953-1.015.927-1.288 1.104q-.519.476-.55.667.093.054.15.064.058.01.301-.004.139.013.244-.007.107-.02.782-.11.677-.09 4.084-.215.027-.027-.685-.357m8.872-141.914q.462.462 1.306 1.359.843.896 1.548 1.575t1.21.987q.039.007.037-.025t-.062-.08m2.579-4.682q-.149.315-.471 1.135-.323.82-.68 1.795-.355.975-.807 2.35-.452 1.373-1.355 3.519l-.033.043q-.015.057-.118.246m76.421 161.872.004.063q.016.334.047 1.629.032 1.295.379 2.104.123.046.159.05.035.005.254-.024.22-.029.64-.11.42-.082.916-.101.497-.018.76.05.262.07.44.184t.378.644.111 1.112-.25.927-.26.48-.465.41q-.366.273-.928.446-.562.171-.91.185-.347.014-.846-.128l-.04-.04q-.034-.057-.27-.294m-.494-8.142.195.045q.26.08 4.149-.174m-60.984 3.903q.04-.266.05-.324t.227-.543.586-1q.37-.513.795-.903.427-.39.778-.588.35-.197.751-.275.4-.079.565-.059t.271.058.267.138.293.245.151.156.192.408.174 1.125-.505 1.805-.96 1.743l-.59.856q-.133.192-.26.396-.128.205-.19.338-.061.134-.086.214.018.004.478-.004.46-.005 1.259-.086.8-.08 2.496-.263l.012-.013-.019-.023q.004-.019-.217-.026m141.567-24.31q.244.432 1.7 2.033t2.516 2.696 1.507 1.595.564.607.143.136-.36.008"/>
        <path stroke="#f6f7ef" stroke-width="1.573" d="m594.236 425.404-.214.347q-.093.15-1.401 2.026l-2.122 3.042q-.814 1.167-1.241 1.856t-.77 1.447q.003.078-.145.266"/>
        <path stroke="#f6f7ef" stroke-width=".786" d="m732.129 288.806.48 113.784m-19.303-18.376 131.334-.562m-115.77-87.937 3.298-7.859m.139.364 2.373 7.093"/>
        <path stroke="#f6f7ef" stroke-width="1.573" d="M727.275 393.359q.085-.247.094-.834t-.084-1.077-.41-1.038-.683-.845-.694-.425-.877-.064-.84.174-.534.222-.675.39-.609.448-.361.466-.372 1.33-.107 1.725q.078.69.289 1.242.21.55.507 1 .297.451.546.71.248.259.365.365t.43.31q.313.202.744.313.432.11.678.097t.373-.055.676-.466.7-.626.33-.568.25-.558.144-.534q.074-.34-.341-2.524m9.533-117.961q.461.463 1.305 1.36.844.896 1.548 1.575t1.21.987q.039.008.037-.025 0-.033-.061-.079m2.578-4.683q-.149.315-.47 1.135-.324.82-.68 1.795t-.808 2.35-1.354 3.519l-.033.043q-.016.057-.119.246m110.877 88.45q.244.432 1.7 2.032t2.516 2.696 1.506 1.595q.446.5.565.608t.143.136-.36.007"/>
        <path stroke="#f6f7ef" stroke-width="1.573" d="m856.43 370.325-.213.347q-.094.15-1.402 2.026l-2.122 3.042q-.814 1.167-1.24 1.856-.428.688-.77 1.446.004.08-.145.266"/>
        <path stroke="#f6f7ef" stroke-width=".786" d="m245.53 299.182 9.114 3.226m-8.444 4.257 8.555-3.905M574.48 183.075l9.113 3.227m-8.444 4.256 8.555-3.905m286.012-6.407 9.114 3.227m-8.445 4.256 8.555-3.905m-304.914 251.26 9.114 3.227m-8.444 4.256 8.555-3.906M835.9 380.089l9.113 3.226m-8.444 4.256 8.555-3.905"/>
        <path stroke="#f6f7ef" stroke-width="1.573" d="M799.332 387.255q0 .01-.135.129.004.05-.42 1.698-.423 1.648-.626 2.998t.038 2.119q.035.014.098.018t.11-.009q.045-.011.325-.125.279-.114.574-.272.296-.16 2.706-1.33l.447-.187m1.408-4.283q-.025.098-.24.323-.047.18-.13.524-.082.344-.367 2.026t-.499 3.416q-.213 1.733-.291 2.611-.078.88-.13 1.656l-.022.207m-81.501-64.964.027-.05v-.079q.012-.147.065-.387t.181-.557q.129-.317.392-.648.264-.332.532-.541.267-.21.778-.386.512-.176.878-.17.366.008.611.083.246.076.506.288.26.213.49.704.23.492.275 1.104.045.611-.03 1.062-.073.45-.284.96t-.407.778q-.195.267-.322.374-.127.108-.223.14t-.126-.006-.007-.11.325-.237.659-.233q.355-.07.484-.069.128 0 .405.025.278.025.598.163t.515.285.416.495.273.664q.052.318.03.497-.023.18-.034.198-.01.018-.054.143-.043.125-.58.624-.538.5-1.008.72-.469.221-1.045.369-.577.148-1.366.171-.788.024-1.477-.114-.689-.136-1.033-.304t-.467-.271q-.124-.104-.144-.152t.027-.1q.047-.05.261-.044M531.74 230.146q-.072-.052-.16-.302-.033-.032-.53-.41-.496-.38-1.153-.568t-1.095-.192-.785.055-.796.244-1.196.933q-.748.747-1.395 2.296t-.79 2.691-.046 2.078.186 1.234.324.738.453.711q.218.273 1.059.925.84.652 1.917.963t1.765.346 1.436-.032q.747-.07 1.259-.238t.743-.292q.231-.123.41-.25.18-.129.352-.304.171-.174.853-.925m4.665-6.524.301.103q.267.054 5.04-.357m-3.642 3.994.275-.136q.224-.036 4.275-.61m5.501-5.198q.082.487.39 2.768t1.25 6.065q.05-.015.009-.614"/>
        <path stroke="#f6f7ef" stroke-width="1.573" d="M550.455 231.632q.071-.027.214-.176.143-.15.335-.288.192-.14.62-.338.43-.2 1.001-.34.572-.14.987-.098t.65.132.425.252q.191.16.381.532t.281.874-.052 1.167-.388 1.285q.027-.012.45-.07.422-.058.81-.044.387.014.561.051l.361.078q.188.042.747.382t.944.869.519.874.175.752-.033.846-.322.801q-.248.36-.567.607-.32.247-.855.457t-1.187.304-1.24.066-1.607-.385q-.037-.054-.424-.375m10.895-5.037.145-.064.184-.05q.144-.051 1.35-.192 1.208-.141 2.22-.275 1.012-.133 3.002-.696m8.127-4.431q-.01.099-.14.292-.13.194-.225.438-.096.245-.25.821-.153.577-.278 1.234-.125.656-.183 1.077-.059.422-.25 2.225-.192 1.805-.312 2.876-.12 1.072-.228 1.808-.024.118-.019.277"/>
        <path stroke="#f6f7ef" stroke-width="1.573" d="m579.024 229.262.149.185q.03.025.785 1.116.756 1.091 1.886 2.956t1.604 2.735.787 1.52q.312.652.524 1.015-.01.024-.05.064-.038.04-.14.182"/>
        <path stroke="#f6f7ef" stroke-width="1.573" d="m578.858 236.273.195-.059q.077-.03 4.616-.521m-62.122-28.522-.062.195-.049.2-.013.278q-.035.153.22 2.102.257 1.948.49 3.431.234 1.483.349 2.336t.434 3.472l.022.033.168.465"/>
        <path stroke="#f6f7ef" stroke-width="1.573" d="M521.573 207.916q.163-.083.418-.2t.49-.177q.237-.06.388-.083t.546-.01q.393.015.82.163.429.148.92.598.49.45.762 1.043.273.593.315 1.158.042.564-.039.988-.08.423-.501 1.074-.42.65-.814 1.005-.392.354-.6.478-.016-.027.409-.178t1.233-.232 1.365-.01 1.073.285 1.004.664.875 1.313.439 1.453-.064 1.116-.574 1.073-1.018.856q-.557.31-1.39.465-.835.153-1.46.111-.626-.043-1.083-.192t-.637-.37l.024-.32m12.242-7.85q.327-.14.777-.224t1.035-.14q.585-.059 1.486-.022.902.036 1.535.084t1.506.07m-5.316 3.552.097-.022q.229-.072 1.786-.21t4.104.072m11.45-7.845q-.225.4-.503 1.415t-.577 2.827-.45 3.55-.225 2.885-.173 2.048l-.065.064m2.319-12.186q.059.029.232.132.264.173 1.255 1.626.992 1.453 1.8 3.395.807 1.942 1.248 3.008t.692 1.61q.251.542.406.816t.255.373l.1.102q.001.001-.11.379"/>
        <path stroke="#f6f7ef" stroke-width="1.573" d="m554.69 216.296.14-.063q.142-.086.802-.243.66-.156 1.96-.22 1.298-.063 3.022.339m8.472-2.204.22-.049q.126 0 1.163-.039 1.036-.038 1.734-.011.697.027 1.97.26"/>
        <path stroke="#f6f7ef" stroke-width="1.573" d="M569.668 211.745q.044.097 1.904 5.547m16.933-7.452q-.065-.024-.329-.268-.263-.245-.65-.505-.386-.26-1.234-.522-.848-.261-1.66-.242-.813.02-1.19.138-.378.12-.547.225t-.328.244-.477.68-.52 2.03q-.203 1.49-.074 2.36.13.87.268 1.247t.388.767.708.844.865.695q.406.24 1.03.379.623.138 1.166.123t1.443-.307 3.275-1.807"/>
    </g>
</svg>
